<svg width="120" height="120" viewBox="0 0 120 120" fill="none" xmlns="http://www.w3.org/2000/svg">
<path opacity="0.15" d="M71.25 20.625H48.75C29.0625 20.625 13.125 36.5625 13.125 56.25C13.125 75.9375 29.0625 91.875 48.75 91.875H56.25L71.25 103.125V91.875C90.9375 91.875 106.875 75.9375 106.875 56.25C106.875 36.5625 90.9375 20.625 71.25 20.625Z" fill="white"/>
<path d="M63.5625 77.8125L60.9375 65.25C60.75 64.3125 59.25 64.3125 59.0625 65.25L56.4375 77.8125L57.1875 91.125L63 90.9375L63.5625 77.8125Z" fill="#0436ED"/>
<path opacity="0.7" d="M70.125 43.5C70.125 51 65.625 58.6875 60 58.6875C54.375 58.6875 49.875 51.1875 49.875 43.5C49.875 37.875 54.375 33.375 60 33.375C65.625 33.375 70.125 37.875 70.125 43.5Z" fill="white"/>
<path d="M82.3125 76.875C81.75 74.4375 81 70.6875 79.875 68.0625C79.875 67.875 79.6875 67.6875 79.6875 67.6875C78.9375 66.1875 78 65.0625 76.6875 64.3125L68.25 61.875L63.5625 78.5625L60 90.5625L56.4375 78.5625L51.5625 61.875L43.5 64.3125C42 65.25 40.875 66.5625 40.3125 68.25C40.3125 68.25 40.3125 68.25 40.125 68.4375C39 71.0625 38.25 74.4375 37.6875 76.875C36.9375 80.0625 36.1875 84.9375 35.8125 89.4375C39.75 90.9375 44.0625 91.875 48.5625 91.875H56.0625L71.0625 103.125V91.875C75.5625 91.875 79.875 90.9375 83.8125 89.4375C83.625 84.9375 82.875 80.0625 82.3125 76.875Z" fill="#547CEC"/>
</svg>
