<svg class="flex-grow" version="1.1" id="Layer_1" xmlns="http://www.w3.org/2000/svg" x="0px" y="0px" viewBox="0 0 474 122" style="enable-background:new 0 0 474 122"><g><g><path d="M124.1,25.1V96h-14.5V25.1H124.1z"></path><path d="M183.1,48.2v48c0,14.9-11.6,24.1-25.8,24.1c-13.7,0-23.9-8.5-24.9-20.5l14.4,0.1c0.6,5.1,5.1,7.3,11,7.3 c5.6,0,10.8-3,10.8-10.8v-6.1c-3.7,2.4-8.4,3.8-13.7,3.8c-13.2,0-23.8-10.7-23.8-23c0-14.3,10.6-23.9,23.8-23.9 c5.3,0,10,1.4,13.7,3.8v-2.6L183.1,48.2z M168.7,76.5V64.8c-2.9-4.3-7-5.7-11.1-5.7c-7.1,0-12.1,4.8-12.1,12 c0,5.3,5,11.1,12.1,11.1C161.6,82.2,165.7,80.7,168.7,76.5z"></path><path d="M240.8,71.5c0,14.8-10.9,25.3-25.6,25.3c-14.8,0-25.7-10.5-25.7-25.3c0-14.7,10.9-25.4,25.7-25.4 C229.9,46.2,240.8,56.9,240.8,71.5z M226.9,71.5c0-7-4.6-12.6-11.6-12.6c-7.2,0-11.7,5.6-11.7,12.6c0,7.2,4.6,12.5,11.7,12.5 C222.3,84,226.9,78.7,226.9,71.5z"></path><path d="M330.6,48.3V96L316.5,96v-2.7c-3.7,2.4-8.4,3.9-13.7,3.9c-13.2,0-23.8-11.2-23.8-25c0-13.9,10.6-25.1,23.8-25.1 c5.3,0,10,1.5,13.7,3.9v-2.7L330.6,48.3z M316.5,79.5V64.9c-3-4.2-7.2-5.4-11.3-5.4c-7.3,0-12.3,5.8-12.3,12.8 c0,6.9,5,12.7,12.3,12.7C309.3,84.9,313.5,83.8,316.5,79.5z"></path><path d="M389,70.1V96h-14V71.8c0-7.8-3.9-11.9-10.8-11.9c-3.6,0-7.6,2.1-11,6.1v30h-14.3V48.4h14.3V52c3.9-3.1,8.4-4.8,13.8-4.8 C379.7,47.2,389,56.1,389,70.1z"></path><g id="lINT7W_1_"><g><polygon points="103,96 88.3,96 78.7,60.3 58.1,96 41.6,96 73.4,40.8 68.3,21.6 25.3,96 8.9,96 63.3,1.7 77.7,1.7 84.1,25.1 99,25.1 88.8,42.8 				"></polygon></g></g><path d="M446.6,25.1V96h-14.5v-2.7c-3.7,2.4-8.4,3.9-13.7,3.9c-13.2,0-23.8-11.2-23.8-25.1c0-13.8,10.6-25,23.8-25 c5.3,0,10,1.5,13.7,3.9V25L446.6,25.1L446.6,25.1z M432.1,79.6V64.8c-3-4.3-7.2-5.5-11.4-5.5c-7.3,0-12.4,5.9-12.4,12.8 c0,7,5.1,12.9,12.4,12.9C424.9,85,429.1,83.9,432.1,79.6z"></path><path d="M276.4,60.4c-3.1,0.4-10.5,0.7-14.9,6.7v29h-14.3V48.4h14.3V52c3.3-2.8,8.2-4.4,14.9-3.8V60.4z"></path></g><g><path d="M459,26.5h-2.8v6.6h-1.6v-6.6h-2.8V25h7.1V26.5z"></path><path d="M468.5,33h-1.6v-4.5l-2.1,3.3h-1l0,0l-2.1-3.4l0,4.6H460v-8.1h1.1l3.1,4.9l3.1-4.9h1.1L468.5,33L468.5,33z"></path></g></g></svg>