<svg width="56" height="56" viewBox="0 0 56 56" fill="none" xmlns="http://www.w3.org/2000/svg">
<path d="M50.575 16.3626C49.6125 16.1876 48.7375 16.6251 48.3 17.3251C47.6875 18.1126 46.8125 18.7251 45.85 18.9876H45.5V21.0001H50.1375C51.5375 21.0001 52.675 19.6876 52.4125 18.2876C52.325 17.3251 51.5375 16.5376 50.575 16.3626Z" fill="#0436ED"/>
<path d="M5.42499 16.3626C6.38749 16.1876 7.26249 16.6251 7.69999 17.3251C8.31249 18.1126 9.18749 18.7251 10.15 18.9876H10.5V21.0001H5.86249C4.37499 21.0001 3.23749 19.6876 3.49999 18.2876C3.67499 17.3251 4.46249 16.5376 5.42499 16.3626Z" fill="#0436ED"/>
<path d="M10.5 46.375H7C6.0375 46.375 5.25 45.5875 5.25 44.625V39.375H12.25V44.625C12.25 45.5875 11.4625 46.375 10.5 46.375Z" fill="#0436ED"/>
<path d="M49 46.375H45.5C44.5375 46.375 43.75 45.5875 43.75 44.625V39.375H50.75V44.625C50.75 45.5875 49.9625 46.375 49 46.375Z" fill="#0436ED"/>
<path d="M46.375 21C46.025 18.725 45.15 15.8375 43.8375 12.775C43.225 11.375 41.9125 10.4125 40.425 10.325C32.1125 9.62505 23.8 9.62505 15.4875 10.325C14 10.4125 12.6875 11.375 12.075 12.775C10.85 15.75 9.975 18.55 9.625 21C7.6125 22.6625 6.125 24.675 5.25 27.125V38.5C5.25 40.5125 6.7375 42.175 8.75 42.2625C21.6125 43.1375 34.3875 43.1375 47.25 42.2625C49.2625 42.0875 50.75 40.5125 50.75 38.5V27.125C49.7 24.85 48.3 22.8375 46.375 21Z" fill="#DADEE7"/>
<path d="M37.1 40.25H18.4625C16.7125 40.25 15.1375 39.55 13.9125 38.325L13.2125 37.625C12.8625 37.3625 13.125 36.75 13.5625 36.75H42.175C42.7 36.75 42.9625 37.45 42.525 37.7125L41.125 38.85C39.9875 39.725 38.5875 40.25 37.1 40.25Z" fill="#547CEC"/>
<path d="M44.625 24.5C42.175 24.5 40.25 26.425 40.25 28.875H15.75C15.75 26.425 13.825 24.5 11.375 24.5C8.925 24.5 7 26.425 7 28.875C7 31.325 8.925 33.25 11.375 33.25H44.625C47.075 33.25 49 31.325 49 28.875C49 26.425 47.075 24.5 44.625 24.5Z" fill="#547CEC"/>
<path d="M11.375 31.5C12.8247 31.5 14 30.3247 14 28.875C14 27.4253 12.8247 26.25 11.375 26.25C9.92525 26.25 8.75 27.4253 8.75 28.875C8.75 30.3247 9.92525 31.5 11.375 31.5Z" fill="white"/>
<path d="M44.625 31.5C46.0747 31.5 47.25 30.3247 47.25 28.875C47.25 27.4253 46.0747 26.25 44.625 26.25C43.1753 26.25 42 27.4253 42 28.875C42 30.3247 43.1753 31.5 44.625 31.5Z" fill="white"/>
<path d="M42.875 18.9874C42.525 17.4999 41.9125 15.7499 41.0375 13.6499C40.775 12.9499 40.075 12.4249 39.2875 12.3374C35.525 12.0749 31.7625 11.8999 28 11.8999C24.2375 11.8999 20.475 12.0749 16.7125 12.3374C15.925 12.4249 15.3125 12.8624 14.9625 13.5624C14.0875 15.5749 13.475 17.4124 13.125 18.8999C13.0375 19.3374 13.3 19.7749 13.7375 19.7749C23.275 20.7374 32.725 20.7374 42.175 19.7749C42.7 19.8624 42.9625 19.4249 42.875 18.9874Z" fill="white"/>
<path d="M37.625 35C38.5915 35 39.375 34.2165 39.375 33.25C39.375 32.2835 38.5915 31.5 37.625 31.5C36.6585 31.5 35.875 32.2835 35.875 33.25C35.875 34.2165 36.6585 35 37.625 35Z" fill="white"/>
<path d="M18.375 35C19.3415 35 20.125 34.2165 20.125 33.25C20.125 32.2835 19.3415 31.5 18.375 31.5C17.4085 31.5 16.625 32.2835 16.625 33.25C16.625 34.2165 17.4085 35 18.375 35Z" fill="white"/>
</svg>
