<svg width="165" height="75" viewBox="0 0 165 75" fill="none" xmlns="http://www.w3.org/2000/svg">
<path d="M40.5776 30.3747C39.2985 30.5549 38.1996 31.5458 37.4969 33.1311C37.3528 33.4734 37.2808 34.8426 37.2808 37.4008C37.2808 41.04 37.2988 41.2021 37.7312 42.1569C38.2716 43.346 38.9742 43.9585 40.2533 44.3548C41.1001 44.6251 41.3523 44.6431 42.2531 44.4449C43.5862 44.1387 44.8293 42.9676 45.1716 41.6705C45.4598 40.5536 45.4598 40.5175 45.0095 40.2833C44.5771 40.0311 44.1267 40.3193 44.1267 40.8418C44.1267 41.4904 43.37 42.8235 42.8476 43.0757C42.5773 43.2199 41.8928 43.346 41.3343 43.346C40.0552 43.346 39.4066 42.9316 38.8481 41.7606C38.4878 40.9679 38.4518 40.6616 38.4518 37.4008C38.4518 33.9959 38.4698 33.8517 38.9022 33.005C39.6588 31.5277 41.2442 31.0053 42.7575 31.7259C43.388 32.0322 43.9105 32.8429 44.1267 33.8878C44.1988 34.3021 44.3429 34.4463 44.7212 34.4823C45.3878 34.5544 45.4779 34.2301 45.1175 33.023C44.7572 31.7619 44.3609 31.2755 43.37 30.7891C42.5053 30.3567 41.6946 30.2306 40.5776 30.3747Z" fill="#090928"/>
<path d="M14.0587 30.6268C13.9146 30.789 13.8605 32.7527 13.8966 37.5088L13.9506 44.1565L16.5989 44.2106C19.085 44.2466 19.2832 44.2286 20.0038 43.8323C21.1388 43.2017 21.6072 42.2289 21.6072 40.5714C21.6072 39.0401 21.1568 37.9412 20.3101 37.4367C19.6976 37.0764 19.6796 36.9143 20.238 36.4819C20.9046 35.9594 21.2469 35.1127 21.2469 34.0678C21.2469 31.4916 19.6796 30.3926 15.9143 30.3746C14.7253 30.3746 14.2028 30.4467 14.0587 30.6268ZM18.8148 31.8879C19.6075 32.2302 19.9858 32.9869 19.9858 34.248C19.9858 35.1307 19.9138 35.3109 19.3733 35.9234L18.7608 36.59H15.2117L15.1576 34.1038L15.1036 31.6357H16.6529C17.5717 31.6357 18.4365 31.7438 18.8148 31.8879ZM19.7156 38.3735C20.6524 39.3824 20.7425 41.22 19.8777 42.373C19.2652 43.2017 17.4817 43.508 15.2657 43.1837C15.1757 43.1657 15.1216 41.9406 15.1216 40.4633V37.761H19.1391L19.7156 38.3735Z" fill="#090928"/>
<path d="M24.3997 30.609C24.3456 30.7171 24.3276 33.8338 24.3456 37.491L24.3997 44.1567H25.4806L25.5347 37.509C25.5707 32.7529 25.5166 30.7892 25.3725 30.627C25.1203 30.3208 24.5078 30.3027 24.3997 30.609Z" fill="#090928"/>
<path d="M27.3722 30.645C27.2642 30.7892 27.1921 31.0414 27.2281 31.2215C27.2822 31.5098 27.5344 31.5638 29.1738 31.6359L31.0654 31.726L31.2456 44.1567H32.2545L32.2365 37.8873L32.2184 31.6359H34.002C35.9837 31.6359 36.3981 31.4557 36.0197 30.7531C35.8396 30.3928 35.6774 30.3748 31.714 30.3748C28.3271 30.3748 27.5524 30.4289 27.3722 30.645Z" fill="#090928"/>
<path d="M49.6214 30.609C48.5765 31.2395 48.2523 31.5278 47.7839 32.3205L47.2794 33.1672V37.3108C47.2794 42.0489 47.3335 42.2651 48.7027 43.4721C49.7836 44.4269 51.0627 44.7512 52.4319 44.4269C54.0533 44.0486 55.0441 43.0578 55.6026 41.2742C55.8909 40.3554 55.9269 34.4643 55.6387 33.5996C55.1162 31.9962 54.7018 31.4557 53.4408 30.7531C52.9183 30.4648 52.4679 30.3748 51.369 30.3928C50.6123 30.3928 49.8196 30.5009 49.6214 30.609ZM52.4139 31.5638C53.1885 31.7259 54.0713 32.6447 54.3595 33.5815C54.6478 34.5544 54.6478 40.3554 54.3595 41.2021C53.8551 42.7155 52.9543 43.346 51.3329 43.346C50.3961 43.346 50.234 43.292 49.5494 42.6614C48.9729 42.157 48.7387 41.7606 48.5405 41.004C48.1982 39.7249 48.1982 35.1489 48.5225 33.9058C48.7927 32.897 49.6935 31.6899 50.288 31.5818C50.9726 31.4557 51.8013 31.4557 52.4139 31.5638Z" fill="#090928"/>
<path d="M58.5572 30.627C58.4131 30.7892 58.3591 32.7529 58.3951 37.509L58.4491 44.1567H59.6382V37.4189C59.6382 30.5369 59.6201 30.3928 58.9716 30.3748C58.8635 30.3748 58.6653 30.4829 58.5572 30.627Z" fill="#090928"/>
<path d="M62.9531 30.591C62.8991 30.7171 62.8811 33.8338 62.8991 37.491L62.9531 44.1567H64.0341V38.6079C64.0341 35.5633 64.0701 33.0771 64.1242 33.0771C64.1782 33.0771 64.4484 33.5456 64.7187 34.122C64.9889 34.6805 65.5114 35.6714 65.8536 36.32C66.5202 37.545 67.7093 39.7609 69.1685 42.5353C69.9792 44.0847 70.0513 44.1567 70.6278 44.1567H71.2403L71.2944 37.4189C71.3124 33.3834 71.2583 30.591 71.1683 30.5009C71.0782 30.4108 70.7899 30.3748 70.5377 30.4469L70.0693 30.555L70.0333 36.1758L69.9792 41.7967L69.1145 40.0852C68.6461 39.1484 67.9615 37.8693 67.6012 37.2207C67.2589 36.5722 66.5022 35.1489 65.9257 34.068C64.1782 30.6991 64.0341 30.4649 63.5116 30.4108C63.2414 30.3748 63.0072 30.4469 62.9531 30.591Z" fill="#090928"/>
<path d="M110.154 30.519C108.875 30.609 107.452 31.5278 106.839 32.6808C106.551 33.2213 106.605 35.0949 106.911 35.7435C107.307 36.5362 108.388 37.4189 109.523 37.9234C111.541 38.7881 112.082 39.0944 112.424 39.5808C112.874 40.2294 112.856 40.986 112.352 41.7427C112.009 42.2651 111.829 42.3552 111.127 42.4093C109.974 42.4813 109.181 41.9228 108.857 40.7698L108.605 39.9051L107.488 39.9591C106.569 39.9952 106.371 40.0672 106.317 40.3555C106.19 40.986 106.677 42.2291 107.307 42.8777C107.902 43.4902 108.208 43.6523 109.577 44.2288C110.19 44.4811 112.172 44.4991 112.316 44.2468C112.37 44.1388 112.622 44.0667 112.874 44.0667C113.559 44.0667 115.09 42.4453 115.144 41.6886C115.306 38.8782 114.784 37.9414 112.424 36.7343C111.973 36.5001 111.541 36.32 111.415 36.32C110.983 36.32 109.523 35.239 109.253 34.6986C108.983 34.1761 108.983 34.068 109.235 33.5276C109.631 32.6988 109.974 32.4827 110.856 32.4646C111.775 32.4466 112.118 32.6988 112.604 33.7438L112.946 34.5184H115.108V33.7257C115.108 33.1132 114.982 32.7709 114.496 32.1584C113.541 30.8973 112.136 30.3568 110.154 30.519Z" fill="#84859B"/>
<path d="M76.1043 30.7892C74.6271 31.672 74.0506 32.5007 73.6722 34.3383C73.438 35.4913 73.5281 39.9772 73.7983 41.1662C74.2667 43.0759 75.8161 44.2649 78.05 44.391C78.8247 44.445 79.3652 44.391 79.4913 44.2649C79.5994 44.1568 79.8516 44.0667 80.0678 44.0667C80.5001 44.0667 81.7973 42.7876 82.1035 42.031C82.2296 41.7607 82.3197 41.1662 82.3197 40.7338V39.9231H81.1487C79.9777 39.9231 79.9777 39.9231 79.9777 40.4456C79.9777 42.4093 77.9059 43.1119 76.6088 41.5625C76.2304 41.1122 76.2124 40.932 76.1944 37.5631C76.1944 32.9871 76.3926 32.4647 78.1941 32.5728C78.9688 32.6088 79.185 32.7169 79.4913 33.1132C79.6894 33.3835 79.9056 33.9059 79.9597 34.2842L80.0678 34.9688L81.2027 35.0229L82.3197 35.0769V34.2842C82.3197 32.825 81.527 31.5098 80.2839 30.9153C79.7255 30.6451 79.185 30.555 78.014 30.573C77.1492 30.573 76.3025 30.6811 76.1043 30.7892Z" fill="#84859B"/>
<path d="M84.2834 30.6811C84.2654 30.7711 84.2474 33.7978 84.2293 37.4369L84.1753 44.0667H86.6434V41.5625C86.6434 40.1753 86.6975 38.9322 86.7515 38.7881C86.8776 38.4458 90.4988 38.3557 90.8951 38.68C91.0933 38.8421 91.1473 39.4727 91.1473 41.4724V44.0667H93.4894V30.555H91.1473V33.2393C91.1473 34.7166 91.0933 36.0497 91.0392 36.2118C90.9492 36.4461 90.5888 36.5001 88.8954 36.5001C87.2019 36.5001 86.8416 36.4461 86.7515 36.2118C86.6975 36.0497 86.6434 34.7166 86.6434 33.2393V30.555H85.4724C84.8239 30.555 84.3014 30.609 84.2834 30.6811Z" fill="#84859B"/>
<path d="M98.9481 30.7711C98.858 30.8972 98.6598 31.4918 98.5337 32.0863C98.4076 32.6808 98.2274 33.2393 98.1734 33.3474C98.1013 33.4374 97.9932 33.7617 97.9392 34.068C97.8851 34.3562 97.759 34.9327 97.6329 35.3291C97.2906 36.5722 97.0744 37.2928 96.8943 37.9413C96.7862 38.2836 96.6601 38.7701 96.624 39.0223C96.57 39.2745 96.4619 39.6348 96.3898 39.833C96.0656 40.6437 95.8314 41.5084 95.8314 41.8687C95.8314 42.0669 95.7593 42.2831 95.6692 42.3372C95.5791 42.3912 95.471 42.6614 95.435 42.9317C95.381 43.2199 95.2729 43.5802 95.2008 43.7424C95.0927 44.0306 95.2008 44.0667 96.4259 44.0667H97.777L97.8671 43.4721C98.2274 41.2922 98.3535 41.1842 100.335 41.1842C102.029 41.1842 102.317 41.3103 102.317 42.103C102.317 42.3732 102.407 42.6614 102.497 42.7155C102.605 42.7695 102.677 43.1118 102.677 43.4541V44.0667H104.028C105.091 44.0667 105.38 44.0126 105.38 43.8144C105.38 43.6703 105.308 43.5082 105.217 43.4541C105.127 43.4001 105.019 43.0938 104.965 42.7695C104.911 42.4452 104.785 41.8687 104.677 41.4904C104.569 41.1301 104.407 40.5356 104.299 40.1933C104.209 39.851 104.028 39.2565 103.92 38.8782C103.812 38.5178 103.686 37.9413 103.632 37.6171C103.578 37.2928 103.47 36.9865 103.38 36.9325C103.29 36.8784 103.218 36.6622 103.218 36.4641C103.218 36.1038 102.984 35.239 102.659 34.4283C102.587 34.2301 102.479 33.8698 102.425 33.6176C102.389 33.3654 102.245 32.8429 102.137 32.4466C102.029 32.0502 101.867 31.4737 101.795 31.1855C101.668 30.663 101.65 30.645 100.407 30.591C99.5246 30.555 99.0742 30.609 98.9481 30.7711ZM100.515 35.0408C100.515 35.239 100.605 35.4552 100.696 35.5092C100.804 35.5633 100.876 35.8876 100.876 36.2299C100.876 36.5722 100.966 36.8964 101.056 36.9505C101.164 37.0045 101.236 37.3288 101.236 37.6531C101.236 37.9594 101.326 38.3197 101.434 38.4278C101.56 38.5539 101.596 38.7701 101.524 38.9322C101.434 39.1664 101.182 39.2024 100.209 39.1664C98.858 39.1124 98.894 39.1484 99.2543 37.8513C99.5246 36.9145 99.7948 35.8155 99.9209 35.185C100.029 34.6265 100.515 34.5184 100.515 35.0408Z" fill="#84859B"/>
<path d="M117.09 30.555V44.0667H124.963L124.981 43.3821C125.035 42.0489 125.107 42.0849 122.242 42.0849H119.666L119.54 41.4003C119.378 40.4095 119.414 38.5178 119.594 38.4098C119.666 38.3557 120.729 38.3017 121.936 38.2836L124.116 38.2476V36.3199H122.08C119.486 36.3199 119.396 36.2659 119.486 34.2662C119.522 33.2933 119.612 32.8249 119.81 32.6988C119.936 32.6087 121.179 32.5367 122.531 32.5367H124.999L124.927 31.6719C124.891 31.2035 124.855 30.7711 124.855 30.6811C124.837 30.609 123.089 30.555 120.963 30.555H117.09Z" fill="#84859B"/>
<path d="M126.692 30.6811C126.512 30.7531 126.458 32.2664 126.458 37.4189V44.0667H129.142L129.196 41.4003L129.25 38.752L130.403 38.698C131.448 38.644 131.61 38.698 132.061 39.1304C132.493 39.5447 132.655 39.9771 132.872 41.2742C132.89 41.3643 132.908 42.0489 132.926 42.7515L132.944 44.0667H134.313C135.664 44.0667 135.682 44.0667 135.556 43.6523C135.484 43.4361 135.376 42.4452 135.304 41.4544C135.142 39.3285 134.979 38.8601 134.133 38.2116C133.376 37.6351 133.34 37.4549 133.916 37.2207C134.385 37.0406 134.673 36.6262 135.051 35.5993C135.448 34.5004 135.286 33.5455 134.439 32.1403C134.061 31.5098 133.574 31.2035 132.205 30.7711C131.592 30.5549 127.143 30.4829 126.692 30.6811ZM131.665 32.7889C132.295 33.1132 132.583 33.7797 132.583 34.8607C132.583 35.5273 132.475 35.8335 132.133 36.2118C131.737 36.6262 131.574 36.6803 130.421 36.6803H129.16V34.7346C129.16 33.6536 129.214 32.7168 129.286 32.6628C129.503 32.4286 131.16 32.5367 131.665 32.7889Z" fill="#84859B"/>
<path d="M140.294 31.5818C139.862 32.1042 137.988 35.0408 137.988 35.2029C137.988 35.293 137.826 35.5092 137.628 35.6893C137.429 35.8695 137.267 36.0857 137.267 36.1938C137.267 36.2838 137.105 36.5721 136.907 36.8603C136.583 37.3107 136.583 37.4008 136.817 37.9053C136.979 38.1935 137.213 38.5358 137.357 38.6619C137.501 38.788 137.628 38.9682 137.628 39.0402C137.628 39.1303 138.042 39.8149 138.528 40.5716C139.033 41.3102 139.429 41.9948 139.429 42.0669C139.429 42.1389 139.591 42.3551 139.789 42.5353C139.988 42.7154 140.15 42.9676 140.15 43.0937C140.15 43.382 140.6 43.5081 142.095 43.5622C142.924 43.5982 143.212 43.5622 143.212 43.382C143.212 43.2559 142.726 42.4092 142.131 41.5084C141.537 40.6256 141.051 39.8509 141.051 39.8149C141.051 39.7789 140.726 39.2564 140.33 38.6439C139.934 38.0314 139.609 37.4549 139.609 37.3828C139.609 37.2927 139.916 36.7703 140.312 36.1938C141.537 34.3562 142.131 33.4194 142.131 33.3473C142.131 33.3113 142.384 32.9149 142.672 32.4826C142.978 32.0322 143.212 31.5818 143.212 31.4737C143.212 31.3476 142.744 31.2755 141.897 31.2755C140.852 31.2755 140.51 31.3476 140.294 31.5818Z" fill="#84859B"/>
<path d="M144.528 31.9061C144.293 32.2484 144.113 32.6087 144.113 32.6807C144.113 32.7708 143.951 32.987 143.753 33.1672C143.555 33.3473 143.393 33.5635 143.393 33.6356C143.393 33.7076 143.068 34.2481 142.69 34.8426C141.699 36.3199 141.231 37.1846 141.231 37.5089C141.231 37.653 141.483 38.1395 141.771 38.5718C142.077 39.0042 142.312 39.4366 142.312 39.5267C142.312 39.6167 142.474 39.8329 142.672 40.0131C142.87 40.1932 143.032 40.4274 143.032 40.5535C143.032 40.6797 143.194 40.9139 143.393 41.094C143.591 41.2742 143.753 41.5084 143.753 41.6165C143.753 41.7246 144.041 42.193 144.383 42.6614L145.014 43.5261H146.455C147.248 43.5261 147.896 43.4541 147.896 43.382C147.896 43.2919 147.734 43.0757 147.536 42.8956C147.338 42.7154 147.176 42.4992 147.176 42.4272C147.176 42.3371 146.635 41.4363 145.969 40.4274C145.302 39.4006 144.6 38.3016 144.419 37.9593C144.095 37.3648 144.095 37.3648 144.546 36.6622C144.798 36.2839 145.014 35.9055 145.014 35.8154C145.014 35.7254 145.176 35.5092 145.374 35.329C145.572 35.1489 145.735 34.9327 145.735 34.8606C145.735 34.7886 146.131 34.14 146.599 33.4014C148.131 31.0954 148.149 31.2755 146.419 31.2755H144.924L144.528 31.9061Z" fill="#84859B"/>
<path d="M149.302 31.5818C149.139 31.7619 148.833 32.2484 148.617 32.6627C148.401 33.0771 148.113 33.5094 147.968 33.6356C147.824 33.7437 147.716 33.9058 147.716 33.9779C147.716 34.0679 147.32 34.7165 146.851 35.4551C145.446 37.581 145.464 37.3288 146.473 38.806C146.96 39.5447 147.356 40.1752 147.356 40.2113C147.356 40.2473 147.77 40.8958 148.257 41.6525C148.761 42.3911 149.157 43.0757 149.157 43.1658C149.157 43.418 149.698 43.5261 150.977 43.5261C152.346 43.5261 152.49 43.382 151.86 42.5713C151.662 42.3191 151.499 42.0488 151.499 41.9408C151.499 41.8507 151.337 41.6345 151.139 41.4543C150.941 41.2742 150.779 41.058 150.779 40.9679C150.779 40.8778 150.401 40.2293 149.932 39.5086C148.509 37.3648 148.491 37.2927 148.941 36.8063C149.157 36.5721 149.338 36.3019 149.338 36.1938C149.338 36.1037 149.5 35.8695 149.698 35.6893C149.896 35.5092 150.058 35.293 150.058 35.2209C150.058 35.1489 150.383 34.6084 150.761 34.0139C151.644 32.6987 152.22 31.6719 152.22 31.4557C152.22 31.3476 151.626 31.2755 150.905 31.2755C149.86 31.2755 149.518 31.3476 149.302 31.5818Z" fill="#84859B"/>
</svg>
