<svg width="165" height="75" viewBox="0 0 165 75" fill="none" xmlns="http://www.w3.org/2000/svg">
<path d="M42.6757 10.0318C42.4321 10.0871 41.9117 10.1536 41.5132 10.1868C40.1071 10.3086 38.7675 10.6075 36.8632 11.2164C35.3575 11.6925 34.826 11.8918 33.8407 12.3568C33.3093 12.6003 32.8553 12.8107 32.8443 12.8107C32.7336 12.8107 30.5525 14.0839 29.7 14.6375C29.0136 15.0914 28.6814 15.3682 28.6703 15.5232C28.6593 15.645 28.6261 15.6893 28.6039 15.6118C28.4711 15.2907 25.1164 18.3907 23.7879 20.0625C22.1825 22.0885 20.1343 25.3657 20.3004 25.6425C20.3447 25.6978 20.3225 25.7642 20.2672 25.7864C20.0125 25.875 19.0272 28.4435 18.4293 30.5582C18.2189 31.3221 17.8979 33.1599 17.7097 34.6767C17.5547 35.9499 17.6211 40.0021 17.8204 41.1535C17.8868 41.5521 17.9532 41.9949 17.9754 42.1499C18.0529 42.8363 18.2854 44.032 18.4182 44.4306C18.54 44.7849 18.6618 44.9178 19.1268 45.1392C19.8243 45.4935 20.0236 45.6706 19.4257 45.416C18.6286 45.0728 18.5954 45.0728 18.695 45.427C18.85 45.9363 19.6804 48.206 19.7911 48.4274C19.8464 48.5381 19.9572 48.7595 20.0347 48.9256C20.1122 49.0917 20.2339 49.2024 20.2893 49.1581C20.3557 49.1138 20.3668 49.147 20.3225 49.2245C20.2118 49.4017 20.4 49.8667 21.0532 50.9738C21.3411 51.472 21.5847 51.926 21.5847 51.9924C21.5847 52.0588 21.6289 52.1142 21.6732 52.1142C21.7286 52.1142 21.8282 52.247 21.8947 52.402C22.0829 52.8006 23.1457 54.2288 24.0757 55.3249C25.3489 56.8195 27.8621 59.1999 28.15 59.1999C28.2275 59.1999 28.1943 59.1224 28.0836 59.0449C27.8289 58.8456 27.84 58.7681 28.1278 58.8345C28.2939 58.8788 28.3493 58.9674 28.305 59.1556C28.2718 59.3659 28.4046 59.5099 29.1243 60.0192C29.6003 60.3513 30.0986 60.6834 30.2425 60.7609C30.3864 60.8384 30.5303 60.9381 30.5636 60.9934C30.5968 61.0488 30.7407 61.1041 30.8625 61.1152C30.9953 61.1263 31.1061 61.1595 31.1061 61.2038C31.1061 61.3809 33.276 62.5324 34.2614 62.8645C34.505 62.9531 34.7264 63.0527 34.7596 63.097C34.826 63.1745 37.1289 63.9606 38.0921 64.2263C38.9225 64.4588 40.8046 64.8131 41.956 64.957C43.1517 65.1009 47.0267 65.1009 48.3221 64.957C51.0456 64.647 54.1456 63.8056 56.3488 62.7649C56.9246 62.4991 57.5003 62.2334 57.6331 62.1891C57.7549 62.1449 58.2421 61.8681 58.7181 61.5913C59.1942 61.3145 59.6038 61.082 59.626 61.082C59.6481 61.082 59.936 60.8938 60.257 60.6724C60.5671 60.4509 60.9878 60.152 61.187 60.0192C61.3863 59.8863 61.5081 59.7534 61.4749 59.7092C61.4306 59.6759 61.486 59.6427 61.5745 59.6427C61.8624 59.6427 63.4345 58.3252 64.907 56.8417C65.992 55.7456 66.3131 55.3581 66.2799 55.192C66.2356 55.037 66.2688 54.9927 66.3685 55.037C66.5456 55.1034 68.0513 53.1106 68.5938 52.1142C68.771 51.782 68.937 51.4831 68.9813 51.4499C69.6235 50.8631 71.9152 45.3163 71.5942 45.117C71.4613 45.0285 71.572 44.9842 71.7934 45.0285C71.8488 45.0395 71.8709 45.0174 71.8267 44.9731C71.7934 44.9288 71.8045 44.7406 71.8709 44.5524C72.1034 43.7996 72.5131 41.5963 72.6238 40.4671C72.7567 39.1717 72.6902 34.4774 72.5242 33.5696C72.2252 31.9199 72.0592 31.156 71.8488 30.3589C71.572 29.3735 70.8192 27.115 70.6531 26.805C70.5867 26.6832 70.2656 26.0189 69.9224 25.3214C69.0588 23.5167 67.8631 21.6346 66.6563 20.1732C65.6267 18.9221 63.2463 16.5418 63.1024 16.6303C63.047 16.6635 62.9917 16.6303 62.9917 16.5418C62.9917 16.4532 62.6928 16.1543 62.3274 15.8664C61.5081 15.2132 59.7256 14.0286 59.5706 14.0286C59.5153 14.0286 59.4488 13.9843 59.4267 13.94C59.3935 13.8403 57.8213 12.9546 57.3453 12.7443C57.0574 12.6225 55.8949 12.1021 55.5185 11.925C55.1753 11.7589 54.356 11.4821 54.356 11.5375C54.356 11.5596 54.0792 11.46 53.7471 11.3161C53.4039 11.1611 53.0939 11.0504 53.0496 11.0614C53.0053 11.0614 52.8946 11.0393 52.806 11.0061C52.4406 10.8621 50.9239 10.4746 50.791 10.4968C50.7135 10.5079 50.5696 10.4968 50.481 10.4525C50.2485 10.3639 48.9753 10.1536 48.3221 10.0871C47.2149 9.9875 43.1075 9.94321 42.6757 10.0318ZM52.5514 11.5043C52.4185 11.6482 52.1971 11.9028 52.0642 12.0911C51.9203 12.2793 51.8096 12.3568 51.8096 12.2571C51.8096 12.1021 52.5624 11.2607 52.7174 11.2607C52.7617 11.2607 52.6842 11.3714 52.5514 11.5043ZM53.0274 11.5154C53.0274 11.5375 52.9167 11.6482 52.7839 11.77L52.5292 11.9803L52.7396 11.7257C52.9389 11.4932 53.0274 11.4268 53.0274 11.5154ZM54.1346 11.6261C54.1346 11.6482 53.9242 11.8586 53.6696 12.0911L53.1935 12.5339L53.6364 12.0578C54.0349 11.6261 54.1346 11.5375 54.1346 11.6261ZM47.5028 11.9693C47.4253 12.0578 47.2703 12.1243 47.1596 12.1132C47.0046 12.1021 46.9824 12.0689 47.071 11.9582C47.1264 11.8807 47.226 11.8364 47.2703 11.8696C47.3257 11.9028 47.4032 11.8696 47.4364 11.8032C47.4807 11.7478 47.536 11.7146 47.5692 11.7478C47.6024 11.7811 47.5692 11.8807 47.5028 11.9693ZM47.9346 11.9803C47.7907 12.1353 47.7242 12.2571 47.7796 12.2571C47.8349 12.2571 48.001 12.2903 48.1449 12.3346C48.3221 12.3789 48.3885 12.3678 48.3332 12.2793C48.2999 12.2128 48.311 12.1353 48.3774 12.0911C48.4328 12.0578 48.4882 12.1021 48.4882 12.1907C48.4882 12.3568 49.2632 12.5671 50.0935 12.6225C50.3371 12.6336 50.5696 12.6778 50.6028 12.7332C50.636 12.7775 50.946 12.8218 51.2781 12.8439C51.6214 12.855 51.8871 12.9103 51.8871 12.9657C51.876 13.0211 52.031 13.1318 52.2303 13.2203C52.4406 13.2978 52.5735 13.3311 52.5403 13.2646C52.5071 13.2093 52.5624 13.0986 52.6731 13.0211C52.8281 12.8993 52.8392 12.8993 52.7285 13.0321C52.5624 13.2093 52.7285 13.475 53.0053 13.475C53.2156 13.475 55.6292 14.4271 56.1053 14.7039C56.3156 14.8257 56.5149 14.8921 56.5703 14.8589C56.6256 14.8257 56.681 14.8368 56.7031 14.8921C56.7142 14.9364 57.1128 15.1911 57.5667 15.4568C59.7367 16.7189 61.5303 18.0807 63.0249 19.5864C63.3681 19.9407 63.7113 20.2285 63.7667 20.2285C63.8331 20.2285 63.8774 20.2839 63.8774 20.3503C63.8774 20.5828 65.2392 22.0885 65.3942 22.0332C65.4938 22 65.516 22.0332 65.4717 22.1439C65.4053 22.321 66.6895 24.325 66.8777 24.325C66.9331 24.325 66.9774 24.3914 66.9552 24.4578C66.9442 24.5353 67.066 24.8232 67.221 25.1C67.4867 25.5428 68.0402 26.6942 68.5827 27.9232C68.9038 28.6207 69.5017 30.5692 69.7895 31.7871C70.166 33.3371 70.3874 35.1417 70.4649 37.2231C70.4981 38.1974 70.5535 39.1163 70.5867 39.2713C70.6199 39.4928 70.6199 39.5038 70.5424 39.3378C70.476 39.1938 70.4095 39.4706 70.3099 40.2235C70.177 41.3085 69.9556 42.5928 69.7563 43.3899C69.701 43.6113 69.6899 43.8217 69.7231 43.8549C69.7452 43.8881 69.712 43.9988 69.6235 44.1095C69.5238 44.2313 69.5127 44.2645 69.6124 44.2092C69.6899 44.1649 69.7452 44.1981 69.7452 44.2978C69.7452 44.3974 69.701 44.4749 69.6345 44.4749C69.5127 44.4749 69.2581 45.0506 69.1363 45.5931C69.0477 46.0249 68.2617 47.896 67.7635 48.8924C66.0252 52.3245 63.5785 55.2252 60.246 57.8159C60.1685 57.8713 60.0467 57.982 59.9692 58.0374C58.7292 59.0781 54.3339 61.3034 52.9499 61.5913C52.8171 61.6134 52.5624 61.6909 52.3964 61.7684C51.9978 61.9345 52.0531 61.9124 51.4553 62.012C51.1564 62.0674 50.9239 62.1559 50.9239 62.2113C50.9239 62.2666 50.8796 62.2888 50.8353 62.2556C50.791 62.2334 50.3814 62.2666 49.9274 62.3552C47.8571 62.7095 47.0932 62.7759 45.1667 62.7759C43.8492 62.7759 42.6867 62.7095 41.8896 62.5877C41.2142 62.4881 40.6164 62.4106 40.561 62.4216C40.5057 62.4327 40.3839 62.4216 40.2953 62.3884C39.9964 62.2777 39.2546 62.0784 38.7453 61.9677C38.0478 61.8238 36.2985 61.2481 35.8778 61.0377C35.6896 60.9381 35.5346 60.8716 35.5346 60.9049C35.5346 60.927 35.1693 60.772 34.7375 60.5616C34.2946 60.3513 33.8296 60.1299 33.6968 60.0856C33.1875 59.8863 30.8293 58.3917 29.9103 57.6831C28.4932 56.587 27.2311 55.4688 26.7439 54.8599C26.5004 54.572 26.2457 54.3285 26.1571 54.3285C26.0796 54.3285 26.0132 54.2731 26.0132 54.2067C26.0132 54.1402 25.7807 53.786 25.4818 53.4095C24.74 52.4352 24.74 52.4352 24.5739 52.5902C24.4632 52.6899 24.4521 52.6677 24.5075 52.4795C24.5629 52.3024 24.4743 52.092 24.2086 51.7045C23.7657 51.0845 22.6696 49.2135 22.4371 48.671C22.3486 48.4606 22.1604 48.0399 22.0164 47.741C21.8725 47.431 21.7507 47.132 21.7397 47.0656C21.6732 46.7003 21.2525 46.3017 20.6104 46.0028C20.2229 45.8256 19.9239 45.6485 19.9572 45.6153C19.9904 45.5931 20.1675 45.6485 20.3557 45.7481C20.5439 45.8478 20.6989 45.8699 20.6989 45.8035C20.6989 45.7481 20.7986 45.7924 20.9204 45.9142C21.2968 46.2906 21.3522 46.1578 21.1197 45.4381C20.9979 45.0617 20.8097 44.3753 20.6989 43.9213C20.5107 43.1242 20.4554 42.9471 20.2893 42.5042C20.2561 42.4046 20.2118 42.1388 20.2007 41.9285C20.1675 41.2974 20.0236 40.2235 19.9572 40.1238C19.9239 40.0685 19.8907 38.8838 19.9018 37.511C19.9018 35.4406 19.9461 34.7542 20.1454 33.6692C20.5218 31.5657 21.1639 29.2517 21.7175 27.9785C23.2896 24.3914 24.7179 22.2767 27.3307 19.6639C28.9693 18.0364 29.8439 17.2946 31.0507 16.5085C31.4161 16.2761 31.7371 16.0546 31.7703 16.0214C31.9586 15.8332 34.361 14.6153 35.3685 14.1946C36.52 13.7186 38.7785 12.9657 39.321 12.8882C39.5203 12.855 39.941 12.7775 40.24 12.7111C41.9339 12.3457 43.2182 12.2239 45.4657 12.2128C47.4032 12.2018 47.5028 12.1907 47.7353 11.9471C48.0785 11.615 48.2557 11.6371 47.9346 11.9803ZM50.3703 11.7478C50.3703 11.77 50.2928 11.8253 50.1931 11.8586C50.1046 11.8918 50.0603 11.8807 50.0935 11.8143C50.1599 11.7036 50.3703 11.6593 50.3703 11.7478ZM51.0346 11.8475C51.0346 11.8696 50.9239 11.9803 50.791 12.1021L50.5364 12.3125L50.7467 12.0578C50.946 11.8253 51.0346 11.7589 51.0346 11.8475ZM52.3853 12.2793C52.3078 12.3568 52.2524 12.3678 52.2524 12.3014C52.2524 12.1464 52.3853 12.0136 52.4628 12.0911C52.4849 12.1243 52.4517 12.2128 52.3853 12.2793ZM57.6774 13.8403C57.6774 13.8625 57.4892 14.0507 57.2678 14.2611L56.8471 14.6375L57.2235 14.2168C57.5888 13.8403 57.6774 13.7518 57.6774 13.8403ZM30.9178 16.1321C30.8846 16.265 30.8293 16.3425 30.7961 16.3093C30.7407 16.2428 30.8514 15.9107 30.9289 15.9107C30.9511 15.9107 30.9511 16.0103 30.9178 16.1321ZM28.305 17.2614C28.2718 17.35 28.2386 17.3168 28.2386 17.195C28.2275 17.0732 28.2607 17.0068 28.2939 17.051C28.3271 17.0843 28.3382 17.1839 28.305 17.2614ZM20.555 47.8185C20.5218 47.907 20.4886 47.8738 20.4886 47.752C20.4775 47.6303 20.5107 47.5638 20.5439 47.6081C20.5772 47.6413 20.5882 47.741 20.555 47.8185ZM26.3121 55.3249C26.2789 55.5795 26.3011 55.7456 26.3564 55.7013C26.4118 55.6681 26.4561 55.5574 26.4561 55.4577C26.4561 55.3138 26.4782 55.3138 26.6221 55.502C26.7107 55.6127 26.7771 55.812 26.7882 55.9338C26.7882 56.122 26.7661 56.122 26.6775 55.9892C26.6 55.8674 26.5668 55.8674 26.5668 55.967C26.5668 56.0445 26.5225 56.0888 26.4671 56.0445C26.4118 56.0113 26.3343 56.0334 26.29 56.0999C26.1571 56.3102 26.0132 56.2106 26.0132 55.9227C26.0132 55.6902 25.9689 55.6459 25.825 55.7124C25.67 55.7677 25.6811 55.7345 25.8693 55.5574C26.0021 55.4356 26.135 55.2363 26.1793 55.1034C26.3011 54.727 26.3786 54.8599 26.3121 55.3249ZM25.825 56.5095C25.7143 56.7974 25.6146 56.6424 25.6589 56.2992C25.7032 55.9892 25.7254 55.967 25.7918 56.1552C25.8361 56.277 25.8471 56.4431 25.825 56.5095ZM26.6775 56.5649C26.6775 56.6424 26.5336 56.8084 26.3675 56.9302C26.0686 57.1406 26.0686 57.1406 26.2346 56.9302C26.6554 56.3767 26.6775 56.3656 26.6775 56.5649Z" fill="#090928"/>
<path d="M43.3732 17.8038C42.3768 17.8813 40.7825 18.1802 39.6864 18.4791C38.4354 18.8224 35.7007 20.0402 34.6822 20.7156C33.7522 21.3245 32.9107 21.9445 32.5122 22.3209C32.2797 22.5424 32.014 22.7527 31.9365 22.797C31.7925 22.8856 30.6854 24.0038 29.9547 24.8231C29.5008 25.3323 28.2608 27.0816 28.15 27.3916C28.1168 27.5023 27.9618 27.7791 27.8179 28.0005C27.674 28.2441 27.5965 28.4877 27.6408 28.5984C27.685 28.7313 27.674 28.7645 27.5854 28.7091C27.2754 28.5209 26.1904 31.4659 25.6922 33.8462C25.349 35.4737 25.3158 38.9834 25.6258 40.7659C25.7918 41.6959 26.2679 43.578 26.445 43.9766C26.4893 44.0984 26.6443 44.4969 26.7883 44.8623C27.3418 46.3237 28.615 48.5712 29.3347 49.3351C29.4897 49.4901 29.6115 49.6562 29.6115 49.7005C29.6115 50.0216 32.645 53.0551 32.9661 53.0551C33.0104 53.0551 33.1765 53.1769 33.3315 53.3319C34.35 54.2951 37.1511 55.7565 39.2879 56.4319C41.1479 57.0298 42.5871 57.2401 44.7793 57.2512C46.5618 57.2623 48.5325 57.1515 48.7318 57.0298C48.765 57.0076 49.0639 56.9301 49.3961 56.8748C50.2486 56.7087 51.0457 56.4651 52.3632 55.9669C53.5146 55.524 55.3746 54.5941 55.441 54.4169C55.4632 54.3726 55.5296 54.3283 55.596 54.3283C55.6625 54.3283 55.906 54.1733 56.1607 53.9741C56.4043 53.7748 56.7475 53.5423 56.9135 53.4426C57.2014 53.2766 57.5335 53.0108 58.7625 51.9148C60.6667 50.2319 62.5932 47.3423 63.7003 44.5301C64.1321 43.4119 64.6967 41.1977 64.586 41.0205C64.5417 40.9541 64.5749 40.8766 64.6414 40.8323C64.8849 40.6773 65.0399 37.6548 64.896 35.8612C64.8185 34.9755 64.7078 34.0677 64.6524 33.8573C64.5971 33.6359 64.4421 33.027 64.3203 32.4955C64.121 31.6541 63.8664 30.9234 63.4235 29.8605C63.2575 29.462 62.4603 27.912 62.0839 27.2256C61.9067 26.9156 61.6853 26.6498 61.5967 26.6498C61.5082 26.6498 61.4639 26.5945 61.4971 26.5391C61.63 26.3288 60.5228 24.9448 59.0946 23.5166C58.3085 22.7416 57.6221 22.1327 57.5667 22.1659C57.5003 22.1991 57.456 22.1659 57.456 22.0774C57.456 21.9999 57.3343 21.867 57.1793 21.8006C57.0243 21.7341 56.9025 21.6234 56.9025 21.557C56.9025 21.5016 56.8028 21.4463 56.6921 21.4463C56.5814 21.4463 56.4485 21.3688 56.4153 21.2691C56.371 21.1584 56.2714 21.1252 56.1275 21.1695C55.9725 21.2249 55.9282 21.1916 55.9614 21.092C56.0057 20.9924 55.906 20.8706 55.7178 20.782C55.5518 20.6934 55.275 20.5384 55.1089 20.4277C54.6439 20.1066 52.8946 19.2541 52.5293 19.1656C52.3521 19.1213 52.0975 19.0216 51.9757 18.9441C51.7321 18.7891 50.4811 18.4349 49.0861 18.1249C48.5989 18.0141 47.6025 17.8924 46.8718 17.8481C46.1521 17.8149 45.3107 17.7706 45.0007 17.7484C44.7018 17.7263 43.96 17.7484 43.3732 17.8038ZM46.1632 17.9477C46.1632 17.9699 46.0746 18.0584 45.975 18.1359C45.7979 18.2799 45.7868 18.2688 45.9307 18.0916C46.0746 17.9145 46.1632 17.8591 46.1632 17.9477ZM47.6136 18.2688C47.5028 18.3684 47.4918 18.3574 47.5582 18.2024C47.5914 18.0916 47.6578 18.0363 47.6911 18.0695C47.7243 18.1027 47.6911 18.1913 47.6136 18.2688ZM45.3218 18.8556C45.0893 19.1324 44.8789 19.3095 44.8568 19.2431C44.8236 19.1324 45.5543 18.3684 45.6982 18.3463C45.7204 18.3463 45.5432 18.5788 45.3218 18.8556ZM46.0525 18.6009C46.0525 18.6231 45.9418 18.7338 45.8089 18.8556L45.5543 19.0659L45.7646 18.8113C45.9639 18.5788 46.0525 18.5124 46.0525 18.6009ZM45.7204 20.162C45.7204 20.1841 45.6318 20.2727 45.5321 20.3502C45.355 20.4941 45.3439 20.4831 45.4879 20.3059C45.6318 20.1288 45.7204 20.0734 45.7204 20.162ZM53.6918 20.8927C53.6253 21.0256 53.5368 21.1031 53.5035 21.0809C53.4814 21.0477 53.5146 20.9149 53.581 20.782C53.6475 20.6491 53.736 20.5716 53.7693 20.5938C53.7914 20.627 53.7582 20.7599 53.6918 20.8927ZM43.2846 21.0034V25.9856H45.3993L45.3329 21.0034H48.4882V25.9745L48.9089 26.0409C51.0236 26.362 52.961 26.982 53.7582 27.5909C53.9575 27.7459 54.1678 27.8677 54.2232 27.8677C54.4446 27.8677 55.441 29.0634 55.751 29.6945C56.05 30.3145 56.0721 30.4473 56.0721 31.632C56.0721 32.407 56.0168 33.0713 55.9171 33.3259C55.8396 33.5584 55.7621 33.813 55.751 33.8795C55.6735 34.3223 54.5332 35.662 53.9132 36.0162C53.5035 36.2709 53.4925 36.3705 53.891 36.4591C54.4668 36.603 55.6293 37.3116 56.1607 37.843C56.4596 38.142 56.7585 38.3855 56.825 38.3855C56.8803 38.3855 56.9025 38.4187 56.8693 38.463C56.825 38.4962 56.9135 38.7398 57.0575 38.9834C57.5446 39.8359 57.7107 40.7769 57.6442 42.2273C57.5003 45.2609 56.2714 47.1651 53.8025 48.1726C53.5257 48.2834 53.2046 48.4162 53.0828 48.4716C52.8835 48.5491 52.0311 48.7262 51.2561 48.848C51.1011 48.8701 50.4146 48.9255 49.7393 48.9698L48.4882 49.0473V53.9962H47.0489C46.1079 53.9962 45.6096 54.0405 45.6096 54.118C45.6096 54.1733 45.5654 54.1955 45.4989 54.1623C45.4325 54.118 45.3882 53.1326 45.3882 51.5494V49.0141H43.2846V54.0516L42.2882 54.0183C41.5575 53.9851 41.2918 54.0073 41.2918 54.1069C41.2918 54.1955 41.2254 54.2066 41.1036 54.1623C40.9929 54.1069 40.7825 54.0626 40.6275 54.0405C40.4725 54.0294 40.3175 54.0073 40.2732 54.0073C40.2179 53.9962 40.1847 52.878 40.1847 51.5051V49.0141H34.195L34.2282 47.3755L34.2615 45.748L35.7229 45.6926C37.1511 45.6373 37.1954 45.6262 37.4943 45.3273L37.8043 45.0284L37.8375 37.5552C37.8486 32.1302 37.8264 30.0155 37.7379 29.8163C37.5054 29.3291 37.0404 29.1963 35.435 29.1963H33.9847V25.9856H40.1847V21.0034H43.2846ZM37.14 21.6677C37.1732 21.7231 37.1511 21.7784 37.0957 21.7784C37.0293 21.7784 36.9739 21.7231 36.9739 21.6677C36.9739 21.6013 36.9961 21.557 37.0182 21.557C37.0514 21.557 37.1068 21.6013 37.14 21.6677ZM55.8507 21.8891C55.8175 21.9445 55.7289 21.9999 55.6735 21.9999C55.6071 21.9999 55.596 21.9445 55.6293 21.8891C55.6625 21.8227 55.751 21.7784 55.8064 21.7784C55.8728 21.7784 55.8839 21.8227 55.8507 21.8891ZM55.3525 22.4759C55.3525 22.4981 55.2528 22.6088 55.131 22.7195C54.9207 22.9077 54.9096 22.9077 54.9096 22.7306C54.9096 22.6309 54.965 22.5756 55.0203 22.6088C55.0868 22.642 55.131 22.6199 55.131 22.5645C55.131 22.4981 55.1864 22.4427 55.2418 22.4427C55.3082 22.4427 55.3525 22.4649 55.3525 22.4759ZM55.906 22.9188C55.906 22.9409 55.74 23.0959 55.5518 23.2841L55.1864 23.6052L55.5075 23.2398C55.8175 22.9077 55.906 22.8302 55.906 22.9188ZM30.774 37.3227C30.774 37.3448 30.6854 37.4334 30.5857 37.5109C30.4086 37.6548 30.3975 37.6437 30.5415 37.4666C30.6854 37.2895 30.774 37.2341 30.774 37.3227Z" fill="#090928"/>
<path d="M43.34 29.3957C43.3068 29.4289 43.2847 30.8461 43.2847 32.54V35.6289L45.2 35.5735C47.7022 35.485 47.9236 35.4628 48.4439 35.1971C49.5179 34.6436 50.1489 33.5807 50.1489 32.3075C50.1489 31.3221 49.8389 30.7132 49.0972 30.2261C48.7982 30.0268 48.5325 29.8828 48.5104 29.9161C48.4882 29.9382 48.3997 29.8939 48.3222 29.8164C48.0897 29.5839 46.5729 29.3846 44.9232 29.3625C44.0818 29.3514 43.3732 29.3625 43.34 29.3957ZM46.5729 31.9864C46.5397 32.075 46.5064 32.0418 46.5064 31.92C46.4954 31.7982 46.5286 31.7318 46.5618 31.7761C46.595 31.8093 46.6061 31.9089 46.5729 31.9864ZM46.0525 33.2928C46.1189 33.4146 46.1411 33.5143 46.1189 33.5143C46.0857 33.5143 46.0082 33.4146 45.9418 33.2928C45.8754 33.1711 45.8532 33.0714 45.8754 33.0714C45.9086 33.0714 45.9861 33.1711 46.0525 33.2928ZM46.4179 33.8464C46.4511 33.78 46.4732 33.78 46.4511 33.8686C46.4068 34.1121 46.1964 34.0789 46.13 33.8243C46.0636 33.5918 46.0747 33.5807 46.2075 33.7689C46.3072 33.8907 46.3847 33.9239 46.4179 33.8464Z" fill="#090928"/>
<path d="M43.2847 38.7178V45.3828L45.975 45.3385C48.61 45.2942 48.6654 45.2942 49.385 44.9953C50.8354 44.3864 51.5882 43.3567 51.6657 41.8732C51.6989 41.1978 51.6768 41.0207 51.4 40.5003C51.0014 39.7253 50.4479 39.3489 49.2189 38.9946C48.3 38.74 48.0897 38.7178 45.7647 38.7178H43.2847Z" fill="#090928"/>
<path d="M110.09 22.6088C108.13 23.0295 106.735 24.3249 106.148 26.2624C105.838 27.2477 105.816 29.1188 106.093 30.1816C106.79 32.8166 108.838 34.1231 111.927 33.9238C113.212 33.8352 114.607 33.4698 115.005 33.1266C115.027 33.1045 114.906 32.6616 114.74 32.1302C114.463 31.2777 114.396 31.1891 114.197 31.2556C112.691 31.7538 111.274 31.8756 110.455 31.5877C109.093 31.1006 108.484 30.0599 108.473 28.1777C108.473 27.0152 108.683 26.3066 109.226 25.6645C109.89 24.8895 110.355 24.7124 111.651 24.7234C112.503 24.7234 112.913 24.7788 113.422 24.967C113.776 25.0999 114.108 25.2106 114.153 25.2106C114.186 25.2106 114.352 24.8342 114.518 24.3692C114.684 23.9152 114.839 23.4724 114.872 23.3949C115.005 23.0517 112.758 22.4317 111.462 22.4538C111.075 22.4538 110.455 22.5313 110.09 22.6088Z" fill="#090928"/>
<path d="M121.116 22.5092C118.47 23.0295 116.843 24.9227 116.621 27.7349C116.378 30.9456 118.238 33.4477 121.205 33.8684C124.161 34.3002 126.663 32.7391 127.372 30.0266C127.604 29.0967 127.593 27.2256 127.339 26.3067C126.696 23.9817 124.881 22.5867 122.39 22.4981C121.847 22.476 121.271 22.487 121.116 22.5092ZM123.01 24.7899C123.608 24.967 124.283 25.5759 124.626 26.2513C125.025 27.0152 125.124 28.7424 124.814 29.7166C124.549 30.5691 123.729 31.4106 122.965 31.6209C122.334 31.7981 121.294 31.7316 120.806 31.477C119.744 30.9345 119.201 29.8163 119.201 28.1999C119.201 26.8824 119.467 26.1295 120.142 25.4652C120.895 24.7234 121.969 24.4688 123.01 24.7899Z" fill="#090928"/>
<path d="M80.3738 22.6089C80.2853 22.6311 79.8203 22.6864 79.3553 22.7196L78.4917 22.7971V28.1446C78.4917 32.7282 78.5138 33.5032 78.6578 33.5475C79.0896 33.7246 81.337 33.8685 82.5328 33.8132C84.0274 33.7357 84.736 33.5696 85.5774 33.1157C86.6956 32.5067 87.1938 31.5435 87.1052 30.1375C87.0388 29.0857 86.6735 28.4325 85.9095 28.0007L85.367 27.6907L85.7545 27.3918C86.596 26.7164 86.8285 25.4764 86.3081 24.3582C85.7545 23.1736 84.5367 22.6753 82.0899 22.6089C81.2374 22.5868 80.4624 22.5868 80.3738 22.6089ZM83.662 24.8011C84.127 25.0446 84.3485 25.6978 84.127 26.1518C83.817 26.7828 83.4738 26.9268 82.0788 26.971L80.8167 27.0043V25.8528C80.8167 25.2107 80.8499 24.6571 80.9053 24.6128C81.0603 24.4468 83.2856 24.6018 83.662 24.8011ZM83.6178 29.0193C84.1824 29.2296 84.4481 29.4843 84.592 29.9603C84.7803 30.6025 84.5256 31.1782 83.9167 31.5214C83.4628 31.765 83.2967 31.7871 82.1453 31.7982H80.8721L80.8388 30.3257L80.8056 28.8643H82.0013C82.721 28.8753 83.3631 28.9307 83.6178 29.0193Z" fill="#090928"/>
<path d="M90.1167 22.6642V33.7356H92.5524V22.6642H90.1167Z" fill="#090928"/>
<path d="M95.0986 22.6642V24.7678H98.4201V33.7356H100.856V24.7678H104.177V22.6642H95.0986Z" fill="#090928"/>
<path d="M130.638 22.6642V33.7356H133.074V22.6642H130.638Z" fill="#090928"/>
<path d="M136.616 22.6642V33.7356H139.052V26.506L139.716 27.3253C140.702 28.521 141.997 30.4142 143.049 32.1745L143.979 33.7245L145.009 33.7356H146.027V22.6642H143.591L143.569 25.897L143.536 29.1299L142.816 28.0892C141.776 26.5503 139.949 24.1478 139.218 23.3506L138.587 22.6642H136.616Z" fill="#090928"/>
<path d="M102.439 38.8285C100.789 39.1717 99.793 40.1792 99.6712 41.6185C99.5162 43.3124 100.391 44.3088 102.827 45.1835C104.388 45.737 104.764 46.0692 104.709 46.7999C104.687 47.1763 104.609 47.3313 104.365 47.5085C104.089 47.7077 103.9 47.741 102.815 47.7299C101.753 47.7299 101.476 47.6856 100.834 47.442L100.092 47.1431L99.7709 48.1285L99.4387 49.1027L99.8484 49.2799C101.974 50.2431 105.262 50.0217 106.436 48.837C107.034 48.2281 107.211 47.7299 107.211 46.6892C107.211 45.8588 107.178 45.6817 106.89 45.1613C106.425 44.2978 105.827 43.9103 103.712 43.102C102.561 42.6592 102.074 42.2606 102.074 41.7513C102.074 41.3749 102.517 40.9653 103.015 40.8656C103.646 40.7549 104.886 40.8878 105.462 41.1535C105.749 41.2753 106.026 41.3417 106.059 41.2974C106.181 41.1535 106.746 39.4706 106.69 39.4153C106.657 39.3931 106.27 39.2381 105.827 39.0831C104.93 38.7731 103.269 38.6513 102.439 38.8285Z" fill="#090928"/>
<path d="M115.249 38.9502C114.795 39.0056 114.352 39.072 114.274 39.1052C114.164 39.1384 114.142 40.2456 114.164 44.3309L114.197 49.5123L114.64 49.5898C114.883 49.6341 115.736 49.7006 116.522 49.7448C121.294 49.9884 123.774 47.8627 123.519 43.7663C123.386 41.6406 122.478 40.2234 120.773 39.4484C119.589 38.9059 117.385 38.7067 115.249 38.9502ZM119.533 41.3306C120.386 41.7513 120.829 42.3934 121.006 43.4784C121.227 44.7959 120.917 46.0802 120.198 46.7777C119.611 47.3534 118.88 47.6081 117.662 47.6634L116.577 47.7188V40.8988L117.729 40.9541C118.725 40.9984 118.969 41.0538 119.533 41.3306Z" fill="#090928"/>
<path d="M136.284 38.9503C135.83 39.0056 135.388 39.0721 135.321 39.1053C135.21 39.1385 135.177 40.3121 135.177 44.4196V49.6785H137.613V45.6817L138.244 45.7149L138.886 45.7481L139.418 46.5231C139.717 46.9438 140.259 47.8295 140.624 48.4828L141.289 49.6785H142.606C143.326 49.6785 143.924 49.6453 143.924 49.601C143.924 49.4128 142.617 47.0988 142.008 46.2131C141.565 45.571 141.377 45.1946 141.466 45.1613C141.997 44.9842 142.673 44.3642 142.983 43.7663C143.27 43.1906 143.315 43.0024 143.304 42.2606C143.282 40.8546 142.717 39.9578 141.51 39.4042C140.37 38.8839 138.366 38.7178 136.284 38.9503ZM139.805 41.0981C140.536 41.3196 140.824 41.6738 140.824 42.3713C140.824 43.0688 140.536 43.4231 139.805 43.6446C139.484 43.7331 138.864 43.8106 138.421 43.8106H137.613V40.9321H138.421C138.864 40.9321 139.484 41.0096 139.805 41.0981Z" fill="#090928"/>
<path d="M83.2524 38.9392V49.6785H85.6881V38.9392H83.2524Z" fill="#090928"/>
<path d="M88.2344 38.9392V49.6785H90.6701L90.6922 46.191L90.7254 42.6924L91.6001 43.8106C92.5854 45.0728 93.9804 47.132 94.8772 48.6488L95.4751 49.6785H97.5344V38.9392H95.0986V45.2831L94.1686 43.9324C92.9286 42.161 91.7108 40.5888 90.8804 39.681L90.2051 38.9392H88.2344Z" fill="#090928"/>
<path d="M109.159 38.9392V49.6785H111.595V38.9392H109.159Z" fill="#090928"/>
<path d="M125.656 38.9392V49.6785H133.295V47.6856H128.091V45.0285H132.409V43.0356H128.091V40.9321H132.963V38.9392H125.656Z" fill="#090928"/>
</svg>
