<svg width="165" height="75" viewBox="0 0 165 75" fill="none" xmlns="http://www.w3.org/2000/svg">
<path d="M106.69 20.7325V22.7533L107.413 22.6795C107.826 22.65 108.312 22.65 108.534 22.709L108.902 22.7975L108.873 28.7418L108.829 34.6713L107.767 34.7155L106.69 34.7598V36.7953L112.885 36.8248V34.745H110.82V29.1105C110.82 26.013 110.849 23.5203 110.879 23.5498C110.923 23.6088 112.737 26.9865 116.041 33.152L118.077 36.9575H120.407L120.437 29.8333L120.481 22.7238L122.694 22.5763V20.8063L119.567 20.762L116.425 20.7325V22.7533L117.148 22.6795C117.561 22.65 118.047 22.65 118.254 22.709L118.637 22.7975V27.8125C118.637 30.5708 118.578 32.8275 118.519 32.8275C118.46 32.8275 118.254 32.5473 118.077 32.1933C117.9 31.854 117.457 31.0133 117.074 30.32C116.705 29.6268 115.982 28.2993 115.481 27.37C114.965 26.4408 113.962 24.5675 113.239 23.2105L111.926 20.7325H106.69Z" fill="#84859B"/>
<path d="M124.715 25.6C123.372 26.0868 122.192 27.1635 121.484 28.55C121.101 29.3023 121.071 29.4793 121.071 31.205C121.071 32.8718 121.101 33.1225 121.44 33.7863C121.897 34.7303 123.092 35.9398 124.036 36.4118C126.352 37.577 129.184 37.1788 131.16 35.3793C131.662 34.9368 132.06 34.4648 132.06 34.3173C132.06 34.155 131.795 33.9485 131.278 33.742C130.851 33.565 130.452 33.4175 130.393 33.4175C130.32 33.4175 130.098 33.624 129.892 33.86C129.007 34.9073 127.104 35.4235 125.747 34.981C124.847 34.6713 123.918 33.801 123.579 32.916C123.122 31.7065 122.886 31.7803 127.753 31.795C131.706 31.795 132.075 31.7803 132.163 31.5443C132.34 31.087 131.78 28.8155 131.293 28.0338C129.907 25.777 127.104 24.7298 124.715 25.6ZM127.856 27.3553C128.859 27.8125 129.98 29.199 129.995 29.9808C129.995 30.2758 123.52 30.2463 123.417 29.966C123.284 29.6268 123.889 28.4468 124.449 27.9305C125.393 27.0603 126.75 26.839 127.856 27.3553Z" fill="#84859B"/>
<path d="M150.203 25.7623C149.834 25.9245 149.318 26.2638 149.067 26.5293L148.58 26.9865V25.6H143.86V27.5175H144.524C144.893 27.5175 145.188 27.5765 145.188 27.6503C145.188 27.724 144.819 28.963 144.376 30.3938C143.934 31.8393 143.565 33.0635 143.565 33.1373C143.565 33.3585 143.255 34.0518 143.182 33.978C143.152 33.9338 142.872 33.1078 142.592 32.149C142.297 31.1903 141.913 29.8628 141.707 29.2138C141.235 27.606 141.235 27.5175 141.869 27.5175H142.385V25.6H137.223V27.5175H137.739C138.049 27.5175 138.255 27.5913 138.255 27.6945C138.255 27.9748 136.426 34.0075 136.338 34.0075C136.293 34.0075 136.043 33.2258 135.762 32.267C135.482 31.323 135.069 29.9513 134.833 29.2285C134.612 28.5058 134.42 27.8273 134.42 27.724C134.42 27.5765 134.612 27.5175 135.084 27.5175H135.748V25.6H131.175V27.5175H132.488L132.945 29.022C133.196 29.8628 133.461 30.7035 133.535 30.91C133.609 31.1165 134.037 32.562 134.509 34.1108L135.364 36.9575H137.341L137.65 35.9545C139.022 31.441 139.627 29.4793 139.73 29.2875C139.878 29.022 139.76 28.6828 140.836 32.2375C141.294 33.742 141.795 35.4088 141.957 35.9545L142.267 36.9575H144.244L144.73 35.2908C144.996 34.391 145.365 33.1373 145.556 32.5325C145.748 31.9278 146.176 30.5413 146.515 29.4645L147.12 27.5175H148.256V28.5353C148.241 29.73 148.506 30.3938 149.185 30.9838C149.804 31.5 150.453 31.7508 152.238 32.1785C154.097 32.621 154.569 32.8423 154.687 33.3585C154.937 34.332 154.038 35.04 152.592 35.04C151.338 35.0253 150.055 34.1403 150.055 33.2553C150.055 33.1225 149.952 32.9603 149.819 32.916C149.391 32.7538 148.477 32.8275 148.3 33.034C148.182 33.1668 148.138 33.8305 148.167 34.981L148.211 36.7363L149.067 36.7805C149.834 36.8248 149.937 36.7953 150.011 36.5298C150.099 36.2053 150.276 36.1315 150.409 36.3528C150.601 36.6625 152.415 37.0018 153.359 36.9133C155.926 36.6773 157.371 34.9073 156.84 32.6948C156.471 31.146 155.38 30.4085 152.74 29.9513C150.571 29.5825 150.203 29.3613 150.203 28.5058C150.203 27.8273 151.117 27.2225 152.15 27.2225C153.182 27.2225 154.48 28.137 154.48 28.8745C154.48 29.2875 154.48 29.2875 155.439 29.2875H156.398V25.6H155.454C154.849 25.6 154.48 25.659 154.451 25.777C154.406 25.895 154.215 25.8803 153.772 25.7033C152.872 25.3345 151.058 25.364 150.203 25.7623Z" fill="#84859B"/>
<path d="M101.881 33.6535C100.878 34.1403 100.628 35.4088 101.395 36.1758C102.162 36.9723 103.209 36.987 104.035 36.22C105.082 35.2465 104.197 33.4028 102.678 33.4175C102.486 33.4175 102.132 33.5208 101.881 33.6535Z" fill="#090928"/>
<path d="M9.85622 34.1844C9.79722 34.3172 9.78247 34.7744 9.81197 35.2022L9.85622 35.9987H10.8592L11.8475 35.9839V49.1999H9.78247V51.1174H13.4405C15.4465 51.1174 17.5115 51.0437 18.0277 50.9552C19.8715 50.6602 21.1105 49.8194 21.8185 48.3887C22.8657 46.2352 22.1725 43.7277 20.2107 42.5182L19.4732 42.0609L20.0632 41.5447C21.1252 40.5859 21.3612 40.0402 21.3612 38.4324C21.3612 37.0754 21.3317 36.9869 20.845 36.1609C19.7387 34.3319 19.1635 34.1549 13.883 34.0517C10.4757 33.9779 9.92997 34.0074 9.85622 34.1844ZM16.597 36.0724C18.485 36.3674 19.1782 37.1344 19.0307 38.8454C18.898 40.5712 18.131 41.1169 15.7267 41.2054L14.2075 41.2644V38.6832C14.2075 36.7509 14.2517 36.0724 14.3992 36.0282C14.6942 35.9102 15.6972 35.9397 16.597 36.0724ZM17.4672 43.2999C18.426 43.4917 19.2815 44.0227 19.606 44.6569C19.9895 45.4092 19.9452 46.9284 19.5027 47.7397C18.9422 48.7722 18.2195 49.0524 16.0365 49.0967L14.2812 49.1262L14.237 46.3237C14.2222 44.7897 14.237 43.4474 14.2665 43.3442C14.3697 43.1082 16.3167 43.0787 17.4672 43.2999Z" fill="#090928"/>
<path d="M22.3936 34.1549C22.3494 34.2287 22.3641 34.3024 22.4231 34.3024C22.4969 34.3024 22.5116 34.6712 22.4674 35.1284L22.3789 35.9397L24.3849 35.8512L24.4144 42.2969C24.4144 45.8517 24.4291 48.8459 24.4439 48.9344C24.4586 49.0672 24.1489 49.1409 23.4704 49.1704L22.4674 49.2147V51.1174H28.3821L28.3379 50.1882L28.2936 49.2737L27.4529 49.2294L26.5974 49.1852L26.5679 41.6332L26.5236 34.0812L24.5029 34.0369C23.2344 34.0074 22.4526 34.0517 22.3936 34.1549Z" fill="#090928"/>
<path d="M51.6725 33.9927V35.9544L52.705 35.8954L53.7375 35.8512V49.1852L52.7492 49.2294L51.7462 49.2737L51.702 50.1882L51.6577 51.1174H57.8822L57.838 50.1882L57.7937 49.2737L56.8497 49.1999L55.9205 49.1262L55.9352 47.2087C55.95 46.1614 55.9942 45.2617 56.0385 45.2322C56.0827 45.1879 56.3777 45.4534 56.717 45.8074C57.0562 46.1762 58.3247 47.5184 59.5342 48.7869L61.7467 51.1174H64.6525V49.1999H63.561C62.9562 49.1999 62.44 49.1409 62.4105 49.0524C62.3957 48.9787 61.7762 48.3002 61.0535 47.5479C60.3307 46.7957 59.4605 45.8959 59.136 45.5419L58.5312 44.9077L59.195 44.2882C59.5637 43.9489 60.2275 43.3589 60.67 42.9902C61.1125 42.6067 61.7762 42.0167 62.145 41.6922C62.7792 41.1169 62.853 41.0874 63.738 41.0874H64.6525V39.3174H58.4575V41.0874H59.2687C60.2865 41.0874 60.3012 41.2644 59.372 42.0019C58.9885 42.3117 58.4722 42.7394 58.2215 42.9607C57.9707 43.1819 57.602 43.4917 57.4102 43.6539C57.2185 43.8014 56.894 44.0817 56.6875 44.2734C55.9352 44.9667 55.95 45.0994 55.9057 39.3912L55.8762 34.0812L53.7817 34.0369L51.6725 33.9927Z" fill="#090928"/>
<path d="M75.125 33.9927V35.9249H77.19V49.1999H75.125V51.1174H81.32V49.2147L79.373 49.1262L79.3877 45.8222C79.4025 42.0167 79.314 42.2674 80.9217 41.4562C82.2197 40.8072 83.208 40.7482 83.7537 41.3087L84.1225 41.6627V51.1174H88.2525V49.1999H86.335V45.5124C86.335 43.4769 86.2612 41.5152 86.1727 41.1022C85.8925 39.7747 84.8452 39.0224 83.267 39.0224C82.205 39.0224 81.6592 39.1994 80.494 39.9369C79.9925 40.2467 79.55 40.4974 79.5057 40.4974C79.4467 40.4974 79.3877 39.0519 79.373 37.2819L79.3287 34.0812L77.2342 34.0369L75.125 33.9927Z" fill="#090928"/>
<path d="M31.7157 39.3765C30.2407 39.996 29.2819 40.8662 28.6182 42.179C28.0872 43.2262 27.9249 43.9342 27.9249 45.2175C27.9249 46.5155 28.0872 47.2087 28.6329 48.3002C29.3852 49.7752 30.7717 50.8815 32.3647 51.265C33.5152 51.5452 35.4474 51.3682 36.3914 50.911C38.0139 50.1145 39.1054 48.7427 39.6217 46.8842C40.4329 43.9342 39.0759 40.8367 36.4209 39.5387C35.6834 39.1847 35.3442 39.111 34.0609 39.0667C32.7334 39.0225 32.4679 39.052 31.7157 39.3765ZM35.0344 41.235C35.8309 41.4562 36.9667 42.6215 37.2617 43.5065C37.6157 44.5242 37.5862 46.0435 37.2027 47.0465C36.8782 47.9167 36.0669 48.7722 35.1967 49.141C34.5182 49.436 33.1317 49.3917 32.4237 49.0672C31.7894 48.787 30.8897 47.8872 30.4914 47.1055C30.1079 46.3975 30.1079 44.008 30.4914 43.3C31.4649 41.4562 33.1169 40.704 35.0344 41.235Z" fill="#090928"/>
<path d="M44.7104 39.1848C43.5747 39.4503 41.8047 40.9401 41.2737 42.0758C40.4624 43.772 40.4182 46.0583 41.1262 47.9463C41.3474 48.5068 42.5127 50.0408 42.9994 50.3948C44.0909 51.2208 44.5334 51.3388 46.4362 51.3241C47.9407 51.3241 48.3094 51.2651 48.8994 50.9848C49.7402 50.6013 50.8759 49.5098 51.3479 48.6543L51.6872 48.0348L50.7874 47.6071L49.9024 47.1646L49.6664 47.6661C48.8552 49.3771 46.3477 50.0261 44.6514 48.9641C42.9257 47.9021 42.3209 44.6276 43.4862 42.6216C44.3859 41.0876 46.2149 40.5271 47.8079 41.3236C48.6339 41.7366 49.1502 42.3413 49.2977 43.064C49.3862 43.4771 49.4599 43.5361 50.0499 43.6246C51.4069 43.8163 51.3774 43.8605 51.3774 41.4416V39.3175H50.4187C49.4894 39.3175 49.4599 39.3323 49.4599 39.6863C49.4599 40.1435 49.4452 40.1435 48.7519 39.7158C48.4569 39.524 47.9849 39.288 47.7047 39.1995C47.1294 38.993 45.5217 38.993 44.7104 39.1848Z" fill="#090928"/>
<path d="M68.3105 39.1847C67.1157 39.465 65.4195 40.9105 64.859 42.12C64.1362 43.6687 64.033 45.8517 64.5935 47.5037C64.8885 48.3887 65.7882 49.7457 66.4225 50.2915C67.4402 51.1322 68.1187 51.3387 69.9625 51.324C71.9095 51.324 72.5585 51.1322 73.5762 50.2915C74.2105 49.7752 75.125 48.492 75.125 48.1232C75.125 47.9462 73.8565 47.2825 73.5172 47.2825C73.4287 47.2825 73.355 47.3857 73.355 47.5037C73.355 47.8725 71.9685 49.1262 71.3342 49.318C68.3547 50.203 66.1275 47.8872 66.5847 44.3325C66.8207 42.415 67.75 41.3382 69.4315 41.0432C70.228 40.9105 70.464 40.9252 71.054 41.1465C71.9242 41.471 72.706 42.2675 72.8682 42.9755C72.9715 43.4327 73.0747 43.5212 73.5025 43.6245C73.7827 43.6835 74.24 43.6982 74.5055 43.654L74.9775 43.5655V39.3175H74.0187C73.0895 39.3175 73.06 39.3322 73.06 39.6862C73.06 40.1435 72.9715 40.1435 72.3225 39.7157C72.0422 39.524 71.585 39.288 71.3047 39.1995C70.7295 38.993 69.1217 38.993 68.3105 39.1847Z" fill="#090928"/>
<path d="M91.7481 39.1699C90.6566 39.4502 89.3439 40.3942 88.9161 41.2349L88.7096 41.6332L89.6979 41.8839L90.6714 42.1199L91.0106 41.6922C91.7924 40.7039 93.9016 40.4827 94.9489 41.2792C95.2734 41.5299 95.5241 41.8839 95.6274 42.2379C95.7749 42.8132 95.8339 44.7749 95.6864 44.7749C95.6421 44.7749 95.3324 44.6127 94.9784 44.4209C94.1671 43.9637 92.7954 43.6834 92.0431 43.8014C89.3291 44.2439 87.7361 46.9432 88.8571 49.2147C89.0784 49.6572 89.2849 49.9079 89.4029 49.8637C89.5061 49.8194 89.5504 49.8489 89.5061 49.9374C89.4029 50.1144 89.9634 50.6307 90.6124 50.9404C90.9664 51.1174 91.5121 51.1912 92.3824 51.1912C93.7394 51.1912 94.5949 50.8962 95.3914 50.1587C95.9519 49.6424 96.0551 49.7014 96.0109 50.4537L95.9666 51.1174H99.7574V49.1999H97.8399V45.4387C97.8399 40.7777 97.7514 40.4974 96.0846 39.5092C95.4799 39.1552 95.2291 39.1109 93.8574 39.0814C93.0019 39.0519 92.0579 39.0962 91.7481 39.1699ZM94.7424 45.9697C95.7011 46.4859 95.7749 46.5892 95.7749 47.4742C95.7749 48.2264 95.7306 48.3297 95.2881 48.6689C94.4916 49.2884 93.5476 49.6424 92.7069 49.6424C91.2614 49.6424 90.6124 48.9934 90.6124 47.5332C90.6124 46.8547 90.6861 46.6629 91.0991 46.1909C91.4974 45.7189 91.6891 45.6157 92.3824 45.5272C93.2674 45.4092 93.9459 45.5419 94.7424 45.9697Z" fill="#090928"/>
<path d="M113.623 39.2584C112.929 39.5239 112 39.9959 111.454 40.3647L110.82 40.7777V39.3174H106.69V41.2644L107.649 41.2054L108.608 41.1612V49.1852L107.693 49.2294L106.764 49.2737L106.72 50.1882L106.675 51.1174H112.738V49.1999H110.82V42.5919L111.307 42.2379C112.531 41.3087 114.198 40.8662 114.95 41.2644C115.57 41.6037 115.658 42.2822 115.673 46.8694L115.688 51.1174H119.67V49.2442L118.829 49.2147C118.357 49.1999 117.93 49.1409 117.871 49.0819C117.812 49.0229 117.753 47.2234 117.723 45.0699C117.679 40.6892 117.62 40.4237 116.602 39.6419C116.16 39.3027 115.924 39.2437 114.965 39.2142C114.345 39.1994 113.741 39.2142 113.623 39.2584Z" fill="#090928"/>
<path d="M100.347 39.3174V41.2644L101.232 41.2054C101.719 41.1907 102.117 41.2054 102.117 41.2644C102.117 41.3382 102.117 43.1229 102.132 45.2469V49.1262L101.232 49.1704L100.347 49.2147V51.1174H106.1V49.1999H104.33V39.3174H100.347Z" fill="#090928"/>
</svg>
