<svg width="201" height="46" viewBox="0 0 201 46" fill="none" xmlns="http://www.w3.org/2000/svg">
<g clip-path="url(#clip0)">
<path d="M62.6108 12.6716C63.7008 12.1511 64.3547 11.211 64.3547 9.95186C64.3547 8.03799 62.9462 6.79565 60.5147 6.79565H54.7296V18.8832H60.783C63.2313 18.8832 64.6063 17.5402 64.6063 15.4752C64.6063 14.1489 63.9523 13.1248 62.6108 12.6716ZM57.4629 9.17959H60.1626C61.0513 9.17959 61.5712 9.63288 61.5712 10.4219C61.5712 11.2278 61.001 11.6811 60.1123 11.6811H57.4629V9.17959ZM60.4309 16.4993H57.4629V13.8635H60.4141C61.2693 13.8635 61.8227 14.3504 61.8227 15.173C61.8227 15.9789 61.3029 16.4993 60.4309 16.4993Z" fill="#090928"/>
<path d="M66.2162 6.79565H68.8154V18.8832H66.2162V6.79565Z" fill="#090928"/>
<path d="M74.8856 19.1184C77.468 19.1184 79.4635 17.3388 79.4635 14.4344C79.4635 11.5301 77.468 9.75049 74.8856 9.75049C72.3033 9.75049 70.3078 11.5301 70.3078 14.4344C70.3078 17.3388 72.3033 19.1184 74.8856 19.1184ZM74.8856 16.8855C73.6951 16.8855 72.9572 15.9622 72.9572 14.4344C72.9572 12.9067 73.6951 11.9833 74.8856 11.9833C76.0594 11.9833 76.814 12.9067 76.814 14.4344C76.814 15.9622 76.0594 16.8855 74.8856 16.8855Z" fill="#090928"/>
<path d="M85.0137 19.1182C86.5229 19.1182 87.9314 18.6817 88.9711 16.6335L86.7912 15.643C86.3384 16.5496 85.8186 16.8853 85.064 16.8853C83.8902 16.8853 83.1356 15.962 83.1356 14.4342C83.1356 12.9904 83.8231 11.9999 85.064 11.9999C85.8018 11.9999 86.3384 12.3021 86.7912 13.1583L88.9543 12.1007C87.9817 10.2204 86.3384 9.76709 85.0137 9.76709C82.2804 9.76709 80.4862 11.6306 80.4862 14.451C80.4862 17.2547 82.314 19.1182 85.0137 19.1182Z" fill="#090928"/>
<path d="M95.9714 18.8832H98.9059L95.569 13.5781L98.7718 9.98543H95.7199L92.9028 13.2592V6.79565H90.3037V18.8832H92.9028V16.5664L93.9089 15.4416L95.9714 18.8832Z" fill="#090928"/>
<path d="M103.568 19.1182C105.077 19.1182 106.485 18.6817 107.525 16.6335L105.345 15.643C104.892 16.5496 104.373 16.8853 103.618 16.8853C102.444 16.8853 101.69 15.962 101.69 14.4342C101.69 12.9904 102.377 11.9999 103.618 11.9999C104.356 11.9999 104.892 12.3021 105.345 13.1583L107.508 12.1007C106.536 10.2204 104.892 9.76709 103.568 9.76709C100.834 9.76709 99.0403 11.6306 99.0403 14.451C99.0403 17.2547 100.868 19.1182 103.568 19.1182Z" fill="#090928"/>
<path d="M113.99 9.7504C112.665 9.7504 111.827 10.338 111.458 10.9256V6.79565H108.859V18.8832H111.458V13.8635C111.458 12.8898 111.961 12.0168 113.085 12.0168C113.873 12.0168 114.392 12.4701 114.392 13.5446V18.8832H116.992V12.8898C116.992 10.7409 115.617 9.7504 113.99 9.7504Z" fill="#090928"/>
<path d="M122.475 9.78394C120.932 9.78394 119.641 10.3379 118.836 11.2949L120.362 12.8394C120.831 12.3022 121.502 11.9328 122.274 11.9328C123.229 11.9328 123.816 12.3861 123.816 13.3934V13.4941H122.542C119.859 13.4941 118.45 14.4343 118.45 16.3146C118.45 18.0774 119.809 19.1182 121.435 19.1182C122.676 19.1182 123.498 18.6146 123.883 17.8927V18.8832H126.432V13.4102C126.432 10.9591 124.957 9.78394 122.475 9.78394ZM123.833 15.6095C123.833 16.3817 123.146 17.2547 122.139 17.2547C121.402 17.2547 120.932 16.8854 120.932 16.2139C120.932 15.4752 121.653 15.173 122.793 15.173H123.833V15.6095Z" fill="#090928"/>
<path d="M128.268 8.91098H130.968V6.79565H128.268V8.91098ZM128.318 18.8832H130.917V9.98543H128.318V18.8832Z" fill="#090928"/>
<path d="M138.044 9.75049C136.568 9.75049 135.747 10.422 135.411 11.0096V9.98553H132.862V18.8833H135.462V13.7965C135.462 12.8395 136.048 11.9665 137.088 11.9665C137.876 11.9665 138.396 12.4198 138.396 13.4943V18.8833H140.995V12.8899C140.995 10.741 139.62 9.75049 138.044 9.75049Z" fill="#090928"/>
<path d="M60.213 26.9932H58.4188L54.1093 38.5771V38.745H55.6352L56.7419 35.6727H61.8731L62.9799 38.745H64.5393V38.5771L60.213 26.9932ZM57.2114 34.3632L59.274 28.6216H59.3411L61.4036 34.3632H57.2114Z" fill="#090928"/>
<path d="M69.0501 38.8794C70.3748 38.8794 71.2468 38.2582 71.6995 37.3852H71.7666L71.884 38.7451H73.1081V30.1663H71.6995V34.8838C71.6995 36.613 70.8611 37.6203 69.4358 37.6203C68.0775 37.6203 67.4571 36.848 67.4571 35.5049V30.1663H66.0485V35.7232C66.0485 37.6874 67.1552 38.8794 69.0501 38.8794Z" fill="#090928"/>
<path d="M78.7925 38.8961C80.637 38.8961 82.1797 37.9896 82.1797 36.4115C82.1797 34.9341 81.3581 34.2961 79.7483 33.9268L78.4068 33.675C77.4678 33.5239 76.9144 33.1378 76.9144 32.4662C76.9144 31.6268 77.6354 31.2071 78.6751 31.2071C79.7483 31.2071 80.5532 31.694 80.6035 32.7852H81.9785C81.9785 31.0728 80.6035 30.0151 78.6751 30.0151C76.7802 30.0151 75.5561 31.0392 75.5561 32.4662C75.5561 33.7253 76.3275 34.5815 77.7361 34.8669L79.4464 35.1859C80.3687 35.3874 80.7544 35.8407 80.7544 36.4115C80.7544 37.2341 79.9998 37.637 78.7925 37.637C77.5684 37.637 76.6964 37.0494 76.6964 35.9078H75.2878C75.3381 37.7881 76.7635 38.8961 78.7925 38.8961Z" fill="#090928"/>
<path d="M87.3781 38.7451H88.6525V37.5027H87.6464C86.875 37.5027 86.5229 37.1502 86.5229 36.3276V31.3582H88.6189V30.1662H86.5229V27.8662H85.1478V30.1662H83.689V31.3582H85.1143V36.4451C85.1143 37.8721 85.6844 38.7451 87.3781 38.7451Z" fill="#090928"/>
<path d="M90.9163 38.745H92.3249V34.5815C92.3249 32.5669 93.0627 31.4253 94.6892 31.4253H95.36V30.0654H94.5886C93.5322 30.0654 92.677 30.653 92.3249 31.61H92.2578L92.1404 30.1662H90.9163V38.745Z" fill="#090928"/>
<path d="M99.7701 38.8961C100.977 38.8961 101.933 38.4093 102.453 37.5363H102.52L102.621 38.745H103.811V32.9699C103.811 31.3414 102.654 30.0151 100.458 30.0151C98.5795 30.0151 97.2045 31.1064 97.2045 32.7516H98.5627C98.5795 31.929 99.1999 31.2239 100.458 31.2239C101.849 31.2239 102.436 32.0465 102.436 33.0035V33.5575H100.323C97.8081 33.5575 96.7852 34.7998 96.7852 36.2436C96.7852 37.7377 97.9087 38.8961 99.7701 38.8961ZM100.022 37.721C98.7807 37.721 98.2106 37.083 98.2106 36.2268C98.2106 35.2195 98.9316 34.6823 100.323 34.6823H102.436V35.421C102.436 36.6633 101.48 37.721 100.022 37.721Z" fill="#090928"/>
<path d="M106.662 26.3215H108.071V38.7449H106.662V26.3215Z" fill="#090928"/>
<path d="M110.838 28.3865H112.414V26.7412H110.838V28.3865ZM110.921 38.7448H112.33V30.166H110.921V38.7448Z" fill="#090928"/>
<path d="M117.495 38.8961C118.702 38.8961 119.658 38.4093 120.178 37.5363H120.245L120.345 38.745H121.536V32.9699C121.536 31.3414 120.379 30.0151 118.182 30.0151C116.304 30.0151 114.929 31.1064 114.929 32.7516H116.287C116.304 31.929 116.924 31.2239 118.182 31.2239C119.574 31.2239 120.161 32.0465 120.161 33.0035V33.5575H118.048C115.533 33.5575 114.51 34.7998 114.51 36.2436C114.51 37.7377 115.633 38.8961 117.495 38.8961ZM117.746 37.721C116.505 37.721 115.935 37.083 115.935 36.2268C115.935 35.2195 116.656 34.6823 118.048 34.6823H120.161V35.421C120.161 36.6633 119.205 37.721 117.746 37.721Z" fill="#090928"/>
<path d="M133.19 38.896C135.907 38.896 137.583 37.6201 137.583 35.5216C137.583 33.7252 136.426 32.6004 134.246 32.1471L132.653 31.8114C131.413 31.5428 130.658 31.0223 130.658 30.0654C130.658 28.7391 131.664 28.1851 133.173 28.1851C134.984 28.1851 135.823 29.0581 135.89 30.334H137.382C137.365 28.2523 135.722 26.842 133.207 26.842C130.608 26.842 129.132 28.0844 129.132 30.0654C129.132 31.8617 130.222 32.8019 132.251 33.2384L133.961 33.6077C135.236 33.8763 136.057 34.38 136.057 35.5216C136.057 36.8982 135.051 37.5698 133.19 37.5698C131.345 37.5698 130.323 36.68 130.239 35.2194H128.746C128.813 37.4355 130.339 38.896 133.19 38.896Z" fill="#090928"/>
<path d="M143.218 38.8961C145.901 38.8961 147.091 36.9151 147.091 34.464C147.091 31.9962 145.867 30.0151 143.218 30.0151C140.568 30.0151 139.344 31.9962 139.344 34.464C139.344 36.9319 140.535 38.8961 143.218 38.8961ZM143.218 37.637C141.49 37.637 140.769 36.3107 140.769 34.464C140.769 32.6341 141.474 31.2743 143.218 31.2743C144.961 31.2743 145.666 32.6173 145.666 34.464C145.666 36.3107 144.961 37.637 143.218 37.637Z" fill="#090928"/>
<path d="M149.439 26.3215H150.847V38.7449H149.439V26.3215Z" fill="#090928"/>
<path d="M156.532 38.8794C157.857 38.8794 158.729 38.2582 159.181 37.3852H159.248L159.366 38.7451H160.59V30.1663H159.181V34.8838C159.181 36.613 158.343 37.6203 156.918 37.6203C155.559 37.6203 154.939 36.848 154.939 35.5049V30.1663H153.53V35.7232C153.53 37.6874 154.637 38.8794 156.532 38.8794Z" fill="#090928"/>
<path d="M166.291 38.7451H167.565V37.5027H166.559C165.788 37.5027 165.436 37.1502 165.436 36.3276V31.3582H167.532V30.1662H165.436V27.8662H164.061V30.1662H162.602V31.3582H164.027V36.4451C164.027 37.8721 164.597 38.7451 166.291 38.7451Z" fill="#090928"/>
<path d="M169.746 28.3865H171.322V26.7412H169.746V28.3865ZM169.829 38.7448H171.238V30.166H169.829V38.7448Z" fill="#090928"/>
<path d="M177.292 38.8961C179.975 38.8961 181.165 36.9151 181.165 34.464C181.165 31.9962 179.941 30.0151 177.292 30.0151C174.642 30.0151 173.418 31.9962 173.418 34.464C173.418 36.9319 174.609 38.8961 177.292 38.8961ZM177.292 37.637C175.564 37.637 174.843 36.3107 174.843 34.464C174.843 32.6341 175.548 31.2743 177.292 31.2743C179.035 31.2743 179.74 32.6173 179.74 34.464C179.74 36.3107 179.035 37.637 177.292 37.637Z" fill="#090928"/>
<path d="M183.513 38.7451H184.921V34.0108C184.921 32.2816 185.76 31.2743 187.185 31.2743C188.543 31.2743 189.164 32.0465 189.164 33.3896V38.7451H190.572V33.1713C190.572 31.2071 189.466 30.0151 187.571 30.0151C186.246 30.0151 185.374 30.6363 184.921 31.5093H184.854L184.737 30.1662H183.513V38.7451Z" fill="#090928"/>
<path d="M196.257 38.8961C198.101 38.8961 199.644 37.9896 199.644 36.4115C199.644 34.9341 198.822 34.2961 197.213 33.9268L195.871 33.675C194.932 33.5239 194.379 33.1378 194.379 32.4662C194.379 31.6268 195.1 31.2071 196.139 31.2071C197.213 31.2071 198.017 31.694 198.068 32.7852H199.443C199.443 31.0728 198.068 30.0151 196.139 30.0151C194.245 30.0151 193.02 31.0392 193.02 32.4662C193.02 33.7253 193.792 34.5815 195.2 34.8669L196.911 35.1859C197.833 35.3874 198.219 35.8407 198.219 36.4115C198.219 37.2341 197.464 37.637 196.257 37.637C195.033 37.637 194.161 37.0494 194.161 35.9078H192.752C192.802 37.7881 194.228 38.8961 196.257 38.8961Z" fill="#090928"/>
<path fill-rule="evenodd" clip-rule="evenodd" d="M18.8427 0.685495C19.6728 0.205421 20.6955 0.205421 21.5256 0.685495C25.1477 2.77898 35.0968 8.53 38.719 10.6235C39.5494 11.1036 40.0608 11.9904 40.0608 12.9498V32.8265C40.0608 33.7859 39.5494 34.6728 38.719 35.1528C35.0968 37.2463 25.1477 42.9974 21.5256 45.0908C20.6955 45.5709 19.6728 45.5709 18.8427 45.0908C15.2206 42.9974 5.27146 37.2463 1.64932 35.1528C0.8189 34.6728 0.307526 33.7859 0.307526 32.8265V12.9498C0.307526 11.9904 0.8189 11.1036 1.64932 10.6235C5.27146 8.53 15.2206 2.77898 18.8427 0.685495Z" fill="#BFC5D8"/>
<path fill-rule="evenodd" clip-rule="evenodd" d="M19.1781 7.84189C19.8007 7.48207 20.568 7.48207 21.1905 7.84189C23.6957 9.2902 30.191 13.0444 32.6962 14.4927C33.3187 14.8525 33.7024 15.5177 33.7024 16.2373V29.5385C33.7024 30.2581 33.3187 30.9233 32.6962 31.2831C30.191 32.7314 23.6957 36.4856 21.1905 37.9339C20.568 38.2938 19.8007 38.2938 19.1781 37.9339C16.6729 36.4856 10.1777 32.7314 7.67245 31.2831C7.04989 30.9233 6.66624 30.2581 6.66624 29.5385V16.2373C6.66624 15.5177 7.04989 14.8525 7.67245 14.4927C10.1777 13.0444 16.6729 9.2902 19.1781 7.84189Z" fill="white"/>
<path fill-rule="evenodd" clip-rule="evenodd" d="M20.1846 11.9812C20.4548 11.9812 20.7251 12.0512 20.9671 12.1911C22.7773 13.2375 27.2364 15.815 29.0464 16.8614C29.5307 17.1411 29.829 17.6584 29.829 18.2183V27.5584C29.829 27.8383 29.7543 28.1076 29.6192 28.3418L20.1846 22.8883V11.9812Z" fill="#FF438B"/>
<path fill-rule="evenodd" clip-rule="evenodd" d="M29.6178 28.3416C29.4828 28.5759 29.287 28.7749 29.045 28.9151C27.2351 29.9614 22.7757 32.5388 20.9658 33.5852C20.4813 33.8651 19.885 33.8651 19.4005 33.5852C17.5906 32.5388 13.1312 29.9614 11.3213 28.9151C11.0792 28.7749 10.8835 28.5759 10.7484 28.3416L20.1831 22.8879L29.6178 28.3416Z" fill="#8A0536"/>
<path fill-rule="evenodd" clip-rule="evenodd" d="M20.1847 11.9812V22.8882L10.7499 28.3415C10.6149 28.1074 10.54 27.8378 10.54 27.5582V18.2182C10.54 17.6581 10.8383 17.141 11.3227 16.861C13.1329 15.8147 17.5918 13.2374 19.4019 12.191C19.6439 12.051 19.9141 11.9812 20.1847 11.9812Z" fill="#C60D4F"/>
<path fill-rule="evenodd" clip-rule="evenodd" d="M33.4315 30.5459L39.7001 34.1692C39.4683 34.5707 39.1329 34.9125 38.7179 35.1526C35.0958 37.246 25.1467 42.9971 21.5245 45.0906C20.6945 45.5706 19.6717 45.5706 18.8417 45.0906C15.2195 42.9971 5.27042 37.246 1.64828 35.1526C1.23326 34.9125 0.897912 34.5707 0.666122 34.1692L6.93468 30.5459C7.10842 30.8471 7.35995 31.1031 7.6714 31.2831C10.1767 32.7313 16.6717 36.4857 19.177 37.9339C19.7996 38.2935 20.5666 38.2935 21.1892 37.9339C23.6945 36.4857 30.1895 32.7313 32.6948 31.2831C33.0062 31.1031 33.2578 30.8471 33.4315 30.5459Z" fill="#4E506B"/>
<path fill-rule="evenodd" clip-rule="evenodd" d="M20.1845 0.325195V7.57211C19.8368 7.57211 19.4896 7.66228 19.1783 7.84216C16.6729 9.29033 10.1778 13.0445 7.67235 14.4926C7.04978 14.8524 6.66619 15.5178 6.66619 16.2373V29.5387C6.66619 29.8985 6.76231 30.2448 6.93592 30.546L0.667305 34.1693C0.435679 33.7679 0.307953 33.3063 0.307953 32.8264V12.9495C0.307953 11.9899 0.819271 11.1035 1.64923 10.6236C5.27168 8.52961 15.2207 2.77898 18.8428 0.685393C19.258 0.445259 19.7212 0.325195 20.1845 0.325195Z" fill="#84859B"/>
</g>
<defs>
<clipPath id="clip0">
<rect width="201" height="46" fill="white"/>
</clipPath>
</defs>
</svg>
