<svg width="128" height="128" xmlns="http://www.w3.org/2000/svg">

 <g>
  <title>background</title>
  <rect fill="none" id="canvas_background" height="402" width="582" y="-1" x="-1"/>
 </g>
 <g>
  <title>Layer 1</title>
  <path id="svg_6" fill="#dadee7" d="m60.247,21.02l-0.599,3.491c-0.1,0.578 0.241,0.826 0.761,0.553l3.133,-1.648l3.132,1.648c0.52,0.273 0.859,0.025 0.761,-0.553l-0.598,-3.491l2.534,-2.474c0.419,-0.409 0.29,-0.81 -0.291,-0.893l-3.501,-0.51l-1.568,-3.176c-0.26,-0.528 -0.679,-0.528 -0.939,0l-1.566,3.176l-3.502,0.51c-0.58,0.083 -0.711,0.483 -0.29,0.893l2.533,2.474z"/>
  <path id="svg_7" fill="#dadee7" d="m35.344,27.479l3.43,0.874l1.226,3.323c0.204,0.55 0.622,0.595 0.936,0.099l1.889,-2.994l3.537,-0.139c0.586,-0.024 0.757,-0.409 0.383,-0.86l-2.264,-2.725l0.959,-3.408c0.159,-0.564 -0.153,-0.847 -0.699,-0.629l-3.288,1.311l-2.944,-1.967c-0.488,-0.328 -0.853,-0.118 -0.813,0.47l0.231,3.534l-2.778,2.191c-0.461,0.364 -0.375,0.776 0.195,0.92z"/>
  <path id="svg_8" fill="#dadee7" d="m21.116,42.415l-1.311,3.287c-0.217,0.546 0.064,0.858 0.631,0.699l3.406,-0.959l2.724,2.266c0.451,0.374 0.836,0.203 0.859,-0.384l0.139,-3.537l2.993,-1.89c0.497,-0.314 0.452,-0.732 -0.098,-0.936l-3.323,-1.229l-0.873,-3.431c-0.145,-0.567 -0.556,-0.655 -0.92,-0.195l-2.191,2.779l-3.533,-0.23c-0.587,-0.039 -0.798,0.324 -0.47,0.813l1.967,2.947z"/>
  <path id="svg_9" fill="#dadee7" d="m22.945,68.309c0.578,0.1 0.826,-0.242 0.554,-0.76l-1.648,-3.134l1.647,-3.133c0.273,-0.521 0.025,-0.861 -0.553,-0.762l-3.49,0.599l-2.471,-2.535c-0.409,-0.421 -0.81,-0.29 -0.895,0.291l-0.508,3.504l-3.175,1.566c-0.528,0.261 -0.528,0.681 0,0.939l3.175,1.566l0.508,3.504c0.085,0.58 0.485,0.71 0.895,0.289l2.471,-2.532l3.49,0.598z"/>
  <path id="svg_10" fill="#dadee7" d="m30.209,87.026l-2.994,-1.89l-0.141,-3.538c-0.022,-0.587 -0.408,-0.756 -0.858,-0.382l-2.725,2.263l-3.407,-0.957c-0.563,-0.16 -0.846,0.153 -0.629,0.699l1.312,3.288l-1.967,2.947c-0.328,0.487 -0.118,0.853 0.469,0.813l3.534,-0.231l2.191,2.778c0.363,0.461 0.774,0.374 0.919,-0.196l0.874,-3.43l3.321,-1.228c0.55,-0.204 0.596,-0.622 0.101,-0.936z"/>
  <path id="svg_11" fill="#dadee7" d="m45.755,100.538l-3.536,-0.139l-1.892,-2.992c-0.313,-0.498 -0.73,-0.451 -0.934,0.098l-1.229,3.322l-3.429,0.874c-0.568,0.144 -0.656,0.557 -0.196,0.921l2.779,2.192l-0.23,3.534c-0.04,0.587 0.324,0.798 0.813,0.469l2.944,-1.967l3.287,1.311c0.545,0.216 0.857,-0.064 0.698,-0.631l-0.957,-3.405l2.263,-2.726c0.375,-0.452 0.204,-0.836 -0.381,-0.861z"/>
  <path id="svg_12" fill="#dadee7" d="m66.137,108.512l0.597,-3.491c0.1,-0.579 -0.241,-0.826 -0.76,-0.555l-3.132,1.649l-3.134,-1.647c-0.521,-0.273 -0.859,-0.024 -0.762,0.553l0.598,3.491l-2.532,2.474c-0.42,0.406 -0.29,0.808 0.291,0.894l3.503,0.51l1.566,3.176c0.258,0.527 0.681,0.528 0.938,-0.001l1.566,-3.177l3.501,-0.508c0.581,-0.086 0.712,-0.485 0.289,-0.896l-2.529,-2.472z"/>
  <path id="svg_13" fill="#dadee7" d="m91.037,102.053l-3.427,-0.875l-1.229,-3.323c-0.202,-0.549 -0.622,-0.594 -0.935,-0.101l-1.888,2.996l-3.538,0.142c-0.587,0.021 -0.757,0.408 -0.383,0.858l2.264,2.725l-0.958,3.408c-0.159,0.563 0.153,0.845 0.699,0.629l3.288,-1.311l2.945,1.968c0.486,0.327 0.853,0.117 0.812,-0.472l-0.23,-3.534l2.776,-2.191c0.461,-0.364 0.374,-0.775 -0.196,-0.919z"/>
  <path id="svg_14" fill="#dadee7" d="m105.267,87.116l1.309,-3.287c0.218,-0.545 -0.063,-0.859 -0.63,-0.699l-3.405,0.957l-2.726,-2.264c-0.449,-0.374 -0.835,-0.202 -0.858,0.381l-0.139,3.539l-2.994,1.891c-0.496,0.313 -0.449,0.731 0.1,0.935l3.321,1.229l0.875,3.431c0.143,0.565 0.555,0.654 0.919,0.195l2.192,-2.779l3.534,0.23c0.585,0.039 0.798,-0.324 0.467,-0.813l-1.965,-2.946z"/>
  <path id="svg_15" fill="#dadee7" d="m113.977,64.646l-3.175,-1.567l-0.51,-3.503c-0.083,-0.579 -0.484,-0.711 -0.895,-0.289l-2.471,2.531l-3.491,-0.597c-0.578,-0.099 -0.825,0.242 -0.554,0.759l1.648,3.135l-1.647,3.135c-0.272,0.521 -0.024,0.858 0.553,0.76l3.491,-0.598l2.474,2.535c0.406,0.418 0.808,0.289 0.893,-0.29l0.511,-3.504l3.175,-1.568c0.526,-0.259 0.528,-0.68 -0.002,-0.939z"/>
  <path id="svg_16" fill="#dadee7" d="m96.174,42.503l2.992,1.891l0.142,3.538c0.023,0.587 0.408,0.756 0.858,0.383l2.724,-2.264l3.41,0.958c0.562,0.158 0.844,-0.154 0.628,-0.698l-1.31,-3.289l1.967,-2.946c0.325,-0.487 0.116,-0.853 -0.472,-0.813l-3.533,0.231l-2.192,-2.778c-0.361,-0.461 -0.774,-0.374 -0.919,0.196l-0.874,3.429l-3.322,1.228c-0.55,0.203 -0.594,0.622 -0.099,0.934z"/>
  <path id="svg_17" fill="#dadee7" d="m80.626,28.99l3.537,0.14l1.891,2.995c0.313,0.496 0.731,0.449 0.935,-0.099l1.229,-3.322l3.432,-0.875c0.565,-0.145 0.653,-0.556 0.194,-0.919l-2.778,-2.194l0.23,-3.534c0.039,-0.585 -0.325,-0.797 -0.814,-0.468l-2.945,1.967l-3.286,-1.311c-0.544,-0.217 -0.857,0.063 -0.698,0.63l0.957,3.407l-2.263,2.726c-0.376,0.45 -0.206,0.835 0.379,0.857z"/>
  <path id="svg_18" fill="#0436ed" d="m122.388,51.606c-1.521,-2.012 -2.96,-3.912 -3.496,-5.572c-0.581,-1.803 -0.535,-4.286 -0.484,-6.917c0.082,-4.286 0.173,-9.145 -2.612,-13.016c-2.837,-3.926 -7.489,-5.344 -11.595,-6.594c-2.469,-0.751 -4.799,-1.46 -6.276,-2.544c-1.44,-1.056 -2.811,-3.054 -4.262,-5.169c-2.453,-3.575 -5.232,-7.625 -9.871,-9.146c-1.195,-0.392 -2.442,-0.583 -3.813,-0.583c-3.181,0 -6.239,1.067 -9.197,2.101c-2.496,0.869 -4.852,1.692 -6.782,1.692c-1.931,0 -4.287,-0.824 -6.783,-1.695c-2.955,-1.032 -6.01,-2.099 -9.187,-2.099c-1.37,0 -2.619,0.189 -3.819,0.581c-4.646,1.522 -7.426,5.574 -9.879,9.149c-1.452,2.115 -2.824,4.114 -4.267,5.173c-1.474,1.081 -3.804,1.79 -6.271,2.542c-4.102,1.25 -8.75,2.666 -11.583,6.583c-2.797,3.879 -2.705,8.74 -2.622,13.029c0.05,2.629 0.099,5.111 -0.482,6.914c-0.535,1.659 -1.974,3.56 -3.496,5.57c-2.631,3.478 -5.611,7.416 -5.611,12.395c0,4.977 2.982,8.917 5.612,12.394c1.522,2.012 2.96,3.912 3.495,5.57c0.578,1.798 0.53,4.28 0.48,6.907c-0.082,4.29 -0.175,9.153 2.62,13.03c2.831,3.923 7.483,5.337 11.586,6.586c2.468,0.75 4.8,1.458 6.272,2.54c1.442,1.059 2.813,3.058 4.266,5.174c2.453,3.577 5.233,7.632 9.874,9.15c1.202,0.394 2.45,0.584 3.816,0.584c3.174,0 6.229,-1.066 9.184,-2.098c2.499,-0.872 4.858,-1.695 6.795,-1.695c1.93,0 4.284,0.821 6.777,1.692c2.958,1.032 6.017,2.101 9.201,2.101c1.372,0 2.621,-0.191 3.819,-0.587c4.632,-1.516 7.413,-5.57 9.867,-9.149c1.451,-2.114 2.822,-4.113 4.265,-5.175c1.47,-1.076 3.801,-1.784 6.27,-2.534c4.105,-1.248 8.759,-2.663 11.591,-6.584c2.79,-3.88 2.699,-8.737 2.617,-13.023c-0.051,-2.631 -0.097,-5.115 0.485,-6.92c0.534,-1.652 1.971,-3.551 3.49,-5.56c2.636,-3.478 5.618,-7.422 5.618,-12.403c0,-4.978 -2.98,-8.917 -5.612,-12.394zm-7.441,29.085c-1.857,5.769 0.938,13.984 -2.516,18.787c-3.502,4.848 -12.141,4.681 -16.957,8.207c-4.761,3.502 -7.255,11.854 -12.974,13.727c-0.813,0.269 -1.654,0.378 -2.522,0.378c-5.014,0 -10.767,-3.792 -15.979,-3.792c-5.221,0 -10.979,3.792 -15.979,3.792c-0.873,0 -1.708,-0.109 -2.528,-0.378c-5.719,-1.872 -8.213,-10.229 -12.976,-13.727c-4.809,-3.528 -13.451,-3.361 -16.951,-8.209c-3.461,-4.802 -0.663,-13.017 -2.516,-18.785c-1.793,-5.561 -8.906,-10.526 -8.906,-16.691c0,-6.169 7.113,-11.127 8.907,-16.692c1.858,-5.768 -0.945,-13.984 2.516,-18.785c3.507,-4.847 12.143,-4.686 16.951,-8.214c4.763,-3.496 7.257,-11.849 12.976,-13.722c0.82,-0.268 1.662,-0.377 2.537,-0.377c5,0 10.758,3.792 15.97,3.792s10.97,-3.792 15.979,-3.792c0.868,0 1.709,0.11 2.522,0.377c5.719,1.875 8.213,10.226 12.974,13.722c4.816,3.528 13.455,3.367 16.957,8.214c3.454,4.801 0.658,13.018 2.516,18.785c1.798,5.565 8.909,10.527 8.909,16.692c-0.001,6.169 -7.112,11.133 -8.91,16.691z"/>
  <path id="svg_19" fill="#547cec" d="m64,29.483c-19.059,0 -34.507,15.453 -34.507,34.517c0,19.063 15.448,34.514 34.507,34.514c19.057,0 34.507,-15.451 34.507,-34.514c0,-19.063 -15.45,-34.517 -34.507,-34.517zm0,64.886c-16.742,0 -30.363,-13.624 -30.363,-30.369c0,-16.747 13.621,-30.371 30.363,-30.371c16.743,0 30.363,13.624 30.363,30.371c0,16.745 -13.62,30.369 -30.363,30.369z"/>
  <path id="svg_20" fill="#0436ed" d="m49.211,62.127c0,-3.091 -2.005,-3.127 -4.553,-3.127l-2.658,0l0,12.869l2.658,0c3.18,0 4.553,-0.127 4.553,-3.67c0,-1.662 -0.216,-3.072 -2.131,-3.072l0,-0.126c1.716,-0.163 2.131,-1.446 2.131,-2.874zm-4.589,7.898l0,-3.958c1.265,0 1.59,0.018 1.59,1.843c0,1.338 0.017,2.26 -1.59,2.115zm0,-5.801l0,-3.38c1.481,-0.09 1.59,0.434 1.59,1.699c0,1.934 -0.65,1.627 -1.59,1.681z"/>
  <path id="svg_21" fill="#0436ed" d="m58.442,67.387c0,-1.844 -0.849,-2.386 -2.296,-2.422l0,-0.037c1.627,-0.271 2.296,-1.318 2.296,-2.928c0,-2.71 -1.699,-3 -4.554,-3l-2.888,0l0,12.869l2.87,0l0,-5.874l0.488,0c0.542,0 1.084,0.452 1.084,1.355l0,2.729c0,0.506 0.072,1.264 0.434,1.789l3.018,0c-0.361,-0.525 -0.451,-1.283 -0.451,-1.789l0,-2.692l-0.001,0zm-4.572,-3.237l0,-3.307c1.374,0 1.572,0.451 1.572,1.645c0,1.211 -0.216,1.662 -1.572,1.662z"/>
  <path id="svg_22" fill="#0436ed" d="m62.18,59l-2.187,12.869l2.529,0l0.488,-3.164l1.626,0l0.344,3.164l2.981,0l-1.661,-12.869l-4.12,0zm1.156,7.754l0.523,-5.729l0.036,0l0.524,5.729l-1.083,0z"/>
  <polygon id="svg_23" points="75.476,68.362 75.439,68.362 73.524,59 69,59 69,71.869 71.718,71.869 71.718,61.115       71.754,61.115 73.977,71.869 77.825,71.869 77.825,59 75.476,59     " fill="#0436ed"/>
  <path id="svg_24" fill="#0436ed" d="m82.312321,59l-3.501,0l0,12.869l3.501,0c3.776,0 4.499,-1.446 4.499,-3.887l0,-4.59c0,-3.849 -1.138,-4.392 -4.499,-4.392zm1.5,9.236c0,1.229 -0.127,1.789 -1.591,1.789l0,-9.182c1.519,0 1.591,0.379 1.591,2.097l0,5.296z"/>
 </g>
</svg>