<svg xmlns="http://www.w3.org/2000/svg" width="100.788" height="99.934" viewBox="0 0 100.788 99.934"><g transform="translate(0 -0.007)"><path d="M89.328,99.335,79.864,88.072l-4.67,4.672a1.681,1.681,0,0,1-2.8-.706l-7.863-26.27a1.678,1.678,0,0,1,2.089-2.089l26.27,7.863a1.681,1.681,0,0,1,.706,2.8l-4.672,4.669,11.264,9.464a1.683,1.683,0,0,1,.107,2.474l-8.5,8.5a1.679,1.679,0,0,1-2.473-.107ZM44.095,87.755V84.815a1.68,1.68,0,0,1,3.36,0v2.939a1.68,1.68,0,1,1-3.36,0ZM27.9,81.989l2.079-2.078a1.679,1.679,0,1,1,2.375,2.375l-2.078,2.079A1.68,1.68,0,1,1,27.9,81.989ZM11.759,72.247A11.759,11.759,0,0,1,0,60.487V28.948A11.758,11.758,0,0,1,11.759,17.189H79.79A11.758,11.758,0,0,1,91.549,28.948v31.54a11.69,11.69,0,0,1-1.283,5.339,1.675,1.675,0,0,1-1.973.832l-20.705-6.2a5.043,5.043,0,0,0-6.273,6.273l1,3.352a1.68,1.68,0,0,1-1.609,2.162ZM59.2,7.149,61.277,5.07a1.68,1.68,0,1,1,2.376,2.376L61.575,9.524A1.68,1.68,0,1,1,59.2,7.149ZM29.975,9.524,27.9,7.446A1.68,1.68,0,1,1,30.272,5.07L32.35,7.149a1.679,1.679,0,1,1-2.375,2.375Zm14.12-4.9V1.679a1.68,1.68,0,0,1,3.36,0V4.62a1.68,1.68,0,0,1-3.36,0Z" transform="translate(0 0.007)" fill="#0436ed"/></g></svg>