<svg width="165" height="75" viewBox="0 0 165 75" fill="none" xmlns="http://www.w3.org/2000/svg">
<path d="M99.0759 31.9499C98.4695 31.1539 97.6356 30.5348 96.587 30.08C95.5257 29.6378 94.1865 29.4104 92.5314 29.4104C91.2301 29.4104 89.9541 29.701 88.7159 30.2948C88.1474 30.5727 87.6168 30.9139 87.1367 31.3434C86.4923 31.9246 85.9743 32.6447 85.5827 33.4154C84.2435 36.0433 82.1967 38.2669 79.6952 39.8209V49.1828C79.6952 50.9768 81.1481 52.4297 82.9422 52.4297H85.848V40.68C85.848 38.3932 86.227 36.7508 86.9724 35.7654C87.7178 34.7673 88.9434 34.2745 90.6111 34.2745C92.0892 34.2745 93.1126 34.7294 93.6938 35.639C94.2749 36.5487 94.5655 37.9258 94.5655 39.783V49.2712C94.5655 51.0147 95.9805 52.4424 97.7367 52.4424H100.731V38.6459C100.731 37.2562 100.605 35.9928 100.365 34.8557C100.112 33.706 99.6823 32.7458 99.0759 31.9499Z" fill="#33CCFF"/>
<path d="M79.6952 30.0166V37.6981C81.8304 35.6388 83.397 32.9856 84.1424 30.0166H79.6952Z" fill="#33CCFF"/>
<path d="M108.981 31.8613L103.826 23.0932C103.232 22.0951 102.159 21.4761 100.996 21.4761H95.2856L105.09 37.7488C105.936 35.5126 107.275 33.5037 108.981 31.8613Z" fill="#33CCFF"/>
<path d="M121.4 27.3636L124.938 21.4888H119.177C118.014 21.4888 116.953 22.0952 116.359 23.0933L112.784 29.145L110.08 33.7186C108.147 36.258 106.934 39.3913 106.783 42.7899V49.208C106.783 51.002 108.236 52.4423 110.017 52.4423H113.58V41.2738C113.58 40.6926 113.731 40.1241 114.035 39.6313L121.375 27.4015L121.4 27.3636Z" fill="#33CCFF"/>
<path d="M140.162 37.2183C140.162 37.2435 140.149 37.2688 140.149 37.2814C140.149 37.2562 140.162 37.2435 140.162 37.2183Z" fill="#33CCFF"/>
<path d="M122.689 51.8232C124.475 51.8232 125.923 50.3751 125.923 48.5888C125.923 46.8025 124.475 45.3545 122.689 45.3545C120.903 45.3545 119.455 46.8025 119.455 48.5888C119.455 50.3751 120.903 51.8232 122.689 51.8232Z" fill="#33CCFF"/>
<path d="M133.592 46.4158C133.668 46.2389 133.744 46.0621 133.794 45.8726C133.744 46.0621 133.681 46.2389 133.592 46.4158Z" fill="#33CCFF"/>
<path d="M134.338 50.2946V50.2693C134.325 50.2693 134.325 50.2819 134.338 50.2946C134.527 50.8252 134.843 51.28 135.26 51.6338C134.843 51.2674 134.515 50.8126 134.338 50.2946Z" fill="#33CCFF"/>
<path d="M135.374 51.7346C135.348 51.7094 135.323 51.6967 135.298 51.6841C135.323 51.6967 135.348 51.7094 135.374 51.7346Z" fill="#33CCFF"/>
<path d="M127.831 48.8164C127.894 48.829 127.945 48.829 128.008 48.8416C128.084 48.8543 128.172 48.8669 128.248 48.8669C128.299 48.8669 128.336 48.8795 128.387 48.8795C128.438 48.8795 128.475 48.8922 128.526 48.8922H128.539C128.602 48.8922 128.678 48.9048 128.741 48.9048C128.842 48.9048 128.956 48.9174 129.057 48.9174H129.069C129.297 48.9174 129.511 48.9048 129.726 48.8922C129.928 48.8795 130.131 48.8543 130.32 48.829C130.964 48.7406 131.495 48.5637 131.912 48.311C132.582 47.9067 133.062 47.4266 133.39 46.8581C133.466 46.7191 133.529 46.5801 133.592 46.4412C133.529 46.5801 133.466 46.7191 133.377 46.8581C133.062 47.4266 132.569 47.9067 131.899 48.311C131.482 48.5637 130.952 48.7406 130.307 48.829C130.118 48.8543 129.928 48.8795 129.714 48.8922C129.499 48.9048 129.284 48.9174 129.057 48.9174H129.044C128.943 48.9174 128.829 48.9174 128.728 48.9048C128.665 48.9048 128.589 48.9048 128.526 48.8922H128.513C128.463 48.8922 128.412 48.8922 128.374 48.8795C128.324 48.8795 128.286 48.8669 128.235 48.8669C128.16 48.8543 128.084 48.8416 127.995 48.8416C127.945 48.8416 127.882 48.829 127.831 48.8164C127.768 48.8037 127.717 48.7911 127.654 48.7785C127.616 48.7785 127.591 48.7658 127.566 48.7532C127.604 48.7658 127.629 48.7658 127.667 48.7785C127.717 48.8037 127.768 48.8164 127.831 48.8164Z" fill="#33CCFF"/>
<path d="M140.2 41.4001V52.4297H137.37C136.675 52.4297 136.031 52.2023 135.513 51.8359C136.031 52.2023 136.675 52.4297 137.357 52.4297H140.213V45.6578L140.2 44.546V41.4001Z" fill="#33CCFF"/>
<path d="M133.794 45.8725C133.807 45.8346 133.82 45.7967 133.832 45.7588C133.82 45.7967 133.807 45.8346 133.794 45.8725Z" fill="#33CCFF"/>
<path d="M133.58 46.441C133.58 46.4284 133.592 46.4284 133.592 46.4158C133.592 46.4284 133.592 46.441 133.58 46.441Z" fill="#33CCFF"/>
<path d="M135.487 51.8231C135.45 51.7978 135.412 51.7599 135.361 51.7346C135.412 51.7599 135.45 51.7978 135.487 51.8231Z" fill="#33CCFF"/>
<path d="M135.298 51.6714C135.285 51.6588 135.273 51.6462 135.247 51.6335C135.273 51.6462 135.285 51.6588 135.298 51.6714Z" fill="#33CCFF"/>
<path d="M44.9009 45.5188L44.8882 45.5314C44.7872 45.6451 44.6861 45.7462 44.5724 45.8473C44.345 46.0873 44.1176 46.3274 43.9028 46.5801C43.6627 46.8959 43.4227 47.2118 43.1574 47.515C41.1359 49.8649 38.4575 51.6337 35.4 52.5307C36.7898 52.9224 38.2932 53.1245 39.8978 53.1245H39.9988C40.1631 53.1245 40.3273 53.1245 40.4916 53.1119C42.2098 53.0614 43.7891 52.7834 45.242 52.2528C46.8339 51.6716 48.2236 50.8378 49.3986 49.7386C50.5862 48.6394 51.5338 47.3128 52.2539 45.7462C52.8983 44.3565 53.3152 42.8151 53.53 41.1348C50.8768 41.577 48.4384 42.6509 46.3917 44.2175C45.8863 44.6218 45.381 45.064 44.9009 45.5188Z" fill="#33CCFF"/>
<path d="M40.0115 47.4518C38.4828 47.4518 37.1815 47.1612 36.1076 46.5674C35.0337 45.9736 34.1746 45.1903 33.5049 44.2048C32.8353 43.2194 32.3552 42.1202 32.052 40.8947C31.7488 39.6692 31.5972 38.4058 31.5972 37.1044C31.5972 35.7526 31.7488 34.426 32.052 33.1626C32.2163 32.4551 32.4437 31.7855 32.7343 31.1664C32.7848 31.0401 32.848 30.9264 32.9111 30.8127C32.9111 30.8 32.9238 30.8 32.9238 30.7874C32.9743 30.6737 33.0375 30.5726 33.1007 30.4589C33.1133 30.421 33.1386 30.3957 33.1512 30.3578C33.2017 30.2694 33.2396 30.1936 33.2902 30.1052C33.366 29.9914 33.4291 29.8651 33.5176 29.7514C34.1872 28.7533 35.0463 27.9574 36.1202 27.3636C37.1941 26.7698 38.4954 26.4792 40.0241 26.4792H40.2389C40.997 26.5044 41.7297 26.6308 42.4373 26.8835C43.2079 27.1614 43.8902 27.5404 44.4966 28.0332C45.103 28.5259 45.6084 29.0944 46.0127 29.7514C46.0127 29.764 46.0253 29.764 46.0253 29.7767C46.8339 31.078 48.2237 31.8992 49.7524 31.8992H53.391C53.1889 30.1052 52.6961 28.5133 51.9128 27.1361C51.5212 26.4413 51.0663 25.7969 50.5736 25.2031C50.0809 24.6346 49.5376 24.104 48.9438 23.6491C47.7436 22.7142 46.3917 21.9941 44.863 21.5013C43.3469 21.0086 41.7297 20.7686 40.0241 20.7686C37.6489 20.7686 35.5264 21.1855 33.6313 22.0193C32.6837 22.4363 31.8246 22.929 31.0287 23.5102H31.016C30.9655 23.5481 30.9276 23.5733 30.8897 23.6112C30.8391 23.6491 30.7886 23.687 30.7381 23.7249C30.6244 23.8134 30.5233 23.8892 30.4096 23.9776C30.3591 24.0155 30.3085 24.0661 30.258 24.104C30.1443 24.1924 30.0432 24.2935 29.9421 24.3819C29.9042 24.4198 29.8537 24.4577 29.8032 24.4956C29.6515 24.6346 29.5126 24.7609 29.3736 24.9125C29.361 24.9125 29.3483 24.9125 29.3357 24.9252C29.1588 25.1021 28.9946 25.2789 28.8303 25.4684C28.6914 25.62 28.565 25.7717 28.4387 25.9359C28.4008 25.9864 28.3502 26.037 28.3123 26.1001C27.2637 27.4267 26.4425 28.9428 25.836 30.6484C25.1412 32.632 24.8 34.7798 24.8 37.0918C24.8 39.3407 25.1412 41.4506 25.836 43.3962C26.5309 45.3419 27.529 47.0475 28.8303 48.4878C29.4999 49.2332 30.2453 49.8902 31.0666 50.4587C34.503 50.4208 37.6868 49.309 40.2895 47.4391C40.1884 47.4391 40.0999 47.4518 40.0115 47.4518Z" fill="#33CCFF"/>
<path d="M140.2 36.6875C140.2 36.8644 140.187 37.0413 140.149 37.2181C140.187 37.0413 140.213 36.8644 140.2 36.6875Z" fill="#33CCFF"/>
<path d="M139.29 32.5057C138.684 31.6845 137.901 31.0401 136.953 30.5727C136.005 30.1052 134.944 29.802 133.794 29.6378C133.213 29.5619 132.645 29.4988 132.076 29.4609C131.937 29.4482 131.786 29.4482 131.647 29.4356C131.217 29.4103 130.8 29.3977 130.371 29.3977C130.067 29.3977 129.764 29.4103 129.461 29.423C128.526 29.4735 127.604 29.5872 126.681 29.7641C125.456 30.0041 124.344 30.4211 123.371 31.0022C122.386 31.5834 121.577 32.3415 120.946 33.3016C120.314 34.2618 119.948 35.4494 119.859 36.9024H123.7C124.875 36.9024 125.923 36.2201 126.479 35.1841C126.669 34.8177 126.922 34.5272 127.225 34.2997C127.831 33.8449 128.64 33.5922 129.638 33.5291C129.777 33.5164 129.916 33.5164 130.067 33.5164C130.345 33.5164 130.611 33.5291 130.863 33.5417C131.129 33.5543 131.381 33.5922 131.621 33.6175C132.102 33.6933 132.518 33.8323 132.885 34.0471C133.251 34.2618 133.529 34.5651 133.757 34.9567C133.971 35.3484 134.085 35.879 134.085 36.536C134.11 37.1677 133.921 37.6604 133.517 37.9889C133.112 38.3174 132.556 38.5701 131.874 38.7469C131.179 38.9238 130.383 39.0502 129.486 39.1386C128.589 39.227 127.68 39.3407 126.757 39.4797C125.835 39.6187 124.913 39.8208 124.003 40.0609C123.409 40.2251 122.866 40.4399 122.348 40.6926C122.083 40.8316 121.817 40.9832 121.565 41.1601C120.857 41.6528 120.276 42.3098 119.834 43.131C119.531 43.6869 119.328 44.3438 119.24 45.1019C120.124 44.2049 121.35 43.6363 122.714 43.6363C123.801 43.6363 124.812 43.9901 125.62 44.5965C125.62 44.5965 125.62 44.5839 125.633 44.5839C125.835 44.2049 126.1 43.9017 126.429 43.649C126.757 43.4089 127.149 43.2068 127.604 43.0678C128.046 42.9288 128.513 42.8025 128.968 42.714C129.461 42.6256 129.954 42.5624 130.446 42.4993C130.446 42.4993 131.71 42.3224 133.327 41.8802C135.197 41.3748 137.547 40.5157 138.974 39.2018C139.581 38.6459 140.01 38.0015 140.175 37.2561V37.2308C140.175 37.2056 140.187 37.1803 140.187 37.1677C140.213 36.9908 140.238 36.8139 140.238 36.637V35.7779C140.2 34.4261 139.897 33.3395 139.29 32.5057Z" fill="#33CCFF"/>
<path d="M55.7535 43.9774C55.7535 43.9647 55.7662 43.9521 55.7662 43.9395C55.7662 43.9521 55.7535 43.9647 55.7535 43.9774Z" fill="#33CCFF"/>
<path d="M55.6019 44.546C55.6019 44.5333 55.6019 44.5207 55.6146 44.5081C55.6019 44.5207 55.6019 44.5333 55.6019 44.546Z" fill="#33CCFF"/>
<path d="M55.6652 44.2554C55.6652 44.2428 55.6778 44.2302 55.6778 44.2175C55.6778 44.2302 55.6778 44.2428 55.6652 44.2554Z" fill="#33CCFF"/>
<path d="M55.6777 44.2173C55.703 44.1289 55.7283 44.0531 55.7535 43.9773C55.7283 44.0531 55.703 44.1289 55.6777 44.2173Z" fill="#33CCFF"/>
<path d="M55.6019 44.5207C55.6272 44.4323 55.6398 44.3439 55.6651 44.2681C55.6525 44.3439 55.6272 44.4323 55.6019 44.5207Z" fill="#33CCFF"/>
<path d="M55.5009 45.1397C55.5261 44.9376 55.564 44.7354 55.6019 44.5459C55.564 44.7354 55.5261 44.9376 55.5009 45.1397Z" fill="#33CCFF"/>
<path d="M55.7662 43.9394C55.7915 43.851 55.8294 43.7626 55.8547 43.6868C55.8294 43.7752 55.7915 43.851 55.7662 43.9394Z" fill="#33CCFF"/>
<path d="M62.6897 43.6995C63.0181 43.4595 63.4098 43.2573 63.8646 43.1183C64.3068 42.9794 64.7743 42.853 65.2291 42.7646C65.7218 42.6761 66.2146 42.613 66.7073 42.5498C66.7073 42.5498 67.9707 42.3729 69.5879 41.9307C69.6005 41.9307 69.6005 41.9307 69.6131 41.9181C71.4704 41.4127 73.7824 40.5662 75.1974 39.2776C76.006 38.6711 76.4861 37.7236 76.4861 36.7128V35.7779C76.4861 34.9314 76.3724 34.186 76.1323 33.5417C75.9934 33.1627 75.8039 32.8089 75.5764 32.5057C74.97 31.6845 74.1867 31.0401 73.2391 30.5727C72.2916 30.1052 71.2303 29.802 70.0806 29.6378C69.4994 29.5619 68.9309 29.4988 68.3624 29.4609C68.2234 29.4482 68.0718 29.4482 67.9328 29.4356C67.5032 29.4103 67.0863 29.3977 66.6568 29.3977C66.3535 29.3977 66.0503 29.4103 65.7471 29.423C64.8122 29.4735 63.8899 29.5872 62.9676 29.7641C61.7421 30.0041 60.6303 30.4211 59.6575 31.0022C58.672 31.5834 57.8634 32.3415 57.2317 33.3016C56.6 34.2618 56.2336 35.4494 56.1452 36.9024H60.0112C61.1736 36.9024 62.2096 36.2328 62.7528 35.2094C62.9423 34.843 63.195 34.5398 63.5109 34.2997C64.1173 33.8449 64.9259 33.5922 65.924 33.5291C66.063 33.5164 66.2019 33.5164 66.3535 33.5164C66.6315 33.5164 66.8968 33.5291 67.1495 33.5417C67.4148 33.5543 67.6675 33.5922 67.9075 33.6175C68.3876 33.6933 68.8046 33.8323 69.171 34.0471C69.5373 34.2618 69.8153 34.5651 70.0427 34.9567C70.0932 35.0578 70.1438 35.1589 70.1817 35.2726C70.308 35.6137 70.3586 36.0432 70.3586 36.536C70.3838 37.1677 70.1943 37.6604 69.79 37.9889C69.3857 38.3174 68.8298 38.5701 68.1476 38.7469C67.4527 38.9238 66.6568 39.0502 65.7597 39.1386C64.8627 39.227 63.9531 39.3407 63.0308 39.4797C62.1085 39.6187 61.1862 39.8208 60.2765 40.0609C59.6827 40.2251 59.1395 40.4399 58.6215 40.6926C58.3562 40.8316 58.0908 40.9832 57.8382 41.1601C57.1307 41.6528 56.5495 42.3098 56.1073 43.131C56.0189 43.2952 55.943 43.4595 55.8672 43.6363C55.8293 43.7248 55.8041 43.8006 55.7788 43.889C55.7788 43.9017 55.7662 43.9143 55.7662 43.9269C55.7409 44.0027 55.7156 44.0912 55.6904 44.167C55.6904 44.1796 55.6777 44.1922 55.6777 44.2049C55.6525 44.2933 55.6398 44.3691 55.6146 44.4576C55.6146 44.4702 55.6146 44.4828 55.6019 44.4955C55.564 44.685 55.5261 44.8871 55.5009 45.0893C55.4882 45.2156 55.4756 45.3293 55.463 45.4556C55.4377 45.721 55.425 45.9863 55.425 46.2642C55.425 47.4266 55.6146 48.4247 56.0062 49.2585C56.3979 50.0924 56.9411 50.7872 57.636 51.3431C58.3309 51.8864 59.1395 52.2907 60.0618 52.556C60.8956 52.7834 61.78 52.9224 62.7276 52.935H63.0308C63.2961 52.935 63.5488 52.9224 63.8141 52.9098C63.9025 52.9098 63.991 52.8971 64.0794 52.8971C64.3447 52.8719 64.61 52.8466 64.888 52.8213C65.646 52.7203 66.4041 52.556 67.1369 52.3286C68.4634 51.9243 69.6131 51.2294 70.586 50.2187L70.5986 50.2061V50.2313C71.0408 51.4695 72.2284 52.3665 73.6182 52.3791H76.4735V41.3243C74.6921 41.7791 73.0244 42.5372 71.5335 43.5353C71.5083 43.5605 71.4704 43.5732 71.4451 43.5984C70.7249 44.1038 70.2069 44.8997 70.0932 45.822C70.1059 45.7589 70.1059 45.6957 70.1185 45.6325C70.0174 46.0242 69.8532 46.4032 69.6384 46.7949C69.3226 47.3634 68.8298 47.8435 68.1602 48.2478C67.7433 48.5005 67.2127 48.6773 66.5683 48.7658C66.3788 48.791 66.1893 48.8163 65.9745 48.829C65.7597 48.8416 65.545 48.8542 65.3176 48.8542H65.3049C65.2038 48.8542 65.0901 48.8542 64.9891 48.8416C64.9259 48.8416 64.8501 48.8416 64.7869 48.829H64.7743C64.7237 48.829 64.6732 48.829 64.6353 48.8163C64.5848 48.8163 64.5469 48.8037 64.4963 48.8037C64.4205 48.791 64.3447 48.7784 64.2563 48.7784C64.1931 48.7658 64.1426 48.7658 64.0794 48.7531C64.0162 48.7405 63.9657 48.7405 63.9025 48.7279C63.4351 48.6394 63.0308 48.4878 62.6897 48.2731C62.3485 48.0583 62.0706 47.7551 61.8684 47.3887C61.6663 47.0096 61.5652 46.5548 61.5652 45.9989C61.5652 45.4177 61.6663 44.9503 61.8684 44.5713C62.0832 44.2554 62.3485 43.9396 62.6897 43.6995Z" fill="#33CCFF"/>
<path d="M135.273 43.611C135.247 43.6363 135.209 43.6489 135.184 43.6742C134.527 44.129 134.047 44.8239 133.87 45.6451L133.858 45.7083C133.858 45.7335 133.845 45.7462 133.845 45.7714C133.832 45.8093 133.82 45.8472 133.807 45.8851C133.756 46.062 133.681 46.2515 133.605 46.4284C133.605 46.441 133.592 46.441 133.592 46.4537C133.529 46.5926 133.466 46.7316 133.39 46.8706C133.074 47.4391 132.581 47.9192 131.912 48.3235C131.495 48.5762 130.964 48.7531 130.32 48.8415C130.13 48.8668 129.941 48.892 129.726 48.9047C129.511 48.9173 129.297 48.9299 129.069 48.9299H129.057C128.956 48.9299 128.842 48.9299 128.741 48.9173C128.678 48.9173 128.602 48.9173 128.539 48.9047H128.526C128.475 48.9047 128.425 48.9047 128.387 48.892C128.336 48.892 128.299 48.8794 128.248 48.8794C128.172 48.8668 128.096 48.8541 128.008 48.8541C127.945 48.8415 127.894 48.8415 127.831 48.8289C127.768 48.8162 127.717 48.8162 127.654 48.8036C127.616 48.8036 127.591 48.791 127.553 48.7783C127.465 50.5597 126.429 52.0885 124.938 52.8592C125.431 52.935 125.936 52.9855 126.454 52.9981H126.757C127.022 52.9981 127.275 52.9855 127.54 52.9729C127.629 52.9729 127.717 52.9602 127.806 52.9602C128.071 52.935 128.336 52.9097 128.614 52.8718C129.372 52.7707 130.13 52.6065 130.863 52.3791C132.19 51.9748 133.34 51.2799 134.312 50.2692L134.325 50.2565V50.2818C134.515 50.7998 134.83 51.2673 135.247 51.621C135.26 51.6336 135.273 51.6463 135.298 51.6589C135.323 51.6842 135.348 51.6968 135.374 51.7094C135.412 51.7474 135.449 51.7726 135.5 51.7979C135.5 51.7979 135.513 51.7979 135.513 51.8105C136.043 52.1895 136.675 52.4043 137.37 52.4043H140.212V41.3748C138.418 41.8549 136.763 42.6129 135.273 43.611Z" fill="#33CCFF"/>
</svg>
