<svg width="173" height="28" viewBox="0 0 173 28" fill="none" xmlns="http://www.w3.org/2000/svg">
<g clip-path="url(#clip0)">
<path d="M40.2976 13.7984C40.2976 17.206 42.8463 19.4796 45.9362 19.4796C47.6129 19.4832 49.2575 19.0207 50.686 18.144V21.4536C50.0439 21.8512 48.1148 22.5736 45.9614 22.5736C40.9368 22.5652 36.9581 18.76 36.9581 13.7984C36.9581 8.8368 40.9368 5.04 45.9614 5.04C48.1148 5.04 50.0439 5.7568 50.686 6.16V9.45C49.2563 8.57659 47.6121 8.1162 45.9362 8.12C42.8463 8.12 40.2976 10.3908 40.2976 13.7984ZM65.4709 14V22.3188H62.3866V14.9828C62.3866 13.5268 61.7417 12.4404 60.0846 12.4404C58.478 12.4404 57.5387 13.4512 57.5387 15.2796V22.3188H54.4544V4.2896H57.5387V12.0204C57.7602 11.4604 58.6266 9.7216 61.223 9.7216C63.8895 9.7216 65.4709 11.3036 65.4709 14ZM82.2409 19.726V22.3188H78.2594C78.1947 22.3227 78.1298 22.3131 78.0689 22.2907C78.0081 22.2682 77.9525 22.2334 77.9059 22.1883C77.8592 22.1433 77.8224 22.0891 77.7979 22.0291C77.7733 21.9692 77.7615 21.9048 77.7631 21.84V19.628C77.3425 21.084 76.207 22.5652 73.8377 22.5652C70.6216 22.5652 68.2972 20.1712 68.2972 16.1448C68.2972 12.068 70.8431 9.7216 74.0087 9.7216C76.9276 9.7216 77.522 12.1184 77.522 12.1184V9.9708H80.6063V19.726H82.2409ZM77.6145 16.17C77.6145 13.8488 76.493 12.39 74.648 12.39C72.8675 12.39 71.5077 13.7004 71.5077 16.1448C71.5077 18.5892 72.6292 19.8996 74.4994 19.8996C76.4033 19.8996 77.6145 18.6648 77.6145 16.17ZM89.3208 10.4636V22.3188H86.2365V12.5636H83.9934V9.9708H88.8385C88.9033 9.96876 88.9679 9.98021 89.0281 10.0044C89.0883 10.0286 89.1427 10.065 89.1881 10.1113C89.2334 10.1577 89.2686 10.2129 89.2915 10.2736C89.3143 10.3342 89.3243 10.3989 89.3208 10.4636ZM89.2226 7.4004H85.8832V4.2896H89.2226V7.4004ZM92.9238 9.9708H95.966V12.1688C96.0669 11.8468 96.8071 9.7216 99.7008 9.7216C102.373 9.7216 103.957 11.3036 103.957 13.9944V22.3188H100.873V14.9828C100.873 13.5268 100.231 12.4404 98.5736 12.4404C96.9642 12.4404 96.0249 13.4512 96.0249 15.2796V22.3188H92.9406L92.9238 9.9708ZM120.724 19.726V22.3188H116.743C116.678 22.3227 116.613 22.3131 116.552 22.2907C116.491 22.2682 116.436 22.2334 116.389 22.1883C116.343 22.1433 116.306 22.0891 116.281 22.0291C116.257 21.9692 116.245 21.9048 116.247 21.84V19.628C115.826 21.084 114.69 22.5652 112.321 22.5652C109.105 22.5652 106.781 20.1712 106.781 16.1448C106.781 12.068 109.327 9.7216 112.495 9.7216C115.414 9.7216 116.005 12.1184 116.005 12.1184V9.9708H119.09V19.726H120.724ZM116.098 16.17C116.098 13.8488 114.976 12.39 113.131 12.39C111.351 12.39 109.991 13.7004 109.991 16.1448C109.991 18.5892 111.127 19.8996 112.997 19.8996C114.887 19.8996 116.098 18.6648 116.098 16.17ZM127.033 5.04V22.3188H123.932V6.8824H122.003V4.2896H126.282C126.381 4.28847 126.479 4.30711 126.571 4.34443C126.662 4.38174 126.745 4.43697 126.815 4.50688C126.886 4.57678 126.941 4.65996 126.978 4.75151C127.016 4.84306 127.034 4.94114 127.033 5.04ZM132.588 28H129.503V25.4072H131.783C132.599 25.4072 132.972 25.1608 133.266 24.4188L134.183 22.0976L129.422 9.9708H132.86L135.753 18.6872L138.748 9.9708H142.185L136.101 25.6032C135.459 27.258 134.393 28 132.588 28ZM143.898 21.5292V18.5416C144.319 18.8216 146.024 19.9416 147.93 19.9416C149.388 19.9416 150.031 19.5216 150.031 18.7068C150.031 16.2624 143.725 18.0656 143.725 13.4232C143.725 11.3232 145.505 9.716 148.772 9.716C150.575 9.716 151.856 10.1864 152.358 10.4832V13.44C151.738 13.0424 150.502 12.2528 148.819 12.2528C147.361 12.2528 146.817 12.698 146.817 13.3896C146.817 15.3888 153.098 14.0056 153.098 18.5528C153.098 21.0224 151.046 22.5764 148.051 22.5764C146.083 22.5652 144.468 21.8988 143.898 21.5292ZM160.495 10.4636V22.3188H157.41V12.5636H155.167V9.9708H160.015C160.08 9.96873 160.144 9.98018 160.204 10.0044C160.264 10.0286 160.319 10.0651 160.364 10.1115C160.409 10.1578 160.444 10.2131 160.467 10.2738C160.489 10.3344 160.499 10.399 160.495 10.4636ZM160.397 7.4004H157.057V4.2896H160.397V7.4004ZM163.8 21.5292V18.5416C164.218 18.8216 165.926 19.9416 167.83 19.9416C169.29 19.9416 169.933 19.5216 169.933 18.7068C169.933 16.2624 163.627 18.0656 163.627 13.4232C163.627 11.3232 165.407 9.716 168.674 9.716C170.479 9.716 171.758 10.1864 172.26 10.4832V13.44C171.225 12.7028 169.995 12.2896 168.724 12.2528C167.263 12.2528 166.719 12.698 166.719 13.3896C166.719 15.3888 173.003 14.0056 173.003 18.5528C173.003 21.0224 170.95 22.5764 167.956 22.5764C165.99 22.5652 164.367 21.8988 163.8 21.5292Z" fill="#FF5300"/>
<path d="M14.0205 0C14.3345 0 14.6906 0.0392 14.6906 0.0392C13.637 1.30112 13.0021 2.8588 12.8737 4.4968C10.8885 4.82844 9.06086 5.78336 7.65613 7.2229C6.25139 8.66243 5.34273 10.5116 5.06208 12.502C3.24796 12.698 1.19552 13.5268 0.0150775 14.7112C-0.265311 6.5856 5.97054 0 14.0205 0ZM16.0393 24.4104C15.668 24.4652 15.2931 24.4923 14.9178 24.4916C14.2699 24.4839 13.6234 24.4305 12.9831 24.332C12.4828 25.5349 11.8226 26.665 11.0203 27.692C8.50389 27.1378 6.18907 25.9017 4.33018 24.1195C2.4713 22.3373 1.14028 20.0779 0.483327 17.5896C1.74788 16.0916 4.66953 15.2236 6.48365 15.2236C10.353 15.2236 12.4055 17.2732 13.1177 20.468C10.7876 19.838 9.4053 18.536 8.49684 16.604C7.96594 16.4115 7.40451 16.3166 6.83975 16.324C6.33013 16.3219 5.82354 16.4023 5.33966 16.562C6.36589 20.468 10.1567 23.3856 14.7748 23.3856C19.0395 23.3856 20.8536 21.2184 20.8536 21.2184V17.9032C20.8536 17.9032 18.7619 20.0732 16.1571 20.5072C15.864 18.482 14.9205 16.6065 13.4682 15.1628C12.016 13.7192 10.1337 12.7854 8.1043 12.502C8.77443 9.1896 11.3007 7.336 14.7355 7.336C18.1703 7.336 20.9349 9.8196 20.9349 9.8196V6.5464C20.9349 6.5464 19.1572 4.8888 16.0001 4.536C16.0786 3.08 17.0263 1.2628 18.0525 0.5908C22.3537 1.932 26.5006 5.5608 27.6839 10.8444C27.6839 10.8444 25.7884 12.7372 22.2359 12.7372C19.3143 12.7372 17.4693 11.2784 16.4319 8.7164C15.8876 8.52282 15.3131 8.42799 14.7355 8.4364C14.1964 8.4305 13.661 8.52547 13.1569 8.7164C14.3009 12.8184 17.9235 15.5764 21.9611 15.5764C25.909 15.5764 28.04 13.7648 28.04 13.7648C28.04 21.966 21.762 27.8432 14.3009 28C15.1701 27.16 15.8402 25.3176 16.0393 24.4104Z" fill="#FF5300"/>
</g>
<defs>
<clipPath id="clip0">
<rect width="173" height="28" fill="white"/>
</clipPath>
</defs>
</svg>
