<svg width="165" height="75" viewBox="0 0 165 75" fill="none" xmlns="http://www.w3.org/2000/svg">
<path d="M22.6417 46.9099C21.1514 46.5153 20.087 45.9066 18.9154 44.7793C17.5972 43.5109 16.6274 41.8678 16.1644 40.1184C15.8445 38.9102 15.8435 36.9273 16.162 35.7358C16.6479 33.9186 17.6303 32.2858 19.0167 30.9911C20.0165 30.0575 21.0024 29.456 22.2431 29.0233C23.5335 28.5731 25.2286 28.4962 26.541 28.828C27.7253 29.1275 28.7824 29.6641 29.8139 30.4894C30.8007 31.2787 31.9147 32.61 31.8666 32.9417C31.8444 33.095 31.4238 33.4181 30.4984 33.9928C29.7635 34.4491 29.0901 34.8214 29.0019 34.8199C28.9137 34.8184 28.6732 34.5775 28.4674 34.2846C27.7045 33.1979 26.4952 32.4959 25.221 32.3996C23.8376 32.2949 22.6005 32.7328 21.5339 33.7048C19.1876 35.8429 19.0653 39.2876 21.2518 41.6493C22.3079 42.7901 23.5417 43.3786 24.8766 43.3786C26.2158 43.3786 27.5409 42.7024 28.3136 41.6248C28.5452 41.3016 28.8068 41.0365 28.895 41.0357C28.9832 41.0348 29.6806 41.4327 30.4449 41.9199C31.4202 42.5415 31.8446 42.8736 31.8679 43.0329C31.9174 43.3691 30.4387 44.8653 29.3122 45.6187C28.3042 46.293 27.0726 46.8187 26.0693 47.0031C25.1 47.1815 23.5029 47.1379 22.6417 46.9099ZM141.132 47.0167C140.188 46.8794 138.893 46.4984 138.418 46.219C138.177 46.0768 137.699 45.8041 137.357 45.6129C136.518 45.144 135.253 43.9657 135.253 43.6536C135.253 43.3155 136.829 41.1267 137.244 40.8872C137.35 40.8264 137.655 41.0502 138.274 41.6413C138.759 42.1036 139.371 42.5796 139.636 42.6992C141.305 43.4536 141.225 43.4319 142.353 43.4319C143.361 43.4319 143.469 43.4104 144.019 43.1004C144.746 42.6902 145.087 42.2183 145.087 41.6238C145.087 40.6278 144.389 40.1475 142.041 39.529C140.285 39.0663 138.89 38.6082 138.551 38.3827C136.979 37.3367 136.703 37.075 136.276 36.2283C135.614 34.9139 135.651 33.1761 136.369 31.8705C136.743 31.1897 136.977 30.9335 137.872 30.2203C138.844 29.4462 138.95 29.3944 140.277 29.0388C141.797 28.6316 142.656 28.6364 144.293 29.0612C145.946 29.4904 146.078 29.5516 147.188 30.3975C148.333 31.2705 148.829 31.7248 148.829 31.903C148.829 31.9767 148.576 32.3343 148.268 32.6979C147.959 33.0615 147.572 33.533 147.407 33.7456C146.905 34.3963 146.697 34.6134 146.578 34.6134C146.516 34.6134 146.27 34.3996 146.032 34.1383C145.667 33.7376 144.47 32.9031 144.26 32.9031C144.224 32.9031 144.12 32.8377 144.027 32.7578C143.624 32.4111 141.853 32.2436 141.026 32.4739C140.82 32.531 140.423 32.7877 140.144 33.0441C139.7 33.4515 139.636 33.5645 139.636 33.9385C139.636 34.2126 139.703 34.4252 139.823 34.5297C140.237 34.8913 141.63 35.4813 142.764 35.7756C144.376 36.1939 145.728 36.674 146.438 37.08C147.304 37.5755 148.232 38.5848 148.691 39.5305C149.06 40.2909 149.08 40.387 149.077 41.4011C149.075 42.1864 149.027 42.5551 148.899 42.7907C148.802 42.9671 148.723 43.1836 148.722 43.2717C148.719 43.7252 147.58 45.0888 146.589 45.8256C145.33 46.7618 142.95 47.2812 141.133 47.0167H141.132ZM90.497 46.5079C90.3256 46.286 89.1376 44.6238 87.8567 42.8141L85.528 39.524L82.9296 39.5839L82.8227 46.7458L81.7538 46.7753C81.1659 46.7917 80.3482 46.7676 79.9366 46.7219L79.1884 46.6389L79.0815 39.5839H75.2333L75.1264 46.6389L73.3769 46.6683C72.1775 46.6885 71.581 46.6591 71.4796 46.5749C71.356 46.4723 71.3318 45.0462 71.3318 37.8735C71.3318 30.701 71.356 29.2746 71.4796 29.1721C71.581 29.0881 72.1775 29.0587 73.3769 29.0789L75.1264 29.1083L75.2333 35.7356L79.1319 35.7939L79.1884 29.1084L82.4446 29.0495L82.9229 29.667C83.186 30.0065 84.3294 31.5591 85.464 33.1171L87.5267 35.9498L90.0382 36.0099V32.6524C90.0382 29.9265 90.0659 29.272 90.1858 29.1724C90.2875 29.0881 90.9115 29.059 92.19 29.0792L94.0466 29.1084L94.1535 35.9496H98.0017L98.0299 32.6449C98.0489 30.4242 98.097 29.2935 98.1767 29.1976C98.2718 29.0832 99.1169 29.055 102.456 29.055C107.68 29.055 108.088 29.1226 109.355 30.1961C109.662 30.4558 110.141 30.9667 110.421 31.3315C111.585 32.8494 111.596 35.0709 110.449 36.5809C110.187 36.9248 109.908 37.2963 109.827 37.4063C109.695 37.586 109.733 37.6676 110.201 38.2054C110.93 39.0435 111.036 39.1991 111.252 39.7443C111.638 40.7157 111.574 42.9851 111.138 43.8293C110.888 44.3113 109.858 45.4034 109.255 45.8246C108.605 46.2784 108.272 46.4204 107.483 46.5787C106.824 46.711 98.3948 46.7351 98.1902 46.6051C98.0905 46.542 98.0511 45.6536 98.0299 42.9992L98.0017 39.477H94.1535L94.0466 46.8526L90.8086 46.9116L90.497 46.5079ZM106.818 42.86C107.343 42.5789 107.59 42.1943 107.651 41.5675C107.728 40.7593 107.457 40.1338 106.882 39.7969C106.434 39.5347 106.39 39.5305 104.058 39.5305H101.689V43.058H104.069C106.181 43.058 106.491 43.0357 106.818 42.86H106.818ZM106.55 35.7891C106.987 35.5683 107.351 34.8893 107.351 34.2929C107.351 33.6678 107.19 33.3663 106.621 32.9327L106.157 32.5783L101.743 32.6361L101.713 34.181C101.696 35.0308 101.709 35.7926 101.74 35.8739C101.824 36.0941 106.095 36.0187 106.55 35.7891ZM34.6709 46.4855C34.5972 46.3481 34.5601 43.4631 34.5601 37.8737C34.5601 32.2842 34.5972 29.3992 34.6709 29.2618C34.7732 29.0702 34.9107 29.055 36.5376 29.055C38.1644 29.055 38.302 29.0702 38.4044 29.2618C38.4734 29.3907 38.515 30.6382 38.515 32.5754V35.6824H45.6768V32.5754C45.6768 30.6382 45.7186 29.3907 45.7875 29.2618C45.8899 29.0702 46.0274 29.055 47.6543 29.055C49.2811 29.055 49.4187 29.0702 49.5211 29.2618C49.6955 29.5876 49.6726 46.2744 49.4974 46.5149C49.3786 46.6773 49.1705 46.6952 47.7069 46.6691L46.0508 46.6394L45.9439 39.3707L38.5148 39.3144V42.7967C38.5148 44.9929 38.4741 46.3556 38.4043 46.4859C38.3017 46.6774 38.1643 46.6926 36.5375 46.6926C34.9105 46.6926 34.7731 46.6774 34.6707 46.4859L34.6709 46.4855ZM114.159 46.621C114.12 46.5819 114.088 42.6426 114.088 37.8671C114.088 30.0484 114.105 29.1781 114.257 29.1198C114.35 29.0842 115.142 29.055 116.017 29.055C117.48 29.055 117.616 29.0715 117.718 29.2618C117.792 29.3992 117.829 32.2842 117.829 37.8737C117.829 43.4631 117.792 46.3481 117.718 46.4855C117.616 46.6766 117.479 46.6923 115.919 46.6923C114.99 46.6923 114.198 46.6602 114.159 46.621ZM125.653 46.564C125.556 46.467 125.525 44.754 125.525 39.5091V32.5825H123.142C121.43 32.5825 120.722 32.5464 120.63 32.4542C120.451 32.2755 120.451 29.362 120.63 29.1833C120.727 29.0862 122.379 29.055 127.413 29.055C133.884 29.055 134.072 29.0608 134.18 29.2618C134.342 29.5656 134.323 32.1768 134.157 32.4006C134.04 32.5581 133.726 32.5838 131.618 32.608L129.213 32.6359L129.193 39.516C129.182 43.3 129.147 46.4627 129.116 46.5442C129.04 46.7431 125.851 46.7615 125.653 46.564H125.653ZM51.7371 46.4419C51.6849 46.3057 52.9246 43.1167 57.0215 32.8499L58.5569 29.0017H62.3893L65.7917 37.5531C67.663 42.2564 69.1817 46.2008 69.1667 46.3184C69.1405 46.5231 69.0588 46.5321 67.2152 46.5321H65.2911L63.6961 43.2719H57.2204L56.7143 44.3676C56.4361 44.9702 56.0875 45.7037 55.9397 45.9977L55.671 46.5321L53.7325 46.5612C52.1582 46.5848 51.7834 46.5624 51.7371 46.4419ZM62.383 39.5574C62.4426 39.4483 60.5185 34.487 60.4451 34.5605C60.3225 34.6829 58.5252 39.4792 58.5728 39.5564C58.6379 39.6618 62.3252 39.6628 62.3828 39.5574H62.383Z" fill="#84859B"/>
<path d="M23.3114 46.7964C19.3101 46.1226 16.1748 42.1968 16.1748 37.8605C16.1748 33.8268 19.1217 30.0341 23.0236 29.0461C23.7674 28.8579 25.6766 28.8567 26.4365 29.0443C27.2188 29.2372 28.4018 29.7852 29.1753 30.3128C29.9859 30.8657 31.6743 32.6356 31.6743 32.9324C31.6743 33.0085 29.1716 34.5074 29.0444 34.5074C28.9822 34.5074 28.7773 34.2927 28.5889 34.0305C27.5941 32.6453 25.8244 31.8958 24.1569 32.1534C21.4121 32.5773 19.2141 35.3328 19.4147 38.0983C19.6525 41.3797 22.6929 44.0948 25.5687 43.5941C26.7321 43.3913 27.9686 42.6302 28.5423 41.7632C28.6933 41.5351 28.8678 41.3485 28.9305 41.3485C29.098 41.3485 31.6744 42.9838 31.6744 43.0902C31.6744 43.2878 29.8648 44.967 29.124 45.4567C27.378 46.611 25.1966 47.1139 23.3114 46.7965V46.7964ZM88.2788 42.9813C86.8256 40.9366 85.3531 38.8789 85.0068 38.4086C84.6604 37.9383 84.0584 37.0845 83.6693 36.5113C83.2801 35.9381 82.8948 35.4691 82.8128 35.4691C82.6875 35.4691 82.6593 36.3548 82.6361 41.0008L82.6083 46.5325L81.0584 46.4944C80.2059 46.4733 79.472 46.4226 79.4276 46.3815C79.3832 46.3404 79.3591 42.4854 79.3742 37.8147L79.4016 29.3227L80.6843 29.2917C81.3898 29.2748 82.069 29.2861 82.1936 29.317C82.3371 29.3526 83.1998 30.4431 84.5431 32.2875C85.7107 33.8904 87.245 35.9715 87.9528 36.9121C88.6607 37.8528 89.4034 38.8749 89.6031 39.1836C89.9838 39.7715 90.233 39.8911 90.3272 39.531C90.3801 39.3282 90.4728 39.3172 92.1358 39.3172H93.8885L93.8603 42.9783L93.8323 46.6394L90.9211 46.6987L88.2788 42.9813ZM34.931 46.3484C34.9023 46.2734 34.8914 42.4119 34.9064 37.7674L34.9342 29.3229H38.1409L38.1693 32.5207C38.1882 34.6622 38.2366 35.7655 38.316 35.8611C38.4898 36.0705 45.7021 36.0705 45.876 35.8611C45.9553 35.7655 46.0037 34.6622 46.0226 32.5207L46.051 29.3229H49.2578V46.4257H46.2648L46.1579 39.157L42.2296 39.129C40.069 39.1136 38.2909 39.1136 38.2781 39.129C38.2654 39.1443 38.2293 40.7925 38.1979 42.7914L38.1409 46.4257L36.5619 46.4553C35.3577 46.4779 34.9707 46.4526 34.931 46.3484ZM71.7021 46.3484C71.6734 46.2734 71.6625 42.4119 71.6776 37.7674L71.7053 29.3229H74.9121V46.4257L73.3331 46.4553C72.1288 46.4779 71.7419 46.4525 71.7021 46.3484ZM52.0505 46.2859C51.9929 46.1929 58.5568 29.5405 58.7475 29.2967C58.8806 29.126 62.0904 29.1048 62.195 29.274C62.3832 29.5784 68.9491 46.2231 68.9084 46.2933C68.8466 46.3975 65.6521 46.395 65.4883 46.2908C65.4197 46.247 65.0652 45.5622 64.7008 44.7692C64.3364 43.9761 63.9424 43.2428 63.8251 43.14C63.6324 42.9708 63.3077 42.9529 60.4212 42.9529C58.0011 42.9529 57.2003 42.9853 57.1052 43.087C57.0364 43.1607 56.6377 43.9183 56.2192 44.7706L55.4582 46.32L53.7827 46.3494C52.8613 46.3656 52.0816 46.3377 52.0505 46.2873V46.2859ZM62.6379 39.6836C62.6997 39.5228 60.8393 34.4933 60.613 34.2096C60.5529 34.1342 60.456 34.0883 60.3977 34.1078C60.2485 34.1575 58.195 39.5422 58.2603 39.7124C58.3019 39.8206 58.7901 39.8518 60.4436 39.8518C62.2818 39.8518 62.5821 39.8288 62.6379 39.6838V39.6836ZM90.3833 32.6633L90.4115 29.3229H93.8321L93.8603 32.6633L93.8885 36.0037H90.3551L90.3833 32.6633Z" fill="#090928"/>
</svg>
