<svg width="64" height="64" xmlns="http://www.w3.org/2000/svg">

 <g>
  <title>background</title>
  <rect fill="none" id="canvas_background" height="402" width="582" y="-1" x="-1"/>
 </g>
 <g>
  <title>Layer 1</title>
  <path fill="#dadee7" id="svg_2" d="m20,43c-3.86,0 -7,3.14 -7,7s3.14,7 7,7s7,-3.14 7,-7s-3.14,-7 -7,-7zm0,12c-2.757,0 -5,-2.243 -5,-5s2.243,-5 5,-5s5,2.243 5,5s-2.243,5 -5,5z"/>
  <path fill="#547cec" id="svg_3" d="m20,47c-1.654,0 -3,1.346 -3,3s1.346,3 3,3s3,-1.346 3,-3s-1.346,-3 -3,-3zm0,4c-0.551,0 -1,-0.449 -1,-1s0.449,-1 1,-1s1,0.449 1,1s-0.449,1 -1,1z"/>
  <path fill="#0436ed" id="svg_4" d="m63,5.764l-2.382,-4.764l-29.236,0l-2.382,4.764l0,20.634c-2.152,-3.258 -5.839,-5.398 -10,-5.398c-5.958,0 -10.902,4.263 -11.837,10.05c-3.467,0.415 -6.163,3.374 -6.163,6.95c0,3.86 3.14,7 7,7l1.959,0c0.041,0.203 0.044,0.408 -0.036,0.595c-0.056,0.129 -0.11,0.26 -0.161,0.39c-0.108,0.28 -0.345,0.497 -0.648,0.596c-1.264,0.416 -2.114,1.59 -2.114,2.921l0,0.996c0,1.331 0.85,2.505 2.116,2.921c0.302,0.099 0.538,0.316 0.646,0.594c0.051,0.132 0.104,0.263 0.161,0.393c0.118,0.273 0.104,0.591 -0.038,0.873c-0.601,1.188 -0.372,2.62 0.57,3.561l0.704,0.705c0.942,0.941 2.373,1.171 3.561,0.57c0.282,-0.144 0.599,-0.157 0.874,-0.038c0.129,0.056 0.26,0.11 0.39,0.161c0.28,0.108 0.497,0.345 0.596,0.648c0.417,1.264 1.591,2.114 2.922,2.114l0.996,0c1.331,0 2.505,-0.85 2.921,-2.116c0.099,-0.302 0.316,-0.538 0.594,-0.646c0.132,-0.051 0.263,-0.104 0.393,-0.161c0.273,-0.119 0.592,-0.104 0.873,0.038c1.188,0.601 2.619,0.371 3.561,-0.57l0.705,-0.704c0.942,-0.941 1.171,-2.373 0.57,-3.561c-0.143,-0.282 -0.156,-0.6 -0.038,-0.874c0.056,-0.129 0.11,-0.26 0.161,-0.39c0.108,-0.28 0.345,-0.497 0.648,-0.596c0.3,-0.099 0.575,-0.243 0.822,-0.419l31.292,0l0,-47.237zm-24.08,31.236c-0.488,-3.387 -3.401,-6 -6.92,-6c-0.335,0 -0.668,0.037 -1,0.086l0,-0.086l1,0l29,0l0,6l-22.08,0zm-7.92,-8l0,-6l30,0l0,6l-30,0zm0,-8l0,-6l30,0l0,6l-30,0zm0,-8l0,-6l30,0l0,6l-30,0zm28.382,-10l1,2l-28.764,0l1,-2l26.764,0zm-56.382,35c0,-2.757 2.243,-5 4.95,-5.001l1.015,0.004l0.082,-0.91c0.466,-5.184 4.745,-9.093 9.953,-9.093c5.286,0 9.665,4.137 9.969,9.418l0.077,1.337l1.261,-0.454c0.554,-0.2 1.124,-0.301 1.693,-0.301c2.757,0 5,2.243 5,5s-2.243,5 -5,5l-1.58,0c-0.074,-0.679 -0.367,-1.332 -0.876,-1.84l-0.704,-0.704c-0.942,-0.942 -2.373,-1.171 -3.561,-0.57c-0.281,0.143 -0.599,0.157 -0.874,0.038c-0.128,-0.056 -0.259,-0.109 -0.39,-0.161c-0.279,-0.108 -0.497,-0.345 -0.596,-0.648c-0.416,-1.265 -1.59,-2.115 -2.921,-2.115l-0.996,0c-1.331,0 -2.505,0.85 -2.921,2.116c-0.099,0.302 -0.316,0.538 -0.596,0.646c-0.131,0.051 -0.261,0.104 -0.391,0.161c-0.273,0.118 -0.591,0.105 -0.873,-0.038c-1.188,-0.601 -2.619,-0.372 -3.561,0.57l-0.704,0.704c-0.509,0.509 -0.802,1.162 -0.876,1.841l-1.58,0c-2.757,0 -5,-2.243 -5,-5zm28,12.498c0,0.465 -0.297,0.875 -0.74,1.021c-0.872,0.286 -1.56,0.932 -1.886,1.772c-0.042,0.107 -0.086,0.214 -0.131,0.318c-0.356,0.82 -0.325,1.757 0.087,2.572c0.21,0.415 0.13,0.915 -0.199,1.244l-0.705,0.705c-0.329,0.329 -0.83,0.409 -1.244,0.199c-0.814,-0.412 -1.752,-0.443 -2.571,-0.087c-0.105,0.045 -0.212,0.089 -0.321,0.132c-0.839,0.326 -1.484,1.014 -1.771,1.887c-0.145,0.442 -0.556,0.739 -1.021,0.739l-0.996,0c-0.465,0 -0.875,-0.297 -1.021,-0.74c-0.286,-0.872 -0.932,-1.56 -1.772,-1.886c-0.107,-0.042 -0.214,-0.086 -0.318,-0.131c-0.378,-0.165 -0.781,-0.247 -1.186,-0.247c-0.473,0 -0.947,0.112 -1.386,0.333c-0.416,0.209 -0.916,0.13 -1.244,-0.199l-0.705,-0.705c-0.329,-0.329 -0.409,-0.829 -0.199,-1.244c0.412,-0.815 0.443,-1.752 0.087,-2.571c-0.045,-0.105 -0.089,-0.212 -0.132,-0.321c-0.326,-0.839 -1.014,-1.484 -1.887,-1.771c-0.442,-0.144 -0.739,-0.555 -0.739,-1.02l0,-0.996c0,-0.465 0.297,-0.875 0.739,-1.021c0.873,-0.286 1.561,-0.932 1.887,-1.772c0.042,-0.107 0.086,-0.214 0.131,-0.318c0.356,-0.82 0.325,-1.757 -0.087,-2.572c-0.21,-0.415 -0.13,-0.916 0.199,-1.245l0.704,-0.704c0.329,-0.33 0.829,-0.411 1.245,-0.199c0.815,0.412 1.754,0.443 2.571,0.087c0.106,-0.046 0.213,-0.09 0.32,-0.131c0.839,-0.327 1.485,-1.015 1.772,-1.887c0.145,-0.443 0.556,-0.74 1.021,-0.74l0.996,0c0.465,0 0.875,0.297 1.021,0.74c0.287,0.872 0.932,1.56 1.771,1.886c0.107,0.042 0.214,0.086 0.319,0.131c0.819,0.356 1.757,0.324 2.572,-0.087c0.414,-0.211 0.915,-0.13 1.245,0.199l0.704,0.704c0.329,0.329 0.409,0.83 0.199,1.245c-0.412,0.815 -0.443,1.752 -0.087,2.571c0.045,0.105 0.089,0.212 0.132,0.321c0.326,0.839 1.014,1.484 1.887,1.771c0.442,0.145 0.739,0.556 0.739,1.021l0,0.996zm1.958,0.502c0.027,-0.164 0.042,-0.332 0.042,-0.502l0,-0.996c0,-1.331 -0.85,-2.505 -2.116,-2.921c-0.302,-0.099 -0.538,-0.316 -0.646,-0.594c-0.051,-0.132 -0.104,-0.263 -0.161,-0.393c-0.081,-0.186 -0.077,-0.391 -0.036,-0.594l1.959,0c3.519,0 6.432,-2.613 6.92,-6l22.08,0l0,12l-28.042,0z"/>
  <circle fill="#547cec" id="svg_5" r="1" cy="10" cx="34"/>
  <circle fill="#dadee7" id="svg_6" r="1" cy="10" cx="38"/>
  <circle fill="#0436ed" id="svg_7" r="1" cy="9.952832" cx="42"/>
  <circle fill="#dadee7" id="svg_8" r="1" cy="18" cx="58.094336"/>
  <circle fill="#0436ed" id="svg_9" r="1" cy="18" cx="54"/>
  <circle fill="#547cec" id="svg_10" r="1" cy="18" cx="50"/>
  <circle fill="#547cec" id="svg_11" r="1" cy="26" cx="34"/>
  <circle fill="#0436ed" id="svg_12" r="1" cy="26" cx="38"/>
  <circle fill="#dadee7" id="svg_13" r="1" cy="25.952832" cx="42"/>
  <circle fill="#0436ed" id="svg_14" r="1" cy="34" cx="58"/>
  <circle fill="#dadee7" id="svg_15" r="1" cy="34" cx="54"/>
  <circle fill="#547cec" id="svg_16" r="1" cy="34" cx="49.905664"/>
  <path fill="#547cec" id="svg_17" d="m51,49l8,0l0,-8l-8,0l0,8zm2,-6l4,0l0,4l-4,0l0,-4z"/>
  <path fill="#0436ed" id="svg_18" d="m41,49l8,0l0,-8l-8,0l0,8zm2,-6l4,0l0,4l-4,0l0,-4z"/>
  <polygon fill="#547cec" id="svg_19" points="6,6.303 6,19 8,19 8,6.303 10.168,9.555 11.832,8.445 7,1.197 2.168,8.445 3.832,9.555  "/>
  <polygon fill="#dadee7" id="svg_20" points="11.832,12.445 10.168,13.555 15,20.803 19.832,13.555 18.168,12.445 16,15.697 16,3 14,3 14,15.697  "/>
  <polygon fill="#547cec" id="svg_21" points="22,6.303 22,19 24,19 24,6.303 26.168,9.555 27.832,8.445 23,1.197 18.168,8.445 19.832,9.555  "/>
  <path fill="#547cec" id="svg_22" d="m19,27l0,-2c-4.411,0 -8,3.589 -8,8l2,0c0,-3.309 2.691,-6 6,-6z"/>
 </g>
</svg>