<svg width="165" height="75" viewBox="0 0 165 75" fill="none" xmlns="http://www.w3.org/2000/svg">
<path d="M38.6993 19.7973C38.6038 20.1601 38.5942 53.1515 38.6993 53.3998C38.7566 53.543 38.7948 53.5621 38.8902 53.4666C39.2531 53.1038 39.2531 20.3607 38.8902 19.7018C38.7852 19.5299 38.7757 19.5299 38.6993 19.7973Z" fill="#090928"/>
<path d="M8.85901 24.7055C8.47706 24.9633 8.30518 25.6031 8.30518 26.7203C8.30518 27.2933 8.34337 27.7803 8.39112 27.8089C8.42931 27.8376 12.4207 27.8757 17.2525 27.8853C24.5096 27.9044 26.0661 27.8853 26.1998 27.7803C26.4099 27.5988 26.4099 26.1283 26.1998 25.4503C25.9038 24.5145 26.8396 24.6005 17.3766 24.5814C10.4728 24.5718 9.01179 24.5909 8.85901 24.7055Z" fill="#090928"/>
<path d="M86.7493 28.5918C86.0331 28.7064 85.1642 29.308 84.744 29.9668C84.4194 30.4825 84.2952 30.9599 84.2284 31.9721L84.1711 32.8792L82.5478 32.9747L82.5191 33.3471C82.5 33.5477 82.5191 33.7482 82.5669 33.7959C82.6146 33.8437 82.9775 33.8819 83.3881 33.8914C84.0565 33.901 84.1329 33.9296 84.1806 34.111C84.1997 34.2161 84.2093 35.9444 84.1997 37.9401C84.1711 41.5305 84.1711 41.5783 83.961 41.7979C83.8178 41.9507 83.56 42.0557 83.1494 42.1321L82.5478 42.2371L82.4905 43.0392L85.2883 43.0679C86.8257 43.087 88.1625 43.0583 88.258 43.0202C88.6113 42.8578 88.3057 42.0271 87.9333 42.1417C87.6278 42.2371 86.7206 42.0844 86.501 41.8934C86.396 41.7979 86.2718 41.5783 86.2336 41.4064C86.1095 40.8621 86.1 34.302 86.2241 34.0729C86.3196 33.8914 86.396 33.8723 87.475 33.8914C88.1148 33.8914 88.6686 33.8628 88.7259 33.8055C88.7736 33.7577 88.8023 33.5477 88.7832 33.3471L88.7545 32.9747L87.6564 32.9556C87.0548 32.9365 86.4533 32.9079 86.3291 32.8697L86.1 32.8219L86.1668 31.6665C86.205 30.9408 86.2909 30.387 86.3769 30.196C86.8257 29.2507 88.3248 29.3175 88.4872 30.2915C88.5731 30.8262 88.8309 31.0554 89.2606 30.9695C89.6999 30.8931 90.1296 30.5875 90.2442 30.2819C90.3588 29.9668 90.2537 29.3462 90.0436 29.1552C89.5853 28.735 89.1556 28.6109 88.0861 28.5822C87.5132 28.5631 86.9116 28.5727 86.7493 28.5918Z" fill="#090928"/>
<path d="M24.9107 28.8495C24.6529 28.9737 24.1564 29.4034 23.7171 29.8617C23.3065 30.2914 22.4567 31.1508 21.8264 31.7619C20.0026 33.5476 19.8403 33.7195 19.697 34.0441C19.5538 34.407 19.5252 35.1136 19.6684 35.1327C19.7257 35.1422 19.8021 35.1518 19.8498 35.1613C20.0694 35.1804 26.0852 29.0405 26.047 28.8304C25.9993 28.5917 25.4168 28.6013 24.9107 28.8495Z" fill="#090928"/>
<path d="M28.4152 28.7064C28.3866 28.7637 28.2529 28.8305 28.1192 28.8592C27.9664 28.8974 26.2667 30.5207 23.8127 32.9748C19.7639 37.0139 19.7544 37.0235 19.6494 37.5391C19.5348 38.093 19.5825 38.3699 19.8021 38.3699C19.8785 38.3699 21.6355 36.6606 23.6981 34.579C25.7606 32.4973 27.8423 30.3966 28.3293 29.9287C28.8067 29.4512 29.2173 28.9738 29.2364 28.8687C29.2555 28.7064 29.2078 28.6778 28.864 28.6491C28.654 28.63 28.4439 28.6587 28.4152 28.7064Z" fill="#090928"/>
<path d="M31.4899 28.8019C31.0888 28.9261 30.3917 29.5945 25.4263 34.5504C20.3368 39.6304 19.7925 40.1937 19.6397 40.6425C19.4678 41.1009 19.4678 41.1582 19.6206 41.6738C19.7734 42.1895 19.888 42.3231 22.132 44.5767C23.4306 45.8753 24.6242 47.0021 24.7961 47.0976C25.1208 47.2599 26.2093 47.3172 26.2953 47.1644C26.3239 47.1167 25.0635 45.7894 23.4879 44.2138C21.9123 42.6383 20.6232 41.2919 20.6232 41.225C20.6232 41.1677 20.776 40.9768 20.9765 40.8144L21.3203 40.5089L24.5287 43.7173C26.2953 45.4743 27.8517 46.9925 27.995 47.088C28.4533 47.3745 29.5037 47.2599 29.5037 46.9257C29.5037 46.8493 27.8899 45.1878 25.9229 43.2207C23.9558 41.2441 22.342 39.5731 22.342 39.4871C22.342 39.4107 22.4853 39.2484 22.6571 39.1434L22.9723 38.9524L26.935 42.9152C29.1122 45.0923 31.0506 46.9639 31.2416 47.0689C31.5663 47.2313 31.805 47.2504 33.6957 47.2504H35.806L35.8633 47.0116C35.8919 46.878 35.8919 46.6201 35.8633 46.4387L35.7964 46.1045H34.0299C32.0341 46.1045 31.8814 46.0663 31.2798 45.4361L30.9169 45.0541L31.2893 45.0446C31.4899 45.035 32.5593 45.0159 33.6575 45.0159C34.7651 45.0064 35.72 44.9682 35.7869 44.93C35.9396 44.8345 35.9396 44.1852 35.7869 43.9751C35.6723 43.8319 35.3285 43.8128 32.6835 43.7937L29.7138 43.765L29.3509 43.4786C29.1599 43.3162 28.9594 43.0871 28.9212 42.9725L28.8448 42.7624H32.1869C34.3068 42.7624 35.5959 42.7242 35.72 42.6669C35.9205 42.5523 35.9683 42.0176 35.806 41.7025C35.7105 41.5306 35.5577 41.521 31.6904 41.521C27.8422 41.521 27.6608 41.5115 27.2502 41.3205C26.7918 41.12 26.4767 40.824 24.8056 39.0479L23.7744 37.9689L25.3786 36.3742C26.2571 35.4957 27.126 34.7031 27.3075 34.6172C27.5844 34.474 28.0809 34.4549 31.6522 34.4549C35.1662 34.4549 35.7009 34.4358 35.806 34.3116C35.9587 34.1302 35.9587 33.6814 35.806 33.414C35.7105 33.2135 35.6341 33.2135 32.3875 33.204C30.5636 33.204 28.9976 33.1658 28.9021 33.1371C28.7493 33.0703 28.7684 33.0321 29.0454 32.7743C29.6851 32.1727 29.7329 32.1631 32.8458 32.1631C34.9179 32.1631 35.7009 32.1345 35.7869 32.0485C35.9301 31.9053 35.9396 31.361 35.806 31.1032C35.7105 30.9313 35.5768 30.9218 33.371 30.9218C32.0819 30.9218 31.0315 30.8836 31.0315 30.8454C31.0315 30.8072 31.1748 30.6353 31.3466 30.473C31.996 29.8619 31.9673 29.8714 33.8962 29.8714C35.1471 29.8714 35.7105 29.8332 35.7869 29.7568C35.9874 29.5563 35.9301 28.9452 35.6914 28.7828C35.3858 28.5632 32.1487 28.5823 31.4899 28.8019Z" fill="#090928"/>
<path d="M66.3815 28.8497C65.99 29.0693 65.8372 29.394 65.8563 29.9956C65.8659 30.5972 65.9995 30.8263 66.477 31.0746C66.8208 31.256 67.069 31.2465 67.4987 31.0269C68.2817 30.6258 68.2626 29.203 67.4701 28.8688C67.0595 28.6969 66.6775 28.6874 66.3815 28.8497Z" fill="#090928"/>
<path d="M142.696 28.7922C142.581 28.8113 142.39 28.9354 142.266 29.0691C142.075 29.2697 142.037 29.4129 142.037 29.8999C142.037 30.5492 142.19 30.8548 142.61 31.0744C143.097 31.3227 143.718 31.1603 144.033 30.7115C144.205 30.4633 144.233 29.6325 144.09 29.2506C143.937 28.8591 143.345 28.6585 142.696 28.7922Z" fill="#090928"/>
<path d="M8.83035 29.1265C8.54388 29.2888 8.49614 29.3939 8.48659 29.9668C8.48659 30.2533 8.4484 30.6829 8.4102 30.9217C8.33381 31.4182 8.43885 31.8288 8.71576 32.1344L8.90674 32.354H19.4487L19.802 31.9911C20.0025 31.8002 20.4036 31.3132 20.6996 30.9217C20.9956 30.5302 21.2821 30.1578 21.3489 30.11C21.5399 29.9381 21.9601 29.2793 21.9601 29.1456C21.9601 29.031 20.881 29.0119 15.4955 29.0119C10.8452 29.0214 8.96403 29.0501 8.83035 29.1265Z" fill="#090928"/>
<path d="M47.6467 29.4513C46.9591 29.5372 45.8133 29.9287 45.4791 30.2056C45.4122 30.2534 45.1544 30.4443 44.8966 30.6258C43.9703 31.2751 43.2446 32.5069 42.8245 34.1684C42.5953 35.0374 42.5953 37.8256 42.8245 38.5609C42.9104 38.8474 43.025 39.2389 43.0727 39.4203C43.5884 41.1295 45.0685 42.6574 46.5963 43.0489C47.5989 43.3067 49.3177 43.3162 50.3203 43.0584C51.027 42.877 51.8673 42.3613 52.1633 41.9221C52.507 41.416 52.5357 40.8335 52.2492 40.5375L52.0487 40.337L51.533 40.824C50.8933 41.4256 50.349 41.6929 49.5564 41.798C48.4392 41.9412 47.4366 41.8266 46.8923 41.4828C46.1666 41.015 45.2594 39.8022 45.2594 39.3057C45.2594 39.2293 45.2212 39.1338 45.1639 39.0765C45.0303 38.9428 44.8297 37.2909 44.8297 36.2214C44.8297 35.1806 45.0112 33.5477 45.1448 33.3663C45.1926 33.309 45.2594 33.1276 45.2881 32.9557C45.3645 32.5737 45.8897 31.7143 46.2621 31.3706C46.4148 31.2274 46.7682 30.9886 47.026 30.8549C47.4366 30.6449 47.6371 30.6067 48.4583 30.5971C49.4705 30.5876 49.6997 30.6544 50.1867 31.151C50.4445 31.4183 50.7023 31.9913 50.7023 32.3064C50.7023 32.9271 51.0747 33.0798 51.7336 32.7456C52.3447 32.4305 52.4688 32.2204 52.4688 31.5043C52.4688 30.9791 52.4306 30.8167 52.2492 30.5876C51.9818 30.2534 51.3039 29.8141 50.9219 29.7186C50.7787 29.6804 50.6068 29.6136 50.5495 29.5754C50.4349 29.4799 48.1718 29.3844 47.6467 29.4513Z" fill="#090928"/>
<path d="M57.5773 32.8028C55.7726 33.1466 54.7509 34.1397 54.283 36.0017C54.0538 36.8993 54.0538 39.2579 54.283 39.9931C54.3689 40.2796 54.4835 40.5947 54.5312 40.6806C54.579 40.7761 54.6172 40.9098 54.6172 40.9767C54.6172 41.2345 55.5052 42.2849 55.9827 42.6C56.7561 43.1061 57.31 43.2397 58.5513 43.2397C61.1868 43.2302 62.4855 42.0079 62.8865 39.1719C63.0488 38.0261 63.0488 37.921 62.877 36.8133C62.791 36.1736 62.6764 35.5911 62.6287 35.5052C62.5905 35.4288 62.4568 35.1423 62.3327 34.8845C62.0558 34.2924 61.2059 33.4139 60.633 33.1466C60.2701 32.9747 58.5991 32.6118 58.3603 32.65C58.3221 32.6596 57.9688 32.7264 57.5773 32.8028ZM59.3916 34.006C60.0791 34.2447 60.5184 34.7985 60.8048 35.7916C61.0149 36.5364 61.0149 39.4393 60.8048 40.1841C60.5279 41.1103 60.3274 41.4255 59.6781 41.8934C59.4298 42.0748 59.2388 42.1225 58.7327 42.1321C57.7397 42.1416 57.4341 42.0461 56.9567 41.5591C56.7179 41.33 56.527 41.0817 56.527 41.0149C56.527 40.9576 56.4601 40.7761 56.3837 40.6234C56.3073 40.4706 56.1832 39.8308 56.1068 39.191C55.9922 38.2361 55.9922 37.8351 56.0877 36.8897C56.1545 36.2595 56.2596 35.6579 56.3169 35.5529C56.3646 35.4479 56.4697 35.2282 56.527 35.0564C56.6702 34.6649 57.2431 34.0728 57.4818 34.0728C57.5773 34.0728 57.6919 34.0251 57.7206 33.9773C57.8065 33.8436 58.9906 33.8627 59.3916 34.006Z" fill="#090928"/>
<path d="M105.828 32.7933C105.045 32.9652 104.205 33.4999 103.918 34.0251C103.823 34.1875 103.813 34.1875 103.689 33.9678C103.622 33.8437 103.546 33.5668 103.517 33.3567L103.46 32.9747H100.404L100.376 33.309C100.337 33.6909 100.528 33.8819 100.968 33.8819C101.321 33.8914 101.569 34.0633 101.76 34.4262C101.97 34.8368 101.942 41.1963 101.722 41.6547C101.56 42.0175 101.025 42.2372 100.595 42.1321C100.404 42.0844 100.337 42.113 100.28 42.2945C100.232 42.409 100.223 42.6382 100.251 42.791L100.309 43.0679L102.782 43.0584C104.147 43.0488 105.293 43.0202 105.341 42.9915C105.437 42.9247 105.437 42.4663 105.341 42.3135C105.303 42.2467 105.026 42.1512 104.739 42.0939C104.367 42.0271 104.167 41.9316 104.014 41.7406C103.804 41.4828 103.794 41.4255 103.794 38.9428C103.794 35.7917 103.88 35.3142 104.568 34.6267C104.921 34.2734 105.102 34.1684 105.456 34.1206C106.439 33.9678 107.146 34.2925 107.556 35.085C107.747 35.4384 107.757 35.6293 107.786 39.1815C107.795 41.225 107.843 42.9342 107.881 42.9724C107.919 43.0106 108.654 43.0488 109.514 43.0488C110.727 43.0679 111.099 43.0393 111.156 42.9342C111.395 42.5618 111.051 42.0939 110.545 42.0939C110.326 42.0939 110.154 42.0175 109.991 41.8457L109.762 41.5974V38.6277C109.762 35.7439 109.772 35.6389 109.972 35.2187C110.259 34.6362 110.373 34.5121 110.813 34.2734C111.538 33.8819 112.665 34.0729 113.162 34.6744C113.524 35.1137 113.572 35.6293 113.601 39.3247C113.62 41.5019 113.668 42.9342 113.725 42.9915C113.83 43.0966 116.723 43.0966 116.886 43.0011C117 42.9247 117 42.5045 116.876 42.2754C116.809 42.1703 116.676 42.0939 116.513 42.0939C116.064 42.0939 115.873 41.9984 115.682 41.6833C115.511 41.3969 115.491 41.1677 115.463 38.2266C115.444 36.4505 115.396 35.0373 115.339 34.9896C115.291 34.9323 115.253 34.8272 115.253 34.7413C115.253 34.5121 114.88 33.8723 114.556 33.519C114.097 33.0511 113.763 32.9079 112.474 32.6978C112.178 32.6501 111.137 32.8793 110.688 33.0798C110.507 33.1657 110.201 33.4044 109.991 33.6241C109.237 34.4357 109.313 34.3975 109.18 34.1015C108.922 33.4904 108.244 33.032 107.279 32.8029C106.917 32.7074 106.573 32.6501 106.516 32.6501C106.468 32.6596 106.153 32.7265 105.828 32.7933Z" fill="#090928"/>
<path d="M134.112 32.822C133.29 33.0129 132.956 33.1848 132.517 33.6718C131.982 34.2638 131.896 34.2543 131.801 33.5668L131.724 32.9747L130.177 32.9461L128.631 32.927L128.564 33.2612C128.487 33.6909 128.64 33.8819 129.051 33.8819C129.528 33.8819 129.948 34.1588 130.053 34.5503C130.177 34.9991 130.177 41.139 130.053 41.4732C129.901 41.8743 129.7 42.0175 129.127 42.1321C128.64 42.2276 128.573 42.2658 128.506 42.5236C128.373 43.0393 128.449 43.0488 131.046 43.0584C133.481 43.0584 133.682 43.0297 133.682 42.6764C133.682 42.3804 133.443 42.1703 133.071 42.1321C132.612 42.0939 132.269 41.8743 132.145 41.5401C132.078 41.3778 132.059 40.2605 132.078 38.5131L132.106 35.7439L132.402 35.2283C132.565 34.9418 132.851 34.5694 133.052 34.4166C133.395 34.1397 133.453 34.1206 134.264 34.1206C134.79 34.1206 135.143 34.1588 135.191 34.2256C135.229 34.2829 135.343 34.3593 135.448 34.3975C135.553 34.4262 135.716 34.5981 135.821 34.7604C136.222 35.467 136.26 35.9253 136.26 39.5253C136.26 42.1894 136.289 42.9724 136.384 43.0011C136.671 43.0966 139.411 43.1061 139.507 43.0106C139.774 42.7432 139.526 42.0939 139.144 42.0939C138.695 42.0939 138.504 41.9984 138.313 41.6833C138.141 41.3969 138.122 41.1677 138.103 38.3699C138.074 35.2474 138.008 34.7126 137.606 34.0729C137.167 33.3662 136.422 32.9079 135.544 32.7838C135.286 32.7456 135 32.7074 134.923 32.6978C134.847 32.6787 134.484 32.736 134.112 32.822Z" fill="#090928"/>
<path d="M150.765 32.6882C150.736 32.7073 150.373 32.7837 149.963 32.841C148.444 33.0702 147.824 33.5667 147.795 34.5789C147.786 34.8462 147.843 35.1614 147.91 35.2759C148.11 35.6006 148.588 35.8107 149.065 35.7725L149.485 35.7438L149.543 35.1423C149.59 34.6075 149.638 34.512 149.953 34.216C150.173 34.0155 150.45 33.8723 150.688 33.8341C151.118 33.7577 152.016 33.8627 152.016 33.9773C152.016 34.025 152.102 34.0823 152.197 34.1205C152.512 34.216 152.665 34.7317 152.732 35.8393C152.761 36.4218 152.761 36.9375 152.713 36.9947C152.665 37.052 152.006 37.138 151.156 37.1953C149.648 37.3003 149.113 37.3958 148.616 37.6536C148.464 37.73 148.301 37.7969 148.244 37.7969C148.063 37.7969 147.26 38.7422 147.194 39.0287C147.155 39.191 147.089 39.3438 147.041 39.3724C146.993 39.4106 146.955 39.7639 146.955 40.165C146.964 41.0053 147.155 41.6737 147.576 42.2562C147.824 42.5999 148.015 42.7336 148.884 43.1538C149.208 43.3161 150.727 43.2493 151.175 43.0583C151.596 42.8864 152.14 42.409 152.617 41.8265L152.875 41.5114L152.961 41.7405C153.009 41.8742 153.085 42.1416 153.114 42.3421C153.248 43.106 153.133 43.0487 154.546 43.0487C155.94 43.0487 155.959 43.0392 155.845 42.4663C155.788 42.1798 155.74 42.1416 155.453 42.1129C155.272 42.0938 155.033 41.9888 154.928 41.8742C154.747 41.6832 154.737 41.5018 154.689 38.322C154.651 35.9253 154.594 34.8749 154.508 34.598C154.241 33.7959 153.534 33.1179 152.78 32.9365C152.598 32.8983 152.245 32.8123 151.987 32.755C151.529 32.6405 150.841 32.6023 150.765 32.6882ZM152.722 39.2292C152.713 40.461 152.608 40.8143 152.063 41.3395C151.71 41.6928 150.918 41.9888 150.364 41.9984C149.896 41.9984 149.342 41.7119 149.132 41.349C148.874 40.9098 148.893 39.6207 149.161 39.1528C149.6 38.3889 150.383 38.0738 151.777 38.112L152.732 38.1311L152.722 39.2292Z" fill="#090928"/>
<path d="M75.8444 32.8314C75.2046 32.9651 74.1065 33.7672 74.097 34.111C74.0874 34.3115 73.715 33.7672 73.715 33.5571C73.715 33.4521 73.6864 33.2611 73.6577 33.137C73.6004 32.9269 73.5909 32.9269 72.0535 32.946L70.5161 32.9747L70.4875 33.3375C70.4588 33.6431 70.4875 33.7004 70.7071 33.7863C70.8408 33.8436 71.0604 33.8818 71.1941 33.8818C71.3182 33.8818 71.5092 33.9582 71.6238 34.0441C72.0822 34.4356 72.0917 34.5311 72.0917 37.9878C72.0917 41.0339 72.0822 41.2631 71.9007 41.6068C71.6907 42.027 71.5665 42.0938 70.984 42.0938C70.6116 42.0938 70.5448 42.1225 70.4588 42.3517C70.4016 42.514 70.392 42.705 70.4397 42.8386L70.5161 43.0583H72.9702C74.3261 43.0583 75.472 43.0296 75.5293 43.001C75.6725 42.915 75.6439 42.4185 75.5007 42.2944C75.4243 42.2371 75.1378 42.1511 74.8609 42.0938C74.3166 41.9888 74.1543 41.8456 74.0015 41.3299C73.8773 40.9002 73.8773 36.7178 74.0015 36.2404C74.0588 36.0494 74.1352 35.7343 74.1829 35.5528C74.2879 35.1518 74.6604 34.6457 75.0519 34.3592C75.2715 34.2065 75.5389 34.1396 76.0927 34.1014C76.7707 34.0537 76.8661 34.0632 77.1526 34.2733C78.117 34.9704 78.117 34.9704 78.1266 39.2674C78.1266 41.2344 78.1552 42.8864 78.1934 42.9437C78.2985 43.106 81.3159 43.106 81.5069 42.9532C81.8507 42.6572 81.4783 42.0938 80.9435 42.0938C80.6093 42.0938 80.3515 41.8742 80.1319 41.4254C80.0555 41.2631 80.0173 40.1936 79.9982 38.026C79.9791 35.8584 79.9313 34.8271 79.8645 34.7316C79.8072 34.6553 79.7213 34.4929 79.6831 34.3688C79.5685 33.9773 78.9001 33.2802 78.4417 33.0701C77.7828 32.755 76.7229 32.6595 75.8444 32.8314Z" fill="#090928"/>
<path d="M93.166 32.8506C92.0393 33.032 91.008 33.8055 90.4923 34.8654C90.0435 35.8107 89.9385 36.46 89.9767 38.1311C89.9958 38.9714 90.0626 39.8499 90.1199 40.0886C90.3205 40.8334 90.817 41.7215 91.2754 42.1607C92.1252 42.9819 92.8796 43.2397 94.4551 43.2397C95.0949 43.2397 95.5914 43.2016 95.6296 43.1443C95.6583 43.087 95.7824 43.0488 95.897 43.0488C96.0116 43.0488 96.279 42.9533 96.489 42.8482C98.0551 42.0079 98.7712 40.4897 98.7712 37.9879C98.7712 36.8706 98.6471 35.9826 98.3893 35.4383C98.3224 35.276 98.2556 35.0946 98.2556 35.0373C98.2556 34.6649 97.167 33.5094 96.5081 33.1848C95.6869 32.7742 94.4265 32.65 93.166 32.8506ZM95.305 34.0442C95.6869 34.2352 96.1453 34.6649 96.3267 35.0086C96.68 35.6961 96.8519 36.9088 96.7946 38.4176C96.6991 41.1199 96.0498 42.113 94.3405 42.1225C93.2615 42.1225 92.765 41.8074 92.278 40.8048L92.0011 40.2318V38.0261C92.0011 36.3741 92.0297 35.7534 92.1347 35.5433C92.5454 34.6553 92.679 34.4643 93.0896 34.1874C93.4811 33.92 93.6053 33.8914 94.2546 33.8818C94.7511 33.8818 95.0854 33.9296 95.305 34.0442Z" fill="#090928"/>
<path d="M121.173 32.8506C120.447 32.9556 119.55 33.4139 119.321 33.7959C119.225 33.9582 119.168 34.2733 119.168 34.6267C119.168 35.1805 119.187 35.2187 119.531 35.5052C119.836 35.763 119.951 35.7916 120.361 35.7725L120.839 35.7439L120.896 35.1423C120.944 34.6076 120.992 34.5121 121.307 34.2161C121.908 33.6622 123.111 33.6431 123.646 34.1779C123.961 34.493 123.999 34.6267 124.124 35.8585C124.238 37.0043 124.21 37.1285 123.761 37.1285C122.768 37.138 121.106 37.2526 120.963 37.329C120.877 37.3767 120.724 37.4149 120.638 37.4149C120.314 37.4149 119.254 38.007 118.967 38.3603C118.528 38.8759 118.308 39.5443 118.308 40.3464C118.308 40.7188 118.356 41.0626 118.404 41.0912C118.461 41.1199 118.499 41.2154 118.499 41.3013C118.499 41.8647 119.406 42.896 119.999 43.0106C120.17 43.0392 120.342 43.1061 120.371 43.1538C120.438 43.2684 122.195 43.2684 122.262 43.1538C122.29 43.1156 122.453 43.0488 122.615 43.0106C122.815 42.9724 123.14 42.7241 123.579 42.2753C123.942 41.9029 124.257 41.6164 124.276 41.6355C124.295 41.6546 124.362 41.8838 124.42 42.1416C124.611 42.9724 124.658 43.0965 124.782 43.087C124.84 43.0774 125.413 43.0679 126.043 43.0583C127.151 43.0488 127.189 43.0392 127.237 42.8291C127.275 42.7146 127.256 42.4949 127.198 42.3612C127.122 42.1607 127.026 42.1034 126.75 42.0748C126.463 42.0557 126.368 41.9888 126.224 41.7119C126.062 41.4064 126.043 41.1199 126.043 38.2648C126.043 34.8845 126.005 34.6171 125.48 33.8627C124.792 32.8983 123.302 32.545 121.173 32.8506ZM124.2 38.6563C124.219 39.3438 123.99 40.5947 123.78 40.9289C123.522 41.3395 123.102 41.6546 122.567 41.8265C121.927 42.0461 121.44 42.0366 120.992 41.8074C120.495 41.5591 120.314 41.1485 120.314 40.2796C120.314 38.7136 121.163 38.0643 123.178 38.112L124.181 38.1311L124.2 38.6563Z" fill="#090928"/>
<path d="M64.4907 33.0606C64.4621 33.137 64.4525 33.3184 64.4716 33.4712C64.5002 33.7004 64.5575 33.7481 64.8822 33.8245C65.0923 33.8723 65.3883 33.9582 65.5315 34.0155C66.0567 34.2256 66.0758 34.3592 66.0758 38.0738C66.0758 41.4732 66.0758 41.4732 65.8562 41.7501C65.6843 41.9602 65.5124 42.0365 65.0254 42.132C64.4907 42.2275 64.4143 42.2657 64.3284 42.5044C64.1469 43.0583 64.252 43.0774 67.0402 43.0678C68.4153 43.0583 69.5707 43.0201 69.6089 42.9819C69.7617 42.8196 69.7999 42.5044 69.6853 42.3517C69.6184 42.2562 69.3893 42.1607 69.1792 42.132C68.4821 42.0365 68.3962 41.9983 68.2148 41.7405C68.0429 41.4923 68.0333 41.1771 67.9856 37.2239L67.9378 32.9747L66.2381 32.946C64.8345 32.9269 64.5384 32.946 64.4907 33.0606Z" fill="#090928"/>
<path d="M140.653 33.3471C140.653 33.7864 140.758 33.8818 141.302 33.8818C141.416 33.8818 141.627 33.9487 141.76 34.0346C142.266 34.3688 142.276 34.4739 142.276 37.9879C142.276 40.2127 142.238 41.3109 142.171 41.4541C141.932 41.922 141.684 42.0939 141.273 42.0939C140.614 42.0939 140.118 42.6286 140.5 42.9437C140.643 43.0679 145.608 43.1252 145.799 43.0106C146.048 42.8482 145.828 42.027 145.561 42.1321C145.484 42.1607 145.217 42.1416 144.969 42.0843C144.176 41.922 144.186 41.9984 144.176 37.5104C144.176 35.381 144.147 33.4808 144.119 33.2803L144.071 32.927H140.653V33.3471Z" fill="#090928"/>
<path d="M9.70887 33.1847C8.83037 33.2229 8.49616 33.433 8.49616 33.92C8.49616 34.0823 8.44842 34.3688 8.40068 34.5502C8.32428 34.789 8.33383 35.0754 8.41977 35.5433C8.54391 36.2786 8.80173 36.6128 9.30782 36.6987C9.4606 36.7274 11.485 36.7369 13.7862 36.7274C17.3957 36.6987 17.9878 36.6796 18.0546 36.5555C18.2647 36.1449 18.427 35.6961 18.427 35.5242C18.427 35.4192 18.4938 35.2091 18.5702 35.0659C18.6466 34.9131 18.7135 34.703 18.7135 34.5884C18.7135 34.4834 18.7517 34.3593 18.809 34.302C18.8567 34.2542 18.9331 34.0059 18.9617 33.7481C19.0095 33.4044 18.9904 33.2707 18.8949 33.2038C18.7708 33.1274 11.4181 33.1179 9.70887 33.1847Z" fill="#090928"/>
<path d="M158.223 33.6526C158.079 33.729 157.707 33.7863 157.296 33.7863C156.656 33.7863 156.599 33.8054 156.37 34.0823C156.084 34.4165 156.055 34.6552 156.275 34.9799C156.418 35.19 156.418 35.2568 156.284 35.5815C156.16 35.887 156.16 35.973 156.265 36.1735C156.341 36.3167 156.38 36.565 156.341 36.7942C156.303 37.0807 156.332 37.2143 156.437 37.3098C156.561 37.4053 156.609 37.3958 156.714 37.2334C156.819 37.0616 156.933 37.0329 157.573 37.0329C158.213 37.0329 158.328 37.0616 158.413 37.2239C158.471 37.3289 158.557 37.3958 158.604 37.3671C158.757 37.2716 158.824 36.4982 158.7 36.269L158.585 36.0494L158.356 36.3072C158.156 36.5173 158.041 36.5555 157.554 36.5555C156.953 36.5555 156.695 36.4122 156.695 36.0685C156.695 35.8202 157.038 35.6961 157.936 35.6197C158.633 35.5528 158.652 35.5433 158.681 35.2855C158.7 35.1327 158.69 34.9417 158.652 34.8558C158.595 34.7125 158.566 34.7221 158.413 34.9035C158.261 35.0945 158.146 35.1231 157.516 35.1231C156.828 35.1231 156.79 35.1136 156.733 34.8844C156.618 34.4165 156.714 34.3592 157.592 34.3592C158.499 34.3592 158.7 34.2542 158.7 33.7767C158.7 33.4712 158.595 33.4425 158.223 33.6526Z" fill="#090928"/>
<path d="M8.71587 37.6251C8.4485 37.9211 8.31482 38.58 8.36256 39.3248C8.4294 40.3275 8.51534 40.5853 8.83046 40.7667C9.08828 40.9195 9.50843 40.9386 13.3757 40.9386C17.3003 40.9481 17.6536 40.9386 17.8446 40.7763C18.0451 40.6235 18.0547 40.5471 18.026 39.0384L17.9974 37.4628L13.4521 37.4342L8.9164 37.4151L8.71587 37.6251Z" fill="#090928"/>
<path d="M157.019 37.7683C156.494 37.8733 156.141 38.79 156.427 39.3152C156.628 39.678 157.124 39.8881 157.697 39.8595C158.366 39.8213 158.729 39.5539 158.891 39.0001C158.996 38.6086 158.987 38.5513 158.805 38.2839C158.48 37.8256 158.232 37.7014 157.697 37.711C157.44 37.7205 157.124 37.7492 157.019 37.7683ZM158.289 38.3698C158.299 38.3698 158.356 38.4558 158.414 38.5704C158.5 38.7231 158.49 38.8186 158.366 39.0001C158.232 39.2101 158.156 39.2292 157.545 39.2292C156.943 39.2292 156.876 39.2101 156.8 39.0096C156.752 38.895 156.752 38.7136 156.79 38.6086C156.876 38.3698 157.583 38.1789 157.984 38.2934C158.137 38.3316 158.28 38.3698 158.289 38.3698Z" fill="#090928"/>
<path d="M156.618 40.3751C156.17 40.9862 156.447 41.7597 157.201 41.9793C157.564 42.0939 157.698 42.0843 158.118 41.9602C158.395 41.8838 158.7 41.7119 158.796 41.5973C159.178 41.139 158.91 39.9549 158.461 40.1268C158.356 40.165 158.318 40.2414 158.366 40.356C158.509 40.7093 158.509 41.1008 158.375 41.2631C158.185 41.5114 157.182 41.54 156.953 41.3109C156.714 41.0817 156.752 40.8048 157.039 40.6711C157.316 40.5469 157.306 40.4037 157.02 40.2127C156.848 40.0981 156.8 40.1172 156.618 40.3751Z" fill="#090928"/>
<path d="M9.02136 41.8933L8.72535 41.9506L8.6967 43.1633C8.6776 44.166 8.6967 44.4047 8.83039 44.6148L8.99272 44.863H19.2005L19.1336 44.6434C19.105 44.5288 19.0095 44.3951 18.9427 44.3569C18.8663 44.3188 18.809 44.1564 18.809 43.9941C18.809 43.8413 18.7708 43.6408 18.723 43.5453C18.4748 43.0965 18.322 42.6954 18.2647 42.3612C18.236 42.1607 18.1405 41.9506 18.0546 41.9124C17.8827 41.8169 9.45106 41.7978 9.02136 41.8933Z" fill="#090928"/>
<path d="M157.287 42.6572C157.239 42.6859 157.153 42.8004 157.096 42.9055C157.01 43.0583 157.029 43.1347 157.191 43.3065C157.354 43.4784 157.42 43.4975 157.611 43.4116C157.86 43.297 157.965 43.0965 157.888 42.8577C157.831 42.6859 157.44 42.5522 157.287 42.6572Z" fill="#090928"/>
<path d="M58.6565 45.2259C58.561 45.2832 58.561 45.3882 58.6374 45.6747C58.6947 45.8847 58.7806 46.0948 58.8284 46.1426C58.8761 46.1999 58.9143 46.324 58.9143 46.4386C58.9143 46.5532 58.9811 46.725 59.0575 46.8301C59.1339 46.9256 59.2008 47.0784 59.2008 47.1547C59.2008 47.2311 59.2581 47.4126 59.3344 47.5558C59.4108 47.699 59.4968 47.9473 59.535 48.1096C59.6305 48.5489 59.9551 48.6444 60.2225 48.3197C60.3466 48.1765 60.4708 47.9091 60.4994 47.7277C60.5376 47.5462 60.6235 47.3075 60.6904 47.2025C60.7668 47.0974 60.8241 46.9256 60.8241 46.8205C60.8241 46.7155 60.8909 46.5436 60.9673 46.4481C61.0437 46.3431 61.1105 46.1712 61.1201 46.0662C61.1296 45.9516 61.1678 46.0471 61.2251 46.2667C61.2729 46.4959 61.3493 46.6773 61.4066 46.6773C61.4543 46.6773 61.4925 46.8014 61.4925 46.9447C61.4925 47.0974 61.5593 47.298 61.6357 47.403C61.7121 47.4985 61.779 47.6704 61.779 47.7754C61.779 47.8805 61.8935 48.1383 62.0272 48.3388L62.2755 48.7017L62.5047 48.482C62.6288 48.3674 62.7625 48.1192 62.7911 47.9282C62.8293 47.7372 62.9153 47.4985 62.9821 47.3935C63.0585 47.2884 63.1158 47.107 63.1158 46.9924C63.1158 46.8683 63.154 46.7728 63.2017 46.7728C63.2495 46.7728 63.3163 46.6391 63.3545 46.4863C63.3927 46.324 63.4787 46.0662 63.5646 45.9134C63.7365 45.5601 63.6983 45.2068 63.4787 45.1686C63.3641 45.1495 63.2972 45.2163 63.2495 45.4073C63.2113 45.5505 63.1254 45.7606 63.0585 45.8656C62.9821 45.9707 62.9248 46.1235 62.9248 46.2094C62.9248 46.2953 62.858 46.4959 62.7816 46.6391C62.7052 46.7919 62.6384 46.9829 62.6384 47.0593C62.6384 47.1356 62.5715 47.2884 62.4951 47.3839C62.4187 47.489 62.3519 47.6608 62.3423 47.7659C62.3328 47.8996 62.3042 47.8709 62.2469 47.6608C62.1991 47.489 62.1132 47.3266 62.0654 47.298C62.0081 47.2693 61.9699 47.1452 61.9699 47.0306C61.9699 46.916 61.9031 46.6964 61.8267 46.5436C61.7503 46.4004 61.6835 46.238 61.6835 46.1903C61.6835 45.9898 61.2538 45.1495 61.1487 45.1495C61.0151 45.1495 60.6331 45.8465 60.6331 46.1044C60.6331 46.1999 60.5949 46.3049 60.5472 46.3431C60.4994 46.3717 60.4326 46.5245 60.3944 46.6868C60.3562 46.8492 60.2702 47.0879 60.1938 47.2311C60.1175 47.3744 60.0602 47.5749 60.0602 47.6799C60.0602 47.8518 60.0411 47.8518 59.8787 47.6417C59.7737 47.5081 59.6687 47.2407 59.64 47.0402C59.6018 46.8396 59.535 46.6773 59.4872 46.6773C59.4299 46.6773 59.3917 46.5914 59.3917 46.4768C59.3917 46.3622 59.3344 46.1426 59.2581 45.9802C59.1912 45.8083 59.0862 45.5601 59.0289 45.4073C58.9143 45.1399 58.8475 45.1017 58.6565 45.2259Z" fill="#090928"/>
<path d="M76.446 45.3023C76.4173 45.3882 76.3887 46.1044 76.3887 46.9065C76.3887 47.976 76.4269 48.4057 76.5128 48.5394C76.6369 48.7017 76.6465 48.7017 76.7802 48.5107C76.9139 48.3197 76.9234 48.3197 77.2958 48.5012C77.7637 48.7303 77.8783 48.7303 78.3653 48.4916C78.9382 48.2147 79.1578 47.89 79.1578 47.3362C79.1578 46.9352 79.1101 46.8206 78.8332 46.5341C78.3175 46.0089 77.7542 45.8752 77.2099 46.1521C77.0666 46.2285 76.9234 46.2954 76.9043 46.2954C76.8852 46.2954 76.8661 46.1044 76.8661 45.8752C76.8661 45.3691 76.7897 45.1495 76.6274 45.1495C76.5606 45.1495 76.4746 45.2164 76.446 45.3023ZM78.4321 46.7155C78.6231 46.8874 78.6804 47.0306 78.6804 47.3362C78.6804 47.785 78.5754 47.9378 78.0979 48.1383C77.5345 48.3675 76.8661 47.9473 76.8661 47.3553C76.8661 46.5914 77.8592 46.1808 78.4321 46.7155Z" fill="#090928"/>
<path d="M79.5971 45.2927C79.5684 45.3787 79.5398 46.1044 79.5398 46.8969C79.5493 47.9855 79.578 48.3961 79.683 48.5202C79.9408 48.8735 80.0268 48.4152 79.9981 46.7537C79.9695 45.4073 79.9504 45.1972 79.8167 45.1686C79.7308 45.1495 79.6353 45.2068 79.5971 45.2927Z" fill="#090928"/>
<path d="M86.1955 45.2165C86.1573 45.2451 86.1287 45.9709 86.1287 46.8207C86.1287 47.9761 86.1573 48.4058 86.2623 48.5395C86.3865 48.7114 86.396 48.7114 86.5011 48.5109C86.5584 48.4058 86.6061 48.1575 86.6061 47.9761C86.6061 47.7851 86.6539 47.6324 86.7016 47.6324C86.7589 47.6324 86.7971 47.661 86.7971 47.6992C86.7971 47.7469 86.9594 47.8806 87.1599 48.0143C87.3509 48.148 87.561 48.3008 87.6087 48.3581C87.666 48.4249 87.7997 48.5013 87.9143 48.53C88.2581 48.635 88.0766 48.253 87.5514 47.7947C87.2936 47.5751 87.0836 47.3363 87.0836 47.26C87.0836 47.1836 87.3032 46.9257 87.5705 46.687C87.9907 46.3051 88.0384 46.2287 87.9239 46.1236C87.8093 46.0281 87.6947 46.0759 87.3127 46.3624C87.0549 46.5533 86.7971 46.7825 86.7302 46.8684C86.6348 46.983 86.6157 46.8589 86.6061 46.2287C86.6061 45.799 86.5775 45.3884 86.5488 45.3024C86.4915 45.1497 86.3005 45.1019 86.1955 45.2165Z" fill="#090928"/>
<path d="M91.0654 45.2165C91.0272 45.2451 90.9985 45.9709 90.9985 46.8207C90.9985 47.9761 91.0272 48.4058 91.1322 48.5395C91.2564 48.7114 91.2659 48.7114 91.3709 48.5109C91.4282 48.4058 91.476 47.9857 91.476 47.5942C91.476 46.7157 91.6288 46.4865 92.2494 46.4865C92.8415 46.4865 92.9943 46.7348 93.0038 47.6419C93.0038 48.1575 93.042 48.4058 93.1375 48.4822C93.3667 48.6732 93.5099 48.2721 93.4621 47.4987C93.424 46.7539 93.2712 46.4387 92.7746 46.1523C92.4882 45.9709 91.7529 45.9995 91.6861 46.1905C91.6001 46.4483 91.476 46.2573 91.476 45.8754C91.476 45.6462 91.4473 45.3884 91.4187 45.3024C91.3614 45.1497 91.1704 45.1019 91.0654 45.2165Z" fill="#090928"/>
<path d="M97.0237 45.2833C96.9378 45.3788 96.9473 45.4361 97.0619 45.5316C97.2624 45.6939 97.5489 45.4743 97.3866 45.2833C97.3293 45.2069 97.2433 45.1496 97.2051 45.1496C97.167 45.1496 97.081 45.2069 97.0237 45.2833Z" fill="#090928"/>
<path d="M110.64 45.2164C110.602 45.245 110.574 45.5028 110.574 45.7893C110.574 46.1617 110.535 46.2954 110.44 46.2954C110.364 46.2954 110.287 46.2476 110.268 46.1904C110.249 46.1426 110.048 46.0662 109.819 46.0376C109.218 45.9516 108.616 46.2954 108.358 46.8588C108.062 47.5081 108.33 48.1383 109.074 48.4916C109.542 48.7208 109.695 48.7304 110.077 48.5298C110.297 48.4248 110.421 48.4152 110.564 48.4821C110.908 48.6731 110.975 48.4152 110.975 46.8301C110.975 46.0185 110.946 45.3119 110.908 45.2546C110.841 45.14 110.726 45.1209 110.64 45.2164ZM110.287 46.6773C110.736 47.1261 110.612 47.7755 110.02 48.081C109.638 48.272 109.59 48.272 109.304 48.1383C108.645 47.8137 108.501 47.3362 108.912 46.8015C109.122 46.515 109.199 46.4864 109.628 46.4864C109.962 46.4864 110.144 46.5341 110.287 46.6773Z" fill="#090928"/>
<path d="M132.698 45.2068C132.66 45.2449 132.632 45.9993 132.632 46.8874C132.632 48.377 132.641 48.5011 132.803 48.4725C132.947 48.4438 132.975 48.2719 133.014 47.0401C133.042 46.2667 133.042 45.541 133.014 45.4168C132.956 45.1972 132.803 45.1017 132.698 45.2068Z" fill="#090928"/>
<path d="M133.711 45.2259C133.424 45.2641 133.424 45.4933 133.701 45.5697C133.978 45.6365 134.236 45.4169 134.045 45.2832C133.978 45.2259 133.825 45.2068 133.711 45.2259Z" fill="#090928"/>
<path d="M63.937 45.3311C63.851 45.4648 63.9752 48.339 64.0611 48.4249C64.1184 48.4822 64.2234 48.4918 64.2998 48.4631C64.424 48.4154 64.4526 48.2531 64.4526 47.6992C64.4526 47.1263 64.4908 46.9449 64.6531 46.7348C64.825 46.5152 64.9205 46.477 65.2452 46.5056C65.7608 46.5438 65.8849 46.7825 65.8849 47.7088C65.8849 48.234 65.9231 48.4154 66.0282 48.4536C66.3242 48.5682 66.4674 48.3008 66.4483 47.6897C66.4292 47.365 66.391 47.0594 66.3624 47.0117C66.3242 46.9544 66.2669 46.8112 66.2382 46.6775C66.1046 46.1618 65.0637 45.799 64.7104 46.1523C64.5863 46.2764 64.5576 46.2764 64.5099 46.1428C64.4813 46.0568 64.4526 45.8276 64.4526 45.6176C64.4526 45.2834 64.424 45.2452 64.2234 45.2452C64.0898 45.2452 63.9656 45.2834 63.937 45.3311Z" fill="#090928"/>
<path d="M124.009 45.5028C123.971 45.5315 123.942 45.6556 123.942 45.7798C123.942 45.923 123.866 46.0089 123.694 46.0471C123.398 46.1235 123.417 46.4291 123.732 46.4673C123.932 46.4959 123.942 46.5437 123.942 47.3935C123.942 48.272 123.952 48.2911 124.219 48.4821C124.372 48.5967 124.582 48.6826 124.687 48.6826C124.887 48.6826 125.183 48.4534 125.183 48.3007C125.183 48.1574 124.983 48.081 124.878 48.1861C124.801 48.2625 124.715 48.2625 124.591 48.1956C124.448 48.1192 124.419 47.9855 124.419 47.2503V46.4004L124.782 46.3718C124.973 46.3527 125.136 46.2954 125.136 46.2477C125.136 46.1904 124.973 46.1426 124.782 46.1235C124.505 46.1044 124.419 46.0471 124.419 45.9134C124.419 45.5315 124.2 45.3023 124.009 45.5028Z" fill="#090928"/>
<path d="M9.26 46.0089C9.26 46.0567 9.13586 46.114 8.98308 46.1522C8.71571 46.2094 8.70616 46.219 8.66797 47.0402C8.63932 47.489 8.63932 48.0715 8.66797 48.3197C8.70616 48.7208 8.75391 48.7972 9.04992 48.9691C9.38414 49.1696 9.46053 49.1696 15.9538 49.1505C19.5728 49.141 22.5329 49.1123 22.5329 49.0837C22.5329 48.9213 21.6353 47.9187 21.4826 47.9187C21.4348 47.9187 21.3871 47.8805 21.3871 47.8232C21.3871 47.7755 21.2725 47.6036 21.1293 47.4508C20.9765 47.298 20.6709 46.9543 20.4417 46.6964C19.907 46.0853 19.3818 45.8657 18.6847 45.9612C18.045 46.0567 10.0908 46.0758 9.62286 45.9898C9.42233 45.9516 9.26 45.9612 9.26 46.0089Z" fill="#090928"/>
<path d="M67.4604 46.2096C66.4196 46.7348 66.4673 47.9761 67.5368 48.4918C67.9569 48.7018 68.4153 48.74 68.5108 48.5872C68.5394 48.53 68.6445 48.4918 68.7399 48.4918C68.9882 48.4918 69.1887 48.2244 69.0551 48.0907C68.9691 48.0048 68.8259 48.0143 68.4917 48.1194C68.0715 48.253 68.0047 48.2435 67.6896 48.0907C67.4986 48.0048 67.3172 47.8615 67.2885 47.7756C67.2312 47.6515 67.3649 47.6324 68.2052 47.6324C68.845 47.6324 69.2269 47.5942 69.3033 47.5178C69.523 47.2981 69.437 46.8016 69.1314 46.4865C68.6254 45.9709 68.1002 45.8849 67.4604 46.2096ZM68.7495 46.6488C68.8545 46.7443 68.9405 46.8875 68.9405 46.983C68.9405 47.1358 68.8354 47.1549 68.0142 47.1549H67.0975L67.279 46.9448C67.3745 46.8303 67.5081 46.6775 67.5559 46.6106C67.6991 46.4292 68.5203 46.4578 68.7495 46.6488Z" fill="#090928"/>
<path d="M70.7072 46.0759C70.6021 46.1046 70.4684 46.1618 70.4016 46.2191C70.3348 46.2764 70.2679 46.2669 70.2297 46.2C70.2011 46.1523 70.1056 46.1046 70.0292 46.1046C69.9242 46.1046 69.8955 46.3242 69.8955 47.3077C69.8955 48.3963 69.9146 48.5013 70.0674 48.4727C70.2011 48.444 70.2393 48.3199 70.2584 47.7756C70.2775 47.2409 70.3348 47.0499 70.5257 46.8016C70.7263 46.5343 70.8313 46.4865 71.1464 46.4865C71.4042 46.4865 71.5475 46.4388 71.5857 46.3337C71.6907 46.0664 71.261 45.9422 70.7072 46.0759Z" fill="#090928"/>
<path d="M72.5882 46.1617C72.4163 46.2476 72.1681 46.4577 72.0344 46.6105C71.8148 46.8683 71.7861 46.9734 71.8243 47.4508C71.8529 47.89 71.9102 48.0333 72.1394 48.2434C72.2826 48.377 72.4832 48.4916 72.5787 48.4916C72.6742 48.4916 72.7792 48.5298 72.8078 48.5871C72.8842 48.7017 73.3999 48.7113 73.4667 48.5967C73.4954 48.5489 73.6768 48.4821 73.8582 48.4534C74.0874 48.4057 74.1924 48.3388 74.1924 48.2147C74.1924 47.9378 74.0969 47.9187 73.6099 48.1001C73.1516 48.2816 73.142 48.2816 72.741 48.081C72.063 47.7277 72.149 47.6322 73.1611 47.6322C74.2593 47.6322 74.4502 47.5845 74.5075 47.298C74.6603 46.4768 73.419 45.7415 72.5882 46.1617ZM73.8296 46.7442C73.9728 46.8874 74.0969 47.0306 74.0969 47.0784C74.0969 47.1166 73.6863 47.1548 73.1898 47.1548C72.2063 47.1548 72.1203 47.0975 72.4927 46.706C72.7983 46.3813 73.4667 46.4004 73.8296 46.7442Z" fill="#090928"/>
<path d="M81.2108 46.1521C80.6856 46.4291 80.3992 46.8397 80.3992 47.3458C80.3992 47.89 80.6283 48.2243 81.1917 48.4916C81.6787 48.7303 81.8029 48.7303 82.3376 48.5012C82.9678 48.2243 83.197 47.89 83.1492 47.2789C83.1111 46.8683 83.0538 46.7251 82.7959 46.4864C82.2898 45.9898 81.7456 45.8848 81.2108 46.1521ZM82.4331 46.7537C82.6145 46.9447 82.6909 47.1166 82.6909 47.3553C82.6814 47.7468 82.5572 47.9187 82.118 48.1192C81.8124 48.2624 81.7551 48.2624 81.4495 48.1192C80.953 47.89 80.8766 47.785 80.8766 47.3362C80.8766 47.002 80.9244 46.8779 81.144 46.706C81.5259 46.3909 82.0989 46.41 82.4331 46.7537Z" fill="#090928"/>
<path d="M84.1328 46.2286C83.7222 46.4482 83.3594 46.9734 83.3594 47.3458C83.3594 47.7755 83.9037 48.4821 84.2379 48.4916C84.3238 48.4916 84.4288 48.5298 84.4575 48.5871C84.4861 48.6349 84.6389 48.6826 84.7917 48.6826C84.9445 48.6826 85.0973 48.6349 85.1259 48.5871C85.1546 48.5298 85.2596 48.4916 85.3551 48.4916C85.6225 48.4916 85.7848 48.2529 85.6129 48.1097C85.4983 48.0237 85.3933 48.0237 85.1355 48.1097C84.6962 48.2529 84.066 48.081 83.9896 47.785C83.8846 47.384 83.9323 46.9829 84.1328 46.7346C84.2952 46.5341 84.4098 46.4864 84.7822 46.4864C85.0304 46.4864 85.2787 46.5341 85.336 46.5914C85.4028 46.6583 85.527 46.6678 85.6225 46.6392C85.7752 46.5723 85.7561 46.5341 85.4792 46.2858C85.0973 45.9421 84.7058 45.923 84.1328 46.2286Z" fill="#090928"/>
<path d="M88.8881 46.2764C88.5539 46.5247 88.2292 47.0594 88.2292 47.365C88.2292 47.7851 88.7735 48.4917 89.0982 48.4917C89.1937 48.4917 89.2987 48.5299 89.3274 48.5872C89.4133 48.7209 89.7762 48.7018 90.1677 48.5395C90.5687 48.3676 90.6547 48.2626 90.4923 48.1193C90.3968 48.0525 90.2632 48.0525 90.0149 48.1289C89.4897 48.2912 88.955 48.0907 88.8308 47.6896C88.7258 47.3459 88.8117 46.9257 89.0505 46.6679C89.2319 46.4674 90.0817 46.4101 90.1868 46.582C90.2823 46.7348 90.521 46.6966 90.521 46.5247C90.521 46.2478 90.225 46.0759 89.7189 46.0377C89.3083 46.0186 89.1746 46.0568 88.8881 46.2764Z" fill="#090928"/>
<path d="M94.4171 46.2285C94.207 46.3526 93.9683 46.6104 93.8537 46.8492C93.6627 47.2216 93.6532 47.298 93.7582 47.6131C93.911 48.0428 94.312 48.4916 94.5412 48.4916C94.6367 48.4916 94.7417 48.5298 94.7704 48.5871C94.8468 48.7112 95.3242 48.7112 95.4484 48.5966C95.4961 48.5393 95.7539 48.4916 96.0117 48.4725L96.4892 48.4438L96.5178 47.3171C96.5465 46.1139 96.4892 45.9707 96.069 46.1998C95.9067 46.2762 95.8208 46.2762 95.6584 46.1521C95.3624 45.9516 94.8372 45.9802 94.4171 46.2285ZM95.7444 46.6964C95.9736 46.9447 96.0308 47.2598 95.9258 47.699C95.8685 47.9473 95.7826 48.0237 95.4102 48.1383C95.1619 48.2242 94.9423 48.2529 94.9136 48.2051C94.885 48.1574 94.7513 48.1001 94.6176 48.0619C94.1593 47.9473 94.0924 47.1165 94.4935 46.6677C94.7417 46.4004 95.4866 46.4195 95.7444 46.6964Z" fill="#090928"/>
<path d="M97.1288 46.1236C96.9569 46.2955 96.976 48.339 97.1479 48.4822C97.3866 48.6827 97.4916 48.2912 97.4916 47.2217C97.4916 46.5056 97.4535 46.1905 97.3675 46.1141C97.272 46.0377 97.2052 46.0472 97.1288 46.1236Z" fill="#090928"/>
<path d="M98.695 46.1523C98.504 46.2573 98.3798 46.2669 98.313 46.2001C98.2653 46.1523 98.1602 46.1046 98.0934 46.1046C97.9979 46.1046 97.9692 46.3815 97.9692 47.2791C97.9692 47.9284 97.9979 48.4918 98.0361 48.5204C98.208 48.6923 98.3512 48.339 98.3512 47.747C98.3512 47.2313 98.3894 47.069 98.5995 46.8016C98.8095 46.5343 98.8955 46.4865 99.2488 46.4865C99.8217 46.4865 99.9172 46.6393 99.9745 47.6228C100.013 48.3676 100.041 48.444 100.213 48.444C100.385 48.444 100.414 48.3581 100.461 47.7756C100.5 47.4032 100.49 47.0595 100.452 47.0117C100.414 46.9544 100.356 46.8112 100.318 46.6775C100.185 46.1523 99.2488 45.8467 98.695 46.1523Z" fill="#090928"/>
<path d="M102.982 46.1521C102.83 46.2381 102.581 46.4386 102.438 46.6009C101.922 47.1739 102.18 48.1192 102.963 48.4916C103.45 48.7303 103.708 48.7303 104.1 48.4916C104.405 48.3102 104.405 48.3102 104.539 48.5107C104.682 48.7017 104.692 48.7017 104.816 48.5394C104.902 48.4152 104.94 48.0333 104.94 47.298C104.94 46.1521 104.854 45.8848 104.558 46.1521C104.415 46.2858 104.367 46.2858 104.119 46.1521C103.765 45.9707 103.345 45.9707 102.982 46.1521ZM104.176 46.6964C104.415 46.8683 104.462 46.9733 104.462 47.3266C104.462 47.785 104.386 47.89 103.889 48.1192C103.584 48.2624 103.517 48.2624 103.269 48.1383C102.782 47.89 102.648 47.7182 102.648 47.3553C102.648 46.6009 103.536 46.219 104.176 46.6964Z" fill="#090928"/>
<path d="M106.343 46.0663C106.315 46.095 106.105 46.1332 105.876 46.1427L105.465 46.1618L105.436 47.279C105.417 48.2148 105.436 48.4058 105.56 48.4536C105.866 48.5777 106 48.3103 105.952 47.6896C105.885 46.8493 106.124 46.4865 106.735 46.4865C107.308 46.4865 107.47 46.7252 107.47 47.6037C107.47 48.1957 107.499 48.339 107.652 48.4536C107.929 48.6445 107.995 48.4822 107.986 47.6323C107.976 46.792 107.824 46.4483 107.327 46.1905C107.012 46.0186 106.468 45.9517 106.343 46.0663Z" fill="#090928"/>
<path d="M113.725 46.0853C113.161 46.3526 112.703 47.0688 112.818 47.5081C112.913 47.9187 113.238 48.2911 113.658 48.4916C114.116 48.7112 114.221 48.7208 114.708 48.5584C115.195 48.3865 115.3 48.2624 115.109 48.1096C114.985 48.0046 114.899 48.0141 114.584 48.1383C114.241 48.272 114.174 48.272 113.887 48.1383C113.209 47.8136 113.076 47.3075 113.524 46.7728C113.773 46.4768 113.83 46.4481 114.26 46.4768C114.517 46.4863 114.747 46.5436 114.756 46.5914C114.813 46.725 115.157 46.6964 115.157 46.5532C115.157 46.1903 114.164 45.8656 113.725 46.0853Z" fill="#090928"/>
<path d="M116.303 46.1045C116.227 46.1523 116.064 46.1714 115.959 46.1427C115.644 46.0663 115.596 46.2478 115.615 47.3459C115.625 48.0716 115.673 48.3772 115.778 48.4822C115.959 48.6732 115.997 48.549 116.036 47.6132C116.074 46.7825 116.246 46.4865 116.694 46.4865C117.048 46.4865 117.258 46.4005 117.258 46.2478C117.258 46.0186 116.599 45.9135 116.303 46.1045Z" fill="#090928"/>
<path d="M117.754 46.1236C117.582 46.2955 117.592 46.3528 118.127 47.4987C118.222 47.7183 118.308 47.9379 118.308 48.0048C118.308 48.0621 118.356 48.1098 118.404 48.1098C118.556 48.1098 118.518 48.6827 118.346 48.8451C118.175 49.0265 118.203 49.4944 118.404 49.4944C118.537 49.4944 118.614 49.3607 119.215 48.0621C119.416 47.6419 119.635 47.1836 119.702 47.0403C119.779 46.9066 119.836 46.7252 119.836 46.6393C119.836 46.5533 119.884 46.4865 119.931 46.4865C120.056 46.4865 120.056 46.1332 119.941 46.0568C119.817 45.9804 119.464 46.3814 119.387 46.6775C119.349 46.8111 119.273 46.9735 119.196 47.0403C119.129 47.1072 119.072 47.2313 119.072 47.3172C119.072 47.3936 118.986 47.5655 118.881 47.6992C118.728 47.8902 118.69 47.9093 118.69 47.7756C118.69 47.6896 118.633 47.4987 118.566 47.365C118.49 47.2218 118.365 46.9639 118.28 46.7921C118.194 46.6106 118.117 46.4196 118.117 46.3433C118.117 46.1427 117.878 45.9995 117.754 46.1236Z" fill="#090928"/>
<path d="M121.24 46.1522C121.02 46.2668 120.934 46.2668 120.781 46.1713C120.619 46.0758 120.562 46.0853 120.447 46.2477C120.342 46.3909 120.313 46.7347 120.313 47.7277C120.323 49.2078 120.361 49.4465 120.6 49.4465C120.724 49.4465 120.781 49.3415 120.829 48.9691C120.886 48.5489 120.915 48.4916 121.125 48.4916C121.249 48.4916 121.383 48.5298 121.412 48.5871C121.536 48.7877 122.452 48.568 122.739 48.272C122.987 48.0142 123.178 47.6227 123.178 47.384C123.178 47.002 122.882 46.4004 122.663 46.3336C122.557 46.2954 122.414 46.2095 122.338 46.1426C122.166 45.9707 121.574 45.9707 121.24 46.1522ZM122.328 46.6105C122.414 46.6774 122.548 46.8588 122.643 47.0307C122.787 47.3171 122.787 47.3649 122.634 47.6704C122.424 48.1097 121.985 48.2816 121.44 48.1192C121.02 47.9856 120.839 47.68 120.915 47.1834C120.991 46.7156 121.249 46.5055 121.746 46.4959C121.985 46.4959 122.242 46.5437 122.328 46.6105Z" fill="#090928"/>
<path d="M126.196 46.2477C125.833 46.4673 125.47 47.0116 125.47 47.3458C125.47 47.7755 126.014 48.4821 126.348 48.4916C126.434 48.4916 126.539 48.5298 126.568 48.5871C126.597 48.6349 126.75 48.6826 126.902 48.6826C127.055 48.6826 127.208 48.6349 127.237 48.5871C127.265 48.5298 127.37 48.4916 127.466 48.4916C127.79 48.4916 128.335 47.7755 128.335 47.3458C128.335 46.7537 127.542 46.0185 126.902 46.0185C126.721 46.0185 126.406 46.114 126.196 46.2477ZM127.561 46.7346C127.762 46.9829 127.809 47.384 127.704 47.785C127.628 48.081 127.017 48.2434 126.53 48.1001C126.138 47.9855 126.043 47.8328 126.043 47.2789C126.043 46.8015 126.377 46.4864 126.921 46.4864C127.294 46.4864 127.399 46.5341 127.561 46.7346Z" fill="#090928"/>
<path d="M129.146 46.0949C128.927 46.1904 128.678 46.4577 128.592 46.6965C128.468 47.0402 129.089 47.4604 129.939 47.5845C130.244 47.6323 130.34 47.6895 130.34 47.8328C130.34 48.062 129.738 48.3389 129.5 48.2052C129.079 47.9856 128.726 47.8519 128.678 47.8996C128.535 48.0429 128.64 48.3102 128.889 48.4057C129.032 48.463 129.223 48.5489 129.309 48.5967C129.901 48.9023 131.037 48.272 130.865 47.7373C130.779 47.4413 130.464 47.2312 130.092 47.2026C129.891 47.1835 129.566 47.0975 129.375 47.002C129.06 46.8683 129.032 46.8206 129.127 46.6678C129.213 46.5246 129.356 46.4864 129.738 46.4864C130.006 46.4864 130.264 46.5246 130.292 46.5819C130.378 46.7251 130.626 46.6965 130.626 46.5437C130.626 46.4673 130.512 46.3145 130.378 46.2095C130.111 45.9994 129.519 45.9517 129.146 46.0949Z" fill="#090928"/>
<path d="M137.626 46.286C136.976 46.7539 136.766 47.3936 137.091 47.8997C137.339 48.2817 137.435 48.3676 137.836 48.53C138.246 48.7018 138.609 48.7305 138.695 48.5872C138.724 48.53 138.858 48.4918 138.982 48.4918C139.115 48.4918 139.259 48.4154 139.316 48.3103C139.497 47.9666 139.431 47.9284 138.915 48.0812C138.504 48.1957 138.352 48.2053 138.027 48.1098C137.674 48.0048 137.511 47.8711 137.502 47.6992C137.502 47.661 137.922 47.6324 138.437 47.6324C139.583 47.6324 139.755 47.5464 139.66 47.0212C139.593 46.6775 139.478 46.5151 139.02 46.1714C138.667 45.9136 138.075 45.9613 137.626 46.286ZM139.02 46.7348C139.135 46.878 139.22 47.0308 139.22 47.069C139.22 47.1167 138.838 47.1549 138.361 47.1549C137.893 47.1549 137.502 47.1167 137.502 47.069C137.502 47.0212 137.597 46.8684 137.721 46.7348C137.893 46.5342 138.017 46.4865 138.38 46.4865C138.753 46.4865 138.858 46.5342 139.02 46.7348Z" fill="#090928"/>
<path d="M133.596 46.2669C133.491 46.477 133.558 48.3008 133.682 48.4345C133.73 48.4822 133.835 48.4918 133.921 48.4631C134.045 48.4058 134.064 48.234 134.045 47.2791C134.016 46.3146 133.997 46.1523 133.854 46.1237C133.768 46.1046 133.653 46.1714 133.596 46.2669Z" fill="#090928"/>
<path d="M134.35 46.2382C134.35 46.3146 134.455 46.582 134.58 46.8398C134.704 47.088 134.914 47.5368 135.047 47.8233C135.181 48.1193 135.372 48.4249 135.477 48.5204C135.659 48.6827 135.668 48.6827 135.897 48.2817C136.021 48.0525 136.203 47.6992 136.308 47.4891C136.403 47.279 136.537 47.0021 136.604 46.8684C136.814 46.4292 136.804 46.1523 136.575 46.1236C136.432 46.1045 136.356 46.1523 136.308 46.3146C136.241 46.5438 136.04 47.0117 135.811 47.4604C135.744 47.5941 135.687 47.7851 135.687 47.8901C135.687 48.0334 135.659 48.0143 135.544 47.8233C135.468 47.6896 135.382 47.5177 135.353 47.4414C135.324 47.365 135.229 47.174 135.152 47.0307C135.086 46.878 135.019 46.6965 135.019 46.6297C135.019 46.4674 134.646 46.1045 134.474 46.1045C134.408 46.1045 134.35 46.1618 134.35 46.2382Z" fill="#090928"/>
</svg>
