<svg xmlns="http://www.w3.org/2000/svg" width="20" height="20" viewBox="0 0 20 20"><rect width="20" height="20" fill="none"/><g transform="translate(2 2)"><path d="M6.678,1.516,5.162,0,2.026,3.136A3.8,3.8,0,0,1,0,4.2l2,2a.469.469,0,0,0,.663,0L6.678,2.179a.469.469,0,0,0,0-.663Z" transform="translate(9.185 9.181)" fill="#0436ed"/><path d="M13.729,7.586a1.357,1.357,0,0,0,0-1.917l0,0a1.354,1.354,0,0,0-.449-.3,1.357,1.357,0,0,0-.3-1.458l0,0a1.356,1.356,0,0,0-.447-.3,1.357,1.357,0,0,0-.3-1.458h0a1.353,1.353,0,0,0-.45-.3A1.358,1.358,0,0,0,11.47.4h0A1.357,1.357,0,0,0,9.552.4l-.889.889.454.454A1.943,1.943,0,0,1,8.208,5,1.943,1.943,0,0,1,6.788,6.42,1.946,1.946,0,0,1,5.367,7.841a1.943,1.943,0,0,1-3.26.908l-.454-.454L.137,9.811a.469.469,0,0,0,0,.663L4.154,14.49a.469.469,0,0,0,.663,0l2.875-2.875H8.5a2.874,2.874,0,0,0,2.046-.847Z" transform="translate(0 0.886)" fill="#0436ed"/><path d="M1.043,7.981A1,1,0,0,0,2.463,6.56,1,1,0,0,0,3.884,5.14,1,1,0,0,0,5.305,3.719,1,1,0,0,0,6.726,2.3l-2-2A1,1,0,0,0,3.3,1.715l.251.251A1,1,0,0,0,2.132,3.387l.5.5A1,1,0,0,0,1.213,5.31l.5.5A1,1,0,0,0,.294,7.233Z" transform="translate(1.728 0.991)" fill="#0436ed"/><path d="M1.753.6A2.322,2.322,0,0,1,1.972.411L1.7.137A.469.469,0,0,0,1.157.049L0,.628l.865.865Z" transform="translate(7.136 0.016)" fill="#0436ed"/></g></svg>