<svg width="89" height="89" viewBox="0 0 89 89" fill="none" xmlns="http://www.w3.org/2000/svg">
<path d="M78.7095 43.1094L74.5376 34.7657C73.8423 33.236 73.286 31.5672 72.8688 29.8985C70.5048 19.0516 60.0751 11.125 47.9766 12.7938C38.1032 14.1844 30.4548 21.8329 29.0641 31.7063C28.0907 38.3813 30.1766 44.5 34.0704 49.0891C36.5735 52.1485 38.7985 57.711 38.7985 61.6047L38.9376 76.4844H57.572L57.2938 65.3594C57.1548 63.8297 58.4063 62.5782 59.797 62.5782H67.4454C75.9282 62.5782 75.511 58.6844 75.2329 54.2344C75.2329 54.2344 74.8157 49.3672 74.2595 44.5001H77.736C78.5704 44.5001 78.9876 43.6657 78.7095 43.1094Z" fill="#547CEC"/>
<path d="M59.7969 31.5672C58.4062 21.6938 50.8969 14.0453 40.8844 12.6547C28.925 11.125 18.4953 19.0516 16.1312 30.0375C15.7141 31.7063 15.2969 33.375 14.4625 34.9047L10.2906 43.1094C9.87343 43.8047 10.4297 44.5 11.125 44.5H14.6016C14.1844 49.3672 13.6281 54.2344 13.6281 54.2344C13.35 58.8234 12.9328 62.5781 21.4156 62.5781H29.064C30.5937 62.5781 31.7062 63.8297 31.5672 65.3594L31.289 76.4844H50.0625V61.6047C50.0625 57.7109 52.2875 52.0094 54.7906 49.0891C58.6844 44.5 60.7703 38.2422 59.7969 31.5672Z" fill="#DADEE7"/>
<path d="M54.7906 49.0891C58.6844 44.5001 60.7703 38.2422 59.7969 31.7063C58.6844 23.2235 52.4265 16.1313 44.5 13.6282C36.4344 16.1313 30.3156 23.2235 29.2031 31.7063C28.2297 38.3813 30.3156 44.5001 34.2094 49.0891C36.7125 52.1485 38.9375 57.711 38.9375 61.6047V76.4844H50.0625V61.6047C50.0625 57.711 52.2875 52.1485 54.7906 49.0891Z" fill="white"/>
<path fill-rule="evenodd" clip-rule="evenodd" d="M55.0687 32.2625H52.7047C52.4266 31.2891 52.1484 30.4547 51.5922 29.6203L53.2609 27.9516C53.5391 27.6734 53.5391 27.2562 53.2609 27.1172L51.4531 25.3094C51.175 25.0313 50.7578 25.0313 50.6188 25.3094L48.95 26.9781C48.1156 26.4219 47.2812 26.1438 46.3078 25.8656V23.5016C46.3078 23.2234 46.0297 22.9453 45.7516 22.9453H43.2484C42.9703 22.9453 42.6922 23.2234 42.6922 23.5016V25.8656C41.7188 26.1438 40.8844 26.4219 40.05 26.9781L38.3813 25.3094C38.1031 25.0313 37.6859 25.0313 37.5469 25.3094L35.7391 27.1172C35.4609 27.3953 35.4609 27.8125 35.7391 27.9516L37.4078 29.6203C36.8516 30.4547 36.5734 31.2891 36.2953 32.2625H33.9312C33.6531 32.2625 33.375 32.5406 33.375 32.8188V35.3219C33.375 35.6 33.6531 35.8781 33.9312 35.8781H36.2953C36.5734 36.8516 36.8516 37.6859 37.4078 38.5203L35.7391 40.1891C35.4609 40.4672 35.4609 40.8844 35.7391 41.0234L37.5469 42.8312C37.825 43.1094 38.2422 43.1094 38.3813 42.8312L40.05 41.1625C40.8844 41.7188 41.7188 41.9969 42.6922 42.275V44.6391C42.6922 44.9172 42.9703 45.1953 43.2484 45.1953H45.7516C46.0297 45.1953 46.3078 44.9172 46.3078 44.6391V42.275C47.2812 41.9969 48.1156 41.7188 48.95 41.1625L50.6188 42.8312C50.8969 43.1094 51.3141 43.1094 51.4531 42.8312L53.2609 41.0234C53.5391 40.7453 53.5391 40.3281 53.2609 40.1891L51.5922 38.5203C52.1484 37.6859 52.4266 36.8516 52.7047 35.8781H55.0687C55.3469 35.8781 55.625 35.6 55.625 35.3219V32.8188C55.625 32.5406 55.3469 32.2625 55.0687 32.2625ZM44.5 36.4344C43.1094 36.4344 42.1359 35.3219 42.1359 34.0703C42.1359 32.6797 43.2484 31.7062 44.5 31.7062C45.7516 31.7062 46.8641 32.8188 46.8641 34.0703C46.8641 35.4609 45.8906 36.4344 44.5 36.4344Z" fill="#0436ED"/>
</svg>
