<svg width="1920" height="997" viewBox="0 0 1920 997" fill="none" xmlns="http://www.w3.org/2000/svg">
<rect y="0.00195312" width="1920" height="997" fill="#880A37"/>
<rect y="0.00195312" width="1920" height="997" fill="url(#paint0_linear)"/>
<mask id="mask0" mask-type="alpha" maskUnits="userSpaceOnUse" x="0" y="0" width="1920" height="997">
<rect y="0.00195312" width="1920" height="997" fill="#880A37"/>
<rect y="0.00195312" width="1920" height="997" fill="url(#paint1_linear)"/>
</mask>
<g mask="url(#mask0)">
<path d="M55.6708 121.241C59.2959 119.227 63.7041 119.227 67.3292 121.241L136.303 159.573C140.111 161.689 142.473 165.704 142.473 170.062V245.942C142.473 250.3 140.111 254.315 136.303 256.431L67.3292 294.762C63.7041 296.777 59.2959 296.777 55.6708 294.762L-13.3026 256.431C-17.1113 254.315 -19.4734 250.3 -19.4734 245.942V170.062C-19.4734 165.704 -17.1113 161.689 -13.3026 159.573L55.6708 121.241Z" fill="white" fill-opacity="0.08"/>
<path d="M59.0979 148.182C61.5229 146.827 64.4771 146.827 66.9021 148.182L112.596 173.712C115.126 175.126 116.694 177.798 116.694 180.696V231.308C116.694 234.206 115.126 236.878 112.596 238.292L66.902 263.822C64.4771 265.177 61.5229 265.177 59.0979 263.822L13.4044 238.292C10.8741 236.878 9.30642 234.206 9.30642 231.308V180.696C9.30642 177.798 10.8741 175.126 13.4044 173.712L59.0979 148.182Z" fill="white" fill-opacity="0.08"/>
<path d="M1502.06 459.08C1503.27 458.409 1504.73 458.409 1505.94 459.08L1535.72 475.609C1536.99 476.314 1537.77 477.653 1537.77 479.106V511.897C1537.77 513.351 1536.99 514.689 1535.72 515.395L1505.94 531.924C1504.73 532.595 1503.27 532.595 1502.06 531.924L1472.28 515.395C1471.01 514.689 1470.23 513.351 1470.23 511.897V479.106C1470.23 477.653 1471.01 476.314 1472.28 475.609L1502.06 459.08Z" fill="white" fill-opacity="0.08"/>
<path d="M1323.63 453.712C1326.66 452.027 1330.34 452.027 1333.37 453.712L1372.3 475.392C1375.47 477.158 1377.43 480.501 1377.43 484.129V526.875C1377.43 530.503 1375.47 533.846 1372.3 535.611L1333.37 557.292C1330.34 558.977 1326.66 558.977 1323.63 557.292L1284.7 535.611C1281.53 533.846 1279.57 530.503 1279.57 526.875V484.129C1279.57 480.501 1281.53 477.158 1284.7 475.392L1323.63 453.712Z" fill="white" fill-opacity="0.08"/>
<path d="M477.635 296.712C480.659 295.027 484.341 295.027 487.365 296.712L526.296 318.392C529.466 320.158 531.43 323.501 531.43 327.129V369.875C531.43 373.503 529.465 376.846 526.296 378.611L487.365 400.292C484.341 401.977 480.659 401.977 477.635 400.292L438.704 378.611C435.534 376.846 433.57 373.503 433.57 369.875V327.129C433.57 323.501 435.534 320.158 438.704 318.392L477.635 296.712Z" fill="white" fill-opacity="0.08"/>
<path d="M1568.56 396.072C1569.77 395.406 1571.23 395.406 1572.44 396.072L1599.18 410.86C1600.45 411.565 1601.24 412.905 1601.24 414.361V443.643C1601.24 445.098 1600.45 446.439 1599.18 447.143L1572.44 461.932C1571.23 462.598 1569.77 462.598 1568.56 461.932L1541.82 447.143C1540.55 446.439 1539.76 445.098 1539.76 443.643V414.361C1539.76 412.905 1540.55 411.565 1541.82 410.86L1568.56 396.072Z" fill="white" fill-opacity="0.08"/>
<path d="M1003.59 449.62C1005.4 448.614 1007.6 448.614 1009.41 449.62L1037.62 465.288C1039.53 466.346 1040.71 468.354 1040.71 470.533V501.471C1040.71 503.65 1039.53 505.658 1037.62 506.716L1009.41 522.384C1007.6 523.39 1005.4 523.39 1003.59 522.384L975.379 506.716C973.474 505.658 972.292 503.65 972.292 501.471V470.533C972.292 468.354 973.474 466.346 975.379 465.288L1003.59 449.62Z" fill="white" fill-opacity="0.08"/>
<path d="M191.587 278.62C193.399 277.614 195.601 277.614 197.413 278.62L225.621 294.288C227.526 295.346 228.708 297.354 228.708 299.533V330.471C228.708 332.65 227.526 334.658 225.621 335.716L197.413 351.384C195.601 352.39 193.399 352.39 191.587 351.384L163.379 335.716C161.474 334.658 160.292 332.65 160.292 330.471V299.533C160.292 297.354 161.474 295.346 163.379 294.288L191.587 278.62Z" fill="white" fill-opacity="0.08"/>
<path d="M306.599 219.604C308.405 218.607 310.595 218.607 312.401 219.604L336.278 232.79C338.191 233.846 339.378 235.858 339.378 238.043V263.961C339.378 266.146 338.191 268.158 336.278 269.214L312.401 282.4C310.595 283.397 308.405 283.397 306.599 282.4L282.722 269.214C280.809 268.158 279.622 266.146 279.622 263.961V238.043C279.622 235.858 280.809 233.846 282.722 232.79L306.599 219.604Z" fill="white" fill-opacity="0.08"/>
</g>
<defs>
<linearGradient id="paint0_linear" x1="281" y1="698.272" x2="1506.11" y2="254.329" gradientUnits="userSpaceOnUse">
<stop stop-color="#210D57"/>
<stop offset="1" stop-color="#29115E" stop-opacity="0"/>
</linearGradient>
<linearGradient id="paint1_linear" x1="281" y1="698.272" x2="1506.11" y2="254.329" gradientUnits="userSpaceOnUse">
<stop stop-color="#210D57"/>
<stop offset="1" stop-color="#29115E" stop-opacity="0"/>
</linearGradient>
</defs>
</svg>
