<svg width="110" height="110" xmlns="http://www.w3.org/2000/svg">

 <g>
  <title>background</title>
  <rect fill="none" id="canvas_background" height="402" width="582" y="-1" x="-1"/>
 </g>
 <g>
  <title>Layer 1</title>
  <path fill="#0436ed" id="svg_2" d="m103.18994,96.63818l-6.81738,0c-0.55274,0 -1,0.44727 -1,1s0.44726,1 1,1l6.81738,0c0.55274,0 1,-0.44726 1,-1s-0.44726,-1 -1,-1z"/>
  <path stroke-opacity="0" stroke="#000000" fill="#0436ed" id="svg_3" d="m9.76654,96.63818l-2.5766,0c-0.55273,0 -1,0.44727 -1,1s0.44727,1 1,1l85.58496,0c0.55274,0 1,-0.44726 1,-1s-0.44726,-1 -1,-1l-4.9527,0c0.4256,-0.30316 0.83344,-0.63635 1.20954,-1.01367c1.7666,-1.76172 2.73926,-4.1084 2.73926,-6.6084c0,-0.99511 -0.80957,-1.80468 -1.80371,-1.80468l-2.77344,0l0,-26.08466c0.93863,-2.26237 -3.39803,8.19025 9.17383,-22.11163c0.58129,-1.39873 -0.07721,-3.00172 -1.48047,-3.58692l-8.53028,-3.53906c-1.39355,-0.58398 -3.00488,0.08105 -3.58593,1.47852l-1.146,2.76367l-5.08057,0l0,-21.16016c0,-1.99023 -1.61914,-3.60937 -3.61035,-3.60937l-48.29004,0c-1.99023,0 -3.60937,1.61914 -3.60937,3.60937l0,21.16016l-6.48047,0c-2.29883,0 -4.16992,1.86621 -4.16992,4.16015l0,46.91993l-2.77051,0c-0.98437,0 -1.80371,0.79637 -1.80371,1.80468c0,3.14582 1.56702,5.92749 3.95648,7.62207zm62.53473,-24.48437c0.01953,-0.00781 0.03809,-0.0166 0.05762,-0.02539c0.00683,0.01758 0.01269,0.03515 0.01953,0.05371c0.22656,0.60254 0.53613,1.42871 1.49512,1.82617c0.958,0.39649 1.76367,0.03418 2.35058,-0.23047c0.01758,-0.00781 0.03516,-0.01562 0.05274,-0.02344c0.00781,0.01954 0.01464,0.03907 0.02246,0.05957c0.22754,0.60157 0.53808,1.42481 1.49414,1.82129l-7.28809,6.48829l-0.55078,-9.74122c0.00098,0 0.00195,0 0.00293,0.00098c0.95703,0.39649 1.75684,0.03613 2.34375,-0.22949zm2.24316,9.05047l0,2.04718l-2.29858,0l2.29858,-2.04718zm2,-1.78125l3.39551,-3.0241l1.29395,-1.30536l0,8.15789l-4.68946,0l0,-3.82843zm3.35547,-5.93646c-0.02997,0.01215 -0.05798,0.02594 -0.08819,0.0376c-0.17146,0.06562 -0.43693,0.15218 -0.63239,0.20032c-0.08545,0.02087 -0.16272,0.03558 -0.23706,0.04791c-0.04394,0.00739 -0.09149,0.01733 -0.13031,0.02136c-0.10657,0.01074 -0.1983,0.01203 -0.25287,-0.00616c-0.13476,-0.05567 -0.21094,-0.21094 -0.38867,-0.67969c-0.11328,-0.30078 -0.24121,-0.64062 -0.44043,-0.95215c-0.06049,-0.10046 -0.14093,-0.18793 -0.23077,-0.26617c-0.03412,-0.02991 -0.07264,-0.05176 -0.10987,-0.07801c-0.13645,-0.09559 -0.20191,-0.12639 -0.33325,-0.17175c-0.12301,-0.04255 -0.26192,-0.06597 -0.34119,-0.07013c-0.02166,-0.00122 -0.04345,-0.00866 -0.065,-0.00866c-0.08398,0 -0.16699,0.00878 -0.24707,0.02929c-0.38183,0.08496 -0.70996,0.2334 -1,0.36426c-0.46094,0.20703 -0.625,0.2627 -0.76367,0.20605c-0.13477,-0.05566 -0.21191,-0.21093 -0.3877,-0.68164c-0.1123,-0.29785 -0.23925,-0.63574 -0.43652,-0.94824c-0.26367,-0.43847 -0.86133,-0.68164 -1.32324,-0.5664c-0.3877,0.08496 -0.71875,0.23437 -1.01172,0.36621c-0.45605,0.20605 -0.62012,0.26074 -0.75293,0.20703c-0.04077,-0.02051 -0.09051,-0.06903 -0.14294,-0.12793c-0.01093,-0.01227 -0.02149,-0.02326 -0.03272,-0.03693c-0.05145,-0.0625 -0.10614,-0.13861 -0.16241,-0.22595c-0.01197,-0.01855 -0.02405,-0.03882 -0.03614,-0.05829c-0.13108,-0.21192 -0.24301,-0.42369 -0.36419,-0.70917c3.47352,-8.36959 7.43477,-17.91438 11.77069,-28.362l9.90692,4.11445c-4.16026,10.02548 -7.34895,17.70961 -11.76636,28.35479zm-3.35547,-31.39526l2.60376,0l-2.60376,6.27362l0,-6.27362zm8.07227,-7.95606c0.1582,-0.3789 0.59766,-0.55761 0.97266,-0.39941l8.53027,3.53906c0.37793,0.15821 0.55859,0.59375 0.40137,0.97266c-0.00098,0 -0.00098,0.00098 -0.00098,0.00195l-2.08405,5.03052l-9.90747,-4.11133l2.0882,-5.03345zm-3.82105,3.9961l-0.48797,1.17663c-0.00281,0.00641 -0.00861,0.01026 -0.01129,0.01673l-0.31818,0.7666l-3.43378,0l0,-1.95996l4.25122,0zm-57.76098,-23.16016c0,-0.88769 0.72168,-1.60937 1.60937,-1.60937l48.29004,0c0.88768,0 1.61035,0.72168 1.61035,1.60937l0,38.21271l-5.29126,12.74914l-42.21154,0c-0.55274,0 -1,0.44727 -1,1s0.44726,1 1,1l41.38147,0l-0.43531,1.04889c-0.00219,0.00531 -0.00146,0.01123 -0.0036,0.01661c-0.02112,0.05322 -0.02502,0.11224 -0.03686,0.16931c-0.01221,0.05981 -0.03205,0.11773 -0.03321,0.17852c-0.00012,0.0047 -0.0025,0.00873 -0.0025,0.01349l-0.00976,2.1045l0.6643,11.7871l-45.53149,0l0,-68.28027zm-6.69043,68.28027l0,-41.16015l4.69043,0l0,41.16015l-4.69043,0zm-3.95996,-42.95996c0,-1.1914 0.97363,-2.16015 2.16992,-2.16015l6.48047,0l0,1.95996l-5.69043,0c-0.55274,0 -1,0.44726 -1,1l0,43.16015c0,0.55274 0.44726,1 1,1c8.20963,0 58.4242,0 66.88965,0c0.55273,0 1,-0.44726 1,-1l0,-13.58221l1.95996,-4.72302l0,21.2652l-72.80957,0l0,-46.91993zm77.38379,48.91993c-0.04883,1.8916 -0.80762,3.65918 -2.15039,4.99902c-1.38282,1.38769 -3.22657,2.15137 -5.19239,2.15137l-67.26953,0c-3.98535,0 -7.23926,-3.18946 -7.34277,-7.15039c16.12512,0 65.77137,0 81.95508,0z"/>
  <path fill="#547cec" id="svg_4" d="m47.67358,22.0639l21.86023,0c0.55274,0 1,-0.44726 1,-1s-0.44726,-1 -1,-1l-21.86023,0c-0.55273,0 -1,0.44727 -1,1s0.44727,1 1,1z"/>
  <path fill="#547cec" id="svg_5" d="m47.67358,28.66742l21.86023,0c0.55274,0 1,-0.44727 1,-1s-0.44726,-1 -1,-1l-21.86023,0c-0.55273,0 -1,0.44727 -1,1s0.44727,1 1,1z"/>
  <path fill="#547cec" id="svg_6" d="m47.67358,35.27191l21.86023,0c0.55274,0 1,-0.44726 1,-1s-0.44726,-1 -1,-1l-21.86023,0c-0.55273,0 -1,0.44727 -1,1s0.44727,1 1,1z"/>
  <path fill="#547cec" id="svg_7" d="m27.04163,42.09711l43.49804,0c0.55274,0 1,-0.44727 1,-1s-0.44726,-1 -1,-1l-43.49804,0c-0.55274,0 -1,0.44726 -1,1s0.44726,1 1,1z"/>
  <path fill="#547cec" id="svg_8" d="m27.04163,50.70844l43.49804,0c0.55274,0 1,-0.44727 1,-1s-0.44726,-1 -1,-1l-43.49804,0c-0.55274,0 -1,0.44726 -1,1s0.44726,1 1,1z"/>
  <path fill="#547cec" id="svg_9" d="m27.04163,59.32074l43.49804,0c0.55274,0 1,-0.44727 1,-1s-0.44726,-1 -1,-1l-43.49804,0c-0.55274,0 -1,0.44727 -1,1s0.44726,1 1,1z"/>
  <path fill="#547cec" id="svg_10" d="m27.04163,76.54535l21.74902,0c0.55273,0 1,-0.44727 1,-1s-0.44727,-1 -1,-1l-21.74902,0c-0.55274,0 -1,0.44726 -1,1s0.44726,1 1,1z"/>
  <path fill="#547cec" id="svg_11" d="m31.65479,31.70508l7.43383,0l1.51618,3.56683l2.75561,0l-6.89941,-15.20801l-2.24298,0l-6.87769,15.20801l2.77655,0l1.53791,-3.56683zm3.71734,-8.65143l2.79743,6.51471l-5.59565,0l2.79822,-6.51471z"/>
 </g>
</svg>