<svg width="464" height="1209" viewBox="0 0 464 1209" fill="none" xmlns="http://www.w3.org/2000/svg">
<rect width="464" height="1209" fill="#BB134F"/>
<rect width="464" height="1209" fill="url(#paint0_linear)"/>
<mask id="mask0" mask-type="alpha" maskUnits="userSpaceOnUse" x="0" y="0" width="464" height="1209">
<rect width="464" height="1209" fill="#BB134F"/>
<rect width="464" height="1209" fill="url(#paint1_linear)"/>
</mask>
<g mask="url(#mask0)">
<path d="M318.628 1127.72C321.656 1126.03 325.344 1126.03 328.372 1127.72L356.91 1143.64C360.076 1145.41 362.038 1148.75 362.038 1152.37V1183.63C362.038 1187.25 360.076 1190.59 356.91 1192.36L328.372 1208.28C325.344 1209.97 321.656 1209.97 318.628 1208.28L290.09 1192.36C286.924 1190.59 284.962 1187.25 284.962 1183.63V1152.37C284.962 1148.75 286.924 1145.41 290.09 1143.64L318.628 1127.72Z" fill="white" fill-opacity="0.08"/>
<path d="M283.127 1061.85C285.227 1060.7 287.773 1060.7 289.873 1061.85L310.153 1073.01C312.39 1074.24 313.78 1076.59 313.78 1079.14V1100.86C313.78 1103.41 312.39 1105.76 310.153 1106.99L289.873 1118.15C287.773 1119.3 285.227 1119.3 283.127 1118.15L262.847 1106.99C260.61 1105.76 259.22 1103.41 259.22 1100.86V1079.14C259.22 1076.59 260.61 1074.24 262.847 1073.01L283.127 1061.85Z" fill="white" fill-opacity="0.08"/>
<path d="M369.545 1049.83C372.616 1048.07 376.384 1048.07 379.455 1049.83L405.395 1064.62C408.514 1066.4 410.44 1069.72 410.44 1073.31V1102.69C410.44 1106.28 408.514 1109.6 405.395 1111.38L379.455 1126.17C376.384 1127.93 372.616 1127.93 369.545 1126.17L343.605 1111.38C340.486 1109.6 338.56 1106.28 338.56 1102.69V1073.31C338.56 1069.72 340.486 1066.4 343.605 1064.62L369.545 1049.83Z" fill="white" fill-opacity="0.08"/>
<path d="M51.2819 -8.7605C54.907 -10.7751 59.3153 -10.7751 62.9403 -8.7605L122.917 24.5706C126.725 26.6873 129.087 30.7023 129.087 35.0597V100.94C129.087 105.298 126.725 109.313 122.917 111.429L62.9403 144.76C59.3153 146.775 54.907 146.775 51.2819 144.76L-8.69439 111.429C-12.5031 109.313 -14.8652 105.298 -14.8652 100.94V35.0597C-14.8652 30.7023 -12.5032 26.6873 -8.6944 24.5706L51.2819 -8.7605Z" fill="white" fill-opacity="0.08"/>
<path d="M53.6534 16.8467C56.0784 15.4918 59.0325 15.4918 61.4575 16.8467L101.185 39.0435C103.715 40.4573 105.283 43.129 105.283 46.0274V89.9723C105.283 92.8707 103.715 95.5424 101.185 96.9561L61.4575 119.153C59.0325 120.508 56.0783 120.508 53.6534 119.153L13.9258 96.9561C11.3955 95.5424 9.82782 92.8707 9.82782 89.9723V46.0274C9.82782 43.129 11.3955 40.4573 13.9258 39.0435L53.6534 16.8467Z" fill="white" fill-opacity="0.08"/>
</g>
<defs>
<linearGradient id="paint0_linear" x1="188" y1="-9.04868e-09" x2="187.247" y2="1209" gradientUnits="userSpaceOnUse">
<stop stop-color="#381582"/>
<stop offset="1" stop-color="#2F1072" stop-opacity="0"/>
</linearGradient>
<linearGradient id="paint1_linear" x1="188" y1="227.267" x2="595.812" y2="336.946" gradientUnits="userSpaceOnUse">
<stop stop-color="#381582"/>
<stop offset="1" stop-color="#2F1072" stop-opacity="0"/>
</linearGradient>
</defs>
</svg>
