<svg width="1920" height="700" viewBox="0 0 1920 700" fill="none" xmlns="http://www.w3.org/2000/svg">
<rect width="1920" height="700" fill="url(#paint0_linear)"/>
<mask id="mask0" mask-type="alpha" maskUnits="userSpaceOnUse" x="0" y="0" width="1920" height="700">
<rect width="1920" height="700" fill="white"/>
</mask>
<g mask="url(#mask0)">
<g opacity="0.6">
<path d="M1066.81 356.063C1073 352.491 1080.62 352.491 1086.81 356.063L1377.55 523.92C1383.73 527.493 1387.55 534.096 1387.55 541.241V876.955C1387.55 884.1 1383.73 890.703 1377.55 894.275L1086.81 1062.13C1080.62 1065.71 1073 1065.71 1066.81 1062.13L776.071 894.275C769.883 890.703 766.071 884.1 766.071 876.955V541.241C766.071 534.096 769.883 527.493 776.071 523.92L1066.81 356.063Z" fill="#486ED1"/>
<path opacity="0.6" d="M1071.81 430.261C1074.9 428.474 1078.71 428.474 1081.81 430.261L1315.79 565.349C1318.88 567.135 1320.79 570.437 1320.79 574.009V844.186C1320.79 847.759 1318.88 851.06 1315.79 852.847L1081.81 987.935C1078.71 989.721 1074.9 989.721 1071.81 987.935L837.828 852.847C834.734 851.06 832.828 847.759 832.828 844.186V574.009C832.828 570.437 834.734 567.135 837.828 565.349L1071.81 430.261Z" fill="white"/>
</g>
<g opacity="0.6" filter="url(#filter0_f)">
<path d="M123 403L412.252 570V904L123 1071L-166.252 904V570L123 403Z" fill="#A3DBFA"/>
<path d="M123 403L412.252 570V904L123 1071L-166.252 904V570L123 403Z" fill="url(#paint1_radial)" fill-opacity="0.8"/>
</g>
<g opacity="0.6" filter="url(#filter1_f)">
<path d="M10.5 -290L216.181 -171.25V66.25L10.5 185L-195.181 66.25V-171.25L10.5 -290Z" fill="#FBD8E7"/>
<path d="M10.5 -290L216.181 -171.25V66.25L10.5 185L-195.181 66.25V-171.25L10.5 -290Z" fill="url(#paint2_radial)" fill-opacity="0.8"/>
</g>
<g opacity="0.6" filter="url(#filter2_f)">
<path d="M744.5 -298L950.181 -179.25V58.25L744.5 177L538.819 58.25V-179.25L744.5 -298Z" fill="#FFFBDC"/>
<path d="M744.5 -298L950.181 -179.25V58.25L744.5 177L538.819 58.25V-179.25L744.5 -298Z" fill="url(#paint3_radial)" fill-opacity="0.7"/>
</g>
<g opacity="0.6">
<path d="M1456.5 -409.226C1462.69 -412.799 1470.31 -412.799 1476.5 -409.226L1779.96 -234.023C1786.15 -230.451 1789.96 -223.848 1789.96 -216.703V133.703C1789.96 140.848 1786.15 147.451 1779.96 151.023L1476.5 326.227C1470.31 329.799 1462.69 329.799 1456.5 326.227L1153.04 151.023C1146.85 147.451 1143.04 140.848 1143.04 133.703V-216.703C1143.04 -223.848 1146.85 -230.451 1153.04 -234.023L1456.5 -409.226Z" fill="#7CA1D9"/>
<path opacity="0.6" d="M1461.5 -331.873C1464.59 -333.659 1468.41 -333.659 1471.5 -331.873L1715.47 -191.016C1718.56 -189.23 1720.47 -185.929 1720.47 -182.356V99.3564C1720.47 102.929 1718.56 106.23 1715.47 108.017L1471.5 248.873C1468.41 250.659 1464.59 250.659 1461.5 248.873L1217.53 108.017C1214.44 106.23 1212.53 102.929 1212.53 99.3564V-182.356C1212.53 -185.929 1214.44 -189.23 1217.53 -191.016L1461.5 -331.873Z" fill="white"/>
</g>
</g>
<defs>
<filter id="filter0_f" x="-266.252" y="303" width="778.505" height="868" filterUnits="userSpaceOnUse" color-interpolation-filters="sRGB">
<feFlood flood-opacity="0" result="BackgroundImageFix"/>
<feBlend mode="normal" in="SourceGraphic" in2="BackgroundImageFix" result="shape"/>
<feGaussianBlur stdDeviation="50" result="effect1_foregroundBlur"/>
</filter>
<filter id="filter1_f" x="-295.181" y="-390" width="611.362" height="675" filterUnits="userSpaceOnUse" color-interpolation-filters="sRGB">
<feFlood flood-opacity="0" result="BackgroundImageFix"/>
<feBlend mode="normal" in="SourceGraphic" in2="BackgroundImageFix" result="shape"/>
<feGaussianBlur stdDeviation="50" result="effect1_foregroundBlur"/>
</filter>
<filter id="filter2_f" x="438.819" y="-398" width="611.362" height="675" filterUnits="userSpaceOnUse" color-interpolation-filters="sRGB">
<feFlood flood-opacity="0" result="BackgroundImageFix"/>
<feBlend mode="normal" in="SourceGraphic" in2="BackgroundImageFix" result="shape"/>
<feGaussianBlur stdDeviation="50" result="effect1_foregroundBlur"/>
</filter>
<linearGradient id="paint0_linear" x1="389" y1="295.981" x2="1138.26" y2="497.701" gradientUnits="userSpaceOnUse">
<stop stop-color="#F8F8FF"/>
<stop offset="1" stop-color="#F2F3FF"/>
</linearGradient>
<radialGradient id="paint1_radial" cx="0" cy="0" r="1" gradientUnits="userSpaceOnUse" gradientTransform="translate(123 726.749) rotate(-90) scale(323.749)">
<stop offset="0.411458" stop-color="white" stop-opacity="0.92"/>
<stop offset="1" stop-color="white" stop-opacity="0"/>
</radialGradient>
<radialGradient id="paint2_radial" cx="0" cy="0" r="1" gradientUnits="userSpaceOnUse" gradientTransform="translate(10.5 -59.789) rotate(-90) scale(230.211)">
<stop offset="0.411458" stop-color="white" stop-opacity="0.92"/>
<stop offset="1" stop-color="white" stop-opacity="0"/>
</radialGradient>
<radialGradient id="paint3_radial" cx="0" cy="0" r="1" gradientUnits="userSpaceOnUse" gradientTransform="translate(744.5 -67.789) rotate(-90) scale(230.211)">
<stop offset="0.411458" stop-color="#FAFAFF"/>
<stop offset="1" stop-color="white" stop-opacity="0"/>
</radialGradient>
</defs>
</svg>
