<svg xmlns="http://www.w3.org/2000/svg" width="418.674" height="275.757" viewBox="0 0 418.674 275.757"><path d="M8.979,275.757A9.005,9.005,0,0,1,0,266.778V0H418.673V266.778a9.005,9.005,0,0,1-8.979,8.979Z" fill="#0436ed"/><path d="M0,245.426H413.587V0H0Z" transform="translate(3 3)" fill="#fffffe"/><g transform="translate(25.74 107)"><path d="M25.2,50.4A25.206,25.206,0,0,1,15.39,1.98,25.206,25.206,0,0,1,35.008,48.419,25.042,25.042,0,0,1,25.2,50.4Zm0-49.112A23.913,23.913,0,1,0,49.112,25.2,23.939,23.939,0,0,0,25.2,1.287Z" transform="translate(0)" fill="none" stroke="#060e1e" stroke-linecap="round" stroke-linejoin="round" stroke-miterlimit="10" stroke-width="1.43"/><path d="M18.284,16.43A20.768,20.768,0,0,1,0,5.539a32.947,32.947,0,0,1,36.569,0A20.768,20.768,0,0,1,18.284,16.43" transform="translate(6.915 29.564)" fill="#fe438a"/><path d="M9.264,18.529a9.264,9.264,0,1,1,9.264-9.265,9.265,9.265,0,0,1-9.264,9.265" transform="translate(15.936 8.817)" fill="#fe438a"/><path d="M15.819,25.907C7.082,25.907,0,20.108,0,12.954S7.082,0,15.819,0H284.486A12.954,12.954,0,0,1,297.44,12.954h0a12.954,12.954,0,0,1-12.954,12.954Z" transform="translate(64.556 12.246)" fill="#547ced"/></g><g transform="translate(25.74 175.64)"><path d="M25.2,50.4A25.206,25.206,0,0,1,15.39,1.98,25.206,25.206,0,0,1,35.008,48.419,25.042,25.042,0,0,1,25.2,50.4Zm0-49.112A23.913,23.913,0,1,0,49.112,25.2,23.939,23.939,0,0,0,25.2,1.287Z" transform="translate(0)" fill="none" stroke="#060e1e" stroke-linecap="round" stroke-linejoin="round" stroke-miterlimit="10" stroke-width="1.43"/><path d="M18.284,16.43A20.768,20.768,0,0,1,0,5.539a32.947,32.947,0,0,1,36.569,0A20.768,20.768,0,0,1,18.284,16.43" transform="translate(6.915 29.564)" fill="#fe438a"/><path d="M9.264,18.529a9.264,9.264,0,1,1,9.264-9.265,9.265,9.265,0,0,1-9.264,9.265" transform="translate(15.936 8.817)" fill="#fe438a"/><path d="M15.794,25.907C7.071,25.907,0,20.108,0,12.954S7.071,0,15.794,0H231.763a12.766,12.766,0,0,1,12.766,12.766v4.8a7.97,7.97,0,0,1-7.97,7.97h-7.97Z" transform="translate(64.556 12.246)" fill="#547ced"/></g><path d="M.714,20.3V0h0V20.3h0" transform="translate(417.958 60.909)" fill="#c5cdd4"/><g transform="translate(178.75 25.49)"><path d="M62.806,31.4A31.4,31.4,0,1,1,31.4,0a31.4,31.4,0,0,1,31.4,31.4" transform="translate(0 0)" fill="#fe438a"/><path d="M37.469,17.264H23.144V2.939a2.94,2.94,0,0,0-5.879,0V17.264H2.94a2.94,2.94,0,1,0,0,5.88H17.265V37.469a2.94,2.94,0,0,0,5.879,0V23.144H37.469a2.94,2.94,0,0,0,0-5.88" transform="translate(11.199 11.199)" fill="#fffffe"/></g></svg>