<svg width="92" height="92" viewBox="0 0 92 92" fill="none" xmlns="http://www.w3.org/2000/svg">
<path d="M66.125 53.1875H15.8125V32.3437C15.8125 31.05 16.675 29.9 17.825 29.6125L62.3875 15.6687C64.2563 15.0937 66.125 16.5312 66.125 18.4V53.1875Z" fill="#547CEC"/>
<path d="M46.7188 43.125C55.0548 43.125 61.8125 36.3673 61.8125 28.0312C61.8125 19.6952 55.0548 12.9375 46.7188 12.9375C38.3827 12.9375 31.625 19.6952 31.625 28.0312C31.625 36.3673 38.3827 43.125 46.7188 43.125Z" fill="#0436ED"/>
<path d="M41.6875 33.0625H48.875C50.4563 33.0625 51.75 31.7688 51.75 30.1875C51.75 28.6062 50.4563 27.3125 48.875 27.3125H44.5625" stroke="white" stroke-width="2" stroke-miterlimit="10"/>
<path d="M41.6875 21.5625H47.4375C49.0188 21.5625 50.3125 22.8562 50.3125 24.4375C50.3125 26.0188 49.0188 27.3125 47.4375 27.3125H44.5625" stroke="white" stroke-width="2" stroke-miterlimit="10"/>
<path d="M44.5625 21.5625V33.0625" stroke="white" stroke-width="2" stroke-miterlimit="10"/>
<path d="M46 18.6875V20.125" stroke="white" stroke-width="2" stroke-miterlimit="10"/>
<path d="M46 33.0625V35.9375" stroke="white" stroke-width="2" stroke-miterlimit="10"/>
<path d="M19.4062 79.0625H73.3125C74.8937 79.0625 76.1875 77.7687 76.1875 76.1875V38.8125C76.1875 37.2312 74.8937 35.9375 73.3125 35.9375H19.4062C17.3938 35.9375 15.8125 34.3563 15.8125 32.3438V75.4688C15.8125 77.4813 17.3938 79.0625 19.4062 79.0625Z" fill="#DADEE7"/>
<path d="M69 62.5312H76.1875V53.9062H69C66.5562 53.9062 64.6875 55.775 64.6875 58.2188C64.6875 60.6625 66.5562 62.5312 69 62.5312Z" fill="#547CEC"/>
</svg>
