<svg viewBox="0 0 1920 186" fill="none" xmlns="http://www.w3.org/2000/svg"  preserveAspectRatio="true">
<path d="M0 0H1920V186H0V0Z" fill="#BB134F"/>
<path d="M0 0H1920V186H0V0Z" fill="url(#paint0_linear)"/>
<mask id="mask0" mask-type="alpha" maskUnits="userSpaceOnUse" x="0" y="0" width="1920" height="186">
<path d="M0 0H1920V186H0V0Z" fill="#BB134F"/>
<path d="M0 0H1920V186H0V0Z" fill="url(#paint1_linear)"/>
</mask>
<g mask="url(#mask0)">
<path d="M54.6708 -36.7605C58.2959 -38.7751 62.7041 -38.7751 66.3292 -36.7605L135.303 1.57064C139.111 3.68732 141.473 7.70231 141.473 12.0597V87.9403C141.473 92.2977 139.111 96.3127 135.303 98.4294L66.3292 136.76C62.7041 138.775 58.2959 138.775 54.6708 136.76L-14.3026 98.4294C-18.1113 96.3127 -20.4734 92.2977 -20.4734 87.9403V12.0597C-20.4734 7.70231 -18.1113 3.68731 -14.3026 1.57064L54.6708 -36.7605Z" fill="white" fill-opacity="0.08"/>
<path d="M58.0979 -13.8198C60.5229 -15.1747 63.4771 -15.1747 65.9021 -13.8198L111.596 11.7104C114.126 13.1241 115.694 15.7958 115.694 18.6942V69.3058C115.694 72.2042 114.126 74.8759 111.596 76.2896L65.902 101.82C63.4771 103.175 60.5229 103.175 58.0979 101.82L12.4044 76.2896C9.87412 74.8759 8.30642 72.2042 8.30642 69.3058V18.6942C8.30642 15.7958 9.87412 13.1241 12.4044 11.7104L58.0979 -13.8198Z" fill="white" fill-opacity="0.08"/>
<path d="M1519.08 115.63C1520.89 114.617 1523.11 114.617 1524.92 115.63L1557.03 133.534C1558.93 134.593 1560.11 136.598 1560.11 138.774V174.226C1560.11 176.402 1558.93 178.407 1557.03 179.466L1524.92 197.37C1523.11 198.383 1520.89 198.383 1519.08 197.37L1486.97 179.466C1485.07 178.407 1483.89 176.402 1483.89 174.226V138.774C1483.89 136.598 1485.07 134.593 1486.97 133.534L1519.08 115.63Z" fill="white" fill-opacity="0.08"/>
<path d="M1430.63 11.7097C1433.66 10.025 1437.34 10.025 1440.37 11.7097L1479.3 33.3905C1482.47 35.1557 1484.43 38.4991 1484.43 42.1271V84.8729C1484.43 88.5009 1482.47 91.8443 1479.3 93.6095L1440.37 115.29C1437.34 116.975 1433.66 116.975 1430.63 115.29L1391.7 93.6095C1388.53 91.8443 1386.57 88.5009 1386.57 84.8729V42.1271C1386.57 38.4991 1388.53 35.1557 1391.7 33.3905L1430.63 11.7097Z" fill="white" fill-opacity="0.08"/>
<path d="M1562.59 45.6181C1564.4 44.6118 1566.6 44.6118 1568.41 45.6181L1596.62 61.2856C1598.53 62.3437 1599.71 64.3516 1599.71 66.5308V97.4692C1599.71 99.6484 1598.53 101.656 1596.62 102.714L1568.41 118.382C1566.6 119.388 1564.4 119.388 1562.59 118.382L1534.38 102.714C1532.47 101.656 1531.29 99.6484 1531.29 97.4692V66.5308C1531.29 64.3516 1532.47 62.3437 1534.38 61.2856L1562.59 45.6181Z" fill="white" fill-opacity="0.08"/>
<path d="M190.587 120.618C192.399 119.612 194.601 119.612 196.413 120.618L224.621 136.286C226.526 137.344 227.708 139.352 227.708 141.531V172.469C227.708 174.648 226.526 176.656 224.621 177.714L196.413 193.382C194.601 194.388 192.399 194.388 190.587 193.382L162.379 177.714C160.474 176.656 159.292 174.648 159.292 172.469V141.531C159.292 139.352 160.474 137.344 162.379 136.286L190.587 120.618Z" fill="white" fill-opacity="0.08"/>
<path d="M305.599 61.6018C307.405 60.6049 309.595 60.6049 311.401 61.6018L335.278 74.7883C337.191 75.8444 338.378 77.8562 338.378 80.0406V105.959C338.378 108.144 337.191 110.156 335.278 111.212L311.401 124.398C309.595 125.395 307.405 125.395 305.599 124.398L281.722 111.212C279.809 110.156 278.622 108.144 278.622 105.959V80.0406C278.622 77.8562 279.809 75.8444 281.722 74.7883L305.599 61.6018Z" fill="white" fill-opacity="0.08"/>
</g>
<defs>
<linearGradient id="paint0_linear" x1="281" y1="144.953" x2="623.461" y2="-452.848" gradientUnits="userSpaceOnUse">
<stop stop-color="#381582"/>
<stop offset="1" stop-color="#2F1072" stop-opacity="0"/>
</linearGradient>
<linearGradient id="paint1_linear" x1="281" y1="144.953" x2="623.461" y2="-452.848" gradientUnits="userSpaceOnUse">
<stop stop-color="#381582"/>
<stop offset="1" stop-color="#2F1072" stop-opacity="0"/>
</linearGradient>
</defs>
</svg>
