<svg width="128" height="128" xmlns="http://www.w3.org/2000/svg">

 <g>
  <title>background</title>
  <rect fill="none" id="canvas_background" height="402" width="582" y="-1" x="-1"/>
 </g>
 <g>
  <title>Layer 1</title>
  <path fill="#0436ed" id="svg_2" d="m107,41.9c-2.4,-2 -4.7,-0.7 -6.2,0.5c-7.6,6 -14,10.8 -20.9,16c-7.6,5.7 -15.4,11.6 -23.8,18.3c-6.4,5.2 -7.9,12.2 -4.1,19.3c1.1,2.3 3.6,4.4 6.8,5.6c1.7,0.7 3.5,1 5.1,1c4.6,0 8.8,-2.5 12,-7.1c6.5,-9.4 11.9,-17.6 17.7,-26.4c4.5,-6.8 8.5,-13.2 13.6,-20.8c1.8,-2.4 1.6,-4.9 -0.2,-6.4z" class="st0"/>
  <path fill="#547cec" id="svg_3" d="m64,38.1c6.6,0.6 12.9,2.5 18.6,5.4c0.8,0.4 1.7,0.9 2.5,1.4c0.8,-0.7 1.7,-1.3 2.5,-2c3.4,-2.7 6.7,-5.3 10.1,-8c-2.9,-1.8 -5.9,-3.4 -9.1,-4.7c-0.6,-0.3 -1.2,-0.5 -1.8,-0.7c-7,-2.7 -14.7,-4.2 -22.7,-4.2c-34.8,0 -63,28.2 -63,63l5.6,0c0.6,-7.5 2.7,-14.8 6,-21.3c3.3,-6.4 7.9,-12.1 13.3,-16.7c5.4,-4.6 11.6,-8 18.1,-10c6.5,-2.1 13.3,-2.8 19.9,-2.2z" class="st1"/>
  <path fill="#547cec" id="svg_4" d="m127,88.3c0,-0.4 0,-0.8 0,-1.2c0,-0.2 0,-0.3 0,-0.5c-0.1,-2.4 -0.3,-4.9 -0.6,-7.3c-1.5,-10.6 -5.6,-20.3 -11.6,-28.5l-4.6,6.8c-2.1,3 -4.1,6.1 -6.2,9.1c0.6,1.5 1.1,2.9 1.6,4.4c1.7,5.7 2.2,11.5 1.6,17.2l19.8,0z" class="st1"/>
 </g>
</svg>