<svg xmlns="http://www.w3.org/2000/svg" width="20" height="20" viewBox="0 0 20 20"><rect width="20" height="20" fill="none"/><g transform="translate(2 2)"><path d="M7.843,0a7.843,7.843,0,1,0,7.843,7.843A7.846,7.846,0,0,0,7.843,0Z" transform="translate(0 0)" fill="#0436ed"/><path d="M3.757,4.784c-1.4-.463-2.071-.753-2.071-1.49,0-.8.871-1.09,1.42-1.09A1.515,1.515,0,0,1,4.6,3.255l1.239-.525A2.687,2.687,0,0,0,3.749.98V0H2.376V.988A2.419,2.419,0,0,0,.322,3.31c0,1.78,1.765,2.282,2.627,2.6,1.239.439,1.788.839,1.788,1.592,0,.886-.824,1.263-1.553,1.263A2.071,2.071,0,0,1,1.3,7.122L0,7.647A3.166,3.166,0,0,0,2.369,9.969V10.98H3.741v-.973A2.6,2.6,0,0,0,6.11,7.482C6.118,6.392,5.639,5.435,3.757,4.784Z" transform="translate(4.784 2.353)" fill="#fafafa"/></g></svg>