<svg width="128" height="128" xmlns="http://www.w3.org/2000/svg">

 <g>
  <title>background</title>
  <rect fill="none" id="canvas_background" height="402" width="582" y="-1" x="-1"/>
 </g>
 <g>
  <title>Layer 1</title>
  <path stroke-miterlimit="10" stroke-linejoin="round" stroke-linecap="round" stroke-width="4" stroke="#0436ed" fill="none" id="svg_1" d="m26.048,39.427l-13.048,10.231l0,61.429c0,3.818 3.095,6.913 6.913,6.913l88.201,0c3.803,0 6.886,-3.095 6.886,-5.761l0,-62.581l-12.918,-10.129" class="st1"/>
  <polyline stroke-miterlimit="10" stroke-linejoin="round" stroke-linecap="round" stroke-width="4" stroke="#dadee7" fill="none" id="svg_2" points="101,57 101,21 27,21 27,57 " class="st2"/>
  <line stroke-miterlimit="10" stroke-linejoin="round" stroke-linecap="round" stroke-width="4" stroke="#0436ed" fill="none" id="svg_3" y2="102.186677" y1="49.792677" x2="26.934677" x1="114.702677" class="st1"/>
  <line stroke-miterlimit="10" stroke-linejoin="round" stroke-linecap="round" stroke-width="4" stroke="#0436ed" fill="none" id="svg_4" y2="79.318" y1="49.604" x2="64" x1="13.486" class="st1"/>
  <line stroke-linejoin="round" stroke-linecap="round" stroke-width="4" stroke="#dadee7" fill="none" id="svg_7" y2="94" y1="94" x2="91.05" x1="91" class="st5"/>
  <line stroke-linejoin="round" stroke-linecap="round" stroke-width="4" stroke="#dadee7" fill="none" id="svg_8" y2="94" y1="94" x2="99" x1="98.95" class="st5"/>
  <line stroke-miterlimit="10" stroke-linejoin="round" stroke-linecap="round" stroke-width="4" stroke="#547cec" fill="none" id="svg_9" y2="102" y1="102" x2="99" x1="75" class="st2"/>
  <line stroke-miterlimit="10" stroke-linejoin="round" stroke-linecap="round" stroke-width="4" stroke="#547cec" fill="none" id="svg_10" y2="6" y1="66" x2="64" x1="64" class="st3"/>
  <polyline stroke-miterlimit="10" stroke-linejoin="round" stroke-linecap="round" stroke-width="4" stroke="#0436ed" fill="none" id="svg_11" points="57.25,12 64,5.25 70.75,12 " class="st3"/>
  <polyline stroke-miterlimit="10" stroke-linejoin="round" stroke-linecap="round" stroke-width="4" stroke="#547cec" fill="none" id="svg_12" points="79,58 79,34 95,18 " class="st3"/>
  <polyline stroke-miterlimit="10" stroke-linejoin="round" stroke-linecap="round" stroke-width="4" stroke="#0436ed" fill="none" id="svg_13" points="86.5,17.5 95.5,17.5 95.5,26.5 " class="st3"/>
  <polyline stroke-miterlimit="10" stroke-linejoin="round" stroke-linecap="round" stroke-width="4" stroke="#547cec" fill="none" id="svg_14" points="49,57 49,28 37,16 " class="st3"/>
  <polyline stroke-miterlimit="10" stroke-linejoin="round" stroke-linecap="round" stroke-width="4" stroke="#0436ed" fill="none" id="svg_15" points="36,24 36,15 45,15 " class="st3"/>
 </g>
</svg>