<svg width="65" height="65" xmlns="http://www.w3.org/2000/svg">

 <g>
  <title>background</title>
  <rect fill="none" id="canvas_background" height="402" width="582" y="-1" x="-1"/>
 </g>
 <g>
  <title>Layer 1</title>
  <path id="svg_2" fill="#dadee7" d="m20.916,48.333l0.382,0.151l0,5.896l-9.831,0l0,-6.399l0.403,-0.151c0.101,-0.03 0.191,-0.06 0.261,-0.091c0.02,-0.252 0.02,-0.543 0.02,-0.845c0,-0.453 -0.02,-0.926 -0.04,-1.268c-0.02,-0.021 -0.04,-0.04 -0.05,-0.06c-0.594,-0.584 -1.056,-1.841 -1.379,-3.009c-0.141,-0.04 -0.272,-0.111 -0.392,-0.201c-0.916,-0.725 -0.936,-3.039 -0.866,-3.562c0.091,-0.604 0.443,-0.765 0.644,-0.805c0.07,-0.02 0.131,-0.02 0.191,-0.02c0.01,-0.02 0.02,-0.04 0.03,-0.06c0.05,-0.101 0.111,-0.252 0.121,-0.302l0.01,-0.443l0.433,-0.161l0,-0.593c0,-0.634 0.151,-1.258 0.453,-1.932l0.161,-0.363l8.452,0l0.131,0.423c0.131,0.373 0.181,0.735 0.231,1.087c0.04,0.302 0.081,0.584 0.171,0.855l0.06,0.211c0.04,0.141 0.101,0.332 0.141,0.383l0.543,0.06l-0.04,0.523c0,0.071 0.04,0.181 0.09,0.302l0,0.01c0.05,0 0.111,0.01 0.171,0.02c0.201,0.04 0.543,0.201 0.634,0.805c0.081,0.523 0.06,2.837 -0.855,3.562c-0.121,0.09 -0.262,0.161 -0.402,0.201c-0.322,1.197 -0.805,2.495 -1.419,3.059l0,0.06c-0.02,0.342 -0.04,0.815 -0.05,1.258c0,0.292 0,0.563 0.02,0.805c0.364,0.121 0.937,0.332 1.571,0.594z"/>
  <path id="svg_3" fill="#0436ed" d="m28.873,55.021c0,0 0,0 0,0c-0.275,-2.849 -3.31,-4.383 -5.123,-5.298c-0.334,-0.169 -0.631,-0.318 -0.867,-0.455c-0.526,-0.304 -2.305,-1.316 -3.13,-1.597c-0.155,-0.054 -0.328,-0.041 -0.477,0.035c-0.147,0.077 -0.257,0.21 -0.304,0.369c-0.329,1.125 -1.977,1.965 -3.231,1.965c-1.254,0 -2.902,-0.84 -3.231,-1.965c-0.046,-0.16 -0.156,-0.293 -0.304,-0.369c-0.147,-0.076 -0.319,-0.089 -0.478,-0.035c-0.823,0.282 -2.602,1.294 -3.127,1.597c-0.236,0.136 -0.534,0.286 -0.867,0.454c-1.814,0.916 -4.849,2.45 -5.125,5.299c-0.157,1.631 -0.186,4.651 -0.182,6.895c0.004,1.425 1.165,2.584 2.591,2.584l21.45,0c1.428,0 2.588,-1.16 2.588,-2.584c0,-3.315 -0.061,-5.635 -0.183,-6.895z"/>
  <path id="svg_4" fill="#0436ed" d="m15.624,47.256c-1.761,-0.07 -3.089,-1.227 -3.512,-1.63c0.02,0.342 0.04,0.815 0.04,1.268c0.745,0.573 1.942,1.248 3.431,1.308l0.201,0c1.217,0 2.405,-0.423 3.542,-1.268c0.01,-0.443 0.03,-0.916 0.05,-1.258c-1.217,1.097 -2.485,1.631 -3.752,1.58z"/>
  <path id="svg_5" fill="#547cec" d="m20.447,32.363c-0.99,-1.08 -2.431,-1.652 -4.282,-1.701c-0.011,0 -0.077,0 -0.086,0c-4.258,0.112 -6.241,2.092 -6.241,6.233c0,2.424 0.878,4.36 0.916,4.442c0.129,0.281 0.445,0.419 0.742,0.324c0.294,-0.096 0.469,-0.398 0.407,-0.701c-0.22,-1.072 -0.034,-2.16 0.216,-2.998c3.395,0.439 5.589,-0.752 6.725,-1.66c0.604,1.147 1.241,2.974 0.897,4.658c-0.063,0.31 0.122,0.617 0.427,0.706c0.057,0.016 0.114,0.024 0.17,0.024c0.247,0 0.476,-0.15 0.568,-0.391c0.031,-0.081 0.753,-1.988 0.898,-4.368c0.116,-1.894 -0.353,-3.474 -1.357,-4.568z"/>
  <path id="svg_7" fill="#dadee7" d="m52.863,47.739l0,-0.05c-0.02,-0.231 -0.02,-0.503 -0.02,-0.775c0,-0.453 0.02,-0.926 0.05,-1.258l0,-0.04c0.614,-0.563 1.097,-1.862 1.419,-3.059c0.141,-0.04 0.272,-0.111 0.392,-0.201c0.926,-0.725 0.946,-3.039 0.865,-3.562c-0.03,-0.211 -0.101,-0.372 -0.191,-0.493c0,0 0.01,0 0,-0.01c-0.131,-0.201 -0.312,-0.272 -0.443,-0.302c-0.06,-0.01 -0.111,-0.02 -0.171,-0.02l0,-0.01c-0.05,-0.121 -0.101,-0.231 -0.091,-0.302l0.04,-0.523l-0.554,-0.06c-0.03,-0.051 -0.09,-0.242 -0.131,-0.383l-0.07,-0.211c-0.08,-0.272 -0.121,-0.553 -0.171,-0.855c-0.04,-0.352 -0.091,-0.714 -0.221,-1.087l-0.131,-0.423l-8.452,0l-0.161,0.363c-0.302,0.684 -0.453,1.298 -0.453,1.932l-0.01,0.181c0,0.171 0,0.403 0.01,0.413l-0.433,0.161l-0.02,0.443c0,0.05 -0.06,0.201 -0.111,0.302c-0.01,0.02 -0.02,0.04 -0.03,0.06c-0.06,0 -0.131,0.01 -0.191,0.02c-0.121,0.02 -0.292,0.091 -0.433,0.262c-0.09,0.121 -0.171,0.292 -0.211,0.543c-0.081,0.523 -0.05,2.837 0.865,3.562c0.121,0.09 0.252,0.161 0.393,0.201c0.332,1.197 0.805,2.495 1.429,3.059l0,0.01c0.02,0.322 0.03,0.755 0.04,1.187c0,0.302 0,0.604 -0.02,0.866l0,0.06c-0.081,0.03 -0.171,0.06 -0.262,0.091l-0.402,0.151l0,6.399l9.831,0l0,-5.896l-0.382,-0.151c-0.633,-0.263 -1.206,-0.474 -1.569,-0.595z"/>
  <path id="svg_8" fill="#0436ed" d="m62.389,55.021l0,0c-0.276,-2.85 -3.312,-4.383 -5.125,-5.299c-0.333,-0.168 -0.631,-0.318 -0.866,-0.453c-0.525,-0.303 -2.3,-1.314 -3.128,-1.598c-0.157,-0.054 -0.329,-0.041 -0.477,0.035c-0.147,0.076 -0.258,0.21 -0.304,0.369c-0.329,1.125 -1.977,1.965 -3.231,1.965c-1.254,0 -2.902,-0.84 -3.231,-1.965c-0.046,-0.16 -0.156,-0.293 -0.304,-0.369c-0.147,-0.076 -0.32,-0.089 -0.476,-0.035c-0.825,0.281 -2.604,1.294 -3.13,1.597c-0.236,0.137 -0.533,0.286 -0.867,0.455c-1.813,0.916 -4.848,2.449 -5.123,5.298c-0.126,1.303 -0.187,3.623 -0.183,6.896c0.002,1.424 1.163,2.583 2.588,2.583l21.451,0c1.427,0 2.587,-1.16 2.587,-2.584c0.001,-3.322 -0.06,-5.642 -0.181,-6.895z"/>
  <path id="svg_9" fill="#547cec" d="m55.5,33.609c-0.29,-0.488 -0.854,-1.087 -1.924,-1.301c-0.335,-0.557 -1.217,-1.594 -3.211,-1.774c-0.668,-0.059 -5.587,0.24 -6.567,0.301c-0.196,0.012 -0.373,0.118 -0.478,0.283c-0.104,0.166 -0.123,0.371 -0.049,0.553c0.003,0.007 0.283,0.702 0.54,1.54c-1.335,2.099 -0.852,4.684 -0.587,5.219c0.049,0.097 0.142,0.355 0.264,0.681c0.883,2.36 1.212,3 1.842,3c0.188,0 0.364,-0.087 0.48,-0.235c0.115,-0.148 0.155,-0.341 0.109,-0.524c-0.006,-0.024 -0.61,-2.434 -0.489,-4.182c0.033,-0.483 0.235,-1.041 0.473,-1.472c2.532,1.632 5.652,0.744 7.132,0.157c0.199,0.406 0.371,0.853 0.4,1.107c0.161,1.437 -0.435,4.389 -0.441,4.419c-0.036,0.179 0.01,0.364 0.125,0.506c0.116,0.141 0.289,0.224 0.472,0.224c0.759,0 1.011,-0.959 1.429,-2.548c0.14,-0.531 0.284,-1.079 0.409,-1.385c0.524,-1.28 0.856,-3.245 0.071,-4.569z"/>
  <circle id="svg_11" r="15.646" fill="#547cec" cy="16.146" cx="32.5"/>
  <path id="svg_12" fill="#dadee7" d="m32.5,2.955c-7.274,0 -13.191,5.917 -13.191,13.19c0,7.273 5.917,13.191 13.191,13.191c7.273,0 13.191,-5.917 13.191,-13.191c0,-7.272 -5.917,-13.19 -13.191,-13.19z"/>
  <path id="svg_14" fill="#0436ed" d="m32.5,29.337c-7.274,0 -13.191,-5.917 -13.191,-13.191c0,-7.273 5.917,-13.191 13.191,-13.191c0.267,0 0.484,0.217 0.484,0.484s-0.217,0.485 -0.484,0.485c-6.74,0 -12.222,5.483 -12.222,12.222c0,6.74 5.482,12.222 12.222,12.222c0.267,0 0.484,0.217 0.484,0.484s-0.217,0.485 -0.484,0.485z"/>
  <path id="svg_16" fill="#0436ed" d="m32.5,6.744c0.267,0 0.484,-0.217 0.484,-0.484l0,-0.935c0,-0.267 -0.217,-0.484 -0.484,-0.484c-0.267,0 -0.485,0.217 -0.485,0.484l0,0.935c0.001,0.267 0.218,0.484 0.485,0.484z"/>
  <path id="svg_17" fill="#0436ed" d="m32.5,25.548c-0.267,0 -0.485,0.217 -0.485,0.484l0,0.935c0,0.267 0.217,0.484 0.485,0.484c0.267,0 0.484,-0.217 0.484,-0.484l0,-0.935c0.001,-0.267 -0.217,-0.484 -0.484,-0.484z"/>
  <path id="svg_18" fill="#0436ed" d="m43.321,15.662l-0.934,0c-0.267,0 -0.484,0.217 -0.484,0.484c0,0.267 0.217,0.484 0.484,0.484l0.934,0c0.267,0 0.484,-0.217 0.484,-0.484c0,-0.267 -0.217,-0.484 -0.484,-0.484z"/>
  <path id="svg_19" fill="#0436ed" d="m22.614,15.662l-0.934,0c-0.267,0 -0.484,0.217 -0.484,0.484c0,0.267 0.217,0.484 0.484,0.484l0.934,0c0.267,0 0.485,-0.217 0.485,-0.484c-0.001,-0.267 -0.218,-0.484 -0.485,-0.484z"/>
  <path id="svg_20" fill="#0436ed" d="m38.178,15.662l-5.193,0l0,-7.316c0,-0.267 -0.217,-0.484 -0.484,-0.484c-0.267,0 -0.485,0.217 -0.485,0.484l0,7.8c0,0.267 0.217,0.484 0.485,0.484l5.678,0c0.267,0 0.484,-0.217 0.484,-0.484c-0.001,-0.267 -0.218,-0.484 -0.485,-0.484z"/>
  <path id="svg_22" fill="#0436ed" d="m61.644,26.868c-0.216,-0.217 -0.57,-0.217 -0.786,0l-1.366,1.366l0,-12.088c0,-0.307 -0.249,-0.556 -0.556,-0.556l-8.436,0c-0.308,0 -0.556,0.25 -0.556,0.556c0,0.308 0.249,0.556 0.556,0.556l7.88,0l0,11.533l-1.367,-1.366c-0.216,-0.217 -0.57,-0.217 -0.786,0c-0.217,0.217 -0.217,0.569 0,0.787l2.315,2.315c0.051,0.051 0.112,0.092 0.18,0.121c0.067,0.028 0.14,0.043 0.214,0.043s0.147,-0.015 0.214,-0.043c0.068,-0.028 0.129,-0.07 0.18,-0.121l2.314,-2.315c0.217,-0.219 0.217,-0.571 0,-0.788z"/>
  <path id="svg_23" fill="#0436ed" d="m14.5,15.59l-8.436,0c-0.308,0 -0.556,0.25 -0.556,0.556l0,12.088l-1.366,-1.366c-0.216,-0.217 -0.57,-0.217 -0.786,0c-0.217,0.217 -0.217,0.569 0,0.787l2.314,2.315c0.051,0.051 0.112,0.092 0.18,0.121c0.067,0.028 0.14,0.043 0.214,0.043c0.074,0 0.147,-0.015 0.214,-0.043c0.068,-0.028 0.129,-0.07 0.18,-0.121l2.315,-2.315c0.217,-0.217 0.217,-0.569 0,-0.787c-0.216,-0.217 -0.57,-0.217 -0.786,0l-1.367,1.366l0,-11.532l7.88,0c0.308,0 0.556,-0.249 0.556,-0.556c0.001,-0.307 -0.248,-0.556 -0.556,-0.556z"/>
  <path id="svg_24" fill="#0436ed" d="m45.629,45.627c0.02,0.322 0.03,0.755 0.04,1.187c0.885,0.543 2.254,1.177 3.824,1.177c1.056,0 2.203,-0.282 3.35,-1.076c0,-0.453 0.02,-0.926 0.05,-1.258c-3.058,2.585 -6.127,0.804 -7.264,-0.03z"/>
 </g>
</svg>