<svg width="56" height="56" viewBox="0 0 56 56" fill="none" xmlns="http://www.w3.org/2000/svg">
<path d="M18.375 13.125H14.875C14.35 13.125 14 13.475 14 14V34.125C14 34.65 14.35 35 14.875 35H18.375C18.9 35 19.25 34.65 19.25 34.125V14C19.25 13.475 18.9 13.125 18.375 13.125Z" fill="#DADEE7"/>
<path d="M34.125 13.125H30.625C30.1 13.125 29.75 13.475 29.75 14V34.125C29.75 34.65 30.1 35 30.625 35H34.125C34.65 35 35 34.65 35 34.125V14C35 13.475 34.65 13.125 34.125 13.125Z" fill="#DADEE7"/>
<path d="M10.5 21H7C6.475 21 6.125 21.35 6.125 21.875V34.125C6.125 34.65 6.475 35 7 35H10.5C11.025 35 11.375 34.65 11.375 34.125V21.875C11.375 21.35 11.025 21 10.5 21Z" fill="#DADEE7"/>
<path d="M26.25 7H22.75C22.225 7 21.875 7.35 21.875 7.875V34.125C21.875 34.65 22.225 35 22.75 35H26.25C26.775 35 27.125 34.65 27.125 34.125V7.875C27.125 7.35 26.775 7 26.25 7Z" fill="#DADEE7"/>
<path d="M49 48.125H15.75C14.7875 48.125 14 47.3375 14 46.375V28.875C14 27.9125 14.7875 27.125 15.75 27.125H49C49.9625 27.125 50.75 27.9125 50.75 28.875V46.375C50.75 47.3375 49.9625 48.125 49 48.125Z" fill="#547CEC"/>
<path d="M32.375 45.5C36.7242 45.5 40.25 41.9742 40.25 37.625C40.25 33.2758 36.7242 29.75 32.375 29.75C28.0258 29.75 24.5 33.2758 24.5 37.625C24.5 41.9742 28.0258 45.5 32.375 45.5Z" fill="#0436ED"/>
<path d="M44.625 39.375C45.5915 39.375 46.375 38.5915 46.375 37.625C46.375 36.6585 45.5915 35.875 44.625 35.875C43.6585 35.875 42.875 36.6585 42.875 37.625C42.875 38.5915 43.6585 39.375 44.625 39.375Z" fill="#0436ED"/>
<path d="M20.125 39.375C21.0915 39.375 21.875 38.5915 21.875 37.625C21.875 36.6585 21.0915 35.875 20.125 35.875C19.1585 35.875 18.375 36.6585 18.375 37.625C18.375 38.5915 19.1585 39.375 20.125 39.375Z" fill="#0436ED"/>
</svg>
