<svg width="1920" height="753" viewBox="0 0 1920 753" preserveAspectRatio="true" fill="none" xmlns="http://www.w3.org/2000/svg">
<mask id="mask0" mask-type="alpha" maskUnits="userSpaceOnUse" x="0" y="0" width="1920" height="753">
<rect width="1920" height="753" fill="#C4C4C4"/>
</mask>
<g mask="url(#mask0)">
<rect width="1920" height="753" fill="white"/>
<rect width="1920" height="753" fill="url(#paint0_linear)"/>
<g opacity="0.3">
<mask id="path-3-inside-1" fill="white">
<path fill-rule="evenodd" clip-rule="evenodd" d="M1152.31 1244.6C1161.59 1249.96 1173.03 1249.96 1182.31 1244.6L1519.62 1049.86C1528.9 1044.5 1534.62 1034.59 1534.62 1023.88V634.387C1534.62 623.669 1528.9 613.765 1519.62 608.406L1182.31 413.661C1173.03 408.302 1161.59 408.302 1152.31 413.661L815 608.406C805.718 613.765 800 623.669 800 634.387L800 1023.88C800 1034.59 805.718 1044.5 815 1049.86L1152.31 1244.6ZM1159.81 1153.48C1164.45 1156.16 1170.17 1156.16 1174.81 1153.48L1444.45 997.799C1449.09 995.119 1451.95 990.167 1451.95 984.808V673.455C1451.95 668.096 1449.09 663.144 1444.45 660.464L1174.81 504.787C1170.17 502.108 1164.45 502.108 1159.81 504.787L890.168 660.464C885.527 663.144 882.668 668.096 882.668 673.455L882.668 984.808C882.668 990.167 885.527 995.119 890.168 997.799L1159.81 1153.48Z"/>
</mask>
<path d="M1182.31 1244.6L1183.81 1247.2V1247.2L1182.31 1244.6ZM1152.31 1244.6L1150.81 1247.2V1247.2L1152.31 1244.6ZM1519.62 1049.86L1518.12 1047.26H1518.12L1519.62 1049.86ZM1519.62 608.406L1518.12 611.004H1518.12L1519.62 608.406ZM1182.31 413.661L1180.81 416.259L1182.31 413.661ZM1152.31 413.661L1153.81 416.259L1152.31 413.661ZM815 608.406L816.5 611.004L815 608.406ZM815 1049.86L813.5 1052.46V1052.46L815 1049.86ZM1174.81 1153.48L1173.31 1150.88L1174.81 1153.48ZM1159.81 1153.48L1161.31 1150.88L1159.81 1153.48ZM1444.45 997.799L1442.95 995.201L1444.45 997.799ZM1444.45 660.464L1442.95 663.062H1442.95L1444.45 660.464ZM1174.81 504.787L1176.31 502.189H1176.31L1174.81 504.787ZM1159.81 504.787L1158.31 502.189L1159.81 504.787ZM890.168 660.464L891.668 663.062L890.168 660.464ZM890.168 997.799L891.668 995.201L890.168 997.799ZM1180.81 1242C1172.45 1246.83 1162.16 1246.83 1153.81 1242L1150.81 1247.2C1161.02 1253.09 1173.6 1253.09 1183.81 1247.2L1180.81 1242ZM1518.12 1047.26L1180.81 1242L1183.81 1247.2L1521.12 1052.46L1518.12 1047.26ZM1531.62 1023.88C1531.62 1033.52 1526.47 1042.44 1518.12 1047.26L1521.12 1052.46C1531.33 1046.56 1537.62 1035.67 1537.62 1023.88H1531.62ZM1531.62 634.387V1023.88H1537.62V634.387H1531.62ZM1518.12 611.004C1526.47 615.827 1531.62 624.74 1531.62 634.387H1537.62C1537.62 622.597 1531.33 611.703 1521.12 605.808L1518.12 611.004ZM1180.81 416.259L1518.12 611.004L1521.12 605.808L1183.81 411.063L1180.81 416.259ZM1153.81 416.259C1162.16 411.436 1172.45 411.436 1180.81 416.259L1183.81 411.063C1173.6 405.168 1161.02 405.168 1150.81 411.063L1153.81 416.259ZM816.5 611.004L1153.81 416.259L1150.81 411.063L813.5 605.808L816.5 611.004ZM803 634.387C803 624.74 808.146 615.827 816.5 611.004L813.5 605.808C803.29 611.703 797 622.597 797 634.387H803ZM803 1023.88L803 634.387H797L797 1023.88H803ZM816.5 1047.26C808.146 1042.44 803 1033.52 803 1023.88H797C797 1035.67 803.29 1046.56 813.5 1052.46L816.5 1047.26ZM1153.81 1242L816.5 1047.26L813.5 1052.46L1150.81 1247.2L1153.81 1242ZM1173.31 1150.88C1169.6 1153.02 1165.02 1153.02 1161.31 1150.88L1158.31 1156.07C1163.88 1159.29 1170.74 1159.29 1176.31 1156.07L1173.31 1150.88ZM1442.95 995.201L1173.31 1150.88L1176.31 1156.07L1445.95 1000.4L1442.95 995.201ZM1448.95 984.808C1448.95 989.096 1446.66 993.057 1442.95 995.201L1445.95 1000.4C1451.52 997.181 1454.95 991.239 1454.95 984.808H1448.95ZM1448.95 673.455V984.808H1454.95V673.455H1448.95ZM1442.95 663.062C1446.66 665.206 1448.95 669.168 1448.95 673.455H1454.95C1454.95 667.024 1451.52 661.082 1445.95 657.866L1442.95 663.062ZM1173.31 507.386L1442.95 663.062L1445.95 657.866L1176.31 502.189L1173.31 507.386ZM1161.31 507.386C1165.02 505.242 1169.6 505.242 1173.31 507.386L1176.31 502.189C1170.74 498.974 1163.88 498.974 1158.31 502.189L1161.31 507.386ZM891.668 663.062L1161.31 507.386L1158.31 502.189L888.668 657.866L891.668 663.062ZM885.668 673.455C885.668 669.168 887.955 665.206 891.668 663.062L888.668 657.866C883.099 661.082 879.668 667.024 879.668 673.455H885.668ZM885.668 984.808L885.668 673.455H879.668L879.668 984.808H885.668ZM891.668 995.201C887.955 993.057 885.668 989.096 885.668 984.808H879.668C879.668 991.239 883.099 997.181 888.668 1000.4L891.668 995.201ZM1161.31 1150.88L891.668 995.201L888.668 1000.4L1158.31 1156.07L1161.31 1150.88Z" fill="url(#paint1_linear)" mask="url(#path-3-inside-1)"/>
</g>
<g opacity="0.3">
<mask id="path-5-inside-2" fill="white">
<path fill-rule="evenodd" clip-rule="evenodd" d="M528.321 -526.472C519.039 -531.831 507.603 -531.831 498.321 -526.472L92.6427 -292.253C83.3607 -286.894 77.6427 -276.99 77.6427 -266.272V202.165C77.6427 212.883 83.3607 222.787 92.6427 228.146L498.321 462.364C507.603 467.723 519.039 467.723 528.321 462.364L934 228.146C943.282 222.787 949 212.883 949 202.165V-266.272C949 -276.99 943.282 -286.894 934 -292.253L528.321 -526.472ZM520.821 -441.134C516.18 -443.813 510.462 -443.813 505.821 -441.134L162.797 -243.089C158.156 -240.41 155.297 -235.458 155.297 -230.099V165.991C155.297 171.35 158.156 176.302 162.797 178.982L505.821 377.027C510.462 379.706 516.18 379.706 520.821 377.027L863.845 178.982C868.486 176.302 871.345 171.35 871.345 165.991V-230.099C871.345 -235.458 868.486 -240.41 863.845 -243.089L520.821 -441.134Z"/>
</mask>
<path d="M498.321 -526.472L499.821 -523.874V-523.874L498.321 -526.472ZM528.321 -526.472L529.821 -529.07V-529.07L528.321 -526.472ZM92.6427 -292.253L94.1427 -289.655L92.6427 -292.253ZM92.6427 228.146L94.1427 225.548H94.1427L92.6427 228.146ZM498.321 462.364L499.821 459.766L498.321 462.364ZM528.321 462.364L526.821 459.766L528.321 462.364ZM934 228.146L932.5 225.548L934 228.146ZM934 -292.253L935.5 -294.851V-294.851L934 -292.253ZM505.821 -441.134L507.321 -438.536L505.821 -441.134ZM520.821 -441.134L522.321 -443.732L520.821 -441.134ZM162.797 -243.089L164.297 -240.491H164.297L162.797 -243.089ZM162.797 178.982L164.297 176.384H164.297L162.797 178.982ZM505.821 377.027L507.321 374.429L505.821 377.027ZM520.821 377.027L519.321 374.429L520.821 377.027ZM863.845 178.982L865.345 181.58L863.845 178.982ZM863.845 -243.089L862.345 -240.491L863.845 -243.089ZM499.821 -523.874C508.175 -528.697 518.467 -528.697 526.821 -523.874L529.821 -529.07C519.611 -534.965 507.032 -534.965 496.821 -529.07L499.821 -523.874ZM94.1427 -289.655L499.821 -523.874L496.821 -529.07L91.1427 -294.851L94.1427 -289.655ZM80.6427 -266.272C80.6427 -275.918 85.7889 -284.832 94.1427 -289.655L91.1427 -294.851C80.9325 -288.956 74.6427 -278.062 74.6427 -266.272H80.6427ZM80.6427 202.165V-266.272H74.6427V202.165H80.6427ZM94.1427 225.548C85.7889 220.725 80.6427 211.811 80.6427 202.165H74.6427C74.6427 213.955 80.9324 224.849 91.1427 230.744L94.1427 225.548ZM499.821 459.766L94.1427 225.548L91.1427 230.744L496.821 464.962L499.821 459.766ZM526.821 459.766C518.467 464.589 508.175 464.589 499.821 459.766L496.821 464.962C507.032 470.857 519.611 470.857 529.821 464.962L526.821 459.766ZM932.5 225.548L526.821 459.766L529.821 464.962L935.5 230.744L932.5 225.548ZM946 202.165C946 211.811 940.854 220.725 932.5 225.548L935.5 230.744C945.71 224.849 952 213.955 952 202.165H946ZM946 -266.272V202.165H952V-266.272H946ZM932.5 -289.655C940.854 -284.832 946 -275.918 946 -266.272H952C952 -278.062 945.71 -288.956 935.5 -294.851L932.5 -289.655ZM526.821 -523.874L932.5 -289.655L935.5 -294.851L529.821 -529.07L526.821 -523.874ZM507.321 -438.536C511.034 -440.68 515.608 -440.68 519.321 -438.536L522.321 -443.732C516.752 -446.947 509.891 -446.947 504.321 -443.732L507.321 -438.536ZM164.297 -240.491L507.321 -438.536L504.321 -443.732L161.297 -245.687L164.297 -240.491ZM158.297 -230.099C158.297 -234.386 160.585 -238.347 164.297 -240.491L161.297 -245.687C155.728 -242.472 152.297 -236.529 152.297 -230.099H158.297ZM158.297 165.991V-230.099H152.297V165.991H158.297ZM164.297 176.384C160.585 174.24 158.297 170.279 158.297 165.991H152.297C152.297 172.422 155.728 178.364 161.297 181.58L164.297 176.384ZM507.321 374.429L164.297 176.384L161.297 181.58L504.321 379.625L507.321 374.429ZM519.321 374.429C515.608 376.572 511.034 376.572 507.321 374.429L504.321 379.625C509.891 382.84 516.752 382.84 522.321 379.625L519.321 374.429ZM862.345 176.384L519.321 374.429L522.321 379.625L865.345 181.58L862.345 176.384ZM868.345 165.991C868.345 170.279 866.058 174.24 862.345 176.384L865.345 181.58C870.914 178.364 874.345 172.422 874.345 165.991H868.345ZM868.345 -230.099V165.991H874.345V-230.099H868.345ZM862.345 -240.491C866.058 -238.347 868.345 -234.386 868.345 -230.099H874.345C874.345 -236.529 870.915 -242.472 865.345 -245.687L862.345 -240.491ZM519.321 -438.536L862.345 -240.491L865.345 -245.687L522.321 -443.732L519.321 -438.536Z" fill="url(#paint2_linear)" mask="url(#path-5-inside-2)"/>
</g>
</g>
<defs>
<linearGradient id="paint0_linear" x1="800" y1="0" x2="800" y2="753" gradientUnits="userSpaceOnUse">
<stop stop-color="#FCFCFF"/>
<stop offset="1" stop-color="#EDEDF7"/>
</linearGradient>
<linearGradient id="paint1_linear" x1="1528.9" y1="-4307.42" x2="795.665" y2="-4307.1" gradientUnits="userSpaceOnUse">
<stop stop-color="#FA99CD"/>
<stop offset="1" stop-color="#EF9AC3" stop-opacity="0"/>
</linearGradient>
<linearGradient id="paint2_linear" x1="200.894" y1="1217.91" x2="1002.08" y2="1137.99" gradientUnits="userSpaceOnUse">
<stop stop-color="#9EB4FC"/>
<stop offset="1" stop-color="#EEF2FF" stop-opacity="0"/>
</linearGradient>
</defs>
</svg>
