<svg width="375" height="1857" viewBox="0 0 375 1857" fill="none" xmlns="http://www.w3.org/2000/svg">
<rect width="375" height="1857" fill="white"/>
<rect width="375" height="1857" fill="url(#paint0_linear)"/>
<mask id="mask0" mask-type="alpha" maskUnits="userSpaceOnUse" x="0" y="0" width="375" height="1857">
<rect width="375" height="1857" fill="white"/>
<rect width="375" height="1857" fill="url(#paint1_linear)"/>
</mask>
<g mask="url(#mask0)">
<g opacity="0.3">
<mask id="path-3-inside-1" fill="white">
<path fill-rule="evenodd" clip-rule="evenodd" d="M298 1274.55C288.718 1269.19 277.282 1269.19 268 1274.55L73 1387.14C63.718 1392.49 58 1402.4 58 1413.12L58 1638.28C58 1649 63.718 1658.91 73 1664.26L268 1776.85C277.282 1782.21 288.718 1782.21 298 1776.85L493 1664.26C502.282 1658.91 508 1649 508 1638.28L508 1413.12C508 1402.4 502.282 1392.49 493 1387.14L298 1274.55ZM290.5 1328.7C285.859 1326.02 280.141 1326.02 275.5 1328.7L116.139 1420.7C111.498 1423.38 108.639 1428.33 108.639 1433.69L108.639 1617.71C108.639 1623.07 111.498 1628.02 116.139 1630.7L275.5 1722.7C280.141 1725.38 285.859 1725.38 290.5 1722.7L449.861 1630.7C454.502 1628.02 457.361 1623.07 457.361 1617.71L457.361 1433.69C457.361 1428.33 454.502 1423.38 449.861 1420.7L290.5 1328.7Z"/>
</mask>
<path d="M268 1274.55L269 1276.28L268 1274.55ZM298 1274.55L297 1276.28L298 1274.55ZM73 1387.14L72 1385.4L73 1387.14ZM73 1664.26L74 1662.53H74L73 1664.26ZM268 1776.85L267 1778.58L268 1776.85ZM298 1776.85L299 1778.58L298 1776.85ZM493 1664.26L492 1662.53L493 1664.26ZM508 1413.12H506H508ZM493 1387.14L492 1388.87L493 1387.14ZM275.5 1328.7L276.5 1330.43V1330.43L275.5 1328.7ZM290.5 1328.7L291.5 1326.96L290.5 1328.7ZM116.139 1420.7L117.139 1422.43L116.139 1420.7ZM116.139 1630.7L115.139 1632.43H115.139L116.139 1630.7ZM275.5 1722.7L274.5 1724.44L275.5 1722.7ZM290.5 1722.7L289.5 1720.97L290.5 1722.7ZM449.861 1630.7L450.861 1632.43L449.861 1630.7ZM449.861 1420.7L448.861 1422.43L449.861 1420.7ZM269 1276.28C277.663 1271.28 288.337 1271.28 297 1276.28L299 1272.82C289.099 1267.1 276.901 1267.1 267 1272.82L269 1276.28ZM74 1388.87L269 1276.28L267 1272.82L72 1385.4L74 1388.87ZM60 1413.12C60 1403.11 65.3368 1393.87 74 1388.87L72 1385.4C62.0992 1391.12 56 1401.68 56 1413.12H60ZM60 1638.28L60 1413.12H56L56 1638.28H60ZM74 1662.53C65.3368 1657.53 60 1648.29 60 1638.28H56C56 1649.72 62.0992 1660.28 72 1666L74 1662.53ZM269 1775.12L74 1662.53L72 1666L267 1778.58L269 1775.12ZM297 1775.12C288.337 1780.12 277.663 1780.12 269 1775.12L267 1778.58C276.901 1784.3 289.099 1784.3 299 1778.58L297 1775.12ZM492 1662.53L297 1775.12L299 1778.58L494 1666L492 1662.53ZM506 1638.28C506 1648.29 500.663 1657.53 492 1662.53L494 1666C503.901 1660.28 510 1649.72 510 1638.28H506ZM506 1413.12L506 1638.28H510L510 1413.12H506ZM492 1388.87C500.663 1393.87 506 1403.11 506 1413.12H510C510 1401.68 503.901 1391.12 494 1385.4L492 1388.87ZM297 1276.28L492 1388.87L494 1385.4L299 1272.82L297 1276.28ZM276.5 1330.43C280.522 1328.11 285.478 1328.11 289.5 1330.43L291.5 1326.96C286.24 1323.93 279.76 1323.93 274.5 1326.96L276.5 1330.43ZM117.139 1422.43L276.5 1330.43L274.5 1326.96L115.139 1418.97L117.139 1422.43ZM110.639 1433.69C110.639 1429.05 113.117 1424.76 117.139 1422.43L115.139 1418.97C109.88 1422.01 106.639 1427.62 106.639 1433.69H110.639ZM110.639 1617.71L110.639 1433.69H106.639L106.639 1617.71H110.639ZM117.139 1628.97C113.117 1626.64 110.639 1622.35 110.639 1617.71H106.639C106.639 1623.78 109.88 1629.39 115.139 1632.43L117.139 1628.97ZM276.5 1720.97L117.139 1628.97L115.139 1632.43L274.5 1724.44L276.5 1720.97ZM289.5 1720.97C285.478 1723.29 280.522 1723.29 276.5 1720.97L274.5 1724.44C279.76 1727.47 286.24 1727.47 291.5 1724.44L289.5 1720.97ZM448.861 1628.97L289.5 1720.97L291.5 1724.44L450.861 1632.43L448.861 1628.97ZM455.361 1617.71C455.361 1622.35 452.883 1626.64 448.861 1628.97L450.861 1632.43C456.12 1629.39 459.361 1623.78 459.361 1617.71H455.361ZM455.361 1433.69L455.361 1617.71H459.361L459.361 1433.69H455.361ZM448.861 1422.43C452.883 1424.76 455.361 1429.05 455.361 1433.69H459.361C459.361 1427.62 456.121 1422.01 450.861 1418.97L448.861 1422.43ZM289.5 1330.43L448.861 1422.43L450.861 1418.97L291.5 1326.96L289.5 1330.43Z" fill="url(#paint2_linear)" mask="url(#path-3-inside-1)"/>
</g>
<g opacity="0.3">
<mask id="path-5-inside-2" fill="white">
<path fill-rule="evenodd" clip-rule="evenodd" d="M200.537 437.239C209.819 431.88 215.537 421.976 215.537 411.258L215.537 164.419C215.537 153.702 209.819 143.798 200.537 138.439L-13.2313 15.0193C-22.5133 9.66029 -33.9492 9.6603 -43.2313 15.0193L-257 138.439C-266.282 143.798 -272 153.702 -272 164.419L-272 411.258C-272 421.976 -266.282 431.88 -257 437.239L-43.2313 560.659C-33.9493 566.018 -22.5133 566.018 -13.2313 560.659L200.537 437.239ZM164.588 407.824C169.229 405.144 172.088 400.192 172.088 394.833L172.088 180.844C172.088 175.485 169.229 170.533 164.588 167.854L-20.7315 60.8595C-25.3725 58.18 -31.0905 58.18 -35.7315 60.8595L-221.051 167.854C-225.692 170.533 -228.551 175.485 -228.551 180.844L-228.551 394.833C-228.551 400.192 -225.692 405.144 -221.051 407.824L-35.7315 514.818C-31.0905 517.497 -25.3725 517.497 -20.7315 514.818L164.588 407.824Z"/>
</mask>
<path d="M215.537 411.258L213.537 411.258L213.537 411.258L215.537 411.258ZM200.537 437.239L199.537 435.507L199.537 435.507L200.537 437.239ZM215.537 164.419L213.537 164.419L213.537 164.419L215.537 164.419ZM-43.2313 15.0193L-42.2313 16.7513L-43.2313 15.0193ZM-257 138.439L-256 140.171L-257 138.439ZM-272 164.419L-270 164.419L-272 164.419ZM-272 411.258L-270 411.258L-272 411.258ZM-13.2313 560.659L-12.2313 562.391L-13.2313 560.659ZM172.088 394.833L174.088 394.833L172.088 394.833ZM164.588 407.824L163.588 406.092L163.588 406.092L164.588 407.824ZM172.088 180.844L170.088 180.844L172.088 180.844ZM-35.7315 60.8595L-36.7315 59.1275L-36.7315 59.1275L-35.7315 60.8595ZM-221.051 167.854L-220.051 169.586L-221.051 167.854ZM-228.551 180.844L-226.551 180.844L-228.551 180.844ZM-228.551 394.833L-226.551 394.833L-228.551 394.833ZM-20.7315 514.818L-19.7315 516.55L-19.7315 516.55L-20.7315 514.818ZM213.537 411.258C213.537 421.262 208.201 430.505 199.537 435.507L201.537 438.971C211.438 433.255 217.537 422.691 217.537 411.258L213.537 411.258ZM213.537 164.419L213.537 411.258L217.537 411.258L217.537 164.419L213.537 164.419ZM199.537 140.171C208.201 145.172 213.537 154.416 213.537 164.419L217.537 164.419C217.537 152.987 211.438 142.423 201.537 136.707L199.537 140.171ZM-14.2313 16.7513L199.537 140.171L201.537 136.707L-12.2313 13.2872L-14.2313 16.7513ZM-42.2313 16.7513C-33.568 11.7496 -22.8945 11.7496 -14.2313 16.7513L-12.2313 13.2872C-22.1321 7.57097 -34.3304 7.57098 -44.2313 13.2872L-42.2313 16.7513ZM-256 140.171L-42.2313 16.7513L-44.2313 13.2872L-258 136.707L-256 140.171ZM-270 164.419C-270 154.416 -264.663 145.172 -256 140.171L-258 136.707C-267.901 142.423 -274 152.987 -274 164.419L-270 164.419ZM-270 411.258L-270 164.419L-274 164.419L-274 411.258L-270 411.258ZM-256 435.507C-264.663 430.505 -270 421.262 -270 411.258L-274 411.258C-274 422.691 -267.901 433.255 -258 438.971L-256 435.507ZM-42.2313 558.927L-256 435.507L-258 438.971L-44.2313 562.391L-42.2313 558.927ZM-14.2313 558.927C-22.8945 563.928 -33.5681 563.928 -42.2313 558.927L-44.2313 562.391C-34.3304 568.107 -22.1321 568.107 -12.2313 562.391L-14.2313 558.927ZM199.537 435.507L-14.2313 558.927L-12.2313 562.391L201.537 438.971L199.537 435.507ZM170.088 394.833C170.088 399.478 167.61 403.769 163.588 406.092L165.588 409.556C170.848 406.519 174.088 400.907 174.088 394.833L170.088 394.833ZM170.088 180.844L170.088 394.833L174.088 394.833L174.088 180.844L170.088 180.844ZM163.588 169.586C167.611 171.908 170.088 176.2 170.088 180.844L174.088 180.844C174.088 174.771 170.848 169.159 165.588 166.122L163.588 169.586ZM-21.7315 62.5916L163.588 169.586L165.588 166.122L-19.7315 59.1275L-21.7315 62.5916ZM-34.7315 62.5916C-30.7093 60.2694 -25.7537 60.2694 -21.7315 62.5916L-19.7315 59.1275C-24.9913 56.0907 -31.4717 56.0907 -36.7315 59.1275L-34.7315 62.5916ZM-220.051 169.586L-34.7315 62.5916L-36.7315 59.1275L-222.051 166.122L-220.051 169.586ZM-226.551 180.844C-226.551 176.2 -224.074 171.908 -220.051 169.586L-222.051 166.122C-227.311 169.159 -230.551 174.771 -230.551 180.844L-226.551 180.844ZM-226.551 394.833L-226.551 180.844L-230.551 180.844L-230.551 394.833L-226.551 394.833ZM-220.051 406.092C-224.073 403.769 -226.551 399.478 -226.551 394.833L-230.551 394.833C-230.551 400.907 -227.311 406.519 -222.051 409.556L-220.051 406.092ZM-34.7315 513.086L-220.051 406.092L-222.051 409.556L-36.7315 516.55L-34.7315 513.086ZM-21.7315 513.086C-25.7537 515.408 -30.7093 515.408 -34.7315 513.086L-36.7315 516.55C-31.4717 519.587 -24.9913 519.587 -19.7315 516.55L-21.7315 513.086ZM163.588 406.092L-21.7315 513.086L-19.7315 516.55L165.588 409.556L163.588 406.092Z" fill="url(#paint3_linear)" mask="url(#path-5-inside-2)"/>
</g>
</g>
<defs>
<linearGradient id="paint0_linear" x1="187.5" y1="0" x2="187.5" y2="1857" gradientUnits="userSpaceOnUse">
<stop stop-color="#FCFCFF"/>
<stop offset="1" stop-color="#EDEDF7"/>
</linearGradient>
<linearGradient id="paint1_linear" x1="187.5" y1="0" x2="187.5" y2="1857" gradientUnits="userSpaceOnUse">
<stop stop-color="#FCFCFF"/>
<stop offset="1" stop-color="#EDEDF7"/>
</linearGradient>
<linearGradient id="paint2_linear" x1="61.5019" y1="4638.68" x2="510.656" y2="4638.48" gradientUnits="userSpaceOnUse">
<stop stop-color="#FA99CD"/>
<stop offset="1" stop-color="#EF9AC3" stop-opacity="0"/>
</linearGradient>
<linearGradient id="paint3_linear" x1="-540.202" y1="-209.598" x2="-725.169" y2="201.128" gradientUnits="userSpaceOnUse">
<stop stop-color="#9EB4FC"/>
<stop offset="1" stop-color="#EEF2FF" stop-opacity="0"/>
</linearGradient>
</defs>
</svg>
