<svg width="93" height="94" viewBox="0 0 93 94" fill="none" xmlns="http://www.w3.org/2000/svg">
<g clip-path="url(#clip0)">
<path d="M46.5 69.752C59.3406 69.752 69.75 59.3426 69.75 46.502C69.75 33.6613 59.3406 23.252 46.5 23.252C33.6594 23.252 23.25 33.6613 23.25 46.502C23.25 59.3426 33.6594 69.752 46.5 69.752Z" fill="#547CEC"/>
<path d="M46.5 69.752C59.3406 69.752 69.75 59.3426 69.75 46.502C69.75 33.6613 59.3406 23.252 46.5 23.252C33.6594 23.252 23.25 33.6613 23.25 46.502C23.25 59.3426 33.6594 69.752 46.5 69.752Z" fill="#547CEC"/>
<path d="M60.4502 16.1316C63.3564 17.4394 65.9721 19.1832 68.2971 21.2175" stroke="#DADEE7" stroke-width="2" stroke-miterlimit="10" stroke-linecap="round" stroke-dasharray="0.1 0.1"/>
<path d="M32.6954 15.9863C29.6438 17.2941 26.8829 19.1832 24.4126 21.3629" stroke="#DADEE7" stroke-width="2" stroke-miterlimit="10" stroke-linecap="round" stroke-dasharray="0.11 0.11"/>
<path d="M13.2234 49.8441C13.0781 48.6816 13.0781 47.6645 13.0781 46.502C13.0781 44.3223 13.2234 42.1426 13.6594 39.9629" stroke="#DADEE7" stroke-width="2" stroke-miterlimit="10" stroke-linecap="round" stroke-dasharray="0.11 0.11"/>
<path d="M38.5068 78.9067C38.5068 78.9067 38.363 78.9067 38.5068 78.9067" stroke="#DADEE7" stroke-width="2" stroke-miterlimit="10" stroke-linecap="round"/>
<path d="M32.5498 76.8723C29.6436 75.5645 26.8826 73.8208 24.5576 71.7864" stroke="#DADEE7" stroke-width="2" stroke-miterlimit="10" stroke-linecap="round" stroke-dasharray="0.11 0.11"/>
<path d="M71.0571 69.1707C71.0571 69.1707 70.9133 69.3144 71.0571 69.1707" stroke="#DADEE7" stroke-width="2" stroke-miterlimit="10" stroke-linecap="round"/>
<path d="M66.2624 73.3848C63.6468 75.2738 60.7405 76.8723 57.689 77.8895" stroke="#DADEE7" stroke-width="2" stroke-miterlimit="10" stroke-linecap="round" stroke-dasharray="0.11 0.11"/>
<path d="M79.7768 43.1597C79.9221 44.3222 79.9221 45.3394 79.9221 46.5019C79.9221 48.6815 79.7768 50.8612 79.3408 52.8956" stroke="#DADEE7" stroke-width="2" stroke-miterlimit="10" stroke-linecap="round" stroke-dasharray="0.11 0.11"/>
<path d="M46.5 20.7815V20.6362" stroke="#DADEE7" stroke-width="2" stroke-miterlimit="10" stroke-linecap="round"/>
<path d="M46.5 72.077V71.9316" stroke="#DADEE7" stroke-width="2" stroke-miterlimit="10" stroke-linecap="round"/>
<path d="M21.2158 31.9708V31.8254" stroke="#DADEE7" stroke-width="2" stroke-miterlimit="10" stroke-linecap="round"/>
<path d="M72.9471 61.7598H72.8018" stroke="#DADEE7" stroke-width="2" stroke-miterlimit="10" stroke-linecap="round"/>
<path d="M72.0752 31.6802V31.8255" stroke="#DADEE7" stroke-width="2" stroke-miterlimit="10" stroke-linecap="round"/>
<path d="M68.8782 33.5693L68.7329 33.7146" stroke="#DADEE7" stroke-width="2" stroke-miterlimit="10" stroke-linecap="round"/>
<path d="M46.5 69.752C59.3406 69.752 69.75 59.3426 69.75 46.502C69.75 33.6613 59.3406 23.252 46.5 23.252C33.6594 23.252 23.25 33.6613 23.25 46.502C23.25 59.3426 33.6594 69.752 46.5 69.752Z" fill="#547CEC"/>
<path d="M46.5 18.6019C48.9076 18.6019 50.8594 16.6502 50.8594 14.2426C50.8594 11.8349 48.9076 9.88318 46.5 9.88318C44.0924 9.88318 42.1406 11.8349 42.1406 14.2426C42.1406 16.6502 44.0924 18.6019 46.5 18.6019Z" fill="#DADEE7"/>
<path d="M46.5 83.1206C48.9076 83.1206 50.8594 81.1688 50.8594 78.7612C50.8594 76.3536 48.9076 74.4019 46.5 74.4019C44.0924 74.4019 42.1406 76.3536 42.1406 78.7612C42.1406 81.1688 44.0924 83.1206 46.5 83.1206Z" fill="#DADEE7"/>
<path d="M18.6001 34.7317C21.0077 34.7317 22.9595 32.7799 22.9595 30.3723C22.9595 27.9647 21.0077 26.0129 18.6001 26.0129C16.1925 26.0129 14.2407 27.9647 14.2407 30.3723C14.2407 32.7799 16.1925 34.7317 18.6001 34.7317Z" fill="#DADEE7"/>
<path d="M74.3999 66.991C76.8075 66.991 78.7593 65.0392 78.7593 62.6316C78.7593 60.224 76.8075 58.2722 74.3999 58.2722C71.9923 58.2722 70.0405 60.224 70.0405 62.6316C70.0405 65.0392 71.9923 66.991 74.3999 66.991Z" fill="#DADEE7"/>
<path d="M18.6001 66.991C21.0077 66.991 22.9595 65.0392 22.9595 62.6316C22.9595 60.224 21.0077 58.2722 18.6001 58.2722C16.1925 58.2722 14.2407 60.224 14.2407 62.6316C14.2407 65.0392 16.1925 66.991 18.6001 66.991Z" fill="#DADEE7"/>
<path d="M74.3999 34.7317C76.8075 34.7317 78.7593 32.7799 78.7593 30.3723C78.7593 27.9647 76.8075 26.0129 74.3999 26.0129C71.9923 26.0129 70.0405 27.9647 70.0405 30.3723C70.0405 32.7799 71.9923 34.7317 74.3999 34.7317Z" fill="#DADEE7"/>
<path d="M66.9892 35.3129H57.5438C56.236 29.7911 53.911 25.577 51.0048 23.5426C49.5517 23.252 48.0985 23.1067 46.6454 23.1067C45.1923 23.1067 43.7392 23.252 42.286 23.5426C39.3798 25.577 37.0548 29.7911 35.747 35.3129H26.3017C25.5751 36.6208 24.9938 37.9286 24.5579 39.3817H34.8751C34.5845 41.5614 34.4392 44.0317 34.4392 46.502C34.4392 48.9723 34.5845 51.2973 34.8751 53.6223H24.4126C24.8485 55.0754 25.4298 56.3833 26.1563 57.6911H35.6017C36.9095 63.2129 39.2345 67.427 42.1407 69.4614C43.5938 69.752 45.047 69.8973 46.5001 69.8973C47.9532 69.8973 49.4063 69.752 50.8595 69.4614C53.7657 67.427 56.0907 63.2129 57.3985 57.6911H66.8438C67.5704 56.3833 68.1517 55.0754 68.5876 53.6223H58.1251C58.4157 51.4426 58.561 48.9723 58.561 46.502C58.561 44.0317 58.4157 41.7067 58.1251 39.3817H68.5876C68.1517 38.0739 67.5704 36.6208 66.9892 35.3129ZM46.5001 26.3036C48.9704 26.3036 51.7313 29.7911 53.1845 35.4583H39.8157C41.2688 29.6458 44.0298 26.3036 46.5001 26.3036ZM46.5001 66.7004C44.0298 66.7004 41.2688 63.2129 39.8157 57.5457H53.1845C51.7313 63.3582 48.9704 66.7004 46.5001 66.7004ZM54.0563 53.6223H38.9438C38.6532 51.4426 38.3626 49.1176 38.3626 46.502C38.3626 43.8864 38.5079 41.5614 38.9438 39.3817H54.0563C54.347 41.5614 54.6376 43.8864 54.6376 46.502C54.6376 49.1176 54.347 51.4426 54.0563 53.6223Z" fill="#0436ED"/>
</g>
<defs>
<clipPath id="clip0">
<rect width="93" height="93" fill="white" transform="translate(0 0.00195312)"/>
</clipPath>
</defs>
</svg>
