<?xml version="1.0" encoding="UTF-8"?>
<svg width="141px" height="21px" viewBox="0 0 141 21" version="1.1" xmlns="http://www.w3.org/2000/svg" xmlns:xlink="http://www.w3.org/1999/xlink">
    <title>goodfirms-white-logo (11)</title>
    <g id="Services-Categories" stroke="none" stroke-width="1" fill="none" fill-rule="evenodd">
        <g id="goodfirms-white-logo-(11)" fill="#3A7AF3" fill-rule="nonzero">
            <path d="M8.633,7.385 C8.633,7.385 7.467,7.269 7.467,8.308 L7.467,12.923 L15.167,12.923 L15.167,14.308 C15.167,14.308 15.19,15 14.467,15 L7.467,15 L7.467,21 L15.867,21 C15.867,21 20.953,20.215 21,15 L21,7.385 L8.633,7.385 Z M20.766,0 L5.6,0 C0.116,1.292 0,5.792 0,5.792 L0,21 L5.834,21 L5.834,7.154 C5.834,5.977 7,5.77 7,5.77 L20.767,5.77 L20.767,0 L20.766,0 Z M40.788,16.648 C40.388,16.915 40.092,17.111 39.883,17.236 C39.135,17.699 38.422,18.056 37.761,18.341 C36.804,18.733 35.951,18.929 35.186,18.929 C32.559,18.929 30.384,18.127 28.626,16.505 C26.868,14.883 26,12.852 26,10.393 C26,8.023 26.783,5.973 28.366,4.226 C29.949,2.48 31.863,1.624 34.125,1.624 C35.065,1.624 36.073,1.784 37.117,2.124 C38.474,2.551 39.57,3.193 40.44,4.03 L38.926,5.705 C38.283,5.082 37.448,4.618 36.473,4.333 C35.743,4.119 34.943,4.013 34.055,4.013 C32.472,4.013 31.132,4.653 30.071,5.919 C29.01,7.202 28.471,8.717 28.471,10.499 C28.471,12.264 29.079,13.707 30.297,14.866 C31.515,16.024 33.063,16.612 34.942,16.612 C35.725,16.612 36.526,16.362 37.343,15.882 C38.022,15.365 38.37,15.115 38.387,15.097 L38.387,11.444 L33.307,11.444 L34.037,9.163 L40.788,9.163 L40.788,16.648 Z M56.133,12.192 C56.133,13.956 55.507,15.489 54.254,16.772 C53.001,18.055 51.453,18.715 49.609,18.715 C47.904,18.715 46.408,18.073 45.12,16.808 C43.832,15.543 43.206,14.01 43.206,12.21 C43.206,10.428 43.816,8.895 45.033,7.576 C46.25,6.257 47.747,5.616 49.504,5.616 C51.453,5.616 53.036,6.24 54.271,7.505 C55.507,8.735 56.133,10.303 56.133,12.192 Z M53.749,12.228 C53.749,11.034 53.349,10.018 52.549,9.198 C51.749,8.36 50.757,7.95 49.574,7.95 C48.461,7.95 47.521,8.378 46.738,9.234 C45.955,10.089 45.572,11.069 45.572,12.174 C45.572,13.333 45.972,14.313 46.755,15.133 C47.538,15.953 48.513,16.38 49.695,16.38 C50.792,16.38 51.731,15.97 52.532,15.15 C53.349,14.33 53.75,13.35 53.75,12.228 L53.749,12.228 Z M71.269,12.192 C71.269,13.956 70.643,15.489 69.39,16.772 C68.137,18.055 66.589,18.715 64.745,18.715 C63.04,18.715 61.544,18.073 60.256,16.808 C58.969,15.543 58.342,14.01 58.342,12.21 C58.342,10.428 58.952,8.895 60.169,7.576 C61.387,6.257 62.883,5.616 64.64,5.616 C66.589,5.616 68.172,6.24 69.407,7.505 C70.643,8.735 71.269,10.303 71.269,12.192 Z M68.885,12.228 C68.885,11.034 68.485,10.018 67.685,9.198 C66.885,8.36 65.893,7.95 64.71,7.95 C63.597,7.95 62.657,8.378 61.874,9.234 C61.091,10.089 60.708,11.069 60.708,12.174 C60.708,13.333 61.108,14.313 61.892,15.133 C62.674,15.953 63.649,16.38 64.832,16.38 C65.928,16.38 66.867,15.97 67.668,15.15 C68.485,14.33 68.886,13.35 68.886,12.228 L68.885,12.228 Z M85.275,18.358 L83.083,18.697 L83.083,16.576 L82.613,17.11 C82.1989906,17.497842 81.7299201,17.8223499 81.221,18.073 C80.474035,18.4175341 79.660584,18.5940151 78.838,18.59 C77.133,18.59 75.671,17.966 74.488,16.7 C73.305,15.434 72.714,13.938 72.714,12.192 C72.714,10.392 73.305,8.842 74.471,7.558 C75.637,6.274 77.063,5.633 78.768,5.633 C79.743,5.633 80.595,5.793 81.308,6.114 C81.813,6.346 82.248,6.649 82.613,7.024 C82.735,7.184 82.857,7.362 82.979,7.522 L82.979,1.962 L85.309,1.623 L85.275,18.358 Z M83.222,12.352 C83.222,11.105 82.804,10.053 81.952,9.198 C81.1,8.324 80.142,7.897 79.047,7.897 C77.829,7.897 76.855,8.307 76.107,9.127 C75.41,9.91 75.045,10.873 75.045,11.996 C75.045,13.261 75.41,14.312 76.141,15.132 C76.871,15.952 77.794,16.362 78.925,16.362 C80.038,16.362 81.013,15.988 81.883,15.222 C82.77,14.437 83.223,13.475 83.223,12.352 L83.222,12.352 Z M97.575,4.28 L91.051,4.28 L91.051,8.717 L96.113,8.717 L96.113,10.998 L91.051,10.998 L91.051,18.341 L88.511,18.715 L88.511,1.98 L97.07,1.98 L97.575,4.28 Z M102.812,2.978 L101.246,4.956 L99.75,2.978 L101.333,1.018 L102.812,2.978 Z M102.342,18.358 L100.011,18.679 L100.011,6.293 L102.342,5.937 L102.342,18.359 L102.342,18.358 Z M112.868,5.812 L111.772,8.342 C111.628012,8.32004583 111.482646,8.30834972 111.337,8.307 C111.111,8.307 110.885,8.325 110.658,8.36 C110.431,8.395 110.188,8.485 109.928,8.61 C109.441,8.824 109.023,9.287 108.658,9.982 C108.254079,10.770781 108.044914,11.6448183 108.048,12.531 L108.048,18.341 L105.718,18.715 L105.718,6.293 L107.875,5.901 L107.875,8.485 C108.153,8.039 108.449,7.594 108.727,7.131 C109.127,6.667 109.597,6.329 110.119,6.132 C110.397,6.026 110.902,5.936 111.667,5.865 C112.398,5.812 112.816,5.776 112.868,5.812 Z M130.23,18.358 L127.899,18.697 L127.899,10.196 C127.899,9.411 127.725,8.841 127.377,8.485 C127.029,8.128 126.507,7.95 125.828,7.95 C125.011,7.95 124.384,8.289 123.967,8.966 C123.688,9.429 123.532,9.928 123.532,10.427 L123.532,18.34 L121.201,18.768 L121.201,10.249 C121.201,9.501 121.027,8.93 120.696,8.539 C120.348,8.146 119.896,7.95 119.304,7.95 L119.078,7.95 C118.26,7.95 117.668,8.289 117.303,8.984 C117.025,9.501 116.886,10.16 116.886,10.962 L116.886,18.34 L114.468,18.768 L114.468,6.293 L116.642,5.919 L116.642,7.505 C116.886,7.13 117.129,6.827 117.356,6.614 C117.982,6.026 118.713,5.74 119.53,5.74 C120.452,5.74 121.13,5.883 121.6,6.186 C122,6.436 122.383,6.934 122.766,7.647 C123.566,6.382 124.697,5.74 126.194,5.74 C127.62,5.74 128.682,6.186 129.377,7.095 C129.952,7.843 130.23,8.948 130.23,10.392 L130.23,18.358 Z M140.88,14.598 C140.88,15.738 140.48,16.683 139.68,17.414 C138.88,18.162 137.87,18.519 136.652,18.519 C135.73,18.519 134.912,18.305 134.164,17.877 C133.416,17.45 132.86,16.968 132.494,16.398 L134.13,14.937 C134.251,15.115 134.356,15.257 134.46,15.364 C135.07,15.988 135.8,16.309 136.652,16.309 C137.244,16.309 137.714,16.149 138.044,15.846 C138.392,15.543 138.549,15.115 138.549,14.562 C138.549,13.939 138.149,13.511 137.349,13.279 C135.765,12.798 134.912,12.531 134.791,12.477 C134.06,12.103 133.538,11.711 133.207,11.265 C132.842,10.748 132.651,10.071 132.651,9.198 C132.651,8.128 133.051,7.238 133.834,6.525 C134.617,5.812 135.556,5.473 136.634,5.473 C137.453,5.473 138.218,5.651 138.914,6.026 C139.61,6.4 140.114,6.792 140.41,7.256 L139.018,8.77 C138.808931,8.56072638 138.582078,8.37000951 138.34,8.2 C137.783,7.808 137.244,7.612 136.74,7.612 C136.252,7.612 135.852,7.719 135.539,7.932 C135.173,8.2 134.982,8.592 134.982,9.109 C134.982,9.608 135.156,9.982 135.522,10.214 C135.835,10.41 136.496,10.624 137.54,10.855 C138.583,11.105 139.384,11.533 139.958,12.139 C140.602,12.78 140.88,13.582 140.88,14.598 Z" id="Shape"></path>
        </g>
    </g>
</svg>