<svg xmlns="http://www.w3.org/2000/svg" xmlns:xlink="http://www.w3.org/1999/xlink" width="1440" height="260" viewBox="0 0 1440 260"><defs><linearGradient id="a" x1="0.243" y1="0.423" x2="0.697" y2="0.83" gradientUnits="objectBoundingBox"><stop offset="0" stop-color="#f8f8ff"/><stop offset="1" stop-color="#f2f3ff"/></linearGradient><clipPath id="b"><rect width="1440" height="260" fill="rgba(0,0,0,0)"/></clipPath><radialGradient id="c" cx="0.5" cy="0.485" r="0.485" gradientUnits="objectBoundingBox"><stop offset="0.411" stop-color="#fff" stop-opacity="0.737"/><stop offset="1" stop-color="#fff" stop-opacity="0"/></radialGradient><radialGradient id="e" cx="0.5" cy="0.485" r="0.485" gradientUnits="objectBoundingBox"><stop offset="0.411" stop-color="#fafaff" stop-opacity="0.702"/><stop offset="1" stop-color="#fff" stop-opacity="0"/></radialGradient></defs><rect width="1440" height="260" fill="url(#a)"/><rect width="1440" height="260" fill="rgba(0,0,0,0)"/><g clip-path="url(#b)"><g transform="translate(64 190)" opacity="0.201"><path d="M156.2,0l156.2,90.18V270.54L156.2,360.72,0,270.54V90.18Z" transform="translate(0.404)" fill="#a3dbfa"/><path d="M156.2,0l156.2,90.18V270.54L156.2,360.72,0,270.54V90.18Z" transform="translate(0.404)" fill="url(#c)"/></g><g transform="translate(-237 -295)" opacity="0.2"><path d="M184.614,0,369.228,106.587V319.761L184.614,426.348,0,319.761V106.587Z" transform="translate(0.735)" fill="#fbd8e7"/><path d="M184.614,0,369.228,106.587V319.761L184.614,426.348,0,319.761V106.587Z" transform="translate(0.735)" fill="url(#c)"/></g><g transform="translate(1158 -211)"><path d="M177.455,1.447a10.8,10.8,0,0,1,10.8,0L360.31,100.782a10.808,10.808,0,0,1,5.4,9.353V308.8a10.808,10.808,0,0,1-5.4,9.353L188.255,417.492a10.8,10.8,0,0,1-10.8,0L5.4,318.157A10.808,10.808,0,0,1,0,308.8V110.135a10.808,10.808,0,0,1,5.4-9.353Z" transform="translate(0)" fill="#4855d1"/><path d="M140.87.724a5.4,5.4,0,0,1,5.4,0L284.44,80.5a5.405,5.405,0,0,1,2.7,4.676V244.717a5.405,5.405,0,0,1-2.7,4.676L146.27,329.166a5.4,5.4,0,0,1-5.4,0L2.7,249.394A5.405,5.405,0,0,1,0,244.717V85.172A5.405,5.405,0,0,1,2.7,80.5Z" transform="translate(39.285 44.524)" fill="#fff" opacity="0.2"/></g><g transform="translate(916 145)"><path d="M177.453,1.447a10.8,10.8,0,0,1,10.8,0l172.055,99.335a10.808,10.808,0,0,1,5.4,9.353V308.8a10.808,10.808,0,0,1-5.4,9.353L188.253,417.493a10.807,10.807,0,0,1-10.8,0L5.4,318.157A10.8,10.8,0,0,1,0,308.8V110.135a10.8,10.8,0,0,1,5.4-9.353Z" transform="translate(0 0)" fill="#e05b93"/><path d="M140.87.724a5.4,5.4,0,0,1,5.4,0L284.44,80.5a5.405,5.405,0,0,1,2.7,4.676V244.717a5.405,5.405,0,0,1-2.7,4.676L146.27,329.166a5.4,5.4,0,0,1-5.4,0L2.7,249.394A5.4,5.4,0,0,1,0,244.717V85.172A5.4,5.4,0,0,1,2.7,80.5Z" transform="translate(39.283 44.524)" fill="#fff" opacity="0.6"/></g><g transform="translate(327 -327)" opacity="0.3"><path d="M246.73,0l246.73,142.45v284.9L246.73,569.8,0,427.35V142.45Z" transform="translate(0.303)" fill="#fffbdc"/><path d="M246.73,0l246.73,142.45v284.9L246.73,569.8,0,427.35V142.45Z" transform="translate(0.303)" opacity="0.7" fill="url(#e)"/></g></g></svg>