<svg width="512" height="512" xmlns="http://www.w3.org/2000/svg">

 <g>
  <title>background</title>
  <rect fill="none" id="canvas_background" height="402" width="582" y="-1" x="-1"/>
 </g>
 <g>
  <title>Layer 1</title>
  <path id="svg_3" fill="#0436ed" d="m137.8,511.9l-68.3,0c-10,0 -18.1,-8.2 -18.1,-18.1l0,-139.8c0,-10 8.2,-18.1 18.1,-18.1l68.3,0c10,0 18.1,8.2 18.1,18.1l0,139.8c0.1,10 -8.1,18.1 -18.1,18.1z"/>
  <path id="svg_4" fill="#0436ed" d="m286.9,511.9l-61.8,0c-11.7,0 -21.4,-9.6 -21.4,-21.4l0,-201.7c0,-11.7 9.6,-21.4 21.4,-21.4l61.8,0c11.7,0 21.4,9.6 21.4,21.4l0,201.7c0,11.8 -9.6,21.4 -21.4,21.4z"/>
  <path id="svg_5" fill="#0436ed" d="m436.5,511.9l-56.3,0c-13.3,0 -24.1,-10.9 -24.1,-24.1l0,-263.5c0,-13.3 10.9,-24.1 24.1,-24.1l56.3,0c13.3,0 24.1,10.9 24.1,24.1l0,263.5c0,13.3 -10.8,24.1 -24.1,24.1z"/>
  <path id="svg_6" fill="#547cec" d="m445.1,0c-22,0.9 -39.1,19.5 -38.2,41.6l-101.6,99.9l-86.6,-75.8l-158.5,159c-20.4,2.6 -35.7,20.2 -34.9,41.1c0.9,22 19.6,39.1 41.6,38.2s39.1,-19.6 38.2,-41.6c-0.1,-1.8 -0.5,-3.5 -0.8,-5.3l119.3,-114.5l83.7,73.3l138.7,-136.2c0.8,0 1.6,0.2 2.4,0.1c22,-0.9 39.1,-19.6 38.2,-41.6c-0.9,-22 -19.5,-39.1 -41.5,-38.2z"/>
 </g>
</svg>