<svg width="64" height="64" xmlns="http://www.w3.org/2000/svg">

 <title/>
 <g>
  <title>background</title>
  <rect fill="none" id="canvas_background" height="402" width="582" y="-1" x="-1"/>
 </g>
 <g>
  <title>Layer 1</title>
  <rect fill="#ffffff" id="svg_1" y="2" width="64" height="60" class="cls-1"/>
  <rect fill="#dadee7" id="svg_2" y="50" x="4" width="60" height="9" class="cls-2"/>
  <rect fill="#dadee7" id="svg_3" y="35" width="60" height="9" class="cls-2"/>
  <rect fill="#dadee7" id="svg_4" y="20" x="4" width="60" height="9" class="cls-2"/>
  <rect fill="#dadee7" id="svg_5" y="5" width="60" height="9" class="cls-2"/>
  <line stroke="#524a4d" stroke-width="2px" stroke-miterlimit="10" fill="none" id="svg_6" y2="32" y1="17" x2="27" x1="27" class="cls-3"/>
  <line stroke="#0436ed" stroke-width="2px" stroke-miterlimit="10" fill="none" id="svg_7" y2="32" y1="17" x2="53" x1="53" class="cls-3"/>
  <line stroke="#0436ed" stroke-width="2px" stroke-miterlimit="10" fill="none" id="svg_8" y2="17" y1="2" x2="11" x1="11" class="cls-3"/>
  <line stroke="#0436ed" stroke-width="2px" stroke-miterlimit="10" fill="none" id="svg_9" y2="17" y1="2" x2="37" x1="37" class="cls-3"/>
  <line stroke="#0436ed" stroke-width="2px" stroke-miterlimit="10" fill="none" id="svg_10" y2="62" y1="47" x2="27" x1="27" class="cls-3"/>
  <line stroke="#0436ed" stroke-width="2px" stroke-miterlimit="10" fill="none" id="svg_11" y2="62" y1="47" x2="53" x1="53" class="cls-3"/>
  <line stroke="#0436ed" stroke-width="2px" stroke-miterlimit="10" fill="none" id="svg_12" y2="47" y1="32" x2="11" x1="11" class="cls-3"/>
  <line stroke="#0436ed" stroke-width="2px" stroke-miterlimit="10" fill="none" id="svg_13" y2="47" y1="32" x2="37" x1="37" class="cls-3"/>
  <line stroke="#0436ed" stroke-width="2px" stroke-miterlimit="10" fill="none" id="svg_14" y2="2" y1="2" x1="32" class="cls-3"/>
  <polyline stroke="#0436ed" stroke-width="2px" stroke-miterlimit="10" fill="none" id="svg_15" points="49.90566060692072,46.905662536621094 62.90566060692072,46.905662536621094 62.90566060692072,31.90566062927246 0.9056606069207191,31.90566062927246 0.9056606069207191,16.90566062927246 62.90566060692072,16.90566062927246 62.90566060692072,1.905660629272461 33.90566060692072,1.905660629272461 " class="cls-3"/>
  <polyline stroke="#0436ed" stroke-width="2px" stroke-miterlimit="10" fill="none" id="svg_16" points="22 62 1 62 1 47 48 47" class="cls-3"/>
  <line stroke="#0436ed" stroke-width="2px" stroke-miterlimit="10" fill="none" id="svg_17" y2="62" y1="62" x2="24" x1="64" class="cls-3"/>
  <rect fill="#ffffff" id="svg_18" y="13" x="15" width="34" height="28" class="cls-1"/>
  <rect stroke="#547cec" stroke-width="2px" stroke-miterlimit="10" fill="#dadee7" id="svg_19" y="13" x="15" width="34" height="28" class="cls-4"/>
  <line stroke="#0436ed" stroke-width="2px" stroke-miterlimit="10" fill="none" id="svg_20" y2="21" y1="21" x2="33" x1="31" class="cls-5"/>
  <line stroke="#0436ed" stroke-width="2px" stroke-miterlimit="10" fill="none" id="svg_21" y2="21" y1="21" x2="29" x1="27" class="cls-5"/>
  <line stroke="#0436ed" stroke-width="2px" stroke-miterlimit="10" fill="none" id="svg_22" y2="21" y1="21" x2="37.094339" x1="35.094339" class="cls-5"/>
  <line stroke="#0436ed" stroke-width="2px" stroke-miterlimit="10" fill="none" id="svg_23" y2="24.905661" y1="24.905661" x2="44" x1="20" class="cls-5"/>
  <line stroke="#0436ed" stroke-width="2px" stroke-miterlimit="10" fill="none" id="svg_24" y2="29" y1="29" x2="44" x1="20" class="cls-5"/>
  <line stroke="#0436ed" stroke-width="2px" stroke-miterlimit="10" fill="none" id="svg_25" y2="33" y1="33" x2="44" x1="20" class="cls-5"/>
 </g>
</svg>