<svg xmlns="http://www.w3.org/2000/svg" width="652.171" height="419.897" viewBox="0 0 652.171 419.897"><g transform="translate(-0.195 0.042)"><path d="M40.1,277.255A40.141,40.141,0,0,1,0,237.16V40.1A40.14,40.14,0,0,1,40.1,0H336.912a40.14,40.14,0,0,1,40.1,40.1V237.16a40.141,40.141,0,0,1-40.1,40.1H40.1" transform="translate(144.289 83.903)" fill="#092380"/><path d="M30.072,257.207A30.106,30.106,0,0,1,0,227.136V30.072A30.106,30.106,0,0,1,30.072,0H326.888A30.106,30.106,0,0,1,356.96,30.072V227.136a30.106,30.106,0,0,1-30.072,30.072H30.072" transform="translate(154.312 93.927)" fill="#0436ed"/><path d="M20.048,233.556A19.92,19.92,0,0,1,0,213.813V19.743A19.92,19.92,0,0,1,20.048,0H316.864a19.92,19.92,0,0,1,20.048,19.743v194.07a19.92,19.92,0,0,1-20.048,19.743H20.048" transform="translate(164.336 107.554)" fill="#547ced"/><path d="M10.024,0H306.841a10.024,10.024,0,0,1,10.024,10.024V207.088a10.024,10.024,0,0,1-10.024,10.024H10.024A10.024,10.024,0,0,1,0,207.088V10.024A10.024,10.024,0,0,1,10.024,0" transform="translate(174.36 113.974)" fill="#fff"/><path d="M10.024,0H306.841a10.024,10.024,0,0,1,10.024,10.024V207.088a10.024,10.024,0,0,1-10.024,10.024H10.024A10.024,10.024,0,0,1,0,207.088V10.024A10.024,10.024,0,0,1,10.024,0Z" transform="translate(174.36 113.974)" fill="none" stroke="#fff" stroke-linecap="round" stroke-linejoin="round" stroke-miterlimit="10" stroke-width="1.504"/><path d="M10.024,0H306.841a10.024,10.024,0,0,1,10.024,10.024V207.088a10.024,10.024,0,0,1-10.024,10.024H10.024A10.024,10.024,0,0,1,0,207.088V10.024A10.024,10.024,0,0,1,10.024,0" transform="translate(174.415 108.258)" fill="#fffffe"/><path d="M10.024,0H306.841a10.024,10.024,0,0,1,10.024,10.024V207.088a10.024,10.024,0,0,1-10.024,10.024H10.024A10.024,10.024,0,0,1,0,207.088V10.024A10.024,10.024,0,0,1,10.024,0Z" transform="translate(174.36 107.96)" fill="none" stroke="#060e1e" stroke-linecap="round" stroke-linejoin="round" stroke-miterlimit="10" stroke-width="1.504"/><path d="M0,0V15.754A10.024,10.024,0,0,0,10.024,25.777H306.841a10.024,10.024,0,0,0,10.024-10.024V0H0" transform="translate(174.36 299.295)" fill="#547ced"/><path d="M0,0V15.754A10.024,10.024,0,0,0,10.024,25.777H306.841a10.024,10.024,0,0,0,10.024-10.024V0Z" transform="translate(174.36 299.295)" fill="none" stroke="#060e1e" stroke-linecap="round" stroke-linejoin="round" stroke-miterlimit="10" stroke-width="1.504"/><path d="M306.841,0H10.024A10.024,10.024,0,0,0,0,10.024v5.728H316.864V10.024A10.024,10.024,0,0,0,306.841,0" transform="translate(174.36 107.96)" fill="#547ced"/><path d="M306.841,0H10.024A10.024,10.024,0,0,0,0,10.024v5.728H316.864V10.024A10.024,10.024,0,0,0,306.841,0Z" transform="translate(174.36 107.96)" fill="none" stroke="#060e1e" stroke-linecap="round" stroke-linejoin="round" stroke-miterlimit="10" stroke-width="1.504"/><path d="M10.233,5.116a5.117,5.117,0,1,0-5.117,5.118,5.118,5.118,0,0,0,5.117-5.118" transform="translate(327.676 307.066)" fill="#fe438a"/><path d="M10.233,5.116a5.117,5.117,0,1,0-5.117,5.118A5.118,5.118,0,0,0,10.233,5.116Z" transform="translate(327.676 307.066)" fill="none" stroke="#fff" stroke-linecap="round" stroke-linejoin="round" stroke-miterlimit="10" stroke-width="1.504"/><path d="M45.593,155.535A45.643,45.643,0,0,1,0,109.944V45.593A45.644,45.644,0,0,1,45.593,0H161.165a45.644,45.644,0,0,1,45.592,45.593v64.351a45.643,45.643,0,0,1-45.592,45.592H45.593" transform="translate(229.414 133.735)" fill="#f2f6ff"/><path d="M35.569,135.488A35.609,35.609,0,0,1,0,99.92V35.569A35.609,35.609,0,0,1,35.569,0H151.141a35.609,35.609,0,0,1,35.568,35.569V99.92a35.608,35.608,0,0,1-35.568,35.568H35.569" transform="translate(239.438 143.759)" fill="#e6ecff"/><path d="M25.545,115.44A25.573,25.573,0,0,1,0,89.9V25.545A25.574,25.574,0,0,1,25.545,0H141.117a25.573,25.573,0,0,1,25.544,25.545V89.9a25.573,25.573,0,0,1-25.544,25.544H25.545" transform="translate(249.462 153.783)" fill="#c9d7ff"/><text transform="translate(333.294 156.327)" fill="#060e1e" font-size="18.043" font-family="SegoeUI, Segoe UI" letter-spacing="0.111em"><tspan x="-74.855" y="0">NON-FUNGIBLE</tspan></text><text transform="translate(333.294 281.625)" fill="#060e1e" font-size="18.043" font-family="SegoeUI, Segoe UI" letter-spacing="0.111em"><tspan x="-31.664" y="0">TOKEN</tspan></text><path d="M0,79.872V15.521A15.521,15.521,0,0,1,15.521,0H131.093a15.521,15.521,0,0,1,15.52,15.521V79.872a15.521,15.521,0,0,1-15.52,15.52H15.521A15.521,15.521,0,0,1,0,79.872" transform="translate(259.486 163.807)" fill="#0436ed"/><path d="M0,79.872V15.521A15.521,15.521,0,0,1,15.521,0H131.093a15.521,15.521,0,0,1,15.52,15.521V79.872a15.521,15.521,0,0,1-15.52,15.52H15.521A15.521,15.521,0,0,1,0,79.872Z" transform="translate(259.486 163.807)" fill="none" stroke="#091d44" stroke-linecap="round" stroke-linejoin="round" stroke-miterlimit="10" stroke-width="1.504"/><path d="M5.5,75.344a5.5,5.5,0,0,1-5.5-5.5V5.5A5.5,5.5,0,0,1,5.5,0H121.069a5.5,5.5,0,0,1,5.5,5.5V69.848a5.5,5.5,0,0,1-5.5,5.5H5.5" transform="translate(269.642 173.413)" fill="#547ced"/><text transform="translate(281.671 235.422)" fill="#fff" font-size="54.129" font-family="SegoeUI, Segoe UI"><tspan x="0" y="0">NFT</tspan></text><path d="M394.893,199.141H250.354V106.9L394.895,199.14h0ZM35.687,134.426v0h0V84.712h95.547L35.689,134.425ZM390.2,59.2H277.849L390.2.334V59.2ZM131.227,33.691H0V0L131.228,33.689Z" transform="translate(128.25 152.302)" fill="none" stroke="#060e1e" stroke-linecap="round" stroke-linejoin="round" stroke-miterlimit="10" stroke-width="1.504"/><path d="M115.274,125.3H10.024A10.024,10.024,0,0,1,0,115.273V10.023A10.023,10.023,0,0,1,10.024,0H115.274A10.023,10.023,0,0,1,125.3,10.023V115.273A10.024,10.024,0,0,1,115.274,125.3" transform="translate(65.601 32.016)" fill="#060e1e"/><path d="M115.274,125.3H10.024A10.024,10.024,0,0,1,0,115.273V10.023A10.023,10.023,0,0,1,10.024,0H115.274A10.023,10.023,0,0,1,125.3,10.023V115.273A10.024,10.024,0,0,1,115.274,125.3Z" transform="translate(65.601 32.016)" fill="none" stroke="#060e1e" stroke-linecap="round" stroke-linejoin="round" stroke-miterlimit="10" stroke-width="1.504"/><path d="M115.274,125.3H10.024A10.024,10.024,0,0,1,0,115.274V10.025A10.025,10.025,0,0,1,10.024,0H115.274A10.025,10.025,0,0,1,125.3,10.025v105.25A10.024,10.024,0,0,1,115.274,125.3" transform="translate(65.601 27.003)" fill="#a0cffb"/><path d="M115.274,125.3H10.024A10.024,10.024,0,0,1,0,115.274V10.025A10.025,10.025,0,0,1,10.024,0H115.274A10.025,10.025,0,0,1,125.3,10.025v105.25A10.024,10.024,0,0,1,115.274,125.3Z" transform="translate(65.601 27.003)" fill="none" stroke="#060e1e" stroke-linecap="round" stroke-linejoin="round" stroke-miterlimit="10" stroke-width="1.504"/><path d="M65.122,32.561A32.561,32.561,0,1,0,32.561,65.122,32.562,32.562,0,0,0,65.122,32.561" transform="translate(95.69 57.092)" fill="#fffffe"/><path d="M65.122,32.561A32.561,32.561,0,1,0,32.561,65.122,32.562,32.562,0,0,0,65.122,32.561Z" transform="translate(95.69 57.092)" fill="none" stroke="#060e1e" stroke-linecap="round" stroke-linejoin="round" stroke-miterlimit="10" stroke-width="1.504"/><path d="M27.549,55.1A27.549,27.549,0,1,1,55.1,27.549,27.58,27.58,0,0,1,27.549,55.1" transform="translate(100.702 62.104)" fill="#d4dffb"/><path d="M19.259,38.519a19.259,19.259,0,1,1,19.26-19.26,19.281,19.281,0,0,1-19.26,19.26" transform="translate(108.992 70.394)" fill="#fffffe"/><path d="M19.259,38.519a19.259,19.259,0,1,1,19.26-19.26A19.281,19.281,0,0,1,19.259,38.519Z" transform="translate(108.992 70.394)" fill="none" stroke="#060e1e" stroke-linecap="round" stroke-linejoin="round" stroke-miterlimit="10" stroke-width="1.504"/><path d="M15.9,8.516,1.357.122A.9.9,0,0,0,0,.906V17.7a.9.9,0,0,0,1.357.784L15.9,10.085a.906.906,0,0,0,0-1.569" transform="translate(121.652 80.352)" fill="#fe438a"/><path d="M4.869,0H72.326a4.869,4.869,0,0,1,0,9.737H4.869A4.869,4.869,0,0,1,4.869,0" transform="translate(89.653 131.731)" fill="#fffffe"/><path d="M4.869,0H72.326a4.869,4.869,0,0,1,0,9.737H4.869A4.869,4.869,0,0,1,4.869,0Z" transform="translate(89.653 131.731)" fill="none" stroke="#060e1e" stroke-linecap="round" stroke-linejoin="round" stroke-miterlimit="10" stroke-width="1.504"/><path d="M2.864,5.728A2.864,2.864,0,0,1,2.864,0H30.976a2.864,2.864,0,0,1,0,5.728H2.864" transform="translate(131.004 133.735)" fill="#fe438a"/><path d="M87.836,42.409H10.024A10.024,10.024,0,0,1,0,32.385V10.024A10.024,10.024,0,0,1,10.024,0H87.836A10.024,10.024,0,0,1,97.86,10.024V32.385A10.024,10.024,0,0,1,87.836,42.409" transform="translate(213.442 5.722)" fill="#060e1e"/><path d="M87.836,42.409H10.024A10.024,10.024,0,0,1,0,32.385V10.024A10.024,10.024,0,0,1,10.024,0H87.836A10.024,10.024,0,0,1,97.86,10.024V32.385A10.024,10.024,0,0,1,87.836,42.409Z" transform="translate(213.442 5.722)" fill="none" stroke="#060e1e" stroke-linecap="round" stroke-linejoin="round" stroke-miterlimit="10" stroke-width="1.504"/><path d="M87.836,42.409H10.024A10.024,10.024,0,0,1,0,32.385V10.024A10.024,10.024,0,0,1,10.024,0H87.836A10.024,10.024,0,0,1,97.86,10.024V32.385A10.024,10.024,0,0,1,87.836,42.409" transform="translate(213.442 0.71)" fill="#fffffe"/><path d="M87.836,42.409H10.024A10.024,10.024,0,0,1,0,32.385V10.024A10.024,10.024,0,0,1,10.024,0H87.836A10.024,10.024,0,0,1,97.86,10.024V32.385A10.024,10.024,0,0,1,87.836,42.409Z" transform="translate(213.442 0.71)" fill="none" stroke="#060e1e" stroke-linecap="round" stroke-linejoin="round" stroke-miterlimit="10" stroke-width="1.504"/><path d="M0,24.057H77.812V0H0Z" transform="translate(223.532 11.026)" fill="#d4dffb"/><text transform="translate(247.589 30.026)" fill="#060e1e" font-size="18.043" font-family="SegoeUI, Segoe UI"><tspan x="0" y="0">BID</tspan></text><path d="M0,24.442c15.337,0,14.515-12.872,31.494-12.872A8.272,8.272,0,0,0,39.767,3.3V0" transform="translate(185.548 39.457)" fill="none" stroke="#060e1e" stroke-linecap="round" stroke-linejoin="round" stroke-miterlimit="10" stroke-width="1.504"/><path d="M0,2.849H0A2.849,2.849,0,1,1,2.849,5.7,2.848,2.848,0,0,1,0,2.849" transform="translate(179.85 61.05)" fill="#060e1e"/><path d="M0,2.849H0A2.849,2.849,0,1,1,2.849,5.7,2.848,2.848,0,0,1,0,2.849Z" transform="translate(179.85 61.05)" fill="none" stroke="#060e1e" stroke-linecap="round" stroke-linejoin="round" stroke-miterlimit="10" stroke-width="1.504"/><path d="M0,2.848H0A2.849,2.849,0,1,1,2.848,5.7,2.848,2.848,0,0,1,0,2.848" transform="translate(222.467 33.76)" fill="#060e1e"/><path d="M0,2.848H0A2.849,2.849,0,1,1,2.848,5.7,2.848,2.848,0,0,1,0,2.848Z" transform="translate(222.467 33.76)" fill="none" stroke="#060e1e" stroke-linecap="round" stroke-linejoin="round" stroke-miterlimit="10" stroke-width="1.504"/><path d="M115.274,125.3H10.024A10.023,10.023,0,0,1,0,115.274V10.024A10.024,10.024,0,0,1,10.024,0H115.274A10.025,10.025,0,0,1,125.3,10.024V115.274A10.024,10.024,0,0,1,115.274,125.3" transform="translate(523.146 293.805)" fill="#060e1e"/><path d="M115.274,125.3H10.024A10.023,10.023,0,0,1,0,115.274V10.024A10.024,10.024,0,0,1,10.024,0H115.274A10.025,10.025,0,0,1,125.3,10.024V115.274A10.024,10.024,0,0,1,115.274,125.3Z" transform="translate(523.146 293.805)" fill="none" stroke="#060e1e" stroke-linecap="round" stroke-linejoin="round" stroke-miterlimit="10" stroke-width="1.504"/><path d="M115.274,125.3H10.024A10.023,10.023,0,0,1,0,115.274V10.024A10.024,10.024,0,0,1,10.024,0H115.274A10.025,10.025,0,0,1,125.3,10.024V115.274A10.024,10.024,0,0,1,115.274,125.3" transform="translate(523.146 288.793)" fill="#a8e2ff"/><path d="M115.274,125.3H10.024A10.023,10.023,0,0,1,0,115.274V10.024A10.024,10.024,0,0,1,10.024,0H115.274A10.025,10.025,0,0,1,125.3,10.024V115.274A10.024,10.024,0,0,1,115.274,125.3Z" transform="translate(523.146 288.793)" fill="none" stroke="#060e1e" stroke-linecap="round" stroke-linejoin="round" stroke-miterlimit="10" stroke-width="1.504"/><path d="M0,68.285H68.285V0H0Z" transform="translate(551.652 317.3)" fill="#fffffe"/><path d="M0,68.285H68.285V0H0Z" transform="translate(551.652 317.3)" fill="none" stroke="#060e1e" stroke-linecap="round" stroke-linejoin="round" stroke-miterlimit="10" stroke-width="1.504"/><path d="M0,58.261H58.261V0H0Z" transform="translate(556.664 322.312)" fill="#fe438a"/><path d="M0,40.713H40.714V0H0Z" transform="translate(565.437 331.086)" fill="#fffffe"/><path d="M0,40.713H40.714V0H0Z" transform="translate(565.437 331.086)" fill="none" stroke="#060e1e" stroke-linecap="round" stroke-linejoin="round" stroke-miterlimit="10" stroke-width="1.504"/><path d="M21.9,5.045,21.953.512a.481.481,0,0,0-.573-.5L7.516,2.215a.732.732,0,0,0-.6.693V19.968a4.6,4.6,0,0,0-2.86-.987C1.816,18.981,0,20.5,0,22.375s1.817,3.4,4.06,3.4,4.061-1.521,4.061-3.4c0-.153,0-.183,0-.433a1.56,1.56,0,0,0,0-.232V9.3L20.7,7.2V17.945a4.561,4.561,0,0,0-2.842-.986c-2.242,0-4.051,1.52-4.051,3.4s1.823,3.393,4.066,3.393,4.051-1.5,4.051-3.379c0-.153,0-.218-.011-.462,0-.2-.015-.143-.015-.218V5.045" transform="translate(572.903 338.558)" fill="#0436ed"/><path d="M87.835,42.409H10.024A10.024,10.024,0,0,1,0,32.385V10.024A10.024,10.024,0,0,1,10.024,0H87.835A10.024,10.024,0,0,1,97.859,10.024V32.385A10.024,10.024,0,0,1,87.835,42.409" transform="translate(403.092 362.975)" fill="#060e1e"/><path d="M87.835,42.409H10.024A10.024,10.024,0,0,1,0,32.385V10.024A10.024,10.024,0,0,1,10.024,0H87.835A10.024,10.024,0,0,1,97.859,10.024V32.385A10.024,10.024,0,0,1,87.835,42.409Z" transform="translate(403.092 362.975)" fill="none" stroke="#060e1e" stroke-linecap="round" stroke-linejoin="round" stroke-miterlimit="10" stroke-width="1.504"/><path d="M87.835,42.409H10.024A10.024,10.024,0,0,1,0,32.385V10.024A10.024,10.024,0,0,1,10.024,0H87.835A10.024,10.024,0,0,1,97.859,10.024V32.385A10.024,10.024,0,0,1,87.835,42.409" transform="translate(403.092 357.963)" fill="#fffffe"/><path d="M87.835,42.409H10.024A10.024,10.024,0,0,1,0,32.385V10.024A10.024,10.024,0,0,1,10.024,0H87.835A10.024,10.024,0,0,1,97.859,10.024V32.385A10.024,10.024,0,0,1,87.835,42.409Z" transform="translate(403.092 357.963)" fill="none" stroke="#060e1e" stroke-linecap="round" stroke-linejoin="round" stroke-miterlimit="10" stroke-width="1.504"/><path d="M0,24.057H77.811V0H0Z" transform="translate(412.983 367.876)" fill="#d4dffb"/><text transform="translate(437.041 386.876)" fill="#060e1e" font-size="18.043" font-family="SegoeUI, Segoe UI"><tspan x="0" y="0">BID</tspan></text><path d="M31.494,0C14.515,0,15.337,12.872,0,12.872" transform="translate(498.526 366.947)" fill="none" stroke="#060e1e" stroke-linecap="round" stroke-linejoin="round" stroke-miterlimit="10" stroke-width="1.504"/><path d="M0,2.849H0A2.849,2.849,0,1,1,2.849,5.7,2.849,2.849,0,0,1,0,2.849" transform="translate(492.828 376.97)" fill="none" stroke="#060e1e" stroke-linecap="round" stroke-linejoin="round" stroke-miterlimit="10" stroke-width="1.504"/><path d="M0,2.849H0A2.849,2.849,0,1,1,2.849,5.7,2.849,2.849,0,0,1,0,2.849Z" transform="translate(492.828 376.97)" fill="#060e1e"/><path d="M0,2.849H0A2.849,2.849,0,1,1,2.849,5.7,2.848,2.848,0,0,1,0,2.849" transform="translate(530.02 364.098)" fill="#060e1e"/><path d="M0,2.849H0A2.849,2.849,0,1,1,2.849,5.7,2.848,2.848,0,0,1,0,2.849Z" transform="translate(530.02 364.098)" fill="none" stroke="#060e1e" stroke-linecap="round" stroke-linejoin="round" stroke-miterlimit="10" stroke-width="1.504"/><path d="M115.274,125.3H10.024A10.024,10.024,0,0,1,0,115.274V10.024A10.024,10.024,0,0,1,10.024,0H115.274A10.024,10.024,0,0,1,125.3,10.024V115.274A10.024,10.024,0,0,1,115.274,125.3" transform="translate(455.805 32.349)" fill="#060e1e"/><path d="M115.274,125.3H10.024A10.024,10.024,0,0,1,0,115.274V10.024A10.024,10.024,0,0,1,10.024,0H115.274A10.024,10.024,0,0,1,125.3,10.024V115.274A10.024,10.024,0,0,1,115.274,125.3Z" transform="translate(455.805 32.349)" fill="none" stroke="#060e1e" stroke-linecap="round" stroke-linejoin="round" stroke-miterlimit="10" stroke-width="1.504"/><path d="M115.274,125.3H10.024A10.024,10.024,0,0,1,0,115.274V10.024A10.024,10.024,0,0,1,10.024,0H115.274A10.024,10.024,0,0,1,125.3,10.024V115.274A10.024,10.024,0,0,1,115.274,125.3" transform="translate(455.805 27.337)" fill="#a0cffb"/><path d="M115.274,125.3H10.024A10.024,10.024,0,0,1,0,115.274V10.024A10.024,10.024,0,0,1,10.024,0H115.274A10.024,10.024,0,0,1,125.3,10.024V115.274A10.024,10.024,0,0,1,115.274,125.3Z" transform="translate(455.805 27.337)" fill="none" stroke="#060e1e" stroke-linecap="round" stroke-linejoin="round" stroke-miterlimit="10" stroke-width="1.504"/><path d="M0,38.079H78.782V0H0Z" transform="translate(479.064 70.948)" fill="#fffffe"/><path d="M0,38.079H78.782V0H0Z" transform="translate(479.064 70.948)" fill="none" stroke="#060e1e" stroke-linecap="round" stroke-linejoin="round" stroke-miterlimit="10" stroke-width="1.504"/><path d="M0,28.055H68.758V0H0Z" transform="translate(484.076 75.959)" fill="#0436ed"/><path d="M5.615.22C5.76-.073,6-.073,6.14.22l1.38,2.8a1.267,1.267,0,0,0,.849.617l3.086.448c.324.047.4.272.162.5L9.385,6.758a1.264,1.264,0,0,0-.324,1l.527,3.074c.055.322-.136.46-.425.309L6.4,9.688a1.272,1.272,0,0,0-1.051,0L2.593,11.14c-.29.151-.48.013-.425-.309L2.7,7.756a1.272,1.272,0,0,0-.325-1L.137,4.581c-.235-.228-.16-.452.162-.5l3.086-.448a1.267,1.267,0,0,0,.849-.617Z" transform="translate(512.577 84.386)" fill="#060e1e"/><path d="M5.615.22C5.76-.073,6-.073,6.14.22l1.38,2.8a1.267,1.267,0,0,0,.849.617l3.086.448c.324.047.4.272.162.5L9.385,6.758a1.264,1.264,0,0,0-.324,1l.527,3.074c.055.322-.136.46-.425.309L6.4,9.688a1.272,1.272,0,0,0-1.051,0L2.593,11.14c-.29.151-.48.013-.425-.309L2.7,7.756a1.272,1.272,0,0,0-.325-1L.137,4.581c-.235-.228-.16-.452.162-.5l3.086-.448a1.267,1.267,0,0,0,.849-.617L5.615.22" transform="translate(512.577 84.386)" fill="#fe438a" stroke="#fff" stroke-linecap="round" stroke-linejoin="round" stroke-miterlimit="10" stroke-width="1.504"/><path d="M5.616.22c.144-.293.38-.293.524,0l1.38,2.8a1.269,1.269,0,0,0,.85.617l3.086.448c.323.047.4.272.162.5L9.386,6.758a1.264,1.264,0,0,0-.325,1l.527,3.074c.055.322-.136.46-.425.309L6.4,9.688a1.27,1.27,0,0,0-1.049,0L2.593,11.14c-.289.151-.48.013-.425-.309l.527-3.074a1.268,1.268,0,0,0-.325-1L.137,4.581c-.234-.228-.16-.452.162-.5l3.086-.448a1.269,1.269,0,0,0,.85-.617L5.616.22" transform="translate(494.996 84.386)" fill="#fe438a"/><path d="M5.616.22c.144-.293.38-.293.524,0l1.38,2.8a1.269,1.269,0,0,0,.85.617l3.086.448c.323.047.4.272.162.5L9.386,6.758a1.264,1.264,0,0,0-.325,1l.527,3.074c.055.322-.136.46-.425.309L6.4,9.688a1.27,1.27,0,0,0-1.049,0L2.593,11.14c-.289.151-.48.013-.425-.309l.527-3.074a1.268,1.268,0,0,0-.325-1L.137,4.581c-.234-.228-.16-.452.162-.5l3.086-.448a1.269,1.269,0,0,0,.85-.617Z" transform="translate(494.996 84.386)" fill="none" stroke="#fff" stroke-linecap="round" stroke-linejoin="round" stroke-miterlimit="10" stroke-width="1.504"/><path d="M5.616.22c.144-.293.38-.293.524,0l1.38,2.8a1.269,1.269,0,0,0,.85.617l3.086.448c.323.047.4.272.161.5L9.386,6.758a1.268,1.268,0,0,0-.325,1l.527,3.074c.055.322-.136.46-.425.309L6.4,9.688a1.272,1.272,0,0,0-1.051,0L2.593,11.14c-.289.151-.48.013-.425-.309l.527-3.074a1.268,1.268,0,0,0-.325-1L.137,4.581c-.234-.228-.16-.452.162-.5l3.086-.448a1.269,1.269,0,0,0,.85-.617L5.616.22" transform="translate(530.157 84.386)" fill="#fe438a"/><path d="M5.616.22c.144-.293.38-.293.524,0l1.38,2.8a1.269,1.269,0,0,0,.85.617l3.086.448c.323.047.4.272.161.5L9.386,6.758a1.268,1.268,0,0,0-.325,1l.527,3.074c.055.322-.136.46-.425.309L6.4,9.688a1.272,1.272,0,0,0-1.051,0L2.593,11.14c-.289.151-.48.013-.425-.309l.527-3.074a1.268,1.268,0,0,0-.325-1L.137,4.581c-.234-.228-.16-.452.162-.5l3.086-.448a1.269,1.269,0,0,0,.85-.617Z" transform="translate(530.157 84.386)" fill="none" stroke="#fff" stroke-linecap="round" stroke-linejoin="round" stroke-miterlimit="10" stroke-width="1.504"/><path d="M87.835,42.408H10.024A10.024,10.024,0,0,1,0,32.384V10.024A10.024,10.024,0,0,1,10.024,0H87.835A10.024,10.024,0,0,1,97.859,10.024v22.36A10.024,10.024,0,0,1,87.835,42.408" transform="translate(553.755 170.225)" fill="#060e1e"/><path d="M87.835,42.408H10.024A10.024,10.024,0,0,1,0,32.384V10.024A10.024,10.024,0,0,1,10.024,0H87.835A10.024,10.024,0,0,1,97.859,10.024v22.36A10.024,10.024,0,0,1,87.835,42.408Z" transform="translate(553.755 170.225)" fill="none" stroke="#060e1e" stroke-linecap="round" stroke-linejoin="round" stroke-miterlimit="10" stroke-width="1.504"/><path d="M87.835,42.408H10.024A10.024,10.024,0,0,1,0,32.384V10.024A10.024,10.024,0,0,1,10.024,0H87.835A10.024,10.024,0,0,1,97.859,10.024v22.36A10.024,10.024,0,0,1,87.835,42.408" transform="translate(553.755 165.213)" fill="#fffffe"/><path d="M87.835,42.408H10.024A10.024,10.024,0,0,1,0,32.384V10.024A10.024,10.024,0,0,1,10.024,0H87.835A10.024,10.024,0,0,1,97.859,10.024v22.36A10.024,10.024,0,0,1,87.835,42.408Z" transform="translate(553.755 165.213)" fill="none" stroke="#060e1e" stroke-linecap="round" stroke-linejoin="round" stroke-miterlimit="10" stroke-width="1.504"/><path d="M0,24.057H77.811V0H0Z" transform="translate(563.341 175.418)" fill="#d4dffb"/><text transform="translate(587.399 194.418)" fill="#060e1e" font-size="18.043" font-family="SegoeUI, Segoe UI"><tspan x="0" y="0">BID</tspan></text><path d="M0,0C0,15.336,12.872,14.515,12.872,31.494a8.274,8.274,0,0,0,8.274,8.273h3.3" transform="translate(534.031 146.052)" fill="none" stroke="#060e1e" stroke-linecap="round" stroke-linejoin="round" stroke-miterlimit="10" stroke-width="1.504"/><path d="M2.848,0h0A2.849,2.849,0,1,1,0,2.849,2.848,2.848,0,0,1,2.848,0" transform="translate(531.183 140.354)" fill="#060e1e"/><path d="M2.848,0h0A2.849,2.849,0,1,1,0,2.849,2.848,2.848,0,0,1,2.848,0Z" transform="translate(531.183 140.354)" fill="none" stroke="#060e1e" stroke-linecap="round" stroke-linejoin="round" stroke-miterlimit="10" stroke-width="1.504"/><path d="M2.849,0h0A2.848,2.848,0,1,1,0,2.848,2.849,2.849,0,0,1,2.849,0" transform="translate(558.473 182.971)" fill="#060e1e"/><path d="M2.849,0h0A2.848,2.848,0,1,1,0,2.848,2.849,2.849,0,0,1,2.849,0Z" transform="translate(558.473 182.971)" fill="none" stroke="#060e1e" stroke-linecap="round" stroke-linejoin="round" stroke-miterlimit="10" stroke-width="1.504"/><path d="M115.274,125.3H10.024A10.025,10.025,0,0,1,0,115.274V10.024A10.024,10.024,0,0,1,10.024,0H115.274A10.024,10.024,0,0,1,125.3,10.024V115.274A10.024,10.024,0,0,1,115.274,125.3" transform="translate(101.29 291.739)" fill="#060e1e"/><path d="M115.274,125.3H10.024A10.025,10.025,0,0,1,0,115.274V10.024A10.024,10.024,0,0,1,10.024,0H115.274A10.024,10.024,0,0,1,125.3,10.024V115.274A10.024,10.024,0,0,1,115.274,125.3Z" transform="translate(101.29 291.739)" fill="none" stroke="#060e1e" stroke-linecap="round" stroke-linejoin="round" stroke-miterlimit="10" stroke-width="1.504"/><path d="M115.274,125.3H10.024A10.025,10.025,0,0,1,0,115.274V10.024A10.024,10.024,0,0,1,10.024,0H115.274A10.024,10.024,0,0,1,125.3,10.024V115.274A10.024,10.024,0,0,1,115.274,125.3" transform="translate(101.29 286.727)" fill="#a0cffb"/><path d="M115.274,125.3H10.024A10.025,10.025,0,0,1,0,115.274V10.024A10.024,10.024,0,0,1,10.024,0H115.274A10.024,10.024,0,0,1,125.3,10.024V115.274A10.024,10.024,0,0,1,115.274,125.3Z" transform="translate(101.29 286.727)" fill="none" stroke="#060e1e" stroke-linecap="round" stroke-linejoin="round" stroke-miterlimit="10" stroke-width="1.504"/><path d="M0,63.866H71.908V0H0Z" transform="translate(127.986 317.443)" fill="#fffffe"/><path d="M0,63.866H71.908V0H0Z" transform="translate(127.986 317.443)" fill="none" stroke="#060e1e" stroke-linecap="round" stroke-linejoin="round" stroke-miterlimit="10" stroke-width="1.504"/><path d="M0,53.842H61.883V0H0Z" transform="translate(132.999 322.455)" fill="#d4dffb"/><path d="M43.995,22a22,22,0,1,0-22,22,22,22,0,0,0,22-22" transform="translate(141.943 327.378)" fill="#fffffe"/><path d="M43.995,22a22,22,0,1,0-22,22A22,22,0,0,0,43.995,22Z" transform="translate(141.943 327.378)" fill="none" stroke="#060e1e" stroke-linecap="round" stroke-linejoin="round" stroke-miterlimit="10" stroke-width="1.504"/><path d="M7.548,0,0,15.758l7.548,2.372L15.1,15.758,7.548,0" transform="translate(156.391 332.577)" fill="#0436ed"/><path d="M7.549,15.758,15.1,0,7.549,2.372,0,0,7.549,15.758" transform="translate(156.391 350.417)" fill="#0436ed"/><path d="M87.835,42.409H10.024A10.024,10.024,0,0,1,0,32.385V10.024A10.024,10.024,0,0,1,10.024,0H87.835A10.024,10.024,0,0,1,97.859,10.024V32.385A10.024,10.024,0,0,1,87.835,42.409" transform="translate(0.947 247.236)" fill="#060e1e"/><path d="M87.835,42.409H10.024A10.024,10.024,0,0,1,0,32.385V10.024A10.024,10.024,0,0,1,10.024,0H87.835A10.024,10.024,0,0,1,97.859,10.024V32.385A10.024,10.024,0,0,1,87.835,42.409Z" transform="translate(0.947 247.236)" fill="none" stroke="#060e1e" stroke-linecap="round" stroke-linejoin="round" stroke-miterlimit="10" stroke-width="1.504"/><path d="M87.835,42.409H10.024A10.024,10.024,0,0,1,0,32.385V10.024A10.024,10.024,0,0,1,10.024,0H87.835A10.024,10.024,0,0,1,97.859,10.024V32.385A10.024,10.024,0,0,1,87.835,42.409" transform="translate(0.947 242.224)" fill="#fffffe"/><path d="M87.835,42.409H10.024A10.024,10.024,0,0,1,0,32.385V10.024A10.024,10.024,0,0,1,10.024,0H87.835A10.024,10.024,0,0,1,97.859,10.024V32.385A10.024,10.024,0,0,1,87.835,42.409Z" transform="translate(0.947 242.224)" fill="none" stroke="#060e1e" stroke-linecap="round" stroke-linejoin="round" stroke-miterlimit="10" stroke-width="1.504"/><path d="M0,24.057H77.812V0H0Z" transform="translate(10.971 252.248)" fill="#d4dffb"/><text transform="translate(35.898 270.588)" fill="#060e1e" font-size="18.043" font-family="SegoeUI, Segoe UI"><tspan x="0" y="0">BID</tspan></text><path d="M2.669,0A2.67,2.67,0,1,0,5.34,2.669,2.67,2.67,0,0,0,2.669,0" transform="translate(111.728 290.717)" fill="#060e1e"/><path d="M2.669,0A2.67,2.67,0,1,0,5.34,2.669,2.67,2.67,0,0,0,2.669,0Z" transform="translate(111.728 290.717)" fill="none" stroke="#060e1e" stroke-linecap="round" stroke-linejoin="round" stroke-miterlimit="10" stroke-width="1.504"/><path d="M2.67,0a2.67,2.67,0,1,0,2.67,2.669A2.67,2.67,0,0,0,2.67,0" transform="translate(91.999 262.811)" fill="#060e1e"/><path d="M22.4,30.576v0L4.212,4.85a2.664,2.664,0,0,0,1.07-1.622c-.833-.208-1.712-.4-2.612-.559L4.212,4.85a2.669,2.669,0,1,1,1.129-2.18,2.683,2.683,0,0,1-.059.559c6.935,1.734,11.927,5.112,14.84,10.041a20.511,20.511,0,0,1,2.353,6.085,25.42,25.42,0,0,1,.561,5.574,25.2,25.2,0,0,1-.636,5.646Z" transform="translate(91.999 262.811)" fill="none" stroke="#060e1e" stroke-linecap="round" stroke-linejoin="round" stroke-miterlimit="10" stroke-width="1.504"/></g></svg>