<svg xmlns="http://www.w3.org/2000/svg" xmlns:xlink="http://www.w3.org/1999/xlink" width="1440" height="620" viewBox="0 0 1440 620"><defs><linearGradient id="a" x1="0.243" y1="0.423" x2="0.697" y2="0.83" gradientUnits="objectBoundingBox"><stop offset="0" stop-color="#f8f8ff"/><stop offset="1" stop-color="#f2f3ff"/></linearGradient><clipPath id="b"><rect width="1440" height="620" fill="none"/></clipPath><radialGradient id="c" cx="0.5" cy="0.485" r="0.485" gradientUnits="objectBoundingBox"><stop offset="0.411" stop-color="#fff" stop-opacity="0.737"/><stop offset="1" stop-color="#fff" stop-opacity="0"/></radialGradient><radialGradient id="e" cx="0.5" cy="0.485" r="0.485" gradientUnits="objectBoundingBox"><stop offset="0.411" stop-color="#fafaff" stop-opacity="0.702"/><stop offset="1" stop-color="#fff" stop-opacity="0"/></radialGradient></defs><rect width="1440" height="620" fill="url(#a)"/><rect width="1440" height="620" fill="none"/><g clip-path="url(#b)"><g transform="translate(-129.6 287.1)" opacity="0.201"><path d="M260.327,0,520.654,150.3V450.9L260.327,601.2,0,450.9V150.3Z" transform="translate(0.673)" fill="#a3dbfa"/><path d="M260.327,0,520.654,150.3V450.9L260.327,601.2,0,450.9V150.3Z" transform="translate(0.673)" fill="url(#c)"/></g><g transform="translate(-237 -295)" opacity="0.2"><path d="M184.614,0,369.228,106.587V319.761L184.614,426.348,0,319.761V106.587Z" transform="translate(0.735)" fill="#fbd8e7"/><path d="M184.614,0,369.228,106.587V319.761L184.614,426.348,0,319.761V106.587Z" transform="translate(0.735)" fill="url(#c)"/></g><g transform="translate(1036 -391)" opacity="0"><path d="M295.758,2.411a18,18,0,0,1,18,0L600.516,167.97a18.014,18.014,0,0,1,9,15.588V514.673a18.014,18.014,0,0,1-9,15.588L313.758,695.82a18,18,0,0,1-18,0L9,530.261a18.014,18.014,0,0,1-9-15.588V183.558A18.014,18.014,0,0,1,9,167.97Z" transform="translate(0)" fill="#4855d1"/><path d="M234.783,1.206a9,9,0,0,1,9,0L474.066,134.16a9.009,9.009,0,0,1,4.5,7.794V407.862a9.009,9.009,0,0,1-4.5,7.794L243.783,548.61a9,9,0,0,1-9,0L4.5,415.656A9.009,9.009,0,0,1,0,407.862V141.954a9.009,9.009,0,0,1,4.5-7.794Z" transform="translate(65.475 74.207)" fill="#fff" opacity="0.2"/></g><g transform="translate(654 235)" opacity="0"><path d="M295.754,2.411a18,18,0,0,1,18,0L600.512,167.97a18.014,18.014,0,0,1,9,15.588V514.673a18.014,18.014,0,0,1-9,15.588L313.754,695.822a18.012,18.012,0,0,1-18,0L9,530.261a18,18,0,0,1-9-15.588V183.558A18,18,0,0,1,9,167.97Z" transform="translate(0 0)" fill="#e05b93"/><path d="M234.783,1.206a9,9,0,0,1,9,0L474.066,134.16a9.009,9.009,0,0,1,4.5,7.794V407.862a9.009,9.009,0,0,1-4.5,7.794L243.783,548.61a9,9,0,0,1-9,0L4.5,415.656A9,9,0,0,1,0,407.862V141.954a9,9,0,0,1,4.5-7.794Z" transform="translate(65.471 74.207)" fill="#fff" opacity="0.6"/></g><g transform="translate(327 -327)" opacity="0.3"><path d="M246.73,0l246.73,142.45v284.9L246.73,569.8,0,427.35V142.45Z" transform="translate(0.303)" fill="#fffbdc"/><path d="M246.73,0l246.73,142.45v284.9L246.73,569.8,0,427.35V142.45Z" transform="translate(0.303)" opacity="0.7" fill="url(#e)"/></g></g></svg>