<svg width="38" height="40" viewBox="0 0 38 40" fill="none" xmlns="http://www.w3.org/2000/svg">
<path d="M19.5002 6.36615C20.4284 5.83025 21.572 5.83025 22.5002 6.36615L34.2227 13.1341C35.1509 13.67 35.7227 14.6604 35.7227 15.7322V29.2681C35.7227 30.3399 35.1509 31.3302 34.2227 31.8661L22.5002 38.6341C21.572 39.17 20.4284 39.17 19.5002 38.6341L7.77781 31.8661C6.84961 31.3302 6.27781 30.3399 6.27781 29.2681V15.7322C6.27781 14.6604 6.84961 13.67 7.77781 13.1341L19.5002 6.36615Z" fill="#EBF5F9"/>
<path opacity="0.8" d="M15.5002 1.36615C16.4284 0.830249 17.572 0.830249 18.5002 1.36615L30.2227 8.1341C31.1509 8.67 31.7227 9.66038 31.7227 10.7322V24.2681C31.7227 25.3399 31.1509 26.3302 30.2227 26.8661L18.5002 33.6341C17.572 34.17 16.4284 34.17 15.5002 33.6341L3.77781 26.8661C2.84961 26.3302 2.27781 25.3399 2.27781 24.2681V10.7322C2.27781 9.66038 2.84961 8.67 3.77781 8.1341L15.5002 1.36615Z" fill="#A1CFFB"/>
<path d="M25.0654 12.6174L25.2348 12.4431L25.0653 12.2689L23.7102 10.8754L23.531 10.6911L23.3518 10.8754L14.6028 19.8725L10.6655 16.7806L10.4525 16.6134L10.3028 16.839L9.29195 18.3619L9.17115 18.5439L9.33529 18.688L14.4603 23.188L14.6388 23.3448L14.8045 23.1744L25.0654 12.6174Z" fill="#092381" stroke="#132A7A" stroke-width="0.5" stroke-linecap="square"/>
</svg>
