<svg width="38" height="39" viewBox="0 0 38 39" fill="none" xmlns="http://www.w3.org/2000/svg">
<path d="M19.5 5.86603C20.4282 5.33013 21.5718 5.33013 22.5 5.86603L34.2224 12.634C35.1506 13.1699 35.7224 14.1603 35.7224 15.2321V28.768C35.7224 29.8397 35.1506 30.8301 34.2224 31.366L22.5 38.134C21.5718 38.6699 20.4282 38.6699 19.5 38.134L7.77757 31.366C6.84936 30.8301 6.27757 29.8397 6.27757 28.768V15.232C6.27757 14.1603 6.84936 13.1699 7.77757 12.634L19.5 5.86603Z" fill="#16349E"/>
<path opacity="0.8" d="M15.5 0.866025C16.4282 0.330127 17.5718 0.330127 18.5 0.866025L30.2224 7.63398C31.1506 8.16987 31.7224 9.16025 31.7224 10.2321V23.768C31.7224 24.8397 31.1506 25.8301 30.2224 26.366L18.5 33.134C17.5718 33.6699 16.4282 33.6699 15.5 33.134L3.77757 26.366C2.84936 25.8301 2.27757 24.8397 2.27757 23.768V10.232C2.27757 9.16025 2.84936 8.16987 3.77757 7.63397L15.5 0.866025Z" fill="#A1CFFB"/>
<path d="M25.0651 12.1173L25.2345 11.943L25.0651 11.7688L23.71 10.3753L23.5308 10.191L23.3515 10.3753L14.6025 19.3724L10.6652 16.2805L10.4523 16.1132L10.3026 16.3388L9.29171 17.8617L9.17091 18.0437L9.33505 18.1879L14.46 22.6879L14.6386 22.8447L14.8042 22.6742L25.0651 12.1173Z" fill="#092381" stroke="#132A7A" stroke-width="0.5" stroke-linecap="square"/>
</svg>
