<svg width="54" height="62" viewBox="0 0 54 62" fill="none" xmlns="http://www.w3.org/2000/svg">
<path d="M24.5 1.44533C26.047 0.552165 27.953 0.552165 29.5 1.44533L51.3468 14.0586C52.8938 14.9517 53.8468 16.6024 53.8468 18.3887V43.6152C53.8468 45.4015 52.8938 47.0522 51.3468 47.9453L29.5 60.5586C27.953 61.4517 26.047 61.4517 24.5 60.5586L2.65321 47.9453C1.10621 47.0522 0.153212 45.4015 0.153212 43.6152V18.3887C0.153212 16.6024 1.10621 14.9517 2.65321 14.0586L24.5 1.44533Z" fill="url(#paint0_linear)"/>
<path d="M24.5 1.44533C26.047 0.552165 27.953 0.552165 29.5 1.44533L51.3468 14.0586C52.8938 14.9517 53.8468 16.6024 53.8468 18.3887V43.6152C53.8468 45.4015 52.8938 47.0522 51.3468 47.9453L29.5 60.5586C27.953 61.4517 26.047 61.4517 24.5 60.5586L2.65321 47.9453C1.10621 47.0522 0.153212 45.4015 0.153212 43.6152V18.3887C0.153212 16.6024 1.10621 14.9517 2.65321 14.0586L24.5 1.44533Z" stroke="#D4DFFB"/>
<defs>
<linearGradient id="paint0_linear" x1="-4.25109" y1="25.0325" x2="57.6976" y2="25.0325" gradientUnits="userSpaceOnUse">
<stop stop-color="#BAE0FF"/>
<stop offset="1" stop-color="#A1CFFB"/>
</linearGradient>
</defs>
</svg>
