<svg width="512" height="512" xmlns="http://www.w3.org/2000/svg">

 <g>
  <title>background</title>
  <rect fill="none" id="canvas_background" height="402" width="582" y="-1" x="-1"/>
 </g>
 <g>
  <title>Layer 1</title>
  <path fill="#0436ed" stroke="#0436ed" id="svg_2" d="m246.954,137.57c0.639,-0.641 0.949,-1.475 0.975,-2.314c0.029,-0.914 -0.287,-1.994 -0.984,-2.693l-20.907,-21.063l-0.002,0l-45.033,-44.873c-38.25,-38.25 -100.471,-38.17 -138.73,0.066c-0.354,0.354 -0.707,0.77 -1.061,1.125c-37.475,38.637 -35.946,100.648 2.121,138.714l64.889,64.901c0.607,0.605 1.396,0.906 2.195,0.961c0.238,0.016 0.465,-0.012 0.701,-0.045c0.717,-0.098 1.416,-0.361 1.963,-0.908l27.711,-27.712c0.791,-0.791 1.057,-1.861 0.916,-2.886c-0.037,-0.283 -0.055,-0.568 -0.164,-0.84c-0.168,-0.41 -0.418,-0.797 -0.752,-1.131l-20.906,-20.908l0,0l-45.031,-45.029c-20.084,-20.084 -20.289,-52.609 -0.629,-72.955l0.629,-0.625c20.311,-20.289 53.941,-19.662 74.32,0.719l44.301,44.301l-0.004,0.004l20.908,20.908c0.896,0.898 2.158,1.139 3.303,0.834c0.564,-0.148 1.107,-0.389 1.549,-0.828l27.722,-27.723z"/>
  <path fill="#547cec" id="svg_3" d="m281.859,206.625c1.211,1.211 2.797,1.818 4.381,1.818c1.582,0 3.164,-0.604 4.371,-1.809c2.418,-2.412 2.424,-6.33 0.01,-8.75l-7.947,-7.963c-2.416,-2.418 -6.332,-2.424 -8.75,-0.008c-2.42,2.412 -2.424,6.33 -0.01,8.748l7.945,7.964z"/>
  <path fill="#dadee7" id="svg_4" d="m259.611,184.326c1.211,1.211 2.795,1.816 4.381,1.816c1.58,0 3.162,-0.602 4.371,-1.809c2.418,-2.412 2.422,-6.33 0.01,-8.748l-7.947,-7.965c-2.416,-2.418 -6.332,-2.422 -8.75,-0.008c-2.42,2.412 -2.424,6.33 -0.01,8.75l7.945,7.964z"/>
  <path fill="#0436ed" id="svg_5" d="m304.109,228.923c1.207,1.211 2.795,1.816 4.379,1.816c1.582,0 3.164,-0.602 4.371,-1.809c2.42,-2.412 2.424,-6.33 0.01,-8.748l-7.945,-7.963c-2.414,-2.42 -6.332,-2.424 -8.75,-0.01c-2.42,2.412 -2.424,6.33 -0.01,8.75l7.945,7.964z"/>
  <path fill="#547cec" id="svg_6" d="m151.952,273.777c-2.416,-2.42 -6.334,-2.424 -8.752,-0.01c-2.418,2.412 -2.424,6.33 -0.01,8.75l7.947,7.963c1.209,1.211 2.795,1.816 4.379,1.816c1.582,0 3.164,-0.602 4.371,-1.809c2.42,-2.412 2.424,-6.33 0.01,-8.75l-7.945,-7.96z"/>
  <path fill="#0436ed" id="svg_7" d="m174.2,296.074c-2.412,-2.414 -6.328,-2.422 -8.752,-0.012c-2.418,2.416 -2.422,6.334 -0.01,8.752l7.947,7.965c1.209,1.211 2.793,1.818 4.381,1.818c1.58,0 3.16,-0.602 4.369,-1.807c2.42,-2.414 2.424,-6.332 0.01,-8.752l-7.945,-7.964z"/>
  <path fill="#dadee7" id="svg_8" d="m197.164282,318.375c-2.416,-2.418 -6.334,-2.426 -8.752,-0.01c-2.418,2.412 -2.424,6.33 -0.01,8.75l7.947,7.963c1.209,1.211 2.795,1.816 4.379,1.816c1.582,0 3.164,-0.602 4.371,-1.809c2.42,-2.412 2.424,-6.33 0.01,-8.748l-7.945,-7.962z"/>
  <path fill="#0436ed" id="svg_9" d="m368.971,309.908c18.463,0 33.43,-14.967 33.43,-33.432c0,-18.461 -14.967,-33.43 -33.43,-33.43s-33.43,14.969 -33.43,33.43c0,18.465 14.967,33.432 33.43,33.432zm-13.026,-39.408l7.555,0l0,-7.049c0,-3.416 2.084,-6.188 5.5,-6.188s5.5,2.771 5.5,6.188l0,7.049l7.496,0c3.418,0 6.188,3.084 6.188,6.5s-2.77,6.5 -6.188,6.5l-7.496,0l0,6.002c0,3.416 -2.084,6.188 -5.5,6.188s-5.5,-2.771 -5.5,-6.188l0,-6.002l-7.555,0c-3.416,0 -6.188,-3.084 -6.188,-6.5s2.772,-6.5 6.188,-6.5z"/>
  <path fill="#547cec" id="svg_10" d="m267.201,345.729c0,15.93 12.914,28.844 28.846,28.844c15.93,0 28.846,-12.914 28.846,-28.844c0,-15.934 -12.916,-28.848 -28.846,-28.848c-15.932,0 -28.846,12.914 -28.846,28.848z"/>
  <path fill="#dadee7" stroke="#dadee7" id="svg_11" d="m334.492,401.191c-10.035,-9.695 -23.906,-15.4 -38.936,-15.4c-30.848,0 -56.057,25.232 -56.057,56.059l0,11.451c0,2.25 2.247,3.199 4.475,3.199l56.88,0c1.035,-22 14.31,-43.967 33.638,-55.309z"/>
  <circle fill="#547cec" id="svg_12" r="28.846" cy="345.727" cx="442.67"/>
  <path fill="#547cec" id="svg_13" d="m424.717,456.5c-1.08,-20 -12.846,-36.566 -29.385,-45.541c-0.01,0.014 -0.018,0.125 -0.027,0.141c-7.846,-4.205 -16.811,-6.55 -26.334,-6.55c-9.447,0 -18.34,2.38 -26.143,6.521c-0.012,-0.02 -0.021,-0.217 -0.035,-0.236c-16.627,8.957 -28.484,25.666 -29.563,45.666l0.027,0c-0.074,2 0.242,2.738 0.242,3.934l0,11.463c0,2.232 1.445,2.604 3.68,2.604l103.582,0c2.236,0 3.738,-0.371 3.738,-2.604l0,-11.463c0,-1.195 0.258,-1.934 0.184,-3.934l0.034,0l0,-0.001z"/>
  <path fill="#dadee7" id="svg_14" d="m482.027,402.359c-10.102,-10.125 -24.143,-16.355 -39.578,-16.355c-15.053,0 -28.767,5.537 -38.825,15.258c19.26,11.385 32.433,33.238 33.468,55.238l57.082,0c2.25,0 4.326,-0.949 4.326,-3.199l0,-11.451c0,-15.414 -6.371,-29.387 -16.473,-39.491z"/>
  <path fill="#0436ed" id="svg_15" d="m369.246,335.5l-0.002,0c-15.93,0 -28.844,13.068 -28.844,29c0,15.93 12.914,29 28.844,29l0.002,0c15.93,0 28.844,-13.07 28.844,-29c0,-15.932 -12.914,-29 -28.844,-29z"/>
 </g>
</svg>