<svg width="64" height="64" xmlns="http://www.w3.org/2000/svg">

 <g>
  <title>background</title>
  <rect fill="none" id="canvas_background" height="402" width="582" y="-1" x="-1"/>
 </g>
 <g>
  <title>Layer 1</title>
  <circle id="svg_1" r="3" fill="#0436ed" cy="10.4" cx="32"/>
  <path id="svg_2" fill="#547cec" d="m37.4,21.4c-0.3,-1.1 -0.5,-2.1 -1.1,-3.2c-0.2,-0.4 -0.4,-0.7 -0.6,-1.1l0,-0.1l-0.1,0c-0.1,-0.2 -0.2,-0.3 -0.4,-0.4c-0.3,-0.3 -0.6,-0.5 -1.1,-0.8c-0.4,-0.3 -1.1,-0.5 -1.7,-0.5c-0.2,0 -0.8,0 -1,0c-0.6,0.1 -1.2,0.2 -1.7,0.4s-0.8,0.5 -1.1,0.8c-0.2,0.2 -0.3,0.3 -0.4,0.5l0,0l0,0c-0.3,0.4 -0.4,0.8 -0.6,1.1c-0.5,1.1 -0.8,2.1 -1.1,3.2c-0.5,2.1 -0.7,4.1 -0.9,6.2c0,0.4 0.2,0.6 0.6,0.7c0.4,0.2 0.8,-0.1 0.9,-0.4c0.3,-1 0.7,-1.9 1,-2.9c0,4.4 -0.1,8.8 -0.1,13.2c0,0.4 0.4,0.7 0.7,0.8c0.4,0 0.9,-0.3 1,-0.7l1.7,-10.2c0.1,-0.4 0.2,-0.7 0.4,-0.7c0.3,0 0.5,0.9 0.6,1.5c0.5,3.1 1,6.3 1.6,9.4c0.1,0.4 0.4,0.7 0.8,0.7s0.8,-0.4 0.8,-0.8l-0.1,-13.4c0.4,1 0.8,2 1.1,3c0.1,0.4 0.4,0.5 0.7,0.6c0.4,-0.1 0.7,-0.4 0.7,-0.8c0.2,-1.9 -0.1,-4 -0.6,-6.1z"/>
  <circle id="svg_4" r="3" fill="#547cec" cy="27.4" cx="44"/>
  <path id="svg_5" fill="#547cec" d="m50.7,33.7c1.4,0 2.6,-1.2 2.6,-2.6s-1.2,-2.6 -2.6,-2.6c-1.4,0 -2.6,1.2 -2.6,2.6s1.1,2.6 2.6,2.6z"/>
  <path id="svg_6" fill="#dadee7" d="m55.3,40.7c-0.2,-0.9 -0.5,-1.8 -0.9,-2.7c-0.2,-0.3 -0.3,-0.6 -0.5,-1l0,-0.1l-0.1,0c-0.1,-0.1 -0.2,-0.3 -0.3,-0.4c-0.2,-0.2 -0.5,-0.5 -0.9,-0.7c-0.4,-0.2 -0.9,-0.4 -1.5,-0.5c-0.2,0 -0.7,0 -0.9,0c-0.5,0.1 -1.1,0.2 -1.5,0.4c-0.1,0 -0.1,0.1 -0.2,0.1c-0.1,-0.2 -0.2,-0.4 -0.3,-0.6c-0.2,-0.4 -0.4,-0.7 -0.6,-1.1l0,-0.1l-0.1,0c-0.1,-0.2 -0.2,-0.3 -0.4,-0.4c-0.3,-0.3 -0.6,-0.5 -1.1,-0.8c-0.4,-0.3 -1.1,-0.5 -1.7,-0.5c-0.2,0 -0.8,0 -1,0c-0.6,0.1 -1.2,0.2 -1.7,0.4s-0.8,0.5 -1.1,0.8c-0.2,0.2 -0.3,0.3 -0.4,0.5l0,0l0,0c-0.3,0.4 -0.4,0.8 -0.6,1.1c-0.5,1.1 -0.8,2.1 -1.1,3.2c-0.5,2.1 -0.7,4.1 -0.9,6.2c0,0.4 0.2,0.6 0.6,0.7c0.4,0.2 0.8,-0.1 0.9,-0.4c0.3,-1 0.7,-1.9 1,-2.9c0,4.4 -0.1,8.8 -0.1,13.2c0,0.4 0.4,0.7 0.7,0.8c0.4,0 0.9,-0.3 1,-0.7l1.7,-10.2c0.1,-0.4 0.2,-0.7 0.4,-0.7c0.3,0 0.5,0.9 0.6,1.5c0.5,3.1 1,6.3 1.6,9.4c0.1,0.4 0.4,0.7 0.8,0.7c0.2,0 0.4,-0.1 0.6,-0.3c0.1,0.1 0.3,0.2 0.4,0.3c0.4,0 0.8,-0.2 0.8,-0.6l1.5,-8.8c0.1,-0.3 0.2,-0.6 0.4,-0.6c0.3,0 0.5,0.8 0.6,1.3c0.5,2.7 0.9,5.5 1.4,8.2c0.1,0.4 0.3,0.6 0.7,0.6c0.4,0 0.7,-0.3 0.7,-0.7l-0.1,-11.6c0.4,0.9 0.7,1.8 1,2.6c0.1,0.3 0.3,0.5 0.6,0.5c0.4,-0.1 0.6,-0.3 0.6,-0.7c0.1,-1.8 -0.1,-3.5 -0.6,-5.4z"/>
  <path id="svg_7" fill="#547cec" d="m13.3,33.7c1.4,0 2.6,-1.2 2.6,-2.6s-1.2,-2.6 -2.6,-2.6c-1.4,0 -2.6,1.2 -2.6,2.6s1.2,2.6 2.6,2.6z"/>
  <circle id="svg_8" r="3" fill="#547cec" cy="27.4" cx="20"/>
  <path id="svg_9" fill="#dadee7" d="m24.3,35.3c-0.2,-0.4 -0.4,-0.7 -0.6,-1.1l0,-0.2l-0.1,0c-0.1,-0.2 -0.2,-0.3 -0.4,-0.4c-0.3,-0.3 -0.6,-0.5 -1.1,-0.8c-0.4,-0.3 -1.1,-0.5 -1.7,-0.5c-0.2,0 -0.8,0 -1,0c-0.6,0.1 -1.2,0.2 -1.7,0.4s-0.8,0.5 -1.1,0.8c-0.2,0.2 -0.3,0.3 -0.4,0.5l0,0l0,0c-0.3,0.4 -0.4,0.8 -0.6,1.1c-0.1,0.2 -0.2,0.5 -0.3,0.7c0,0 -0.1,0 -0.1,-0.1c-0.4,-0.2 -0.9,-0.4 -1.5,-0.5c-0.2,0 -0.7,0 -0.9,0c-0.5,0.1 -1.1,0.2 -1.5,0.4c-0.4,0.2 -0.7,0.5 -0.9,0.7c-0.1,0.1 -0.3,0.3 -0.4,0.5l0,0l0,0c-0.2,0.3 -0.4,0.7 -0.5,1c-0.5,0.9 -0.7,1.8 -0.9,2.7c-0.5,1.8 -0.6,3.6 -0.8,5.4c0,0.3 0.2,0.5 0.5,0.6c0.3,0.2 0.7,-0.1 0.8,-0.4c0.3,-0.8 0.6,-1.7 0.9,-2.5c0,3.8 -0.1,7.7 -0.1,11.5c0,0.3 0.3,0.6 0.6,0.7c0.4,0 0.8,-0.2 0.8,-0.6l1.5,-8.8c0.1,-0.3 0.2,-0.6 0.4,-0.6c0.3,0 0.5,0.8 0.6,1.3c0.5,2.7 0.9,5.5 1.4,8.2c0.1,0.4 0.3,0.6 0.7,0.6c0.2,0 0.4,-0.1 0.5,-0.3c0.1,0.1 0.3,0.2 0.4,0.3c0.4,0 0.9,-0.3 1,-0.7l1.7,-10.2c0.1,-0.4 0.2,-0.7 0.4,-0.7c0.3,0 0.5,0.9 0.6,1.5c0.5,3.1 1,6.3 1.6,9.4c0.1,0.4 0.4,0.7 0.8,0.7s0.8,-0.4 0.8,-0.8l-0.1,-13.4c0.4,1 0.8,2 1.1,3c0.1,0.4 0.4,0.5 0.7,0.6c0.4,-0.1 0.7,-0.4 0.7,-0.8c-0.1,-2.1 -0.4,-4.1 -0.9,-6.2c-0.1,-0.9 -0.4,-2 -0.9,-3z"/>
  <path id="svg_10" fill="#0436ed" d="m41.094338,56l-18,0l0,-15c0,-1.1 0.9,-2 2,-2l14,0c1.1,0 2,0.9 2,2l0,15z"/>
  <path id="svg_11" fill="#FFFFFF" d="m32,50.8l-2.7,1.4c-0.4,0.2 -0.8,-0.1 -0.7,-0.5l0.5,-3l-2.1,-2.1c-0.3,-0.3 -0.1,-0.8 0.3,-0.8l3,-0.4l1.3,-2.7c0.2,-0.4 0.7,-0.4 0.9,0l1.3,2.7l3,0.4c0.4,0.1 0.6,0.6 0.3,0.8l-2.2,2.1l0.5,3c0.1,0.4 -0.4,0.7 -0.7,0.5l-2.7,-1.4z"/>
 </g>
</svg>