<svg width="32" height="32.000001" xmlns="http://www.w3.org/2000/svg">

 <g>
  <title>background</title>
  <rect fill="none" id="canvas_background" height="402" width="582" y="-1" x="-1"/>
 </g>
 <g>
  <title>Layer 1</title>
  <path clip-rule="nonzero" fill="#0436ed" fill-rule="evenodd" stroke-width="1" stroke-linecap="round" stroke-linejoin="round" stroke-miterlimit="4" stroke-dashoffset="0" id="path15435-1-5" d="m21.482156,19.922977c-0.53704,-0.13793 -1.12976,-0.0711 -1.64258,0.23437c-1.0037,0.598 -1.34962,1.90344 -0.7539,2.90039l4.46289,7.70313c0.32845,0.58536 0.84734,0.94414 1.38671,1.05273c0.53938,0.1086 1.08374,-0.0107 1.53711,-0.27148c0.45338,-0.2608 0.82821,-0.67047 1.00391,-1.19141c0.1757,-0.52094 0.1239,-1.14858 -0.2207,-1.72461l-4.46289,-7.70508c-0.29058,-0.51731 -0.77351,-0.86012 -1.31055,-0.99804zm-0.25,0.96093c0.28348,0.0722 0.53445,0.25487 0.6875,0.52735a0.50005,0.50005 0 0 0 0.004,0.006l4.4707,7.71484a0.50005,0.50005 0 0 0 0.004,0.006c0.21313,0.35627 0.21735,0.63614 0.13086,0.89258c-0.0865,0.25643 -0.29102,0.49286 -0.55469,0.64453c-0.26367,0.15167 -0.57433,0.21205 -0.8418,0.1582c-0.26747,-0.0539 -0.50782,-0.19856 -0.71094,-0.56054a0.50005,0.50005 0 0 0 -0.004,-0.006l-4.47071,-7.7168a0.50005,0.50005 0 0 0 -0.004,-0.006c-0.31347,-0.5246 -0.14099,-1.20014 0.4082,-1.52734c0.2809,-0.16735 0.59738,-0.20506 0.88086,-0.13282l0.00002,0z"/>
  <path clip-rule="nonzero" fill="#0436ed" fill-rule="evenodd" stroke-width="1px" stroke-linecap="round" stroke-linejoin="round" stroke-miterlimit="4" stroke-dashoffset="0" id="path15437-5-0" d="m17.312515,17.536257a0.50005,0.50005 0 0 0 -0.41016,0.75586l1.91016,3.30664a0.50005,0.50005 0 1 0 0.86523,-0.5l-1.9082,-3.30664a0.50005,0.50005 0 0 0 -0.45703,-0.25586z"/>
  <path clip-rule="nonzero" fill="#0436ed" fill-rule="nonzero" stroke-linecap="round" stroke-linejoin="round" stroke-miterlimit="4" stroke-dashoffset="0" id="ellipse15439-0-3" d="m10.490905,4.086097c-3.8212,2.20617 -5.13438,7.10698 -2.9282,10.9282c2.20617,3.82121 7.107,5.13438 10.9282,2.9282c3.82122,-2.20618 5.13438,-7.10699 2.92821,-10.9282c-2.20618,-3.82122 -7.10699,-5.13438 -10.92821,-2.9282zm0.5,0.86602c3.35318,-1.93596 7.62622,-0.791 9.56218,2.56218c1.93596,3.35317 0.791,7.62622 -2.56218,9.56218c-3.35317,1.93595 -7.62622,0.79099 -9.56218,-2.56218c-1.93596,-3.35318 -0.79099,-7.62622 2.56218,-9.56218z"/>
  <path clip-rule="nonzero" fill="#547cec" fill-rule="nonzero" stroke-linecap="square" stroke-linejoin="round" stroke-miterlimit="4" stroke-dashoffset="0" id="ellipse15497-1-2" d="m9.34926,2.899994l-0.211046,0.152719l-0.390619,0.281181l0.546611,0.806712l0.389666,-0.28285l0.19265,-0.139559l0.586777,-0.337751l0.412722,-0.24553l-0.47013,-0.854345l-0.412732,0.24553l-0.606116,0.349241l-0.037783,0.024651zm2.341359,-0.068748l0.446531,-0.154487l0.004766,0l0.741835,-0.179924l0.006672,0l0.090835,-0.014732l0.471446,-0.067766l-0.130009,-0.972494l-0.471446,0.067766l-0.101768,0.01375l-0.043082,0.009821l-0.824825,0.200647l-0.042796,0.011785l-0.004766,0l-0.452326,0.155666l0.308934,0.929968zm-4.078766,1.540551l-0.264813,0.279314l-0.028785,0.033392l-0.360995,0.460614l-0.29967,0.382142l0.741568,0.617556l0.299679,-0.382044l0.3314,-0.425257l0.007625,0l0.257655,-0.272931l0.333058,-0.35317l-0.682987,-0.685617l-0.333735,0.346zm6.707108,-2.036521l0.475068,0.022589l0.476717,0.022589l0.014488,0l0.414753,0.060891l0.471779,0.066784l0.131782,-0.973279l-0.471779,-0.066784l-0.460008,-0.06482l-0.04251,0l-0.488498,-0.023571l-0.476679,-0.022589l-0.045112,0.97819zm-8.424442,4.542102l-0.002859,0l-0.018682,0.039285l-0.326558,0.779115l-0.014583,0.039285l-0.040318,0.123747l-0.147147,0.46631l0.905338,0.3076l0.148758,-0.467292l0.036029,-0.112158l0.001906,-0.012768l0.294389,-0.702215l0.003813,-0.01375l0.221445,-0.421918l-0.836263,-0.468176l-0.225267,0.442935zm11.113061,-4.132558l0.45345,0.15321l0.069103,0.023571l0.728758,0.326162l0.007625,0.009821l0.007625,0.009821l0.406222,0.23011l0.456052,-0.862595l-0.417345,-0.234628l-0.025735,-0.015714l-0.038602,-0.01866l-0.75699,-0.338143l-0.03927,-0.016696l-0.095219,-0.031428l-0.45345,-0.15321l-0.302224,0.918379zm-11.985668,7.10985l-0.058809,0.451382l-0.004766,0.045177l-0.021065,0.526317l-0.021446,0.491256l0.952442,0.042231l0.021446,-0.491157l0.019349,-0.49872l0.057189,-0.43498l0.06348,-0.485167l-0.944274,-0.131506l-0.063546,0.485167zm14.39877,-5.914514l0.367562,0.310644l0.420166,0.354741l0.259742,0.264092l0.337958,0.346099l0.670758,-0.69809l-0.33791,-0.346l-0.282723,-0.285895l-0.032693,-0.031428l-0.431528,-0.36358l-0.370126,-0.31143l-0.601207,0.760847zm-14.342563,8.984125l0.012296,0.094283l0.008578,0.04616l0.203449,0.857979l0.012772,0.04616l0,0l0.157184,0.46464l0.900295,-0.322921l-0.152265,-0.452069l-0.186483,-0.781668l-0.002859,-0.009821l-0.013535,-0.089373l-0.068436,-0.486542l-0.9417,0.141621l0.070704,0.49155zm16.270371,-7.016746l0.269579,0.404338l0.147118,0.220387l0.004766,0.009821l0.307971,0.576504l0.230195,0.43007l0.834033,-0.475738l-0.230204,-0.430168l-0.330323,-0.616378l-0.024019,-0.039285l-0.152694,-0.230307l-0.269579,-0.404338l-0.786842,0.555093zm-15.501667,9.531951l0.238287,0.425257l0.346069,0.613726l0.024019,0.039285l0.154724,0.22245l0.27769,0.399624l0.773908,-0.571495l-0.277642,-0.399624l-0.141304,-0.206147l-0.333011,-0.590351l-0.238287,-0.425257l-0.824454,0.492532zm16.879336,-6.628219l0.175036,0.799543l0.013439,0.116086l0.061669,0.48605l0.945246,-0.123845l-0.061001,-0.488604l-0.017157,-0.138184l-0.007625,-0.044195l-0.17883,-0.821739l-0.105513,-0.479863l-0.928251,0.215477l0.102988,0.479274zm-15.163871,9.144996l0.34502,0.339617l0.245121,0.241798l0.03336,0.028481l0.480834,0.393928l0.3731,0.305242l0.592419,-0.768802l-0.37311,-0.305341l-0.472027,-0.385874l-0.008578,-0.009821l-0.213343,-0.211941l-0.342504,-0.338929l-0.660293,0.711643zm15.446079,-6.362556l-0.024019,0.432918l-0.071009,0.498523l-0.069294,0.486345l0.944102,0.142702l0.067673,-0.485461l0.075299,-0.525433l0.004766,-0.045177l0.024591,-0.450989l0.026593,-0.489684l-0.952271,-0.054017l-0.026431,0.490274zm-13.0443,8.262759l0.439801,0.190335l0.711105,0.309957l0.04089,0.015714l0.170899,0.055981l0.454813,0.148005l0.288299,-0.935566l-0.45325,-0.149086l-0.154686,-0.050088l-0.690536,-0.300135l-0.438143,-0.191218l-0.369192,0.906103zm12.481638,-5.52255l-0.005719,0.019642l-0.318656,0.743365l-0.029738,0.050088l-0.23273,0.428695l0.831917,0.479568l0.232778,-0.428498l0.038507,-0.06973l0.020302,-0.040267l0.334917,-0.779507l0.017729,-0.041249l0.014869,-0.04616l0.152227,-0.464935l-0.901649,-0.316242l-0.154753,0.46523zm-9.653687,6.491509l0.473152,0.061873l0.393221,0.050088l0.045084,0l0.556571,0.01866l0.475516,0.015714l0.03031,-0.981726l-0.475468,-0.015714l-0.534878,-0.01866l-0.370565,-0.047142l-0.4732,-0.061873l-0.119744,0.978779zm8.304135,-4.116059l-0.328207,0.407874l-0.281179,0.284618l-0.339349,0.345804l0.670339,0.697599l0.339349,-0.345804l0.300032,-0.304653l0.030405,-0.034374l0.339902,-0.421525l0.306666,-0.37733l-0.731484,-0.630225l-0.306475,0.378017zm-5.323653,4.152593l0.47096,-0.076605l0.078349,-0.01375l0.046323,-0.009821l0.844384,-0.223236l0.462458,-0.122274l-0.236409,-0.95128l-0.462458,0.122176l-0.825454,0.218718l-0.053567,0.009821l-0.47096,0.076605l0.146375,0.969646z"/>
  <path clip-rule="nonzero" fill="#547cec" fill-rule="nonzero" stroke-width="1" stroke-linecap="round" stroke-linejoin="round" stroke-miterlimit="4" stroke-dashoffset="0" id="ellipse11121-2" d="m14.536986,5.013807c-3.30779,0 -5.99999,2.69222 -6,6a0.50005,0.50005 0 1 0 1,0c0,-2.76734 2.23265,-5 5,-5a0.50005,0.50005 0 1 0 0,-1z"/>
  <path clip-rule="nonzero" fill="#0436ed" fill-rule="evenodd" stroke-width="1px" stroke-linecap="round" stroke-linejoin="round" stroke-miterlimit="4" stroke-dashoffset="0" id="path23235-3" d="m18.884785,16.733517a0.50005,0.50005 0 0 0 -0.41016,0.75586l1.57031,2.72071a0.5005,0.5005 0 1 0 0.86719,-0.5l-1.57227,-2.72071a0.50005,0.50005 0 0 0 -0.45507,-0.25586z"/>
  <text stroke="null" transform="rotate(0.25300419330596924 14.818170547485373,11.468705177307255) matrix(0.514828574178171,0,0,0.4755322165475842,9.336050316889171,6.627935471851683) " xml:space="preserve" text-anchor="start" font-family="Helvetica, Arial, sans-serif" font-size="24" id="svg_1" y="18.513871" x="3.976065" stroke-width="0" fill="#0436ed">$</text>
 </g>
</svg>