<svg width="32" height="32" xmlns="http://www.w3.org/2000/svg">

 <g>
  <title>background</title>
  <rect fill="none" id="canvas_background" height="402" width="582" y="-1" x="-1"/>
 </g>
 <g>
  <title>Layer 1</title>
  <path id="svg_2" fill="#547cec" d="m11.021,27.011c-0.227,0 -0.432,-0.155 -0.486,-0.386l-2.3,-9.8c-0.063,-0.269 0.104,-0.538 0.373,-0.601c0.268,-0.062 0.538,0.104 0.601,0.373l2.3,9.8c0.063,0.269 -0.104,0.538 -0.373,0.601c-0.039,0.008 -0.077,0.013 -0.115,0.013z"/>
  <path id="svg_3" fill="#0436ed" d="m11.021,27.011c-0.079,0 -0.159,-0.019 -0.233,-0.058c-0.21,-0.111 -0.314,-0.355 -0.247,-0.583l2.5,-8.501c0.025,-0.088 0.075,-0.167 0.143,-0.229l17,-15.5c0.204,-0.185 0.521,-0.172 0.707,0.033c0.186,0.204 0.171,0.521 -0.033,0.707l-16.897,15.405l-1.758,5.977l2.833,-3.518c0.175,-0.214 0.49,-0.246 0.704,-0.073c0.214,0.174 0.247,0.489 0.073,0.704l-4.403,5.451c-0.098,0.12 -0.243,0.185 -0.389,0.185z"/>
  <path id="svg_4" fill="#0436ed" d="m8.721,17.211c-0.027,0 -0.055,-0.002 -0.083,-0.007l-7.2,-1.201c-0.217,-0.036 -0.385,-0.21 -0.414,-0.429c-0.028,-0.219 0.09,-0.43 0.292,-0.52l29,-13c0.253,-0.113 0.548,0 0.661,0.251c0.113,0.252 0,0.548 -0.251,0.661l-27.49,12.323l5.375,0.896l11.304,-7.354c0.231,-0.15 0.542,-0.085 0.691,0.146c0.151,0.231 0.085,0.541 -0.146,0.691l-11.467,7.462c-0.081,0.053 -0.176,0.081 -0.272,0.081z"/>
  <path id="svg_5" fill="#547cec" d="m24.521,22.011c-0.051,0 -0.102,-0.008 -0.152,-0.023l-11,-3.501c-0.17,-0.054 -0.298,-0.195 -0.336,-0.37c-0.039,-0.174 0.02,-0.356 0.151,-0.477l17,-15.5c0.168,-0.152 0.416,-0.173 0.606,-0.052c0.191,0.122 0.276,0.356 0.208,0.572l-6,19.001c-0.04,0.127 -0.128,0.232 -0.247,0.293c-0.072,0.038 -0.15,0.057 -0.23,0.057zm-10.023,-4.215l9.698,3.086l5.29,-16.751l-14.988,13.665z"/>
  <path id="svg_6" fill="#547cec" d="m2.367,26.771c-0.154,0 -0.306,-0.071 -0.404,-0.205c-0.163,-0.223 -0.115,-0.536 0.108,-0.699l5.117,-3.748c0.222,-0.164 0.536,-0.116 0.699,0.108c0.163,0.223 0.115,0.536 -0.108,0.699l-5.117,3.748c-0.089,0.066 -0.193,0.097 -0.295,0.097z"/>
  <path id="svg_7" fill="#0436ed" d="m1.567,30.971c-0.152,0 -0.302,-0.069 -0.4,-0.199c-0.166,-0.221 -0.122,-0.534 0.099,-0.7l3.917,-2.947c0.222,-0.166 0.535,-0.121 0.7,0.099c0.166,0.221 0.122,0.534 -0.099,0.7l-3.917,2.946c-0.09,0.068 -0.196,0.101 -0.3,0.101z"/>
 </g>
</svg>