<svg width="22" height="22" viewBox="0 0 22 22" fill="none" xmlns="http://www.w3.org/2000/svg">
<path d="M20.4286 0H1.56652C0.702232 0 0 0.712054 0 1.58616V20.4138C0 21.2879 0.702232 22 1.56652 22H20.4286C21.2929 22 22 21.2879 22 20.4138V1.58616C22 0.712054 21.2929 0 20.4286 0ZM6.64911 18.8571H3.38839V8.35804H6.65402V18.8571H6.64911ZM5.01875 6.92411C3.97277 6.92411 3.12812 6.07455 3.12812 5.03348C3.12812 3.99241 3.97277 3.14286 5.01875 3.14286C6.05982 3.14286 6.90937 3.99241 6.90937 5.03348C6.90937 6.07946 6.06473 6.92411 5.01875 6.92411ZM18.8719 18.8571H15.6112V13.75C15.6112 12.5321 15.5866 10.9656 13.917 10.9656C12.2179 10.9656 11.9576 12.2915 11.9576 13.6616V18.8571H8.69688V8.35804H11.825V9.79196H11.8692C12.3062 8.96696 13.3719 8.09777 14.958 8.09777C18.258 8.09777 18.8719 10.2732 18.8719 13.1018V18.8571Z" fill="#378FE9"/>
</svg>
