<svg clip-rule="evenodd" viewBox="0 0 1798 411" fill-rule="evenodd" height="46" stroke-linejoin="round" stroke-miterlimit="2" width="201" xmlns="http://www.w3.org/2000/svg" xmlns:xlink="http://www.w3.org/1999/xlink"><clipPath id="a"><path clip-rule="evenodd" d="m282.356 219.383c1.544 0 3.088.4 4.472 1.199 12.073 6.97 45.235 26.116 57.308 33.086 2.767 1.598 4.471 4.55 4.471 7.745v66.174c0 1.597-.426 3.134-1.198 4.471l-20.894-12.063c.579-1.003.899-2.155.899-3.354v-44.282c0-2.397-1.279-4.611-3.354-5.809-8.35-4.821-30-17.32-38.35-22.141-1.038-.599-2.196-.899-3.354-.899z"/></clipPath><g transform="matrix(1.69144 0 0 .386642 1826.8 -9.279)"><path d="m-1080 24h1063v1063h-1063z" fill="none"/><g fill="#090928" fill-rule="nonzero"><path d="m.537-.37c.065-.031.104-.087.104-.162 0-.114-.084-.188-.229-.188h-.345v.72h.361c.146 0 .228-.08.228-.203 0-.079-.039-.14-.119-.167zm-.307-.208h.161c.053 0 .084.027.084.074 0 .048-.034.075-.087.075h-.158zm.177.436h-.177v-.157h.176c.051 0 .084.029.084.078 0 .048-.031.079-.083.079z" transform="matrix(88.681760712 0 0 387.9555 -796.52632317932 460.36869308)"/><path d="m.058-.72h.155v.72h-.155z" transform="matrix(88.681760712 0 0 387.9555 -734.98118124519 460.36869308)"/><path d="m.304.014c.154 0 .273-.106.273-.279s-.119-.279-.273-.279-.273.106-.273.279.119.279.273.279zm0-.133c-.071 0-.115-.055-.115-.146s.044-.146.115-.146c.07 0 .115.055.115.146s-.045.146-.115.146z" transform="matrix(88.681760712 0 0 387.9555 -710.94842409224 460.36869308)"/><path d="m.301.014c.09 0 .174-.026.236-.148l-.13-.059c-.027.054-.058.074-.103.074-.07 0-.115-.055-.115-.146 0-.086.041-.145.115-.145.044 0 .076.018.103.069l.129-.063c-.058-.112-.156-.139-.235-.139-.163 0-.27.111-.27.279 0 .167.109.278.27.278z" transform="matrix(88.681760712 0 0 387.9555 -657.11859534006 460.36869308)"/><path d="m.396 0h.175l-.199-.316.191-.214h-.182l-.168.195v-.385h-.155v.72h.155v-.138l.06-.067z" transform="matrix(88.681760712 0 0 387.9555 -607.5927880411 460.36869308)"/><path d="m.301.014c.09 0 .174-.026.236-.148l-.13-.059c-.027.054-.058.074-.103.074-.07 0-.115-.055-.115-.146 0-.086.041-.145.115-.145.044 0 .076.018.103.069l.129-.063c-.058-.112-.156-.139-.235-.139-.163 0-.27.111-.27.279 0 .167.109.278.27.278z" transform="matrix(88.681760712 0 0 387.9555 -558.99518317092 460.36869308)"/><path d="m.364-.544c-.079 0-.129.035-.151.07v-.246h-.155v.72h.155v-.299c0-.058.03-.11.097-.11.047 0 .078.027.078.091v.318h.155v-.357c0-.128-.082-.187-.179-.187z" transform="matrix(88.681760712 0 0 387.9555 -509.46346375458 460.36869308)"/><path d="m.272-.542c-.092 0-.169.033-.217.09l.091.092c.028-.032.068-.054.114-.054.057 0 .092.027.092.087v.006h-.076c-.16 0-.244.056-.244.168 0 .105.081.167.178.167.074 0 .123-.03.146-.073v.059h.152v-.326c0-.146-.088-.216-.236-.216zm.081.347c0 .046-.041.098-.101.098-.044 0-.072-.022-.072-.062 0-.044.043-.062.111-.062h.062z" transform="matrix(88.681760712 0 0 387.9555 -456.4317708488 460.36869308)"/><path d="m.055-.594h.161v-.126h-.161zm.003.594h.155v-.53h-.155z" transform="matrix(88.681760712 0 0 387.9555 -406.55123650699 460.36869308)"/><path d="m.367-.544c-.088 0-.137.04-.157.075v-.061h-.152v.53h.155v-.303c0-.057.035-.109.097-.109.047 0 .078.027.078.091v.321h.155v-.357c0-.128-.082-.187-.176-.187z" transform="matrix(88.681760712 0 0 387.9555 -382.51847935404 460.36869308)"/><path d="m.394-.7h-.107l-.257.69v.01h.091l.066-.183h.306l.066.183h.093v-.01zm-.179.439.123-.342h.004l.123.342z" transform="matrix(88.681760712 0 0 387.9555 -796.52632317932 919.34849965)"/><path d="m.259.008c.079 0 .131-.037.158-.089h.004l.007.081h.073v-.511h-.084v.281c0 .103-.05.163-.135.163-.081 0-.118-.046-.118-.126v-.318h-.084v.331c0 .117.066.188.179.188z" transform="matrix(88.681760712 0 0 387.9555 -737.81899758798 919.34849965)"/><path d="m.259.009c.11 0 .202-.054.202-.148 0-.088-.049-.126-.145-.148l-.08-.015c-.056-.009-.089-.032-.089-.072 0-.05.043-.075.105-.075.064 0 .112.029.115.094h.082c0-.102-.082-.165-.197-.165-.113 0-.186.061-.186.146 0 .075.046.126.13.143l.102.019c.055.012.078.039.078.073 0 .049-.045.073-.117.073-.073 0-.125-.035-.125-.103h-.084c.003.112.088.178.209.178z" transform="matrix(88.681760712 0 0 387.9555 -686.29489461431 919.34849965)"/><path d="m.26 0h.076v-.074h-.06c-.046 0-.067-.021-.067-.07v-.296h.125v-.071h-.125v-.137h-.082v.137h-.087v.071h.085v.303c0 .085.034.137.135.137z" transform="matrix(88.681760712 0 0 387.9555 -640.97851489047 919.34849965)"/><path d="m.09 0h.084v-.248c0-.12.044-.188.141-.188h.04v-.081h-.046c-.063 0-.114.035-.135.092h-.004l-.007-.086h-.073z" transform="matrix(88.681760712 0 0 387.9555 -607.1907640592 919.34849965)"/><path d="m.228.009c.072 0 .129-.029.16-.081h.004l.006.072h.071v-.344c0-.097-.069-.176-.2-.176-.112 0-.194.065-.194.163h.081c.001-.049.038-.091.113-.091.083 0 .118.049.118.106v.033h-.126c-.15 0-.211.074-.211.16 0 .089.067.158.178.158zm.015-.07c-.074 0-.108-.038-.108-.089 0-.06.043-.092.126-.092h.126v.044c0 .074-.057.137-.144.137z" transform="matrix(88.681760712 0 0 387.9555 -572.60487738152 919.34849965)"/><path d="m.09-.74h.084v.74h-.084z" transform="matrix(88.681760712 0 0 387.9555 -523.91859075063 919.34849965)"/><path d="m.085-.617h.094v-.098h-.094zm.005.617h.084v-.511h-.084z" transform="matrix(88.681760712 0 0 387.9555 -501.39342352979 919.34849965)"/><path d="m.228.009c.072 0 .129-.029.16-.081h.004l.006.072h.071v-.344c0-.097-.069-.176-.2-.176-.112 0-.194.065-.194.163h.081c.001-.049.038-.091.113-.091.083 0 .118.049.118.106v.033h-.126c-.15 0-.211.074-.211.16 0 .089.067.158.178.158zm.015-.07c-.074 0-.108-.038-.108-.089 0-.06.043-.092.126-.092h.126v.044c0 .074-.057.137-.144.137z" transform="matrix(88.681760712 0 0 387.9555 -478.86825630894 919.34849965)"/><path d="m.315.009c.162 0 .262-.076.262-.201 0-.107-.069-.174-.199-.201l-.095-.02c-.074-.016-.119-.047-.119-.104 0-.079.06-.112.15-.112.108 0 .158.052.162.128h.089c-.001-.124-.099-.208-.249-.208-.155 0-.243.074-.243.192 0 .107.065.163.186.189l.102.022c.076.016.125.046.125.114 0 .082-.06.122-.171.122-.11 0-.171-.053-.176-.14h-.089c.004.132.095.219.265.219z" transform="matrix(88.681760712 0 0 387.9555 -403.57744146445 919.34849965)"/><path d="m.281.009c.16 0 .231-.118.231-.264 0-.147-.073-.265-.231-.265s-.231.118-.231.265.071.264.231.264zm0-.075c-.103 0-.146-.079-.146-.189 0-.109.042-.19.146-.19s.146.08.146.19-.042.189-.146.189z" transform="matrix(88.681760712 0 0 387.9555 -347.53056869447 919.34849965)"/><path d="m.09-.74h.084v.74h-.084z" transform="matrix(88.681760712 0 0 387.9555 -297.69141917432 919.34849965)"/><path d="m.259.008c.079 0 .131-.037.158-.089h.004l.007.081h.073v-.511h-.084v.281c0 .103-.05.163-.135.163-.081 0-.118-.046-.118-.126v-.318h-.084v.331c0 .117.066.188.179.188z" transform="matrix(88.681760712 0 0 387.9555 -275.16625195347 919.34849965)"/><path d="m.26 0h.076v-.074h-.06c-.046 0-.067-.021-.067-.07v-.296h.125v-.071h-.125v-.137h-.082v.137h-.087v.071h.085v.303c0 .085.034.137.135.137z" transform="matrix(88.681760712 0 0 387.9555 -223.6421489798 919.34849965)"/><path d="m.085-.617h.094v-.098h-.094zm.005.617h.084v-.511h-.084z" transform="matrix(88.681760712 0 0 387.9555 -189.85439814853 919.34849965)"/><path d="m.281.009c.16 0 .231-.118.231-.264 0-.147-.073-.265-.231-.265s-.231.118-.231.265.071.264.231.264zm0-.075c-.103 0-.146-.079-.146-.189 0-.109.042-.19.146-.19s.146.08.146.19-.042.189-.146.189z" transform="matrix(88.681760712 0 0 387.9555 -167.32923092768 919.34849965)"/><path d="m.09 0h.084v-.282c0-.103.05-.163.135-.163.081 0 .118.046.118.126v.319h.084v-.332c0-.117-.066-.188-.179-.188-.079 0-.131.037-.158.089h-.004l-.007-.08h-.073z" transform="matrix(88.681760712 0 0 387.9555 -117.49008140754 919.34849965)"/><path d="m.259.009c.11 0 .202-.054.202-.148 0-.088-.049-.126-.145-.148l-.08-.015c-.056-.009-.089-.032-.089-.072 0-.05.043-.075.105-.075.064 0 .112.029.115.094h.082c0-.102-.082-.165-.197-.165-.113 0-.186.061-.186.146 0 .075.046.126.13.143l.102.019c.055.012.078.039.078.073 0 .049-.045.073-.117.073-.073 0-.125-.035-.125-.103h-.084c.003.112.088.178.209.178z" transform="matrix(88.681760712 0 0 387.9555 -65.07916082675 919.34849965)"/></g><g transform="matrix(1.5866631558 0 0 6.9411446238 -1421.2827564 -1491.2518782)"><path d="m282.356 219.383c1.544 0 3.088.4 4.472 1.199 12.073 6.97 45.235 26.116 57.308 33.086 2.767 1.598 4.471 4.55 4.471 7.745v66.174c0 1.597-.426 3.134-1.198 4.471l-20.894-12.063c.579-1.003.899-2.155.899-3.354v-44.282c0-2.397-1.279-4.611-3.354-5.809-8.35-4.821-30-17.32-38.35-22.141-1.038-.599-2.196-.899-3.354-.899z" fill="none"/><g clip-path="url(#a)" fill="#bfc5d8"><path d="m305.964 271.042c2.188-1.264 4.884-1.264 7.072 0 9.548 5.512 35.774 20.654 45.322 26.166 2.189 1.264 3.537 3.599 3.537 6.125v52.334c0 2.526-1.348 4.861-3.537 6.125-9.548 5.512-35.774 20.654-45.322 26.166-2.188 1.264-4.884 1.264-7.072 0-9.548-5.512-35.774-20.654-45.322-26.166-2.189-1.264-3.537-3.599-3.537-6.125v-52.334c0-2.526 1.348-4.861 3.537-6.125 9.548-5.512 35.774-20.654 45.322-26.166z" transform="matrix(1.26446 0 0 1.26446 -108.995 -122.14)"/><path d="m305.6 271.251c2.413-1.393 5.387-1.393 7.8 0 9.71 5.607 34.885 20.141 44.595 25.748 2.413 1.393 3.9 3.968 3.9 6.754v51.494c0 2.786-1.487 5.361-3.9 6.754-9.71 5.607-34.885 20.141-44.595 25.748-2.413 1.393-5.387 1.393-7.8 0-9.71-5.607-34.885-20.141-44.595-25.748-2.413-1.393-3.9-3.968-3.9-6.754v-51.494c0-2.786 1.487-5.361 3.9-6.754 9.71-5.607 34.885-20.141 44.595-25.748z" transform="matrix(.859958 0 0 .859958 16.1993 11.1437)"/></g></g><path d="m309.5 270.315c1.468 0 2.936.38 4.251 1.139 9.834 5.678 34.059 19.664 43.892 25.342 2.631 1.518 4.252 4.325 4.252 7.363v50.682c0 1.519-.406 2.98-1.14 4.251l-51.255-29.592z" fill="#ff438b" transform="matrix(.97347463362 0 0 4.2586651146 -1274.568675 -850.315252116)"/><path d="m334.37 283.359c-.356.617-.872 1.141-1.51 1.51-4.771 2.755-16.526 9.541-21.297 12.296-1.277.737-2.849.737-4.126 0-4.771-2.755-16.526-9.541-21.297-12.296-.638-.369-1.154-.893-1.51-1.51l24.87-14.359z" fill="#8a0536" transform="matrix(2.0062710504 0 0 8.7767948676 -1594.2269544 -1808.04858039)"/><path d="m361.895 334.469v25.163l-21.792 12.581c-.312-.54-.485-1.162-.485-1.807v-21.548c0-1.292.689-2.485 1.808-3.131 4.181-2.414 14.48-8.36 18.661-10.774.559-.323 1.183-.484 1.808-.484z" fill="#c60d4f" transform="matrix(2.2896539514 0 0 10.0165454634 -1801.8931398 -3049.35617093)"/><path d="m344.423 289.163 16.524 9.54c-.611 1.057-1.495 1.957-2.589 2.589-9.548 5.512-35.774 20.654-45.322 26.166-2.188 1.264-4.884 1.264-7.072 0-9.548-5.512-35.774-20.654-45.322-26.166-1.094-.632-1.978-1.532-2.589-2.589l16.524-9.54c.458.793 1.121 1.467 1.942 1.941 6.604 3.813 23.725 13.698 30.329 17.511 1.641.947 3.663.947 5.304 0 6.604-3.813 23.725-13.698 30.329-17.511.821-.474 1.484-1.148 1.942-1.941z" fill="#4e506b" transform="matrix(2.0062710504 0 0 8.7767948676 -1594.2269544 -1808.04858039)"/><path d="m361.895 307.578v16.719c-.803 0-1.605.208-2.324.623-5.787 3.341-20.789 12.002-26.576 15.343-1.438.83-2.324 2.365-2.324 4.025v30.687c0 .83.222 1.629.623 2.324l-14.479 8.359c-.535-.926-.83-1.991-.83-3.098v-45.857c0-2.214 1.181-4.259 3.098-5.366 8.367-4.831 31.347-18.098 39.713-22.928.959-.554 2.029-.831 3.099-.831z" fill="#84859b" transform="matrix(2.2896539514 0 0 10.0165454634 -1801.8931398 -3049.35617093)"/></g></svg>