<svg width="85" height="85" viewBox="0 0 85 85" fill="none" xmlns="http://www.w3.org/2000/svg">
<path d="M19.9219 50.4688H11.9531C11.1562 50.4688 10.625 51 10.625 51.7969V69.0625C10.625 69.8594 11.1562 70.3906 11.9531 70.3906H19.9219C20.7188 70.3906 21.25 69.8594 21.25 69.0625V51.7969C21.25 51 20.7188 50.4688 19.9219 50.4688Z" fill="#DADEE7"/>
<path d="M33.2031 45.1562H25.2344C24.4375 45.1562 23.9062 45.6875 23.9062 46.4844V69.0625C23.9062 69.8594 24.4375 70.3906 25.2344 70.3906H33.2031C34 70.3906 34.5312 69.8594 34.5312 69.0625V46.4844C34.5312 45.6875 34 45.1562 33.2031 45.1562Z" fill="#DADEE7"/>
<path d="M46.4844 38.5156H38.5156C37.7187 38.5156 37.1875 39.0469 37.1875 39.8438V69.0625C37.1875 69.8594 37.7187 70.3906 38.5156 70.3906H46.4844C47.2812 70.3906 47.8125 69.8594 47.8125 69.0625V39.8438C47.8125 39.0469 47.2812 38.5156 46.4844 38.5156Z" fill="#DADEE7"/>
<path d="M59.7656 27.8906H51.7969C51 27.8906 50.4688 28.4219 50.4688 29.2188V69.0625C50.4688 69.8594 51 70.3906 51.7969 70.3906H59.7656C60.5625 70.3906 61.0938 69.8594 61.0938 69.0625V29.2188C61.0938 28.4219 60.5625 27.8906 59.7656 27.8906Z" fill="#DADEE7"/>
<path d="M73.0469 11.9531H65.0781C64.2812 11.9531 63.75 12.4844 63.75 13.2812V69.0625C63.75 69.8594 64.2812 70.3906 65.0781 70.3906H73.0469C73.8438 70.3906 74.375 69.8594 74.375 69.0625V13.2812C74.375 12.4844 73.8438 11.9531 73.0469 11.9531Z" fill="#DADEE7"/>
<path d="M11.7822 70.6931H74.0595" stroke="#547CEC" stroke-width="4" stroke-miterlimit="10" stroke-linecap="square"/>
<path d="M10.625 59.7656C15.4062 59.7656 47.8125 59.7656 68.6641 39.9766" stroke="#0436ED" stroke-width="3" stroke-miterlimit="10"/>
<path d="M71.7187 45.2891L74.375 33.6016L62.9531 37.1875L71.7187 45.2891Z" fill="#0436ED"/>
</svg>
