<svg width="128" height="128" xmlns="http://www.w3.org/2000/svg">

 <g>
  <title>background</title>
  <rect fill="none" id="canvas_background" height="402" width="582" y="-1" x="-1"/>
 </g>
 <g>
  <title>Layer 1</title>
  <path fill="#0436ed" id="svg_2" d="m59.011,14l-40.643,0c-5.128,0 -9.301,4.088 -9.301,9.113c0,0.066 0.013,0.128 0.019,0.193c-0.006,0.064 -0.019,0.127 -0.019,0.193l0,59.096c0,1.104 0.896,2 2,2s2,-0.896 2,-2l0,-59.096c0,-0.066 -0.013,-0.128 -0.019,-0.193c0.006,-0.064 0.019,-0.127 0.019,-0.193c0,-2.819 2.378,-5.113 5.301,-5.113l40.643,0c2.923,0 5.301,2.293 5.301,5.113l0,3.996l-43.244,0c-1.104,0 -2,0.896 -2,2s0.896,2 2,2l43.244,0l0,61.101l0,12.678c0,2.819 -2.378,5.113 -5.301,5.113l-40.643,0c-2.923,0 -5.301,-2.293 -5.301,-5.113l0,-10.679l43.244,0c1.104,0 2,-0.896 2,-2s-0.896,-2 -2,-2l-45.243,0c-1.104,0 -2,0.896 -2,2l0,12.678c0,5.025 4.172,9.113 9.301,9.113l40.643,0c5.128,0 9.301,-4.088 9.301,-9.113l0,-12.678l0,-63.101l0,-5.996c-0.001,-5.024 -4.174,-9.112 -9.302,-9.112z" class="st0"/>
  <path fill="#547cec" id="svg_3" d="m35.423,100.104c-1.104,0 -2,0.896 -2,2s0.896,2 2,2l5.881,0c1.104,0 2,-0.896 2,-2s-0.896,-2 -2,-2l-5.881,0z" class="st0"/>
  <path fill="#547cec" id="svg_4" d="m76.312,92.009c2.461,0 4.501,1.839 4.745,4.277c0.063,0.629 0.42,1.192 0.963,1.517c0.314,0.188 0.67,0.284 1.027,0.284c0.259,0 0.519,-0.05 0.765,-0.152l11.188,-4.631c0.584,-0.242 1.019,-0.746 1.174,-1.358s0.011,-1.263 -0.389,-1.753c-1.55,-1.902 -1.409,-4.65 0.326,-6.389c1.737,-1.738 4.483,-1.878 6.389,-0.33c0.491,0.399 1.14,0.543 1.752,0.387c0.612,-0.155 1.115,-0.589 1.357,-1.173l4.637,-11.183c0.242,-0.585 0.194,-1.25 -0.131,-1.793s-0.888,-0.9 -1.518,-0.963c-2.441,-0.243 -4.282,-2.286 -4.282,-4.751c0,-2.461 1.841,-4.501 4.283,-4.745c0.63,-0.063 1.193,-0.42 1.518,-0.963c0.325,-0.543 0.374,-1.208 0.131,-1.793l-4.637,-11.183c-0.242,-0.583 -0.745,-1.018 -1.357,-1.173c-0.614,-0.156 -1.262,-0.011 -1.752,0.387c-1.905,1.549 -4.653,1.408 -6.388,-0.328c-1.733,-1.739 -1.875,-4.488 -0.33,-6.396c0.397,-0.491 0.54,-1.14 0.385,-1.751s-0.59,-1.114 -1.173,-1.355l-11.182,-4.631c-0.584,-0.242 -1.249,-0.193 -1.792,0.131c-0.543,0.325 -0.9,0.888 -0.963,1.517c-0.244,2.438 -2.284,4.277 -4.745,4.277c-1.104,0 -2,0.896 -2,2s0.896,2 2,2c3.627,0 6.756,-2.176 8.087,-5.354l6.954,2.88c-1.298,3.192 -0.625,6.946 1.929,9.507c2.561,2.562 6.316,3.234 9.508,1.931l2.883,6.953c-3.18,1.331 -5.358,4.46 -5.358,8.088c0,3.631 2.178,6.763 5.358,8.094l-2.883,6.953c-3.193,-1.303 -6.948,-0.628 -9.51,1.933c-2.557,2.563 -3.229,6.317 -1.925,9.507l-6.956,2.879c-1.331,-3.177 -4.46,-5.354 -8.087,-5.354c-1.104,0 -2,0.896 -2,2s0.894,2 1.999,2z" class="st0"/>
  <path fill="#547cec" id="svg_5" d="m76.312,77.291c-1.104,0 -2,0.896 -2,2s0.896,2 2,2c9.532,0 17.287,-7.758 17.287,-17.293c0,-9.533 -7.755,-17.289 -17.287,-17.289c-1.104,0 -2,0.896 -2,2s0.896,2 2,2c7.327,0 13.287,5.961 13.287,13.289c0,7.33 -5.961,13.293 -13.287,13.293z" class="st0"/>
  <path fill="#dadee7" id="svg_6" d="m76.312,21.379c-1.104,0 -2,0.896 -2,2s0.896,2 2,2c21.295,0 38.621,17.325 38.621,38.621s-17.325,38.621 -38.621,38.621c-1.104,0 -2,0.896 -2,2s0.896,2 2,2c23.501,0 42.621,-19.12 42.621,-42.621s-19.12,-42.621 -42.621,-42.621z" class="st1"/>
  <path fill="#dadee7" id="svg_7" d="m16.728,77.526c0,2.525 2.055,4.58 4.58,4.58l3.105,0c2.525,0 4.58,-2.055 4.58,-4.58l0,-2.892c0,-2.525 -2.055,-4.58 -4.58,-4.58l-3.105,0c-2.525,0 -4.58,2.055 -4.58,4.58l0,2.892zm4,-2.892c0,-0.314 0.266,-0.58 0.58,-0.58l3.105,0c0.314,0 0.58,0.266 0.58,0.58l0,2.892c0,0.314 -0.266,0.58 -0.58,0.58l-3.105,0c-0.314,0 -0.58,-0.266 -0.58,-0.58l0,-2.892z" class="st1"/>
  <path fill="#dadee7" id="svg_8" d="m32.557,77.526c0,2.525 2.055,4.58 4.58,4.58l3.104,0c2.525,0 4.58,-2.055 4.58,-4.58l0,-2.892c0,-2.525 -2.055,-4.58 -4.58,-4.58l-3.104,0c-2.525,0 -4.58,2.055 -4.58,4.58l0,2.892zm4,-2.892c0,-0.314 0.266,-0.58 0.58,-0.58l3.104,0c0.314,0 0.58,0.266 0.58,0.58l0,2.892c0,0.314 -0.266,0.58 -0.58,0.58l-3.104,0c-0.314,0 -0.58,-0.266 -0.58,-0.58l0,-2.892z" class="st1"/>
  <path fill="#dadee7" id="svg_9" d="m48.386,77.526c0,2.525 2.055,4.58 4.58,4.58l3.105,0c2.525,0 4.58,-2.055 4.58,-4.58l0,-2.892c0,-2.525 -2.055,-4.58 -4.58,-4.58l-3.105,0c-2.525,0 -4.58,2.055 -4.58,4.58l0,2.892zm4,-2.892c0,-0.314 0.266,-0.58 0.58,-0.58l3.105,0c0.314,0 0.58,0.266 0.58,0.58l0,2.892c0,0.314 -0.266,0.58 -0.58,0.58l-3.105,0c-0.314,0 -0.58,-0.266 -0.58,-0.58l0,-2.892z" class="st1"/>
  <path fill="#dadee7" id="svg_10" d="m16.350642,62.105c0,2.525 2.055,4.58 4.58,4.58l3.105,0c2.525,0 4.58,-2.054 4.58,-4.58l0,-2.892c0,-2.525 -2.055,-4.58 -4.58,-4.58l-3.105,0c-2.525,0 -4.58,2.055 -4.58,4.58l0,2.892zm4,-2.892c0,-0.314 0.266,-0.58 0.58,-0.58l3.105,0c0.314,0 0.58,0.266 0.58,0.58l0,2.892c0,0.314 -0.266,0.58 -0.58,0.58l-3.105,0c-0.314,0 -0.58,-0.266 -0.58,-0.58l0,-2.892z" class="st1"/>
  <path fill="#dadee7" id="svg_11" d="m32.557,62.105c0,2.525 2.055,4.58 4.58,4.58l3.104,0c2.525,0 4.58,-2.054 4.58,-4.58l0,-2.892c0,-2.525 -2.055,-4.58 -4.58,-4.58l-3.104,0c-2.525,0 -4.58,2.055 -4.58,4.58l0,2.892zm4,-2.892c0,-0.314 0.266,-0.58 0.58,-0.58l3.104,0c0.314,0 0.58,0.266 0.58,0.58l0,2.892c0,0.314 -0.266,0.58 -0.58,0.58l-3.104,0c-0.314,0 -0.58,-0.266 -0.58,-0.58l0,-2.892z" class="st1"/>
  <path fill="#dadee7" id="svg_12" d="m48.386,62.105c0,2.525 2.055,4.58 4.58,4.58l3.105,0c2.525,0 4.58,-2.054 4.58,-4.58l0,-2.892c0,-2.525 -2.055,-4.58 -4.58,-4.58l-3.105,0c-2.525,0 -4.58,2.055 -4.58,4.58l0,2.892zm4,-2.892c0,-0.314 0.266,-0.58 0.58,-0.58l3.105,0c0.314,0 0.58,0.266 0.58,0.58l0,2.892c0,0.314 -0.266,0.58 -0.58,0.58l-3.105,0c-0.314,0 -0.58,-0.266 -0.58,-0.58l0,-2.892z" class="st1"/>
  <path fill="#dadee7" id="svg_13" d="m20.364605,51.263l3.105,0c2.525,0 4.58,-2.055 4.58,-4.58l0,-2.892c0,-2.525 -2.055,-4.58 -4.58,-4.58l-3.105,0c-2.525,0 -4.58,2.055 -4.58,4.58l0,2.892c0,2.525 2.054,4.58 4.58,4.58zm-0.58,-7.472c0,-0.314 0.266,-0.58 0.58,-0.58l3.105,0c0.314,0 0.58,0.266 0.58,0.58l0,2.892c0,0.314 -0.266,0.58 -0.58,0.58l-3.105,0c-0.314,0 -0.58,-0.266 -0.58,-0.58l0,-2.892z" class="st1"/>
  <path fill="#dadee7" id="svg_14" d="m36.948321,51.263l3.104,0c2.525,0 4.58,-2.055 4.58,-4.58l0,-2.892c0,-2.525 -2.055,-4.58 -4.58,-4.58l-3.104,0c-2.525,0 -4.58,2.055 -4.58,4.58l0,2.892c0,2.525 2.055,4.58 4.58,4.58zm-0.58,-7.472c0,-0.314 0.266,-0.58 0.58,-0.58l3.104,0c0.314,0 0.58,0.266 0.58,0.58l0,2.892c0,0.314 -0.266,0.58 -0.58,0.58l-3.104,0c-0.314,0 -0.58,-0.266 -0.58,-0.58l0,-2.892z" class="st1"/>
  <path fill="#dadee7" id="svg_15" d="m52.778321,51.263l3.105,0c2.525,0 4.58,-2.055 4.58,-4.58l0,-2.892c0,-2.525 -2.055,-4.58 -4.58,-4.58l-3.105,0c-2.525,0 -4.58,2.055 -4.58,4.58l0,2.892c-0.001,2.525 2.054,4.58 4.58,4.58zm-0.581,-7.472c0,-0.314 0.266,-0.58 0.58,-0.58l3.105,0c0.314,0 0.58,0.266 0.58,0.58l0,2.892c0,0.314 -0.266,0.58 -0.58,0.58l-3.105,0c-0.314,0 -0.58,-0.266 -0.58,-0.58l0,-2.892z" class="st1"/>
 </g>
</svg>