<svg width="56" height="56" viewBox="0 0 56 56" fill="none" xmlns="http://www.w3.org/2000/svg">
<path d="M42.2625 8.66255L41.125 7.52505C40.8625 7.26255 40.8625 6.73755 41.125 6.38755C41.3875 6.12505 41.9125 6.12505 42.2625 6.38755L43.4 7.52505L42.2625 8.66255Z" fill="#0436ED"/>
<path d="M40.075 10.85L38.9375 9.71255C38.675 9.45005 38.675 8.92505 38.9375 8.57505C39.2 8.31255 39.725 8.31255 40.075 8.57505L41.2125 9.71255L40.075 10.85Z" fill="#0436ED"/>
<path d="M47.25 13.65L48.3875 14.7875C48.65 15.05 49.175 15.05 49.525 14.7875C49.7875 14.525 49.7875 14 49.525 13.65L48.3875 12.5125L47.25 13.65Z" fill="#0436ED"/>
<path d="M45.0625 15.8375L46.2 16.975C46.4625 17.2375 46.9875 17.2375 47.3375 16.975C47.6 16.7125 47.6 16.1875 47.3375 15.8375L46.2 14.7L45.0625 15.8375Z" fill="#0436ED"/>
<path d="M49.35 10.1499C48.3001 8.83745 47.1626 7.69995 45.8501 6.64995C44.975 5.94995 43.75 6.12495 42.9625 6.91245L39.2 10.6749C38.7625 11.1124 38.5 11.7249 38.5 12.3374L38.5875 13.4749L31.2375 20.8249L35.0875 24.6749L42.4375 17.3249L43.575 17.4124C44.1875 17.4124 44.8 17.2374 45.2375 16.7124L49 12.9499C49.7875 12.1624 49.9626 10.9374 49.35 10.1499Z" fill="#547CEC"/>
<path d="M36.225 23.5375L32.375 19.6875L34.5625 17.5L37.8875 21.875L36.225 23.5375Z" fill="#0436ED"/>
<path d="M31.9375 39.4624C31.7625 36.8374 33.5125 34.5624 36.05 33.8624C36.8375 33.5999 37.625 33.2499 38.2375 32.6374L38.325 32.5499C40.425 30.4499 40.6 27.1249 38.7625 24.8499C36.575 22.0499 34.0375 19.5124 31.15 17.2374C28.875 15.3999 25.55 15.5749 23.45 17.6749L23.3625 17.7624C22.6625 18.4624 22.3125 19.1624 22.05 19.9499C21.35 22.3999 19.075 24.1499 16.45 24.0624C13.5625 23.8874 10.675 24.9374 8.48754 27.1249C5.16254 30.4499 4.72504 35.6124 7.43754 39.3749C9.97504 42.8749 13.0375 45.8499 16.5375 48.4749C20.3 51.2749 25.55 50.7499 28.7875 47.4249C31.0625 45.2374 32.025 42.2624 31.9375 39.4624Z" fill="#547CEC"/>
<path d="M26.3375 34.65C29.1403 34.65 31.4125 32.3778 31.4125 29.575C31.4125 26.7722 29.1403 24.5 26.3375 24.5C23.5346 24.5 21.2625 26.7722 21.2625 29.575C21.2625 32.3778 23.5346 34.65 26.3375 34.65Z" fill="#0436ED"/>
<path d="M14.7875 33.95L21.9625 41.125" stroke="white" stroke-width="3" stroke-miterlimit="10" stroke-linecap="square" stroke-linejoin="round"/>
<path d="M45.0168 9.26383L43.9031 8.15015L42.7894 9.26383L43.9031 10.3775L45.0168 9.26383Z" fill="white"/>
<path d="M47.8276 12.0231L46.7139 10.9094L45.6002 12.0231L46.7139 13.1368L47.8276 12.0231Z" fill="white"/>
<path d="M42.8341 11.463L41.7205 10.3494L40.6068 11.463L41.7205 12.5767L42.8341 11.463Z" fill="white"/>
<path d="M45.583 14.1603L44.4694 13.0466L43.3557 14.1603L44.4694 15.274L45.583 14.1603Z" fill="white"/>
</svg>
