<svg width="125" height="126" viewBox="0 0 125 126" fill="none" xmlns="http://www.w3.org/2000/svg">
<path d="M95.7031 47.6582C98.6156 47.6582 100.977 45.2972 100.977 42.3848C100.977 39.4723 98.6156 37.1113 95.7031 37.1113C92.7907 37.1113 90.4297 39.4723 90.4297 42.3848C90.4297 45.2972 92.7907 47.6582 95.7031 47.6582Z" fill="#DADEE7"/>
<path d="M104.492 58.5957C104.492 58.5957 104.492 57.2285 104.492 55.666C104.492 54.6895 104.297 53.9082 103.906 53.127C102.539 50.7832 99.4141 49.8066 95.7031 49.8066C91.9922 49.8066 89.0625 50.7832 87.5 53.127C87.1094 53.9082 86.9141 54.8848 86.9141 55.666C86.9141 57.2285 86.9141 58.5957 86.9141 58.5957H104.492Z" fill="#DADEE7"/>
<path d="M29.2969 47.6582C32.2093 47.6582 34.5703 45.2972 34.5703 42.3848C34.5703 39.4723 32.2093 37.1113 29.2969 37.1113C26.3844 37.1113 24.0234 39.4723 24.0234 42.3848C24.0234 45.2972 26.3844 47.6582 29.2969 47.6582Z" fill="#DADEE7"/>
<path d="M38.0859 58.5957C38.0859 58.5957 38.0859 57.2285 38.0859 55.666C38.0859 54.6895 37.8906 53.9082 37.5 53.127C36.1328 50.7832 33.0078 49.8066 29.2969 49.8066C25.5859 49.8066 22.6563 50.7832 21.0938 53.127C20.7031 53.9082 20.5078 54.8848 20.5078 55.666C20.5078 57.2285 20.5078 58.5957 20.5078 58.5957H38.0859Z" fill="#DADEE7"/>
<path d="M76.1719 24.2207C79.0843 24.2207 81.4453 21.8597 81.4453 18.9473C81.4453 16.0348 79.0843 13.6738 76.1719 13.6738C73.2594 13.6738 70.8984 16.0348 70.8984 18.9473C70.8984 21.8597 73.2594 24.2207 76.1719 24.2207Z" fill="#DADEE7"/>
<path d="M84.9609 35.1582C84.9609 35.1582 84.9609 33.791 84.9609 32.2285C84.9609 31.252 84.7656 30.4707 84.375 29.6895C83.0078 27.3457 79.8828 26.3691 76.1719 26.3691C72.4609 26.3691 69.5312 27.3457 67.9687 29.6895C67.5781 30.4707 67.3828 31.4473 67.3828 32.2285C67.3828 33.791 67.3828 35.1582 67.3828 35.1582H84.9609Z" fill="#DADEE7"/>
<path d="M48.8281 24.2207C51.7406 24.2207 54.1016 21.8597 54.1016 18.9473C54.1016 16.0348 51.7406 13.6738 48.8281 13.6738C45.9157 13.6738 43.5547 16.0348 43.5547 18.9473C43.5547 21.8597 45.9157 24.2207 48.8281 24.2207Z" fill="#DADEE7"/>
<path d="M57.6172 35.1582C57.6172 35.1582 57.6172 33.791 57.6172 32.2285C57.6172 31.252 57.4219 30.4707 57.0313 29.6895C55.6641 27.3457 52.5391 26.3691 48.8281 26.3691C45.1172 26.3691 42.1875 27.3457 40.625 29.6895C40.2344 30.4707 40.0391 31.4473 40.0391 32.2285C40.0391 33.791 40.0391 35.1582 40.0391 35.1582H57.6172Z" fill="#DADEE7"/>
<path d="M83.9844 56.6426H74.2188V61.916" stroke="#DADEE7" stroke-width="2" stroke-miterlimit="10"/>
<path d="M68.3594 60.1582L74.2188 70.3144L80.0781 60.1582H68.3594Z" fill="#DADEE7"/>
<path d="M41.0156 56.6426H50.7812V61.916" stroke="#DADEE7" stroke-width="2" stroke-miterlimit="10"/>
<path d="M44.9219 60.1582L50.7812 70.3144L56.6406 60.1582H44.9219Z" fill="#DADEE7"/>
<path d="M48.8281 37.1113V44.9238H62.5V56.0566" stroke="#DADEE7" stroke-width="2" stroke-miterlimit="10"/>
<path d="M56.6406 54.2988L62.5 64.4551L68.3594 54.2988H56.6406Z" fill="#DADEE7"/>
<path d="M76.1719 37.1113V44.9238H62.5" stroke="#DADEE7" stroke-width="2" stroke-miterlimit="10"/>
<path d="M87.1094 108.791H37.8906C35.3516 108.791 33.2031 106.643 33.2031 104.104V71.6816H91.7969V104.104C91.7969 106.643 89.6484 108.791 87.1094 108.791Z" fill="#547CEC"/>
<path d="M41.0156 63.8691H37.8906C35.3516 63.8691 33.2031 66.0176 33.2031 68.5566V103.713C33.2031 101.174 35.3516 99.0254 38.0859 99.0254H41.0156V63.8691Z" fill="#0436ED"/>
<path d="M83.9844 63.8691H87.1094C89.6484 63.8691 91.7969 66.0176 91.7969 68.5566V103.713C91.7969 101.174 89.6484 99.0254 86.9141 99.0254H83.9844V63.8691Z" fill="#0436ED"/>
<path d="M59.375 80.666L52.9297 91.7988H65.8203L59.375 80.666Z" stroke="white" stroke-width="2" stroke-miterlimit="10" stroke-linecap="square"/>
<path d="M74.2188 89.8457H60.5469V103.518H74.2188V89.8457Z" fill="white"/>
</svg>
