<svg width="56" height="56" viewBox="0 0 56 56" fill="none" xmlns="http://www.w3.org/2000/svg">
<path d="M41.125 25.375H32.375C31.7625 33.25 30.0125 41.125 27.125 49H46.375C43.575 41.125 41.825 33.25 41.125 25.375Z" fill="#DADEE7"/>
<path d="M25.375 18.375H14.875C14.2625 28.6125 12.5125 38.7625 9.625 49H30.625C27.7375 38.7625 25.9875 28.6125 25.375 18.375Z" fill="#DADEE7"/>
<path d="M18.375 18.375V12.95C18.375 11.55 19.5125 10.5 20.825 10.5H27.125C28.0875 10.5 28.875 9.7125 28.875 8.75C28.875 7.7875 29.6625 7 30.625 7H44.625V12.25H33.6875C32.9875 12.25 32.375 12.8625 32.375 13.5625C32.375 14.2625 31.7625 14.875 31.0625 14.875H24.325C22.925 14.875 21.875 16.0125 21.875 17.325V18.375H18.375Z" fill="#547CEC"/>
<path d="M44.625 17.5H37.45C36.05 17.5 35 18.6375 35 19.95V25.375H38.5V24.325C38.5 22.925 39.6375 21.875 40.95 21.875H44.625V17.5Z" fill="#547CEC"/>
<path d="M31.5 47.25L29.8375 40.5125C29.575 41.3875 29.4 42.2625 29.1375 43.1375L30.1875 47.1625L31.5 47.25Z" fill="white"/>
</svg>
