<?xml version="1.0" encoding="utf-8"?>
<!-- Generator: Adobe Illustrator 24.3.0, SVG Export Plug-In . SVG Version: 6.00 Build 0)  -->
<svg version="1.1" id="Layer_1" xmlns="http://www.w3.org/2000/svg" xmlns:xlink="http://www.w3.org/1999/xlink" x="0px" y="0px"
	 viewBox="0 0 965 200" style="enable-background:new 0 0 965 200;" xml:space="preserve">
<style type="text/css">
	.Drop_x0020_Shadow{fill:none;}
	.Outer_x0020_Glow_x0020_5_x0020_pt{fill:none;}
	.Jive_GS{fill:#A6D0E4;}
	.st0{fill:url(#SVGID_1_);}
	.st1{fill:#0098FF;}
</style>
<g id="Logo">
	<linearGradient id="SVGID_1_" gradientUnits="userSpaceOnUse" x1="0.7804" y1="100" x2="200.7803" y2="100">
		<stop  offset="0" style="stop-color:#0063FF"/>
		<stop  offset="1" style="stop-color:#00D3FF"/>
	</linearGradient>
	<path class="st0" d="M200.8,100c0,3.4-0.2,6.7-0.5,10h-20.1c0.4-3.3,0.6-6.6,0.6-10c0-44.2-35.8-80-80-80s-80,35.8-80,80
		c0,40.8,30.5,74.5,70,79.4v-62.1c-6-3.4-10-9.9-10-17.3c0-11,9-20,20-20s20,9,20,20c0,7.4-4,13.9-10,17.3v21.4
		c17.3-4.4,30-20.1,30-38.7c0-22.1-17.9-40-40-40s-40,17.9-40,40c0,6.9,1.8,13.5,4.9,19.1l-17.3,10c-4.8-8.6-7.6-18.6-7.6-29.2
		c0-33.1,26.9-60,60-60s60,26.9,60,60c0,29.7-21.6,54.4-50,59.2v40.3c-3.3,0.3-6.6,0.5-10,0.5c-55.2,0-100-44.8-100-100
		S45.5,0,100.8,0S200.8,44.8,200.8,100z"/>
	<path id="Logo_7_" class="st1" d="M298,47.4c-13.1,0-22.9,5.5-29.3,11v-9.3h-15.6V175h15.6v-44.2c8.3,7.8,18.1,11.6,29.7,11.6
		c25.2,0,44.9-20.8,44.9-47.4C343.4,68.3,323.5,47.4,298,47.4z M327.7,94.3c0,16-9.2,33.3-29.5,33.3c-18.4,0-30.8-13.4-30.8-33.4
		c0-22.3,15.4-32.2,30.7-32.2C315,61.9,327.7,75.8,327.7,94.3z M431.4,49.1v10.2c-6.7-6.4-16-11.9-29.9-11.9
		c-25.1,0-44.8,20.6-44.8,47c0,25.8,20.4,46.8,45.4,46.8c10.4,0,20.9-4.5,29.3-12.2v11.8h15.5V49.1H431.4z M402.1,126.3
		c-17.3,0-30.3-13.8-30.3-32c0-19,12.6-32.2,30.6-32.2c17.2,0,29.7,12.8,29.7,30.4C432.1,114.5,416.6,126.3,402.1,126.3z
		 M554.5,49.1l-2.1,4.8l-51.3,118.5l-0.9,2.1h-17.6l2.2-4.9l14.4-31.7L460.5,54l-2.3-4.9h16.9l0.9,2l31.5,68.9l29-68.8l0.9-2.1
		H554.5z M618.7,112.5c0,16.5-14,29.8-31.1,29.8c-14.9,0-26.8-9.1-31.6-24.4l-1-3l2.9-1.2l7.6-3.2l3.7-1.5l1,3.9
		c2,7.9,9.7,14.4,17.1,14.4c7.5,0,15.5-4.7,15.5-15.2c0-7.6-3.7-9.4-15.5-13.9l-1.4-0.6c-12.5-4.8-23-10.2-23-26.3
		c0-13.2,11.5-23.9,25.6-23.9c10.2,0,18.8,5,24.8,14.6l1.7,2.7l-2.6,1.9l-7.1,5.1l-3.2,2.3l-1.9-3.5c-2.8-5.3-6.8-8-11.8-8
		c-5.9,0-10.1,3.7-10.1,9c0,5.7,4.8,8.6,14.8,12.5l1,0.4C606.3,89.2,618.7,94,618.7,112.5z M709.9,59.9v23.5l-6.2-7.7
		c-6.9-8.7-15.2-12.9-25.5-12.9c-17.9,0-31.4,14.1-31.4,32.9c0,17.6,13.6,30.9,31.6,30.9c10.4,0,15.2-3.6,24.9-10.9l0.5-0.4l5.5-4.2
		v19.1l-1.1,1c-7.9,7.1-18.7,11.1-29.7,11.1c-27.2,0-47.7-20.1-47.7-46.8c0-26.5,20.9-48.1,46.6-48.1c12.2,0,21.8,3.5,31.1,11.5
		L709.9,59.9z M776.4,51.6l-1.9,3.2l-5.3,9l-2.2,3.9l-3.1-3.2c-0.1-0.1-1.9-1.7-5.8-1.7c-10.8,0-14.2,11.7-14.2,17.4v60.5h-15.6
		V49.1h15.6v4c4.7-3.8,10.6-5.7,17.4-5.7h0.2c0.7,0,7.3,0.5,11.5,2.6L776.4,51.6z M804.1,34.4c0,5.7-4.4,10.1-10,10.1
		c-5.2,0-9.4-4.5-9.4-10c0-5.2,4.4-9.5,9.7-9.5C799.8,25,804.1,29.2,804.1,34.4z M786.8,49.1v91.8h15.6V49.1H786.8z M870.4,47.4
		c-13.1,0-22.9,5.5-29.3,11v-9.3h-15.6V175h15.6v-44.2c8.3,7.8,18.1,11.6,29.7,11.6c25.2,0,44.9-20.8,44.9-47.4
		C915.8,68.3,895.8,47.4,870.4,47.4z M900.1,94.3c0,16-9.2,33.3-29.5,33.3c-18.4,0-30.8-13.4-30.8-33.4c0-22.3,15.4-32.2,30.7-32.2
		C887.4,61.9,900.1,75.8,900.1,94.3z M964.2,49.1v15.2h-14.8v76.6h-15.6V64.3h-9.5V49.1h9.5V28h15.6v21H964.2z"/>
</g>
</svg>
