<svg width="100" height="100" xmlns="http://www.w3.org/2000/svg">

 <title/>
 <g>
  <title>background</title>
  <rect fill="none" id="canvas_background" height="102" width="102" y="-1" x="-1"/>
 </g>
 <g>
  <title>Layer 1</title>
  <path stroke-width="3px" stroke-linejoin="round" stroke-linecap="round" stroke="#547cec" fill="#dadee7" id="svg_1" d="m58.49,55.35c0,4 -3.23,8.44 -7.22,8.44s-7.21,-4.46 -7.21,-8.44s3.23,-6.72 7.21,-6.72s7.22,2.74 7.22,6.72z" class="Lineas-Negro"/>
  <path stroke-width="3px" stroke-linejoin="round" stroke-linecap="round" stroke="#547cec" fill="#dadee7" id="svg_2" d="m40.58,89.1l1.93,-12.25l0.14,10.77l17.21,0l0.14,-10.77l1.93,12.25l3.55,0a2.06,2.06 0 0 0 2,-2.31l-1.18,-10.15a9.52,9.52 0 0 0 -8.06,-9.75a57.82,57.82 0 0 0 -6.86,-0.49a65.67,65.67 0 0 0 -7.11,0.49a9.46,9.46 0 0 0 -8.06,9.75l-1.11,10.17a2.06,2.06 0 0 0 2,2.29l3.48,0z" class="Lineas-Negro"/>
  <path stroke-width="3px" stroke-linejoin="round" stroke-linecap="round" stroke="#547cec" fill="#dadee7" id="svg_3" d="m79.11,58.52c0,3.61 -2.92,7.65 -6.53,7.65s-6.58,-4.04 -6.58,-7.65s2.93,-6.09 6.54,-6.09s6.57,2.48 6.57,6.09z" class="Lineas-Negro"/>
  <path stroke-width="3px" stroke-linejoin="round" stroke-linecap="round" stroke="#547cec" fill="#dadee7" id="svg_4" d="m67.54,87.76l12.81,0l0.13,-9.76l1.75,11.1l3.22,0a1.87,1.87 0 0 0 1.85,-2.1l-1.11,-9.2a8.63,8.63 0 0 0 -7.3,-8.8a53.21,53.21 0 0 0 -6.22,-0.44a60.93,60.93 0 0 0 -6.44,0.44a16.25,16.25 0 0 0 -2.74,0.56" class="Lineas-Negro"/>
  <path stroke-width="3px" stroke-linejoin="round" stroke-linecap="round" stroke="#547cec" fill="#dadee7" id="svg_5" d="m23.39,58.52c0,3.61 2.93,7.65 6.54,7.65s6.53,-4 6.53,-7.65s-2.92,-6.09 -6.53,-6.09s-6.54,2.48 -6.54,6.09z" class="Lineas-Negro"/>
  <path stroke-width="3px" stroke-linejoin="round" stroke-linecap="round" stroke="#547cec" fill="#dadee7" id="svg_6" d="m35.21,87.76l-13.06,0l-0.15,-9.76l-1.73,11.1l-3.22,0a1.87,1.87 0 0 1 -1.85,-2.1l1.11,-9.2a8.63,8.63 0 0 1 7.3,-8.8a53.21,53.21 0 0 1 6.22,-0.44a60.93,60.93 0 0 1 6.44,0.44a16.25,16.25 0 0 1 2.74,0.56" class="Lineas-Negro"/>
  <path stroke-width="3px" stroke-linejoin="round" stroke-linecap="round" stroke="#0436ed" fill="none" id="svg_7" d="m85.36,12.81l-68.17,0a4.67,4.67 0 0 0 -4.67,4.67l0,12.21a4.68,4.68 0 0 0 4.67,4.68l13.87,0l0.06,8.16l7.26,-8.16l9.24,0l3.66,8.16l3.66,-8.16l9.51,0l7.26,8.16l0.06,-8.16l13.59,0a4.68,4.68 0 0 0 4.64,-4.68l0,-12.21a4.67,4.67 0 0 0 -4.64,-4.67z" class="Lineas-Negro"/>
  <polygon stroke-width="3px" stroke-linejoin="round" stroke-linecap="round" stroke="#0436ed" fill="none" id="svg_8" points="41.65999984741211,22.969999313354492 41.5,22.969999313354492 41.34000015258789,23.020000457763672 41.189998626708984,23.100000381469727 41.06999969482422,23.219999313354492 40.9900016784668,23.360000610351562 40.95000076293945,23.520000457763672 40.95000076293945,23.690000534057617 40.9900016784668,23.850000381469727 41.06999969482422,24 41.189998626708984,24.110000610351562 41.34000015258789,24.200000762939453 41.5,24.239999771118164 41.65999984741211,24.239999771118164 41.81999969482422,24.200000762939453 41.970001220703125,24.110000610351562 42.09000015258789,24 42.16999816894531,23.850000381469727 42.209999084472656,23.690000534057617 42.209999084472656,23.520000457763672 42.16999816894531,23.360000610351562 42.09000015258789,23.219999313354492 41.970001220703125,23.100000381469727 41.81999969482422,23.020000457763672 41.65999984741211,22.969999313354492 " class="Lineas-Negro"/>
  <polygon stroke="#0436ed" stroke-width="3px" stroke-linejoin="round" stroke-linecap="round" fill="none" id="svg_9" points="51.47999954223633,22.969999313354492 51.310001373291016,22.969999313354492 51.150001525878906,23.020000457763672 51,23.100000381469727 50.88999938964844,23.219999313354492 50.79999923706055,23.360000610351562 50.7599983215332,23.520000457763672 50.7599983215332,23.690000534057617 50.79999923706055,23.850000381469727 50.88999938964844,24 51,24.110000610351562 51.150001525878906,24.200000762939453 51.310001373291016,24.239999771118164 51.47999954223633,24.239999771118164 51.63999938964844,24.200000762939453 51.779998779296875,24.110000610351562 51.900001525878906,24 51.97999954223633,23.850000381469727 52.029998779296875,23.690000534057617 52.029998779296875,23.520000457763672 51.97999954223633,23.360000610351562 51.900001525878906,23.219999313354492 51.779998779296875,23.100000381469727 51.63999938964844,23.020000457763672 51.47999954223633,22.969999313354492 " class="Lineas-Negro"/>
  <polygon stroke-width="3px" stroke-linejoin="round" stroke-linecap="round" stroke="#0436ed" fill="none" id="svg_10" points="61.290000915527344,22.969999313354492 61.119998931884766,22.969999313354492 60.959999084472656,23.020000457763672 60.81999969482422,23.100000381469727 60.70000076293945,23.219999313354492 60.619998931884766,23.360000610351562 60.56999969482422,23.520000457763672 60.56999969482422,23.690000534057617 60.619998931884766,23.850000381469727 60.70000076293945,24 60.81999969482422,24.110000610351562 60.959999084472656,24.200000762939453 61.119998931884766,24.239999771118164 61.290000915527344,24.239999771118164 61.45000076293945,24.200000762939453 61.599998474121094,24.110000610351562 61.709999084472656,24 61.79999923706055,23.850000381469727 61.84000015258789,23.690000534057617 61.84000015258789,23.520000457763672 61.79999923706055,23.360000610351562 61.709999084472656,23.219999313354492 61.599998474121094,23.100000381469727 61.45000076293945,23.020000457763672 61.290000915527344,22.969999313354492 " class="Lineas-Negro"/>
 </g>
</svg>