<svg width="125" height="126" viewBox="0 0 125 126" fill="none" xmlns="http://www.w3.org/2000/svg">
<path d="M89.8438 25.3926H27.3438C25.1953 25.3926 23.4375 27.1504 23.4375 29.2988V103.518C23.4375 105.666 25.1953 107.424 27.3438 107.424H89.8438C91.9922 107.424 93.75 105.666 93.75 103.518V29.2988C93.75 27.1504 91.9922 25.3926 89.8438 25.3926Z" fill="#DADEE7"/>
<path d="M74.2188 31.252H42.9688V25.3926C42.9688 23.2441 44.7266 21.4863 46.875 21.4863H70.3125C72.4609 21.4863 74.2188 23.2441 74.2188 25.3926V31.252Z" fill="#547CEC"/>
<path d="M58.5937 7.81445C53.3203 7.81445 49.2188 12.1113 49.2188 17.1895V29.2988H67.9687V17.1895C67.9687 12.1113 63.8672 7.81445 58.5937 7.81445Z" fill="#547CEC"/>
<path d="M62.5 54.6895H68.3594" stroke="white" stroke-width="3" stroke-miterlimit="10" stroke-linecap="square"/>
<path d="M62.5 74.2207H78.125" stroke="white" stroke-width="3" stroke-miterlimit="10" stroke-linecap="square"/>
<path d="M62.5 66.4082H78.125" stroke="white" stroke-width="3" stroke-miterlimit="10" stroke-linecap="square"/>
<path d="M40.0391 49.8066L42.9688 52.7363L48.8281 46.877" stroke="white" stroke-width="3" stroke-miterlimit="10" stroke-linecap="square"/>
<path d="M62.5 46.877H78.125" stroke="white" stroke-width="3" stroke-miterlimit="10" stroke-linecap="square"/>
<path d="M48.8281 66.4082H41.0156V74.2207H48.8281V66.4082Z" stroke="white" stroke-width="3" stroke-miterlimit="10" stroke-linecap="square"/>
<path d="M58.5938 21.4863C60.7511 21.4863 62.5 19.7374 62.5 17.5801C62.5 15.4227 60.7511 13.6738 58.5938 13.6738C56.4364 13.6738 54.6875 15.4227 54.6875 17.5801C54.6875 19.7374 56.4364 21.4863 58.5938 21.4863Z" fill="white"/>
<path d="M95.1172 113.283L87.6953 105.861L93.1641 100.393L100.586 107.814C102.148 109.377 102.148 111.721 100.586 113.283C99.2187 114.846 96.6797 114.846 95.1172 113.283Z" fill="#547CEC"/>
<path d="M78.7109 106.447C87.0168 106.447 93.75 99.7141 93.75 91.4082C93.75 83.1024 87.0168 76.3691 78.7109 76.3691C70.4051 76.3691 63.6719 83.1024 63.6719 91.4082C63.6719 99.7141 70.4051 106.447 78.7109 106.447Z" fill="white"/>
<path d="M78.7109 106.447C87.0168 106.447 93.75 99.7141 93.75 91.4082C93.75 83.1024 87.0168 76.3691 78.7109 76.3691C70.4051 76.3691 63.6719 83.1024 63.6719 91.4082C63.6719 99.7141 70.4051 106.447 78.7109 106.447Z" stroke="#547CEC" stroke-width="3" stroke-miterlimit="10"/>
<path d="M72.4609 86.5254L79.4922 93.5566L93.3594 79.6895" stroke="#0436ED" stroke-width="4" stroke-miterlimit="10"/>
</svg>
