<svg width="91" height="92" viewBox="0 0 91 92" fill="none" xmlns="http://www.w3.org/2000/svg">
<path d="M32.5044 46.6394C32.5013 46.4443 32.4366 46.2552 32.3195 46.0991L22.537 49.9808C22.3697 50.0485 22.2263 50.1644 22.125 50.3138C22.0238 50.4632 21.9692 50.6393 21.9683 50.8198V77.5368C22.1388 77.5337 22.3073 77.5 22.4659 77.4373L31.9072 73.6835C32.0745 73.6118 32.2174 73.493 32.3184 73.3415C32.4193 73.19 32.4741 73.0124 32.4759 72.8304V46.6394H32.5044Z" fill="#0436ED"/>
<path d="M31.9353 45.8006L22.4088 42.0042C22.0836 41.8808 21.7244 41.8808 21.3992 42.0042L11.958 45.758C11.7869 45.826 11.64 45.9435 11.5361 46.0955C11.4323 46.2475 11.3762 46.427 11.375 46.6111V72.802C11.3768 72.9841 11.4316 73.1617 11.5326 73.3131C11.6335 73.4646 11.7764 73.5835 11.9437 73.6552L21.4561 77.4374C21.6203 77.4977 21.7931 77.5313 21.968 77.5369V50.8199C21.9689 50.6394 22.0235 50.4633 22.1247 50.3139C22.226 50.1645 22.3694 50.0486 22.5367 49.981L32.3192 46.0992C32.2218 45.9657 32.0887 45.8622 31.9353 45.8006Z" fill="#DADEE7"/>
<path d="M31.9352 45.8006L22.4087 42.0042C22.0835 41.8808 21.7243 41.8808 21.3991 42.0042L11.9579 45.758C11.7711 45.8386 11.6162 45.9785 11.5171 46.1561L22.0958 50.3222C22.1996 50.164 22.3481 50.0402 22.5224 49.9667L32.3049 46.085C32.2094 45.9587 32.0817 45.8605 31.9352 45.8006Z" fill="#547CEC"/>
<path d="M56.0644 32.4207C56.0614 32.2256 55.9967 32.0364 55.8796 31.8804L46.0971 35.7621C45.9298 35.8298 45.7864 35.9457 45.6851 36.095C45.5838 36.2444 45.5293 36.4205 45.5283 36.601V77.5368C45.6988 77.5337 45.8674 77.5 46.026 77.4372L55.453 73.6835C55.6203 73.6118 55.7632 73.4929 55.8642 73.3415C55.9652 73.19 56.0199 73.0124 56.0218 72.8304V32.4207H56.0644Z" fill="#0436ED"/>
<path d="M55.453 31.5819L45.9265 27.7855C45.6013 27.662 45.2421 27.662 44.9169 27.7855L35.5468 31.5392C35.3794 31.6109 35.2366 31.7298 35.1356 31.8813C35.0346 32.0327 34.9799 32.2103 34.978 32.3924V72.802C34.9799 72.9841 35.0346 73.1617 35.1356 73.3131C35.2366 73.4646 35.3794 73.5835 35.5468 73.6552L45.0591 77.4373C45.2233 77.4977 45.3961 77.5313 45.571 77.5369V36.6011C45.5719 36.4206 45.6265 36.2445 45.7278 36.0951C45.829 35.9458 45.9724 35.8299 46.1397 35.7622L55.9223 31.8805C55.8022 31.7329 55.6376 31.6282 55.453 31.5819Z" fill="#DADEE7"/>
<path d="M55.453 31.5819L45.9264 27.7855C45.6012 27.662 45.2421 27.662 44.9169 27.7855L35.5467 31.5392C35.3627 31.624 35.2089 31.7629 35.106 31.9374L45.6989 36.1034C45.7991 35.9421 45.9487 35.8174 46.1255 35.748L55.908 31.8663C55.7896 31.7265 55.6305 31.6271 55.453 31.5819Z" fill="#547CEC"/>
<path d="M79.6249 18.2019C79.6219 18.0068 79.5572 17.8177 79.4401 17.6616L69.6718 21.5433C69.5045 21.611 69.3611 21.7269 69.2598 21.8763C69.1585 22.0257 69.104 22.2018 69.103 22.3822V77.5368C69.2735 77.5337 69.4421 77.5 69.6007 77.4372L79.0561 73.6835C79.2235 73.6118 79.3664 73.4929 79.4673 73.3415C79.5683 73.19 79.6231 73.0124 79.6249 72.8304V18.2019Z" fill="#0436ED"/>
<path d="M79.0603 16.891L69.5338 13.0946C69.2086 12.9711 68.8494 12.9711 68.5242 13.0946L59.0688 16.8483C58.9014 16.92 58.7585 17.0389 58.6576 17.1903C58.5566 17.3418 58.5018 17.5194 58.5 17.7014V72.3299C58.5018 72.5119 58.5566 72.6895 58.6576 72.841C58.7585 72.9925 58.9014 73.1113 59.0688 73.183L68.5811 76.9652C68.7453 77.0255 68.9181 77.0591 69.093 77.0647V21.9102C69.0939 21.7297 69.1485 21.5536 69.2497 21.4042C69.351 21.2549 69.4944 21.139 69.6617 21.0713L79.4442 17.1896C79.3468 17.056 79.2137 16.9525 79.0603 16.891Z" fill="#DADEE7"/>
<path d="M79.0564 17.363L69.5298 13.5666C69.2046 13.4431 68.8455 13.4431 68.5203 13.5666L59.0648 17.3204C58.8808 17.4051 58.727 17.544 58.624 17.7185L69.217 21.8846C69.3172 21.7232 69.4668 21.5986 69.6436 21.5291L79.4261 17.6474C79.3306 17.5211 79.2029 17.4229 79.0564 17.363Z" fill="#547CEC"/>
</svg>
