<svg width="56" height="56" viewBox="0 0 56 56" fill="none" xmlns="http://www.w3.org/2000/svg">
<path d="M22.75 45.5C24.683 45.5 26.25 43.933 26.25 42C26.25 40.067 24.683 38.5 22.75 38.5C20.817 38.5 19.25 40.067 19.25 42C19.25 43.933 20.817 45.5 22.75 45.5Z" fill="#0436ED"/>
<path d="M39.375 45.5C41.308 45.5 42.875 43.933 42.875 42C42.875 40.067 41.308 38.5 39.375 38.5C37.442 38.5 35.875 40.067 35.875 42C35.875 43.933 37.442 45.5 39.375 45.5Z" fill="#0436ED"/>
<path d="M44.8 35H16.625L13.125 15.75H47.95C48.475 15.75 48.9125 16.275 48.825 16.8L45.675 34.3C45.5875 34.7375 45.2375 35 44.8 35Z" fill="#DADEE7"/>
<path d="M7.875 12.25H12.25L17.5 40.25H43.75" stroke="#547CEC" stroke-width="4" stroke-miterlimit="10" stroke-linecap="round" stroke-linejoin="round"/>
</svg>
