<svg xmlns="http://www.w3.org/2000/svg" width="93.754" height="96.774" viewBox="0 0 93.754 96.774"><g transform="translate(-0.187 0)"><g transform="translate(19.468)"><g transform="translate(3.78 8.695)"><path d="M18.846,8.94a1.458,1.458,0,0,1-1.177-.6,7.906,7.906,0,0,0-7.409-3.477A14.67,14.67,0,0,1,.674,2.691,1.46,1.46,0,0,1,2.247.23a11.776,11.776,0,0,0,7.7,1.734,10.862,10.862,0,0,1,10.071,4.65A1.461,1.461,0,0,1,18.846,8.94Z" transform="translate(0.073 0.171)" fill="#dadee7"/><path d="M1.459,8.79A1.461,1.461,0,0,1,.216,6.566c1.872-3.049,5.3-5.145,9.92-6.061A26.478,26.478,0,0,1,16.446.029a1.46,1.46,0,0,1-.2,2.914c-.1-.007-10.017-.595-13.543,5.151a1.459,1.459,0,0,1-1.246.7Z" transform="translate(2.171 8.076)" fill="#dadee7"/></g><path d="M29.389,81.517c23.982,0,37.243-35.177-.629-62.346a3.553,3.553,0,0,1-1.489-2.923,4.752,4.752,0,0,1,.863-2.673A69.11,69.11,0,0,0,33.991,3.222a1.2,1.2,0,0,0-1.138-1.734C30.578,1.489,30.578,0,28.3,0s-2.275,1.489-4.55,1.489c-1.939,0-2.734-1.668-3.676-.455-2.749,3.538,6.666,15.978,6.666,15.978C-14.835,44.345-1.429,81.517,23.119,81.517h6.27Z" transform="translate(0.033 0)" fill="#547cec"/><path d="M13.707,17.011s9.554-12.4,6.807-15.957c-.936-1.212-1.735.434-3.671.434C14.567,1.488,14.567,0,12.292,0s-2.275,1.488-4.55,1.488c-.112,0-.214-.006-.316-.013C6.512,5.393,2.393,11.5.036,14.766c.928,1.362,1.6,2.245,1.6,2.245Q.8,17.558,0,18.111c39.725,27.3,26.433,63.406,2.138,63.406h15.34C42.1,81.517,55.423,44.435,13.707,17.011Z" transform="translate(25.143)" fill="#0436ed"/><path d="M19.131,6.977a33.236,33.236,0,0,1-16.588,0A3.542,3.542,0,0,1,.21,2.34l.023-.066A3.268,3.268,0,0,1,4.091.1,27.007,27.007,0,0,0,17.583.1,3.268,3.268,0,0,1,21.44,2.274l.023.066a3.542,3.542,0,0,1-2.332,4.636Z" transform="translate(21.495 14.445)" fill="#dadee7"/></g><g transform="translate(0 55.192)"><g transform="translate(7.749 5.103)"><path d="M0,27.459l21.142,7.869a16.088,16.088,0,0,0,5.612,1.011H48.543a16.088,16.088,0,0,0,8.611-2.5L84.435,16.553a4.788,4.788,0,0,0,.779-6.274C83.733,8.1,81.282,7.723,78.585,9L52.024,20.694l.031-4.309a7.713,7.713,0,0,0-6.595-6.874L29.286,7.648c-3.731-.528-5.6-1.778-8.849-3.681A28.991,28.991,0,0,0,5.8,0H0Z" transform="translate(0.147 0.14)" fill="#ffddce"/><path d="M19.858,31.135a16.915,16.915,0,0,0,5.9,1.062H48.664A16.911,16.911,0,0,0,55.7,30.662L71.72,20.513a4.946,4.946,0,0,0,1.514-7.036s-.488-.836-.989-1.686l-20.221,8.9.031-4.309a7.713,7.713,0,0,0-6.595-6.874L29.286,7.648c-3.731-.528-5.6-1.778-8.849-3.681A28.991,28.991,0,0,0,5.8,0H0V23.744Z" transform="translate(0.147 0.14)" fill="#ffd6d6"/><path d="M85.215,2.01C83.733-.167,81.282-.546,78.585.729L71.279,3.946l.635,1.007a4.788,4.788,0,0,1-.779,6.274L55.239,21.3a16.087,16.087,0,0,1-6.7,1.461H26.754a16.088,16.088,0,0,1-5.612-1.011L0,13.881V19.19l21.142,7.87a16.088,16.088,0,0,0,5.612,1.011H48.543a16.088,16.088,0,0,0,8.611-2.5L84.436,8.284a4.788,4.788,0,0,0,.779-6.274Z" transform="translate(0.147 8.409)" fill="#ffd6d6"/><path d="M.061.043v.1L.129.116Z" transform="translate(50.158 12.043)" fill="#f5dbcc"/><path d="M17.976,2.921H1.46A1.46,1.46,0,0,1,1.46,0H18Z" transform="translate(34.195 17.911)" fill="#ffd6d6"/></g><path d="M12.259,36.788a2.777,2.777,0,0,1-2.778,2.778h-6.7A2.777,2.777,0,0,1,0,36.788V2.778A2.777,2.777,0,0,1,2.778,0h6.7a2.777,2.777,0,0,1,2.778,2.778Z" transform="translate(0.187 0.126)" fill="#547cec"/></g><path d="M6.8,34.545V32.227a10.7,10.7,0,0,1-6.14-2.051,1.46,1.46,0,1,1,1.6-2.444A7.752,7.752,0,0,0,6.8,29.309V17.759A17.686,17.686,0,0,1,2.893,15.55,6.176,6.176,0,0,1,.886,9.463,7.062,7.062,0,0,1,5.718,3.92,10.815,10.815,0,0,1,6.8,3.655V1.461a1.46,1.46,0,1,1,2.92,0V3.537a9.051,9.051,0,0,1,4.813,2.042,1.46,1.46,0,0,1-1.973,2.154,6.006,6.006,0,0,0-2.84-1.247V15.8c.567.218,1.183.445,1.851.68a7.49,7.49,0,0,1,5.16,8.569,8.555,8.555,0,0,1-7.012,7.078v2.42a1.46,1.46,0,1,1-2.92,0Z" transform="translate(43.923 28.777)" fill="#fff"/></g></svg>