<svg width="32" height="32" xmlns="http://www.w3.org/2000/svg">

 <title/>
 <g>
  <title>background</title>
  <rect fill="none" id="canvas_background" height="402" width="582" y="-1" x="-1"/>
 </g>
 <g>
  <title>Layer 1</title>
  <path fill="#d8e1ef" id="svg_1" d="m26.45,7.11l-10,-5a1,1 0 0 0 -0.9,0l-10,5a1,1 0 0 0 -0.55,0.89l0,12a3.12,3.12 0 0 0 3.22,3l15.56,0a3.12,3.12 0 0 0 3.22,-3l0,-12a1,1 0 0 0 -0.55,-0.89z" class="cls-1"/>
  <path fill="#547cec" id="svg_2" d="m28,10a0.93,0.93 0 0 1 -0.45,-0.11l-11.55,-5.77l-11.55,5.77a1,1 0 0 1 -0.9,-1.78l12,-6a1,1 0 0 1 0.9,0l12,6a1,1 0 0 1 0.44,1.34a1,1 0 0 1 -0.89,0.55z" class="cls-2"/>
  <path fill="#547cec" id="svg_3" d="m14,28l-11,0a1,1 0 0 1 0,-2l11,0a1,1 0 0 1 0,2z" class="cls-3"/>
  <path fill="#547cec" id="svg_4" d="m29,28l-11,0a1,1 0 0 1 0,-2l11,0a1,1 0 0 1 0,2z" class="cls-3"/>
  <path fill="#0436ed" id="svg_5" d="m22,11a2,2 0 0 0 -2,2a2.16,2.16 0 0 0 0.07,0.51l-0.78,0.78a1,1 0 0 0 -0.29,0.71l0,8l2,0l0,-7.59l0.49,-0.48a2.09,2.09 0 0 0 0.51,0.07a2,2 0 0 0 0,-4z" class="cls-2"/>
  <path fill="#0436ed" id="svg_6" d="m13,23l0,-8a1,1 0 0 0 -0.29,-0.71l-0.78,-0.78a2.16,2.16 0 0 0 0.07,-0.51a2,2 0 1 0 -2,2a2.09,2.09 0 0 0 0.51,-0.07l0.49,0.48l0,7.59l2,0z" class="cls-2"/>
  <path fill="#0436ed" id="svg_7" d="m17,24.18l0,-13.46a2,2 0 1 0 -2,0l0,13.46a3,3 0 1 0 2,0z" class="cls-2"/>
 </g>
</svg>