<svg width="32" height="32" xmlns="http://www.w3.org/2000/svg">

 <g>
  <title>background</title>
  <rect fill="none" id="canvas_background" height="402" width="582" y="-1" x="-1"/>
 </g>
 <g>
  <title>Layer 1</title>
  <path id="svg_2" fill="#0436ed" d="m14.118,30.929c-0.088,0 -0.178,-0.023 -0.259,-0.072c-0.236,-0.144 -0.311,-0.451 -0.167,-0.688c2.414,-3.971 4.035,-8.736 4.819,-14.163c0.275,-1.917 -1.056,-3.7 -2.967,-3.975c-1.903,-0.271 -3.686,1.049 -3.961,2.943c-0.786,5.446 -2.501,9.978 -5.098,13.466c-0.164,0.222 -0.478,0.267 -0.699,0.103c-0.222,-0.165 -0.268,-0.479 -0.103,-0.7c2.496,-3.354 4.148,-7.731 4.911,-13.012c0.354,-2.438 2.633,-4.138 5.092,-3.79c2.458,0.354 4.169,2.645 3.815,5.107c-0.804,5.562 -2.47,10.453 -4.954,14.54c-0.096,0.155 -0.26,0.241 -0.429,0.241z"/>
  <path id="svg_4" fill="#dadee7" d="m4.774,27.043c-0.099,0 -0.2,-0.029 -0.287,-0.091c-0.226,-0.159 -0.28,-0.471 -0.122,-0.696c0.405,-0.577 0.791,-1.195 1.145,-1.838c0.134,-0.241 0.437,-0.333 0.68,-0.196c0.242,0.133 0.33,0.438 0.196,0.679c-0.373,0.675 -0.777,1.324 -1.203,1.93c-0.097,0.138 -0.251,0.212 -0.409,0.212z"/>
  <path id="svg_6" fill="#547cec" d="m6.995,23.003c-0.065,0 -0.132,-0.013 -0.195,-0.04c-0.254,-0.107 -0.373,-0.401 -0.265,-0.655c0.962,-2.267 1.662,-4.878 2.079,-7.762c0.512,-3.533 3.814,-5.996 7.352,-5.485c3.552,0.512 6.025,3.818 5.514,7.372c-0.124,0.861 -0.271,1.72 -0.437,2.552c-0.054,0.271 -0.315,0.447 -0.588,0.393c-0.271,-0.054 -0.447,-0.316 -0.393,-0.588c0.162,-0.814 0.306,-1.655 0.427,-2.499c0.433,-3.008 -1.661,-5.807 -4.666,-6.239c-2.997,-0.431 -5.788,1.651 -6.221,4.638c-0.429,2.969 -1.151,5.664 -2.147,8.01c-0.081,0.189 -0.266,0.303 -0.46,0.303z"/>
  <path id="svg_8" fill="#547cec" d="m16.44,30.86283c-0.083,0 -0.166,-0.021 -0.243,-0.063c-0.241,-0.135 -0.328,-0.439 -0.193,-0.681c0.534,-0.955 1.033,-1.963 1.484,-2.994c0.11,-0.253 0.406,-0.369 0.658,-0.258c0.253,0.11 0.369,0.405 0.258,0.658c-0.464,1.062 -0.978,2.098 -1.527,3.082c-0.091,0.164 -0.261,0.256 -0.437,0.256z"/>
  <path id="svg_10" fill="#dadee7" d="m9.415,30.878c-0.103,0 -0.206,-0.031 -0.295,-0.097c-0.134,-0.098 -0.205,-0.25 -0.205,-0.403c0,-0.103 0.031,-0.206 0.097,-0.296c2.829,-3.858 4.691,-8.783 5.536,-14.638c0.04,-0.272 0.296,-0.452 0.566,-0.424c0.25,0.036 0.429,0.25 0.429,0.495c0,0.023 -0.001,0.048 -0.005,0.071c-0.869,6.019 -2.793,11.095 -5.719,15.087c-0.098,0.135 -0.25,0.205 -0.404,0.205z"/>
  <path id="svg_12" fill="#547cec" d="m7.646,29.924c-0.104,0 -0.209,-0.032 -0.299,-0.1c-0.221,-0.166 -0.266,-0.479 -0.101,-0.7c2.718,-3.631 4.509,-8.33 5.323,-13.966c0.197,-1.362 1.471,-2.305 2.831,-2.117c0.662,0.096 1.246,0.442 1.646,0.978c0.4,0.534 0.567,1.192 0.473,1.854c-0.035,0.242 -0.071,0.482 -0.11,0.72c-0.044,0.272 -0.301,0.465 -0.574,0.413c-0.272,-0.044 -0.458,-0.301 -0.414,-0.573c0.038,-0.231 0.073,-0.466 0.107,-0.701c0.118,-0.819 -0.452,-1.582 -1.27,-1.699c-0.828,-0.118 -1.58,0.438 -1.7,1.27c-0.838,5.804 -2.692,10.656 -5.512,14.423c-0.097,0.128 -0.247,0.198 -0.4,0.198z"/>
  <path id="svg_14" fill="#0436ed" d="m11.835,30.832c-0.094,0 -0.19,-0.026 -0.274,-0.082c-0.231,-0.152 -0.294,-0.463 -0.143,-0.693c2.169,-3.291 3.735,-7.229 4.653,-11.701c0.055,-0.271 0.315,-0.445 0.59,-0.39c0.271,0.056 0.445,0.32 0.389,0.591c-0.944,4.598 -2.559,8.652 -4.798,12.051c-0.095,0.145 -0.254,0.224 -0.417,0.224z"/>
  <path id="svg_16" fill="#0436ed" d="m18.695,30.941c-0.078,0 -0.157,-0.019 -0.23,-0.057c-0.245,-0.128 -0.34,-0.43 -0.212,-0.675c0.142,-0.272 0.282,-0.55 0.418,-0.831c0.119,-0.249 0.419,-0.354 0.668,-0.232c0.249,0.121 0.352,0.42 0.231,0.668c-0.141,0.291 -0.284,0.576 -0.431,0.858c-0.089,0.172 -0.263,0.269 -0.444,0.269z"/>
  <path id="svg_18" fill="#0436ed" d="m3.69,25.056c-0.09,0 -0.181,-0.024 -0.263,-0.075c-0.235,-0.146 -0.307,-0.453 -0.162,-0.688c1.653,-2.668 2.783,-6.043 3.359,-10.032c0.669,-4.612 4.987,-7.83 9.619,-7.18c4.646,0.671 7.88,4.993 7.212,9.636c-0.045,0.315 -0.094,0.628 -0.144,0.938c-0.044,0.271 -0.299,0.462 -0.574,0.413c-0.272,-0.044 -0.458,-0.301 -0.414,-0.573c0.049,-0.304 0.097,-0.61 0.141,-0.92c0.59,-4.097 -2.265,-7.912 -6.363,-8.503c-4.09,-0.575 -7.898,2.265 -8.489,6.333c-0.596,4.125 -1.772,7.63 -3.498,10.416c-0.093,0.151 -0.256,0.235 -0.424,0.235z"/>
  <path id="svg_20" fill="#0436ed" d="m7.819,4.014c-0.169,0 -0.335,-0.086 -0.429,-0.242c-0.143,-0.236 -0.066,-0.543 0.17,-0.686c2.853,-1.721 6.233,-2.409 9.523,-1.945c1.832,0.264 3.581,0.873 5.2,1.812c0.239,0.139 0.32,0.444 0.182,0.684c-0.139,0.238 -0.445,0.32 -0.684,0.182c-1.507,-0.874 -3.136,-1.441 -4.84,-1.687c-3.06,-0.437 -6.208,0.209 -8.865,1.811c-0.08,0.047 -0.169,0.071 -0.257,0.071z"/>
  <path id="svg_22" fill="#0436ed" d="m2.548,17.4c-0.041,0 -0.082,-0.005 -0.122,-0.015c-0.268,-0.067 -0.431,-0.339 -0.363,-0.607c0.244,-0.971 0.446,-2.011 0.603,-3.09c0.308,-2.123 1.164,-4.14 2.475,-5.831c0.168,-0.217 0.483,-0.256 0.7,-0.088c0.219,0.169 0.259,0.483 0.089,0.702c-1.205,1.555 -1.992,3.408 -2.275,5.361c-0.161,1.112 -0.37,2.186 -0.622,3.19c-0.057,0.227 -0.261,0.378 -0.485,0.378z"/>
  <path id="svg_24" fill="#547cec" d="m26.81483,18.126c-0.024,0 -0.049,-0.002 -0.075,-0.006c-0.273,-0.041 -0.461,-0.295 -0.42,-0.568l0.06,-0.408c0.901,-6.281 -3.48,-12.128 -9.766,-13.034c-3.316,-0.472 -6.664,0.527 -9.193,2.732c-0.208,0.182 -0.523,0.16 -0.706,-0.049c-0.18,-0.208 -0.158,-0.523 0.05,-0.705c2.749,-2.396 6.39,-3.479 9.991,-2.969c6.832,0.985 11.593,7.34 10.615,14.165l-0.062,0.416c-0.037,0.248 -0.25,0.426 -0.494,0.426z"/>
  <path id="svg_26" fill="#dadee7" d="m24.867,17.941c-0.024,0 -0.049,-0.002 -0.074,-0.006c-0.273,-0.04 -0.461,-0.295 -0.421,-0.568l0.075,-0.507c0.626,-4.366 -1.797,-8.556 -5.892,-10.189c-0.257,-0.103 -0.382,-0.394 -0.279,-0.65c0.103,-0.256 0.396,-0.378 0.649,-0.279c4.526,1.806 7.204,6.437 6.512,11.261l-0.076,0.514c-0.037,0.247 -0.25,0.424 -0.494,0.424z"/>
  <path id="svg_28" fill="#547cec" d="m2.871,22.412c-0.073,0 -0.147,-0.016 -0.218,-0.05c-0.249,-0.121 -0.352,-0.42 -0.231,-0.668c1.048,-2.161 1.796,-4.759 2.224,-7.721c0.828,-5.703 6.154,-9.682 11.877,-8.872c0.273,0.039 0.463,0.292 0.425,0.565s-0.292,0.46 -0.565,0.425c-5.176,-0.726 -9.999,2.866 -10.748,8.026c-0.442,3.063 -1.22,5.759 -2.313,8.013c-0.087,0.179 -0.265,0.282 -0.451,0.282z"/>
  <path id="svg_35" fill="#0436ed" d="m25,26.941c-0.004,0 -0.008,0 -0.012,0c-0.145,-0.004 -0.28,-0.069 -0.373,-0.18l-2.5,-3c-0.176,-0.213 -0.147,-0.528 0.064,-0.705c0.213,-0.176 0.527,-0.147 0.705,0.064l2.133,2.561l5.114,-5.578c0.188,-0.204 0.504,-0.216 0.706,-0.031c0.203,0.187 0.217,0.503 0.03,0.707l-5.499,6c-0.094,0.104 -0.227,0.162 -0.368,0.162z"/>
  <path id="svg_38" fill="#547cec" d="m24.971,30.941c-3.309,0 -6,-2.691 -6,-6s2.691,-6 6,-6c1.064,0 2.11,0.282 3.024,0.816c0.238,0.14 0.318,0.445 0.179,0.684c-0.14,0.238 -0.446,0.32 -0.684,0.18c-0.76,-0.444 -1.632,-0.68 -2.519,-0.68c-2.757,0 -5,2.243 -5,5s2.243,5 5,5s5,-2.243 5,-5c0,-0.361 -0.039,-0.723 -0.115,-1.073c-0.059,-0.27 0.112,-0.536 0.381,-0.595c0.271,-0.061 0.537,0.111 0.595,0.382c0.092,0.42 0.139,0.854 0.139,1.286c0,3.309 -2.691,6 -6,6z"/>
 </g>
</svg>