<svg width="464" height="427" viewBox="0 0 464 427" fill="none" xmlns="http://www.w3.org/2000/svg">
<rect width="464" height="427" fill="url(#paint0_linear)"/>
<mask id="mask0" mask-type="alpha" maskUnits="userSpaceOnUse" x="0" y="0" width="464" height="427">
<rect width="464" height="427" fill="url(#paint1_linear)"/>
</mask>
<g mask="url(#mask0)">
<g opacity="0.08">
<path d="M427 203.773C433.188 200.201 440.812 200.201 447 203.774L578.554 279.727C584.742 283.299 588.554 289.902 588.554 297.047V448.953C588.554 456.098 584.742 462.701 578.554 466.273L447 542.227C440.812 545.799 433.188 545.799 427 542.227L295.446 466.273C289.258 462.701 285.446 456.098 285.446 448.953V297.047C285.446 289.902 289.258 283.299 295.446 279.726L427 203.773Z" fill="#486ED1"/>
<path opacity="0.6" d="M433 237.906C435.475 236.477 438.525 236.477 441 237.906L551.995 301.989C554.471 303.418 555.995 306.059 555.995 308.917V437.084C555.995 439.942 554.471 442.583 551.995 444.012L441 508.095C438.525 509.524 435.475 509.524 433 508.095L322.005 444.012C319.529 442.583 318.005 439.942 318.005 437.084V308.917C318.005 306.059 319.529 303.418 322.005 301.989L433 237.906Z" fill="white"/>
</g>
<g opacity="0.4" filter="url(#filter0_f)">
<path d="M-23 -112L106.904 -37V113L-23 188L-152.904 113V-37L-23 -112Z" fill="#FBD8E7"/>
<path d="M-23 -112L106.904 -37V113L-23 188L-152.904 113V-37L-23 -112Z" fill="url(#paint2_radial)" fill-opacity="0.8"/>
</g>
<g opacity="0.3" filter="url(#filter1_f)">
<path d="M496.5 187L688.325 297.75V519.25L496.5 630L304.675 519.25V297.75L496.5 187Z" fill="#A3DBFA"/>
<path d="M496.5 187L688.325 297.75V519.25L496.5 630L304.675 519.25V297.75L496.5 187Z" fill="url(#paint3_radial)" fill-opacity="0.8"/>
</g>
<g opacity="0.08">
<path d="M-85 -196.227C-78.812 -199.799 -71.188 -199.799 -65 -196.226L66.5544 -120.273C72.7425 -116.701 76.5544 -110.098 76.5544 -102.953V48.953C76.5544 56.0983 72.7425 62.7008 66.5544 66.2735L-65 142.227C-71.188 145.799 -78.812 145.799 -85 142.227L-216.554 66.2735C-222.742 62.7008 -226.554 56.0983 -226.554 48.953V-102.953C-226.554 -110.098 -222.742 -116.701 -216.554 -120.274L-85 -196.227Z" fill="#7CA1D9"/>
<path opacity="0.6" d="M-79 -162.094C-76.5247 -163.523 -73.4752 -163.523 -71 -162.094L39.9955 -98.0112C42.4707 -96.5821 43.9955 -93.9411 43.9955 -91.083V37.0835C43.9955 39.9417 42.4707 42.5827 39.9955 44.0117L-71 108.095C-73.4752 109.524 -76.5247 109.524 -79 108.095L-189.995 44.0117C-192.471 42.5827 -193.995 39.9417 -193.995 37.0835V-91.083C-193.995 -93.9411 -192.471 -96.5821 -189.995 -98.0112L-79 -162.094Z" fill="white"/>
</g>
</g>
<defs>
<filter id="filter0_f" x="-252.904" y="-212" width="459.808" height="500" filterUnits="userSpaceOnUse" color-interpolation-filters="sRGB">
<feFlood flood-opacity="0" result="BackgroundImageFix"/>
<feBlend mode="normal" in="SourceGraphic" in2="BackgroundImageFix" result="shape"/>
<feGaussianBlur stdDeviation="50" result="effect1_foregroundBlur"/>
</filter>
<filter id="filter1_f" x="204.675" y="87" width="583.649" height="643" filterUnits="userSpaceOnUse" color-interpolation-filters="sRGB">
<feFlood flood-opacity="0" result="BackgroundImageFix"/>
<feBlend mode="normal" in="SourceGraphic" in2="BackgroundImageFix" result="shape"/>
<feGaussianBlur stdDeviation="50" result="effect1_foregroundBlur"/>
</filter>
<linearGradient id="paint0_linear" x1="91.1719" y1="146.299" x2="276.488" y2="169.956" gradientUnits="userSpaceOnUse">
<stop stop-color="#F8F8FF"/>
<stop offset="1" stop-color="#F2F3FF"/>
</linearGradient>
<linearGradient id="paint1_linear" x1="91.1719" y1="146.299" x2="276.488" y2="169.956" gradientUnits="userSpaceOnUse">
<stop stop-color="#F8F8FF"/>
<stop offset="1" stop-color="#F2F3FF"/>
</linearGradient>
<radialGradient id="paint2_radial" cx="0" cy="0" r="1" gradientUnits="userSpaceOnUse" gradientTransform="translate(-23 33.3964) rotate(-90) scale(145.396)">
<stop offset="0.411458" stop-color="white" stop-opacity="0.92"/>
<stop offset="1" stop-color="white" stop-opacity="0"/>
</radialGradient>
<radialGradient id="paint3_radial" cx="0" cy="0" r="1" gradientUnits="userSpaceOnUse" gradientTransform="translate(496.5 401.702) rotate(-90) scale(214.702)">
<stop offset="0.411458" stop-color="white" stop-opacity="0.92"/>
<stop offset="1" stop-color="white" stop-opacity="0"/>
</radialGradient>
</defs>
</svg>
