<svg width="1920" height="483" viewBox="0 0 1920 483" fill="none" xmlns="http://www.w3.org/2000/svg">
<rect width="1920" height="483" fill="url(#paint0_linear)"/>
<mask id="mask0" mask-type="alpha" maskUnits="userSpaceOnUse" x="0" y="0" width="1920" height="483">
<rect width="1920" height="483" fill="white"/>
</mask>
<g mask="url(#mask0)">
<g opacity="0.3" filter="url(#filter0_f)">
<path d="M442.5 247L676.76 382.25V652.75L442.5 788L208.24 652.75V382.25L442.5 247Z" fill="#A3DBFA"/>
<path d="M442.5 247L676.76 382.25V652.75L442.5 788L208.24 652.75V382.25L442.5 247Z" fill="url(#paint1_radial)" fill-opacity="0.8"/>
</g>
<g opacity="0.08">
<path d="M1150.31 215.773C1156.5 212.201 1164.12 212.201 1170.31 215.774L1409.52 353.881C1415.7 357.453 1419.52 364.056 1419.52 371.201V647.415C1419.52 654.56 1415.7 661.163 1409.52 664.736L1170.31 802.843C1164.12 806.415 1156.5 806.415 1150.31 802.843L911.1 664.736C904.912 661.163 901.1 654.56 901.1 647.415V371.201C901.1 364.056 904.912 357.453 911.1 353.881L1150.31 215.773Z" fill="#486ED1"/>
<path opacity="0.6" d="M1155.31 277.188C1158.4 275.402 1162.21 275.402 1165.31 277.188L1358.83 388.918C1361.92 390.704 1363.83 394.005 1363.83 397.578V621.038C1363.83 624.61 1361.92 627.912 1358.83 629.698L1165.31 741.428C1162.21 743.214 1158.4 743.214 1155.31 741.428L961.786 629.698C958.692 627.912 956.786 624.61 956.786 621.038V397.578C956.786 394.005 958.692 390.704 961.786 388.918L1155.31 277.188Z" fill="white"/>
</g>
<g opacity="0.4" filter="url(#filter1_f)">
<path d="M31.5 -219L265.76 -83.75V186.75L31.5 322L-202.76 186.75V-83.75L31.5 -219Z" fill="#FBD8E7"/>
<path d="M31.5 -219L265.76 -83.75V186.75L31.5 322L-202.76 186.75V-83.75L31.5 -219Z" fill="url(#paint2_radial)" fill-opacity="0.8"/>
</g>
<g opacity="0.15" filter="url(#filter2_f)">
<path d="M857 -332L1120.27 -180V124L857 276L593.728 124V-180L857 -332Z" fill="#A3DBFA"/>
<path d="M857 -332L1120.27 -180V124L857 276L593.728 124V-180L857 -332Z" fill="url(#paint3_radial)" fill-opacity="0.8"/>
</g>
<g opacity="0.08">
<path d="M1471 -340.227C1477.19 -343.799 1484.81 -343.799 1491 -340.226L1753.32 -188.773C1759.51 -185.201 1763.32 -178.598 1763.32 -171.453V131.453C1763.32 138.598 1759.51 145.201 1753.32 148.773L1491 300.227C1484.81 303.799 1477.19 303.799 1471 300.227L1208.68 148.773C1202.49 145.201 1198.68 138.598 1198.68 131.453V-171.453C1198.68 -178.598 1202.49 -185.201 1208.68 -188.773L1471 -340.227Z" fill="#7CA1D9"/>
<path opacity="0.6" d="M1476 -273.078C1479.09 -274.864 1482.91 -274.864 1486 -273.078L1697.67 -150.869C1700.77 -149.083 1702.67 -145.781 1702.67 -142.209V102.208C1702.67 105.781 1700.77 109.082 1697.67 110.869L1486 233.077C1482.91 234.864 1479.09 234.864 1476 233.077L1264.33 110.869C1261.23 109.082 1259.33 105.781 1259.33 102.208V-142.209C1259.33 -145.781 1261.23 -149.083 1264.33 -150.869L1476 -273.078Z" fill="white"/>
</g>
</g>
<defs>
<filter id="filter0_f" x="108.24" y="147" width="668.52" height="741" filterUnits="userSpaceOnUse" color-interpolation-filters="sRGB">
<feFlood flood-opacity="0" result="BackgroundImageFix"/>
<feBlend mode="normal" in="SourceGraphic" in2="BackgroundImageFix" result="shape"/>
<feGaussianBlur stdDeviation="50" result="effect1_foregroundBlur"/>
</filter>
<filter id="filter1_f" x="-302.76" y="-319" width="668.52" height="741" filterUnits="userSpaceOnUse" color-interpolation-filters="sRGB">
<feFlood flood-opacity="0" result="BackgroundImageFix"/>
<feBlend mode="normal" in="SourceGraphic" in2="BackgroundImageFix" result="shape"/>
<feGaussianBlur stdDeviation="50" result="effect1_foregroundBlur"/>
</filter>
<filter id="filter2_f" x="493.728" y="-432" width="726.543" height="808" filterUnits="userSpaceOnUse" color-interpolation-filters="sRGB">
<feFlood flood-opacity="0" result="BackgroundImageFix"/>
<feBlend mode="normal" in="SourceGraphic" in2="BackgroundImageFix" result="shape"/>
<feGaussianBlur stdDeviation="50" result="effect1_foregroundBlur"/>
</filter>
<linearGradient id="paint0_linear" x1="389" y1="204.227" x2="1086.39" y2="476.339" gradientUnits="userSpaceOnUse">
<stop stop-color="#F8F8FF"/>
<stop offset="1" stop-color="#F2F3FF"/>
</linearGradient>
<radialGradient id="paint1_radial" cx="0" cy="0" r="1" gradientUnits="userSpaceOnUse" gradientTransform="translate(442.5 509.198) rotate(-90) scale(262.198)">
<stop offset="0.411458" stop-color="white" stop-opacity="0.92"/>
<stop offset="1" stop-color="white" stop-opacity="0"/>
</radialGradient>
<radialGradient id="paint2_radial" cx="0" cy="0" r="1" gradientUnits="userSpaceOnUse" gradientTransform="translate(31.5 43.1982) rotate(-90) scale(262.198)">
<stop offset="0.411458" stop-color="white" stop-opacity="0.92"/>
<stop offset="1" stop-color="white" stop-opacity="0"/>
</radialGradient>
<radialGradient id="paint3_radial" cx="0" cy="0" r="1" gradientUnits="userSpaceOnUse" gradientTransform="translate(857 -37.3299) rotate(-90) scale(294.67)">
<stop offset="0.411458" stop-color="white" stop-opacity="0.92"/>
<stop offset="1" stop-color="white" stop-opacity="0"/>
</radialGradient>
</defs>
</svg>
