<svg width="160" height="160" xmlns="http://www.w3.org/2000/svg">

 <g>
  <title>background</title>
  <rect fill="none" id="canvas_background" height="402" width="582" y="-1" x="-1"/>
 </g>
 <g>
  <title>Layer 1</title>
  <path fill="#547cec" id="svg_2" d="m46.06,117.63c-0.47,0.78 -1.3,1.22 -2.15,1.22c-0.43,0 -0.87,-0.12 -1.28,-0.36l-19.11,-11.43c-1.96,1.97 -4.69,3.19 -7.7,3.19c-5.96,0 -10.82,-4.8 -10.82,-10.71s4.86,-10.72 10.82,-10.72c5.97,0 10.83,4.81 10.83,10.72c-0.01,1.13 -0.19,2.23 -0.52,3.25l19.07,11.41c1.18,0.71 1.57,2.24 0.86,3.43z"/>
  <path fill="#547cec" id="svg_3" d="m155,107.42c0,0.32 -0.02,0.63 -0.06,0.95c-0.48,3.7 -3.67,6.41 -7.34,6.41c-0.31,0 -0.63,-0.02 -0.96,-0.06c-1.35,-0.18 -2.6,-0.71 -3.64,-1.53l-14.58,7.34c-0.36,0.18 -0.74,0.27 -1.12,0.27c-0.91,0 -1.79,-0.5 -2.23,-1.38c-0.62,-1.23 -0.13,-2.73 1.1,-3.35l14.16,-7.14c-0.17,-0.8 -0.21,-1.62 -0.1,-2.46c0.52,-4.02 4.24,-6.88 8.29,-6.34c1.96,0.25 3.71,1.24 4.92,2.79c1.02,1.31 1.56,2.88 1.56,4.5z"/>
  <path fill="#0436ed" id="svg_4" d="m107,22.66c-5.97,-5.96 -13.9,-9.24 -22.34,-9.25c-4.22,0 -8.31,0.82 -12.1,2.39c-3.78,1.56 -7.25,3.88 -10.24,6.85c-5.96,5.96 -9.25,13.89 -9.25,22.32c0,16.56 12.83,30.17 29.09,31.45l-0.01,14.43c0,1.38 1.12,2.5 2.5,2.5c0.69,0 1.32,-0.28 1.77,-0.73c0.45,-0.46 0.73,-1.08 0.73,-1.77l0.01,-14.43c16.25,-1.28 29.09,-14.89 29.09,-31.45c0,-8.43 -3.28,-16.35 -9.25,-22.31zm-22.34,46.87c-13.56,0 -24.59,-11.02 -24.59,-24.56c0,-6.56 2.56,-12.73 7.2,-17.36c4.65,-4.64 10.82,-7.2 17.39,-7.2s12.75,2.56 17.39,7.2c4.64,4.64 7.2,10.81 7.2,17.36c0,13.55 -11.03,24.56 -24.59,24.56z"/>
  <path fill="#547cec" id="svg_5" d="m100.01,35.44c-0.76,-0.41 -1.63,-0.63 -2.5,-0.63l-7.31,0.01c0.29,-2.03 0.4,-4.08 0.31,-6.12l-0.01,-0.19c-0.07,-1.61 -0.73,-3.13 -1.89,-4.3c-1.19,-1.2 -2.92,-1.73 -4.54,-1.37c-0.51,0.11 -1,0.31 -1.45,0.57l-0.92,0.55c-0.76,0.45 -1.23,1.27 -1.23,2.16l0,2.64c0.01,1.1 -0.21,2.18 -0.64,3.21c-0.43,1.03 -1.06,1.96 -1.86,2.75l-0.84,0.83c-0.35,-0.18 -0.74,-0.29 -1.16,-0.29l-7.01,-0.01c-0.66,0 -1.3,0.27 -1.76,0.74c-0.47,0.47 -0.74,1.1 -0.74,1.76l0,18.92c0,0.67 0.26,1.3 0.73,1.77c0.47,0.47 1.11,0.73 1.77,0.73l7.01,0c1.05,0 1.94,-0.64 2.31,-1.55c0.83,0.15 1.67,0.24 2.53,0.24l14.25,0c2.67,0 4.86,-2.07 5.03,-4.68c2.77,-11.88 2.77,-12.73 2.77,-13.04c0,-1.96 -1.08,-3.76 -2.85,-4.7zm-4.84,16.84c-0.04,0.18 -0.11,0.39 -0.11,0.58l-14.25,0c-0.8,0 -1.58,-0.1 -2.34,-0.3l0,-11.31l3.02,-2.98c1.27,-1.25 2.27,-2.73 2.95,-4.37c0.69,-1.64 1.04,-3.38 1.03,-5.15l0,-0.26c0.02,0.07 0.03,0.15 0.03,0.23l0.01,0.19c0.1,2.15 -0.06,4.31 -0.46,6.42l-0.29,1.52c-0.14,0.73 0.05,1.49 0.53,2.06c0.47,0.58 1.18,0.91 1.92,0.91l10.31,-0.01c0.04,0 0.09,0.01 0.16,0.05c0.09,0.05 0.15,0.13 0.17,0.22c-0.16,1.13 -1.47,6.99 -2.68,12.2z"/>
  <path fill="#0436ed" id="svg_6" d="m139.95,118.64c3.33,7.48 5.19,15.75 5.19,24.45c0,1.93 -1.56,3.5 -3.5,3.5c-1.93,0 -3.5,-1.57 -3.5,-3.5c0,-0.29 -0.02,-0.57 -0.02,-0.86l-8.63,-5.76l-7.28,4.32c-2.96,1.75 -6.63,1.74 -9.58,-0.03l-4.46,-2.68c-2.38,-1.42 -4.08,-3.78 -4.66,-6.47l-1.75,-8.06c-0.82,-3.78 0.66,-7.73 3.76,-10.07l14.17,-10.7c-3.47,-3 -7.32,-5.57 -11.48,-7.62l-10.01,4.41c-1.49,0.65 -3.06,1.05 -4.68,1.19l-9.56,0.81c-0.41,0.04 -0.83,0.06 -1.24,0.06c-3.69,0 -7.28,-1.4 -10,-3.92l-5.51,-5.1c-3.73,1.29 -7.28,2.97 -10.59,5.01l2.56,5.1c3.52,1.13 14.02,4.54 14.02,4.54c5,1.729 7.83,7.01 6.49,12.03l-1.02,3.87c-1.02,3.81 -4.21,6.69 -8.13,7.34l-11.6,1.91c-1.44,0.23 -2.7,1.06 -3.48,2.26l-2.18,3.38c-1.41,2.17 -3.8,3.36 -6.24,3.36c-1.32,0 -2.66,-0.35 -3.85,-1.09l-4.83,-2.97c-0.5,-0.31 -1.09,-0.42 -1.66,-0.32l-5.26,0.9c-0.17,1.7 -0.27,3.42 -0.27,5.16c0,1.93 -1.57,3.5 -3.5,3.5c-1.94,0 -3.5,-1.57 -3.5,-3.5c0,-9.93 2.42,-19.3 6.69,-27.57l6.01,3.6c-2.14,4.25 -3.72,8.82 -4.67,13.61l3.65,-0.63c1.78,-0.3 3.6,0.05 5.13,0.99l4.83,2.98c1.1,0.67 2.57,0.34 3.27,-0.74l2.18,-3.37c1.54,-2.39 4.05,-4.02 6.87,-4.49l11.6,-1.91c1.98,-0.32 3.6,-1.77 4.1,-3.68l1.03,-3.87c0.67,-2.51 -0.76,-5.15 -3.25,-6.01c0,0 -13.49,-4.37 -14.95,-4.84c-0.65,-0.21 -1.18,-0.66 -1.48,-1.26l-2.73,-5.43c-3.32,2.51 -6.35,5.4 -9,8.6l-6.06,-3.62c4.85,-6.06 10.84,-11.16 17.64,-15l-1.94,-3.28c-0.44,0.08 -0.89,0.12 -1.35,0.12c-0.16,0 -0.32,0 -0.49,-0.01c-1.97,-0.13 -3.77,-1 -5.08,-2.47c-1.32,-1.48 -1.98,-3.37 -1.85,-5.34c0.25,-4.05 3.78,-7.13 7.87,-6.87c1.97,0.12 3.77,1 5.08,2.47c1.32,1.47 1.98,3.37 1.85,5.34c-0.1,1.58 -0.7,3.05 -1.71,4.24l2.08,3.53c5.94,-2.73 12.38,-4.54 19.17,-5.21l-0.01,7.04c-1.97,0.229 -3.91,0.57 -5.81,1l3.27,3.03c2,1.85 4.71,2.78 7.43,2.55l9.55,-0.81c1.07,-0.09 2.11,-0.36 3.09,-0.79l5.65,-2.479c-3.57,-1.21 -7.31,-2.06 -11.18,-2.5l0.01,-7.04c10.53,1.04 20.27,4.81 28.52,10.57l7.97,-8.17c-0.17,-0.29 -0.34,-0.58 -0.49,-0.89c-1.15,-2.39 -1.29,-5.07 -0.41,-7.56c1.83,-5.11 7.52,-7.78 12.69,-5.94c2.5,0.89 4.5,2.69 5.65,5.07c1.15,2.38 1.29,5.07 0.41,7.55c-1.44,4.02 -5.25,6.53 -9.33,6.53c-1.11,0 -2.25,-0.19 -3.36,-0.59c-0.54,-0.19 -1.05,-0.43 -1.55,-0.71l-7.56,7.75c4.09,3.39 7.72,7.29 10.79,11.62l-6.31,3.19c-1.34,-1.8 -2.79,-3.49 -4.33,-5.11l-14.82,11.19c-1.55,1.17 -2.29,3.14 -1.88,5.02l1.75,8.07c0.29,1.34 1.14,2.52 2.34,3.24l4.46,2.67c1.37,0.83 3.08,0.83 4.46,0.01l8.64,-5.11c0.83,-0.49 1.86,-0.47 2.66,0.07l6.68,4.46c-0.67,-4.95 -2.01,-9.68 -3.94,-14.11l6.25,-3.151z"/>
 </g>
</svg>