<svg xmlns="http://www.w3.org/2000/svg" width="180.551" height="156.198" viewBox="0 0 180.551 156.198"><g transform="translate(-0.078 -0.029)"><path d="M5.188,3.289A4.788,4.788,0,0,1,4,7.364a3.21,3.21,0,0,1-1.156.713A2.852,2.852,0,0,1,.006,7.66L0,7.647a3.969,3.969,0,0,0,1.5-1.3A6.643,6.643,0,0,0,2.244,1.5a7.638,7.638,0,0,0-.4-1.47A2.619,2.619,0,0,1,4.17.906,4.4,4.4,0,0,1,5.188,3.289" transform="translate(99.807 3.361)" fill="#ffc7c7"/><path d="M0,.568A9.171,9.171,0,0,0,1.691,0l.017.038a2.52,2.52,0,0,1-.571,1.447,2.468,2.468,0,0,1-.782.637H.348A5.418,5.418,0,0,0,0,.568" transform="translate(93.355 9.878)" fill="#ffc7c7"/><path d="M7.186,6.516a5.779,5.779,0,0,1-.7,3.685,2.992,2.992,0,0,1-.827.827,2.459,2.459,0,0,1-2.413.305,2.52,2.52,0,0,0,.571-1.447L3.8,9.848a4.261,4.261,0,0,0,1.163-.787,2.5,2.5,0,0,0,.6-2.908,1.233,1.233,0,0,0-.781-.622,1.812,1.812,0,0,0-.9.127l-1.043.333A10.152,10.152,0,0,0,1.655,3.012,4.219,4.219,0,0,0,0,1.524v0l.017-.032C1.074.582,2.424-.243,3.782.066A3.351,3.351,0,0,1,5.84,1.707a7.44,7.44,0,0,1,.743,1.678,14.353,14.353,0,0,1,.6,3.131" transform="translate(91.242 0.029)" fill="#ffc7c7"/><path d="M4.748,2.338a7.638,7.638,0,0,1,.4,1.47A6.643,6.643,0,0,1,4.4,8.648a3.969,3.969,0,0,1-1.5,1.3,3.157,3.157,0,0,1-2.87.092L0,10a2.992,2.992,0,0,0,.827-.827,5.779,5.779,0,0,0,.7-3.685,14.353,14.353,0,0,0-.6-3.131A7.44,7.44,0,0,0,.177.68l.162-.1A2.49,2.49,0,0,1,3.6.648a4.106,4.106,0,0,1,1.147,1.69" transform="translate(96.906 1.056)" fill="#ffc7c7"/><path d="M9.317,4.765l1.043-.333a1.812,1.812,0,0,1,.9-.127,1.233,1.233,0,0,1,.781.622,2.5,2.5,0,0,1-.6,2.908,4.261,4.261,0,0,1-1.163.787,9.171,9.171,0,0,1-1.691.568,5.418,5.418,0,0,1,.348,1.554h.008a2.468,2.468,0,0,0,.782-.637A2.459,2.459,0,0,0,12.14,9.8l.031.043a3.157,3.157,0,0,0,2.87-.092l.006.013a2.852,2.852,0,0,0,2.838.417l.012.034a5.38,5.38,0,0,1-.194,2.672c-.4,1.2-1.221,2.232-1.569,3.447a5.388,5.388,0,0,0-.051,2.588,34.972,34.972,0,0,1-12.267-.838l0-.019A28.489,28.489,0,0,0,1.36,11.826a11.1,11.1,0,0,1-1.24-6.5A7.449,7.449,0,0,1,2.491,1.253,4.18,4.18,0,0,1,5.294,0,2.936,2.936,0,0,1,6.476.294v0A4.219,4.219,0,0,1,8.131,1.784,10.152,10.152,0,0,1,9.317,4.765" transform="translate(84.766 1.257)" fill="#ffc7c7"/><path d="M2.242,0a7.19,7.19,0,0,0-.65,1.782A2.235,2.235,0,0,1,.034,1.058L0,1.039A4.849,4.849,0,0,0,.288.412,12.1,12.1,0,0,0,2.242,0" transform="translate(12.804 11.272)" fill="#ffc7c7"/><path d="M3.009.162a2.079,2.079,0,0,1,.47.269,3.882,3.882,0,0,1,1,1.37A21.441,21.441,0,0,1,6.007,5.78a3.485,3.485,0,0,1-.2,3.04.331.331,0,0,1-.024.029,3.63,3.63,0,0,1-2.874.946,1.149,1.149,0,0,0,.111-.228,2.592,2.592,0,0,0,.064-1.248A10.571,10.571,0,0,0,.931,3.185,2.726,2.726,0,0,0,0,2.355l.041-.082A2.39,2.39,0,0,1,1.288.195,2.17,2.17,0,0,1,3.009.162" transform="translate(3.079 4.76)" fill="#ffc7c7"/><path d="M1.011,0A1.023,1.023,0,1,1,0,1.035,1.023,1.023,0,0,1,1.011,0" transform="translate(78.92 66.264)" fill="#20140f"/><path d="M4.134.63A9.769,9.769,0,0,1,6.852,4.868v0a8.891,8.891,0,0,0-.923.059L2.46,5.282c-.149.015-.3.034-.457.056a9.8,9.8,0,0,0-1.308-2.9A6.273,6.273,0,0,0,0,1.554L.077,1.48A3.462,3.462,0,0,1,2.419.029a1.907,1.907,0,0,1,.913.058,2.4,2.4,0,0,1,.8.544" transform="translate(10.429 2.785)" fill="#ffc7c7"/><path d="M4.712.254a.773.773,0,0,1,.294.884.79.79,0,0,1-.537.4,3.357,3.357,0,0,1-.688.062A3.349,3.349,0,0,0,2,2.122c-.27.187-.5.428-.788.588a.9.9,0,0,1-.935.027.79.79,0,0,1-.24-.858,1.713,1.713,0,0,1,.548-.763A4.484,4.484,0,0,1,4.108.037c0-.057.339.013.6.217" transform="translate(63.242 59.283)" fill="#08080c"/><path d="M5.85,8.283A3.39,3.39,0,0,0,7,8.366a4.849,4.849,0,0,1-.288.628,3.5,3.5,0,0,1-1.531,1.524,2.353,2.353,0,0,1-2.366-.193l-.042-.034a.331.331,0,0,0,.024-.029A3.485,3.485,0,0,0,3,7.222a21.441,21.441,0,0,0-1.53-3.978,3.882,3.882,0,0,0-1-1.37A2.079,2.079,0,0,0,0,1.6,3.617,3.617,0,0,1,1.392.174,2.361,2.361,0,0,1,3.5.354a3.7,3.7,0,0,1,.836.668,6.273,6.273,0,0,1,.695.884,9.8,9.8,0,0,1,1.308,2.9A2.382,2.382,0,0,0,4.432,5.846c-.485.961.376,2.161,1.418,2.437" transform="translate(6.089 3.317)" fill="#ffc7c7"/><path d="M5.913,7.564a3.63,3.63,0,0,0,2.874-.946l.042.034a2.353,2.353,0,0,0,2.366.193,3.5,3.5,0,0,0,1.531-1.524l.034.019a2.235,2.235,0,0,0,1.558.725,7.19,7.19,0,0,1,.65-1.782,12.1,12.1,0,0,1-1.954.412,3.39,3.39,0,0,1-1.154-.084c-1.042-.276-1.9-1.476-1.418-2.437a2.382,2.382,0,0,1,1.911-1.039c.155-.022.308-.041.457-.056L16.28.724A8.891,8.891,0,0,1,17.2.665a2.92,2.92,0,0,1,.9.128,3.156,3.156,0,0,1,1.88,2.941,14.964,14.964,0,0,1-.578,3.657,16.157,16.157,0,0,0,.559,8.447A46.473,46.473,0,0,1,6.327,18.223c-.028-.14-.058-.279-.094-.419v0a9.583,9.583,0,0,0-1.54-3.338c-.671-.927-1.5-1.724-2.205-2.627A12.019,12.019,0,0,1,.274,1.981,2.6,2.6,0,0,1,1.347.389,1.78,1.78,0,0,1,2.718.029,1.416,1.416,0,0,1,3,.124a2.726,2.726,0,0,1,.931.83A10.571,10.571,0,0,1,6.088,6.087a2.592,2.592,0,0,1-.064,1.248,1.149,1.149,0,0,1-.111.228" transform="translate(0.078 6.99)" fill="#ffc7c7"/><path d="M10.135,1.782A3.117,3.117,0,0,1,9.063,3.967,5.971,5.971,0,0,1,5.463,5.6a6.359,6.359,0,0,1-3.854-.92,3.742,3.742,0,0,1-1.3-1.231,2.02,2.02,0,0,1-.2-1.731A2.645,2.645,0,0,1,2.779.422,13.969,13.969,0,0,0,5.924.565C6.895.378,7.87-.241,8.8.1a1.958,1.958,0,0,1,1.34,1.681" transform="translate(68.183 72.956)" fill="#fff"/><path d="M18.447,27.028C15.257,17.181,9.455,8.586,3.565,0L3.526.028A9.578,9.578,0,0,0,.987,4.086,22.41,22.41,0,0,0,.348,14.82C1.36,22.1,3.912,29.06,6.449,35.957q1.537,4.171,3.07,8.345l10.708.015H23.76L18.447,27.028" transform="translate(26.608 107.85)" fill="#0e0a2e"/><path d="M1.012,0A1.023,1.023,0,1,1,0,1.035,1.023,1.023,0,0,1,1.012,0" transform="translate(65.843 66.409)" fill="#20140f"/><path d="M5.04,1.8a.79.79,0,0,1-.221.863.9.9,0,0,1-.935-.007c-.291-.154-.527-.39-.8-.57a3.348,3.348,0,0,0-1.792-.48A3.346,3.346,0,0,1,.6,1.561a.79.79,0,0,1-.546-.39A.773.773,0,0,1,.329.281c.261-.209.6-.287.6-.23a4.485,4.485,0,0,1,3.546,1A1.715,1.715,0,0,1,5.04,1.8" transform="translate(77.328 59.148)" fill="#08080c"/><path d="M35.8,12.33a17.578,17.578,0,0,1-8.49,2.169c-1.865.066-3.729-.029-5.59-.114a21.556,21.556,0,0,0-2.609-.107,12.662,12.662,0,0,0-8.846,5.906c-.11.172-.225.338-.333.511a14.445,14.445,0,0,0-1.885,11.2.494.494,0,0,1-.131.45,1,1,0,0,1-.419.247,1.5,1.5,0,0,1-.955.041A.94.94,0,0,1,5.9,31.96a3.757,3.757,0,0,0-2.481-1.7,3.2,3.2,0,0,0-1.09.014l-.314-.649c-2.054-4.975-3.022-10.691-.541-15.283,1.941-3.593,5.675-5.875,9.491-7.329s7.867-2.245,11.644-3.8a17.162,17.162,0,0,1,8.114-3.2,10.57,10.57,0,0,1,5.391,1.1A6.545,6.545,0,0,1,38.13,2.607a5.621,5.621,0,0,1,1.149,4.768,8.235,8.235,0,0,1-2.541,4.305,9.765,9.765,0,0,1-.933.65" transform="translate(45.988 37.691)" fill="#08080c"/><path d="M21.467,45.365a9.975,9.975,0,0,1-1.23-.076,14.708,14.708,0,0,1-8.109-4.208l-.185-.043a4.181,4.181,0,0,0-.26-1.9A107.634,107.634,0,0,0,6.213,25.7l-.18-.028a4.509,4.509,0,0,1-1.732.343,4.337,4.337,0,0,1-2.624-.855A4.441,4.441,0,0,1,.3,20.086a3.76,3.76,0,0,1,.845-1.275,3.323,3.323,0,0,1,1.709-.865,3.243,3.243,0,0,1,.59-.054,3.127,3.127,0,0,1,.5.04,3.773,3.773,0,0,1,2.481,1.7.937.937,0,0,0,.643.672,1.263,1.263,0,0,0,.394.06,1.7,1.7,0,0,0,.562-.1,1,1,0,0,0,.419-.247.493.493,0,0,0,.131-.45A12.976,12.976,0,0,1,8.366,13.8,15.717,15.717,0,0,1,10.46,8.365c.06-.1.123-.19.184-.282s.1-.153.15-.229A12.622,12.622,0,0,1,19.64,1.948c.155-.013.317-.019.5-.019.421,0,.859.035,1.282.069.275.022.56.045.831.057l.294.014c1.306.06,2.657.123,3.986.123.461,0,.889-.007,1.309-.022A17.319,17.319,0,0,0,36.329,0Q37,2.445,37.671,4.891l.672,2.445c2.587,9.43,3.1,16.732,1.53,21.7A10.647,10.647,0,0,1,35,35.375a20.475,20.475,0,0,1-8.465,2.539,20.232,20.232,0,0,0,.621,2.139,5.141,5.141,0,0,0,1.134,2.018c.061.06.126.115.187.167A8.95,8.95,0,0,1,21.467,45.365Zm3.874-22.011a2.582,2.582,0,0,0-2.507,1.3,2.006,2.006,0,0,0,.2,1.731,3.693,3.693,0,0,0,1.3,1.231,6.349,6.349,0,0,0,3.322.944c.178,0,.357-.008.532-.023a5.938,5.938,0,0,0,3.6-1.637,3.1,3.1,0,0,0,1.072-2.185,1.963,1.963,0,0,0-1.34-1.68,1.67,1.67,0,0,0-.589-.1,4.536,4.536,0,0,0-1.372.305,7.446,7.446,0,0,1-.91.26,3.994,3.994,0,0,1-.76.067,10.7,10.7,0,0,1-1.3-.107c-.357-.044-.727-.09-1.089-.1ZM21.4,16.389h-.012a1.022,1.022,0,0,0,.012,2.045h.012a1.022,1.022,0,0,0-.012-2.045Zm13.076-.146h-.012a1.023,1.023,0,0,0,.011,2.046h.012a1.023,1.023,0,0,0-.011-2.046ZM21.32,9.262a4.5,4.5,0,0,0-2.957,1.116,1.688,1.688,0,0,0-.548.762.784.784,0,0,0,.241.859.679.679,0,0,0,.4.119,1.133,1.133,0,0,0,.533-.146,3.309,3.309,0,0,0,.469-.341c.1-.084.208-.171.319-.247a3.31,3.31,0,0,1,1.781-.519l.14-.005a2.526,2.526,0,0,0,.548-.058.784.784,0,0,0,.537-.4.777.777,0,0,0-.294-.885,1.158,1.158,0,0,0-.559-.235.06.06,0,0,0-.041.01.012.012,0,0,0,0,.009A4.278,4.278,0,0,0,21.32,9.262Zm11.432-.1a1.127,1.127,0,0,0-.558.248.774.774,0,0,0-.274.89.782.782,0,0,0,.545.39,2.556,2.556,0,0,0,.559.045l.131,0a3.333,3.333,0,0,1,1.792.48c.111.073.218.157.32.238a3.254,3.254,0,0,0,.481.333,1.146,1.146,0,0,0,.517.135.685.685,0,0,0,.418-.128.792.792,0,0,0,.221-.863,1.678,1.678,0,0,0-.565-.751,4.517,4.517,0,0,0-2.886-1.051,4.3,4.3,0,0,0-.66.051.012.012,0,0,0,0-.009A.055.055,0,0,0,32.752,9.16Z" transform="translate(45.464 50.021)" fill="#ffc7c7"/><path d="M94.174,103.825q-.387-1.609-.77-3.229c.858-15.408,8.63-40.658,8.444-56.4S99.168,16.766,94.742,1.66a7.936,7.936,0,0,1-.2-.8A34.972,34.972,0,0,1,82.271.022L82.184,0a194.66,194.66,0,0,1,.432,39.408c-.548,6.878-1.368,13.834-3.46,20.375a47.6,47.6,0,0,1-2.01,5.24c-1.6,3.513-3.938,7.04-7.566,8.324a2.038,2.038,0,0,1-1.946-.408,9.174,9.174,0,0,1-8.244,3.052,14.613,14.613,0,0,1-8.109-4.208l-.186-.043c-.007.047-.018.095-.029.142a1.418,1.418,0,0,1-1.5,1.148l-.072.022c-8.33-4.733-11.718-10.031-15.7-16.608s-6.847-13.766-9.51-20.981Q18.457,19.677,13.791,3.495l-.056.016A46.476,46.476,0,0,1,.094,5.9C.066,5.755.036,5.616,0,5.476c.1.93,2.093,45.088,12.205,64.561A179.53,179.53,0,0,0,23.862,88.532c5.89,8.586,11.692,17.181,14.882,27.028v.021l.007,0,5.306,17.265,10.373.02,46.728.064v-.066q-3.491-14.52-6.984-29.041" transform="translate(6.311 19.318)" fill="#fe438a"/><path d="M.122.026l-.081.1L0,.084.1,0,.122.026" transform="translate(91.688 147.037)" fill="#cc2c3d"/><path d="M0,.043H.121V.082H0V.043" transform="translate(92.606 147.396)" fill="#cc2c3d"/><path d="M.189,1.106A.189.189,0,0,1,.03.815a1.766,1.766,0,0,1,2.4-.565.189.189,0,1,1-.195.324,1.388,1.388,0,0,0-1.884.444.189.189,0,0,1-.16.087" transform="translate(47.23 70.466)" fill="#a14646"/><path d="M1.2,6.614a.189.189,0,0,1-.024-.377A1.854,1.854,0,0,0,2.721,5.084,2.267,2.267,0,0,0,2.243,3.2a9.029,9.029,0,0,0-.751-.854,10.438,10.438,0,0,1-.7-.788A6.8,6.8,0,0,1,.018.27.189.189,0,1,1,.36.108a6.428,6.428,0,0,0,.727,1.214,10.158,10.158,0,0,0,.678.758,9.313,9.313,0,0,1,.782.891A2.538,2.538,0,0,1,3.082,5.2,2.222,2.222,0,0,1,1.221,6.612l-.025,0" transform="translate(73.35 64.733)" fill="#a14646"/><path d="M3.031,4.847a.189.189,0,0,1-.182-.14A9.957,9.957,0,0,0,1.687,1.782,4.047,4.047,0,0,0,.108.36.189.189,0,1,1,.271.018,4.431,4.431,0,0,1,2,1.573,10.27,10.27,0,0,1,3.214,4.608a.189.189,0,0,1-.133.232.185.185,0,0,1-.05.007" transform="translate(91.044 1.366)" fill="#a14646"/><path d="M5.482,10.589a.189.189,0,0,1-.154-.3,5.571,5.571,0,0,0,.65-5.129.189.189,0,0,1,.131-.252A5.963,5.963,0,0,0,8.876,3.6,2.322,2.322,0,0,0,9.444.925,1.041,1.041,0,0,0,8.79.394a1.684,1.684,0,0,0-.807.122l-4.076,1.3a8.793,8.793,0,0,0-2.226.945A2.818,2.818,0,0,0,.376,4.6.189.189,0,1,1,0,4.548,3.194,3.194,0,0,1,1.47,2.45a9.072,9.072,0,0,1,2.321-.99L7.867.156a1.987,1.987,0,0,1,1-.133,1.416,1.416,0,0,1,.907.711,2.671,2.671,0,0,1-.63,3.139A6.013,6.013,0,0,1,6.4,5.224a5.969,5.969,0,0,1-.768,5.286.189.189,0,0,1-.154.079" transform="translate(87.192 5.355)" fill="#a14646"/><path d="M1.215,2.227a.189.189,0,0,1-.18-.129A5.543,5.543,0,0,0,.043.31.189.189,0,0,1,.335.069a5.924,5.924,0,0,1,1.06,1.909.189.189,0,0,1-.12.239.192.192,0,0,1-.06.01" transform="translate(88.531 5.413)" fill="#a14646"/><path d="M.189,2.461A.189.189,0,0,1,.1,2.1,2.333,2.333,0,0,0,1.352.179.189.189,0,0,1,1.73.2,2.717,2.717,0,0,1,.275,2.441a.188.188,0,0,1-.086.021" transform="translate(93.514 9.728)" fill="#a14646"/><path d="M1.043,10.195a2.27,2.27,0,0,1-.932-.189.189.189,0,1,1,.156-.345,2.558,2.558,0,0,0,2.972-1.08A5.523,5.523,0,0,0,3.9,5.015a14.236,14.236,0,0,0-.6-3.091A7.2,7.2,0,0,0,2.583.289a.189.189,0,0,1,.322-.2,7.565,7.565,0,0,1,.763,1.722,14.615,14.615,0,0,1,.612,3.173A5.876,5.876,0,0,1,3.555,8.79a3.052,3.052,0,0,1-2.512,1.4" transform="translate(94.329 1.547)" fill="#a14646"/><path d="M1.471,8.655A2.951,2.951,0,0,1,.1,8.327a.189.189,0,1,1,.174-.336A3.35,3.35,0,0,0,4.4,6.656a6.511,6.511,0,0,0,.715-4.7A7.1,7.1,0,0,0,4.625.267.189.189,0,1,1,4.97.112a7.371,7.371,0,0,1,.519,1.778,6.876,6.876,0,0,1-.774,4.978A4.106,4.106,0,0,1,1.471,8.655" transform="translate(96.739 2.944)" fill="#a14646"/><path d="M1.917.991A2.786,2.786,0,0,1,.064.331.189.189,0,0,1,.314.047a2.651,2.651,0,0,0,2.649.38.189.189,0,1,1,.128.356A3.484,3.484,0,0,1,1.917.991" transform="translate(99.615 10.834)" fill="#a14646"/><path d="M4.461,9.87a.189.189,0,0,1-.178-.124A7.573,7.573,0,0,1,4.5,4.094,5.542,5.542,0,0,1,1.7,4.318,2.43,2.43,0,0,1,.163,3.012a1.6,1.6,0,0,1,0-1.4A2.937,2.937,0,0,1,2.677.416L6.146.062C6.435.032,6.766,0,7.09,0a.189.189,0,0,1,0,.378H7.074a8.892,8.892,0,0,0-.889.06L2.716.792C1.82.884.855,1.073.5,1.784A1.229,1.229,0,0,0,.508,2.857a2.036,2.036,0,0,0,1.286,1.1,5.3,5.3,0,0,0,2.675-.241l.339-.088a.189.189,0,0,1,.214.272,7.177,7.177,0,0,0-.382,5.72.189.189,0,0,1-.113.243.187.187,0,0,1-.065.012" transform="translate(10.185 7.476)" fill="#a14646"/><path d="M2.183,4.157A.189.189,0,0,1,2,4.016,9.581,9.581,0,0,0,.718,1.17,6.171,6.171,0,0,0,.052.32.189.189,0,1,1,.326.059a6.541,6.541,0,0,1,.707.9A9.954,9.954,0,0,1,2.366,3.919a.189.189,0,0,1-.134.232.192.192,0,0,1-.049.006" transform="translate(10.24 4.171)" fill="#a14646"/><path d="M1.513,2.707A2.368,2.368,0,0,1,.074,2.245a.189.189,0,0,1,.23-.3,2.175,2.175,0,0,0,2.17.172,3.577,3.577,0,0,0,1.7-2A.189.189,0,1,1,4.53.259a3.95,3.95,0,0,1-1.895,2.2,2.653,2.653,0,0,1-1.122.248" transform="translate(8.711 11.56)" fill="#a14646"/><path d="M.189,10.025a.189.189,0,0,1,0-.378,3.522,3.522,0,0,0,2.82-.9,3.367,3.367,0,0,0,.164-2.875A21.2,21.2,0,0,0,1.655,1.928,3.735,3.735,0,0,0,.71.621,1.843,1.843,0,0,0,.255.365.189.189,0,1,1,.393.013,2.224,2.224,0,0,1,.942.322,4.058,4.058,0,0,1,1.993,1.757,21.577,21.577,0,0,1,3.536,5.769a3.687,3.687,0,0,1-.23,3.207A3.827,3.827,0,0,1,.191,10.025h0" transform="translate(5.724 4.733)" fill="#a14646"/><path d="M2.863,8.614a2.281,2.281,0,0,1-1-.222A3.9,3.9,0,0,1,.007,5.835a.189.189,0,1,1,.364-.1A3.655,3.655,0,0,0,2.033,8.052,1.976,1.976,0,0,0,3.589,8.1a1.365,1.365,0,0,0,.8-.776,2.451,2.451,0,0,0,.054-1.157A10.34,10.34,0,0,0,2.328,1.125,2.627,2.627,0,0,0,1.484.36.189.189,0,0,1,1.648.019a2.968,2.968,0,0,1,.978.873,10.718,10.718,0,0,1,2.2,5.227,2.779,2.779,0,0,1-.074,1.337,1.738,1.738,0,0,1-1.018,1,2.347,2.347,0,0,1-.867.163" transform="translate(1.524 6.949)" fill="#a14646"/><path d="M1.7,1.1H1.69A2.423,2.423,0,0,1,.049.316.189.189,0,0,1,.33.062a2.042,2.042,0,0,0,1.383.66A.189.189,0,0,1,1.7,1.1" transform="translate(12.64 12.153)" fill="#a14646"/><path d="M28.324.576,0,.568V0L28.324.008V.576" transform="translate(18.511 151.883)" fill="#0436ed"/><path d="M119.888.612,0,.568V0L119.888.045V.612" transform="translate(60.742 151.895)" fill="#0436ed"/><path d="M0,.568H13.906V0H0Z" transform="translate(46.835 151.895)" fill="#0436ed"/><path d="M0,0,.121.121,0,0" transform="translate(179.474 156.107)" fill="#f57d77"/><g transform="translate(87.2 105.6)"><path d="M81.475,41.289l-1.132,5.528a1.668,1.668,0,0,1-1.6,1.329L.947,48.858a.929.929,0,0,1-.9-1.2,1.717,1.717,0,0,1,1.622-1.21L29.3,46.137,38.3,3.71a3.38,3.38,0,0,1,3.23-2.677L87.521,0a1.941,1.941,0,0,1,1.945,2.334L81.475,41.289" transform="translate(0 0)" fill="#0436ed"/><path d="M.026,4.43A3.9,3.9,0,0,0,3.98,8.858a5.053,5.053,0,0,0,4.9-4.429A3.9,3.9,0,0,0,4.929,0a5.053,5.053,0,0,0-4.9,4.43" transform="translate(57.528 18.192)" fill="#fff"/></g></g></svg>