<svg width="125" height="125" viewBox="0 0 125 125" fill="none" xmlns="http://www.w3.org/2000/svg">
<path d="M62.5 54.6875C67.3828 54.6875 71.875 52.9297 75.1953 50C73.8281 44.9219 68.75 42.7734 62.5 42.7734C56.25 42.7734 51.1719 44.7266 49.8047 50C53.125 52.9297 57.6172 54.6875 62.5 54.6875Z" fill="#4A4A70"/>
<path d="M62.5 40.2344C66.7069 40.2344 70.1172 36.824 70.1172 32.6172C70.1172 28.4103 66.7069 25 62.5 25C58.2931 25 54.8828 28.4103 54.8828 32.6172C54.8828 36.824 58.2931 40.2344 62.5 40.2344Z" fill="white"/>
<path d="M62.5 34.375L32.4219 86.1328H92.5781L62.5 34.375Z" stroke="#547CEC" stroke-width="3" stroke-miterlimit="10"/>
<path d="M62.5 15.625C51.7578 15.625 42.9688 24.4141 42.9688 35.1562C42.9688 45.8984 51.7578 54.6875 62.5 54.6875C73.2422 54.6875 82.0312 45.8984 82.0312 35.1562C82.0312 24.4141 73.2422 15.625 62.5 15.625Z" fill="#DADEE7"/>
<path d="M62.5 54.6875C67.3828 54.6875 71.875 52.9297 75.1953 50C73.8281 44.9219 68.75 42.7734 62.5 42.7734C56.25 42.7734 51.1719 44.7266 49.8047 50C53.125 52.9297 57.6172 54.6875 62.5 54.6875Z" fill="#0436ED"/>
<path d="M62.5 40.2344C66.7069 40.2344 70.1172 36.824 70.1172 32.6172C70.1172 28.4103 66.7069 25 62.5 25C58.2931 25 54.8828 28.4103 54.8828 32.6172C54.8828 36.824 58.2931 40.2344 62.5 40.2344Z" fill="white"/>
<path d="M33.2031 109.375C38.0859 109.375 42.5781 107.617 45.8984 104.687C44.5312 99.6094 39.4531 97.4609 33.2031 97.4609C26.9531 97.4609 21.875 99.4141 20.5078 104.687C23.8281 107.617 28.3203 109.375 33.2031 109.375Z" fill="#4A4A70"/>
<path d="M33.2031 94.9219C37.41 94.9219 40.8203 91.5115 40.8203 87.3047C40.8203 83.0978 37.41 79.6875 33.2031 79.6875C28.9963 79.6875 25.5859 83.0978 25.5859 87.3047C25.5859 91.5115 28.9963 94.9219 33.2031 94.9219Z" fill="white"/>
<path d="M33.2031 70.3125C22.4609 70.3125 13.6719 79.1016 13.6719 89.8438C13.6719 100.586 22.4609 109.375 33.2031 109.375C43.9453 109.375 52.7344 100.586 52.7344 89.8438C52.7344 79.1016 43.9453 70.3125 33.2031 70.3125Z" fill="#DADEE7"/>
<path d="M33.2031 109.375C38.0859 109.375 42.5781 107.617 45.8984 104.687C44.5312 99.6094 39.4531 97.4609 33.2031 97.4609C26.9531 97.4609 21.875 99.4141 20.5078 104.687C23.8281 107.617 28.3203 109.375 33.2031 109.375Z" fill="#0436ED"/>
<path d="M33.2031 94.9219C37.41 94.9219 40.8203 91.5115 40.8203 87.3047C40.8203 83.0978 37.41 79.6875 33.2031 79.6875C28.9963 79.6875 25.5859 83.0978 25.5859 87.3047C25.5859 91.5115 28.9963 94.9219 33.2031 94.9219Z" fill="white"/>
<path d="M91.7969 109.375C96.6797 109.375 101.172 107.617 104.492 104.687C103.125 99.6094 98.0469 97.4609 91.7969 97.4609C85.5469 97.4609 80.4688 99.4141 79.1016 104.687C82.4219 107.617 86.9141 109.375 91.7969 109.375Z" fill="#4A4A70"/>
<path d="M91.7969 94.9219C96.0037 94.9219 99.4141 91.5115 99.4141 87.3047C99.4141 83.0978 96.0037 79.6875 91.7969 79.6875C87.59 79.6875 84.1797 83.0978 84.1797 87.3047C84.1797 91.5115 87.59 94.9219 91.7969 94.9219Z" fill="white"/>
<path d="M91.7969 70.3125C81.0547 70.3125 72.2656 79.1016 72.2656 89.8438C72.2656 100.586 81.0547 109.375 91.7969 109.375C102.539 109.375 111.328 100.586 111.328 89.8438C111.328 79.1016 102.539 70.3125 91.7969 70.3125Z" fill="#DADEE7"/>
<path d="M91.7969 109.375C96.6797 109.375 101.172 107.617 104.492 104.687C103.125 99.6094 98.0469 97.4609 91.7969 97.4609C85.5469 97.4609 80.4688 99.4141 79.1016 104.687C82.4219 107.617 86.9141 109.375 91.7969 109.375Z" fill="#0436ED"/>
<path d="M91.7969 94.9219C96.0037 94.9219 99.4141 91.5115 99.4141 87.3047C99.4141 83.0978 96.0037 79.6875 91.7969 79.6875C87.59 79.6875 84.1797 83.0978 84.1797 87.3047C84.1797 91.5115 87.59 94.9219 91.7969 94.9219Z" fill="white"/>
</svg>
