<svg width="56" height="56" viewBox="0 0 56 56" fill="none" xmlns="http://www.w3.org/2000/svg">
<path d="M35.7 10.325L40.425 12.1625L23.7125 21.0875L22.3125 32.55L13.475 29.3125L13.9125 16.8L35.7 10.325Z" fill="white"/>
<path d="M48.3 16.5375C48.3 16.1875 48.125 15.75 47.95 15.4875L29.1375 23.0125C28.4375 23.275 28 23.8875 28 24.675V47.5125C28.35 47.5125 28.6125 47.425 28.9625 47.3375L47.25 39.9875C47.95 39.725 48.3875 39.1125 48.3875 38.325L48.3 16.5375Z" fill="#547CEC"/>
<path d="M47.25 14.8749L40.425 12.1624L21.175 19.8624C20.475 20.1249 20.0375 20.7374 20.0375 21.5249V30.5374L15.225 28.5249V19.5999C15.225 18.8999 15.6625 18.1999 16.3625 17.9374L35.6125 10.2374L28.875 7.6124C28.2625 7.3499 27.5625 7.3499 26.95 7.6124L8.75005 14.8749C8.05005 15.1374 7.61255 15.7499 7.61255 16.5374V38.3249C7.61255 39.0249 8.05005 39.7249 8.75005 39.9874L27.0375 47.2499C27.3876 47.3374 27.65 47.4249 28 47.4249V24.5874C28 23.8874 28.4375 23.1874 29.1375 22.9249L47.95 15.3999C47.775 15.2249 47.5125 15.0499 47.25 14.8749Z" fill="#DADEE7"/>
<path d="M36.75 39.4626L45.5 36.0501V29.2251L36.75 32.6376V39.4626Z" fill="#0436ED"/>
</svg>
