<svg width="93" height="94" viewBox="0 0 93 94" fill="none" xmlns="http://www.w3.org/2000/svg">
<path d="M46.5 21.7988V78.4707" stroke="#DADEE7" stroke-width="2" stroke-miterlimit="10"/>
<path d="M39.2344 69.752H53.7656C54.5678 69.752 55.2188 70.403 55.2188 71.2051V81.377C55.2188 82.1791 54.5678 82.8301 53.7656 82.8301H39.2344C38.4323 82.8301 37.7812 82.1791 37.7812 81.377V71.2051C37.7812 70.403 38.4323 69.752 39.2344 69.752Z" fill="#547CEC"/>
<path d="M39.2344 53.7676H53.7656C54.5678 53.7676 55.2188 54.4186 55.2188 55.2207V65.3926C55.2188 66.1947 54.5678 66.8457 53.7656 66.8457H39.2344C38.4323 66.8457 37.7812 66.1947 37.7812 65.3926V55.2207C37.7812 54.4186 38.4323 53.7676 39.2344 53.7676Z" fill="#547CEC"/>
<path d="M39.2344 37.7832H53.7656C54.5678 37.7832 55.2188 38.4342 55.2188 39.2363V49.4082C55.2188 50.2103 54.5678 50.8613 53.7656 50.8613H39.2344C38.4323 50.8613 37.7812 50.2103 37.7812 49.4082V39.2363C37.7812 38.4342 38.4323 37.7832 39.2344 37.7832Z" fill="#547CEC"/>
<path d="M14.5312 58.127H29.0625C29.8646 58.127 30.5156 58.778 30.5156 59.5801V69.752C30.5156 70.5541 29.8646 71.2051 29.0625 71.2051H14.5312C13.7291 71.2051 13.0781 70.5541 13.0781 69.752V59.5801C13.0781 58.778 13.7291 58.127 14.5312 58.127Z" fill="#547CEC"/>
<path d="M14.5312 42.1426H29.0625C29.8646 42.1426 30.5156 42.7936 30.5156 43.5957V53.7676C30.5156 54.5697 29.8646 55.2207 29.0625 55.2207H14.5312C13.7291 55.2207 13.0781 54.5697 13.0781 53.7676V43.5957C13.0781 42.7936 13.7291 42.1426 14.5312 42.1426Z" fill="#547CEC"/>
<path d="M63.9375 58.127H78.4688C79.2709 58.127 79.9219 58.778 79.9219 59.5801V69.752C79.9219 70.5541 79.2709 71.2051 78.4688 71.2051H63.9375C63.1354 71.2051 62.4844 70.5541 62.4844 69.752V59.5801C62.4844 58.778 63.1354 58.127 63.9375 58.127Z" fill="#547CEC"/>
<path d="M63.9375 42.1426H78.4688C79.2709 42.1426 79.9219 42.7936 79.9219 43.5957V53.7676C79.9219 54.5697 79.2709 55.2207 78.4688 55.2207H63.9375C63.1354 55.2207 62.4844 54.5697 62.4844 53.7676V43.5957C62.4844 42.7936 63.1354 42.1426 63.9375 42.1426Z" fill="#547CEC"/>
<path d="M21.7969 34.4323V24.7051C21.7969 21.4951 24.3994 18.8926 27.6094 18.8926H45.0469" stroke="#DADEE7" stroke-width="2" stroke-miterlimit="10"/>
<path d="M26.1447 33.1609L21.797 40.6895L17.4492 33.1609H26.1447Z" fill="#DADEE7"/>
<path d="M71.2031 34.4323V24.7051C71.2031 21.4951 68.6006 18.8926 65.3906 18.8926H47.9531" stroke="#DADEE7" stroke-width="2" stroke-miterlimit="10"/>
<path d="M75.551 33.1609L71.2032 40.6895L66.8555 33.1609H75.551Z" fill="#DADEE7"/>
<path d="M55.7477 19.9199L47.5274 28.1403C46.9592 28.7084 46.0393 28.7084 45.4726 28.1403L37.2523 19.9199C36.6841 19.3518 36.6841 18.4319 37.2523 17.8652L45.4726 9.64488C46.0408 9.07671 46.9606 9.07671 47.5274 9.64488L55.7477 17.8652C56.3144 18.4319 56.3144 19.3532 55.7477 19.9199Z" fill="#0436ED"/>
</svg>
