<svg width="90" height="90" viewBox="0 0 90 90" fill="none" xmlns="http://www.w3.org/2000/svg">
<path d="M45 45L73.125 36.5625" stroke="#DADEE7" stroke-width="2" stroke-miterlimit="10" stroke-linecap="round" stroke-linejoin="round"/>
<path d="M45 45L53.4375 18.2812" stroke="#DADEE7" stroke-width="2" stroke-miterlimit="10" stroke-linecap="round" stroke-linejoin="round"/>
<path d="M45 45L67.5 63.2812" stroke="#DADEE7" stroke-width="2" stroke-miterlimit="10" stroke-linecap="round" stroke-linejoin="round"/>
<path d="M45 45L22.5 66.0938" stroke="#DADEE7" stroke-width="2" stroke-miterlimit="10" stroke-linecap="round" stroke-linejoin="round"/>
<path d="M45 45L16.875 36.5625" stroke="#DADEE7" stroke-width="2" stroke-miterlimit="10" stroke-linecap="round" stroke-linejoin="round"/>
<path d="M22.5 66.0938L42.1875 75.9375" stroke="#DADEE7" stroke-width="2" stroke-miterlimit="10" stroke-linecap="round" stroke-linejoin="round"/>
<path d="M30.9375 14.0625L53.4375 18.2812" stroke="#DADEE7" stroke-width="2" stroke-miterlimit="10" stroke-linecap="round" stroke-linejoin="round"/>
<path d="M45 56.25C51.2132 56.25 56.25 51.2132 56.25 45C56.25 38.7868 51.2132 33.75 45 33.75C38.7868 33.75 33.75 38.7868 33.75 45C33.75 51.2132 38.7868 56.25 45 56.25Z" fill="#547CEC"/>
<path d="M53.4375 26.7188C58.0974 26.7188 61.875 22.9412 61.875 18.2812C61.875 13.6213 58.0974 9.84375 53.4375 9.84375C48.7776 9.84375 45 13.6213 45 18.2812C45 22.9412 48.7776 26.7188 53.4375 26.7188Z" fill="#DADEE7"/>
<path d="M22.5 74.5312C27.1599 74.5312 30.9375 70.7537 30.9375 66.0938C30.9375 61.4338 27.1599 57.6562 22.5 57.6562C17.8401 57.6562 14.0625 61.4338 14.0625 66.0938C14.0625 70.7537 17.8401 74.5312 22.5 74.5312Z" fill="#DADEE7"/>
<path d="M67.5 71.7188C72.1599 71.7188 75.9375 67.9412 75.9375 63.2812C75.9375 58.6213 72.1599 54.8438 67.5 54.8438C62.8401 54.8438 59.0625 58.6213 59.0625 63.2812C59.0625 67.9412 62.8401 71.7188 67.5 71.7188Z" fill="#DADEE7"/>
<path d="M16.875 42.1875C19.9816 42.1875 22.5 39.6691 22.5 36.5625C22.5 33.4559 19.9816 30.9375 16.875 30.9375C13.7684 30.9375 11.25 33.4559 11.25 36.5625C11.25 39.6691 13.7684 42.1875 16.875 42.1875Z" fill="#0436ED"/>
<path d="M73.125 42.1875C76.2316 42.1875 78.75 39.6691 78.75 36.5625C78.75 33.4559 76.2316 30.9375 73.125 30.9375C70.0184 30.9375 67.5 33.4559 67.5 36.5625C67.5 39.6691 70.0184 42.1875 73.125 42.1875Z" fill="#0436ED"/>
<path d="M42.1875 81.5625C45.2941 81.5625 47.8125 79.0441 47.8125 75.9375C47.8125 72.8309 45.2941 70.3125 42.1875 70.3125C39.0809 70.3125 36.5625 72.8309 36.5625 75.9375C36.5625 79.0441 39.0809 81.5625 42.1875 81.5625Z" fill="#0436ED"/>
<path d="M30.9375 19.6875C34.0441 19.6875 36.5625 17.1691 36.5625 14.0625C36.5625 10.9559 34.0441 8.4375 30.9375 8.4375C27.8309 8.4375 25.3125 10.9559 25.3125 14.0625C25.3125 17.1691 27.8309 19.6875 30.9375 19.6875Z" fill="#0436ED"/>
</svg>
