<svg width="56" height="56" viewBox="0 0 56 56" fill="none" xmlns="http://www.w3.org/2000/svg">
<path d="M20.9126 49.0001L28.9626 44.7126L37.0126 49.0001H40.0751L30.9751 23.5376L28.9626 24.2376L26.9501 23.5376L17.8501 49.0001H20.9126ZM36.4876 46.7251L30.8876 43.7501L34.7376 41.7376L36.4876 46.7251ZM32.9876 36.9251L30.3626 34.6501L31.7626 33.4251L32.9876 36.9251ZM28.9626 25.7251L31.0626 31.6751L28.9626 33.5126L26.8626 31.6751L28.9626 25.7251ZM26.2501 33.4251L27.6501 34.6501L25.0251 36.9251L26.2501 33.4251ZM28.9626 35.7876L33.9501 40.0751L28.9626 42.7001L23.9751 40.0751L28.9626 35.7876ZM27.1251 43.7501L21.5251 46.7251L23.3626 41.7376L27.1251 43.7501Z" fill="#DADEE7"/>
<path d="M22.6626 7.61248L28.8751 15.05C29.7501 16.1 29.6626 17.7625 28.5251 18.6375C27.4751 19.5125 25.8126 19.425 24.9376 18.2875C24.7626 18.1125 24.6751 17.85 24.5876 17.675L20.7376 8.74998C20.4751 8.13748 20.7376 7.52498 21.3501 7.26248C21.7876 7.08748 22.3126 7.17498 22.6626 7.61248Z" fill="#0436ED"/>
<path d="M35.1751 6.73755C38.6751 12.5125 36.9251 20.0375 31.1501 23.5375C25.3751 27.0375 17.8501 25.2875 14.3501 19.5125L35.1751 6.73755Z" fill="#547CEC"/>
</svg>
