<svg width="125" height="126" viewBox="0 0 125 126" fill="none" xmlns="http://www.w3.org/2000/svg">
<path d="M62.6953 39.0645C49.8047 39.0645 39.2578 49.6113 39.2578 62.502C39.2578 75.3926 49.8047 85.9395 62.6953 85.9395C75.5859 85.9395 86.1328 75.3926 86.1328 62.502C86.1328 49.6113 75.5859 39.0645 62.6953 39.0645Z" fill="#547CEC"/>
<path d="M64.4531 74.416V78.3223H60.7422V74.416C58.2031 74.0254 55.6641 72.8535 53.7109 70.9004L56.6406 67.3848C58.5937 69.3379 60.9375 70.1191 62.8906 70.1191C64.6484 70.1191 65.8203 69.3379 65.8203 67.9707C65.8203 66.4082 64.6484 65.8223 61.7187 64.8457C57.8125 63.6738 54.2969 62.3066 54.2969 57.8145C54.2969 54.2988 56.6406 51.5645 60.7422 50.9785V46.877H64.4531V51.1738C66.6016 51.5645 68.9453 52.7363 70.5078 53.9082L67.7734 57.4238C65.8203 56.0566 63.8672 55.4707 62.3047 55.4707C60.5469 55.4707 59.5703 56.252 59.5703 57.4238C59.5703 58.791 60.7422 59.377 63.2813 60.1582C67.9688 61.5254 71.0938 62.8926 71.0938 67.3848C71.0938 71.291 68.5547 73.8301 64.4531 74.416Z" fill="white"/>
<path d="M35.1562 62.502H19.5312" stroke="#DADEE7" stroke-width="2" stroke-miterlimit="10"/>
<path d="M17.5781 68.3613C20.8142 68.3613 23.4375 65.738 23.4375 62.502C23.4375 59.2659 20.8142 56.6426 17.5781 56.6426C14.3421 56.6426 11.7188 59.2659 11.7188 62.502C11.7188 65.738 14.3421 68.3613 17.5781 68.3613Z" fill="#0436ED"/>
<path d="M89.8438 62.502H105.469" stroke="#DADEE7" stroke-width="2" stroke-miterlimit="10"/>
<path d="M107.422 68.3613C110.658 68.3613 113.281 65.738 113.281 62.502C113.281 59.2659 110.658 56.6426 107.422 56.6426C104.186 56.6426 101.562 59.2659 101.562 62.502C101.562 65.738 104.186 68.3613 107.422 68.3613Z" fill="#0436ED"/>
<path d="M43.1641 81.8379L32.0312 92.9707" stroke="#DADEE7" stroke-width="2" stroke-miterlimit="10"/>
<path d="M29.2969 105.471C34.6903 105.471 39.0625 101.098 39.0625 95.7051C39.0625 90.3117 34.6903 85.9395 29.2969 85.9395C23.9035 85.9395 19.5312 90.3117 19.5312 95.7051C19.5312 101.098 23.9035 105.471 29.2969 105.471Z" fill="#DADEE7"/>
<path d="M95.7031 39.0645C101.097 39.0645 105.469 34.6922 105.469 29.2988C105.469 23.9054 101.097 19.5332 95.7031 19.5332C90.3097 19.5332 85.9375 23.9054 85.9375 29.2988C85.9375 34.6922 90.3097 39.0645 95.7031 39.0645Z" fill="#DADEE7"/>
<path d="M81.8359 43.166L92.9687 32.0332" stroke="#DADEE7" stroke-width="2" stroke-miterlimit="10"/>
<path d="M43.1641 43.166L32.0312 32.0332" stroke="#DADEE7" stroke-width="2" stroke-miterlimit="10"/>
<path d="M29.2969 39.0645C34.6903 39.0645 39.0625 34.6922 39.0625 29.2988C39.0625 23.9054 34.6903 19.5332 29.2969 19.5332C23.9035 19.5332 19.5312 23.9054 19.5312 29.2988C19.5312 34.6922 23.9035 39.0645 29.2969 39.0645Z" fill="#DADEE7"/>
<path d="M95.7031 105.471C101.097 105.471 105.469 101.098 105.469 95.7051C105.469 90.3117 101.097 85.9395 95.7031 85.9395C90.3097 85.9395 85.9375 90.3117 85.9375 95.7051C85.9375 101.098 90.3097 105.471 95.7031 105.471Z" fill="#DADEE7"/>
<path d="M81.8359 81.8379L92.9687 92.9707" stroke="#DADEE7" stroke-width="2" stroke-miterlimit="10"/>
<path d="M62.5 35.1582V19.5332" stroke="#DADEE7" stroke-width="2" stroke-miterlimit="10"/>
<path d="M62.5 23.4395C65.736 23.4395 68.3594 20.8161 68.3594 17.5801C68.3594 14.344 65.736 11.7207 62.5 11.7207C59.264 11.7207 56.6406 14.344 56.6406 17.5801C56.6406 20.8161 59.264 23.4395 62.5 23.4395Z" fill="#0436ED"/>
<path d="M62.5 89.8457V105.471" stroke="#DADEE7" stroke-width="2" stroke-miterlimit="10"/>
<path d="M62.5 113.283C65.736 113.283 68.3594 110.66 68.3594 107.424C68.3594 104.188 65.736 101.564 62.5 101.564C59.264 101.564 56.6406 104.188 56.6406 107.424C56.6406 110.66 59.264 113.283 62.5 113.283Z" fill="#0436ED"/>
</svg>
