<svg xmlns="http://www.w3.org/2000/svg" width="20" height="20" viewBox="0 0 20 20"><path d="M0,0H20V20H0Z" fill="none"/><g transform="translate(6 2)"><path d="M1.707,9.853.926,9.073a3.171,3.171,0,0,1,0-4.479L3.519,2,2.373.853A.5.5,0,0,1,2.727,0H7.06a.5.5,0,0,1,.5.5V4.833a.5.5,0,0,1-.853.353L5.56,4.041,2.413,7.187a1.386,1.386,0,0,0,0,1.959.5.5,0,1,1-.707.707Z" transform="translate(0.44)" fill="#0436ed"/><path d="M4.833,10H.5A.5.5,0,0,1,0,9.5V5.167a.5.5,0,0,1,.853-.353L2,5.96,5.147,2.813a1.386,1.386,0,0,0,0-1.959A.5.5,0,0,1,5.854.147l.781.781a3.171,3.171,0,0,1,0,4.479L4.041,8,5.187,9.147A.5.5,0,0,1,4.833,10Z" transform="translate(0 5.999)" fill="#0436ed"/></g></svg>