<svg xmlns="http://www.w3.org/2000/svg" xmlns:xlink="http://www.w3.org/1999/xlink" width="32" height="32" viewBox="0 0 32 32"><defs><clipPath id="a"><circle cx="16" cy="16" r="16" fill="#fff" stroke="#f3ae3d" stroke-miterlimit="10" stroke-width="0.533"/></clipPath><clipPath id="b"><circle cx="16" cy="16" r="16" fill="none" stroke="#fe438a" stroke-miterlimit="10" stroke-width="0.533"/></clipPath></defs><g fill="#fff" stroke="#f3ae3d" stroke-miterlimit="10" stroke-width="0.533"><circle cx="16" cy="16" r="16" stroke="none"/><circle cx="16" cy="16" r="15.733" fill="none"/></g><g clip-path="url(#a)"><g transform="translate(3.52 3.52)"><path d="M24.541,4.182a15.172,15.172,0,0,1-12.27,6.285A15.141,15.141,0,0,1,0,4.182,15.53,15.53,0,0,1,7.525,0a9.267,9.267,0,0,0,.719,4.061c.911-2.127,4-2.321,4-2.321s3.092.169,4.026,2.321A9.364,9.364,0,0,0,16.992,0,15.493,15.493,0,0,1,24.541,4.182Z" transform="translate(0.208 18.882)" fill="#0436ed"/><path d="M7.573,1.837h0c0,.314-.192,1.982-3.691,3.336H3.691C.192,3.819,0,2.151,0,1.837H0A4.9,4.9,0,0,1,.431,0,4.627,4.627,0,0,0,3.787,1.813,4.586,4.586,0,0,0,7.142,0,4.484,4.484,0,0,1,7.573,1.837Z" transform="translate(8.692 15.425)" fill="#ffb1b1"/><path d="M8.789,5.729c-.9-2.072-3.8-2.305-4.013-2.319-.2.015-3.135.267-4.015,2.319C.713,5.8-1.06,1.136.977,0c0,0-.167,1.93,3.8,3.4C8.717,1.93,8.55,0,8.55,0c2.04,1.124.3,5.73.241,5.73Z" transform="translate(7.715 17.214)" fill="#fff"/><path d="M7.094.483A4.892,4.892,0,0,1,3.547,2.272,4.892,4.892,0,0,1,0,.483,2.9,2.9,0,0,1,.192,0,4.627,4.627,0,0,0,3.547,1.813,4.546,4.546,0,0,0,6.9,0,2.9,2.9,0,0,1,7.094.483Z" transform="translate(8.931 15.425)" fill="#eee"/><path d="M13.55,7.3A2.138,2.138,0,0,1,11.7,8.557c-1.15,2.151-2.828,3.747-4.7,3.747s-3.547-1.62-4.7-3.747A2.186,2.186,0,0,1,.465,7.3c-.6-.991-.623-2.079-.048-2.441a.744.744,0,0,1,.455-.1,5.841,5.841,0,0,0,.911,1.6C1.232,3.287,3.484,2.949,3.1,0c0,0,1.414,3.167,5.464.943l-.312.6C13.91.266,12.016,6.986,11.968,7.155a7.641,7.641,0,0,0,1.294-2.393.584.584,0,0,1,.288.1C14.173,5.2,14.149,6.309,13.55,7.3Z" transform="translate(5.471 4.91)" fill="#ffb1b1"/><path d="M10.238,1.471a2.783,2.783,0,0,1,1.2.363C9.4-.511,6.067.987,6.067.987A3.107,3.107,0,0,1,8.2.117C3.431-.608,2.616,2.269,2.616,2.269A1.806,1.806,0,0,1,2.425,1.2a2.832,2.832,0,0,0,.024,1.74c-.336-.846-1.51-.7-1.51-.7,1.007.169,1.174.8,1.174.8A3.3,3.3,0,0,0,.028,6.62l.6-.725a6.083,6.083,0,0,0,1.15,5.1c-.551-3.07,1.7-3.408,1.318-6.357,0,0,1.414,3.167,5.464.943l-.312.6c5.728-1.305,3.715,5.632,3.715,5.632a7.85,7.85,0,0,0,1.726-5.294l.24.967C14.575,3.139,10.238,1.471,10.238,1.471Z" transform="translate(5.5 0.249)" fill="#17171f"/></g></g><g fill="none" stroke="#fe438a" stroke-miterlimit="10" stroke-width="0.533"><circle cx="16" cy="16" r="16" stroke="none"/><circle cx="16" cy="16" r="15.733" fill="none"/></g></svg>