<svg width="512" height="512" xmlns="http://www.w3.org/2000/svg">

 <g>
  <title>background</title>
  <rect fill="none" id="canvas_background" height="402" width="582" y="-1" x="-1"/>
 </g>
 <g>
  <title>Layer 1</title>
  <rect id="svg_1" y="247" x="237.094" width="39.5" height="37.5" fill="#547cec"/>
  <rect id="svg_2" y="13.25" x="12.094" width="39.5" height="37.5" fill="#dadee7"/>
  <rect id="svg_3" y="10.594" x="461.094" width="39.5" height="37.5" fill="#dadee7"/>
  <path id="svg_4" fill="#dadee7" d="m49.594,268.25c0,10.359 -8.391,18.75 -18.75,18.75s-18.75,-8.391 -18.75,-18.75s8.391,-18.75 18.75,-18.75s18.75,8.391 18.75,18.75z"/>
  <path id="svg_5" fill="#dadee7" d="m499.594,265.75c0,10.359 -8.391,18.75 -18.75,18.75s-18.75,-8.391 -18.75,-18.75s8.391,-18.75 18.75,-18.75s18.75,8.391 18.75,18.75z"/>
  <polygon id="svg_6" points="256,313 179.594,389 215.594,495 295.297,495 334.594,386  " fill="#dadee7"/>
  <path fill="#0436ed" id="svg_8" d="m206.219,490.656l-3.547,0l0,0c-5.891,0 -10.672,4.781 -10.672,10.688c0,5.875 4.781,10.656 10.672,10.656l0.016,0l106.625,0l0.016,0c5.891,0 10.672,-4.781 10.672,-10.656c0,-5.906 -4.781,-10.688 -10.672,-10.688l0,0l-3.188,0l35.187,-106.656l-85.328,-85.344l-85.328,85.344l35.547,106.656zm49.781,-161.812l60.953,60.953l-33.266,100.859l-17.016,0l0,-74.656l0,0c0,-5.891 -4.781,-10.656 -10.672,-10.656s-10.672,4.766 -10.672,10.656l0,0l0,74.656l-16.609,0l-33.64,-100.906l60.922,-60.906z"/>
  <path fill="#0436ed" id="svg_9" d="m488.5,64l23.5,0l0,-64l-64,0l0,64l18.953,0c-2.625,17.531 -7.422,34.594 -14.375,51.031c-10.75,25.406 -26.125,48.219 -45.734,67.812c-19.594,19.594 -42.406,35 -67.812,45.734c-16.422,6.953 -33.5,11.766 -51.031,14.391l0,-8.312l-64,0l0,8.312c-17.531,-2.625 -34.609,-7.438 -51.031,-14.391c-25.406,-10.734 -48.219,-26.141 -67.812,-45.734c-19.609,-19.594 -34.984,-42.406 -45.734,-67.812c-6.955,-16.437 -11.752,-33.5 -14.377,-51.031l18.953,0l0,-64l-64,0l0,64l23.5,0c12.391,90.922 76.875,165.266 162.391,192l-123.719,0c-4.391,-12.438 -16.234,-21.344 -30.172,-21.344c-17.672,0 -32,14.344 -32,32c0,17.688 14.328,32 32,32c13.938,0 25.781,-8.906 30.172,-21.312l161.828,0l0,21.312l32,0l32,0l0,-21.312l161.828,0c4.391,12.406 16.234,21.312 30.172,21.312c17.672,0 32,-14.312 32,-32c0,-17.656 -14.328,-32 -32,-32c-13.938,0 -25.781,8.906 -30.172,21.344l-123.719,0c85.516,-26.734 149.985,-101.078 162.391,-192zm2.172,-21.344l-21.344,0l0,-21.312l21.344,0l0,21.312zm-469.344,-21.312l21.344,0l0,21.312l-21.344,0l0,-21.312zm10.672,256c-5.875,0 -10.672,-4.797 -10.672,-10.688c0,-5.875 4.797,-10.656 10.672,-10.656s10.672,4.781 10.672,10.656c0,5.891 -4.797,10.688 -10.672,10.688zm234.672,0l-21.344,0l0,-21.344l21.344,0l0,21.344zm213.328,-21.344c5.875,0 10.672,4.781 10.672,10.656c0,5.891 -4.797,10.688 -10.672,10.688s-10.672,-4.797 -10.672,-10.688c0,-5.875 4.797,-10.656 10.672,-10.656z"/>
 </g>
</svg>