<svg width="32" height="32" xmlns="http://www.w3.org/2000/svg">

 <g>
  <title>background</title>
  <rect fill="none" id="canvas_background" height="402" width="582" y="-1" x="-1"/>
 </g>
 <g>
  <title>Layer 1</title>
  <circle id="svg_1" r="0.5" fill="#547cec" cy="20" cx="1.5"/>
  <circle id="svg_2" r="0.5" fill="#0436ed" cy="1.5" cx="22.5"/>
  <path id="svg_4" fill="#dadee7" d="m14.5,28.5c-4.915,0 -9.524,-2.413 -12.33,-6.454c-0.158,-0.227 -0.102,-0.539 0.125,-0.696c0.227,-0.158 0.539,-0.102 0.696,0.125c2.619,3.773 6.922,6.025 11.509,6.025c0.339,0 0.674,-0.012 1.007,-0.036c0.268,-0.029 0.514,0.188 0.534,0.463s-0.188,0.514 -0.463,0.534c-0.356,0.026 -0.716,0.039 -1.078,0.039z"/>
  <path id="svg_5" fill="#dadee7" d="m28.88,15.876c-0.021,0 -0.042,-0.001 -0.064,-0.004c-0.274,-0.036 -0.467,-0.286 -0.432,-0.56c0.077,-0.598 0.116,-1.208 0.116,-1.812c0,-3.859 -1.536,-7.453 -4.325,-10.12c-0.199,-0.191 -0.207,-0.507 -0.016,-0.707c0.19,-0.2 0.506,-0.207 0.707,-0.016c2.988,2.858 4.634,6.709 4.634,10.843c0,0.647 -0.042,1.3 -0.124,1.94c-0.033,0.252 -0.248,0.436 -0.496,0.436z"/>
  <path id="svg_6" fill="#0436ed" d="m5.761,22.205c-0.216,0 -0.416,-0.141 -0.48,-0.359c-0.078,-0.265 0.074,-0.543 0.339,-0.621c3.217,-0.944 6.597,-1.357 9.895,-1.262c0.276,0.008 0.493,0.239 0.485,0.515c-0.008,0.277 -0.248,0.488 -0.515,0.485c-3.204,-0.095 -6.469,0.307 -9.584,1.222c-0.047,0.014 -0.094,0.02 -0.14,0.02z"/>
  <path id="svg_7" fill="#0436ed" d="m14.5,7.053c-2.075,0 -4.159,-0.207 -6.194,-0.615c-0.271,-0.054 -0.446,-0.317 -0.392,-0.588c0.054,-0.271 0.316,-0.448 0.588,-0.392c4.822,0.966 9.864,0.746 14.596,-0.643c0.271,-0.076 0.543,0.075 0.621,0.339c0.078,0.265 -0.074,0.543 -0.339,0.621c-2.889,0.848 -5.877,1.278 -8.88,1.278z"/>
  <path id="svg_8" fill="#dadee7" d="m13.924,25.972c-0.097,0 -0.195,-0.028 -0.281,-0.087c-4.126,-2.818 -6.59,-7.447 -6.59,-12.385c0,-3.562 1.284,-7.015 3.614,-9.725c0.18,-0.21 0.496,-0.233 0.705,-0.053c0.209,0.18 0.233,0.496 0.053,0.705c-2.174,2.528 -3.372,5.75 -3.372,9.072c0,4.607 2.3,8.928 6.153,11.559c0.228,0.156 0.287,0.467 0.131,0.695c-0.097,0.143 -0.254,0.219 -0.413,0.219z"/>
  <path id="svg_10" fill="#dadee7" d="m14.5,25.368c-0.276,0 -0.5,-0.224 -0.5,-0.5l0,-22.736c0,-0.276 0.224,-0.5 0.5,-0.5s0.5,0.224 0.5,0.5l0,22.736c0,0.277 -0.224,0.5 -0.5,0.5z"/>
  <path id="svg_12" fill="#547cec" d="m24.368,14l-20.022,0c-0.276,0 -0.5,-0.224 -0.5,-0.5s0.224,-0.5 0.5,-0.5l20.022,0c0.276,0 0.5,0.224 0.5,0.5s-0.223,0.5 -0.5,0.5z"/>
  <path id="svg_13" fill="#0436ed" d="m14.5,26c-6.893,0 -12.5,-5.607 -12.5,-12.5c0,-3.513 1.491,-6.885 4.091,-9.25c0.204,-0.186 0.521,-0.17 0.706,0.034c0.186,0.204 0.171,0.52 -0.033,0.706c-2.392,2.176 -3.764,5.278 -3.764,8.51c0,6.341 5.159,11.5 11.5,11.5c0.322,0 0.641,-0.013 0.957,-0.039c0.272,-0.021 0.516,0.183 0.539,0.458c0.022,0.275 -0.183,0.517 -0.458,0.539c-0.342,0.028 -0.688,0.042 -1.038,0.042z"/>
  <path id="svg_14" fill="#547cec" d="m21.37,15.5c-0.017,0 -0.035,-0.001 -0.052,-0.003c-0.274,-0.028 -0.474,-0.274 -0.445,-0.549c0.049,-0.478 0.075,-0.965 0.075,-1.448c0,-4.606 -2.3,-8.928 -6.153,-11.559c-0.229,-0.156 -0.287,-0.467 -0.131,-0.695c0.156,-0.228 0.467,-0.286 0.695,-0.131c4.126,2.818 6.589,7.447 6.589,12.385c0,0.518 -0.027,1.04 -0.081,1.552c-0.027,0.257 -0.244,0.448 -0.497,0.448z"/>
  <path id="svg_15" fill="#547cec" d="m26.416,15.437c-0.02,0 -0.04,-0.001 -0.06,-0.003c-0.274,-0.033 -0.47,-0.282 -0.438,-0.556c0.055,-0.454 0.082,-0.917 0.082,-1.378c0,-6.341 -5.159,-11.5 -11.5,-11.5c-2.014,0 -3.997,0.528 -5.732,1.528c-0.239,0.139 -0.545,0.056 -0.683,-0.184c-0.138,-0.239 -0.055,-0.545 0.184,-0.682c1.887,-1.087 4.042,-1.662 6.231,-1.662c6.893,0 12.5,5.607 12.5,12.5c0,0.5 -0.03,1.003 -0.088,1.496c-0.031,0.254 -0.246,0.441 -0.496,0.441z"/>
  <path id="svg_17" fill="#547cec" d="m24.399,30.952831l-1.799,0c-0.235,0 -0.438,-0.164 -0.488,-0.393l-0.296,-1.353c-0.415,-0.121 -0.814,-0.287 -1.194,-0.496l-1.166,0.747c-0.196,0.128 -0.456,0.1 -0.623,-0.067l-1.271,-1.271c-0.166,-0.166 -0.194,-0.425 -0.067,-0.623l0.747,-1.166c-0.209,-0.379 -0.375,-0.779 -0.496,-1.194l-1.352,-0.296c-0.229,-0.05 -0.393,-0.253 -0.393,-0.488l0,-1.8c0,-0.235 0.164,-0.438 0.393,-0.488l1.351,-0.296c0.122,-0.416 0.288,-0.815 0.497,-1.194l-0.747,-1.166c-0.127,-0.198 -0.099,-0.457 0.067,-0.623l1.271,-1.271c0.166,-0.167 0.426,-0.195 0.623,-0.067l1.167,0.747c0.381,-0.209 0.78,-0.375 1.194,-0.496l0.296,-1.352c0.05,-0.23 0.253,-0.394 0.488,-0.394l1.799,0c0.235,0 0.438,0.164 0.488,0.393l0.296,1.352c0.414,0.121 0.814,0.287 1.194,0.496l1.167,-0.747c0.197,-0.126 0.457,-0.099 0.623,0.067l1.271,1.271c0.166,0.166 0.194,0.425 0.067,0.623l-0.747,1.167c0.209,0.381 0.375,0.781 0.496,1.193l1.352,0.296c0.229,0.05 0.393,0.253 0.393,0.488l0,1.799c0,0.235 -0.164,0.438 -0.393,0.488l-1.352,0.296c-0.121,0.413 -0.287,0.812 -0.496,1.193l0.747,1.167c0.127,0.198 0.099,0.457 -0.067,0.623l-1.271,1.272c-0.167,0.166 -0.426,0.193 -0.624,0.067l-1.166,-0.748c-0.379,0.208 -0.778,0.374 -1.194,0.495l-0.296,1.353c-0.051,0.232 -0.254,0.396 -0.489,0.396zm-1.396,-1l0.994,0l0.275,-1.258c0.041,-0.188 0.187,-0.336 0.375,-0.38c0.524,-0.123 1.021,-0.329 1.479,-0.614c0.164,-0.102 0.371,-0.1 0.534,0.004l1.085,0.696l0.702,-0.703l-0.695,-1.085c-0.104,-0.162 -0.105,-0.369 -0.004,-0.532c0.286,-0.463 0.493,-0.961 0.614,-1.48c0.044,-0.188 0.191,-0.333 0.38,-0.375l1.257,-0.275l0,-0.994l-1.257,-0.275c-0.188,-0.041 -0.336,-0.187 -0.38,-0.375c-0.121,-0.519 -0.328,-1.017 -0.614,-1.48c-0.101,-0.164 -0.1,-0.371 0.004,-0.532l0.695,-1.085l-0.702,-0.702l-1.085,0.695c-0.162,0.104 -0.37,0.105 -0.533,0.004c-0.46,-0.285 -0.958,-0.492 -1.479,-0.614c-0.188,-0.044 -0.333,-0.192 -0.375,-0.38l-0.276,-1.26l-0.994,0l-0.275,1.257c-0.041,0.188 -0.187,0.336 -0.375,0.38c-0.521,0.122 -1.018,0.328 -1.479,0.614c-0.165,0.102 -0.372,0.1 -0.533,-0.004l-1.085,-0.695l-0.702,0.702l0.695,1.085c0.104,0.162 0.105,0.37 0.004,0.534c-0.284,0.457 -0.491,0.955 -0.616,1.48c-0.044,0.187 -0.191,0.332 -0.379,0.373l-1.255,0.275l0,0.994l1.257,0.275c0.188,0.041 0.336,0.187 0.38,0.375c0.123,0.523 0.329,1.021 0.614,1.479c0.102,0.164 0.1,0.372 -0.004,0.534l-0.695,1.085l0.702,0.702l1.085,-0.695c0.163,-0.104 0.37,-0.105 0.534,-0.004c0.458,0.285 0.956,0.492 1.479,0.614c0.188,0.044 0.333,0.191 0.375,0.38l0.273,1.26zm0.496,-3c-1.93,0 -3.5,-1.57 -3.5,-3.5s1.57,-3.5 3.5,-3.5s3.5,1.57 3.5,3.5c0,0.276 -0.224,0.5 -0.5,0.5s-0.5,-0.224 -0.5,-0.5c0,-1.378 -1.122,-2.5 -2.5,-2.5s-2.5,1.122 -2.5,2.5s1.122,2.5 2.5,2.5c0.167,0 0.33,-0.016 0.487,-0.047c0.277,-0.051 0.534,0.124 0.587,0.394c0.053,0.271 -0.123,0.534 -0.394,0.587c-0.219,0.044 -0.447,0.066 -0.68,0.066z"/>
  <circle id="svg_18" r="0.5" fill="#0436ed" cy="25.573" cx="26.001"/>
 </g>
</svg>