<svg width="128" height="128" xmlns="http://www.w3.org/2000/svg">

 <g>
  <title>background</title>
  <rect fill="none" id="canvas_background" height="402" width="582" y="-1" x="-1"/>
 </g>
 <g>
  <title>Layer 1</title>
  <path fill="#dadee7" id="svg_2" d="m37.223,81.934c-1.163,3.105 -0.554,6.778 1.834,9.284c1.388,1.456 3.181,2.339 5.119,2.537c0.703,3.199 3.468,5.597 6.769,5.597c0.723,0 1.539,-0.043 2.349,-0.229c0.994,1.519 2.674,2.304 4.326,2.304c0.076,0 0.152,-0.002 0.228,-0.005c2.576,-0.111 5.185,-2.032 5.185,-5.491l0,-9.698c0,-5.035 -3.946,-9.131 -8.797,-9.131c-1.104,0 -2,0.896 -2,2s0.896,2 2,2c2.645,0 4.797,2.302 4.797,5.131l0,9.698c0,1.367 -1.129,1.484 -1.355,1.494c-0.518,0.023 -1.153,-0.164 -1.26,-1.151l0,-0.913c0,-1.104 -0.896,-2 -2,-2c-1.059,0 -1.925,0.822 -1.995,1.862c-0.536,0.127 -1.198,0.127 -1.477,0.127c-1.3,0 -2.393,-0.922 -2.783,-2.189c1.041,-0.437 1.997,-1.091 2.811,-1.945c0.763,-0.799 0.732,-2.065 -0.067,-2.828c-0.797,-0.761 -2.064,-0.732 -2.827,0.068c-0.824,0.864 -1.912,1.34 -3.063,1.34s-2.239,-0.476 -3.063,-1.34c-1.762,-1.849 -1.762,-4.856 0,-6.705c0.762,-0.8 0.731,-2.066 -0.068,-2.828c-0.661,-0.631 -1.639,-0.709 -2.39,-0.268c-1.431,-1.017 -2.342,-2.74 -2.342,-4.629c0,-1.858 0.881,-3.556 2.271,-4.58l0.622,0.653c0.393,0.412 0.92,0.62 1.448,0.62c0.496,0 0.992,-0.183 1.379,-0.552c0.799,-0.762 0.83,-2.028 0.068,-2.828l-0.989,-1.038c-1.762,-1.849 -1.762,-4.856 0,-6.705c0.824,-0.864 1.911,-1.34 3.063,-1.34s2.239,0.476 3.063,1.34c0.762,0.8 2.027,0.829 2.827,0.068c0.8,-0.762 0.83,-2.028 0.067,-2.828c-0.815,-0.855 -1.771,-1.509 -2.813,-1.946c0.417,-1.273 1.631,-2.186 3.036,-2.186c0.02,0 0.039,0 0.059,0c0.222,0.004 0.729,0.013 1.168,0.107c0.079,1.033 0.941,1.846 1.994,1.846c1.104,0 2,-0.896 2,-2l0,-0.913c0.107,-0.988 0.742,-1.183 1.26,-1.151c0.227,0.01 1.355,0.127 1.355,1.494l0,8.456c0,2.829 -2.152,5.131 -4.797,5.131c-1.104,0 -2,0.896 -2,2s0.896,2 2,2c1.77,0 3.416,-0.55 4.797,-1.487l0,6.842c0,1.104 0.896,2 2,2s2,-0.896 2,-2l0,-14.483l0,-8.456c0,-3.458 -2.608,-5.38 -5.185,-5.491c-1.703,-0.068 -3.51,0.72 -4.556,2.318c-0.682,-0.149 -1.359,-0.198 -1.964,-0.209c-0.044,-0.001 -0.087,-0.001 -0.13,-0.001c-3.388,0 -6.295,2.377 -7.018,5.595c-1.939,0.198 -3.733,1.081 -5.122,2.538c-2.388,2.506 -2.997,6.179 -1.834,9.284c-2.488,1.755 -4.07,4.696 -4.07,7.905c0.001,3.208 1.583,6.149 4.07,7.905z" class="st0"/>
  <path fill="#547cec" id="svg_3" d="m90.776,66.124c1.164,-3.105 0.555,-6.778 -1.834,-9.283c-1.388,-1.457 -3.183,-2.341 -5.122,-2.538c-0.728,-3.257 -3.684,-5.644 -7.148,-5.593c-0.605,0.011 -1.282,0.06 -1.962,0.208c-1.044,-1.599 -2.848,-2.388 -4.558,-2.317c-2.576,0.111 -5.185,2.032 -5.185,5.491l0,8.456c0,5.035 3.946,9.131 8.796,9.131c1.104,0 2,-0.896 2,-2s-0.896,-2 -2,-2c-2.645,0 -4.796,-2.302 -4.796,-5.131l0,-8.458c0,-1.367 1.129,-1.484 1.355,-1.494c0.513,-0.033 1.153,0.163 1.26,1.151l0,0.913c0,1.104 0.896,2 2,2c1.053,0 1.915,-0.813 1.994,-1.846c0.438,-0.094 0.946,-0.103 1.168,-0.107c0.019,0 0.038,0 0.058,0c1.406,0 2.621,0.914 3.036,2.187c-1.042,0.437 -1.998,1.091 -2.813,1.946c-0.763,0.8 -0.732,2.065 0.067,2.828c0.801,0.762 2.065,0.732 2.827,-0.068c0.824,-0.864 1.912,-1.34 3.063,-1.34s2.238,0.476 3.063,1.34c1.762,1.848 1.762,4.856 -0.001,6.705l-0.989,1.038c-0.762,0.8 -0.731,2.066 0.068,2.828c0.388,0.369 0.884,0.552 1.38,0.552c0.527,0 1.055,-0.208 1.448,-0.62l0.621,-0.653c1.391,1.024 2.271,2.721 2.271,4.579c0,1.889 -0.911,3.612 -2.341,4.629c-0.751,-0.443 -1.728,-0.362 -2.39,0.268c-0.8,0.762 -0.83,2.028 -0.067,2.828c1.762,1.849 1.762,4.856 -0.001,6.705c-0.823,0.864 -1.91,1.34 -3.062,1.34s-2.239,-0.476 -3.063,-1.34c-0.762,-0.801 -2.029,-0.83 -2.827,-0.068c-0.8,0.762 -0.83,2.028 -0.067,2.828c0.815,0.855 1.77,1.508 2.812,1.945c-0.39,1.267 -1.483,2.189 -2.783,2.189c-0.278,0 -0.94,0 -1.477,-0.127c-0.07,-1.041 -0.937,-1.862 -1.995,-1.862c-1.104,0 -2,0.896 -2,2l0,0.912c-0.107,0.987 -0.747,1.174 -1.26,1.151c-0.227,-0.01 -1.355,-0.127 -1.355,-1.494l0,-9.698c0,-2.829 2.151,-5.131 4.796,-5.131c1.104,0 2,-0.896 2,-2s-0.896,-2 -2,-2c-1.769,0 -3.415,0.55 -4.796,1.487l0,-6.842c0,-1.104 -0.896,-2 -2,-2s-2,0.896 -2,2l0,14.486l0,9.698c0,3.458 2.608,5.38 5.185,5.491c0.075,0.003 0.151,0.005 0.228,0.005c1.652,0 3.332,-0.785 4.326,-2.304c0.81,0.186 1.626,0.229 2.349,0.229c3.301,0 6.066,-2.398 6.769,-5.597c1.938,-0.198 3.731,-1.082 5.118,-2.538c2.389,-2.506 2.998,-6.179 1.835,-9.284c2.487,-1.755 4.07,-4.696 4.07,-7.905c-0.001,-3.21 -1.584,-6.151 -4.071,-7.906z" class="st0"/>
  <path fill="#547cec" id="svg_4" d="m55.934,27.343l16.131,0c1.104,0 2,-0.896 2,-2s-0.896,-2 -2,-2l-16.131,0c-1.104,0 -2,0.896 -2,2s0.896,2 2,2z" class="st0"/>
  <path fill="#547cec" id="svg_5" d="m35.154,35.093l7.155,0c1.104,0 2,-0.896 2,-2s-0.896,-2 -2,-2l-7.155,0c-1.104,0 -2,0.896 -2,2s0.895,2 2,2z" class="st1"/>
  <path fill="#547cec" id="svg_6" d="m34.776646,42.844l23.825,0c1.104,0 2,-0.896 2,-2s-0.896,-2 -2,-2l-23.825,0c-1.104,0 -2,0.896 -2,2s0.895,2 2,2z" class="st1"/>
  <path fill="#0436ed" id="svg_7" d="m50.05,35.093l16.445,0c1.104,0 2,-0.896 2,-2s-0.896,-2 -2,-2l-16.445,0c-1.104,0 -2,0.896 -2,2s0.895,2 2,2z" class="st1"/>
  <path fill="#547cec" id="svg_8" d="m71.858646,33.281677c0,1.104 0.896,2 2,2l18.609,0c1.104,0 2,-0.896 2,-2s-0.896,-2 -2,-2l-18.609,0c-1.104,0 -2,0.896 -2,2z" class="st1"/>
  <path fill="#0436ed" id="svg_9" d="m92.846,38.844l-27.471,0c-1.104,0 -2,0.896 -2,2s0.896,2 2,2l27.471,0c1.104,0 2,-0.896 2,-2s-0.896,-2 -2,-2z" class="st1"/>
  <path fill="#0436ed" id="svg_10" d="m116.188,31.07c0.313,-1.059 -0.291,-2.171 -1.35,-2.485l-10.135,-3.004l0,-7.989c0,-1.104 -0.896,-2 -2,-2l-31.707,0c-0.011,-0.003 -0.02,-0.009 -0.031,-0.013l-30.35,-8.996c-0.001,0 -0.001,-0.001 -0.002,-0.001c-0.122,-0.036 -0.245,-0.057 -0.367,-0.069c-0.01,-0.001 -0.019,-0.005 -0.029,-0.005c-0.928,-0.08 -1.815,0.498 -2.089,1.425l-2.265,7.659l-10.568,0c-1.104,0 -2,0.896 -2,2l0,40.502l-11.484,38.837c-0.313,1.059 0.291,2.17 1.35,2.484l10.134,3.004l0,7.989c0,1.104 0.896,2 2,2l31.697,0l30.393,9.009c0.187,0.055 0.378,0.083 0.568,0.083c0.33,0 0.659,-0.082 0.954,-0.243c0.467,-0.253 0.813,-0.681 0.964,-1.19l2.265,-7.659l10.567,0c1.104,0 2,-0.896 2,-2l0,-40.502l11.485,-38.836zm-4.402,0.782l-7.082,23.948l0,-26.047l7.082,2.099zm-70.39,-20.866l15.537,4.606l-16.899,0l1.362,-4.606zm-25.182,85.162l7.081,-23.948l0,26.047l-7.081,-2.099zm70.389,20.866l-15.537,-4.605l16.899,0l-1.362,4.605zm14.101,-8.606l-73.409,0l0,-49.763c0.084,-0.331 0.078,-0.662 0,-0.973l0,-38.08l73.409,0l0,88.816z" class="st1"/>
 </g>
</svg>