<?xml version="1.0" standalone="no"?>
<!DOCTYPE svg PUBLIC "-//W3C//DTD SVG 1.1//EN" "http://www.w3.org/Graphics/SVG/1.1/DTD/svg11.dtd" >
<svg xmlns="http://www.w3.org/2000/svg" xmlns:xlink="http://www.w3.org/1999/xlink" version="1.1">
<metadata>
Created by FontForge 20170731 at Sat Dec  5 08:27:42 2020
 By Aleksey,,,
Copyright (c) 2017 by atipo. All rights reserved.
</metadata>
<defs>
<font id="BasierSquare-Bold" horiz-adv-x="1175" >
  <font-face 
    font-family="Basier Square Bold"
    font-weight="700"
    font-stretch="normal"
    units-per-em="2048"
    panose-1="0 0 8 0 0 0 0 0 0 0"
    ascent="1638"
    descent="-410"
    x-height="1071"
    cap-height="1434"
    bbox="-412 -502 2425 1991"
    underline-thickness="102"
    underline-position="-307"
    unicode-range="U+0020-2265"
  />
<missing-glyph horiz-adv-x="1925" 
 />
    <glyph glyph-name=".notdef" horiz-adv-x="1925" 
 />
    <glyph glyph-name=".null" horiz-adv-x="0" 
 />
    <glyph glyph-name="nonmarkingreturn" horiz-adv-x="682" 
 />
    <glyph glyph-name="space" unicode=" " horiz-adv-x="573" 
 />
    <glyph glyph-name="exclam" unicode="!" horiz-adv-x="512" 
d="M133 455l-43 782v197h336v-197l-53 -782h-240zM88 0v319h336v-319h-336z" />
    <glyph glyph-name="quotedbl" unicode="&#x22;" horiz-adv-x="892" 
d="M135 860l-53 322v252h319v-252l-53 -322h-213zM545 860l-53 322v252h319v-252l-53 -322h-213z" />
    <glyph glyph-name="numbersign" unicode="#" horiz-adv-x="1443" 
d="M1341 817h-227l-37 -211h162v-274h-207l-57 -332h-291l57 332h-180l-57 -332h-291l57 332h-168v274h213l37 211h-147v275h194l58 342h291l-58 -342h180l58 342h291l-58 -342h180v-275zM786 606l37 211h-180l-37 -211h180z" />
    <glyph glyph-name="dollar" unicode="$" horiz-adv-x="1294" 
d="M1243 422q0 -186 -120 -301.5t-375 -134.5v-170h-201v170q-235 24 -364.5 157t-141.5 349h326q14 -172 180 -216v330l-17 4q-79 17 -141.5 38.5t-120.5 56.5t-96.5 80.5t-61 110t-22.5 144.5q0 163 124.5 273.5t334.5 132.5v172h201v-172q209 -26 339.5 -152t131.5 -309
h-326q-5 58 -41 102.5t-104 63.5v-279l26 -6q85 -18 151.5 -40.5t128 -58.5t101.5 -83t64 -113.5t24 -148.5zM418 1040q0 -43 28 -74t101 -51v242q-66 -14 -97.5 -46t-31.5 -71zM748 272q165 25 165 142q0 58 -38 93.5t-127 55.5v-291z" />
    <glyph glyph-name="percent" unicode="%" horiz-adv-x="1728" 
d="M424 713q-158 0 -250 102t-92 270t92 270.5t250 102.5q157 0 249.5 -103t92.5 -270q0 -168 -92 -270t-250 -102zM240 0v20l970 1414h260v-21l-966 -1413h-264zM424 913q129 0 129 172t-129 172t-129 -172t129 -172zM1305 -18q-158 0 -250 102t-92 270t92 270.5t250 102.5
q157 0 249.5 -103t92.5 -270q0 -168 -92 -270t-250 -102zM1305 182q129 0 129 172t-129 172t-129 -172t129 -172z" />
    <glyph glyph-name="ampersand" unicode="&#x26;" horiz-adv-x="1497" 
d="M1436 815v-20l-326 -430l311 -345v-20h-370l-119 133q-137 -151 -395 -151q-88 0 -167 26.5t-141.5 77t-99.5 132t-37 183.5q0 209 248 365l18 10q-74 86 -108.5 158t-34.5 153q0 152 114.5 258.5t297.5 106.5h4q195 0 309.5 -101t114.5 -253q0 -61 -14.5 -109.5
t-46.5 -88t-69.5 -70t-95.5 -66.5l-53 -33l139 -153l181 237h340zM596 930l2 -2l59 37q84 53 84 118q0 47 -28 78t-84 31h-4q-49 -1 -79 -31.5t-30 -73.5q0 -77 80 -157zM571 264q54 0 93 20t77 64l-206 232l-17 -11q-57 -36 -79.5 -73t-22.5 -86q0 -59 40 -102.5t115 -43.5
z" />
    <glyph glyph-name="quotesingle" unicode="'" horiz-adv-x="483" 
d="M135 860l-53 322v252h319v-252l-53 -322h-213z" />
    <glyph glyph-name="parenleft" unicode="(" horiz-adv-x="747" 
d="M666 1577v-21q-61 -80 -114.5 -176.5t-101.5 -217t-76 -265t-28 -291.5t28 -291.5t76 -265t101.5 -217t114.5 -176.5v-21h-246q-157 171 -263 427t-106 544q0 299 104.5 547.5t264.5 423.5h246z" />
    <glyph glyph-name="parenright" unicode=")" horiz-adv-x="747" 
d="M328 1577q75 -82 138 -180.5t116.5 -220t83.5 -268.5t30 -302q0 -288 -105.5 -544t-262.5 -427h-246v21q61 80 114.5 177t101 217t75.5 264.5t28 291.5t-28 291.5t-75.5 264.5t-101 217t-114.5 177v21h246z" />
    <glyph glyph-name="asterisk" unicode="*" horiz-adv-x="995" 
d="M389 700l31 254l-8 4l-195 -151l-108 211l241 63v9l-241 67l108 211l195 -143l8 6l-31 244h238l-31 -244l8 -6l195 143l108 -211l-241 -67v-9l241 -63l-108 -211l-195 151l-8 -4l31 -254h-238z" />
    <glyph glyph-name="plus" unicode="+" horiz-adv-x="1015" 
d="M369 123v383h-359v270h359v383h286v-383h351v-270h-351v-383h-286z" />
    <glyph glyph-name="comma" unicode="," horiz-adv-x="487" 
d="M25 -295v21l63 505h346v-20l-168 -506h-241z" />
    <glyph glyph-name="hyphen" unicode="-" horiz-adv-x="954" 
d="M164 459v282h627v-282h-627z" />
    <glyph glyph-name="period" unicode="." horiz-adv-x="499" 
d="M82 0v319h336v-319h-336z" />
    <glyph glyph-name="slash" unicode="/" horiz-adv-x="937" 
d="M31 -272v20l575 1761h301v-20l-577 -1761h-299z" />
    <glyph glyph-name="zero" unicode="0" horiz-adv-x="1286" 
d="M643 -18q-143 0 -252 55t-176 155t-100 232.5t-33 296.5q0 130 20.5 240.5t64.5 203t109.5 157t158.5 100.5t208 36t208 -36t158.5 -100.5t109.5 -157t64.5 -203t20.5 -240.5q0 -164 -33 -296.5t-100 -232.5t-176 -155t-252 -55zM643 260q131 0 185.5 110.5t54.5 350.5
q0 238 -55.5 348.5t-184.5 110.5t-184.5 -110.5t-55.5 -348.5q0 -240 54.5 -350.5t185.5 -110.5z" />
    <glyph glyph-name="one" unicode="1" horiz-adv-x="870" 
d="M430 0v1116h-8l-330 -246h-20v301l356 263h320v-1434h-318z" />
    <glyph glyph-name="two" unicode="2" horiz-adv-x="1165" 
d="M76 0v258l469 449q114 108 159.5 175.5t45.5 141.5q0 70 -47 113t-128 43q-86 0 -141 -51.5t-55 -157.5h-307q0 230 137 358.5t366 128.5q220 0 358 -118t138 -306q0 -112 -57 -212.5t-187 -223.5l-329 -307v-8h596v-283h-1018z" />
    <glyph glyph-name="three" unicode="3" horiz-adv-x="1234" 
d="M616 -18q-94 0 -177 18t-152.5 55.5t-119.5 92t-78 131.5t-28 170h316q0 -34 10.5 -64.5t34.5 -60.5t73.5 -48t118.5 -18q109 0 162 48t53 126q0 79 -56 127.5t-179 48.5h-125v277h121q98 0 146 40t48 113q0 62 -49 103t-137 41q-98 0 -147.5 -51.5t-49.5 -139.5h-317
q0 216 143 341.5t377 125.5q213 0 358.5 -108.5t145.5 -278.5q0 -115 -53 -192t-142 -111v-8q101 -31 170.5 -119.5t69.5 -204.5q0 -92 -31.5 -172t-94 -144t-168.5 -101t-243 -37z" />
    <glyph glyph-name="four" unicode="4" horiz-adv-x="1204" 
d="M676 0v262h-633v303l563 869h387v-893h172v-279h-172v-262h-317zM354 541h322v501h-8l-314 -493v-8z" />
    <glyph glyph-name="five" unicode="5" horiz-adv-x="1216" 
d="M606 -18q-230 0 -380 130t-150 314h317q11 -69 62.5 -117.5t150.5 -48.5q57 0 100.5 20.5t68.5 54.5t37.5 72.5t12.5 79.5q0 84 -55 148.5t-164 64.5q-128 0 -205 -100h-305l56 834h884v-281h-626l-23 -272h8q93 75 260 75q215 0 352.5 -133t137.5 -336
q0 -221 -144.5 -363t-394.5 -142z" />
    <glyph glyph-name="six" unicode="6" horiz-adv-x="1253" 
d="M635 -18q-274 0 -413.5 188.5t-139.5 523.5q0 168 36 306.5t106 241t180.5 159.5t252.5 57q112 0 205 -33.5t154.5 -91.5t99 -131t47.5 -155h-301q-16 57 -68 94t-137 37q-130 0 -204 -90t-74 -277h8q118 125 303 125q112 0 205 -40.5t152 -106.5t91.5 -147.5
t32.5 -166.5q0 -102 -36.5 -191.5t-104 -157t-169.5 -106t-226 -38.5zM635 260q95 0 161 57.5t66 153.5q0 93 -61.5 151t-165.5 58q-99 0 -162 -58.5t-63 -150.5q0 -98 62.5 -154.5t162.5 -56.5z" />
    <glyph glyph-name="seven" unicode="7" horiz-adv-x="1107" 
d="M158 0v20l596 1121v8h-723v285h1046v-295l-579 -1139h-340z" />
    <glyph glyph-name="eight" unicode="8" horiz-adv-x="1232" 
d="M938 756q223 -95 223 -338q0 -205 -150 -319.5t-395 -116.5q-245 2 -394.5 116.5t-149.5 319.5q0 243 223 338v8q-84 45 -132 127t-48 188q0 172 139.5 275.5t361.5 103.5t362 -103.5t140 -275.5q0 -106 -48 -188t-132 -127v-8zM616 1184q-78 0 -130 -37t-52 -109
q0 -74 52 -110.5t130 -36.5q79 0 131 36t52 111q0 72 -52.5 109t-130.5 37zM616 256q102 2 163 48.5t61 133.5q0 81 -60.5 128.5t-163.5 49.5q-103 -2 -163 -49.5t-60 -128.5q0 -87 60.5 -133.5t162.5 -48.5z" />
    <glyph glyph-name="nine" unicode="9" horiz-adv-x="1253" 
d="M596 -18q-112 0 -205 33.5t-154.5 91.5t-99 131t-47.5 155h301q16 -57 68 -94t137 -37q130 0 204 90t74 277h-8q-118 -125 -303 -125q-112 0 -205 40.5t-152 106.5t-91.5 147.5t-32.5 166.5q0 102 36.5 191.5t104 157t169.5 106t226 38.5q274 0 413.5 -189t139.5 -524
q0 -168 -36 -306t-106 -241t-180.5 -159.5t-252.5 -56.5zM618 760q99 0 162.5 58.5t63.5 150.5q0 98 -63 154.5t-163 56.5q-95 0 -161 -57.5t-66 -153.5q0 -93 61.5 -151t165.5 -58z" />
    <glyph glyph-name="colon" unicode=":" horiz-adv-x="499" 
d="M82 649v320h336v-320h-336zM82 0v319h336v-319h-336z" />
    <glyph glyph-name="semicolon" unicode=";" horiz-adv-x="487" 
d="M82 649v320h336v-320h-336zM25 -295v21l63 505h346v-20l-168 -506h-241z" />
    <glyph glyph-name="less" unicode="&#x3c;" horiz-adv-x="1064" 
d="M1004 -25l-943 500v225l943 500v-289l-631 -319v-8l631 -320v-289z" />
    <glyph glyph-name="equal" unicode="=" horiz-adv-x="1015" 
d="M10 711v270h996v-270h-996zM10 260v270h996v-270h-996z" />
    <glyph glyph-name="greater" unicode="&#x3e;" horiz-adv-x="1064" 
d="M61 -25v289l631 320v8l-631 319v289l943 -500v-225z" />
    <glyph glyph-name="question" unicode="?" horiz-adv-x="1112" 
d="M371 453v32q0 84 23.5 146.5t59 102t101.5 91.5l66 52q59 46 82.5 77t23.5 82q0 56 -40 98t-126 42q-180 0 -180 -179h-320q0 204 128 329.5t372 125.5q224 0 357 -112.5t133 -284.5q0 -191 -156 -312l-86 -67q-52 -40 -76 -63t-39.5 -55t-15.5 -73v-32h-307zM358 0v319
h336v-319h-336z" />
    <glyph glyph-name="at" unicode="@" horiz-adv-x="1812" 
d="M946 -205q-147 0 -276.5 31t-239.5 97.5t-189.5 162.5t-124 233.5t-44.5 303.5q0 180 71.5 336t192.5 263.5t284.5 168.5t344.5 61q221 0 396.5 -86.5t277.5 -251.5t102 -381q0 -144 -29.5 -250t-84 -168.5t-125.5 -92t-161 -29.5q-89 0 -149 36.5t-76 89.5h-8
q-51 -63 -114 -91.5t-150 -28.5q-154 0 -247 112t-93 291t94 296.5t250 117.5q69 0 133.5 -34t93.5 -89h8l15 100h200l-18 -495q-2 -54 19.5 -82.5t76.5 -28.5q79 0 120.5 89t41.5 257q0 229 -155 374.5t-425 145.5q-149 0 -276 -52t-212 -140.5t-133 -205t-48 -245.5
q0 -199 84.5 -338.5t231 -207.5t343.5 -68q251 0 420 72v-197q-170 -76 -422 -76zM889 403q92 0 137 58.5t45 161.5q0 99 -51 145.5t-119 46.5q-77 0 -124.5 -54.5t-47.5 -160.5q0 -100 44 -148.5t116 -48.5z" />
    <glyph glyph-name="A" unicode="A" horiz-adv-x="1437" 
d="M924 1434l493 -1414v-20h-356l-84 272h-533l-84 -272h-340v20l492 1414h412zM532 555h357l-174 557h-8z" />
    <glyph glyph-name="B" unicode="B" horiz-adv-x="1363" 
d="M143 0v1434h686q195 0 313 -99.5t118 -273.5q0 -194 -140 -293v-8q193 -91 193 -346q0 -195 -122.5 -304.5t-334.5 -109.5h-713zM463 881h319q78 0 115 36.5t37 98.5t-37 98.5t-115 36.5h-319v-270zM463 285h340q96 0 139 44t43 115q0 64 -43.5 111t-138.5 47h-340v-317z
" />
    <glyph glyph-name="C" unicode="C" horiz-adv-x="1452" 
d="M756 -18q-168 0 -302 57t-219 157t-129.5 232t-44.5 287q0 157 44.5 290t129.5 233.5t218.5 157t302.5 56.5q134 0 250.5 -45t197.5 -121t130.5 -178t56.5 -215h-328q-10 113 -88 190.5t-219 77.5q-178 0 -272.5 -114.5t-94.5 -331.5t94 -331t273 -114q135 0 211.5 72
t97.5 184h326q-11 -111 -61 -209.5t-130 -173t-195.5 -118t-248.5 -43.5z" />
    <glyph glyph-name="D" unicode="D" horiz-adv-x="1441" 
d="M143 0v1434h496q213 0 381.5 -89t264 -253t95.5 -375q0 -149 -53 -280.5t-148.5 -228t-235 -152.5t-304.5 -56h-496zM444 285h177q207 0 319.5 106.5t112.5 325.5q0 217 -112.5 323.5t-319.5 106.5h-177v-862z" />
    <glyph glyph-name="E" unicode="E" horiz-adv-x="1249" 
d="M143 0v1434h1024v-287h-702v-264h639v-287h-639v-311h702v-285h-1024z" />
    <glyph glyph-name="F" unicode="F" horiz-adv-x="1249" 
d="M143 0v1434h1024v-287h-702v-305h639v-287h-639v-555h-322z" />
    <glyph glyph-name="G" unicode="G" horiz-adv-x="1462" 
d="M756 -18q-168 0 -302 57t-219 157t-129.5 232t-44.5 287q0 157 44.5 290t129.5 233.5t218.5 157t302.5 56.5q178 0 319 -71t220.5 -187.5t95.5 -259.5h-328q-20 99 -93.5 163t-213.5 64q-178 0 -272.5 -114.5t-94.5 -331.5t94 -331t273 -114q135 0 210 61t99 158h-268
v285h604v-162q0 -284 -180.5 -457t-464.5 -173z" />
    <glyph glyph-name="H" unicode="H" horiz-adv-x="1505" 
d="M1040 1434h322v-1434h-322v596h-575v-596h-322v1434h322v-549h575v549z" />
    <glyph glyph-name="I" unicode="I" horiz-adv-x="610" 
d="M143 0v1434h324v-1434h-324z" />
    <glyph glyph-name="J" unicode="J" horiz-adv-x="1120" 
d="M502 -18q-228 0 -355 128t-127 320h314q2 -74 44 -115t128 -41t127 48t41 127v985h323v-985q0 -206 -130 -336.5t-365 -130.5z" />
    <glyph glyph-name="K" unicode="K" horiz-adv-x="1384" 
d="M723 745l641 -725v-20h-381l-518 594v-594h-322v1434h322v-543l498 543h376v-21z" />
    <glyph glyph-name="L" unicode="L" horiz-adv-x="1136" 
d="M143 0v1434h322v-1147h651v-287h-973z" />
    <glyph glyph-name="M" unicode="M" horiz-adv-x="1802" 
d="M143 0v1434h353l403 -658h8l404 658h348v-1434h-311v926h-9l-428 -688h-20l-428 694h-8v-932h-312z" />
    <glyph glyph-name="N" unicode="N" horiz-adv-x="1521" 
d="M143 0v1434h379l529 -936h8v936h319v-1434h-381l-528 930h-8v-930h-318z" />
    <glyph glyph-name="O" unicode="O" horiz-adv-x="1515" 
d="M758 -18q-169 0 -303.5 57t-219.5 157t-129.5 232.5t-44.5 288.5q0 124 27.5 234.5t84.5 202.5t139 158t196 103t250 37q169 0 302.5 -56.5t219 -156.5t130 -233t44.5 -289q0 -155 -44.5 -288t-130 -233t-219 -157t-302.5 -57zM758 272q179 0 273.5 114t94.5 331
q0 216 -94.5 330t-273.5 114q-180 0 -274.5 -113.5t-94.5 -330.5q0 -216 95 -330.5t274 -114.5z" />
    <glyph glyph-name="P" unicode="P" horiz-adv-x="1329" 
d="M143 0v1434h652q215 0 344 -134.5t129 -338.5q0 -209 -130 -345.5t-343 -136.5h-330v-479h-322zM465 766h266q209 0 209 195q0 91 -55 139.5t-154 48.5h-266v-383z" />
    <glyph glyph-name="Q" unicode="Q" horiz-adv-x="1515" 
d="M1454 717q0 -173 -54.5 -318t-160.5 -245l193 -283v-21h-320l-113 166q-106 -34 -241 -34q-169 0 -303.5 57t-219.5 157t-129.5 232.5t-44.5 288.5q0 124 27.5 234.5t84.5 202.5t139 158t196 103t250 37q169 0 302.5 -56.5t219 -156.5t130 -233t44.5 -289zM758 272
q25 0 65 4l-182 269v20h317l99 -143q69 110 69 295q0 216 -94.5 330t-273.5 114q-180 0 -274.5 -113.5t-94.5 -330.5q0 -216 95 -330.5t274 -114.5z" />
    <glyph glyph-name="R" unicode="R" horiz-adv-x="1372" 
d="M1006 545l346 -525v-20h-377l-309 506h-201v-506h-322v1434h656q111 0 204.5 -37t155 -100t95.5 -145.5t34 -174.5q0 -153 -75 -266t-207 -166zM465 1147v-354h317q90 0 133 53t43 129q0 72 -44 122t-132 50h-317z" />
    <glyph glyph-name="S" unicode="S" horiz-adv-x="1294" 
d="M645 -18q-281 0 -435.5 136t-168.5 374h326q10 -114 83.5 -170t194.5 -56q268 0 268 148q0 60 -40 95.5t-134 55.5l-209 45q-79 17 -141.5 38.5t-120.5 56.5t-96.5 80.5t-61 110t-22.5 144.5q0 183 153.5 297.5t405.5 114.5q162 0 292.5 -59t204.5 -166t75 -242h-326
q-7 78 -69 129t-181 51q-116 0 -170.5 -37t-54.5 -88q0 -47 35 -80t127 -53l194 -41q85 -18 151.5 -40.5t128 -58.5t101.5 -83t64 -113.5t24 -148.5q0 -99 -33.5 -177.5t-103.5 -138t-187 -92t-274 -32.5z" />
    <glyph glyph-name="T" unicode="T" horiz-adv-x="1212" 
d="M444 0v1145h-413v289h1151v-289h-414v-1145h-324z" />
    <glyph glyph-name="U" unicode="U" horiz-adv-x="1462" 
d="M729 -18q-102 0 -192 23t-166 70.5t-131 116t-86 164.5t-31 211v867h321v-863q0 -303 285 -303q287 0 287 303v863h323v-867q0 -143 -47 -256t-130 -184t-193 -108t-240 -37z" />
    <glyph glyph-name="V" unicode="V" horiz-adv-x="1445" 
d="M532 0l-512 1413v21h367l332 -1051h8l326 1051h372v-21l-505 -1413h-388z" />
    <glyph glyph-name="W" unicode="W" horiz-adv-x="1943" 
d="M348 0l-328 1413v21h347l190 -990h8l230 990h356l233 -990h9l188 990h342v-21l-328 -1413h-415l-201 948h-8l-207 -948h-416z" />
    <glyph glyph-name="X" unicode="X" horiz-adv-x="1437" 
d="M31 0v20l448 697v8l-430 688v21h389l291 -498h8l291 498h379v-21l-416 -690v-8l416 -695v-20h-395l-287 498h-8l-289 -498h-397z" />
    <glyph glyph-name="Y" unicode="Y" horiz-adv-x="1429" 
d="M555 0v569l-535 844v21h375l320 -541h8l311 541h375v-21l-530 -840v-573h-324z" />
    <glyph glyph-name="Z" unicode="Z" horiz-adv-x="1222" 
d="M61 0v281l684 856v8h-665v289h1069v-285l-682 -854v-8h694v-287h-1100z" />
    <glyph glyph-name="bracketleft" unicode="[" horiz-adv-x="690" 
d="M61 -365v1942h517v-246h-252v-1450h252v-246h-517z" />
    <glyph glyph-name="backslash" unicode="\" horiz-adv-x="937" 
d="M608 -272l-577 1761v20h301l575 -1761v-20h-299z" />
    <glyph glyph-name="bracketright" unicode="]" horiz-adv-x="690" 
d="M113 -365v246h252v1450h-252v246h516v-1942h-516z" />
    <glyph glyph-name="asciicircum" unicode="^" horiz-adv-x="1204" 
d="M72 635v20l401 779h260l400 -779v-20h-289l-238 487h-8l-238 -487h-288z" />
    <glyph glyph-name="underscore" unicode="_" horiz-adv-x="1128" 
d="M61 -303v248h1006v-248h-1006z" />
    <glyph glyph-name="grave" unicode="`" horiz-adv-x="585" 
d="M299 1194l-238 299v20h328l135 -299v-20h-225z" />
    <glyph glyph-name="a" unicode="a" horiz-adv-x="1107" 
d="M426 -18q-176 0 -275.5 94t-99.5 241q0 154 107.5 242t322.5 88h230v58q0 59 -40 95t-124 36q-72 0 -114 -34t-42 -85h-295q0 77 28.5 143.5t83.5 118t144.5 81.5t204.5 30q216 0 342.5 -107.5t126.5 -277.5v-705h-283l-22 96h-8q-99 -114 -287 -114zM506 227
q94 0 149.5 47.5t55.5 116.5v45h-203q-72 0 -109 -28.5t-37 -73.5q0 -47 38 -77t106 -30z" />
    <glyph glyph-name="b" unicode="b" horiz-adv-x="1196" 
d="M711 -18q-185 0 -285 120h-8l-33 -102h-283v1516h316v-547h8q101 121 285 121q199 0 316.5 -154.5t117.5 -398.5q0 -246 -117.5 -400.5t-316.5 -154.5zM614 258q75 0 123.5 39.5t68 99.5t19.5 140q0 124 -49.5 200t-161.5 76t-161.5 -76t-49.5 -200q0 -80 19.5 -140
t68 -99.5t123.5 -39.5z" />
    <glyph glyph-name="c" unicode="c" horiz-adv-x="1128" 
d="M590 -18q-252 0 -395.5 153t-143.5 402t140 401t391 152q116 0 208.5 -34t153 -94t94.5 -139.5t39 -173.5h-317q-8 72 -55.5 118t-122.5 46q-209 0 -209 -276q0 -279 209 -279q75 0 122.5 46t55.5 118h317q-11 -195 -137 -317.5t-350 -122.5z" />
    <glyph glyph-name="d" unicode="d" 
d="M485 -18q-199 0 -316.5 154.5t-117.5 400.5q0 244 117.5 398.5t316.5 154.5q184 0 285 -121h8v547h316v-1516h-283l-33 102h-8q-100 -120 -285 -120zM582 258q75 0 123.5 39.5t68 99.5t19.5 140q0 124 -49.5 200t-161.5 76t-161.5 -76t-49.5 -200q0 -80 19.5 -140
t68 -99.5t123.5 -39.5z" />
    <glyph glyph-name="e" unicode="e" horiz-adv-x="1138" 
d="M582 -18q-124 0 -225 43t-167.5 118.5t-102.5 175.5t-36 216q0 115 33.5 214.5t97.5 176t165 120.5t228 44q159 0 277 -70.5t176.5 -188t58.5 -264.5v-116h-714q2 -98 54 -155.5t155 -57.5q80 0 125 31t61 75h305q-23 -154 -152.5 -258t-338.5 -104zM375 649h391
q-5 81 -53 131.5t-138 50.5q-96 0 -145.5 -50t-54.5 -132z" />
    <glyph glyph-name="f" unicode="f" horiz-adv-x="878" 
d="M227 0v805h-186v266h186v55q0 127 60.5 221.5t161.5 141.5t227 47h131v-270h-102q-80 0 -121 -33t-41 -107v-55h254v-266h-254v-805h-316z" />
    <glyph glyph-name="g" unicode="g" 
d="M569 -487q-217 0 -350 107t-137 288h309q6 -54 55.5 -89.5t122.5 -35.5q101 0 155 47.5t54 122.5v149h-8q-100 -120 -285 -120q-199 0 -316.5 154.5t-117.5 398.5q0 246 117.5 400.5t316.5 154.5q184 0 285 -121h8l33 102h283v-1122q0 -131 -69 -231t-187.5 -152.5
t-268.5 -52.5zM582 258q58 0 100 21.5t65.5 61t34.5 87.5t11 107t-11.5 107.5t-35.5 87.5t-65.5 61t-98.5 22t-98.5 -22t-65.5 -61t-35.5 -87.5t-11.5 -107.5t11 -107t34.5 -87.5t65.5 -61t100 -21.5z" />
    <glyph glyph-name="h" unicode="h" horiz-adv-x="1198" 
d="M102 0v1516h316v-547h8q102 121 293 121q180 0 288.5 -104t108.5 -281v-705h-315v606q0 197 -180 197q-87 0 -145 -57t-58 -152v-594h-316z" />
    <glyph glyph-name="i" unicode="i" horiz-adv-x="499" 
d="M92 1198v320h336v-320h-336zM102 0v1071h316v-1071h-316z" />
    <glyph glyph-name="j" unicode="j" horiz-adv-x="507" 
d="M100 1198v320h336v-320h-336zM-102 -487v294h77q136 0 136 150v1114h315v-1194q0 -174 -109 -269t-276 -95h-143z" />
    <glyph glyph-name="k" unicode="k" horiz-adv-x="1148" 
d="M672 565l456 -545v-20h-380l-351 438v-438h-295v1516h295v-834l340 389h369v-20z" />
    <glyph glyph-name="l" unicode="l" horiz-adv-x="499" 
d="M102 0v1516h316v-1516h-316z" />
    <glyph glyph-name="m" unicode="m" horiz-adv-x="1835" 
d="M1356 1090q180 0 288.5 -104t108.5 -281v-705h-315v606q0 97 -39 147t-129 50q-84 0 -131 -56.5t-47 -152.5v-594h-312v606q0 97 -39 147t-129 50q-86 0 -140 -57t-54 -152v-594h-316v1071h283l25 -102h8q102 121 293 121q221 0 319 -146h6q48 61 129 103.5t191 42.5z
" />
    <glyph glyph-name="n" unicode="n" horiz-adv-x="1189" 
d="M102 0v1071h283l25 -102h8q102 121 293 121q179 0 288 -104.5t109 -280.5v-705h-315v606q0 197 -181 197q-86 0 -140 -57t-54 -152v-594h-316z" />
    <glyph glyph-name="o" unicode="o" horiz-adv-x="1171" 
d="M586 -18q-255 0 -395 152.5t-140 400.5t141.5 401.5t393.5 153.5t393 -153.5t141 -401.5q0 -161 -60 -284.5t-182 -196t-292 -72.5zM586 258q213 0 213 277q0 142 -55.5 210t-157.5 68q-101 0 -157 -68.5t-56 -209.5t56 -209t157 -68z" />
    <glyph glyph-name="p" unicode="p" horiz-adv-x="1196" 
d="M102 -469v1540h283l33 -102h8q101 121 285 121q197 0 315.5 -155t118.5 -400q0 -244 -117.5 -398.5t-316.5 -154.5q-185 0 -285 120h-8v-571h-316zM614 258q58 0 100 21.5t65.5 61t34.5 87.5t11 107t-11.5 107.5t-35.5 87.5t-65.5 61t-98.5 22t-98.5 -22t-65.5 -61
t-35.5 -87.5t-11.5 -107.5t11 -107t34.5 -87.5t65.5 -61t100 -21.5z" />
    <glyph glyph-name="q" unicode="q" 
d="M778 -469v571h-8q-100 -120 -285 -120q-199 0 -316.5 154.5t-117.5 398.5q0 246 117.5 400.5t316.5 154.5q184 0 285 -121h8l33 102h283v-1540h-316zM582 258q58 0 100 21.5t65.5 61t34.5 87.5t11 107t-11.5 107.5t-35.5 87.5t-65.5 61t-98.5 22t-98.5 -22t-65.5 -61
t-35.5 -87.5t-11.5 -107.5t11 -107t34.5 -87.5t65.5 -61t100 -21.5z" />
    <glyph glyph-name="r" unicode="r" horiz-adv-x="796" 
d="M102 0v1071h263l24 -156h8q39 77 108.5 126t166.5 49h73v-289h-102q-113 0 -179.5 -72.5t-66.5 -200.5v-528h-295z" />
    <glyph glyph-name="s" unicode="s" horiz-adv-x="1046" 
d="M526 -18q-239 0 -354.5 102.5t-120.5 277.5h316q0 -49 40 -83.5t119 -34.5q78 0 115 23t37 55q0 34 -26 53.5t-83 30.5l-157 30q-328 63 -328 336q0 137 116.5 227.5t323.5 90.5q204 0 325.5 -102.5t121.5 -256.5h-312q2 43 -33 77t-108 34q-57 0 -91 -21t-34 -53
q0 -58 80 -74l205 -39q68 -13 120 -34t99 -58t72.5 -97.5t25.5 -141.5q0 -162 -129.5 -252t-339.5 -90z" />
    <glyph glyph-name="t" unicode="t" horiz-adv-x="882" 
d="M573 0q-178 0 -268 94t-90 248v461h-174v268h188v281h301v-281h256v-268h-256v-385q0 -75 33.5 -109.5t104.5 -34.5h123v-274h-218z" />
    <glyph glyph-name="u" unicode="u" horiz-adv-x="1185" 
d="M500 -18q-180 0 -289 104.5t-109 280.5v704h316v-606q0 -197 180 -197q86 0 140.5 57t54.5 152v594h315v-1071h-283l-24 102h-8q-101 -120 -293 -120z" />
    <glyph glyph-name="v" unicode="v" horiz-adv-x="1120" 
d="M360 0l-340 1051v20h324l217 -774h8l211 774h320v-20l-336 -1051h-404z" />
    <glyph glyph-name="w" unicode="w" horiz-adv-x="1705" 
d="M283 0l-263 1051v20h310l162 -733h8l143 733h422l143 -733h9l161 733h308v-20l-263 -1051h-415l-148 733h-8l-154 -733h-415z" />
    <glyph glyph-name="x" unicode="x" horiz-adv-x="1155" 
d="M31 0v20l327 519l-315 512v20h340l190 -338h9l190 338h340v-20l-315 -512l327 -519v-20h-348l-194 348h-9l-194 -348h-348z" />
    <glyph glyph-name="y" unicode="y" horiz-adv-x="1161" 
d="M20 1071h324l217 -760h8l232 760h340v-20l-539 -1520h-342v20l154 449h-54l-340 1051v20z" />
    <glyph glyph-name="z" unicode="z" horiz-adv-x="1028" 
d="M72 0v264l493 531v8h-491v268h878v-266l-491 -529v-8h495v-268h-884z" />
    <glyph glyph-name="braceleft" unicode="{" horiz-adv-x="880" 
d="M352 610v-8q164 -25 164 -209v-358q0 -154 143 -154h109v-246h-188q-139 0 -233.5 90.5t-94.5 231.5v342q0 96 -46 138.5t-145 45.5v246q99 3 145 45.5t46 138.5v342q0 141 94.5 231.5t233.5 90.5h188v-246h-109q-143 0 -143 -153v-359q0 -184 -164 -209z" />
    <glyph glyph-name="bar" unicode="|" horiz-adv-x="561" 
d="M143 -283v1839h275v-1839h-275z" />
    <glyph glyph-name="braceright" unicode="}" horiz-adv-x="880" 
d="M629 913q0 -96 45.5 -138.5t144.5 -45.5v-246q-99 -3 -144.5 -45.5t-45.5 -138.5v-342q0 -141 -94.5 -231.5t-233.5 -90.5h-188v246h108q144 0 144 154v358q0 184 163 209v8q-163 25 -163 209v359q0 153 -144 153h-108v246h188q139 0 233.5 -90.5t94.5 -231.5v-342z" />
    <glyph glyph-name="asciitilde" unicode="~" horiz-adv-x="1091" 
d="M748 403q-96 0 -199 56l-94 51q-60 31 -111 31q-114 0 -156 -117l-157 104q31 108 110 182t199 74q102 0 197 -53l94 -51q64 -33 117 -33q113 0 155 117l158 -105q-31 -108 -110.5 -182t-202.5 -74z" />
    <glyph glyph-name="exclamdown" unicode="&#xa1;" horiz-adv-x="512" 
d="M90 752v319h336v-319h-336zM90 -362v196l43 782h240l53 -782v-196h-336z" />
    <glyph glyph-name="cent" unicode="&#xa2;" horiz-adv-x="1128" 
d="M674 465q77 45 86 141h317q-9 -175 -113 -293.5t-290 -142.5v-170h-201v176q-200 35 -311 181t-111 364q0 219 110.5 365.5t311.5 179.5v168h201v-166q187 -24 290.5 -142t112.5 -292h-317q-9 96 -86 141v-510zM373 721q0 -196 100 -252v502q-100 -56 -100 -250z" />
    <glyph glyph-name="sterling" unicode="&#xa3;" horiz-adv-x="1251" 
d="M63 0v268q63 0 102.5 43t39.5 121v125h-144v272h144v181q0 93 33 174t93 142t152.5 96.5t204.5 35.5q115 0 207.5 -36.5t151 -99t89.5 -144t31 -174.5h-297q0 82 -45 140t-141 58q-84 0 -134 -54t-50 -138v-181h346v-272h-346v-133q0 -115 -68 -154v-8h778v-262h-1147z
" />
    <glyph glyph-name="currency" unicode="&#xa4;" horiz-adv-x="1142" 
d="M207 -31l-166 162l139 145q-63 110 -63 234q0 127 65 238l-141 147l166 162l143 -148q108 62 225 62q119 0 222 -58l139 144l166 -162l-137 -141q71 -114 71 -244q0 -131 -69 -240l135 -139l-166 -162l-135 140q-110 -60 -226 -60q-117 0 -229 64zM575 301q86 0 143.5 59
t57.5 150q0 90 -57.5 148.5t-143.5 58.5q-87 0 -145.5 -58.5t-58.5 -148.5q0 -91 58.5 -150t145.5 -59z" />
    <glyph glyph-name="yen" unicode="&#xa5;" horiz-adv-x="1429" 
d="M1409 1434v-21l-352 -567h166v-228h-305l-29 -45v-96h334v-227h-334v-250h-324v250h-358v227h358v92l-30 49h-328v228h180l-367 567v21h402l303 -541h8l301 541h375z" />
    <glyph glyph-name="brokenbar" unicode="&#xa6;" horiz-adv-x="561" 
d="M143 823v733h275v-733h-275zM143 -283v734h275v-734h-275z" />
    <glyph glyph-name="section" unicode="&#xa7;" horiz-adv-x="1296" 
d="M631 -502q-196 0 -309 112t-113 286h252q0 -69 45 -110.5t125 -41.5q73 0 115 35.5t42 87.5q0 47 -23 80t-75 69l-330 228q-118 81 -167.5 157.5t-49.5 188.5q0 182 187 287q-84 97 -84 223q0 152 114 252t306 100q196 0 308.5 -111.5t112.5 -285.5h-251q0 69 -45 110
t-125 41q-74 0 -116 -35.5t-42 -87.5q0 -47 23 -80t75 -69l330 -227q118 -81 167.5 -158.5t49.5 -190.5q0 -179 -186 -284q84 -97 84 -224q0 -152 -114 -252t-306 -100zM788 233q50 17 77.5 50t27.5 75q0 91 -90 152l-295 207q-50 -17 -77.5 -50t-27.5 -75q0 -90 91 -152z
" />
    <glyph glyph-name="dieresis" unicode="&#xa8;" horiz-adv-x="921" 
d="M123 1229v266h264v-266h-264zM535 1229v266h264v-266h-264z" />
    <glyph glyph-name="copyright" unicode="&#xa9;" horiz-adv-x="1679" 
d="M840 1452q212 0 375 -94.5t251.5 -261t89.5 -379.5q-1 -213 -89.5 -379.5t-251.5 -261t-375 -94.5t-375.5 94.5t-252 261t-89.5 379.5q1 213 89.5 379.5t252 261t375.5 94.5zM840 174q244 0 380 144.5t138 398.5q-2 254 -138 398.5t-380 144.5t-380 -144.5t-138 -398.5
q2 -254 138 -398.5t380 -144.5zM844 477q144 0 160 135h190q-11 -133 -102 -222t-246 -89q-182 0 -280.5 110t-98.5 300q0 189 98.5 300t278.5 111q81 0 147 -26.5t107.5 -72t65 -100.5t26.5 -116h-191q-6 73 -48.5 105t-106.5 32q-93 0 -139 -56t-46 -177q0 -122 46 -178
t139 -56z" />
    <glyph glyph-name="ordfeminine" unicode="&#xaa;" horiz-adv-x="737" 
d="M295 606q-115 0 -179.5 61t-64.5 158q0 100 70 156.5t211 56.5q86 0 147 -18v59q0 38 -26 61t-80 23q-46 0 -73.5 -22t-27.5 -54h-192q0 104 77 173t224 69q140 0 222.5 -69.5t82.5 -180.5v-461h-184l-15 64h-6q-66 -76 -186 -76zM346 766q61 0 97 30.5t36 75.5v7
q-50 22 -125 22q-48 0 -74 -18t-26 -47q0 -32 24 -51t68 -19z" />
    <glyph glyph-name="guillemotleft" unicode="&#xab;" horiz-adv-x="1273" 
d="M381 135l-340 434v21l340 434h299v-20l-287 -424l287 -424v-21h-299zM913 135l-340 434v21l340 434h299v-20l-286 -424l286 -424v-21h-299z" />
    <glyph glyph-name="registered" unicode="&#xae;" horiz-adv-x="1052" 
d="M526 549q-142 0 -254 65.5t-171.5 175t-59.5 242.5q0 99 35.5 187.5t97.5 154t153.5 104t198.5 38.5q142 0 254 -65.5t172 -175.5t60 -243t-60 -242.5t-172 -175t-254 -65.5zM526 702q151 0 238.5 87.5t87.5 242.5t-87.5 242.5t-238.5 87.5q-150 0 -237.5 -87t-87.5 -243
t87.5 -243t237.5 -87zM348 813v426h223q69 0 114.5 -43.5t45.5 -108.5q0 -95 -69 -135l83 -127v-12h-135l-73 119h-64v-119h-125zM473 1042h74q51 0 51 45q0 41 -51 41h-74v-86z" />
    <glyph glyph-name="macron" unicode="&#xaf;" horiz-adv-x="722" 
d="M61 1243v227h601v-227h-601z" />
    <glyph glyph-name="degree" unicode="&#xb0;" horiz-adv-x="843" 
d="M422 748q-157 0 -261 102t-104 256t104 256t261 102t260.5 -102t103.5 -256t-103.5 -256t-260.5 -102zM422 950q68 0 107.5 44.5t39.5 111.5t-39 111.5t-108 44.5q-68 0 -108 -44.5t-40 -111.5t40 -111.5t108 -44.5z" />
    <glyph glyph-name="plusminus" unicode="&#xb1;" horiz-adv-x="1015" 
d="M369 389v281h-359v270h359v281h286v-281h351v-270h-351v-281h-286zM10 14v271h996v-271h-996z" />
    <glyph glyph-name="uni00B2" unicode="&#xb2;" horiz-adv-x="841" 
d="M74 508v176l321 279q82 72 111 110.5t29 87.5q0 48 -32 77.5t-87 29.5q-57 0 -92 -33t-35 -96h-217q0 148 94.5 233.5t249.5 85.5q150 0 244 -80.5t94 -208.5q0 -77 -37 -139.5t-129 -140.5l-215 -182v-7h397v-192h-696z" />
    <glyph glyph-name="uni00B3" unicode="&#xb3;" horiz-adv-x="888" 
d="M451 483q-168 0 -273.5 81t-105.5 237h215q0 -51 37 -90t125 -39q75 0 111 30.5t36 77.5q0 51 -41.5 81t-122.5 30h-82v188h78q137 0 137 95q0 42 -33 69t-94 27q-67 0 -101 -35t-34 -96h-215q0 148 97 233.5t257 85.5q145 0 244.5 -74t99.5 -190q0 -73 -33 -122.5
t-89 -72.5v-6q69 -24 111 -80.5t42 -134.5q0 -130 -91 -212.5t-275 -82.5z" />
    <glyph glyph-name="acute" unicode="&#xb4;" horiz-adv-x="585" 
d="M61 1194v20l136 299h327v-20l-237 -299h-226z" />
    <glyph glyph-name="paragraph" unicode="&#xb6;" horiz-adv-x="1228" 
d="M453 -213v936q-160 0 -272.5 113.5t-112.5 273.5t112.5 272.5t272.5 112.5h755v-223h-121v-1485h-256v1485h-122v-1485h-256z" />
    <glyph glyph-name="periodcentered" unicode="&#xb7;" horiz-adv-x="499" 
d="M82 451v319h336v-319h-336z" />
    <glyph glyph-name="cedilla" unicode="&#xb8;" horiz-adv-x="696" 
d="M334 -467q-118 0 -195.5 57t-77.5 152h185q0 -25 25 -43t61 -18q40 0 68 16t28 45q0 28 -24 44.5t-66 16.5h-66l-51 64l82 162h207l-74 -103q90 -7 144.5 -59t54.5 -129q0 -90 -81 -147.5t-220 -57.5z" />
    <glyph glyph-name="uni00B9" unicode="&#xb9;" horiz-adv-x="604" 
d="M317 508v702h-8l-223 -168h-14v213l241 179h219v-926h-215z" />
    <glyph glyph-name="ordmasculine" unicode="&#xba;" horiz-adv-x="800" 
d="M399 606q-165 0 -256.5 100t-91.5 263q0 161 92 260.5t256 99.5q165 0 258 -99.5t93 -260.5q0 -163 -92.5 -263t-258.5 -100zM399 786q67 0 103.5 45t36.5 138q0 180 -140 180q-137 0 -137 -180q0 -93 36 -138t101 -45z" />
    <glyph glyph-name="guillemotright" unicode="&#xbb;" horiz-adv-x="1273" 
d="M360 135h-299v21l287 424l-287 424v20h299l340 -434v-21zM893 135h-299v21l287 424l-287 424v20h299l340 -434v-21z" />
    <glyph glyph-name="onequarter" unicode="&#xbc;" horiz-adv-x="1871" 
d="M317 508v702h-8l-223 -168h-14v213l241 179h219v-926h-215zM342 0v20l889 1414h239v-21l-884 -1413h-244zM1479 0v164h-424v209l350 553h289v-570h106v-192h-106v-164h-215zM1268 356h211v326h-9l-202 -317v-9z" />
    <glyph glyph-name="onehalf" unicode="&#xbd;" horiz-adv-x="1955" 
d="M317 508v702h-8l-223 -168h-14v213l241 179h219v-926h-215zM342 0v20l889 1414h239v-21l-884 -1413h-244zM1188 0v176l321 279q82 72 111 110.5t29 87.5q0 48 -32 77.5t-87 29.5q-57 0 -92 -33t-35 -96h-217q0 148 94.5 233.5t249.5 85.5q150 0 244 -80t94 -208
q0 -77 -37 -140t-129 -141l-215 -182v-6h397v-193h-696z" />
    <glyph glyph-name="threequarters" unicode="&#xbe;" horiz-adv-x="2056" 
d="M451 483q-168 0 -273.5 81t-105.5 237h215q0 -51 37 -90t125 -39q75 0 111 30.5t36 77.5q0 51 -41.5 81t-122.5 30h-82v188h78q137 0 137 95q0 42 -33 69t-94 27q-67 0 -101 -35t-34 -96h-215q0 148 97 233.5t257 85.5q145 0 244.5 -74t99.5 -190q0 -73 -33 -122.5
t-89 -72.5v-6q69 -24 111 -80.5t42 -134.5q0 -130 -91 -212.5t-275 -82.5zM526 0v20l889 1414h240v-21l-885 -1413h-244zM1663 0v164h-424v209l350 553h289v-570h107v-192h-107v-164h-215zM1452 356h211v326h-8l-203 -317v-9z" />
    <glyph glyph-name="questiondown" unicode="&#xbf;" horiz-adv-x="1112" 
d="M418 752v319h336v-319h-336zM551 -381q-224 0 -357 112.5t-133 284.5q0 191 156 312l86 67q52 40 76 63t39.5 55t15.5 73v32h307v-32q0 -84 -23.5 -146.5t-59 -102t-101.5 -91.5l-65 -51q-60 -46 -83.5 -77.5t-23.5 -82.5q0 -56 40 -97.5t126 -41.5q180 0 180 178h320
q0 -204 -128 -329.5t-372 -125.5z" />
    <glyph glyph-name="Agrave" unicode="&#xc0;" horiz-adv-x="1437" 
d="M885 1556h-226l-237 299v21h328l135 -299v-21zM924 1434l493 -1414v-20h-356l-84 272h-533l-84 -272h-340v20l492 1414h412zM532 555h357l-174 557h-8z" />
    <glyph glyph-name="Aacute" unicode="&#xc1;" horiz-adv-x="1437" 
d="M1042 1855l-237 -299h-225v21l135 299h327v-21zM924 1434l493 -1414v-20h-356l-84 272h-533l-84 -272h-340v20l492 1414h412zM532 555h357l-174 557h-8z" />
    <glyph glyph-name="Acircumflex" unicode="&#xc2;" horiz-adv-x="1437" 
d="M719 1671l-115 -110h-242v20l193 291h334l192 -291v-20h-241l-113 110h-8zM924 1434l493 -1414v-20h-356l-84 272h-533l-84 -272h-340v20l492 1414h412zM532 555h357l-174 557h-8z" />
    <glyph glyph-name="Atilde" unicode="&#xc3;" horiz-adv-x="1437" 
d="M584 1636q-25 0 -40.5 -19t-15.5 -56h-188v30q0 127 59.5 195.5t161.5 68.5q66 0 144 -38l32 -17q54 -26 74 -26q29 0 39 18t10 59h187v-30q0 -132 -53.5 -198.5t-166.5 -66.5q-67 0 -139 37l-31 17q-50 26 -73 26zM924 1434l493 -1414v-20h-356l-84 272h-533l-84 -272
h-340v20l492 1414h412zM532 555h357l-174 557h-8z" />
    <glyph glyph-name="Adieresis" unicode="&#xc4;" horiz-adv-x="1437" 
d="M649 1858v-267h-264v267h264zM1061 1858v-267h-264v267h264zM924 1434l493 -1414v-20h-356l-84 272h-533l-84 -272h-340v20l492 1414h412zM532 555h357l-174 557h-8z" />
    <glyph glyph-name="Aring" unicode="&#xc5;" horiz-adv-x="1437" 
d="M715 1526q-103 0 -171.5 65t-68.5 166q0 102 68.5 168t171.5 66q106 0 173.5 -65.5t67.5 -168.5q0 -101 -67.5 -166t-173.5 -65zM713 1845q-39 0 -63.5 -25.5t-24.5 -62.5t24.5 -61.5t63.5 -24.5q41 0 66.5 24.5t25.5 61.5t-25.5 62.5t-66.5 25.5zM924 1434l493 -1414
v-20h-356l-84 272h-533l-84 -272h-340v20l492 1414h412zM532 555h357l-174 557h-8z" />
    <glyph glyph-name="AE" unicode="&#xc6;" horiz-adv-x="1875" 
d="M20 0v20l492 1414h1282v-287h-770l92 -264h615v-287h-514l108 -311h469v-285h-733l-84 272h-533l-84 -272h-340zM532 555h357l-174 557h-8z" />
    <glyph glyph-name="Ccedilla" unicode="&#xc7;" horiz-adv-x="1452" 
d="M756 270q135 0 211.5 72t97.5 184h326q-21 -212 -173 -364.5t-389 -175.5l-43 -60q90 -7 144.5 -59t54.5 -129q0 -90 -81 -147.5t-220 -57.5q-118 0 -195 57t-77 152h184q0 -25 25 -43t61 -18q40 0 68 16t28 45q0 28 -24 44.5t-66 16.5h-65l-52 64l62 123
q-275 39 -423.5 237.5t-148.5 487.5q0 157 44.5 290t129.5 233.5t218.5 157t302.5 56.5q134 0 250.5 -45t197.5 -121t130.5 -178t56.5 -215h-328q-10 113 -88 190.5t-219 77.5q-178 0 -272.5 -114.5t-94.5 -331.5t94 -331t273 -114z" />
    <glyph glyph-name="Egrave" unicode="&#xc8;" horiz-adv-x="1249" 
d="M627 1556l-238 299v21h328l135 -299v-21h-225zM143 0v1434h1024v-287h-702v-264h639v-287h-639v-311h702v-285h-1024z" />
    <glyph glyph-name="Eacute" unicode="&#xc9;" horiz-adv-x="1249" 
d="M547 1556v21l135 299h328v-21l-238 -299h-225zM143 0v1434h1024v-287h-702v-264h639v-287h-639v-311h702v-285h-1024z" />
    <glyph glyph-name="Ecircumflex" unicode="&#xca;" horiz-adv-x="1249" 
d="M330 1561v20l192 291h334l193 -291v-20h-242l-113 110h-8l-115 -110h-241zM143 0v1434h1024v-287h-702v-264h639v-287h-639v-311h702v-285h-1024z" />
    <glyph glyph-name="Edieresis" unicode="&#xcb;" horiz-adv-x="1249" 
d="M352 1591v267h264v-267h-264zM764 1591v267h264v-267h-264zM143 0v1434h1024v-287h-702v-264h639v-287h-639v-311h702v-285h-1024z" />
    <glyph glyph-name="Igrave" unicode="&#xcc;" horiz-adv-x="610" 
d="M252 1556l-238 299v21h328l135 -299v-21h-225zM143 0v1434h324v-1434h-324z" />
    <glyph glyph-name="Iacute" unicode="&#xcd;" horiz-adv-x="610" 
d="M172 1556v21l135 299h328v-21l-238 -299h-225zM143 0v1434h324v-1434h-324z" />
    <glyph glyph-name="Icircumflex" unicode="&#xce;" horiz-adv-x="610" 
d="M-45 1561v20l192 291h334l193 -291v-20h-242l-113 110h-8l-114 -110h-242zM143 0v1434h324v-1434h-324z" />
    <glyph glyph-name="Idieresis" unicode="&#xcf;" horiz-adv-x="610" 
d="M-23 1591v267h265v-267h-265zM389 1591v267h264v-267h-264zM143 0v1434h324v-1434h-324z" />
    <glyph glyph-name="Eth" unicode="&#xd0;" horiz-adv-x="1525" 
d="M723 1434q213 0 381.5 -89t264 -253t95.5 -375q0 -149 -53 -280.5t-148.5 -228t-235 -152.5t-304.5 -56h-496v608h-145v269h145v557h496zM705 285q207 0 319.5 106.5t112.5 325.5q0 217 -112.5 323.5t-319.5 106.5h-177v-270h291v-269h-291v-323h177z" />
    <glyph glyph-name="Ntilde" unicode="&#xd1;" horiz-adv-x="1521" 
d="M928 1556q-68 0 -140 37l-30 17q-50 26 -74 26t-39.5 -19t-15.5 -56h-189v30q0 127 60 195.5t162 68.5q65 0 143 -38l33 -17q54 -26 73 -26q29 0 39.5 18t10.5 59h186v-30q0 -132 -53 -198.5t-166 -66.5zM143 0v1434h379l529 -936h8v936h319v-1434h-381l-528 930h-8v-930
h-318z" />
    <glyph glyph-name="Ograve" unicode="&#xd2;" horiz-adv-x="1515" 
d="M700 1556l-237 299v21h328l135 -299v-21h-226zM758 -18q-169 0 -303.5 57t-219.5 157t-129.5 232.5t-44.5 288.5q0 124 27.5 234.5t84.5 202.5t139 158t196 103t250 37q169 0 302.5 -56.5t219 -156.5t130 -233t44.5 -289q0 -155 -44.5 -288t-130 -233t-219 -157
t-302.5 -57zM758 272q179 0 273.5 114t94.5 331q0 216 -94.5 330t-273.5 114q-180 0 -274.5 -113.5t-94.5 -330.5q0 -216 95 -330.5t274 -114.5z" />
    <glyph glyph-name="Oacute" unicode="&#xd3;" horiz-adv-x="1515" 
d="M621 1556v21l135 299h327v-21l-237 -299h-225zM758 -18q-169 0 -303.5 57t-219.5 157t-129.5 232.5t-44.5 288.5q0 124 27.5 234.5t84.5 202.5t139 158t196 103t250 37q169 0 302.5 -56.5t219 -156.5t130 -233t44.5 -289q0 -155 -44.5 -288t-130 -233t-219 -157
t-302.5 -57zM758 272q179 0 273.5 114t94.5 331q0 216 -94.5 330t-273.5 114q-180 0 -274.5 -113.5t-94.5 -330.5q0 -216 95 -330.5t274 -114.5z" />
    <glyph glyph-name="Ocircumflex" unicode="&#xd4;" horiz-adv-x="1515" 
d="M403 1561v20l193 291h334l192 -291v-20h-241l-113 110h-8l-115 -110h-242zM758 -18q-169 0 -303.5 57t-219.5 157t-129.5 232.5t-44.5 288.5q0 124 27.5 234.5t84.5 202.5t139 158t196 103t250 37q169 0 302.5 -56.5t219 -156.5t130 -233t44.5 -289q0 -155 -44.5 -288
t-130 -233t-219 -157t-302.5 -57zM758 272q179 0 273.5 114t94.5 331q0 216 -94.5 330t-273.5 114q-180 0 -274.5 -113.5t-94.5 -330.5q0 -216 95 -330.5t274 -114.5z" />
    <glyph glyph-name="Otilde" unicode="&#xd5;" horiz-adv-x="1515" 
d="M868 1556q-67 0 -139 37l-31 17q-50 26 -73 26q-25 0 -40.5 -19t-15.5 -56h-188v30q0 127 59.5 195.5t161.5 68.5q65 0 143 -38l33 -17q54 -26 74 -26q29 0 39 18t10 59h186v-30q0 -132 -53 -198.5t-166 -66.5zM758 -18q-169 0 -303.5 57t-219.5 157t-129.5 232.5
t-44.5 288.5q0 124 27.5 234.5t84.5 202.5t139 158t196 103t250 37q169 0 302.5 -56.5t219 -156.5t130 -233t44.5 -289q0 -155 -44.5 -288t-130 -233t-219 -157t-302.5 -57zM758 272q179 0 273.5 114t94.5 331q0 216 -94.5 330t-273.5 114q-180 0 -274.5 -113.5
t-94.5 -330.5q0 -216 95 -330.5t274 -114.5z" />
    <glyph glyph-name="Odieresis" unicode="&#xd6;" horiz-adv-x="1515" 
d="M426 1591v267h264v-267h-264zM838 1591v267h264v-267h-264zM758 -18q-169 0 -303.5 57t-219.5 157t-129.5 232.5t-44.5 288.5q0 124 27.5 234.5t84.5 202.5t139 158t196 103t250 37q169 0 302.5 -56.5t219 -156.5t130 -233t44.5 -289q0 -155 -44.5 -288t-130 -233
t-219 -157t-302.5 -57zM758 272q179 0 273.5 114t94.5 331q0 216 -94.5 330t-273.5 114q-180 0 -274.5 -113.5t-94.5 -330.5q0 -216 95 -330.5t274 -114.5z" />
    <glyph glyph-name="multiply" unicode="&#xd7;" horiz-adv-x="956" 
d="M201 184l-191 191l279 278l-279 277l191 190l278 -276l277 276l190 -190l-276 -277l276 -278l-190 -191l-277 279z" />
    <glyph glyph-name="Oslash" unicode="&#xd8;" horiz-adv-x="1515" 
d="M1475 1511v-20l-189 -262q168 -195 168 -512q0 -155 -44.5 -288t-130 -233t-219 -157t-302.5 -57q-182 0 -320 63l-104 -143h-293v20l195 273q-175 202 -175 522q0 124 27.5 234.5t84.5 202.5t139 158t196 103t250 37q182 0 327 -68l93 127h297zM389 717q0 -148 43 -246
l477 664q-65 26 -151 26q-180 0 -274.5 -113.5t-94.5 -330.5zM1126 717q0 140 -39 235l-471 -657q67 -23 142 -23q179 0 273.5 114t94.5 331z" />
    <glyph glyph-name="Ugrave" unicode="&#xd9;" horiz-adv-x="1462" 
d="M674 1556l-238 299v21h328l135 -299v-21h-225zM729 -18q-102 0 -192 23t-166 70.5t-131 116t-86 164.5t-31 211v867h321v-863q0 -303 285 -303q287 0 287 303v863h323v-867q0 -143 -47 -256t-130 -184t-193 -108t-240 -37z" />
    <glyph glyph-name="Uacute" unicode="&#xda;" horiz-adv-x="1462" 
d="M594 1556v21l135 299h328v-21l-238 -299h-225zM729 -18q-102 0 -192 23t-166 70.5t-131 116t-86 164.5t-31 211v867h321v-863q0 -303 285 -303q287 0 287 303v863h323v-867q0 -143 -47 -256t-130 -184t-193 -108t-240 -37z" />
    <glyph glyph-name="Ucircumflex" unicode="&#xdb;" horiz-adv-x="1462" 
d="M377 1561v20l192 291h334l193 -291v-20h-242l-113 110h-8l-115 -110h-241zM729 -18q-102 0 -192 23t-166 70.5t-131 116t-86 164.5t-31 211v867h321v-863q0 -303 285 -303q287 0 287 303v863h323v-867q0 -143 -47 -256t-130 -184t-193 -108t-240 -37z" />
    <glyph glyph-name="Udieresis" unicode="&#xdc;" horiz-adv-x="1462" 
d="M399 1591v267h265v-267h-265zM811 1591v267h264v-267h-264zM729 -18q-102 0 -192 23t-166 70.5t-131 116t-86 164.5t-31 211v867h321v-863q0 -303 285 -303q287 0 287 303v863h323v-867q0 -143 -47 -256t-130 -184t-193 -108t-240 -37z" />
    <glyph glyph-name="Yacute" unicode="&#xdd;" horiz-adv-x="1429" 
d="M596 1556v21l135 299h328v-21l-238 -299h-225zM555 0v569l-535 844v21h375l320 -541h8l311 541h375v-21l-530 -840v-573h-324z" />
    <glyph glyph-name="Thorn" unicode="&#xde;" horiz-adv-x="1329" 
d="M143 0v1434h324v-185h328q215 0 344 -134.5t129 -338.5q0 -209 -130 -345t-343 -136h-328v-295h-324zM467 582h264q209 0 209 194q0 91 -55 140t-154 49h-264v-383z" />
    <glyph glyph-name="germandbls" unicode="&#xdf;" horiz-adv-x="1402" 
d="M932 -18q-212 0 -327 104t-120 281h295q0 -129 152 -129q57 0 90 21t33 54q0 39 -33 62t-107 47l-131 41q-132 42 -199 111t-67 180q0 62 19.5 109.5t50.5 76.5t68.5 51.5t75 37.5t68.5 30t50.5 36t19.5 48q0 62 -57.5 92.5t-159.5 30.5q-113 0 -174 -57.5t-61 -164.5
v-1044h-316v1044q0 225 152 358.5t399 133.5q244 0 379 -107t135 -284q0 -66 -20 -118t-51.5 -83t-70 -54.5t-77 -38.5t-70 -28.5t-51.5 -30.5t-20 -40q0 -30 20.5 -46t59.5 -28l198 -64q141 -45 204 -118t63 -187q0 -147 -112.5 -237t-307.5 -90z" />
    <glyph glyph-name="agrave" unicode="&#xe0;" horiz-adv-x="1107" 
d="M512 1194l-238 299v20h328l135 -299v-20h-225zM426 -18q-176 0 -275.5 94t-99.5 241q0 154 107.5 242t322.5 88h230v58q0 59 -40 95t-124 36q-72 0 -114 -34t-42 -85h-295q0 77 28.5 143.5t83.5 118t144.5 81.5t204.5 30q216 0 342.5 -107.5t126.5 -277.5v-705h-283
l-22 96h-8q-99 -114 -287 -114zM506 227q94 0 149.5 47.5t55.5 116.5v45h-203q-72 0 -109 -28.5t-37 -73.5q0 -47 38 -77t106 -30z" />
    <glyph glyph-name="aacute" unicode="&#xe1;" horiz-adv-x="1107" 
d="M432 1194v20l135 299h328v-20l-238 -299h-225zM426 -18q-176 0 -275.5 94t-99.5 241q0 154 107.5 242t322.5 88h230v58q0 59 -40 95t-124 36q-72 0 -114 -34t-42 -85h-295q0 77 28.5 143.5t83.5 118t144.5 81.5t204.5 30q216 0 342.5 -107.5t126.5 -277.5v-705h-283
l-22 96h-8q-99 -114 -287 -114zM506 227q94 0 149.5 47.5t55.5 116.5v45h-203q-72 0 -109 -28.5t-37 -73.5q0 -47 38 -77t106 -30z" />
    <glyph glyph-name="acircumflex" unicode="&#xe2;" horiz-adv-x="1107" 
d="M215 1198v21l193 290h333l193 -290v-21h-242l-112 111h-9l-114 -111h-242zM426 -18q-176 0 -275.5 94t-99.5 241q0 154 107.5 242t322.5 88h230v58q0 59 -40 95t-124 36q-72 0 -114 -34t-42 -85h-295q0 77 28.5 143.5t83.5 118t144.5 81.5t204.5 30q216 0 342.5 -107.5
t126.5 -277.5v-705h-283l-22 96h-8q-99 -114 -287 -114zM506 227q94 0 149.5 47.5t55.5 116.5v45h-203q-72 0 -109 -28.5t-37 -73.5q0 -47 38 -77t106 -30z" />
    <glyph glyph-name="atilde" unicode="&#xe3;" horiz-adv-x="1107" 
d="M680 1194q-67 0 -139 37l-31 16q-52 27 -74 27q-24 0 -39.5 -19.5t-15.5 -56.5h-188v31q0 127 59.5 195.5t161.5 68.5q63 0 143 -39l33 -16q56 -27 74 -27q29 0 39 18.5t10 59.5h186v-31q0 -132 -53 -198t-166 -66zM426 -18q-176 0 -275.5 94t-99.5 241q0 154 107.5 242
t322.5 88h230v58q0 59 -40 95t-124 36q-72 0 -114 -34t-42 -85h-295q0 77 28.5 143.5t83.5 118t144.5 81.5t204.5 30q216 0 342.5 -107.5t126.5 -277.5v-705h-283l-22 96h-8q-99 -114 -287 -114zM506 227q94 0 149.5 47.5t55.5 116.5v45h-203q-72 0 -109 -28.5t-37 -73.5
q0 -47 38 -77t106 -30z" />
    <glyph glyph-name="adieresis" unicode="&#xe4;" horiz-adv-x="1107" 
d="M238 1229v266h264v-266h-264zM649 1229v266h264v-266h-264zM426 -18q-176 0 -275.5 94t-99.5 241q0 154 107.5 242t322.5 88h230v58q0 59 -40 95t-124 36q-72 0 -114 -34t-42 -85h-295q0 77 28.5 143.5t83.5 118t144.5 81.5t204.5 30q216 0 342.5 -107.5t126.5 -277.5
v-705h-283l-22 96h-8q-99 -114 -287 -114zM506 227q94 0 149.5 47.5t55.5 116.5v45h-203q-72 0 -109 -28.5t-37 -73.5q0 -47 38 -77t106 -30z" />
    <glyph glyph-name="aring" unicode="&#xe5;" horiz-adv-x="1107" 
d="M567 1163q-103 0 -171 65.5t-68 166.5q0 102 68 167.5t171 65.5q106 0 174 -65t68 -168q0 -101 -68 -166.5t-174 -65.5zM565 1309q41 0 66.5 24.5t25.5 61.5t-25.5 62.5t-66.5 25.5q-39 0 -63.5 -25.5t-24.5 -62.5t24.5 -61.5t63.5 -24.5zM426 -18q-176 0 -275.5 94
t-99.5 241q0 154 107.5 242t322.5 88h230v58q0 59 -40 95t-124 36q-72 0 -114 -34t-42 -85h-295q0 77 28.5 143.5t83.5 118t144.5 81.5t204.5 30q216 0 342.5 -107.5t126.5 -277.5v-705h-283l-22 96h-8q-99 -114 -287 -114zM506 227q94 0 149.5 47.5t55.5 116.5v45h-203
q-72 0 -109 -28.5t-37 -73.5q0 -47 38 -77t106 -30z" />
    <glyph glyph-name="ae" unicode="&#xe6;" horiz-adv-x="1794" 
d="M436 -18q-177 0 -281 94.5t-104 240.5q0 154 107.5 242t322.5 88h230v58q0 59 -40 95t-124 36q-72 0 -114 -34t-42 -85h-295q0 77 28.5 143.5t83.5 118t144.5 81.5t204.5 30q106 0 195 -32.5t147 -86.5h8q126 119 324 119q159 0 277 -70.5t176.5 -188t58.5 -264.5v-116
h-715q2 -98 54 -155.5t155 -57.5q80 0 125 31t61 75h306q-11 -74 -48.5 -138.5t-98 -115t-149.5 -79.5t-196 -29q-260 0 -395 178h-8q-127 -178 -398 -178zM1030 649h391q-5 81 -53 131.5t-137 50.5q-96 0 -146 -50t-55 -132zM506 227q94 0 149.5 47.5t55.5 116.5v45h-201
q-73 0 -110.5 -28.5t-37.5 -73.5q0 -47 38 -77t106 -30z" />
    <glyph glyph-name="ccedilla" unicode="&#xe7;" horiz-adv-x="1128" 
d="M582 258q75 0 122.5 46t55.5 118h317q-9 -177 -116 -296t-297 -140l-43 -60q90 -7 144 -59t54 -129q0 -90 -81 -147.5t-220 -57.5q-118 0 -195 57t-77 152h184q0 -25 25 -43t61 -18q40 0 68 16t28 45q0 28 -24 44.5t-66 16.5h-65l-51 64l63 125q-197 36 -307.5 182.5
t-110.5 362.5q0 249 140 401t391 152q116 0 208.5 -34t153 -94t94.5 -139.5t39 -173.5h-317q-8 72 -55.5 118t-122.5 46q-209 0 -209 -276q0 -279 209 -279z" />
    <glyph glyph-name="egrave" unicode="&#xe8;" horiz-adv-x="1138" 
d="M518 1194l-237 299v20h327l135 -299v-20h-225zM582 -18q-124 0 -225 43t-167.5 118.5t-102.5 175.5t-36 216q0 115 33.5 214.5t97.5 176t165 120.5t228 44q159 0 277 -70.5t176.5 -188t58.5 -264.5v-116h-714q2 -98 54 -155.5t155 -57.5q80 0 125 31t61 75h305
q-23 -154 -152.5 -258t-338.5 -104zM375 649h391q-5 81 -53 131.5t-138 50.5q-96 0 -145.5 -50t-54.5 -132z" />
    <glyph glyph-name="eacute" unicode="&#xe9;" horiz-adv-x="1138" 
d="M438 1194v20l135 299h328v-20l-237 -299h-226zM582 -18q-124 0 -225 43t-167.5 118.5t-102.5 175.5t-36 216q0 115 33.5 214.5t97.5 176t165 120.5t228 44q159 0 277 -70.5t176.5 -188t58.5 -264.5v-116h-714q2 -98 54 -155.5t155 -57.5q80 0 125 31t61 75h305
q-23 -154 -152.5 -258t-338.5 -104zM375 649h391q-5 81 -53 131.5t-138 50.5q-96 0 -145.5 -50t-54.5 -132z" />
    <glyph glyph-name="ecircumflex" unicode="&#xea;" horiz-adv-x="1138" 
d="M221 1198v21l193 290h334l192 -290v-21h-242l-112 111h-8l-115 -111h-242zM582 -18q-124 0 -225 43t-167.5 118.5t-102.5 175.5t-36 216q0 115 33.5 214.5t97.5 176t165 120.5t228 44q159 0 277 -70.5t176.5 -188t58.5 -264.5v-116h-714q2 -98 54 -155.5t155 -57.5
q80 0 125 31t61 75h305q-23 -154 -152.5 -258t-338.5 -104zM375 649h391q-5 81 -53 131.5t-138 50.5q-96 0 -145.5 -50t-54.5 -132z" />
    <glyph glyph-name="edieresis" unicode="&#xeb;" horiz-adv-x="1138" 
d="M244 1229v266h264v-266h-264zM655 1229v266h265v-266h-265zM582 -18q-124 0 -225 43t-167.5 118.5t-102.5 175.5t-36 216q0 115 33.5 214.5t97.5 176t165 120.5t228 44q159 0 277 -70.5t176.5 -188t58.5 -264.5v-116h-714q2 -98 54 -155.5t155 -57.5q80 0 125 31t61 75
h305q-23 -154 -152.5 -258t-338.5 -104zM375 649h391q-5 81 -53 131.5t-138 50.5q-96 0 -145.5 -50t-54.5 -132z" />
    <glyph glyph-name="igrave" unicode="&#xec;" horiz-adv-x="499" 
d="M203 1194l-238 299v20h328l135 -299v-20h-225zM102 0v1071h316v-1071h-316z" />
    <glyph glyph-name="iacute" unicode="&#xed;" horiz-adv-x="499" 
d="M123 1194v20l135 299h328v-20l-238 -299h-225zM102 0v1071h316v-1071h-316z" />
    <glyph glyph-name="icircumflex" unicode="&#xee;" horiz-adv-x="499" 
d="M-94 1198v21l192 290h334l193 -290v-21h-242l-113 111h-8l-115 -111h-241zM102 0v1071h316v-1071h-316z" />
    <glyph glyph-name="idieresis" unicode="&#xef;" horiz-adv-x="499" 
d="M-72 1229v266h265v-266h-265zM340 1229v266h264v-266h-264zM102 0v1071h316v-1071h-316z" />
    <glyph glyph-name="eth" unicode="&#xf0;" horiz-adv-x="1171" 
d="M1120 537v-2q0 -161 -60 -284.5t-182 -196t-292 -72.5q-255 0 -395 152.5t-140 400.5t141.5 401.5t393.5 153.5q29 0 53 -3q-49 61 -109 121l-260 -102l-61 156l178 71q-129 98 -248 162v21h301q81 -47 156 -101l235 94l62 -157l-148 -60q175 -161 274.5 -353t100.5 -398
v-2v-2zM586 258q213 0 213 277q0 142 -55.5 210t-157.5 68q-101 0 -157 -68.5t-56 -209.5t56 -209t157 -68z" />
    <glyph glyph-name="ntilde" unicode="&#xf1;" horiz-adv-x="1189" 
d="M788 1194q-67 0 -139 37l-31 16q-4 2 -15 8t-15 8t-12.5 5.5t-15.5 4.5t-15 1q-24 0 -40 -19.5t-16 -56.5h-188v31q0 127 59.5 195.5t161.5 68.5q64 0 144 -39l32 -16q56 -27 74 -27q29 0 39 18.5t10 59.5h187v-31q0 -131 -53 -197.5t-167 -66.5zM102 0v1071h283l25 -102
h8q102 121 293 121q179 0 288 -104.5t109 -280.5v-705h-315v606q0 197 -181 197q-86 0 -140 -57t-54 -152v-594h-316z" />
    <glyph glyph-name="ograve" unicode="&#xf2;" horiz-adv-x="1171" 
d="M528 1194l-237 299v20h327l136 -299v-20h-226zM586 -18q-255 0 -395 152.5t-140 400.5t141.5 401.5t393.5 153.5t393 -153.5t141 -401.5q0 -161 -60 -284.5t-182 -196t-292 -72.5zM586 258q213 0 213 277q0 142 -55.5 210t-157.5 68q-101 0 -157 -68.5t-56 -209.5
t56 -209t157 -68z" />
    <glyph glyph-name="oacute" unicode="&#xf3;" horiz-adv-x="1171" 
d="M449 1194v20l135 299h327v-20l-237 -299h-225zM586 -18q-255 0 -395 152.5t-140 400.5t141.5 401.5t393.5 153.5t393 -153.5t141 -401.5q0 -161 -60 -284.5t-182 -196t-292 -72.5zM586 258q213 0 213 277q0 142 -55.5 210t-157.5 68q-101 0 -157 -68.5t-56 -209.5
t56 -209t157 -68z" />
    <glyph glyph-name="ocircumflex" unicode="&#xf4;" horiz-adv-x="1171" 
d="M231 1198v21l193 290h334l192 -290v-21h-241l-113 111h-8l-115 -111h-242zM586 -18q-255 0 -395 152.5t-140 400.5t141.5 401.5t393.5 153.5t393 -153.5t141 -401.5q0 -161 -60 -284.5t-182 -196t-292 -72.5zM586 258q213 0 213 277q0 142 -55.5 210t-157.5 68
q-101 0 -157 -68.5t-56 -209.5t56 -209t157 -68z" />
    <glyph glyph-name="otilde" unicode="&#xf5;" horiz-adv-x="1171" 
d="M696 1194q-67 0 -139 37l-31 16q-4 2 -15 8t-15 8t-12.5 5.5t-15.5 4.5t-15 1q-24 0 -40 -19.5t-16 -56.5h-188v31q0 127 59.5 195.5t161.5 68.5q63 0 143 -39l33 -16q56 -27 74 -27q29 0 39 18.5t10 59.5h186v-31q0 -132 -53 -198t-166 -66zM586 -18q-255 0 -395 152.5
t-140 400.5t141.5 401.5t393.5 153.5t393 -153.5t141 -401.5q0 -161 -60 -284.5t-182 -196t-292 -72.5zM586 258q213 0 213 277q0 142 -55.5 210t-157.5 68q-101 0 -157 -68.5t-56 -209.5t56 -209t157 -68z" />
    <glyph glyph-name="odieresis" unicode="&#xf6;" horiz-adv-x="1171" 
d="M254 1229v266h264v-266h-264zM666 1229v266h264v-266h-264zM586 -18q-255 0 -395 152.5t-140 400.5t141.5 401.5t393.5 153.5t393 -153.5t141 -401.5q0 -161 -60 -284.5t-182 -196t-292 -72.5zM586 258q213 0 213 277q0 142 -55.5 210t-157.5 68q-101 0 -157 -68.5
t-56 -209.5t56 -209t157 -68z" />
    <glyph glyph-name="divide" unicode="&#xf7;" horiz-adv-x="1015" 
d="M508 866q-78 0 -119 44t-41 118q0 73 41.5 116.5t118.5 43.5q75 0 117.5 -44t42.5 -116q0 -73 -42.5 -117.5t-117.5 -44.5zM10 512v258h996v-258h-996zM508 94q-78 0 -119 44t-41 118q0 73 41.5 116.5t118.5 43.5q75 0 117.5 -44t42.5 -116q0 -73 -42.5 -117.5
t-117.5 -44.5z" />
    <glyph glyph-name="oslash" unicode="&#xf8;" horiz-adv-x="1171" 
d="M979 936q141 -150 141 -401q0 -161 -60 -284.5t-182 -196t-292 -72.5q-100 0 -193 26l-80 -127h-252v21l140 223q-150 150 -150 410q0 248 141.5 401.5t393.5 153.5q109 0 200 -31l68 106h256v-20zM373 535q0 -67 12 -117l246 391q-28 4 -45 4q-101 0 -157 -68.5
t-56 -209.5zM586 258q213 0 213 277q0 40 -8 102l-238 -377q10 -2 33 -2z" />
    <glyph glyph-name="ugrave" unicode="&#xf9;" horiz-adv-x="1185" 
d="M541 1194l-238 299v20h328l135 -299v-20h-225zM500 -18q-180 0 -289 104.5t-109 280.5v704h316v-606q0 -197 180 -197q86 0 140.5 57t54.5 152v594h315v-1071h-283l-24 102h-8q-101 -120 -293 -120z" />
    <glyph glyph-name="uacute" unicode="&#xfa;" horiz-adv-x="1185" 
d="M461 1194v20l135 299h328v-20l-238 -299h-225zM500 -18q-180 0 -289 104.5t-109 280.5v704h316v-606q0 -197 180 -197q86 0 140.5 57t54.5 152v594h315v-1071h-283l-24 102h-8q-101 -120 -293 -120z" />
    <glyph glyph-name="ucircumflex" unicode="&#xfb;" horiz-adv-x="1185" 
d="M244 1198v21l192 290h334l193 -290v-21h-242l-113 111h-8l-115 -111h-241zM500 -18q-180 0 -289 104.5t-109 280.5v704h316v-606q0 -197 180 -197q86 0 140.5 57t54.5 152v594h315v-1071h-283l-24 102h-8q-101 -120 -293 -120z" />
    <glyph glyph-name="udieresis" unicode="&#xfc;" horiz-adv-x="1185" 
d="M266 1229v266h264v-266h-264zM678 1229v266h264v-266h-264zM500 -18q-180 0 -289 104.5t-109 280.5v704h316v-606q0 -197 180 -197q86 0 140.5 57t54.5 152v594h315v-1071h-283l-24 102h-8q-101 -120 -293 -120z" />
    <glyph glyph-name="yacute" unicode="&#xfd;" horiz-adv-x="1161" 
d="M463 1194v20l135 299h328v-20l-238 -299h-225zM20 1071h324l217 -760h8l232 760h340v-20l-539 -1520h-342v20l154 449h-54l-340 1051v20z" />
    <glyph glyph-name="thorn" unicode="&#xfe;" horiz-adv-x="1228" 
d="M711 1090q197 0 315.5 -155t118.5 -400q0 -244 -117.5 -398.5t-316.5 -154.5q-185 0 -285 120h-8v-571h-316v1985h316v-547h8q101 121 285 121zM614 258q58 0 100 21.5t65.5 61t34.5 87.5t11 107t-11.5 107.5t-35.5 87.5t-65.5 61t-98.5 22t-98.5 -22t-65.5 -61
t-35.5 -87.5t-11.5 -107.5t11 -107t34.5 -87.5t65.5 -61t100 -21.5z" />
    <glyph glyph-name="ydieresis" unicode="&#xff;" horiz-adv-x="1161" 
d="M268 1229v266h264v-266h-264zM680 1229v266h264v-266h-264zM20 1071h324l217 -760h8l232 760h340v-20l-539 -1520h-342v20l154 449h-54l-340 1051v20z" />
    <glyph glyph-name="Amacron" unicode="&#x100;" horiz-adv-x="1437" 
d="M1020 1833v-227h-600v227h600zM924 1434l493 -1414v-20h-356l-84 272h-533l-84 -272h-340v20l492 1414h412zM532 555h357l-174 557h-8z" />
    <glyph glyph-name="amacron" unicode="&#x101;" horiz-adv-x="1107" 
d="M272 1243v227h600v-227h-600zM426 -18q-176 0 -275.5 94t-99.5 241q0 154 107.5 242t322.5 88h230v58q0 59 -40 95t-124 36q-72 0 -114 -34t-42 -85h-295q0 77 28.5 143.5t83.5 118t144.5 81.5t204.5 30q216 0 342.5 -107.5t126.5 -277.5v-705h-283l-22 96h-8
q-99 -114 -287 -114zM506 227q94 0 149.5 47.5t55.5 116.5v45h-203q-72 0 -109 -28.5t-37 -73.5q0 -47 38 -77t106 -30z" />
    <glyph glyph-name="Abreve" unicode="&#x102;" horiz-adv-x="1437" 
d="M717 1561q-158 0 -244 79t-86 226h221q5 -103 109 -103q102 0 108 103h222q0 -148 -85 -226.5t-245 -78.5zM924 1434l493 -1414v-20h-356l-84 272h-533l-84 -272h-340v20l492 1414h412zM532 555h357l-174 557h-8z" />
    <glyph glyph-name="abreve" unicode="&#x103;" horiz-adv-x="1107" 
d="M569 1198q-157 0 -243 79t-86 226h221q5 -102 108 -102t109 102h221q0 -148 -85 -226.5t-245 -78.5zM426 -18q-176 0 -275.5 94t-99.5 241q0 154 107.5 242t322.5 88h230v58q0 59 -40 95t-124 36q-72 0 -114 -34t-42 -85h-295q0 77 28.5 143.5t83.5 118t144.5 81.5
t204.5 30q216 0 342.5 -107.5t126.5 -277.5v-705h-283l-22 96h-8q-99 -114 -287 -114zM506 227q94 0 149.5 47.5t55.5 116.5v45h-203q-72 0 -109 -28.5t-37 -73.5q0 -47 38 -77t106 -30z" />
    <glyph glyph-name="Aogonek" unicode="&#x104;" horiz-adv-x="1437" 
d="M924 1434l493 -1414v-20h-2q-74 -29 -124 -82t-50 -111q0 -41 26.5 -63.5t73.5 -22.5h74v-188h-143q-68 0 -128.5 21.5t-104.5 72.5t-44 123q0 153 150 250h-84l-84 272h-533l-84 -272h-340v20l492 1414h412zM532 555h357l-174 557h-8z" />
    <glyph glyph-name="aogonek" unicode="&#x105;" horiz-adv-x="1107" 
d="M557 1090q216 0 342.5 -107.5t126.5 -277.5v-705h-2q-74 -29 -124 -82t-50 -111q0 -41 26.5 -63.5t73.5 -22.5h74v-188h-143q-68 0 -128.5 21.5t-104.5 72.5t-44 123q0 153 150 250h-11l-22 96h-8q-99 -114 -287 -114q-176 0 -275.5 94t-99.5 241q0 154 107.5 242
t322.5 88h230v58q0 59 -40 95t-124 36q-72 0 -114 -34t-42 -85h-295q0 77 28.5 143.5t83.5 118t144.5 81.5t204.5 30zM711 391v45h-203q-72 0 -109 -28.5t-37 -73.5q0 -47 38 -77t106 -30q94 0 149.5 47.5t55.5 116.5z" />
    <glyph glyph-name="Cacute" unicode="&#x106;" horiz-adv-x="1452" 
d="M618 1556v21l136 299h327v-21l-237 -299h-226zM756 -18q-168 0 -302 57t-219 157t-129.5 232t-44.5 287q0 157 44.5 290t129.5 233.5t218.5 157t302.5 56.5q134 0 250.5 -45t197.5 -121t130.5 -178t56.5 -215h-328q-10 113 -88 190.5t-219 77.5q-178 0 -272.5 -114.5
t-94.5 -331.5t94 -331t273 -114q135 0 211.5 72t97.5 184h326q-11 -111 -61 -209.5t-130 -173t-195.5 -118t-248.5 -43.5z" />
    <glyph glyph-name="cacute" unicode="&#x107;" horiz-adv-x="1128" 
d="M459 1194v20l135 299h328v-20l-238 -299h-225zM590 -18q-252 0 -395.5 153t-143.5 402t140 401t391 152q116 0 208.5 -34t153 -94t94.5 -139.5t39 -173.5h-317q-8 72 -55.5 118t-122.5 46q-209 0 -209 -276q0 -279 209 -279q75 0 122.5 46t55.5 118h317
q-11 -195 -137 -317.5t-350 -122.5z" />
    <glyph glyph-name="Ccircumflex" unicode="&#x108;" horiz-adv-x="1452" 
d="M401 1561v20l193 291h334l192 -291v-20h-241l-113 110h-8l-115 -110h-242zM756 -18q-168 0 -302 57t-219 157t-129.5 232t-44.5 287q0 157 44.5 290t129.5 233.5t218.5 157t302.5 56.5q134 0 250.5 -45t197.5 -121t130.5 -178t56.5 -215h-328q-10 113 -88 190.5
t-219 77.5q-178 0 -272.5 -114.5t-94.5 -331.5t94 -331t273 -114q135 0 211.5 72t97.5 184h326q-11 -111 -61 -209.5t-130 -173t-195.5 -118t-248.5 -43.5z" />
    <glyph glyph-name="ccircumflex" unicode="&#x109;" horiz-adv-x="1128" 
d="M242 1198v21l192 290h334l193 -290v-21h-242l-113 111h-8l-115 -111h-241zM590 -18q-252 0 -395.5 153t-143.5 402t140 401t391 152q116 0 208.5 -34t153 -94t94.5 -139.5t39 -173.5h-317q-8 72 -55.5 118t-122.5 46q-209 0 -209 -276q0 -279 209 -279q75 0 122.5 46
t55.5 118h317q-11 -195 -137 -317.5t-350 -122.5z" />
    <glyph glyph-name="Cdotaccent" unicode="&#x10a;" horiz-adv-x="1452" 
d="M590 1561v319h336v-319h-336zM756 -18q-168 0 -302 57t-219 157t-129.5 232t-44.5 287q0 157 44.5 290t129.5 233.5t218.5 157t302.5 56.5q134 0 250.5 -45t197.5 -121t130.5 -178t56.5 -215h-328q-10 113 -88 190.5t-219 77.5q-178 0 -272.5 -114.5t-94.5 -331.5
t94 -331t273 -114q135 0 211.5 72t97.5 184h326q-11 -111 -61 -209.5t-130 -173t-195.5 -118t-248.5 -43.5z" />
    <glyph glyph-name="cdotaccent" unicode="&#x10b;" horiz-adv-x="1128" 
d="M430 1198v320h336v-320h-336zM590 -18q-252 0 -395.5 153t-143.5 402t140 401t391 152q116 0 208.5 -34t153 -94t94.5 -139.5t39 -173.5h-317q-8 72 -55.5 118t-122.5 46q-209 0 -209 -276q0 -279 209 -279q75 0 122.5 46t55.5 118h317q-11 -195 -137 -317.5t-350 -122.5
z" />
    <glyph glyph-name="Ccaron" unicode="&#x10c;" horiz-adv-x="1452" 
d="M594 1561l-193 290v21h242l113 -111h8l115 111h241v-21l-192 -290h-334zM756 -18q-168 0 -302 57t-219 157t-129.5 232t-44.5 287q0 157 44.5 290t129.5 233.5t218.5 157t302.5 56.5q134 0 250.5 -45t197.5 -121t130.5 -178t56.5 -215h-328q-10 113 -88 190.5t-219 77.5
q-178 0 -272.5 -114.5t-94.5 -331.5t94 -331t273 -114q135 0 211.5 72t97.5 184h326q-11 -111 -61 -209.5t-130 -173t-195.5 -118t-248.5 -43.5z" />
    <glyph glyph-name="ccaron" unicode="&#x10d;" horiz-adv-x="1128" 
d="M434 1198l-192 291v20h241l113 -110h8l115 110h242v-20l-193 -291h-334zM590 -18q-252 0 -395.5 153t-143.5 402t140 401t391 152q116 0 208.5 -34t153 -94t94.5 -139.5t39 -173.5h-317q-8 72 -55.5 118t-122.5 46q-209 0 -209 -276q0 -279 209 -279q75 0 122.5 46
t55.5 118h317q-11 -195 -137 -317.5t-350 -122.5z" />
    <glyph glyph-name="Dcaron" unicode="&#x10e;" horiz-adv-x="1441" 
d="M498 1561l-193 290v21h242l112 -111h9l114 111h242v-21l-193 -290h-333zM143 0v1434h496q213 0 381.5 -89t264 -253t95.5 -375q0 -149 -53 -280.5t-148.5 -228t-235 -152.5t-304.5 -56h-496zM444 285h177q207 0 319.5 106.5t112.5 325.5q0 217 -112.5 323.5t-319.5 106.5
h-177v-862z" />
    <glyph glyph-name="dcaron" unicode="&#x10f;" 
d="M485 -18q-199 0 -316.5 154.5t-117.5 400.5q0 244 117.5 398.5t316.5 154.5q184 0 285 -121h8v547h316v-1516h-283l-33 102h-8q-100 -120 -285 -120zM1176 1167v349h307v-21l-103 -328h-204zM582 258q75 0 123.5 39.5t68 99.5t19.5 140q0 124 -49.5 200t-161.5 76
t-161.5 -76t-49.5 -200q0 -80 19.5 -140t68 -99.5t123.5 -39.5z" />
    <glyph glyph-name="Dcroat" unicode="&#x110;" horiz-adv-x="1525" 
d="M723 1434q213 0 381.5 -89t264 -253t95.5 -375q0 -149 -53 -280.5t-148.5 -228t-235 -152.5t-304.5 -56h-496v608h-145v269h145v557h496zM705 285q207 0 319.5 106.5t112.5 325.5q0 217 -112.5 323.5t-319.5 106.5h-177v-270h291v-269h-291v-323h177z" />
    <glyph glyph-name="dcroat" unicode="&#x111;" 
d="M1208 1393v-205h-114v-1188h-283l-33 102h-8q-100 -120 -285 -120q-199 0 -316.5 154.5t-117.5 400.5q0 244 117.5 398.5t316.5 154.5q184 0 285 -121h8v219h-233v205h233v123h316v-123h114zM582 258q75 0 123.5 39.5t68 99.5t19.5 140q0 124 -49.5 200t-161.5 76
t-161.5 -76t-49.5 -200q0 -80 19.5 -140t68 -99.5t123.5 -39.5z" />
    <glyph glyph-name="Emacron" unicode="&#x112;" horiz-adv-x="1249" 
d="M387 1606v227h600v-227h-600zM143 0v1434h1024v-287h-702v-264h639v-287h-639v-311h702v-285h-1024z" />
    <glyph glyph-name="emacron" unicode="&#x113;" horiz-adv-x="1138" 
d="M279 1243v227h600v-227h-600zM582 -18q-124 0 -225 43t-167.5 118.5t-102.5 175.5t-36 216q0 115 33.5 214.5t97.5 176t165 120.5t228 44q159 0 277 -70.5t176.5 -188t58.5 -264.5v-116h-714q2 -98 54 -155.5t155 -57.5q80 0 125 31t61 75h305q-23 -154 -152.5 -258
t-338.5 -104zM375 649h391q-5 81 -53 131.5t-138 50.5q-96 0 -145.5 -50t-54.5 -132z" />
    <glyph glyph-name="Ebreve" unicode="&#x114;" horiz-adv-x="1249" 
d="M684 1561q-158 0 -244 79t-86 226h221q5 -103 109 -103q103 0 109 103h221q0 -148 -85 -226.5t-245 -78.5zM143 0v1434h1024v-287h-702v-264h639v-287h-639v-311h702v-285h-1024z" />
    <glyph glyph-name="ebreve" unicode="&#x115;" horiz-adv-x="1138" 
d="M575 1198q-157 0 -243 79t-86 226h221q5 -102 108 -102t109 102h221q0 -148 -85 -226.5t-245 -78.5zM582 -18q-124 0 -225 43t-167.5 118.5t-102.5 175.5t-36 216q0 115 33.5 214.5t97.5 176t165 120.5t228 44q159 0 277 -70.5t176.5 -188t58.5 -264.5v-116h-714
q2 -98 54 -155.5t155 -57.5q80 0 125 31t61 75h305q-23 -154 -152.5 -258t-338.5 -104zM375 649h391q-5 81 -53 131.5t-138 50.5q-96 0 -145.5 -50t-54.5 -132z" />
    <glyph glyph-name="Edotaccent" unicode="&#x116;" horiz-adv-x="1249" 
d="M518 1561v319h336v-319h-336zM143 0v1434h1024v-287h-702v-264h639v-287h-639v-311h702v-285h-1024z" />
    <glyph glyph-name="edotaccent" unicode="&#x117;" horiz-adv-x="1138" 
d="M410 1198v320h335v-320h-335zM582 -18q-124 0 -225 43t-167.5 118.5t-102.5 175.5t-36 216q0 115 33.5 214.5t97.5 176t165 120.5t228 44q159 0 277 -70.5t176.5 -188t58.5 -264.5v-116h-714q2 -98 54 -155.5t155 -57.5q80 0 125 31t61 75h305q-23 -154 -152.5 -258
t-338.5 -104zM375 649h391q-5 81 -53 131.5t-138 50.5q-96 0 -145.5 -50t-54.5 -132z" />
    <glyph glyph-name="Eogonek" unicode="&#x118;" horiz-adv-x="1249" 
d="M1167 1147h-702v-264h639v-287h-639v-311h702v-285h-8q-74 -29 -124 -82t-50 -111q0 -41 26.5 -63.5t73.5 -22.5h74v-188h-143q-68 0 -128.5 21.5t-104.5 72.5t-44 123q0 153 150 250h-746v1434h1024v-287z" />
    <glyph glyph-name="eogonek" unicode="&#x119;" horiz-adv-x="1138" 
d="M1087 567v-116h-714q2 -98 54 -155.5t155 -57.5q80 0 125 31t61 75h305q-18 -120 -104 -213.5t-226 -130.5h5q-74 -29 -124.5 -82t-50.5 -111q0 -41 26.5 -63.5t74.5 -22.5h74v-188h-144q-68 0 -128.5 21.5t-104 72.5t-43.5 123q0 149 137 242q-194 36 -304 185.5
t-110 357.5q0 115 33.5 214.5t97.5 176t165 120.5t228 44q159 0 277 -70.5t176.5 -188t58.5 -264.5zM375 649h391q-5 81 -53 131.5t-138 50.5q-96 0 -145.5 -50t-54.5 -132z" />
    <glyph glyph-name="Ecaron" unicode="&#x11a;" horiz-adv-x="1249" 
d="M522 1561l-192 290v21h241l113 -111h8l115 111h242v-21l-193 -290h-334zM143 0v1434h1024v-287h-702v-264h639v-287h-639v-311h702v-285h-1024z" />
    <glyph glyph-name="ecaron" unicode="&#x11b;" horiz-adv-x="1138" 
d="M414 1198l-193 291v20h242l112 -110h9l114 110h242v-20l-192 -291h-334zM582 -18q-124 0 -225 43t-167.5 118.5t-102.5 175.5t-36 216q0 115 33.5 214.5t97.5 176t165 120.5t228 44q159 0 277 -70.5t176.5 -188t58.5 -264.5v-116h-714q2 -98 54 -155.5t155 -57.5
q80 0 125 31t61 75h305q-23 -154 -152.5 -258t-338.5 -104zM375 649h391q-5 81 -53 131.5t-138 50.5q-96 0 -145.5 -50t-54.5 -132z" />
    <glyph glyph-name="Gcircumflex" unicode="&#x11c;" horiz-adv-x="1462" 
d="M401 1561v20l193 291h334l192 -291v-20h-241l-113 110h-8l-115 -110h-242zM756 -18q-168 0 -302 57t-219 157t-129.5 232t-44.5 287q0 157 44.5 290t129.5 233.5t218.5 157t302.5 56.5q178 0 319 -71t220.5 -187.5t95.5 -259.5h-328q-20 99 -93.5 163t-213.5 64
q-178 0 -272.5 -114.5t-94.5 -331.5t94 -331t273 -114q135 0 210 61t99 158h-268v285h604v-162q0 -284 -180.5 -457t-464.5 -173z" />
    <glyph glyph-name="gcircumflex" unicode="&#x11d;" 
d="M209 1198v21l192 290h334l193 -290v-21h-242l-113 111h-8l-114 -111h-242zM569 -487q-217 0 -350 107t-137 288h309q6 -54 55.5 -89.5t122.5 -35.5q101 0 155 47.5t54 122.5v149h-8q-100 -120 -285 -120q-199 0 -316.5 154.5t-117.5 398.5q0 246 117.5 400.5t316.5 154.5
q184 0 285 -121h8l33 102h283v-1122q0 -131 -69 -231t-187.5 -152.5t-268.5 -52.5zM582 258q58 0 100 21.5t65.5 61t34.5 87.5t11 107t-11.5 107.5t-35.5 87.5t-65.5 61t-98.5 22t-98.5 -22t-65.5 -61t-35.5 -87.5t-11.5 -107.5t11 -107t34.5 -87.5t65.5 -61t100 -21.5z" />
    <glyph glyph-name="Gbreve" unicode="&#x11e;" horiz-adv-x="1462" 
d="M756 1561q-158 0 -244 79t-86 226h221q5 -103 109 -103q102 0 108 103h221q0 -148 -84.5 -226.5t-244.5 -78.5zM756 -18q-168 0 -302 57t-219 157t-129.5 232t-44.5 287q0 157 44.5 290t129.5 233.5t218.5 157t302.5 56.5q178 0 319 -71t220.5 -187.5t95.5 -259.5h-328
q-20 99 -93.5 163t-213.5 64q-178 0 -272.5 -114.5t-94.5 -331.5t94 -331t273 -114q135 0 210 61t99 158h-268v285h604v-162q0 -284 -180.5 -457t-464.5 -173z" />
    <glyph glyph-name="gbreve" unicode="&#x11f;" 
d="M563 1198q-158 0 -244 79t-86 226h222q5 -102 108 -102t109 102h221q0 -148 -85 -226.5t-245 -78.5zM569 -487q-217 0 -350 107t-137 288h309q6 -54 55.5 -89.5t122.5 -35.5q101 0 155 47.5t54 122.5v149h-8q-100 -120 -285 -120q-199 0 -316.5 154.5t-117.5 398.5
q0 246 117.5 400.5t316.5 154.5q184 0 285 -121h8l33 102h283v-1122q0 -131 -69 -231t-187.5 -152.5t-268.5 -52.5zM582 258q58 0 100 21.5t65.5 61t34.5 87.5t11 107t-11.5 107.5t-35.5 87.5t-65.5 61t-98.5 22t-98.5 -22t-65.5 -61t-35.5 -87.5t-11.5 -107.5t11 -107
t34.5 -87.5t65.5 -61t100 -21.5z" />
    <glyph glyph-name="Gdotaccent" unicode="&#x120;" horiz-adv-x="1462" 
d="M590 1561v319h336v-319h-336zM756 -18q-168 0 -302 57t-219 157t-129.5 232t-44.5 287q0 157 44.5 290t129.5 233.5t218.5 157t302.5 56.5q178 0 319 -71t220.5 -187.5t95.5 -259.5h-328q-20 99 -93.5 163t-213.5 64q-178 0 -272.5 -114.5t-94.5 -331.5t94 -331t273 -114
q135 0 210 61t99 158h-268v285h604v-162q0 -284 -180.5 -457t-464.5 -173z" />
    <glyph glyph-name="gdotaccent" unicode="&#x121;" 
d="M397 1198v320h336v-320h-336zM569 -487q-217 0 -350 107t-137 288h309q6 -54 55.5 -89.5t122.5 -35.5q101 0 155 47.5t54 122.5v149h-8q-100 -120 -285 -120q-199 0 -316.5 154.5t-117.5 398.5q0 246 117.5 400.5t316.5 154.5q184 0 285 -121h8l33 102h283v-1122
q0 -131 -69 -231t-187.5 -152.5t-268.5 -52.5zM582 258q58 0 100 21.5t65.5 61t34.5 87.5t11 107t-11.5 107.5t-35.5 87.5t-65.5 61t-98.5 22t-98.5 -22t-65.5 -61t-35.5 -87.5t-11.5 -107.5t11 -107t34.5 -87.5t65.5 -61t100 -21.5z" />
    <glyph glyph-name="Gcommaaccent" unicode="&#x122;" horiz-adv-x="1462" 
d="M756 -18q-168 0 -302 57t-219 157t-129.5 232t-44.5 287q0 157 44.5 290t129.5 233.5t218.5 157t302.5 56.5q178 0 319 -71t220.5 -187.5t95.5 -259.5h-328q-20 99 -93.5 163t-213.5 64q-178 0 -272.5 -114.5t-94.5 -331.5t94 -331t273 -114q135 0 210 61t99 158h-268
v285h604v-162q0 -284 -180.5 -457t-464.5 -173zM563 -444v20l43 320h307v-21l-145 -319h-205z" />
    <glyph glyph-name="gcommaaccent" unicode="&#x123;" 
d="M739 1526v-21l-43 -319h-307v20l146 320h204zM569 -487q-217 0 -350 107t-137 288h309q6 -54 55.5 -89.5t122.5 -35.5q101 0 155 47.5t54 122.5v149h-8q-100 -120 -285 -120q-199 0 -316.5 154.5t-117.5 398.5q0 246 117.5 400.5t316.5 154.5q184 0 285 -121h8l33 102
h283v-1122q0 -131 -69 -231t-187.5 -152.5t-268.5 -52.5zM582 258q58 0 100 21.5t65.5 61t34.5 87.5t11 107t-11.5 107.5t-35.5 87.5t-65.5 61t-98.5 22t-98.5 -22t-65.5 -61t-35.5 -87.5t-11.5 -107.5t11 -107t34.5 -87.5t65.5 -61t100 -21.5z" />
    <glyph glyph-name="Hcircumflex" unicode="&#x124;" horiz-adv-x="1505" 
d="M760 1671l-115 -110h-242v20l193 291h334l192 -291v-20h-241l-113 110h-8zM1040 1434h322v-1434h-322v596h-575v-596h-322v1434h322v-549h575v549z" />
    <glyph glyph-name="hcircumflex" unicode="&#x125;" horiz-adv-x="1198" 
d="M-92 1642v21l192 291h334l193 -291v-21h-242l-113 111h-8l-114 -111h-242zM102 0v1516h316v-547h8q102 121 293 121q180 0 288.5 -104t108.5 -281v-705h-315v606q0 197 -180 197q-87 0 -145 -57t-58 -152v-594h-316z" />
    <glyph glyph-name="Hbar" unicode="&#x126;" horiz-adv-x="1710" 
d="M1567 1294v-268h-101v-1026h-321v596h-576v-596h-321v1026h-105v268h105v140h321v-140h576v140h321v-140h101zM1145 885v141h-576v-141h576z" />
    <glyph glyph-name="hbar" unicode="&#x127;" horiz-adv-x="1198" 
d="M719 1090q180 0 288.5 -104t108.5 -281v-705h-315v606q0 197 -180 197q-87 0 -145 -57t-58 -152v-594h-316v1188h-114v205h114v123h316v-123h233v-205h-233v-219h8q102 121 293 121z" />
    <glyph glyph-name="Itilde" unicode="&#x128;" horiz-adv-x="610" 
d="M420 1556q-67 0 -139 37l-31 17q-50 26 -74 26t-39.5 -19t-15.5 -56h-189v30q0 127 60 195.5t162 68.5q65 0 143 -38l33 -17q54 -26 73 -26q29 0 39.5 18t10.5 59h186v-30q0 -132 -53 -198.5t-166 -66.5zM143 0v1434h324v-1434h-324z" />
    <glyph glyph-name="itilde" unicode="&#x129;" horiz-adv-x="499" 
d="M371 1194q-68 0 -140 37l-30 16q-52 27 -74 27q-24 0 -39.5 -19.5t-15.5 -56.5h-189v31q0 127 59.5 195.5t161.5 68.5q64 0 144 -39l33 -16q56 -27 73 -27q29 0 39 18.5t10 59.5h187v-31q0 -132 -53 -198t-166 -66zM102 0v1071h316v-1071h-316z" />
    <glyph glyph-name="Imacron" unicode="&#x12a;" horiz-adv-x="610" 
d="M12 1606v227h600v-227h-600zM143 0v1434h324v-1434h-324z" />
    <glyph glyph-name="imacron" unicode="&#x12b;" horiz-adv-x="499" 
d="M-37 1243v227h600v-227h-600zM102 0v1071h316v-1071h-316z" />
    <glyph glyph-name="Ibreve" unicode="&#x12c;" horiz-adv-x="610" 
d="M309 1561q-157 0 -243 79t-86 226h221q5 -103 108 -103t109 103h221q0 -148 -85 -226.5t-245 -78.5zM143 0v1434h324v-1434h-324z" />
    <glyph glyph-name="ibreve" unicode="&#x12d;" horiz-adv-x="499" 
d="M260 1198q-158 0 -244 79t-86 226h222q5 -102 108 -102t109 102h221q0 -148 -85 -226.5t-245 -78.5zM102 0v1071h316v-1071h-316z" />
    <glyph glyph-name="Iogonek" unicode="&#x12e;" horiz-adv-x="610" 
d="M467 0q-74 -29 -124 -82t-50 -111q0 -41 26.5 -63.5t73.5 -22.5h74v-188h-143q-68 0 -128.5 21.5t-104.5 72.5t-44 123q0 153 150 250h-54v1434h324v-1434z" />
    <glyph glyph-name="iogonek" unicode="&#x12f;" horiz-adv-x="499" 
d="M94 1518h336v-320h-336v320zM102 0v1071h316v-1071q-74 -29 -124 -82t-50 -111q0 -41 26.5 -63.5t73.5 -22.5h74v-188h-144q-68 0 -128.5 21.5t-104 72.5t-43.5 123q0 154 149 250h-45z" />
    <glyph glyph-name="Idotaccent" unicode="&#x130;" horiz-adv-x="610" 
d="M143 1561v319h336v-319h-336zM143 0v1434h324v-1434h-324z" />
    <glyph glyph-name="dotlessi" unicode="&#x131;" horiz-adv-x="499" 
d="M102 0v1071h316v-1071h-316z" />
    <glyph glyph-name="IJ" unicode="&#x132;" horiz-adv-x="1730" 
d="M143 0v1434h324v-1434h-324zM1112 -18q-116 0 -208.5 35.5t-151.5 97t-90 142t-31 173.5h313q2 -74 44 -115t128 -41t127 48t41 127v985h324v-985q0 -206 -130.5 -336.5t-365.5 -130.5z" />
    <glyph glyph-name="ij" unicode="&#x133;" horiz-adv-x="1007" 
d="M92 1198v320h336v-320h-336zM600 1198v320h336v-320h-336zM102 0v1071h316v-1071h-316zM397 -487v294h78q135 0 135 150v1114h316v-1194q0 -174 -109 -269t-276 -95h-144z" />
    <glyph glyph-name="Jcircumflex" unicode="&#x134;" horiz-adv-x="1120" 
d="M473 1561v20l193 291h333l193 -291v-20h-242l-112 110h-9l-114 -110h-242zM502 -18q-228 0 -355 128t-127 320h314q2 -74 44 -115t128 -41t127 48t41 127v985h323v-985q0 -206 -130 -336.5t-365 -130.5z" />
    <glyph glyph-name="jcircumflex" unicode="&#x135;" horiz-adv-x="507" 
d="M-94 1198v21l192 290h334l193 -290v-21h-242l-113 111h-8l-115 -111h-241zM-102 -487v294h77q136 0 136 150v1114h315v-1194q0 -174 -109 -269t-276 -95h-143z" />
    <glyph glyph-name="Kcommaaccent" unicode="&#x136;" horiz-adv-x="1384" 
d="M723 745l641 -725v-20h-381l-518 594v-594h-322v1434h322v-543l498 543h376v-21zM524 -424l43 320h307v-21l-145 -319h-205v20z" />
    <glyph glyph-name="kcommaaccent" unicode="&#x137;" horiz-adv-x="1148" 
d="M672 565l456 -545v-20h-380l-351 438v-438h-295v1516h295v-834l340 389h369v-20zM379 -424l43 320h307v-21l-145 -319h-205v20z" />
    <glyph glyph-name="kgreenlandic" unicode="&#x138;" horiz-adv-x="1148" 
d="M672 565l456 -545v-20h-380l-351 438v-438h-295v1071h295v-389l340 389h369v-20z" />
    <glyph glyph-name="Lacute" unicode="&#x139;" horiz-adv-x="1136" 
d="M164 1556v21l135 299h328v-21l-238 -299h-225zM143 0v1434h322v-1147h651v-287h-973z" />
    <glyph glyph-name="lacute" unicode="&#x13a;" horiz-adv-x="499" 
d="M115 1638v21l135 299h328v-21l-238 -299h-225zM102 0v1516h316v-1516h-316z" />
    <glyph glyph-name="Lcommaaccent" unicode="&#x13b;" horiz-adv-x="1136" 
d="M143 0v1434h322v-1147h651v-287h-973zM436 -444v20l43 320h307v-21l-145 -319h-205z" />
    <glyph glyph-name="lcommaaccent" unicode="&#x13c;" horiz-adv-x="499" 
d="M102 0v1516h316v-1516h-316zM61 -444v20l43 320h308v-21l-146 -319h-205z" />
    <glyph glyph-name="Lcaron" unicode="&#x13d;" horiz-adv-x="1136" 
d="M143 0v1434h322v-1147h651v-287h-973zM676 1085v349h307v-21l-102 -328h-205z" />
    <glyph glyph-name="lcaron" unicode="&#x13e;" horiz-adv-x="643" 
d="M102 0v1516h316v-1516h-316zM500 1167v349h307v-21l-102 -328h-205z" />
    <glyph glyph-name="Ldot" unicode="&#x13f;" horiz-adv-x="1228" 
d="M143 0v1434h322v-1147h651v-287h-973zM639 594v319h336v-319h-336z" />
    <glyph glyph-name="ldot" unicode="&#x140;" horiz-adv-x="919" 
d="M102 0v1516h316v-1516h-316zM520 588v319h336v-319h-336z" />
    <glyph glyph-name="Lslash" unicode="&#x141;" horiz-adv-x="1280" 
d="M608 287h652v-287h-973v483l-123 -47h-21v260l144 56v682h321v-557l348 135h21v-264l-369 -142v-319z" />
    <glyph glyph-name="lslash" unicode="&#x142;" horiz-adv-x="731" 
d="M690 971v-244l-160 -72v-655h-315v516l-133 -59h-21v239l154 70v750h315v-609l140 64h20z" />
    <glyph glyph-name="Nacute" unicode="&#x143;" horiz-adv-x="1521" 
d="M680 1556v21l135 299h328v-21l-238 -299h-225zM143 0v1434h379l529 -936h8v936h319v-1434h-381l-528 930h-8v-930h-318z" />
    <glyph glyph-name="nacute" unicode="&#x144;" horiz-adv-x="1189" 
d="M541 1194v20l135 299h328v-20l-238 -299h-225zM102 0v1071h283l25 -102h8q102 121 293 121q179 0 288 -104.5t109 -280.5v-705h-315v606q0 197 -181 197q-86 0 -140 -57t-54 -152v-594h-316z" />
    <glyph glyph-name="Ncommaaccent" unicode="&#x145;" horiz-adv-x="1521" 
d="M143 0v1434h379l529 -936h8v936h319v-1434h-381l-528 930h-8v-930h-318zM545 -444v20l43 320h307v-21l-145 -319h-205z" />
    <glyph glyph-name="ncommaaccent" unicode="&#x146;" horiz-adv-x="1189" 
d="M102 0v1071h283l25 -102h8q102 121 293 121q179 0 288 -104.5t109 -280.5v-705h-315v606q0 197 -181 197q-86 0 -140 -57t-54 -152v-594h-316zM432 -444v20l43 320h307v-21l-145 -319h-205z" />
    <glyph glyph-name="Ncaron" unicode="&#x147;" horiz-adv-x="1521" 
d="M655 1561l-192 290v21h242l112 -111h8l115 111h242v-21l-193 -290h-334zM143 0v1434h379l529 -936h8v936h319v-1434h-381l-528 930h-8v-930h-318z" />
    <glyph glyph-name="ncaron" unicode="&#x148;" horiz-adv-x="1189" 
d="M516 1198l-192 291v20h241l113 -110h8l115 110h241v-20l-192 -291h-334zM102 0v1071h283l25 -102h8q102 121 293 121q179 0 288 -104.5t109 -280.5v-705h-315v606q0 197 -181 197q-86 0 -140 -57t-54 -152v-594h-316z" />
    <glyph glyph-name="napostrophe" unicode="&#x149;" horiz-adv-x="1251" 
d="M-225 948v21l63 506h346v-21l-168 -506h-241zM102 0v1071h283l25 -102h8q102 121 293 121q179 0 288 -104.5t109 -280.5v-705h-315v606q0 197 -181 197q-86 0 -140 -57t-54 -152v-594h-316z" />
    <glyph glyph-name="Eng" unicode="&#x14a;" horiz-adv-x="1521" 
d="M1059 1434h319v-1457q0 -206 -130 -336t-365 -130v292q89 0 132.5 48t43.5 126v23h-62l-528 930h-8v-930h-318v1434h379l529 -936h8v936z" />
    <glyph glyph-name="eng" unicode="&#x14b;" horiz-adv-x="1189" 
d="M711 1090q180 0 288.5 -104t108.5 -281v-828q0 -174 -109 -269t-276 -95q-69 0 -143 16v285q47 -7 77 -7q136 0 136 150v649q0 197 -181 197q-86 0 -140 -57t-54 -152v-594h-316v1071h283l25 -102h8q102 121 293 121z" />
    <glyph glyph-name="Omacron" unicode="&#x14c;" horiz-adv-x="1515" 
d="M461 1606v227h600v-227h-600zM758 -18q-169 0 -303.5 57t-219.5 157t-129.5 232.5t-44.5 288.5q0 124 27.5 234.5t84.5 202.5t139 158t196 103t250 37q169 0 302.5 -56.5t219 -156.5t130 -233t44.5 -289q0 -155 -44.5 -288t-130 -233t-219 -157t-302.5 -57zM758 272
q179 0 273.5 114t94.5 331q0 216 -94.5 330t-273.5 114q-180 0 -274.5 -113.5t-94.5 -330.5q0 -216 95 -330.5t274 -114.5z" />
    <glyph glyph-name="omacron" unicode="&#x14d;" horiz-adv-x="1171" 
d="M289 1243v227h600v-227h-600zM586 -18q-255 0 -395 152.5t-140 400.5t141.5 401.5t393.5 153.5t393 -153.5t141 -401.5q0 -161 -60 -284.5t-182 -196t-292 -72.5zM586 258q213 0 213 277q0 142 -55.5 210t-157.5 68q-101 0 -157 -68.5t-56 -209.5t56 -209t157 -68z" />
    <glyph glyph-name="Obreve" unicode="&#x14e;" horiz-adv-x="1515" 
d="M758 1561q-158 0 -244 79t-86 226h221q5 -103 109 -103q102 0 108 103h221q0 -148 -84.5 -226.5t-244.5 -78.5zM758 -18q-169 0 -303.5 57t-219.5 157t-129.5 232.5t-44.5 288.5q0 124 27.5 234.5t84.5 202.5t139 158t196 103t250 37q169 0 302.5 -56.5t219 -156.5
t130 -233t44.5 -289q0 -155 -44.5 -288t-130 -233t-219 -157t-302.5 -57zM758 272q179 0 273.5 114t94.5 331q0 216 -94.5 330t-273.5 114q-180 0 -274.5 -113.5t-94.5 -330.5q0 -216 95 -330.5t274 -114.5z" />
    <glyph glyph-name="obreve" unicode="&#x14f;" horiz-adv-x="1171" 
d="M586 1198q-158 0 -244 79t-86 226h221q5 -102 109 -102q102 0 108 102h221q0 -148 -84.5 -226.5t-244.5 -78.5zM586 -18q-255 0 -395 152.5t-140 400.5t141.5 401.5t393.5 153.5t393 -153.5t141 -401.5q0 -161 -60 -284.5t-182 -196t-292 -72.5zM586 258q213 0 213 277
q0 142 -55.5 210t-157.5 68q-101 0 -157 -68.5t-56 -209.5t56 -209t157 -68z" />
    <glyph glyph-name="Ohungarumlaut" unicode="&#x150;" horiz-adv-x="1515" 
d="M416 1556v21l94 299h328v-21l-217 -299h-205zM825 1556v21l95 299h327v-21l-217 -299h-205zM758 -18q-169 0 -303.5 57t-219.5 157t-129.5 232.5t-44.5 288.5q0 124 27.5 234.5t84.5 202.5t139 158t196 103t250 37q169 0 302.5 -56.5t219 -156.5t130 -233t44.5 -289
q0 -155 -44.5 -288t-130 -233t-219 -157t-302.5 -57zM758 272q179 0 273.5 114t94.5 331q0 216 -94.5 330t-273.5 114q-180 0 -274.5 -113.5t-94.5 -330.5q0 -216 95 -330.5t274 -114.5z" />
    <glyph glyph-name="ohungarumlaut" unicode="&#x151;" horiz-adv-x="1171" 
d="M244 1194v20l94 299h328v-20l-217 -299h-205zM653 1194v20l95 299h327v-20l-217 -299h-205zM586 -18q-255 0 -395 152.5t-140 400.5t141.5 401.5t393.5 153.5t393 -153.5t141 -401.5q0 -161 -60 -284.5t-182 -196t-292 -72.5zM586 258q213 0 213 277q0 142 -55.5 210
t-157.5 68q-101 0 -157 -68.5t-56 -209.5t56 -209t157 -68z" />
    <glyph glyph-name="OE" unicode="&#x152;" horiz-adv-x="2238" 
d="M2157 1147h-703v-264h639v-287h-639v-311h703v-285h-1024v78q-154 -96 -375 -96q-169 0 -303.5 57t-219.5 157t-129.5 232.5t-44.5 288.5q0 124 27.5 234.5t84.5 202.5t139 158t196 103t250 37q221 0 375 -96v78h1024v-287zM758 272q179 0 273.5 114t94.5 331
q0 216 -94.5 330t-273.5 114q-180 0 -274.5 -113.5t-94.5 -330.5q0 -216 95 -330.5t274 -114.5z" />
    <glyph glyph-name="oe" unicode="&#x153;" horiz-adv-x="1886" 
d="M1835 567v-116h-715q2 -98 54 -155.5t155 -57.5q80 0 125.5 31t61.5 75h305q-11 -74 -48.5 -138.5t-98 -115t-149.5 -79.5t-196 -29q-223 0 -362 139q-142 -139 -381 -139q-255 0 -395 152.5t-140 400.5t141.5 401.5t393.5 153.5q236 0 377 -138q138 138 360 138
q159 0 277 -70.5t176.5 -188t58.5 -264.5zM1122 649h391q-5 81 -53 131.5t-137 50.5q-96 0 -146 -50t-55 -132zM586 258q213 0 213 277q0 142 -55.5 210t-157.5 68q-101 0 -157 -68.5t-56 -209.5t56 -209t157 -68z" />
    <glyph glyph-name="Racute" unicode="&#x154;" horiz-adv-x="1372" 
d="M1008 1855l-238 -299h-225v21l135 299h328v-21zM1006 545l346 -525v-20h-377l-309 506h-201v-506h-322v1434h656q111 0 204.5 -37t155 -100t95.5 -145.5t34 -174.5q0 -153 -75 -266t-207 -166zM465 1147v-354h317q90 0 133 53t43 129q0 72 -44 122t-132 50h-317z" />
    <glyph glyph-name="racute" unicode="&#x155;" horiz-adv-x="796" 
d="M289 1194v20l135 299h328v-20l-238 -299h-225zM102 0v1071h263l24 -156h8q39 77 108.5 126t166.5 49h73v-289h-102q-113 0 -179.5 -72.5t-66.5 -200.5v-528h-295z" />
    <glyph glyph-name="Rcommaaccent" unicode="&#x156;" horiz-adv-x="1372" 
d="M1006 545l346 -525v-20h-377l-309 506h-201v-506h-322v1434h656q111 0 204.5 -37t155 -100t95.5 -145.5t34 -174.5q0 -153 -75 -266t-207 -166zM465 1147v-354h317q90 0 133 53t43 129q0 72 -44 122t-132 50h-317zM528 -424l43 320h308v-21l-146 -319h-205v20z" />
    <glyph glyph-name="rcommaaccent" unicode="&#x157;" horiz-adv-x="796" 
d="M102 0v1071h263l24 -156h8q39 77 108.5 126t166.5 49h73v-289h-102q-113 0 -179.5 -72.5t-66.5 -200.5v-528h-295zM150 -444v20l43 320h307v-21l-146 -319h-204z" />
    <glyph glyph-name="Rcaron" unicode="&#x158;" horiz-adv-x="1372" 
d="M854 1561h-334l-192 290v21h241l113 -111h8l115 111h242v-21zM1006 545l346 -525v-20h-377l-309 506h-201v-506h-322v1434h656q111 0 204.5 -37t155 -100t95.5 -145.5t34 -174.5q0 -153 -75 -266t-207 -166zM465 1147v-354h317q90 0 133 53t43 129q0 72 -44 122t-132 50
h-317z" />
    <glyph glyph-name="rcaron" unicode="&#x159;" horiz-adv-x="796" 
d="M264 1198l-192 291v20h241l113 -110h8l115 110h242v-20l-193 -291h-334zM102 0v1071h263l24 -156h8q39 77 108.5 126t166.5 49h73v-289h-102q-113 0 -179.5 -72.5t-66.5 -200.5v-528h-295z" />
    <glyph glyph-name="Sacute" unicode="&#x15a;" horiz-adv-x="1294" 
d="M510 1556v21l135 299h328v-21l-238 -299h-225zM645 -18q-281 0 -435.5 136t-168.5 374h326q10 -114 83.5 -170t194.5 -56q268 0 268 148q0 60 -40 95.5t-134 55.5l-209 45q-79 17 -141.5 38.5t-120.5 56.5t-96.5 80.5t-61 110t-22.5 144.5q0 183 153.5 297.5t405.5 114.5
q162 0 292.5 -59t204.5 -166t75 -242h-326q-7 78 -69 129t-181 51q-116 0 -170.5 -37t-54.5 -88q0 -47 35 -80t127 -53l194 -41q85 -18 151.5 -40.5t128 -58.5t101.5 -83t64 -113.5t24 -148.5q0 -99 -33.5 -177.5t-103.5 -138t-187 -92t-274 -32.5z" />
    <glyph glyph-name="sacute" unicode="&#x15b;" horiz-adv-x="1046" 
d="M385 1194v20l135 299h328v-20l-238 -299h-225zM526 -18q-239 0 -354.5 102.5t-120.5 277.5h316q0 -49 40 -83.5t119 -34.5q78 0 115 23t37 55q0 34 -26 53.5t-83 30.5l-157 30q-328 63 -328 336q0 137 116.5 227.5t323.5 90.5q204 0 325.5 -102.5t121.5 -256.5h-312
q2 43 -33 77t-108 34q-57 0 -91 -21t-34 -53q0 -58 80 -74l205 -39q68 -13 120 -34t99 -58t72.5 -97.5t25.5 -141.5q0 -162 -129.5 -252t-339.5 -90z" />
    <glyph glyph-name="Scircumflex" unicode="&#x15c;" horiz-adv-x="1294" 
d="M293 1561v20l192 291h334l193 -291v-20h-242l-113 110h-8l-114 -110h-242zM645 -18q-281 0 -435.5 136t-168.5 374h326q10 -114 83.5 -170t194.5 -56q268 0 268 148q0 60 -40 95.5t-134 55.5l-209 45q-79 17 -141.5 38.5t-120.5 56.5t-96.5 80.5t-61 110t-22.5 144.5
q0 183 153.5 297.5t405.5 114.5q162 0 292.5 -59t204.5 -166t75 -242h-326q-7 78 -69 129t-181 51q-116 0 -170.5 -37t-54.5 -88q0 -47 35 -80t127 -53l194 -41q85 -18 151.5 -40.5t128 -58.5t101.5 -83t64 -113.5t24 -148.5q0 -99 -33.5 -177.5t-103.5 -138t-187 -92
t-274 -32.5z" />
    <glyph glyph-name="scircumflex" unicode="&#x15d;" horiz-adv-x="1046" 
d="M168 1198v21l192 290h334l193 -290v-21h-242l-113 111h-8l-114 -111h-242zM526 -18q-239 0 -354.5 102.5t-120.5 277.5h316q0 -49 40 -83.5t119 -34.5q78 0 115 23t37 55q0 34 -26 53.5t-83 30.5l-157 30q-328 63 -328 336q0 137 116.5 227.5t323.5 90.5
q204 0 325.5 -102.5t121.5 -256.5h-312q2 43 -33 77t-108 34q-57 0 -91 -21t-34 -53q0 -58 80 -74l205 -39q68 -13 120 -34t99 -58t72.5 -97.5t25.5 -141.5q0 -162 -129.5 -252t-339.5 -90z" />
    <glyph glyph-name="Scedilla" unicode="&#x15e;" horiz-adv-x="1294" 
d="M1243 422q0 -89 -27.5 -162t-85 -131t-152 -95t-222.5 -48l-43 -60q90 -7 144 -59t54 -129q0 -90 -81 -147.5t-220 -57.5q-118 0 -195 57t-77 152h184q0 -25 25 -43t61 -18q40 0 68.5 16t28.5 45q0 28 -24.5 44.5t-66.5 16.5h-65l-51 64l59 119q-240 21 -372 154.5
t-144 351.5h326q10 -114 83.5 -170t194.5 -56q268 0 268 148q0 60 -40 95.5t-134 55.5l-209 45q-79 17 -141.5 38.5t-120.5 56.5t-96.5 80.5t-61 110t-22.5 144.5q0 183 153.5 297.5t405.5 114.5q162 0 292.5 -59t204.5 -166t75 -242h-326q-7 78 -69 129t-181 51
q-116 0 -170.5 -37t-54.5 -88q0 -47 35 -80t127 -53l194 -41q85 -18 151.5 -40.5t128 -58.5t101.5 -83t64 -113.5t24 -148.5z" />
    <glyph glyph-name="scedilla" unicode="&#x15f;" horiz-adv-x="1046" 
d="M995 324q0 -144 -102.5 -231.5t-276.5 -106.5l-43 -60q90 -7 144.5 -59t54.5 -129q0 -90 -81 -147.5t-220 -57.5q-118 0 -195 57t-77 152h184q0 -25 25 -43t61 -18q40 0 68 16t28 45q0 28 -24 44.5t-66 16.5h-65l-52 64l62 121q-184 22 -274 121t-95 253h316
q0 -49 40 -83.5t119 -34.5q78 0 115 23t37 55q0 34 -26 53.5t-83 30.5l-157 30q-328 63 -328 336q0 137 116.5 227.5t323.5 90.5q204 0 325.5 -102.5t121.5 -256.5h-312q2 43 -33 77t-108 34q-57 0 -91 -21t-34 -53q0 -58 80 -74l205 -39q68 -13 120 -34t99 -58t72.5 -97.5
t25.5 -141.5z" />
    <glyph glyph-name="Scaron" unicode="&#x160;" horiz-adv-x="1294" 
d="M485 1561l-192 290v21h242l112 -111h8l115 111h242v-21l-193 -290h-334zM645 -18q-281 0 -435.5 136t-168.5 374h326q10 -114 83.5 -170t194.5 -56q268 0 268 148q0 60 -40 95.5t-134 55.5l-209 45q-79 17 -141.5 38.5t-120.5 56.5t-96.5 80.5t-61 110t-22.5 144.5
q0 183 153.5 297.5t405.5 114.5q162 0 292.5 -59t204.5 -166t75 -242h-326q-7 78 -69 129t-181 51q-116 0 -170.5 -37t-54.5 -88q0 -47 35 -80t127 -53l194 -41q85 -18 151.5 -40.5t128 -58.5t101.5 -83t64 -113.5t24 -148.5q0 -99 -33.5 -177.5t-103.5 -138t-187 -92
t-274 -32.5z" />
    <glyph glyph-name="scaron" unicode="&#x161;" horiz-adv-x="1046" 
d="M360 1198l-192 291v20h242l112 -110h8l115 110h242v-20l-193 -291h-334zM526 -18q-239 0 -354.5 102.5t-120.5 277.5h316q0 -49 40 -83.5t119 -34.5q78 0 115 23t37 55q0 34 -26 53.5t-83 30.5l-157 30q-328 63 -328 336q0 137 116.5 227.5t323.5 90.5
q204 0 325.5 -102.5t121.5 -256.5h-312q2 43 -33 77t-108 34q-57 0 -91 -21t-34 -53q0 -58 80 -74l205 -39q68 -13 120 -34t99 -58t72.5 -97.5t25.5 -141.5q0 -162 -129.5 -252t-339.5 -90z" />
    <glyph glyph-name="uni0162" unicode="&#x162;" horiz-adv-x="1212" 
d="M444 0v1145h-413v289h1151v-289h-414v-1145h-324zM403 -444v20l43 320h308v-21l-146 -319h-205z" />
    <glyph glyph-name="uni0163" unicode="&#x163;" horiz-adv-x="882" 
d="M573 0q-178 0 -268 94t-90 248v461h-174v268h188v281h301v-281h256v-268h-256v-385q0 -75 33.5 -109.5t104.5 -34.5h123v-274h-218zM307 -444v20l43 320h307v-21l-145 -319h-205z" />
    <glyph glyph-name="Tcaron" unicode="&#x164;" horiz-adv-x="1212" 
d="M453 1561l-193 290v21h242l112 -111h9l114 111h242v-21l-193 -290h-333zM444 0v1145h-413v289h1151v-289h-414v-1145h-324z" />
    <glyph glyph-name="tcaron" unicode="&#x165;" horiz-adv-x="882" 
d="M643 1167v349h307v-21l-102 -328h-205zM573 0q-178 0 -268 94t-90 248v461h-174v268h188v281h301v-281h256v-268h-256v-385q0 -75 33.5 -109.5t104.5 -34.5h123v-274h-218z" />
    <glyph glyph-name="Tbar" unicode="&#x166;" horiz-adv-x="1228" 
d="M1182 1145h-414v-260h334v-269h-334v-616h-324v616h-317v269h317v260h-413v289h1151v-289z" />
    <glyph glyph-name="tbar" unicode="&#x167;" horiz-adv-x="882" 
d="M770 274h21v-262q-83 -30 -218 -30q-178 0 -268 94t-90 248v151h-174v205h174v123h-174v268h188v223l281 58h20v-281h256v-268h-256v-123h240v-205h-240v-76q0 -75 33.5 -109t104.5 -34q52 0 102 18z" />
    <glyph glyph-name="Utilde" unicode="&#x168;" horiz-adv-x="1462" 
d="M842 1556q-68 0 -140 37l-30 17q-50 26 -74 26t-39.5 -19t-15.5 -56h-189v30q0 127 59.5 195.5t161.5 68.5q66 0 144 -38l33 -17q54 -26 73 -26q29 0 39 18t10 59h187v-30q0 -132 -53 -198.5t-166 -66.5zM729 -18q-102 0 -192 23t-166 70.5t-131 116t-86 164.5t-31 211
v867h321v-863q0 -303 285 -303q287 0 287 303v863h323v-867q0 -143 -47 -256t-130 -184t-193 -108t-240 -37z" />
    <glyph glyph-name="utilde" unicode="&#x169;" horiz-adv-x="1185" 
d="M709 1194q-68 0 -140 37l-30 16q-52 27 -74 27q-24 0 -39.5 -19.5t-15.5 -56.5h-189v31q0 127 59.5 195.5t161.5 68.5q64 0 144 -39l32 -16q56 -27 74 -27q29 0 39 18.5t10 59.5h187v-31q0 -132 -53 -198t-166 -66zM500 -18q-180 0 -289 104.5t-109 280.5v704h316v-606
q0 -197 180 -197q86 0 140.5 57t54.5 152v594h315v-1071h-283l-24 102h-8q-101 -120 -293 -120z" />
    <glyph glyph-name="Umacron" unicode="&#x16a;" horiz-adv-x="1462" 
d="M434 1606v227h600v-227h-600zM729 -18q-102 0 -192 23t-166 70.5t-131 116t-86 164.5t-31 211v867h321v-863q0 -303 285 -303q287 0 287 303v863h323v-867q0 -143 -47 -256t-130 -184t-193 -108t-240 -37z" />
    <glyph glyph-name="umacron" unicode="&#x16b;" horiz-adv-x="1185" 
d="M301 1243v227h600v-227h-600zM500 -18q-180 0 -289 104.5t-109 280.5v704h316v-606q0 -197 180 -197q86 0 140.5 57t54.5 152v594h315v-1071h-283l-24 102h-8q-101 -120 -293 -120z" />
    <glyph glyph-name="Ubreve" unicode="&#x16c;" horiz-adv-x="1462" 
d="M731 1561q-158 0 -244 79t-86 226h222q5 -103 108 -103t109 103h221q0 -148 -85 -226.5t-245 -78.5zM729 -18q-102 0 -192 23t-166 70.5t-131 116t-86 164.5t-31 211v867h321v-863q0 -303 285 -303q287 0 287 303v863h323v-867q0 -143 -47 -256t-130 -184t-193 -108
t-240 -37z" />
    <glyph glyph-name="ubreve" unicode="&#x16d;" horiz-adv-x="1185" 
d="M598 1198q-158 0 -244 79t-86 226h221q5 -102 109 -102q103 0 109 102h221q0 -148 -85 -226.5t-245 -78.5zM500 -18q-180 0 -289 104.5t-109 280.5v704h316v-606q0 -197 180 -197q86 0 140.5 57t54.5 152v594h315v-1071h-283l-24 102h-8q-101 -120 -293 -120z" />
    <glyph glyph-name="Uring" unicode="&#x16e;" horiz-adv-x="1462" 
d="M729 1526q-103 0 -171.5 65t-68.5 166q0 102 68.5 168t171.5 66q106 0 174 -65.5t68 -168.5q0 -101 -68 -166t-174 -65zM727 1671q41 0 66.5 24.5t25.5 61.5t-25.5 62.5t-66.5 25.5q-39 0 -63.5 -25.5t-24.5 -62.5t24.5 -61.5t63.5 -24.5zM729 -18q-102 0 -192 23
t-166 70.5t-131 116t-86 164.5t-31 211v867h321v-863q0 -303 285 -303q287 0 287 303v863h323v-867q0 -143 -47 -256t-130 -184t-193 -108t-240 -37z" />
    <glyph glyph-name="uring" unicode="&#x16f;" horiz-adv-x="1185" 
d="M596 1163q-103 0 -171.5 65.5t-68.5 166.5q0 102 68.5 167.5t171.5 65.5q106 0 174 -65t68 -168q0 -101 -68 -166.5t-174 -65.5zM594 1309q41 0 66.5 24.5t25.5 61.5t-25.5 62.5t-66.5 25.5q-39 0 -63.5 -25.5t-24.5 -62.5t24.5 -61.5t63.5 -24.5zM500 -18
q-180 0 -289 104.5t-109 280.5v704h316v-606q0 -197 180 -197q86 0 140.5 57t54.5 152v594h315v-1071h-283l-24 102h-8q-101 -120 -293 -120z" />
    <glyph glyph-name="Uhungarumlaut" unicode="&#x170;" horiz-adv-x="1462" 
d="M389 1556v21l94 299h328v-21l-217 -299h-205zM799 1556v21l94 299h328v-21l-217 -299h-205zM729 -18q-102 0 -192 23t-166 70.5t-131 116t-86 164.5t-31 211v867h321v-863q0 -303 285 -303q287 0 287 303v863h323v-867q0 -143 -47 -256t-130 -184t-193 -108t-240 -37z
" />
    <glyph glyph-name="uhungarumlaut" unicode="&#x171;" horiz-adv-x="1185" 
d="M256 1194v20l94 299h328v-20l-217 -299h-205zM666 1194v20l94 299h327v-20l-217 -299h-204zM500 -18q-180 0 -289 104.5t-109 280.5v704h316v-606q0 -197 180 -197q86 0 140.5 57t54.5 152v594h315v-1071h-283l-24 102h-8q-101 -120 -293 -120z" />
    <glyph glyph-name="Uogonek" unicode="&#x172;" horiz-adv-x="1462" 
d="M1016 1434h323v-867q0 -233 -118 -377.5t-318 -189.5h2q-74 -29 -124 -82t-50 -111q0 -41 26.5 -63.5t73.5 -22.5h74v-188h-143q-68 0 -128.5 21.5t-104.5 72.5t-44 123q0 143 133 240q-223 31 -359 178.5t-136 398.5v867h321v-863q0 -303 285 -303q287 0 287 303v863z
" />
    <glyph glyph-name="uogonek" unicode="&#x173;" horiz-adv-x="1185" 
d="M793 1071h315v-1071h-14q-74 -29 -124 -82t-50 -111q0 -41 26.5 -63.5t73.5 -22.5h74v-188h-144q-68 0 -128.5 21.5t-104 72.5t-43.5 123q0 153 151 252l-24 100h-8q-101 -120 -293 -120q-180 0 -289 104.5t-109 280.5v704h316v-606q0 -197 180 -197q86 0 140.5 57
t54.5 152v594z" />
    <glyph glyph-name="Wcircumflex" unicode="&#x174;" horiz-adv-x="1943" 
d="M614 1561v20l193 291h334l192 -291v-20h-241l-113 110h-8l-115 -110h-242zM348 0l-328 1413v21h347l190 -990h8l230 990h356l233 -990h9l188 990h342v-21l-328 -1413h-415l-201 948h-8l-207 -948h-416z" />
    <glyph glyph-name="wcircumflex" unicode="&#x175;" horiz-adv-x="1705" 
d="M506 1198v21l192 290h334l193 -290v-21h-242l-113 111h-8l-114 -111h-242zM283 0l-263 1051v20h310l162 -733h8l143 733h422l143 -733h9l161 733h308v-20l-263 -1051h-415l-148 733h-8l-154 -733h-415z" />
    <glyph glyph-name="Ycircumflex" unicode="&#x176;" horiz-adv-x="1429" 
d="M379 1561v20l192 291h334l193 -291v-20h-242l-113 110h-8l-114 -110h-242zM555 0v569l-535 844v21h375l320 -541h8l311 541h375v-21l-530 -840v-573h-324z" />
    <glyph glyph-name="ycircumflex" unicode="&#x177;" horiz-adv-x="1161" 
d="M246 1198v21l192 290h334l193 -290v-21h-242l-113 111h-8l-115 -111h-241zM20 1071h324l217 -760h8l232 760h340v-20l-539 -1520h-342v20l154 449h-54l-340 1051v20z" />
    <glyph glyph-name="Ydieresis" unicode="&#x178;" horiz-adv-x="1429" 
d="M401 1591v267h265v-267h-265zM813 1591v267h264v-267h-264zM555 0v569l-535 844v21h375l320 -541h8l311 541h375v-21l-530 -840v-573h-324z" />
    <glyph glyph-name="Zacute" unicode="&#x179;" horiz-adv-x="1222" 
d="M479 1556v21l135 299h328v-21l-237 -299h-226zM61 0v281l684 856v8h-665v289h1069v-285l-682 -854v-8h694v-287h-1100z" />
    <glyph glyph-name="zacute" unicode="&#x17a;" horiz-adv-x="1028" 
d="M397 1194v20l135 299h328v-20l-237 -299h-226zM72 0v264l493 531v8h-491v268h878v-266l-491 -529v-8h495v-268h-884z" />
    <glyph glyph-name="Zdotaccent" unicode="&#x17b;" horiz-adv-x="1222" 
d="M451 1561v319h335v-319h-335zM61 0v281l684 856v8h-665v289h1069v-285l-682 -854v-8h694v-287h-1100z" />
    <glyph glyph-name="zdotaccent" unicode="&#x17c;" horiz-adv-x="1028" 
d="M369 1198v320h336v-320h-336zM72 0v264l493 531v8h-491v268h878v-266l-491 -529v-8h495v-268h-884z" />
    <glyph glyph-name="Zcaron" unicode="&#x17d;" horiz-adv-x="1222" 
d="M455 1561l-193 290v21h242l112 -111h9l114 111h242v-21l-193 -290h-333zM61 0v281l684 856v8h-665v289h1069v-285l-682 -854v-8h694v-287h-1100z" />
    <glyph glyph-name="zcaron" unicode="&#x17e;" horiz-adv-x="1028" 
d="M373 1198l-193 291v20h242l113 -110h8l114 110h242v-20l-192 -291h-334zM72 0v264l493 531v8h-491v268h878v-266l-491 -529v-8h495v-268h-884z" />
    <glyph glyph-name="florin" unicode="&#x192;" horiz-adv-x="989" 
d="M80 -469v20l158 1027h-197v266h240l34 227q32 210 147.5 311t328.5 101h157v-271h-125q-174 0 -200 -176l-29 -192h268v-266h-309l-158 -1047h-315z" />
    <glyph glyph-name="uni01CD" unicode="&#x1cd;" horiz-adv-x="1437" 
d="M889 1561h-334l-193 290v21h242l113 -111h8l115 111h241v-21zM924 1434l493 -1414v-20h-356l-84 272h-533l-84 -272h-340v20l492 1414h412zM532 555h357l-174 557h-8z" />
    <glyph glyph-name="uni01CE" unicode="&#x1ce;" horiz-adv-x="1107" 
d="M408 1198l-193 291v20h242l112 -110h9l114 110h242v-20l-193 -291h-333zM426 -18q-176 0 -275.5 94t-99.5 241q0 154 107.5 242t322.5 88h230v58q0 59 -40 95t-124 36q-72 0 -114 -34t-42 -85h-295q0 77 28.5 143.5t83.5 118t144.5 81.5t204.5 30q216 0 342.5 -107.5
t126.5 -277.5v-705h-283l-22 96h-8q-99 -114 -287 -114zM506 227q94 0 149.5 47.5t55.5 116.5v45h-203q-72 0 -109 -28.5t-37 -73.5q0 -47 38 -77t106 -30z" />
    <glyph glyph-name="uni01CF" unicode="&#x1cf;" horiz-adv-x="610" 
d="M147 1561l-192 290v21h242l112 -111h8l115 111h242v-21l-193 -290h-334zM143 0v1434h324v-1434h-324z" />
    <glyph glyph-name="uni01D0" unicode="&#x1d0;" horiz-adv-x="499" 
d="M98 1198l-192 291v20h241l113 -110h8l115 110h242v-20l-193 -291h-334zM102 0v1071h316v-1071h-316z" />
    <glyph glyph-name="uni01D1" unicode="&#x1d1;" horiz-adv-x="1515" 
d="M596 1561l-193 290v21h242l113 -111h8l115 111h241v-21l-192 -290h-334zM758 -18q-169 0 -303.5 57t-219.5 157t-129.5 232.5t-44.5 288.5q0 124 27.5 234.5t84.5 202.5t139 158t196 103t250 37q169 0 302.5 -56.5t219 -156.5t130 -233t44.5 -289q0 -155 -44.5 -288
t-130 -233t-219 -157t-302.5 -57zM758 272q179 0 273.5 114t94.5 331q0 216 -94.5 330t-273.5 114q-180 0 -274.5 -113.5t-94.5 -330.5q0 -216 95 -330.5t274 -114.5z" />
    <glyph glyph-name="uni01D2" unicode="&#x1d2;" horiz-adv-x="1171" 
d="M424 1198l-193 291v20h242l113 -110h8l115 110h241v-20l-192 -291h-334zM586 -18q-255 0 -395 152.5t-140 400.5t141.5 401.5t393.5 153.5t393 -153.5t141 -401.5q0 -161 -60 -284.5t-182 -196t-292 -72.5zM586 258q213 0 213 277q0 142 -55.5 210t-157.5 68
q-101 0 -157 -68.5t-56 -209.5t56 -209t157 -68z" />
    <glyph glyph-name="Gcaron" unicode="&#x1e6;" horiz-adv-x="1462" 
d="M594 1561l-193 290v21h242l113 -111h8l115 111h241v-21l-192 -290h-334zM756 -18q-168 0 -302 57t-219 157t-129.5 232t-44.5 287q0 157 44.5 290t129.5 233.5t218.5 157t302.5 56.5q178 0 319 -71t220.5 -187.5t95.5 -259.5h-328q-20 99 -93.5 163t-213.5 64
q-178 0 -272.5 -114.5t-94.5 -331.5t94 -331t273 -114q135 0 210 61t99 158h-268v285h604v-162q0 -284 -180.5 -457t-464.5 -173z" />
    <glyph glyph-name="gcaron" unicode="&#x1e7;" 
d="M401 1198l-192 291v20h242l112 -110h8l115 110h242v-20l-193 -291h-334zM569 -487q-217 0 -350 107t-137 288h309q6 -54 55.5 -89.5t122.5 -35.5q101 0 155 47.5t54 122.5v149h-8q-100 -120 -285 -120q-199 0 -316.5 154.5t-117.5 398.5q0 246 117.5 400.5t316.5 154.5
q184 0 285 -121h8l33 102h283v-1122q0 -131 -69 -231t-187.5 -152.5t-268.5 -52.5zM582 258q58 0 100 21.5t65.5 61t34.5 87.5t11 107t-11.5 107.5t-35.5 87.5t-65.5 61t-98.5 22t-98.5 -22t-65.5 -61t-35.5 -87.5t-11.5 -107.5t11 -107t34.5 -87.5t65.5 -61t100 -21.5z" />
    <glyph glyph-name="Scommaaccent" unicode="&#x218;" horiz-adv-x="1294" 
d="M645 -18q-281 0 -435.5 136t-168.5 374h326q10 -114 83.5 -170t194.5 -56q268 0 268 148q0 60 -40 95.5t-134 55.5l-209 45q-79 17 -141.5 38.5t-120.5 56.5t-96.5 80.5t-61 110t-22.5 144.5q0 183 153.5 297.5t405.5 114.5q162 0 292.5 -59t204.5 -166t75 -242h-326
q-7 78 -69 129t-181 51q-116 0 -170.5 -37t-54.5 -88q0 -47 35 -80t127 -53l194 -41q85 -18 151.5 -40.5t128 -58.5t101.5 -83t64 -113.5t24 -148.5q0 -99 -33.5 -177.5t-103.5 -138t-187 -92t-274 -32.5zM459 -444v20l43 320h307v-21l-145 -319h-205z" />
    <glyph glyph-name="scommaaccent" unicode="&#x219;" horiz-adv-x="1046" 
d="M526 -18q-239 0 -354.5 102.5t-120.5 277.5h316q0 -49 40 -83.5t119 -34.5q78 0 115 23t37 55q0 34 -26 53.5t-83 30.5l-157 30q-328 63 -328 336q0 137 116.5 227.5t323.5 90.5q204 0 325.5 -102.5t121.5 -256.5h-312q2 43 -33 77t-108 34q-57 0 -91 -21t-34 -53
q0 -58 80 -74l205 -39q68 -13 120 -34t99 -58t72.5 -97.5t25.5 -141.5q0 -162 -129.5 -252t-339.5 -90zM319 -444v20l43 320h308v-21l-146 -319h-205z" />
    <glyph glyph-name="uni021A" unicode="&#x21a;" horiz-adv-x="1212" 
d="M768 0h-57l-54 -74q90 -7 144.5 -59t54.5 -129q0 -90 -81 -147.5t-220 -57.5q-118 0 -195 57t-77 152h184q0 -25 25 -43t61 -18q40 0 68 16t28 45q0 28 -24 44.5t-66 16.5h-65l-52 64l68 133h-66v1145h-413v289h1151v-289h-414v-1145z" />
    <glyph glyph-name="uni021B" unicode="&#x21b;" horiz-adv-x="882" 
d="M791 0h-177l-53 -74q90 -7 144.5 -59t54.5 -129q0 -90 -81 -147.5t-220 -57.5q-118 0 -195.5 57t-77.5 152h185q0 -25 25 -43t61 -18q40 0 68 16t28 45q0 28 -24 44.5t-66 16.5h-66l-51 64l78 156q-104 34 -156.5 118t-52.5 201v461h-174v268h188v281h301v-281h256v-268
h-256v-385q0 -75 33.5 -109.5t104.5 -34.5h123v-274z" />
    <glyph glyph-name="uni0237" unicode="&#x237;" horiz-adv-x="507" 
d="M-102 -487v294h77q136 0 136 150v1114h315v-1194q0 -174 -109 -269t-276 -95h-143z" />
    <glyph glyph-name="circumflex" unicode="&#x2c6;" horiz-adv-x="821" 
d="M51 1198v21l193 290h334l192 -290v-21h-242l-112 111h-8l-115 -111h-242z" />
    <glyph glyph-name="caron" unicode="&#x2c7;" horiz-adv-x="821" 
d="M244 1198l-193 291v20h242l113 -110h8l114 110h242v-20l-192 -291h-334z" />
    <glyph glyph-name="breve" unicode="&#x2d8;" horiz-adv-x="802" 
d="M401 1198q-157 0 -243 79t-86 226h221q5 -102 108 -102t109 102h221q0 -148 -85 -226.5t-245 -78.5z" />
    <glyph glyph-name="dotaccent" unicode="&#x2d9;" horiz-adv-x="503" 
d="M86 1198v320h336v-320h-336z" />
    <glyph glyph-name="ring" unicode="&#x2da;" horiz-adv-x="604" 
d="M301 1163q-103 0 -171.5 65.5t-68.5 166.5q0 102 68.5 167.5t171.5 65.5q106 0 174 -65t68 -168q0 -101 -68 -166.5t-174 -65.5zM299 1309q41 0 66.5 24.5t25.5 61.5t-25.5 62.5t-66.5 25.5q-39 0 -63.5 -25.5t-24.5 -62.5t24.5 -61.5t63.5 -24.5z" />
    <glyph glyph-name="ogonek" unicode="&#x2db;" horiz-adv-x="542" 
d="M338 -467q-68 0 -128.5 21.5t-104.5 72.5t-44 123q0 54 19 101.5t51.5 81.5t66 58t72.5 42l211 -33q-74 -29 -124 -82t-50 -111q0 -41 26.5 -63.5t74.5 -22.5h73v-188h-143z" />
    <glyph glyph-name="tilde" unicode="&#x2dc;" horiz-adv-x="788" 
d="M528 1194q-67 0 -139 37l-31 16q-4 2 -15 8t-15 8t-12.5 5.5t-15.5 4.5t-15 1q-24 0 -40 -19.5t-16 -56.5h-188v31q0 127 59.5 195.5t161.5 68.5q64 0 144 -39l32 -16q56 -27 74 -27q29 0 39 18.5t10 59.5h187v-31q0 -131 -53 -197.5t-167 -66.5z" />
    <glyph glyph-name="hungarumlaut" unicode="&#x2dd;" horiz-adv-x="954" 
d="M61 1194v20l95 299h327v-20l-217 -299h-205zM471 1194v20l94 299h328v-20l-217 -299h-205z" />
    <glyph glyph-name="uni0326" unicode="&#x326;" horiz-adv-x="0" 
d="M-412 -444v20l43 320h308v-21l-146 -319h-205z" />
    <glyph glyph-name="Wgrave" unicode="&#x1e80;" horiz-adv-x="1943" 
d="M911 1556l-237 299v21h327l136 -299v-21h-226zM348 0l-328 1413v21h347l190 -990h8l230 990h356l233 -990h9l188 990h342v-21l-328 -1413h-415l-201 948h-8l-207 -948h-416z" />
    <glyph glyph-name="wgrave" unicode="&#x1e81;" horiz-adv-x="1705" 
d="M803 1194l-238 299v20h328l135 -299v-20h-225zM283 0l-263 1051v20h310l162 -733h8l143 733h422l143 -733h9l161 733h308v-20l-263 -1051h-415l-148 733h-8l-154 -733h-415z" />
    <glyph glyph-name="Wacute" unicode="&#x1e82;" horiz-adv-x="1943" 
d="M831 1556v21l136 299h327v-21l-237 -299h-226zM348 0l-328 1413v21h347l190 -990h8l230 990h356l233 -990h9l188 990h342v-21l-328 -1413h-415l-201 948h-8l-207 -948h-416z" />
    <glyph glyph-name="wacute" unicode="&#x1e83;" horiz-adv-x="1705" 
d="M723 1194v20l135 299h328v-20l-238 -299h-225zM283 0l-263 1051v20h310l162 -733h8l143 733h422l143 -733h9l161 733h308v-20l-263 -1051h-415l-148 733h-8l-154 -733h-415z" />
    <glyph glyph-name="Wdieresis" unicode="&#x1e84;" horiz-adv-x="1943" 
d="M637 1591v267h264v-267h-264zM1049 1591v267h264v-267h-264zM348 0l-328 1413v21h347l190 -990h8l230 990h356l233 -990h9l188 990h342v-21l-328 -1413h-415l-201 948h-8l-207 -948h-416z" />
    <glyph glyph-name="wdieresis" unicode="&#x1e85;" horiz-adv-x="1705" 
d="M528 1229v266h265v-266h-265zM940 1229v266h264v-266h-264zM283 0l-263 1051v20h310l162 -733h8l143 733h422l143 -733h9l161 733h308v-20l-263 -1051h-415l-148 733h-8l-154 -733h-415z" />
    <glyph glyph-name="uni1EBC" unicode="&#x1ebc;" horiz-adv-x="1249" 
d="M795 1556q-68 0 -140 37l-30 17q-50 26 -74 26t-39.5 -19t-15.5 -56h-189v30q0 127 59.5 195.5t161.5 68.5q66 0 144 -38l33 -17q54 -26 73 -26q29 0 39 18t10 59h187v-30q0 -132 -53 -198.5t-166 -66.5zM143 0v1434h1024v-287h-702v-264h639v-287h-639v-311h702v-285
h-1024z" />
    <glyph glyph-name="uni1EBD" unicode="&#x1ebd;" horiz-adv-x="1138" 
d="M686 1194q-67 0 -139 37l-31 16q-52 27 -74 27q-24 0 -39.5 -19.5t-15.5 -56.5h-188v31q0 127 59.5 195.5t161.5 68.5q63 0 143 -39l33 -16q56 -27 74 -27q29 0 39 18.5t10 59.5h186v-31q0 -132 -53 -198t-166 -66zM582 -18q-124 0 -225 43t-167.5 118.5t-102.5 175.5
t-36 216q0 115 33.5 214.5t97.5 176t165 120.5t228 44q159 0 277 -70.5t176.5 -188t58.5 -264.5v-116h-714q2 -98 54 -155.5t155 -57.5q80 0 125 31t61 75h305q-23 -154 -152.5 -258t-338.5 -104zM375 649h391q-5 81 -53 131.5t-138 50.5q-96 0 -145.5 -50t-54.5 -132z" />
    <glyph glyph-name="Ygrave" unicode="&#x1ef2;" horiz-adv-x="1429" 
d="M676 1556l-238 299v21h328l135 -299v-21h-225zM555 0v569l-535 844v21h375l320 -541h8l311 541h375v-21l-530 -840v-573h-324z" />
    <glyph glyph-name="ygrave" unicode="&#x1ef3;" horiz-adv-x="1161" 
d="M543 1194l-238 299v20h328l135 -299v-20h-225zM20 1071h324l217 -760h8l232 760h340v-20l-539 -1520h-342v20l154 449h-54l-340 1051v20z" />
    <glyph glyph-name="endash" unicode="&#x2013;" horiz-adv-x="1273" 
d="M123 459v282h1028v-282h-1028z" />
    <glyph glyph-name="emdash" unicode="&#x2014;" horiz-adv-x="2256" 
d="M123 459v282h2011v-282h-2011z" />
    <glyph glyph-name="quoteleft" unicode="&#x2018;" horiz-adv-x="491" 
d="M451 1434v-21l-64 -506h-346v21l168 506h242z" />
    <glyph glyph-name="quoteright" unicode="&#x2019;" horiz-adv-x="491" 
d="M41 907v21l63 506h347v-21l-168 -506h-242z" />
    <glyph glyph-name="quotesinglbase" unicode="&#x201a;" horiz-adv-x="491" 
d="M41 -295v21l63 505h347v-20l-168 -506h-242z" />
    <glyph glyph-name="quotedblleft" unicode="&#x201c;" horiz-adv-x="921" 
d="M451 1434v-21l-64 -506h-346v21l168 506h242zM881 1434v-21l-64 -506h-346v21l168 506h242z" />
    <glyph glyph-name="quotedblright" unicode="&#x201d;" horiz-adv-x="921" 
d="M41 907v21l63 506h347v-21l-168 -506h-242zM471 907v21l64 506h346v-21l-168 -506h-242z" />
    <glyph glyph-name="quotedblbase" unicode="&#x201e;" horiz-adv-x="921" 
d="M41 -295v21l63 505h347v-20l-168 -506h-242zM471 -295v21l64 505h346v-20l-168 -506h-242z" />
    <glyph glyph-name="dagger" unicode="&#x2020;" horiz-adv-x="929" 
d="M827 1202v-250h-225v-264l-41 -338h-192l-41 338v264h-226v250h226v232h274v-232h225z" />
    <glyph glyph-name="daggerdbl" unicode="&#x2021;" horiz-adv-x="929" 
d="M588 952l-27 -235l29 -236h237v-250h-225v-231h-274v231h-226v250h238l29 236l-27 235h-240v250h226v232h274v-232h225v-250h-239z" />
    <glyph glyph-name="bullet" unicode="&#x2022;" horiz-adv-x="790" 
d="M395 319q-131 0 -201.5 77.5t-70.5 205.5q0 124 70.5 200.5t201.5 76.5q128 0 200.5 -77t72.5 -200q0 -127 -72.5 -205t-200.5 -78z" />
    <glyph glyph-name="ellipsis" unicode="&#x2026;" horiz-adv-x="1732" 
d="M82 0v319h336v-319h-336zM700 0v319h336v-319h-336zM1315 0v319h336v-319h-336z" />
    <glyph glyph-name="perthousand" unicode="&#x2030;" horiz-adv-x="2506" 
d="M424 713q-158 0 -250 102t-92 270t92 270.5t250 102.5q157 0 249.5 -103t92.5 -270q0 -168 -92 -270t-250 -102zM240 0v20l970 1414h260v-21l-966 -1413h-264zM424 913q129 0 129 172t-129 172t-129 -172t129 -172zM1305 -18q-158 0 -250 102t-92 270t92 270.5t250 102.5
q157 0 249.5 -103t92.5 -270q0 -168 -92 -270t-250 -102zM2083 -18q-158 0 -250 102t-92 270t92 270.5t250 102.5q157 0 249.5 -103t92.5 -270q0 -168 -92 -270t-250 -102zM1305 182q129 0 129 172t-129 172t-129 -172t129 -172zM2083 182q129 0 129 172t-129 172t-129 -172
t129 -172z" />
    <glyph glyph-name="guilsinglleft" unicode="&#x2039;" horiz-adv-x="741" 
d="M381 135l-340 434v21l340 434h299v-20l-287 -424l287 -424v-21h-299z" />
    <glyph glyph-name="guilsinglright" unicode="&#x203a;" horiz-adv-x="741" 
d="M61 135v21l287 424l-287 424v20h299l340 -434v-21l-340 -434h-299z" />
    <glyph glyph-name="fraction" unicode="&#x2044;" horiz-adv-x="1148" 
d="M-20 -205v21l888 1822h301v-20l-884 -1823h-305z" />
    <glyph glyph-name="Euro" unicode="&#x20ac;" horiz-adv-x="1538" 
d="M842 270q135 0 211.5 72t97.5 184h326q-11 -111 -61 -209.5t-130 -173t-195.5 -118t-248.5 -43.5q-256 0 -425 127.5t-233 341.5h-123v196h89q-3 34 -3 68q0 26 3 53h-89v197h117q62 224 231.5 355.5t432.5 131.5q134 0 250.5 -45t197.5 -121t130.5 -178t56.5 -215h-328
q-10 113 -88 190.5t-219 77.5q-238 0 -322 -196h424l-41 -197h-426q-2 -16 -2 -53q0 -45 2 -68h395l-41 -196h-305q90 -181 316 -181z" />
    <glyph glyph-name="uni2116" unicode="&#x2116;" horiz-adv-x="2373" 
d="M1855 678q-178 0 -275 106.5t-97 280.5q0 173 98 280t274 107q177 0 276 -107t99 -280t-98.5 -280t-276.5 -107zM143 0v1434h379l529 -936h8v936h319v-1434h-381l-528 930h-8v-930h-318zM1855 887q138 0 138 178t-138 178q-65 0 -101 -44t-36 -134t36.5 -134t100.5 -44z
M1524 371v227h667v-227h-667z" />
    <glyph glyph-name="trademark" unicode="&#x2122;" horiz-adv-x="1495" 
d="M254 764v516h-193v154h557v-154h-192v-516h-172zM705 764v670h188l178 -297h8l174 297h187v-670h-158v412h-8l-189 -304h-20l-195 308h-8v-416h-157z" />
    <glyph glyph-name="minus" unicode="&#x2212;" horiz-adv-x="1015" 
d="M10 506v270h996v-270h-996z" />
    <glyph glyph-name="notequal" unicode="&#x2260;" horiz-adv-x="1015" 
d="M1006 711h-340l-107 -181h447v-270h-609l-55 -92h-209v20l43 72h-166v270h328l106 181h-434v270h596l68 113h209v-21l-56 -92h179v-270z" />
    <glyph glyph-name="lessequal" unicode="&#x2264;" horiz-adv-x="1064" 
d="M1004 354l-943 316v307l943 315v-288l-631 -177v-8l631 -176v-289zM61 2v270h943v-270h-943z" />
    <glyph glyph-name="greaterequal" unicode="&#x2265;" horiz-adv-x="1064" 
d="M61 354v289l631 176v8l-631 177v288l943 -315v-307zM61 2v270h943v-270h-943z" />
    <glyph glyph-name="i.loclTRK" horiz-adv-x="499" 
d="M94 1198v320h336v-320h-336zM102 0v1071h316v-1071h-316z" />
    <glyph glyph-name="a.ss01" 
d="M485 -18q-199 0 -316.5 154.5t-117.5 400.5q0 244 117.5 398.5t316.5 154.5q184 0 285 -121h8l33 102h283v-1071h-283l-33 102h-8q-100 -120 -285 -120zM582 258q75 0 123.5 39.5t68 99.5t19.5 140q0 124 -49.5 200t-161.5 76t-161.5 -76t-49.5 -200q0 -80 19.5 -140
t68 -99.5t123.5 -39.5z" />
    <glyph glyph-name="aacute.ss01" 
d="M440 1194v20l135 299h328v-20l-237 -299h-226zM485 -18q-199 0 -316.5 154.5t-117.5 400.5q0 244 117.5 398.5t316.5 154.5q184 0 285 -121h8l33 102h283v-1071h-283l-33 102h-8q-100 -120 -285 -120zM582 258q75 0 123.5 39.5t68 99.5t19.5 140q0 124 -49.5 200
t-161.5 76t-161.5 -76t-49.5 -200q0 -80 19.5 -140t68 -99.5t123.5 -39.5z" />
    <glyph glyph-name="abreve.ss01" 
d="M578 1198q-158 0 -244 79t-86 226h221q5 -102 109 -102q102 0 108 102h221q0 -148 -84.5 -226.5t-244.5 -78.5zM485 -18q-199 0 -316.5 154.5t-117.5 400.5q0 244 117.5 398.5t316.5 154.5q184 0 285 -121h8l33 102h283v-1071h-283l-33 102h-8q-100 -120 -285 -120z
M582 258q75 0 123.5 39.5t68 99.5t19.5 140q0 124 -49.5 200t-161.5 76t-161.5 -76t-49.5 -200q0 -80 19.5 -140t68 -99.5t123.5 -39.5z" />
    <glyph glyph-name="uni01CE.ss01" 
d="M416 1198l-193 291v20h242l113 -110h8l114 110h242v-20l-192 -291h-334zM485 -18q-199 0 -316.5 154.5t-117.5 400.5q0 244 117.5 398.5t316.5 154.5q184 0 285 -121h8l33 102h283v-1071h-283l-33 102h-8q-100 -120 -285 -120zM582 258q75 0 123.5 39.5t68 99.5t19.5 140
q0 124 -49.5 200t-161.5 76t-161.5 -76t-49.5 -200q0 -80 19.5 -140t68 -99.5t123.5 -39.5z" />
    <glyph glyph-name="acircumflex.ss01" 
d="M223 1198v21l193 290h334l192 -290v-21h-242l-112 111h-8l-115 -111h-242zM485 -18q-199 0 -316.5 154.5t-117.5 400.5q0 244 117.5 398.5t316.5 154.5q184 0 285 -121h8l33 102h283v-1071h-283l-33 102h-8q-100 -120 -285 -120zM582 258q75 0 123.5 39.5t68 99.5
t19.5 140q0 124 -49.5 200t-161.5 76t-161.5 -76t-49.5 -200q0 -80 19.5 -140t68 -99.5t123.5 -39.5z" />
    <glyph glyph-name="adieresis.ss01" 
d="M246 1229v266h264v-266h-264zM657 1229v266h265v-266h-265zM485 -18q-199 0 -316.5 154.5t-117.5 400.5q0 244 117.5 398.5t316.5 154.5q184 0 285 -121h8l33 102h283v-1071h-283l-33 102h-8q-100 -120 -285 -120zM582 258q75 0 123.5 39.5t68 99.5t19.5 140
q0 124 -49.5 200t-161.5 76t-161.5 -76t-49.5 -200q0 -80 19.5 -140t68 -99.5t123.5 -39.5z" />
    <glyph glyph-name="agrave.ss01" 
d="M520 1194l-237 299v20h327l135 -299v-20h-225zM485 -18q-199 0 -316.5 154.5t-117.5 400.5q0 244 117.5 398.5t316.5 154.5q184 0 285 -121h8l33 102h283v-1071h-283l-33 102h-8q-100 -120 -285 -120zM582 258q75 0 123.5 39.5t68 99.5t19.5 140q0 124 -49.5 200
t-161.5 76t-161.5 -76t-49.5 -200q0 -80 19.5 -140t68 -99.5t123.5 -39.5z" />
    <glyph glyph-name="amacron.ss01" 
d="M281 1243v227h600v-227h-600zM485 -18q-199 0 -316.5 154.5t-117.5 400.5q0 244 117.5 398.5t316.5 154.5q184 0 285 -121h8l33 102h283v-1071h-283l-33 102h-8q-100 -120 -285 -120zM582 258q75 0 123.5 39.5t68 99.5t19.5 140q0 124 -49.5 200t-161.5 76t-161.5 -76
t-49.5 -200q0 -80 19.5 -140t68 -99.5t123.5 -39.5z" />
    <glyph glyph-name="aogonek.ss01" 
d="M1094 0q-74 -29 -124 -82t-50 -111q0 -41 26.5 -63.5t73.5 -22.5h74v-188h-144q-68 0 -128.5 21.5t-104 72.5t-43.5 123q0 154 149 250h-12l-33 102h-8q-100 -120 -285 -120q-199 0 -316.5 154.5t-117.5 400.5q0 244 117.5 398.5t316.5 154.5q184 0 285 -121h8l33 102
h283v-1071zM582 258q75 0 123.5 39.5t68 99.5t19.5 140q0 124 -49.5 200t-161.5 76t-161.5 -76t-49.5 -200q0 -80 19.5 -140t68 -99.5t123.5 -39.5z" />
    <glyph glyph-name="aring.ss01" 
d="M575 1163q-103 0 -171 65.5t-68 166.5q0 102 68 167.5t171 65.5q106 0 174 -65t68 -168q0 -101 -68 -166.5t-174 -65.5zM573 1309q41 0 67 24.5t26 61.5t-26 62.5t-67 25.5q-39 0 -63.5 -25.5t-24.5 -62.5t24.5 -61.5t63.5 -24.5zM485 -18q-199 0 -316.5 154.5
t-117.5 400.5q0 244 117.5 398.5t316.5 154.5q184 0 285 -121h8l33 102h283v-1071h-283l-33 102h-8q-100 -120 -285 -120zM582 258q75 0 123.5 39.5t68 99.5t19.5 140q0 124 -49.5 200t-161.5 76t-161.5 -76t-49.5 -200q0 -80 19.5 -140t68 -99.5t123.5 -39.5z" />
    <glyph glyph-name="atilde.ss01" 
d="M688 1194q-67 0 -139 37l-31 16q-52 27 -74 27q-24 0 -39.5 -19.5t-15.5 -56.5h-188v31q0 127 59.5 195.5t161.5 68.5q63 0 143 -39l33 -16q56 -27 74 -27q29 0 39 18.5t10 59.5h186v-31q0 -132 -53 -198t-166 -66zM485 -18q-199 0 -316.5 154.5t-117.5 400.5
q0 244 117.5 398.5t316.5 154.5q184 0 285 -121h8l33 102h283v-1071h-283l-33 102h-8q-100 -120 -285 -120zM582 258q75 0 123.5 39.5t68 99.5t19.5 140q0 124 -49.5 200t-161.5 76t-161.5 -76t-49.5 -200q0 -80 19.5 -140t68 -99.5t123.5 -39.5z" />
    <glyph glyph-name="caron.Slovak" horiz-adv-x="430" 
d="M61 1085v349h308v-21l-103 -328h-205z" />
    </font>
</defs>
</svg>
