<?xml version="1.0" standalone="no"?>
<!DOCTYPE svg PUBLIC "-//W3C//DTD SVG 1.1//EN" "http://www.w3.org/Graphics/SVG/1.1/DTD/svg11.dtd" >
<svg xmlns="http://www.w3.org/2000/svg" xmlns:xlink="http://www.w3.org/1999/xlink" version="1.1">
<metadata>
Created by FontForge 20170731 at Sat Dec  5 08:27:42 2020
 By Aleksey,,,
Copyright (c) 2017 by atipo. All rights reserved.
</metadata>
<defs>
<font id="BasierSquare-SemiBold" horiz-adv-x="1183" >
  <font-face 
    font-family="Basier Square SemiBold"
    font-weight="600"
    font-stretch="normal"
    units-per-em="2048"
    panose-1="0 0 7 0 0 0 0 0 0 0"
    ascent="1638"
    descent="-410"
    x-height="1065"
    cap-height="1434"
    bbox="-389 -502 2396 1995"
    underline-thickness="102"
    underline-position="-307"
    unicode-range="U+0020-2265"
  />
<missing-glyph horiz-adv-x="1925" 
 />
    <glyph glyph-name=".notdef" horiz-adv-x="1925" 
 />
    <glyph glyph-name=".null" horiz-adv-x="0" 
 />
    <glyph glyph-name="nonmarkingreturn" horiz-adv-x="682" 
 />
    <glyph glyph-name="space" unicode=" " horiz-adv-x="585" 
 />
    <glyph glyph-name="exclam" unicode="!" horiz-adv-x="528" 
d="M162 455l-43 782v197h295v-197l-54 -782h-198zM113 0v293h303v-293h-303z" />
    <glyph glyph-name="quotedbl" unicode="&#x22;" horiz-adv-x="880" 
d="M150 872l-48 316v246h279v-246l-47 -316h-184zM547 872l-47 316v246h278v-246l-47 -316h-184z" />
    <glyph glyph-name="numbersign" unicode="#" horiz-adv-x="1431" 
d="M1329 836h-242l-40 -248h180v-238h-221l-60 -350h-250l60 350h-215l-60 -350h-250l60 350h-189v238h230l41 248h-168v237h209l61 361h250l-61 -361h215l61 361h250l-62 -361h201v-237zM797 588l41 248h-215l-41 -248h215z" />
    <glyph glyph-name="dollar" unicode="$" horiz-adv-x="1294" 
d="M1225 414q0 -184 -121 -297t-365 -131v-170h-182v170q-232 21 -360.5 150t-137.5 337h285q7 -98 62.5 -156.5t150.5 -76.5v383l-27 6q-99 21 -172 51.5t-132 79t-89.5 120.5t-30.5 167q0 165 121 273t330 128v170h182v-172q205 -23 332.5 -146t128.5 -303h-285
q-5 70 -48.5 122t-127.5 71v-334l35 -8q104 -22 183 -55t141 -84t94.5 -125t32.5 -170zM395 1047q0 -55 37.5 -92.5t124.5 -59.5v299q-81 -13 -121.5 -52t-40.5 -95zM739 238q197 26 197 170q0 71 -47 112.5t-150 63.5v-346z" />
    <glyph glyph-name="percent" unicode="%" horiz-adv-x="1734" 
d="M430 713q-156 0 -243 102t-87 270t87 270.5t243 102.5q155 0 242.5 -102.5t87.5 -270.5t-87 -270t-243 -102zM260 0v20l971 1414h229v-21l-966 -1413h-234zM430 893q137 0 137 192q0 193 -137 193t-137 -193q0 -192 137 -192zM1305 -18q-156 0 -243 102t-87 270t87 270.5
t243 102.5q155 0 242 -102.5t87 -270.5t-86.5 -270t-242.5 -102zM1305 162q137 0 137 192q0 193 -137 193q-138 0 -138 -193q0 -192 138 -192z" />
    <glyph glyph-name="ampersand" unicode="&#x26;" horiz-adv-x="1497" 
d="M1423 815v-20l-323 -439l309 -336v-20h-330l-135 150q-157 -168 -397 -168q-90 0 -169.5 27.5t-141 78t-97 130t-35.5 177.5q0 115 64.5 204t189.5 165l21 12q-79 87 -115.5 161.5t-36.5 160.5q0 150 111 252t287 102h4q187 0 297 -98.5t110 -249.5q0 -82 -29 -144
t-78.5 -106t-135.5 -96l-39 -25l176 -190l198 272h295zM590 911l4 -4l45 29q66 39 95.5 73t29.5 83q0 59 -35 94t-102 35h-4q-59 -1 -94 -36t-35 -89q0 -89 96 -185zM571 229q64 0 110.5 25.5t94.5 81.5l-239 266l-25 -14q-66 -41 -96 -85t-29 -104q0 -72 49 -121t135 -49z
" />
    <glyph glyph-name="quotesingle" unicode="'" horiz-adv-x="483" 
d="M150 872l-48 316v246h279v-246l-47 -316h-184z" />
    <glyph glyph-name="parenleft" unicode="(" horiz-adv-x="747" 
d="M637 1565v-21q-61 -80 -113.5 -175t-99 -213t-73.5 -260.5t-27 -289.5t27 -289.5t73.5 -260.5t99 -213t113.5 -175v-20h-215q-153 173 -254.5 422t-101.5 536q0 295 100.5 539.5t255.5 419.5h215z" />
    <glyph glyph-name="parenright" unicode=")" horiz-adv-x="747" 
d="M326 1565q155 -175 255.5 -419.5t100.5 -539.5q0 -287 -101.5 -536t-254.5 -422h-215v20q61 80 113.5 175t99 213t73.5 260.5t27 289.5t-27 289.5t-73.5 260.5t-99 213t-113.5 175v21h215z" />
    <glyph glyph-name="asterisk" unicode="*" horiz-adv-x="995" 
d="M397 723l33 256l-8 4l-203 -149l-98 190l244 70v8l-244 72l98 190l201 -145l8 6l-31 250h215l-30 -250l8 -6l201 145l98 -190l-244 -72v-8l244 -70l-98 -190l-201 149l-8 -4l30 -256h-215z" />
    <glyph glyph-name="plus" unicode="+" horiz-adv-x="1003" 
d="M381 129v395h-371v234h371v395h252v-395h360v-234h-360v-395h-252z" />
    <glyph glyph-name="comma" unicode="," horiz-adv-x="487" 
d="M43 -289v21l63 493h306v-20l-158 -494h-211z" />
    <glyph glyph-name="hyphen" unicode="-" horiz-adv-x="954" 
d="M164 477v246h627v-246h-627z" />
    <glyph glyph-name="period" unicode="." horiz-adv-x="495" 
d="M96 0v293h303v-293h-303z" />
    <glyph glyph-name="slash" unicode="/" horiz-adv-x="897" 
d="M31 -272v20l575 1761h260v-20l-577 -1761h-258z" />
    <glyph glyph-name="zero" unicode="0" horiz-adv-x="1286" 
d="M643 -18q-141 0 -246.5 54.5t-169.5 155t-95.5 233t-31.5 296.5t31.5 295.5t95.5 232t169.5 155t246.5 54.5t246.5 -54.5t169.5 -155t95.5 -232t31.5 -295.5t-31.5 -296.5t-95.5 -233t-169.5 -155t-246.5 -54.5zM643 225q144 0 203 124t59 372q0 246 -59.5 369.5
t-202.5 123.5t-202.5 -123.5t-59.5 -369.5q0 -248 59 -372t203 -124z" />
    <glyph glyph-name="one" unicode="1" horiz-adv-x="870" 
d="M442 0v1151h-8l-330 -250h-20v266l356 267h279v-1434h-277z" />
    <glyph glyph-name="two" unicode="2" horiz-adv-x="1165" 
d="M94 0v223l473 484q118 118 161.5 184.5t43.5 144.5q0 80 -52 129t-145 49q-99 0 -158 -56.5t-59 -168.5h-268q0 218 131 343.5t354 125.5q214 0 346 -115.5t132 -298.5q0 -111 -57.5 -211t-190.5 -235l-342 -342v-8h612v-248h-981z" />
    <glyph glyph-name="three" unicode="3" horiz-adv-x="1234" 
d="M616 -18q-155 0 -273.5 49.5t-188.5 153t-70 249.5h274q1 -40 14 -75.5t41 -67t79.5 -50t121.5 -18.5q118 0 178 55t60 146q0 93 -63.5 148t-194.5 55h-125v239h121q105 0 161 48.5t56 132.5q0 73 -53.5 121.5t-151.5 48.5q-109 0 -163 -55.5t-56 -151.5h-277
q3 208 139 328t363 120q205 0 343.5 -107.5t138.5 -277.5q0 -228 -199 -305v-8q107 -33 175.5 -123.5t68.5 -210.5q0 -91 -31.5 -170t-93 -141t-163 -97.5t-231.5 -35.5z" />
    <glyph glyph-name="four" unicode="4" horiz-adv-x="1204" 
d="M696 0v274h-639v269l568 891h348v-916h178v-244h-178v-274h-277zM328 518h368v586h-8l-360 -578v-8z" />
    <glyph glyph-name="five" unicode="5" horiz-adv-x="1216" 
d="M606 -18q-226 0 -370 127t-144 311h277q7 -82 66.5 -138.5t170.5 -56.5q122 0 182 74.5t60 181.5q0 101 -61 171.5t-181 70.5q-136 0 -223 -111h-268l55 822h860v-246h-633l-26 -326h8q101 88 270 88q214 0 345.5 -132.5t131.5 -336.5q0 -145 -59 -256.5t-178 -177
t-283 -65.5z" />
    <glyph glyph-name="six" unicode="6" horiz-adv-x="1259" 
d="M639 -18q-137 0 -241 51t-169 145.5t-97 224t-32 291.5q0 131 21 245t65.5 210t110 164t158.5 106.5t207 38.5q209 0 337.5 -113.5t149.5 -285.5h-266q-14 68 -71.5 110.5t-149.5 42.5q-145 0 -223.5 -109.5t-78.5 -311.5h9q114 145 317 145q110 0 201.5 -39.5t150 -105
t90 -147.5t31.5 -171q0 -102 -35.5 -191.5t-101 -156t-164.5 -105t-219 -38.5zM639 225q109 0 179.5 67.5t70.5 176.5q0 107 -67 173.5t-183 66.5q-113 0 -180.5 -67t-67.5 -173q0 -109 68 -176.5t180 -67.5z" />
    <glyph glyph-name="seven" unicode="7" horiz-adv-x="1107" 
d="M174 0v20l602 1156v8h-727v250h1010v-260l-592 -1174h-293z" />
    <glyph glyph-name="eight" unicode="8" horiz-adv-x="1232" 
d="M915 756q228 -95 228 -344q0 -201 -144 -314.5t-383 -115.5q-239 2 -382.5 115.5t-143.5 314.5q0 250 227 344v8q-87 45 -135.5 127t-48.5 188q0 172 133 275.5t350 103.5t350.5 -103.5t133.5 -275.5q0 -106 -49 -188t-136 -127v-8zM616 1219q-92 0 -148 -44.5
t-56 -125.5q0 -84 56.5 -129.5t147.5 -47.5q92 2 148.5 47.5t56.5 129.5q0 81 -56.5 125.5t-148.5 44.5zM616 221q116 2 181 56.5t65 152.5q0 92 -64.5 148t-181.5 57q-117 -1 -181 -57t-64 -148q0 -98 64.5 -152.5t180.5 -56.5z" />
    <glyph glyph-name="nine" unicode="9" horiz-adv-x="1259" 
d="M598 -18q-209 0 -337.5 113.5t-149.5 285.5h266q14 -68 71 -111t150 -43q144 0 221.5 109.5t77.5 312.5h-8q-109 -145 -316 -145q-110 0 -201.5 39.5t-150 105t-90 147.5t-31.5 171q0 137 61 247.5t181 177t279 66.5q137 0 241 -51t168.5 -146t96.5 -224.5t32 -291.5
q0 -131 -21 -244.5t-65.5 -209.5t-109.5 -164.5t-158 -106.5t-207 -38zM621 731q112 0 178.5 67t66.5 173q0 109 -66.5 176t-178.5 67q-109 0 -179.5 -67t-70.5 -176q0 -107 67 -173.5t183 -66.5z" />
    <glyph glyph-name="colon" unicode=":" horiz-adv-x="495" 
d="M96 672v293h303v-293h-303zM96 0v293h303v-293h-303z" />
    <glyph glyph-name="semicolon" unicode=";" horiz-adv-x="487" 
d="M96 672v293h303v-293h-303zM43 -289v21l63 493h306v-20l-158 -494h-211z" />
    <glyph glyph-name="less" unicode="&#x3c;" horiz-adv-x="1064" 
d="M991 -25l-917 502v215l917 502v-260l-649 -344v-8l649 -346v-261z" />
    <glyph glyph-name="equal" unicode="=" horiz-adv-x="1003" 
d="M10 725v233h983v-233h-983zM10 291v235h983v-235h-983z" />
    <glyph glyph-name="greater" unicode="&#x3e;" horiz-adv-x="1064" 
d="M74 -25v261l649 346v8l-649 344v260l917 -502v-215z" />
    <glyph glyph-name="question" unicode="?" horiz-adv-x="1112" 
d="M393 453v32q0 64 11.5 112.5t38 88.5t56 69t79.5 68l65 51q57 44 82 81.5t25 93.5q0 68 -46.5 114.5t-142.5 46.5q-203 0 -203 -200h-278q0 94 30 173.5t88 140t151 94.5t212 34q215 0 343 -109.5t128 -279.5q0 -191 -155 -311l-86 -68q-76 -59 -104 -97t-28 -102v-32
h-266zM377 0v293h303v-293h-303z" />
    <glyph glyph-name="at" unicode="@" horiz-adv-x="1830" 
d="M946 -205q-183 0 -338 53t-271 154.5t-181.5 260.5t-65.5 360q0 181 68.5 336.5t186 263t278.5 168.5t342 61q221 0 396.5 -86.5t277.5 -251.5t102 -381q0 -266 -104 -403t-291 -137q-86 0 -146 37.5t-74 95.5h-8q-90 -127 -260 -127q-153 0 -244.5 112t-91.5 291
t94 296.5t252 117.5q69 0 133 -34t93 -89h8l14 100h182l-18 -510q-2 -54 19.5 -82t76.5 -28q85 0 130.5 96.5t45.5 263.5q0 240 -160.5 389.5t-433.5 149.5q-149 0 -275.5 -52.5t-212 -142.5t-133.5 -211t-48 -256q0 -199 84 -343.5t231.5 -217t343.5 -72.5q251 0 420 72
v-178q-170 -76 -422 -76zM897 385q96 0 144.5 65t48.5 173q0 103 -52.5 157t-128.5 54q-82 0 -131 -62.5t-49 -171.5q0 -103 45.5 -159t122.5 -56z" />
    <glyph glyph-name="A" unicode="A" horiz-adv-x="1425" 
d="M891 1434l504 -1414v-20h-310l-98 301h-561l-98 -301h-295v20l502 1414h356zM508 549h397l-194 598h-9z" />
    <glyph glyph-name="B" unicode="B" horiz-adv-x="1363" 
d="M162 0v1434h653q192 0 309 -99.5t117 -273.5q0 -204 -149 -293v-8q202 -93 202 -346q0 -195 -122 -304.5t-334 -109.5h-676zM440 862h330q92 0 139 44t47 122q0 74 -44.5 116t-135.5 42h-336v-324zM440 250h355q106 0 159.5 50.5t53.5 135.5q0 80 -53 132.5t-160 52.5
h-355v-371z" />
    <glyph glyph-name="C" unicode="C" horiz-adv-x="1452" 
d="M756 -18q-163 0 -293 56t-213 155t-126.5 232t-43.5 290q0 160 43.5 293.5t126.5 233t212.5 155t293.5 55.5q175 0 313 -72.5t214.5 -194.5t88.5 -274h-287q-11 124 -94.5 204.5t-234.5 80.5q-193 0 -291 -128.5t-98 -352.5t98 -351.5t291 -127.5q146 0 227.5 74.5
t103.5 197.5h285q-12 -111 -59.5 -206.5t-125 -167t-189 -112t-242.5 -40.5z" />
    <glyph glyph-name="D" unicode="D" horiz-adv-x="1441" 
d="M162 0v1434h489q209 0 370.5 -89t251 -252.5t89.5 -375.5q0 -149 -49.5 -280t-139.5 -228t-225 -153t-297 -56h-489zM426 250h207q213 0 327.5 121t114.5 346q0 223 -114.5 344t-327.5 121h-207v-932z" />
    <glyph glyph-name="E" unicode="E" horiz-adv-x="1249" 
d="M162 0v1434h993v-252h-713v-318h650v-250h-650v-364h713v-250h-993z" />
    <glyph glyph-name="F" unicode="F" horiz-adv-x="1243" 
d="M162 0v1434h987v-252h-707v-355h641v-252h-641v-575h-280z" />
    <glyph glyph-name="G" unicode="G" horiz-adv-x="1466" 
d="M754 -18q-163 0 -292.5 56t-212.5 155t-126 232t-43 290q0 160 43 293.5t126 233t212 155t293 55.5q176 0 313 -68t213.5 -181.5t91.5 -256.5h-287q-16 109 -98.5 179.5t-232.5 70.5q-192 0 -289.5 -128.5t-97.5 -352.5t97 -351.5t290 -127.5q155 0 242.5 79.5
t103.5 202.5h-305v250h591v-150q0 -289 -173.5 -462.5t-458.5 -173.5z" />
    <glyph glyph-name="H" unicode="H" horiz-adv-x="1505" 
d="M1063 1434h280v-1434h-280v614h-621v-614h-280v1434h280v-568h621v568z" />
    <glyph glyph-name="I" unicode="I" horiz-adv-x="604" 
d="M162 0v1434h282v-1434h-282z" />
    <glyph glyph-name="J" unicode="J" horiz-adv-x="1112" 
d="M496 -18q-218 0 -340.5 125t-122.5 317h274q2 -86 50 -135t143 -49q96 0 142 53.5t46 144.5v996h283v-996q0 -204 -125 -330t-350 -126z" />
    <glyph glyph-name="K" unicode="K" horiz-adv-x="1357" 
d="M690 748l647 -728v-20h-333l-562 637v-637h-280v1434h280v-582l543 582h330v-21z" />
    <glyph glyph-name="L" unicode="L" horiz-adv-x="1134" 
d="M162 0v1434h280v-1182h662v-252h-942z" />
    <glyph glyph-name="M" unicode="M" horiz-adv-x="1802" 
d="M162 0v1434h311l426 -719h8l426 719h307v-1434h-270v989h-8l-451 -749h-20l-451 755h-8v-995h-270z" />
    <glyph glyph-name="N" unicode="N" horiz-adv-x="1521" 
d="M162 0v1434h325l586 -996h8v996h279v-1434h-328l-586 989h-8v-989h-276z" />
    <glyph glyph-name="O" unicode="O" horiz-adv-x="1515" 
d="M758 -18q-167 0 -298 57t-213 157.5t-124.5 232.5t-42.5 288q0 157 42.5 289t124.5 232.5t213 157t298 56.5q166 0 297 -56.5t213.5 -157t125 -232.5t42.5 -289q0 -156 -42.5 -288t-125 -232.5t-213.5 -157.5t-297 -57zM758 238q194 0 292.5 127.5t98.5 351.5
t-98.5 351.5t-292.5 127.5q-195 0 -293 -127.5t-98 -351.5t98.5 -351.5t292.5 -127.5z" />
    <glyph glyph-name="P" unicode="P" horiz-adv-x="1329" 
d="M162 0v1434h614q216 0 344.5 -131.5t128.5 -335.5q0 -208 -129.5 -341.5t-343.5 -133.5h-334v-492h-280zM442 743h283q238 0 238 224q0 104 -62.5 160.5t-175.5 56.5h-283v-441z" />
    <glyph glyph-name="Q" unicode="Q" horiz-adv-x="1515" 
d="M1436 717q0 -175 -54 -321t-159 -246l194 -279v-21h-284l-119 173q-115 -41 -256 -41q-167 0 -298 57t-213 157.5t-124.5 232.5t-42.5 288q0 157 42.5 289t124.5 232.5t213 157t298 56.5q166 0 297 -56.5t213.5 -157t125 -232.5t42.5 -289zM758 238q48 0 100 10l-182 262
v20h282l105 -149q86 127 86 336q0 224 -98.5 351.5t-292.5 127.5q-195 0 -293 -127.5t-98 -351.5t98.5 -351.5t292.5 -127.5z" />
    <glyph glyph-name="R" unicode="R" horiz-adv-x="1372" 
d="M981 557l356 -537v-20h-323l-330 524h-242v-524h-280v1434h629q111 0 202.5 -36t151.5 -97.5t92.5 -142.5t32.5 -173q0 -155 -77.5 -267.5t-211.5 -160.5zM442 1182v-408h334q102 0 153.5 58.5t51.5 150.5q0 87 -52 143t-153 56h-334z" />
    <glyph glyph-name="S" unicode="S" horiz-adv-x="1294" 
d="M645 -18q-274 0 -424.5 131.5t-161.5 359.5h285q9 -119 87.5 -180.5t213.5 -61.5q291 0 291 177q0 71 -47 112.5t-150 63.5l-209 45q-99 21 -172 51.5t-132 79t-89.5 120.5t-30.5 167q0 183 147 294t394 111q159 0 285 -57.5t196.5 -161.5t71.5 -236h-285
q-6 90 -73.5 146.5t-198.5 56.5q-124 0 -186 -42t-62 -111q0 -58 42.5 -97t142.5 -61l194 -41q104 -22 183 -55t141 -84t94.5 -125t32.5 -170q0 -200 -144.5 -316t-435.5 -116z" />
    <glyph glyph-name="T" unicode="T" horiz-adv-x="1212" 
d="M465 0v1180h-422v254h1126v-254h-421v-1180h-283z" />
    <glyph glyph-name="U" unicode="U" horiz-adv-x="1462" 
d="M729 -18q-171 0 -302 63t-208.5 192.5t-77.5 311.5v885h281v-881q0 -69 16 -124.5t50.5 -101t95.5 -70t145 -24.5q309 0 309 320v881h283v-885q0 -182 -77.5 -311.5t-209.5 -192.5t-305 -63z" />
    <glyph glyph-name="V" unicode="V" horiz-adv-x="1421" 
d="M549 0l-516 1413v21h315l359 -1092h8l354 1092h320v-21l-512 -1413h-328z" />
    <glyph glyph-name="W" unicode="W" horiz-adv-x="1918" 
d="M367 0l-334 1413v21h297l213 -1037h8l254 1037h307l258 -1037h8l213 1037h295v-21l-336 -1413h-348l-237 1004h-9l-241 -1004h-348z" />
    <glyph glyph-name="X" unicode="X" horiz-adv-x="1396" 
d="M33 0v20l461 697v8l-443 688v21h334l320 -523h8l317 523h328v-21l-432 -690v-8l436 -695v-20h-340l-320 520h-8l-319 -520h-342z" />
    <glyph glyph-name="Y" unicode="Y" horiz-adv-x="1400" 
d="M561 0v578l-528 835v21h323l344 -576h9l335 576h324v-21l-524 -833v-580h-283z" />
    <glyph glyph-name="Z" unicode="Z" horiz-adv-x="1222" 
d="M68 0v246l723 925v9h-705v254h1057v-250l-721 -924v-8h733v-252h-1087z" />
    <glyph glyph-name="bracketleft" unicode="[" horiz-adv-x="694" 
d="M74 -352v1917h485v-213h-254v-1493h256v-211h-487z" />
    <glyph glyph-name="backslash" unicode="\" horiz-adv-x="897" 
d="M608 -272l-577 1761v20h260l575 -1761v-20h-258z" />
    <glyph glyph-name="bracketright" unicode="]" horiz-adv-x="694" 
d="M133 -352v211h256v1493h-254v213h488v-1917h-490z" />
    <glyph glyph-name="asciicircum" unicode="^" horiz-adv-x="1204" 
d="M80 635v20l403 779h240l401 -779v-20h-258l-260 530h-8l-260 -530h-258z" />
    <glyph glyph-name="underscore" unicode="_" horiz-adv-x="1150" 
d="M80 -274v219h993v-219h-993z" />
    <glyph glyph-name="grave" unicode="`" horiz-adv-x="571" 
d="M301 1194l-238 293v20h304l139 -293v-20h-205z" />
    <glyph glyph-name="a" unicode="a" horiz-adv-x="1112" 
d="M438 -18q-174 0 -273 93t-99 238q0 151 107.5 240.5t322.5 89.5h237v59q0 69 -45.5 112.5t-138.5 43.5q-83 0 -130.5 -39t-47.5 -98h-258q0 158 116 260t326 102q211 0 332 -105.5t121 -272.5v-705h-244l-21 111h-8q-98 -129 -297 -129zM504 199q104 0 166.5 57t62.5 139
v58h-217q-88 0 -133 -34t-45 -93q0 -58 42.5 -92.5t123.5 -34.5z" />
    <glyph glyph-name="b" unicode="b" horiz-adv-x="1204" 
d="M702 -18q-193 0 -294 133h-9l-28 -115h-246v1516h274v-566h9q101 133 294 133q135 0 235 -72t151 -196t51 -283q0 -247 -118 -398.5t-319 -151.5zM625 223q122 0 178.5 86t56.5 223q0 66 -12.5 120t-39 97.5t-73 68t-110.5 24.5q-122 0 -179 -86.5t-57 -223.5
q0 -87 22.5 -154.5t77.5 -111t136 -43.5z" />
    <glyph glyph-name="c" unicode="c" horiz-adv-x="1124" 
d="M586 -18q-246 0 -383 149.5t-137 400.5q0 249 134.5 400t379.5 151q221 0 343.5 -118t133.5 -306h-277q-8 83 -61 133t-139 50q-116 0 -175 -79.5t-59 -230.5q0 -152 59 -230.5t175 -78.5q87 0 140 48.5t62 129.5h277q-13 -188 -134 -303.5t-339 -115.5z" />
    <glyph glyph-name="d" unicode="d" 
d="M504 -18q-202 0 -320 151.5t-118 398.5q0 160 50.5 283.5t151 195.5t236.5 72q192 0 293 -133h8v566h274v-1516h-245l-29 115h-8q-101 -133 -293 -133zM580 223q121 0 178 86.5t57 222.5q0 137 -56.5 223.5t-178.5 86.5q-64 0 -111 -24.5t-73.5 -68t-39 -97.5t-12.5 -120
q0 -136 57.5 -222.5t178.5 -86.5z" />
    <glyph glyph-name="e" unicode="e" horiz-adv-x="1136" 
d="M580 -18q-160 0 -278.5 73.5t-177 196.5t-58.5 278q0 115 32 214.5t93.5 175.5t160 119.5t223.5 43.5q154 0 268 -70t171 -186.5t57 -263.5v-106h-725q2 -113 61 -180.5t173 -67.5q87 0 139.5 34.5t68.5 88.5h269q-23 -151 -150.5 -250.5t-326.5 -99.5zM348 639h443
q-3 96 -58 155.5t-158 59.5q-110 0 -166 -59t-61 -156z" />
    <glyph glyph-name="f" unicode="f" horiz-adv-x="843" 
d="M233 0v834h-186v231h186v90q0 176 115 278.5t293 102.5h131v-236h-102q-162 0 -162 -145v-90h254v-231h-254v-834h-275z" />
    <glyph glyph-name="g" unicode="g" 
d="M571 -487q-211 0 -340.5 105.5t-134.5 277.5h269q6 -63 61 -105.5t145 -42.5q114 0 174 56.5t60 146.5v164h-8q-101 -133 -293 -133q-204 0 -321 153t-117 395q0 249 118 401t320 152q192 0 293 -133h8l29 115h245v-1118q0 -194 -141.5 -314t-366.5 -120zM580 223
q122 0 178.5 85t56.5 222q0 138 -57 225t-178 87t-178.5 -87t-57.5 -225q0 -65 12.5 -118.5t39 -97t73.5 -67.5t111 -24z" />
    <glyph glyph-name="h" unicode="h" horiz-adv-x="1204" 
d="M125 0v1516h274v-572h9q103 139 301 139q178 0 283.5 -103.5t105.5 -281.5v-698h-275v621q0 213 -198 213q-99 0 -162.5 -66.5t-63.5 -179.5v-588h-274z" />
    <glyph glyph-name="i" unicode="i" horiz-adv-x="505" 
d="M115 1217v286h295v-286h-295zM125 0v1065h274v-1065h-274z" />
    <glyph glyph-name="j" unicode="j" horiz-adv-x="520" 
d="M129 1217v286h295v-286h-295zM-74 -487v254h78q135 0 135 149v1149h275v-1206q0 -167 -99 -256.5t-262 -89.5h-127z" />
    <glyph glyph-name="k" unicode="k" horiz-adv-x="1122" 
d="M645 571l451 -551v-20h-330l-381 481v-481h-260v1516h260v-865l371 414h319v-21z" />
    <glyph glyph-name="l" unicode="l" horiz-adv-x="505" 
d="M125 0v1516h274v-1516h-274z" />
    <glyph glyph-name="m" unicode="m" horiz-adv-x="1841" 
d="M1350 1083q177 0 281 -104t104 -281v-698h-275v621q0 213 -184 213q-96 0 -149.5 -65.5t-53.5 -178.5v-590h-272v621q0 213 -187 213q-97 0 -156 -65.5t-59 -178.5v-590h-274v1065h246l20 -121h8q103 139 299 139q224 0 320 -157h6q46 69 128 113t198 44z" />
    <glyph glyph-name="n" unicode="n" horiz-adv-x="1196" 
d="M125 0v1065h246l20 -121h8q103 139 303 139q177 0 282.5 -104t105.5 -281v-698h-275v621q0 213 -197 213q-99 0 -159 -65.5t-60 -178.5v-590h-274z" />
    <glyph glyph-name="o" unicode="o" horiz-adv-x="1165" 
d="M584 -18q-126 0 -225.5 41t-163 115t-96.5 173.5t-33 218.5t33.5 219.5t97.5 175t163 116.5t224 42q164 0 282.5 -73t176 -196.5t57.5 -283.5q0 -159 -56.5 -281t-175 -194.5t-284.5 -72.5zM584 223q116 0 176.5 77.5t60.5 229.5q0 153 -60.5 232.5t-176.5 79.5
q-117 0 -177.5 -79.5t-60.5 -232.5q0 -151 61 -229t177 -78z" />
    <glyph glyph-name="p" unicode="p" horiz-adv-x="1204" 
d="M125 -469v1534h246l28 -115h9q101 133 294 133q199 0 318 -152.5t119 -400.5q0 -158 -51 -281.5t-151 -195t-235 -71.5q-193 0 -294 133h-9v-584h-274zM625 223q64 0 110.5 24t73 67.5t39 97t12.5 118.5q0 66 -12.5 120t-39.5 98.5t-73.5 69t-109.5 24.5
q-120 0 -178 -87.5t-58 -224.5q0 -65 13 -118.5t39.5 -97t73.5 -67.5t110 -24z" />
    <glyph glyph-name="q" unicode="q" 
d="M805 -469v584h-8q-101 -133 -293 -133q-204 0 -321 153t-117 395q0 249 118 401t320 152q192 0 293 -133h8l29 115h245v-1534h-274zM580 223q122 0 178.5 85t56.5 222q0 138 -57 225t-178 87t-178.5 -87t-57.5 -225q0 -65 12.5 -118.5t39 -97t73.5 -67.5t111 -24z" />
    <glyph glyph-name="r" unicode="r" horiz-adv-x="796" 
d="M125 0v1065h231l21 -162h8q37 80 108.5 129t168.5 49h77v-254h-96q-123 0 -190.5 -80t-67.5 -225v-522h-260z" />
    <glyph glyph-name="s" unicode="s" horiz-adv-x="1046" 
d="M528 -18q-224 0 -340.5 101t-121.5 275h274q0 -64 49 -104.5t139 -40.5q87 0 132 27t45 71q0 80 -123 103l-172 32q-141 27 -226.5 106t-85.5 218q0 135 113.5 224t310.5 89q196 0 315 -99.5t119 -254.5h-270q0 59 -43.5 97t-124.5 38q-69 0 -110 -26.5t-41 -69.5
q0 -74 108 -96l195 -35q69 -14 122 -36.5t97.5 -59t68 -94.5t23.5 -134q0 -155 -126.5 -243t-326.5 -88z" />
    <glyph glyph-name="t" unicode="t" horiz-adv-x="854" 
d="M561 0q-170 0 -252 87.5t-82 236.5v507h-174v234h185v281h264v-281h256v-234h-256v-448q0 -75 33 -109t104 -34h123v-240h-201z" />
    <glyph glyph-name="u" unicode="u" horiz-adv-x="1187" 
d="M508 -18q-177 0 -282 104t-105 281v698h274v-621q0 -213 197 -213q99 0 159 65.5t60 178.5v590h274v-1065h-245l-21 121h-8q-103 -139 -303 -139z" />
    <glyph glyph-name="v" unicode="v" horiz-adv-x="1107" 
d="M387 0l-360 1044v21h282l246 -795h8l240 795h278v-21l-356 -1044h-338z" />
    <glyph glyph-name="w" unicode="w" horiz-adv-x="1656" 
d="M299 0l-272 1044v21h272l174 -758h8l172 758h353l172 -758h8l176 758h268v-21l-270 -1044h-348l-176 756h-9l-180 -756h-348z" />
    <glyph glyph-name="x" unicode="x" horiz-adv-x="1107" 
d="M29 0v20l338 515l-326 509v21h295l215 -358h8l215 358h295v-21l-328 -507l338 -517v-20h-299l-221 367h-8l-223 -367h-299z" />
    <glyph glyph-name="y" unicode="y" horiz-adv-x="1138" 
d="M27 1065h282l246 -778h8l254 778h295v-21l-551 -1513h-295v20l162 451l-39 2l-362 1040v21z" />
    <glyph glyph-name="z" unicode="z" horiz-adv-x="1028" 
d="M84 0v229l522 594v8h-520v234h854v-231l-520 -592v-9h524v-233h-860z" />
    <glyph glyph-name="braceleft" unicode="{" horiz-adv-x="880" 
d="M326 610v-8q170 -25 170 -215v-354q0 -90 38.5 -131t122.5 -41h91v-213h-150q-153 0 -243.5 88t-90.5 239v336q0 95 -47.5 138.5t-142.5 46.5v221q96 3 143 46t47 138v336q0 152 90.5 240t243.5 88h150v-213h-91q-84 0 -122.5 -41t-38.5 -131v-355q0 -190 -170 -215z" />
    <glyph glyph-name="bar" unicode="|" horiz-adv-x="561" 
d="M162 -283v1839h237v-1839h-237z" />
    <glyph glyph-name="braceright" unicode="}" horiz-adv-x="880" 
d="M616 901q0 -95 47.5 -138t143.5 -46v-221q-96 -3 -143.5 -46.5t-47.5 -138.5v-336q0 -152 -90 -239.5t-243 -87.5h-150v213h90q85 0 123.5 41.5t38.5 130.5v354q0 190 170 215v8q-170 25 -170 215v355q0 89 -38.5 130.5t-123.5 41.5h-90v213h150q153 0 243 -88t90 -240
v-336z" />
    <glyph glyph-name="asciitilde" unicode="~" horiz-adv-x="1114" 
d="M760 416q-98 0 -199 55l-94 51q-60 31 -111 31q-113 0 -161 -117l-146 99q37 105 114 171t189 66q102 0 197 -53l94 -51q64 -33 117 -33q111 0 162 117l145 -99q-37 -105 -114.5 -171t-192.5 -66z" />
    <glyph glyph-name="exclamdown" unicode="&#xa1;" horiz-adv-x="528" 
d="M115 772v293h303v-293h-303zM119 -369v197l43 782h198l54 -782v-197h-295z" />
    <glyph glyph-name="cent" unicode="&#xa2;" horiz-adv-x="1124" 
d="M1059 586q-11 -169 -112 -281t-281 -135v-170h-183v174q-199 30 -308 175t-109 368t108.5 369t308.5 176v172h183v-172q181 -22 281.5 -136t109.5 -282h-277q-6 59 -35.5 102.5t-78.5 63.5v-588q103 41 116 164h277zM346 717q0 -236 137 -291v582q-137 -58 -137 -291z
" />
    <glyph glyph-name="sterling" unicode="&#xa3;" horiz-adv-x="1245" 
d="M70 0v240q67 0 107 42.5t40 120.5v177h-149v237h149v205q0 89 32 168t91 138.5t149 94.5t199 35q110 0 200 -36t147.5 -97.5t88.5 -141t31 -167.5h-262q0 89 -51.5 152t-157.5 63q-97 0 -152 -58.5t-55 -150.5v-205h391v-237h-391v-185q0 -115 -67 -153v-9h782v-233
h-1122z" />
    <glyph glyph-name="currency" unicode="&#xa4;" horiz-adv-x="1163" 
d="M211 -31l-152 152l142 147q-66 109 -66 236q0 130 68 241l-144 150l154 149l145 -149q110 63 230 63t223 -59l141 145l154 -149l-139 -143q75 -115 75 -248q0 -134 -73 -244l137 -139l-154 -152l-137 142q-114 -62 -227 -62q-121 0 -234 68zM588 272q95 0 159 65t64 167
q0 100 -64 165.5t-159 65.5q-98 0 -164 -65.5t-66 -165.5q0 -102 66 -167t164 -65z" />
    <glyph glyph-name="yen" unicode="&#xa5;" horiz-adv-x="1400" 
d="M1368 1434v-21l-367 -590h195v-211h-326l-20 -32v-121h346v-209h-346v-250h-283v250h-362v209h362v119l-22 34h-340v211h205l-377 590v21h344l330 -576h8l329 576h324z" />
    <glyph glyph-name="brokenbar" unicode="&#xa6;" horiz-adv-x="561" 
d="M162 823v733h237v-733h-237zM162 -283v734h237v-734h-237z" />
    <glyph glyph-name="section" unicode="&#xa7;" horiz-adv-x="1245" 
d="M608 -502q-189 0 -300 109t-113 280h229q2 -79 50.5 -125.5t133.5 -46.5q80 0 125 39.5t45 100.5q0 49 -22.5 84t-71.5 71l-358 262q-104 75 -149.5 149t-45.5 177q0 181 184 285q-84 97 -84 223q0 151 111 248.5t295 97.5q190 0 301 -109t111 -280h-228
q-2 79 -50.5 125.5t-133.5 46.5q-79 0 -124.5 -39t-45.5 -100q0 -49 23 -84.5t71 -71.5l346 -252q110 -78 158.5 -155.5t48.5 -182.5q0 -95 -52.5 -165.5t-131.5 -116.5q84 -97 84 -224q0 -151 -109.5 -248.5t-296.5 -97.5zM774 209q50 20 77.5 55.5t27.5 79.5q0 96 -91 162
l-317 235q-51 -20 -78.5 -56.5t-27.5 -82.5q0 -92 86 -153z" />
    <glyph glyph-name="dieresis" unicode="&#xa8;" horiz-adv-x="882" 
d="M119 1239v250h250v-250h-250zM516 1239v250h248v-250h-248z" />
    <glyph glyph-name="copyright" unicode="&#xa9;" horiz-adv-x="1679" 
d="M840 1452q211 0 374 -94.5t252 -261.5t90 -379q-1 -212 -90 -379t-252 -261.5t-374 -94.5q-158 0 -292 55t-227 152.5t-145 233.5t-53 294q1 158 53 294t145 233.5t227 152.5t292 55zM840 156q250 0 392 151t144 410q-2 259 -144 410t-392 151t-392.5 -151t-144.5 -410
q2 -259 144.5 -410t392.5 -151zM844 459q155 0 172 145h172q-11 -132 -99.5 -217.5t-242.5 -85.5q-180 0 -276.5 109.5t-96.5 300.5q0 190 96.5 300.5t274.5 110.5q107 0 184.5 -44.5t114.5 -112.5t41 -150h-172q-6 74 -52 111t-116 37q-197 0 -197 -252t197 -252z" />
    <glyph glyph-name="ordfeminine" unicode="&#xaa;" horiz-adv-x="751" 
d="M311 606q-114 0 -179.5 62t-65.5 157q0 99 71.5 158t212.5 59q74 0 152 -20v57q0 44 -29 71.5t-90 27.5q-54 0 -84.5 -24.5t-30.5 -61.5h-172q0 103 77 170t216 67q137 0 217 -70t80 -178v-463h-164l-12 72h-6q-64 -84 -193 -84zM354 752q67 0 107.5 35.5t40.5 89.5v14
q-55 22 -135 22q-58 0 -88.5 -21t-30.5 -58q0 -38 27 -60t79 -22z" />
    <glyph glyph-name="guillemotleft" unicode="&#xab;" horiz-adv-x="1245" 
d="M393 135l-340 434v21l340 434h258v-20l-286 -424l286 -424v-21h-258zM907 135l-340 434v21l340 434h258v-20l-286 -424l286 -424v-21h-258z" />
    <glyph glyph-name="registered" unicode="&#xae;" horiz-adv-x="1030" 
d="M514 567q-204 0 -334.5 133.5t-130.5 331.5t130.5 331.5t334.5 133.5t334.5 -133.5t130.5 -331.5t-130.5 -331.5t-334.5 -133.5zM514 702q149 0 236.5 87.5t87.5 242.5t-87.5 242.5t-236.5 87.5q-148 0 -234.5 -87.5t-86.5 -242.5t86.5 -242.5t234.5 -87.5zM344 813v426
h209q69 0 113.5 -41.5t44.5 -103.5q0 -43 -19 -79.5t-53 -56.5l88 -133v-12h-123l-80 129h-65v-129h-115zM459 1042h76q55 0 55 50q0 45 -55 45h-76v-95z" />
    <glyph glyph-name="macron" unicode="&#xaf;" horiz-adv-x="716" 
d="M63 1249v209h590v-209h-590z" />
    <glyph glyph-name="degree" unicode="&#xb0;" horiz-adv-x="874" 
d="M438 750q-156 0 -259 101.5t-103 254.5t103 254.5t259 101.5q155 0 258 -102t103 -254t-103 -254t-258 -102zM438 932q76 0 121 50t45 124q0 75 -44.5 124.5t-121.5 49.5t-121.5 -49.5t-44.5 -124.5t44.5 -124.5t121.5 -49.5z" />
    <glyph glyph-name="plusminus" unicode="&#xb1;" horiz-adv-x="1003" 
d="M381 401v297h-371v236h371v299h252v-299h360v-236h-360v-297h-252zM10 49v236h983v-236h-983z" />
    <glyph glyph-name="uni00B2" unicode="&#xb2;" horiz-adv-x="837" 
d="M82 510v164l319 289q82 74 111 114.5t29 91.5q0 49 -34.5 81t-92.5 32q-62 0 -98.5 -36t-36.5 -97h-199q0 138 92 223.5t242 85.5q148 0 237.5 -80.5t89.5 -201.5q0 -77 -37.5 -141.5t-130.5 -147.5l-217 -191v-6h400v-180h-674z" />
    <glyph glyph-name="uni00B3" unicode="&#xb3;" horiz-adv-x="878" 
d="M444 489q-163 0 -263.5 81.5t-100.5 228.5h196q0 -54 40 -93.5t126 -39.5q76 0 114 32t38 86q0 55 -41.5 86t-124.5 31h-88v176h86q141 0 141 105q0 43 -35.5 72.5t-97.5 29.5q-71 0 -106 -36t-37 -99h-195q2 143 93.5 226t248.5 83q142 0 237 -72.5t95 -189.5
q0 -71 -34 -120.5t-87 -71.5v-9q67 -22 108.5 -78.5t41.5 -132.5q0 -131 -91 -213t-264 -82z" />
    <glyph glyph-name="acute" unicode="&#xb4;" horiz-adv-x="571" 
d="M63 1194v20l142 293h301v-20l-238 -293h-205z" />
    <glyph glyph-name="paragraph" unicode="&#xb6;" horiz-adv-x="1255" 
d="M451 -213v936q-160 0 -272.5 113.5t-112.5 273.5t112.5 272.5t272.5 112.5h733v-201h-127v-1507h-228v1507h-151v-1507h-227z" />
    <glyph glyph-name="periodcentered" unicode="&#xb7;" horiz-adv-x="495" 
d="M96 465v293h303v-293h-303z" />
    <glyph glyph-name="cedilla" unicode="&#xb8;" horiz-adv-x="673" 
d="M326 -461q-113 0 -188 54.5t-75 148.5h168q0 -28 26 -46t67 -18q39 0 67.5 16.5t28.5 45.5q0 28 -24 45.5t-66 17.5h-66l-51 64l82 162h188l-73 -109q89 -4 143.5 -54.5t54.5 -127.5q0 -87 -74.5 -143t-207.5 -56z" />
    <glyph glyph-name="uni00B9" unicode="&#xb9;" horiz-adv-x="600" 
d="M322 508v715h-9l-217 -164h-16v196l239 179h201v-926h-198z" />
    <glyph glyph-name="ordmasculine" unicode="&#xba;" horiz-adv-x="815" 
d="M406 606q-161 0 -250.5 100.5t-89.5 262.5q0 160 90 260t250 100q163 0 252.5 -100t89.5 -260q0 -162 -89 -262.5t-253 -100.5zM406 770q151 0 151 199q0 196 -151 196q-73 0 -111.5 -50t-38.5 -146q0 -99 38.5 -149t111.5 -50z" />
    <glyph glyph-name="guillemotright" unicode="&#xbb;" horiz-adv-x="1245" 
d="M336 135h-258v21l287 424l-287 424v20h258l340 -434v-21zM852 135h-258v21l287 424l-287 424v20h258l340 -434v-21z" />
    <glyph glyph-name="onequarter" unicode="&#xbc;" horiz-adv-x="1857" 
d="M322 508v715h-9l-217 -164h-16v196l239 179h201v-926h-198zM346 0v20l889 1414h217v-21l-885 -1413h-221zM1468 0v172h-421v195l356 559h264v-576h111v-178h-111v-172h-199zM1241 350h227v350h-8l-219 -342v-8z" />
    <glyph glyph-name="onehalf" unicode="&#xbd;" horiz-adv-x="1937" 
d="M322 508v715h-9l-217 -164h-16v196l239 179h201v-926h-198zM346 0v20l889 1414h217v-21l-885 -1413h-221zM1182 0v162l319 289q81 73 109 114t28 94q0 49 -33.5 80t-91.5 31q-62 0 -98.5 -35t-36.5 -96h-198q0 138 91.5 223.5t241.5 85.5q148 0 238 -80.5t90 -201.5
q0 -78 -37.5 -143t-130.5 -146l-217 -193v-6h399v-178h-673z" />
    <glyph glyph-name="threequarters" unicode="&#xbe;" horiz-adv-x="2041" 
d="M444 489q-163 0 -263.5 81.5t-100.5 228.5h196q0 -54 40 -93.5t126 -39.5q76 0 114 32t38 86q0 55 -41.5 86t-124.5 31h-88v176h86q141 0 141 105q0 43 -35.5 72.5t-97.5 29.5q-71 0 -106 -36t-37 -99h-195q2 143 93.5 226t248.5 83q142 0 237 -72.5t95 -189.5
q0 -71 -34 -120.5t-87 -71.5v-9q67 -22 108.5 -78.5t41.5 -132.5q0 -131 -91 -213t-264 -82zM530 0v20l889 1414h217v-21l-884 -1413h-222zM1653 0v172h-422v195l356 559h264v-576h111v-178h-111v-172h-198zM1425 350h228v350h-8l-220 -342v-8z" />
    <glyph glyph-name="questiondown" unicode="&#xbf;" horiz-adv-x="1112" 
d="M432 772v293h303v-293h-303zM551 -389q-214 0 -342.5 110t-128.5 281q0 190 156 311l86 68q76 59 103.5 96.5t27.5 100.5v32h266v-32q0 -84 -23.5 -145.5t-58.5 -100t-102 -90.5l-66 -52q-56 -44 -81.5 -81.5t-25.5 -92.5q0 -69 46.5 -116t142.5 -47q100 0 151.5 51
t51.5 151h278q0 -95 -30 -175t-88 -140.5t-151 -94.5t-212 -34z" />
    <glyph glyph-name="Agrave" unicode="&#xc0;" horiz-adv-x="1425" 
d="M864 1563h-205l-237 292v21h303l139 -293v-20zM891 1434l504 -1414v-20h-310l-98 301h-561l-98 -301h-295v20l502 1414h356zM508 549h397l-194 598h-9z" />
    <glyph glyph-name="Aacute" unicode="&#xc1;" horiz-adv-x="1425" 
d="M1024 1855l-238 -292h-204v20l141 293h301v-21zM891 1434l504 -1414v-20h-310l-98 301h-561l-98 -301h-295v20l502 1414h356zM508 549h397l-194 598h-9z" />
    <glyph glyph-name="Acircumflex" unicode="&#xc2;" horiz-adv-x="1425" 
d="M713 1692l-123 -125h-221v20l196 285h303l199 -285v-20h-223l-123 125h-8zM891 1434l504 -1414v-20h-310l-98 301h-561l-98 -301h-295v20l502 1414h356zM508 549h397l-194 598h-9z" />
    <glyph glyph-name="Atilde" unicode="&#xc3;" horiz-adv-x="1425" 
d="M571 1655q-27 0 -44 -20.5t-17 -57.5h-170v31q0 117 58.5 181t156.5 64q59 0 143 -41l31 -16q53 -29 76 -29q57 0 57 82h168v-30q0 -246 -213 -246q-73 0 -139 39l-31 16q-52 27 -76 27zM891 1434l504 -1414v-20h-310l-98 301h-561l-98 -301h-295v20l502 1414h356z
M508 549h397l-194 598h-9z" />
    <glyph glyph-name="Adieresis" unicode="&#xc4;" horiz-adv-x="1425" 
d="M643 1858v-250h-250v250h250zM1038 1858v-250h-247v250h247zM891 1434l504 -1414v-20h-310l-98 301h-561l-98 -301h-295v20l502 1414h356zM508 549h397l-194 598h-9z" />
    <glyph glyph-name="Aring" unicode="&#xc5;" horiz-adv-x="1425" 
d="M711 1534q-102 0 -170 65t-68 164q0 101 68 166.5t170 65.5q104 0 170.5 -65.5t66.5 -166.5q0 -100 -66.5 -164.5t-170.5 -64.5zM709 1855q-40 0 -65.5 -26.5t-25.5 -65.5t25 -64.5t66 -25.5q42 0 68 25.5t26 64.5t-26 65.5t-68 26.5zM891 1434l504 -1414v-20h-310
l-98 301h-561l-98 -301h-295v20l502 1414h356zM508 549h397l-194 598h-9z" />
    <glyph glyph-name="AE" unicode="&#xc6;" horiz-adv-x="1871" 
d="M33 0v20l502 1414h1245v-252h-801l115 -318h622v-250h-534l131 -364h467v-250h-695l-98 301h-561l-98 -301h-295zM506 549h401l-196 598h-9z" />
    <glyph glyph-name="Ccedilla" unicode="&#xc7;" horiz-adv-x="1452" 
d="M756 236q146 0 227.5 74.5t103.5 197.5h285q-15 -139 -83.5 -251.5t-189 -185.5t-276.5 -87l-43 -64q89 -4 144 -54.5t55 -127.5q0 -87 -75 -143t-208 -56q-113 0 -187.5 54.5t-74.5 148.5h168q0 -28 25.5 -46t66.5 -18q40 0 68.5 16.5t28.5 45.5q0 28 -24.5 45.5
t-66.5 17.5h-65l-51 64l61 121q-272 36 -418.5 234t-146.5 493q0 160 43.5 293.5t126.5 233t212.5 155t293.5 55.5q175 0 313 -72.5t214.5 -194.5t88.5 -274h-287q-11 124 -94.5 204.5t-234.5 80.5q-193 0 -291 -128.5t-98 -352.5t98 -351.5t291 -127.5z" />
    <glyph glyph-name="Egrave" unicode="&#xc8;" horiz-adv-x="1249" 
d="M631 1563l-238 292v21h303l140 -293v-20h-205zM162 0v1434h993v-252h-713v-318h650v-250h-650v-364h713v-250h-993z" />
    <glyph glyph-name="Eacute" unicode="&#xc9;" horiz-adv-x="1249" 
d="M553 1563v20l141 293h301v-21l-237 -292h-205zM162 0v1434h993v-252h-713v-318h650v-250h-650v-364h713v-250h-993z" />
    <glyph glyph-name="Ecircumflex" unicode="&#xca;" horiz-adv-x="1249" 
d="M340 1567v20l197 285h303l198 -285v-20h-223l-123 125h-8l-123 -125h-221zM162 0v1434h993v-252h-713v-318h650v-250h-650v-364h713v-250h-993z" />
    <glyph glyph-name="Edieresis" unicode="&#xcb;" horiz-adv-x="1249" 
d="M365 1608v250h249v-250h-249zM762 1608v250h248v-250h-248zM162 0v1434h993v-252h-713v-318h650v-250h-650v-364h713v-250h-993z" />
    <glyph glyph-name="Igrave" unicode="&#xcc;" horiz-adv-x="604" 
d="M254 1563l-238 292v21h303l140 -293v-20h-205zM162 0v1434h282v-1434h-282z" />
    <glyph glyph-name="Iacute" unicode="&#xcd;" horiz-adv-x="604" 
d="M176 1563v20l141 293h301v-21l-237 -292h-205zM162 0v1434h282v-1434h-282z" />
    <glyph glyph-name="Icircumflex" unicode="&#xce;" horiz-adv-x="604" 
d="M-37 1567v20l197 285h303l199 -285v-20h-224l-123 125h-8l-123 -125h-221zM162 0v1434h282v-1434h-282z" />
    <glyph glyph-name="Idieresis" unicode="&#xcf;" horiz-adv-x="604" 
d="M-12 1608v250h250v-250h-250zM385 1608v250h248v-250h-248zM162 0v1434h282v-1434h-282z" />
    <glyph glyph-name="Eth" unicode="&#xd0;" horiz-adv-x="1531" 
d="M741 1434q209 0 370.5 -89t251 -252.5t89.5 -375.5q0 -149 -49.5 -280t-139.5 -228t-225 -153t-297 -56h-489v623h-148v239h148v572h489zM723 250q213 0 327.5 121t114.5 346q0 223 -114.5 344t-327.5 121h-207v-320h324v-239h-324v-373h207z" />
    <glyph glyph-name="Ntilde" unicode="&#xd1;" horiz-adv-x="1521" 
d="M913 1573q-73 0 -139 39l-31 16q-4 2 -12.5 6.5t-12.5 6.5t-11.5 5.5t-12.5 5t-12 2.5t-14 1q-27 0 -44.5 -20.5t-17.5 -57.5h-170v31q0 117 58.5 181t156.5 64q60 0 144 -41l30 -16q53 -29 76 -29q57 0 57 82h168v-30q0 -246 -213 -246zM162 0v1434h325l586 -996h8v996
h279v-1434h-328l-586 989h-8v-989h-276z" />
    <glyph glyph-name="Ograve" unicode="&#xd2;" horiz-adv-x="1515" 
d="M709 1563l-238 292v21h303l139 -293v-20h-204zM758 -18q-167 0 -298 57t-213 157.5t-124.5 232.5t-42.5 288q0 157 42.5 289t124.5 232.5t213 157t298 56.5q166 0 297 -56.5t213.5 -157t125 -232.5t42.5 -289q0 -156 -42.5 -288t-125 -232.5t-213.5 -157.5t-297 -57z
M758 238q194 0 292.5 127.5t98.5 351.5t-98.5 351.5t-292.5 127.5q-195 0 -293 -127.5t-98 -351.5t98.5 -351.5t292.5 -127.5z" />
    <glyph glyph-name="Oacute" unicode="&#xd3;" horiz-adv-x="1515" 
d="M631 1563v20l141 293h301v-21l-237 -292h-205zM758 -18q-167 0 -298 57t-213 157.5t-124.5 232.5t-42.5 288q0 157 42.5 289t124.5 232.5t213 157t298 56.5q166 0 297 -56.5t213.5 -157t125 -232.5t42.5 -289q0 -156 -42.5 -288t-125 -232.5t-213.5 -157.5t-297 -57z
M758 238q194 0 292.5 127.5t98.5 351.5t-98.5 351.5t-292.5 127.5q-195 0 -293 -127.5t-98 -351.5t98.5 -351.5t292.5 -127.5z" />
    <glyph glyph-name="Ocircumflex" unicode="&#xd4;" horiz-adv-x="1515" 
d="M418 1567v20l196 285h304l198 -285v-20h-223l-123 125h-8l-123 -125h-221zM758 -18q-167 0 -298 57t-213 157.5t-124.5 232.5t-42.5 288q0 157 42.5 289t124.5 232.5t213 157t298 56.5q166 0 297 -56.5t213.5 -157t125 -232.5t42.5 -289q0 -156 -42.5 -288t-125 -232.5
t-213.5 -157.5t-297 -57zM758 238q194 0 292.5 127.5t98.5 351.5t-98.5 351.5t-292.5 127.5q-195 0 -293 -127.5t-98 -351.5t98.5 -351.5t292.5 -127.5z" />
    <glyph glyph-name="Otilde" unicode="&#xd5;" horiz-adv-x="1515" 
d="M866 1573q-73 0 -139 39l-31 16q-4 2 -12.5 6.5t-12.5 6.5t-11.5 5.5t-12.5 5t-12 2.5t-14 1q-27 0 -44.5 -20.5t-17.5 -57.5h-170v31q0 117 58.5 181t156.5 64q60 0 144 -41l30 -16q53 -29 76 -29q57 0 57 82h168v-30q0 -246 -213 -246zM758 -18q-167 0 -298 57
t-213 157.5t-124.5 232.5t-42.5 288q0 157 42.5 289t124.5 232.5t213 157t298 56.5q166 0 297 -56.5t213.5 -157t125 -232.5t42.5 -289q0 -156 -42.5 -288t-125 -232.5t-213.5 -157.5t-297 -57zM758 238q194 0 292.5 127.5t98.5 351.5t-98.5 351.5t-292.5 127.5
q-195 0 -293 -127.5t-98 -351.5t98.5 -351.5t292.5 -127.5z" />
    <glyph glyph-name="Odieresis" unicode="&#xd6;" horiz-adv-x="1515" 
d="M442 1608v250h250v-250h-250zM840 1608v250h247v-250h-247zM758 -18q-167 0 -298 57t-213 157.5t-124.5 232.5t-42.5 288q0 157 42.5 289t124.5 232.5t213 157t298 56.5q166 0 297 -56.5t213.5 -157t125 -232.5t42.5 -289q0 -156 -42.5 -288t-125 -232.5t-213.5 -157.5
t-297 -57zM758 238q194 0 292.5 127.5t98.5 351.5t-98.5 351.5t-292.5 127.5q-195 0 -293 -127.5t-98 -351.5t98.5 -351.5t292.5 -127.5z" />
    <glyph glyph-name="multiply" unicode="&#xd7;" horiz-adv-x="923" 
d="M180 201l-168 168l287 282l-287 283l168 168l287 -283l285 283l168 -168l-285 -283l285 -282l-168 -168l-285 284z" />
    <glyph glyph-name="Oslash" unicode="&#xd8;" horiz-adv-x="1515" 
d="M1458 1511v-20l-186 -258q164 -197 164 -516q0 -156 -42.5 -288t-125 -232.5t-213.5 -157.5t-297 -57q-197 0 -338 75l-109 -149h-254v20l193 267q-170 194 -170 522q0 157 42.5 289t124.5 232.5t213 157t298 56.5q192 0 342 -78l100 137h258zM367 717q0 -170 55 -283
l522 721q-80 41 -186 41q-195 0 -293 -127.5t-98 -351.5zM1149 717q0 166 -51 274l-520 -717q73 -36 180 -36q194 0 292.5 127.5t98.5 351.5z" />
    <glyph glyph-name="Ugrave" unicode="&#xd9;" horiz-adv-x="1462" 
d="M678 1563l-238 292v21h303l140 -293v-20h-205zM729 -18q-171 0 -302 63t-208.5 192.5t-77.5 311.5v885h281v-881q0 -69 16 -124.5t50.5 -101t95.5 -70t145 -24.5q309 0 309 320v881h283v-885q0 -182 -77.5 -311.5t-209.5 -192.5t-305 -63z" />
    <glyph glyph-name="Uacute" unicode="&#xda;" horiz-adv-x="1462" 
d="M600 1563v20l141 293h301v-21l-237 -292h-205zM729 -18q-171 0 -302 63t-208.5 192.5t-77.5 311.5v885h281v-881q0 -69 16 -124.5t50.5 -101t95.5 -70t145 -24.5q309 0 309 320v881h283v-885q0 -182 -77.5 -311.5t-209.5 -192.5t-305 -63z" />
    <glyph glyph-name="Ucircumflex" unicode="&#xdb;" horiz-adv-x="1462" 
d="M387 1567v20l197 285h303l198 -285v-20h-223l-123 125h-8l-123 -125h-221zM729 -18q-171 0 -302 63t-208.5 192.5t-77.5 311.5v885h281v-881q0 -69 16 -124.5t50.5 -101t95.5 -70t145 -24.5q309 0 309 320v881h283v-885q0 -182 -77.5 -311.5t-209.5 -192.5t-305 -63z" />
    <glyph glyph-name="Udieresis" unicode="&#xdc;" horiz-adv-x="1462" 
d="M412 1608v250h250v-250h-250zM809 1608v250h248v-250h-248zM729 -18q-171 0 -302 63t-208.5 192.5t-77.5 311.5v885h281v-881q0 -69 16 -124.5t50.5 -101t95.5 -70t145 -24.5q309 0 309 320v881h283v-885q0 -182 -77.5 -311.5t-209.5 -192.5t-305 -63z" />
    <glyph glyph-name="Yacute" unicode="&#xdd;" horiz-adv-x="1400" 
d="M586 1563v20l141 293h301v-21l-237 -292h-205zM561 0v578l-528 835v21h323l344 -576h9l335 576h324v-21l-524 -833v-580h-283z" />
    <glyph glyph-name="Thorn" unicode="&#xde;" horiz-adv-x="1300" 
d="M162 0v1434h282v-191h332q216 0 344.5 -131.5t128.5 -335.5q0 -208 -129.5 -341.5t-343.5 -133.5h-332v-301h-282zM444 553h281q238 0 238 223q0 105 -62.5 161t-175.5 56h-281v-440z" />
    <glyph glyph-name="germandbls" unicode="&#xdf;" horiz-adv-x="1374" 
d="M905 -18q-200 0 -311.5 101.5t-116.5 276.5h260q0 -67 39 -109t129 -42q65 0 103.5 26t38.5 70q0 42 -34 69t-106 52l-131 41q-134 44 -200 110.5t-66 176.5q0 61 19.5 108t51.5 75.5t70 50.5t76 38.5t70 33t51.5 40.5t19.5 55q0 69 -59.5 106t-167.5 37
q-117 0 -179.5 -60.5t-62.5 -174.5v-1063h-274v1067q0 211 141.5 340t374.5 129q231 0 359 -106.5t128 -272.5q0 -77 -27 -134.5t-67.5 -87.5t-87.5 -54t-87.5 -38t-67.5 -36.5t-27 -52.5q0 -36 26 -55t82 -37l166 -56q142 -46 206.5 -118t64.5 -185q0 -145 -111 -233
t-293 -88z" />
    <glyph glyph-name="agrave" unicode="&#xe0;" horiz-adv-x="1112" 
d="M514 1194l-238 293v20h304l139 -293v-20h-205zM438 -18q-174 0 -273 93t-99 238q0 151 107.5 240.5t322.5 89.5h237v59q0 69 -45.5 112.5t-138.5 43.5q-83 0 -130.5 -39t-47.5 -98h-258q0 158 116 260t326 102q211 0 332 -105.5t121 -272.5v-705h-244l-21 111h-8
q-98 -129 -297 -129zM504 199q104 0 166.5 57t62.5 139v58h-217q-88 0 -133 -34t-45 -93q0 -58 42.5 -92.5t123.5 -34.5z" />
    <glyph glyph-name="aacute" unicode="&#xe1;" horiz-adv-x="1112" 
d="M436 1194v20l142 293h301v-20l-238 -293h-205zM438 -18q-174 0 -273 93t-99 238q0 151 107.5 240.5t322.5 89.5h237v59q0 69 -45.5 112.5t-138.5 43.5q-83 0 -130.5 -39t-47.5 -98h-258q0 158 116 260t326 102q211 0 332 -105.5t121 -272.5v-705h-244l-21 111h-8
q-98 -129 -297 -129zM504 199q104 0 166.5 57t62.5 139v58h-217q-88 0 -133 -34t-45 -93q0 -58 42.5 -92.5t123.5 -34.5z" />
    <glyph glyph-name="acircumflex" unicode="&#xe2;" horiz-adv-x="1112" 
d="M223 1198v21l197 284h303l199 -284v-21h-224l-123 125h-8l-123 -125h-221zM438 -18q-174 0 -273 93t-99 238q0 151 107.5 240.5t322.5 89.5h237v59q0 69 -45.5 112.5t-138.5 43.5q-83 0 -130.5 -39t-47.5 -98h-258q0 158 116 260t326 102q211 0 332 -105.5t121 -272.5
v-705h-244l-21 111h-8q-98 -129 -297 -129zM504 199q104 0 166.5 57t62.5 139v58h-217q-88 0 -133 -34t-45 -93q0 -58 42.5 -92.5t123.5 -34.5z" />
    <glyph glyph-name="atilde" unicode="&#xe3;" horiz-adv-x="1112" 
d="M672 1204q-74 0 -140 39l-30 17q-50 26 -76 26q-27 0 -44 -20.5t-17 -57.5h-170v31q0 117 58.5 181.5t156.5 64.5q59 0 143 -41l31 -17q51 -28 75 -28q58 0 58 82h168v-31q0 -246 -213 -246zM438 -18q-174 0 -273 93t-99 238q0 151 107.5 240.5t322.5 89.5h237v59
q0 69 -45.5 112.5t-138.5 43.5q-83 0 -130.5 -39t-47.5 -98h-258q0 158 116 260t326 102q211 0 332 -105.5t121 -272.5v-705h-244l-21 111h-8q-98 -129 -297 -129zM504 199q104 0 166.5 57t62.5 139v58h-217q-88 0 -133 -34t-45 -93q0 -58 42.5 -92.5t123.5 -34.5z" />
    <glyph glyph-name="adieresis" unicode="&#xe4;" horiz-adv-x="1112" 
d="M248 1239v250h250v-250h-250zM645 1239v250h248v-250h-248zM438 -18q-174 0 -273 93t-99 238q0 151 107.5 240.5t322.5 89.5h237v59q0 69 -45.5 112.5t-138.5 43.5q-83 0 -130.5 -39t-47.5 -98h-258q0 158 116 260t326 102q211 0 332 -105.5t121 -272.5v-705h-244
l-21 111h-8q-98 -129 -297 -129zM504 199q104 0 166.5 57t62.5 139v58h-217q-88 0 -133 -34t-45 -93q0 -58 42.5 -92.5t123.5 -34.5z" />
    <glyph glyph-name="aring" unicode="&#xe5;" horiz-adv-x="1112" 
d="M565 1165q-102 0 -169.5 65.5t-67.5 164.5q0 101 67.5 166t169.5 65q104 0 171 -65t67 -166q0 -100 -67 -165t-171 -65zM563 1305q42 0 68 25.5t26 64.5t-26 65.5t-68 26.5q-40 0 -65 -26.5t-25 -65.5t24.5 -64.5t65.5 -25.5zM438 -18q-174 0 -273 93t-99 238
q0 151 107.5 240.5t322.5 89.5h237v59q0 69 -45.5 112.5t-138.5 43.5q-83 0 -130.5 -39t-47.5 -98h-258q0 158 116 260t326 102q211 0 332 -105.5t121 -272.5v-705h-244l-21 111h-8q-98 -129 -297 -129zM504 199q104 0 166.5 57t62.5 139v58h-217q-88 0 -133 -34t-45 -93
q0 -58 42.5 -92.5t123.5 -34.5z" />
    <glyph glyph-name="ae" unicode="&#xe6;" horiz-adv-x="1798" 
d="M444 -18q-174 0 -276 93t-102 238q0 151 107.5 240.5t322.5 89.5h237v59q0 69 -45.5 112.5t-138.5 43.5q-83 0 -130.5 -39t-47.5 -98h-258q0 158 116 260t326 102q111 0 199 -35.5t145 -95.5h8q124 131 330 131q154 0 268 -70t171 -186.5t57 -263.5v-106h-725
q2 -114 60.5 -181t172.5 -67q87 0 140 34.5t69 88.5h268q-23 -151 -150.5 -250.5t-326.5 -99.5q-259 0 -391 188h-8q-121 -188 -398 -188zM1010 639h442q-5 96 -59.5 155.5t-155.5 59.5q-110 0 -166 -59t-61 -156zM504 199q104 0 166.5 57t62.5 139v58h-217q-88 0 -133 -34
t-45 -93q0 -58 42.5 -92.5t123.5 -34.5z" />
    <glyph glyph-name="ccedilla" unicode="&#xe7;" horiz-adv-x="1124" 
d="M1059 401q-11 -172 -115.5 -284.5t-292.5 -130.5l-43 -66q89 -4 144 -54.5t55 -127.5q0 -87 -75 -143t-208 -56q-113 0 -187.5 54.5t-74.5 148.5h168q0 -28 25.5 -46t66.5 -18q39 0 67.5 16.5t28.5 45.5q0 28 -24 45.5t-66 17.5h-65l-51 64l63 123q-196 33 -302.5 177.5
t-106.5 364.5q0 249 134.5 400t379.5 151q221 0 343.5 -118t133.5 -306h-277q-8 83 -61 133t-139 50q-116 0 -175 -79.5t-59 -230.5q0 -152 59 -230.5t175 -78.5q87 0 140 48.5t62 129.5h277z" />
    <glyph glyph-name="egrave" unicode="&#xe8;" horiz-adv-x="1136" 
d="M524 1194l-237 293v20h303l139 -293v-20h-205zM580 -18q-160 0 -278.5 73.5t-177 196.5t-58.5 278q0 115 32 214.5t93.5 175.5t160 119.5t223.5 43.5q154 0 268 -70t171 -186.5t57 -263.5v-106h-725q2 -113 61 -180.5t173 -67.5q87 0 139.5 34.5t68.5 88.5h269
q-23 -151 -150.5 -250.5t-326.5 -99.5zM348 639h443q-3 96 -58 155.5t-158 59.5q-110 0 -166 -59t-61 -156z" />
    <glyph glyph-name="eacute" unicode="&#xe9;" horiz-adv-x="1136" 
d="M446 1194v20l142 293h301v-20l-238 -293h-205zM580 -18q-160 0 -278.5 73.5t-177 196.5t-58.5 278q0 115 32 214.5t93.5 175.5t160 119.5t223.5 43.5q154 0 268 -70t171 -186.5t57 -263.5v-106h-725q2 -113 61 -180.5t173 -67.5q87 0 139.5 34.5t68.5 88.5h269
q-23 -151 -150.5 -250.5t-326.5 -99.5zM348 639h443q-3 96 -58 155.5t-158 59.5q-110 0 -166 -59t-61 -156z" />
    <glyph glyph-name="ecircumflex" unicode="&#xea;" horiz-adv-x="1136" 
d="M233 1198v21l197 284h303l199 -284v-21h-223l-123 125h-8l-123 -125h-222zM580 -18q-160 0 -278.5 73.5t-177 196.5t-58.5 278q0 115 32 214.5t93.5 175.5t160 119.5t223.5 43.5q154 0 268 -70t171 -186.5t57 -263.5v-106h-725q2 -113 61 -180.5t173 -67.5
q87 0 139.5 34.5t68.5 88.5h269q-23 -151 -150.5 -250.5t-326.5 -99.5zM348 639h443q-3 96 -58 155.5t-158 59.5q-110 0 -166 -59t-61 -156z" />
    <glyph glyph-name="edieresis" unicode="&#xeb;" horiz-adv-x="1136" 
d="M258 1239v250h250v-250h-250zM655 1239v250h248v-250h-248zM580 -18q-160 0 -278.5 73.5t-177 196.5t-58.5 278q0 115 32 214.5t93.5 175.5t160 119.5t223.5 43.5q154 0 268 -70t171 -186.5t57 -263.5v-106h-725q2 -113 61 -180.5t173 -67.5q87 0 139.5 34.5t68.5 88.5
h269q-23 -151 -150.5 -250.5t-326.5 -99.5zM348 639h443q-3 96 -58 155.5t-158 59.5q-110 0 -166 -59t-61 -156z" />
    <glyph glyph-name="igrave" unicode="&#xec;" horiz-adv-x="505" 
d="M211 1194l-238 293v20h303l140 -293v-20h-205zM125 0v1065h274v-1065h-274z" />
    <glyph glyph-name="iacute" unicode="&#xed;" horiz-adv-x="505" 
d="M133 1194v20l141 293h301v-20l-237 -293h-205zM125 0v1065h274v-1065h-274z" />
    <glyph glyph-name="icircumflex" unicode="&#xee;" horiz-adv-x="505" 
d="M-80 1198v21l197 284h303l198 -284v-21h-223l-123 125h-8l-123 -125h-221zM125 0v1065h274v-1065h-274z" />
    <glyph glyph-name="idieresis" unicode="&#xef;" horiz-adv-x="505" 
d="M-55 1239v250h250v-250h-250zM342 1239v250h248v-250h-248zM125 0v1065h274v-1065h-274z" />
    <glyph glyph-name="eth" unicode="&#xf0;" horiz-adv-x="1165" 
d="M1100 532v-2q0 -159 -56.5 -281t-175 -194.5t-284.5 -72.5q-126 0 -225.5 41t-163 115t-96.5 173.5t-33 218.5t33.5 219.5t97.5 175t163 116.5t224 42q25 0 65 -4q-40 54 -123 133l-245 -108l-64 143l178 80q-121 95 -254 168v21h279q91 -53 162 -107l223 100l65 -143
l-151 -68q173 -159 273.5 -348.5t107.5 -390.5v-2v-20v-2v-3zM584 223q116 0 176.5 77.5t60.5 229.5q0 153 -60.5 232.5t-176.5 79.5q-117 0 -177.5 -79.5t-60.5 -232.5q0 -151 61 -229t177 -78z" />
    <glyph glyph-name="ntilde" unicode="&#xf1;" horiz-adv-x="1196" 
d="M778 1204q-73 0 -139 39l-31 17q-50 26 -76 26q-27 0 -44 -20.5t-17 -57.5h-170v31q0 117 58.5 181.5t156.5 64.5q59 0 143 -41l31 -17q51 -28 76 -28q57 0 57 82h168v-31q0 -246 -213 -246zM125 0v1065h246l20 -121h8q103 139 303 139q177 0 282.5 -104t105.5 -281v-698
h-275v621q0 213 -197 213q-99 0 -159 -65.5t-60 -178.5v-590h-274z" />
    <glyph glyph-name="ograve" unicode="&#xf2;" horiz-adv-x="1165" 
d="M532 1194l-237 293v20h303l139 -293v-20h-205zM584 -18q-126 0 -225.5 41t-163 115t-96.5 173.5t-33 218.5t33.5 219.5t97.5 175t163 116.5t224 42q164 0 282.5 -73t176 -196.5t57.5 -283.5q0 -159 -56.5 -281t-175 -194.5t-284.5 -72.5zM584 223q116 0 176.5 77.5
t60.5 229.5q0 153 -60.5 232.5t-176.5 79.5q-117 0 -177.5 -79.5t-60.5 -232.5q0 -151 61 -229t177 -78z" />
    <glyph glyph-name="oacute" unicode="&#xf3;" horiz-adv-x="1165" 
d="M455 1194v20l141 293h301v-20l-238 -293h-204zM584 -18q-126 0 -225.5 41t-163 115t-96.5 173.5t-33 218.5t33.5 219.5t97.5 175t163 116.5t224 42q164 0 282.5 -73t176 -196.5t57.5 -283.5q0 -159 -56.5 -281t-175 -194.5t-284.5 -72.5zM584 223q116 0 176.5 77.5
t60.5 229.5q0 153 -60.5 232.5t-176.5 79.5q-117 0 -177.5 -79.5t-60.5 -232.5q0 -151 61 -229t177 -78z" />
    <glyph glyph-name="ocircumflex" unicode="&#xf4;" horiz-adv-x="1165" 
d="M242 1198v21l196 284h303l199 -284v-21h-223l-123 125h-8l-123 -125h-221zM584 -18q-126 0 -225.5 41t-163 115t-96.5 173.5t-33 218.5t33.5 219.5t97.5 175t163 116.5t224 42q164 0 282.5 -73t176 -196.5t57.5 -283.5q0 -159 -56.5 -281t-175 -194.5t-284.5 -72.5z
M584 223q116 0 176.5 77.5t60.5 229.5q0 153 -60.5 232.5t-176.5 79.5q-117 0 -177.5 -79.5t-60.5 -232.5q0 -151 61 -229t177 -78z" />
    <glyph glyph-name="otilde" unicode="&#xf5;" horiz-adv-x="1165" 
d="M690 1204q-73 0 -139 39l-31 17q-50 26 -76 26q-27 0 -44 -20.5t-17 -57.5h-170v31q0 117 58.5 181.5t156.5 64.5q59 0 143 -41l31 -17q51 -28 76 -28q57 0 57 82h168v-31q0 -246 -213 -246zM584 -18q-126 0 -225.5 41t-163 115t-96.5 173.5t-33 218.5t33.5 219.5
t97.5 175t163 116.5t224 42q164 0 282.5 -73t176 -196.5t57.5 -283.5q0 -159 -56.5 -281t-175 -194.5t-284.5 -72.5zM584 223q116 0 176.5 77.5t60.5 229.5q0 153 -60.5 232.5t-176.5 79.5q-117 0 -177.5 -79.5t-60.5 -232.5q0 -151 61 -229t177 -78z" />
    <glyph glyph-name="odieresis" unicode="&#xf6;" horiz-adv-x="1165" 
d="M266 1239v250h250v-250h-250zM664 1239v250h247v-250h-247zM584 -18q-126 0 -225.5 41t-163 115t-96.5 173.5t-33 218.5t33.5 219.5t97.5 175t163 116.5t224 42q164 0 282.5 -73t176 -196.5t57.5 -283.5q0 -159 -56.5 -281t-175 -194.5t-284.5 -72.5zM584 223
q116 0 176.5 77.5t60.5 229.5q0 153 -60.5 232.5t-176.5 79.5q-117 0 -177.5 -79.5t-60.5 -232.5q0 -151 61 -229t177 -78z" />
    <glyph glyph-name="divide" unicode="&#xf7;" horiz-adv-x="1003" 
d="M502 864q-72 0 -110 40.5t-38 109.5q0 68 38 108.5t110 40.5q71 0 110 -41t39 -108q0 -69 -39 -109.5t-110 -40.5zM10 528v226h983v-226h-983zM502 119q-72 0 -110 41t-38 110q0 68 38 108t110 40q71 0 110 -40.5t39 -107.5q0 -69 -39 -110t-110 -41z" />
    <glyph glyph-name="oslash" unicode="&#xf8;" horiz-adv-x="1165" 
d="M963 932q137 -149 137 -402q0 -159 -56.5 -281t-175 -194.5t-284.5 -72.5q-122 0 -209 34l-80 -122h-221v20l135 211q-143 146 -143 405q0 119 33.5 219.5t97.5 175t163 116.5t224 42q118 0 213 -39l69 109h226v-20zM346 530q0 -84 23 -155l290 456q-42 11 -75 11
q-117 0 -177.5 -79.5t-60.5 -232.5zM584 223q116 0 176.5 77.5t60.5 229.5q0 91 -20 152l-289 -451q31 -8 72 -8z" />
    <glyph glyph-name="ugrave" unicode="&#xf9;" horiz-adv-x="1187" 
d="M547 1194l-238 293v20h303l140 -293v-20h-205zM508 -18q-177 0 -282 104t-105 281v698h274v-621q0 -213 197 -213q99 0 159 65.5t60 178.5v590h274v-1065h-245l-21 121h-8q-103 -139 -303 -139z" />
    <glyph glyph-name="uacute" unicode="&#xfa;" horiz-adv-x="1187" 
d="M469 1194v20l141 293h301v-20l-237 -293h-205zM508 -18q-177 0 -282 104t-105 281v698h274v-621q0 -213 197 -213q99 0 159 65.5t60 178.5v590h274v-1065h-245l-21 121h-8q-103 -139 -303 -139z" />
    <glyph glyph-name="ucircumflex" unicode="&#xfb;" horiz-adv-x="1187" 
d="M256 1198v21l197 284h303l198 -284v-21h-223l-123 125h-8l-123 -125h-221zM508 -18q-177 0 -282 104t-105 281v698h274v-621q0 -213 197 -213q99 0 159 65.5t60 178.5v590h274v-1065h-245l-21 121h-8q-103 -139 -303 -139z" />
    <glyph glyph-name="udieresis" unicode="&#xfc;" horiz-adv-x="1187" 
d="M281 1239v250h249v-250h-249zM678 1239v250h248v-250h-248zM508 -18q-177 0 -282 104t-105 281v698h274v-621q0 -213 197 -213q99 0 159 65.5t60 178.5v590h274v-1065h-245l-21 121h-8q-103 -139 -303 -139z" />
    <glyph glyph-name="yacute" unicode="&#xfd;" horiz-adv-x="1138" 
d="M457 1194v20l141 293h301v-20l-237 -293h-205zM27 1065h282l246 -778h8l254 778h295v-21l-551 -1513h-295v20l162 451l-39 2l-362 1040v21z" />
    <glyph glyph-name="thorn" unicode="&#xfe;" horiz-adv-x="1228" 
d="M702 1083q199 0 318 -152.5t119 -400.5q0 -158 -51 -281.5t-151 -195t-235 -71.5q-193 0 -294 133h-9v-584h-274v1985h274v-566h9q101 133 294 133zM625 223q64 0 110.5 24t73 67.5t39 97t12.5 118.5q0 66 -12.5 120t-39.5 98.5t-73.5 69t-109.5 24.5q-120 0 -178 -87.5
t-58 -224.5q0 -65 13 -118.5t39.5 -97t73.5 -67.5t110 -24z" />
    <glyph glyph-name="ydieresis" unicode="&#xff;" horiz-adv-x="1138" 
d="M268 1239v250h250v-250h-250zM666 1239v250h247v-250h-247zM27 1065h282l246 -778h8l254 778h295v-21l-551 -1513h-295v20l162 451l-39 2l-362 1040v21z" />
    <glyph glyph-name="Amacron" unicode="&#x100;" horiz-adv-x="1425" 
d="M1010 1827v-209h-590v209h590zM891 1434l504 -1414v-20h-310l-98 301h-561l-98 -301h-295v20l502 1414h356zM508 549h397l-194 598h-9z" />
    <glyph glyph-name="amacron" unicode="&#x101;" horiz-adv-x="1112" 
d="M274 1249v209h590v-209h-590zM438 -18q-174 0 -273 93t-99 238q0 151 107.5 240.5t322.5 89.5h237v59q0 69 -45.5 112.5t-138.5 43.5q-83 0 -130.5 -39t-47.5 -98h-258q0 158 116 260t326 102q211 0 332 -105.5t121 -272.5v-705h-244l-21 111h-8q-98 -129 -297 -129z
M504 199q104 0 166.5 57t62.5 139v58h-217q-88 0 -133 -34t-45 -93q0 -58 42.5 -92.5t123.5 -34.5z" />
    <glyph glyph-name="Abreve" unicode="&#x102;" horiz-adv-x="1425" 
d="M711 1567q-153 0 -237.5 79.5t-84.5 221.5h201q6 -111 121 -111q112 0 118 111h201q0 -143 -82 -222t-237 -79zM891 1434l504 -1414v-20h-310l-98 301h-561l-98 -301h-295v20l502 1414h356zM508 549h397l-194 598h-9z" />
    <glyph glyph-name="abreve" unicode="&#x103;" horiz-adv-x="1112" 
d="M565 1198q-153 0 -237 79.5t-84 221.5h200q6 -110 121 -110q113 0 119 110h201q0 -143 -82.5 -222t-237.5 -79zM438 -18q-174 0 -273 93t-99 238q0 151 107.5 240.5t322.5 89.5h237v59q0 69 -45.5 112.5t-138.5 43.5q-83 0 -130.5 -39t-47.5 -98h-258q0 158 116 260
t326 102q211 0 332 -105.5t121 -272.5v-705h-244l-21 111h-8q-98 -129 -297 -129zM504 199q104 0 166.5 57t62.5 139v58h-217q-88 0 -133 -34t-45 -93q0 -58 42.5 -92.5t123.5 -34.5z" />
    <glyph glyph-name="Aogonek" unicode="&#x104;" horiz-adv-x="1425" 
d="M891 1434l504 -1414v-20h-4q-73 -30 -123.5 -82t-50.5 -113q0 -43 27.5 -65.5t74.5 -22.5h72v-178h-131q-67 0 -126 22.5t-100 73t-41 119.5q0 149 150 246h-58l-98 301h-561l-98 -301h-295v20l502 1414h356zM508 549h397l-194 598h-9z" />
    <glyph glyph-name="aogonek" unicode="&#x105;" horiz-adv-x="1112" 
d="M555 1083q211 0 332 -105.5t121 -272.5v-705h-2q-74 -30 -124.5 -82t-50.5 -113q0 -43 28 -65.5t75 -22.5h72v-178h-132q-67 0 -125.5 22.5t-99.5 73t-41 119.5q0 154 156 250l-21 107h-8q-98 -129 -297 -129q-174 0 -273 93t-99 238q0 151 107.5 240.5t322.5 89.5h237
v59q0 69 -45.5 112.5t-138.5 43.5q-83 0 -130.5 -39t-47.5 -98h-258q0 158 116 260t326 102zM733 395v58h-217q-88 0 -133 -34t-45 -93q0 -58 42.5 -92.5t123.5 -34.5q104 0 166.5 57t62.5 139z" />
    <glyph glyph-name="Cacute" unicode="&#x106;" horiz-adv-x="1452" 
d="M627 1563v20l141 293h301v-21l-238 -292h-204zM756 -18q-163 0 -293 56t-213 155t-126.5 232t-43.5 290q0 160 43.5 293.5t126.5 233t212.5 155t293.5 55.5q175 0 313 -72.5t214.5 -194.5t88.5 -274h-287q-11 124 -94.5 204.5t-234.5 80.5q-193 0 -291 -128.5t-98 -352.5
t98 -351.5t291 -127.5q146 0 227.5 74.5t103.5 197.5h285q-12 -111 -59.5 -206.5t-125 -167t-189 -112t-242.5 -40.5z" />
    <glyph glyph-name="cacute" unicode="&#x107;" horiz-adv-x="1124" 
d="M461 1194v20l141 293h301v-20l-237 -293h-205zM586 -18q-246 0 -383 149.5t-137 400.5q0 249 134.5 400t379.5 151q221 0 343.5 -118t133.5 -306h-277q-8 83 -61 133t-139 50q-116 0 -175 -79.5t-59 -230.5q0 -152 59 -230.5t175 -78.5q87 0 140 48.5t62 129.5h277
q-13 -188 -134 -303.5t-339 -115.5z" />
    <glyph glyph-name="Ccircumflex" unicode="&#x108;" horiz-adv-x="1452" 
d="M414 1567v20l196 285h303l199 -285v-20h-223l-123 125h-8l-123 -125h-221zM756 -18q-163 0 -293 56t-213 155t-126.5 232t-43.5 290q0 160 43.5 293.5t126.5 233t212.5 155t293.5 55.5q175 0 313 -72.5t214.5 -194.5t88.5 -274h-287q-11 124 -94.5 204.5t-234.5 80.5
q-193 0 -291 -128.5t-98 -352.5t98 -351.5t291 -127.5q146 0 227.5 74.5t103.5 197.5h285q-12 -111 -59.5 -206.5t-125 -167t-189 -112t-242.5 -40.5z" />
    <glyph glyph-name="ccircumflex" unicode="&#x109;" horiz-adv-x="1124" 
d="M248 1198v21l196 284h304l198 -284v-21h-223l-123 125h-8l-123 -125h-221zM586 -18q-246 0 -383 149.5t-137 400.5q0 249 134.5 400t379.5 151q221 0 343.5 -118t133.5 -306h-277q-8 83 -61 133t-139 50q-116 0 -175 -79.5t-59 -230.5q0 -152 59 -230.5t175 -78.5
q87 0 140 48.5t62 129.5h277q-13 -188 -134 -303.5t-339 -115.5z" />
    <glyph glyph-name="Cdotaccent" unicode="&#x10a;" horiz-adv-x="1452" 
d="M610 1585v287h295v-287h-295zM756 -18q-163 0 -293 56t-213 155t-126.5 232t-43.5 290q0 160 43.5 293.5t126.5 233t212.5 155t293.5 55.5q175 0 313 -72.5t214.5 -194.5t88.5 -274h-287q-11 124 -94.5 204.5t-234.5 80.5q-193 0 -291 -128.5t-98 -352.5t98 -351.5
t291 -127.5q146 0 227.5 74.5t103.5 197.5h285q-12 -111 -59.5 -206.5t-125 -167t-189 -112t-242.5 -40.5z" />
    <glyph glyph-name="cdotaccent" unicode="&#x10b;" horiz-adv-x="1124" 
d="M444 1217v286h295v-286h-295zM586 -18q-246 0 -383 149.5t-137 400.5q0 249 134.5 400t379.5 151q221 0 343.5 -118t133.5 -306h-277q-8 83 -61 133t-139 50q-116 0 -175 -79.5t-59 -230.5q0 -152 59 -230.5t175 -78.5q87 0 140 48.5t62 129.5h277q-13 -188 -134 -303.5
t-339 -115.5z" />
    <glyph glyph-name="Ccaron" unicode="&#x10c;" horiz-adv-x="1452" 
d="M608 1567l-196 284v21h221l123 -125h8l123 125h223v-21l-199 -284h-303zM756 -18q-163 0 -293 56t-213 155t-126.5 232t-43.5 290q0 160 43.5 293.5t126.5 233t212.5 155t293.5 55.5q175 0 313 -72.5t214.5 -194.5t88.5 -274h-287q-11 124 -94.5 204.5t-234.5 80.5
q-193 0 -291 -128.5t-98 -352.5t98 -351.5t291 -127.5q146 0 227.5 74.5t103.5 197.5h285q-12 -111 -59.5 -206.5t-125 -167t-189 -112t-242.5 -40.5z" />
    <glyph glyph-name="ccaron" unicode="&#x10d;" horiz-adv-x="1124" 
d="M442 1198l-196 285v20h221l123 -125h8l123 125h223v-20l-199 -285h-303zM586 -18q-246 0 -383 149.5t-137 400.5q0 249 134.5 400t379.5 151q221 0 343.5 -118t133.5 -306h-277q-8 83 -61 133t-139 50q-116 0 -175 -79.5t-59 -230.5q0 -152 59 -230.5t175 -78.5
q87 0 140 48.5t62 129.5h277q-13 -188 -134 -303.5t-339 -115.5z" />
    <glyph glyph-name="Dcaron" unicode="&#x10e;" horiz-adv-x="1441" 
d="M506 1567l-197 284v21h221l123 -125h9l122 125h224v-21l-199 -284h-303zM162 0v1434h489q209 0 370.5 -89t251 -252.5t89.5 -375.5q0 -149 -49.5 -280t-139.5 -228t-225 -153t-297 -56h-489zM426 250h207q213 0 327.5 121t114.5 346q0 223 -114.5 344t-327.5 121h-207
v-932z" />
    <glyph glyph-name="dcaron" unicode="&#x10f;" 
d="M504 -18q-202 0 -320 151.5t-118 398.5q0 160 50.5 283.5t151 195.5t236.5 72q192 0 293 -133h8v566h274v-1516h-245l-29 115h-8q-101 -133 -293 -133zM1169 1167v349h275v-21l-92 -328h-183zM580 223q121 0 178 86.5t57 222.5q0 137 -56.5 223.5t-178.5 86.5
q-64 0 -111 -24.5t-73.5 -68t-39 -97.5t-12.5 -120q0 -136 57.5 -222.5t178.5 -86.5z" />
    <glyph glyph-name="Dcroat" unicode="&#x110;" horiz-adv-x="1531" 
d="M741 1434q209 0 370.5 -89t251 -252.5t89.5 -375.5q0 -149 -49.5 -280t-139.5 -228t-225 -153t-297 -56h-489v623h-148v239h148v572h489zM723 250q213 0 327.5 121t114.5 346q0 223 -114.5 344t-327.5 121h-207v-320h324v-239h-324v-373h207z" />
    <glyph glyph-name="dcroat" unicode="&#x111;" 
d="M1200 1384v-184h-121v-1200h-245l-29 115h-8q-101 -133 -293 -133q-202 0 -320 151.5t-118 398.5q0 160 50.5 283.5t151 195.5t236.5 72q192 0 293 -133h8v250h-234v184h234v132h274v-132h121zM580 223q121 0 178 86.5t57 222.5q0 137 -56.5 223.5t-178.5 86.5
q-64 0 -111 -24.5t-73.5 -68t-39 -97.5t-12.5 -120q0 -136 57.5 -222.5t178.5 -86.5z" />
    <glyph glyph-name="Emacron" unicode="&#x112;" horiz-adv-x="1249" 
d="M391 1618v209h590v-209h-590zM162 0v1434h993v-252h-713v-318h650v-250h-650v-364h713v-250h-993z" />
    <glyph glyph-name="emacron" unicode="&#x113;" horiz-adv-x="1136" 
d="M285 1249v209h589v-209h-589zM580 -18q-160 0 -278.5 73.5t-177 196.5t-58.5 278q0 115 32 214.5t93.5 175.5t160 119.5t223.5 43.5q154 0 268 -70t171 -186.5t57 -263.5v-106h-725q2 -113 61 -180.5t173 -67.5q87 0 139.5 34.5t68.5 88.5h269q-23 -151 -150.5 -250.5
t-326.5 -99.5zM348 639h443q-3 96 -58 155.5t-158 59.5q-110 0 -166 -59t-61 -156z" />
    <glyph glyph-name="Ebreve" unicode="&#x114;" horiz-adv-x="1249" 
d="M682 1567q-153 0 -237.5 79.5t-84.5 221.5h201q6 -111 121 -111q113 0 119 111h200q0 -143 -82 -222t-237 -79zM162 0v1434h993v-252h-713v-318h650v-250h-650v-364h713v-250h-993z" />
    <glyph glyph-name="ebreve" unicode="&#x115;" horiz-adv-x="1136" 
d="M575 1198q-153 0 -237 79.5t-84 221.5h201q6 -110 120 -110q113 0 119 110h201q0 -143 -82.5 -222t-237.5 -79zM580 -18q-160 0 -278.5 73.5t-177 196.5t-58.5 278q0 115 32 214.5t93.5 175.5t160 119.5t223.5 43.5q154 0 268 -70t171 -186.5t57 -263.5v-106h-725
q2 -113 61 -180.5t173 -67.5q87 0 139.5 34.5t68.5 88.5h269q-23 -151 -150.5 -250.5t-326.5 -99.5zM348 639h443q-3 96 -58 155.5t-158 59.5q-110 0 -166 -59t-61 -156z" />
    <glyph glyph-name="Edotaccent" unicode="&#x116;" horiz-adv-x="1249" 
d="M537 1585v287h294v-287h-294zM162 0v1434h993v-252h-713v-318h650v-250h-650v-364h713v-250h-993z" />
    <glyph glyph-name="edotaccent" unicode="&#x117;" horiz-adv-x="1136" 
d="M430 1217v286h295v-286h-295zM580 -18q-160 0 -278.5 73.5t-177 196.5t-58.5 278q0 115 32 214.5t93.5 175.5t160 119.5t223.5 43.5q154 0 268 -70t171 -186.5t57 -263.5v-106h-725q2 -113 61 -180.5t173 -67.5q87 0 139.5 34.5t68.5 88.5h269q-23 -151 -150.5 -250.5
t-326.5 -99.5zM348 639h443q-3 96 -58 155.5t-158 59.5q-110 0 -166 -59t-61 -156z" />
    <glyph glyph-name="Eogonek" unicode="&#x118;" horiz-adv-x="1249" 
d="M1155 1182h-713v-318h650v-250h-650v-364h713v-250h-8q-73 -30 -123.5 -82t-50.5 -113q0 -43 27.5 -65.5t74.5 -22.5h72v-178h-131q-67 0 -125.5 22.5t-99.5 73t-41 119.5q0 150 149 246h-737v1434h993v-252z" />
    <glyph glyph-name="eogonek" unicode="&#x119;" horiz-adv-x="1136" 
d="M1071 563v-106h-725q2 -113 61 -180.5t173 -67.5q87 0 139.5 34.5t68.5 88.5h269q-18 -118 -102.5 -207.5t-219.5 -124.5h4q-73 -30 -123.5 -82t-50.5 -113q0 -43 28 -65.5t75 -22.5h71v-178h-131q-67 0 -125.5 22.5t-99.5 73t-41 119.5q0 143 133 236
q-193 33 -301 181.5t-108 358.5q0 115 32 214.5t93.5 175.5t160 119.5t223.5 43.5q154 0 268 -70t171 -186.5t57 -263.5zM348 639h443q-3 96 -58 155.5t-158 59.5q-110 0 -166 -59t-61 -156z" />
    <glyph glyph-name="Ecaron" unicode="&#x11a;" horiz-adv-x="1249" 
d="M535 1567l-197 284v21h221l123 -125h8l123 125h223v-21l-198 -284h-303zM162 0v1434h993v-252h-713v-318h650v-250h-650v-364h713v-250h-993z" />
    <glyph glyph-name="ecaron" unicode="&#x11b;" horiz-adv-x="1136" 
d="M428 1198l-197 285v20h222l122 -125h9l123 125h223v-20l-199 -285h-303zM580 -18q-160 0 -278.5 73.5t-177 196.5t-58.5 278q0 115 32 214.5t93.5 175.5t160 119.5t223.5 43.5q154 0 268 -70t171 -186.5t57 -263.5v-106h-725q2 -113 61 -180.5t173 -67.5q87 0 139.5 34.5
t68.5 88.5h269q-23 -151 -150.5 -250.5t-326.5 -99.5zM348 639h443q-3 96 -58 155.5t-158 59.5q-110 0 -166 -59t-61 -156z" />
    <glyph glyph-name="Gcircumflex" unicode="&#x11c;" horiz-adv-x="1466" 
d="M412 1567v20l196 285h303l199 -285v-20h-223l-123 125h-8l-123 -125h-221zM754 -18q-163 0 -292.5 56t-212.5 155t-126 232t-43 290q0 160 43 293.5t126 233t212 155t293 55.5q176 0 313 -68t213.5 -181.5t91.5 -256.5h-287q-16 109 -98.5 179.5t-232.5 70.5
q-192 0 -289.5 -128.5t-97.5 -352.5t97 -351.5t290 -127.5q155 0 242.5 79.5t103.5 202.5h-305v250h591v-150q0 -289 -173.5 -462.5t-458.5 -173.5z" />
    <glyph glyph-name="gcircumflex" unicode="&#x11d;" 
d="M225 1198v21l197 284h303l199 -284v-21h-224l-122 125h-9l-123 -125h-221zM571 -487q-211 0 -340.5 105.5t-134.5 277.5h269q6 -63 61 -105.5t145 -42.5q114 0 174 56.5t60 146.5v164h-8q-101 -133 -293 -133q-204 0 -321 153t-117 395q0 249 118 401t320 152
q192 0 293 -133h8l29 115h245v-1118q0 -194 -141.5 -314t-366.5 -120zM580 223q122 0 178.5 85t56.5 222q0 138 -57 225t-178 87t-178.5 -87t-57.5 -225q0 -65 12.5 -118.5t39 -97t73.5 -67.5t111 -24z" />
    <glyph glyph-name="Gbreve" unicode="&#x11e;" horiz-adv-x="1466" 
d="M754 1567q-153 0 -237.5 79.5t-84.5 221.5h201q6 -111 121 -111q112 0 118 111h201q0 -143 -82 -222t-237 -79zM754 -18q-163 0 -292.5 56t-212.5 155t-126 232t-43 290q0 160 43 293.5t126 233t212 155t293 55.5q176 0 313 -68t213.5 -181.5t91.5 -256.5h-287
q-16 109 -98.5 179.5t-232.5 70.5q-192 0 -289.5 -128.5t-97.5 -352.5t97 -351.5t290 -127.5q155 0 242.5 79.5t103.5 202.5h-305v250h591v-150q0 -289 -173.5 -462.5t-458.5 -173.5z" />
    <glyph glyph-name="gbreve" unicode="&#x11f;" 
d="M567 1198q-153 0 -237 79.5t-84 221.5h200q6 -110 121 -110q113 0 119 110h201q0 -143 -82.5 -222t-237.5 -79zM571 -487q-211 0 -340.5 105.5t-134.5 277.5h269q6 -63 61 -105.5t145 -42.5q114 0 174 56.5t60 146.5v164h-8q-101 -133 -293 -133q-204 0 -321 153
t-117 395q0 249 118 401t320 152q192 0 293 -133h8l29 115h245v-1118q0 -194 -141.5 -314t-366.5 -120zM580 223q122 0 178.5 85t56.5 222q0 138 -57 225t-178 87t-178.5 -87t-57.5 -225q0 -65 12.5 -118.5t39 -97t73.5 -67.5t111 -24z" />
    <glyph glyph-name="Gdotaccent" unicode="&#x120;" horiz-adv-x="1466" 
d="M608 1585v287h295v-287h-295zM754 -18q-163 0 -292.5 56t-212.5 155t-126 232t-43 290q0 160 43 293.5t126 233t212 155t293 55.5q176 0 313 -68t213.5 -181.5t91.5 -256.5h-287q-16 109 -98.5 179.5t-232.5 70.5q-192 0 -289.5 -128.5t-97.5 -352.5t97 -351.5
t290 -127.5q155 0 242.5 79.5t103.5 202.5h-305v250h591v-150q0 -289 -173.5 -462.5t-458.5 -173.5z" />
    <glyph glyph-name="gdotaccent" unicode="&#x121;" 
d="M422 1217v286h295v-286h-295zM571 -487q-211 0 -340.5 105.5t-134.5 277.5h269q6 -63 61 -105.5t145 -42.5q114 0 174 56.5t60 146.5v164h-8q-101 -133 -293 -133q-204 0 -321 153t-117 395q0 249 118 401t320 152q192 0 293 -133h8l29 115h245v-1118q0 -194 -141.5 -314
t-366.5 -120zM580 223q122 0 178.5 85t56.5 222q0 138 -57 225t-178 87t-178.5 -87t-57.5 -225q0 -65 12.5 -118.5t39 -97t73.5 -67.5t111 -24z" />
    <glyph glyph-name="Gcommaaccent" unicode="&#x122;" horiz-adv-x="1466" 
d="M754 -18q-163 0 -292.5 56t-212.5 155t-126 232t-43 290q0 160 43 293.5t126 233t212 155t293 55.5q176 0 313 -68t213.5 -181.5t91.5 -256.5h-287q-16 109 -98.5 179.5t-232.5 70.5q-192 0 -289.5 -128.5t-97.5 -352.5t97 -351.5t290 -127.5q155 0 242.5 79.5
t103.5 202.5h-305v250h591v-150q0 -289 -173.5 -462.5t-458.5 -173.5zM586 -440v20l41 316h274v-21l-133 -315h-182z" />
    <glyph glyph-name="gcommaaccent" unicode="&#x123;" 
d="M735 1520v-21l-41 -315h-274v20l133 316h182zM571 -487q-211 0 -340.5 105.5t-134.5 277.5h269q6 -63 61 -105.5t145 -42.5q114 0 174 56.5t60 146.5v164h-8q-101 -133 -293 -133q-204 0 -321 153t-117 395q0 249 118 401t320 152q192 0 293 -133h8l29 115h245v-1118
q0 -194 -141.5 -314t-366.5 -120zM580 223q122 0 178.5 85t56.5 222q0 138 -57 225t-178 87t-178.5 -87t-57.5 -225q0 -65 12.5 -118.5t39 -97t73.5 -67.5t111 -24z" />
    <glyph glyph-name="Hcircumflex" unicode="&#x124;" horiz-adv-x="1505" 
d="M754 1692l-123 -125h-221v20l196 285h303l199 -285v-20h-223l-123 125h-8zM1063 1434h280v-1434h-280v614h-621v-614h-280v1434h280v-568h621v568z" />
    <glyph glyph-name="hcircumflex" unicode="&#x125;" horiz-adv-x="1204" 
d="M-78 1632v21l197 284h303l199 -284v-21h-224l-123 125h-8l-123 -125h-221zM125 0v1516h274v-572h9q103 139 301 139q178 0 283.5 -103.5t105.5 -281.5v-698h-275v621q0 213 -198 213q-99 0 -162.5 -66.5t-63.5 -179.5v-588h-274z" />
    <glyph glyph-name="Hbar" unicode="&#x126;" horiz-adv-x="1650" 
d="M1526 1276v-232h-107v-1044h-280v614h-623v-614h-280v1044h-111v232h111v158h280v-158h623v158h280v-158h107zM1139 866v178h-623v-178h623z" />
    <glyph glyph-name="hbar" unicode="&#x127;" horiz-adv-x="1204" 
d="M709 1083q178 0 283.5 -103.5t105.5 -281.5v-698h-275v621q0 213 -198 213q-99 0 -162.5 -66.5t-63.5 -179.5v-588h-274v1200h-119v184h119v132h274v-132h234v-184h-234v-256h9q103 139 301 139z" />
    <glyph glyph-name="Itilde" unicode="&#x128;" horiz-adv-x="604" 
d="M412 1573q-74 0 -140 39l-30 16q-52 27 -76 27q-27 0 -44.5 -20.5t-17.5 -57.5h-170v31q0 117 59 181t157 64q59 0 143 -41l31 -16q53 -29 75 -29q58 0 58 82h168v-30q0 -246 -213 -246zM162 0v1434h282v-1434h-282z" />
    <glyph glyph-name="itilde" unicode="&#x129;" horiz-adv-x="505" 
d="M369 1204q-74 0 -140 39l-30 17q-50 26 -76 26q-27 0 -44.5 -20.5t-17.5 -57.5h-170v31q0 117 58.5 181.5t156.5 64.5q60 0 144 -41l31 -17q51 -28 75 -28q58 0 58 82h168v-31q0 -246 -213 -246zM125 0v1065h274v-1065h-274z" />
    <glyph glyph-name="Imacron" unicode="&#x12a;" horiz-adv-x="604" 
d="M14 1618v209h590v-209h-590zM162 0v1434h282v-1434h-282z" />
    <glyph glyph-name="imacron" unicode="&#x12b;" horiz-adv-x="505" 
d="M-29 1249v209h590v-209h-590zM125 0v1065h274v-1065h-274z" />
    <glyph glyph-name="Ibreve" unicode="&#x12c;" horiz-adv-x="604" 
d="M305 1567q-153 0 -237 79.5t-84 221.5h200q6 -111 121 -111q113 0 119 111h201q0 -143 -82.5 -222t-237.5 -79zM162 0v1434h282v-1434h-282z" />
    <glyph glyph-name="ibreve" unicode="&#x12d;" horiz-adv-x="505" 
d="M262 1198q-153 0 -237 79.5t-84 221.5h200q6 -110 121 -110q113 0 119 110h201q0 -143 -82.5 -222t-237.5 -79zM125 0v1065h274v-1065h-274z" />
    <glyph glyph-name="Iogonek" unicode="&#x12e;" horiz-adv-x="604" 
d="M162 1434h282v-1434h-2q-73 -30 -123.5 -82t-50.5 -113q0 -43 28 -65.5t75 -22.5h71v-178h-131q-67 0 -125.5 22.5t-99.5 73t-41 119.5q0 149 150 246h-33v1434z" />
    <glyph glyph-name="iogonek" unicode="&#x12f;" horiz-adv-x="505" 
d="M117 1503h295v-286h-295v286zM125 0v1065h274v-1065q-73 -30 -123.5 -82t-50.5 -113q0 -43 28 -65.5t75 -22.5h71v-178h-131q-67 0 -125.5 22.5t-99.5 73t-41 119.5q0 149 150 246h-27z" />
    <glyph glyph-name="Idotaccent" unicode="&#x130;" horiz-adv-x="604" 
d="M160 1585v287h295v-287h-295zM162 0v1434h282v-1434h-282z" />
    <glyph glyph-name="dotlessi" unicode="&#x131;" horiz-adv-x="505" 
d="M125 0v1065h274v-1065h-274z" />
    <glyph glyph-name="IJ" unicode="&#x132;" horiz-adv-x="1716" 
d="M162 0v1434h282v-1434h-282zM1100 -18q-218 0 -340.5 125t-122.5 317h274q2 -86 50 -135t143 -49q96 0 142 53.5t46 144.5v996h283v-996q0 -204 -125 -330t-350 -126z" />
    <glyph glyph-name="ij" unicode="&#x133;" horiz-adv-x="1026" 
d="M115 1217v286h295v-286h-295zM635 1217v286h295v-286h-295zM125 0v1065h274v-1065h-274zM432 -487v254h78q135 0 135 149v1149h275v-1206q0 -167 -99 -256.5t-262 -89.5h-127z" />
    <glyph glyph-name="Jcircumflex" unicode="&#x134;" horiz-adv-x="1112" 
d="M479 1567v20l197 285h303l199 -285v-20h-224l-123 125h-8l-123 -125h-221zM496 -18q-218 0 -340.5 125t-122.5 317h274q2 -86 50 -135t143 -49q96 0 142 53.5t46 144.5v996h283v-996q0 -204 -125 -330t-350 -126z" />
    <glyph glyph-name="jcircumflex" unicode="&#x135;" horiz-adv-x="520" 
d="M-72 1198v21l197 284h303l199 -284v-21h-224l-122 125h-9l-122 -125h-222zM-74 -487v254h78q135 0 135 149v1149h275v-1206q0 -167 -99 -256.5t-262 -89.5h-127z" />
    <glyph glyph-name="Kcommaaccent" unicode="&#x136;" horiz-adv-x="1357" 
d="M690 748l647 -728v-20h-333l-562 637v-637h-280v1434h280v-582l543 582h330v-21zM547 -420l41 316h274v-21l-133 -315h-182v20z" />
    <glyph glyph-name="kcommaaccent" unicode="&#x137;" horiz-adv-x="1122" 
d="M645 571l451 -551v-20h-330l-381 481v-481h-260v1516h260v-865l371 414h319v-21zM401 -420l41 316h275v-21l-133 -315h-183v20z" />
    <glyph glyph-name="kgreenlandic" unicode="&#x138;" horiz-adv-x="1122" 
d="M645 565l451 -545v-20h-330l-381 475v-475h-260v1065h260v-418l371 418h319v-21z" />
    <glyph glyph-name="Lacute" unicode="&#x139;" horiz-adv-x="1134" 
d="M170 1563v20l141 293h301v-21l-237 -292h-205zM162 0v1434h280v-1182h662v-252h-942z" />
    <glyph glyph-name="lacute" unicode="&#x13a;" horiz-adv-x="505" 
d="M129 1628v21l141 293h301v-21l-237 -293h-205zM125 0v1516h274v-1516h-274z" />
    <glyph glyph-name="Lcommaaccent" unicode="&#x13b;" horiz-adv-x="1134" 
d="M162 0v1434h280v-1182h662v-252h-942zM459 -440v20l41 316h274v-21l-133 -315h-182z" />
    <glyph glyph-name="lcommaaccent" unicode="&#x13c;" horiz-adv-x="505" 
d="M125 0v1516h274v-1516h-274zM82 -440v20l41 316h274v-21l-133 -315h-182z" />
    <glyph glyph-name="Lcaron" unicode="&#x13d;" horiz-adv-x="1134" 
d="M162 0v1434h280v-1182h662v-252h-942zM670 1085v349h274v-21l-94 -328h-180z" />
    <glyph glyph-name="lcaron" unicode="&#x13e;" horiz-adv-x="620" 
d="M125 0v1516h274v-1516h-274zM492 1167v349h274v-21l-94 -328h-180z" />
    <glyph glyph-name="Ldot" unicode="&#x13f;" horiz-adv-x="1228" 
d="M162 0v1434h280v-1182h662v-252h-942zM653 608v293h303v-293h-303z" />
    <glyph glyph-name="ldot" unicode="&#x140;" horiz-adv-x="872" 
d="M125 0v1516h274v-1516h-274zM508 604v293h303v-293h-303z" />
    <glyph glyph-name="Lslash" unicode="&#x141;" horiz-adv-x="1277" 
d="M586 252h661v-252h-942v502l-123 -47h-20v229l143 57v693h281v-584l352 139h20v-235l-372 -144v-358z" />
    <glyph glyph-name="lslash" unicode="&#x142;" horiz-adv-x="731" 
d="M678 958v-219l-170 -77v-662h-275v532l-139 -63h-20v215l159 76v756h275v-627l149 69h21z" />
    <glyph glyph-name="Nacute" unicode="&#x143;" horiz-adv-x="1521" 
d="M678 1563v20l141 293h301v-21l-237 -292h-205zM162 0v1434h325l586 -996h8v996h279v-1434h-328l-586 989h-8v-989h-276z" />
    <glyph glyph-name="nacute" unicode="&#x144;" horiz-adv-x="1196" 
d="M543 1194v20l141 293h301v-20l-237 -293h-205zM125 0v1065h246l20 -121h8q103 139 303 139q177 0 282.5 -104t105.5 -281v-698h-275v621q0 213 -197 213q-99 0 -159 -65.5t-60 -178.5v-590h-274z" />
    <glyph glyph-name="Ncommaaccent" unicode="&#x145;" horiz-adv-x="1521" 
d="M162 0v1434h325l586 -996h8v996h279v-1434h-328l-586 989h-8v-989h-276zM569 -440v20l41 316h275v-21l-133 -315h-183z" />
    <glyph glyph-name="ncommaaccent" unicode="&#x146;" horiz-adv-x="1196" 
d="M125 0v1065h246l20 -121h8q103 139 303 139q177 0 282.5 -104t105.5 -281v-698h-275v621q0 213 -197 213q-99 0 -159 -65.5t-60 -178.5v-590h-274zM451 -440v20l41 316h274v-21l-133 -315h-182z" />
    <glyph glyph-name="Ncaron" unicode="&#x147;" horiz-adv-x="1521" 
d="M659 1567l-196 284v21h221l123 -125h8l123 125h223v-21l-198 -284h-304zM162 0v1434h325l586 -996h8v996h279v-1434h-328l-586 989h-8v-989h-276z" />
    <glyph glyph-name="ncaron" unicode="&#x148;" horiz-adv-x="1196" 
d="M524 1198l-196 285v20h221l123 -125h8l123 125h223v-20l-199 -285h-303zM125 0v1065h246l20 -121h8q103 139 303 139q177 0 282.5 -104t105.5 -281v-698h-275v621q0 213 -197 213q-99 0 -159 -65.5t-60 -178.5v-590h-274z" />
    <glyph glyph-name="napostrophe" unicode="&#x149;" horiz-adv-x="1239" 
d="M-186 948v21l63 493h305v-20l-157 -494h-211zM125 0v1065h246l20 -121h8q103 139 303 139q177 0 282.5 -104t105.5 -281v-698h-275v621q0 213 -197 213q-99 0 -159 -65.5t-60 -178.5v-590h-274z" />
    <glyph glyph-name="Eng" unicode="&#x14a;" horiz-adv-x="1521" 
d="M1081 1434h279v-1467q0 -204 -125 -330t-350 -126v258q99 0 147.5 53.5t48.5 144.5v33h-49l-586 989h-8v-989h-276v1434h325l586 -996h8v996z" />
    <glyph glyph-name="eng" unicode="&#x14b;" horiz-adv-x="1196" 
d="M702 1083q178 0 283 -103.5t105 -281.5v-839q0 -167 -99 -256.5t-262 -89.5q-66 0 -127 14v246q40 -6 78 -6q135 0 135 149v705q0 213 -197 213q-99 0 -159 -65.5t-60 -178.5v-590h-274v1065h246l20 -121h8q103 139 303 139z" />
    <glyph glyph-name="Omacron" unicode="&#x14c;" horiz-adv-x="1515" 
d="M469 1618v209h590v-209h-590zM758 -18q-167 0 -298 57t-213 157.5t-124.5 232.5t-42.5 288q0 157 42.5 289t124.5 232.5t213 157t298 56.5q166 0 297 -56.5t213.5 -157t125 -232.5t42.5 -289q0 -156 -42.5 -288t-125 -232.5t-213.5 -157.5t-297 -57zM758 238
q194 0 292.5 127.5t98.5 351.5t-98.5 351.5t-292.5 127.5q-195 0 -293 -127.5t-98 -351.5t98.5 -351.5t292.5 -127.5z" />
    <glyph glyph-name="omacron" unicode="&#x14d;" horiz-adv-x="1165" 
d="M293 1249v209h590v-209h-590zM584 -18q-126 0 -225.5 41t-163 115t-96.5 173.5t-33 218.5t33.5 219.5t97.5 175t163 116.5t224 42q164 0 282.5 -73t176 -196.5t57.5 -283.5q0 -159 -56.5 -281t-175 -194.5t-284.5 -72.5zM584 223q116 0 176.5 77.5t60.5 229.5
q0 153 -60.5 232.5t-176.5 79.5q-117 0 -177.5 -79.5t-60.5 -232.5q0 -151 61 -229t177 -78z" />
    <glyph glyph-name="Obreve" unicode="&#x14e;" horiz-adv-x="1515" 
d="M760 1567q-153 0 -237.5 79.5t-84.5 221.5h201q6 -111 121 -111q113 0 119 111h200q0 -143 -82 -222t-237 -79zM758 -18q-167 0 -298 57t-213 157.5t-124.5 232.5t-42.5 288q0 157 42.5 289t124.5 232.5t213 157t298 56.5q166 0 297 -56.5t213.5 -157t125 -232.5
t42.5 -289q0 -156 -42.5 -288t-125 -232.5t-213.5 -157.5t-297 -57zM758 238q194 0 292.5 127.5t98.5 351.5t-98.5 351.5t-292.5 127.5q-195 0 -293 -127.5t-98 -351.5t98.5 -351.5t292.5 -127.5z" />
    <glyph glyph-name="obreve" unicode="&#x14f;" horiz-adv-x="1165" 
d="M584 1198q-153 0 -237.5 79.5t-84.5 221.5h201q6 -110 121 -110q112 0 118 110h201q0 -143 -82 -222t-237 -79zM584 -18q-126 0 -225.5 41t-163 115t-96.5 173.5t-33 218.5t33.5 219.5t97.5 175t163 116.5t224 42q164 0 282.5 -73t176 -196.5t57.5 -283.5
q0 -159 -56.5 -281t-175 -194.5t-284.5 -72.5zM584 223q116 0 176.5 77.5t60.5 229.5q0 153 -60.5 232.5t-176.5 79.5q-117 0 -177.5 -79.5t-60.5 -232.5q0 -151 61 -229t177 -78z" />
    <glyph glyph-name="Ohungarumlaut" unicode="&#x150;" horiz-adv-x="1515" 
d="M449 1563v20l100 293h293v-21l-209 -292h-184zM823 1563v20l99 293h292v-21l-208 -292h-183zM758 -18q-167 0 -298 57t-213 157.5t-124.5 232.5t-42.5 288q0 157 42.5 289t124.5 232.5t213 157t298 56.5q166 0 297 -56.5t213.5 -157t125 -232.5t42.5 -289
q0 -156 -42.5 -288t-125 -232.5t-213.5 -157.5t-297 -57zM758 238q194 0 292.5 127.5t98.5 351.5t-98.5 351.5t-292.5 127.5q-195 0 -293 -127.5t-98 -351.5t98.5 -351.5t292.5 -127.5z" />
    <glyph glyph-name="ohungarumlaut" unicode="&#x151;" horiz-adv-x="1165" 
d="M272 1194v20l101 293h293v-20l-209 -293h-185zM647 1194v20l98 293h293v-20l-209 -293h-182zM584 -18q-126 0 -225.5 41t-163 115t-96.5 173.5t-33 218.5t33.5 219.5t97.5 175t163 116.5t224 42q164 0 282.5 -73t176 -196.5t57.5 -283.5q0 -159 -56.5 -281t-175 -194.5
t-284.5 -72.5zM584 223q116 0 176.5 77.5t60.5 229.5q0 153 -60.5 232.5t-176.5 79.5q-117 0 -177.5 -79.5t-60.5 -232.5q0 -151 61 -229t177 -78z" />
    <glyph glyph-name="OE" unicode="&#x152;" horiz-adv-x="2242" 
d="M2148 1182h-712v-318h649v-250h-649v-364h712v-250h-993v98q-160 -116 -397 -116q-167 0 -298 57t-213 157.5t-124.5 232.5t-42.5 288q0 157 42.5 289t124.5 232.5t213 157t298 56.5q234 0 397 -115v97h993v-252zM758 238q194 0 292.5 127.5t98.5 351.5t-98.5 351.5
t-292.5 127.5q-195 0 -293 -127.5t-98 -351.5t98.5 -351.5t292.5 -127.5z" />
    <glyph glyph-name="oe" unicode="&#x153;" horiz-adv-x="1890" 
d="M1825 563v-106h-723q2 -114 60.5 -181t172.5 -67q86 0 138 34.5t71 88.5h266q-23 -151 -150.5 -250.5t-324.5 -99.5q-234 0 -368 153q-137 -153 -383 -153q-126 0 -225.5 41t-163 115t-96.5 173.5t-33 218.5t33.5 219.5t97.5 175t163 116.5t224 42q241 0 379 -151
q132 151 366 151q155 0 269 -70t170.5 -186.5t56.5 -263.5zM1104 639h440q-3 96 -57.5 155.5t-157.5 59.5q-109 0 -164.5 -59t-60.5 -156zM584 223q116 0 176.5 77.5t60.5 229.5q0 153 -60.5 232.5t-176.5 79.5q-117 0 -177.5 -79.5t-60.5 -232.5q0 -151 61 -229t177 -78z
" />
    <glyph glyph-name="Racute" unicode="&#x154;" horiz-adv-x="1372" 
d="M1001 1855l-237 -292h-205v20l141 293h301v-21zM981 557l356 -537v-20h-323l-330 524h-242v-524h-280v1434h629q111 0 202.5 -36t151.5 -97.5t92.5 -142.5t32.5 -173q0 -155 -77.5 -267.5t-211.5 -160.5zM442 1182v-408h334q102 0 153.5 58.5t51.5 150.5q0 87 -52 143
t-153 56h-334z" />
    <glyph glyph-name="racute" unicode="&#x155;" horiz-adv-x="796" 
d="M305 1194v20l141 293h302v-20l-238 -293h-205zM125 0v1065h231l21 -162h8q37 80 108.5 129t168.5 49h77v-254h-96q-123 0 -190.5 -80t-67.5 -225v-522h-260z" />
    <glyph glyph-name="Rcommaaccent" unicode="&#x156;" horiz-adv-x="1372" 
d="M981 557l356 -537v-20h-323l-330 524h-242v-524h-280v1434h629q111 0 202.5 -36t151.5 -97.5t92.5 -142.5t32.5 -173q0 -155 -77.5 -267.5t-211.5 -160.5zM442 1182v-408h334q102 0 153.5 58.5t51.5 150.5q0 87 -52 143t-153 56h-334zM549 -420l41 316h274v-21l-133 -315
h-182v20z" />
    <glyph glyph-name="rcommaaccent" unicode="&#x157;" horiz-adv-x="796" 
d="M125 0v1065h231l21 -162h8q37 80 108.5 129t168.5 49h77v-254h-96q-123 0 -190.5 -80t-67.5 -225v-522h-260zM160 -440v20l41 316h274v-21l-133 -315h-182z" />
    <glyph glyph-name="Rcaron" unicode="&#x158;" horiz-adv-x="1372" 
d="M844 1567h-303l-197 284v21h221l123 -125h8l123 125h223v-21zM981 557l356 -537v-20h-323l-330 524h-242v-524h-280v1434h629q111 0 202.5 -36t151.5 -97.5t92.5 -142.5t32.5 -173q0 -155 -77.5 -267.5t-211.5 -160.5zM442 1182v-408h334q102 0 153.5 58.5t51.5 150.5
q0 87 -52 143t-153 56h-334z" />
    <glyph glyph-name="rcaron" unicode="&#x159;" horiz-adv-x="796" 
d="M287 1198l-197 285v20h221l123 -125h8l123 125h223v-20l-198 -285h-303zM125 0v1065h231l21 -162h8q37 80 108.5 129t168.5 49h77v-254h-96q-123 0 -190.5 -80t-67.5 -225v-522h-260z" />
    <glyph glyph-name="Sacute" unicode="&#x15a;" horiz-adv-x="1294" 
d="M518 1563v20l141 293h302v-21l-238 -292h-205zM645 -18q-274 0 -424.5 131.5t-161.5 359.5h285q9 -119 87.5 -180.5t213.5 -61.5q291 0 291 177q0 71 -47 112.5t-150 63.5l-209 45q-99 21 -172 51.5t-132 79t-89.5 120.5t-30.5 167q0 183 147 294t394 111
q159 0 285 -57.5t196.5 -161.5t71.5 -236h-285q-6 90 -73.5 146.5t-198.5 56.5q-124 0 -186 -42t-62 -111q0 -58 42.5 -97t142.5 -61l194 -41q104 -22 183 -55t141 -84t94.5 -125t32.5 -170q0 -200 -144.5 -316t-435.5 -116z" />
    <glyph glyph-name="sacute" unicode="&#x15b;" horiz-adv-x="1046" 
d="M397 1194v20l142 293h301v-20l-238 -293h-205zM528 -18q-224 0 -340.5 101t-121.5 275h274q0 -64 49 -104.5t139 -40.5q87 0 132 27t45 71q0 80 -123 103l-172 32q-141 27 -226.5 106t-85.5 218q0 135 113.5 224t310.5 89q196 0 315 -99.5t119 -254.5h-270q0 59 -43.5 97
t-124.5 38q-69 0 -110 -26.5t-41 -69.5q0 -74 108 -96l195 -35q69 -14 122 -36.5t97.5 -59t68 -94.5t23.5 -134q0 -155 -126.5 -243t-326.5 -88z" />
    <glyph glyph-name="Scircumflex" unicode="&#x15c;" horiz-adv-x="1294" 
d="M305 1567v20l197 285h303l199 -285v-20h-224l-123 125h-8l-123 -125h-221zM645 -18q-274 0 -424.5 131.5t-161.5 359.5h285q9 -119 87.5 -180.5t213.5 -61.5q291 0 291 177q0 71 -47 112.5t-150 63.5l-209 45q-99 21 -172 51.5t-132 79t-89.5 120.5t-30.5 167
q0 183 147 294t394 111q159 0 285 -57.5t196.5 -161.5t71.5 -236h-285q-6 90 -73.5 146.5t-198.5 56.5q-124 0 -186 -42t-62 -111q0 -58 42.5 -97t142.5 -61l194 -41q104 -22 183 -55t141 -84t94.5 -125t32.5 -170q0 -200 -144.5 -316t-435.5 -116z" />
    <glyph glyph-name="scircumflex" unicode="&#x15d;" horiz-adv-x="1046" 
d="M184 1198v21l197 284h303l199 -284v-21h-224l-122 125h-9l-122 -125h-222zM528 -18q-224 0 -340.5 101t-121.5 275h274q0 -64 49 -104.5t139 -40.5q87 0 132 27t45 71q0 80 -123 103l-172 32q-141 27 -226.5 106t-85.5 218q0 135 113.5 224t310.5 89q196 0 315 -99.5
t119 -254.5h-270q0 59 -43.5 97t-124.5 38q-69 0 -110 -26.5t-41 -69.5q0 -74 108 -96l195 -35q69 -14 122 -36.5t97.5 -59t68 -94.5t23.5 -134q0 -155 -126.5 -243t-326.5 -88z" />
    <glyph glyph-name="Scedilla" unicode="&#x15e;" horiz-adv-x="1294" 
d="M1225 414q0 -183 -120.5 -295.5t-363.5 -132.5l-45 -66q89 -4 144 -54.5t55 -127.5q0 -87 -75 -143t-208 -56q-113 0 -187.5 54.5t-74.5 148.5h168q0 -28 25.5 -46t66.5 -18q40 0 68.5 16.5t28.5 45.5q0 28 -24.5 45.5t-66.5 17.5h-65l-51 64l59 119q-233 20 -362 149.5
t-138 337.5h285q9 -119 87.5 -180.5t213.5 -61.5q291 0 291 177q0 71 -47 112.5t-150 63.5l-209 45q-99 21 -172 51.5t-132 79t-89.5 120.5t-30.5 167q0 183 147 294t394 111q159 0 285 -57.5t196.5 -161.5t71.5 -236h-285q-6 90 -73.5 146.5t-198.5 56.5q-124 0 -186 -42
t-62 -111q0 -58 42.5 -97t142.5 -61l194 -41q104 -22 183 -55t141 -84t94.5 -125t32.5 -170z" />
    <glyph glyph-name="scedilla" unicode="&#x15f;" horiz-adv-x="1046" 
d="M981 313q0 -138 -102 -223.5t-269 -103.5l-45 -66q89 -4 144 -54.5t55 -127.5q0 -87 -75 -143t-208 -56q-113 0 -187.5 54.5t-74.5 148.5h168q0 -28 25.5 -46t66.5 -18q39 0 67.5 16.5t28.5 45.5q0 28 -24 45.5t-66 17.5h-65l-51 64l61 121q-177 21 -268 118.5t-96 251.5
h274q0 -64 49 -104.5t139 -40.5q87 0 132 27t45 71q0 80 -123 103l-172 32q-141 27 -226.5 106t-85.5 218q0 135 113.5 224t310.5 89q196 0 315 -99.5t119 -254.5h-270q0 59 -43.5 97t-124.5 38q-69 0 -110 -26.5t-41 -69.5q0 -74 108 -96l195 -35q69 -14 122 -36.5
t97.5 -59t68 -94.5t23.5 -134z" />
    <glyph glyph-name="Scaron" unicode="&#x160;" horiz-adv-x="1294" 
d="M500 1567l-197 284v21h221l123 -125h8l123 125h223v-21l-198 -284h-303zM645 -18q-274 0 -424.5 131.5t-161.5 359.5h285q9 -119 87.5 -180.5t213.5 -61.5q291 0 291 177q0 71 -47 112.5t-150 63.5l-209 45q-99 21 -172 51.5t-132 79t-89.5 120.5t-30.5 167
q0 183 147 294t394 111q159 0 285 -57.5t196.5 -161.5t71.5 -236h-285q-6 90 -73.5 146.5t-198.5 56.5q-124 0 -186 -42t-62 -111q0 -58 42.5 -97t142.5 -61l194 -41q104 -22 183 -55t141 -84t94.5 -125t32.5 -170q0 -200 -144.5 -316t-435.5 -116z" />
    <glyph glyph-name="scaron" unicode="&#x161;" horiz-adv-x="1046" 
d="M379 1198l-197 285v20h221l123 -125h9l122 125h224v-20l-199 -285h-303zM528 -18q-224 0 -340.5 101t-121.5 275h274q0 -64 49 -104.5t139 -40.5q87 0 132 27t45 71q0 80 -123 103l-172 32q-141 27 -226.5 106t-85.5 218q0 135 113.5 224t310.5 89q196 0 315 -99.5
t119 -254.5h-270q0 59 -43.5 97t-124.5 38q-69 0 -110 -26.5t-41 -69.5q0 -74 108 -96l195 -35q69 -14 122 -36.5t97.5 -59t68 -94.5t23.5 -134q0 -155 -126.5 -243t-326.5 -88z" />
    <glyph glyph-name="uni0162" unicode="&#x162;" horiz-adv-x="1212" 
d="M465 0v1180h-422v254h1126v-254h-421v-1180h-283zM422 -440v20l41 316h274v-21l-133 -315h-182z" />
    <glyph glyph-name="uni0163" unicode="&#x163;" horiz-adv-x="854" 
d="M561 0q-170 0 -252 87.5t-82 236.5v507h-174v234h185v281h264v-281h256v-234h-256v-448q0 -75 33 -109t104 -34h123v-240h-201zM319 -440v20l41 316h275v-21l-133 -315h-183z" />
    <glyph glyph-name="Tcaron" unicode="&#x164;" horiz-adv-x="1212" 
d="M467 1567l-197 284v21h222l122 -125h9l122 125h224v-21l-199 -284h-303zM465 0v1180h-422v254h1126v-254h-421v-1180h-283z" />
    <glyph glyph-name="tcaron" unicode="&#x165;" horiz-adv-x="854" 
d="M616 1167v349h275v-21l-92 -328h-183zM561 0q-170 0 -252 87.5t-82 236.5v507h-174v234h185v281h264v-281h256v-234h-256v-448q0 -75 33 -109t104 -34h123v-240h-201z" />
    <glyph glyph-name="Tbar" unicode="&#x166;" horiz-adv-x="1224" 
d="M1169 1180h-421v-301h342v-236h-342v-643h-283v643h-330v236h330v301h-422v254h1126v-254z" />
    <glyph glyph-name="tbar" unicode="&#x167;" horiz-adv-x="854" 
d="M741 238h21v-230q-86 -26 -201 -26q-170 0 -252 87t-82 236v201h-174v186h174v139h-174v234h185v223l243 58h21v-281h256v-234h-256v-139h239v-186h-239v-141q0 -75 33 -109.5t104 -34.5q49 0 102 17z" />
    <glyph glyph-name="Utilde" unicode="&#x168;" horiz-adv-x="1462" 
d="M836 1573q-74 0 -140 39l-30 16q-52 27 -76 27q-27 0 -44.5 -20.5t-17.5 -57.5h-170v31q0 117 58.5 181t156.5 64q60 0 144 -41l31 -16q53 -29 75 -29q58 0 58 82h168v-30q0 -246 -213 -246zM729 -18q-171 0 -302 63t-208.5 192.5t-77.5 311.5v885h281v-881
q0 -69 16 -124.5t50.5 -101t95.5 -70t145 -24.5q309 0 309 320v881h283v-885q0 -182 -77.5 -311.5t-209.5 -192.5t-305 -63z" />
    <glyph glyph-name="utilde" unicode="&#x169;" horiz-adv-x="1187" 
d="M705 1204q-74 0 -140 39l-30 17q-50 26 -76 26q-27 0 -44.5 -20.5t-17.5 -57.5h-170v31q0 117 58.5 181.5t156.5 64.5q60 0 144 -41l30 -17q51 -28 76 -28q58 0 58 82h168v-31q0 -246 -213 -246zM508 -18q-177 0 -282 104t-105 281v698h274v-621q0 -213 197 -213
q99 0 159 65.5t60 178.5v590h274v-1065h-245l-21 121h-8q-103 -139 -303 -139z" />
    <glyph glyph-name="Umacron" unicode="&#x16a;" horiz-adv-x="1462" 
d="M438 1618v209h590v-209h-590zM729 -18q-171 0 -302 63t-208.5 192.5t-77.5 311.5v885h281v-881q0 -69 16 -124.5t50.5 -101t95.5 -70t145 -24.5q309 0 309 320v881h283v-885q0 -182 -77.5 -311.5t-209.5 -192.5t-305 -63z" />
    <glyph glyph-name="umacron" unicode="&#x16b;" horiz-adv-x="1187" 
d="M307 1249v209h590v-209h-590zM508 -18q-177 0 -282 104t-105 281v698h274v-621q0 -213 197 -213q99 0 159 65.5t60 178.5v590h274v-1065h-245l-21 121h-8q-103 -139 -303 -139z" />
    <glyph glyph-name="Ubreve" unicode="&#x16c;" horiz-adv-x="1462" 
d="M729 1567q-153 0 -237 79.5t-84 221.5h200q6 -111 121 -111q113 0 119 111h201q0 -143 -82.5 -222t-237.5 -79zM729 -18q-171 0 -302 63t-208.5 192.5t-77.5 311.5v885h281v-881q0 -69 16 -124.5t50.5 -101t95.5 -70t145 -24.5q309 0 309 320v881h283v-885
q0 -182 -77.5 -311.5t-209.5 -192.5t-305 -63z" />
    <glyph glyph-name="ubreve" unicode="&#x16d;" horiz-adv-x="1187" 
d="M598 1198q-153 0 -237.5 79.5t-84.5 221.5h201q6 -110 121 -110q113 0 119 110h201q0 -143 -82.5 -222t-237.5 -79zM508 -18q-177 0 -282 104t-105 281v698h274v-621q0 -213 197 -213q99 0 159 65.5t60 178.5v590h274v-1065h-245l-21 121h-8q-103 -139 -303 -139z" />
    <glyph glyph-name="Uring" unicode="&#x16e;" horiz-adv-x="1462" 
d="M729 1534q-102 0 -169.5 65t-67.5 164q0 101 67.5 166.5t169.5 65.5q104 0 171 -65.5t67 -166.5q0 -100 -67 -164.5t-171 -64.5zM727 1673q42 0 68 25.5t26 64.5t-26 65.5t-68 26.5q-40 0 -65 -26.5t-25 -65.5t24.5 -64.5t65.5 -25.5zM729 -18q-171 0 -302 63
t-208.5 192.5t-77.5 311.5v885h281v-881q0 -69 16 -124.5t50.5 -101t95.5 -70t145 -24.5q309 0 309 320v881h283v-885q0 -182 -77.5 -311.5t-209.5 -192.5t-305 -63z" />
    <glyph glyph-name="uring" unicode="&#x16f;" horiz-adv-x="1187" 
d="M598 1165q-102 0 -170 65.5t-68 164.5q0 101 68 166t170 65q104 0 171 -65t67 -166q0 -100 -67 -165t-171 -65zM596 1305q42 0 68 25.5t26 64.5t-26 65.5t-68 26.5q-40 0 -65 -26.5t-25 -65.5t24.5 -64.5t65.5 -25.5zM508 -18q-177 0 -282 104t-105 281v698h274v-621
q0 -213 197 -213q99 0 159 65.5t60 178.5v590h274v-1065h-245l-21 121h-8q-103 -139 -303 -139z" />
    <glyph glyph-name="Uhungarumlaut" unicode="&#x170;" horiz-adv-x="1462" 
d="M418 1563v20l100 293h293v-21l-209 -292h-184zM793 1563v20l98 293h293v-21l-209 -292h-182zM729 -18q-171 0 -302 63t-208.5 192.5t-77.5 311.5v885h281v-881q0 -69 16 -124.5t50.5 -101t95.5 -70t145 -24.5q309 0 309 320v881h283v-885q0 -182 -77.5 -311.5
t-209.5 -192.5t-305 -63z" />
    <glyph glyph-name="uhungarumlaut" unicode="&#x171;" horiz-adv-x="1187" 
d="M287 1194v20l100 293h293v-20l-209 -293h-184zM662 1194v20l98 293h293v-20l-209 -293h-182zM508 -18q-177 0 -282 104t-105 281v698h274v-621q0 -213 197 -213q99 0 159 65.5t60 178.5v590h274v-1065h-245l-21 121h-8q-103 -139 -303 -139z" />
    <glyph glyph-name="Uogonek" unicode="&#x172;" horiz-adv-x="1462" 
d="M1038 1434h283v-885q0 -227 -116 -368.5t-314 -182.5q-71 -30 -119.5 -81.5t-48.5 -111.5q0 -43 27.5 -65.5t74.5 -22.5h72v-178h-131q-67 0 -125.5 22.5t-99.5 73t-41 119.5q0 142 131 234q-223 27 -356.5 171.5t-133.5 389.5v885h281v-881q0 -69 16 -124.5t50.5 -101
t95.5 -70t145 -24.5q309 0 309 320v881z" />
    <glyph glyph-name="uogonek" unicode="&#x173;" horiz-adv-x="1187" 
d="M811 1065h274v-1065h-12q-73 -30 -123.5 -82t-50.5 -113q0 -43 27.5 -65.5t74.5 -22.5h72v-178h-131q-67 0 -125.5 22.5t-99.5 73t-41 119.5q0 159 162 254l-19 113h-8q-103 -139 -303 -139q-177 0 -282 104t-105 281v698h274v-621q0 -213 197 -213q99 0 159 65.5
t60 178.5v590z" />
    <glyph glyph-name="Wcircumflex" unicode="&#x174;" horiz-adv-x="1918" 
d="M614 1567v20l197 285h303l199 -285v-20h-223l-123 125h-9l-122 -125h-222zM367 0l-334 1413v21h297l213 -1037h8l254 1037h307l258 -1037h8l213 1037h295v-21l-336 -1413h-348l-237 1004h-9l-241 -1004h-348z" />
    <glyph glyph-name="wcircumflex" unicode="&#x175;" horiz-adv-x="1656" 
d="M494 1190v20l196 285h303l199 -285v-20h-223l-123 125h-8l-123 -125h-221zM299 0l-272 1044v21h272l174 -758h8l172 758h353l172 -758h8l176 758h268v-21l-270 -1044h-348l-176 756h-9l-180 -756h-348z" />
    <glyph glyph-name="Ycircumflex" unicode="&#x176;" horiz-adv-x="1400" 
d="M373 1567v20l196 285h303l199 -285v-20h-223l-123 125h-8l-123 -125h-221zM561 0v578l-528 835v21h323l344 -576h9l335 576h324v-21l-524 -833v-580h-283z" />
    <glyph glyph-name="ycircumflex" unicode="&#x177;" horiz-adv-x="1138" 
d="M244 1198v21l196 284h303l199 -284v-21h-223l-123 125h-8l-123 -125h-221zM27 1065h282l246 -778h8l254 778h295v-21l-551 -1513h-295v20l162 451l-39 2l-362 1040v21z" />
    <glyph glyph-name="Ydieresis" unicode="&#x178;" horiz-adv-x="1400" 
d="M397 1608v250h250v-250h-250zM795 1608v250h247v-250h-247zM561 0v578l-528 835v21h323l344 -576h9l335 576h324v-21l-524 -833v-580h-283z" />
    <glyph glyph-name="Zacute" unicode="&#x179;" horiz-adv-x="1222" 
d="M485 1563v20l142 293h301v-21l-238 -292h-205zM68 0v246l723 925v9h-705v254h1057v-250l-721 -924v-8h733v-252h-1087z" />
    <glyph glyph-name="zacute" unicode="&#x17a;" horiz-adv-x="1028" 
d="M399 1194v20l142 293h301v-20l-238 -293h-205zM84 0v229l522 594v8h-520v234h854v-231l-520 -592v-9h524v-233h-860z" />
    <glyph glyph-name="Zdotaccent" unicode="&#x17b;" horiz-adv-x="1222" 
d="M469 1585v287h295v-287h-295zM68 0v246l723 925v9h-705v254h1057v-250l-721 -924v-8h733v-252h-1087z" />
    <glyph glyph-name="zdotaccent" unicode="&#x17c;" horiz-adv-x="1028" 
d="M383 1217v286h295v-286h-295zM84 0v229l522 594v8h-520v234h854v-231l-520 -592v-9h524v-233h-860z" />
    <glyph glyph-name="Zcaron" unicode="&#x17d;" horiz-adv-x="1222" 
d="M467 1567l-197 284v21h222l122 -125h9l122 125h224v-21l-199 -284h-303zM68 0v246l723 925v9h-705v254h1057v-250l-721 -924v-8h733v-252h-1087z" />
    <glyph glyph-name="zcaron" unicode="&#x17e;" horiz-adv-x="1028" 
d="M381 1198l-197 285v20h222l122 -125h9l122 125h224v-20l-199 -285h-303zM84 0v229l522 594v8h-520v234h854v-231l-520 -592v-9h524v-233h-860z" />
    <glyph glyph-name="florin" unicode="&#x192;" horiz-adv-x="960" 
d="M80 -469v20l164 1061h-191v232h228l38 252q29 196 137 291.5t302 95.5h149v-236h-123q-170 0 -196 -178l-35 -225h268v-232h-303l-164 -1081h-274z" />
    <glyph glyph-name="uni01CD" unicode="&#x1cd;" horiz-adv-x="1425" 
d="M866 1567h-303l-196 284v21h221l123 -125h8l123 125h223v-21zM891 1434l504 -1414v-20h-310l-98 301h-561l-98 -301h-295v20l502 1414h356zM508 549h397l-194 598h-9z" />
    <glyph glyph-name="uni01CE" unicode="&#x1ce;" horiz-adv-x="1112" 
d="M418 1198l-197 285v20h221l123 -125h8l123 125h224v-20l-199 -285h-303zM438 -18q-174 0 -273 93t-99 238q0 151 107.5 240.5t322.5 89.5h237v59q0 69 -45.5 112.5t-138.5 43.5q-83 0 -130.5 -39t-47.5 -98h-258q0 158 116 260t326 102q211 0 332 -105.5t121 -272.5v-705
h-244l-21 111h-8q-98 -129 -297 -129zM504 199q104 0 166.5 57t62.5 139v58h-217q-88 0 -133 -34t-45 -93q0 -58 42.5 -92.5t123.5 -34.5z" />
    <glyph glyph-name="uni01CF" unicode="&#x1cf;" horiz-adv-x="604" 
d="M158 1567l-197 284v21h221l123 -125h8l123 125h223v-21l-198 -284h-303zM162 0v1434h282v-1434h-282z" />
    <glyph glyph-name="uni01D0" unicode="&#x1d0;" horiz-adv-x="505" 
d="M115 1198l-197 285v20h221l123 -125h8l123 125h223v-20l-198 -285h-303zM125 0v1065h274v-1065h-274z" />
    <glyph glyph-name="uni01D1" unicode="&#x1d1;" horiz-adv-x="1515" 
d="M612 1567l-196 284v21h221l123 -125h8l123 125h223v-21l-199 -284h-303zM758 -18q-167 0 -298 57t-213 157.5t-124.5 232.5t-42.5 288q0 157 42.5 289t124.5 232.5t213 157t298 56.5q166 0 297 -56.5t213.5 -157t125 -232.5t42.5 -289q0 -156 -42.5 -288t-125 -232.5
t-213.5 -157.5t-297 -57zM758 238q194 0 292.5 127.5t98.5 351.5t-98.5 351.5t-292.5 127.5q-195 0 -293 -127.5t-98 -351.5t98.5 -351.5t292.5 -127.5z" />
    <glyph glyph-name="uni01D2" unicode="&#x1d2;" horiz-adv-x="1165" 
d="M436 1198l-196 285v20h221l123 -125h8l123 125h223v-20l-199 -285h-303zM584 -18q-126 0 -225.5 41t-163 115t-96.5 173.5t-33 218.5t33.5 219.5t97.5 175t163 116.5t224 42q164 0 282.5 -73t176 -196.5t57.5 -283.5q0 -159 -56.5 -281t-175 -194.5t-284.5 -72.5z
M584 223q116 0 176.5 77.5t60.5 229.5q0 153 -60.5 232.5t-176.5 79.5q-117 0 -177.5 -79.5t-60.5 -232.5q0 -151 61 -229t177 -78z" />
    <glyph glyph-name="Gcaron" unicode="&#x1e6;" horiz-adv-x="1466" 
d="M606 1567l-196 284v21h221l123 -125h8l123 125h223v-21l-199 -284h-303zM754 -18q-163 0 -292.5 56t-212.5 155t-126 232t-43 290q0 160 43 293.5t126 233t212 155t293 55.5q176 0 313 -68t213.5 -181.5t91.5 -256.5h-287q-16 109 -98.5 179.5t-232.5 70.5
q-192 0 -289.5 -128.5t-97.5 -352.5t97 -351.5t290 -127.5q155 0 242.5 79.5t103.5 202.5h-305v250h591v-150q0 -289 -173.5 -462.5t-458.5 -173.5z" />
    <glyph glyph-name="gcaron" unicode="&#x1e7;" 
d="M420 1198l-197 285v20h221l123 -125h8l123 125h224v-20l-199 -285h-303zM571 -487q-211 0 -340.5 105.5t-134.5 277.5h269q6 -63 61 -105.5t145 -42.5q114 0 174 56.5t60 146.5v164h-8q-101 -133 -293 -133q-204 0 -321 153t-117 395q0 249 118 401t320 152
q192 0 293 -133h8l29 115h245v-1118q0 -194 -141.5 -314t-366.5 -120zM580 223q122 0 178.5 85t56.5 222q0 138 -57 225t-178 87t-178.5 -87t-57.5 -225q0 -65 12.5 -118.5t39 -97t73.5 -67.5t111 -24z" />
    <glyph glyph-name="Scommaaccent" unicode="&#x218;" horiz-adv-x="1294" 
d="M645 -18q-274 0 -424.5 131.5t-161.5 359.5h285q9 -119 87.5 -180.5t213.5 -61.5q291 0 291 177q0 71 -47 112.5t-150 63.5l-209 45q-99 21 -172 51.5t-132 79t-89.5 120.5t-30.5 167q0 183 147 294t394 111q159 0 285 -57.5t196.5 -161.5t71.5 -236h-285
q-6 90 -73.5 146.5t-198.5 56.5q-124 0 -186 -42t-62 -111q0 -58 42.5 -97t142.5 -61l194 -41q104 -22 183 -55t141 -84t94.5 -125t32.5 -170q0 -200 -144.5 -316t-435.5 -116zM475 -440v20l41 316h275v-21l-134 -315h-182z" />
    <glyph glyph-name="scommaaccent" unicode="&#x219;" horiz-adv-x="1046" 
d="M528 -18q-224 0 -340.5 101t-121.5 275h274q0 -64 49 -104.5t139 -40.5q87 0 132 27t45 71q0 80 -123 103l-172 32q-141 27 -226.5 106t-85.5 218q0 135 113.5 224t310.5 89q196 0 315 -99.5t119 -254.5h-270q0 59 -43.5 97t-124.5 38q-69 0 -110 -26.5t-41 -69.5
q0 -74 108 -96l195 -35q69 -14 122 -36.5t97.5 -59t68 -94.5t23.5 -134q0 -155 -126.5 -243t-326.5 -88zM344 -440v20l41 316h274v-21l-133 -315h-182z" />
    <glyph glyph-name="uni021A" unicode="&#x21a;" horiz-adv-x="1212" 
d="M748 0h-52l-53 -80q89 -4 144 -54.5t55 -127.5q0 -87 -75 -143t-208 -56q-113 0 -187.5 54.5t-74.5 148.5h168q0 -28 25.5 -46t66.5 -18q39 0 67.5 16.5t28.5 45.5q0 28 -24 45.5t-66 17.5h-65l-52 64l68 133h-49v1180h-422v254h1126v-254h-421v-1180z" />
    <glyph glyph-name="uni021B" unicode="&#x21b;" horiz-adv-x="854" 
d="M762 0h-168l-53 -80q89 -4 143.5 -54.5t54.5 -127.5q0 -87 -74.5 -143t-207.5 -56q-113 0 -187.5 54.5t-74.5 148.5h167q0 -28 26 -46t67 -18q39 0 67.5 16.5t28.5 45.5q0 28 -24 45.5t-66 17.5h-66l-51 64l78 153q-98 31 -146.5 111t-48.5 193v507h-174v234h185v281h264
v-281h256v-234h-256v-448q0 -75 33 -109t104 -34h123v-240z" />
    <glyph glyph-name="uni0237" unicode="&#x237;" horiz-adv-x="520" 
d="M-74 -487v254h78q135 0 135 149v1149h275v-1206q0 -167 -99 -256.5t-262 -89.5h-127z" />
    <glyph glyph-name="circumflex" unicode="&#x2c6;" horiz-adv-x="811" 
d="M57 1198v21l197 284h303l199 -284v-21h-224l-122 125h-9l-122 -125h-222z" />
    <glyph glyph-name="caron" unicode="&#x2c7;" horiz-adv-x="811" 
d="M254 1198l-197 285v20h222l122 -125h9l122 125h224v-20l-199 -285h-303z" />
    <glyph glyph-name="breve" unicode="&#x2d8;" horiz-adv-x="784" 
d="M393 1198q-153 0 -237 79.5t-84 221.5h200q6 -110 121 -110q113 0 119 110h201q0 -143 -82.5 -222t-237.5 -79z" />
    <glyph glyph-name="dotaccent" unicode="&#x2d9;" horiz-adv-x="462" 
d="M86 1217v286h295v-286h-295z" />
    <glyph glyph-name="ring" unicode="&#x2da;" horiz-adv-x="602" 
d="M301 1165q-102 0 -170 65.5t-68 164.5q0 101 68 166t170 65q104 0 171 -65t67 -166q0 -100 -67 -165t-171 -65zM299 1305q42 0 68 25.5t26 64.5t-26 65.5t-68 26.5q-40 0 -65 -26.5t-25 -65.5t24.5 -64.5t65.5 -25.5z" />
    <glyph glyph-name="ogonek" unicode="&#x2db;" horiz-adv-x="524" 
d="M330 -461q-67 0 -126 22.5t-100 73t-41 119.5q0 181 209 279l189 -33q-73 -30 -123.5 -82t-50.5 -113q0 -43 27.5 -65.5t74.5 -22.5h72v-178h-131z" />
    <glyph glyph-name="tilde" unicode="&#x2dc;" horiz-adv-x="788" 
d="M526 1204q-73 0 -139 39l-31 17q-50 26 -75 26q-27 0 -44.5 -20.5t-17.5 -57.5h-170v31q0 117 58.5 181.5t156.5 64.5q60 0 144 -41l30 -17q51 -28 76 -28q57 0 57 82h168v-31q0 -246 -213 -246z" />
    <glyph glyph-name="hungarumlaut" unicode="&#x2dd;" horiz-adv-x="894" 
d="M63 1194v20l101 293h293v-20l-209 -293h-185zM438 1194v20l99 293h292v-20l-208 -293h-183z" />
    <glyph glyph-name="uni0326" unicode="&#x326;" horiz-adv-x="0" 
d="M-389 -440v20l41 316h274v-21l-133 -315h-182z" />
    <glyph glyph-name="Wgrave" unicode="&#x1e80;" horiz-adv-x="1918" 
d="M905 1563l-237 292v21h303l139 -293v-20h-205zM367 0l-334 1413v21h297l213 -1037h8l254 1037h307l258 -1037h8l213 1037h295v-21l-336 -1413h-348l-237 1004h-9l-241 -1004h-348z" />
    <glyph glyph-name="wgrave" unicode="&#x1e81;" horiz-adv-x="1656" 
d="M784 1186l-237 293v20h303l139 -293v-20h-205zM299 0l-272 1044v21h272l174 -758h8l172 758h353l172 -758h8l176 758h268v-21l-270 -1044h-348l-176 756h-9l-180 -756h-348z" />
    <glyph glyph-name="Wacute" unicode="&#x1e82;" horiz-adv-x="1918" 
d="M827 1563v20l142 293h301v-21l-238 -292h-205zM367 0l-334 1413v21h297l213 -1037h8l254 1037h307l258 -1037h8l213 1037h295v-21l-336 -1413h-348l-237 1004h-9l-241 -1004h-348z" />
    <glyph glyph-name="wacute" unicode="&#x1e83;" horiz-adv-x="1656" 
d="M707 1186v20l141 293h301v-20l-238 -293h-204zM299 0l-272 1044v21h272l174 -758h8l172 758h353l172 -758h8l176 758h268v-21l-270 -1044h-348l-176 756h-9l-180 -756h-348z" />
    <glyph glyph-name="Wdieresis" unicode="&#x1e84;" horiz-adv-x="1918" 
d="M639 1608v250h250v-250h-250zM1036 1608v250h248v-250h-248zM367 0l-334 1413v21h297l213 -1037h8l254 1037h307l258 -1037h8l213 1037h295v-21l-336 -1413h-348l-237 1004h-9l-241 -1004h-348z" />
    <glyph glyph-name="wdieresis" unicode="&#x1e85;" horiz-adv-x="1656" 
d="M518 1231v250h250v-250h-250zM915 1231v250h248v-250h-248zM299 0l-272 1044v21h272l174 -758h8l172 758h353l172 -758h8l176 758h268v-21l-270 -1044h-348l-176 756h-9l-180 -756h-348z" />
    <glyph glyph-name="uni1EBC" unicode="&#x1ebc;" horiz-adv-x="1249" 
d="M788 1573q-73 0 -139 39l-31 16q-4 2 -12.5 6.5t-12.5 6.5t-11.5 5.5t-12.5 5t-12 2.5t-14 1q-27 0 -44.5 -20.5t-17.5 -57.5h-170v31q0 117 58.5 181t156.5 64q60 0 144 -41l30 -16q53 -29 76 -29q58 0 58 82h167v-30q0 -246 -213 -246zM162 0v1434h993v-252h-713v-318
h650v-250h-650v-364h713v-250h-993z" />
    <glyph glyph-name="uni1EBD" unicode="&#x1ebd;" horiz-adv-x="1136" 
d="M682 1204q-73 0 -139 39l-31 17q-50 26 -76 26q-27 0 -44 -20.5t-17 -57.5h-170v31q0 117 58.5 181.5t156.5 64.5q59 0 143 -41l31 -17q51 -28 76 -28q57 0 57 82h168v-31q0 -246 -213 -246zM580 -18q-160 0 -278.5 73.5t-177 196.5t-58.5 278q0 115 32 214.5t93.5 175.5
t160 119.5t223.5 43.5q154 0 268 -70t171 -186.5t57 -263.5v-106h-725q2 -113 61 -180.5t173 -67.5q87 0 139.5 34.5t68.5 88.5h269q-23 -151 -150.5 -250.5t-326.5 -99.5zM348 639h443q-3 96 -58 155.5t-158 59.5q-110 0 -166 -59t-61 -156z" />
    <glyph glyph-name="Ygrave" unicode="&#x1ef2;" horiz-adv-x="1400" 
d="M664 1563l-238 292v21h303l139 -293v-20h-204zM561 0v578l-528 835v21h323l344 -576h9l335 576h324v-21l-524 -833v-580h-283z" />
    <glyph glyph-name="ygrave" unicode="&#x1ef3;" horiz-adv-x="1138" 
d="M535 1194l-238 293v20h303l139 -293v-20h-204zM27 1065h282l246 -778h8l254 778h295v-21l-551 -1513h-295v20l162 451l-39 2l-362 1040v21z" />
    <glyph glyph-name="endash" unicode="&#x2013;" horiz-adv-x="1273" 
d="M123 477v246h1028v-246h-1028z" />
    <glyph glyph-name="emdash" unicode="&#x2014;" horiz-adv-x="2256" 
d="M123 477v246h2011v-246h-2011z" />
    <glyph glyph-name="quoteleft" unicode="&#x2018;" horiz-adv-x="477" 
d="M422 1434v-21l-64 -493h-305v20l158 494h211z" />
    <glyph glyph-name="quoteright" unicode="&#x2019;" horiz-adv-x="477" 
d="M55 920v20l64 494h305v-21l-158 -493h-211z" />
    <glyph glyph-name="quotesinglbase" unicode="&#x201a;" horiz-adv-x="477" 
d="M55 -289v21l64 493h305v-20l-158 -494h-211z" />
    <glyph glyph-name="quotedblleft" unicode="&#x201c;" horiz-adv-x="882" 
d="M422 1434v-21l-64 -493h-305v20l158 494h211zM827 1434v-21l-63 -493h-305v20l157 494h211z" />
    <glyph glyph-name="quotedblright" unicode="&#x201d;" horiz-adv-x="882" 
d="M55 920v20l64 494h305v-21l-158 -493h-211zM461 920v20l63 494h305v-21l-157 -493h-211z" />
    <glyph glyph-name="quotedblbase" unicode="&#x201e;" horiz-adv-x="882" 
d="M55 -289v21l64 493h305v-20l-158 -494h-211zM461 -289v21l63 493h305v-20l-157 -494h-211z" />
    <glyph glyph-name="dagger" unicode="&#x2020;" horiz-adv-x="952" 
d="M821 1184v-219h-225v-277l-35 -338h-170l-35 338v277h-225v219h225v250h240v-250h225z" />
    <glyph glyph-name="daggerdbl" unicode="&#x2021;" horiz-adv-x="952" 
d="M586 965l-25 -248l27 -246h233v-221h-225v-250h-240v250h-225v221h234l26 246l-24 248h-236v219h225v250h240v-250h225v-219h-235z" />
    <glyph glyph-name="bullet" unicode="&#x2022;" horiz-adv-x="790" 
d="M395 319q-131 0 -201.5 77.5t-70.5 205.5q0 124 70.5 200.5t201.5 76.5q128 0 200.5 -77t72.5 -200q0 -127 -72.5 -205t-200.5 -78z" />
    <glyph glyph-name="ellipsis" unicode="&#x2026;" horiz-adv-x="1693" 
d="M96 0v293h303v-293h-303zM696 0v293h303v-293h-303zM1292 0v293h303v-293h-303z" />
    <glyph glyph-name="perthousand" unicode="&#x2030;" horiz-adv-x="2494" 
d="M430 713q-156 0 -243 102t-87 270t87 270.5t243 102.5q155 0 242.5 -102.5t87.5 -270.5t-87 -270t-243 -102zM260 0v20l971 1414h229v-21l-966 -1413h-234zM430 893q137 0 137 192q0 193 -137 193t-137 -193q0 -192 137 -192zM1305 -18q-156 0 -243 102t-87 270t87 270.5
t243 102.5q155 0 242 -102.5t87 -270.5t-86.5 -270t-242.5 -102zM2064 -18q-156 0 -242.5 102t-86.5 270t86.5 270.5t242.5 102.5q155 0 243.5 -102.5t88.5 -270.5t-87.5 -270t-244.5 -102zM1305 162q137 0 137 192q0 193 -137 193q-138 0 -138 -193q0 -192 138 -192z
M2064 162q138 0 138 192q0 193 -138 193q-135 0 -135 -193q0 -192 135 -192z" />
    <glyph glyph-name="guilsinglleft" unicode="&#x2039;" horiz-adv-x="729" 
d="M393 135l-340 434v21l340 434h258v-20l-286 -424l286 -424v-21h-258z" />
    <glyph glyph-name="guilsinglright" unicode="&#x203a;" horiz-adv-x="729" 
d="M80 135v21l287 424l-287 424v20h258l340 -434v-21l-340 -434h-258z" />
    <glyph glyph-name="fraction" unicode="&#x2044;" horiz-adv-x="1130" 
d="M-20 -205v21l911 1822h260v-20l-907 -1823h-264z" />
    <glyph glyph-name="Euro" unicode="&#x20ac;" horiz-adv-x="1542" 
d="M846 236q146 0 228.5 74.5t105.5 197.5h284q-12 -111 -60.5 -206.5t-126 -167t-189 -112t-242.5 -40.5q-253 0 -417.5 127.5t-225.5 347.5h-123v184h92q-2 25 -2 74q0 39 2 59h-92v184h119q57 229 223 361.5t424 132.5q132 0 244.5 -42t190.5 -115t126 -171.5t57 -212.5
h-286q-13 125 -97 205t-235 80q-132 0 -220 -62t-130 -176h462l-40 -184h-459q-2 -18 -2 -59q0 -49 2 -74h428l-41 -184h-344q91 -221 344 -221z" />
    <glyph glyph-name="uni2116" unicode="&#x2116;" horiz-adv-x="2371" 
d="M1847 678q-176 0 -270 107t-94 280q0 172 95 279.5t269 107.5q173 0 269 -107.5t96 -279.5t-94.5 -279.5t-270.5 -107.5zM162 0v1434h325l586 -996h8v996h279v-1434h-328l-586 989h-8v-989h-276zM1847 868q74 0 113 50.5t39 146.5q0 98 -39 147.5t-113 49.5
q-75 0 -114 -50t-39 -147q0 -96 39.5 -146.5t113.5 -50.5zM1524 385v205h655v-205h-655z" />
    <glyph glyph-name="trademark" unicode="&#x2122;" horiz-adv-x="1497" 
d="M262 764v526h-199v144h553v-144h-196v-526h-158zM711 764v670h174l188 -314h6l185 314h174v-670h-148v430h-6l-197 -320h-20l-203 324h-6v-434h-147z" />
    <glyph glyph-name="minus" unicode="&#x2212;" horiz-adv-x="1003" 
d="M10 524v234h983v-234h-983z" />
    <glyph glyph-name="notequal" unicode="&#x2260;" horiz-adv-x="1003" 
d="M993 725h-334l-120 -199h454v-235h-596l-67 -113h-191v21l56 92h-185v235h326l121 199h-447v233h586l78 129h190v-20l-65 -109h194v-233z" />
    <glyph glyph-name="lessequal" unicode="&#x2264;" horiz-adv-x="1064" 
d="M993 328l-919 334v276l919 334v-254l-659 -213v-8l659 -215v-254zM74 2v236h919v-236h-919z" />
    <glyph glyph-name="greaterequal" unicode="&#x2265;" horiz-adv-x="1064" 
d="M74 328v254l659 215v8l-659 213v254l919 -334v-276zM74 2v236h919v-236h-919z" />
    <glyph glyph-name="i.loclTRK" horiz-adv-x="505" 
d="M117 1217v286h295v-286h-295zM125 0v1065h274v-1065h-274z" />
    <glyph glyph-name="a.ss01" 
d="M504 -18q-204 0 -321 153.5t-117 396.5q0 160 50.5 283.5t151 195.5t236.5 72q192 0 293 -133h8l29 115h245v-1065h-245l-27 115h-8q-94 -133 -295 -133zM580 223q121 0 178 86t57 223t-56.5 223.5t-178.5 86.5q-64 0 -111 -24.5t-73.5 -68t-39 -97.5t-12.5 -120
q0 -65 13 -119.5t40 -97.5t74 -67.5t109 -24.5z" />
    <glyph glyph-name="aacute.ss01" 
d="M455 1194v20l141 293h301v-20l-238 -293h-204zM504 -18q-204 0 -321 153.5t-117 396.5q0 160 50.5 283.5t151 195.5t236.5 72q192 0 293 -133h8l29 115h245v-1065h-245l-27 115h-8q-94 -133 -295 -133zM580 223q121 0 178 86t57 223t-56.5 223.5t-178.5 86.5
q-64 0 -111 -24.5t-73.5 -68t-39 -97.5t-12.5 -120q0 -65 13 -119.5t40 -97.5t74 -67.5t109 -24.5z" />
    <glyph glyph-name="abreve.ss01" 
d="M584 1198q-153 0 -237.5 79.5t-84.5 221.5h201q6 -110 121 -110q112 0 118 110h201q0 -143 -82 -222t-237 -79zM504 -18q-204 0 -321 153.5t-117 396.5q0 160 50.5 283.5t151 195.5t236.5 72q192 0 293 -133h8l29 115h245v-1065h-245l-27 115h-8q-94 -133 -295 -133z
M580 223q121 0 178 86t57 223t-56.5 223.5t-178.5 86.5q-64 0 -111 -24.5t-73.5 -68t-39 -97.5t-12.5 -120q0 -65 13 -119.5t40 -97.5t74 -67.5t109 -24.5z" />
    <glyph glyph-name="uni01CE.ss01" 
d="M436 1198l-196 285v20h221l123 -125h8l123 125h223v-20l-199 -285h-303zM504 -18q-204 0 -321 153.5t-117 396.5q0 160 50.5 283.5t151 195.5t236.5 72q192 0 293 -133h8l29 115h245v-1065h-245l-27 115h-8q-94 -133 -295 -133zM580 223q121 0 178 86t57 223t-56.5 223.5
t-178.5 86.5q-64 0 -111 -24.5t-73.5 -68t-39 -97.5t-12.5 -120q0 -65 13 -119.5t40 -97.5t74 -67.5t109 -24.5z" />
    <glyph glyph-name="acircumflex.ss01" 
d="M242 1198v21l196 284h303l199 -284v-21h-223l-123 125h-8l-123 -125h-221zM504 -18q-204 0 -321 153.5t-117 396.5q0 160 50.5 283.5t151 195.5t236.5 72q192 0 293 -133h8l29 115h245v-1065h-245l-27 115h-8q-94 -133 -295 -133zM580 223q121 0 178 86t57 223
t-56.5 223.5t-178.5 86.5q-64 0 -111 -24.5t-73.5 -68t-39 -97.5t-12.5 -120q0 -65 13 -119.5t40 -97.5t74 -67.5t109 -24.5z" />
    <glyph glyph-name="adieresis.ss01" 
d="M266 1239v250h250v-250h-250zM664 1239v250h247v-250h-247zM504 -18q-204 0 -321 153.5t-117 396.5q0 160 50.5 283.5t151 195.5t236.5 72q192 0 293 -133h8l29 115h245v-1065h-245l-27 115h-8q-94 -133 -295 -133zM580 223q121 0 178 86t57 223t-56.5 223.5t-178.5 86.5
q-64 0 -111 -24.5t-73.5 -68t-39 -97.5t-12.5 -120q0 -65 13 -119.5t40 -97.5t74 -67.5t109 -24.5z" />
    <glyph glyph-name="agrave.ss01" 
d="M532 1194l-237 293v20h303l139 -293v-20h-205zM504 -18q-204 0 -321 153.5t-117 396.5q0 160 50.5 283.5t151 195.5t236.5 72q192 0 293 -133h8l29 115h245v-1065h-245l-27 115h-8q-94 -133 -295 -133zM580 223q121 0 178 86t57 223t-56.5 223.5t-178.5 86.5
q-64 0 -111 -24.5t-73.5 -68t-39 -97.5t-12.5 -120q0 -65 13 -119.5t40 -97.5t74 -67.5t109 -24.5z" />
    <glyph glyph-name="amacron.ss01" 
d="M293 1249v209h590v-209h-590zM504 -18q-204 0 -321 153.5t-117 396.5q0 160 50.5 283.5t151 195.5t236.5 72q192 0 293 -133h8l29 115h245v-1065h-245l-27 115h-8q-94 -133 -295 -133zM580 223q121 0 178 86t57 223t-56.5 223.5t-178.5 86.5q-64 0 -111 -24.5t-73.5 -68
t-39 -97.5t-12.5 -120q0 -65 13 -119.5t40 -97.5t74 -67.5t109 -24.5z" />
    <glyph glyph-name="aogonek.ss01" 
d="M834 1065h245v-1065h-2q-73 -30 -123.5 -82t-50.5 -113q0 -43 28 -65.5t75 -22.5h71v-178h-131q-67 0 -125.5 22.5t-99.5 73t-41 119.5q0 155 154 248l-27 113h-8q-94 -133 -295 -133q-204 0 -321 153.5t-117 396.5q0 160 50.5 283.5t151 195.5t236.5 72q192 0 293 -133
h8zM580 223q121 0 178 86t57 223t-56.5 223.5t-178.5 86.5q-64 0 -111 -24.5t-73.5 -68t-39 -97.5t-12.5 -120q0 -65 13 -119.5t40 -97.5t74 -67.5t109 -24.5z" />
    <glyph glyph-name="aring.ss01" 
d="M584 1165q-102 0 -170 65.5t-68 164.5q0 101 68 166t170 65q104 0 170.5 -65t66.5 -166q0 -100 -66.5 -165t-170.5 -65zM582 1305q42 0 68 25.5t26 64.5t-26 65.5t-68 26.5q-40 0 -65 -26.5t-25 -65.5t24.5 -64.5t65.5 -25.5zM504 -18q-204 0 -321 153.5t-117 396.5
q0 160 50.5 283.5t151 195.5t236.5 72q192 0 293 -133h8l29 115h245v-1065h-245l-27 115h-8q-94 -133 -295 -133zM580 223q121 0 178 86t57 223t-56.5 223.5t-178.5 86.5q-64 0 -111 -24.5t-73.5 -68t-39 -97.5t-12.5 -120q0 -65 13 -119.5t40 -97.5t74 -67.5t109 -24.5z
" />
    <glyph glyph-name="atilde.ss01" 
d="M690 1204q-73 0 -139 39l-31 17q-50 26 -76 26q-27 0 -44 -20.5t-17 -57.5h-170v31q0 117 58.5 181.5t156.5 64.5q59 0 143 -41l31 -17q51 -28 76 -28q57 0 57 82h168v-31q0 -246 -213 -246zM504 -18q-204 0 -321 153.5t-117 396.5q0 160 50.5 283.5t151 195.5t236.5 72
q192 0 293 -133h8l29 115h245v-1065h-245l-27 115h-8q-94 -133 -295 -133zM580 223q121 0 178 86t57 223t-56.5 223.5t-178.5 86.5q-64 0 -111 -24.5t-73.5 -68t-39 -97.5t-12.5 -120q0 -65 13 -119.5t40 -97.5t74 -67.5t109 -24.5z" />
    <glyph glyph-name="caron.Slovak" horiz-adv-x="409" 
d="M68 1085v349h274v-21l-94 -328h-180z" />
    </font>
</defs>
</svg>
