<?xml version="1.0" standalone="no"?>
<!DOCTYPE svg PUBLIC "-//W3C//DTD SVG 1.1//EN" "http://www.w3.org/Graphics/SVG/1.1/DTD/svg11.dtd" >
<svg xmlns="http://www.w3.org/2000/svg" xmlns:xlink="http://www.w3.org/1999/xlink" version="1.1">
<metadata>
Created by FontForge 20170731 at Sat Dec  5 06:59:51 2020
 By Aleksey,,,
Copyright (c) 2019 Monotype Imaging Inc. All rights reserved.
</metadata>
<defs>
<font id="Infra-Bold" horiz-adv-x="1228" >
  <font-face 
    font-family="Infra"
    font-weight="700"
    font-stretch="normal"
    units-per-em="2048"
    panose-1="2 11 8 0 0 0 0 2 0 0"
    ascent="1582"
    descent="-466"
    x-height="1085"
    cap-height="1475"
    bbox="-1063 -635 2812 2233"
    underline-thickness="260"
    underline-position="-526"
    unicode-range="U+000D-FEFF"
  />
<missing-glyph horiz-adv-x="1218" 
d="M136 0v1475h946v-1475h-946zM383 226h453v1022h-453v-1022z" />
    <glyph glyph-name="fi" unicode="fi" horiz-adv-x="1370" 
d="M636 1253q-66 0 -94 -32t-28 -102v-34h258v-259h-258v-826h-317v826h-154v259h154v67q0 169 107 260t283 91q110 0 208 -30l-53 -234q-65 14 -106 14zM928 1475h329v-260h-329v260zM934 0v1085h317v-1085h-317z" />
    <glyph glyph-name="fl" unicode="fl" horiz-adv-x="1370" 
d="M636 1253q-66 0 -94 -32t-28 -102v-34h258v-259h-258v-826h-317v826h-154v259h154v67q0 169 107 260t283 91q110 0 208 -30l-53 -234q-65 14 -106 14zM934 1475h317v-1475h-317v1475z" />
    <glyph glyph-name="f_f" unicode="ff" horiz-adv-x="1558" 
d="M1258 1119v-34h259v-259h-259v-826h-317v826h-427v-826h-317v826h-154v259h154v67q0 169 107 260t283 91q110 0 208 -30l-53 -234q-65 14 -106 14q-66 0 -94 -32t-28 -102v-34h427v67q0 169 107 260t283 91q111 0 208 -30l-52 -234q-65 14 -107 14q-66 0 -94 -32
t-28 -102z" />
    <glyph glyph-name="f_f_i" unicode="ffi" horiz-adv-x="2114" 
d="M1380 1253q-66 0 -94 -32t-28 -102v-34h259v-259h-259v-826h-317v826h-427v-826h-317v826h-154v259h154v67q0 169 107 260t283 91q110 0 208 -30l-53 -234q-65 14 -106 14q-66 0 -94 -32t-28 -102v-34h427v67q0 169 107 260t283 91q111 0 208 -30l-52 -234
q-65 14 -107 14zM1672 1475h331v-258h-331v258zM1678 0v1085h318v-1085h-318z" />
    <glyph glyph-name="f_f_l" unicode="ffl" horiz-adv-x="2114" 
d="M1380 1253q-66 0 -94 -32t-28 -102v-34h259v-259h-259v-826h-317v826h-427v-826h-317v826h-154v259h154v67q0 169 107 260t283 91q110 0 208 -30l-53 -234q-65 14 -106 14q-66 0 -94 -32t-28 -102v-34h427v67q0 169 107 260t283 91q111 0 208 -30l-52 -234
q-65 14 -107 14zM1678 1475h318v-1475h-318v1475z" />
    <glyph glyph-name=".notdef" horiz-adv-x="1218" 
d="M136 0v1475h946v-1475h-946zM383 226h453v1022h-453v-1022z" />
    <glyph glyph-name=".null" horiz-adv-x="0" 
 />
    <glyph glyph-name="nonmarkingreturn" horiz-adv-x="682" 
 />
    <glyph glyph-name="NULL" horiz-adv-x="0" 
 />
    <glyph glyph-name="NULL" horiz-adv-x="0" 
 />
    <glyph glyph-name="CR" unicode="&#xd;" horiz-adv-x="458" 
 />
    <glyph glyph-name="space" unicode=" " horiz-adv-x="458" 
 />
    <glyph glyph-name="exclam" unicode="!" horiz-adv-x="625" 
d="M222 445l-81 536v494h343v-494l-80 -536h-182zM139 0v328h347v-328h-347z" />
    <glyph glyph-name="quotedbl" unicode="&#x22;" horiz-adv-x="964" 
d="M103 827v648h298v-648h-298zM563 827v648h298v-648h-298z" />
    <glyph glyph-name="numbersign" unicode="#" horiz-adv-x="1617" 
d="M1487 885h-206l-61 -295h204l-54 -260h-205l-68 -330h-314l69 330h-255l-69 -330h-313l69 330h-206l54 260h206l61 295h-205l54 260h206l68 330h314l-69 -330h255l69 330h313l-69 -330h206zM906 590l62 295h-255l-62 -295h255z" />
    <glyph glyph-name="dollar" unicode="$" horiz-adv-x="1385" 
d="M1306 418q0 -184 -120.5 -299.5t-338.5 -143.5v-158h-274v158q-322 41 -504 268l223 203q109 -137 281 -174v314q-74 14 -132 31t-121 50.5t-104 77.5t-68 114t-27 158q0 176 120.5 290.5t331.5 141.5v158h274v-162q143 -22 261 -83t196 -156l-219 -202q-85 103 -238 142
v-291q76 -13 134 -29.5t122.5 -49.5t106 -77.5t69 -116.5t27.5 -164zM458 1029q0 -83 115 -122v242q-55 -17 -85 -48.5t-30 -71.5zM847 275q58 18 90.5 52.5t32.5 79.5q0 49 -31.5 79t-91.5 49v-260z" />
    <glyph glyph-name="percent" unicode="%" horiz-adv-x="2049" 
d="M494 658q-171 0 -279.5 109t-108.5 286t108.5 285.5t279.5 108.5t279 -108.5t108 -285.5t-108 -286t-279 -109zM443 0l910 1423h265l-909 -1423h-266zM494 876q66 0 106 48.5t40 128.5q0 79 -40 128t-106 49t-106.5 -49t-40.5 -128t40.5 -128t106.5 -49zM1555 -24
q-171 0 -279.5 109t-108.5 286t108 285.5t280 108.5t280 -108.5t108 -285.5t-108.5 -286t-279.5 -109zM1555 194q65 0 105.5 49t40.5 128q0 80 -40.5 129t-105.5 49q-66 0 -106 -49t-40 -129q0 -79 40 -128t106 -49z" />
    <glyph glyph-name="ampersand" unicode="&#x26;" horiz-adv-x="1457" 
d="M1430 0h-358l-60 66q-174 -97 -394 -97q-147 0 -264 48t-187.5 145t-70.5 230q0 238 253 402q-148 174 -148 333q0 162 125.5 270t321.5 108q195 0 314.5 -107.5t119.5 -274.5q0 -248 -282 -404l216 -246q49 83 75 184l283 -77q-49 -201 -157 -337zM645 1239
q-61 0 -95 -34t-34 -92q0 -51 25 -94t71 -92q161 81 161 190q0 54 -33.5 88t-94.5 34zM629 233q95 0 187 48l-275 301q-64 -42 -96 -85.5t-32 -98.5q0 -80 61.5 -122.5t154.5 -42.5z" />
    <glyph glyph-name="quotesingle" unicode="'" horiz-adv-x="504" 
d="M103 827v648h298v-648h-298z" />
    <glyph glyph-name="parenleft" unicode="(" horiz-adv-x="777" 
d="M493 -368q-417 446 -417 1008q0 563 417 1009l236 -181q-177 -204 -255.5 -401t-78.5 -427q0 -229 78.5 -426.5t255.5 -401.5z" />
    <glyph glyph-name="parenright" unicode=")" horiz-adv-x="777" 
d="M285 -368l-237 180q177 205 256 402.5t79 425.5q0 229 -79 426.5t-256 401.5l237 181q416 -445 416 -1009q0 -563 -416 -1008z" />
    <glyph glyph-name="asterisk" unicode="*" horiz-adv-x="834" 
d="M300 765l-196 137l127 166l-181 49l60 223l185 -57v192h244v-192l185 57l60 -223l-181 -49l126 -166l-195 -137l-117 169z" />
    <glyph glyph-name="plus" unicode="+" 
d="M1104 717v-261h-350v-340h-279v340h-349v261h349v330h279v-330h350z" />
    <glyph glyph-name="comma" unicode="," horiz-adv-x="557" 
d="M103 349h351v-359q0 -127 -43.5 -216t-153.5 -174l-113 125q75 54 102 122t27 153h-170v349z" />
    <glyph glyph-name="hyphen" unicode="-" horiz-adv-x="809" 
d="M100 456v261h610v-261h-610z" />
    <glyph glyph-name="period" unicode="." horiz-adv-x="557" 
d="M103 0v349h351v-349h-351z" />
    <glyph glyph-name="slash" unicode="/" horiz-adv-x="1088" 
d="M20 -215l755 1823h306l-756 -1823h-305z" />
    <glyph glyph-name="zero" unicode="0" horiz-adv-x="1371" 
d="M686 -32q-189 0 -324.5 92.5t-203.5 259.5t-68 392q0 342 156 542.5t440 200.5q283 0 439.5 -200.5t156.5 -542.5t-156.5 -543t-439.5 -201zM686 259q127 0 194.5 124t67.5 329t-67.5 328.5t-194.5 123.5q-128 0 -195.5 -123.5t-67.5 -328.5t67.5 -329t195.5 -124z" />
    <glyph glyph-name="one" unicode="1" horiz-adv-x="1021" 
d="M838 1423v-1423h-327v1027l-243 -216l-188 205l459 407h299z" />
    <glyph glyph-name="two" unicode="2" horiz-adv-x="1193" 
d="M541 275h570v-275h-1033v258l484 445q43 40 67 62.5t55 57.5t46.5 61.5t27 60.5t11.5 68q0 70 -46.5 113.5t-129.5 43.5q-92 0 -147.5 -63.5t-77.5 -172.5l-301 70q44 216 186.5 334t353.5 118q218 0 355 -120.5t137 -318.5q0 -76 -20.5 -143.5t-63.5 -129t-88.5 -110
t-115.5 -110.5z" />
    <glyph glyph-name="three" unicode="3" horiz-adv-x="1241" 
d="M942 726q223 -93 223 -329q0 -192 -146 -311t-386 -119q-209 0 -359.5 97.5t-212.5 272.5l282 118q79 -204 274 -204q96 0 154.5 50.5t58.5 127.5q0 75 -51 118t-140 43h-144v254h112q92 0 143 43.5t51 120.5q0 76 -48 121t-131 45q-188 0 -241 -206l-288 78
q46 196 188 303t354 107q225 0 362.5 -118t137.5 -304q0 -116 -49 -189.5t-144 -118.5z" />
    <glyph glyph-name="four" unicode="4" horiz-adv-x="1248" 
d="M1206 562v-275h-188v-287h-327v287h-638v265l614 871h351v-861h188zM360 562h331v490z" />
    <glyph glyph-name="five" unicode="5" horiz-adv-x="1246" 
d="M689 964q214 0 343.5 -134.5t129.5 -351.5q0 -230 -151 -370.5t-399 -140.5q-192 0 -334 87t-204 229l273 148q35 -85 100.5 -131t155.5 -46q101 0 163 63.5t62 163.5q0 98 -58 157.5t-153 59.5q-149 0 -215 -120h-286l103 845h874v-275h-616l-34 -263q111 79 246 79z
" />
    <glyph glyph-name="six" unicode="6" horiz-adv-x="1277" 
d="M711 933q218 0 352 -130t134 -339q0 -219 -142 -357.5t-381 -138.5q-391 0 -529 368q-55 147 -55 362q0 357 162.5 557.5t440.5 200.5q312 0 491 -262l-241 -170q-89 150 -238 150q-74 0 -130.5 -30.5t-90 -84.5t-51 -114.5t-23.5 -132.5q116 121 301 121zM668 239
q97 0 154.5 62t57.5 160q0 99 -57.5 160.5t-154.5 61.5q-101 0 -162.5 -63.5t-61.5 -158.5t61.5 -158.5t162.5 -63.5z" />
    <glyph glyph-name="seven" unicode="7" horiz-adv-x="1129" 
d="M50 1423h1040v-265q-234 -254 -353 -540.5t-130 -617.5h-347q27 644 475 1148h-685v275z" />
    <glyph glyph-name="eight" unicode="8" horiz-adv-x="1270" 
d="M635 -33q-253 0 -406 118t-153 311q0 242 260 336q-92 40 -153.5 126t-61.5 188q0 172 141.5 291t372.5 119t373 -118.5t142 -291.5q0 -102 -61.5 -188t-153.5 -126q260 -94 260 -336q0 -193 -153 -311t-407 -118zM635 840q93 0 151 50.5t58 127.5q0 80 -57.5 130.5
t-151.5 50.5q-93 0 -150.5 -50.5t-57.5 -130.5q0 -77 57.5 -127.5t150.5 -50.5zM635 227q106 0 171.5 53.5t65.5 140.5t-64.5 137t-172.5 50q-107 0 -172 -50t-65 -137t65.5 -140.5t171.5 -53.5z" />
    <glyph glyph-name="nine" unicode="9" horiz-adv-x="1277" 
d="M1132 1096q56 -143 56 -368q0 -180 -43 -324.5t-120 -239.5t-184 -146t-235 -51q-329 0 -509 267l235 177q92 -161 263 -161q118 0 191.5 97.5t82.5 286.5q-123 -131 -300 -131q-221 0 -354.5 128t-133.5 335q0 218 142 354t381 136q211 0 337.5 -94t190.5 -266zM612 753
q101 0 162 60.5t61 155.5t-61 155.5t-162 60.5q-97 0 -155.5 -59.5t-58.5 -156.5t58.5 -156.5t155.5 -59.5z" />
    <glyph glyph-name="colon" unicode=":" horiz-adv-x="557" 
d="M103 736v349h351v-349h-351zM103 0v349h351v-349h-351z" />
    <glyph glyph-name="semicolon" unicode=";" horiz-adv-x="557" 
d="M103 1085h351v-349h-351v349zM103 0v349h351v-359q0 -127 -43.5 -216t-153.5 -174l-113 125q75 54 102 122t27 153h-170z" />
    <glyph glyph-name="less" unicode="&#x3c;" 
d="M1104 65l-978 406v297l978 407v-289l-702 -266l702 -267v-288z" />
    <glyph glyph-name="equal" unicode="=" 
d="M126 678v261h978v-261h-978zM126 242v261h978v-261h-978z" />
    <glyph glyph-name="greater" unicode="&#x3e;" 
d="M126 65v288l700 267l-700 266v289l978 -407v-297z" />
    <glyph glyph-name="question" unicode="?" horiz-adv-x="1174" 
d="M375 432v110q0 83 29.5 148.5t80.5 113.5t136 98q80 49 116.5 90.5t36.5 93.5q0 63 -48 98.5t-130 35.5q-186 0 -266 -192l-274 128q71 166 214 256t341 90q222 0 357 -113t135 -298q0 -118 -60.5 -203.5t-180.5 -160.5q-99 -62 -140.5 -110t-41.5 -117v-68h-305zM353 0
v315h348v-315h-348z" />
    <glyph glyph-name="at" unicode="@" horiz-adv-x="2101" 
d="M1210 1000h253v-520q0 -152 120 -152q142 0 142 287q0 132 -51.5 250t-140 203.5t-214.5 135.5t-268 50q-190 0 -345 -90.5t-243 -250t-88 -354.5q0 -147 52 -276t141.5 -221t215 -145.5t267.5 -53.5q244 0 425 121l138 -197q-227 -166 -563 -166q-199 0 -373 71.5
t-298 195.5t-195 298t-71 373q0 265 121 479.5t335.5 336t479.5 121.5q199 0 374 -68t298.5 -185.5t194.5 -280.5t71 -347q0 -261 -110 -398.5t-303 -137.5q-107 0 -192 44t-128 124q-74 -148 -279 -148q-175 0 -290.5 127.5t-115.5 333.5t115 334.5t286 128.5
q160 0 239 -114v91zM1015 319q81 0 131.5 63.5t50.5 178.5q0 116 -50.5 179t-131.5 63q-78 0 -126.5 -64t-48.5 -178t48.5 -178t126.5 -64z" />
    <glyph glyph-name="A" unicode="A" horiz-adv-x="1540" 
d="M1147 0l-99 285h-564l-99 -285h-353l551 1475h373l552 -1475h-361zM582 562h368l-184 525z" />
    <glyph glyph-name="B" unicode="B" horiz-adv-x="1421" 
d="M1100 757q120 -41 181 -129t61 -213q0 -191 -122.5 -303t-343.5 -112h-740v1475h707q220 0 344.5 -104.5t124.5 -281.5q0 -114 -55.5 -199t-156.5 -133zM470 1184v-306h325q83 0 130.5 40t47.5 113q0 72 -45.5 112.5t-127.5 40.5h-330zM833 291q80 0 125.5 44t45.5 118
t-47 116.5t-126 42.5h-361v-321h363z" />
    <glyph glyph-name="C" unicode="C" horiz-adv-x="1479" 
d="M794 -34q-212 0 -374.5 96.5t-251 271.5t-88.5 403q0 171 51.5 314.5t144 244t225 156.5t291.5 56q202 0 368 -100t248 -273l-272 -148q-67 115 -147.5 165.5t-193.5 50.5q-168 0 -269.5 -127t-101.5 -339t102.5 -339t270.5 -127q114 0 194 56t145 180l274 -146
q-97 -190 -256.5 -292.5t-359.5 -102.5z" />
    <glyph glyph-name="D" unicode="D" horiz-adv-x="1529" 
d="M715 1475q342 0 539 -199t197 -540q0 -340 -197 -538t-539 -198h-579v1475h579zM684 297q198 0 310.5 117t112.5 322q0 206 -112.5 324t-310.5 118h-214v-881h214z" />
    <glyph glyph-name="E" unicode="E" horiz-adv-x="1307" 
d="M136 0v1475h1088v-297h-754v-291h680v-284h-680v-306h763v-297h-1097z" />
    <glyph glyph-name="F" unicode="F" horiz-adv-x="1280" 
d="M1232 1178h-762v-309h651v-286h-651v-583h-334v1475h1096v-297z" />
    <glyph glyph-name="G" unicode="G" horiz-adv-x="1526" 
d="M815 828h601v-828h-282v133q-117 -166 -367 -166q-149 0 -276 56t-217.5 156t-142 244t-51.5 314q0 175 53.5 319.5t149 243.5t229.5 153t293 54q180 0 337.5 -76.5t260.5 -226.5l-258 -176q-62 92 -141 133.5t-190 41.5q-174 0 -282.5 -123.5t-108.5 -342.5
q0 -220 105 -343.5t285 -123.5q143 0 231 74t92 221h-321v263z" />
    <glyph glyph-name="H" unicode="H" horiz-adv-x="1551" 
d="M1080 1475h336v-1475h-336v596h-609v-596h-335v1475h335v-582h609v582z" />
    <glyph glyph-name="I" unicode="I" horiz-adv-x="607" 
d="M136 0v1475h335v-1475h-335z" />
    <glyph glyph-name="J" unicode="J" horiz-adv-x="1178" 
d="M560 -31q-195 0 -320 73t-199 229l270 159q74 -164 223 -164q92 0 141.5 60.5t49.5 173.5v975h335v-1010q0 -233 -131.5 -364.5t-368.5 -131.5z" />
    <glyph glyph-name="K" unicode="K" horiz-adv-x="1443" 
d="M1034 0l-363 609l-200 -233v-376h-335v1475h335v-637l527 637h413l-523 -612l542 -863h-396z" />
    <glyph glyph-name="L" unicode="L" horiz-adv-x="1153" 
d="M471 297h654v-297h-989v1475h335v-1178z" />
    <glyph glyph-name="M" unicode="M" horiz-adv-x="1871" 
d="M1736 1475v-1475h-334v950l-299 -950h-335l-298 947v-947h-334v1475h453l347 -1045l347 1045h453z" />
    <glyph glyph-name="N" unicode="N" horiz-adv-x="1536" 
d="M1066 1475h334v-1475h-384l-545 955v-955h-335v1475h381l549 -962v962z" />
    <glyph glyph-name="O" unicode="O" horiz-adv-x="1616" 
d="M808 -33q-219 0 -384 95.5t-254.5 270t-89.5 404.5t89.5 404.5t254.5 270t384 95.5q330 0 529.5 -211t199.5 -559t-199.5 -559t-529.5 -211zM808 272q176 0 280.5 125.5t104.5 339.5t-104.5 339.5t-280.5 125.5t-280 -125t-104 -340t104 -340t280 -125z" />
    <glyph glyph-name="P" unicode="P" horiz-adv-x="1356" 
d="M831 1475q235 0 366 -129t131 -353q0 -220 -131.5 -347.5t-365.5 -127.5h-360v-518h-335v1475h695zM792 808q95 0 146 50t51 135q0 86 -51 136t-146 50h-321v-371h321z" />
    <glyph glyph-name="Q" unicode="Q" horiz-adv-x="1616" 
d="M1537 737q0 -173 -52.5 -316.5t-150.5 -246.5l117 -136l-194 -160l-130 153q-143 -64 -319 -64q-219 0 -384 95.5t-254.5 270t-89.5 404.5t89.5 404.5t254.5 270t384 95.5q330 0 529.5 -211t199.5 -559zM808 272q49 0 101 13l-145 169l191 160l158 -183q80 122 80 306
q0 214 -104.5 339.5t-280.5 125.5t-280 -125t-104 -340t104 -340t280 -125z" />
    <glyph glyph-name="R" unicode="R" horiz-adv-x="1379" 
d="M969 0l-268 549h-230v-549h-335v1475h693q224 0 356.5 -124t132.5 -344q0 -162 -74 -271t-208 -155l303 -581h-370zM471 1179v-342h310q96 0 147 44.5t51 125.5t-51 126.5t-147 45.5h-310z" />
    <glyph glyph-name="S" unicode="S" horiz-adv-x="1427" 
d="M734 -34q-436 0 -665 288l226 206q151 -197 442 -197q121 0 194.5 43t73.5 113q0 29 -10.5 52t-34.5 40.5t-47 29t-66.5 22t-72.5 16.5t-83 15q-71 12 -111 19.5t-108.5 26t-109 38.5t-91.5 55t-79 77.5t-47.5 104.5t-19.5 137q0 209 161 332.5t436 123.5
q198 0 360.5 -67t263.5 -191l-227 -206q-63 78 -169.5 122.5t-231.5 44.5q-113 0 -181 -40.5t-68 -106.5q0 -26 10 -47.5t31.5 -37t45 -27t61 -21t68.5 -15.5t78 -13q74 -11 113.5 -18t111 -25t113 -38t95 -56.5t82.5 -81t49.5 -110t20.5 -145.5q0 -216 -163.5 -339.5
t-450.5 -123.5z" />
    <glyph glyph-name="T" unicode="T" horiz-adv-x="1305" 
d="M1271 1475v-298h-451v-1177h-335v1177h-451v298h1237z" />
    <glyph glyph-name="U" unicode="U" horiz-adv-x="1484" 
d="M741 -33q-307 0 -468 164t-161 438v906h334v-884q0 -146 72.5 -232.5t222.5 -86.5q151 0 223.5 86.5t72.5 232.5v884h335v-906q0 -133 -39.5 -242.5t-116.5 -190t-198 -125t-277 -44.5z" />
    <glyph glyph-name="V" unicode="V" horiz-adv-x="1481" 
d="M1094 1475h356l-531 -1475h-357l-530 1475h364l349 -1059z" />
    <glyph glyph-name="W" unicode="W" horiz-adv-x="2213" 
d="M1816 1475h356l-442 -1475h-354l-266 976l-266 -976h-356l-446 1475h364l266 -1005l263 1005h351l262 -1005z" />
    <glyph glyph-name="X" unicode="X" horiz-adv-x="1471" 
d="M1436 0h-377l-323 510l-322 -510h-377l497 771l-462 704h377l287 -455l287 455h378l-463 -704z" />
    <glyph glyph-name="Y" unicode="Y" horiz-adv-x="1362" 
d="M984 1475h359l-493 -887v-588h-335v588l-496 887h361l302 -586z" />
    <glyph glyph-name="Z" unicode="Z" horiz-adv-x="1318" 
d="M75 0v278l721 900h-700v297h1128v-277l-720 -901h740v-297h-1169z" />
    <glyph glyph-name="bracketleft" unicode="[" horiz-adv-x="836" 
d="M762 1274h-313v-1246h313v-276h-626v1797h626v-275z" />
    <glyph glyph-name="backslash" unicode="\" horiz-adv-x="1088" 
d="M1068 -215h-304l-757 1823h306z" />
    <glyph glyph-name="bracketright" unicode="]" horiz-adv-x="836" 
d="M701 1549v-1797h-625v276h312v1246h-312v275h625z" />
    <glyph glyph-name="asciicircum" unicode="^" horiz-adv-x="971" 
d="M934 912h-291l-157 325l-157 -325h-291l295 563h306z" />
    <glyph glyph-name="underscore" unicode="_" horiz-adv-x="1167" 
d="M100 0v260h968v-260h-968z" />
    <glyph glyph-name="grave" unicode="`" horiz-adv-x="614" 
d="M254 1194l-229 345h309l167 -345h-247z" />
    <glyph glyph-name="a" unicode="a" horiz-adv-x="1152" 
d="M557 1110q232 0 357.5 -111.5t125.5 -331.5v-667h-311v120q-38 -69 -114 -109t-186 -40q-154 0 -258.5 92.5t-104.5 248.5q0 344 499 344h156v13q0 90 -49.5 134.5t-139.5 44.5q-138 0 -234 -111l-185 189q73 88 188 136t256 48zM723 399v54h-127q-227 0 -227 -128
q0 -61 39 -93.5t107 -32.5q88 0 148 62.5t60 137.5z" />
    <glyph glyph-name="b" unicode="b" horiz-adv-x="1272" 
d="M757 1114q203 0 328 -156t125 -416q0 -254 -128 -412.5t-328 -158.5q-203 0 -324 155v-126h-311v1475h317v-508q119 147 321 147zM659 243q101 0 164.5 79t63.5 220q0 142 -63.5 221.5t-164.5 79.5q-103 0 -167.5 -80.5t-64.5 -220.5q0 -138 64.5 -218.5t167.5 -80.5z
" />
    <glyph glyph-name="c" unicode="c" horiz-adv-x="1143" 
d="M616 -29q-248 0 -401 156.5t-153 412.5q0 259 151.5 415.5t401.5 156.5q67 0 129 -13t127.5 -43t124.5 -88.5t102 -141.5l-264 -128q-40 75 -91 108.5t-120 33.5q-112 0 -174.5 -81.5t-62.5 -216.5q0 -138 64.5 -218.5t172.5 -80.5q71 0 121 35t90 117l266 -121
q-46 -91 -102 -152.5t-120 -93.5t-125.5 -44.5t-136.5 -12.5z" />
    <glyph glyph-name="d" unicode="d" horiz-adv-x="1273" 
d="M838 1475h317v-1475h-311v124q-46 -65 -129.5 -109t-187.5 -44q-203 0 -334 158.5t-131 413.5q0 253 131 412t334 159q103 0 183 -42.5t128 -107.5v511zM614 243q103 0 168 80.5t65 219.5t-65 219.5t-168 80.5q-102 0 -165 -80t-63 -220q0 -141 62.5 -220.5t165.5 -79.5z
" />
    <glyph glyph-name="e" unicode="e" horiz-adv-x="1196" 
d="M389 447q37 -223 250 -223q151 0 247 120l213 -162q-167 -211 -474 -211q-250 0 -406.5 154t-156.5 405q0 262 150 422.5t390 160.5q241 0 388 -165t147 -428v-73h-748zM601 860q-79 0 -134 -53.5t-75 -155.5h419q-19 100 -74.5 154.5t-135.5 54.5z" />
    <glyph glyph-name="f" unicode="f" horiz-adv-x="814" 
d="M514 1119v-34h258v-259h-258v-826h-317v826h-154v259h154v67q0 169 107 260t283 91q110 0 208 -30l-53 -234q-65 14 -106 14q-66 0 -94 -32t-28 -102z" />
    <glyph glyph-name="g" unicode="g" horiz-adv-x="1270" 
d="M842 1085h310v-974q0 -228 -156 -363t-423 -135q-292 0 -482 165l165 222q143 -123 315 -123q129 0 196.5 69.5t67.5 166.5v70q-103 -150 -294 -150q-214 0 -347 149t-133 390q0 242 133 392t346 150q104 0 180.5 -43.5t121.5 -109.5v124zM615 302q101 0 165.5 71.5
t64.5 198.5q0 128 -64.5 200.5t-165.5 72.5q-102 0 -166 -75t-64 -198t64 -196.5t166 -73.5z" />
    <glyph glyph-name="h" unicode="h" horiz-adv-x="1224" 
d="M744 1113q159 0 263.5 -98t104.5 -284v-731h-317v650q0 95 -42.5 141.5t-118.5 46.5q-97 0 -147.5 -65t-50.5 -161v-612h-317v1475h317v-505q38 61 117 102t191 41z" />
    <glyph glyph-name="i" unicode="i" horiz-adv-x="555" 
d="M113 1215v260h329v-260h-329zM119 0v1085h317v-1085h-317z" />
    <glyph glyph-name="j" unicode="j" horiz-adv-x="555" 
d="M113 1215v260h329v-260h-329zM55 -383q-106 0 -193 32l60 248q53 -14 93 -14q57 0 80.5 27.5t23.5 96.5v1078h317v-1118q0 -188 -88 -269t-293 -81z" />
    <glyph glyph-name="k" unicode="k" horiz-adv-x="1193" 
d="M811 0l-253 419l-122 -136v-283h-317v1475h317v-789l344 399h372l-391 -438l408 -647h-358z" />
    <glyph glyph-name="l" unicode="l" horiz-adv-x="555" 
d="M119 0v1475h317v-1475h-317z" />
    <glyph glyph-name="m" unicode="m" horiz-adv-x="1823" 
d="M1370 1113q70 0 130.5 -21.5t108 -63.5t75 -113t27.5 -162v-753h-317v666q0 178 -141 178q-81 0 -130 -63t-49 -161v-620h-317v666q0 87 -37 132.5t-104 45.5q-81 0 -130.5 -63.5t-49.5 -160.5v-620h-317v1085h311v-122q100 150 304 150q99 0 179 -43t122 -128
q46 69 131 120t204 51z" />
    <glyph glyph-name="n" unicode="n" horiz-adv-x="1224" 
d="M751 1113q74 0 138 -23.5t114.5 -69t79.5 -120t29 -169.5v-731h-317v656q0 95 -42.5 141.5t-118.5 46.5q-91 0 -144.5 -66t-53.5 -158v-620h-317v1085h311v-126q35 63 116.5 108.5t204.5 45.5z" />
    <glyph glyph-name="o" unicode="o" horiz-adv-x="1243" 
d="M622 -29q-118 0 -220.5 40t-177.5 112.5t-118.5 181t-43.5 238.5q0 173 74.5 304t201 199t284.5 68t284.5 -68t200.5 -199t74 -304q0 -130 -43 -238.5t-118 -181t-177.5 -112.5t-220.5 -40zM622 244q108 0 171.5 80t63.5 219q0 138 -63.5 218.5t-171.5 80.5t-172 -80.5
t-64 -218.5q0 -139 63.5 -219t172.5 -80z" />
    <glyph glyph-name="p" unicode="p" horiz-adv-x="1272" 
d="M758 1114q201 0 326.5 -155t125.5 -416q0 -254 -128 -413t-329 -159q-195 0 -317 150v-479h-317v1442h311v-126q122 156 328 156zM659 243q102 0 165 80t63 220t-63 220t-165 80q-103 0 -167.5 -80.5t-64.5 -219.5t64.5 -219.5t167.5 -80.5z" />
    <glyph glyph-name="q" unicode="q" horiz-adv-x="1273" 
d="M845 1084h310v-1442h-317v479q-48 -65 -128 -107.5t-183 -42.5q-203 0 -334 159t-131 413t131 412.5t334 158.5q106 0 189 -43.5t129 -109.5v123zM615 243q103 0 168 80.5t65 219.5t-65 219.5t-168 80.5t-166 -79.5t-63 -220.5t63 -220.5t166 -79.5z" />
    <glyph glyph-name="r" unicode="r" horiz-adv-x="878" 
d="M727 1110q63 0 132 -17l-51 -279q-44 11 -115 11q-116 0 -186.5 -84.5t-70.5 -225.5v-515h-317v1085h311v-153q33 76 111 127t186 51z" />
    <glyph glyph-name="s" unicode="s" horiz-adv-x="1100" 
d="M565 -35q-343 0 -535 195l184 194q126 -132 357 -132q81 0 124.5 23t43.5 65q0 45 -50.5 66t-183.5 40q-197 27 -304 111t-107 241q0 162 127.5 256t344.5 94q286 0 469 -165l-173 -193q-114 101 -299 101q-73 0 -116.5 -20.5t-43.5 -60.5q0 -43 52 -63t186 -39
q69 -10 124 -24t110 -40.5t91.5 -62.5t59.5 -91.5t23 -125.5q0 -120 -65 -205t-172 -124.5t-247 -39.5z" />
    <glyph glyph-name="t" unicode="t" horiz-adv-x="877" 
d="M766 257l63 -247q-117 -40 -252 -40q-169 0 -266.5 78.5t-97.5 248.5v529h-170v259h170v306h317v-306h265v-259h-265v-446q0 -82 27.5 -110.5t96.5 -28.5q53 0 112 16z" />
    <glyph glyph-name="u" unicode="u" horiz-adv-x="1222" 
d="M786 1085h318v-1085h-310v127q-34 -64 -116 -110t-206 -46q-73 0 -137 23.5t-114 69t-79.5 120t-29.5 169.5v732h317v-658q0 -95 42.5 -140.5t117.5 -45.5q91 0 144 66t53 159v619z" />
    <glyph glyph-name="v" unicode="v" horiz-adv-x="1168" 
d="M820 1085h333l-411 -1085h-315l-412 1085h341l229 -720z" />
    <glyph glyph-name="w" unicode="w" horiz-adv-x="1778" 
d="M1423 1085h332l-315 -1085h-317l-230 736l-230 -736h-319l-319 1085h336l173 -687l203 687h311l204 -688z" />
    <glyph glyph-name="x" unicode="x" horiz-adv-x="1140" 
d="M1121 0h-349l-202 319l-200 -319h-351l368 564l-345 521h350l178 -292l179 292h350l-345 -521z" />
    <glyph glyph-name="y" unicode="y" horiz-adv-x="1184" 
d="M824 1085h344l-466 -1200q-25 -66 -56.5 -114.5t-65 -78.5t-74 -48t-80.5 -24.5t-89 -6.5q-127 0 -233 33l76 245q71 -19 110 -19q45 0 72.5 15.5t43.5 57.5l39 105l-430 1035h344l239 -674z" />
    <glyph glyph-name="z" unicode="z" horiz-adv-x="1024" 
d="M56 0v239l507 587h-480v259h864v-240l-506 -586h526v-259h-911z" />
    <glyph glyph-name="braceleft" unicode="{" horiz-adv-x="909" 
d="M617 936q0 -218 -187 -285q187 -69 187 -285v-163q0 -86 43 -130.5t125 -44.5h49v-276h-97q-432 0 -432 416v125q0 118 -47 171t-162 53v267q115 0 162 54t47 171v126q0 414 432 414h97v-275h-49q-82 0 -125 -44.5t-43 -130.5v-163z" />
    <glyph glyph-name="bar" unicode="|" horiz-adv-x="584" 
d="M136 -248v1797h313v-1797h-313z" />
    <glyph glyph-name="braceright" unicode="}" horiz-adv-x="909" 
d="M604 1009q0 -117 47 -171t162 -54v-267q-115 0 -162 -53t-47 -171v-125q0 -416 -432 -416h-96v276h48q82 0 125 44.5t43 130.5v163q0 216 187 285q-187 67 -187 285v163q0 86 -43 130.5t-125 44.5h-48v275h96q432 0 432 -414v-126z" />
    <glyph glyph-name="asciitilde" unicode="~" 
d="M793 413q-94 0 -218 60q-90 44 -141 44q-87 0 -177 -104l-162 183q170 183 341 183q99 0 217 -60q90 -44 142 -44q97 0 177 103l162 -182q-170 -183 -341 -183z" />
    <glyph glyph-name="uni00A0" unicode="&#xa0;" horiz-adv-x="458" 
 />
    <glyph glyph-name="exclamdown" unicode="&#xa1;" horiz-adv-x="625" 
d="M139 1085h347v-328h-347v328zM222 640h182l80 -537v-492h-343v492z" />
    <glyph glyph-name="cent" unicode="&#xa2;" horiz-adv-x="1218" 
d="M1133 434q-126 -238 -376 -268v-166h-229v174q-195 40 -313.5 183.5t-118.5 353.5q0 212 118.5 356.5t313.5 182.5v173h229v-168q254 -36 373 -256l-253 -149q-55 89 -120 121v-519q65 33 117 126zM428 713q0 -160 100 -236v470q-100 -74 -100 -234z" />
    <glyph glyph-name="sterling" unicode="&#xa3;" horiz-adv-x="1285" 
d="M596 603q0 -91 -26 -167t-85 -161h694v-275h-1077v262q90 95 123 168.5t34 180.5h-167v201h134q-24 102 -24 181q0 207 149 335t390 128q163 0 282.5 -59.5t207.5 -184.5l-237 -176q-42 69 -99 101.5t-139 32.5q-101 0 -163 -56t-62 -149q0 -55 26 -153h395v-201h-356v-8
z" />
    <glyph glyph-name="currency" unicode="&#xa4;" horiz-adv-x="1349" 
d="M1201 712q0 -159 -93 -292l179 -179l-141 -142l-183 183q-133 -85 -288 -85q-154 0 -289 85l-182 -183l-142 142l180 179q-94 135 -94 292t94 292l-180 179l142 141l182 -182q135 85 289 85q155 0 288 -85l183 182l141 -141l-179 -179q93 -133 93 -292zM426 712
q0 -109 73 -185t176 -76t176 76t73 185t-73 185.5t-176 76.5t-176 -76.5t-73 -185.5z" />
    <glyph glyph-name="yen" unicode="&#xa5;" horiz-adv-x="1338" 
d="M1307 1423l-379 -625h259v-200h-354v-106h354v-200h-354v-292h-326v292h-355v200h355v106h-355v200h260l-380 625h348l290 -499l289 499h348z" />
    <glyph glyph-name="brokenbar" unicode="&#xa6;" horiz-adv-x="584" 
d="M136 767v782h313v-782h-313zM136 -248v783h313v-783h-313z" />
    <glyph glyph-name="section" unicode="&#xa7;" horiz-adv-x="1278" 
d="M1212 606q0 -169 -134 -282q86 -93 86 -246q0 -190 -141.5 -294.5t-395.5 -104.5q-370 0 -566 234l209 190q59 -76 151.5 -116.5t209.5 -40.5q95 0 149.5 29.5t54.5 84.5q0 20 -8 36.5t-19 28.5t-33.5 22.5t-40.5 16.5t-51.5 13t-54.5 11t-61 10q-468 69 -468 402
q0 86 39.5 154.5t108.5 113.5q-86 91 -86 240q0 178 140 286.5t367 108.5q153 0 283 -49.5t221 -140.5l-187 -196q-53 55 -135 88t-165 33q-91 0 -142 -28.5t-51 -83.5q0 -23 8.5 -41.5t29 -32.5t39.5 -23.5t55 -18t60 -13.5t70 -13q45 -8 71 -13t69.5 -15.5t70.5 -20
t64 -26.5t60.5 -36t49 -46t40 -58.5t24 -73t9.5 -89.5zM416 614q0 -20 8 -37t19 -29t33 -22.5t40 -17t50.5 -13.5t53.5 -10.5t60 -9.5q88 -14 122 -21q95 48 95 125q0 31 -17 53t-54.5 37t-73 23.5t-95.5 18.5q-86 13 -141 26q-46 -18 -73 -50.5t-27 -72.5z" />
    <glyph glyph-name="dieresis" unicode="&#xa8;" horiz-adv-x="614" 
d="M-23 1220v255h286v-255h-286zM390 1220v255h286v-255h-286z" />
    <glyph glyph-name="copyright" unicode="&#xa9;" horiz-adv-x="1948" 
d="M974 -117q-178 0 -337.5 66t-274 179.5t-181.5 272t-67 336.5t67 336.5t181.5 272t274 179.5t337.5 66q179 0 338.5 -66t274 -179.5t181.5 -272t67 -336.5t-67 -336.5t-181.5 -272t-274 -179.5t-338.5 -66zM974 89q175 0 319 82.5t227.5 231.5t83.5 334t-83.5 334
t-227.5 231.5t-319 82.5q-131 0 -247 -48.5t-200 -133.5t-133 -206t-49 -260t49 -260t133 -206t200 -133.5t247 -48.5zM979 269q-196 0 -316 128t-120 337q0 210 119.5 338.5t313.5 128.5q123 0 224.5 -60.5t152.5 -165.5l-187 -105q-38 65 -80.5 93.5t-103.5 28.5
q-93 0 -149 -68.5t-56 -189.5q0 -120 56.5 -187.5t150.5 -67.5q61 0 103.5 31.5t78.5 102.5l189 -103q-61 -116 -158.5 -178.5t-217.5 -62.5z" />
    <glyph glyph-name="ordfeminine" unicode="&#xaa;" horiz-adv-x="754" 
d="M356 1490q336 0 336 -292v-433h-232v64q-54 -84 -188 -84q-99 0 -166.5 61t-67.5 163q0 109 77.5 166.5t232.5 57.5h101v18q0 89 -114 89q-82 0 -139 -57l-124 145q94 102 284 102zM450 1017v32h-79q-106 0 -106 -69q0 -32 21 -51.5t57 -19.5q42 0 74.5 32.5t32.5 75.5z
" />
    <glyph glyph-name="guillemotleft" unicode="&#xab;" horiz-adv-x="1205" 
d="M438 133l-356 440l356 441l192 -167l-222 -274l222 -273zM918 133l-356 440l356 441l191 -167l-222 -274l222 -273z" />
    <glyph glyph-name="logicalnot" unicode="&#xac;" 
d="M150 710h936v-584h-271v337h-665v247z" />
    <glyph glyph-name="uni00AD" unicode="&#xad;" horiz-adv-x="809" 
d="M100 456v261h610v-261h-610z" />
    <glyph glyph-name="registered" unicode="&#xae;" horiz-adv-x="1077" 
d="M539 1512q203 0 346.5 -140.5t143.5 -339.5t-143.5 -339.5t-346.5 -140.5t-347 140.5t-144 339.5q0 130 65.5 240.5t179 175t246.5 64.5zM539 678q145 0 248.5 104t103.5 250t-103.5 250t-248.5 104t-249 -104t-104 -250t103.5 -250t249.5 -104zM759 1117q0 -96 -85 -136
l83 -166h-139l-69 151h-59v-151h-132v455h231q78 0 124 -41t46 -112zM490 1071h83q23 0 37.5 12t14.5 33t-14 32t-38 11h-83v-88z" />
    <glyph glyph-name="macron" unicode="&#xaf;" horiz-adv-x="614" 
d="M9 1253v197h604v-197h-604z" />
    <glyph glyph-name="degree" unicode="&#xb0;" horiz-adv-x="888" 
d="M444 721q-166 0 -281 113t-115 277t115 277.5t281 113.5q167 0 282 -113.5t115 -277.5t-115.5 -277t-281.5 -113zM444 927q72 0 121 53t49 131q0 79 -49 131.5t-121 52.5t-121 -53t-49 -131t49 -131t121 -53z" />
    <glyph glyph-name="plusminus" unicode="&#xb1;" 
d="M475 390v290h-346v260h346v310h279v-310h346v-260h-346v-290h-279zM126 260h978v-260h-978v260z" />
    <glyph glyph-name="two.sups" unicode="&#xb2;" horiz-adv-x="795" 
d="M402 977h343v-209h-693v195l316 283q69 64 94 97t25 72q0 38 -25 61t-67 23q-54 0 -83 -37t-44 -100l-228 56q31 141 126.5 219t240.5 78q146 0 238.5 -81.5t92.5 -215.5q0 -84 -42 -150.5t-141 -154.5z" />
    <glyph glyph-name="three.sups" unicode="&#xb3;" horiz-adv-x="866" 
d="M647 1233q135 -64 135 -209q0 -124 -98.5 -201.5t-259.5 -77.5q-140 0 -242 64t-142 178l213 87q50 -117 162 -117q54 0 84 26.5t30 67.5q0 37 -28.5 60.5t-73.5 23.5h-99v185h70q54 0 84 25t30 67q0 41 -27 66t-70 25q-108 0 -139 -120l-217 57q30 130 126 202t242 72
q150 0 243.5 -79t93.5 -201q0 -140 -117 -201z" />
    <glyph glyph-name="acute" unicode="&#xb4;" horiz-adv-x="614" 
d="M69 1194l167 345h308l-229 -345h-246z" />
    <glyph glyph-name="uni00B5" unicode="&#xb5;" horiz-adv-x="1229" 
d="M794 1085h317v-1085h-317v112q-37 -60 -113 -100.5t-172 -40.5q-30 0 -73 9v-379h-317v1484h317v-651q0 -95 42.5 -141t117.5 -46q91 0 144.5 66t53.5 159v613z" />
    <glyph glyph-name="paragraph" unicode="&#xb6;" horiz-adv-x="1258" 
d="M503 0v668h-25q-170 0 -282.5 112t-112.5 292q0 179 112.5 291t282.5 112h284v-1475h-259zM864 0v1475h258v-1475h-258z" />
    <glyph glyph-name="periodcentered" unicode="&#xb7;" horiz-adv-x="610" 
d="M130 463v349h350v-349h-350z" />
    <glyph glyph-name="cedilla" unicode="&#xb8;" horiz-adv-x="614" 
d="M115 -359l121 372h258l-121 -372h-258z" />
    <glyph glyph-name="one.sups" unicode="&#xb9;" horiz-adv-x="680" 
d="M590 1693v-925h-248v630l-161 -143l-142 151l321 287h230z" />
    <glyph glyph-name="ordmasculine" unicode="&#xba;" horiz-adv-x="822" 
d="M414 745q-166 0 -271 104t-105 270t105 270t271 104t271 -104t105 -270q0 -165 -105.5 -269.5t-270.5 -104.5zM414 950q60 0 94.5 45t34.5 124t-34.5 124.5t-94.5 45.5t-94.5 -45.5t-34.5 -124.5t34.5 -124t94.5 -45z" />
    <glyph glyph-name="guillemotright" unicode="&#xbb;" horiz-adv-x="1205" 
d="M288 133l-192 167l222 273l-222 274l192 167l356 -441zM767 133l-192 167l223 273l-223 274l192 167l356 -441z" />
    <glyph glyph-name="onequarter" unicode="&#xbc;" horiz-adv-x="1957" 
d="M1339 1475h266l-942 -1475h-266zM590 549h-248v630l-161 -143l-142 151l321 287h230v-925zM1936 388v-209h-118v-179h-249v179h-400v203l382 543h267v-537h118zM1397 388h172v257z" />
    <glyph glyph-name="onehalf" unicode="&#xbd;" horiz-adv-x="2028" 
d="M1339 1475h266l-942 -1475h-266zM590 549h-248v630l-161 -143l-142 151l321 287h230v-925zM1635 209h343v-209h-693v195l316 283q69 64 94 97t25 72q0 38 -25 61t-67 23q-54 0 -83 -37t-44 -100l-228 56q31 142 126 219.5t240 77.5q146 0 239 -81.5t93 -215.5
q0 -84 -42 -150.5t-141 -154.5z" />
    <glyph glyph-name="threequarters" unicode="&#xbe;" horiz-adv-x="2088" 
d="M782 808q0 -124 -98.5 -201.5t-259.5 -77.5q-140 0 -242 64t-142 178l213 87q50 -117 162 -117q54 0 84 26.5t30 67.5q0 37 -28.5 60.5t-73.5 23.5h-99v185h70q54 0 84 25t30 67q0 41 -27 66t-70 25q-108 0 -139 -120l-217 57q30 130 126 202t242 72q150 0 243.5 -79
t93.5 -201q0 -140 -117 -201q135 -64 135 -209zM1470 1475h266l-942 -1475h-266zM2066 388v-209h-118v-179h-249v179h-400v203l382 543h267v-537h118zM1527 388h172v257z" />
    <glyph glyph-name="questiondown" unicode="&#xbf;" horiz-adv-x="1174" 
d="M473 770v315h348v-315h-348zM563 -417q-222 0 -356.5 113t-134.5 298q0 119 60 204.5t180 159.5q99 61 140.5 110t41.5 118v67h306v-109q0 -122 -59.5 -203.5t-186.5 -157.5q-80 -49 -117 -91t-37 -93q0 -62 48.5 -97.5t130.5 -35.5q187 0 266 191l273 -128
q-71 -166 -214 -256t-341 -90z" />
    <glyph glyph-name="Agrave" unicode="&#xc0;" horiz-adv-x="1540" 
d="M943 1570h-247l-229 346h309zM1147 0l-99 285h-564l-99 -285h-353l551 1475h373l552 -1475h-361zM582 562h368l-184 525z" />
    <glyph glyph-name="Aacute" unicode="&#xc1;" horiz-adv-x="1540" 
d="M1069 1916l-228 -346h-247l167 346h308zM1147 0l-99 285h-564l-99 -285h-353l551 1475h373l552 -1475h-361zM582 562h368l-184 525z" />
    <glyph glyph-name="Acircumflex" unicode="&#xc2;" horiz-adv-x="1540" 
d="M768 1723l-113 -159h-260l228 329h290l227 -329h-259zM1147 0l-99 285h-564l-99 -285h-353l551 1475h373l552 -1475h-361zM582 562h368l-184 525z" />
    <glyph glyph-name="Atilde" unicode="&#xc3;" horiz-adv-x="1540" 
d="M639 1648q-31 0 -61 -19t-73 -66l-160 159q83 93 148.5 128.5t139.5 35.5q83 0 163 -51q61 -36 99 -36q33 0 63 20t71 65l161 -159q-82 -93 -148 -128.5t-141 -35.5q-77 0 -163 51q-64 36 -99 36zM1147 0l-99 285h-564l-99 -285h-353l551 1475h373l552 -1475h-361z
M582 562h368l-184 525z" />
    <glyph glyph-name="Adieresis" unicode="&#xc4;" horiz-adv-x="1540" 
d="M697 1844v-256h-285v256h285zM1125 1844v-256h-286v256h286zM1147 0l-99 285h-564l-99 -285h-353l551 1475h373l552 -1475h-361zM582 562h368l-184 525z" />
    <glyph glyph-name="Aring" unicode="&#xc5;" horiz-adv-x="1540" 
d="M768 1552q-110 0 -184.5 72.5t-74.5 180.5t74.5 180t184.5 72t184 -72.5t74 -179.5q0 -108 -74 -180.5t-184 -72.5zM768 1896q-37 0 -60 -25t-23 -66q0 -42 23 -67t60 -25q36 0 59.5 25t23.5 67q0 41 -23.5 66t-59.5 25zM1147 0l-99 285h-564l-99 -285h-353l551 1475h373
l552 -1475h-361zM582 562h368l-184 525z" />
    <glyph glyph-name="AE" unicode="&#xc6;" horiz-adv-x="2248" 
d="M1453 297h721v-297h-1055v285h-534l-170 -285h-390l908 1475h1232v-297h-712v-291h641v-284h-641v-306zM755 569h364v612z" />
    <glyph glyph-name="Ccedilla" unicode="&#xc7;" horiz-adv-x="1479" 
d="M1410 361q-84 -164 -214.5 -263t-293.5 -124l-108 -333h-258l108 339q-259 49 -411.5 252t-152.5 505q0 171 51.5 314.5t144 244t225 156.5t291.5 56q202 0 368 -100t248 -273l-272 -148q-67 115 -147.5 165.5t-193.5 50.5q-168 0 -269.5 -127t-101.5 -339t102.5 -339
t270.5 -127q114 0 194 56t145 180z" />
    <glyph glyph-name="Egrave" unicode="&#xc8;" horiz-adv-x="1307" 
d="M620 1570l-229 346h308l167 -346h-246zM136 0v1475h1088v-297h-754v-291h680v-284h-680v-306h763v-297h-1097z" />
    <glyph glyph-name="Eacute" unicode="&#xc9;" horiz-adv-x="1307" 
d="M517 1570l168 346h308l-229 -346h-247zM136 0v1475h1088v-297h-754v-291h680v-284h-680v-306h763v-297h-1097z" />
    <glyph glyph-name="Ecircumflex" unicode="&#xca;" horiz-adv-x="1307" 
d="M692 1723l-113 -159h-260l228 329h291l226 -329h-260zM470 297h763v-297h-1097v1475h1088v-297h-754v-291h680v-284h-680v-306z" />
    <glyph glyph-name="Edieresis" unicode="&#xcb;" horiz-adv-x="1307" 
d="M335 1588v256h287v-256h-287zM763 1588v256h287v-256h-287zM136 0v1475h1088v-297h-754v-291h680v-284h-680v-306h763v-297h-1097z" />
    <glyph glyph-name="Igrave" unicode="&#xcc;" horiz-adv-x="606" 
d="M231 1570l-229 346h309l167 -346h-247zM136 0v1475h335v-1475h-335z" />
    <glyph glyph-name="Iacute" unicode="&#xcd;" horiz-adv-x="606" 
d="M129 1570l167 346h308l-228 -346h-247zM136 0v1475h335v-1475h-335z" />
    <glyph glyph-name="Icircumflex" unicode="&#xce;" horiz-adv-x="606" 
d="M303 1723l-113 -159h-260l228 329h291l226 -329h-259zM136 0v1475h335v-1475h-335z" />
    <glyph glyph-name="Idieresis" unicode="&#xcf;" horiz-adv-x="606" 
d="M-54 1588v256h286v-256h-286zM374 1588v256h286v-256h-286zM136 0v1475h335v-1475h-335z" />
    <glyph glyph-name="Eth" unicode="&#xd0;" horiz-adv-x="1584" 
d="M768 1475q342 0 539 -199t197 -540q0 -340 -197 -538t-539 -198h-579v607h-143v260h143v608h579zM737 297q198 0 310.5 117t112.5 322q0 206 -112.5 324t-310.5 118h-213v-311h299v-260h-299v-310h213z" />
    <glyph glyph-name="Ntilde" unicode="&#xd1;" horiz-adv-x="1536" 
d="M646 1648q-31 0 -61.5 -19t-72.5 -66l-161 159q83 93 149 128.5t140 35.5q83 0 163 -51q61 -36 99 -36q33 0 63 20t71 65l161 -159q-83 -93 -149 -128.5t-140 -35.5q-76 0 -164 51q-63 36 -98 36zM1066 1475h334v-1475h-384l-545 955v-955h-335v1475h381l549 -962v962z
" />
    <glyph glyph-name="Ograve" unicode="&#xd2;" horiz-adv-x="1614" 
d="M735 1570l-229 345h309l167 -345h-247zM808 -33q-219 0 -384 95.5t-254.5 270t-89.5 404.5t89.5 404.5t254.5 270t384 95.5q330 0 529.5 -211t199.5 -559t-199.5 -559t-529.5 -211zM808 272q176 0 280.5 125.5t104.5 339.5t-104.5 339.5t-280.5 125.5t-280 -125
t-104 -340t104 -340t280 -125z" />
    <glyph glyph-name="Oacute" unicode="&#xd3;" horiz-adv-x="1614" 
d="M633 1570l167 345h309l-229 -345h-247zM808 -33q-219 0 -384 95.5t-254.5 270t-89.5 404.5t89.5 404.5t254.5 270t384 95.5q330 0 529.5 -211t199.5 -559t-199.5 -559t-529.5 -211zM808 272q176 0 280.5 125.5t104.5 339.5t-104.5 339.5t-280.5 125.5t-280 -125
t-104 -340t104 -340t280 -125z" />
    <glyph glyph-name="Ocircumflex" unicode="&#xd4;" horiz-adv-x="1614" 
d="M807 1722l-113 -159h-259l227 330h291l226 -330h-259zM808 1507q330 0 529.5 -211t199.5 -559t-199.5 -559t-529.5 -211q-219 0 -384 95.5t-254.5 270t-89.5 404.5t89.5 404.5t254.5 270t384 95.5zM808 272q176 0 280.5 125.5t104.5 339.5t-104.5 339.5t-280.5 125.5
t-280 -125t-104 -340t104 -340t280 -125z" />
    <glyph glyph-name="Otilde" unicode="&#xd5;" horiz-adv-x="1614" 
d="M940 1561q-79 0 -163 50q-63 36 -99 36q-31 0 -61 -19t-72 -65l-161 158q83 93 149 128.5t139 35.5q83 0 164 -50q59 -36 98 -36q33 0 62.5 19.5t72.5 64.5l160 -159q-82 -93 -148 -128t-141 -35zM808 -33q-219 0 -384 95.5t-254.5 270t-89.5 404.5t89.5 404.5t254.5 270
t384 95.5q330 0 529.5 -211t199.5 -559t-199.5 -559t-529.5 -211zM808 272q176 0 280.5 125.5t104.5 339.5t-104.5 339.5t-280.5 125.5t-280 -125t-104 -340t104 -340t280 -125z" />
    <glyph glyph-name="Odieresis" unicode="&#xd6;" horiz-adv-x="1614" 
d="M451 1587v257h286v-257h-286zM878 1587v257h286v-257h-286zM808 -33q-219 0 -384 95.5t-254.5 270t-89.5 404.5t89.5 404.5t254.5 270t384 95.5q330 0 529.5 -211t199.5 -559t-199.5 -559t-529.5 -211zM808 272q176 0 280.5 125.5t104.5 339.5t-104.5 339.5t-280.5 125.5
t-280 -125t-104 -340t104 -340t280 -125z" />
    <glyph glyph-name="multiply" unicode="&#xd7;" 
d="M1081 861l-282 -281l282 -283l-184 -184l-283 282l-282 -282l-185 184l283 283l-283 281l185 185l282 -283l283 283z" />
    <glyph glyph-name="Oslash" unicode="&#xd8;" horiz-adv-x="1615" 
d="M1374 1253q162 -204 162 -516q0 -349 -199 -560t-529 -211q-209 0 -370 88l-150 -193l-204 167l155 196q-159 204 -159 513q0 230 89.5 405t254.5 270.5t384 95.5q203 0 364 -85l140 180l205 -167zM808 1203q-176 0 -280 -125.5t-104 -340.5q0 -147 50 -255l523 672
q-81 49 -189 49zM808 271q175 0 279 125.5t104 340.5q0 148 -51 258l-526 -672q83 -52 194 -52z" />
    <glyph glyph-name="Ugrave" unicode="&#xd9;" horiz-adv-x="1499" 
d="M678 1570l-229 346h309l167 -346h-247zM741 -33q-307 0 -468 164t-161 438v906h334v-884q0 -146 72.5 -232.5t222.5 -86.5q151 0 223.5 86.5t72.5 232.5v884h335v-906q0 -133 -39.5 -242.5t-116.5 -190t-198 -125t-277 -44.5z" />
    <glyph glyph-name="Uacute" unicode="&#xda;" horiz-adv-x="1499" 
d="M575 1570l167 346h310l-230 -346h-247zM741 -33q-307 0 -468 164t-161 438v906h334v-884q0 -146 72.5 -232.5t222.5 -86.5q151 0 223.5 86.5t72.5 232.5v884h335v-906q0 -133 -39.5 -242.5t-116.5 -190t-198 -125t-277 -44.5z" />
    <glyph glyph-name="Ucircumflex" unicode="&#xdb;" horiz-adv-x="1499" 
d="M750 1723l-113 -159h-259l226 329h291l226 -329h-259zM1037 1475h335v-906q0 -133 -39.5 -242.5t-116.5 -190t-198 -125t-277 -44.5q-307 0 -468 164t-161 438v906h334v-884q0 -146 72.5 -232.5t222.5 -86.5q151 0 223.5 86.5t72.5 232.5v884z" />
    <glyph glyph-name="Udieresis" unicode="&#xdc;" horiz-adv-x="1499" 
d="M393 1588v256h287v-256h-287zM820 1588v256h287v-256h-287zM741 -33q-307 0 -468 164t-161 438v906h334v-884q0 -146 72.5 -232.5t222.5 -86.5q151 0 223.5 86.5t72.5 232.5v884h335v-906q0 -133 -39.5 -242.5t-116.5 -190t-198 -125t-277 -44.5z" />
    <glyph glyph-name="Yacute" unicode="&#xdd;" horiz-adv-x="1361" 
d="M983 1916l-229 -346h-247l167 346h309zM984 1475h359l-493 -887v-588h-335v588l-496 887h361l302 -586z" />
    <glyph glyph-name="Thorn" unicode="&#xde;" horiz-adv-x="1356" 
d="M831 1236q235 0 366 -128t131 -352q0 -219 -131.5 -347.5t-365.5 -128.5h-360v-280h-335v1475h335v-239h360zM792 570q94 0 145.5 51t51.5 135t-51 134t-146 50h-321v-370h321z" />
    <glyph glyph-name="germandbls" unicode="&#xdf;" horiz-adv-x="1262" 
d="M934 782q126 -42 196.5 -140.5t70.5 -233.5q0 -206 -122 -322t-338 -116q-96 0 -211 23l36 259q75 -18 144 -18q80 0 126 52.5t46 145.5q0 96 -50 152t-137 56h-121v260h86q65 0 102.5 42.5t37.5 115.5q0 82 -47.5 128.5t-130.5 46.5q-89 0 -141 -54.5t-52 -144.5v-1034
h-317v1070q0 198 143.5 315.5t366.5 117.5q218 0 356.5 -112.5t138.5 -291.5q0 -104 -48.5 -188t-134.5 -129z" />
    <glyph glyph-name="agrave" unicode="&#xe0;" horiz-adv-x="1152" 
d="M749 1194h-247l-229 345h309zM557 1110q232 0 357.5 -111.5t125.5 -331.5v-667h-311v120q-38 -69 -114 -109t-186 -40q-154 0 -258.5 92.5t-104.5 248.5q0 344 499 344h156v13q0 90 -49.5 134.5t-139.5 44.5q-138 0 -234 -111l-185 189q73 88 188 136t256 48zM723 399v54
h-127q-227 0 -227 -128q0 -61 39 -93.5t107 -32.5q88 0 148 62.5t60 137.5z" />
    <glyph glyph-name="aacute" unicode="&#xe1;" horiz-adv-x="1152" 
d="M873 1539l-229 -345h-247l167 345h309zM557 1110q232 0 357.5 -111.5t125.5 -331.5v-667h-311v120q-38 -69 -114 -109t-186 -40q-154 0 -258.5 92.5t-104.5 248.5q0 344 499 344h156v13q0 90 -49.5 134.5t-139.5 44.5q-138 0 -234 -111l-185 189q73 88 188 136t256 48z
M723 399v54h-127q-227 0 -227 -128q0 -61 39 -93.5t107 -32.5q88 0 148 62.5t60 137.5z" />
    <glyph glyph-name="acircumflex" unicode="&#xe2;" horiz-adv-x="1152" 
d="M572 1352l-112 -160h-259l226 330h292l226 -330h-260zM557 1110q232 0 357.5 -111.5t125.5 -331.5v-667h-311v120q-38 -69 -114 -109t-186 -40q-154 0 -258.5 92.5t-104.5 248.5q0 344 499 344h156v13q0 90 -49.5 134.5t-139.5 44.5q-138 0 -234 -111l-185 189
q73 88 188 136t256 48zM723 399v54h-127q-227 0 -227 -128q0 -61 39 -93.5t107 -32.5q88 0 148 62.5t60 137.5z" />
    <glyph glyph-name="atilde" unicode="&#xe3;" horiz-adv-x="1152" 
d="M441 1294q-31 0 -61 -19t-72 -66l-161 160q83 93 149 128.5t139 35.5q83 0 164 -50q57 -37 98 -37q33 0 63.5 20t72.5 65l160 -159q-83 -93 -148.5 -128.5t-139.5 -35.5q-80 0 -164 50q-63 36 -100 36zM557 1110q232 0 357.5 -111.5t125.5 -331.5v-667h-311v120
q-38 -69 -114 -109t-186 -40q-154 0 -258.5 92.5t-104.5 248.5q0 344 499 344h156v13q0 90 -49.5 134.5t-139.5 44.5q-138 0 -234 -111l-185 189q73 88 188 136t256 48zM723 399v54h-127q-227 0 -227 -128q0 -61 39 -93.5t107 -32.5q88 0 148 62.5t60 137.5z" />
    <glyph glyph-name="adieresis" unicode="&#xe4;" horiz-adv-x="1152" 
d="M510 1475v-255h-286v255h286zM922 1475v-255h-285v255h285zM557 1110q232 0 357.5 -111.5t125.5 -331.5v-667h-311v120q-38 -69 -114 -109t-186 -40q-154 0 -258.5 92.5t-104.5 248.5q0 344 499 344h156v13q0 90 -49.5 134.5t-139.5 44.5q-138 0 -234 -111l-185 189
q73 88 188 136t256 48zM723 399v54h-127q-227 0 -227 -128q0 -61 39 -93.5t107 -32.5q88 0 148 62.5t60 137.5z" />
    <glyph glyph-name="aring" unicode="&#xe5;" horiz-adv-x="1152" 
d="M573 1176q-111 0 -185 72t-74 180t74.5 180t184.5 72t184 -72.5t74 -179.5q0 -108 -74 -180t-184 -72zM573 1520q-38 0 -61 -25.5t-23 -66.5t23 -66t61 -25q37 0 59.5 25t22.5 66t-22.5 66.5t-59.5 25.5zM557 1110q232 0 357.5 -111.5t125.5 -331.5v-667h-311v120
q-38 -69 -114 -109t-186 -40q-154 0 -258.5 92.5t-104.5 248.5q0 344 499 344h156v13q0 90 -49.5 134.5t-139.5 44.5q-138 0 -234 -111l-185 189q73 88 188 136t256 48zM723 399v54h-127q-227 0 -227 -128q0 -61 39 -93.5t107 -32.5q88 0 148 62.5t60 137.5z" />
    <glyph glyph-name="ae" unicode="&#xe6;" horiz-adv-x="1795" 
d="M1736 501v-57h-695q36 -220 228 -220q67 0 119 26t106 93l210 -161q-165 -211 -439 -211q-254 0 -391 175q-147 -175 -409 -175q-75 0 -145 21t-127.5 61.5t-92 108t-34.5 153.5q0 172 123 249.5t358 77.5h160q3 107 -44 156t-141 49q-137 0 -221 -105l-181 188
q153 180 425 180q233 0 348 -149q130 152 342 152q229 0 365 -165.5t136 -446.5zM1037 642h375q-12 101 -63 156t-120 55q-71 0 -123 -52.5t-69 -158.5zM711 387v57h-146q-197 0 -197 -122q0 -61 40 -94t110 -33q85 0 139 60t54 132z" />
    <glyph glyph-name="ccedilla" unicode="&#xe7;" horiz-adv-x="1144" 
d="M1100 274q-125 -245 -350 -291l-111 -342h-259l110 342q-196 39 -312 187.5t-116 369.5q0 259 151.5 415.5t401.5 156.5q67 0 129 -13t127.5 -43t124.5 -88.5t102 -141.5l-264 -128q-40 75 -91 108.5t-120 33.5q-112 0 -174.5 -81.5t-62.5 -216.5q0 -138 64.5 -218.5
t172.5 -80.5q71 0 121 35t90 117z" />
    <glyph glyph-name="egrave" unicode="&#xe8;" horiz-adv-x="1198" 
d="M781 1194h-246l-230 345h309zM389 447q37 -223 250 -223q151 0 247 120l213 -162q-167 -211 -474 -211q-250 0 -406.5 154t-156.5 405q0 262 150 422.5t390 160.5q241 0 388 -165t147 -428v-73h-748zM601 860q-79 0 -134 -53.5t-75 -155.5h419q-19 100 -74.5 154.5
t-135.5 54.5z" />
    <glyph glyph-name="eacute" unicode="&#xe9;" horiz-adv-x="1198" 
d="M905 1539l-228 -345h-247l167 345h308zM389 447q37 -223 250 -223q151 0 247 120l213 -162q-167 -211 -474 -211q-250 0 -406.5 154t-156.5 405q0 262 150 422.5t390 160.5q241 0 388 -165t147 -428v-73h-748zM601 860q-79 0 -134 -53.5t-75 -155.5h419
q-19 100 -74.5 154.5t-135.5 54.5z" />
    <glyph glyph-name="ecircumflex" unicode="&#xea;" horiz-adv-x="1198" 
d="M605 1352l-112 -160h-260l227 330h291l226 -330h-259zM389 447q37 -223 250 -223q151 0 247 120l213 -162q-167 -211 -474 -211q-250 0 -406.5 154t-156.5 405q0 262 150 422.5t390 160.5q241 0 388 -165t147 -428v-73h-748zM601 860q-79 0 -134 -53.5t-75 -155.5h419
q-19 100 -74.5 154.5t-135.5 54.5z" />
    <glyph glyph-name="edieresis" unicode="&#xeb;" horiz-adv-x="1198" 
d="M542 1475v-255h-285v255h285zM954 1475v-255h-285v255h285zM389 447q37 -223 250 -223q151 0 247 120l213 -162q-167 -211 -474 -211q-250 0 -406.5 154t-156.5 405q0 262 150 422.5t390 160.5q241 0 388 -165t147 -428v-73h-748zM601 860q-79 0 -134 -53.5t-75 -155.5
h419q-19 100 -74.5 154.5t-135.5 54.5z" />
    <glyph glyph-name="igrave" unicode="&#xec;" horiz-adv-x="555" 
d="M207 1194l-230 345h310l167 -345h-247zM119 0v1085h317v-1085h-317z" />
    <glyph glyph-name="iacute" unicode="&#xed;" horiz-adv-x="555" 
d="M102 1194l167 345h309l-230 -345h-246zM119 0v1085h317v-1085h-317z" />
    <glyph glyph-name="icircumflex" unicode="&#xee;" horiz-adv-x="555" 
d="M278 1352l-113 -160h-260l227 330h291l226 -330h-259zM119 0v1085h317v-1085h-317z" />
    <glyph glyph-name="idieresis" unicode="&#xef;" horiz-adv-x="555" 
d="M-43 1220v255h264v-255h-264zM335 1220v255h263v-255h-263zM119 0v1085h317v-1085h-317z" />
    <glyph glyph-name="eth" unicode="&#xf0;" horiz-adv-x="1219" 
d="M868 1282q289 -312 289 -745q0 -263 -145.5 -414.5t-400.5 -151.5q-246 0 -397.5 145.5t-151.5 381.5q0 123 41.5 224.5t111.5 166.5t160 100.5t189 35.5q119 0 204 -60q-56 104 -146 193l-213 -106l-67 128l159 78q-47 34 -116 71l144 212q119 -65 228 -155l205 103
l66 -127zM611 236q101 0 163.5 71.5t62.5 190.5t-62.5 191t-163.5 72q-102 0 -163.5 -71.5t-61.5 -191.5t61.5 -191t163.5 -71z" />
    <glyph glyph-name="ntilde" unicode="&#xf1;" horiz-adv-x="1224" 
d="M479 1294q-31 0 -61 -19t-72 -66l-161 160q83 93 148.5 128.5t139.5 35.5q83 0 164 -50q55 -37 98 -37q33 0 63 20t71 65l161 -159q-82 -93 -148 -128.5t-141 -35.5q-78 0 -162 50q-64 36 -100 36zM751 1113q74 0 138 -23.5t114.5 -69t79.5 -120t29 -169.5v-731h-317v656
q0 95 -42.5 141.5t-118.5 46.5q-91 0 -144.5 -66t-53.5 -158v-620h-317v1085h311v-126q35 63 116.5 108.5t204.5 45.5z" />
    <glyph glyph-name="ograve" unicode="&#xf2;" horiz-adv-x="1243" 
d="M551 1194l-229 345h309l167 -345h-247zM622 -29q-118 0 -220.5 40t-177.5 112.5t-118.5 181t-43.5 238.5q0 173 74.5 304t201 199t284.5 68t284.5 -68t200.5 -199t74 -304q0 -130 -43 -238.5t-118 -181t-177.5 -112.5t-220.5 -40zM622 244q108 0 171.5 80t63.5 219
q0 138 -63.5 218.5t-171.5 80.5t-172 -80.5t-64 -218.5q0 -139 63.5 -219t172.5 -80z" />
    <glyph glyph-name="oacute" unicode="&#xf3;" horiz-adv-x="1243" 
d="M445 1194l167 345h310l-230 -345h-247zM622 -29q-118 0 -220.5 40t-177.5 112.5t-118.5 181t-43.5 238.5q0 173 74.5 304t201 199t284.5 68t284.5 -68t200.5 -199t74 -304q0 -130 -43 -238.5t-118 -181t-177.5 -112.5t-220.5 -40zM622 244q108 0 171.5 80t63.5 219
q0 138 -63.5 218.5t-171.5 80.5t-172 -80.5t-64 -218.5q0 -139 63.5 -219t172.5 -80z" />
    <glyph glyph-name="ocircumflex" unicode="&#xf4;" horiz-adv-x="1243" 
d="M622 1352l-114 -160h-259l227 330h291l226 -330h-259zM622 1114q158 0 284.5 -68t200.5 -199t74 -304q0 -130 -43 -238.5t-118 -181t-177.5 -112.5t-220.5 -40t-220.5 40t-177.5 112.5t-118.5 181t-43.5 238.5q0 173 74.5 304t201 199t284.5 68zM622 244q108 0 171.5 80
t63.5 219q0 138 -63.5 218.5t-171.5 80.5t-172 -80.5t-64 -218.5q0 -139 63.5 -219t172.5 -80z" />
    <glyph glyph-name="otilde" unicode="&#xf5;" horiz-adv-x="1243" 
d="M753 1208q-78 0 -164 50q-63 36 -99 36q-31 0 -61 -19t-73 -66l-159 160q83 93 148.5 128.5t138.5 35.5q84 0 163 -50q57 -37 99 -37q33 0 63.5 20.5t71.5 64.5l160 -159q-83 -93 -148.5 -128.5t-139.5 -35.5zM622 -29q-118 0 -220.5 40t-177.5 112.5t-118.5 181
t-43.5 238.5q0 173 74.5 304t201 199t284.5 68t284.5 -68t200.5 -199t74 -304q0 -130 -43 -238.5t-118 -181t-177.5 -112.5t-220.5 -40zM622 244q108 0 171.5 80t63.5 219q0 138 -63.5 218.5t-171.5 80.5t-172 -80.5t-64 -218.5q0 -139 63.5 -219t172.5 -80z" />
    <glyph glyph-name="odieresis" unicode="&#xf6;" horiz-adv-x="1243" 
d="M272 1220v255h286v-255h-286zM685 1220v255h286v-255h-286zM622 -29q-118 0 -220.5 40t-177.5 112.5t-118.5 181t-43.5 238.5q0 173 74.5 304t201 199t284.5 68t284.5 -68t200.5 -199t74 -304q0 -130 -43 -238.5t-118 -181t-177.5 -112.5t-220.5 -40zM622 244
q108 0 171.5 80t63.5 219q0 138 -63.5 218.5t-171.5 80.5t-172 -80.5t-64 -218.5q0 -139 63.5 -219t172.5 -80z" />
    <glyph glyph-name="divide" unicode="&#xf7;" 
d="M467 835v250h290v-250h-290zM126 456v261h978v-261h-978zM467 87v251h290v-251h-290z" />
    <glyph glyph-name="oslash" unicode="&#xf8;" horiz-adv-x="1243" 
d="M1057 922q125 -150 125 -379q0 -130 -43 -238.5t-118 -181t-177.5 -112.5t-220.5 -40q-142 0 -264 58l-118 -152l-166 133l115 150q-128 154 -128 383q0 173 74.5 304t201 199t285.5 68q146 0 266 -59l112 144l168 -133zM623 842q-109 0 -172.5 -80t-63.5 -219
q0 -79 22 -143l323 415q-51 27 -109 27zM623 244q108 0 171.5 80t63.5 219q0 76 -20 138l-322 -413q46 -24 107 -24z" />
    <glyph glyph-name="ugrave" unicode="&#xf9;" horiz-adv-x="1222" 
d="M777 1194h-247l-228 345h308zM786 1085h318v-1085h-310v127q-34 -64 -116 -110t-206 -46q-73 0 -137 23.5t-114 69t-79.5 120t-29.5 169.5v732h317v-658q0 -95 42.5 -140.5t117.5 -45.5q91 0 144 66t53 159v619z" />
    <glyph glyph-name="uacute" unicode="&#xfa;" horiz-adv-x="1222" 
d="M902 1539l-229 -345h-247l167 345h309zM786 1085h318v-1085h-310v127q-34 -64 -116 -110t-206 -46q-73 0 -137 23.5t-114 69t-79.5 120t-29.5 169.5v732h317v-658q0 -95 42.5 -140.5t117.5 -45.5q91 0 144 66t53 159v619z" />
    <glyph glyph-name="ucircumflex" unicode="&#xfb;" horiz-adv-x="1222" 
d="M601 1352l-113 -160h-259l227 330h292l225 -330h-259zM786 1085h318v-1085h-310v127q-34 -64 -116 -110t-206 -46q-73 0 -137 23.5t-114 69t-79.5 120t-29.5 169.5v732h317v-658q0 -95 42.5 -140.5t117.5 -45.5q91 0 144 66t53 159v619z" />
    <glyph glyph-name="udieresis" unicode="&#xfc;" horiz-adv-x="1222" 
d="M539 1475v-255h-286v255h286zM950 1475v-255h-284v255h284zM786 1085h318v-1085h-310v127q-34 -64 -116 -110t-206 -46q-73 0 -137 23.5t-114 69t-79.5 120t-29.5 169.5v732h317v-658q0 -95 42.5 -140.5t117.5 -45.5q91 0 144 66t53 159v619z" />
    <glyph glyph-name="yacute" unicode="&#xfd;" horiz-adv-x="1184" 
d="M896 1539l-229 -345h-247l167 345h309zM824 1085h344l-466 -1200q-25 -66 -56.5 -114.5t-65 -78.5t-74 -48t-80.5 -24.5t-89 -6.5q-127 0 -233 33l76 245q71 -19 110 -19q45 0 72.5 15.5t43.5 57.5l39 105l-430 1035h344l239 -674z" />
    <glyph glyph-name="thorn" unicode="&#xfe;" horiz-adv-x="1271" 
d="M746 1113q203 0 333 -158t130 -412q0 -255 -130 -413.5t-333 -158.5q-102 0 -182 42.5t-128 108.5v-480h-317v1833h317v-506q47 62 128 103t182 41zM659 250q102 0 164.5 77.5t62.5 215.5q0 137 -62.5 214.5t-164.5 77.5q-103 0 -167.5 -79t-64.5 -213q0 -135 64 -214
t168 -79z" />
    <glyph glyph-name="ydieresis" unicode="&#xff;" horiz-adv-x="1184" 
d="M532 1475v-255h-285v255h285zM944 1475v-255h-285v255h285zM824 1085h344l-466 -1200q-25 -66 -56.5 -114.5t-65 -78.5t-74 -48t-80.5 -24.5t-89 -6.5q-127 0 -233 33l76 245q71 -19 110 -19q45 0 72.5 15.5t43.5 57.5l39 105l-430 1035h344l239 -674z" />
    <glyph glyph-name="Amacron" unicode="&#x100;" horiz-adv-x="1540" 
d="M1070 1819v-197h-604v197h604zM1147 0l-99 285h-564l-99 -285h-353l551 1475h373l552 -1475h-361zM582 562h368l-184 525z" />
    <glyph glyph-name="amacron" unicode="&#x101;" horiz-adv-x="1152" 
d="M874 1450v-197h-604v197h604zM557 1110q232 0 357.5 -111.5t125.5 -331.5v-667h-311v120q-38 -69 -114 -109t-186 -40q-154 0 -258.5 92.5t-104.5 248.5q0 344 499 344h156v13q0 90 -49.5 134.5t-139.5 44.5q-138 0 -234 -111l-185 189q73 88 188 136t256 48zM723 399v54
h-127q-227 0 -227 -128q0 -61 39 -93.5t107 -32.5q88 0 148 62.5t60 137.5z" />
    <glyph glyph-name="Abreve" unicode="&#x102;" horiz-adv-x="1540" 
d="M768 1552q-153 0 -251.5 93.5t-107.5 247.5h217q8 -68 47.5 -109.5t94.5 -41.5t94.5 41.5t48.5 109.5h217q-9 -154 -108 -247.5t-252 -93.5zM1147 0l-99 285h-564l-99 -285h-353l551 1475h373l552 -1475h-361zM582 562h368l-184 525z" />
    <glyph glyph-name="abreve" unicode="&#x103;" horiz-adv-x="1152" 
d="M573 1181q-153 0 -252 93.5t-108 247.5h217q9 -68 48.5 -110t94.5 -42t95 42t48 110h217q-9 -154 -108 -247.5t-252 -93.5zM557 1110q232 0 357.5 -111.5t125.5 -331.5v-667h-311v120q-38 -69 -114 -109t-186 -40q-154 0 -258.5 92.5t-104.5 248.5q0 344 499 344h156v13
q0 90 -49.5 134.5t-139.5 44.5q-138 0 -234 -111l-185 189q73 88 188 136t256 48zM723 399v54h-127q-227 0 -227 -128q0 -61 39 -93.5t107 -32.5q88 0 148 62.5t60 137.5z" />
    <glyph glyph-name="Aogonek" unicode="&#x104;" horiz-adv-x="1540" 
d="M1439 -191l71 -182q-85 -55 -201 -55q-127 0 -205 61.5t-78 161.5q0 119 129 205h-8l-99 285h-564l-99 -285h-353l551 1475h373l552 -1475h-145q-117 -73 -117 -145q0 -35 25.5 -56t66.5 -21q47 0 101 31zM582 562h368l-184 525z" />
    <glyph glyph-name="aogonek" unicode="&#x105;" horiz-adv-x="1152" 
d="M986 -191l73 -182q-87 -55 -202 -55q-128 0 -206 61.5t-78 161.5q0 131 156 221v104q-38 -69 -114 -109t-186 -40q-154 0 -258.5 92.5t-104.5 248.5q0 344 499 344h156v13q0 90 -49.5 134.5t-139.5 44.5q-138 0 -234 -111l-185 189q73 88 188 136t256 48
q232 0 357.5 -111.5t125.5 -331.5v-667h-130q-116 -72 -116 -145q0 -35 25.5 -56t67.5 -21q45 0 99 31zM723 399v54h-127q-227 0 -227 -128q0 -61 39 -93.5t107 -32.5q88 0 148 62.5t60 137.5z" />
    <glyph glyph-name="Cacute" unicode="&#x106;" horiz-adv-x="1479" 
d="M616 1570l167 346h310l-230 -346h-247zM794 -34q-212 0 -374.5 96.5t-251 271.5t-88.5 403q0 171 51.5 314.5t144 244t225 156.5t291.5 56q202 0 368 -100t248 -273l-272 -148q-67 115 -147.5 165.5t-193.5 50.5q-168 0 -269.5 -127t-101.5 -339t102.5 -339t270.5 -127
q114 0 194 56t145 180l274 -146q-97 -190 -256.5 -292.5t-359.5 -102.5z" />
    <glyph glyph-name="cacute" unicode="&#x107;" horiz-adv-x="1144" 
d="M439 1194l167 345h309l-229 -345h-247zM616 -29q-248 0 -401 156.5t-153 412.5q0 259 151.5 415.5t401.5 156.5q67 0 129 -13t127.5 -43t124.5 -88.5t102 -141.5l-264 -128q-40 75 -91 108.5t-120 33.5q-112 0 -174.5 -81.5t-62.5 -216.5q0 -138 64.5 -218.5t172.5 -80.5
q71 0 121 35t90 117l266 -121q-46 -91 -102 -152.5t-120 -93.5t-125.5 -44.5t-136.5 -12.5z" />
    <glyph glyph-name="Ccircumflex" unicode="&#x108;" horiz-adv-x="1479" 
d="M791 1723l-113 -159h-260l227 329h291l226 -329h-259zM1136 507l274 -146q-97 -190 -256.5 -292.5t-359.5 -102.5q-212 0 -374.5 96.5t-251 271.5t-88.5 403q0 171 51.5 314.5t144 244t225 156.5t291.5 56q202 0 368 -100t248 -273l-272 -148q-67 115 -147.5 165.5
t-193.5 50.5q-168 0 -269.5 -127t-101.5 -339t102.5 -339t270.5 -127q114 0 194 56t145 180z" />
    <glyph glyph-name="ccircumflex" unicode="&#x109;" horiz-adv-x="1144" 
d="M615 1352l-113 -160h-259l227 330h291l226 -330h-260zM834 395l266 -121q-46 -91 -102 -152.5t-120 -93.5t-125.5 -44.5t-136.5 -12.5q-248 0 -401 156.5t-153 412.5q0 259 151.5 415.5t401.5 156.5q67 0 129 -13t127.5 -43t124.5 -88.5t102 -141.5l-264 -128
q-40 75 -91 108.5t-120 33.5q-112 0 -174.5 -81.5t-62.5 -216.5q0 -138 64.5 -218.5t172.5 -80.5q71 0 121 35t90 117z" />
    <glyph glyph-name="Cdotaccent" unicode="&#x10a;" horiz-adv-x="1479" 
d="M626 1586v258h329v-258h-329zM794 -34q-212 0 -374.5 96.5t-251 271.5t-88.5 403q0 171 51.5 314.5t144 244t225 156.5t291.5 56q202 0 368 -100t248 -273l-272 -148q-67 115 -147.5 165.5t-193.5 50.5q-168 0 -269.5 -127t-101.5 -339t102.5 -339t270.5 -127
q114 0 194 56t145 180l274 -146q-97 -190 -256.5 -292.5t-359.5 -102.5z" />
    <glyph glyph-name="cdotaccent" unicode="&#x10b;" horiz-adv-x="1144" 
d="M451 1215v260h329v-260h-329zM616 -29q-248 0 -401 156.5t-153 412.5q0 259 151.5 415.5t401.5 156.5q67 0 129 -13t127.5 -43t124.5 -88.5t102 -141.5l-264 -128q-40 75 -91 108.5t-120 33.5q-112 0 -174.5 -81.5t-62.5 -216.5q0 -138 64.5 -218.5t172.5 -80.5
q71 0 121 35t90 117l266 -121q-46 -91 -102 -152.5t-120 -93.5t-125.5 -44.5t-136.5 -12.5z" />
    <glyph glyph-name="Ccaron" unicode="&#x10c;" horiz-adv-x="1479" 
d="M935 1564h-292l-226 329h259l112 -159l113 159h259zM1136 507l274 -146q-97 -190 -256.5 -292.5t-359.5 -102.5q-212 0 -374.5 96.5t-251 271.5t-88.5 403q0 171 51.5 314.5t144 244t225 156.5t291.5 56q202 0 368 -100t248 -273l-272 -148q-67 115 -147.5 165.5
t-193.5 50.5q-168 0 -269.5 -127t-101.5 -339t102.5 -339t270.5 -127q114 0 194 56t145 180z" />
    <glyph glyph-name="ccaron" unicode="&#x10d;" horiz-adv-x="1144" 
d="M759 1192h-291l-227 330h259l113 -160l113 160h259zM834 395l266 -121q-46 -91 -102 -152.5t-120 -93.5t-125.5 -44.5t-136.5 -12.5q-248 0 -401 156.5t-153 412.5q0 259 151.5 415.5t401.5 156.5q67 0 129 -13t127.5 -43t124.5 -88.5t102 -141.5l-264 -128
q-40 75 -91 108.5t-120 33.5q-112 0 -174.5 -81.5t-62.5 -216.5q0 -138 64.5 -218.5t172.5 -80.5q71 0 121 35t90 117z" />
    <glyph glyph-name="Dcaron" unicode="&#x10e;" horiz-adv-x="1529" 
d="M830 1564h-291l-227 329h259l113 -159l113 159h259zM715 1475q342 0 539 -199t197 -540q0 -340 -197 -538t-539 -198h-579v1475h579zM684 297q198 0 310.5 117t112.5 322q0 206 -112.5 324t-310.5 118h-214v-881h214z" />
    <glyph glyph-name="dcaron" unicode="&#x10f;" horiz-adv-x="1466" 
d="M838 964v511h317v-1475h-311v124q-46 -65 -129.5 -109t-187.5 -44q-203 0 -334 158.5t-131 413.5q0 253 131 412t334 159q103 0 183 -42.5t128 -107.5zM1257 1475h285l-61 -482h-224v482zM614 243q103 0 168 80.5t65 219.5t-65 219.5t-168 80.5q-102 0 -165 -80t-63 -220
q0 -141 62.5 -220.5t165.5 -79.5z" />
    <glyph glyph-name="Dcroat" unicode="&#x110;" horiz-adv-x="1584" 
d="M768 1475q342 0 539 -199t197 -540q0 -340 -197 -538t-539 -198h-579v607h-143v260h143v608h579zM737 297q198 0 310.5 117t112.5 322q0 206 -112.5 324t-310.5 118h-213v-311h299v-260h-299v-310h213z" />
    <glyph glyph-name="dcroat" unicode="&#x111;" horiz-adv-x="1284" 
d="M1268 1359v-172h-113v-1187h-310v124q-46 -65 -129.5 -109t-188.5 -44q-203 0 -334 158.5t-131 412.5q0 255 131 413.5t334 158.5q103 0 183 -42.5t128 -107.5v223h-224v172h224v116h317v-116h113zM614 243q103 0 168.5 80.5t65.5 218.5q0 140 -65 220.5t-169 80.5
q-102 0 -165 -80t-63 -221q0 -140 63 -219.5t165 -79.5z" />
    <glyph glyph-name="Emacron" unicode="&#x112;" horiz-adv-x="1307" 
d="M389 1622v197h605v-197h-605zM136 0v1475h1088v-297h-754v-291h680v-284h-680v-306h763v-297h-1097z" />
    <glyph glyph-name="emacron" unicode="&#x113;" horiz-adv-x="1198" 
d="M907 1450v-197h-604v197h604zM389 447q37 -223 250 -223q151 0 247 120l213 -162q-167 -211 -474 -211q-250 0 -406.5 154t-156.5 405q0 262 150 422.5t390 160.5q241 0 388 -165t147 -428v-73h-748zM601 860q-79 0 -134 -53.5t-75 -155.5h419q-19 100 -74.5 154.5
t-135.5 54.5z" />
    <glyph glyph-name="Ebreve" unicode="&#x114;" horiz-adv-x="1307" 
d="M692 1552q-153 0 -251.5 93.5t-108.5 247.5h218q8 -68 47.5 -109.5t94.5 -41.5q56 0 95.5 42t47.5 109h217q-9 -154 -108 -247.5t-252 -93.5zM136 0v1475h1088v-297h-754v-291h680v-284h-680v-306h763v-297h-1097z" />
    <glyph glyph-name="ebreve" unicode="&#x115;" horiz-adv-x="1198" 
d="M605 1181q-153 0 -251.5 93.5t-107.5 247.5h217q8 -68 47.5 -110t94.5 -42t95 42t49 110h217q-9 -154 -108.5 -247.5t-252.5 -93.5zM389 447q37 -223 250 -223q151 0 247 120l213 -162q-167 -211 -474 -211q-250 0 -406.5 154t-156.5 405q0 262 150 422.5t390 160.5
q241 0 388 -165t147 -428v-73h-748zM601 860q-79 0 -134 -53.5t-75 -155.5h419q-19 100 -74.5 154.5t-135.5 54.5z" />
    <glyph glyph-name="Edotaccent" unicode="&#x116;" horiz-adv-x="1307" 
d="M527 1586v258h330v-258h-330zM136 0v1475h1088v-297h-754v-291h680v-284h-680v-306h763v-297h-1097z" />
    <glyph glyph-name="edotaccent" unicode="&#x117;" horiz-adv-x="1198" 
d="M770 1475v-260h-330v260h330zM389 447q37 -223 250 -223q151 0 247 120l213 -162q-167 -211 -474 -211q-250 0 -406.5 154t-156.5 405q0 262 150 422.5t390 160.5q241 0 388 -165t147 -428v-73h-748zM601 860q-79 0 -134 -53.5t-75 -155.5h419q-19 100 -74.5 154.5
t-135.5 54.5z" />
    <glyph glyph-name="Eogonek" unicode="&#x118;" horiz-adv-x="1307" 
d="M1178 -191l72 -182q-87 -55 -201 -55q-128 0 -206 61.5t-78 161.5q0 119 129 205h-758v1475h1088v-297h-754v-291h680v-284h-680v-306h763v-297h-131q-117 -73 -117 -145q0 -35 25.5 -56t67.5 -21q46 0 100 31z" />
    <glyph glyph-name="eogonek" unicode="&#x119;" horiz-adv-x="1199" 
d="M1137 520v-73h-747q36 -222 249 -222q151 0 247 119l213 -162q-67 -83 -161 -137q-84 -52 -126.5 -95t-42.5 -92q0 -36 23 -58t65 -22t87 25l73 -180q-42 -25 -100 -38.5t-110 -13.5q-119 0 -189 65.5t-70 160.5t79 173h-2q-250 0 -406.5 154.5t-156.5 405.5
q0 263 150 423.5t390 160.5q241 0 388 -165t147 -429zM601 860q-79 0 -133.5 -53.5t-74.5 -154.5h419q-21 101 -76 154.5t-135 53.5z" />
    <glyph glyph-name="Ecaron" unicode="&#x11a;" horiz-adv-x="1307" 
d="M836 1564h-291l-228 329h261l112 -159l113 159h259zM470 297h763v-297h-1097v1475h1088v-297h-754v-291h680v-284h-680v-306z" />
    <glyph glyph-name="ecaron" unicode="&#x11b;" horiz-adv-x="1198" 
d="M750 1192h-292l-227 330h259l113 -160l113 160h259zM389 447q37 -223 250 -223q151 0 247 120l213 -162q-167 -211 -474 -211q-250 0 -406.5 154t-156.5 405q0 262 150 422.5t390 160.5q241 0 388 -165t147 -428v-73h-748zM601 860q-79 0 -134 -53.5t-75 -155.5h419
q-19 100 -74.5 154.5t-135.5 54.5z" />
    <glyph glyph-name="Gcircumflex" unicode="&#x11c;" horiz-adv-x="1526" 
d="M791 1723l-114 -159h-259l227 329h291l226 -329h-260zM815 828h601v-828h-282v133q-117 -166 -367 -166q-149 0 -276 56t-217.5 156t-142 244t-51.5 314q0 175 53.5 319.5t149 243.5t229.5 153t293 54q180 0 337.5 -76.5t260.5 -226.5l-258 -176q-62 92 -141 133.5
t-190 41.5q-174 0 -282.5 -123.5t-108.5 -342.5q0 -220 105 -343.5t285 -123.5q143 0 231 74t92 221h-321v263z" />
    <glyph glyph-name="gcircumflex" unicode="&#x11d;" horiz-adv-x="1271" 
d="M623 1352l-114 -160h-259l227 330h291l226 -330h-259zM842 1085h310v-974q0 -228 -156 -363t-423 -135q-292 0 -482 165l165 222q143 -123 315 -123q129 0 196.5 69.5t67.5 166.5v70q-103 -150 -294 -150q-214 0 -347 149t-133 390q0 242 133 392t346 150
q104 0 180.5 -43.5t121.5 -109.5v124zM615 302q101 0 165.5 71.5t64.5 198.5q0 128 -64.5 200.5t-165.5 72.5q-102 0 -166 -75t-64 -198t64 -196.5t166 -73.5z" />
    <glyph glyph-name="Gbreve" unicode="&#x11e;" horiz-adv-x="1526" 
d="M791 1552q-153 0 -252 93.5t-109 247.5h217q9 -68 49 -109.5t95 -41.5t94.5 41.5t47.5 109.5h217q-9 -154 -107.5 -247.5t-251.5 -93.5zM815 828h601v-828h-282v133q-117 -166 -367 -166q-149 0 -276 56t-217.5 156t-142 244t-51.5 314q0 175 53.5 319.5t149 243.5
t229.5 153t293 54q180 0 337.5 -76.5t260.5 -226.5l-258 -176q-62 92 -141 133.5t-190 41.5q-174 0 -282.5 -123.5t-108.5 -342.5q0 -220 105 -343.5t285 -123.5q143 0 231 74t92 221h-321v263z" />
    <glyph glyph-name="gbreve" unicode="&#x11f;" horiz-adv-x="1271" 
d="M623 1181q-153 0 -252 93.5t-109 247.5h218q8 -68 48 -110t95 -42t94.5 42t47.5 110h218q-10 -154 -108.5 -247.5t-251.5 -93.5zM842 1085h310v-974q0 -228 -156 -363t-423 -135q-292 0 -482 165l165 222q143 -123 315 -123q129 0 196.5 69.5t67.5 166.5v70
q-103 -150 -294 -150q-214 0 -347 149t-133 390q0 242 133 392t346 150q104 0 180.5 -43.5t121.5 -109.5v124zM615 302q101 0 165.5 71.5t64.5 198.5q0 128 -64.5 200.5t-165.5 72.5q-102 0 -166 -75t-64 -198t64 -196.5t166 -73.5z" />
    <glyph glyph-name="Gdotaccent" unicode="&#x120;" horiz-adv-x="1526" 
d="M955 1844v-258h-329v258h329zM815 828h601v-828h-282v133q-117 -166 -367 -166q-149 0 -276 56t-217.5 156t-142 244t-51.5 314q0 175 53.5 319.5t149 243.5t229.5 153t293 54q180 0 337.5 -76.5t260.5 -226.5l-258 -176q-62 92 -141 133.5t-190 41.5
q-174 0 -282.5 -123.5t-108.5 -342.5q0 -220 105 -343.5t285 -123.5q143 0 231 74t92 221h-321v263z" />
    <glyph glyph-name="gdotaccent" unicode="&#x121;" horiz-adv-x="1271" 
d="M787 1475v-260h-329v260h329zM842 1085h310v-974q0 -228 -156 -363t-423 -135q-292 0 -482 165l165 222q143 -123 315 -123q129 0 196.5 69.5t67.5 166.5v70q-103 -150 -294 -150q-214 0 -347 149t-133 390q0 242 133 392t346 150q104 0 180.5 -43.5t121.5 -109.5v124z
M615 302q101 0 165.5 71.5t64.5 198.5q0 128 -64.5 200.5t-165.5 72.5q-102 0 -166 -75t-64 -198t64 -196.5t166 -73.5z" />
    <glyph glyph-name="uni0122" unicode="&#x122;" horiz-adv-x="1526" 
d="M815 828h601v-828h-282v133q-117 -166 -367 -166q-149 0 -276 56t-217.5 156t-142 244t-51.5 314q0 175 53.5 319.5t149 243.5t229.5 153t293 54q180 0 337.5 -76.5t260.5 -226.5l-258 -176q-62 92 -141 133.5t-190 41.5q-174 0 -282.5 -123.5t-108.5 -342.5
q0 -220 105 -343.5t285 -123.5q143 0 231 74t92 221h-321v263zM635 -286v210h277v-217q0 -65 -44 -113.5t-132 -89.5l-63 100q57 27 81.5 51t24.5 59h-144z" />
    <glyph glyph-name="uni0123" unicode="&#x123;" horiz-adv-x="1272" 
d="M738 1412v-210h-277v217q0 65 44 113.5t132 89.5l62 -99q-56 -27 -80.5 -51.5t-24.5 -59.5h144zM842 1085h310v-974q0 -228 -156 -363t-423 -135q-292 0 -482 165l165 222q143 -123 315 -123q129 0 196.5 69.5t67.5 166.5v70q-103 -150 -294 -150q-214 0 -347 149
t-133 390q0 242 133 392t346 150q104 0 180.5 -43.5t121.5 -109.5v124zM615 302q101 0 165.5 71.5t64.5 198.5q0 128 -64.5 200.5t-165.5 72.5q-102 0 -166 -75t-64 -198t64 -196.5t166 -73.5z" />
    <glyph glyph-name="Hcircumflex" unicode="&#x124;" horiz-adv-x="1552" 
d="M776 1723l-112 -159h-261l228 329h291l226 -329h-259zM1080 1475h336v-1475h-336v596h-609v-596h-335v1475h335v-582h609v582z" />
    <glyph glyph-name="hcircumflex" unicode="&#x125;" horiz-adv-x="1224" 
d="M638 1723l-113 -159h-259l227 329h291l227 -329h-260zM744 1113q159 0 263.5 -98t104.5 -284v-731h-317v650q0 95 -42.5 141.5t-118.5 46.5q-97 0 -147.5 -65t-50.5 -161v-612h-317v1475h317v-505q38 61 117 102t191 41z" />
    <glyph glyph-name="Hbar" unicode="&#x126;" horiz-adv-x="1599" 
d="M1579 1299v-243h-139v-1056h-335v597h-610v-597h-335v1056h-141v243h141v176h335v-186h610v186h335v-176h139zM495 896h610v172h-610v-172z" />
    <glyph glyph-name="hbar" unicode="&#x127;" horiz-adv-x="1233" 
d="M755 1113q103 0 184 -40t132 -128t51 -214v-731h-317v650q0 95 -43 141.5t-118 46.5q-97 0 -147.5 -65t-50.5 -161v-612h-317v1187h-113v172h113v116h317v-116h225v-172h-225v-216q38 60 117.5 101t191.5 41z" />
    <glyph glyph-name="Itilde" unicode="&#x128;" horiz-adv-x="606" 
d="M436 1561q-77 0 -163 51q-64 36 -99 36q-31 0 -61 -19t-73 -66l-160 159q83 93 148.5 128.5t139.5 35.5q83 0 163 -51q61 -36 99 -36q33 0 63 20t71 65l161 -159q-82 -93 -148.5 -128.5t-140.5 -35.5zM136 0v1475h335v-1475h-335z" />
    <glyph glyph-name="itilde" unicode="&#x129;" horiz-adv-x="555" 
d="M409 1208q-79 0 -163 50q-64 36 -100 36q-31 0 -61 -19t-73 -66l-159 160q83 93 148.5 128.5t138.5 35.5q84 0 163 -50q57 -37 99 -37q33 0 63.5 20.5t71.5 64.5l160 -159q-83 -93 -148.5 -128.5t-139.5 -35.5zM119 0v1085h317v-1085h-317z" />
    <glyph glyph-name="Imacron" unicode="&#x12a;" horiz-adv-x="606" 
d="M1 1622v197h604v-197h-604zM136 0v1475h335v-1475h-335z" />
    <glyph glyph-name="imacron" unicode="&#x12b;" horiz-adv-x="555" 
d="M-25 1253v197h605v-197h-605zM119 0v1085h317v-1085h-317z" />
    <glyph glyph-name="Ibreve" unicode="&#x12c;" horiz-adv-x="606" 
d="M303 1552q-153 0 -251.5 93.5t-107.5 247.5h217q8 -68 47.5 -109.5t94.5 -41.5t94.5 41.5t48.5 109.5h218q-10 -154 -109 -247.5t-252 -93.5zM136 0v1475h335v-1475h-335z" />
    <glyph glyph-name="ibreve" unicode="&#x12d;" horiz-adv-x="555" 
d="M278 1181q-153 0 -252 93.5t-108 247.5h217q8 -68 48 -110t95 -42t94.5 42t48.5 110h217q-10 -154 -108.5 -247.5t-251.5 -93.5zM119 0v1085h317v-1085h-317z" />
    <glyph glyph-name="Iogonek" unicode="&#x12e;" horiz-adv-x="606" 
d="M443 -196l73 -180q-83 -52 -209 -52q-119 0 -189.5 65t-70.5 159q0 120 121 204h-32v1475h335v-1475h-97q-106 -71 -106 -143q0 -35 23.5 -57t65.5 -22q41 0 86 26z" />
    <glyph glyph-name="iogonek" unicode="&#x12f;" horiz-adv-x="555" 
d="M442 1475v-260h-329v260h329zM422 -196l73 -180q-83 -52 -209 -52q-119 0 -189 65t-70 159q0 121 119 204h-27v1085h317v-1085h-84q-105 -70 -105 -143q0 -35 23.5 -57t65.5 -22t86 26z" />
    <glyph glyph-name="Idotaccent" unicode="&#x130;" horiz-adv-x="606" 
d="M138 1586v258h330v-258h-330zM136 0v1475h335v-1475h-335z" />
    <glyph glyph-name="dotlessi" unicode="&#x131;" horiz-adv-x="555" 
d="M119 0v1085h317v-1085h-317z" />
    <glyph glyph-name="IJ" unicode="&#x132;" horiz-adv-x="1783" 
d="M136 0v1475h335v-1475h-335zM1166 -31q-195 0 -319.5 73t-198.5 229l270 159q74 -164 222 -164q92 0 141.5 60.5t49.5 173.5v975h336v-1010q0 -233 -132 -364.5t-369 -131.5z" />
    <glyph glyph-name="ij" unicode="&#x133;" horiz-adv-x="1111" 
d="M113 1215v260h329v-260h-329zM668 1215v260h330v-260h-330zM119 0v1085h317v-1085h-317zM611 -383q-106 0 -194 32l60 248q55 -14 93 -14q58 0 81 27t23 97v1078h317v-1118q0 -188 -88 -269t-292 -81z" />
    <glyph glyph-name="Jcircumflex" unicode="&#x134;" horiz-adv-x="1177" 
d="M893 1723l-113 -159h-260l228 329h290l227 -329h-259zM725 500v975h335v-1010q0 -233 -131.5 -364.5t-368.5 -131.5q-195 0 -320 73t-199 229l270 159q74 -164 223 -164q92 0 141.5 60.5t49.5 173.5z" />
    <glyph glyph-name="jcircumflex" unicode="&#x135;" horiz-adv-x="555" 
d="M278 1352l-113 -160h-260l227 330h291l226 -330h-259zM119 7v1078h317v-1118q0 -188 -88 -269t-293 -81q-106 0 -193 32l60 248q53 -14 93 -14q57 0 80.5 27.5t23.5 96.5z" />
    <glyph glyph-name="uni0136" unicode="&#x136;" horiz-adv-x="1443" 
d="M888 863l542 -863h-396l-363 609l-200 -233v-376h-335v1475h335v-637l527 637h413zM587 -286v210h277v-217q0 -65 -44 -113.5t-132 -89.5l-62 100q56 28 80.5 51.5t24.5 58.5h-144z" />
    <glyph glyph-name="uni0137" unicode="&#x137;" horiz-adv-x="1193" 
d="M761 647l408 -647h-358l-253 419l-122 -136v-283h-317v1475h317v-789l344 399h372zM468 -286v210h277v-217q0 -65 -44 -113.5t-133 -89.5l-62 100q57 27 81.5 51t24.5 59h-144z" />
    <glyph glyph-name="kgreenlandic" unicode="&#x138;" horiz-adv-x="1193" 
d="M805 0l-250 416l-119 -133v-283h-317v1085h317v-399l344 399h372l-389 -436l406 -649h-364z" />
    <glyph glyph-name="Lacute" unicode="&#x139;" horiz-adv-x="1166" 
d="M604 1916l-228 -346h-247l167 346h308zM471 297h654v-297h-989v1475h335v-1178z" />
    <glyph glyph-name="lacute" unicode="&#x13a;" horiz-adv-x="555" 
d="M103 1570l167 346h309l-229 -346h-247zM119 0v1475h317v-1475h-317z" />
    <glyph glyph-name="uni013B" unicode="&#x13b;" horiz-adv-x="1166" 
d="M471 297h654v-297h-989v1475h335v-1178zM531 -286v210h278v-217q0 -65 -44 -113.5t-132 -89.5l-64 100q57 28 82 51.5t25 58.5h-145z" />
    <glyph glyph-name="uni013C" unicode="&#x13c;" horiz-adv-x="555" 
d="M119 1475h317v-1475h-317v1475zM139 -286v210h278v-217q0 -65 -44 -113.5t-133 -89.5l-63 100q57 28 82 51.5t25 58.5h-145z" />
    <glyph glyph-name="Lcaron" unicode="&#x13d;" horiz-adv-x="1166" 
d="M471 297h654v-297h-989v1475h335v-1178zM923 1475l-62 -482h-223v482h285z" />
    <glyph glyph-name="lcaron" unicode="&#x13e;" horiz-adv-x="747" 
d="M119 0v1475h317v-1475h-317zM539 993v482h284l-61 -482h-223z" />
    <glyph glyph-name="Ldot" unicode="&#x13f;" horiz-adv-x="1166" 
d="M471 297h654v-297h-989v1475h335v-1178zM1043 1027v-349h-350v349h350z" />
    <glyph glyph-name="ldot" unicode="&#x140;" horiz-adv-x="941" 
d="M119 0v1475h317v-1475h-317zM573 563v348h350v-348h-350z" />
    <glyph glyph-name="Lslash" unicode="&#x141;" horiz-adv-x="1191" 
d="M510 297h654v-297h-989v495l-155 -76v289l155 74v693h335v-548l400 196v-287l-400 -196v-343z" />
    <glyph glyph-name="lslash" unicode="&#x142;" horiz-adv-x="718" 
d="M678 1138v-289l-160 -103v-746h-317v565l-160 -102v289l160 102v621h317v-440z" />
    <glyph glyph-name="Nacute" unicode="&#x143;" horiz-adv-x="1536" 
d="M1076 1916l-229 -346h-246l167 346h308zM1066 1475h334v-1475h-384l-545 955v-955h-335v1475h381l549 -962v962z" />
    <glyph glyph-name="nacute" unicode="&#x144;" horiz-adv-x="1224" 
d="M910 1539l-228 -345h-247l167 345h308zM751 1113q74 0 138 -23.5t114.5 -69t79.5 -120t29 -169.5v-731h-317v656q0 95 -42.5 141.5t-118.5 46.5q-91 0 -144.5 -66t-53.5 -158v-620h-317v1085h311v-126q35 63 116.5 108.5t204.5 45.5z" />
    <glyph glyph-name="uni0145" unicode="&#x145;" horiz-adv-x="1536" 
d="M1066 1475h334v-1475h-384l-545 955v-955h-335v1475h381l549 -962v962zM630 -286v210h277v-217q0 -65 -44 -113.5t-133 -89.5l-62 100q56 28 81 51.5t25 58.5h-144z" />
    <glyph glyph-name="uni0146" unicode="&#x146;" horiz-adv-x="1224" 
d="M751 1113q74 0 138 -23.5t114.5 -69t79.5 -120t29 -169.5v-731h-317v656q0 95 -42.5 141.5t-118.5 46.5q-91 0 -144.5 -66t-53.5 -158v-620h-317v1085h311v-126q35 63 116.5 108.5t204.5 45.5zM473 -286v210h278v-217q0 -64 -44.5 -113t-132.5 -90l-62 100
q56 28 80.5 51.5t24.5 58.5h-144z" />
    <glyph glyph-name="Ncaron" unicode="&#x147;" horiz-adv-x="1536" 
d="M919 1564h-291l-228 329h260l113 -159l113 159h259zM1066 1475h334v-1475h-384l-545 955v-955h-335v1475h381l549 -962v962z" />
    <glyph glyph-name="ncaron" unicode="&#x148;" horiz-adv-x="1224" 
d="M755 1192h-292l-226 330h259l112 -160l113 160h259zM751 1113q74 0 138 -23.5t114.5 -69t79.5 -120t29 -169.5v-731h-317v656q0 95 -42.5 141.5t-118.5 46.5q-91 0 -144.5 -66t-53.5 -158v-620h-317v1085h311v-126q35 63 116.5 108.5t204.5 45.5z" />
    <glyph glyph-name="napostrophe" unicode="&#x149;" horiz-adv-x="1651" 
d="M103 1125v350h351v-360q0 -123 -42.5 -203.5t-154.5 -166.5l-118 132q80 49 108 107.5t28 140.5h-172zM1179 1113q73 0 137 -23.5t114.5 -69t80 -120t29.5 -169.5v-731h-317v656q0 95 -43 141.5t-118 46.5q-91 0 -144.5 -65.5t-53.5 -158.5v-620h-317v1085h310v-127
q35 64 117 109.5t205 45.5z" />
    <glyph glyph-name="Eng" unicode="&#x14a;" horiz-adv-x="1536" 
d="M1066 1475h334v-1477q0 -163 -125 -261t-329 -98q-140 0 -274 56l91 261q80 -37 148 -37q70 0 112.5 34.5t42.5 93.5v14l-595 906v-967h-335v1475h381l549 -861v861z" />
    <glyph glyph-name="eng" unicode="&#x14b;" horiz-adv-x="1224" 
d="M751 1113q74 0 138 -23.5t114.5 -69t79.5 -120t29 -169.5v-709q0 -188 -87.5 -276t-274.5 -88q-94 0 -189 31l51 246q61 -12 86 -12q52 0 74.5 24.5t22.5 79.5v624q0 95 -42.5 141t-118.5 46q-91 0 -144.5 -66.5t-53.5 -159.5v-612h-317v1085h317v-115q38 60 117.5 101.5
t197.5 41.5z" />
    <glyph glyph-name="Omacron" unicode="&#x14c;" horiz-adv-x="1614" 
d="M505 1621v197h604v-197h-604zM808 -33q-219 0 -384 95.5t-254.5 270t-89.5 404.5t89.5 404.5t254.5 270t384 95.5q330 0 529.5 -211t199.5 -559t-199.5 -559t-529.5 -211zM808 272q176 0 280.5 125.5t104.5 339.5t-104.5 339.5t-280.5 125.5t-280 -125t-104 -340
t104 -340t280 -125z" />
    <glyph glyph-name="omacron" unicode="&#x14d;" horiz-adv-x="1243" 
d="M318 1253v197h606v-197h-606zM622 -29q-118 0 -220.5 40t-177.5 112.5t-118.5 181t-43.5 238.5q0 173 74.5 304t201 199t284.5 68t284.5 -68t200.5 -199t74 -304q0 -130 -43 -238.5t-118 -181t-177.5 -112.5t-220.5 -40zM622 244q108 0 171.5 80t63.5 219
q0 138 -63.5 218.5t-171.5 80.5t-172 -80.5t-64 -218.5q0 -139 63.5 -219t172.5 -80z" />
    <glyph glyph-name="Obreve" unicode="&#x14e;" horiz-adv-x="1614" 
d="M808 1552q-154 0 -253 93t-108 248h218q9 -68 48.5 -110t94.5 -42t94.5 42t47.5 110h217q-9 -155 -107.5 -248t-251.5 -93zM808 -33q-219 0 -384 95.5t-254.5 270t-89.5 404.5t89.5 404.5t254.5 270t384 95.5q330 0 529.5 -211t199.5 -559t-199.5 -559t-529.5 -211z
M808 272q176 0 280.5 125.5t104.5 339.5t-104.5 339.5t-280.5 125.5t-280 -125t-104 -340t104 -340t280 -125z" />
    <glyph glyph-name="obreve" unicode="&#x14f;" horiz-adv-x="1243" 
d="M622 1181q-153 0 -252 93.5t-109 247.5h218q8 -68 48 -110t95 -42t94.5 42t47.5 110h218q-10 -154 -108.5 -247.5t-251.5 -93.5zM622 -29q-118 0 -220.5 40t-177.5 112.5t-118.5 181t-43.5 238.5q0 173 74.5 304t201 199t284.5 68t284.5 -68t200.5 -199t74 -304
q0 -130 -43 -238.5t-118 -181t-177.5 -112.5t-220.5 -40zM622 244q108 0 171.5 80t63.5 219q0 138 -63.5 218.5t-171.5 80.5t-172 -80.5t-64 -218.5q0 -139 63.5 -219t172.5 -80z" />
    <glyph glyph-name="Ohungarumlaut" unicode="&#x150;" horiz-adv-x="1614" 
d="M465 1570l167 345h309l-229 -345h-247zM870 1570l167 345h310l-230 -345h-247zM808 -33q-219 0 -384 95.5t-254.5 270t-89.5 404.5t89.5 404.5t254.5 270t384 95.5q330 0 529.5 -211t199.5 -559t-199.5 -559t-529.5 -211zM808 272q176 0 280.5 125.5t104.5 339.5
t-104.5 339.5t-280.5 125.5t-280 -125t-104 -340t104 -340t280 -125z" />
    <glyph glyph-name="ohungarumlaut" unicode="&#x151;" horiz-adv-x="1243" 
d="M281 1194l166 345h309l-230 -345h-245zM686 1194l167 345h309l-229 -345h-247zM622 -29q-118 0 -220.5 40t-177.5 112.5t-118.5 181t-43.5 238.5q0 173 74.5 304t201 199t284.5 68t284.5 -68t200.5 -199t74 -304q0 -130 -43 -238.5t-118 -181t-177.5 -112.5t-220.5 -40z
M622 244q108 0 171.5 80t63.5 219q0 138 -63.5 218.5t-171.5 80.5t-172 -80.5t-64 -218.5q0 -139 63.5 -219t172.5 -80z" />
    <glyph glyph-name="OE" unicode="&#x152;" horiz-adv-x="2151" 
d="M1356 297h722v-297h-1263q-345 0 -540 197.5t-195 539.5q0 341 195.5 539.5t539.5 198.5h1252v-297h-711v-291h641v-284h-641v-306zM846 300h176v875h-176q-198 0 -310.5 -117t-112.5 -321t112.5 -320.5t310.5 -116.5z" />
    <glyph glyph-name="oe" unicode="&#x153;" horiz-adv-x="1920" 
d="M1861 501v-57h-703q40 -220 231 -220q70 0 122.5 26t106.5 93l210 -161q-84 -108 -192 -159.5t-253 -51.5q-258 0 -397 182q-64 -89 -166 -135.5t-224 -46.5q-237 0 -385.5 155t-148.5 417q0 261 148.5 416t385.5 155q123 0 226 -47.5t166 -139.5q126 186 366 186
q233 0 370 -165t137 -447zM1157 642h380q-13 102 -64.5 156.5t-124.5 54.5q-72 0 -123.5 -52.5t-67.5 -158.5zM602 245q96 0 157 79.5t61 218.5t-61 218.5t-157 79.5q-95 0 -155.5 -79.5t-60.5 -218.5t60 -218.5t156 -79.5z" />
    <glyph glyph-name="Racute" unicode="&#x154;" horiz-adv-x="1398" 
d="M994 1916l-229 -346h-247l168 346h308zM969 0l-268 549h-230v-549h-335v1475h693q224 0 356.5 -124t132.5 -344q0 -162 -74 -271t-208 -155l303 -581h-370zM471 1179v-342h310q96 0 147 44.5t51 125.5t-51 126.5t-147 45.5h-310z" />
    <glyph glyph-name="racute" unicode="&#x155;" horiz-adv-x="878" 
d="M777 1539l-229 -345h-247l167 345h309zM727 1110q63 0 132 -17l-51 -279q-44 11 -115 11q-116 0 -186.5 -84.5t-70.5 -225.5v-515h-317v1085h311v-153q33 76 111 127t186 51z" />
    <glyph glyph-name="uni0156" unicode="&#x156;" horiz-adv-x="1398" 
d="M1036 581l303 -581h-370l-268 549h-230v-549h-335v1475h693q224 0 356.5 -124t132.5 -344q0 -162 -74 -271t-208 -155zM471 1179v-342h310q96 0 147 44.5t51 125.5t-51 126.5t-147 45.5h-310zM561 -286v210h278v-217q0 -65 -44 -113.5t-132 -89.5l-64 100q57 28 82 51.5
t25 58.5h-145z" />
    <glyph glyph-name="uni0157" unicode="&#x157;" horiz-adv-x="878" 
d="M727 1110q63 0 132 -17l-51 -279q-44 11 -115 11q-116 0 -186.5 -84.5t-70.5 -225.5v-515h-317v1085h311v-153q33 76 111 127t186 51zM139 -286v210h278v-217q0 -65 -44 -113.5t-133 -89.5l-63 100q57 28 82 51.5t25 58.5h-145z" />
    <glyph glyph-name="Rcaron" unicode="&#x158;" horiz-adv-x="1398" 
d="M837 1564h-291l-228 329h261l112 -159l113 159h259zM969 0l-268 549h-230v-549h-335v1475h693q224 0 356.5 -124t132.5 -344q0 -162 -74 -271t-208 -155l303 -581h-370zM471 1179v-342h310q96 0 147 44.5t51 125.5t-51 126.5t-147 45.5h-310z" />
    <glyph glyph-name="rcaron" unicode="&#x159;" horiz-adv-x="878" 
d="M621 1192h-291l-228 330h259l114 -160l113 160h259zM727 1110q63 0 132 -17l-51 -279q-44 11 -115 11q-116 0 -186.5 -84.5t-70.5 -225.5v-515h-317v1085h311v-153q33 76 111 127t186 51z" />
    <glyph glyph-name="Sacute" unicode="&#x15a;" horiz-adv-x="1427" 
d="M563 1570l167 346h309l-229 -346h-247zM734 -34q-436 0 -665 288l226 206q151 -197 442 -197q121 0 194.5 43t73.5 113q0 29 -10.5 52t-34.5 40.5t-47 29t-66.5 22t-72.5 16.5t-83 15q-71 12 -111 19.5t-108.5 26t-109 38.5t-91.5 55t-79 77.5t-47.5 104.5t-19.5 137
q0 209 161 332.5t436 123.5q198 0 360.5 -67t263.5 -191l-227 -206q-63 78 -169.5 122.5t-231.5 44.5q-113 0 -181 -40.5t-68 -106.5q0 -26 10 -47.5t31.5 -37t45 -27t61 -21t68.5 -15.5t78 -13q74 -11 113.5 -18t111 -25t113 -38t95 -56.5t82.5 -81t49.5 -110t20.5 -145.5
q0 -216 -163.5 -339.5t-450.5 -123.5z" />
    <glyph glyph-name="sacute" unicode="&#x15b;" horiz-adv-x="1100" 
d="M395 1194l167 345h309l-229 -345h-247zM565 -35q-343 0 -535 195l184 194q126 -132 357 -132q81 0 124.5 23t43.5 65q0 45 -50.5 66t-183.5 40q-197 27 -304 111t-107 241q0 162 127.5 256t344.5 94q286 0 469 -165l-173 -193q-114 101 -299 101q-73 0 -116.5 -20.5
t-43.5 -60.5q0 -43 52 -63t186 -39q69 -10 124 -24t110 -40.5t91.5 -62.5t59.5 -91.5t23 -125.5q0 -120 -65 -205t-172 -124.5t-247 -39.5z" />
    <glyph glyph-name="Scircumflex" unicode="&#x15c;" horiz-adv-x="1427" 
d="M737 1723l-112 -159h-259l226 329h291l226 -329h-259zM763 903q74 -11 113.5 -18t111 -25t113 -38t95 -56.5t82.5 -81t49.5 -110t20.5 -145.5q0 -216 -163.5 -339.5t-450.5 -123.5q-436 0 -665 288l226 206q151 -197 442 -197q121 0 194.5 43t73.5 113q0 29 -10.5 52
t-34.5 40.5t-47 29t-66.5 22t-72.5 16.5t-83 15q-71 12 -111 19.5t-108.5 26t-109 38.5t-91.5 55t-79 77.5t-47.5 104.5t-19.5 137q0 209 161 332.5t436 123.5q198 0 360.5 -67t263.5 -191l-227 -206q-63 78 -169.5 122.5t-231.5 44.5q-113 0 -181 -40.5t-68 -106.5
q0 -26 10 -47.5t31.5 -37t45 -27t61 -21t68.5 -15.5t78 -13z" />
    <glyph glyph-name="scircumflex" unicode="&#x15d;" horiz-adv-x="1100" 
d="M571 1352l-113 -160h-259l227 330h291l226 -330h-260zM641 678q69 -10 124 -24t110 -40.5t91.5 -62.5t59.5 -91.5t23 -125.5q0 -120 -65 -205t-172 -124.5t-247 -39.5q-343 0 -535 195l184 194q126 -132 357 -132q81 0 124.5 23t43.5 65q0 45 -50.5 66t-183.5 40
q-197 27 -304 111t-107 241q0 162 127.5 256t344.5 94q286 0 469 -165l-173 -193q-114 101 -299 101q-73 0 -116.5 -20.5t-43.5 -60.5q0 -43 52 -63t186 -39z" />
    <glyph glyph-name="Scedilla" unicode="&#x15e;" horiz-adv-x="1427" 
d="M1348 429q0 -187 -123 -306t-346 -148l-108 -334h-258l107 330q-357 37 -551 283l226 206q151 -197 442 -197q121 0 194.5 43t73.5 113q0 29 -10.5 52t-34.5 40.5t-47 29t-66.5 22t-72.5 16.5t-83 15q-71 12 -111 19.5t-108.5 26t-109 38.5t-91.5 55t-79 77.5
t-47.5 104.5t-19.5 137q0 209 161 332.5t436 123.5q198 0 360.5 -67t263.5 -191l-227 -206q-63 78 -169.5 122.5t-231.5 44.5q-113 0 -181 -40.5t-68 -106.5q0 -26 10 -47.5t31.5 -37t45 -27t61 -21t68.5 -15.5t78 -13q74 -11 113.5 -18t111 -25t113 -38t95 -56.5t82.5 -81
t49.5 -110t20.5 -145.5z" />
    <glyph glyph-name="scedilla" unicode="&#x15f;" horiz-adv-x="1100" 
d="M1049 334q0 -148 -94 -239.5t-254 -118.5l-108 -335h-258l107 331q-258 31 -412 188l184 194q126 -132 357 -132q81 0 124.5 23t43.5 65q0 45 -50.5 66t-183.5 40q-197 27 -304 111t-107 241q0 162 127.5 256t344.5 94q286 0 469 -165l-173 -193q-114 101 -299 101
q-73 0 -116.5 -20.5t-43.5 -60.5q0 -43 52 -63t186 -39q69 -10 124 -24t110 -40.5t91.5 -62.5t59.5 -91.5t23 -125.5z" />
    <glyph glyph-name="Scaron" unicode="&#x160;" horiz-adv-x="1427" 
d="M882 1564h-292l-226 329h259l113 -159l112 159h260zM763 903q74 -11 113.5 -18t111 -25t113 -38t95 -56.5t82.5 -81t49.5 -110t20.5 -145.5q0 -216 -163.5 -339.5t-450.5 -123.5q-436 0 -665 288l226 206q151 -197 442 -197q121 0 194.5 43t73.5 113q0 29 -10.5 52
t-34.5 40.5t-47 29t-66.5 22t-72.5 16.5t-83 15q-71 12 -111 19.5t-108.5 26t-109 38.5t-91.5 55t-79 77.5t-47.5 104.5t-19.5 137q0 209 161 332.5t436 123.5q198 0 360.5 -67t263.5 -191l-227 -206q-63 78 -169.5 122.5t-231.5 44.5q-113 0 -181 -40.5t-68 -106.5
q0 -26 10 -47.5t31.5 -37t45 -27t61 -21t68.5 -15.5t78 -13z" />
    <glyph glyph-name="scaron" unicode="&#x161;" horiz-adv-x="1100" 
d="M715 1192h-291l-227 330h260l112 -160l113 160h259zM641 678q69 -10 124 -24t110 -40.5t91.5 -62.5t59.5 -91.5t23 -125.5q0 -120 -65 -205t-172 -124.5t-247 -39.5q-343 0 -535 195l184 194q126 -132 357 -132q81 0 124.5 23t43.5 65q0 45 -50.5 66t-183.5 40
q-197 27 -304 111t-107 241q0 162 127.5 256t344.5 94q286 0 469 -165l-173 -193q-114 101 -299 101q-73 0 -116.5 -20.5t-43.5 -60.5q0 -43 52 -63t186 -39z" />
    <glyph glyph-name="uni0162" unicode="&#x162;" horiz-adv-x="1305" 
d="M1271 1475v-298h-451v-1177h-39l-115 -359h-258l115 359h-38v1177h-451v298h1237z" />
    <glyph glyph-name="uni0163" unicode="&#x163;" horiz-adv-x="881" 
d="M829 11q-84 -29 -193 -38l-109 -332h-258l117 363q-173 72 -173 293v528h-170v260h170v306h317v-306h266v-260h-266v-444q0 -83 27.5 -111t96.5 -28q53 0 112 16z" />
    <glyph glyph-name="Tcaron" unicode="&#x164;" horiz-adv-x="1305" 
d="M797 1564h-291l-227 329h259l113 -159l112 159h260zM1271 1475v-298h-451v-1177h-335v1177h-451v298h1237z" />
    <glyph glyph-name="tcaron" unicode="&#x165;" horiz-adv-x="881" 
d="M612 1626h285l-61 -464h-224v464zM654 241q53 0 112 16l63 -247q-117 -40 -252 -40q-169 0 -266.5 78.5t-97.5 248.5v529h-170v259h170v306h317v-306h265v-259h-265v-445q0 -83 27.5 -111.5t96.5 -28.5z" />
    <glyph glyph-name="Tbar" unicode="&#x166;" horiz-adv-x="1305" 
d="M1271 1177h-451v-290h285v-274h-285v-613h-335v613h-283v274h283v290h-451v298h1237v-298z" />
    <glyph glyph-name="tbar" unicode="&#x167;" horiz-adv-x="877" 
d="M766 257l63 -247q-117 -40 -252 -40q-169 0 -266.5 78.5t-97.5 248.5v153h-132v232h132v144h-170v259h170v306h317v-306h265v-259h-265v-144h190v-232h-190v-69q0 -83 27.5 -111.5t96.5 -28.5q53 0 112 16z" />
    <glyph glyph-name="Utilde" unicode="&#x168;" horiz-adv-x="1499" 
d="M883 1561q-77 0 -163 51q-64 36 -99 36q-31 0 -61.5 -19t-72.5 -66l-160 159q83 93 148.5 128.5t138.5 35.5q82 0 164 -51q59 -36 99 -36q33 0 62.5 20t71.5 65l160 -159q-83 -93 -148.5 -128.5t-139.5 -35.5zM741 -33q-307 0 -468 164t-161 438v906h334v-884
q0 -146 72.5 -232.5t222.5 -86.5q151 0 223.5 86.5t72.5 232.5v884h335v-906q0 -133 -39.5 -242.5t-116.5 -190t-198 -125t-277 -44.5z" />
    <glyph glyph-name="utilde" unicode="&#x169;" horiz-adv-x="1222" 
d="M470 1294q-31 0 -61 -19t-72 -66l-161 160q83 93 149 128.5t139 35.5q83 0 164 -50q57 -37 98 -37q33 0 62.5 20t72.5 65l160 -159q-82 -93 -148 -128.5t-141 -35.5q-79 0 -163 50q-63 36 -99 36zM786 1085h318v-1085h-310v127q-34 -64 -116 -110t-206 -46
q-73 0 -137 23.5t-114 69t-79.5 120t-29.5 169.5v732h317v-658q0 -95 42.5 -140.5t117.5 -45.5q91 0 144 66t53 159v619z" />
    <glyph glyph-name="Umacron" unicode="&#x16a;" horiz-adv-x="1499" 
d="M447 1622v197h605v-197h-605zM741 -33q-307 0 -468 164t-161 438v906h334v-884q0 -146 72.5 -232.5t222.5 -86.5q151 0 223.5 86.5t72.5 232.5v884h335v-906q0 -133 -39.5 -242.5t-116.5 -190t-198 -125t-277 -44.5z" />
    <glyph glyph-name="umacron" unicode="&#x16b;" horiz-adv-x="1222" 
d="M903 1450v-197h-604v197h604zM786 1085h318v-1085h-310v127q-34 -64 -116 -110t-206 -46q-73 0 -137 23.5t-114 69t-79.5 120t-29.5 169.5v732h317v-658q0 -95 42.5 -140.5t117.5 -45.5q91 0 144 66t53 159v619z" />
    <glyph glyph-name="Ubreve" unicode="&#x16c;" horiz-adv-x="1499" 
d="M750 1552q-153 0 -252 93.5t-108 247.5h217q8 -67 48 -109t95 -42t94.5 41.5t48.5 109.5h217q-9 -154 -108 -247.5t-252 -93.5zM741 -33q-307 0 -468 164t-161 438v906h334v-884q0 -146 72.5 -232.5t222.5 -86.5q151 0 223.5 86.5t72.5 232.5v884h335v-906
q0 -133 -39.5 -242.5t-116.5 -190t-198 -125t-277 -44.5z" />
    <glyph glyph-name="ubreve" unicode="&#x16d;" horiz-adv-x="1222" 
d="M602 1181q-153 0 -252 93.5t-108 247.5h217q9 -68 48.5 -110t94.5 -42t94.5 42.5t47.5 109.5h218q-9 -154 -108 -247.5t-252 -93.5zM786 1085h318v-1085h-310v127q-34 -64 -116 -110t-206 -46q-73 0 -137 23.5t-114 69t-79.5 120t-29.5 169.5v732h317v-658
q0 -95 42.5 -140.5t117.5 -45.5q91 0 144 66t53 159v619z" />
    <glyph glyph-name="Uring" unicode="&#x16e;" horiz-adv-x="1499" 
d="M750 1552q-110 0 -184 72.5t-74 180.5t74 180t184 72t184 -72.5t74 -179.5q0 -108 -74 -180.5t-184 -72.5zM750 1713q37 0 60 25t23 67q0 41 -23 66t-60 25t-60 -25t-23 -66q0 -42 23 -67t60 -25zM741 -33q-307 0 -468 164t-161 438v906h334v-884q0 -146 72.5 -232.5
t222.5 -86.5q151 0 223.5 86.5t72.5 232.5v884h335v-906q0 -133 -39.5 -242.5t-116.5 -190t-198 -125t-277 -44.5z" />
    <glyph glyph-name="uring" unicode="&#x16f;" horiz-adv-x="1222" 
d="M602 1176q-111 0 -185 72t-74 180t74.5 180t184.5 72q109 0 183 -72.5t74 -179.5q0 -108 -73.5 -180t-183.5 -72zM602 1520q-38 0 -61 -25.5t-23 -66.5t23 -66t61 -25q36 0 59 25.5t23 65.5q0 41 -23 66.5t-59 25.5zM786 1085h318v-1085h-310v127q-34 -64 -116 -110
t-206 -46q-73 0 -137 23.5t-114 69t-79.5 120t-29.5 169.5v732h317v-658q0 -95 42.5 -140.5t117.5 -45.5q91 0 144 66t53 159v619z" />
    <glyph glyph-name="Uhungarumlaut" unicode="&#x170;" horiz-adv-x="1499" 
d="M408 1571l166 345h310l-230 -345h-246zM813 1571l167 345h309l-229 -345h-247zM741 -33q-307 0 -468 164t-161 438v906h334v-884q0 -146 72.5 -232.5t222.5 -86.5q151 0 223.5 86.5t72.5 232.5v884h335v-906q0 -133 -39.5 -242.5t-116.5 -190t-198 -125t-277 -44.5z" />
    <glyph glyph-name="uhungarumlaut" unicode="&#x171;" horiz-adv-x="1222" 
d="M736 1539l-229 -345h-247l167 345h309zM912 1194h-246l167 345h309zM786 466v619h318v-1085h-310v127q-34 -64 -116 -110t-206 -46q-73 0 -137 23.5t-114 69t-79.5 120t-29.5 169.5v732h317v-658q0 -95 42.5 -140.5t117.5 -45.5q91 0 144 66t53 159z" />
    <glyph glyph-name="Uogonek" unicode="&#x172;" horiz-adv-x="1484" 
d="M1037 1475h335v-906q0 -168 -65 -302.5t-196 -210.5q-166 -115 -166 -201q0 -35 25 -56t67 -21q48 0 101 29l71 -180q-85 -55 -201 -55q-128 0 -206 61t-78 161q0 93 77 174q-34 -2 -59 -2q-207 0 -350.5 78t-211.5 212t-68 313v906h334v-884q0 -145 73 -232t223 -87
t222.5 87t72.5 232v884z" />
    <glyph glyph-name="uogonek" unicode="&#x173;" horiz-adv-x="1222" 
d="M1043 -191l73 -182q-87 -55 -202 -55q-128 0 -205.5 61.5t-77.5 161.5q0 134 163 225v107q-34 -64 -116 -110t-206 -46q-73 0 -137 23.5t-114 69t-79.5 120t-29.5 169.5v732h317v-658q0 -95 42.5 -140.5t117.5 -45.5q91 0 144 66t53 159v619h318v-1085h-135
q-117 -73 -117 -145q0 -35 25 -56t67 -21q45 0 99 31z" />
    <glyph glyph-name="Wcircumflex" unicode="&#x174;" horiz-adv-x="2213" 
d="M1107 1723l-113 -159h-260l228 329h290l227 -329h-259zM1816 1475h356l-442 -1475h-354l-266 976l-266 -976h-356l-446 1475h364l266 -1005l263 1005h351l262 -1005z" />
    <glyph glyph-name="wcircumflex" unicode="&#x175;" horiz-adv-x="1778" 
d="M890 1352l-114 -160h-259l227 330h291l227 -330h-261zM1423 1085h332l-315 -1085h-317l-230 736l-230 -736h-319l-319 1085h336l173 -687l203 687h311l204 -688z" />
    <glyph glyph-name="Ycircumflex" unicode="&#x176;" horiz-adv-x="1361" 
d="M681 1723l-113 -159h-259l227 329h291l226 -329h-259zM984 1475h359l-493 -887v-588h-335v588l-496 887h361l302 -586z" />
    <glyph glyph-name="ycircumflex" unicode="&#x177;" horiz-adv-x="1184" 
d="M595 1352l-113 -160h-259l227 330h291l227 -330h-260zM824 1085h344l-466 -1200q-25 -66 -56.5 -114.5t-65 -78.5t-74 -48t-80.5 -24.5t-89 -6.5q-127 0 -233 33l76 245q71 -19 110 -19q45 0 72.5 15.5t43.5 57.5l39 105l-430 1035h344l239 -674z" />
    <glyph glyph-name="Ydieresis" unicode="&#x178;" horiz-adv-x="1361" 
d="M611 1844v-256h-286v256h286zM1038 1844v-256h-286v256h286zM984 1475h359l-493 -887v-588h-335v588l-496 887h361l302 -586z" />
    <glyph glyph-name="Zacute" unicode="&#x179;" horiz-adv-x="1333" 
d="M486 1570l167 346h309l-229 -346h-247zM75 0v278l721 900h-700v297h1128v-277l-720 -901h740v-297h-1169z" />
    <glyph glyph-name="zacute" unicode="&#x17a;" horiz-adv-x="1051" 
d="M350 1194l167 345h309l-229 -345h-247zM56 0v239l507 587h-480v259h864v-240l-506 -586h526v-259h-911z" />
    <glyph glyph-name="Zdotaccent" unicode="&#x17b;" horiz-adv-x="1333" 
d="M496 1586v258h329v-258h-329zM75 0v278l721 900h-700v297h1128v-277l-720 -901h740v-297h-1169z" />
    <glyph glyph-name="zdotaccent" unicode="&#x17c;" horiz-adv-x="1051" 
d="M361 1215v260h330v-260h-330zM56 0v239l507 587h-480v259h864v-240l-506 -586h526v-259h-911z" />
    <glyph glyph-name="Zcaron" unicode="&#x17d;" horiz-adv-x="1333" 
d="M804 1564h-291l-226 329h259l112 -159l113 159h259zM504 297h740v-297h-1169v278l721 900h-700v297h1128v-277z" />
    <glyph glyph-name="zcaron" unicode="&#x17e;" horiz-adv-x="1051" 
d="M670 1192h-291l-227 330h259l113 -160l113 160h259zM441 259h526v-259h-911v239l507 587h-480v259h864v-240z" />
    <glyph glyph-name="longs" unicode="&#x17f;" horiz-adv-x="798" 
d="M584 1503q113 0 211 -30l-53 -234q-65 14 -106 14q-66 0 -94 -32t-28 -102v-1119h-317v826h-154v259h154v67q0 169 106.5 260t280.5 91z" />
    <glyph glyph-name="uni018F" unicode="&#x18f;" horiz-adv-x="1562" 
d="M738 1504q335 0 540.5 -209t205.5 -556q0 -348 -197.5 -560.5t-518.5 -212.5q-206 0 -363 98.5t-241 272.5t-84 398v108h1053q-23 172 -123.5 266.5t-277.5 94.5q-115 0 -200.5 -45t-154.5 -145l-250 190q109 152 259 226t352 74zM775 267q133 0 227.5 83t124.5 247h-695
q27 -160 119 -245t224 -85z" />
    <glyph glyph-name="florin" unicode="&#x192;" horiz-adv-x="1071" 
d="M889 1199q-68 0 -105.5 -38t-46.5 -117l-18 -156h212v-229h-240l-41 -346q-19 -159 -126 -250.5t-272 -91.5q-135 0 -237 34l67 239q59 -16 101 -16q68 0 105 36t46 112l34 283h-190v229h216l26 212q21 172 124.5 264t275.5 92q136 0 236 -33l-70 -237q-49 13 -97 13z
" />
    <glyph glyph-name="uni01F4" unicode="&#x1f4;" horiz-adv-x="1526" 
d="M1092 1916l-230 -346h-247l167 346h310zM815 828h601v-828h-282v133q-117 -166 -367 -166q-149 0 -276 56t-217.5 156t-142 244t-51.5 314q0 175 53.5 319.5t149 243.5t229.5 153t293 54q180 0 337.5 -76.5t260.5 -226.5l-258 -176q-62 92 -141 133.5t-190 41.5
q-174 0 -282.5 -123.5t-108.5 -342.5q0 -220 105 -343.5t285 -123.5q143 0 231 74t92 221h-321v263z" />
    <glyph glyph-name="uni01F5" unicode="&#x1f5;" horiz-adv-x="1271" 
d="M923 1539l-230 -345h-247l167 345h310zM842 1085h310v-974q0 -228 -156 -363t-423 -135q-292 0 -482 165l165 222q143 -123 315 -123q129 0 196.5 69.5t67.5 166.5v70q-103 -150 -294 -150q-214 0 -347 149t-133 390q0 242 133 392t346 150q104 0 180.5 -43.5
t121.5 -109.5v124zM615 302q101 0 165.5 71.5t64.5 198.5q0 128 -64.5 200.5t-165.5 72.5q-102 0 -166 -75t-64 -198t64 -196.5t166 -73.5z" />
    <glyph glyph-name="Aringacute" unicode="&#x1fa;" horiz-adv-x="1540" 
d="M1087 2233l-229 -345h-247l167 345h309zM1147 0l-99 285h-564l-99 -285h-353l535 1434q-56 67 -56 160q0 108 74.5 180t184.5 72t184 -72.5t74 -179.5q0 -93 -56 -160l536 -1434h-361zM770 1686q-37 0 -60.5 -25.5t-23.5 -66.5t23 -66.5t61 -25.5q37 0 60 25.5t23 66.5
t-23 66.5t-60 25.5zM582 562h368l-184 525z" />
    <glyph glyph-name="aringacute" unicode="&#x1fb;" horiz-adv-x="1152" 
d="M881 2073l-230 -346h-247l167 346h310zM573 1176q-111 0 -185 72t-74 180t74.5 180t184.5 72t184 -72.5t74 -179.5q0 -108 -74 -180t-184 -72zM573 1520q-38 0 -61 -25.5t-23 -66.5t23 -66t61 -25q37 0 59.5 25t22.5 66t-22.5 66.5t-59.5 25.5zM557 1110
q232 0 357.5 -111.5t125.5 -331.5v-667h-311v120q-38 -69 -114 -109t-186 -40q-154 0 -258.5 92.5t-104.5 248.5q0 344 499 344h156v13q0 90 -49.5 134.5t-139.5 44.5q-138 0 -234 -111l-185 189q73 88 188 136t256 48zM723 399v54h-127q-227 0 -227 -128q0 -61 39 -93.5
t107 -32.5q88 0 148 62.5t60 137.5z" />
    <glyph glyph-name="AEacute" unicode="&#x1fc;" horiz-adv-x="2248" 
d="M1844 1916l-228 -346h-247l167 346h308zM1453 297h721v-297h-1055v285h-534l-170 -285h-390l908 1475h1232v-297h-712v-291h641v-284h-641v-306zM755 569h364v612z" />
    <glyph glyph-name="aeacute" unicode="&#x1fd;" horiz-adv-x="1796" 
d="M1205 1539l-228 -345h-247l167 345h308zM1736 501v-57h-695q36 -220 228 -220q67 0 119 26t106 93l210 -161q-165 -211 -439 -211q-254 0 -391 175q-147 -175 -409 -175q-75 0 -145 21t-127.5 61.5t-92 108t-34.5 153.5q0 172 123 249.5t358 77.5h160q3 107 -44 156
t-141 49q-137 0 -221 -105l-181 188q153 180 425 180q233 0 348 -149q130 152 342 152q229 0 365 -165.5t136 -446.5zM1037 642h375q-12 101 -63 156t-120 55q-71 0 -123 -52.5t-69 -158.5zM711 387v57h-146q-197 0 -197 -122q0 -61 40 -94t110 -33q85 0 139 60t54 132z" />
    <glyph glyph-name="Oslashacute" unicode="&#x1fe;" horiz-adv-x="1614" 
d="M1109 1916l-229 -346h-247l167 346h309zM1374 1253q162 -204 162 -516q0 -349 -199 -560t-529 -211q-209 0 -370 88l-150 -193l-204 167l155 196q-159 204 -159 513q0 230 89.5 405t254.5 270.5t384 95.5q203 0 364 -85l140 180l205 -167zM808 1203q-176 0 -280 -125.5
t-104 -340.5q0 -147 50 -255l523 672q-81 49 -189 49zM808 271q175 0 279 125.5t104 340.5q0 148 -51 258l-526 -672q83 -52 194 -52z" />
    <glyph glyph-name="oslashacute" unicode="&#x1ff;" horiz-adv-x="1243" 
d="M923 1539l-230 -345h-247l167 345h310zM1057 922q125 -150 125 -379q0 -130 -43 -238.5t-118 -181t-177.5 -112.5t-220.5 -40q-142 0 -264 58l-118 -152l-166 133l115 150q-128 154 -128 383q0 173 74.5 304t201 199t285.5 68q146 0 266 -59l112 144l168 -133zM623 842
q-109 0 -172.5 -80t-63.5 -219q0 -79 22 -143l323 415q-51 27 -109 27zM623 244q108 0 171.5 80t63.5 219q0 76 -20 138l-322 -413q46 -24 107 -24z" />
    <glyph glyph-name="uni0218" unicode="&#x218;" horiz-adv-x="1427" 
d="M763 903q74 -11 113.5 -18t111 -25t113 -38t95 -56.5t82.5 -81t49.5 -110t20.5 -145.5q0 -216 -163.5 -339.5t-450.5 -123.5q-436 0 -665 288l226 206q151 -197 442 -197q121 0 194.5 43t73.5 113q0 29 -10.5 52t-34.5 40.5t-47 29t-66.5 22t-72.5 16.5t-83 15
q-71 12 -111 19.5t-108.5 26t-109 38.5t-91.5 55t-79 77.5t-47.5 104.5t-19.5 137q0 209 161 332.5t436 123.5q198 0 360.5 -67t263.5 -191l-227 -206q-63 78 -169.5 122.5t-231.5 44.5q-113 0 -181 -40.5t-68 -106.5q0 -26 10 -47.5t31.5 -37t45 -27t61 -21t68.5 -15.5
t78 -13zM620 -286v210h277v-217q0 -65 -44 -113.5t-132 -89.5l-64 100q57 28 82 51.5t25 58.5h-144z" />
    <glyph glyph-name="uni0219" unicode="&#x219;" horiz-adv-x="1100" 
d="M641 678q69 -10 124 -24t110 -40.5t91.5 -62.5t59.5 -91.5t23 -125.5q0 -120 -65 -205t-172 -124.5t-247 -39.5q-343 0 -535 195l184 194q126 -132 357 -132q81 0 124.5 23t43.5 65q0 45 -50.5 66t-183.5 40q-197 27 -304 111t-107 241q0 162 127.5 256t344.5 94
q286 0 469 -165l-173 -193q-114 101 -299 101q-73 0 -116.5 -20.5t-43.5 -60.5q0 -43 52 -63t186 -39zM433 -286v210h279v-217q0 -65 -44 -113.5t-133 -89.5l-63 100q57 28 82 51.5t25 58.5h-146z" />
    <glyph glyph-name="uni021A" unicode="&#x21a;" horiz-adv-x="1305" 
d="M1271 1475v-298h-451v-1177h-335v1177h-451v298h1237zM514 -286v210h278v-217q0 -64 -44.5 -113t-132.5 -90l-63 100q57 27 81.5 51t24.5 59h-144z" />
    <glyph glyph-name="uni021B" unicode="&#x21b;" horiz-adv-x="881" 
d="M829 10q-117 -40 -252 -40q-169 0 -266.5 78.5t-97.5 248.5v529h-170v259h170v306h317v-306h265v-259h-265v-446q0 -82 27.5 -110.5t96.5 -28.5q53 0 112 16zM368 -286v210h277v-217q0 -65 -44 -113.5t-132 -89.5l-63 100q57 27 81.5 51t24.5 59h-144z" />
    <glyph glyph-name="uni0237" unicode="&#x237;" horiz-adv-x="555" 
d="M55 -383q-106 0 -193 32l60 248q53 -14 93 -14q57 0 80.5 27.5t23.5 96.5v1078h317v-1118q0 -188 -88 -269t-293 -81z" />
    <glyph glyph-name="uni0259" unicode="&#x259;" horiz-adv-x="1195" 
d="M565 1114q258 0 413 -153.5t155 -405.5q0 -263 -149 -423.5t-392 -160.5q-238 0 -385.5 166t-147.5 432v69h747q-36 223 -251 223q-149 0 -245 -120l-213 163q79 101 199.5 155.5t268.5 54.5zM593 225q81 0 135.5 53.5t74.5 155.5h-419q20 -100 74.5 -154.5t134.5 -54.5z
" />
    <glyph glyph-name="h.sups" unicode="&#x2b0;" horiz-adv-x="806" 
d="M504 1493q102 0 171.5 -63t69.5 -189v-476h-242v419q0 105 -87 105q-46 0 -74.5 -34t-28.5 -90v-400h-242v958h242v-318q27 39 77 63.5t114 24.5z" />
    <glyph glyph-name="j.sups" unicode="&#x2b2;" horiz-adv-x="369" 
d="M62 1548v175h248v-175h-248zM30 515q-74 0 -140 22l44 186q33 -8 63 -8q37 0 53 17t16 58v685h242v-708q0 -138 -62.5 -195t-215.5 -57z" />
    <glyph glyph-name="r.sups" unicode="&#x2b3;" horiz-adv-x="596" 
d="M498 1491q36 0 89 -12l-35 -209q-27 7 -83 7q-71 0 -112.5 -48t-41.5 -129v-335h-243v710h233v-104q21 55 72.5 87.5t120.5 32.5z" />
    <glyph glyph-name="w.sups" unicode="&#x2b7;" horiz-adv-x="1188" 
d="M923 1475h248l-201 -710h-235l-137 448l-138 -448h-237l-206 710h254l96 -407l122 407h217l121 -406z" />
    <glyph glyph-name="y.sups" unicode="&#x2b8;" horiz-adv-x="804" 
d="M531 1475h261l-294 -764q-24 -61 -53.5 -101.5t-65 -60.5t-70 -28t-79.5 -8q-88 0 -170 25l59 185q53 -15 74 -15q60 0 76 44l22 54l-279 669h251l141 -397z" />
    <glyph glyph-name="circumflex" unicode="&#x2c6;" horiz-adv-x="614" 
d="M672 1192h-259l-113 160l-113 -160h-260l228 330h290z" />
    <glyph glyph-name="caron" unicode="&#x2c7;" horiz-adv-x="614" 
d="M413 1522h259l-227 -330h-290l-228 330h260l113 -160z" />
    <glyph glyph-name="uni02C9" unicode="&#x2c9;" horiz-adv-x="642" 
d="M17 1253v197h606v-197h-606z" />
    <glyph glyph-name="breve" unicode="&#x2d8;" horiz-adv-x="747" 
d="M361 1181q-153 0 -251.5 93.5t-107.5 247.5h217q8 -68 47.5 -110t94.5 -42t95 42t49 110h217q-9 -154 -108.5 -247.5t-252.5 -93.5z" />
    <glyph glyph-name="dotaccent" unicode="&#x2d9;" horiz-adv-x="614" 
d="M118 1215v260h329v-260h-329z" />
    <glyph glyph-name="ring" unicode="&#x2da;" horiz-adv-x="614" 
d="M299 1176q-110 0 -184.5 72t-74.5 180t74.5 180t184.5 72t184 -72.5t74 -179.5q0 -108 -74 -180t-184 -72zM299 1337q37 0 60 25.5t23 65.5q0 41 -23 66.5t-60 25.5q-38 0 -61 -25.5t-23 -66.5t23 -66t61 -25z" />
    <glyph glyph-name="ogonek" unicode="&#x2db;" horiz-adv-x="614" 
d="M283 -428q-128 0 -206 61.5t-78 161.5q0 81 62 148t179 113l146 -29q-78 -38 -122 -83.5t-44 -88.5q0 -35 25 -56t67 -21q46 0 100 31l72 -182q-85 -55 -201 -55z" />
    <glyph glyph-name="tilde" unicode="&#x2dc;" horiz-adv-x="863" 
d="M565 1208q-78 0 -164 50q-63 36 -99 36q-31 0 -61 -19t-72 -66l-161 160q83 93 149 128.5t140 35.5q82 0 163 -50q57 -37 98 -37q33 0 62.5 20t72.5 65l161 -159q-83 -93 -149 -128.5t-140 -35.5z" />
    <glyph glyph-name="hungarumlaut" unicode="&#x2dd;" horiz-adv-x="881" 
d="M10 1194l167 345h309l-229 -345h-247zM416 1194l167 345h309l-229 -345h-247z" />
    <glyph glyph-name="l.sups" unicode="&#x2e1;" horiz-adv-x="384" 
d="M71 765v958h242v-958h-242z" />
    <glyph glyph-name="s.sups" unicode="&#x2e2;" horiz-adv-x="738" 
d="M381 741q-218 0 -358 120l121 150q101 -82 242 -82q87 0 87 42q0 24 -27 34.5t-112 21.5q-274 35 -274 234q0 108 87.5 172.5t237.5 64.5q190 0 316 -99l-116 -148q-90 61 -203 61q-83 0 -83 -39q0 -24 29.5 -35t112.5 -21q269 -33 269 -226q0 -122 -92 -186t-237 -64z
" />
    <glyph glyph-name="x.sups" unicode="&#x2e3;" horiz-adv-x="787" 
d="M767 765h-259l-113 190l-112 -190h-263l236 370l-221 340h262l98 -176l99 176h259l-223 -340z" />
    <glyph glyph-name="gravecomb" unicode="&#x300;" horiz-adv-x="0" 
d="M-631 1194l-228 345h308l167 -345h-247z" />
    <glyph glyph-name="acutecomb" unicode="&#x301;" horiz-adv-x="0" 
d="M-859 1194l167 345h308l-229 -345h-246z" />
    <glyph glyph-name="uni0302" unicode="&#x302;" horiz-adv-x="0" 
d="M-250 1192h-259l-113 160l-113 -160h-259l227 330h291z" />
    <glyph glyph-name="tildecomb" unicode="&#x303;" horiz-adv-x="0" 
d="M-487 1208q-80 0 -164 50q-63 36 -100 36q-31 0 -61 -19t-72 -66l-160 160q84 93 149 128.5t138 35.5q83 0 164 -50q57 -37 98 -37q33 0 63.5 20t72.5 65l160 -159q-83 -93 -148.5 -128.5t-139.5 -35.5z" />
    <glyph glyph-name="uni0304" unicode="&#x304;" horiz-adv-x="0" 
d="M-925 1253v197h606v-197h-606z" />
    <glyph glyph-name="uni0306" unicode="&#x306;" horiz-adv-x="0" 
d="M-622 1181q-153 0 -251.5 93.5t-108.5 247.5h218q8 -68 47.5 -110t94.5 -42t95 42t48 110h218q-10 -154 -109 -247.5t-252 -93.5z" />
    <glyph glyph-name="uni0307" unicode="&#x307;" horiz-adv-x="0" 
d="M-786 1215v260h329v-260h-329z" />
    <glyph glyph-name="uni0308" unicode="&#x308;" horiz-adv-x="0" 
d="M-971 1220v255h286v-255h-286zM-558 1220v255h286v-255h-286z" />
    <glyph glyph-name="uni030A" unicode="&#x30a;" horiz-adv-x="0" 
d="M-622 1176q-110 0 -184.5 72t-74.5 180t74.5 180t184.5 72t184 -72.5t74 -179.5q0 -108 -74 -180t-184 -72zM-622 1337q37 0 60 25.5t23 65.5q0 41 -23 66.5t-60 25.5q-38 0 -61 -25.5t-23 -66.5t23 -66t61 -25z" />
    <glyph glyph-name="uni030B" unicode="&#x30b;" horiz-adv-x="0" 
d="M-1063 1194l167 345h309l-229 -345h-247zM-656 1194l167 345h308l-230 -345h-245z" />
    <glyph glyph-name="uni030C" unicode="&#x30c;" horiz-adv-x="0" 
d="M-509 1522h259l-226 -330h-291l-227 330h259l113 -160z" />
    <glyph glyph-name="uni0312" unicode="&#x312;" horiz-adv-x="0" 
d="M-650 1412h144v-210h-277v217q0 65 44 113.5t132 89.5l63 -99q-56 -27 -81 -51.5t-25 -59.5z" />
    <glyph glyph-name="uni0313" unicode="&#x313;" horiz-adv-x="0" 
d="M-395 1475h350v-360q0 -123 -42.5 -203.5t-154.5 -166.5l-117 132q80 49 108 107.5t28 140.5h-172v350z" />
    <glyph glyph-name="dotbelowcomb" unicode="&#x323;" horiz-adv-x="0" 
d="M-786 -333v259h329v-259h-329z" />
    <glyph glyph-name="uni0324" unicode="&#x324;" horiz-adv-x="0" 
d="M-971 -330v256h286v-256h-286zM-558 -330v256h286v-256h-286z" />
    <glyph glyph-name="uni0325" unicode="&#x325;" horiz-adv-x="0" 
d="M-622 -581q-110 0 -184.5 72.5t-74.5 180.5t74.5 180t184.5 72t184 -72.5t74 -179.5q0 -108 -74 -180.5t-184 -72.5zM-622 -419q37 0 60 25.5t23 65.5t-23 65.5t-60 25.5t-60.5 -25t-23.5 -66t23 -66t61 -25z" />
    <glyph glyph-name="uni0326" unicode="&#x326;" horiz-adv-x="0" 
d="M-381 -76h278v-217q0 -64 -44.5 -113t-132.5 -90l-63 100q57 27 81.5 51t24.5 59h-144v210z" />
    <glyph glyph-name="uni0327" unicode="&#x327;" horiz-adv-x="0" 
d="M-811 -359l121 372h258l-121 -372h-258z" />
    <glyph glyph-name="uni0328" unicode="&#x328;" horiz-adv-x="0" 
d="M-582 -428q-127 0 -204.5 61.5t-77.5 161.5q0 81 61 148t178 113l147 -29q-78 -38 -122 -83.5t-44 -88.5q0 -35 25.5 -56t66.5 -21q46 0 100 31l72 -182q-85 -55 -202 -55z" />
    <glyph glyph-name="uni032E" unicode="&#x32e;" horiz-adv-x="0" 
d="M-622 -416q-153 0 -251.5 93t-108.5 248h218q8 -68 47 -110t95 -42t95.5 42t47.5 110h218q-10 -155 -109 -248t-252 -93z" />
    <glyph glyph-name="uni0331" unicode="&#x331;" horiz-adv-x="0" 
d="M-925 -271v196h606v-196h-606z" />
    <glyph glyph-name="uni0394" unicode="&#x394;" horiz-adv-x="1454" 
d="M921 1475l454 -1207v-268h-1296v268l462 1207h380zM444 301h571l-285 788z" />
    <glyph glyph-name="uni03A9" unicode="&#x3a9;" horiz-adv-x="1649" 
d="M55 0v301h248q-100 80 -153.5 205t-53.5 285q0 155 52 287.5t146 227.5t231 148.5t300 53.5t299.5 -53.5t230.5 -148.5t146 -227.5t52 -287.5q0 -160 -53 -285t-153 -205h247v-301h-644v284q123 59 190.5 180t67.5 287q0 204 -105 326t-278 122t-278.5 -122t-105.5 -326
q0 -166 67.5 -287t190.5 -180v-284h-644z" />
    <glyph glyph-name="uni03BC" unicode="&#x3bc;" horiz-adv-x="1229" 
d="M794 1085h317v-1085h-317v112q-37 -60 -113 -100.5t-172 -40.5q-30 0 -73 9v-379h-317v1484h317v-651q0 -95 42.5 -141t117.5 -46q91 0 144.5 66t53.5 159v613z" />
    <glyph glyph-name="pi" unicode="&#x3c0;" horiz-adv-x="1396" 
d="M1354 825h-201v-510q0 -41 12.5 -55.5t46.5 -14.5q44 0 78 14l50 -245q-92 -32 -189 -32q-315 0 -315 277v566h-275v-825h-317v825h-201v260h1311v-260z" />
    <glyph glyph-name="uni0E3F" unicode="&#xe3f;" horiz-adv-x="1413" 
d="M1091 729q117 -39 175 -124t58 -202q0 -187 -118.5 -295t-332.5 -108h-20v-183h-274v183h-417v1423h417v184h274v-184q209 -3 325.5 -104t116.5 -271q0 -109 -53 -190.5t-151 -128.5zM487 1137v-295h92v295h-92zM966 989q0 56 -30 93.5t-83 49.5v-284q54 12 83.5 49
t29.5 92zM487 286h92v309h-92v-309zM853 287q65 5 103 47t38 108q0 64 -38 105.5t-103 46.5v-307z" />
    <glyph glyph-name="a.sups" unicode="&#x1d43;" horiz-adv-x="756" 
d="M356 1490q336 0 336 -292v-433h-232v64q-54 -84 -188 -84q-99 0 -166.5 61t-67.5 163q0 109 77.5 166.5t232.5 57.5h101v18q0 89 -114 89q-82 0 -139 -57l-124 145q94 102 284 102zM450 1017v32h-79q-106 0 -106 -69q0 -32 21 -51.5t57 -19.5q42 0 74.5 32.5t32.5 75.5z
" />
    <glyph glyph-name="b.sups" unicode="&#x1d47;" horiz-adv-x="839" 
d="M505 1493q131 0 214 -103.5t83 -270.5q0 -166 -83 -269.5t-214 -103.5q-66 0 -120.5 28.5t-85.5 70.5v-79h-228v958h237v-322q74 91 197 91zM433 945q59 0 93 47t34 127q0 82 -33.5 128.5t-93.5 46.5q-59 0 -95 -46t-36 -129q0 -82 36 -128t95 -46z" />
    <glyph glyph-name="d.sups" unicode="&#x1d48;" horiz-adv-x="842" 
d="M531 1723h243v-958h-233v78q-31 -42 -84 -70t-116 -28q-134 0 -218.5 103.5t-84.5 270.5t84.5 270.5t218.5 103.5q118 0 190 -89v319zM411 949q58 0 93 44.5t35 125.5t-35 126t-93 45q-59 0 -92.5 -46t-33.5 -125q0 -78 33.5 -124t92.5 -46z" />
    <glyph glyph-name="e.sups" unicode="&#x1d49;" horiz-adv-x="788" 
d="M283 1053q21 -121 142 -121q91 0 154 73l147 -126q-113 -134 -311 -134q-169 0 -273 100.5t-104 264.5q0 172 99 277t260 105t259.5 -112.5t98.5 -296.5v-30h-472zM397 1312q-43 0 -73.5 -30.5t-40.5 -95.5h230q-9 64 -40 95t-76 31z" />
    <glyph glyph-name="g.sups" unicode="&#x1d4d;" horiz-adv-x="847" 
d="M543 1475h232v-647q0 -145 -106 -230t-287 -85q-200 0 -320 101l113 165q87 -71 202 -71q78 0 116.5 39t38.5 91v49q-66 -94 -184 -94q-139 0 -224.5 97t-85.5 252q0 156 85.5 253.5t224.5 97.5q67 0 117 -29.5t78 -73.5v85zM410 990q59 0 94.5 41t35.5 111
q0 71 -35.5 112t-94.5 41t-94 -41.5t-35 -111.5q0 -69 35 -110.5t94 -41.5z" />
    <glyph glyph-name="k.sups" unicode="&#x1d4f;" horiz-adv-x="802" 
d="M521 765l-140 253l-66 -75v-178h-242v958h242v-476l194 228h273l-246 -281l248 -429h-263z" />
    <glyph glyph-name="m.sups" unicode="&#x1d50;" horiz-adv-x="1203" 
d="M921 1493q93 0 156.5 -58.5t63.5 -177.5v-492h-243v424q0 100 -76 100q-44 0 -69 -32t-25 -87v-405h-243v424q0 100 -76 100q-43 0 -68.5 -32t-25.5 -87v-405h-242v710h232v-85q59 103 204 103q62 0 113 -27.5t79 -82.5q33 45 92.5 77.5t127.5 32.5z" />
    <glyph glyph-name="o.sups" unicode="&#x1d52;" horiz-adv-x="827" 
d="M414 745q-166 0 -271 104t-105 270t105 270t271 104t271 -104t105 -270q0 -165 -105.5 -269.5t-270.5 -104.5zM414 950q60 0 94.5 45t34.5 124t-34.5 124.5t-94.5 45.5t-94.5 -45.5t-34.5 -124.5t34.5 -124t94.5 -45z" />
    <glyph glyph-name="p.sups" unicode="&#x1d56;" horiz-adv-x="844" 
d="M510 1494q131 0 214.5 -103.5t83.5 -270.5t-83.5 -270.5t-214.5 -103.5q-121 0 -195 91v-306h-243v944h233v-80q31 42 85 70.5t120 28.5zM436 950q59 0 92 45.5t33 124.5t-33 124.5t-92 45.5q-58 0 -93 -44.5t-35 -125.5t35 -125.5t93 -44.5z" />
    <glyph glyph-name="t.sups" unicode="&#x1d57;" horiz-adv-x="623" 
d="M552 958l46 -184q-85 -29 -184 -29q-117 0 -187 56t-70 173v305h-113v196h113v202h243v-202h171v-196h-171v-239q0 -51 17.5 -70t63.5 -19q33 0 71 7z" />
    <glyph glyph-name="u.sups" unicode="&#x1d58;" horiz-adv-x="808" 
d="M494 1475h242v-710h-234v83q-25 -44 -77.5 -73t-121.5 -29q-102 0 -172 63.5t-70 189.5v476h244v-418q0 -107 86 -107q46 0 74.5 34t28.5 90v401z" />
    <glyph glyph-name="v.sups" unicode="&#x1d5b;" horiz-adv-x="797" 
d="M532 1475h253l-267 -710h-238l-268 710h254l132 -434z" />
    <glyph glyph-name="c.sups" unicode="&#x1d9c;" horiz-adv-x="769" 
d="M408 745q-164 0 -267 102.5t-103 269.5q0 169 102 272t269 103q228 0 327 -198l-200 -93q-24 47 -53 66.5t-70 19.5q-62 0 -94.5 -46.5t-32.5 -121.5q0 -79 34 -124t93 -45q41 0 70 20.5t53 72.5l201 -90q-60 -120 -141 -164t-188 -44z" />
    <glyph glyph-name="f.sups" unicode="&#x1da0;" horiz-adv-x="584" 
d="M386 1496v-21h168v-196h-168v-514h-244v514h-98v196h98v32q0 112 74.5 174t199.5 62q77 0 153 -23l-34 -166q-48 11 -74 11q-39 0 -57 -16.5t-18 -52.5z" />
    <glyph glyph-name="z.sups" unicode="&#x1dbb;" horiz-adv-x="684" 
d="M35 765v181l312 333h-296v196h585v-181l-312 -333h324v-196h-613z" />
    <glyph glyph-name="Wgrave" unicode="&#x1e80;" horiz-adv-x="2213" 
d="M1282 1570h-247l-229 346h309zM1816 1475h356l-442 -1475h-354l-266 976l-266 -976h-356l-446 1475h364l266 -1005l263 1005h351l262 -1005z" />
    <glyph glyph-name="wgrave" unicode="&#x1e81;" horiz-adv-x="1778" 
d="M1066 1194h-247l-229 345h308zM1423 1085h332l-315 -1085h-317l-230 736l-230 -736h-319l-319 1085h336l173 -687l203 687h311l204 -688z" />
    <glyph glyph-name="Wacute" unicode="&#x1e82;" horiz-adv-x="2213" 
d="M1409 1916l-229 -346h-247l167 346h309zM1816 1475h356l-442 -1475h-354l-266 976l-266 -976h-356l-446 1475h364l266 -1005l263 1005h351l262 -1005z" />
    <glyph glyph-name="wacute" unicode="&#x1e83;" horiz-adv-x="1778" 
d="M1190 1539l-229 -345h-247l167 345h309zM1423 1085h332l-315 -1085h-317l-230 736l-230 -736h-319l-319 1085h336l173 -687l203 687h311l204 -688z" />
    <glyph glyph-name="Wdieresis" unicode="&#x1e84;" horiz-adv-x="2213" 
d="M1036 1844v-256h-285v256h285zM1464 1844v-256h-286v256h286zM1816 1475h356l-442 -1475h-354l-266 976l-266 -976h-356l-446 1475h364l266 -1005l263 1005h351l262 -1005z" />
    <glyph glyph-name="wdieresis" unicode="&#x1e85;" horiz-adv-x="1778" 
d="M826 1475v-255h-285v255h285zM1239 1475v-255h-286v255h286zM1423 1085h332l-315 -1085h-317l-230 736l-230 -736h-319l-319 1085h336l173 -687l203 687h311l204 -688z" />
    <glyph glyph-name="uni1E9E" unicode="&#x1e9e;" horiz-adv-x="1470" 
d="M1014 898q64 -9 126 -40t117 -84t88.5 -136.5t33.5 -185.5q0 -213 -134 -344t-357 -131q-125 0 -274 31l53 279q113 -27 178 -27q93 0 144 52t51 141t-47.5 143.5t-125.5 54.5q-44 0 -85 -18l-162 228l290 317h-240q-111 0 -164 -64.5t-53 -197.5v-916h-335v959
q0 241 128.5 378.5t379.5 137.5h683v-256z" />
    <glyph glyph-name="Ygrave" unicode="&#x1ef2;" horiz-adv-x="1361" 
d="M856 1570h-247l-229 346h309zM984 1475h359l-493 -887v-588h-335v588l-496 887h361l302 -586z" />
    <glyph glyph-name="ygrave" unicode="&#x1ef3;" horiz-adv-x="1184" 
d="M771 1194h-247l-228 345h308zM824 1085h344l-466 -1200q-25 -66 -56.5 -114.5t-65 -78.5t-74 -48t-80.5 -24.5t-89 -6.5q-127 0 -233 33l76 245q71 -19 110 -19q45 0 72.5 15.5t43.5 57.5l39 105l-430 1035h344l239 -674z" />
    <glyph glyph-name="uni2007" unicode="&#x2007;" horiz-adv-x="614" 
 />
    <glyph glyph-name="thinspace" unicode="&#x2009;" horiz-adv-x="215" 
 />
    <glyph glyph-name="uni2011" unicode="&#x2011;" horiz-adv-x="809" 
d="M100 456v261h610v-261h-610z" />
    <glyph glyph-name="endash" unicode="&#x2013;" horiz-adv-x="1167" 
d="M100 456v261h968v-261h-968z" />
    <glyph glyph-name="emdash" unicode="&#x2014;" horiz-adv-x="2004" 
d="M100 456v261h1806v-261h-1806z" />
    <glyph glyph-name="quoteleft" unicode="&#x2018;" horiz-adv-x="557" 
d="M282 1118h172v-348h-351v358q0 124 42.5 204t154.5 166l119 -130q-81 -49 -109 -108.5t-28 -141.5z" />
    <glyph glyph-name="quoteright" unicode="&#x2019;" horiz-adv-x="557" 
d="M103 1475h351v-360q0 -123 -42.5 -203.5t-154.5 -166.5l-118 132q80 49 108 107.5t28 140.5h-172v350z" />
    <glyph glyph-name="quotesinglbase" unicode="&#x201a;" horiz-adv-x="557" 
d="M103 349h351v-359q0 -124 -42 -203.5t-155 -166.5l-118 131q80 49 108 108t28 141h-172v349z" />
    <glyph glyph-name="quotedblleft" unicode="&#x201c;" horiz-adv-x="1020" 
d="M419 1374q-81 -48 -109 -107.5t-28 -141.5h172v-349h-351v360q0 124 42 203t155 166zM745 1125h173v-349h-351v360q0 124 42 203t155 166l118 -131q-80 -48 -108.5 -107.5t-28.5 -141.5z" />
    <glyph glyph-name="quotedblright" unicode="&#x201d;" horiz-adv-x="1020" 
d="M103 1125v350h351v-360q0 -123 -42.5 -203.5t-154.5 -166.5l-118 132q80 49 108 107.5t28 140.5h-172zM567 1475h351v-360q0 -123 -42.5 -203.5t-154.5 -166.5l-119 132q81 49 109 107.5t28 140.5h-172v350z" />
    <glyph glyph-name="quotedblbase" unicode="&#x201e;" horiz-adv-x="1020" 
d="M103 0v349h351v-359q0 -124 -42 -203.5t-155 -166.5l-118 131q80 49 108 108t28 141h-172zM567 349h351v-359q0 -124 -42 -203.5t-155 -166.5l-119 131q81 49 109 108t28 141h-172v349z" />
    <glyph glyph-name="dagger" unicode="&#x2020;" horiz-adv-x="768" 
d="M720 1249v-205h-215v-576h-242v576h-215v205h215v226h242v-226h215z" />
    <glyph glyph-name="daggerdbl" unicode="&#x2021;" horiz-adv-x="768" 
d="M720 1058h-215v-173h215v-206h-215v-211h-242v211h-215v206h215v173h-215v206h215v211h242v-211h215v-206z" />
    <glyph glyph-name="bullet" unicode="&#x2022;" horiz-adv-x="773" 
d="M387 364q-105 0 -181 75.5t-76 181.5q0 105 76 180.5t181 75.5q106 0 181 -75t75 -181t-75 -181.5t-181 -75.5z" />
    <glyph glyph-name="ellipsis" unicode="&#x2026;" horiz-adv-x="1602" 
d="M103 0v349h351v-349h-351zM626 0v349h350v-349h-350zM1149 0v349h349v-349h-349z" />
    <glyph glyph-name="perthousand" unicode="&#x2030;" horiz-adv-x="2918" 
d="M494 658q-171 0 -279.5 109t-108.5 286t108.5 285.5t279.5 108.5t279 -108.5t108 -285.5t-108 -286t-279 -109zM441 0l910 1423h264l-909 -1423h-265zM494 876q66 0 106 48.5t40 128.5q0 79 -40 128t-106 49t-106.5 -49t-40.5 -128t40.5 -128t106.5 -49zM1555 -24
q-171 0 -279.5 109t-108.5 286t108 285.5t280 108.5t280 -108.5t108 -285.5t-108.5 -286t-279.5 -109zM2424 -24q-171 0 -279 109t-108 286t108 285.5t279 108.5q172 0 280 -108.5t108 -285.5t-108.5 -286t-279.5 -109zM1555 194q65 0 105.5 49t40.5 128q0 80 -40.5 129
t-105.5 49q-66 0 -106 -49t-40 -129q0 -79 40 -128t106 -49zM2424 194q66 0 106 49t40 128q0 80 -40 129t-106 49q-65 0 -105.5 -49t-40.5 -129q0 -79 40.5 -128t105.5 -49z" />
    <glyph glyph-name="minute" unicode="&#x2032;" horiz-adv-x="598" 
d="M103 905l104 570h288l-147 -570h-245z" />
    <glyph glyph-name="second" unicode="&#x2033;" horiz-adv-x="989" 
d="M103 905l104 570h288l-147 -570h-245zM496 905l103 570h287l-146 -570h-244z" />
    <glyph glyph-name="uni2034" unicode="&#x2034;" horiz-adv-x="1381" 
d="M103 905l104 570h288l-147 -570h-245zM496 905l103 570h287l-146 -570h-244zM887 905l103 570h288l-146 -570h-245z" />
    <glyph glyph-name="guilsinglleft" unicode="&#x2039;" horiz-adv-x="726" 
d="M438 133l-356 440l356 441l192 -167l-222 -274l222 -273z" />
    <glyph glyph-name="guilsinglright" unicode="&#x203a;" horiz-adv-x="726" 
d="M288 133l-192 167l222 273l-222 274l192 167l356 -441z" />
    <glyph glyph-name="fraction" unicode="&#x2044;" horiz-adv-x="462" 
d="M-372 0l942 1475h266l-942 -1475h-266z" />
    <glyph glyph-name="zero.sups" unicode="&#x2070;" horiz-adv-x="904" 
d="M455 744q-191 0 -298 130t-107 355t107 354.5t298 129.5q190 0 296.5 -129.5t106.5 -354.5t-106.5 -355t-296.5 -130zM455 965q71 0 110 71t39 193t-39 193t-110 71q-72 0 -111.5 -71t-39.5 -193t39.5 -193t111.5 -71z" />
    <glyph glyph-name="i.sups" unicode="&#x2071;" horiz-adv-x="369" 
d="M62 1548v175h248v-175h-248zM66 765v710h241v-710h-241z" />
    <glyph glyph-name="four.sups" unicode="&#x2074;" horiz-adv-x="820" 
d="M799 1156v-209h-119v-179h-249v179h-399v203l382 543h266v-537h119zM259 1156h172v257z" />
    <glyph glyph-name="five.sups" unicode="&#x2075;" horiz-adv-x="829" 
d="M465 1380q142 0 226.5 -80.5t84.5 -218.5q0 -152 -101 -244t-268 -92q-133 0 -228 58t-134 147l207 114q44 -102 147 -102q55 0 89 33.5t34 87.5q0 52 -31 84t-83 32q-78 0 -118 -70h-219l70 563h594v-209h-401l-20 -144q68 41 151 41z" />
    <glyph glyph-name="six.sups" unicode="&#x2076;" horiz-adv-x="837" 
d="M476 1367q144 0 233 -81.5t89 -217.5q0 -145 -97.5 -233.5t-254.5 -88.5q-144 0 -229.5 67t-131.5 187q-35 91 -35 230q0 223 111 354t297 131q213 0 332 -167l-180 -131q-53 85 -143 85q-77 0 -121 -53t-52 -151q77 69 182 69zM441 948q54 0 85.5 33t31.5 86t-31.5 86
t-86.5 33t-89 -34t-34 -85t34.5 -85t89.5 -34z" />
    <glyph glyph-name="seven.sups" unicode="&#x2077;" horiz-adv-x="744" 
d="M32 1693h694v-203q-142 -144 -221.5 -335.5t-85.5 -386.5h-265q8 191 87.5 381.5t215.5 334.5h-425v209z" />
    <glyph glyph-name="eight.sups" unicode="&#x2078;" horiz-adv-x="845" 
d="M420 745q-168 0 -271.5 78t-103.5 204q0 153 173 214q-60 23 -101 81.5t-41 123.5q0 109 95 188.5t249 79.5t249 -79.5t95 -188.5q0 -65 -41 -123.5t-101 -81.5q173 -61 173 -214q0 -126 -103.5 -204t-271.5 -78zM420 1322q52 0 83.5 27.5t31.5 70.5q0 45 -31.5 74
t-83.5 29t-83.5 -29t-31.5 -74q0 -43 31.5 -70.5t83.5 -27.5zM420 939q57 0 94 31t37 78q0 46 -37 74t-94 28t-94 -28t-37 -74q0 -47 37 -78t94 -31z" />
    <glyph glyph-name="nine.sups" unicode="&#x2079;" horiz-adv-x="837" 
d="M753 1464q34 -92 34 -230q0 -223 -109 -357t-284 -134q-116 0 -197.5 38.5t-145.5 126.5l174 136q28 -45 65.5 -66.5t94.5 -21.5q68 0 111 54.5t50 158.5q-76 -67 -184 -67q-146 0 -234 80t-88 213q0 143 96.5 230.5t255.5 87.5q145 0 231 -65t130 -184zM398 1283
q55 0 88.5 32t33.5 82t-33.5 81.5t-88.5 31.5q-54 0 -86 -30.5t-32 -82.5q0 -51 32 -82.5t86 -31.5z" />
    <glyph glyph-name="n.sups" unicode="&#x207f;" horiz-adv-x="806" 
d="M505 1493q102 0 171 -63t69 -189v-476h-242v419q0 105 -86 105q-47 0 -75.5 -34t-28.5 -90v-400h-242v710h234v-85q24 45 76 74t124 29z" />
    <glyph glyph-name="zero.subs" unicode="&#x2080;" horiz-adv-x="904" 
d="M455 -258q-191 0 -298 129.5t-107 354.5t107 355t298 130q190 0 296.5 -130t106.5 -355t-106.5 -354.5t-296.5 -129.5zM455 -38q71 0 110 71t39 193t-39 193t-110 71q-72 0 -111.5 -71t-39.5 -193t39.5 -193t111.5 -71z" />
    <glyph glyph-name="one.subs" unicode="&#x2081;" horiz-adv-x="680" 
d="M590 690v-924h-248v629l-161 -142l-142 150l321 287h230z" />
    <glyph glyph-name="two.subs" unicode="&#x2082;" horiz-adv-x="795" 
d="M402 -26h343v-208h-693v194l316 284q69 64 94 97t25 72q0 38 -25 61t-67 23q-54 0 -83 -37.5t-44 -100.5l-228 57q31 141 126.5 219t240.5 78q146 0 238.5 -81.5t92.5 -215.5q0 -84 -42 -150.5t-141 -154.5z" />
    <glyph glyph-name="three.subs" unicode="&#x2083;" horiz-adv-x="866" 
d="M647 230q135 -64 135 -208q0 -124 -98.5 -201.5t-259.5 -77.5q-140 0 -242 64t-142 178l213 87q50 -117 162 -117q54 0 84 26t30 67q0 37 -28.5 60.5t-73.5 23.5h-99v185h70q54 0 84 25.5t30 67.5q0 41 -27 66t-70 25q-108 0 -139 -120l-217 56q30 130 126 202.5
t242 72.5q150 0 243.5 -79.5t93.5 -201.5q0 -140 -117 -201z" />
    <glyph glyph-name="four.subs" unicode="&#x2084;" horiz-adv-x="820" 
d="M799 154v-209h-119v-179h-249v179h-399v202l382 543h266v-536h119zM259 154h172v257z" />
    <glyph glyph-name="five.subs" unicode="&#x2085;" horiz-adv-x="829" 
d="M465 378q142 0 226.5 -80.5t84.5 -218.5q0 -152 -101 -244t-268 -92q-133 0 -228 58t-134 147l207 113q44 -102 147 -102q55 0 89 34t34 88q0 52 -31 84t-83 32q-78 0 -118 -70h-219l70 562h594v-209h-401l-20 -143q68 41 151 41z" />
    <glyph glyph-name="six.subs" unicode="&#x2086;" horiz-adv-x="837" 
d="M476 365q144 0 233 -81.5t89 -217.5q0 -145 -97.5 -233.5t-254.5 -88.5q-144 0 -229.5 67t-131.5 187q-35 91 -35 229q0 223 111 354.5t297 131.5q213 0 332 -167l-180 -131q-53 85 -143 85q-77 0 -121 -53t-52 -151q77 69 182 69zM441 -54q54 0 85.5 33t31.5 86
t-31.5 85.5t-86.5 32.5t-89 -33.5t-34 -84.5t34.5 -85t89.5 -34z" />
    <glyph glyph-name="seven.subs" unicode="&#x2087;" horiz-adv-x="744" 
d="M32 690h694v-203q-142 -145 -221.5 -335.5t-85.5 -385.5h-265q8 191 87.5 380.5t215.5 334.5h-425v209z" />
    <glyph glyph-name="eight.subs" unicode="&#x2088;" horiz-adv-x="845" 
d="M420 -257q-168 0 -271.5 78t-103.5 204q0 153 173 214q-61 23 -101.5 81t-40.5 123q0 109 95 189t249 80t249 -80t95 -189q0 -65 -40.5 -123t-101.5 -81q173 -61 173 -214q0 -126 -103.5 -204t-271.5 -78zM420 319q52 0 83.5 28t31.5 71q0 45 -31.5 73.5t-83.5 28.5
t-83.5 -28.5t-31.5 -73.5q0 -43 31.5 -71t83.5 -28zM420 -63q57 0 94 30.5t37 77.5q0 46 -37 74t-94 28t-94 -28t-37 -74q0 -47 37 -77.5t94 -30.5z" />
    <glyph glyph-name="nine.subs" unicode="&#x2089;" horiz-adv-x="837" 
d="M753 462q34 -92 34 -231q0 -223 -109 -356.5t-284 -133.5q-116 0 -197.5 38.5t-145.5 126.5l174 136q28 -45 65.5 -66.5t94.5 -21.5q68 0 111 54.5t50 158.5q-77 -68 -184 -68q-146 0 -234 80t-88 213q0 143 96.5 231t255.5 88q145 0 231 -65t130 -184zM398 281
q55 0 88.5 31.5t33.5 81.5t-33.5 82t-88.5 32q-54 0 -86 -31t-32 -83q0 -51 32 -82t86 -31z" />
    <glyph glyph-name="n.subs" unicode="&#x2099;" horiz-adv-x="806" 
d="M497 725q103 0 171.5 -63t68.5 -187v-475h-225v422q0 114 -96 114q-52 0 -83.5 -38t-31.5 -96v-402h-225v707h218v-83q25 43 78 72t125 29z" />
    <glyph glyph-name="uni20A9" unicode="&#x20a9;" horiz-adv-x="2108" 
d="M2067 942h-176l-30 -115h206v-199h-261l-168 -628h-361l-153 635h-132l-152 -635h-364l-171 628h-263v199h209l-31 115h-178v200h124l-77 281h364l64 -287h307l66 287h335l65 -287h308l65 287h357l-75 -281h122v-200zM782 948h-224l29 -127h167zM1558 948h-226l30 -127
h167zM1037 821h42l-21 87zM670 450l42 185h-84zM1488 635h-84l42 -186z" />
    <glyph glyph-name="Euro" unicode="&#x20ac;" horiz-adv-x="1465" 
d="M1153 427l243 -166q-204 -295 -549 -295q-246 0 -407.5 131t-219.5 362h-158v200h131q-2 34 -2 53q0 18 2 52h-131v201h158q58 230 219 360.5t403 130.5q180 0 320 -69.5t230 -202.5l-245 -176q-98 166 -294 166q-214 0 -288 -209h391v-201h-428q-1 -16 -1 -51
q0 -37 1 -54h428v-200h-391q75 -209 291 -209q189 0 297 177z" />
    <glyph glyph-name="uni20B8" unicode="&#x20b8;" horiz-adv-x="1305" 
d="M35 1475h1237v-267h-1237v267zM1272 1079v-297h-452v-782h-335v782h-450v297h1237z" />
    <glyph glyph-name="uni20B9" unicode="&#x20b9;" horiz-adv-x="1168" 
d="M1149 1224h-279q55 -73 76 -162h203v-200h-200q-28 -161 -142.5 -255.5t-296.5 -104.5l466 -502h-380l-486 501v241h293q73 0 126.5 31.5t78.5 88.5h-498v200h497q-25 57 -78 88t-126 31h-293v242h1039v-199z" />
    <glyph glyph-name="uni20BA" unicode="&#x20ba;" horiz-adv-x="1320" 
d="M993 611l276 -71q-58 -252 -236 -396t-438 -144h-339v492l-180 -61v194l180 60v100l-180 -60v194l180 60v444h326v-352l350 118v-194l-350 -116v-102l350 117v-194l-350 -116v-304q160 0 268 87t143 244z" />
    <glyph glyph-name="uni20BC" unicode="&#x20bc;" horiz-adv-x="1765" 
d="M1020 1231q299 -38 464 -239t165 -530v-462h-326v421q0 203 -79 335.5t-224 174.5v-796h-275v796q-145 -42 -224 -174.5t-79 -335.5v-421h-325v462q0 329 164.5 530t463.5 239v192h275v-192z" />
    <glyph glyph-name="uni2113" unicode="&#x2113;" horiz-adv-x="1016" 
d="M888 304l78 -256q-74 -35 -169 -56t-181 -21q-192 0 -294 100.5t-102 288.5v26q-57 -22 -120 -45l-81 202q109 39 201 78v462q0 166 104.5 269.5t271.5 103.5q155 0 251 -98.5t96 -257.5q0 -183 -96.5 -318t-308.5 -252v-135q0 -80 27 -113t92 -33q112 0 231 55z
M538 1077v-273q140 120 140 268q0 52 -18 79.5t-50 27.5q-34 0 -53 -26.5t-19 -75.5z" />
    <glyph glyph-name="uni2117" unicode="&#x2117;" horiz-adv-x="1948" 
d="M974 1591q179 0 338.5 -66t274 -179.5t181.5 -272t67 -336.5t-67 -336.5t-181.5 -272t-274 -179.5t-338.5 -66q-178 0 -337.5 66t-274 179.5t-181.5 272t-67 336.5t67 336.5t181.5 272t274 179.5t337.5 66zM974 89q175 0 319 82.5t227.5 231.5t83.5 334t-83.5 334
t-227.5 231.5t-319 82.5q-131 0 -247 -48.5t-200 -133.5t-133 -206t-49 -260t49 -260t133 -206t200 -133.5t247 -48.5zM1081 1185q149 0 231 -79t82 -220q0 -138 -82.5 -215.5t-230.5 -77.5h-192v-293h-227v885h419zM1058 793q45 0 72.5 26t27.5 67q0 42 -27 67.5t-73 25.5
h-169v-186h169z" />
    <glyph glyph-name="uni2120" unicode="&#x2120;" horiz-adv-x="1680" 
d="M430 1211q34 -5 54 -9t53.5 -13t54.5 -19.5t46 -29t39.5 -41t24.5 -55.5t10 -73q0 -106 -83 -166.5t-227 -60.5q-197 0 -323 123l116 131q90 -82 214 -82q47 0 74.5 14t27.5 39q0 16 -9.5 27.5t-30.5 19.5t-40.5 12.5t-54.5 10.5q-46 9 -75.5 16t-71.5 24.5t-66 40
t-42 61t-18 89.5q0 105 79.5 166t213.5 61q181 0 303 -108l-108 -128q-91 64 -184 64q-103 0 -103 -49q0 -28 31.5 -41.5t94.5 -23.5zM1597 1475v-708h-192v386l-117 -386h-181l-115 381v-381h-193v708h259l140 -446l140 446h259z" />
    <glyph glyph-name="trademark" unicode="&#x2122;" horiz-adv-x="1617" 
d="M663 1475v-176h-207v-532h-193v532h-207v176h607zM1535 1475v-708h-194v384l-115 -384h-182l-114 381v-381h-194v708h259l141 -446l140 446h259z" />
    <glyph glyph-name="uni2126" unicode="&#x2126;" horiz-adv-x="1649" 
d="M55 0v301h248q-100 80 -153.5 205t-53.5 285q0 155 52 287.5t146 227.5t231 148.5t300 53.5t299.5 -53.5t230.5 -148.5t146 -227.5t52 -287.5q0 -160 -53 -285t-153 -205h247v-301h-644v284q123 59 190.5 180t67.5 287q0 204 -105 326t-278 122t-278.5 -122t-105.5 -326
q0 -166 67.5 -287t190.5 -180v-284h-644z" />
    <glyph glyph-name="estimated" unicode="&#x212e;" horiz-adv-x="1858" 
d="M930 -17q-198 0 -341 50.5t-258 159.5q-229 217 -229 544q0 332 232 546q118 109 258.5 160t337.5 51q180 0 315.5 -45t255.5 -142q117 -94 182 -246.5t73 -344.5h-1316q-11 0 -17 -2t-10.5 -10.5t-4.5 -25.5v-370q0 -31 38.5 -75t103.5 -87.5t167.5 -74t212.5 -30.5
q150 0 289.5 67t233.5 173h155q-155 -173 -310 -236q-89 -36 -165.5 -49t-202.5 -13zM441 763h971q24 0 30.5 7.5t6.5 28.5v362q0 58 -80 124t-204 111t-238 45q-104 0 -205 -32t-167 -76t-106.5 -87t-40.5 -69v-395q0 -19 33 -19z" />
    <glyph glyph-name="uni2150" unicode="&#x2150;" horiz-adv-x="2145" 
d="M1339 1475h266l-942 -1475h-266zM590 549h-248v630l-161 -143l-142 151l321 287h230v-925zM1347 925h694v-203q-142 -144 -221.5 -335.5t-85.5 -386.5h-266q8 190 88 380.5t216 335.5h-425v209z" />
    <glyph glyph-name="uni2151" unicode="&#x2151;" horiz-adv-x="2139" 
d="M1339 1475h266l-942 -1475h-266zM590 549h-248v630l-161 -143l-142 151l321 287h230v-925zM1999 698q35 -94 35 -230q0 -222 -109.5 -356.5t-284.5 -134.5q-116 0 -197.5 38.5t-145.5 126.5l174 137q55 -89 160 -89q68 0 111 54.5t50 158.5q-76 -67 -183 -67
q-146 0 -234.5 80t-88.5 213q0 143 96.5 230.5t255.5 87.5q145 0 231 -65t130 -184zM1645 517q55 0 88 32t33 82t-33 81.5t-88 31.5q-54 0 -86.5 -30.5t-32.5 -82.5q0 -51 32.5 -82.5t86.5 -31.5z" />
    <glyph glyph-name="uni2152" unicode="&#x2152;" horiz-adv-x="2859" 
d="M1339 1475h266l-942 -1475h-266zM590 549h-248v630l-161 -143l-142 151l321 287h230v-925zM2355 946q190 0 297 -129.5t107 -354.5t-107 -355t-297 -130q-191 0 -297.5 130t-106.5 355t106.5 354.5t297.5 129.5zM1809 925v-925h-247v630l-161 -143l-143 151l322 287h229z
M2355 198q71 0 110.5 71t39.5 193t-39.5 193t-110.5 71q-72 0 -111 -70.5t-39 -193.5t39 -193.5t111 -70.5z" />
    <glyph glyph-name="uni2153" unicode="&#x2153;" horiz-adv-x="2099" 
d="M1339 1475h266l-942 -1475h-266zM590 549h-248v630l-161 -143l-142 151l321 287h230v-925zM1880 466q135 -64 135 -209q0 -124 -98.5 -201.5t-259.5 -77.5q-140 0 -242 64t-142 178l213 87q50 -117 162 -117q54 0 84 26.5t30 67.5q0 37 -28.5 60.5t-73.5 23.5h-99v185h70
q54 0 84 25t30 67q0 41 -27 66t-70 25q-108 0 -139 -120l-217 57q30 130 126 202t242 72q150 0 243.5 -79t93.5 -201q0 -140 -117 -201z" />
    <glyph glyph-name="uni2154" unicode="&#x2154;" horiz-adv-x="2180" 
d="M368 1028q69 64 94 97t25 72q0 38 -25 61t-67 23q-54 0 -83 -37t-44 -100l-228 56q31 141 126.5 219t240.5 78q146 0 238.5 -81.5t92.5 -215.5q0 -84 -42 -150.5t-141 -154.5l-153 -136h343v-209h-693v194zM1420 1475h266l-943 -1475h-265zM1961 466q135 -64 135 -209
q0 -124 -98.5 -201.5t-259.5 -77.5q-140 0 -242 64t-142 178l213 87q50 -117 162 -117q54 0 84 26.5t30 67.5q0 37 -28.5 60.5t-73.5 23.5h-100v185h71q54 0 84 25t30 67q0 41 -27 66t-70 25q-108 0 -139 -120l-217 57q30 130 126 202t242 72q150 0 243.5 -79t93.5 -201
q0 -140 -117 -201z" />
    <glyph glyph-name="uni2155" unicode="&#x2155;" horiz-adv-x="2116" 
d="M1339 1475h266l-942 -1475h-266zM590 549h-248v630l-161 -143l-142 151l321 287h230v-925zM1698 613q142 0 226.5 -80.5t84.5 -218.5q0 -152 -101.5 -244t-268.5 -92q-133 0 -227.5 58t-133.5 147l207 114q44 -102 147 -102q55 0 89 33.5t34 87.5q0 52 -31.5 84t-83.5 32
q-77 0 -117 -70h-219l70 563h594v-209h-401l-20 -144q68 41 151 41z" />
    <glyph glyph-name="uni2156" unicode="&#x2156;" horiz-adv-x="2140" 
d="M368 1028q69 64 94 97t25 72q0 38 -25 61t-67 23q-54 0 -83 -37t-44 -100l-228 56q31 141 126.5 219t240.5 78q146 0 238.5 -81.5t92.5 -215.5q0 -84 -42 -150.5t-141 -154.5l-153 -136h343v-209h-693v194zM1420 1475h266l-943 -1475h-265zM1779 613q142 0 226.5 -80.5
t84.5 -218.5q0 -152 -101.5 -244t-268.5 -92q-133 0 -227.5 58t-133.5 147l207 114q44 -102 147 -102q55 0 89 33.5t34 87.5q0 52 -31.5 84t-83.5 32q-77 0 -117 -70h-220l71 563h594v-209h-401l-20 -144q68 41 151 41z" />
    <glyph glyph-name="uni2157" unicode="&#x2157;" horiz-adv-x="2228" 
d="M782 808q0 -124 -98.5 -201.5t-259.5 -77.5q-140 0 -242 64t-142 178l213 87q50 -117 162 -117q54 0 84 26.5t30 67.5q0 37 -28.5 60.5t-73.5 23.5h-99v185h70q54 0 84 25t30 67q0 41 -27 66t-70 25q-108 0 -139 -120l-217 57q30 130 126 202t242 72q150 0 243.5 -79
t93.5 -201q0 -140 -117 -201q135 -64 135 -209zM1470 1475h266l-942 -1475h-266zM1829 613q142 0 226.5 -80.5t84.5 -218.5q0 -152 -101.5 -244t-268.5 -92q-133 0 -227.5 58t-133.5 147l207 114q44 -102 147 -102q55 0 89 33.5t34 87.5q0 52 -31 84t-83 32q-78 0 -118 -70
h-219l70 563h594v-209h-401l-20 -144q68 41 151 41z" />
    <glyph glyph-name="uni2158" unicode="&#x2158;" horiz-adv-x="2104" 
d="M680 550h-249v179h-399v203l382 543h266v-537h119v-209h-119v-179zM1411 1475h265l-942 -1475h-265zM259 938h172v256zM1768 613q142 0 227 -80.5t85 -218.5q0 -152 -101.5 -244t-268.5 -92q-133 0 -227.5 58t-133.5 147l206 114q44 -102 148 -102q55 0 89 33.5t34 87.5
q0 52 -31.5 84t-83.5 32q-78 0 -118 -70h-219l71 563h594v-209h-402l-19 -144q68 41 150 41z" />
    <glyph glyph-name="uni2159" unicode="&#x2159;" horiz-adv-x="2132" 
d="M1339 1475h266l-942 -1475h-266zM590 549h-248v630l-161 -143l-142 151l321 287h230v-925zM1709 599q144 0 233 -81.5t89 -217.5q0 -145 -97.5 -233.5t-254.5 -88.5q-144 0 -229.5 67t-131.5 187q-35 91 -35 230q0 223 111 354t297 131q212 0 331 -167l-179 -131
q-53 85 -143 85q-77 0 -121 -53t-52 -151q77 69 182 69zM1674 180q54 0 85.5 33t31.5 86t-31.5 86t-86.5 33t-89 -34t-34 -85t34.5 -85t89.5 -34z" />
    <glyph glyph-name="uni215A" unicode="&#x215a;" horiz-adv-x="2139" 
d="M776 864q0 -152 -101 -244t-268 -92q-133 0 -228 58t-134 147l207 114q44 -103 147 -103q55 0 89 34t34 88q0 52 -31 84t-83 32q-79 0 -118 -70h-219l70 563h594v-209h-401l-20 -144q68 41 151 41q142 0 226.5 -80.5t84.5 -218.5zM1400 1475h265l-942 -1475h-265z
M1769 599q144 0 233 -81.5t89 -217.5q0 -145 -97 -233.5t-254 -88.5q-144 0 -230 67t-132 187q-35 91 -35 230q0 223 111 354t297 131q213 0 332 -167l-179 -131q-53 85 -144 85q-77 0 -121 -53t-52 -151q77 69 182 69zM1735 180q54 0 85 33t31 86t-31.5 86t-85.5 33
q-55 0 -89 -34t-34 -85t34.5 -85t89.5 -34z" />
    <glyph glyph-name="oneeighth" unicode="&#x215b;" horiz-adv-x="2078" 
d="M1339 1475h266l-942 -1475h-266zM590 549h-248v630l-161 -143l-142 151l321 287h230v-925zM1854 474q174 -61 174 -214q0 -126 -103.5 -204t-271.5 -78t-271.5 78t-103.5 204q0 153 173 214q-60 23 -101 81.5t-41 123.5q0 109 95 188.5t249 79.5t249 -79.5t95 -188.5
q0 -65 -41 -123.5t-102 -81.5zM1653 756q-52 0 -83.5 -29t-31.5 -74q0 -43 31.5 -70.5t83.5 -27.5t83 27.5t31 70.5q0 45 -31 74t-83 29zM1653 172q57 0 94 31t37 78q0 46 -37 74t-94 28t-94 -28t-37 -74q0 -47 37 -78t94 -31z" />
    <glyph glyph-name="threeeighths" unicode="&#x215c;" horiz-adv-x="2208" 
d="M782 808q0 -124 -98.5 -201.5t-259.5 -77.5q-140 0 -242 64t-142 178l213 87q50 -117 162 -117q54 0 84 26.5t30 67.5q0 37 -28.5 60.5t-73.5 23.5h-99v185h70q54 0 84 25t30 67q0 41 -27 66t-70 25q-108 0 -139 -120l-217 57q30 130 126 202t242 72q150 0 243.5 -79
t93.5 -201q0 -140 -117 -201q135 -64 135 -209zM1470 1475h266l-942 -1475h-266zM1986 474q173 -61 173 -214q0 -126 -103.5 -204t-271.5 -78t-271.5 78t-103.5 204q0 153 173 214q-60 23 -101 81.5t-41 123.5q0 109 95 188.5t249 79.5t249 -79.5t95 -188.5
q0 -65 -41 -123.5t-101 -81.5zM1784 756q-52 0 -83.5 -29t-31.5 -74q0 -43 31.5 -70.5t83.5 -27.5t83 27.5t31 70.5q0 45 -31 74t-83 29zM1784 172q57 0 94 31t37 78q0 46 -37 74t-94 28t-94 -28t-37 -74q0 -47 37 -78t94 -31z" />
    <glyph glyph-name="fiveeighths" unicode="&#x215d;" horiz-adv-x="2139" 
d="M776 864q0 -152 -101 -244t-268 -92q-133 0 -228 58t-134 147l207 114q44 -103 147 -103q55 0 89 34t34 88q0 52 -31 84t-83 32q-79 0 -118 -70h-219l70 563h594v-209h-401l-20 -144q68 41 151 41q142 0 226.5 -80.5t84.5 -218.5zM1400 1475h265l-942 -1475h-265z
M1915 474q173 -61 173 -214q0 -126 -103.5 -204t-271.5 -78t-271.5 78t-103.5 204q0 153 173 214q-60 23 -101 81.5t-41 123.5q0 109 95 188.5t249 79.5t249 -79.5t95 -188.5q0 -65 -41 -123.5t-101 -81.5zM1713 756q-52 0 -83.5 -29t-31.5 -74q0 -43 31.5 -70.5t83.5 -27.5
t83.5 27.5t31.5 70.5q0 45 -31.5 74t-83.5 29zM1713 172q57 0 94 31t37 78q0 46 -37 74t-94 28t-94 -28t-37 -74q0 -47 37 -78t94 -31z" />
    <glyph glyph-name="seveneighths" unicode="&#x215e;" horiz-adv-x="1971" 
d="M419 550h-265q8 191 87.5 381.5t215.5 334.5h-425v209h694v-203q-143 -144 -222 -335t-85 -387zM1233 1475h264l-942 -1475h-264zM1747 474q173 -61 173 -214q0 -126 -103.5 -204t-271.5 -78t-271.5 78t-103.5 204q0 153 173 214q-60 23 -101 81.5t-41 123.5
q0 109 95 188.5t249 79.5t249 -79.5t95 -188.5q0 -65 -41 -123.5t-101 -81.5zM1545 756q-52 0 -83 -29t-31 -74q0 -43 31 -70.5t83 -27.5t83.5 27.5t31.5 70.5q0 45 -31.5 74t-83.5 29zM1545 172q57 0 94 31t37 78q0 46 -37 74t-94 28t-94 -28t-37 -74q0 -47 37 -78t94 -31z
" />
    <glyph glyph-name="uni215F" unicode="&#x215f;" horiz-adv-x="1715" 
d="M1339 1475h266l-942 -1475h-266zM590 549h-248v630l-161 -143l-142 151l321 287h230v-925z" />
    <glyph glyph-name="uni2189" unicode="&#x2189;" horiz-adv-x="2196" 
d="M859 1012q0 -225 -106.5 -355t-297.5 -130t-298 130t-107 355t107 354.5t298 129.5t297.5 -129.5t106.5 -354.5zM1475 1475h264l-942 -1475h-265zM455 748q72 0 111 70.5t39 193.5t-39 193.5t-111 70.5t-111.5 -71t-39.5 -193t39.5 -193t111.5 -71zM2014 466
q135 -64 135 -209q0 -124 -98.5 -201.5t-259.5 -77.5q-140 0 -242 64t-142 178l213 87q50 -117 162 -117q54 0 84 26.5t30 67.5q0 37 -28.5 60.5t-73.5 23.5h-99v185h70q54 0 84 25t30 67q0 41 -27 66t-70 25q-107 0 -138 -120l-218 57q30 130 126 202t242 72
q150 0 243.5 -79t93.5 -201q0 -140 -117 -201z" />
    <glyph glyph-name="arrowleft" unicode="&#x2190;" horiz-adv-x="1792" 
d="M1690 783v-274h-1124l334 -328l-186 -187l-653 652l653 652l186 -187l-334 -328h1124z" />
    <glyph glyph-name="arrowup" unicode="&#x2191;" horiz-adv-x="1792" 
d="M1548 809l-187 -187l-328 333v-1123h-274v1123l-328 -333l-186 187l651 651z" />
    <glyph glyph-name="arrowright" unicode="&#x2192;" horiz-adv-x="1792" 
d="M1079 1298l652 -652l-652 -652l-187 187l334 328h-1124v274h1124l-334 328z" />
    <glyph glyph-name="arrowdown" unicode="&#x2193;" horiz-adv-x="1792" 
d="M1361 671l187 -187l-652 -652l-651 652l186 187l328 -334v1123h274v-1123z" />
    <glyph glyph-name="arrowboth" unicode="&#x2194;" horiz-adv-x="2270" 
d="M1556 1298l653 -652l-653 -652l-186 187l334 328h-1138l334 -328l-186 -187l-653 652l653 652l186 -187l-334 -328h1138l-334 328z" />
    <glyph glyph-name="arrowupdn" unicode="&#x2195;" horiz-adv-x="1792" 
d="M1033 77l328 334l187 -187l-652 -651l-651 651l186 187l328 -334v1138l-328 -333l-186 186l651 651l652 -651l-187 -186l-328 333v-1138z" />
    <glyph glyph-name="uni2196" unicode="&#x2196;" horiz-adv-x="1792" 
d="M1493 167l-194 -193l-794 794l5 -468h-264v922h920v-265l-467 5z" />
    <glyph glyph-name="uni2197" unicode="&#x2197;" horiz-adv-x="1792" 
d="M571 1222h922v-922h-264l4 468l-795 -794l-192 193l793 795l-468 -5v265z" />
    <glyph glyph-name="uni2198" unicode="&#x2198;" horiz-adv-x="1792" 
d="M1229 992h264v-921h-922v264l468 -4l-793 794l192 193l795 -794z" />
    <glyph glyph-name="uni2199" unicode="&#x2199;" horiz-adv-x="1792" 
d="M1493 1125l-794 -794l467 4v-264h-920v921h264l-5 -468l794 794z" />
    <glyph glyph-name="uni21B0" unicode="&#x21b0;" horiz-adv-x="1792" 
d="M1690 783v-965h-274v691h-850l334 -328l-186 -187l-653 652l653 652l186 -187l-334 -328h1124z" />
    <glyph glyph-name="uni21B1" unicode="&#x21b1;" horiz-adv-x="1792" 
d="M1079 1298l652 -652l-652 -652l-187 187l334 328h-850v-691h-274v965h1124l-334 328z" />
    <glyph glyph-name="uni21B3" unicode="&#x21b3;" horiz-adv-x="1792" 
d="M1079 1298l652 -652l-652 -652l-187 187l334 328h-1124v966h274v-692h850l-334 328z" />
    <glyph glyph-name="carriagereturn" unicode="&#x21b5;" horiz-adv-x="1792" 
d="M1416 1475h274v-966h-1124l334 -328l-186 -187l-653 652l653 652l186 -187l-334 -328h850v692z" />
    <glyph glyph-name="partialdiff" unicode="&#x2202;" horiz-adv-x="1239" 
d="M316 1511q427 -64 644 -310t217 -667q0 -259 -150 -410.5t-406 -151.5q-252 0 -405.5 148.5t-153.5 393.5q0 244 138.5 390.5t368.5 146.5q104 0 221 -53q-173 224 -530 281zM621 247q106 0 171 72.5t65 194.5t-65 195t-171 73q-107 0 -173 -73t-66 -195t65.5 -194.5
t173.5 -72.5z" />
    <glyph glyph-name="emptyset" unicode="&#x2205;" horiz-adv-x="1360" 
d="M1298 1032l-156 -156q109 -148 109 -337q0 -156 -76.5 -288t-208 -208.5t-286.5 -76.5q-188 0 -339 110l-156 -156l-123 123l156 156q-110 149 -110 340q0 116 45.5 221.5t122 182t182.5 121.5t222 45q187 0 338 -110l157 157zM406 539q0 -67 25 -126l383 383
q-62 37 -134 37q-113 0 -193.5 -85.5t-80.5 -208.5zM954 539q0 66 -25 124l-383 -382q62 -37 134 -37q114 0 194 86t80 209z" />
    <glyph glyph-name="uni2206" unicode="&#x2206;" horiz-adv-x="1454" 
d="M921 1475l454 -1207v-268h-1296v268l462 1207h380zM444 301h571l-285 788z" />
    <glyph glyph-name="product" unicode="&#x220f;" horiz-adv-x="1523" 
d="M1388 1475v-1772h-334v1475h-584v-1475h-334v1772h1252z" />
    <glyph glyph-name="summation" unicode="&#x2211;" horiz-adv-x="1281" 
d="M136 -297v252l556 647l-556 621v252h1051v-297h-598l421 -467v-216l-421 -495h617v-297h-1070z" />
    <glyph glyph-name="minus" unicode="&#x2212;" 
d="M126 456v261h978v-261h-978z" />
    <glyph glyph-name="uni2215" unicode="&#x2215;" horiz-adv-x="1233" 
d="M20 0l943 1475h265l-942 -1475h-266z" />
    <glyph glyph-name="uni2219" unicode="&#x2219;" 
d="M614 441q-70 0 -121 50.5t-51 121.5t51 122t121 51t121.5 -51t51.5 -122q0 -70 -51 -121t-122 -51z" />
    <glyph glyph-name="radical" unicode="&#x221a;" horiz-adv-x="1464" 
d="M1083 1475h350l-652 -1772h-356l-393 988l303 100l265 -697z" />
    <glyph glyph-name="infinity" unicode="&#x221e;" horiz-adv-x="1889" 
d="M1369 1020q197 0 324.5 -126.5t127.5 -340.5t-127.5 -340.5t-324.5 -126.5q-128 0 -230.5 65t-198.5 178q-96 -113 -199 -178t-231 -65q-191 0 -316 126.5t-125 340.5t125 340.5t316 126.5q128 0 231 -65t199 -178q96 113 198.5 178t230.5 65zM532 373q59 0 113.5 45.5
t123.5 134.5q-69 89 -123.5 134.5t-113.5 45.5q-67 0 -110 -45t-43 -135t43 -135t110 -45zM1348 373q73 0 118 45t45 135t-45 135t-118 45q-59 0 -113.5 -45.5t-123.5 -134.5q69 -89 123.5 -134.5t113.5 -45.5z" />
    <glyph glyph-name="integral" unicode="&#x222b;" horiz-adv-x="763" 
d="M237 -330q-115 0 -229 30l51 262q56 -14 92 -14q68 0 68 77v1184q0 65 17 117t45.5 85.5t68.5 55.5t83.5 31t93.5 9q118 0 228 -29l-50 -263q-60 15 -92 15q-68 0 -68 -78v-1185q0 -65 -17 -116.5t-45.5 -85t-68.5 -55.5t-83.5 -31t-93.5 -9z" />
    <glyph glyph-name="approxequal" unicode="&#x2248;" 
d="M793 640q-94 0 -218 60q-90 44 -141 44q-87 0 -177 -104l-162 183q171 184 341 184q97 0 217 -61q90 -44 142 -44q96 0 177 104l162 -183q-170 -183 -341 -183zM793 190q-94 0 -218 62q-92 43 -141 43q-86 0 -177 -104l-162 183q170 183 341 183q97 0 217 -59
q86 -44 142 -44q97 0 177 103l162 -182q-171 -185 -341 -185z" />
    <glyph glyph-name="notequal" unicode="&#x2260;" 
d="M1104 679h-287l-74 -176h361v-260h-469l-90 -214h-331l90 214h-178v260h287l73 176h-360v260h469l90 214h331l-90 -214h178v-260z" />
    <glyph glyph-name="lessequal" unicode="&#x2264;" 
d="M1104 340l-978 336v297l978 336v-275l-709 -210l709 -210v-274zM1104 0h-978v260h978v-260z" />
    <glyph glyph-name="greaterequal" unicode="&#x2265;" 
d="M126 340v274l708 210l-708 210v275l978 -336v-297zM126 0v260h978v-260h-978z" />
    <glyph glyph-name="uni2300" unicode="&#x2300;" horiz-adv-x="1360" 
d="M1298 1032l-156 -156q109 -148 109 -337q0 -156 -76.5 -288t-208 -208.5t-286.5 -76.5q-188 0 -339 110l-156 -156l-123 123l156 156q-110 149 -110 340q0 116 45.5 221.5t122 182t182.5 121.5t222 45q187 0 338 -110l157 157zM406 539q0 -67 25 -126l383 383
q-62 37 -134 37q-113 0 -193.5 -85.5t-80.5 -208.5zM954 539q0 66 -25 124l-383 -382q62 -37 134 -37q114 0 194 86t80 209z" />
    <glyph glyph-name="uni2460" unicode="&#x2460;" horiz-adv-x="2119" 
d="M1060 1641q260 0 468.5 -116t326 -322.5t117.5 -464.5t-117.5 -464.5t-326 -322.5t-468.5 -116q-195 0 -364.5 68t-290 187t-189.5 287t-69 361t69 361t189.5 287t290 187t364.5 68zM1060 48q146 0 273 52t216.5 143t141 219t51.5 276t-51.5 276t-141 219t-216.5 143
t-273 52q-195 0 -351 -89t-243.5 -246.5t-87.5 -354.5t87.5 -354.5t243.5 -246.5t351 -89zM1222 1214v-924h-232v648l-162 -144l-133 142l313 278h214z" />
    <glyph glyph-name="uni2461" unicode="&#x2461;" horiz-adv-x="2119" 
d="M1060 1641q260 0 468.5 -116t326 -322.5t117.5 -464.5t-117.5 -464.5t-326 -322.5t-468.5 -116q-195 0 -364.5 68t-290 187t-189.5 287t-69 361t69 361t189.5 287t290 187t364.5 68zM1060 48q146 0 273 52t216.5 143t141 219t51.5 276t-51.5 276t-141 219t-216.5 143
t-273 52q-195 0 -351 -89t-243.5 -246.5t-87.5 -354.5t87.5 -354.5t243.5 -246.5t351 -89zM1204 634l-163 -149h357v-195h-685v182l316 288q73 68 99 103.5t26 77.5t-27.5 67t-74.5 25q-105 0 -136 -142l-214 52q31 140 125 216.5t235 76.5q144 0 235.5 -80t91.5 -212
q0 -84 -42 -151.5t-143 -158.5z" />
    <glyph glyph-name="uni2462" unicode="&#x2462;" horiz-adv-x="2119" 
d="M1060 1641q260 0 468.5 -116t326 -322.5t117.5 -464.5t-117.5 -464.5t-326 -322.5t-468.5 -116q-195 0 -364.5 68t-290 187t-189.5 287t-69 361t69 361t189.5 287t290 187t364.5 68zM1060 48q195 0 351 89t243.5 246.5t87.5 354.5t-87.5 354.5t-243.5 246.5t-351 89
t-351 -89t-243.5 -246.5t-87.5 -354.5t87.5 -354.5t243.5 -246.5t351 -89zM1265 757q149 -61 149 -210q0 -125 -96.5 -202.5t-255.5 -77.5q-138 0 -238 63.5t-140 176.5l200 83q50 -123 170 -123q58 0 91.5 29t33.5 74q0 42 -31.5 68t-82.5 26h-95v175h69q57 0 89 27t32 73
q0 44 -29.5 71t-76.5 27q-114 0 -148 -125l-203 55q30 128 124.5 198t236.5 70q148 0 240 -78t92 -200q0 -141 -131 -200z" />
    <glyph glyph-name="uni2463" unicode="&#x2463;" horiz-adv-x="2119" 
d="M1060 1641q260 0 468.5 -116t326 -322.5t117.5 -464.5t-117.5 -464.5t-326 -322.5t-468.5 -116q-195 0 -364.5 68t-290 187t-189.5 287t-69 361t69 361t189.5 287t290 187t364.5 68zM1060 48q146 0 273 52t216.5 143t141 219t51.5 276t-51.5 276t-141 219t-216.5 143
t-273 52q-195 0 -351 -89t-243.5 -246.5t-87.5 -354.5t87.5 -354.5t243.5 -246.5t351 -89zM1282 1214v-546h120v-196h-120v-182h-232v182h-407v190l390 552h249zM857 668h193v285z" />
    <glyph glyph-name="uni2464" unicode="&#x2464;" horiz-adv-x="2119" 
d="M1060 1641q260 0 468.5 -116t326 -322.5t117.5 -464.5t-117.5 -464.5t-326 -322.5t-468.5 -116q-195 0 -364.5 68t-290 187t-189.5 287t-69 361t69 361t189.5 287t290 187t364.5 68zM1060 48q146 0 273 52t216.5 143t141 219t51.5 276t-51.5 276t-141 219t-216.5 143
t-273 52q-195 0 -351 -89t-243.5 -246.5t-87.5 -354.5t87.5 -354.5t243.5 -246.5t351 -89zM1099 903q142 0 226 -81t84 -220q0 -150 -99.5 -242t-263.5 -92q-129 0 -223.5 58t-133.5 147l194 106q44 -108 156 -108q60 0 96.5 37.5t36.5 95.5q0 57 -34 92t-90 35
q-84 0 -128 -74h-205l69 557h584v-195h-403l-21 -161q67 45 155 45z" />
    <glyph glyph-name="uni2465" unicode="&#x2465;" horiz-adv-x="2119" 
d="M1060 1641q260 0 468.5 -116t326 -322.5t117.5 -464.5t-117.5 -464.5t-326 -322.5t-468.5 -116q-195 0 -364.5 68t-290 187t-189.5 287t-69 361t69 361t189.5 287t290 187t364.5 68zM1060 48q195 0 351 89t243.5 246.5t87.5 354.5t-87.5 354.5t-243.5 246.5t-351 89
t-351 -89t-243.5 -246.5t-87.5 -354.5t87.5 -354.5t243.5 -246.5t351 -89zM1098 889q143 0 231 -82t88 -218q0 -145 -95.5 -233.5t-250.5 -88.5q-259 0 -354 249q-35 89 -35 233q0 225 108 355.5t292 130.5q209 0 327 -166l-169 -122q-55 89 -149 89q-85 0 -131 -61.5
t-52 -166.5q78 81 190 81zM1066 458q58 0 92.5 36t34.5 94t-34.5 94t-92.5 36q-60 0 -96.5 -37.5t-36.5 -92.5t37 -92.5t96 -37.5z" />
    <glyph glyph-name="uni2466" unicode="&#x2466;" horiz-adv-x="2119" 
d="M1060 1641q260 0 468.5 -116t326 -322.5t117.5 -464.5t-117.5 -464.5t-326 -322.5t-468.5 -116q-195 0 -364.5 68t-290 187t-189.5 287t-69 361t69 361t189.5 287t290 187t364.5 68zM1060 48q146 0 273 52t216.5 143t141 219t51.5 276t-51.5 276t-141 219t-216.5 143
t-273 52q-195 0 -351 -89t-243.5 -246.5t-87.5 -354.5t87.5 -354.5t243.5 -246.5t351 -89zM724 1019v195h686v-189q-146 -153 -224.5 -343t-85.5 -392h-247q8 198 86.5 386.5t218.5 342.5h-434z" />
    <glyph glyph-name="uni2467" unicode="&#x2467;" horiz-adv-x="2119" 
d="M1060 -165q-195 0 -364.5 68t-290 187t-189.5 287t-69 361t69 361t189.5 287t290 187t364.5 68q260 0 468.5 -116t326 -322.5t117.5 -464.5t-117.5 -464.5t-326 -322.5t-468.5 -116zM1060 48q195 0 351 89t243.5 246.5t87.5 354.5t-87.5 354.5t-243.5 246.5t-351 89
t-351 -89t-243.5 -246.5t-87.5 -354.5t87.5 -354.5t243.5 -246.5t351 -89zM1061 267q-166 0 -268 77.5t-102 203.5q0 154 174 215q-61 24 -102.5 82t-41.5 124q0 109 94 187.5t246 78.5q153 0 246.5 -78t93.5 -188q0 -66 -41.5 -124t-102.5 -82q174 -62 174 -215
q0 -126 -102 -203.5t-268 -77.5zM1061 840q56 0 90.5 30t34.5 76q0 48 -34.5 79t-90.5 31t-90.5 -31t-34.5 -79q0 -46 34.5 -76t90.5 -30zM1061 450q62 0 101.5 32t39.5 84t-39 82t-102 30t-102 -30t-39 -82t39.5 -84t101.5 -32z" />
    <glyph glyph-name="uni2468" unicode="&#x2468;" horiz-adv-x="2119" 
d="M1060 1641q260 0 468.5 -116t326 -322.5t117.5 -464.5t-117.5 -464.5t-326 -322.5t-468.5 -116q-195 0 -364.5 68t-290 187t-189.5 287t-69 361t69 361t189.5 287t290 187t364.5 68zM1060 48q195 0 351 89t243.5 246.5t87.5 354.5t-87.5 354.5t-243.5 246.5t-351 89
t-351 -89t-243.5 -246.5t-87.5 -354.5t87.5 -354.5t243.5 -246.5t351 -89zM1051 1235q141 0 224.5 -63t127.5 -179q36 -93 36 -234q0 -226 -106.5 -359t-280.5 -133q-114 0 -194.5 39t-142.5 127l164 127q29 -48 67.5 -71t96.5 -23q73 0 118 60t51 176q-76 -78 -189 -78
q-145 0 -232.5 81t-87.5 214q0 142 95 229t253 87zM1057 795q60 0 95.5 35t35.5 91q0 54 -36.5 89.5t-94.5 35.5t-93.5 -34.5t-35.5 -90.5t35.5 -91t93.5 -35z" />
    <glyph glyph-name="uni24EA" unicode="&#x24ea;" horiz-adv-x="2119" 
d="M1060 -165q-195 0 -364.5 68t-290 187t-189.5 287t-69 361t69 361t189.5 287t290 187t364.5 68q260 0 468.5 -116t326 -322.5t117.5 -464.5t-117.5 -464.5t-326 -322.5t-468.5 -116zM1060 48q195 0 351 89t243.5 246.5t87.5 354.5t-87.5 354.5t-243.5 246.5t-351 89
t-351 -89t-243.5 -246.5t-87.5 -354.5t87.5 -354.5t243.5 -246.5t351 -89zM1060 268q-187 0 -292 130.5t-105 354.5t105 354t292 130t292.5 -130t105.5 -354t-105.5 -354.5t-292.5 -130.5zM1060 475q77 0 119 75t42 203q0 127 -42 202t-119 75q-76 0 -118 -75t-42 -202
q0 -128 42 -203t118 -75z" />
    <glyph glyph-name="uni24FF" unicode="&#x24ff;" horiz-adv-x="2119" 
d="M1097 -205q-270 0 -488 120.5t-342 336.5t-124 486t124 486t342 336.5t488 120.5q203 0 380 -71t302.5 -194.5t198 -299.5t72.5 -378t-72.5 -378t-198 -299.5t-302.5 -194.5t-380 -71zM1098 262q196 0 306 130t110 357q0 228 -110 357t-306 129t-307 -129t-111 -357
q0 -227 111 -357t307 -130zM1098 512q-62 0 -96 63t-34 174q0 112 34 174.5t96 62.5q61 0 95.5 -63t34.5 -174t-34.5 -174t-95.5 -63z" />
    <glyph glyph-name="filledbox" unicode="&#x25a0;" horiz-adv-x="1843" 
d="M184 0v1475h1475v-1475h-1475z" />
    <glyph glyph-name="uni25A1" unicode="&#x25a1;" horiz-adv-x="1843" 
d="M184 0v1475h1475v-1475h-1475zM502 302h839v870h-839v-870z" />
    <glyph glyph-name="uni25AE" unicode="&#x25ae;" horiz-adv-x="1105" 
d="M184 0v1475h738v-1475h-738z" />
    <glyph glyph-name="uni25AF" unicode="&#x25af;" horiz-adv-x="1105" 
d="M184 0v1475h738v-1475h-738zM428 234h250v1006h-250v-1006z" />
    <glyph glyph-name="triagup" unicode="&#x25b2;" horiz-adv-x="1843" 
d="M82 0l840 1495l839 -1495h-1679z" />
    <glyph glyph-name="uni25B3" unicode="&#x25b3;" horiz-adv-x="1843" 
d="M82 0l840 1495l839 -1495h-1679zM617 305h609l-304 556z" />
    <glyph glyph-name="uni25C6" unicode="&#x25c6;" horiz-adv-x="1843" 
d="M922 -52l-790 789l790 790l789 -790z" />
    <glyph glyph-name="uni25C7" unicode="&#x25c7;" horiz-adv-x="1843" 
d="M922 -52l-790 789l790 790l789 -790zM922 360l376 377l-376 377l-377 -377z" />
    <glyph glyph-name="lozenge" unicode="&#x25ca;" 
d="M756 1475l421 -738l-421 -737h-283l-421 737l421 738h283zM614 311l226 426l-226 426l-225 -426z" />
    <glyph glyph-name="circle" unicode="&#x25cb;" horiz-adv-x="1843" 
d="M923 -37q-158 0 -301.5 61.5t-247.5 165t-165.5 247t-61.5 300.5t61.5 300.5t165.5 247t247.5 165t301.5 61.5q157 0 300 -61.5t246.5 -165t165 -247t61.5 -300.5t-61.5 -300.5t-165 -247t-246.5 -165t-300 -61.5zM923 271q188 0 317.5 135.5t129.5 330.5t-129.5 330.5
t-317.5 135.5q-189 0 -319.5 -135t-130.5 -331t130.5 -331t319.5 -135z" />
    <glyph glyph-name="uni25CF" unicode="&#x25cf;" horiz-adv-x="1843" 
d="M923 -37q-158 0 -301.5 61.5t-247.5 165t-165.5 247t-61.5 300.5t61.5 300.5t165.5 247t247.5 165t301.5 61.5q157 0 300 -61.5t246.5 -165t165 -247t61.5 -300.5t-61.5 -300.5t-165 -247t-246.5 -165t-300 -61.5z" />
    <glyph glyph-name="uni2605" unicode="&#x2605;" horiz-adv-x="1843" 
d="M367 -72l218 654l-514 376h640l211 629l211 -629h640l-515 -376l219 -654l-555 407z" />
    <glyph glyph-name="uni2606" unicode="&#x2606;" horiz-adv-x="1843" 
d="M367 -72l218 654l-514 376h640l211 629l211 -629h640l-515 -376l219 -654l-555 407zM705 388l217 159l217 -159l-85 256l187 137h-233l-86 256l-86 -256h-234l188 -137z" />
    <glyph glyph-name="uni2661" unicode="&#x2661;" horiz-adv-x="1843" 
d="M1272 1499q181 0 309.5 -126.5t128.5 -319.5q0 -517 -788 -1079q-789 563 -789 1079q0 193 128.5 319.5t309.5 126.5q122 0 217 -59t134 -134q39 76 133.5 134.5t216.5 58.5zM922 273q253 182 391 379t138 378q0 100 -64.5 161.5t-152.5 61.5q-181 0 -311 -308h-2
q-130 308 -312 308q-88 0 -152.5 -61.5t-64.5 -161.5q0 -181 138.5 -378t391.5 -379z" />
    <glyph glyph-name="uni2714" unicode="&#x2714;" horiz-adv-x="1843" 
d="M796 -51l-737 515l179 251l462 -323l809 1134l275 -193z" />
    <glyph glyph-name="uni2718" unicode="&#x2718;" horiz-adv-x="1843" 
d="M1709 1294l-556 -557l556 -558l-230 -230l-556 557l-557 -557l-231 230l556 558l-556 557l231 232l556 -557l556 557z" />
    <glyph glyph-name="uni2764" unicode="&#x2764;" horiz-adv-x="1843" 
d="M1275 1499q181 0 308 -126t127 -320q0 -517 -788 -1079q-789 563 -789 1079q0 194 127 320t308 126q122 0 218.5 -59t135.5 -134q39 75 135 134t218 59z" />
    <glyph glyph-name="uni2776" unicode="&#x2776;" horiz-adv-x="2119" 
d="M1060 -165q-194 0 -363.5 68t-290 186.5t-190 286.5t-69.5 362t69.5 362t190 286.5t290 186.5t363.5 68q259 0 467.5 -115.5t326.5 -322t118 -465.5t-118 -465.5t-326.5 -322t-467.5 -115.5zM992 290h248v924h-229l-322 -286l142 -151l161 143v-630z" />
    <glyph glyph-name="uni2777" unicode="&#x2777;" horiz-adv-x="2119" 
d="M1060 -165q-194 0 -363.5 68t-290 186.5t-190 286.5t-69.5 362t69.5 362t190 286.5t290 186.5t363.5 68q259 0 467.5 -115.5t326.5 -322t118 -465.5t-118 -465.5t-326.5 -322t-467.5 -115.5zM710 290h693v209h-343l152 136q100 89 142 155t42 150q0 134 -93 215.5
t-239 81.5q-145 0 -240.5 -78t-126.5 -219l229 -56q15 63 44 100t83 37q42 0 67 -23t25 -61q0 -39 -25.5 -73t-94.5 -96l-315 -284v-194z" />
    <glyph glyph-name="uni2778" unicode="&#x2778;" horiz-adv-x="2119" 
d="M1060 -165q-194 0 -363.5 68t-290 186.5t-190 286.5t-69.5 362t69.5 362t190 286.5t290 186.5t363.5 68q259 0 467.5 -115.5t326.5 -322t118 -465.5t-118 -465.5t-326.5 -322t-467.5 -115.5zM1064 267q161 0 259.5 77.5t98.5 201.5q0 145 -136 209q118 61 118 200
q0 122 -93.5 201.5t-243.5 79.5q-146 0 -242 -72t-126 -202l217 -57q31 120 139 120q43 0 70 -25t27 -66q0 -42 -30 -67t-84 -25h-70v-186h99q45 0 73.5 -23.5t28.5 -60.5q0 -41 -30 -67t-84 -26q-112 0 -162 117l-213 -87q40 -114 142 -178t242 -64z" />
    <glyph glyph-name="uni2779" unicode="&#x2779;" horiz-adv-x="2119" 
d="M1060 -165q-194 0 -363.5 68t-290 186.5t-190 286.5t-69.5 362t69.5 362t190 286.5t290 186.5t363.5 68q259 0 467.5 -115.5t326.5 -322t118 -465.5t-118 -465.5t-326.5 -322t-467.5 -115.5zM1040 290h249v179h119v209h-119v536h-266l-382 -542v-203h399v-179zM868 678
l172 257v-257h-172z" />
    <glyph glyph-name="uni277A" unicode="&#x277a;" horiz-adv-x="2119" 
d="M1060 -165q-194 0 -363.5 68t-290 186.5t-190 286.5t-69.5 362t69.5 362t190 286.5t290 186.5t363.5 68q259 0 467.5 -115.5t326.5 -322t118 -465.5t-118 -465.5t-326.5 -322t-467.5 -115.5zM1047 268q167 0 268 92t101 244q0 138 -84.5 218.5t-226.5 80.5
q-83 0 -151 -41l20 144h401v208h-594l-70 -562h219q40 70 118 70q52 0 83 -32t31 -84q0 -54 -34 -88t-89 -34q-103 0 -147 103l-207 -114q39 -89 134 -147t228 -58z" />
    <glyph glyph-name="uni277B" unicode="&#x277b;" horiz-adv-x="2119" 
d="M1060 -165q-194 0 -363.5 68t-290 186.5t-190 286.5t-69.5 362t69.5 362t190 286.5t290 186.5t363.5 68q259 0 467.5 -115.5t326.5 -322t118 -465.5t-118 -465.5t-326.5 -322t-467.5 -115.5zM1074 267q157 0 254 88.5t97 233.5q0 136 -89 217.5t-232 81.5
q-105 0 -182 -69q0 5 1 11q10 93 53.5 143t118.5 50q90 0 143 -85l179 131q-119 167 -332 167q-186 0 -296.5 -131t-110.5 -354q0 -139 35 -230q46 -120 131.5 -187t229.5 -67zM1069 469q-55 0 -89.5 34t-34.5 85t34 85t89 34t86.5 -33t31.5 -86t-31.5 -86t-85.5 -33z" />
    <glyph glyph-name="uni277C" unicode="&#x277c;" horiz-adv-x="2119" 
d="M1060 -165q-194 0 -363.5 68t-290 186.5t-190 286.5t-69.5 362t69.5 362t190 286.5t290 186.5t363.5 68q259 0 467.5 -115.5t326.5 -322t118 -465.5t-118 -465.5t-326.5 -322t-467.5 -115.5zM844 290h265q6 195 85.5 386.5t221.5 335.5v202h-694v-208h425
q-136 -144 -215.5 -334.5t-87.5 -381.5z" />
    <glyph glyph-name="uni277D" unicode="&#x277d;" horiz-adv-x="2119" 
d="M1060 -165q-194 0 -363.5 68t-290 186.5t-190 286.5t-69.5 362t69.5 362t190 286.5t290 186.5t363.5 68q259 0 467.5 -115.5t326.5 -322t118 -465.5t-118 -465.5t-326.5 -322t-467.5 -115.5zM1061 267q168 0 271.5 78t103.5 204q0 153 -173 214q60 23 101 81.5t41 123.5
q0 109 -95 188.5t-249 79.5t-249 -79.5t-95 -188.5q0 -65 41 -123.5t101 -81.5q-173 -61 -173 -214q0 -126 103.5 -204t271.5 -78zM1061 844q-52 0 -83.5 27.5t-31.5 70.5q0 45 31.5 73.5t83.5 28.5t83.5 -28.5t31.5 -73.5q0 -43 -31.5 -70.5t-83.5 -27.5zM1061 461
q-57 0 -94 30.5t-37 77.5t37 75t94 28t94 -28t37 -75t-37 -77.5t-94 -30.5z" />
    <glyph glyph-name="uni277E" unicode="&#x277e;" horiz-adv-x="2119" 
d="M1060 -165q-194 0 -363.5 68t-290 186.5t-190 286.5t-69.5 362t69.5 362t190 286.5t290 186.5t363.5 68q259 0 467.5 -115.5t326.5 -322t118 -465.5t-118 -465.5t-326.5 -322t-467.5 -115.5zM1053 266q175 0 284 134t109 357q0 136 -35 230q-91 249 -360 249
q-159 0 -256 -87.5t-97 -230.5q0 -133 88.5 -213t234.5 -80q107 0 183 67q0 -7 -2 -19q-10 -94 -52.5 -144t-106.5 -50q-57 0 -94 21.5t-65 66.5l-174 -136q64 -88 145.5 -126.5t197.5 -38.5zM1057 806q-54 0 -86.5 31.5t-32.5 82.5q0 52 32.5 82.5t86.5 30.5
q55 0 88.5 -31.5t33.5 -81.5t-33.5 -82t-88.5 -32z" />
    <glyph glyph-name="uni2780" unicode="&#x2780;" horiz-adv-x="2119" 
d="M1060 1641q260 0 468.5 -116t326 -322.5t117.5 -464.5t-117.5 -464.5t-326 -322.5t-468.5 -116q-195 0 -364.5 68t-290 187t-189.5 287t-69 361t69 361t189.5 287t290 187t364.5 68zM1060 48q146 0 273 52t216.5 143t141 219t51.5 276t-51.5 276t-141 219t-216.5 143
t-273 52q-195 0 -351 -89t-243.5 -246.5t-87.5 -354.5t87.5 -354.5t243.5 -246.5t351 -89zM1222 1214v-924h-232v648l-162 -144l-133 142l313 278h214z" />
    <glyph glyph-name="uni2781" unicode="&#x2781;" horiz-adv-x="2119" 
d="M1060 1641q260 0 468.5 -116t326 -322.5t117.5 -464.5t-117.5 -464.5t-326 -322.5t-468.5 -116q-195 0 -364.5 68t-290 187t-189.5 287t-69 361t69 361t189.5 287t290 187t364.5 68zM1060 48q146 0 273 52t216.5 143t141 219t51.5 276t-51.5 276t-141 219t-216.5 143
t-273 52q-195 0 -351 -89t-243.5 -246.5t-87.5 -354.5t87.5 -354.5t243.5 -246.5t351 -89zM1204 634l-163 -149h357v-195h-685v182l316 288q73 68 99 103.5t26 77.5t-27.5 67t-74.5 25q-105 0 -136 -142l-214 52q31 140 125 216.5t235 76.5q144 0 235.5 -80t91.5 -212
q0 -84 -42 -151.5t-143 -158.5z" />
    <glyph glyph-name="uni2782" unicode="&#x2782;" horiz-adv-x="2119" 
d="M1060 1641q260 0 468.5 -116t326 -322.5t117.5 -464.5t-117.5 -464.5t-326 -322.5t-468.5 -116q-195 0 -364.5 68t-290 187t-189.5 287t-69 361t69 361t189.5 287t290 187t364.5 68zM1060 48q195 0 351 89t243.5 246.5t87.5 354.5t-87.5 354.5t-243.5 246.5t-351 89
t-351 -89t-243.5 -246.5t-87.5 -354.5t87.5 -354.5t243.5 -246.5t351 -89zM1265 757q149 -61 149 -210q0 -125 -96.5 -202.5t-255.5 -77.5q-138 0 -238 63.5t-140 176.5l200 83q50 -123 170 -123q58 0 91.5 29t33.5 74q0 42 -31.5 68t-82.5 26h-95v175h69q57 0 89 27t32 73
q0 44 -29.5 71t-76.5 27q-114 0 -148 -125l-203 55q30 128 124.5 198t236.5 70q148 0 240 -78t92 -200q0 -141 -131 -200z" />
    <glyph glyph-name="uni2783" unicode="&#x2783;" horiz-adv-x="2119" 
d="M1060 1641q260 0 468.5 -116t326 -322.5t117.5 -464.5t-117.5 -464.5t-326 -322.5t-468.5 -116q-195 0 -364.5 68t-290 187t-189.5 287t-69 361t69 361t189.5 287t290 187t364.5 68zM1060 48q146 0 273 52t216.5 143t141 219t51.5 276t-51.5 276t-141 219t-216.5 143
t-273 52q-195 0 -351 -89t-243.5 -246.5t-87.5 -354.5t87.5 -354.5t243.5 -246.5t351 -89zM1282 1214v-546h120v-196h-120v-182h-232v182h-407v190l390 552h249zM857 668h193v285z" />
    <glyph glyph-name="uni2784" unicode="&#x2784;" horiz-adv-x="2119" 
d="M1060 1641q260 0 468.5 -116t326 -322.5t117.5 -464.5t-117.5 -464.5t-326 -322.5t-468.5 -116q-195 0 -364.5 68t-290 187t-189.5 287t-69 361t69 361t189.5 287t290 187t364.5 68zM1060 48q146 0 273 52t216.5 143t141 219t51.5 276t-51.5 276t-141 219t-216.5 143
t-273 52q-195 0 -351 -89t-243.5 -246.5t-87.5 -354.5t87.5 -354.5t243.5 -246.5t351 -89zM1099 903q142 0 226 -81t84 -220q0 -150 -99.5 -242t-263.5 -92q-129 0 -223.5 58t-133.5 147l194 106q44 -108 156 -108q60 0 96.5 37.5t36.5 95.5q0 57 -34 92t-90 35
q-84 0 -128 -74h-205l69 557h584v-195h-403l-21 -161q67 45 155 45z" />
    <glyph glyph-name="uni2785" unicode="&#x2785;" horiz-adv-x="2119" 
d="M1060 1641q260 0 468.5 -116t326 -322.5t117.5 -464.5t-117.5 -464.5t-326 -322.5t-468.5 -116q-195 0 -364.5 68t-290 187t-189.5 287t-69 361t69 361t189.5 287t290 187t364.5 68zM1060 48q195 0 351 89t243.5 246.5t87.5 354.5t-87.5 354.5t-243.5 246.5t-351 89
t-351 -89t-243.5 -246.5t-87.5 -354.5t87.5 -354.5t243.5 -246.5t351 -89zM1098 889q143 0 231 -82t88 -218q0 -145 -95.5 -233.5t-250.5 -88.5q-259 0 -354 249q-35 89 -35 233q0 225 108 355.5t292 130.5q209 0 327 -166l-169 -122q-55 89 -149 89q-85 0 -131 -61.5
t-52 -166.5q78 81 190 81zM1066 458q58 0 92.5 36t34.5 94t-34.5 94t-92.5 36q-60 0 -96.5 -37.5t-36.5 -92.5t37 -92.5t96 -37.5z" />
    <glyph glyph-name="uni2786" unicode="&#x2786;" horiz-adv-x="2119" 
d="M1060 1641q260 0 468.5 -116t326 -322.5t117.5 -464.5t-117.5 -464.5t-326 -322.5t-468.5 -116q-195 0 -364.5 68t-290 187t-189.5 287t-69 361t69 361t189.5 287t290 187t364.5 68zM1060 48q146 0 273 52t216.5 143t141 219t51.5 276t-51.5 276t-141 219t-216.5 143
t-273 52q-195 0 -351 -89t-243.5 -246.5t-87.5 -354.5t87.5 -354.5t243.5 -246.5t351 -89zM724 1019v195h686v-189q-146 -153 -224.5 -343t-85.5 -392h-247q8 198 86.5 386.5t218.5 342.5h-434z" />
    <glyph glyph-name="uni2787" unicode="&#x2787;" horiz-adv-x="2119" 
d="M1060 -165q-195 0 -364.5 68t-290 187t-189.5 287t-69 361t69 361t189.5 287t290 187t364.5 68q260 0 468.5 -116t326 -322.5t117.5 -464.5t-117.5 -464.5t-326 -322.5t-468.5 -116zM1060 48q195 0 351 89t243.5 246.5t87.5 354.5t-87.5 354.5t-243.5 246.5t-351 89
t-351 -89t-243.5 -246.5t-87.5 -354.5t87.5 -354.5t243.5 -246.5t351 -89zM1061 267q-166 0 -268 77.5t-102 203.5q0 154 174 215q-61 24 -102.5 82t-41.5 124q0 109 94 187.5t246 78.5q153 0 246.5 -78t93.5 -188q0 -66 -41.5 -124t-102.5 -82q174 -62 174 -215
q0 -126 -102 -203.5t-268 -77.5zM1061 840q56 0 90.5 30t34.5 76q0 48 -34.5 79t-90.5 31t-90.5 -31t-34.5 -79q0 -46 34.5 -76t90.5 -30zM1061 450q62 0 101.5 32t39.5 84t-39 82t-102 30t-102 -30t-39 -82t39.5 -84t101.5 -32z" />
    <glyph glyph-name="uni2788" unicode="&#x2788;" horiz-adv-x="2119" 
d="M1060 1641q260 0 468.5 -116t326 -322.5t117.5 -464.5t-117.5 -464.5t-326 -322.5t-468.5 -116q-195 0 -364.5 68t-290 187t-189.5 287t-69 361t69 361t189.5 287t290 187t364.5 68zM1060 48q195 0 351 89t243.5 246.5t87.5 354.5t-87.5 354.5t-243.5 246.5t-351 89
t-351 -89t-243.5 -246.5t-87.5 -354.5t87.5 -354.5t243.5 -246.5t351 -89zM1051 1235q141 0 224.5 -63t127.5 -179q36 -93 36 -234q0 -226 -106.5 -359t-280.5 -133q-114 0 -194.5 39t-142.5 127l164 127q29 -48 67.5 -71t96.5 -23q73 0 118 60t51 176q-76 -78 -189 -78
q-145 0 -232.5 81t-87.5 214q0 142 95 229t253 87zM1057 795q60 0 95.5 35t35.5 91q0 54 -36.5 89.5t-94.5 35.5t-93.5 -34.5t-35.5 -90.5t35.5 -91t93.5 -35z" />
    <glyph glyph-name="uni278A" unicode="&#x278a;" horiz-adv-x="2119" 
d="M1060 -165q-194 0 -363.5 68t-290 186.5t-190 286.5t-69.5 362t69.5 362t190 286.5t290 186.5t363.5 68q259 0 467.5 -115.5t326.5 -322t118 -465.5t-118 -465.5t-326.5 -322t-467.5 -115.5zM992 290h248v924h-229l-322 -286l142 -151l161 143v-630z" />
    <glyph glyph-name="uni278B" unicode="&#x278b;" horiz-adv-x="2119" 
d="M1060 -165q-194 0 -363.5 68t-290 186.5t-190 286.5t-69.5 362t69.5 362t190 286.5t290 186.5t363.5 68q259 0 467.5 -115.5t326.5 -322t118 -465.5t-118 -465.5t-326.5 -322t-467.5 -115.5zM710 290h693v209h-343l152 136q100 89 142 155t42 150q0 134 -93 215.5
t-239 81.5q-145 0 -240.5 -78t-126.5 -219l229 -56q15 63 44 100t83 37q42 0 67 -23t25 -61q0 -39 -25.5 -73t-94.5 -96l-315 -284v-194z" />
    <glyph glyph-name="uni278C" unicode="&#x278c;" horiz-adv-x="2119" 
d="M1060 -165q-194 0 -363.5 68t-290 186.5t-190 286.5t-69.5 362t69.5 362t190 286.5t290 186.5t363.5 68q259 0 467.5 -115.5t326.5 -322t118 -465.5t-118 -465.5t-326.5 -322t-467.5 -115.5zM1064 267q161 0 259.5 77.5t98.5 201.5q0 145 -136 209q118 61 118 200
q0 122 -93.5 201.5t-243.5 79.5q-146 0 -242 -72t-126 -202l217 -57q31 120 139 120q43 0 70 -25t27 -66q0 -42 -30 -67t-84 -25h-70v-186h99q45 0 73.5 -23.5t28.5 -60.5q0 -41 -30 -67t-84 -26q-112 0 -162 117l-213 -87q40 -114 142 -178t242 -64z" />
    <glyph glyph-name="uni278D" unicode="&#x278d;" horiz-adv-x="2119" 
d="M1060 -165q-194 0 -363.5 68t-290 186.5t-190 286.5t-69.5 362t69.5 362t190 286.5t290 186.5t363.5 68q259 0 467.5 -115.5t326.5 -322t118 -465.5t-118 -465.5t-326.5 -322t-467.5 -115.5zM1040 290h249v179h119v209h-119v536h-266l-382 -542v-203h399v-179zM868 678
l172 257v-257h-172z" />
    <glyph glyph-name="uni278E" unicode="&#x278e;" horiz-adv-x="2119" 
d="M1060 -165q-194 0 -363.5 68t-290 186.5t-190 286.5t-69.5 362t69.5 362t190 286.5t290 186.5t363.5 68q259 0 467.5 -115.5t326.5 -322t118 -465.5t-118 -465.5t-326.5 -322t-467.5 -115.5zM1047 268q167 0 268 92t101 244q0 138 -84.5 218.5t-226.5 80.5
q-83 0 -151 -41l20 144h401v208h-594l-70 -562h219q40 70 118 70q52 0 83 -32t31 -84q0 -54 -34 -88t-89 -34q-103 0 -147 103l-207 -114q39 -89 134 -147t228 -58z" />
    <glyph glyph-name="uni278F" unicode="&#x278f;" horiz-adv-x="2119" 
d="M1060 -165q-194 0 -363.5 68t-290 186.5t-190 286.5t-69.5 362t69.5 362t190 286.5t290 186.5t363.5 68q259 0 467.5 -115.5t326.5 -322t118 -465.5t-118 -465.5t-326.5 -322t-467.5 -115.5zM1074 267q157 0 254 88.5t97 233.5q0 136 -89 217.5t-232 81.5
q-105 0 -182 -69q0 5 1 11q10 93 53.5 143t118.5 50q90 0 143 -85l179 131q-119 167 -332 167q-186 0 -296.5 -131t-110.5 -354q0 -139 35 -230q46 -120 131.5 -187t229.5 -67zM1069 469q-55 0 -89.5 34t-34.5 85t34 85t89 34t86.5 -33t31.5 -86t-31.5 -86t-85.5 -33z" />
    <glyph glyph-name="uni2790" unicode="&#x2790;" horiz-adv-x="2119" 
d="M1060 -165q-194 0 -363.5 68t-290 186.5t-190 286.5t-69.5 362t69.5 362t190 286.5t290 186.5t363.5 68q259 0 467.5 -115.5t326.5 -322t118 -465.5t-118 -465.5t-326.5 -322t-467.5 -115.5zM844 290h265q6 195 85.5 386.5t221.5 335.5v202h-694v-208h425
q-136 -144 -215.5 -334.5t-87.5 -381.5z" />
    <glyph glyph-name="uni2791" unicode="&#x2791;" horiz-adv-x="2119" 
d="M1060 -165q-194 0 -363.5 68t-290 186.5t-190 286.5t-69.5 362t69.5 362t190 286.5t290 186.5t363.5 68q259 0 467.5 -115.5t326.5 -322t118 -465.5t-118 -465.5t-326.5 -322t-467.5 -115.5zM1061 267q168 0 271.5 78t103.5 204q0 153 -173 214q60 23 101 81.5t41 123.5
q0 109 -95 188.5t-249 79.5t-249 -79.5t-95 -188.5q0 -65 41 -123.5t101 -81.5q-173 -61 -173 -214q0 -126 103.5 -204t271.5 -78zM1061 844q-52 0 -83.5 27.5t-31.5 70.5q0 45 31.5 73.5t83.5 28.5t83.5 -28.5t31.5 -73.5q0 -43 -31.5 -70.5t-83.5 -27.5zM1061 461
q-57 0 -94 30.5t-37 77.5t37 75t94 28t94 -28t37 -75t-37 -77.5t-94 -30.5z" />
    <glyph glyph-name="uni2792" unicode="&#x2792;" horiz-adv-x="2119" 
d="M1060 -165q-194 0 -363.5 68t-290 186.5t-190 286.5t-69.5 362t69.5 362t190 286.5t290 186.5t363.5 68q259 0 467.5 -115.5t326.5 -322t118 -465.5t-118 -465.5t-326.5 -322t-467.5 -115.5zM1053 266q175 0 284 134t109 357q0 136 -35 230q-91 249 -360 249
q-159 0 -256 -87.5t-97 -230.5q0 -133 88.5 -213t234.5 -80q107 0 183 67q0 -7 -2 -19q-10 -94 -52.5 -144t-106.5 -50q-57 0 -94 21.5t-65 66.5l-174 -136q64 -88 145.5 -126.5t197.5 -38.5zM1057 806q-54 0 -86.5 31.5t-32.5 82.5q0 52 32.5 82.5t86.5 30.5
q55 0 88.5 -31.5t33.5 -81.5t-33.5 -82t-88.5 -32z" />
    <glyph glyph-name="uniFEFF" unicode="&#xfeff;" horiz-adv-x="0" 
 />
    <glyph glyph-name="Cacute.loclPLK" horiz-adv-x="1479" 
d="M609 1570l107 346h301l-169 -346h-239zM794 -34q-212 0 -374.5 96.5t-251 271.5t-88.5 403q0 171 51.5 314.5t144 244t225 156.5t291.5 56q202 0 368 -100t248 -273l-272 -148q-67 115 -147.5 165.5t-193.5 50.5q-168 0 -269.5 -127t-101.5 -339t102.5 -339t270.5 -127
q114 0 194 56t145 180l274 -146q-97 -190 -256.5 -292.5t-359.5 -102.5z" />
    <glyph glyph-name="Nacute.loclPLK" horiz-adv-x="1536" 
d="M1000 1916l-167 -346h-239l106 346h300zM1066 1475h334v-1475h-384l-545 955v-955h-335v1475h381l549 -962v962z" />
    <glyph glyph-name="Oacute.loclPLK" horiz-adv-x="1614" 
d="M626 1570l106 345h301l-169 -345h-238zM808 -33q-219 0 -384 95.5t-254.5 270t-89.5 404.5t89.5 404.5t254.5 270t384 95.5q330 0 529.5 -211t199.5 -559t-199.5 -559t-529.5 -211zM808 272q176 0 280.5 125.5t104.5 339.5t-104.5 339.5t-280.5 125.5t-280 -125
t-104 -340t104 -340t280 -125z" />
    <glyph glyph-name="Sacute.loclPLK" horiz-adv-x="1427" 
d="M556 1570l107 346h301l-169 -346h-239zM734 -34q-436 0 -665 288l226 206q151 -197 442 -197q121 0 194.5 43t73.5 113q0 29 -10.5 52t-34.5 40.5t-47 29t-66.5 22t-72.5 16.5t-83 15q-71 12 -111 19.5t-108.5 26t-109 38.5t-91.5 55t-79 77.5t-47.5 104.5t-19.5 137
q0 209 161 332.5t436 123.5q198 0 360.5 -67t263.5 -191l-227 -206q-63 78 -169.5 122.5t-231.5 44.5q-113 0 -181 -40.5t-68 -106.5q0 -26 10 -47.5t31.5 -37t45 -27t61 -21t68.5 -15.5t78 -13q74 -11 113.5 -18t111 -25t113 -38t95 -56.5t82.5 -81t49.5 -110t20.5 -145.5
q0 -216 -163.5 -339.5t-450.5 -123.5z" />
    <glyph glyph-name="Zacute.loclPLK" horiz-adv-x="1333" 
d="M479 1570l107 346h300l-168 -346h-239zM75 0v278l721 900h-700v297h1128v-277l-720 -901h740v-297h-1169z" />
    <glyph glyph-name="G.ss01" horiz-adv-x="1533" 
d="M812 -34q-218 0 -385.5 97.5t-257 270.5t-89.5 395q0 177 54 323.5t150.5 246.5t231.5 154.5t294 54.5q172 0 331.5 -78t261.5 -226l-258 -178q-62 93 -142.5 135t-193.5 42q-172 0 -278.5 -123.5t-106.5 -342.5q0 -217 106 -341.5t283 -124.5q148 0 235 79t87 212v2
h-318v264h637v-230q0 -287 -176 -459.5t-466 -172.5z" />
    <glyph glyph-name="uni01F4.ss01" horiz-adv-x="1533" 
d="M635 1570l167 346h309l-229 -346h-247zM812 -34q-218 0 -385.5 97.5t-257 270.5t-89.5 395q0 177 54 323.5t150.5 246.5t231.5 154.5t294 54.5q172 0 331.5 -78t261.5 -226l-258 -178q-62 93 -142.5 135t-193.5 42q-172 0 -278.5 -123.5t-106.5 -342.5q0 -217 106 -341.5
t283 -124.5q148 0 235 79t87 212v2h-318v264h637v-230q0 -287 -176 -459.5t-466 -172.5z" />
    <glyph glyph-name="Gbreve.ss01" horiz-adv-x="1533" 
d="M810 1552q-153 0 -252 93.5t-108 247.5h217q8 -67 47.5 -109t95.5 -42q55 0 94.5 42t47.5 109h217q-9 -154 -107.5 -247.5t-251.5 -93.5zM812 -34q-218 0 -385.5 97.5t-257 270.5t-89.5 395q0 177 54 323.5t150.5 246.5t231.5 154.5t294 54.5q172 0 331.5 -78t261.5 -226
l-258 -178q-62 93 -142.5 135t-193.5 42q-172 0 -278.5 -123.5t-106.5 -342.5q0 -217 106 -341.5t283 -124.5q148 0 235 79t87 212v2h-318v264h637v-230q0 -287 -176 -459.5t-466 -172.5z" />
    <glyph glyph-name="Gcircumflex.ss01" horiz-adv-x="1533" 
d="M809 1723l-113 -159h-259l227 329h290l227 -329h-259zM817 828h637v-230q0 -287 -176 -459.5t-466 -172.5q-218 0 -385.5 97.5t-257 270.5t-89.5 395q0 177 54 323.5t150.5 246.5t231.5 154.5t294 54.5q172 0 331.5 -78t261.5 -226l-258 -178q-62 93 -142.5 135
t-193.5 42q-172 0 -278.5 -123.5t-106.5 -342.5q0 -217 106 -341.5t283 -124.5q148 0 235 79t87 212v2h-318v264z" />
    <glyph glyph-name="uni0122.ss01" horiz-adv-x="1533" 
d="M817 828h637v-230q0 -287 -176 -459.5t-466 -172.5q-218 0 -385.5 97.5t-257 270.5t-89.5 395q0 177 54 323.5t150.5 246.5t231.5 154.5t294 54.5q172 0 331.5 -78t261.5 -226l-258 -178q-62 93 -142.5 135t-193.5 42q-172 0 -278.5 -123.5t-106.5 -342.5
q0 -217 106 -341.5t283 -124.5q148 0 235 79t87 212v2h-318v264zM665 -286v210h278v-217q0 -65 -44 -113.5t-133 -89.5l-63 100q57 28 82 51.5t25 58.5h-145z" />
    <glyph glyph-name="Gdotaccent.ss01" horiz-adv-x="1533" 
d="M644 1586v258h331v-258h-331zM812 -34q-218 0 -385.5 97.5t-257 270.5t-89.5 395q0 177 54 323.5t150.5 246.5t231.5 154.5t294 54.5q172 0 331.5 -78t261.5 -226l-258 -178q-62 93 -142.5 135t-193.5 42q-172 0 -278.5 -123.5t-106.5 -342.5q0 -217 106 -341.5
t283 -124.5q148 0 235 79t87 212v2h-318v264h637v-230q0 -287 -176 -459.5t-466 -172.5z" />
    <glyph glyph-name="j.calt" horiz-adv-x="555" 
d="M113 1215v260h329v-260h-329zM55 -383q-35 0 -98 9l29 261q17 -4 44 -4q46 0 67.5 28t21.5 89v1085h317v-1118q0 -188 -88 -269t-293 -81z" />
    <glyph glyph-name="uni0237.calt" horiz-adv-x="555" 
d="M55 -383q-35 0 -98 9l29 261q17 -4 44 -4q46 0 67.5 28t21.5 89v1085h317v-1118q0 -188 -88 -269t-293 -81z" />
    <glyph glyph-name="jcircumflex.calt" horiz-adv-x="555" 
d="M278 1352l-113 -160h-260l227 330h291l226 -330h-259zM119 0v1085h317v-1118q0 -188 -88 -269t-293 -81q-35 0 -98 9l29 261q17 -4 44 -4q46 0 67.5 28t21.5 89z" />
    <glyph glyph-name="i.latn_TRK" horiz-adv-x="555" 
d="M113 1215v260h329v-260h-329zM119 0v1085h317v-1085h-317z" />
    <glyph glyph-name="cacute.loclPLK" horiz-adv-x="1144" 
d="M428 1194l107 345h301l-169 -345h-239zM616 -29q-248 0 -401 156.5t-153 412.5q0 259 151.5 415.5t401.5 156.5q67 0 129 -13t127.5 -43t124.5 -88.5t102 -141.5l-264 -128q-40 75 -91 108.5t-120 33.5q-112 0 -174.5 -81.5t-62.5 -216.5q0 -138 64.5 -218.5t172.5 -80.5
q71 0 121 35t90 117l266 -121q-46 -91 -102 -152.5t-120 -93.5t-125.5 -44.5t-136.5 -12.5z" />
    <glyph glyph-name="nacute.loclPLK" horiz-adv-x="1224" 
d="M831 1539l-168 -345h-239l106 345h301zM751 1113q74 0 138 -23.5t114.5 -69t79.5 -120t29 -169.5v-731h-317v656q0 95 -42.5 141.5t-118.5 46.5q-91 0 -144.5 -66t-53.5 -158v-620h-317v1085h311v-126q35 63 116.5 108.5t204.5 45.5z" />
    <glyph glyph-name="oacute.loclPLK" horiz-adv-x="1243" 
d="M434 1194l108 345h300l-169 -345h-239zM622 -29q-118 0 -220.5 40t-177.5 112.5t-118.5 181t-43.5 238.5q0 173 74.5 304t201 199t284.5 68t284.5 -68t200.5 -199t74 -304q0 -130 -43 -238.5t-118 -181t-177.5 -112.5t-220.5 -40zM622 244q108 0 171.5 80t63.5 219
q0 138 -63.5 218.5t-171.5 80.5t-172 -80.5t-64 -218.5q0 -139 63.5 -219t172.5 -80z" />
    <glyph glyph-name="sacute.loclPLK" horiz-adv-x="1100" 
d="M384 1194l106 345h302l-169 -345h-239zM565 -35q-343 0 -535 195l184 194q126 -132 357 -132q81 0 124.5 23t43.5 65q0 45 -50.5 66t-183.5 40q-197 27 -304 111t-107 241q0 162 127.5 256t344.5 94q286 0 469 -165l-173 -193q-114 101 -299 101q-73 0 -116.5 -20.5
t-43.5 -60.5q0 -43 52 -63t186 -39q69 -10 124 -24t110 -40.5t91.5 -62.5t59.5 -91.5t23 -125.5q0 -120 -65 -205t-172 -124.5t-247 -39.5z" />
    <glyph glyph-name="zacute.loclPLK" horiz-adv-x="1051" 
d="M339 1194l106 345h301l-168 -345h-239zM56 0v239l507 587h-480v259h864v-240l-506 -586h526v-259h-911z" />
    <glyph glyph-name="germandbls.sc" horiz-adv-x="1245" 
d="M882 700q48 -9 94.5 -33t89 -64t69 -103.5t26.5 -140.5q0 -169 -109 -272.5t-292 -103.5q-98 0 -225 25l49 240q93 -19 142 -19q66 0 105.5 35.5t39.5 95.5q0 58 -37 93.5t-95 35.5q-31 0 -63 -16l-149 175l246 247h-203q-159 0 -159 -192v-703h-296v742q0 190 104.5 299
t311.5 109h573v-224z" />
    <glyph glyph-name="a.ss02" horiz-adv-x="1273" 
d="M845 1085h310v-1085h-310v124q-46 -65 -129.5 -109t-188.5 -44q-203 0 -334 158.5t-131 412.5q0 255 131 413.5t334 158.5q107 0 189 -46t129 -114v131zM614 243q103 0 168.5 80.5t65.5 218.5q0 140 -65 220.5t-169 80.5q-102 0 -165 -80t-63 -221q0 -140 63 -219.5
t165 -79.5z" />
    <glyph glyph-name="aacute.ss02" horiz-adv-x="1273" 
d="M931 1539l-230 -345h-246l167 345h309zM845 1085h310v-1085h-310v124q-46 -65 -129.5 -109t-188.5 -44q-203 0 -334 158.5t-131 412.5q0 255 131 413.5t334 158.5q107 0 189 -46t129 -114v131zM614 243q103 0 168.5 80.5t65.5 218.5q0 140 -65 220.5t-169 80.5
q-102 0 -165 -80t-63 -221q0 -140 63 -219.5t165 -79.5z" />
    <glyph glyph-name="abreve.ss02" horiz-adv-x="1273" 
d="M631 1181q-153 0 -252 93.5t-109 247.5h218q8 -68 48 -110t95 -42t94.5 42t47.5 110h218q-10 -154 -108.5 -247.5t-251.5 -93.5zM845 1085h310v-1085h-310v124q-46 -65 -129.5 -109t-188.5 -44q-203 0 -334 158.5t-131 412.5q0 255 131 413.5t334 158.5q107 0 189 -46
t129 -114v131zM614 243q103 0 168.5 80.5t65.5 218.5q0 140 -65 220.5t-169 80.5q-102 0 -165 -80t-63 -221q0 -140 63 -219.5t165 -79.5z" />
    <glyph glyph-name="acircumflex.ss02" horiz-adv-x="1273" 
d="M631 1352l-114 -160h-259l227 330h291l226 -330h-259zM845 1085h310v-1085h-310v124q-46 -65 -129.5 -109t-188.5 -44q-203 0 -334 158.5t-131 412.5q0 255 131 413.5t334 158.5q107 0 189 -46t129 -114v131zM614 243q103 0 168.5 80.5t65.5 218.5q0 140 -65 220.5
t-169 80.5q-102 0 -165 -80t-63 -221q0 -140 63 -219.5t165 -79.5z" />
    <glyph glyph-name="adieresis.ss02" horiz-adv-x="1273" 
d="M567 1475v-255h-285v255h285zM980 1475v-255h-286v255h286zM845 1085h310v-1085h-310v124q-46 -65 -129.5 -109t-188.5 -44q-203 0 -334 158.5t-131 412.5q0 255 131 413.5t334 158.5q107 0 189 -46t129 -114v131zM614 243q103 0 168.5 80.5t65.5 218.5q0 140 -65 220.5
t-169 80.5q-102 0 -165 -80t-63 -221q0 -140 63 -219.5t165 -79.5z" />
    <glyph glyph-name="agrave.ss02" horiz-adv-x="1273" 
d="M807 1194h-247l-229 345h309zM845 1085h310v-1085h-310v124q-46 -65 -129.5 -109t-188.5 -44q-203 0 -334 158.5t-131 412.5q0 255 131 413.5t334 158.5q107 0 189 -46t129 -114v131zM614 243q103 0 168.5 80.5t65.5 218.5q0 140 -65 220.5t-169 80.5q-102 0 -165 -80
t-63 -221q0 -140 63 -219.5t165 -79.5z" />
    <glyph glyph-name="amacron.ss02" horiz-adv-x="1273" 
d="M933 1450v-197h-605v197h605zM845 1085h310v-1085h-310v124q-46 -65 -129.5 -109t-188.5 -44q-203 0 -334 158.5t-131 412.5q0 255 131 413.5t334 158.5q107 0 189 -46t129 -114v131zM614 243q103 0 168.5 80.5t65.5 218.5q0 140 -65 220.5t-169 80.5q-102 0 -165 -80
t-63 -221q0 -140 63 -219.5t165 -79.5z" />
    <glyph glyph-name="aogonek.ss02" horiz-adv-x="1273" 
d="M1095 -191l72 -182q-87 -55 -201 -55q-128 0 -206 61.5t-78 161.5q0 134 163 225v104q-46 -65 -129.5 -109t-188.5 -44q-203 0 -334 158.5t-131 412.5q0 255 131 413.5t334 158.5q107 0 189 -46t129 -114v131h310v-1085h-135q-117 -73 -117 -145q0 -35 25 -56t67 -21
q46 0 100 31zM614 243q103 0 168.5 80.5t65.5 218.5q0 140 -65 220.5t-169 80.5q-102 0 -165 -80t-63 -221q0 -140 63 -219.5t165 -79.5z" />
    <glyph glyph-name="aring.ss02" horiz-adv-x="1273" 
d="M631 1176q-110 0 -184.5 72t-74.5 180t74.5 180t184.5 72t184 -72.5t74 -179.5q0 -108 -74 -180t-184 -72zM631 1520q-38 0 -61 -25.5t-23 -66.5t23 -66t61 -25q37 0 60 25.5t23 65.5q0 41 -23 66.5t-60 25.5zM845 1085h310v-1085h-310v124q-46 -65 -129.5 -109
t-188.5 -44q-203 0 -334 158.5t-131 412.5q0 255 131 413.5t334 158.5q107 0 189 -46t129 -114v131zM614 243q103 0 168.5 80.5t65.5 218.5q0 140 -65 220.5t-169 80.5q-102 0 -165 -80t-63 -221q0 -140 63 -219.5t165 -79.5z" />
    <glyph glyph-name="aringacute.ss02" horiz-adv-x="1273" 
d="M938 2073l-229 -346h-247l167 346h309zM631 1176q-110 0 -184.5 72t-74.5 180t74.5 180t184.5 72t184 -72.5t74 -179.5q0 -108 -74 -180t-184 -72zM631 1520q-38 0 -61 -25.5t-23 -66.5t23 -66t61 -25q37 0 60 25.5t23 65.5q0 41 -23 66.5t-60 25.5zM845 1085h310v-1085
h-310v124q-46 -65 -129.5 -109t-188.5 -44q-203 0 -334 158.5t-131 412.5q0 255 131 413.5t334 158.5q107 0 189 -46t129 -114v131zM614 243q103 0 168.5 80.5t65.5 218.5q0 140 -65 220.5t-169 80.5q-102 0 -165 -80t-63 -221q0 -140 63 -219.5t165 -79.5z" />
    <glyph glyph-name="atilde.ss02" horiz-adv-x="1273" 
d="M500 1294q-31 0 -61.5 -19t-72.5 -66l-161 160q83 93 149 128.5t140 35.5q81 0 162 -50q57 -37 100 -37q33 0 63 20t71 65l161 -159q-83 -93 -149 -128.5t-140 -35.5q-78 0 -164 50q-63 36 -98 36zM845 1085h310v-1085h-310v124q-46 -65 -129.5 -109t-188.5 -44
q-203 0 -334 158.5t-131 412.5q0 255 131 413.5t334 158.5q107 0 189 -46t129 -114v131zM614 243q103 0 168.5 80.5t65.5 218.5q0 140 -65 220.5t-169 80.5q-102 0 -165 -80t-63 -221q0 -140 63 -219.5t165 -79.5z" />
    <glyph glyph-name="germandbls.ss03" horiz-adv-x="1233" 
d="M849 554q149 -5 243.5 -115.5t94.5 -274.5q0 -211 -156 -355.5t-434 -195.5l-80 272q168 38 253.5 106t85.5 173q0 72 -39.5 117.5t-102.5 45.5q-35 0 -61 -13l-153 211l243 299h-307v-824h-317v1152q0 169 106.5 260t283.5 91q109 0 208 -32l-51 -239q-59 14 -107 14
q-60 0 -91.5 -29.5t-31.5 -103.5v-28h663v-239z" />
    <glyph glyph-name="a.sc" horiz-adv-x="1275" 
d="M928 0l-69 191h-449l-69 -191h-314l445 1150h332l445 -1150h-321zM498 435h273l-136 379z" />
    <glyph glyph-name="aacute.sc" horiz-adv-x="1275" 
d="M940 1579l-229 -345h-247l167 345h309zM928 0l-69 191h-449l-69 -191h-314l445 1150h332l445 -1150h-321zM498 435h273l-136 379z" />
    <glyph glyph-name="abreve.sc" horiz-adv-x="1275" 
d="M636 1228q-152 0 -251.5 92t-108.5 243h218q8 -64 47.5 -105.5t94.5 -41.5t94.5 41.5t48.5 105.5h217q-9 -151 -108 -243t-252 -92zM928 0l-69 191h-449l-69 -191h-314l445 1150h332l445 -1150h-321zM498 435h273l-136 379z" />
    <glyph glyph-name="acircumflex.sc" horiz-adv-x="1275" 
d="M636 1392l-113 -160h-259l226 331h291l227 -331h-259zM928 0l-69 191h-449l-69 -191h-314l445 1150h332l445 -1150h-321zM498 435h273l-136 379z" />
    <glyph glyph-name="adieresis.sc" horiz-adv-x="1275" 
d="M572 1514v-254h-284v254h284zM985 1514v-254h-286v254h286zM928 0l-69 191h-449l-69 -191h-314l445 1150h332l445 -1150h-321zM498 435h273l-136 379z" />
    <glyph glyph-name="agrave.sc" horiz-adv-x="1275" 
d="M809 1234h-247l-229 345h308zM928 0l-69 191h-449l-69 -191h-314l445 1150h332l445 -1150h-321zM498 435h273l-136 379z" />
    <glyph glyph-name="amacron.sc" horiz-adv-x="1275" 
d="M938 1483v-197h-604v197h604zM928 0l-69 191h-449l-69 -191h-314l445 1150h332l445 -1150h-321zM498 435h273l-136 379z" />
    <glyph glyph-name="aogonek.sc" horiz-adv-x="1275" 
d="M1224 -191l72 -182q-87 -55 -201 -55q-128 0 -206 61.5t-78 161.5q0 119 129 205h-12l-69 191h-449l-69 -191h-314l445 1150h332l445 -1150h-100q-118 -72 -118 -145q0 -35 25.5 -56t67.5 -21q46 0 100 31zM498 435h273l-136 379z" />
    <glyph glyph-name="aring.sc" horiz-adv-x="1275" 
d="M636 1217q-110 0 -184.5 72t-74.5 180q0 107 74.5 179.5t184.5 72.5t184 -72.5t74 -179.5q0 -108 -74 -180t-184 -72zM636 1560q-37 0 -60 -25t-23 -66q0 -42 23 -67t60 -25t60 25t23 67q0 41 -23 66t-60 25zM928 0l-69 191h-449l-69 -191h-314l445 1150h332l445 -1150
h-321zM498 435h273l-136 379z" />
    <glyph glyph-name="aringacute.sc" horiz-adv-x="1275" 
d="M957 1845l-229 -345h-247l167 345h309zM928 0l-69 191h-449l-69 -191h-314l422 1090q-49 60 -49 140q0 97 69 162t170 65t170 -65.5t69 -161.5q0 -80 -51 -141l422 -1089h-321zM639 1306q-32 0 -52.5 -21t-20.5 -55t20.5 -55.5t52.5 -21.5t52.5 21.5t20.5 55.5t-20.5 55
t-52.5 21zM498 435h273l-136 379z" />
    <glyph glyph-name="atilde.sc" horiz-adv-x="1275" 
d="M511 1334q-35 0 -65.5 -18.5t-73.5 -65.5l-161 159q83 93 149.5 128.5t142.5 35.5t145 -48q61 -38 108 -38q36 0 66.5 20t72.5 64l161 -159q-82 -93 -149 -128.5t-143 -35.5q-75 0 -146 48q-61 38 -107 38zM928 0l-69 191h-449l-69 -191h-314l445 1150h332l445 -1150
h-321zM498 435h273l-136 379z" />
    <glyph glyph-name="ae.sc" horiz-adv-x="1866" 
d="M1221 256h573v-256h-869v212h-423l-132 -212h-345l740 1150h1022v-256h-566v-199h511v-232h-511v-207zM645 441h280v450z" />
    <glyph glyph-name="aeacute.sc" horiz-adv-x="1870" 
d="M1540 1579l-229 -345h-247l167 345h309zM1221 256h573v-256h-869v212h-423l-132 -212h-345l740 1150h1022v-256h-566v-199h511v-232h-511v-207zM645 441h280v450z" />
    <glyph glyph-name="b.sc" horiz-adv-x="1211" 
d="M945 589q91 -31 136.5 -99t45.5 -162q0 -151 -99 -239.5t-279 -88.5h-618v1150h592q180 0 281 -83t101 -222q0 -176 -160 -256zM428 896v-205h250q59 0 93 27t34 76t-33 75.5t-92 26.5h-252zM706 255q58 0 90 28.5t32 78.5t-33.5 78.5t-92.5 28.5h-274v-214h278z" />
    <glyph glyph-name="c.sc" horiz-adv-x="1216" 
d="M658 -27q-262 0 -423 166t-161 435q0 270 160.5 437t421.5 167q167 0 305 -82t202 -217l-240 -131q-53 88 -113.5 124.5t-149.5 36.5q-128 0 -204 -90.5t-76 -244.5q0 -153 76.5 -242.5t205.5 -89.5q88 0 148.5 40.5t112.5 133.5l242 -130q-79 -149 -211.5 -231
t-295.5 -82z" />
    <glyph glyph-name="cacute.sc" horiz-adv-x="1217" 
d="M484 1234l167 345h308l-228 -345h-247zM658 -27q-262 0 -423 166t-161 435q0 270 160.5 437t421.5 167q167 0 305 -82t202 -217l-240 -131q-53 88 -113.5 124.5t-149.5 36.5q-128 0 -204 -90.5t-76 -244.5q0 -153 76.5 -242.5t205.5 -89.5q88 0 148.5 40.5t112.5 133.5
l242 -130q-79 -149 -211.5 -231t-295.5 -82z" />
    <glyph glyph-name="ccaron.sc" horiz-adv-x="1217" 
d="M800 1232h-291l-227 331h260l112 -160l113 160h259zM923 416l242 -130q-79 -149 -211.5 -231t-295.5 -82q-262 0 -423 166t-161 435q0 270 160.5 437t421.5 167q167 0 305 -82t202 -217l-240 -131q-53 88 -113.5 124.5t-149.5 36.5q-128 0 -204 -90.5t-76 -244.5
q0 -153 76.5 -242.5t205.5 -89.5q88 0 148.5 40.5t112.5 133.5z" />
    <glyph glyph-name="ccedilla.sc" horiz-adv-x="1217" 
d="M1165 286q-65 -122 -166.5 -199.5t-227.5 -102.5l-112 -339h-258l113 344q-202 43 -321 200t-119 385q0 270 160.5 437t421.5 167q167 0 305 -82t202 -217l-240 -131q-53 88 -113.5 124.5t-149.5 36.5q-128 0 -204 -90.5t-76 -244.5q0 -153 76.5 -242.5t205.5 -89.5
q88 0 148.5 40.5t112.5 133.5z" />
    <glyph glyph-name="ccircumflex.sc" horiz-adv-x="1217" 
d="M656 1392l-113 -160h-259l227 331h291l226 -331h-259zM923 416l242 -130q-79 -149 -211.5 -231t-295.5 -82q-262 0 -423 166t-161 435q0 270 160.5 437t421.5 167q167 0 305 -82t202 -217l-240 -131q-53 88 -113.5 124.5t-149.5 36.5q-128 0 -204 -90.5t-76 -244.5
q0 -153 76.5 -242.5t205.5 -89.5q88 0 148.5 40.5t112.5 133.5z" />
    <glyph glyph-name="cdotaccent.sc" horiz-adv-x="1217" 
d="M492 1256v258h329v-258h-329zM658 -27q-262 0 -423 166t-161 435q0 270 160.5 437t421.5 167q167 0 305 -82t202 -217l-240 -131q-53 88 -113.5 124.5t-149.5 36.5q-128 0 -204 -90.5t-76 -244.5q0 -153 76.5 -242.5t205.5 -89.5q88 0 148.5 40.5t112.5 133.5l242 -130
q-79 -149 -211.5 -231t-295.5 -82z" />
    <glyph glyph-name="d.sc" horiz-adv-x="1292" 
d="M613 1150q282 0 444 -155t162 -420t-162 -420t-444 -155h-482v1150h482zM600 263q146 0 229 82.5t83 229.5q0 146 -83 229.5t-229 83.5h-172v-625h172z" />
    <glyph glyph-name="eth.sc" horiz-adv-x="1292" 
d="M613 1150q282 0 444 -155t162 -420t-162 -420t-444 -155h-482v460h-108v231h108v459h482zM600 262q146 0 229 83t83 230q0 146 -83 229.5t-229 83.5h-173v-197h223v-231h-223v-198h173z" />
    <glyph glyph-name="dcaron.sc" horiz-adv-x="1292" 
d="M746 1232h-290l-228 331h259l114 -160l112 160h260zM613 1150q282 0 444 -155t162 -420t-162 -420t-444 -155h-482v1150h482zM600 263q146 0 229 82.5t83 229.5q0 146 -83 229.5t-229 83.5h-172v-625h172z" />
    <glyph glyph-name="dcroat.sc" horiz-adv-x="1287" 
d="M613 1150q282 0 444 -155t162 -420t-162 -420t-444 -155h-482v460h-108v231h108v459h482zM600 262q146 0 229 83t83 230q0 146 -83 229.5t-229 83.5h-173v-197h223v-231h-223v-198h173z" />
    <glyph glyph-name="e.sc" horiz-adv-x="1108" 
d="M428 256h608v-256h-905v1150h898v-256h-601v-199h543v-232h-543v-207z" />
    <glyph glyph-name="eacute.sc" horiz-adv-x="1113" 
d="M888 1579l-230 -345h-246l167 345h309zM428 256h608v-256h-905v1150h898v-256h-601v-199h543v-232h-543v-207z" />
    <glyph glyph-name="ebreve.sc" horiz-adv-x="1113" 
d="M584 1228q-152 0 -251.5 92t-108.5 243h217q8 -64 48 -105.5t95 -41.5t94.5 41.5t48.5 105.5h217q-9 -151 -108 -243t-252 -92zM428 256h608v-256h-905v1150h898v-256h-601v-199h543v-232h-543v-207z" />
    <glyph glyph-name="ecaron.sc" horiz-adv-x="1113" 
d="M728 1232h-292l-226 331h259l113 -160l112 160h259zM428 256h608v-256h-905v1150h898v-256h-601v-199h543v-232h-543v-207z" />
    <glyph glyph-name="ecircumflex.sc" horiz-adv-x="1113" 
d="M584 1392l-113 -160h-259l226 331h291l226 -331h-259zM428 256h608v-256h-905v1150h898v-256h-601v-199h543v-232h-543v-207z" />
    <glyph glyph-name="edieresis.sc" horiz-adv-x="1113" 
d="M520 1514v-254h-284v254h284zM933 1514v-254h-286v254h286zM428 256h608v-256h-905v1150h898v-256h-601v-199h543v-232h-543v-207z" />
    <glyph glyph-name="edotaccent.sc" horiz-adv-x="1113" 
d="M749 1514v-258h-330v258h330zM428 256h608v-256h-905v1150h898v-256h-601v-199h543v-232h-543v-207z" />
    <glyph glyph-name="egrave.sc" horiz-adv-x="1113" 
d="M757 1234h-247l-229 345h308zM428 256h608v-256h-905v1150h898v-256h-601v-199h543v-232h-543v-207z" />
    <glyph glyph-name="emacron.sc" horiz-adv-x="1113" 
d="M886 1483v-197h-604v197h604zM428 256h608v-256h-905v1150h898v-256h-601v-199h543v-232h-543v-207z" />
    <glyph glyph-name="eogonek.sc" horiz-adv-x="1113" 
d="M998 -191l73 -182q-85 -55 -202 -55q-128 0 -205.5 61.5t-77.5 161.5q0 119 130 205h-585v1150h898v-256h-601v-199h543v-232h-543v-207h608v-256h-112q-117 -73 -117 -145q0 -35 25 -56t67 -21q45 0 99 31z" />
    <glyph glyph-name="uni0259.sc" horiz-adv-x="1296" 
d="M611 1176q276 0 444 -162.5t168 -434.5t-161 -439t-426 -167q-170 0 -298.5 78t-196 214t-67.5 310v96h835q-43 239 -303 239q-92 0 -156 -31t-119 -102l-220 170q92 118 212.5 173.5t287.5 55.5zM642 238q99 0 169.5 54.5t94.5 167.5h-517q22 -111 88.5 -166.5
t164.5 -55.5z" />
    <glyph glyph-name="f.sc" horiz-adv-x="1085" 
d="M1038 894h-610v-212h520v-246h-520v-436h-297v1150h907v-256z" />
    <glyph glyph-name="g.sc" horiz-adv-x="1265" 
d="M678 653h490v-653h-247v100q-92 -127 -291 -127q-243 0 -399.5 166.5t-156.5 434.5q0 184 76 321.5t210 209.5t306 72q148 0 278.5 -61t214.5 -180l-229 -157q-50 69 -108.5 99.5t-146.5 30.5q-132 0 -213.5 -87.5t-81.5 -247.5q0 -159 78 -245.5t216 -86.5q98 0 162 42
t78 131l1 7h-237v231z" />
    <glyph glyph-name="uni01F5.sc" horiz-adv-x="1270" 
d="M970 1579l-230 -345h-246l168 345h308zM678 653h490v-653h-247v100q-92 -127 -291 -127q-243 0 -399.5 166.5t-156.5 434.5q0 184 76 321.5t210 209.5t306 72q148 0 278.5 -61t214.5 -180l-229 -157q-50 69 -108.5 99.5t-146.5 30.5q-132 0 -213.5 -87.5t-81.5 -247.5
q0 -159 78 -245.5t216 -86.5q98 0 162 42t78 131l1 7h-237v231z" />
    <glyph glyph-name="gbreve.sc" horiz-adv-x="1270" 
d="M667 1228q-153 0 -252.5 92t-108.5 243h217q9 -64 49 -105.5t95 -41.5t94.5 41.5t47.5 105.5h217q-9 -151 -108 -243t-251 -92zM678 653h490v-653h-247v100q-92 -127 -291 -127q-243 0 -399.5 166.5t-156.5 434.5q0 184 76 321.5t210 209.5t306 72q148 0 278.5 -61
t214.5 -180l-229 -157q-50 69 -108.5 99.5t-146.5 30.5q-132 0 -213.5 -87.5t-81.5 -247.5q0 -159 78 -245.5t216 -86.5q98 0 162 42t78 131l1 7h-237v231z" />
    <glyph glyph-name="gcircumflex.sc" horiz-adv-x="1270" 
d="M666 1392l-113 -160h-259l226 331h292l226 -331h-260zM678 653h490v-653h-247v100q-92 -127 -291 -127q-243 0 -399.5 166.5t-156.5 434.5q0 184 76 321.5t210 209.5t306 72q148 0 278.5 -61t214.5 -180l-229 -157q-50 69 -108.5 99.5t-146.5 30.5q-132 0 -213.5 -87.5
t-81.5 -247.5q0 -159 78 -245.5t216 -86.5q98 0 162 42t78 131l1 7h-237v231z" />
    <glyph glyph-name="uni0123.sc" horiz-adv-x="1270" 
d="M678 653h490v-653h-247v100q-92 -127 -291 -127q-243 0 -399.5 166.5t-156.5 434.5q0 184 76 321.5t210 209.5t306 72q148 0 278.5 -61t214.5 -180l-229 -157q-50 69 -108.5 99.5t-146.5 30.5q-132 0 -213.5 -87.5t-81.5 -247.5q0 -159 78 -245.5t216 -86.5q98 0 162 42
t78 131l1 7h-237v231zM511 -286v210h277v-217q0 -65 -44 -113.5t-132 -89.5l-63 100q57 27 81.5 51t24.5 59h-144z" />
    <glyph glyph-name="gdotaccent.sc" horiz-adv-x="1270" 
d="M831 1514v-258h-329v258h329zM678 653h490v-653h-247v100q-92 -127 -291 -127q-243 0 -399.5 166.5t-156.5 434.5q0 184 76 321.5t210 209.5t306 72q148 0 278.5 -61t214.5 -180l-229 -157q-50 69 -108.5 99.5t-146.5 30.5q-132 0 -213.5 -87.5t-81.5 -247.5
q0 -159 78 -245.5t216 -86.5q98 0 162 42t78 131l1 7h-237v231z" />
    <glyph glyph-name="h.sc" horiz-adv-x="1320" 
d="M893 1150h297v-1150h-297v451h-465v-451h-297v1150h297v-437h465v437z" />
    <glyph glyph-name="hbar.sc" horiz-adv-x="1319" 
d="M1292 1028v-200h-102v-828h-297v451h-465v-451h-297v828h-103v200h103v122h297v-129h465v129h297v-122h102zM428 713h465v122h-465v-122z" />
    <glyph glyph-name="hcircumflex.sc" horiz-adv-x="1320" 
d="M660 1392l-113 -160h-259l227 331h291l226 -331h-260zM893 1150h297v-1150h-297v451h-465v-451h-297v1150h297v-437h465v437z" />
    <glyph glyph-name="i.sc" horiz-adv-x="559" 
d="M131 0v1150h297v-1150h-297z" />
    <glyph glyph-name="iacute.sc" horiz-adv-x="558" 
d="M106 1234l167 345h310l-230 -345h-247zM131 0v1150h297v-1150h-297z" />
    <glyph glyph-name="ibreve.sc" horiz-adv-x="558" 
d="M279 1228q-152 0 -251.5 92t-108.5 243h217q8 -64 48 -105.5t95 -41.5t94.5 41.5t48.5 105.5h217q-9 -151 -108 -243t-252 -92zM131 0v1150h297v-1150h-297z" />
    <glyph glyph-name="icircumflex.sc" horiz-adv-x="558" 
d="M279 1392l-113 -160h-260l227 331h291l226 -331h-259zM131 0v1150h297v-1150h-297z" />
    <glyph glyph-name="idieresis.sc" horiz-adv-x="559" 
d="M-50 1258v256h266v-256h-266zM342 1258v256h266v-256h-266zM132 0v1150h296v-1150h-296z" />
    <glyph glyph-name="i.sc.loclTRK" horiz-adv-x="558" 
d="M114 1256v258h329v-258h-329zM131 0v1150h296v-1150h-296z" />
    <glyph glyph-name="igrave.sc" horiz-adv-x="558" 
d="M205 1234l-230 345h309l167 -345h-246zM131 0v1150h297v-1150h-297z" />
    <glyph glyph-name="ij.sc" horiz-adv-x="1576" 
d="M131 0v1150h297v-1150h-297zM1042 -27q-167 0 -271 59.5t-165 185.5l240 139q56 -121 172 -121q68 0 107.5 43t39.5 125v746h296v-777q0 -190 -110 -295t-309 -105z" />
    <glyph glyph-name="imacron.sc" horiz-adv-x="558" 
d="M-24 1286v197h605v-197h-605zM131 0v1150h297v-1150h-297z" />
    <glyph glyph-name="iogonek.sc" horiz-adv-x="558" 
d="M415 -197l72 -180q-42 -25 -99.5 -38.5t-108.5 -13.5q-119 0 -189.5 65.5t-70.5 158.5q0 119 112 206v1149h297v-1150h-90q-98 -66 -98 -144q0 -34 23.5 -56t65.5 -22q41 0 86 25z" />
    <glyph glyph-name="itilde.sc" horiz-adv-x="558" 
d="M407 1248q-75 0 -146 48q-61 38 -107 38q-36 0 -66.5 -19t-73.5 -65l-160 159q83 93 149 128.5t142 35.5q77 0 146 -48q61 -38 107 -38q36 0 67 20t73 64l160 -159q-83 -93 -149 -128.5t-142 -35.5zM131 0v1150h297v-1150h-297z" />
    <glyph glyph-name="j.sc" horiz-adv-x="1018" 
d="M484 -27q-167 0 -271 59.5t-165 185.5l240 139q56 -121 172 -121q68 0 107.5 43t39.5 125v746h296v-777q0 -190 -110 -295t-309 -105z" />
    <glyph glyph-name="jcircumflex.sc" horiz-adv-x="1018" 
d="M755 1392l-113 -160h-259l226 331h291l226 -331h-259zM607 404v746h296v-777q0 -190 -110 -295t-309 -105q-167 0 -271 59.5t-165 185.5l240 139q56 -121 172 -121q68 0 107.5 43t39.5 125z" />
    <glyph glyph-name="k.sc" horiz-adv-x="1220" 
d="M864 0l-284 452l-152 -171v-281h-297v1150h297v-476l409 476h361l-428 -483l438 -667h-344z" />
    <glyph glyph-name="uni0137.sc" horiz-adv-x="1221" 
d="M770 667l438 -667h-344l-284 452l-152 -171v-281h-297v1150h297v-476l409 476h361zM492 -286v210h277v-217q0 -65 -44 -113.5t-132 -89.5l-64 100q57 28 82 51.5t25 58.5h-144z" />
    <glyph glyph-name="l.sc" horiz-adv-x="993" 
d="M428 263h525v-263h-822v1150h297v-887z" />
    <glyph glyph-name="lacute.sc" horiz-adv-x="993" 
d="M583 1579l-230 -345h-247l167 345h310zM428 263h525v-263h-822v1150h297v-887z" />
    <glyph glyph-name="i.sc.latn_TRK.sc" horiz-adv-x="558" 
d="M114 1256v258h329v-258h-329zM131 0v1150h297v-1150h-297z" />
    <glyph glyph-name="lcaron.sc" horiz-adv-x="993" 
d="M428 263h525v-263h-822v1150h297v-887zM855 1150l-61 -481h-224v481h285z" />
    <glyph glyph-name="uni013C.sc" horiz-adv-x="993" 
d="M428 263h525v-263h-822v1150h297v-887zM433 -286v210h278v-217q0 -65 -44 -113.5t-132 -89.5l-63 100q57 28 82 51.5t25 58.5h-146z" />
    <glyph glyph-name="ldot.sc" horiz-adv-x="993" 
d="M427 263h526v-263h-822v1150h296v-887zM901 839v-286h-288v286h288z" />
    <glyph glyph-name="cacute.loclPLK.sc" horiz-adv-x="1217" 
d="M465 1234l107 345h300l-169 -345h-238zM658 -27q-262 0 -423 166t-161 435q0 270 160.5 437t421.5 167q167 0 305 -82t202 -217l-240 -131q-53 88 -113.5 124.5t-149.5 36.5q-128 0 -204 -90.5t-76 -244.5q0 -153 76.5 -242.5t205.5 -89.5q88 0 148.5 40.5t112.5 133.5
l242 -130q-79 -149 -211.5 -231t-295.5 -82z" />
    <glyph glyph-name="nacute.loclPLK.sc" horiz-adv-x="1308" 
d="M870 1579l-169 -345h-238l106 345h301zM881 1150h297v-1150h-338l-412 701v-701h-297v1150h336l414 -705v705z" />
    <glyph glyph-name="oacute.loclPLK.sc" horiz-adv-x="1341" 
d="M480 1234l107 346h300l-168 -346h-239zM671 -27q-269 0 -433 165.5t-164 436.5q0 272 164.5 438t432.5 166q269 0 433.5 -166.5t164.5 -437.5t-164.5 -436.5t-433.5 -165.5zM671 242q133 0 212.5 90.5t79.5 242.5q0 153 -80 244t-212 91t-211.5 -91t-79.5 -244
q0 -152 79.5 -242.5t211.5 -90.5z" />
    <glyph glyph-name="sacute.loclPLK.sc" horiz-adv-x="1197" 
d="M426 1234l106 345h301l-168 -345h-239zM612 -28q-357 0 -552 212l188 194q137 -148 366 -148q92 0 146.5 27t54.5 71q0 24 -13.5 42.5t-33.5 30t-55.5 21t-64.5 14.5t-76 11q-53 8 -90 14.5t-89.5 20.5t-89 31t-76.5 45.5t-64.5 63.5t-40.5 85.5t-16 111.5
q0 168 132.5 264t360.5 96q162 0 295.5 -50.5t226.5 -145.5l-186 -190q-62 62 -150.5 95.5t-189.5 33.5q-82 0 -132 -26t-50 -68q0 -49 57.5 -72.5t164.5 -35.5q53 -6 92 -12.5t93 -20t92.5 -30.5t80 -46t67.5 -65.5t43 -89.5t17 -117q0 -172 -134 -269.5t-374 -97.5z" />
    <glyph glyph-name="zacute.loclPLK.sc" horiz-adv-x="1107" 
d="M359 1234l107 345h300l-169 -345h-238zM76 0v244l559 644h-543v262h925v-243l-561 -646h577v-261h-957z" />
    <glyph glyph-name="lslash.sc" horiz-adv-x="985" 
d="M419 263h526v-263h-822v381l-117 -55v256l117 55v513h296v-385l345 164v-256l-345 -164v-246z" />
    <glyph glyph-name="m.sc" horiz-adv-x="1584" 
d="M1454 1150v-1150h-297v721l-232 -721h-266l-231 716v-716h-297v1150h406l256 -773l255 773h406z" />
    <glyph glyph-name="n.sc" horiz-adv-x="1308" 
d="M881 1150h297v-1150h-338l-412 701v-701h-297v1150h336l414 -705v705z" />
    <glyph glyph-name="nacute.sc" horiz-adv-x="1308" 
d="M957 1579l-228 -345h-247l167 345h308zM881 1150h297v-1150h-338l-412 701v-701h-297v1150h336l414 -705v705z" />
    <glyph glyph-name="napostrophe.sc" horiz-adv-x="1730" 
d="M103 1125v350h351v-360q0 -123 -42.5 -203.5t-154.5 -166.5l-118 132q80 49 108 107.5t28 140.5h-172zM1304 1150h295v-1150h-336l-413 703v-703h-297v1150h337l414 -707v707z" />
    <glyph glyph-name="ncaron.sc" horiz-adv-x="1308" 
d="M798 1232h-291l-227 331h260l112 -160l113 160h259zM881 1150h297v-1150h-338l-412 701v-701h-297v1150h336l414 -705v705z" />
    <glyph glyph-name="uni0146.sc" horiz-adv-x="1308" 
d="M881 1150h297v-1150h-338l-412 701v-701h-297v1150h336l414 -705v705zM515 -286v210h278v-217q0 -64 -44.5 -113t-132.5 -90l-62 100q56 28 80.5 51.5t24.5 58.5h-144z" />
    <glyph glyph-name="eng.sc" horiz-adv-x="1308" 
d="M881 1150h297v-1149q0 -131 -104 -210t-275 -79q-114 0 -222 40l75 232q62 -26 121 -26q51 0 79.5 24t28.5 65v15l-453 654v-716h-297v1150h336l414 -623v623z" />
    <glyph glyph-name="ntilde.sc" horiz-adv-x="1308" 
d="M529 1334q-36 0 -66.5 -19t-73.5 -65l-161 159q84 93 150.5 128.5t142.5 35.5q75 0 146 -48q59 -38 106 -38q37 0 67.5 20t72.5 64l161 -159q-83 -93 -150 -128.5t-143 -35.5q-32 0 -60.5 7.5t-44.5 16t-40 24.5q-59 38 -107 38zM881 1150h297v-1150h-338l-412 701v-701
h-297v1150h336l414 -705v705z" />
    <glyph glyph-name="o.sc" horiz-adv-x="1342" 
d="M671 -27q-269 0 -433 165.5t-164 436.5q0 272 164.5 438t432.5 166q269 0 433.5 -166.5t164.5 -437.5t-164.5 -436.5t-433.5 -165.5zM671 242q133 0 212.5 90.5t79.5 242.5q0 153 -80 244t-212 91t-211.5 -91t-79.5 -244q0 -152 79.5 -242.5t211.5 -90.5z" />
    <glyph glyph-name="oacute.sc" horiz-adv-x="1341" 
d="M499 1234l167 346h309l-230 -346h-246zM671 -27q-269 0 -433 165.5t-164 436.5q0 272 164.5 438t432.5 166q269 0 433.5 -166.5t164.5 -437.5t-164.5 -436.5t-433.5 -165.5zM671 242q133 0 212.5 90.5t79.5 242.5q0 153 -80 244t-212 91t-211.5 -91t-79.5 -244
q0 -152 79.5 -242.5t211.5 -90.5z" />
    <glyph glyph-name="obreve.sc" horiz-adv-x="1341" 
d="M671 1229q-152 0 -251.5 92t-108.5 242h217q8 -64 48 -105t95 -41t94.5 41t48.5 105h217q-10 -150 -108.5 -242t-251.5 -92zM671 -27q-269 0 -433 165.5t-164 436.5q0 272 164.5 438t432.5 166q269 0 433.5 -166.5t164.5 -437.5t-164.5 -436.5t-433.5 -165.5zM671 242
q133 0 212.5 90.5t79.5 242.5q0 153 -80 244t-212 91t-211.5 -91t-79.5 -244q0 -152 79.5 -242.5t211.5 -90.5z" />
    <glyph glyph-name="ocircumflex.sc" horiz-adv-x="1341" 
d="M671 1393l-113 -160h-260l227 330h291l226 -330h-259zM671 1179q269 0 433.5 -166.5t164.5 -437.5t-164.5 -436.5t-433.5 -165.5t-433 165.5t-164 436.5q0 272 164.5 438t432.5 166zM671 242q133 0 212.5 90.5t79.5 242.5q0 153 -80 244t-212 91t-211.5 -91t-79.5 -244
q0 -152 79.5 -242.5t211.5 -90.5z" />
    <glyph glyph-name="odieresis.sc" horiz-adv-x="1341" 
d="M322 1260v256h285v-256h-285zM734 1260v256h286v-256h-286zM671 -27q-269 0 -433 165.5t-164 436.5q0 272 164.5 438t432.5 166q269 0 433.5 -166.5t164.5 -437.5t-164.5 -436.5t-433.5 -165.5zM671 242q133 0 212.5 90.5t79.5 242.5q0 153 -80 244t-212 91t-211.5 -91
t-79.5 -244q0 -152 79.5 -242.5t211.5 -90.5z" />
    <glyph glyph-name="ograve.sc" horiz-adv-x="1341" 
d="M597 1234l-229 346h308l167 -346h-246zM671 -27q-269 0 -433 165.5t-164 436.5q0 272 164.5 438t432.5 166q269 0 433.5 -166.5t164.5 -437.5t-164.5 -436.5t-433.5 -165.5zM671 242q133 0 212.5 90.5t79.5 242.5q0 153 -80 244t-212 91t-211.5 -91t-79.5 -244
q0 -152 79.5 -242.5t211.5 -90.5z" />
    <glyph glyph-name="ohungarumlaut.sc" horiz-adv-x="1341" 
d="M330 1260l167 345h308l-228 -345h-247zM735 1260l167 345h309l-229 -345h-247zM671 -27q-269 0 -433 165.5t-164 436.5q0 272 164.5 438t432.5 166q269 0 433.5 -166.5t164.5 -437.5t-164.5 -436.5t-433.5 -165.5zM671 242q133 0 212.5 90.5t79.5 242.5q0 153 -80 244
t-212 91t-211.5 -91t-79.5 -244q0 -152 79.5 -242.5t211.5 -90.5z" />
    <glyph glyph-name="omacron.sc" horiz-adv-x="1341" 
d="M369 1286v197h604v-197h-604zM671 -27q-269 0 -433 165.5t-164 436.5q0 272 164.5 438t432.5 166q269 0 433.5 -166.5t164.5 -437.5t-164.5 -436.5t-433.5 -165.5zM671 242q133 0 212.5 90.5t79.5 242.5q0 153 -80 244t-212 91t-211.5 -91t-79.5 -244q0 -152 79.5 -242.5
t211.5 -90.5z" />
    <glyph glyph-name="oslash.sc" horiz-adv-x="1349" 
d="M1137 981q135 -160 135 -406q0 -271 -164 -436.5t-433 -165.5q-160 0 -290 64l-118 -149l-171 138l116 146q-134 159 -134 403q0 271 164 437t433 166q161 0 289 -63l116 147l171 -137zM675 911q-132 0 -211.5 -91t-79.5 -245q0 -91 31 -164l380 477q-54 23 -120 23z
M675 240q133 0 212 90.5t79 244.5q0 90 -31 167l-382 -478q54 -24 122 -24z" />
    <glyph glyph-name="oslashacute.sc" horiz-adv-x="1348" 
d="M978 1579l-229 -345h-247l168 345h308zM1137 981q135 -160 135 -406q0 -271 -164 -436.5t-433 -165.5q-160 0 -290 64l-118 -149l-171 138l116 146q-134 159 -134 403q0 271 164 437t433 166q161 0 289 -63l116 147l171 -137zM675 911q-132 0 -211.5 -91t-79.5 -245
q0 -91 31 -164l380 477q-54 23 -120 23zM675 240q133 0 212 90.5t79 244.5q0 90 -31 167l-382 -478q54 -24 122 -24z" />
    <glyph glyph-name="otilde.sc" horiz-adv-x="1341" 
d="M799 1248q-75 0 -146 48q-62 39 -107 39q-35 0 -66 -19t-74 -66l-160 160q83 93 149.5 128.5t142.5 35.5t145 -48q57 -39 108 -39q36 0 66.5 20t72.5 65l161 -159q-83 -93 -149.5 -129t-142.5 -36zM671 -27q-269 0 -433 165.5t-164 436.5q0 272 164.5 438t432.5 166
q269 0 433.5 -166.5t164.5 -437.5t-164.5 -436.5t-433.5 -165.5zM671 242q133 0 212.5 90.5t79.5 242.5q0 153 -80 244t-212 91t-211.5 -91t-79.5 -244q0 -152 79.5 -242.5t211.5 -90.5z" />
    <glyph glyph-name="oe.sc" horiz-adv-x="1786" 
d="M1139 257h574v-257h-1034q-282 0 -443.5 154.5t-161.5 419.5t161.5 420.5t443.5 155.5h1027v-255h-567v-200h511v-232h-511v-206zM691 262h152v626h-152q-145 0 -228 -83.5t-83 -230.5q0 -146 83 -229t228 -83z" />
    </font>
</defs>
</svg>
