<?xml version="1.0" standalone="no"?>
<!DOCTYPE svg PUBLIC "-//W3C//DTD SVG 1.1//EN" "http://www.w3.org/Graphics/SVG/1.1/DTD/svg11.dtd" >
<svg xmlns="http://www.w3.org/2000/svg" xmlns:xlink="http://www.w3.org/1999/xlink" version="1.1">
<metadata>
Created by FontForge 20170731 at Sat Dec  5 06:59:54 2020
 By Aleksey,,,
Copyright (c) 2019 Monotype Imaging Inc. All rights reserved.
</metadata>
<defs>
<font id="Infra-ExtraBoldItalic" horiz-adv-x="1228" >
  <font-face 
    font-family="Infra ExtraBold"
    font-weight="800"
    font-style="italic"
    font-stretch="normal"
    units-per-em="2048"
    panose-1="2 11 8 0 0 0 0 9 0 0"
    ascent="1582"
    descent="-466"
    x-height="1090"
    cap-height="1475"
    bbox="-1237 -645 2861 2263"
    underline-thickness="291"
    underline-position="-557"
    slope="-10"
    unicode-range="U+000D-FEFF"
  />
<missing-glyph horiz-adv-x="1222" 
d="M25 0l260 1475h982l-260 -1475h-982zM344 251h432l171 973h-432z" />
    <glyph glyph-name="fi" unicode="fi" horiz-adv-x="1382" 
d="M839 799h-253l-142 -799h-360l141 799h-148l52 291h147l13 68q29 164 147 255t300 91q121 0 235 -38l-85 -257q-58 17 -109 17q-63 0 -94 -25.5t-41 -82.5l-5 -28h253zM1082 1475h369l-48 -277h-370zM826 0l193 1090h360l-192 -1090h-361z" />
    <glyph glyph-name="fl" unicode="fl" horiz-adv-x="1381" 
d="M839 799h-253l-142 -799h-360l141 799h-148l52 291h147l13 68q29 164 147 255t300 91q121 0 235 -38l-85 -257q-58 17 -109 17q-63 0 -94 -25.5t-41 -82.5l-5 -28h253zM1086 1475h361l-260 -1475h-361z" />
    <glyph glyph-name="f_f" unicode="ff" horiz-adv-x="1597" 
d="M1416 1118l-5 -28h253l-52 -292h-252l-141 -798h-361l140 798h-412l-142 -798h-360l141 798h-148l52 292h147l13 68q29 164 147 255t300 91q121 0 235 -38l-85 -257q-58 17 -109 17q-63 0 -94 -26t-40 -82l-5 -28h412l12 68q29 164 147 255t300 91q120 0 236 -38
l-86 -257q-58 17 -109 17q-63 0 -93.5 -25.5t-40.5 -82.5z" />
    <glyph glyph-name="f_f_i" unicode="ffi" horiz-adv-x="2186" 
d="M1664 1090l-52 -292h-252l-141 -798h-361l140 798h-412l-142 -798h-360l141 798h-148l52 292h147l13 68q29 164 147 255t300 91q121 0 235 -38l-85 -257q-58 17 -109 17q-63 0 -94 -26t-40 -82l-5 -28h412l12 68q29 164 147 255t300 91q120 0 236 -38l-86 -257
q-58 17 -109 17q-63 0 -93.5 -25.5t-40.5 -82.5l-5 -28h253zM1886 1475h370l-49 -277h-369zM1631 0l192 1090h360l-191 -1090h-361z" />
    <glyph glyph-name="f_f_l" unicode="ffl" horiz-adv-x="2189" 
d="M1664 1091l-52 -292h-252l-141 -799h-361l140 799h-412l-142 -799h-360l141 799h-148l51 292h148l13 67q28 164 146 255t300 91q122 0 236 -38l-85 -257q-58 17 -109 17q-63 0 -94 -25.5t-41 -82.5l-5 -27h413l12 67q29 164 147 255t300 91q122 0 236 -39l-85 -256
q-60 17 -110 17q-62 0 -93.5 -26t-40.5 -82l-5 -27h253zM1894 1475h361l-260 -1475h-361z" />
    <glyph glyph-name=".notdef" horiz-adv-x="1222" 
d="M25 0l260 1475h982l-260 -1475h-982zM344 251h432l171 973h-432z" />
    <glyph glyph-name=".null" horiz-adv-x="0" 
 />
    <glyph glyph-name="nonmarkingreturn" horiz-adv-x="682" 
 />
    <glyph glyph-name="NULL" horiz-adv-x="0" 
 />
    <glyph glyph-name="NULL" horiz-adv-x="0" 
 />
    <glyph glyph-name="CR" unicode="&#xd;" horiz-adv-x="445" 
 />
    <glyph glyph-name="space" unicode=" " horiz-adv-x="445" 
 />
    <glyph glyph-name="exclam" unicode="!" horiz-adv-x="622" 
d="M198 467l-4 510l88 498h388l-88 -498l-182 -510h-202zM23 0l63 356h385l-62 -356h-386z" />
    <glyph glyph-name="quotedbl" unicode="&#x22;" horiz-adv-x="1016" 
d="M132 785l121 690h336l-121 -690h-336zM635 785l121 690h336l-121 -690h-336z" />
    <glyph glyph-name="numbersign" unicode="#" horiz-adv-x="1563" 
d="M1509 873h-188l-86 -272h190l-92 -292h-189l-96 -309h-360l96 309h-205l-98 -309h-357l96 309h-191l92 292h190l86 272h-191l93 292h189l97 310h358l-97 -310h207l96 310h359l-96 -310h191zM876 601l86 272h-207l-85 -272h206z" />
    <glyph glyph-name="dollar" unicode="$" horiz-adv-x="1358" 
d="M759 881q274 -35 401.5 -140.5t127.5 -296.5q0 -201 -143.5 -325.5t-400.5 -147.5l-28 -158h-315l31 175q-130 28 -240 89.5t-184 145.5l241 244q67 -82 176 -128.5t239 -46.5q107 0 173.5 35t66.5 91q0 53 -55.5 83.5t-186.5 50.5q-252 36 -377.5 147.5t-125.5 291.5
q0 201 140.5 324t390.5 140l28 155h314l-31 -178q235 -56 372 -202l-232 -244q-63 68 -161.5 107t-210.5 39q-99 0 -163 -35.5t-64 -92.5q0 -50 50.5 -78t166.5 -45z" />
    <glyph glyph-name="percent" unicode="%" horiz-adv-x="2083" 
d="M550 650q-158 0 -260 103t-102 263q0 190 118.5 310.5t307.5 120.5q158 0 260.5 -103t102.5 -263q0 -190 -118.5 -310.5t-308.5 -120.5zM387 0l1071 1423h297l-1071 -1423h-297zM568 890q62 0 101 53.5t39 131.5q0 60 -31 96t-80 36q-62 0 -100.5 -53t-38.5 -131
q0 -63 29.5 -98t80.5 -35zM1528 -24q-158 0 -260.5 103t-102.5 263q0 190 119 310.5t308 120.5q158 0 260 -102.5t102 -262.5q0 -190 -118.5 -311t-307.5 -121zM1545 216q62 0 100.5 53.5t38.5 130.5q0 61 -30 97.5t-80 36.5q-61 0 -100 -54t-39 -131q0 -63 29.5 -98
t80.5 -35z" />
    <glyph glyph-name="ampersand" unicode="&#x26;" horiz-adv-x="1527" 
d="M1414 580q-74 -190 -197 -327l187 -253h-391l-46 58q-180 -91 -387 -91q-204 0 -342 119.5t-138 305.5q0 140 75 240.5t207 177.5q-111 162 -111 293q0 176 139.5 290t340.5 114q190 0 314.5 -101.5t124.5 -261.5q0 -139 -84 -248t-227 -185l141 -192q58 82 97 175z
M739 1202q-51 0 -82 -34t-31 -81q0 -59 63 -133q75 36 108.5 72.5t33.5 86.5q0 42 -25 65.5t-67 23.5zM614 260q75 0 161 43l-200 255q-120 -77 -120 -166q0 -60 48.5 -96t110.5 -36z" />
    <glyph glyph-name="quotesingle" unicode="'" horiz-adv-x="514" 
d="M132 785l121 690h336l-121 -690h-336z" />
    <glyph glyph-name="parenleft" unicode="(" horiz-adv-x="835" 
d="M373 -375q-297 378 -297 826q0 333 143.5 639.5t425.5 573.5l253 -209q-239 -243 -351.5 -487.5t-112.5 -520.5q0 -165 54 -313.5t171 -311.5z" />
    <glyph glyph-name="parenright" unicode=")" horiz-adv-x="835" 
d="M226 -375l-253 209q239 243 351.5 487.5t112.5 520.5q0 165 -54 313.5t-171 311.5l287 197q297 -378 297 -825q0 -334 -144 -640.5t-426 -573.5z" />
    <glyph glyph-name="asterisk" unicode="*" horiz-adv-x="900" 
d="M631 731l-108 162l-136 -156l-202 155l156 169l-189 55l86 233l187 -64l33 190h273l-36 -200l205 58l43 -249l-205 -48l109 -151z" />
    <glyph glyph-name="plus" unicode="+" 
d="M1147 735l-51 -292h-342l-60 -333h-310l59 333h-346l51 292h347l56 321h310l-56 -321h342z" />
    <glyph glyph-name="comma" unicode="," horiz-adv-x="565" 
d="M60 382h387l-69 -392q-25 -142 -87 -237.5t-207 -185.5l-110 153q171 100 205 280h-186z" />
    <glyph glyph-name="hyphen" unicode="-" horiz-adv-x="804" 
d="M70 443l51 292h631l-52 -292h-630z" />
    <glyph glyph-name="period" unicode="." horiz-adv-x="565" 
d="M-7 0l67 382h387l-67 -382h-387z" />
    <glyph glyph-name="slash" unicode="/" horiz-adv-x="1038" 
d="M-114 -215l979 1823h355l-983 -1823h-351z" />
    <glyph glyph-name="zero" unicode="0" horiz-adv-x="1349" 
d="M638 -34q-258 0 -403.5 162t-145.5 445q0 145 27 276t83 242.5t136 192.5t191.5 127t243.5 46q258 0 403.5 -162t145.5 -445q0 -145 -27 -276t-83 -242.5t-136 -192.5t-191.5 -127t-243.5 -46zM647 295q72 0 130.5 51t93 133t53 175t18.5 186q0 138 -46 213t-135 75
q-72 0 -130.5 -51t-93 -132.5t-53 -174.5t-18.5 -186q0 -138 46 -213.5t135 -75.5z" />
    <glyph glyph-name="one" unicode="1" horiz-adv-x="1032" 
d="M1032 1423l-251 -1423h-369l172 973l-263 -206l-181 225l549 431h343z" />
    <glyph glyph-name="two" unicode="2" horiz-adv-x="1259" 
d="M869 518l-235 -209h519l-54 -309h-1043l50 289l507 447q132 119 177 176.5t45 111.5q0 52 -34 82t-92 30q-159 0 -242 -224l-326 113q95 224 242.5 328t354.5 104q212 0 339.5 -111.5t127.5 -303.5q0 -139 -76.5 -251t-259.5 -273z" />
    <glyph glyph-name="three" unicode="3" horiz-adv-x="1222" 
d="M965 714q173 -87 173 -281q0 -212 -160 -339.5t-406 -127.5q-209 0 -358 106t-194 283l330 113q23 -92 84.5 -137.5t145.5 -45.5q89 0 138 44t49 113q0 60 -36.5 93.5t-105.5 33.5h-153l49 283h110q89 0 139.5 48t50.5 121q0 58 -37 88.5t-100 30.5q-163 0 -237 -196
l-313 107q74 201 225 303.5t361 102.5q213 0 346.5 -111.5t133.5 -293.5q0 -237 -235 -338z" />
    <glyph glyph-name="four" unicode="4" horiz-adv-x="1247" 
d="M1222 590l-55 -309h-176l-49 -281h-371l50 281h-617l52 300l728 842h409l-146 -833h175zM415 590h261l70 398z" />
    <glyph glyph-name="five" unicode="5" horiz-adv-x="1210" 
d="M1147 1114h-586l-52 -205q108 59 226 59q179 0 291.5 -125t112.5 -321q0 -253 -166 -404.5t-435 -151.5q-203 0 -337.5 92.5t-178.5 233.5l323 151q23 -75 79 -114.5t129 -39.5q99 0 155 64t56 157q0 75 -43.5 119t-116.5 44q-121 0 -189 -111h-328l222 861h893z" />
    <glyph glyph-name="six" unicode="6" horiz-adv-x="1284" 
d="M762 930q195 0 320 -120t125 -305q0 -159 -75.5 -282.5t-206 -190t-294.5 -66.5q-147 0 -260 57.5t-183 163.5q-96 140 -96 379q0 105 17 212q24 146 81 268.5t143 214.5t206.5 144t262.5 52q325 0 485 -274l-280 -185q-80 143 -211 143q-120 0 -203 -84.5t-110 -215.5
q119 89 279 89zM635 268q96 0 155 62.5t59 154.5q0 76 -46.5 122t-122.5 46q-97 0 -157.5 -62t-60.5 -153q0 -75 48 -122.5t125 -47.5z" />
    <glyph glyph-name="seven" unicode="7" horiz-adv-x="1120" 
d="M188 1423h1044l-52 -299q-261 -247 -421 -535t-179 -589h-392q36 329 187 613.5t402 500.5h-643z" />
    <glyph glyph-name="eight" unicode="8" horiz-adv-x="1252" 
d="M956 727q97 -35 152.5 -113.5t55.5 -186.5q0 -211 -157.5 -336t-424.5 -125q-241 0 -394 109t-153 289q0 144 78 241.5t217 150.5q-78 44 -122 114.5t-44 160.5q0 192 153.5 309t400.5 117q220 0 355 -114t135 -272q0 -114 -71 -208t-181 -136zM667 852q87 0 141.5 48
t54.5 125q0 66 -45 105t-120 39q-86 0 -140 -47.5t-54 -123.5q0 -66 44.5 -106t118.5 -40zM585 257q98 0 158 49t60 131q0 71 -50.5 113.5t-135.5 42.5q-100 0 -161.5 -48.5t-61.5 -129.5q0 -71 52 -114.5t139 -43.5z" />
    <glyph glyph-name="nine" unicode="9" horiz-adv-x="1286" 
d="M1157 1235q96 -142 96 -377q0 -94 -17 -211q-52 -316 -230 -498.5t-449 -182.5q-308 0 -476 290l262 184q90 -157 220 -157q122 0 199.5 88t100.5 226q-121 -90 -278 -90q-195 0 -321.5 118.5t-126.5 302.5q0 159 75.5 280.5t206.5 185t295 63.5q147 0 260 -58t183 -164z
M666 783q97 0 156.5 59t59.5 149q0 75 -47 119.5t-125 44.5q-96 0 -154 -60t-58 -151q0 -73 46 -117t122 -44z" />
    <glyph glyph-name="colon" unicode=":" horiz-adv-x="565" 
d="M118 708l66 382h388l-67 -382h-387zM-7 0l67 382h387l-67 -382h-387z" />
    <glyph glyph-name="semicolon" unicode=";" horiz-adv-x="565" 
d="M184 1090h388l-67 -382h-387zM-7 0l67 382h387l-69 -392q-25 -142 -87 -237.5t-207 -185.5l-110 153q171 100 205 280h-186z" />
    <glyph glyph-name="less" unicode="&#x3c;" 
d="M1228 1188l-60 -332l-729 -247l643 -247l-55 -311l-928 404l59 331z" />
    <glyph glyph-name="equal" unicode="=" 
d="M135 662l51 291h1000l-51 -291h-1000zM57 219l52 292h999l-51 -292h-1000z" />
    <glyph glyph-name="greater" unicode="&#x3e;" 
d="M28 51l58 332l730 247l-643 247l55 311l928 -404l-58 -331z" />
    <glyph glyph-name="question" unicode="?" horiz-adv-x="1195" 
d="M396 451l22 117q23 131 86.5 218.5t205.5 150.5q74 34 107.5 69t33.5 81q0 50 -34.5 74.5t-89.5 24.5q-83 0 -156.5 -45.5t-126.5 -131.5l-273 183q189 311 589 311q205 0 333 -105t128 -283q0 -270 -287 -409q-90 -43 -131 -90.5t-53 -120.5l-9 -44h-345zM296 0l61 340
h385l-60 -340h-386z" />
    <glyph glyph-name="at" unicode="@" horiz-adv-x="2062" 
d="M1532 996l-89 -506q-5 -30 -5 -49q0 -86 75 -86q46 0 82.5 34.5t56.5 90t30.5 115.5t10.5 119q0 229 -157 376t-412 147q-208 0 -376.5 -98t-263.5 -270.5t-95 -386.5q0 -171 77.5 -308.5t213 -214.5t303.5 -77q221 0 415 124l139 -227q-236 -165 -559 -165
q-188 0 -351 65t-278.5 178.5t-181.5 274t-66 346.5q0 220 77 411t212 326.5t326 212.5t412 77q152 0 286 -38t237 -108.5t177 -167t113 -218t39 -257.5q0 -103 -18.5 -197t-57 -174.5t-94 -139.5t-133.5 -92.5t-171 -33.5q-106 0 -187.5 41.5t-121.5 118.5
q-81 -138 -268 -138q-162 0 -264.5 115.5t-102.5 298.5q0 139 53 253.5t152 182.5t224 68q178 0 242 -139l20 116h279zM982 342q81 0 129 86t48 194q0 73 -31 115t-91 42q-57 0 -99 -40t-61.5 -98.5t-19.5 -124.5q0 -81 33.5 -127.5t91.5 -46.5z" />
    <glyph glyph-name="A" unicode="A" horiz-adv-x="1530" 
d="M1021 0l-43 248h-516l-121 -248h-419l771 1475h425l299 -1475h-396zM612 558h312l-83 470z" />
    <glyph glyph-name="B" unicode="B" horiz-adv-x="1409" 
d="M1152 740q86 -39 132 -109t46 -161q0 -211 -151 -340.5t-391 -129.5h-770l261 1475h675q200 0 325.5 -97.5t125.5 -251.5q0 -130 -67.5 -231.5t-185.5 -154.5zM840 886q76 0 125.5 42.5t49.5 110.5q0 50 -32 79.5t-87 29.5h-296l-46 -262h286zM759 327q81 0 132 46
t51 119q0 108 -123 108h-315l-48 -273h303z" />
    <glyph glyph-name="C" unicode="C" horiz-adv-x="1492" 
d="M757 -35q-303 0 -485 182.5t-182 488.5q0 243 100.5 441.5t286 315t420.5 116.5q222 0 378.5 -102.5t231.5 -288.5l-326 -160q-52 110 -118.5 158t-173.5 48q-126 0 -221 -75.5t-141.5 -192.5t-46.5 -253q0 -155 81.5 -244t220.5 -89q201 0 320 230l325 -172
q-130 -210 -288 -306.5t-382 -96.5z" />
    <glyph glyph-name="D" unicode="D" horiz-adv-x="1507" 
d="M18 0l261 1475h538q309 0 489 -167t180 -469q0 -242 -101 -433t-285.5 -298.5t-420.5 -107.5h-661zM457 336h230q127 0 221.5 69t141 180t46.5 246q0 151 -78.5 229.5t-214.5 78.5h-204z" />
    <glyph glyph-name="E" unicode="E" horiz-adv-x="1281" 
d="M1317 1139h-719l-42 -237h646l-55 -318h-646l-44 -248h728l-60 -336h-1107l261 1475h1097z" />
    <glyph glyph-name="F" unicode="F" horiz-adv-x="1253" 
d="M1329 1139h-731l-44 -254h621l-58 -322h-620l-100 -563h-379l261 1475h1110z" />
    <glyph glyph-name="G" unicode="G" horiz-adv-x="1512" 
d="M819 551l51 294h608l-150 -845h-310l21 124q-125 -153 -342 -153q-270 0 -438.5 182.5t-168.5 482.5q0 182 59 342.5t164 277.5t257 185t329 68q200 0 350.5 -91t229.5 -255l-316 -175q-56 95 -120 135.5t-161 40.5q-93 0 -170 -44t-127 -117t-77.5 -166t-27.5 -194
q0 -153 83.5 -243.5t218.5 -90.5q113 0 203.5 62t117.5 164l2 16h-286z" />
    <glyph glyph-name="H" unicode="H" horiz-adv-x="1524" 
d="M1196 1475h379l-260 -1475h-379l101 578h-538l-102 -578h-379l261 1475h378l-99 -563h539z" />
    <glyph glyph-name="I" unicode="I" horiz-adv-x="607" 
d="M18 0l261 1475h378l-260 -1475h-379z" />
    <glyph glyph-name="J" unicode="J" horiz-adv-x="1162" 
d="M480 -33q-180 0 -300.5 79.5t-192.5 243.5l315 165q55 -153 187 -153q80 0 128.5 56t68.5 170l167 947h379l-178 -1012q-43 -245 -188 -370.5t-386 -125.5z" />
    <glyph glyph-name="K" unicode="K" horiz-adv-x="1446" 
d="M1596 1475l-631 -626l366 -850h-423l-228 567l-221 -219l-62 -347h-379l261 1475h378l-100 -567l560 567h479z" />
    <glyph glyph-name="L" unicode="L" horiz-adv-x="1154" 
d="M457 334h625l-58 -334h-1006l261 1475h378z" />
    <glyph glyph-name="M" unicode="M" horiz-adv-x="1851" 
d="M1383 1475h518l-261 -1475h-378l145 827l-398 -827h-359l-104 845l-149 -845h-379l261 1475h498l131 -983z" />
    <glyph glyph-name="N" unicode="N" horiz-adv-x="1512" 
d="M1182 1475h380l-260 -1475h-416l-333 881l-155 -881h-380l261 1475h413l335 -882z" />
    <glyph glyph-name="O" unicode="O" horiz-adv-x="1587" 
d="M758 -35q-303 0 -485.5 182.5t-182.5 488.5q0 243 100.5 441.5t286.5 315t421 116.5q303 0 485 -182t182 -488q0 -145 -37.5 -278t-109 -241t-169 -188t-224 -123.5t-267.5 -43.5zM775 310q92 0 169 44t127 117.5t77.5 166.5t27.5 193q0 154 -80.5 243.5t-213.5 89.5
q-93 0 -170 -44t-127 -117t-77.5 -166t-27.5 -194q0 -154 80.5 -243.5t214.5 -89.5z" />
    <glyph glyph-name="P" unicode="P" horiz-adv-x="1361" 
d="M967 1475q201 0 328 -122t127 -319q0 -243 -158 -391t-419 -148h-360l-87 -495h-380l261 1475h688zM830 822q95 0 151.5 51t56.5 132q0 63 -38.5 99t-104.5 36h-295l-56 -318h286z" />
    <glyph glyph-name="Q" unicode="Q" horiz-adv-x="1587" 
d="M1566 839q0 -204 -73.5 -380t-206.5 -296l102 -150l-235 -151l-104 155q-135 -52 -291 -52q-303 0 -485.5 183t-182.5 488q0 182 59 342.5t164 277.5t257 185t329 68q303 0 485 -182.5t182 -487.5zM775 310q40 0 72 7l-138 206l232 151l133 -197q102 146 102 354
q0 154 -80.5 243.5t-213.5 89.5q-93 0 -170 -44t-127 -117t-77.5 -166t-27.5 -194q0 -154 80.5 -243.5t214.5 -89.5z" />
    <glyph glyph-name="R" unicode="R" horiz-adv-x="1372" 
d="M1413 1056q0 -184 -93.5 -315t-259.5 -185l189 -556h-395l-154 523h-211l-92 -523h-379l261 1475h671q203 0 333 -116.5t130 -302.5zM598 1141l-52 -294h278q93 0 150 46t57 119q0 60 -39.5 94.5t-105.5 34.5h-288z" />
    <glyph glyph-name="S" unicode="S" horiz-adv-x="1396" 
d="M648 -35q-195 0 -365.5 73.5t-272.5 197.5l248 239q64 -85 174.5 -130t248.5 -45q117 0 186 36.5t69 98.5q0 57 -61 90t-194 52q-260 37 -390 154t-130 300q0 224 169 351.5t465 127.5q185 0 348 -61t270 -171l-226 -246q-70 69 -173 106t-221 37q-107 0 -173.5 -34.5
t-66.5 -93.5q0 -53 51.5 -84.5t170.5 -48.5q283 -38 418 -148t135 -307q0 -231 -182 -362.5t-498 -131.5z" />
    <glyph glyph-name="T" unicode="T" horiz-adv-x="1295" 
d="M1433 1475l-59 -336h-433l-201 -1139h-379l201 1139h-431l58 336h1244z" />
    <glyph glyph-name="U" unicode="U" horiz-adv-x="1444" 
d="M667 -35q-264 0 -425 135.5t-161 358.5q0 66 12 138l155 878h379l-156 -881q-7 -41 -7 -81q0 -94 59.5 -149t160.5 -55q126 0 204 72.5t103 212.5l156 881h379l-164 -928q-51 -287 -227 -434.5t-468 -147.5z" />
    <glyph glyph-name="V" unicode="V" horiz-adv-x="1477" 
d="M1198 1475h426l-761 -1475h-404l-277 1475h392l152 -1001z" />
    <glyph glyph-name="W" unicode="W" horiz-adv-x="2207" 
d="M1927 1475h417l-681 -1475h-394l-95 910l-395 -910h-400l-186 1475h398l79 -938l392 938h396l78 -936z" />
    <glyph glyph-name="X" unicode="X" horiz-adv-x="1457" 
d="M1569 1475l-583 -717l352 -758h-404l-208 472l-356 -472h-443l616 774l-325 701h410l181 -427l325 427h435z" />
    <glyph glyph-name="Y" unicode="Y" horiz-adv-x="1358" 
d="M1093 1475h419l-635 -892l-103 -583h-379l103 583l-323 892h380l173 -554z" />
    <glyph glyph-name="Z" unicode="Z" horiz-adv-x="1310" 
d="M-16 0l55 310l786 831h-634l59 334h1119l-55 -311l-790 -830h669l-58 -334h-1151z" />
    <glyph glyph-name="bracketleft" unicode="[" horiz-adv-x="856" 
d="M910 1243h-319l-210 -1185h320l-55 -309h-672l319 1803h672z" />
    <glyph glyph-name="backslash" unicode="\" horiz-adv-x="1679" 
d="M1526 -215h-350l-983 1823h354z" />
    <glyph glyph-name="bracketright" unicode="]" horiz-adv-x="856" 
d="M920 1552l-319 -1803h-673l56 309h318l210 1185h-319l54 309h673z" />
    <glyph glyph-name="asciicircum" unicode="^" horiz-adv-x="999" 
d="M1027 900h-305l-88 309l-199 -309h-338l395 575h345z" />
    <glyph glyph-name="underscore" unicode="_" horiz-adv-x="1163" 
d="M-9 0l51 292h989l-51 -292h-989z" />
    <glyph glyph-name="grave" unicode="`" horiz-adv-x="614" 
d="M270 1186l-305 361h344l235 -361h-274z" />
    <glyph glyph-name="a" unicode="a" horiz-adv-x="1140" 
d="M600 1115q217 0 347 -98.5t130 -261.5q0 -45 -10 -102l-115 -653h-344l19 101q-91 -131 -281 -131q-149 0 -241.5 90t-92.5 236q0 171 134 267t373 96h189l1 9q4 27 4 42q0 52 -43 81t-116 29q-127 0 -225 -85l-178 222q171 158 449 158zM458 217q73 0 130.5 47.5
t70.5 118.5l11 59h-120q-93 0 -145.5 -35t-52.5 -95q0 -44 28 -69.5t78 -25.5z" />
    <glyph glyph-name="b" unicode="b" horiz-adv-x="1248" 
d="M812 1120q169 0 280 -131.5t111 -359.5q0 -141 -40.5 -264.5t-110 -209.5t-166 -135.5t-206.5 -49.5q-98 0 -178.5 40.5t-125.5 108.5l-22 -119h-351l260 1475h361l-85 -487q105 132 273 132zM600 275q108 0 173 99t65 230q0 101 -44 155.5t-124 54.5q-73 0 -127 -49.5
t-80 -124.5t-26 -161q0 -204 163 -204z" />
    <glyph glyph-name="c" unicode="c" horiz-adv-x="1138" 
d="M564 -30q-232 0 -374.5 141t-142.5 369q0 284 170.5 462t447.5 178q159 0 280 -82t177 -227l-308 -132q-26 71 -66 103t-101 32q-109 0 -171 -95.5t-62 -225.5q0 -101 44.5 -159.5t123.5 -58.5q115 0 197 153l288 -150q-96 -160 -219 -234t-284 -74z" />
    <glyph glyph-name="d" unicode="d" horiz-adv-x="1249" 
d="M954 1475h361l-260 -1475h-337l20 117q-45 -65 -117 -106t-164 -41q-186 0 -299 131t-113 360q0 189 69 340.5t187.5 235t262.5 83.5q99 0 178.5 -40.5t121.5 -108.5zM582 275q106 0 167.5 100.5t61.5 232.5q0 206 -163 206q-107 0 -171.5 -98.5t-64.5 -229.5
q0 -101 44 -156t126 -55z" />
    <glyph glyph-name="e" unicode="e" horiz-adv-x="1171" 
d="M1107 438h-696q13 -87 62 -136t132 -49q127 0 215 116l224 -204q-180 -195 -477 -195q-234 0 -377 141t-143 369q0 284 167.5 462t439.5 178q211 0 341.5 -146t130.5 -384q0 -56 -19 -152zM427 653h351q-2 87 -40.5 135.5t-106.5 48.5q-70 0 -123.5 -50t-80.5 -134z" />
    <glyph glyph-name="f" unicode="f" horiz-adv-x="823" 
d="M642 1118l-5 -28h253l-51 -291h-253l-142 -799h-360l141 799h-148l52 291h147l13 68q29 164 147 255t300 91q121 0 235 -38l-85 -257q-58 17 -109 17q-63 0 -94 -25.5t-41 -82.5z" />
    <glyph glyph-name="g" unicode="g" horiz-adv-x="1249" 
d="M886 1090h360l-180 -1021q-38 -218 -197 -337.5t-411 -119.5q-290 0 -461 164l184 241q116 -108 279 -108q217 0 251 192l8 47q-83 -110 -247 -110q-184 0 -303 126.5t-119 331.5q0 279 145 451t378 172q95 0 172 -37t121 -100zM582 339q100 0 164.5 82t64.5 199
q0 92 -44 145t-119 53q-99 0 -165.5 -83t-66.5 -198q0 -92 45 -145t121 -53z" />
    <glyph glyph-name="h" unicode="h" horiz-adv-x="1204" 
d="M829 1118q145 0 233.5 -82.5t88.5 -220.5q0 -45 -9 -96l-126 -719h-361l117 659q4 27 4 57q0 47 -27 73.5t-76 26.5q-74 0 -131 -63.5t-75 -167.5l-103 -585h-361l260 1475h361l-83 -479q114 122 288 122z" />
    <glyph glyph-name="i" unicode="i" horiz-adv-x="559" 
d="M210 1198l49 277h369l-48 -277h-370zM3 0l193 1090h360l-192 -1090h-361z" />
    <glyph glyph-name="j" unicode="j" horiz-adv-x="558" 
d="M209 1198l49 277h370l-49 -277h-370zM-65 -384q-132 0 -240 44l93 272q54 -18 88 -18q111 0 133 124l186 1052h360l-205 -1162q-55 -312 -415 -312z" />
    <glyph glyph-name="k" unicode="k" horiz-adv-x="1202" 
d="M1279 1090l-477 -455l278 -635h-379l-153 393l-138 -131l-46 -262h-361l260 1475h361l-128 -729l345 344h438z" />
    <glyph glyph-name="l" unicode="l" horiz-adv-x="557" 
d="M3 0l260 1475h361l-260 -1475h-361z" />
    <glyph glyph-name="m" unicode="m" horiz-adv-x="1798" 
d="M1447 1119q130 0 215.5 -72t85.5 -212q0 -41 -8 -91l-131 -744h-361l118 668q5 28 5 50q0 47 -24 72.5t-68 25.5q-66 0 -117 -58.5t-70 -154.5l-107 -603h-360l118 669q5 28 5 50q0 46 -23.5 71.5t-66.5 25.5q-68 0 -120 -61t-69 -160l-105 -595h-361l193 1090h352
l-19 -104q108 133 296 133q93 0 170 -41t110 -127q53 72 145 120t197 48z" />
    <glyph glyph-name="n" unicode="n" horiz-adv-x="1204" 
d="M829 1118q145 0 233.5 -82.5t88.5 -220.5q0 -45 -9 -96l-126 -719h-361l117 659q4 27 4 57q0 47 -27 73.5t-76 26.5q-75 0 -130.5 -59.5t-74.5 -163.5l-104 -593h-361l193 1090h352l-21 -117q112 145 302 145z" />
    <glyph glyph-name="o" unicode="o" horiz-adv-x="1233" 
d="M566 -30q-233 0 -376 141t-143 369q0 284 171.5 462t449.5 178q233 0 376 -141t143 -369q0 -284 -171.5 -462t-449.5 -178zM584 275q74 0 129 48t81 119.5t26 154.5q0 101 -44.5 159t-125.5 58q-110 0 -173 -95.5t-63 -225.5q0 -101 44.5 -159.5t125.5 -58.5z" />
    <glyph glyph-name="p" unicode="p" horiz-adv-x="1248" 
d="M807 1120q178 0 287 -130.5t109 -360.5q0 -287 -150.5 -473t-376.5 -186q-96 0 -173.5 38.5t-119.5 104.5l-83 -471h-360l256 1448h335l-21 -121q45 67 120.5 109t176.5 42zM600 275q72 0 127.5 48.5t83 122.5t27.5 158q0 101 -43.5 155.5t-124.5 54.5
q-72 0 -126.5 -49.5t-80.5 -124t-26 -160.5q0 -100 41 -152.5t122 -52.5z" />
    <glyph glyph-name="q" unicode="q" horiz-adv-x="1248" 
d="M893 1090h352l-256 -1448h-360l81 457q-89 -129 -254 -129q-186 0 -298.5 130.5t-112.5 360.5q0 190 69 341t189 234.5t268 83.5q97 0 177.5 -40.5t123.5 -107.5zM580 275q107 0 168.5 100.5t61.5 232.5q0 206 -163 206q-72 0 -127 -48.5t-82 -122t-27 -157.5
q0 -101 44 -156t125 -55z" />
    <glyph glyph-name="r" unicode="r" horiz-adv-x="872" 
d="M812 1115q66 0 146 -20l-90 -315q-66 17 -122 17q-114 0 -193.5 -90t-108.5 -247l-80 -460h-361l193 1090h345l-26 -144q45 81 124.5 125t172.5 44z" />
    <glyph glyph-name="s" unicode="s" horiz-adv-x="1126" 
d="M538 -37q-183 0 -322 49t-224 136l198 223q54 -57 142.5 -89t195.5 -32q151 0 151 74q0 32 -37 49.5t-143 32.5q-382 55 -382 335q0 123 69 211.5t184.5 130.5t264.5 42q273 0 454 -151l-188 -222q-54 43 -128.5 65.5t-149.5 22.5q-69 0 -113 -18.5t-44 -53.5
q0 -32 43 -50.5t156 -30.5q364 -42 364 -326q0 -189 -132.5 -293.5t-358.5 -104.5z" />
    <glyph glyph-name="t" unicode="t" horiz-adv-x="919" 
d="M607 799l-70 -401q-5 -27 -5 -43q0 -40 21.5 -60t70.5 -20q46 0 110 18l53 -280q-116 -43 -272 -43q-170 0 -262.5 76.5t-92.5 209.5q0 45 7 86l81 457h-171l52 291h169l55 311h361l-56 -311h261l-53 -291h-259z" />
    <glyph glyph-name="u" unicode="u" horiz-adv-x="1203" 
d="M840 1090h360l-192 -1090h-352l21 119q-114 -147 -302 -147q-145 0 -233.5 82.5t-88.5 219.5q0 48 9 97l126 719h361l-117 -659q-4 -29 -4 -57q0 -47 27 -73.5t76 -26.5q74 0 130 62t75 164z" />
    <glyph glyph-name="v" unicode="v" horiz-adv-x="1179" 
d="M880 1090h386l-584 -1090h-354l-222 1090h366l94 -657z" />
    <glyph glyph-name="w" unicode="w" horiz-adv-x="1779" 
d="M1468 1090h387l-484 -1090h-353l-95 695l-320 -695h-358l-128 1090h367l41 -623l278 623h347l73 -626z" />
    <glyph glyph-name="x" unicode="x" horiz-adv-x="1116" 
d="M1155 1090l-402 -530l255 -560h-365l-123 291l-196 -291h-401l425 574l-239 516h364l106 -267l177 267h399z" />
    <glyph glyph-name="y" unicode="y" horiz-adv-x="1199" 
d="M888 1090h397l-646 -1194q-80 -149 -183.5 -216.5t-261.5 -67.5q-123 0 -230 40l103 268q59 -17 106 -17q92 0 140 80l43 72l-250 1035h373l112 -635z" />
    <glyph glyph-name="z" unicode="z" horiz-adv-x="1068" 
d="M-5 0l47 268l519 531h-429l50 291h861l-47 -269l-514 -529h457l-51 -292h-893z" />
    <glyph glyph-name="braceleft" unicode="{" horiz-adv-x="916" 
d="M912 1552h113l-54 -309h-35q-82 0 -133.5 -41t-65.5 -116l-30 -174q-21 -118 -78.5 -179t-155.5 -88q142 -61 142 -215q0 -32 -6 -70l-25 -145q-5 -27 -5 -47q0 -110 129 -110h54l-54 -309h-94q-192 0 -295.5 86.5t-103.5 246.5q0 46 9 99l21 118q5 23 5 52q0 72 -43 111
t-125 39l53 301q199 0 234 197l27 155q34 196 165 297t351 101z" />
    <glyph glyph-name="bar" unicode="|" horiz-adv-x="581" 
d="M-26 -251l318 1803h353l-318 -1803h-353z" />
    <glyph glyph-name="braceright" unicode="}" horiz-adv-x="916" 
d="M705 951q0 -73 42 -111t125 -38l-53 -301q-198 0 -233 -198l-28 -155q-35 -197 -165.5 -298t-350.5 -101h-114l56 309h34q81 0 133 41.5t66 116.5l31 174q21 117 78 178t155 89q-142 60 -142 215q0 32 6 69l26 146q5 27 5 47q0 109 -129 109h-54l54 309h93
q192 0 295.5 -86t103.5 -245q0 -47 -9 -100l-21 -119q-4 -24 -4 -51z" />
    <glyph glyph-name="asciitilde" unicode="~" 
d="M255 397l-157 227q189 170 362 170q44 0 86.5 -10t67 -20.5t61.5 -28.5q77 -40 127 -40q85 0 191 104l156 -227q-187 -170 -362 -170q-102 0 -214 60q-76 39 -127 39q-87 0 -191 -104z" />
    <glyph glyph-name="uni00A0" unicode="&#xa0;" horiz-adv-x="445" 
 />
    <glyph glyph-name="exclamdown" unicode="&#xa1;" horiz-adv-x="622" 
d="M600 1090l-63 -357h-385l62 357h386zM425 624l4 -510l-88 -499h-388l88 499l181 510h203z" />
    <glyph glyph-name="cent" unicode="&#xa2;" horiz-adv-x="1158" 
d="M622 463q107 0 185 145l287 -149q-152 -253 -392 -293l-29 -166h-314l35 196q-137 54 -215.5 173.5t-78.5 281.5q0 243 131 407.5t352 201.5l28 163h314l-33 -187q93 -35 161.5 -103.5t104.5 -164.5l-307 -132q-25 69 -63.5 99t-104.5 30q-101 0 -158.5 -89.5
t-57.5 -211.5q0 -94 41 -147.5t114 -53.5z" />
    <glyph glyph-name="sterling" unicode="&#xa3;" horiz-adv-x="1215" 
d="M638 597q-24 -159 -134 -295l641 7l-54 -309h-1069l52 299q150 148 183 298h-161l39 216h114q-20 90 -20 153q0 228 159.5 359.5t416.5 131.5q329 0 491 -257l-281 -182q-61 119 -201 119q-101 0 -159.5 -56t-58.5 -152q0 -42 20 -116h373l-39 -216h-312z" />
    <glyph glyph-name="currency" unicode="&#xa4;" horiz-adv-x="1364" 
d="M1244 749q0 -198 -124 -351l145 -164l-163 -148l-151 172q-128 -72 -280 -72q-158 0 -287 92l-210 -190l-134 151l207 186q-69 114 -69 250q0 198 124 351l-143 163l162 148l149 -172q130 72 281 72q153 0 282 -87l206 185l140 -155l-202 -184q67 -114 67 -247zM482 692
q0 -100 60 -162t151 -62q103 0 174.5 78t71.5 185q0 97 -58.5 161t-152.5 64q-102 0 -174 -76t-72 -188z" />
    <glyph glyph-name="yen" unicode="&#xa5;" horiz-adv-x="1338" 
d="M1476 1423l-470 -614h236l-39 -217h-340l-16 -90h341l-39 -216h-340l-50 -286h-370l50 286h-340l39 216h339l17 90h-340l37 217h237l-255 614h375l177 -469l339 469h412z" />
    <glyph glyph-name="brokenbar" unicode="&#xa6;" horiz-adv-x="581" 
d="M154 766l138 786h353l-139 -786h-352zM-26 -251l139 788h353l-139 -788h-353z" />
    <glyph glyph-name="section" unicode="&#xa7;" horiz-adv-x="1220" 
d="M1167 651q0 -203 -163 -330q76 -86 76 -219q0 -112 -45 -196t-128 -134.5t-190 -74.5t-240 -24q-348 0 -535 234l231 208q111 -146 319 -146q91 0 152 30t61 79q0 27 -17 45.5t-53 30t-68.5 17.5t-85.5 12q-198 25 -309.5 122t-111.5 247q0 213 182 311q-77 87 -77 213
q0 139 76 237.5t199 144.5t278 46q307 0 499 -179l-207 -226q-42 46 -123.5 77.5t-156.5 31.5q-85 0 -136.5 -27.5t-51.5 -77.5q0 -18 7 -32.5t23 -25.5t31.5 -18.5t44 -14t49 -10.5t56.5 -10q46 -8 82 -15.5t81 -21.5t78.5 -31t67.5 -43t56 -58t35.5 -76t13.5 -96zM420 592
q0 -48 50.5 -70.5t149.5 -36.5q18 -2 79 -13q109 49 109 120q0 43 -42.5 63.5t-133.5 36.5q-29 5 -101 21q-47 -16 -79 -49.5t-32 -71.5z" />
    <glyph glyph-name="dieresis" unicode="&#xa8;" horiz-adv-x="614" 
d="M-52 1200l49 275h313l-48 -275h-314zM373 1200l49 275h313l-49 -275h-313z" />
    <glyph glyph-name="copyright" unicode="&#xa9;" horiz-adv-x="1971" 
d="M958 -138q-172 0 -325.5 61t-264 166t-174.5 252t-64 313q0 198 72.5 375t197.5 305.5t302 203.5t377 75q173 0 327 -61t264 -166.5t174.5 -252.5t64.5 -313q0 -198 -72.5 -375t-198 -305t-302.5 -203t-378 -75zM957 86q205 0 366.5 101t248 270t86.5 374
q0 159 -77 287.5t-209 199.5t-292 71q-154 0 -286 -59t-222 -160t-140.5 -237.5t-50.5 -289.5q0 -159 76.5 -287t208 -199t291.5 -71zM1010 269q-186 0 -299.5 115t-113.5 309q0 141 56 256t163 183.5t246 68.5q130 0 234.5 -68.5t140.5 -175.5l-209 -98q-30 61 -67 86.5
t-89 25.5q-56 0 -99.5 -24.5t-68.5 -65t-38 -88t-13 -98.5q0 -195 170 -195q55 0 94 26.5t84 98.5l198 -120q-60 -114 -165 -175t-224 -61z" />
    <glyph glyph-name="ordfeminine" unicode="&#xaa;" horiz-adv-x="758" 
d="M496 1490q149 0 240 -65.5t91 -172.5q0 -35 -6 -68l-75 -422h-256l12 65q-55 -86 -172 -86q-99 0 -160.5 60t-61.5 155q0 110 85 173.5t233 63.5h124q3 15 3 24q0 26 -24 40.5t-64 14.5q-73 0 -135 -47l-127 168q118 97 293 97zM416 921q36 0 66 25.5t36 61.5l6 31h-77
q-37 0 -62 -19t-25 -49q0 -23 15 -36.5t41 -13.5z" />
    <glyph glyph-name="guillemotleft" unicode="&#xab;" horiz-adv-x="1258" 
d="M373 119l-291 454l420 455l207 -187l-263 -290l167 -264zM883 119l-291 454l420 455l207 -187l-263 -290l167 -264z" />
    <glyph glyph-name="logicalnot" unicode="&#xac;" 
d="M722 116l59 336h-660l48 275h964l-108 -611h-303z" />
    <glyph glyph-name="uni00AD" unicode="&#xad;" horiz-adv-x="804" 
d="M70 443l51 292h631l-52 -292h-630z" />
    <glyph glyph-name="registered" unicode="&#xae;" horiz-adv-x="1101" 
d="M650 1513q134 0 246 -58.5t177.5 -163.5t65.5 -235q0 -146 -69.5 -266t-188.5 -188t-259 -68q-206 0 -347.5 131t-141.5 328q0 146 70 266t188.5 187t258.5 67zM616 659q161 0 273 117t112 280q0 143 -102.5 237.5t-244.5 94.5q-162 0 -273.5 -116.5t-111.5 -280.5
q0 -143 102.5 -237.5t244.5 -94.5zM724 1263q69 0 109 -39.5t40 -102.5q0 -54 -30 -94t-82 -59l51 -161h-144l-41 147h-58l-26 -147h-140l81 456h240zM588 1063h85q23 0 40 13t17 35q0 18 -12 28t-30 10h-85z" />
    <glyph glyph-name="macron" unicode="&#xaf;" horiz-adv-x="614" 
d="M-13 1246l39 215h614l-39 -215h-614z" />
    <glyph glyph-name="degree" unicode="&#xb0;" horiz-adv-x="902" 
d="M527 713q-160 0 -270.5 107t-110.5 262q0 116 57.5 213t155 152.5t213.5 55.5q161 0 271 -107t110 -263q0 -116 -57.5 -213t-155 -152t-213.5 -55zM535 936q73 0 123.5 56.5t50.5 134.5q0 67 -41.5 109.5t-103.5 42.5q-73 0 -123.5 -56.5t-50.5 -133.5q0 -66 41.5 -109.5
t103.5 -43.5z" />
    <glyph glyph-name="plusminus" unicode="&#xb1;" 
d="M845 979h343l-51 -292h-343l-50 -277h-310l49 277h-342l52 292h342l52 295h310zM18 0l52 292h998l-50 -292h-1000z" />
    <glyph glyph-name="two.sups" unicode="&#xb2;" horiz-adv-x="837" 
d="M698 1103l-125 -108h310l-41 -230h-701l39 216l329 283q73 63 96.5 91.5t23.5 64.5q0 26 -16 40t-44 14q-86 0 -137 -134l-244 82q67 151 165 221t240 70q143 0 228.5 -74t85.5 -205q0 -90 -49.5 -163.5t-159.5 -167.5z" />
    <glyph glyph-name="three.sups" unicode="&#xb3;" horiz-adv-x="820" 
d="M767 1222q100 -59 100 -175q0 -140 -107.5 -223.5t-271.5 -83.5q-139 0 -239.5 72t-131.5 192l245 82q30 -108 131 -108q47 0 72.5 21.5t25.5 54.5q0 29 -18 47t-53 18h-106l35 202h72q50 0 77.5 26.5t27.5 65.5q0 64 -73 64q-91 0 -131 -110l-235 77q96 268 397 268
q145 0 234.5 -74.5t89.5 -197.5q0 -152 -141 -218z" />
    <glyph glyph-name="acute" unicode="&#xb4;" horiz-adv-x="614" 
d="M19 1186l234 361h351l-304 -361h-281z" />
    <glyph glyph-name="uni00B5" unicode="&#xb5;" horiz-adv-x="1210" 
d="M847 1090h360l-192 -1090h-352l20 115q-113 -143 -301 -143q-16 0 -24 1l-65 -372h-361l264 1489h360l-117 -659q-5 -37 -5 -57q0 -46 28 -73t76 -27q74 0 129.5 60.5t74.5 163.5z" />
    <glyph glyph-name="paragraph" unicode="&#xb6;" horiz-adv-x="1286" 
d="M402 0l114 642h-18q-150 0 -244.5 103.5t-94.5 268.5q0 197 131 329t332 132h326l-260 -1475h-286zM791 0l260 1475h285l-260 -1475h-285z" />
    <glyph glyph-name="periodcentered" unicode="&#xb7;" horiz-adv-x="631" 
d="M105 452l68 382h387l-67 -382h-388z" />
    <glyph glyph-name="cedilla" unicode="&#xb8;" horiz-adv-x="614" 
d="M81 -369l172 385h295l-172 -385h-295z" />
    <glyph glyph-name="one.sups" unicode="&#xb9;" horiz-adv-x="685" 
d="M814 1690l-163 -925h-277l104 589l-170 -132l-135 168l385 300h256z" />
    <glyph glyph-name="ordmasculine" unicode="&#xba;" horiz-adv-x="831" 
d="M485 741q-157 0 -254.5 93.5t-97.5 243.5q0 188 113.5 302t300.5 114q157 0 254.5 -93.5t97.5 -242.5q0 -188 -113.5 -302.5t-300.5 -114.5zM500 969q55 0 90 50t35 127q0 58 -24 90t-67 32q-55 0 -90 -49.5t-35 -127.5q0 -58 23.5 -90t67.5 -32z" />
    <glyph glyph-name="guillemotright" unicode="&#xbb;" horiz-adv-x="1259" 
d="M386 1028l291 -455l-420 -454l-207 187l262 290l-167 264zM896 1028l291 -455l-420 -454l-207 187l262 290l-167 264z" />
    <glyph glyph-name="onequarter" unicode="&#xbc;" horiz-adv-x="1991" 
d="M612 550h-276l104 591l-171 -133l-134 167l384 300h256zM1469 1475h303l-1123 -1475h-303zM1948 408l-41 -232h-111l-31 -176h-277l31 176h-386l38 224l453 525h304l-91 -517h111zM1435 408h125l33 192z" />
    <glyph glyph-name="onehalf" unicode="&#xbd;" horiz-adv-x="2113" 
d="M612 550h-276l104 591l-171 -133l-134 167l384 300h256zM1469 1475h303l-1123 -1475h-303zM1833 338l-125 -107h308l-40 -231h-700l38 216l328 283q73 63 96.5 92t23.5 64q0 54 -59 54q-85 0 -137 -134l-243 83q67 151 164.5 221t239.5 70q143 0 228.5 -74t85.5 -206
q0 -90 -49 -163t-159 -168z" />
    <glyph glyph-name="threequarters" unicode="&#xbe;" horiz-adv-x="2073" 
d="M831 834q0 -141 -107.5 -224.5t-271.5 -83.5q-139 0 -240 72.5t-132 191.5l247 82q14 -56 48.5 -82t80.5 -26q48 0 73 21.5t25 55.5q0 29 -18 46.5t-53 17.5h-106l35 202h72q50 0 77.5 26.5t27.5 66.5q0 63 -73 63q-91 0 -131 -110l-233 77q48 136 149.5 202.5
t245.5 66.5q145 0 235 -75t90 -198q0 -153 -142 -218q101 -56 101 -174zM1552 1475h302l-1122 -1475h-303zM2030 408l-41 -232h-111l-31 -176h-277l31 176h-387l39 224l453 525h304l-91 -517h111zM1517 408h124l34 192z" />
    <glyph glyph-name="questiondown" unicode="&#xbf;" horiz-adv-x="1195" 
d="M898 1091l-60 -341h-385l60 341h385zM798 640l-21 -118q-23 -132 -86 -219t-207 -149q-140 -63 -140 -151q0 -50 34 -74t90 -24q83 0 156.5 45.5t126.5 130.5l273 -183q-190 -312 -589 -312q-206 0 -333.5 105t-127.5 283q0 273 287 410q90 44 131 91.5t53 119.5l9 45
h344z" />
    <glyph glyph-name="Agrave" unicode="&#xc0;" horiz-adv-x="1530" 
d="M1083 1569h-273l-305 360h345zM1021 0l-43 248h-516l-121 -248h-419l771 1475h425l299 -1475h-396zM612 558h312l-83 470z" />
    <glyph glyph-name="Aacute" unicode="&#xc1;" horiz-adv-x="1530" 
d="M1295 1929l-304 -360h-280l233 360h351zM1021 0l-43 248h-516l-121 -248h-419l771 1475h425l299 -1475h-396zM612 558h312l-83 470z" />
    <glyph glyph-name="Acircumflex" unicode="&#xc2;" horiz-adv-x="1530" 
d="M950 1715l-131 -154h-300l288 341h327l168 -341h-273zM1021 0l-43 248h-516l-121 -248h-419l771 1475h425l299 -1475h-396zM612 558h312l-83 470z" />
    <glyph glyph-name="Atilde" unicode="&#xc3;" horiz-adv-x="1530" 
d="M795 1639q-68 0 -149 -89l-163 196q101 95 171 127.5t138 32.5q40 0 76 -9t54.5 -18t46.5 -26q58 -32 92 -32q65 0 148 89l164 -195q-101 -95 -171 -127.5t-138 -32.5q-40 0 -76 9t-54 18t-46 25q-57 32 -93 32zM1021 0l-43 248h-516l-121 -248h-419l771 1475h425
l299 -1475h-396zM612 558h312l-83 470z" />
    <glyph glyph-name="Adieresis" unicode="&#xc4;" horiz-adv-x="1530" 
d="M900 1853l-49 -275h-314l49 275h314zM1332 1853l-49 -275h-314l49 275h314zM1021 0l-43 248h-516l-121 -248h-419l771 1475h425l299 -1475h-396zM612 558h312l-83 470z" />
    <glyph glyph-name="Aring" unicode="&#xc5;" horiz-adv-x="1530" 
d="M912 1553q-110 0 -178.5 68.5t-68.5 175.5q0 120 85 200t204 80q110 0 179 -69.5t69 -175.5q0 -117 -85 -198t-205 -81zM945 1902q-41 0 -67 -30.5t-26 -70.5q0 -33 19.5 -52.5t50.5 -19.5q38 0 65 26.5t27 68.5q0 34 -18.5 56t-50.5 22zM1021 0l-43 248h-516l-121 -248
h-419l771 1475h425l299 -1475h-396zM612 558h312l-83 470z" />
    <glyph glyph-name="AE" unicode="&#xc6;" horiz-adv-x="2216" 
d="M2275 1139h-672l-41 -237h604l-57 -318h-604l-44 -248h683l-58 -336h-1064l44 248h-509l-185 -248h-463l1145 1475h1280zM1122 567l102 572l-427 -572h325z" />
    <glyph glyph-name="Ccedilla" unicode="&#xc7;" horiz-adv-x="1501" 
d="M782 309q201 0 320 231l325 -172q-109 -177 -237.5 -273t-298.5 -121l-154 -343h-295l156 349q-235 46 -371.5 220.5t-136.5 435.5q0 243 100.5 441.5t286.5 315t421 116.5q221 0 378 -102.5t231 -288.5l-325 -160q-52 110 -119 158.5t-174 48.5q-126 0 -221 -76
t-141.5 -193t-46.5 -253q0 -155 81.5 -244.5t220.5 -89.5z" />
    <glyph glyph-name="Egrave" unicode="&#xc8;" horiz-adv-x="1281" 
d="M1025 1569h-273l-306 360h346zM1317 1139h-719l-42 -237h646l-55 -318h-646l-44 -248h728l-60 -336h-1107l261 1475h1097z" />
    <glyph glyph-name="Eacute" unicode="&#xc9;" horiz-adv-x="1281" 
d="M1238 1929l-304 -360h-281l234 360h351zM1317 1139h-719l-42 -237h646l-55 -318h-646l-44 -248h728l-60 -336h-1107l261 1475h1097z" />
    <glyph glyph-name="Ecircumflex" unicode="&#xca;" horiz-adv-x="1281" 
d="M892 1715l-131 -154h-300l288 341h326l168 -341h-272zM1317 1139h-719l-42 -237h646l-55 -318h-646l-44 -248h728l-60 -336h-1107l261 1475h1097z" />
    <glyph glyph-name="Edieresis" unicode="&#xcb;" horiz-adv-x="1281" 
d="M843 1853l-49 -275h-315l49 275h315zM1275 1853l-49 -275h-315l50 275h314zM1317 1139h-719l-42 -237h646l-55 -318h-646l-44 -248h728l-60 -336h-1107l261 1475h1097z" />
    <glyph glyph-name="Igrave" unicode="&#xcc;" horiz-adv-x="607" 
d="M385 1569l-305 360h345l233 -360h-273zM18 0l261 1475h378l-260 -1475h-379z" />
    <glyph glyph-name="Iacute" unicode="&#xcd;" horiz-adv-x="607" 
d="M287 1569l233 360h351l-304 -360h-280zM18 0l261 1475h378l-260 -1475h-379z" />
    <glyph glyph-name="Icircumflex" unicode="&#xce;" horiz-adv-x="607" 
d="M525 1715l-131 -154h-300l288 341h327l168 -341h-273zM18 0l261 1475h378l-260 -1475h-379z" />
    <glyph glyph-name="Idieresis" unicode="&#xcf;" horiz-adv-x="607" 
d="M113 1578l49 275h314l-49 -275h-314zM545 1578l49 275h314l-49 -275h-314zM18 0l261 1475h378l-260 -1475h-379z" />
    <glyph glyph-name="Eth" unicode="&#xd0;" horiz-adv-x="1574" 
d="M885 1475q309 0 488.5 -167t179.5 -469q0 -181 -59 -336.5t-164.5 -266t-256.5 -173.5t-328 -63h-660l104 592h-132l52 291h132l104 592h540zM755 336q127 0 221 69t140.5 180t46.5 246q0 151 -79 229.5t-215 78.5h-203l-45 -256h279l-51 -291h-281l-45 -256h232z" />
    <glyph glyph-name="Ntilde" unicode="&#xd1;" horiz-adv-x="1512" 
d="M821 1639q-67 0 -148 -89l-163 196q101 95 170.5 127.5t137.5 32.5q40 0 76 -9t54.5 -18t46.5 -26q58 -32 92 -32q66 0 149 89l164 -195q-101 -95 -171 -127.5t-138 -32.5q-40 0 -76.5 9t-54.5 18t-46 25q-57 32 -93 32zM1182 1475h380l-260 -1475h-416l-333 881
l-155 -881h-380l261 1475h413l335 -882z" />
    <glyph glyph-name="Ograve" unicode="&#xd2;" horiz-adv-x="1587" 
d="M844 1569l-305 360h345l233 -360h-273zM758 -35q-303 0 -485.5 182.5t-182.5 488.5q0 243 100.5 441.5t286.5 315t421 116.5q303 0 485 -182t182 -488q0 -145 -37.5 -278t-109 -241t-169 -188t-224 -123.5t-267.5 -43.5zM775 310q92 0 169 44t127 117.5t77.5 166.5
t27.5 193q0 154 -80.5 243.5t-213.5 89.5q-93 0 -170 -44t-127 -117t-77.5 -166t-27.5 -194q0 -154 80.5 -243.5t214.5 -89.5z" />
    <glyph glyph-name="Oacute" unicode="&#xd3;" horiz-adv-x="1587" 
d="M744 1569l234 360h351l-304 -360h-281zM758 -35q-303 0 -485.5 182.5t-182.5 488.5q0 243 100.5 441.5t286.5 315t421 116.5q303 0 485 -182t182 -488q0 -145 -37.5 -278t-109 -241t-169 -188t-224 -123.5t-267.5 -43.5zM775 310q92 0 169 44t127 117.5t77.5 166.5
t27.5 193q0 154 -80.5 243.5t-213.5 89.5q-93 0 -170 -44t-127 -117t-77.5 -166t-27.5 -194q0 -154 80.5 -243.5t214.5 -89.5z" />
    <glyph glyph-name="Ocircumflex" unicode="&#xd4;" horiz-adv-x="1587" 
d="M984 1715l-131 -154h-300l288 341h326l168 -341h-272zM898 1509q303 0 485 -182t182 -488q0 -145 -37.5 -278t-109 -241t-169 -188t-224 -123.5t-267.5 -43.5q-303 0 -485.5 182.5t-182.5 488.5q0 243 100.5 441.5t286.5 315t421 116.5zM775 310q92 0 169 44t127 117.5
t77.5 166.5t27.5 193q0 154 -80.5 243.5t-213.5 89.5q-93 0 -170 -44t-127 -117t-77.5 -166t-27.5 -194q0 -154 80.5 -243.5t214.5 -89.5z" />
    <glyph glyph-name="Otilde" unicode="&#xd5;" horiz-adv-x="1587" 
d="M680 1550l-163 196q101 95 170.5 127.5t137.5 32.5q40 0 76 -9t54.5 -18t46.5 -26q58 -32 93 -32q65 0 148 89l164 -195q-101 -95 -171 -127.5t-138 -32.5q-40 0 -76 9t-54 18t-46 25q-57 32 -94 32q-67 0 -148 -89zM758 -35q-303 0 -485.5 182.5t-182.5 488.5
q0 243 100.5 441.5t286.5 315t421 116.5q303 0 485 -182t182 -488q0 -145 -37.5 -278t-109 -241t-169 -188t-224 -123.5t-267.5 -43.5zM775 310q92 0 169 44t127 117.5t77.5 166.5t27.5 193q0 154 -80.5 243.5t-213.5 89.5q-93 0 -170 -44t-127 -117t-77.5 -166t-27.5 -194
q0 -154 80.5 -243.5t214.5 -89.5z" />
    <glyph glyph-name="Odieresis" unicode="&#xd6;" horiz-adv-x="1587" 
d="M570 1578l50 275h314l-49 -275h-315zM1002 1578l50 275h314l-49 -275h-315zM758 -35q-303 0 -485.5 182.5t-182.5 488.5q0 243 100.5 441.5t286.5 315t421 116.5q303 0 485 -182t182 -488q0 -145 -37.5 -278t-109 -241t-169 -188t-224 -123.5t-267.5 -43.5zM775 310
q92 0 169 44t127 117.5t77.5 166.5t27.5 193q0 154 -80.5 243.5t-213.5 89.5q-93 0 -170 -44t-127 -117t-77.5 -166t-27.5 -194q0 -154 80.5 -243.5t214.5 -89.5z" />
    <glyph glyph-name="multiply" unicode="&#xd7;" 
d="M1138 838l-314 -261l232 -285l-238 -195l-229 283l-317 -264l-182 225l316 263l-216 264l238 195l213 -262l314 262z" />
    <glyph glyph-name="Oslash" unicode="&#xd8;" horiz-adv-x="1587" 
d="M1627 1420l-167 -188q106 -164 106 -393q0 -181 -59.5 -342t-164 -278t-256.5 -185t-328 -68q-205 0 -363 89l-177 -199l-208 184l185 207q-105 162 -105 389q0 182 59 342.5t164 277.5t257 185t329 68q202 0 357 -86l162 182zM882 1165q-93 0 -170 -44t-127 -117.5
t-77.5 -166.5t-27.5 -193q0 -58 15 -116l536 599q-64 38 -149 38zM775 310q122 0 215 75.5t139.5 192.5t46.5 252q0 62 -16 120l-537 -601q65 -39 152 -39z" />
    <glyph glyph-name="Ugrave" unicode="&#xd9;" horiz-adv-x="1444" 
d="M803 1569l-305 360h345l233 -360h-273zM667 -35q-264 0 -425 135.5t-161 358.5q0 66 12 138l155 878h379l-156 -881q-7 -41 -7 -81q0 -94 59.5 -149t160.5 -55q126 0 204 72.5t103 212.5l156 881h379l-164 -928q-51 -287 -227 -434.5t-468 -147.5z" />
    <glyph glyph-name="Uacute" unicode="&#xda;" horiz-adv-x="1444" 
d="M705 1569l233 360h351l-304 -360h-280zM667 -35q-264 0 -425 135.5t-161 358.5q0 66 12 138l155 878h379l-156 -881q-7 -41 -7 -81q0 -94 59.5 -149t160.5 -55q126 0 204 72.5t103 212.5l156 881h379l-164 -928q-51 -287 -227 -434.5t-468 -147.5z" />
    <glyph glyph-name="Ucircumflex" unicode="&#xdb;" horiz-adv-x="1444" 
d="M943 1715l-131 -154h-300l288 341h326l168 -341h-272zM1147 1475h379l-164 -928q-51 -287 -227 -434.5t-468 -147.5q-264 0 -425 135.5t-161 358.5q0 66 12 138l155 878h379l-156 -881q-7 -41 -7 -81q0 -94 59.5 -149t160.5 -55q126 0 204 72.5t103 212.5z" />
    <glyph glyph-name="Udieresis" unicode="&#xdc;" horiz-adv-x="1444" 
d="M530 1578l50 275h314l-49 -275h-315zM963 1578l49 275h314l-49 -275h-314zM667 -35q-264 0 -425 135.5t-161 358.5q0 66 12 138l155 878h379l-156 -881q-7 -41 -7 -81q0 -94 59.5 -149t160.5 -55q126 0 204 72.5t103 212.5l156 881h379l-164 -928q-51 -287 -227 -434.5
t-468 -147.5z" />
    <glyph glyph-name="Yacute" unicode="&#xdd;" horiz-adv-x="1358" 
d="M1236 1929l-304 -360h-281l234 360h351zM1093 1475h419l-635 -892l-103 -583h-379l103 583l-323 892h380l173 -554z" />
    <glyph glyph-name="Thorn" unicode="&#xde;" horiz-adv-x="1344" 
d="M907 1247q200 0 323.5 -121t123.5 -319q0 -243 -158 -391t-419 -148h-332l-47 -268h-380l261 1475h379l-40 -228h289zM763 595q95 0 151.5 50.5t56.5 131.5q0 63 -39 99t-105 36h-268l-56 -317h260z" />
    <glyph glyph-name="germandbls" unicode="&#xdf;" horiz-adv-x="1254" 
d="M988 765q193 -79 193 -328q0 -219 -138 -344.5t-383 -125.5q-101 0 -210 23l67 289q69 -15 121 -15q89 0 140 54t51 147q0 71 -31 109.5t-93 38.5h-114l51 291h59q70 0 111.5 47t41.5 116q0 64 -37.5 98.5t-99.5 34.5q-148 0 -178 -173l-182 -1027h-360l190 1082
q36 202 185.5 312t368.5 110q213 0 345.5 -110.5t132.5 -280.5q0 -119 -61 -208.5t-170 -139.5z" />
    <glyph glyph-name="agrave" unicode="&#xe0;" horiz-adv-x="1140" 
d="M844 1186h-274l-305 361h344zM600 1115q217 0 347 -98.5t130 -261.5q0 -45 -10 -102l-115 -653h-344l19 101q-91 -131 -281 -131q-149 0 -241.5 90t-92.5 236q0 171 134 267t373 96h189l1 9q4 27 4 42q0 52 -43 81t-116 29q-127 0 -225 -85l-178 222q171 158 449 158z
M458 217q73 0 130.5 47.5t70.5 118.5l11 59h-120q-93 0 -145.5 -35t-52.5 -95q0 -44 28 -69.5t78 -25.5z" />
    <glyph glyph-name="aacute" unicode="&#xe1;" horiz-adv-x="1140" 
d="M1068 1547l-304 -361h-281l234 361h351zM600 1115q217 0 347 -98.5t130 -261.5q0 -45 -10 -102l-115 -653h-344l19 101q-91 -131 -281 -131q-149 0 -241.5 90t-92.5 236q0 171 134 267t373 96h189l1 9q4 27 4 42q0 52 -43 81t-116 29q-127 0 -225 -85l-178 222
q171 158 449 158zM458 217q73 0 130.5 47.5t70.5 118.5l11 59h-120q-93 0 -145.5 -35t-52.5 -95q0 -44 28 -69.5t78 -25.5z" />
    <glyph glyph-name="acircumflex" unicode="&#xe2;" horiz-adv-x="1140" 
d="M722 1340l-132 -155h-299l288 341h326l168 -341h-272zM600 1115q217 0 347 -98.5t130 -261.5q0 -45 -10 -102l-115 -653h-344l19 101q-91 -131 -281 -131q-149 0 -241.5 90t-92.5 236q0 171 134 267t373 96h189l1 9q4 27 4 42q0 52 -43 81t-116 29q-127 0 -225 -85
l-178 222q171 158 449 158zM458 217q73 0 130.5 47.5t70.5 118.5l11 59h-120q-93 0 -145.5 -35t-52.5 -95q0 -44 28 -69.5t78 -25.5z" />
    <glyph glyph-name="atilde" unicode="&#xe3;" horiz-adv-x="1140" 
d="M564 1281q-66 0 -148 -89l-163 196q101 95 170.5 127t137.5 32q92 0 177 -52q2 -1 11.5 -6t12 -6.5t10.5 -5.5t11.5 -5t10.5 -3.5t12 -3.5t12 -2t13 -1q64 0 149 89l163 -194q-101 -95 -171 -127.5t-138 -32.5q-90 0 -177 51q-59 33 -93 33zM600 1115q217 0 347 -98.5
t130 -261.5q0 -45 -10 -102l-115 -653h-344l19 101q-91 -131 -281 -131q-149 0 -241.5 90t-92.5 236q0 171 134 267t373 96h189l1 9q4 27 4 42q0 52 -43 81t-116 29q-127 0 -225 -85l-178 222q171 158 449 158zM458 217q73 0 130.5 47.5t70.5 118.5l11 59h-120
q-93 0 -145.5 -35t-52.5 -95q0 -44 28 -69.5t78 -25.5z" />
    <glyph glyph-name="adieresis" unicode="&#xe4;" horiz-adv-x="1140" 
d="M674 1475l-48 -275h-315l49 275h314zM1099 1475l-49 -275h-314l49 275h314zM600 1115q217 0 347 -98.5t130 -261.5q0 -45 -10 -102l-115 -653h-344l19 101q-91 -131 -281 -131q-149 0 -241.5 90t-92.5 236q0 171 134 267t373 96h189l1 9q4 27 4 42q0 52 -43 81t-116 29
q-127 0 -225 -85l-178 222q171 158 449 158zM458 217q73 0 130.5 47.5t70.5 118.5l11 59h-120q-93 0 -145.5 -35t-52.5 -95q0 -44 28 -69.5t78 -25.5z" />
    <glyph glyph-name="aring" unicode="&#xe5;" horiz-adv-x="1140" 
d="M683 1175q-110 0 -179 68.5t-69 174.5q0 120 85.5 200t204.5 80q110 0 178.5 -69.5t68.5 -175.5q0 -117 -85 -197.5t-204 -80.5zM715 1523q-41 0 -66.5 -30.5t-25.5 -70.5q0 -33 19 -52.5t49 -19.5q39 0 66 26.5t27 68.5q0 34 -18.5 56t-50.5 22zM600 1115
q217 0 347 -98.5t130 -261.5q0 -45 -10 -102l-115 -653h-344l19 101q-91 -131 -281 -131q-149 0 -241.5 90t-92.5 236q0 171 134 267t373 96h189l1 9q4 27 4 42q0 52 -43 81t-116 29q-127 0 -225 -85l-178 222q171 158 449 158zM458 217q73 0 130.5 47.5t70.5 118.5l11 59
h-120q-93 0 -145.5 -35t-52.5 -95q0 -44 28 -69.5t78 -25.5z" />
    <glyph glyph-name="ae" unicode="&#xe6;" horiz-adv-x="1740" 
d="M1244 1120q202 0 327 -144.5t125 -379.5q0 -48 -19 -158h-661q9 -83 54.5 -134t122.5 -51q58 0 114 30.5t93 84.5l221 -203q-177 -195 -451 -195q-251 0 -367 190q-65 -90 -173.5 -140t-243.5 -50q-171 0 -273 88.5t-102 230.5q0 171 128 264.5t349 93.5h178l3 21
q4 25 4 43q0 109 -148 109q-130 0 -215 -82l-171 225q159 152 434 152q227 0 330 -137q134 142 341 142zM1029 647h321q-3 97 -40 143.5t-96 46.5q-69 0 -117 -54t-68 -136zM620 384l9 54h-114q-76 0 -126 -34.5t-50 -96.5q0 -41 25 -65.5t69 -24.5q73 0 124 47t63 120z" />
    <glyph glyph-name="ccedilla" unicode="&#xe7;" horiz-adv-x="1138" 
d="M582 275q115 0 197 153l288 -150q-146 -242 -370 -294l-157 -353h-295l161 360q-166 44 -262.5 174t-96.5 315q0 284 170.5 462t447.5 178q159 0 280 -82t177 -227l-308 -132q-26 71 -66 103t-101 32q-109 0 -171 -95.5t-62 -225.5q0 -101 44.5 -159.5t123.5 -58.5z" />
    <glyph glyph-name="egrave" unicode="&#xe8;" horiz-adv-x="1171" 
d="M846 1186h-274l-305 361h344zM1107 438h-696q13 -87 62 -136t132 -49q127 0 215 116l224 -204q-180 -195 -477 -195q-234 0 -377 141t-143 369q0 284 167.5 462t439.5 178q211 0 341.5 -146t130.5 -384q0 -56 -19 -152zM427 653h351q-2 87 -40.5 135.5t-106.5 48.5
q-70 0 -123.5 -50t-80.5 -134z" />
    <glyph glyph-name="eacute" unicode="&#xe9;" horiz-adv-x="1171" 
d="M1070 1547l-304 -361h-281l234 361h351zM1107 438h-696q13 -87 62 -136t132 -49q127 0 215 116l224 -204q-180 -195 -477 -195q-234 0 -377 141t-143 369q0 284 167.5 462t439.5 178q211 0 341.5 -146t130.5 -384q0 -56 -19 -152zM427 653h351q-2 87 -40.5 135.5
t-106.5 48.5q-70 0 -123.5 -50t-80.5 -134z" />
    <glyph glyph-name="ecircumflex" unicode="&#xea;" horiz-adv-x="1171" 
d="M725 1340l-132 -155h-299l288 341h326l168 -341h-272zM1107 438h-696q13 -87 62 -136t132 -49q127 0 215 116l224 -204q-180 -195 -477 -195q-234 0 -377 141t-143 369q0 284 167.5 462t439.5 178q211 0 341.5 -146t130.5 -384q0 -56 -19 -152zM427 653h351
q-2 87 -40.5 135.5t-106.5 48.5q-70 0 -123.5 -50t-80.5 -134z" />
    <glyph glyph-name="edieresis" unicode="&#xeb;" horiz-adv-x="1171" 
d="M676 1475l-48 -275h-315l49 275h314zM1101 1475l-49 -275h-314l49 275h314zM1107 438h-696q13 -87 62 -136t132 -49q127 0 215 116l224 -204q-180 -195 -477 -195q-234 0 -377 141t-143 369q0 284 167.5 462t439.5 178q211 0 341.5 -146t130.5 -384q0 -56 -19 -152z
M427 653h351q-2 87 -40.5 135.5t-106.5 48.5q-70 0 -123.5 -50t-80.5 -134z" />
    <glyph glyph-name="igrave" unicode="&#xec;" horiz-adv-x="557" 
d="M284 1186l-306 361h345l234 -361h-273zM3 0l192 1090h360l-191 -1090h-361z" />
    <glyph glyph-name="iacute" unicode="&#xed;" horiz-adv-x="557" 
d="M197 1186l233 361h351l-304 -361h-280zM3 0l192 1090h360l-191 -1090h-361z" />
    <glyph glyph-name="icircumflex" unicode="&#xee;" horiz-adv-x="557" 
d="M436 1340l-132 -155h-299l288 341h327l167 -341h-272zM3 0l192 1090h360l-191 -1090h-361z" />
    <glyph glyph-name="idieresis" unicode="&#xef;" horiz-adv-x="557" 
d="M66 1200l48 275h284l-48 -275h-284zM438 1200l49 275h284l-48 -275h-285zM3 0l193 1090h360l-192 -1090h-361z" />
    <glyph glyph-name="eth" unicode="&#xf0;" horiz-adv-x="1176" 
d="M905 1274q224 -265 224 -654q0 -296 -154.5 -472t-435.5 -176q-216 0 -358.5 135t-142.5 340q0 123 43.5 229.5t117 180t172 115t206.5 41.5q93 0 158 -38q-41 87 -109 164l-226 -110l-56 137l167 81q-45 37 -107 79l173 219q124 -76 219 -160l202 99l58 -136zM564 266
q89 0 144 74.5t55 185.5q0 89 -41.5 140.5t-112.5 51.5q-91 0 -148.5 -75.5t-57.5 -185.5q0 -87 44.5 -139t116.5 -52z" />
    <glyph glyph-name="ntilde" unicode="&#xf1;" horiz-adv-x="1204" 
d="M602 1281q-66 0 -148 -89l-163 196q101 95 170.5 127t137.5 32q92 0 177 -52q2 -1 11.5 -6t12 -6.5t10.5 -5.5t11.5 -5t10.5 -3.5t12 -3.5t12 -2t13 -1q64 0 149 89l163 -194q-101 -95 -171 -127.5t-139 -32.5q-89 0 -176 51q-59 33 -93 33zM829 1118q145 0 233.5 -82.5
t88.5 -220.5q0 -45 -9 -96l-126 -719h-361l117 659q4 27 4 57q0 47 -27 73.5t-76 26.5q-75 0 -130.5 -59.5t-74.5 -163.5l-104 -593h-361l193 1090h352l-21 -117q112 145 302 145z" />
    <glyph glyph-name="ograve" unicode="&#xf2;" horiz-adv-x="1233" 
d="M591 1186l-305 361h344l234 -361h-273zM566 -30q-233 0 -376 141t-143 369q0 284 171.5 462t449.5 178q233 0 376 -141t143 -369q0 -284 -171.5 -462t-449.5 -178zM584 275q74 0 129 48t81 119.5t26 154.5q0 101 -44.5 159t-125.5 58q-110 0 -173 -95.5t-63 -225.5
q0 -101 44.5 -159.5t125.5 -58.5z" />
    <glyph glyph-name="oacute" unicode="&#xf3;" horiz-adv-x="1233" 
d="M505 1186l233 361h352l-305 -361h-280zM566 -30q-233 0 -376 141t-143 369q0 284 171.5 462t449.5 178q233 0 376 -141t143 -369q0 -284 -171.5 -462t-449.5 -178zM584 275q74 0 129 48t81 119.5t26 154.5q0 101 -44.5 159t-125.5 58q-110 0 -173 -95.5t-63 -225.5
q0 -101 44.5 -159.5t125.5 -58.5z" />
    <glyph glyph-name="ocircumflex" unicode="&#xf4;" horiz-adv-x="1233" 
d="M743 1340l-132 -155h-299l288 341h327l168 -341h-273zM668 1120q233 0 376 -141t143 -369q0 -284 -171.5 -462t-449.5 -178q-233 0 -376 141t-143 369q0 284 171.5 462t449.5 178zM584 275q74 0 129 48t81 119.5t26 154.5q0 101 -44.5 159t-125.5 58q-110 0 -173 -95.5
t-63 -225.5q0 -101 44.5 -159.5t125.5 -58.5z" />
    <glyph glyph-name="otilde" unicode="&#xf5;" horiz-adv-x="1233" 
d="M437 1192l-163 196q101 95 171 127t138 32q92 0 177 -52q2 -1 11.5 -6t12 -6.5t10.5 -5.5t11.5 -5t10.5 -3.5t12 -3.5t12 -2t13 -1q63 0 148 89l163 -194q-101 -95 -171 -127.5t-138 -32.5q-89 0 -176 51q-59 33 -93 33q-67 0 -149 -89zM566 -30q-233 0 -376 141
t-143 369q0 284 171.5 462t449.5 178q233 0 376 -141t143 -369q0 -284 -171.5 -462t-449.5 -178zM584 275q74 0 129 48t81 119.5t26 154.5q0 101 -44.5 159t-125.5 58q-110 0 -173 -95.5t-63 -225.5q0 -101 44.5 -159.5t125.5 -58.5z" />
    <glyph glyph-name="odieresis" unicode="&#xf6;" horiz-adv-x="1233" 
d="M333 1200l49 275h313l-48 -275h-314zM758 1200l49 275h313l-49 -275h-313zM566 -30q-233 0 -376 141t-143 369q0 284 171.5 462t449.5 178q233 0 376 -141t143 -369q0 -284 -171.5 -462t-449.5 -178zM584 275q74 0 129 48t81 119.5t26 154.5q0 101 -44.5 159t-125.5 58
q-110 0 -173 -95.5t-63 -225.5q0 -101 44.5 -159.5t125.5 -58.5z" />
    <glyph glyph-name="divide" unicode="&#xf7;" 
d="M502 831l48 273h320l-48 -273h-320zM97 443l51 292h1000l-51 -292h-1000zM368 75l48 272h320l-48 -272h-320z" />
    <glyph glyph-name="oslash" unicode="&#xf8;" horiz-adv-x="1248" 
d="M1237 1067l-137 -154q88 -129 88 -303q0 -284 -171.5 -462t-449.5 -178q-140 0 -255 56l-138 -158l-167 145l135 154q-95 131 -95 313q0 284 171.5 462t449.5 178q148 0 265 -60l135 152zM650 814q-110 0 -173 -95.5t-63 -225.5q0 -30 5 -60l313 362q-38 19 -82 19z
M584 275q110 0 173.5 96.5t63.5 226.5q0 25 -3 46l-305 -354q33 -15 71 -15z" />
    <glyph glyph-name="ugrave" unicode="&#xf9;" horiz-adv-x="1203" 
d="M876 1186h-274l-305 361h344zM840 1090h360l-192 -1090h-352l21 119q-114 -147 -302 -147q-145 0 -233.5 82.5t-88.5 219.5q0 48 9 97l126 719h361l-117 -659q-4 -29 -4 -57q0 -47 27 -73.5t76 -26.5q74 0 130 62t75 164z" />
    <glyph glyph-name="uacute" unicode="&#xfa;" horiz-adv-x="1203" 
d="M1100 1547l-304 -361h-281l234 361h351zM840 1090h360l-192 -1090h-352l21 119q-114 -147 -302 -147q-145 0 -233.5 82.5t-88.5 219.5q0 48 9 97l126 719h361l-117 -659q-4 -29 -4 -57q0 -47 27 -73.5t76 -26.5q74 0 130 62t75 164z" />
    <glyph glyph-name="ucircumflex" unicode="&#xfb;" horiz-adv-x="1203" 
d="M755 1340l-132 -155h-299l287 341h327l168 -341h-272zM840 1090h360l-192 -1090h-352l21 119q-114 -147 -302 -147q-145 0 -233.5 82.5t-88.5 219.5q0 48 9 97l126 719h361l-117 -659q-4 -29 -4 -57q0 -47 27 -73.5t76 -26.5q74 0 130 62t75 164z" />
    <glyph glyph-name="udieresis" unicode="&#xfc;" horiz-adv-x="1203" 
d="M706 1475l-49 -275h-314l49 275h314zM1130 1475l-49 -275h-313l49 275h313zM840 1090h360l-192 -1090h-352l21 119q-114 -147 -302 -147q-145 0 -233.5 82.5t-88.5 219.5q0 48 9 97l126 719h361l-117 -659q-4 -29 -4 -57q0 -47 27 -73.5t76 -26.5q74 0 130 62t75 164z
" />
    <glyph glyph-name="yacute" unicode="&#xfd;" horiz-adv-x="1199" 
d="M1096 1547l-304 -361h-281l233 361h352zM888 1090h397l-646 -1194q-80 -149 -183.5 -216.5t-261.5 -67.5q-123 0 -230 40l103 268q59 -17 106 -17q92 0 140 80l43 72l-250 1035h373l112 -635z" />
    <glyph glyph-name="thorn" unicode="&#xfe;" horiz-adv-x="1248" 
d="M794 1120q185 0 297 -130.5t112 -360.5q0 -287 -150.5 -473t-376.5 -186q-93 0 -171 36.5t-123 98.5l-82 -463h-360l323 1833h361l-81 -458q101 103 251 103zM600 275q72 0 127.5 48.5t83 122.5t27.5 158q0 101 -44 155.5t-125 54.5q-107 0 -169 -100t-62 -235
q0 -204 162 -204z" />
    <glyph glyph-name="ydieresis" unicode="&#xff;" horiz-adv-x="1199" 
d="M701 1475l-48 -275h-314l49 275h313zM1126 1475l-49 -275h-313l49 275h313zM888 1090h397l-646 -1194q-80 -149 -183.5 -216.5t-261.5 -67.5q-123 0 -230 40l103 268q59 -17 106 -17q92 0 140 80l43 72l-250 1035h373l112 -635z" />
    <glyph glyph-name="Amacron" unicode="&#x100;" horiz-adv-x="1530" 
d="M1260 1830l-38 -215h-615l38 215h615zM1021 0l-43 248h-516l-121 -248h-419l771 1475h425l299 -1475h-396zM612 558h312l-83 470z" />
    <glyph glyph-name="amacron" unicode="&#x101;" horiz-adv-x="1140" 
d="M1034 1461l-39 -215h-614l39 215h614zM600 1115q217 0 347 -98.5t130 -261.5q0 -45 -10 -102l-115 -653h-344l19 101q-91 -131 -281 -131q-149 0 -241.5 90t-92.5 236q0 171 134 267t373 96h189l1 9q4 27 4 42q0 52 -43 81t-116 29q-127 0 -225 -85l-178 222
q171 158 449 158zM458 217q73 0 130.5 47.5t70.5 118.5l11 59h-120q-93 0 -145.5 -35t-52.5 -95q0 -44 28 -69.5t78 -25.5z" />
    <glyph glyph-name="Abreve" unicode="&#x102;" horiz-adv-x="1530" 
d="M913 1548q-156 0 -242.5 97.5t-93.5 255.5h228q2 -70 38 -107t90 -37q57 0 99.5 39t52.5 105h244q-36 -166 -148.5 -259.5t-267.5 -93.5zM1021 0l-43 248h-516l-121 -248h-419l771 1475h425l299 -1475h-396zM612 558h312l-83 470z" />
    <glyph glyph-name="abreve" unicode="&#x103;" horiz-adv-x="1140" 
d="M707 1175q-155 0 -242 97.5t-94 253.5h228q1 -69 37 -106t91 -37q57 0 99.5 39t52.5 104h244q-36 -165 -148 -258t-268 -93zM600 1115q217 0 347 -98.5t130 -261.5q0 -45 -10 -102l-115 -653h-344l19 101q-91 -131 -281 -131q-149 0 -241.5 90t-92.5 236q0 171 134 267
t373 96h189l1 9q4 27 4 42q0 52 -43 81t-116 29q-127 0 -225 -85l-178 222q171 158 449 158zM458 217q73 0 130.5 47.5t70.5 118.5l11 59h-120q-93 0 -145.5 -35t-52.5 -95q0 -44 28 -69.5t78 -25.5z" />
    <glyph glyph-name="Aogonek" unicode="&#x104;" horiz-adv-x="1530" 
d="M1247 -200q49 0 100 25l68 -205q-93 -49 -211 -49q-129 0 -206 59.5t-77 158.5q0 123 143 211h-43l-43 248h-516l-121 -248h-419l771 1475h425l299 -1475h-122q-125 -72 -125 -144q0 -56 77 -56zM612 558h312l-83 470z" />
    <glyph glyph-name="aogonek" unicode="&#x105;" horiz-adv-x="1140" 
d="M600 1115q217 0 347 -98.5t130 -261.5q0 -45 -10 -102l-115 -653h-135q-125 -72 -125 -144q0 -56 77 -56q48 0 99 25l69 -205q-93 -49 -211 -49q-129 0 -206.5 59.5t-77.5 158.5q0 133 169 225l16 87q-91 -131 -281 -131q-149 0 -241.5 90t-92.5 236q0 171 134 267
t373 96h189l1 9q4 27 4 42q0 52 -43 81t-116 29q-127 0 -225 -85l-178 222q171 158 449 158zM458 217q73 0 130.5 47.5t70.5 118.5l11 59h-120q-93 0 -145.5 -35t-52.5 -95q0 -44 28 -69.5t78 -25.5z" />
    <glyph glyph-name="Cacute" unicode="&#x106;" horiz-adv-x="1492" 
d="M719 1569l233 360h352l-305 -360h-280zM757 -35q-303 0 -485 182.5t-182 488.5q0 243 100.5 441.5t286 315t420.5 116.5q222 0 378.5 -102.5t231.5 -288.5l-326 -160q-52 110 -118.5 158t-173.5 48q-126 0 -221 -75.5t-141.5 -192.5t-46.5 -253q0 -155 81.5 -244
t220.5 -89q201 0 320 230l325 -172q-130 -210 -288 -306.5t-382 -96.5z" />
    <glyph glyph-name="cacute" unicode="&#x107;" horiz-adv-x="1138" 
d="M493 1186l233 361h351l-304 -361h-280zM564 -30q-232 0 -374.5 141t-142.5 369q0 284 170.5 462t447.5 178q159 0 280 -82t177 -227l-308 -132q-26 71 -66 103t-101 32q-109 0 -171 -95.5t-62 -225.5q0 -101 44.5 -159.5t123.5 -58.5q115 0 197 153l288 -150
q-96 -160 -219 -234t-284 -74z" />
    <glyph glyph-name="Ccircumflex" unicode="&#x108;" horiz-adv-x="1492" 
d="M958 1715l-131 -154h-300l288 341h327l168 -341h-273zM782 310q201 0 320 230l325 -172q-130 -210 -288 -306.5t-382 -96.5q-303 0 -485 182.5t-182 488.5q0 243 100.5 441.5t286 315t420.5 116.5q222 0 378.5 -102.5t231.5 -288.5l-326 -160q-52 110 -118.5 158
t-173.5 48q-126 0 -221 -75.5t-141.5 -192.5t-46.5 -253q0 -155 81.5 -244t220.5 -89z" />
    <glyph glyph-name="ccircumflex" unicode="&#x109;" horiz-adv-x="1138" 
d="M732 1340l-132 -155h-299l288 341h326l168 -341h-272zM582 275q115 0 197 153l288 -150q-96 -160 -219 -234t-284 -74q-232 0 -374.5 141t-142.5 369q0 284 170.5 462t447.5 178q159 0 280 -82t177 -227l-308 -132q-26 71 -66 103t-101 32q-109 0 -171 -95.5t-62 -225.5
q0 -101 44.5 -159.5t123.5 -58.5z" />
    <glyph glyph-name="Cdotaccent" unicode="&#x10a;" horiz-adv-x="1492" 
d="M734 1577l49 276h371l-49 -276h-371zM757 -35q-303 0 -485 182.5t-182 488.5q0 243 100.5 441.5t286 315t420.5 116.5q222 0 378.5 -102.5t231.5 -288.5l-326 -160q-52 110 -118.5 158t-173.5 48q-126 0 -221 -75.5t-141.5 -192.5t-46.5 -253q0 -155 81.5 -244t220.5 -89
q201 0 320 230l325 -172q-130 -210 -288 -306.5t-382 -96.5z" />
    <glyph glyph-name="cdotaccent" unicode="&#x10b;" horiz-adv-x="1138" 
d="M506 1198l49 277h370l-51 -277h-368zM564 -30q-232 0 -374.5 141t-142.5 369q0 284 170.5 462t447.5 178q159 0 280 -82t177 -227l-308 -132q-26 71 -66 103t-101 32q-109 0 -171 -95.5t-62 -225.5q0 -101 44.5 -159.5t123.5 -58.5q115 0 197 153l288 -150
q-96 -160 -219 -234t-284 -74z" />
    <glyph glyph-name="Ccaron" unicode="&#x10c;" horiz-adv-x="1492" 
d="M1080 1561h-326l-168 341h273l78 -156l132 156h299zM782 310q201 0 320 230l325 -172q-130 -210 -288 -306.5t-382 -96.5q-303 0 -485 182.5t-182 488.5q0 243 100.5 441.5t286 315t420.5 116.5q222 0 378.5 -102.5t231.5 -288.5l-326 -160q-52 110 -118.5 158t-173.5 48
q-126 0 -221 -75.5t-141.5 -192.5t-46.5 -253q0 -155 81.5 -244t220.5 -89z" />
    <glyph glyph-name="ccaron" unicode="&#x10d;" horiz-adv-x="1138" 
d="M854 1185h-327l-168 341h274l78 -155l132 155h299zM647 814q-109 0 -171 -95.5t-62 -225.5q0 -101 44.5 -159.5t123.5 -58.5q115 0 197 153l288 -150q-96 -160 -219 -234t-284 -74q-232 0 -374.5 141t-142.5 369q0 284 170.5 462t447.5 178q159 0 280 -82t177 -227
l-308 -132q-26 71 -66 103t-101 32z" />
    <glyph glyph-name="Dcaron" unicode="&#x10e;" horiz-adv-x="1507" 
d="M1030 1561h-327l-167 341h273l78 -156l132 156h299zM817 1475q309 0 489 -167t180 -469q0 -242 -101 -433t-285.5 -298.5t-420.5 -107.5h-661l261 1475h538zM687 336q127 0 221.5 69t141 180t46.5 246q0 151 -78.5 229.5t-214.5 78.5h-204l-142 -803h230z" />
    <glyph glyph-name="dcaron" unicode="&#x10f;" horiz-adv-x="1491" 
d="M864 971l90 504h361l-260 -1475h-337l20 117q-45 -65 -117 -106t-164 -41q-186 0 -299 131t-113 360q0 189 69 340.5t187.5 235t262.5 83.5q99 0 178.5 -40.5t121.5 -108.5zM1413 1475h317l-155 -499h-250zM582 275q106 0 167.5 100.5t61.5 232.5q0 206 -163 206
q-107 0 -171.5 -98.5t-64.5 -229.5q0 -101 44 -156t126 -55z" />
    <glyph glyph-name="Dcroat" unicode="&#x110;" horiz-adv-x="1574" 
d="M885 1475q309 0 488.5 -167t179.5 -469q0 -181 -59 -336.5t-164.5 -266t-256.5 -173.5t-328 -63h-660l104 592h-132l52 291h132l104 592h540zM755 336q127 0 221 69t140.5 180t46.5 246q0 151 -79 229.5t-215 78.5h-203l-45 -256h279l-51 -291h-281l-45 -256h232z" />
    <glyph glyph-name="dcroat" unicode="&#x111;" horiz-adv-x="1256" 
d="M1405 1369l-32 -182h-110l-209 -1187h-336l20 117q-45 -65 -117 -106t-164 -41q-186 0 -299 131t-113 360q0 189 69 340.5t187.5 235t262.5 83.5q98 0 177.5 -40.5t122.5 -108.5l38 216h-208l32 182h209l18 106h361l-19 -106h110zM582 275q106 0 167.5 100.5t61.5 232.5
q0 206 -163 206q-107 0 -171.5 -98.5t-64.5 -229.5q0 -101 44 -156t126 -55z" />
    <glyph glyph-name="Emacron" unicode="&#x112;" horiz-adv-x="1281" 
d="M1202 1830l-38 -215h-614l38 215h614zM1317 1139h-719l-42 -237h646l-55 -318h-646l-44 -248h728l-60 -336h-1107l261 1475h1097z" />
    <glyph glyph-name="emacron" unicode="&#x113;" horiz-adv-x="1171" 
d="M1037 1461l-39 -215h-614l39 215h614zM1107 438h-696q13 -87 62 -136t132 -49q127 0 215 116l224 -204q-180 -195 -477 -195q-234 0 -377 141t-143 369q0 284 167.5 462t439.5 178q211 0 341.5 -146t130.5 -384q0 -56 -19 -152zM427 653h351q-2 87 -40.5 135.5
t-106.5 48.5q-70 0 -123.5 -50t-80.5 -134z" />
    <glyph glyph-name="Ebreve" unicode="&#x114;" horiz-adv-x="1281" 
d="M855 1548q-156 0 -243 98t-94 255h228q2 -70 38 -107t90 -37q57 0 100 39.5t53 104.5h244q-36 -166 -148.5 -259.5t-267.5 -93.5zM1317 1139h-719l-42 -237h646l-55 -318h-646l-44 -248h728l-60 -336h-1107l261 1475h1097z" />
    <glyph glyph-name="ebreve" unicode="&#x115;" horiz-adv-x="1171" 
d="M709 1175q-155 0 -242 97.5t-94 253.5h228q1 -69 37 -106t91 -37q57 0 99.5 39t52.5 104h244q-36 -165 -148 -258t-268 -93zM1107 438h-696q13 -87 62 -136t132 -49q127 0 215 116l224 -204q-180 -195 -477 -195q-234 0 -377 141t-143 369q0 284 167.5 462t439.5 178
q211 0 341.5 -146t130.5 -384q0 -56 -19 -152zM427 653h351q-2 87 -40.5 135.5t-106.5 48.5q-70 0 -123.5 -50t-80.5 -134z" />
    <glyph glyph-name="Edotaccent" unicode="&#x116;" horiz-adv-x="1281" 
d="M1087 1853l-49 -276h-370l49 276h370zM1317 1139h-719l-42 -237h646l-55 -318h-646l-44 -248h728l-60 -336h-1107l261 1475h1097z" />
    <glyph glyph-name="edotaccent" unicode="&#x117;" horiz-adv-x="1171" 
d="M918 1475l-51 -277h-368l49 277h370zM1107 438h-696q13 -87 62 -136t132 -49q127 0 215 116l224 -204q-180 -195 -477 -195q-234 0 -377 141t-143 369q0 284 167.5 462t439.5 178q211 0 341.5 -146t130.5 -384q0 -56 -19 -152zM427 653h351q-2 87 -40.5 135.5
t-106.5 48.5q-70 0 -123.5 -50t-80.5 -134z" />
    <glyph glyph-name="Eogonek" unicode="&#x118;" horiz-adv-x="1281" 
d="M1317 1139h-719l-42 -237h646l-55 -318h-646l-44 -248h728l-60 -336h-135q-125 -72 -125 -144q0 -56 77 -56q48 0 99 25l69 -205q-93 -49 -211 -49q-129 0 -206.5 59.5t-77.5 158.5q0 123 144 211h-741l261 1475h1097z" />
    <glyph glyph-name="eogonek" unicode="&#x119;" horiz-adv-x="1172" 
d="M1126 590q0 -56 -19 -152h-696q13 -87 62 -136t132 -49q127 0 215 116l224 -204q-86 -92 -185 -136q-76 -34 -123.5 -81t-47.5 -93q0 -55 77 -55q51 0 101 25l69 -205q-91 -49 -213 -49q-129 0 -206.5 59.5t-77.5 156.5q0 104 97 184q-221 10 -354.5 149.5t-133.5 359.5
q0 284 167.5 462t439.5 178q211 0 341.5 -146t130.5 -384zM631 837q-70 0 -123.5 -50t-80.5 -134h351q-2 87 -40.5 135.5t-106.5 48.5z" />
    <glyph glyph-name="Ecaron" unicode="&#x11a;" horiz-adv-x="1281" 
d="M1014 1561h-327l-168 341h274l77 -156l132 156h300zM1317 1139h-719l-42 -237h646l-55 -318h-646l-44 -248h728l-60 -336h-1107l261 1475h1097z" />
    <glyph glyph-name="ecaron" unicode="&#x11b;" horiz-adv-x="1171" 
d="M847 1185h-327l-168 341h274l77 -155l133 155h299zM654 1120q211 0 341.5 -146t130.5 -384q0 -56 -19 -152h-696q13 -87 62 -136t132 -49q127 0 215 116l224 -204q-180 -195 -477 -195q-234 0 -377 141t-143 369q0 284 167.5 462t439.5 178zM427 653h351
q-2 87 -40.5 135.5t-106.5 48.5q-70 0 -123.5 -50t-80.5 -134z" />
    <glyph glyph-name="Gcircumflex" unicode="&#x11c;" horiz-adv-x="1512" 
d="M954 1715l-131 -154h-300l288 341h327l168 -341h-273zM819 551l51 294h608l-150 -845h-310l21 124q-125 -153 -342 -153q-270 0 -438.5 182.5t-168.5 482.5q0 182 59 342.5t164 277.5t257 185t329 68q200 0 350.5 -91t229.5 -255l-316 -175q-56 95 -120 135.5t-161 40.5
q-93 0 -170 -44t-127 -117t-77.5 -166t-27.5 -194q0 -153 83.5 -243.5t218.5 -90.5q113 0 203.5 62t117.5 164l2 16h-286z" />
    <glyph glyph-name="gcircumflex" unicode="&#x11d;" horiz-adv-x="1249" 
d="M768 1340l-132 -155h-299l288 341h326l168 -341h-272zM886 1090h360l-180 -1021q-38 -218 -197 -337.5t-411 -119.5q-290 0 -461 164l184 241q116 -108 279 -108q217 0 251 192l8 47q-83 -110 -247 -110q-184 0 -303 126.5t-119 331.5q0 279 145 451t378 172
q95 0 172 -37t121 -100zM582 339q100 0 164.5 82t64.5 199q0 92 -44 145t-119 53q-99 0 -165.5 -83t-66.5 -198q0 -92 45 -145t121 -53z" />
    <glyph glyph-name="Gbreve" unicode="&#x11e;" horiz-adv-x="1512" 
d="M918 1548q-156 0 -243 98t-94 255h228q2 -70 38 -107t90 -37q57 0 100 39.5t53 104.5h243q-36 -166 -148 -259.5t-267 -93.5zM819 551l51 294h608l-150 -845h-310l21 124q-125 -153 -342 -153q-270 0 -438.5 182.5t-168.5 482.5q0 182 59 342.5t164 277.5t257 185t329 68
q200 0 350.5 -91t229.5 -255l-316 -175q-56 95 -120 135.5t-161 40.5q-93 0 -170 -44t-127 -117t-77.5 -166t-27.5 -194q0 -153 83.5 -243.5t218.5 -90.5q113 0 203.5 62t117.5 164l2 16h-286z" />
    <glyph glyph-name="gbreve" unicode="&#x11f;" horiz-adv-x="1249" 
d="M752 1175q-155 0 -242 97.5t-94 253.5h228q1 -69 37 -106t91 -37q56 0 99 39t53 104h244q-36 -165 -148 -258t-268 -93zM886 1090h360l-180 -1021q-38 -218 -197 -337.5t-411 -119.5q-290 0 -461 164l184 241q116 -108 279 -108q217 0 251 192l8 47q-83 -110 -247 -110
q-184 0 -303 126.5t-119 331.5q0 279 145 451t378 172q95 0 172 -37t121 -100zM582 339q100 0 164.5 82t64.5 199q0 92 -44 145t-119 53q-99 0 -165.5 -83t-66.5 -198q0 -92 45 -145t121 -53z" />
    <glyph glyph-name="Gdotaccent" unicode="&#x120;" horiz-adv-x="1512" 
d="M1150 1853l-49 -276h-371l49 276h371zM819 551l51 294h608l-150 -845h-310l21 124q-125 -153 -342 -153q-270 0 -438.5 182.5t-168.5 482.5q0 182 59 342.5t164 277.5t257 185t329 68q200 0 350.5 -91t229.5 -255l-316 -175q-56 95 -120 135.5t-161 40.5q-93 0 -170 -44
t-127 -117t-77.5 -166t-27.5 -194q0 -153 83.5 -243.5t218.5 -90.5q113 0 203.5 62t117.5 164l2 16h-286z" />
    <glyph glyph-name="gdotaccent" unicode="&#x121;" horiz-adv-x="1249" 
d="M959 1475l-50 -277h-368l49 277h369zM886 1090h360l-180 -1021q-38 -218 -197 -337.5t-411 -119.5q-290 0 -461 164l184 241q116 -108 279 -108q217 0 251 192l8 47q-83 -110 -247 -110q-184 0 -303 126.5t-119 331.5q0 279 145 451t378 172q95 0 172 -37t121 -100z
M582 339q100 0 164.5 82t64.5 199q0 92 -44 145t-119 53q-99 0 -165.5 -83t-66.5 -198q0 -92 45 -145t121 -53z" />
    <glyph glyph-name="uni0122" unicode="&#x122;" horiz-adv-x="1512" 
d="M819 551l51 294h608l-150 -845h-310l21 124q-125 -153 -342 -153q-270 0 -438.5 182.5t-168.5 482.5q0 182 59 342.5t164 277.5t257 185t329 68q200 0 350.5 -91t229.5 -255l-316 -175q-56 95 -120 135.5t-161 40.5q-93 0 -170 -44t-127 -117t-77.5 -166t-27.5 -194
q0 -153 83.5 -243.5t218.5 -90.5q113 0 203.5 62t117.5 164l2 16h-286zM499 -294l40 220h297l-40 -226q-13 -75 -63.5 -123.5t-150.5 -91.5l-65 112q58 25 91.5 50t44.5 59h-154z" />
    <glyph glyph-name="uni0123" unicode="&#x123;" horiz-adv-x="1248" 
d="M921 1420l-40 -220h-297l40 226q13 75 63.5 123.5t150.5 91.5l64 -111q-58 -25 -91.5 -50.5t-44.5 -59.5h155zM886 1090h360l-180 -1021q-38 -218 -197 -337.5t-411 -119.5q-290 0 -461 164l184 241q116 -108 279 -108q217 0 251 192l8 47q-83 -110 -247 -110
q-184 0 -303 126.5t-119 331.5q0 279 145 451t378 172q95 0 172 -37t121 -100zM582 339q100 0 164.5 82t64.5 199q0 92 -44 145t-119 53q-99 0 -165.5 -83t-66.5 -198q0 -92 45 -145t121 -53z" />
    <glyph glyph-name="Hcircumflex" unicode="&#x124;" horiz-adv-x="1524" 
d="M970 1715l-131 -154h-300l287 341h327l168 -341h-272zM1196 1475h379l-260 -1475h-379l101 578h-538l-102 -578h-379l261 1475h378l-99 -563h539z" />
    <glyph glyph-name="hcircumflex" unicode="&#x125;" horiz-adv-x="1204" 
d="M862 1715l-131 -154h-300l288 341h327l167 -341h-272zM829 1118q145 0 233.5 -82.5t88.5 -220.5q0 -45 -9 -96l-126 -719h-361l117 659q4 27 4 57q0 47 -27 73.5t-76 26.5q-74 0 -131 -63.5t-75 -167.5l-103 -585h-361l260 1475h361l-83 -479q114 122 288 122z" />
    <glyph glyph-name="Hbar" unicode="&#x126;" horiz-adv-x="1608" 
d="M1737 1322l-47 -268h-147l-186 -1054h-380l101 578h-537l-102 -578h-379l187 1054h-148l47 268h148l27 153h378l-28 -165h537l29 165h380l-27 -153h147zM600 912h538l27 154h-537z" />
    <glyph glyph-name="hbar" unicode="&#x127;" horiz-adv-x="1211" 
d="M837 1118q145 0 233 -82.5t88 -220.5q0 -45 -9 -96l-126 -719h-360l116 659q4 27 4 57q0 47 -27 73.5t-76 26.5q-73 0 -130 -63.5t-76 -167.5l-103 -585h-361l209 1187h-110l32 182h111l18 106h361l-19 -106h208l-32 -182h-207l-34 -193q115 124 290 124z" />
    <glyph glyph-name="Itilde" unicode="&#x128;" horiz-adv-x="607" 
d="M221 1550l-163 196q101 95 171 127.5t138 32.5q40 0 76 -9t54.5 -18t46.5 -26q58 -32 92 -32q65 0 148 89l164 -195q-101 -95 -171 -127.5t-138 -32.5q-40 0 -76 9t-54 18t-46 25q-57 32 -93 32q-68 0 -149 -89zM18 0l261 1475h378l-260 -1475h-379z" />
    <glyph glyph-name="itilde" unicode="&#x129;" horiz-adv-x="557" 
d="M129 1192l-163 196q101 95 170.5 127t137.5 32q93 0 178 -52q2 -1 11.5 -6t12 -6.5t10.5 -5.5t11.5 -5t10.5 -3.5t12 -3.5t12 -2t13 -1q63 0 148 89l163 -194q-101 -95 -171 -127.5t-138 -32.5q-89 0 -176 51q-59 33 -93 33q-67 0 -149 -89zM3 0l192 1090h360l-191 -1090
h-361z" />
    <glyph glyph-name="Imacron" unicode="&#x12a;" horiz-adv-x="607" 
d="M183 1615l38 215h615l-38 -215h-615zM18 0l261 1475h378l-260 -1475h-379z" />
    <glyph glyph-name="imacron" unicode="&#x12b;" horiz-adv-x="557" 
d="M94 1246l39 215h615l-39 -215h-615zM3 0l192 1090h360l-191 -1090h-361z" />
    <glyph glyph-name="Ibreve" unicode="&#x12c;" horiz-adv-x="607" 
d="M488 1548q-156 0 -242.5 97.5t-93.5 255.5h228q2 -70 38 -107t90 -37q57 0 99.5 39t52.5 105h244q-36 -166 -148.5 -259.5t-267.5 -93.5zM18 0l261 1475h378l-260 -1475h-379z" />
    <glyph glyph-name="ibreve" unicode="&#x12d;" horiz-adv-x="557" 
d="M420 1175q-155 0 -242 97.5t-94 253.5h228q1 -69 37 -106t91 -37q56 0 99 39t53 104h245q-36 -165 -148.5 -258t-268.5 -93zM3 0l192 1090h360l-191 -1090h-361z" />
    <glyph glyph-name="Iogonek" unicode="&#x12e;" horiz-adv-x="607" 
d="M256 -200q46 0 97 24l71 -204q-91 -49 -210 -49q-132 0 -210 60.5t-78 161.5q0 119 136 207h-44l261 1475h378l-260 -1475h-107q-114 -70 -114 -141q0 -59 80 -59z" />
    <glyph glyph-name="iogonek" unicode="&#x12f;" horiz-adv-x="557" 
d="M258 1475h370l-49 -277h-370zM255 0q-119 -71 -119 -144q0 -56 68 -56q53 0 103 25l69 -205q-91 -49 -207 -49q-129 0 -206.5 59.5t-77.5 158.5q0 123 140 211h-22l192 1090h360l-191 -1090h-109z" />
    <glyph glyph-name="Idotaccent" unicode="&#x130;" horiz-adv-x="607" 
d="M301 1577l49 276h371l-49 -276h-371zM18 0l261 1475h378l-260 -1475h-379z" />
    <glyph glyph-name="dotlessi" unicode="&#x131;" horiz-adv-x="557" 
d="M3 0l192 1090h360l-191 -1090h-361z" />
    <glyph glyph-name="IJ" unicode="&#x132;" horiz-adv-x="1770" 
d="M18 0l261 1475h378l-260 -1475h-379zM1087 -33q-180 0 -300.5 79.5t-192.5 243.5l315 165q55 -153 188 -153q80 0 128 56t68 170l167 947h379l-178 -1012q-43 -245 -188 -370.5t-386 -125.5z" />
    <glyph glyph-name="ij" unicode="&#x133;" horiz-adv-x="1116" 
d="M210 1198l49 277h369l-48 -277h-370zM768 1198l49 277h370l-49 -277h-370zM3 0l193 1090h360l-192 -1090h-361zM495 -384q-133 0 -241 44l93 272q54 -18 88 -18q111 0 133 124l186 1052h360l-205 -1162q-55 -312 -414 -312z" />
    <glyph glyph-name="Jcircumflex" unicode="&#x134;" horiz-adv-x="1162" 
d="M1101 1715l-131 -154h-300l287 341h327l168 -341h-272zM686 528l167 947h379l-178 -1012q-43 -245 -188 -370.5t-386 -125.5q-180 0 -300.5 79.5t-192.5 243.5l315 165q55 -153 187 -153q80 0 128.5 56t68.5 170z" />
    <glyph glyph-name="jcircumflex" unicode="&#x135;" horiz-adv-x="557" 
d="M436 1340l-132 -155h-299l288 341h327l167 -341h-272zM9 38l186 1052h360l-205 -1162q-55 -312 -415 -312q-132 0 -240 44l93 272q54 -18 88 -18q111 0 133 124z" />
    <glyph glyph-name="uni0136" unicode="&#x136;" horiz-adv-x="1446" 
d="M1596 1475l-631 -626l366 -850h-423l-228 567l-221 -219l-62 -347h-379l261 1475h378l-100 -567l560 567h479zM434 -294l40 220h297l-40 -226q-13 -75 -63.5 -123.5t-150.5 -91.5l-64 112q58 25 91.5 50t44.5 59h-155z" />
    <glyph glyph-name="uni0137" unicode="&#x137;" horiz-adv-x="1202" 
d="M1279 1090l-477 -455l278 -635h-379l-153 393l-138 -131l-46 -262h-361l260 1475h361l-128 -729l345 344h438zM309 -294l40 220h297l-40 -226q-13 -75 -63.5 -123.5t-150.5 -91.5l-64 112q58 25 91.5 50t44.5 59h-155z" />
    <glyph glyph-name="kgreenlandic" unicode="&#x138;" horiz-adv-x="1202" 
d="M1279 1090l-477 -455l278 -635h-379l-153 393l-138 -132l-46 -261h-361l192 1090h360l-60 -345l346 345h438z" />
    <glyph glyph-name="Lacute" unicode="&#x139;" horiz-adv-x="1154" 
d="M871 1929l-304 -360h-280l233 360h351zM457 334h625l-58 -334h-1006l261 1475h378z" />
    <glyph glyph-name="lacute" unicode="&#x13a;" horiz-adv-x="557" 
d="M261 1569l234 360h351l-304 -360h-281zM3 0l260 1475h361l-260 -1475h-361z" />
    <glyph glyph-name="uni013B" unicode="&#x13b;" horiz-adv-x="1154" 
d="M457 334h625l-58 -334h-1006l261 1475h378zM362 -294l40 220h297l-40 -226q-13 -75 -63.5 -123.5t-150.5 -91.5l-64 112q58 25 91.5 50t44.5 59h-155z" />
    <glyph glyph-name="uni013C" unicode="&#x13c;" horiz-adv-x="557" 
d="M263 1475h361l-260 -1475h-361zM-17 -294l40 220h296l-39 -226q-13 -75 -63.5 -123.5t-150.5 -91.5l-65 112q58 25 91.5 50t44.5 59h-154z" />
    <glyph glyph-name="Lcaron" unicode="&#x13d;" horiz-adv-x="1154" 
d="M657 1475l-200 -1141h625l-58 -334h-1006l261 1475h378zM1132 1475l-155 -499h-250l88 499h317z" />
    <glyph glyph-name="lcaron" unicode="&#x13e;" horiz-adv-x="800" 
d="M3 0l260 1475h361l-260 -1475h-361zM635 976l87 499h317l-154 -499h-250z" />
    <glyph glyph-name="Ldot" unicode="&#x13f;" horiz-adv-x="1154" 
d="M657 1475l-200 -1141h625l-58 -334h-1006l261 1475h378zM769 1059h387l-67 -382h-388z" />
    <glyph glyph-name="ldot" unicode="&#x140;" horiz-adv-x="1018" 
d="M3 0l260 1475h361l-260 -1475h-361zM595 546l68 383h387l-68 -383h-387z" />
    <glyph glyph-name="Lslash" unicode="&#x141;" horiz-adv-x="1201" 
d="M504 335h628l-61 -335h-1005l81 465l-159 -70l57 321l159 69l122 690h380l-94 -529l422 184l-56 -320l-422 -184z" />
    <glyph glyph-name="lslash" unicode="&#x142;" horiz-adv-x="736" 
d="M808 1153l-57 -322l-172 -98l-129 -733h-361l93 528l-167 -95l58 321l166 95l110 626h361l-74 -421z" />
    <glyph glyph-name="Nacute" unicode="&#x143;" horiz-adv-x="1512" 
d="M1322 1929l-304 -360h-281l234 360h351zM1182 1475h380l-260 -1475h-416l-333 881l-155 -881h-380l261 1475h413l335 -882z" />
    <glyph glyph-name="nacute" unicode="&#x144;" horiz-adv-x="1204" 
d="M1106 1547l-304 -361h-281l234 361h351zM829 1118q145 0 233.5 -82.5t88.5 -220.5q0 -45 -9 -96l-126 -719h-361l117 659q4 27 4 57q0 47 -27 73.5t-76 26.5q-75 0 -130.5 -59.5t-74.5 -163.5l-104 -593h-361l193 1090h352l-21 -117q112 145 302 145z" />
    <glyph glyph-name="uni0145" unicode="&#x145;" horiz-adv-x="1512" 
d="M1182 1475h380l-260 -1475h-416l-333 881l-155 -881h-380l261 1475h413l335 -882zM459 -294l40 220h297l-40 -226q-13 -75 -63.5 -123.5t-150.5 -91.5l-65 112q58 25 91.5 50t44.5 59h-154z" />
    <glyph glyph-name="uni0146" unicode="&#x146;" horiz-adv-x="1204" 
d="M829 1118q145 0 233.5 -82.5t88.5 -220.5q0 -45 -9 -96l-126 -719h-361l117 659q4 27 4 57q0 47 -27 73.5t-76 26.5q-75 0 -130.5 -59.5t-74.5 -163.5l-104 -593h-361l193 1090h352l-21 -117q112 145 302 145zM324 -294l40 220h296l-39 -226q-13 -75 -63.5 -123.5
t-150.5 -91.5l-65 112q58 25 91.5 50t44.5 59h-154z" />
    <glyph glyph-name="Ncaron" unicode="&#x147;" horiz-adv-x="1512" 
d="M1099 1561h-327l-168 341h274l77 -156l132 156h299zM1182 1475h380l-260 -1475h-416l-333 881l-155 -881h-380l261 1475h413l335 -882z" />
    <glyph glyph-name="ncaron" unicode="&#x148;" horiz-adv-x="1204" 
d="M882 1185h-327l-168 341h273l78 -155l132 155h299zM829 1118q145 0 233.5 -82.5t88.5 -220.5q0 -45 -9 -96l-126 -719h-361l117 659q4 27 4 57q0 47 -27 73.5t-76 26.5q-75 0 -130.5 -59.5t-74.5 -163.5l-104 -593h-361l193 1090h352l-21 -117q112 145 302 145z" />
    <glyph glyph-name="napostrophe" unicode="&#x149;" horiz-adv-x="1665" 
d="M640 1475l-69 -393q-23 -133 -79.5 -218t-193.5 -180l-115 151q159 97 192 258h-190l68 382h387zM1289 1118q145 0 233.5 -82.5t88.5 -220.5q0 -51 -8 -96l-126 -719h-361l116 659q5 25 5 57q0 47 -27 73.5t-76 26.5q-75 0 -130.5 -59.5t-74.5 -163.5l-105 -593h-360
l191 1090h353l-21 -117q112 145 302 145z" />
    <glyph glyph-name="Eng" unicode="&#x14a;" horiz-adv-x="1512" 
d="M1183 1475h379l-263 -1486q-30 -170 -157.5 -264.5t-326.5 -94.5q-157 0 -288 54l109 289q71 -27 142 -27q60 0 103.5 34.5t53.5 91.5l5 27l-384 801l-158 -900h-380l261 1475h413l352 -781z" />
    <glyph glyph-name="eng" unicode="&#x14b;" horiz-adv-x="1204" 
d="M829 1118q145 0 233.5 -82.5t88.5 -220.5q0 -45 -9 -96l-133 -754q-55 -313 -414 -313q-108 0 -215 35l87 273q36 -10 69 -10q111 0 133 125l103 584q4 27 4 57q0 47 -27 73.5t-76 26.5q-74 0 -131 -63.5t-75 -167.5l-103 -585h-361l193 1090h352l-21 -114
q114 142 302 142z" />
    <glyph glyph-name="Omacron" unicode="&#x14c;" horiz-adv-x="1587" 
d="M641 1615l38 215h614l-38 -215h-614zM758 -35q-303 0 -485.5 182.5t-182.5 488.5q0 243 100.5 441.5t286.5 315t421 116.5q303 0 485 -182t182 -488q0 -145 -37.5 -278t-109 -241t-169 -188t-224 -123.5t-267.5 -43.5zM775 310q92 0 169 44t127 117.5t77.5 166.5
t27.5 193q0 154 -80.5 243.5t-213.5 89.5q-93 0 -170 -44t-127 -117t-77.5 -166t-27.5 -194q0 -154 80.5 -243.5t214.5 -89.5z" />
    <glyph glyph-name="omacron" unicode="&#x14d;" horiz-adv-x="1233" 
d="M402 1246l39 215h615l-39 -215h-615zM566 -30q-233 0 -376 141t-143 369q0 284 171.5 462t449.5 178q233 0 376 -141t143 -369q0 -284 -171.5 -462t-449.5 -178zM584 275q74 0 129 48t81 119.5t26 154.5q0 101 -44.5 159t-125.5 58q-110 0 -173 -95.5t-63 -225.5
q0 -101 44.5 -159.5t125.5 -58.5z" />
    <glyph glyph-name="Obreve" unicode="&#x14e;" horiz-adv-x="1587" 
d="M947 1548q-156 0 -243 98t-94 255h229q2 -70 38 -107t90 -37q57 0 99.5 39t52.5 105h244q-36 -166 -148.5 -259.5t-267.5 -93.5zM758 -35q-303 0 -485.5 182.5t-182.5 488.5q0 243 100.5 441.5t286.5 315t421 116.5q303 0 485 -182t182 -488q0 -145 -37.5 -278t-109 -241
t-169 -188t-224 -123.5t-267.5 -43.5zM775 310q92 0 169 44t127 117.5t77.5 166.5t27.5 193q0 154 -80.5 243.5t-213.5 89.5q-93 0 -170 -44t-127 -117t-77.5 -166t-27.5 -194q0 -154 80.5 -243.5t214.5 -89.5z" />
    <glyph glyph-name="obreve" unicode="&#x14f;" horiz-adv-x="1233" 
d="M727 1175q-155 0 -242 97.5t-94 253.5h229q1 -69 37 -106t91 -37q56 0 98.5 39t52.5 104h245q-36 -165 -148.5 -258t-268.5 -93zM566 -30q-233 0 -376 141t-143 369q0 284 171.5 462t449.5 178q233 0 376 -141t143 -369q0 -284 -171.5 -462t-449.5 -178zM584 275
q74 0 129 48t81 119.5t26 154.5q0 101 -44.5 159t-125.5 58q-110 0 -173 -95.5t-63 -225.5q0 -101 44.5 -159.5t125.5 -58.5z" />
    <glyph glyph-name="Ohungarumlaut" unicode="&#x150;" horiz-adv-x="1587" 
d="M549 1569l233 360h353l-305 -360h-281zM981 1569l233 360h352l-304 -360h-281zM758 -35q-303 0 -485.5 182.5t-182.5 488.5q0 243 100.5 441.5t286.5 315t421 116.5q303 0 485 -182t182 -488q0 -145 -37.5 -278t-109 -241t-169 -188t-224 -123.5t-267.5 -43.5zM775 310
q92 0 169 44t127 117.5t77.5 166.5t27.5 193q0 154 -80.5 243.5t-213.5 89.5q-93 0 -170 -44t-127 -117t-77.5 -166t-27.5 -194q0 -154 80.5 -243.5t214.5 -89.5z" />
    <glyph glyph-name="ohungarumlaut" unicode="&#x151;" horiz-adv-x="1233" 
d="M306 1186l234 361h352l-305 -361h-281zM738 1186l234 361h351l-304 -361h-281zM566 -30q-233 0 -376 141t-143 369q0 284 171.5 462t449.5 178q233 0 376 -141t143 -369q0 -284 -171.5 -462t-449.5 -178zM584 275q74 0 129 48t81 119.5t26 154.5q0 101 -44.5 159
t-125.5 58q-110 0 -173 -95.5t-63 -225.5q0 -101 44.5 -159.5t125.5 -58.5z" />
    <glyph glyph-name="OE" unicode="&#x152;" horiz-adv-x="2102" 
d="M2136 1141h-673l-42 -239h605l-56 -318h-605l-44 -250h684l-58 -334h-1189q-309 0 -489 167t-180 469q0 242 101 433t285.5 298.5t421.5 107.5h1297zM478 643q0 -151 79.5 -230t215.5 -79h169l142 805h-196q-127 0 -221.5 -69.5t-141.5 -180.5t-47 -246z" />
    <glyph glyph-name="oe" unicode="&#x153;" horiz-adv-x="1864" 
d="M1140 438q12 -87 57 -136t121 -49q59 0 116.5 31t96.5 85l219 -204q-178 -195 -456 -195q-252 0 -368 190q-70 -100 -162.5 -145t-224.5 -45q-223 0 -357.5 139t-134.5 366q0 285 160 465t424 180q114 0 211.5 -44.5t161.5 -124.5q75 89 162.5 129t202.5 40
q201 0 326 -144.5t125 -379.5q0 -52 -19 -158h-661zM1153 647h320q-1 89 -36 139.5t-97 50.5q-66 0 -115 -50.5t-72 -139.5zM567 275q101 0 159.5 97.5t58.5 228.5q0 99 -40.5 156t-113.5 57q-101 0 -159 -97t-58 -228q0 -100 40 -157t113 -57z" />
    <glyph glyph-name="Racute" unicode="&#x154;" horiz-adv-x="1372" 
d="M1212 1917l-304 -361h-280l233 361h351zM1413 1056q0 -184 -93.5 -315t-259.5 -185l189 -556h-395l-154 523h-211l-92 -523h-379l261 1475h671q203 0 333 -116.5t130 -302.5zM598 1141l-52 -294h278q93 0 150 46t57 119q0 60 -39.5 94.5t-105.5 34.5h-288z" />
    <glyph glyph-name="racute" unicode="&#x155;" horiz-adv-x="872" 
d="M979 1547l-304 -361h-281l234 361h351zM515 946q45 81 124.5 125t172.5 44q66 0 146 -20l-90 -315q-66 17 -122 17q-114 0 -193.5 -90t-108.5 -247l-80 -460h-361l193 1090h345z" />
    <glyph glyph-name="uni0156" unicode="&#x156;" horiz-adv-x="1372" 
d="M1413 1056q0 -184 -93.5 -315t-259.5 -185l189 -556h-395l-154 523h-211l-92 -523h-379l261 1475h671q203 0 333 -116.5t130 -302.5zM598 1141l-52 -294h278q93 0 150 46t57 119q0 60 -39.5 94.5t-105.5 34.5h-288zM402 -294l40 220h297l-40 -226q-13 -75 -63.5 -123.5
t-150.5 -91.5l-64 112q58 25 91.5 50t44.5 59h-155z" />
    <glyph glyph-name="uni0157" unicode="&#x157;" horiz-adv-x="872" 
d="M812 1115q66 0 146 -20l-90 -315q-66 17 -122 17q-114 0 -193.5 -90t-108.5 -247l-80 -460h-361l193 1090h345l-26 -144q45 81 124.5 125t172.5 44zM-17 -294l40 220h296l-39 -226q-13 -75 -63.5 -123.5t-150.5 -91.5l-65 112q58 25 91.5 50t44.5 59h-154z" />
    <glyph glyph-name="Rcaron" unicode="&#x158;" horiz-adv-x="1372" 
d="M988 1548h-326l-168 341h273l78 -155l132 155h299zM1413 1056q0 -184 -93.5 -315t-259.5 -185l189 -556h-395l-154 523h-211l-92 -523h-379l261 1475h671q203 0 333 -116.5t130 -302.5zM598 1141l-52 -294h278q93 0 150 46t57 119q0 60 -39.5 94.5t-105.5 34.5h-288z" />
    <glyph glyph-name="rcaron" unicode="&#x159;" horiz-adv-x="872" 
d="M755 1185h-327l-168 341h274l77 -155l132 155h299zM515 946q45 81 124.5 125t172.5 44q66 0 146 -20l-90 -315q-66 17 -122 17q-114 0 -193.5 -90t-108.5 -247l-80 -460h-361l193 1090h345z" />
    <glyph glyph-name="Sacute" unicode="&#x15a;" horiz-adv-x="1396" 
d="M647 1569l234 360h351l-304 -360h-281zM648 -35q-195 0 -365.5 73.5t-272.5 197.5l248 239q64 -85 174.5 -130t248.5 -45q117 0 186 36.5t69 98.5q0 57 -61 90t-194 52q-260 37 -390 154t-130 300q0 224 169 351.5t465 127.5q185 0 348 -61t270 -171l-226 -246
q-70 69 -173 106t-221 37q-107 0 -173.5 -34.5t-66.5 -93.5q0 -53 51.5 -84.5t170.5 -48.5q283 -38 418 -148t135 -307q0 -231 -182 -362.5t-498 -131.5z" />
    <glyph glyph-name="sacute" unicode="&#x15b;" horiz-adv-x="1126" 
d="M455 1183l233 361h351l-304 -361h-280zM538 -37q-183 0 -322 49t-224 136l198 223q54 -57 142.5 -89t195.5 -32q151 0 151 74q0 32 -37 49.5t-143 32.5q-382 55 -382 335q0 123 69 211.5t184.5 130.5t264.5 42q273 0 454 -151l-188 -222q-54 43 -128.5 65.5t-149.5 22.5
q-69 0 -113 -18.5t-44 -53.5q0 -32 43 -50.5t156 -30.5q364 -42 364 -326q0 -189 -132.5 -293.5t-358.5 -104.5z" />
    <glyph glyph-name="Scircumflex" unicode="&#x15c;" horiz-adv-x="1396" 
d="M886 1715l-131 -154h-300l287 341h327l168 -341h-272zM775 914q283 -38 418 -148t135 -307q0 -231 -182 -362.5t-498 -131.5q-195 0 -365.5 73.5t-272.5 197.5l248 239q64 -85 174.5 -130t248.5 -45q117 0 186 36.5t69 98.5q0 57 -61 90t-194 52q-260 37 -390 154
t-130 300q0 224 169 351.5t465 127.5q185 0 348 -61t270 -171l-226 -246q-70 69 -173 106t-221 37q-107 0 -173.5 -34.5t-66.5 -93.5q0 -53 51.5 -84.5t170.5 -48.5z" />
    <glyph glyph-name="scircumflex" unicode="&#x15d;" horiz-adv-x="1126" 
d="M694 1337l-132 -155h-299l288 341h327l168 -341h-273zM665 687q364 -42 364 -326q0 -189 -132.5 -293.5t-358.5 -104.5q-183 0 -322 49t-224 136l198 223q54 -57 142.5 -89t195.5 -32q151 0 151 74q0 32 -37 49.5t-143 32.5q-382 55 -382 335q0 123 69 211.5t184.5 130.5
t264.5 42q273 0 454 -151l-188 -222q-54 43 -128.5 65.5t-149.5 22.5q-69 0 -113 -18.5t-44 -53.5q0 -32 43 -50.5t156 -30.5z" />
    <glyph glyph-name="Scedilla" unicode="&#x15e;" horiz-adv-x="1396" 
d="M775 914q283 -38 418 -148t135 -307t-134.5 -323.5t-374.5 -159.5l-154 -345h-295l152 342q-158 21 -292 90t-220 173l248 239q64 -85 174.5 -130t248.5 -45q117 0 186 36.5t69 98.5q0 57 -61 90t-194 52q-260 37 -390 154t-130 300q0 224 169 351.5t465 127.5
q185 0 348 -61t270 -171l-226 -246q-70 69 -173 106t-221 37q-107 0 -173.5 -34.5t-66.5 -93.5q0 -53 51.5 -84.5t170.5 -48.5z" />
    <glyph glyph-name="scedilla" unicode="&#x15f;" horiz-adv-x="1126" 
d="M665 687q364 -42 364 -326q0 -169 -107.5 -271t-295.5 -123l-151 -336h-295l156 350q-223 43 -344 167l198 223q54 -57 142.5 -89t195.5 -32q151 0 151 74q0 32 -37 49.5t-143 32.5q-382 55 -382 335q0 123 69 211.5t184.5 130.5t264.5 42q273 0 454 -151l-188 -222
q-54 43 -128.5 65.5t-149.5 22.5q-69 0 -113 -18.5t-44 -53.5q0 -32 43 -50.5t156 -30.5z" />
    <glyph glyph-name="Scaron" unicode="&#x160;" horiz-adv-x="1396" 
d="M1008 1561h-327l-168 341h273l78 -156l132 156h299zM775 914q283 -38 418 -148t135 -307q0 -231 -182 -362.5t-498 -131.5q-195 0 -365.5 73.5t-272.5 197.5l248 239q64 -85 174.5 -130t248.5 -45q117 0 186 36.5t69 98.5q0 57 -61 90t-194 52q-260 37 -390 154t-130 300
q0 224 169 351.5t465 127.5q185 0 348 -61t270 -171l-226 -246q-70 69 -173 106t-221 37q-107 0 -173.5 -34.5t-66.5 -93.5q0 -53 51.5 -84.5t170.5 -48.5z" />
    <glyph glyph-name="scaron" unicode="&#x161;" horiz-adv-x="1126" 
d="M816 1182h-327l-167 341h273l78 -155l132 155h299zM623 840q-69 0 -113 -18.5t-44 -53.5q0 -32 43 -50.5t156 -30.5q364 -42 364 -326q0 -189 -132.5 -293.5t-358.5 -104.5q-183 0 -322 49t-224 136l198 223q54 -57 142.5 -89t195.5 -32q151 0 151 74q0 32 -37 49.5
t-143 32.5q-382 55 -382 335q0 123 69 211.5t184.5 130.5t264.5 42q273 0 454 -151l-188 -222q-54 43 -128.5 65.5t-149.5 22.5z" />
    <glyph glyph-name="uni0162" unicode="&#x162;" horiz-adv-x="1295" 
d="M1433 1475l-59 -336h-433l-201 -1139h-42l-164 -369h-295l164 369h-42l201 1139h-431l58 336h1244z" />
    <glyph glyph-name="uni0163" unicode="&#x163;" horiz-adv-x="913" 
d="M607 799l-70 -401q-5 -27 -5 -43q0 -40 21.5 -60t70.5 -20q46 0 110 18l53 -280q-98 -36 -230 -42l-151 -340h-295l175 393q-126 74 -126 232q0 45 7 86l81 457h-171l52 291h169l55 311h361l-56 -311h261l-53 -291h-259z" />
    <glyph glyph-name="Tcaron" unicode="&#x164;" horiz-adv-x="1295" 
d="M990 1561h-326l-168 341h273l78 -156l132 156h299zM1433 1475l-59 -336h-433l-201 -1139h-379l201 1139h-431l58 336h1244z" />
    <glyph glyph-name="tcaron" unicode="&#x165;" horiz-adv-x="909" 
d="M836 1651h316l-153 -485h-249zM714 1401l-56 -311h261l-53 -291h-259l-70 -401q-5 -27 -5 -43q0 -41 21.5 -60.5t71.5 -19.5q45 0 109 18l53 -280q-115 -43 -272 -43q-170 0 -262.5 76t-92.5 210q0 35 7 86l81 457h-171l52 291h169l55 311h361z" />
    <glyph glyph-name="Tbar" unicode="&#x166;" horiz-adv-x="1295" 
d="M1374 1139h-433l-44 -250h272l-54 -306h-272l-103 -583h-379l103 583h-271l53 306h272l44 250h-431l58 336h1244z" />
    <glyph glyph-name="tbar" unicode="&#x167;" horiz-adv-x="930" 
d="M869 798h-259l-19 -109h185l-45 -258h-185l-6 -33q-5 -27 -5 -43q0 -41 21.5 -60.5t71.5 -19.5q40 0 109 18l54 -280q-116 -43 -273 -43q-170 0 -262.5 76t-92.5 210q0 45 7 86l15 89h-127l45 258h128l19 109h-170l51 292h171l54 310h361l-55 -310h260z" />
    <glyph glyph-name="Utilde" unicode="&#x168;" horiz-adv-x="1444" 
d="M639 1550l-163 196q101 95 170.5 127.5t137.5 32.5q40 0 76.5 -9t55 -18t46.5 -26q58 -32 92 -32q65 0 148 89l164 -195q-101 -95 -171 -127.5t-138 -32.5q-40 0 -76 9t-54 18t-46 25q-57 32 -94 32q-67 0 -148 -89zM667 -35q-264 0 -425 135.5t-161 358.5q0 66 12 138
l155 878h379l-156 -881q-7 -41 -7 -81q0 -94 59.5 -149t160.5 -55q126 0 204 72.5t103 212.5l156 881h379l-164 -928q-51 -287 -227 -434.5t-468 -147.5z" />
    <glyph glyph-name="utilde" unicode="&#x169;" horiz-adv-x="1203" 
d="M597 1281q-66 0 -148 -89l-163 196q101 95 170.5 127t137.5 32q92 0 177 -52q2 -1 11.5 -6t12 -6.5t10.5 -5.5t11.5 -5t10.5 -3.5t12 -3.5t12 -2t13 -1q64 0 149 89l163 -194q-101 -95 -171 -127.5t-139 -32.5q-89 0 -176 51q-59 33 -93 33zM840 1090h360l-192 -1090
h-352l21 119q-114 -147 -302 -147q-145 0 -233.5 82.5t-88.5 219.5q0 48 9 97l126 719h361l-117 -659q-4 -29 -4 -57q0 -47 27 -73.5t76 -26.5q74 0 130 62t75 164z" />
    <glyph glyph-name="Umacron" unicode="&#x16a;" horiz-adv-x="1444" 
d="M601 1615l38 215h614l-38 -215h-614zM667 -35q-264 0 -425 135.5t-161 358.5q0 66 12 138l155 878h379l-156 -881q-7 -41 -7 -81q0 -94 59.5 -149t160.5 -55q126 0 204 72.5t103 212.5l156 881h379l-164 -928q-51 -287 -227 -434.5t-468 -147.5z" />
    <glyph glyph-name="umacron" unicode="&#x16b;" horiz-adv-x="1203" 
d="M1066 1461l-39 -215h-614l39 215h614zM840 1090h360l-192 -1090h-352l21 119q-114 -147 -302 -147q-145 0 -233.5 82.5t-88.5 219.5q0 48 9 97l126 719h361l-117 -659q-4 -29 -4 -57q0 -47 27 -73.5t76 -26.5q74 0 130 62t75 164z" />
    <glyph glyph-name="Ubreve" unicode="&#x16c;" horiz-adv-x="1444" 
d="M906 1548q-156 0 -243 98t-94 255h229q2 -70 38 -107t90 -37q57 0 99.5 39t52.5 105h244q-36 -166 -148.5 -259.5t-267.5 -93.5zM667 -35q-264 0 -425 135.5t-161 358.5q0 66 12 138l155 878h379l-156 -881q-7 -41 -7 -81q0 -94 59.5 -149t160.5 -55q126 0 204 72.5
t103 212.5l156 881h379l-164 -928q-51 -287 -227 -434.5t-468 -147.5z" />
    <glyph glyph-name="ubreve" unicode="&#x16d;" horiz-adv-x="1203" 
d="M738 1175q-155 0 -242 97.5t-94 253.5h229q1 -69 37 -106t91 -37q56 0 98.5 39t52.5 104h245q-36 -165 -148.5 -258t-268.5 -93zM840 1090h360l-192 -1090h-352l21 119q-114 -147 -302 -147q-145 0 -233.5 82.5t-88.5 219.5q0 48 9 97l126 719h361l-117 -659
q-4 -29 -4 -57q0 -47 27 -73.5t76 -26.5q74 0 130 62t75 164z" />
    <glyph glyph-name="Uring" unicode="&#x16e;" horiz-adv-x="1444" 
d="M906 1553q-110 0 -179 68.5t-69 175.5q0 120 85.5 200t204.5 80q110 0 179 -69.5t69 -175.5q0 -117 -85 -198t-205 -81zM915 1729q39 0 66 26.5t27 68.5q0 34 -18.5 56t-50.5 22q-41 0 -67 -30.5t-26 -70.5q0 -33 19 -52.5t50 -19.5zM667 -35q-264 0 -425 135.5
t-161 358.5q0 66 12 138l155 878h379l-156 -881q-7 -41 -7 -81q0 -94 59.5 -149t160.5 -55q126 0 204 72.5t103 212.5l156 881h379l-164 -928q-51 -287 -227 -434.5t-468 -147.5z" />
    <glyph glyph-name="uring" unicode="&#x16f;" horiz-adv-x="1203" 
d="M716 1175q-110 0 -179 68.5t-69 174.5q0 120 85.5 200t204.5 80q110 0 178.5 -69.5t68.5 -175.5q0 -117 -85 -197.5t-204 -80.5zM748 1523q-41 0 -67 -30.5t-26 -70.5q0 -33 19.5 -52.5t49.5 -19.5q39 0 66 26.5t27 68.5q0 34 -18.5 56t-50.5 22zM840 1090h360
l-192 -1090h-352l21 119q-114 -147 -302 -147q-145 0 -233.5 82.5t-88.5 219.5q0 48 9 97l126 719h361l-117 -659q-4 -29 -4 -57q0 -47 27 -73.5t76 -26.5q74 0 130 62t75 164z" />
    <glyph glyph-name="Uhungarumlaut" unicode="&#x170;" horiz-adv-x="1444" 
d="M508 1569l233 360h353l-304 -360h-282zM940 1569l234 360h351l-304 -360h-281zM667 -35q-264 0 -425 135.5t-161 358.5q0 66 12 138l155 878h379l-156 -881q-7 -41 -7 -81q0 -94 59.5 -149t160.5 -55q126 0 204 72.5t103 212.5l156 881h379l-164 -928
q-51 -287 -227 -434.5t-468 -147.5z" />
    <glyph glyph-name="uhungarumlaut" unicode="&#x171;" horiz-adv-x="1203" 
d="M903 1547l-305 -361h-281l234 361h352zM1030 1186h-280l233 361h351zM736 500l104 590h360l-192 -1090h-352l21 119q-114 -147 -302 -147q-145 0 -233.5 82.5t-88.5 219.5q0 48 9 97l126 719h361l-117 -659q-4 -29 -4 -57q0 -47 27 -73.5t76 -26.5q74 0 130 62t75 164z
" />
    <glyph glyph-name="Uogonek" unicode="&#x172;" horiz-adv-x="1444" 
d="M1147 1475h379l-164 -928q-66 -370 -342 -509q-87 -44 -136 -91t-49 -91q0 -56 75 -56q50 0 100 25l69 -205q-93 -49 -212 -49q-129 0 -205.5 59.5t-76.5 158.5t92 176h-9q-264 0 -425.5 135.5t-161.5 358.5q0 66 12 138l155 878h379l-156 -881q-7 -41 -7 -81
q0 -93 60 -148.5t161 -55.5q125 0 203 72.5t103 212.5z" />
    <glyph glyph-name="uogonek" unicode="&#x173;" horiz-adv-x="1203" 
d="M858 0q-125 -72 -125 -144q0 -56 77 -56q48 0 99 25l69 -205q-93 -49 -211 -49q-129 0 -206.5 59.5t-77.5 158.5q0 136 176 230l18 100q-114 -147 -302 -147q-145 0 -233.5 82.5t-88.5 219.5q0 48 9 97l126 719h361l-117 -659q-4 -29 -4 -57q0 -47 27 -73.5t76 -26.5
q74 0 130 62t75 164l104 590h360l-192 -1090h-150z" />
    <glyph glyph-name="Wcircumflex" unicode="&#x174;" horiz-adv-x="2207" 
d="M1323 1715l-131 -154h-300l288 341h326l168 -341h-272zM1927 1475h417l-681 -1475h-394l-95 910l-395 -910h-400l-186 1475h398l79 -938l392 938h396l78 -936z" />
    <glyph glyph-name="wcircumflex" unicode="&#x175;" horiz-adv-x="1779" 
d="M1056 1340l-132 -155h-299l287 341h327l168 -341h-272zM1468 1090h387l-484 -1090h-353l-95 695l-320 -695h-358l-128 1090h367l41 -623l278 623h347l73 -626z" />
    <glyph glyph-name="Ycircumflex" unicode="&#x176;" horiz-adv-x="1358" 
d="M891 1715l-131 -154h-300l288 341h326l168 -341h-272zM1093 1475h419l-635 -892l-103 -583h-379l103 583l-323 892h380l173 -554z" />
    <glyph glyph-name="ycircumflex" unicode="&#x177;" horiz-adv-x="1199" 
d="M751 1340l-133 -155h-299l288 341h327l168 -341h-273zM888 1090h397l-646 -1194q-80 -149 -183.5 -216.5t-261.5 -67.5q-123 0 -230 40l103 268q59 -17 106 -17q92 0 140 80l43 72l-250 1035h373l112 -635z" />
    <glyph glyph-name="Ydieresis" unicode="&#x178;" horiz-adv-x="1358" 
d="M841 1853l-49 -275h-315l49 275h315zM1273 1853l-49 -275h-315l49 275h315zM1093 1475h419l-635 -892l-103 -583h-379l103 583l-323 892h380l173 -554z" />
    <glyph glyph-name="Zacute" unicode="&#x179;" horiz-adv-x="1310" 
d="M631 1569l233 360h351l-304 -360h-280zM-16 0l55 310l786 831h-634l59 334h1119l-55 -311l-790 -830h669l-58 -334h-1151z" />
    <glyph glyph-name="zacute" unicode="&#x17a;" horiz-adv-x="1068" 
d="M441 1186l234 361h351l-304 -361h-281zM-5 0l47 268l519 531h-429l50 291h861l-47 -269l-514 -529h457l-51 -292h-893z" />
    <glyph glyph-name="Zdotaccent" unicode="&#x17b;" horiz-adv-x="1310" 
d="M645 1577l49 276h371l-49 -276h-371zM-16 0l55 310l786 831h-634l59 334h1119l-55 -311l-790 -830h669l-58 -334h-1151z" />
    <glyph glyph-name="zdotaccent" unicode="&#x17c;" horiz-adv-x="1068" 
d="M454 1198l49 277h369l-50 -277h-368zM-5 0l47 268l519 531h-429l50 291h861l-47 -269l-514 -529h457l-51 -292h-893z" />
    <glyph glyph-name="Zcaron" unicode="&#x17d;" horiz-adv-x="1310" 
d="M991 1561h-326l-168 341h273l78 -156l132 156h299zM1369 1475l-55 -311l-790 -830h669l-58 -334h-1151l55 310l786 831h-634l59 334h1119z" />
    <glyph glyph-name="zcaron" unicode="&#x17e;" horiz-adv-x="1068" 
d="M803 1185h-327l-168 341h274l77 -155l133 155h299zM132 799l50 291h861l-47 -269l-514 -529h457l-51 -292h-893l47 268l519 531h-429z" />
    <glyph glyph-name="longs" unicode="&#x17f;" horiz-adv-x="820" 
d="M736 1504q121 0 235 -38l-85 -257q-58 17 -109 17q-64 0 -95 -28.5t-43 -96.5l-195 -1101h-360l141 798h-148l52 292h147l13 69q29 164 147 254.5t300 90.5z" />
    <glyph glyph-name="uni018F" unicode="&#x18f;" horiz-adv-x="1537" 
d="M847 1509q303 0 485 -182t182 -488q0 -183 -55 -342.5t-154 -277.5t-247 -186t-324 -68q-294 0 -470.5 185.5t-176.5 491.5q0 96 29 217h1011q-7 141 -88.5 223t-208.5 82q-104 0 -189.5 -47t-147.5 -129l-270 230q103 139 264 215t360 76zM742 310q130 0 219 78t132 208
h-622q18 -286 271 -286z" />
    <glyph glyph-name="florin" unicode="&#x192;" horiz-adv-x="962" 
d="M922 1171q-64 0 -105 -36.5t-55 -106.5l-27 -128h213l-44 -252h-221l-69 -333q-36 -172 -148.5 -258.5t-285.5 -86.5q-150 0 -264 39l87 261q51 -13 105 -13q123 0 150 135l53 256h-202l44 252h211l40 195q74 363 440 363q153 0 262 -39l-86 -261q-57 13 -98 13z" />
    <glyph glyph-name="uni01F4" unicode="&#x1f4;" horiz-adv-x="1512" 
d="M1299 1929l-304 -360h-280l233 360h351zM819 551l51 294h608l-150 -845h-310l21 124q-125 -153 -342 -153q-270 0 -438.5 182.5t-168.5 482.5q0 182 59 342.5t164 277.5t257 185t329 68q200 0 350.5 -91t229.5 -255l-316 -175q-56 95 -120 135.5t-161 40.5
q-93 0 -170 -44t-127 -117t-77.5 -166t-27.5 -194q0 -153 83.5 -243.5t218.5 -90.5q113 0 203.5 62t117.5 164l2 16h-286z" />
    <glyph glyph-name="uni01F5" unicode="&#x1f5;" horiz-adv-x="1249" 
d="M1113 1547l-304 -361h-281l234 361h351zM886 1090h360l-180 -1021q-38 -218 -197 -337.5t-411 -119.5q-290 0 -461 164l184 241q116 -108 279 -108q217 0 251 192l8 47q-83 -110 -247 -110q-184 0 -303 126.5t-119 331.5q0 279 145 451t378 172q95 0 172 -37t121 -100z
M582 339q100 0 164.5 82t64.5 199q0 92 -44 145t-119 53q-99 0 -165.5 -83t-66.5 -198q0 -92 45 -145t121 -53z" />
    <glyph glyph-name="Aringacute" unicode="&#x1fa;" horiz-adv-x="1530" 
d="M1342 2263l-304 -361h-280l233 361h351zM1021 0l-43 248h-516l-121 -248h-419l759 1452q-28 58 -28 120q0 119 85.5 199t204.5 80q110 0 179 -69t69 -175q0 -97 -65 -175l291 -1432h-396zM933 1676q-40 0 -66 -30t-26 -70q0 -33 19 -53t49 -20q39 0 66 26.5t27 68.5
q0 34 -18.5 56t-50.5 22zM612 558h312l-83 470z" />
    <glyph glyph-name="aringacute" unicode="&#x1fb;" horiz-adv-x="1140" 
d="M1137 2103l-304 -361h-281l233 361h352zM683 1175q-110 0 -179 68.5t-69 174.5q0 120 85.5 200t204.5 80q110 0 178.5 -69.5t68.5 -175.5q0 -117 -85 -197.5t-204 -80.5zM715 1523q-41 0 -66.5 -30.5t-25.5 -70.5q0 -33 19 -52.5t49 -19.5q39 0 66 26.5t27 68.5
q0 34 -18.5 56t-50.5 22zM600 1115q217 0 347 -98.5t130 -261.5q0 -45 -10 -102l-115 -653h-344l19 101q-91 -131 -281 -131q-149 0 -241.5 90t-92.5 236q0 171 134 267t373 96h189l1 9q4 27 4 42q0 52 -43 81t-116 29q-127 0 -225 -85l-178 222q171 158 449 158zM458 217
q73 0 130.5 47.5t70.5 118.5l11 59h-120q-93 0 -145.5 -35t-52.5 -95q0 -44 28 -69.5t78 -25.5z" />
    <glyph glyph-name="AEacute" unicode="&#x1fc;" horiz-adv-x="2216" 
d="M2076 1929l-304 -360h-281l233 360h352zM2275 1139h-672l-41 -237h604l-57 -318h-604l-44 -248h683l-58 -336h-1064l44 248h-509l-185 -248h-463l1145 1475h1280zM1122 567l102 572l-427 -572h325z" />
    <glyph glyph-name="aeacute" unicode="&#x1fd;" horiz-adv-x="1740" 
d="M1362 1544l-304 -361h-281l234 361h351zM1244 1120q202 0 327 -144.5t125 -379.5q0 -48 -19 -158h-661q9 -83 54.5 -134t122.5 -51q58 0 114 30.5t93 84.5l221 -203q-177 -195 -451 -195q-251 0 -367 190q-65 -90 -173.5 -140t-243.5 -50q-171 0 -273 88.5t-102 230.5
q0 171 128 264.5t349 93.5h178l3 21q4 25 4 43q0 109 -148 109q-130 0 -215 -82l-171 225q159 152 434 152q227 0 330 -137q134 142 341 142zM1029 647h321q-3 97 -40 143.5t-96 46.5q-69 0 -117 -54t-68 -136zM620 384l9 54h-114q-76 0 -126 -34.5t-50 -96.5
q0 -41 25 -65.5t69 -24.5q73 0 124 47t63 120z" />
    <glyph glyph-name="Oslashacute" unicode="&#x1fe;" horiz-adv-x="1587" 
d="M1330 1929l-304 -360h-282l235 360h351zM1627 1420l-167 -188q106 -164 106 -393q0 -181 -59.5 -342t-164 -278t-256.5 -185t-328 -68q-205 0 -363 89l-177 -199l-208 184l185 207q-105 162 -105 389q0 182 59 342.5t164 277.5t257 185t329 68q202 0 357 -86l162 182z
M882 1165q-93 0 -170 -44t-127 -117.5t-77.5 -166.5t-27.5 -193q0 -58 15 -116l536 599q-64 38 -149 38zM775 310q122 0 215 75.5t139.5 192.5t46.5 252q0 62 -16 120l-537 -601q65 -39 152 -39z" />
    <glyph glyph-name="oslashacute" unicode="&#x1ff;" horiz-adv-x="1248" 
d="M1100 1547l-304 -361h-281l234 361h351zM1237 1067l-137 -154q88 -129 88 -303q0 -284 -171.5 -462t-449.5 -178q-140 0 -255 56l-138 -158l-167 145l135 154q-95 131 -95 313q0 284 171.5 462t449.5 178q148 0 265 -60l135 152zM650 814q-110 0 -173 -95.5t-63 -225.5
q0 -30 5 -60l313 362q-38 19 -82 19zM584 275q110 0 173.5 96.5t63.5 226.5q0 25 -3 46l-305 -354q33 -15 71 -15z" />
    <glyph glyph-name="uni0218" unicode="&#x218;" horiz-adv-x="1396" 
d="M775 914q283 -38 418 -148t135 -307q0 -231 -182 -362.5t-498 -131.5q-195 0 -365.5 73.5t-272.5 197.5l248 239q64 -85 174.5 -130t248.5 -45q117 0 186 36.5t69 98.5q0 57 -61 90t-194 52q-260 37 -390 154t-130 300q0 224 169 351.5t465 127.5q185 0 348 -61t270 -171
l-226 -246q-70 69 -173 106t-221 37q-107 0 -173.5 -34.5t-66.5 -93.5q0 -53 51.5 -84.5t170.5 -48.5zM482 -294l40 220h297l-40 -226q-13 -75 -63.5 -123.5t-150.5 -91.5l-64 112q58 25 91.5 50t44.5 59h-155z" />
    <glyph glyph-name="uni0219" unicode="&#x219;" horiz-adv-x="1126" 
d="M665 687q364 -42 364 -326q0 -189 -132.5 -293.5t-358.5 -104.5q-183 0 -322 49t-224 136l198 223q54 -57 142.5 -89t195.5 -32q151 0 151 74q0 32 -37 49.5t-143 32.5q-382 55 -382 335q0 123 69 211.5t184.5 130.5t264.5 42q273 0 454 -151l-188 -222
q-54 43 -128.5 65.5t-149.5 22.5q-69 0 -113 -18.5t-44 -53.5q0 -32 43 -50.5t156 -30.5zM283 -294l40 220h297l-40 -226q-13 -75 -63.5 -123.5t-150.5 -91.5l-65 112q58 25 91.5 50t44.5 59h-154z" />
    <glyph glyph-name="uni021A" unicode="&#x21a;" horiz-adv-x="1295" 
d="M1433 1475l-59 -336h-433l-201 -1139h-379l201 1139h-431l58 336h1244zM350 -294l40 220h297l-40 -226q-13 -75 -63.5 -123.5t-150.5 -91.5l-64 112q58 25 91.5 50t44.5 59h-155z" />
    <glyph glyph-name="uni021B" unicode="&#x21b;" horiz-adv-x="919" 
d="M607 799l-70 -401q-5 -27 -5 -43q0 -40 21.5 -60t70.5 -20q46 0 110 18l53 -280q-116 -43 -272 -43q-170 0 -262.5 76.5t-92.5 209.5q0 45 7 86l81 457h-171l52 291h169l55 311h361l-56 -311h261l-53 -291h-259zM213 -294l40 220h297l-40 -226q-13 -75 -63.5 -123.5
t-150.5 -91.5l-65 112q59 25 92.5 50t44.5 59h-155z" />
    <glyph glyph-name="uni0237" unicode="&#x237;" horiz-adv-x="557" 
d="M-65 -384q-132 0 -240 44l93 272q54 -18 88 -18q111 0 133 124l186 1052h360l-205 -1162q-55 -312 -415 -312z" />
    <glyph glyph-name="uni0259" unicode="&#x259;" horiz-adv-x="1171" 
d="M604 1120q233 0 376.5 -141t143.5 -369q0 -187 -75.5 -332.5t-214 -226.5t-318.5 -81q-210 0 -340.5 146t-130.5 384q0 60 18 151h698q-13 88 -62.5 137.5t-132.5 49.5q-126 0 -215 -117l-224 205q179 194 477 194zM541 253q70 0 123 49.5t80 133.5h-351q3 -87 41.5 -135
t106.5 -48z" />
    <glyph glyph-name="h.sups" unicode="&#x2b0;" horiz-adv-x="806" 
d="M667 1493q95 0 152 -54.5t57 -145.5q0 -25 -7 -65l-82 -466h-270l74 421q4 24 4 35q0 49 -51 49q-39 0 -67 -30.5t-38 -88.5l-67 -386h-272l169 958h272l-55 -306q69 79 181 79z" />
    <glyph glyph-name="j.sups" unicode="&#x2b2;" horiz-adv-x="447" 
d="M285 1525l34 195h276l-36 -195h-274zM122 511q-86 0 -174 30l67 203q37 -12 65 -12q68 0 81 78l118 665h270l-131 -749q-38 -215 -296 -215z" />
    <glyph glyph-name="r.sups" unicode="&#x2b3;" horiz-adv-x="596" 
d="M656 1491q49 0 100 -14l-64 -234q-38 11 -77 11q-76 0 -125 -53t-66 -149l-52 -290h-272l126 713h264l-14 -81q57 97 180 97z" />
    <glyph glyph-name="w.sups" unicode="&#x2b7;" horiz-adv-x="1190" 
d="M1052 1475h289l-312 -713h-262l-54 420l-190 -420h-267l-78 713h275l17 -354l154 354h258l37 -359z" />
    <glyph glyph-name="y.sups" unicode="&#x2b8;" horiz-adv-x="821" 
d="M677 1475h298l-411 -763q-57 -106 -132 -154.5t-191 -48.5q-86 0 -164 29l76 199q39 -12 71 -12q63 0 94 48l18 29l-162 673h281l58 -366z" />
    <glyph glyph-name="circumflex" unicode="&#x2c6;" horiz-adv-x="614" 
d="M664 1185h-273l-79 155l-132 -155h-299l288 341h327z" />
    <glyph glyph-name="caron" unicode="&#x2c7;" horiz-adv-x="614" 
d="M432 1526h299l-288 -341h-326l-168 341h273l78 -155z" />
    <glyph glyph-name="uni02C9" unicode="&#x2c9;" horiz-adv-x="656" 
d="M145 1246l38 215h615l-38 -215h-615z" />
    <glyph glyph-name="breve" unicode="&#x2d8;" horiz-adv-x="780" 
d="M383 1175q-155 0 -242 97.5t-94 253.5h228q1 -69 37 -106t91 -37q57 0 99.5 39t52.5 104h245q-36 -165 -148.5 -258t-268.5 -93z" />
    <glyph glyph-name="dotaccent" unicode="&#x2d9;" horiz-adv-x="614" 
d="M79 1198l49 277h370l-51 -277h-368z" />
    <glyph glyph-name="ring" unicode="&#x2da;" horiz-adv-x="614" 
d="M279 1175q-110 0 -179 68.5t-69 174.5q0 120 85.5 200t204.5 80q110 0 178 -69.5t68 -175.5q0 -117 -84.5 -197.5t-203.5 -80.5zM287 1350q39 0 66 26.5t27 68.5q0 34 -19 56t-51 22q-41 0 -66.5 -30.5t-25.5 -70.5q0 -33 19.5 -52.5t49.5 -19.5z" />
    <glyph glyph-name="ogonek" unicode="&#x2db;" horiz-adv-x="614" 
d="M281 -429q-129 0 -206.5 59.5t-77.5 158.5q0 175 285 278l144 -39q-82 -38 -130.5 -83t-48.5 -89q0 -56 77 -56q48 0 99 25l69 -205q-93 -49 -211 -49z" />
    <glyph glyph-name="tilde" unicode="&#x2dc;" horiz-adv-x="924" 
d="M174 1192l-163 196q101 95 170.5 127t137.5 32q93 0 178 -52q2 -1 11.5 -6t12 -6.5t10.5 -5.5t11.5 -5t10.5 -3.5t12 -3.5t12 -2t13 -1q63 0 148 89l163 -194q-101 -95 -171 -127.5t-138 -32.5q-89 0 -176 51q-59 33 -93 33q-67 0 -149 -89z" />
    <glyph glyph-name="hungarumlaut" unicode="&#x2dd;" horiz-adv-x="942" 
d="M-25 1186l234 361h352l-305 -361h-281zM408 1186l233 361h351l-304 -361h-280z" />
    <glyph glyph-name="l.sups" unicode="&#x2e1;" horiz-adv-x="396" 
d="M100 762l169 958h272l-169 -958h-272z" />
    <glyph glyph-name="s.sups" unicode="&#x2e2;" horiz-adv-x="718" 
d="M447 736q-248 0 -372 112l138 168q35 -34 95 -54.5t130 -20.5q78 0 78 32q0 16 -23.5 25t-82.5 15q-126 13 -190 71t-64 155q0 126 99.5 193t258.5 67q177 0 306 -91l-133 -169q-78 55 -189 55q-82 0 -82 -32q0 -31 110 -41q129 -13 190.5 -66.5t61.5 -149.5
q0 -129 -89 -199t-242 -70z" />
    <glyph glyph-name="x.sups" unicode="&#x2e3;" horiz-adv-x="783" 
d="M898 1475l-260 -348l163 -365h-269l-63 160l-103 -160h-300l273 376l-154 337h268l55 -159l97 159h293z" />
    <glyph glyph-name="gravecomb" unicode="&#x300;" horiz-adv-x="0" 
d="M-457 1186l-305 361h345l235 -361h-275z" />
    <glyph glyph-name="acutecomb" unicode="&#x301;" horiz-adv-x="0" 
d="M-765 1186l234 361h351l-304 -361h-281z" />
    <glyph glyph-name="uni0302" unicode="&#x302;" horiz-adv-x="0" 
d="M-114 1185h-272l-79 155l-132 -155h-299l288 341h326z" />
    <glyph glyph-name="tildecomb" unicode="&#x303;" horiz-adv-x="0" 
d="M-753 1192l-163 196q101 95 170.5 127t137.5 32q92 0 177 -52q2 -1 11.5 -6t12 -6.5t10.5 -5.5t11.5 -5t10.5 -3.5t12 -3.5t12 -2t13 -1q64 0 149 89l162 -194q-101 -95 -171 -127.5t-138 -32.5q-89 0 -176 51q-59 33 -93 33q-67 0 -148 -89z" />
    <glyph glyph-name="uni0304" unicode="&#x304;" horiz-adv-x="0" 
d="M-801 1246l38 215h615l-38 -215h-615z" />
    <glyph glyph-name="uni0306" unicode="&#x306;" horiz-adv-x="0" 
d="M-484 1175q-155 0 -242 97.5t-94 253.5h228q1 -69 37 -106t91 -37q56 0 99 39t53 104h244q-36 -165 -148 -258t-268 -93z" />
    <glyph glyph-name="uni0307" unicode="&#x307;" horiz-adv-x="0" 
d="M-687 1198l50 277h369l-49 -277h-370z" />
    <glyph glyph-name="uni0308" unicode="&#x308;" horiz-adv-x="0" 
d="M-871 1200l49 275h314l-49 -275h-314zM-446 1200l49 275h313l-49 -275h-313z" />
    <glyph glyph-name="uni030A" unicode="&#x30a;" horiz-adv-x="0" 
d="M-480 1175q-110 0 -179 68.5t-69 174.5q0 120 85.5 200t204.5 80q110 0 178.5 -69.5t68.5 -175.5q0 -117 -85 -197.5t-204 -80.5zM-472 1350q39 0 66 26.5t27 68.5q0 34 -19 56t-51 22q-40 0 -66 -30.5t-26 -70.5q0 -33 19.5 -52.5t49.5 -19.5z" />
    <glyph glyph-name="uni030B" unicode="&#x30b;" horiz-adv-x="0" 
d="M-981 1186l233 361h353l-304 -361h-282zM-549 1186l234 361h352l-304 -361h-282z" />
    <glyph glyph-name="uni030C" unicode="&#x30c;" horiz-adv-x="0" 
d="M-353 1526h300l-288 -341h-327l-168 341h273l79 -155z" />
    <glyph glyph-name="uni0312" unicode="&#x312;" horiz-adv-x="0" 
d="M-468 1420h155l-40 -220h-297l40 226q13 75 63.5 123.5t150.5 91.5l64 -111q-58 -25 -91.5 -50.5t-44.5 -59.5z" />
    <glyph glyph-name="uni0313" unicode="&#x313;" horiz-adv-x="0" 
d="M-274 1475h388l-70 -393q-23 -133 -79.5 -218t-193.5 -180l-114 151q157 95 190 258h-189z" />
    <glyph glyph-name="dotbelowcomb" unicode="&#x323;" horiz-adv-x="0" 
d="M-959 -348l49 276h369l-49 -276h-369z" />
    <glyph glyph-name="uni0324" unicode="&#x324;" horiz-adv-x="0" 
d="M-1145 -347l49 274h315l-49 -274h-315zM-720 -347l49 274h314l-50 -274h-313z" />
    <glyph glyph-name="uni0325" unicode="&#x325;" horiz-adv-x="0" 
d="M-793 -597q-110 0 -178.5 69t-68.5 175q0 120 85 199.5t204 79.5q110 0 178.5 -68.5t68.5 -175.5q0 -117 -85 -198t-204 -81zM-784 -422q39 0 66 27t27 69q0 34 -19 55.5t-51 21.5q-40 0 -66 -30t-26 -69q0 -33 19.5 -53.5t49.5 -20.5z" />
    <glyph glyph-name="uni0326" unicode="&#x326;" horiz-adv-x="0" 
d="M-495 -74h297l-40 -226q-13 -75 -63.5 -123.5t-150.5 -91.5l-64 112q58 25 91.5 50t44.5 59h-155z" />
    <glyph glyph-name="uni0327" unicode="&#x327;" horiz-adv-x="0" 
d="M-1237 -369l173 385h295l-172 -385h-296z" />
    <glyph glyph-name="uni0328" unicode="&#x328;" horiz-adv-x="0" 
d="M-728 -429q-129 0 -206 59.5t-77 158.5q0 175 285 278l143 -39q-82 -38 -130 -83t-48 -89q0 -56 76 -56q49 0 99 25l70 -205q-93 -49 -212 -49z" />
    <glyph glyph-name="uni032E" unicode="&#x32e;" horiz-adv-x="0" 
d="M-766 -425q-156 0 -243 97.5t-94 254.5h229q2 -70 38 -106.5t90 -36.5q57 0 99.5 39t52.5 104h244q-35 -166 -148 -259t-268 -93z" />
    <glyph glyph-name="uni0331" unicode="&#x331;" horiz-adv-x="0" 
d="M-1071 -288l38 215h614l-38 -215h-614z" />
    <glyph glyph-name="uni0394" unicode="&#x394;" horiz-adv-x="1462" 
d="M1115 1475l233 -1172l-54 -303h-1318l54 303l654 1172h431zM460 340h501l-126 704z" />
    <glyph glyph-name="uni03A9" unicode="&#x3a9;" horiz-adv-x="1611" 
d="M-58 0l59 340h249q-72 70 -113 168.5t-41 213.5q0 167 60.5 313t165.5 250t253.5 164t318.5 60q297 0 483.5 -175t186.5 -455q0 -171 -65.5 -310t-185.5 -229h226l-60 -340h-667l56 316q137 72 218.5 212t81.5 308q0 148 -79 236.5t-210 88.5q-174 0 -288 -137t-114 -350
q0 -124 46 -217t130 -134l-57 -323h-654z" />
    <glyph glyph-name="uni03BC" unicode="&#x3bc;" horiz-adv-x="1210" 
d="M847 1090h360l-192 -1090h-352l20 115q-113 -143 -301 -143q-16 0 -24 1l-65 -372h-361l264 1489h360l-117 -659q-5 -37 -5 -57q0 -46 28 -73t76 -27q74 0 129.5 60.5t74.5 163.5z" />
    <glyph glyph-name="pi" unicode="&#x3c0;" horiz-adv-x="1408" 
d="M1208 799l-80 -456q-4 -16 -4 -30q0 -37 45 -37q44 0 78 16l34 -281q-103 -30 -220 -30q-143 0 -226 58t-83 180q0 39 7 77l88 503h-209l-140 -799h-361l141 799h-201l51 291h1337l-51 -291h-206z" />
    <glyph glyph-name="uni0E3F" unicode="&#xe3f;" horiz-adv-x="1396" 
d="M1138 716q83 -36 126.5 -104t43.5 -157q0 -203 -146.5 -329t-379.5 -126h-6l-33 -186h-314l33 186h-419l251 1423h418l32 187h316l-34 -192q162 -20 259.5 -110t97.5 -222q0 -127 -65 -222.5t-180 -147.5zM844 853q69 0 114.5 41t45.5 103q0 45 -29 73t-79 28h-288
l-43 -245h279zM759 325q74 0 121.5 43t47.5 109q0 102 -111 102h-300l-45 -254h287z" />
    <glyph glyph-name="a.sups" unicode="&#x1d43;" horiz-adv-x="758" 
d="M496 1490q149 0 240 -65.5t91 -172.5q0 -35 -6 -68l-75 -422h-256l12 65q-55 -86 -172 -86q-99 0 -160.5 60t-61.5 155q0 110 85 173.5t233 63.5h124q3 15 3 24q0 26 -24 40.5t-64 14.5q-73 0 -135 -47l-127 168q118 97 293 97zM416 921q36 0 66 25.5t36 61.5l6 31h-77
q-37 0 -62 -19t-25 -49q0 -23 15 -36.5t41 -13.5z" />
    <glyph glyph-name="b.sups" unicode="&#x1d47;" horiz-adv-x="838" 
d="M643 1494q119 0 191.5 -84t72.5 -235q0 -190 -97.5 -312t-244.5 -122q-60 0 -109.5 24.5t-77.5 65.5l-13 -69h-265l169 958h272l-51 -287q59 61 153 61zM505 969q60 0 93.5 56.5t33.5 129.5q0 53 -23.5 83t-65.5 30q-60 0 -92 -57t-32 -130q0 -53 22.5 -82.5t63.5 -29.5z
" />
    <glyph glyph-name="d.sups" unicode="&#x1d48;" horiz-adv-x="837" 
d="M711 1720h271l-169 -958h-252l12 64q-66 -85 -177 -85q-119 0 -191.5 85t-72.5 236q0 190 97.5 311t244.5 121q58 0 106 -22t76 -60zM497 969q60 0 92 56t32 130q0 113 -86 113q-60 0 -93.5 -57t-33.5 -131q0 -111 89 -111z" />
    <glyph glyph-name="e.sups" unicode="&#x1d49;" horiz-adv-x="782" 
d="M855 1140q0 -31 -14 -101h-432q21 -94 110 -94q74 0 128 60l157 -149q-115 -115 -310 -115q-163 0 -261.5 93t-98.5 244q0 187 110.5 301.5t290.5 114.5q142 0 231 -97.5t89 -256.5zM521 1293q-82 0 -108 -104h183q-1 104 -75 104z" />
    <glyph glyph-name="g.sups" unicode="&#x1d4d;" horiz-adv-x="838" 
d="M669 1475h270l-118 -673q-25 -138 -133.5 -215.5t-277.5 -77.5q-190 0 -307 97l129 185q88 -68 179 -68q62 0 97.5 28.5t44.5 77.5l2 13q-60 -50 -153 -50q-117 0 -190.5 85.5t-73.5 227.5q0 171 95 280t247 109q57 0 103 -21.5t74 -58.5zM505 1015q53 0 84.5 44.5
t31.5 103.5q0 50 -26.5 79t-66.5 29q-52 0 -84 -45t-32 -104q0 -50 26.5 -78.5t66.5 -28.5z" />
    <glyph glyph-name="k.sups" unicode="&#x1d4f;" horiz-adv-x="827" 
d="M980 1475l-309 -294l169 -419h-284l-83 231l-73 -69l-28 -162h-272l169 958h272l-77 -435l188 190h328z" />
    <glyph glyph-name="m.sups" unicode="&#x1d50;" horiz-adv-x="1197" 
d="M1072 1494q83 0 140 -48t57 -141q0 -34 -5 -59l-86 -484h-272l75 428q3 15 3 25q0 53 -47 53q-70 0 -94 -117l-69 -389h-271l76 428q3 16 3 27q0 51 -46 51q-36 0 -61.5 -32.5t-35.5 -87.5l-67 -386h-271l125 713h264l-12 -72q70 91 193 91q65 0 113.5 -29t65.5 -75
q36 44 95.5 74t126.5 30z" />
    <glyph glyph-name="o.sups" unicode="&#x1d52;" horiz-adv-x="831" 
d="M485 741q-157 0 -254.5 93.5t-97.5 243.5q0 188 113.5 302t300.5 114q157 0 254.5 -93.5t97.5 -242.5q0 -188 -113.5 -302.5t-300.5 -114.5zM500 969q55 0 90 50t35 127q0 58 -24 90t-67 32q-55 0 -90 -49.5t-35 -127.5q0 -58 23.5 -90t67.5 -32z" />
    <glyph glyph-name="p.sups" unicode="&#x1d56;" horiz-adv-x="837" 
d="M643 1494q119 0 191.5 -84t72.5 -235q0 -190 -97.5 -312t-244.5 -122q-58 0 -105.5 22t-76.5 60l-52 -294h-272l167 946h258l-11 -65q60 84 170 84zM505 969q60 0 93.5 56.5t33.5 129.5q0 113 -89 113q-59 0 -91 -57t-32 -130q0 -112 85 -112z" />
    <glyph glyph-name="t.sups" unicode="&#x1d57;" horiz-adv-x="675" 
d="M552 1257l-37 -209q-3 -15 -3 -29q0 -25 13.5 -37t45.5 -12q33 0 70 10l37 -211q-84 -28 -196 -28q-121 0 -186 53.5t-65 147.5q0 22 6 60l45 255h-115l39 218h113l36 205h272l-36 -205h168l-38 -218h-169z" />
    <glyph glyph-name="u.sups" unicode="&#x1d58;" horiz-adv-x="806" 
d="M637 1475h271l-126 -713h-261l14 75q-73 -94 -193 -94q-95 0 -152 54.5t-57 145.5q0 31 6 66l82 466h272l-74 -421q-4 -24 -4 -35q0 -49 50 -49q39 0 66.5 30t37.5 87z" />
    <glyph glyph-name="v.sups" unicode="&#x1d5b;" horiz-adv-x="807" 
d="M671 1475h291l-381 -713h-265l-142 713h271l49 -384z" />
    <glyph glyph-name="c.sups" unicode="&#x1d9c;" horiz-adv-x="780" 
d="M481 741q-155 0 -251.5 93t-96.5 244q0 188 113.5 302t300.5 114q107 0 189.5 -56t119.5 -155l-231 -97q-14 45 -35 63.5t-56 18.5q-60 0 -92.5 -53.5t-32.5 -125.5q0 -57 22.5 -88.5t64.5 -31.5q68 0 113 89l215 -111q-63 -107 -146.5 -156.5t-196.5 -49.5z" />
    <glyph glyph-name="f.sups" unicode="&#x1da0;" horiz-adv-x="598" 
d="M653 1545q-70 0 -82 -70h165l-38 -218h-164l-89 -495h-270l87 495h-95l39 218h95l5 30q20 111 103 173t211 62q85 0 168 -26l-60 -180q-35 11 -75 11z" />
    <glyph glyph-name="z.sups" unicode="&#x1dbb;" horiz-adv-x="667" 
d="M76 762l35 200l305 295h-258l38 218h579l-35 -200l-300 -296h272l-38 -217h-598z" />
    <glyph glyph-name="Wgrave" unicode="&#x1e80;" horiz-adv-x="2207" 
d="M1456 1569h-273l-305 360h345zM1927 1475h417l-681 -1475h-394l-95 910l-395 -910h-400l-186 1475h398l79 -938l392 938h396l78 -936z" />
    <glyph glyph-name="wgrave" unicode="&#x1e81;" horiz-adv-x="1779" 
d="M1177 1186h-274l-305 361h344zM1468 1090h387l-484 -1090h-353l-95 695l-320 -695h-358l-128 1090h367l41 -623l278 623h347l73 -626z" />
    <glyph glyph-name="Wacute" unicode="&#x1e82;" horiz-adv-x="2207" 
d="M1669 1929l-304 -360h-281l234 360h351zM1927 1475h417l-681 -1475h-394l-95 910l-395 -910h-400l-186 1475h398l79 -938l392 938h396l78 -936z" />
    <glyph glyph-name="wacute" unicode="&#x1e83;" horiz-adv-x="1779" 
d="M1401 1547l-304 -361h-281l234 361h351zM1468 1090h387l-484 -1090h-353l-95 695l-320 -695h-358l-128 1090h367l41 -623l278 623h347l73 -626z" />
    <glyph glyph-name="Wdieresis" unicode="&#x1e84;" horiz-adv-x="2207" 
d="M1274 1853l-49 -275h-315l49 275h315zM1706 1853l-49 -275h-315l50 275h314zM1927 1475h417l-681 -1475h-394l-95 910l-395 -910h-400l-186 1475h398l79 -938l392 938h396l78 -936z" />
    <glyph glyph-name="wdieresis" unicode="&#x1e85;" horiz-adv-x="1779" 
d="M1007 1475l-49 -275h-314l49 275h314zM1432 1475l-50 -275h-313l49 275h314zM1468 1090h387l-484 -1090h-353l-95 695l-320 -695h-358l-128 1090h367l41 -623l278 623h347l73 -626z" />
    <glyph glyph-name="uni1E9E" unicode="&#x1e9e;" horiz-adv-x="1445" 
d="M1471 1475l-51 -288l-335 -301q49 -12 96 -42.5t89.5 -78t69 -119.5t26.5 -157q0 -228 -157 -370t-402 -142q-143 0 -284 34l89 305q95 -22 166 -22q105 0 159 56t54 148q0 59 -28 94.5t-81 35.5q-41 0 -89 -29l-158 250l326 291h-186q-194 0 -234 -219l-163 -921h-379
l176 995q41 236 190.5 358t397.5 122h708z" />
    <glyph glyph-name="Ygrave" unicode="&#x1ef2;" horiz-adv-x="1358" 
d="M1024 1569h-273l-306 360h346zM1093 1475h419l-635 -892l-103 -583h-379l103 583l-323 892h380l173 -554z" />
    <glyph glyph-name="ygrave" unicode="&#x1ef3;" horiz-adv-x="1199" 
d="M871 1186h-273l-305 361h344zM888 1090h397l-646 -1194q-80 -149 -183.5 -216.5t-261.5 -67.5q-123 0 -230 40l103 268q59 -17 106 -17q92 0 140 80l43 72l-250 1035h373l112 -635z" />
    <glyph glyph-name="uni2007" unicode="&#x2007;" horiz-adv-x="614" 
 />
    <glyph glyph-name="thinspace" unicode="&#x2009;" horiz-adv-x="210" 
 />
    <glyph glyph-name="uni2011" unicode="&#x2011;" horiz-adv-x="804" 
d="M70 443l51 292h631l-52 -292h-630z" />
    <glyph glyph-name="endash" unicode="&#x2013;" horiz-adv-x="1163" 
d="M70 443l51 292h989l-51 -292h-989z" />
    <glyph glyph-name="emdash" unicode="&#x2014;" horiz-adv-x="2006" 
d="M70 443l51 292h1832l-51 -292h-1832z" />
    <glyph glyph-name="quoteleft" unicode="&#x2018;" horiz-adv-x="566" 
d="M384 1097h190l-68 -382h-387l68 392q24 133 81 218t194 180l113 -150q-88 -53 -131 -116.5t-60 -141.5z" />
    <glyph glyph-name="quoteright" unicode="&#x2019;" horiz-adv-x="565" 
d="M253 1475h387l-69 -393q-23 -133 -79.5 -218t-193.5 -180l-115 151q159 97 192 258h-190z" />
    <glyph glyph-name="quotesinglbase" unicode="&#x201a;" horiz-adv-x="565" 
d="M60 382h389l-70 -392q-23 -133 -80 -218.5t-194 -180.5l-114 151q158 95 191 258h-189z" />
    <glyph glyph-name="quotedblleft" unicode="&#x201c;" horiz-adv-x="1057" 
d="M578 1364q-159 -98 -192 -258h189l-67 -383h-387l68 393q23 133 80 218t194 179zM879 1106h189l-68 -383h-387l69 393q23 133 79.5 218t193.5 179l115 -149q-158 -97 -191 -258z" />
    <glyph glyph-name="quotedblright" unicode="&#x201d;" horiz-adv-x="1057" 
d="M185 1093l68 382h387l-69 -393q-23 -133 -79.5 -218t-193.5 -180l-115 151q159 97 192 258h-190zM745 1475h388l-69 -393q-24 -134 -80.5 -218.5t-192.5 -179.5l-115 151q158 96 191 258h-189z" />
    <glyph glyph-name="quotedblbase" unicode="&#x201e;" horiz-adv-x="1057" 
d="M-7 0l67 382h389l-70 -392q-23 -133 -80 -218.5t-194 -180.5l-114 151q158 95 191 258h-189zM553 382h387l-69 -392q-23 -133 -80 -218.5t-193 -180.5l-115 151q159 97 192 258h-190z" />
    <glyph glyph-name="dagger" unicode="&#x2020;" horiz-adv-x="787" 
d="M866 1248l-39 -224h-216l-100 -571h-265l100 571h-217l39 224h218l40 227h265l-40 -227h215z" />
    <glyph glyph-name="daggerdbl" unicode="&#x2021;" horiz-adv-x="788" 
d="M830 1040h-216l-26 -153h215l-39 -224h-216l-37 -210h-264l37 210h-218l39 224h219l26 153h-218l41 226h217l37 209h264l-37 -209h216z" />
    <glyph glyph-name="bullet" unicode="&#x2022;" horiz-adv-x="799" 
d="M414 348q-113 0 -194 80.5t-81 193.5q0 114 80.5 193.5t194.5 79.5t193.5 -79.5t79.5 -193.5q0 -113 -79.5 -193.5t-193.5 -80.5z" />
    <glyph glyph-name="ellipsis" unicode="&#x2026;" horiz-adv-x="1638" 
d="M-7 0l67 382h387l-67 -382h-387zM529 0l68 382h387l-68 -382h-387zM1066 0l68 382h387l-67 -382h-388z" />
    <glyph glyph-name="perthousand" unicode="&#x2030;" horiz-adv-x="2960" 
d="M550 650q-158 0 -260 103t-102 263q0 190 118.5 310.5t307.5 120.5q158 0 260.5 -103t102.5 -263q0 -190 -118.5 -310.5t-308.5 -120.5zM387 0l1071 1423h297l-1071 -1423h-297zM568 890q62 0 101 53.5t39 131.5q0 60 -31 96t-80 36q-62 0 -100.5 -53t-38.5 -131
q0 -63 29.5 -98t80.5 -35zM1528 -24q-158 0 -260.5 103t-102.5 263q0 190 119 310.5t308 120.5q158 0 260 -102.5t102 -262.5q0 -190 -118.5 -311t-307.5 -121zM2404 -24q-158 0 -259.5 103t-101.5 263q0 190 118.5 310.5t307.5 120.5q158 0 259.5 -102.5t101.5 -262.5
q0 -190 -118 -311t-308 -121zM1545 216q62 0 100.5 53.5t38.5 130.5q0 61 -30 97.5t-80 36.5q-61 0 -100 -54t-39 -131q0 -63 29.5 -98t80.5 -35zM2423 216q62 0 100.5 53.5t38.5 130.5q0 61 -31 97.5t-80 36.5q-62 0 -101 -53.5t-39 -131.5q0 -63 30 -98t82 -35z" />
    <glyph glyph-name="minute" unicode="&#x2032;" horiz-adv-x="600" 
d="M151 898l204 577h320l-247 -577h-277z" />
    <glyph glyph-name="second" unicode="&#x2033;" horiz-adv-x="1015" 
d="M151 898l204 577h320l-247 -577h-277zM567 898l204 577h320l-247 -577h-277z" />
    <glyph glyph-name="uni2034" unicode="&#x2034;" horiz-adv-x="1431" 
d="M151 898l204 577h320l-247 -577h-277zM567 898l204 577h320l-247 -577h-277zM983 898l204 577h319l-246 -577h-277z" />
    <glyph glyph-name="guilsinglleft" unicode="&#x2039;" horiz-adv-x="749" 
d="M373 119l-291 454l420 455l207 -187l-263 -290l167 -264z" />
    <glyph glyph-name="guilsinglright" unicode="&#x203a;" horiz-adv-x="749" 
d="M386 1028l291 -455l-420 -454l-207 187l262 290l-167 264z" />
    <glyph glyph-name="fraction" unicode="&#x2044;" horiz-adv-x="487" 
d="M-435 0l1123 1475h302l-1122 -1475h-303z" />
    <glyph glyph-name="zero.sups" unicode="&#x2070;" horiz-adv-x="898" 
d="M529 740q-173 0 -270.5 107t-97.5 297q0 159 50.5 286t155.5 205t251 78q174 0 271.5 -106.5t97.5 -296.5q0 -119 -29.5 -221.5t-86 -180.5t-144.5 -123t-198 -45zM544 986q40 0 72.5 30.5t51.5 78.5t29 101.5t10 105.5q0 80 -27 122.5t-76 42.5q-40 0 -72.5 -30.5
t-51.5 -78.5t-29 -101.5t-10 -105.5q0 -80 27 -122.5t76 -42.5z" />
    <glyph glyph-name="i.sups" unicode="&#x2071;" horiz-adv-x="395" 
d="M233 1525l34 195h276l-35 -195h-275zM100 762l126 713h272l-126 -713h-272z" />
    <glyph glyph-name="four.sups" unicode="&#x2074;" horiz-adv-x="815" 
d="M911 1171l-40 -231h-111l-31 -175h-277l30 175h-385l39 224l453 526h303l-91 -519h110zM398 1171h126l34 194z" />
    <glyph glyph-name="five.sups" unicode="&#x2075;" horiz-adv-x="816" 
d="M599 1397q115 0 192 -83.5t77 -209.5q0 -165 -115.5 -264.5t-296.5 -99.5q-140 0 -228.5 62.5t-115.5 151.5l241 114q11 -42 42.5 -64.5t71.5 -22.5q55 0 87.5 35t32.5 81q0 37 -26.5 59.5t-64.5 22.5q-62 0 -103 -63h-243l147 573h607l-41 -230h-377l-25 -95
q73 33 138 33z" />
    <glyph glyph-name="six.sups" unicode="&#x2076;" horiz-adv-x="847" 
d="M613 1365q129 0 213 -78t84 -197q0 -157 -110 -253.5t-275 -96.5q-97 0 -173.5 38t-124.5 105q-69 99 -69 261q0 60 12 134q33 194 156 314.5t309 120.5q221 0 333 -178l-208 -138q-51 80 -137 80q-61 0 -108.5 -40.5t-65.5 -115.5q72 44 164 44zM527 964q52 0 84 31.5
t32 78.5q0 40 -26.5 64.5t-67.5 24.5q-52 0 -83.5 -31.5t-31.5 -77.5q0 -40 26 -65t67 -25z" />
    <glyph glyph-name="seven.sups" unicode="&#x2077;" horiz-adv-x="733" 
d="M226 1690h699l-41 -226q-155 -145 -262 -334.5t-114 -364.5h-295q21 198 124.5 385t255.5 308h-408z" />
    <glyph glyph-name="eight.sups" unicode="&#x2078;" horiz-adv-x="835" 
d="M745 1238q64 -24 100.5 -75t36.5 -121q0 -137 -102.5 -219.5t-281.5 -82.5q-162 0 -267.5 71.5t-105.5 190.5q0 183 188 254q-101 59 -101 178q0 125 100 201.5t265 76.5q148 0 239 -77.5t91 -180.5q0 -72 -45.5 -130t-116.5 -86zM551 1326q45 0 72.5 26t27.5 67
q0 36 -24.5 58t-64.5 22q-45 0 -73 -26t-28 -67q0 -36 25 -58t65 -22zM497 955q51 0 82.5 27.5t31.5 70.5q0 39 -27 62t-73 23q-52 0 -85 -28t-33 -71q0 -39 29 -61.5t75 -22.5z" />
    <glyph glyph-name="nine.sups" unicode="&#x2079;" horiz-adv-x="849" 
d="M869 1568q70 -99 70 -261q0 -58 -12 -132q-36 -205 -154.5 -320.5t-289.5 -115.5q-212 0 -340 175l192 148q67 -88 149 -88q60 0 103.5 42.5t60.5 121.5q-68 -42 -160 -42q-129 0 -215.5 77.5t-86.5 195.5q0 157 109.5 249.5t275.5 92.5q97 0 173.5 -37.5t124.5 -105.5z
M547 1298q52 0 82.5 29t30.5 75q0 40 -25.5 62.5t-68.5 22.5q-52 0 -81.5 -29t-29.5 -76q0 -40 25 -62t67 -22z" />
    <glyph glyph-name="n.sups" unicode="&#x207f;" horiz-adv-x="800" 
d="M667 1493q95 0 152.5 -54.5t57.5 -145.5q0 -25 -7 -65l-82 -466h-271l74 421q4 24 4 35q0 49 -51 49q-39 0 -67 -30.5t-38 -88.5l-67 -386h-272l126 713h261l-12 -75q71 93 192 93z" />
    <glyph glyph-name="zero.subs" unicode="&#x2080;" horiz-adv-x="898" 
d="M353 -258q-173 0 -270.5 106.5t-97.5 296.5q0 159 50.5 286t155.5 205.5t251 78.5q173 0 271 -107t98 -297q0 -160 -50.5 -286.5t-156 -204.5t-251.5 -78zM368 -12q53 0 91.5 53t54.5 122t16 140q0 81 -26.5 123.5t-75.5 42.5q-40 0 -72.5 -30.5t-51.5 -78.5t-29 -101.5
t-10 -105.5q0 -80 27 -122.5t76 -42.5z" />
    <glyph glyph-name="one.subs" unicode="&#x2081;" horiz-adv-x="685" 
d="M638 690l-163 -924h-277l104 589l-170 -132l-135 168l385 299h256z" />
    <glyph glyph-name="two.subs" unicode="&#x2082;" horiz-adv-x="838" 
d="M523 104l-126 -107h310l-41 -231h-700l38 216l329 283q72 62 96 91.5t24 65.5q0 53 -60 53q-86 0 -137 -133l-243 82q66 151 164 221t240 70q143 0 228.5 -74.5t85.5 -205.5q0 -90 -49.5 -163.5t-158.5 -167.5z" />
    <glyph glyph-name="three.subs" unicode="&#x2083;" horiz-adv-x="821" 
d="M592 223q100 -59 100 -175q0 -140 -108 -223t-272 -83q-139 0 -239.5 71.5t-131.5 191.5l246 83q27 -108 129 -108q48 0 73.5 21t25.5 54q0 29 -18 47.5t-53 18.5h-106l34 202h73q50 0 77.5 26.5t27.5 65.5q0 63 -73 63q-92 0 -131 -109l-234 76q48 135 150 202t246 67
q145 0 235 -75t90 -198q0 -152 -141 -218z" />
    <glyph glyph-name="four.subs" unicode="&#x2084;" horiz-adv-x="815" 
d="M735 173l-40 -231h-111l-31 -176h-277l31 176h-386l39 224l453 524h303l-91 -517h110zM222 173h126l34 194z" />
    <glyph glyph-name="five.subs" unicode="&#x2085;" horiz-adv-x="816" 
d="M423 398q115 0 192 -84t77 -210q0 -165 -115.5 -263.5t-296.5 -98.5q-140 0 -228.5 62.5t-116.5 151.5l242 114q12 -43 43.5 -65.5t71.5 -22.5q54 0 86.5 35t32.5 80q0 37 -27 60t-65 23q-62 0 -102 -62h-244l148 572h607l-40 -229h-378l-25 -95q71 32 138 32z" />
    <glyph glyph-name="six.subs" unicode="&#x2086;" horiz-adv-x="847" 
d="M437 367q129 0 213 -78t84 -198q0 -157 -109.5 -253t-275.5 -96q-97 0 -174 37.5t-124 104.5q-69 99 -69 261q0 61 12 135q33 194 156 314.5t309 120.5q221 0 333 -178l-208 -139q-50 80 -137 80q-62 0 -109 -39.5t-66 -115.5q72 44 165 44zM351 -35q51 0 83.5 32
t32.5 78q0 40 -26.5 65t-67.5 25q-51 0 -83 -32t-32 -78q0 -40 26 -65t67 -25z" />
    <glyph glyph-name="seven.subs" unicode="&#x2087;" horiz-adv-x="733" 
d="M51 690h698l-40 -224q-156 -145 -263 -334.5t-114 -365.5h-294q20 199 123.5 386t256.5 308h-409z" />
    <glyph glyph-name="eight.subs" unicode="&#x2088;" horiz-adv-x="836" 
d="M569 240q64 -24 100.5 -75t36.5 -122q0 -137 -102.5 -219t-281.5 -82q-162 0 -267.5 71.5t-105.5 190.5q0 183 188 254q-101 59 -101 177q0 126 99.5 202.5t264.5 76.5q148 0 239.5 -78t91.5 -180q0 -72 -45 -130t-117 -86zM376 328q45 0 72 26t27 67q0 36 -24.5 58
t-64.5 22q-45 0 -73 -26t-28 -67q0 -36 25 -58t66 -22zM321 -43q52 0 83 27t31 70q0 39 -27 61.5t-73 22.5q-52 0 -85 -27t-33 -70q0 -39 29 -61.5t75 -22.5z" />
    <glyph glyph-name="nine.subs" unicode="&#x2089;" horiz-adv-x="848" 
d="M692 569q70 -97 70 -261q0 -58 -12 -132q-35 -205 -154 -320t-290 -115q-213 0 -339 175l192 147q67 -88 148 -88q60 0 103.5 42.5t60.5 120.5q-69 -41 -159 -41q-130 0 -216.5 77.5t-86.5 196.5q0 157 109.5 249.5t276.5 92.5q96 0 172.5 -38t124.5 -106zM371 300
q52 0 82.5 28.5t30.5 74.5q0 40 -26 62.5t-68 22.5q-52 0 -82 -29t-30 -75q0 -40 25 -62t68 -22z" />
    <glyph glyph-name="n.subs" unicode="&#x2099;" horiz-adv-x="800" 
d="M519 728q95 0 153 -54.5t58 -144.5q0 -30 -6 -63l-82 -466h-249l75 425q4 26 4 36q0 58 -62 58q-45 0 -77.5 -35.5t-44.5 -102.5l-67 -381h-249l125 710h241l-13 -74q74 92 194 92z" />
    <glyph glyph-name="uni20A9" unicode="&#x20a9;" horiz-adv-x="2086" 
d="M2171 1423l-104 -237h104l-39 -216h-159l-42 -96h185l-39 -216h-240l-288 -658h-408l-37 667h-75l-265 -667h-418l-57 658h-241l39 216h182l-8 96h-158l37 216h102l-21 237h390l11 -245h278l90 245h372l12 -245h307l98 245h392zM827 978h-196l5 -112h151zM1603 978h-220
l7 -112h169zM651 495l63 172h-70zM1479 667h-80l9 -181z" />
    <glyph glyph-name="Euro" unicode="&#x20ac;" horiz-adv-x="1447" 
d="M807 285q92 0 162.5 45t132.5 127l252 -206q-125 -145 -262 -215t-308 -70q-240 0 -391 128.5t-192 360.5h-173l39 217h121q1 28 7 82h-114l38 217h124q76 222 245.5 354t414.5 132q180 0 320.5 -74t215.5 -207l-291 -186q-32 72 -95 110.5t-148 38.5q-177 0 -267 -168
h363l-37 -217h-392q-6 -57 -7 -82h383l-37 -217h-327q50 -170 223 -170z" />
    <glyph glyph-name="uni20B8" unicode="&#x20b8;" horiz-adv-x="1295" 
d="M189 1475h1244l-53 -298h-1244zM1361 1066l-59 -335h-433l-129 -731h-379l129 731h-432l60 335h1243z" />
    <glyph glyph-name="uni20B9" unicode="&#x20b9;" horiz-adv-x="1163" 
d="M1246 1207h-292q45 -66 58 -150h208l-38 -217h-183q-43 -157 -174 -254.5t-319 -111.5l350 -474h-415l-348 473l48 269h260q66 0 121 26t88 72h-451l38 217h439q-20 46 -61.5 72t-99.5 26h-261l47 268h1024z" />
    <glyph glyph-name="uni20BA" unicode="&#x20ba;" horiz-adv-x="1314" 
d="M951 614l297 -106q-101 -252 -287 -380t-450 -128h-396l84 477l-176 -56l36 208l177 56l15 85l-177 -56l37 209l177 56l78 444h370l-59 -337l336 109l-37 -209l-336 -107l-15 -86l337 108l-37 -208l-337 -108l-48 -272q297 0 411 301z" />
    <glyph glyph-name="uni20BC" unicode="&#x20bc;" horiz-adv-x="1756" 
d="M1152 1224q233 -51 363.5 -212t130.5 -399q0 -73 -16 -156l-80 -457h-369l76 436q13 80 13 135q0 243 -176 318l-135 -757h-307l135 763q-131 -44 -214 -168.5t-116 -314.5l-73 -412h-370l85 482q60 342 250 536t499 222l33 183h307z" />
    <glyph glyph-name="uni2113" unicode="&#x2113;" horiz-adv-x="1073" 
d="M652 284q98 0 216 53l79 -287q-84 -37 -186.5 -58.5t-191.5 -21.5q-183 0 -279 84.5t-96 240.5q0 27 3 55l-105 -39l-75 235q118 42 228 90l76 433q33 186 150.5 287t284.5 101q157 0 252 -92.5t95 -244.5q0 -189 -135 -335t-384 -270l-19 -105q-8 -45 -8 -63
q0 -33 21.5 -48t73.5 -15zM676 1040l-32 -181q157 122 157 223q0 62 -48 62q-59 0 -77 -104z" />
    <glyph glyph-name="uni2117" unicode="&#x2117;" horiz-adv-x="1971" 
d="M1079 1613q173 0 327 -61t264 -166.5t174.5 -252.5t64.5 -313q0 -198 -72.5 -375t-198 -305t-302.5 -203t-378 -75q-172 0 -325.5 61t-264 166t-174.5 252t-64 313q0 198 72.5 375t197.5 305.5t302 203.5t377 75zM957 86q205 0 366.5 101t248 270t86.5 374
q0 159 -77 287.5t-209 199.5t-292 71q-154 0 -286 -59t-222 -160t-140.5 -237.5t-50.5 -289.5q0 -159 76.5 -287t208 -199t291.5 -71zM1163 1185q134 0 215 -74.5t81 -199.5q0 -152 -104 -240.5t-277 -88.5h-172l-49 -280h-250l156 883h400zM1095 801q44 0 73.5 26.5
t29.5 64.5q0 32 -21 49.5t-56 17.5h-148l-28 -158h150z" />
    <glyph glyph-name="uni2120" unicode="&#x2120;" horiz-adv-x="1680" 
d="M514 1314q-41 0 -66 -11t-25 -32q0 -42 104 -60q76 -13 128 -35t78.5 -52t37 -61.5t10.5 -71.5q0 -113 -87.5 -181t-239.5 -68q-191 0 -314 124l135 139q79 -78 193 -78q41 0 68.5 13t27.5 35q0 20 -26 33.5t-96 26.5q-236 46 -236 227q0 106 81.5 171.5t230.5 65.5
q95 0 164 -29t134 -93l-127 -133q-77 70 -175 70zM1767 1475l-125 -708h-207l63 360l-175 -360h-172l-48 371l-66 -371h-209l125 708h276l54 -425l203 425h281z" />
    <glyph glyph-name="trademark" unicode="&#x2122;" horiz-adv-x="1627" 
d="M797 1285h-202l-91 -518h-208l91 518h-202l33 190h611zM1714 1475l-125 -708h-209l64 357l-174 -357h-172l-49 372l-66 -372h-208l125 708h276l54 -424l203 424h281z" />
    <glyph glyph-name="uni2126" unicode="&#x2126;" horiz-adv-x="1611" 
d="M-58 0l59 340h249q-72 70 -113 168.5t-41 213.5q0 167 60.5 313t165.5 250t253.5 164t318.5 60q297 0 483.5 -175t186.5 -455q0 -171 -65.5 -310t-185.5 -229h226l-60 -340h-667l56 316q137 72 218.5 212t81.5 308q0 148 -79 236.5t-210 88.5q-174 0 -288 -137t-114 -350
q0 -124 46 -217t130 -134l-57 -323h-654z" />
    <glyph glyph-name="estimated" unicode="&#x212e;" horiz-adv-x="1875" 
d="M977 -17q-198 0 -341 50.5t-258 159.5q-228 216 -228 544q0 333 231 546q118 109 258.5 160t337.5 51q180 0 315.5 -45t255.5 -142q117 -94 182 -246.5t73 -344.5h-1316q-11 0 -17 -2t-10.5 -10.5t-4.5 -25.5v-370q0 -31 38.5 -75t103.5 -87.5t167.5 -74t212.5 -30.5
q150 0 289.5 67t233.5 173h155q-156 -174 -309 -236q-89 -36 -165.5 -49t-203.5 -13zM488 763h971q24 0 30.5 7.5t6.5 28.5v362q0 58 -80 124t-204 111t-238 45q-104 0 -205 -32t-167 -76t-106.5 -87t-40.5 -69v-395q0 -19 33 -19z" />
    <glyph glyph-name="uni2150" unicode="&#x2150;" horiz-adv-x="2089" 
d="M612 550h-276l104 591l-171 -133l-134 167l384 300h256zM1470 1475h303l-1123 -1475h-303zM1444 925h697l-40 -226q-156 -145 -263 -334.5t-114 -364.5h-293q20 199 122.5 385.5t255.5 307.5h-406z" />
    <glyph glyph-name="uni2151" unicode="&#x2151;" horiz-adv-x="2142" 
d="M612 550h-276l104 591l-171 -133l-134 167l384 300h256zM1470 1475h303l-1123 -1475h-303zM2020 806q70 -99 70 -261q0 -58 -12 -133q-35 -205 -154 -320.5t-290 -115.5q-211 0 -339 176l192 147q67 -87 148 -87q60 0 103.5 42.5t60.5 120.5q-69 -41 -159 -41
q-130 0 -216.5 77t-86.5 196q0 157 109.5 249.5t276.5 92.5q96 0 173 -38t124 -105zM1699 536q52 0 82.5 28.5t30.5 74.5q0 40 -26 63t-68 23q-52 0 -82 -29t-30 -75q0 -40 25 -62.5t68 -22.5z" />
    <glyph glyph-name="uni2152" unicode="&#x2152;" horiz-adv-x="2856" 
d="M612 550h-276l104 591l-171 -133l-134 167l384 300h256zM1470 1475h303l-1123 -1475h-303zM2434 949q174 0 271.5 -106.5t97.5 -296.5q0 -119 -29.5 -221.5t-86 -180.5t-144.5 -123t-198 -45q-173 0 -271 107t-98 297q0 118 29.5 220.5t86 180.5t144.5 123t198 45z
M1932 925l-163 -925h-276l104 591l-171 -133l-134 167l384 300h256zM2359 222q40 0 72.5 30.5t51.5 78.5t29 101.5t10 105.5q0 80 -26.5 122.5t-75.5 42.5q-40 0 -72.5 -30.5t-51.5 -78.5t-29 -101.5t-10 -105.5q0 -80 26.5 -122.5t75.5 -42.5z" />
    <glyph glyph-name="uni2153" unicode="&#x2153;" horiz-adv-x="2095" 
d="M612 550h-276l104 591l-171 -133l-134 167l384 300h256zM1468 1475h302l-1122 -1475h-303zM1903 458q101 -56 101 -174q0 -141 -108 -224.5t-272 -83.5q-139 0 -240 72.5t-132 191.5l247 83q28 -109 129 -109q48 0 73 21.5t25 55.5q0 29 -17.5 46.5t-52.5 17.5h-107
l35 202h73q50 0 77 26.5t27 66.5q0 63 -72 63q-91 0 -131 -110l-234 77q48 136 149.5 202.5t245.5 66.5q145 0 235.5 -75t90.5 -198q0 -153 -142 -218z" />
    <glyph glyph-name="uni2154" unicode="&#x2154;" horiz-adv-x="2213" 
d="M845 781l-41 -231h-701l39 216l329 283q72 62 96 91.5t24 64.5q0 53 -60 53q-87 0 -137 -133l-243 83q67 151 165 221t239 70q143 0 228.5 -74t85.5 -206q0 -91 -49.5 -164t-159.5 -167l-124 -107h309zM1590 1475h302l-1122 -1475h-303zM2021 458q102 -56 102 -174
q0 -141 -108 -224.5t-272 -83.5q-139 0 -240 72.5t-132 191.5l247 83q28 -109 129 -109q48 0 73 21.5t25 55.5q0 29 -17.5 46.5t-52.5 17.5h-107l35 202h73q50 0 77 26.5t27 66.5q0 63 -73 63q-91 0 -131 -110l-233 77q48 136 149.5 202.5t245.5 66.5q145 0 235.5 -75
t90.5 -198q0 -152 -143 -218z" />
    <glyph glyph-name="uni2155" unicode="&#x2155;" horiz-adv-x="2091" 
d="M612 550h-276l104 591l-171 -133l-134 167l384 300h256zM1470 1475h303l-1123 -1475h-303zM1735 633q115 0 192 -83.5t77 -209.5q0 -165 -116 -264.5t-297 -99.5q-140 0 -228 62.5t-116 152.5l242 114q12 -43 43.5 -65.5t71.5 -22.5q54 0 86 35t32 81q0 37 -26.5 59.5
t-64.5 22.5q-62 0 -102 -63h-244l148 573h607l-40 -230h-378l-26 -94q71 32 139 32z" />
    <glyph glyph-name="uni2156" unicode="&#x2156;" horiz-adv-x="2209" 
d="M845 781l-41 -231h-701l39 216l329 283q72 62 96 91.5t24 64.5q0 53 -60 53q-87 0 -137 -133l-243 83q67 151 165 221t239 70q143 0 228.5 -74t85.5 -206q0 -91 -49.5 -164t-159.5 -167l-124 -107h309zM1589 1475h302l-1122 -1475h-303zM1853 633q115 0 192.5 -83.5
t77.5 -209.5q0 -165 -116 -264.5t-297 -99.5q-140 0 -228 62.5t-116 152.5l242 114q12 -43 43 -65.5t71 -22.5q55 0 87 35t32 81q0 37 -26.5 59.5t-64.5 22.5q-62 0 -102 -63h-244l147 573h608l-40 -230h-378l-26 -94q71 32 138 32z" />
    <glyph glyph-name="uni2157" unicode="&#x2157;" horiz-adv-x="2170" 
d="M831 835q0 -141 -107.5 -224.5t-271.5 -83.5q-139 0 -240 72.5t-132 191.5l247 82q14 -56 48.5 -82t80.5 -26q48 0 73 21.5t25 55.5q0 29 -18 46.5t-53 17.5h-106l35 202h72q50 0 77.5 26.5t27.5 66.5q0 63 -73 63q-91 0 -131 -110l-233 77q48 136 149.5 202.5
t245.5 66.5q145 0 235 -75t90 -198q0 -153 -142 -218q101 -56 101 -174zM1550 1475h302l-1122 -1475h-303zM1815 633q115 0 192 -83.5t77 -209.5q0 -165 -116 -264.5t-297 -99.5q-140 0 -228 62.5t-116 152.5l242 114q12 -43 43 -65.5t71 -22.5q55 0 87 35t32 81
q0 37 -26.5 59.5t-64.5 22.5q-62 0 -102 -63h-244l147 573h608l-40 -230h-378l-26 -94q71 32 139 32z" />
    <glyph glyph-name="uni2158" unicode="&#x2158;" horiz-adv-x="2160" 
d="M692 550h-277l30 176h-386l39 224l453 525h304l-91 -518h110l-40 -231h-111zM1540 1475h302l-1122 -1475h-303zM361 957h125l34 194zM1804 633q115 0 192.5 -83.5t77.5 -209.5q0 -165 -116 -264.5t-297 -99.5q-140 0 -228 62.5t-116 152.5l242 114q12 -43 43 -65.5
t71 -22.5q55 0 87 35t32 81q0 37 -26.5 59.5t-64.5 22.5q-63 0 -103 -63h-243l147 573h607l-39 -230h-378l-26 -94q71 32 138 32z" />
    <glyph glyph-name="uni2159" unicode="&#x2159;" horiz-adv-x="2124" 
d="M612 550h-276l104 591l-171 -133l-134 167l384 300h256zM1470 1475h303l-1123 -1475h-303zM1748 601q130 0 213.5 -78t83.5 -197q0 -157 -110 -253.5t-275 -96.5q-97 0 -174 38t-124 105q-70 101 -70 261q0 54 13 134q33 194 155.5 314.5t308.5 120.5q221 0 333 -178
l-208 -138q-50 80 -136 80q-61 0 -108.5 -40t-66.5 -116q72 44 165 44zM1662 200q51 0 83.5 31.5t32.5 77.5q0 40 -26.5 65t-68.5 25q-51 0 -82.5 -31.5t-31.5 -77.5q0 -40 26 -65t67 -25z" />
    <glyph glyph-name="uni215A" unicode="&#x215a;" horiz-adv-x="2163" 
d="M831 890q0 -165 -115.5 -264.5t-296.5 -99.5q-140 0 -228 62.5t-116 152.5l241 114q12 -43 43.5 -65.5t71.5 -22.5q55 0 87 35t32 81q0 37 -26.5 59.5t-64.5 22.5q-63 0 -103 -63h-243l147 573h607l-40 -230h-377l-26 -95q69 33 138 33q115 0 192 -83.5t77 -209.5z
M1509 1475h302l-1122 -1475h-303zM1787 601q130 0 213.5 -78t83.5 -197q0 -157 -110 -253.5t-275 -96.5q-97 0 -174 38t-124 105q-70 101 -70 261q0 60 12 134q33 194 156 314.5t309 120.5q221 0 333 -178l-208 -138q-50 80 -136 80q-61 0 -108.5 -40t-66.5 -116
q72 44 165 44zM1701 200q51 0 83.5 31.5t32.5 77.5q0 40 -26.5 65t-68.5 25q-51 0 -82.5 -31.5t-31.5 -77.5q0 -40 26 -65t67 -25z" />
    <glyph glyph-name="oneeighth" unicode="&#x215b;" horiz-adv-x="2109" 
d="M612 550h-276l104 591l-171 -133l-134 167l384 300h256zM1468 1475h302l-1122 -1475h-303zM1881 474q63 -24 99 -74.5t36 -120.5q0 -137 -102.5 -220t-281.5 -83q-162 0 -267 72.5t-105 191.5q0 181 188 253q-101 61 -101 177q0 126 99.5 202.5t264.5 76.5
q148 0 239.5 -78t91.5 -180q0 -72 -45 -130.5t-116 -86.5zM1687 563q45 0 72 25.5t27 66.5q0 37 -24.5 59t-64.5 22q-45 0 -73.5 -26t-28.5 -67q0 -36 25.5 -58t66.5 -22zM1631 191q52 0 83.5 28t31.5 71q0 38 -27 61t-73 23q-52 0 -85 -27.5t-33 -70.5q0 -39 28.5 -62
t74.5 -23z" />
    <glyph glyph-name="threeeighths" unicode="&#x215c;" horiz-adv-x="2192" 
d="M831 835q0 -141 -107.5 -224.5t-271.5 -83.5q-139 0 -240 72.5t-132 191.5l247 82q14 -56 48.5 -82t80.5 -26q48 0 73 21.5t25 55.5q0 29 -18 46.5t-53 17.5h-106l35 202h72q50 0 77.5 26.5t27.5 66.5q0 63 -73 63q-91 0 -131 -110l-233 77q48 136 149.5 202.5
t245.5 66.5q145 0 235 -75t90 -198q0 -153 -142 -218q101 -56 101 -174zM1552 1475h302l-1122 -1475h-303zM1964 474q63 -24 99 -74.5t36 -120.5q0 -137 -102.5 -220t-281.5 -83q-162 0 -267.5 72.5t-105.5 191.5q0 181 189 253q-101 61 -101 177q0 126 99.5 202.5
t264.5 76.5q148 0 239.5 -78t91.5 -180q0 -72 -45 -130.5t-116 -86.5zM1769 563q45 0 72.5 25.5t27.5 66.5q0 37 -24.5 59t-64.5 22q-45 0 -73.5 -26t-28.5 -67q0 -36 25 -58t66 -22zM1714 191q52 0 83.5 28t31.5 71q0 38 -27 61t-73 23q-52 0 -85 -27.5t-33 -70.5
q0 -39 28.5 -62t74.5 -23z" />
    <glyph glyph-name="fiveeighths" unicode="&#x215d;" horiz-adv-x="2151" 
d="M831 890q0 -165 -115.5 -264.5t-296.5 -99.5q-140 0 -228 62.5t-116 152.5l241 114q12 -43 43.5 -65.5t71.5 -22.5q55 0 87 35t32 81q0 37 -26.5 59.5t-64.5 22.5q-63 0 -103 -63h-243l147 573h607l-40 -230h-377l-26 -95q69 33 138 33q115 0 192 -83.5t77 -209.5z
M1510 1475h302l-1122 -1475h-303zM1923 474q63 -24 99 -74.5t36 -120.5q0 -137 -102.5 -220t-281.5 -83q-162 0 -267 72.5t-105 191.5q0 181 188 253q-101 61 -101 177q0 126 99.5 202.5t264.5 76.5q148 0 239.5 -78t91.5 -180q0 -72 -45 -130.5t-116 -86.5zM1729 563
q45 0 72 25.5t27 66.5q0 37 -24.5 59t-64.5 22q-45 0 -73.5 -26t-28.5 -67q0 -36 25.5 -58t66.5 -22zM1673 191q52 0 83.5 28t31.5 71q0 38 -27 61t-73 23q-52 0 -85 -27.5t-33 -70.5q0 -39 28.5 -62t74.5 -23z" />
    <glyph glyph-name="seveneighths" unicode="&#x215e;" horiz-adv-x="1983" 
d="M175 550q20 199 123.5 385.5t256.5 307.5h-408l41 232h698l-40 -226q-156 -145 -263 -334.5t-114 -364.5h-294zM1343 1475h303l-1123 -1475h-303zM1755 474q63 -24 99 -74.5t36 -120.5q0 -137 -102.5 -220t-281.5 -83q-162 0 -267 72.5t-105 191.5q0 181 188 253
q-101 61 -101 177q0 126 99.5 202.5t264.5 76.5q148 0 239.5 -78t91.5 -180q0 -72 -45 -130.5t-116 -86.5zM1561 563q45 0 72 25.5t27 66.5q0 37 -24.5 59t-64.5 22q-45 0 -73.5 -26t-28.5 -67q0 -36 25.5 -58t66.5 -22zM1505 191q52 0 83.5 28t31.5 71q0 38 -27 61t-73 23
q-52 0 -85 -27.5t-33 -70.5q0 -39 28.5 -62t74.5 -23z" />
    <glyph glyph-name="uni215F" unicode="&#x215f;" horiz-adv-x="1269" 
d="M612 550h-276l104 591l-171 -133l-134 167l384 300h256zM1470 1475h303l-1123 -1475h-303z" />
    <glyph glyph-name="uni2189" unicode="&#x2189;" horiz-adv-x="2219" 
d="M948 1095q0 -119 -29.5 -221.5t-86 -180.5t-144.5 -123t-198 -45q-173 0 -270.5 107t-97.5 297q0 118 29.5 220.5t86 180.5t144.5 123t198 45q173 0 270.5 -106.5t97.5 -296.5zM1594 1475h302l-1122 -1475h-303zM402 936q0 -80 27 -122.5t76 -42.5q40 0 72.5 30.5
t51.5 78.5t29 101t10 105q0 80 -27 123t-76 43q-40 0 -72.5 -30.5t-51.5 -78.5t-29 -101.5t-10 -105.5zM2026 458q102 -56 102 -174q0 -141 -108 -224.5t-272 -83.5q-139 0 -240 72.5t-132 191.5l247 83q28 -109 129 -109q48 0 73 21.5t25 55.5q0 29 -17.5 46.5t-52.5 17.5
h-107l35 202h73q50 0 77 26.5t27 66.5q0 63 -73 63q-91 0 -131 -110l-233 77q48 136 149.5 202.5t245.5 66.5q145 0 235.5 -75t90.5 -198q0 -152 -143 -218z" />
    <glyph glyph-name="arrowleft" unicode="&#x2190;" horiz-adv-x="1792" 
d="M1690 801v-309h-1060l325 -320l-210 -210l-684 684l684 684l211 -211l-324 -318h1058z" />
    <glyph glyph-name="arrowup" unicode="&#x2191;" horiz-adv-x="1792" 
d="M1580 776l-210 -210l-319 326v-1060h-310v1058l-318 -325l-211 211l684 684z" />
    <glyph glyph-name="arrowright" unicode="&#x2192;" horiz-adv-x="1792" 
d="M1047 1330l684 -684l-684 -684l-210 210l325 320h-1060v309h1058l-324 318z" />
    <glyph glyph-name="arrowdown" unicode="&#x2193;" horiz-adv-x="1792" 
d="M1370 726l210 -210l-684 -684l-684 684l211 211l318 -325v1058h310v-1060z" />
    <glyph glyph-name="arrowboth" unicode="&#x2194;" horiz-adv-x="2310" 
d="M1565 1330l684 -684l-684 -684l-211 210l326 320h-1050l325 -320l-210 -210l-684 684l684 684l211 -211l-324 -318h1046l-325 318z" />
    <glyph glyph-name="arrowupdn" unicode="&#x2195;" horiz-adv-x="1792" 
d="M1051 123l318 324l211 -210l-684 -684l-684 684l210 210l319 -326v1050l-319 -326l-210 211l684 684l684 -684l-211 -211l-318 324v-1046z" />
    <glyph glyph-name="uni2196" unicode="&#x2196;" horiz-adv-x="1792" 
d="M1493 179l-218 -217l-750 749l5 -456h-298v967h967v-298l-456 5z" />
    <glyph glyph-name="uni2197" unicode="&#x2197;" horiz-adv-x="1792" 
d="M525 1222h968v-967h-299l5 455l-748 -748l-219 217l750 750l-457 -5v298z" />
    <glyph glyph-name="uni2198" unicode="&#x2198;" horiz-adv-x="1792" 
d="M1194 1037h299v-966h-968v298l457 -5l-750 749l219 217l748 -747z" />
    <glyph glyph-name="uni2199" unicode="&#x2199;" horiz-adv-x="1792" 
d="M1560 1113l-750 -749l457 5v-298h-968v966h299l-5 -454l748 747z" />
    <glyph glyph-name="uni21B0" unicode="&#x21b0;" horiz-adv-x="1792" 
d="M1651 801v-983h-309v674h-749l325 -319l-211 -211l-684 684l684 684l211 -210l-327 -319h1060z" />
    <glyph glyph-name="uni21B1" unicode="&#x21b1;" horiz-adv-x="1792" 
d="M1047 1330l684 -684l-684 -684l-211 211l324 319h-749v-674h-309v983h1060l-325 319z" />
    <glyph glyph-name="uni21B3" unicode="&#x21b3;" horiz-adv-x="1792" 
d="M1119 1330l684 -684l-684 -684l-211 210l327 320h-1060v983h308v-674h750l-326 318z" />
    <glyph glyph-name="carriagereturn" unicode="&#x21b5;" horiz-adv-x="1792" 
d="M1381 1475h309v-983h-1060l325 -320l-210 -210l-684 684l684 684l211 -211l-324 -318h749v674z" />
    <glyph glyph-name="partialdiff" unicode="&#x2202;" horiz-adv-x="1230" 
d="M421 1512q207 -37 353.5 -109t236.5 -182.5t131.5 -252t41.5 -327.5q0 -321 -150.5 -495.5t-456.5 -174.5q-236 0 -384.5 140.5t-148.5 364.5q0 246 150 406t389 160q119 0 231 -53q-66 100 -181 163.5t-294 100.5zM595 280q102 0 161 78.5t59 185.5q0 92 -52.5 145
t-137.5 53q-100 0 -161 -77.5t-61 -180.5q0 -95 53.5 -149.5t138.5 -54.5z" />
    <glyph glyph-name="emptyset" unicode="&#x2205;" horiz-adv-x="1351" 
d="M1299 1032l-157 -156q108 -147 108 -335q0 -156 -77 -289t-209.5 -210t-287.5 -77q-187 0 -336 108l-158 -157l-130 130l157 157q-109 150 -109 338q0 155 77.5 287t210 209t288.5 77q189 0 336 -108l157 157zM433 541q0 -47 17 -98l332 333q-50 28 -106 28
q-100 0 -171.5 -76.5t-71.5 -186.5zM918 541q0 48 -16 94l-334 -333q52 -27 108 -27q99 0 170.5 78t71.5 188z" />
    <glyph glyph-name="uni2206" unicode="&#x2206;" horiz-adv-x="1462" 
d="M1115 1475l233 -1172l-54 -303h-1318l54 303l654 1172h431zM460 340h501l-126 704z" />
    <glyph glyph-name="product" unicode="&#x220f;" horiz-adv-x="1848" 
d="M1586 1475v-1772h-379v1436h-550v-1436h-378v1772h1307z" />
    <glyph glyph-name="summation" unicode="&#x2211;" horiz-adv-x="1570" 
d="M279 -297v283l535 615l-535 591v283h1061v-336h-550l382 -418v-240l-382 -442h573v-336h-1084z" />
    <glyph glyph-name="minus" unicode="&#x2212;" 
d="M97 443l51 292h1000l-51 -292h-1000z" />
    <glyph glyph-name="uni2215" unicode="&#x2215;" horiz-adv-x="1191" 
d="M-76 0l1124 1475h303l-1124 -1475h-303z" />
    <glyph glyph-name="uni2219" unicode="&#x2219;" 
d="M627 434q-74 0 -127 53t-53 126t53.5 126.5t126.5 53.5t125.5 -53t52.5 -127q0 -73 -52.5 -126t-125.5 -53z" />
    <glyph glyph-name="radical" unicode="&#x221a;" horiz-adv-x="1346" 
d="M1098 1475h395l-648 -1772h-405l-396 992l342 112l253 -666z" />
    <glyph glyph-name="infinity" unicode="&#x221e;" horiz-adv-x="1926" 
d="M1390 1038q202 0 334.5 -132t132.5 -353t-132.5 -353t-334.5 -132q-127 0 -231 63t-200 172q-96 -109 -200 -172t-231 -63q-196 0 -326 132t-130 353t130 353t326 132q127 0 231 -63t200 -172q96 109 200 172t231 63zM555 393q51 0 101 41t110 119q-60 78 -110 119
t-101 41q-60 0 -97.5 -39t-37.5 -121t37.5 -121t97.5 -39zM1364 393q66 0 105.5 39t39.5 121t-39.5 121t-105.5 39q-51 0 -100.5 -40.5t-111.5 -119.5q62 -79 111.5 -119.5t100.5 -40.5z" />
    <glyph glyph-name="integral" unicode="&#x222b;" horiz-adv-x="823" 
d="M266 -331q-127 0 -253 30l55 297q62 -14 94 -14q72 0 72 78v1121q0 90 28 156t77 102t106.5 52.5t125.5 16.5q131 0 253 -29l-54 -297q-56 13 -94 13q-72 0 -72 -78v-1120q0 -73 -19 -130.5t-50.5 -94t-76 -60t-91.5 -33.5t-101 -10z" />
    <glyph glyph-name="approxequal" unicode="&#x2248;" 
d="M287 624l-157 227q189 170 362 170q99 0 215 -58q77 -40 127 -40q87 0 191 104l156 -227q-187 -170 -362 -170q-102 0 -214 58q-75 40 -127 40q-89 0 -191 -104zM222 162l-155 227q189 170 360 170q44 0 86.5 -10t67 -20.5t61.5 -28.5q77 -40 127 -40q90 0 192 104
l155 -227q-187 -170 -361 -170q-104 0 -214 59q-78 40 -127 40q-88 0 -192 -104z" />
    <glyph glyph-name="notequal" unicode="&#x2260;" 
d="M1135 662h-287l-81 -151h341l-51 -292h-449l-110 -204h-386l110 204h-165l52 292h272l81 151h-327l51 291h435l110 204h386l-110 -204h179z" />
    <glyph glyph-name="lessequal" unicode="&#x2264;" 
d="M1111 357l-942 326l58 333l1057 326l-55 -315l-729 -188l662 -189zM49 0l51 292h1000l-51 -292h-1000z" />
    <glyph glyph-name="greaterequal" unicode="&#x2265;" 
d="M52 357l56 315l729 188l-664 189l52 293l942 -326l-58 -333zM-11 0l51 292h999l-51 -292h-999z" />
    <glyph glyph-name="uni2300" unicode="&#x2300;" horiz-adv-x="1351" 
d="M1299 1032l-157 -156q108 -147 108 -335q0 -156 -77 -289t-209.5 -210t-287.5 -77q-187 0 -336 108l-158 -157l-130 130l157 157q-109 150 -109 338q0 155 77.5 287t210 209t288.5 77q189 0 336 -108l157 157zM433 541q0 -47 17 -98l332 333q-50 28 -106 28
q-100 0 -171.5 -76.5t-71.5 -186.5zM918 541q0 48 -16 94l-334 -333q52 -27 108 -27q99 0 170.5 78t71.5 188z" />
    <glyph glyph-name="uni2460" unicode="&#x2460;" horiz-adv-x="2150" 
d="M1149 1662q184 0 344.5 -61t275.5 -169t181 -262.5t66 -334.5q0 -209 -76.5 -397t-209.5 -325t-323 -217.5t-406 -80.5q-184 0 -344.5 61t-275.5 169t-181 262.5t-66 334.5q0 209 76.5 397t209.5 325t323 217.5t406 80.5zM1011 57q158 0 297 61.5t236 164t153 241
t56 289.5q0 179 -79 317.5t-218.5 213.5t-315.5 75q-158 0 -297.5 -61t-236.5 -164t-153 -241t-56 -289q0 -179 79.5 -318t219 -214t315.5 -75zM1314 1212l-163 -924h-255l109 616l-174 -135l-123 155l370 288h236z" />
    <glyph glyph-name="uni2461" unicode="&#x2461;" horiz-adv-x="2150" 
d="M1149 1662q184 0 344.5 -61t275.5 -169t181 -262.5t66 -334.5q0 -209 -76.5 -397t-209.5 -325t-323 -217.5t-406 -80.5q-184 0 -344.5 61t-275.5 169t-181 262.5t-66 334.5q0 209 76.5 397t209.5 325t323 217.5t406 80.5zM1011 57q158 0 297 61.5t236 164t153 241
t56 289.5q0 179 -79 317.5t-218.5 213.5t-315.5 75q-158 0 -297.5 -61t-236.5 -164t-153 -241t-56 -289q0 -179 79.5 -318t219 -214t315.5 -75zM1438 963q0 -89 -49 -162t-164 -174l-144 -125h327l-37 -214h-688l36 199l330 288q83 74 108 105.5t25 69.5q0 30 -20 47.5
t-53 17.5q-96 0 -150 -141l-224 76q64 148 160.5 217t234.5 69q140 0 224 -73t84 -200z" />
    <glyph glyph-name="uni2462" unicode="&#x2462;" horiz-adv-x="2150" 
d="M1149 1662q184 0 344.5 -61t275.5 -169t181 -262.5t66 -334.5q0 -209 -76.5 -397t-209.5 -325t-323 -217.5t-406 -80.5q-184 0 -344.5 61t-275.5 169t-181 262.5t-66 334.5q0 209 76.5 397t209.5 325t323 217.5t406 80.5zM1011 57q158 0 297 61.5t236 164t153 241
t56 289.5q0 179 -79 317.5t-218.5 213.5t-315.5 75q-158 0 -297.5 -61t-236.5 -164t-153 -241t-56 -289q0 -179 79.5 -318t219 -214t315.5 -75zM1425 968q0 -153 -146 -220q105 -58 105 -179q0 -138 -105 -221t-266 -83q-137 0 -236 70t-129 187l228 78q31 -116 141 -116
q53 0 82.5 26t29.5 65q0 35 -21 56t-62 21h-103l34 188h71q55 0 85.5 30t30.5 74q0 35 -22 54t-62 19q-99 0 -143 -117l-216 72q49 132 148 197.5t239 65.5q141 0 229 -73.5t88 -193.5z" />
    <glyph glyph-name="uni2463" unicode="&#x2463;" horiz-adv-x="2150" 
d="M1149 1662q184 0 344.5 -61t275.5 -169t181 -262.5t66 -334.5q0 -209 -76.5 -397t-209.5 -325t-323 -217.5t-406 -80.5q-184 0 -344.5 61t-275.5 169t-181 262.5t-66 334.5q0 209 76.5 397t209.5 325t323 217.5t406 80.5zM1011 57q158 0 297 61.5t236 164t153 241
t56 289.5q0 179 -79 317.5t-218.5 213.5t-315.5 75q-158 0 -297.5 -61t-236.5 -164t-153 -241t-56 -289q0 -179 79.5 -318t219 -214t315.5 -75zM1375 1212l-93 -531h113l-37 -213h-114l-32 -180h-255l32 180h-395l37 207l465 537h279zM874 681h153l41 233z" />
    <glyph glyph-name="uni2464" unicode="&#x2464;" horiz-adv-x="2150" 
d="M1149 1662q184 0 344.5 -61t275.5 -169t181 -262.5t66 -334.5q0 -209 -76.5 -397t-209.5 -325t-323 -217.5t-406 -80.5q-184 0 -344.5 61t-275.5 169t-181 262.5t-66 334.5q0 209 76.5 397t209.5 325t323 217.5t406 80.5zM1011 57q158 0 297 61.5t236 164t153 241
t56 289.5q0 179 -79 317.5t-218.5 213.5t-315.5 75q-158 0 -297.5 -61t-236.5 -164t-153 -241t-56 -289q0 -179 79.5 -318t219 -214t315.5 -75zM1382 1001h-381l-30 -118q67 36 143 36q116 0 192.5 -82.5t76.5 -208.5q0 -164 -113 -263t-290 -99q-136 0 -223.5 61
t-115.5 151l222 105q14 -46 48.5 -71t78.5 -25q61 0 97.5 40t36.5 94q0 43 -29 69.5t-73 26.5q-71 0 -115 -69h-225l145 564h592z" />
    <glyph glyph-name="uni2465" unicode="&#x2465;" horiz-adv-x="2150" 
d="M1149 1662q184 0 344.5 -61t275.5 -169t181 -262.5t66 -334.5q0 -209 -76.5 -397t-209.5 -325t-323 -217.5t-406 -80.5q-184 0 -344.5 61t-275.5 169t-181 262.5t-66 334.5q0 209 76.5 397t209.5 325t323 217.5t406 80.5zM1011 57q158 0 297 61.5t236 164t153 241
t56 289.5q0 179 -79 317.5t-218.5 213.5t-315.5 75q-158 0 -297.5 -61t-236.5 -164t-153 -241t-56 -289q0 -179 79.5 -318t219 -214t315.5 -75zM1135 1017q-69 0 -119.5 -47t-69.5 -130q73 50 173 50q127 0 210.5 -78.5t83.5 -197.5q0 -156 -108 -252.5t-271 -96.5
q-95 0 -170.5 37.5t-121.5 105.5q-65 95 -65 251q0 62 12 137q33 197 152.5 318t303.5 121q216 0 322 -176l-191 -126q-50 84 -141 84zM1062 701q-58 0 -94 -36.5t-36 -90.5q0 -46 28.5 -74t75.5 -28q58 0 94 36.5t36 90.5q0 46 -29 74t-75 28z" />
    <glyph glyph-name="uni2466" unicode="&#x2466;" horiz-adv-x="2150" 
d="M1149 1662q184 0 344.5 -61t275.5 -169t181 -262.5t66 -334.5q0 -209 -76.5 -397t-209.5 -325t-323 -217.5t-406 -80.5q-184 0 -344.5 61t-275.5 169t-181 262.5t-66 334.5q0 209 76.5 397t209.5 325t323 217.5t406 80.5zM1011 57q158 0 297 61.5t236 164t153 241
t56 289.5q0 179 -79 317.5t-218.5 213.5t-315.5 75q-158 0 -297.5 -61t-236.5 -164t-153 -241t-56 -289q0 -179 79.5 -318t219 -214t315.5 -75zM770 999l38 213h686l-37 -206q-163 -154 -268.5 -343t-115.5 -375h-270q22 208 123.5 394.5t262.5 316.5h-419z" />
    <glyph glyph-name="uni2467" unicode="&#x2467;" horiz-adv-x="2150" 
d="M1149 1662q184 0 344.5 -61t275.5 -169t181 -262.5t66 -334.5q0 -209 -76.5 -397t-209.5 -325t-323 -217.5t-406 -80.5q-184 0 -344.5 61t-275.5 169t-181 262.5t-66 334.5q0 209 76.5 397t209.5 325t323 217.5t406 80.5zM1011 57q158 0 297 61.5t236 164t153 241
t56 289.5q0 179 -79 317.5t-218.5 213.5t-315.5 75q-158 0 -297.5 -61t-236.5 -164t-153 -241t-56 -289q0 -179 79.5 -318t219 -214t315.5 -75zM1436 981q0 -73 -45.5 -132t-117.5 -87q63 -24 99.5 -75t36.5 -122q0 -137 -101 -218.5t-277 -81.5q-159 0 -262 71.5
t-103 189.5q0 182 190 253q-106 60 -106 178q0 124 100 201t262 77q145 0 234.5 -76t89.5 -178zM1084 844q51 0 83 29.5t32 75.5q0 40 -27.5 64.5t-72.5 24.5q-51 0 -83.5 -29.5t-32.5 -75.5q0 -40 28 -64.5t73 -24.5zM1030 464q58 0 94 30.5t36 79.5q0 44 -30 69.5
t-82 25.5q-60 0 -97.5 -31t-37.5 -80q0 -43 32 -68.5t85 -25.5z" />
    <glyph glyph-name="uni2468" unicode="&#x2468;" horiz-adv-x="2150" 
d="M1149 1662q184 0 344.5 -61t275.5 -169t181 -262.5t66 -334.5q0 -209 -76.5 -397t-209.5 -325t-323 -217.5t-406 -80.5q-184 0 -344.5 61t-275.5 169t-181 262.5t-66 334.5q0 209 76.5 397t209.5 325t323 217.5t406 80.5zM1011 57q158 0 297 61.5t236 164t153 241
t56 289.5q0 179 -79 317.5t-218.5 213.5t-315.5 75q-158 0 -297.5 -61t-236.5 -164t-153 -241t-56 -289q0 -179 79.5 -318t219 -214t315.5 -75zM1110 1235q95 0 170 -37.5t122 -105.5q65 -95 65 -252q0 -58 -12 -135q-35 -206 -150.5 -323t-284.5 -117q-210 0 -331 176
l179 133q67 -92 154 -92q66 0 112 50t63 136q-70 -48 -167 -48q-128 0 -213.5 77t-85.5 196q0 156 107.5 249t271.5 93zM1082 808q58 0 93 33.5t35 87.5q0 45 -28.5 72t-76.5 27q-58 0 -92.5 -34.5t-34.5 -88.5q0 -45 28.5 -71t75.5 -26z" />
    <glyph glyph-name="uni24EA" unicode="&#x24ea;" horiz-adv-x="2150" 
d="M1001 -185q-184 0 -344.5 61t-275.5 169t-181 262.5t-66 334.5q0 209 76.5 397t209.5 325t323 217.5t406 80.5q184 0 344.5 -61t275.5 -169t181 -262.5t66 -334.5q0 -209 -76.5 -397t-209.5 -325t-323 -217.5t-406 -80.5zM1011 57q158 0 297 61.5t236 164t153 241
t56 289.5q0 179 -79 317.5t-218.5 213.5t-315.5 75q-158 0 -297.5 -61t-236.5 -164t-153 -241t-56 -289q0 -179 79.5 -318t219 -214t315.5 -75zM1018 265q-169 0 -264.5 106.5t-95.5 294.5q0 159 50 286t154 205.5t247 78.5q169 0 263.5 -105.5t94.5 -294.5q0 -94 -18 -179
t-55 -156.5t-90 -124t-126.5 -82t-159.5 -29.5zM1030 492q58 0 100.5 55t60.5 129t18 151q0 88 -29 135.5t-84 47.5q-57 0 -100 -55.5t-61.5 -130t-18.5 -151.5q0 -87 29.5 -134t84.5 -47z" />
    <glyph glyph-name="uni24FF" unicode="&#x24ff;" horiz-adv-x="2148" 
d="M1000 -185q-184 0 -344.5 61t-275.5 169t-181 262.5t-66 334.5q0 209 76.5 397t209.5 325t323 217.5t406 80.5q184 0 344.5 -61t275.5 -169t181 -262.5t66 -334.5q0 -209 -76.5 -397t-209.5 -325t-323 -217.5t-406 -80.5zM1022 264q110 0 198 45t144.5 123t86 180.5
t29.5 221.5q0 190 -97.5 296.5t-271.5 106.5q-110 0 -198 -45t-144.5 -123t-86 -180.5t-29.5 -220.5q0 -190 98 -297t271 -107zM1036 510q-49 0 -75.5 42.5t-26.5 122.5q0 52 10 105.5t29 101.5t51.5 78.5t72.5 30.5q49 0 75.5 -42.5t26.5 -123.5q0 -52 -10 -105t-29 -101
t-51.5 -78.5t-72.5 -30.5z" />
    <glyph glyph-name="filledbox" unicode="&#x25a0;" horiz-adv-x="1843" 
d="M184 0v1475h1475v-1475h-1475z" />
    <glyph glyph-name="uni25A1" unicode="&#x25a1;" horiz-adv-x="1843" 
d="M184 0v1475h1475v-1475h-1475zM545 343h753v789h-753v-789z" />
    <glyph glyph-name="uni25AE" unicode="&#x25ae;" horiz-adv-x="1105" 
d="M184 0v1475h738v-1475h-738z" />
    <glyph glyph-name="uni25AF" unicode="&#x25af;" horiz-adv-x="1105" 
d="M184 0v1475h738v-1475h-738zM453 259h200v956h-200v-956z" />
    <glyph glyph-name="triagup" unicode="&#x25b2;" horiz-adv-x="1843" 
d="M82 0l840 1495l839 -1495h-1679z" />
    <glyph glyph-name="uni25B3" unicode="&#x25b3;" horiz-adv-x="1843" 
d="M82 0l840 1495l839 -1495h-1679zM687 344h469l-234 434z" />
    <glyph glyph-name="uni25C6" unicode="&#x25c6;" horiz-adv-x="1843" 
d="M922 -52l-790 789l790 790l789 -790z" />
    <glyph glyph-name="uni25C7" unicode="&#x25c7;" horiz-adv-x="1843" 
d="M922 -52l-790 789l790 790l789 -790zM922 411l326 326l-326 327l-327 -327z" />
    <glyph glyph-name="lozenge" unicode="&#x25ca;" 
d="M774 1475l420 -738l-420 -737h-319l-420 737l420 738h319zM614 354l200 383l-200 383l-199 -383z" />
    <glyph glyph-name="circle" unicode="&#x25cb;" horiz-adv-x="1843" 
d="M923 -39q-158 0 -302 61.5t-248.5 165.5t-166 247.5t-61.5 301.5t61.5 301.5t166 247.5t248.5 165.5t302 61.5q157 0 300.5 -61.5t247.5 -165.5t165.5 -247.5t61.5 -301.5t-61.5 -301.5t-165.5 -247.5t-247.5 -165.5t-300.5 -61.5zM923 309q171 0 288 123.5t117 304.5
t-117 304.5t-288 123.5q-172 0 -290 -123.5t-118 -304.5t118 -304.5t290 -123.5z" />
    <glyph glyph-name="uni25CF" unicode="&#x25cf;" horiz-adv-x="1843" 
d="M923 -39q-158 0 -302 61.5t-248.5 165.5t-166 247.5t-61.5 301.5t61.5 301.5t166 247.5t248.5 165.5t302 61.5q157 0 300.5 -61.5t247.5 -165.5t165.5 -247.5t61.5 -301.5t-61.5 -301.5t-165.5 -247.5t-247.5 -165.5t-300.5 -61.5z" />
    <glyph glyph-name="uni2605" unicode="&#x2605;" horiz-adv-x="1843" 
d="M367 -72l218 654l-514 376h640l211 629l211 -629h640l-515 -376l219 -654l-555 407z" />
    <glyph glyph-name="uni2606" unicode="&#x2606;" horiz-adv-x="1843" 
d="M367 -72l218 654l-514 376h640l211 629l211 -629h640l-515 -376l219 -654l-555 407zM718 404l204 151l203 -151l-79 242l174 127h-216l-82 244l-82 -244h-216l174 -127z" />
    <glyph glyph-name="uni2661" unicode="&#x2661;" horiz-adv-x="1843" 
d="M1273 1499q117 0 216.5 -56t160 -160t60.5 -233q0 -119 -40.5 -238.5t-109.5 -225.5t-171.5 -215t-215 -203.5t-251.5 -193.5q-139 100 -251.5 194t-215 203t-172 215t-110 225.5t-40.5 238.5q0 129 60.5 233t160 160t216.5 56q125 0 219 -59.5t133 -134.5
q39 75 132.5 134.5t218.5 59.5zM922 304q243 172 372 356.5t129 361.5q0 94 -59 150.5t-138 56.5q-176 0 -303 -314h-2q-127 314 -304 314q-79 0 -138 -56.5t-59 -150.5q0 -177 129.5 -361.5t372.5 -356.5z" />
    <glyph glyph-name="uni2714" unicode="&#x2714;" horiz-adv-x="1843" 
d="M816 -55l-766 534l203 283l455 -318l773 1086l311 -217z" />
    <glyph glyph-name="uni2718" unicode="&#x2718;" horiz-adv-x="1843" 
d="M1714 1268l-530 -531l530 -531l-262 -261l-530 530l-531 -530l-261 261l530 531l-530 531l262 262l531 -531l529 531z" />
    <glyph glyph-name="uni2764" unicode="&#x2764;" horiz-adv-x="1843" 
d="M1275 1499q180 0 307.5 -127t127.5 -322q0 -119 -40.5 -238.5t-109.5 -225.5t-171.5 -215t-215 -203.5t-251.5 -193.5q-139 100 -251.5 194t-215 203t-172 215t-110 225.5t-40.5 238.5q0 195 127.5 322t307.5 127q126 0 220.5 -59.5t133.5 -134.5q39 75 133 134.5
t220 59.5z" />
    <glyph glyph-name="uni2776" unicode="&#x2776;" horiz-adv-x="2148" 
d="M1000 -185q-184 0 -344.5 61t-275.5 169t-181 262.5t-66 334.5q0 209 76.5 397t209.5 325t323 217.5t406 80.5q184 0 344.5 -61t275.5 -169t181 -262.5t66 -334.5q0 -209 -76.5 -397t-209.5 -325t-323 -217.5t-406 -80.5zM897 288h277l162 924h-256l-384 -300l134 -167
l171 134z" />
    <glyph glyph-name="uni2777" unicode="&#x2777;" horiz-adv-x="2148" 
d="M1000 -185q-184 0 -344.5 61t-275.5 169t-181 262.5t-66 334.5q0 209 76.5 397t209.5 325t323 217.5t406 80.5q184 0 344.5 -61t275.5 -169t181 -262.5t66 -334.5q0 -209 -76.5 -397t-209.5 -325t-323 -217.5t-406 -80.5zM680 288h700l41 231h-309l125 107
q110 94 159.5 167t49.5 163q0 132 -85.5 206.5t-228.5 74.5q-142 0 -240 -70t-165 -221l244 -83q50 133 137 133q59 0 59 -53q0 -36 -24 -66t-95 -91l-329 -282z" />
    <glyph glyph-name="uni2778" unicode="&#x2778;" horiz-adv-x="2148" 
d="M1000 -185q-184 0 -344.5 61t-275.5 169t-181 262.5t-66 334.5q0 209 76.5 397t209.5 325t323 217.5t406 80.5q184 0 344.5 -61t275.5 -169t181 -262.5t66 -334.5q0 -209 -76.5 -397t-209.5 -325t-323 -217.5t-406 -80.5zM1014 264q164 0 272 83t108 224q0 118 -102 174
q143 66 143 219q0 123 -90.5 198t-235.5 75q-144 0 -245.5 -66.5t-149.5 -202.5l233 -77q39 109 131 109q73 0 73 -62q0 -40 -27 -66.5t-77 -26.5h-73l-35 -202h107q35 0 52.5 -17.5t17.5 -46.5q0 -34 -25 -55.5t-73 -21.5q-46 0 -80.5 26t-48.5 82l-247 -83
q31 -119 132 -191t240 -72z" />
    <glyph glyph-name="uni2779" unicode="&#x2779;" horiz-adv-x="2148" 
d="M1000 -185q-184 0 -344.5 61t-275.5 169t-181 262.5t-66 334.5q0 209 76.5 397t209.5 325t323 217.5t406 80.5q184 0 344.5 -61t275.5 -169t181 -262.5t66 -334.5q0 -209 -76.5 -397t-209.5 -325t-323 -217.5t-406 -80.5zM944 288h278l30 176h111l41 231h-111l91 517
h-304l-452 -524l-39 -224h386zM891 695l159 194l-34 -194h-125z" />
    <glyph glyph-name="uni277A" unicode="&#x277a;" horiz-adv-x="2148" 
d="M1000 -185q-184 0 -344.5 61t-275.5 169t-181 262.5t-66 334.5q0 209 76.5 397t209.5 325t323 217.5t406 80.5q184 0 344.5 -61t275.5 -169t181 -262.5t66 -334.5q0 -209 -76.5 -397t-209.5 -325t-323 -217.5t-406 -80.5zM980 264q181 0 297 99.5t116 264.5
q0 126 -77.5 209.5t-192.5 83.5q-67 0 -138 -33l26 95h378l39 229h-607l-147 -572h244q39 62 102 62q38 0 64.5 -22t26.5 -59q0 -46 -32 -81t-87 -35q-40 0 -71 22.5t-43 65.5l-242 -114q28 -90 116 -152.5t228 -62.5z" />
    <glyph glyph-name="uni277B" unicode="&#x277b;" horiz-adv-x="2148" 
d="M1000 -185q-184 0 -344.5 61t-275.5 169t-181 262.5t-66 334.5q0 209 76.5 397t209.5 325t323 217.5t406 80.5q184 0 344.5 -61t275.5 -169t181 -262.5t66 -334.5q0 -209 -76.5 -397t-209.5 -325t-323 -217.5t-406 -80.5zM1039 264q166 0 275.5 96t109.5 253
q0 120 -84 198t-213 78q-92 0 -164 -44l3 13q21 69 67.5 105.5t104.5 36.5q87 0 136 -79l208 138q-112 178 -333 178q-187 0 -309.5 -120.5t-155.5 -314.5q-12 -74 -12 -134q0 -162 69 -261q47 -67 124 -105t174 -38zM1041 487q-41 0 -67 25.5t-26 65.5q0 46 32 77.5
t83 31.5q41 0 67.5 -25t26.5 -65q0 -46 -32.5 -78t-83.5 -32z" />
    <glyph glyph-name="uni277C" unicode="&#x277c;" horiz-adv-x="2148" 
d="M1000 -185q-184 0 -344.5 61t-275.5 169t-181 262.5t-66 334.5q0 209 76.5 397t209.5 325t323 217.5t406 80.5q184 0 344.5 -61t275.5 -169t181 -262.5t66 -334.5q0 -209 -76.5 -397t-209.5 -325t-323 -217.5t-406 -80.5zM790 288h293q7 175 114 364.5t263 334.5l40 225
h-697l-41 -231h406q-152 -120 -255 -307t-123 -386z" />
    <glyph glyph-name="uni277D" unicode="&#x277d;" horiz-adv-x="2148" 
d="M1000 -185q-184 0 -344.5 61t-275.5 169t-181 262.5t-66 334.5q0 209 76.5 397t209.5 325t323 217.5t406 80.5q184 0 344.5 -61t275.5 -169t181 -262.5t66 -334.5q0 -209 -76.5 -397t-209.5 -325t-323 -217.5t-406 -80.5zM1033 264q179 0 281.5 82.5t102.5 219.5
q0 70 -36 121t-99 75q71 28 116 86.5t45 130.5q0 102 -91.5 180t-239.5 78q-165 0 -264.5 -77t-99.5 -203q0 -116 101 -177q-189 -72 -189 -253q0 -119 105.5 -191t267.5 -72zM1086 851q-40 0 -65 21.5t-25 58.5q0 41 28.5 67t73.5 26q40 0 64.5 -22t24.5 -59
q0 -41 -28 -66.5t-73 -25.5zM1032 479q-46 0 -74.5 23t-28.5 62q0 43 33 70.5t85 27.5q46 0 73 -23t27 -61q0 -43 -31.5 -71t-83.5 -28z" />
    <glyph glyph-name="uni277E" unicode="&#x277e;" horiz-adv-x="2148" 
d="M1000 -185q-184 0 -344.5 61t-275.5 169t-181 262.5t-66 334.5q0 209 76.5 397t209.5 325t323 217.5t406 80.5q184 0 344.5 -61t275.5 -169t181 -262.5t66 -334.5q0 -209 -76.5 -397t-209.5 -325t-323 -217.5t-406 -80.5zM1023 264q171 0 290.5 115.5t152.5 319.5
q13 82 13 134q0 162 -70 261q-47 67 -124 105t-173 38q-167 0 -276.5 -92.5t-109.5 -249.5q0 -119 86.5 -196t216.5 -77q90 0 159 41q-3 -15 -8 -31q-21 -64 -62 -98t-94 -34q-81 0 -148 87l-192 -148q127 -175 339 -175zM1087 823q-43 0 -68 22.5t-25 62.5q0 46 30.5 75.5
t82.5 29.5q42 0 68 -23t26 -63q0 -46 -31 -75t-83 -29z" />
    <glyph glyph-name="uni2780" unicode="&#x2780;" horiz-adv-x="2150" 
d="M1149 1662q184 0 344.5 -61t275.5 -169t181 -262.5t66 -334.5q0 -209 -76.5 -397t-209.5 -325t-323 -217.5t-406 -80.5q-184 0 -344.5 61t-275.5 169t-181 262.5t-66 334.5q0 209 76.5 397t209.5 325t323 217.5t406 80.5zM1011 57q158 0 297 61.5t236 164t153 241
t56 289.5q0 179 -79 317.5t-218.5 213.5t-315.5 75q-158 0 -297.5 -61t-236.5 -164t-153 -241t-56 -289q0 -179 79.5 -318t219 -214t315.5 -75zM1314 1212l-163 -924h-255l109 616l-174 -135l-123 155l370 288h236z" />
    <glyph glyph-name="uni2781" unicode="&#x2781;" horiz-adv-x="2150" 
d="M1149 1662q184 0 344.5 -61t275.5 -169t181 -262.5t66 -334.5q0 -209 -76.5 -397t-209.5 -325t-323 -217.5t-406 -80.5q-184 0 -344.5 61t-275.5 169t-181 262.5t-66 334.5q0 209 76.5 397t209.5 325t323 217.5t406 80.5zM1011 57q158 0 297 61.5t236 164t153 241
t56 289.5q0 179 -79 317.5t-218.5 213.5t-315.5 75q-158 0 -297.5 -61t-236.5 -164t-153 -241t-56 -289q0 -179 79.5 -318t219 -214t315.5 -75zM1438 963q0 -89 -49 -162t-164 -174l-144 -125h327l-37 -214h-688l36 199l330 288q83 74 108 105.5t25 69.5q0 30 -20 47.5
t-53 17.5q-96 0 -150 -141l-224 76q64 148 160.5 217t234.5 69q140 0 224 -73t84 -200z" />
    <glyph glyph-name="uni2782" unicode="&#x2782;" horiz-adv-x="2150" 
d="M1149 1662q184 0 344.5 -61t275.5 -169t181 -262.5t66 -334.5q0 -209 -76.5 -397t-209.5 -325t-323 -217.5t-406 -80.5q-184 0 -344.5 61t-275.5 169t-181 262.5t-66 334.5q0 209 76.5 397t209.5 325t323 217.5t406 80.5zM1011 57q158 0 297 61.5t236 164t153 241
t56 289.5q0 179 -79 317.5t-218.5 213.5t-315.5 75q-158 0 -297.5 -61t-236.5 -164t-153 -241t-56 -289q0 -179 79.5 -318t219 -214t315.5 -75zM1425 968q0 -153 -146 -220q105 -58 105 -179q0 -138 -105 -221t-266 -83q-137 0 -236 70t-129 187l228 78q31 -116 141 -116
q53 0 82.5 26t29.5 65q0 35 -21 56t-62 21h-103l34 188h71q55 0 85.5 30t30.5 74q0 35 -22 54t-62 19q-99 0 -143 -117l-216 72q49 132 148 197.5t239 65.5q141 0 229 -73.5t88 -193.5z" />
    <glyph glyph-name="uni2783" unicode="&#x2783;" horiz-adv-x="2150" 
d="M1149 1662q184 0 344.5 -61t275.5 -169t181 -262.5t66 -334.5q0 -209 -76.5 -397t-209.5 -325t-323 -217.5t-406 -80.5q-184 0 -344.5 61t-275.5 169t-181 262.5t-66 334.5q0 209 76.5 397t209.5 325t323 217.5t406 80.5zM1011 57q158 0 297 61.5t236 164t153 241
t56 289.5q0 179 -79 317.5t-218.5 213.5t-315.5 75q-158 0 -297.5 -61t-236.5 -164t-153 -241t-56 -289q0 -179 79.5 -318t219 -214t315.5 -75zM1375 1212l-93 -531h113l-37 -213h-114l-32 -180h-255l32 180h-395l37 207l465 537h279zM874 681h153l41 233z" />
    <glyph glyph-name="uni2784" unicode="&#x2784;" horiz-adv-x="2150" 
d="M1149 1662q184 0 344.5 -61t275.5 -169t181 -262.5t66 -334.5q0 -209 -76.5 -397t-209.5 -325t-323 -217.5t-406 -80.5q-184 0 -344.5 61t-275.5 169t-181 262.5t-66 334.5q0 209 76.5 397t209.5 325t323 217.5t406 80.5zM1011 57q158 0 297 61.5t236 164t153 241
t56 289.5q0 179 -79 317.5t-218.5 213.5t-315.5 75q-158 0 -297.5 -61t-236.5 -164t-153 -241t-56 -289q0 -179 79.5 -318t219 -214t315.5 -75zM1382 1001h-381l-30 -118q67 36 143 36q116 0 192.5 -82.5t76.5 -208.5q0 -164 -113 -263t-290 -99q-136 0 -223.5 61
t-115.5 151l222 105q14 -46 48.5 -71t78.5 -25q61 0 97.5 40t36.5 94q0 43 -29 69.5t-73 26.5q-71 0 -115 -69h-225l145 564h592z" />
    <glyph glyph-name="uni2785" unicode="&#x2785;" horiz-adv-x="2150" 
d="M1149 1662q184 0 344.5 -61t275.5 -169t181 -262.5t66 -334.5q0 -209 -76.5 -397t-209.5 -325t-323 -217.5t-406 -80.5q-184 0 -344.5 61t-275.5 169t-181 262.5t-66 334.5q0 209 76.5 397t209.5 325t323 217.5t406 80.5zM1011 57q158 0 297 61.5t236 164t153 241
t56 289.5q0 179 -79 317.5t-218.5 213.5t-315.5 75q-158 0 -297.5 -61t-236.5 -164t-153 -241t-56 -289q0 -179 79.5 -318t219 -214t315.5 -75zM1135 1017q-69 0 -119.5 -47t-69.5 -130q73 50 173 50q127 0 210.5 -78.5t83.5 -197.5q0 -156 -108 -252.5t-271 -96.5
q-95 0 -170.5 37.5t-121.5 105.5q-65 95 -65 251q0 62 12 137q33 197 152.5 318t303.5 121q216 0 322 -176l-191 -126q-50 84 -141 84zM1062 701q-58 0 -94 -36.5t-36 -90.5q0 -46 28.5 -74t75.5 -28q58 0 94 36.5t36 90.5q0 46 -29 74t-75 28z" />
    <glyph glyph-name="uni2786" unicode="&#x2786;" horiz-adv-x="2150" 
d="M1149 1662q184 0 344.5 -61t275.5 -169t181 -262.5t66 -334.5q0 -209 -76.5 -397t-209.5 -325t-323 -217.5t-406 -80.5q-184 0 -344.5 61t-275.5 169t-181 262.5t-66 334.5q0 209 76.5 397t209.5 325t323 217.5t406 80.5zM1011 57q158 0 297 61.5t236 164t153 241
t56 289.5q0 179 -79 317.5t-218.5 213.5t-315.5 75q-158 0 -297.5 -61t-236.5 -164t-153 -241t-56 -289q0 -179 79.5 -318t219 -214t315.5 -75zM770 999l38 213h686l-37 -206q-163 -154 -268.5 -343t-115.5 -375h-270q22 208 123.5 394.5t262.5 316.5h-419z" />
    <glyph glyph-name="uni2787" unicode="&#x2787;" horiz-adv-x="2150" 
d="M1149 1662q184 0 344.5 -61t275.5 -169t181 -262.5t66 -334.5q0 -209 -76.5 -397t-209.5 -325t-323 -217.5t-406 -80.5q-184 0 -344.5 61t-275.5 169t-181 262.5t-66 334.5q0 209 76.5 397t209.5 325t323 217.5t406 80.5zM1011 57q158 0 297 61.5t236 164t153 241
t56 289.5q0 179 -79 317.5t-218.5 213.5t-315.5 75q-158 0 -297.5 -61t-236.5 -164t-153 -241t-56 -289q0 -179 79.5 -318t219 -214t315.5 -75zM1436 981q0 -73 -45.5 -132t-117.5 -87q63 -24 99.5 -75t36.5 -122q0 -137 -101 -218.5t-277 -81.5q-159 0 -262 71.5
t-103 189.5q0 182 190 253q-106 60 -106 178q0 124 100 201t262 77q145 0 234.5 -76t89.5 -178zM1084 844q51 0 83 29.5t32 75.5q0 40 -27.5 64.5t-72.5 24.5q-51 0 -83.5 -29.5t-32.5 -75.5q0 -40 28 -64.5t73 -24.5zM1030 464q58 0 94 30.5t36 79.5q0 44 -30 69.5
t-82 25.5q-60 0 -97.5 -31t-37.5 -80q0 -43 32 -68.5t85 -25.5z" />
    <glyph glyph-name="uni2788" unicode="&#x2788;" horiz-adv-x="2150" 
d="M1149 1662q184 0 344.5 -61t275.5 -169t181 -262.5t66 -334.5q0 -209 -76.5 -397t-209.5 -325t-323 -217.5t-406 -80.5q-184 0 -344.5 61t-275.5 169t-181 262.5t-66 334.5q0 209 76.5 397t209.5 325t323 217.5t406 80.5zM1011 57q158 0 297 61.5t236 164t153 241
t56 289.5q0 179 -79 317.5t-218.5 213.5t-315.5 75q-158 0 -297.5 -61t-236.5 -164t-153 -241t-56 -289q0 -179 79.5 -318t219 -214t315.5 -75zM1110 1235q95 0 170 -37.5t122 -105.5q65 -95 65 -252q0 -58 -12 -135q-35 -206 -150.5 -323t-284.5 -117q-210 0 -331 176
l179 133q67 -92 154 -92q66 0 112 50t63 136q-70 -48 -167 -48q-128 0 -213.5 77t-85.5 196q0 156 107.5 249t271.5 93zM1082 808q58 0 93 33.5t35 87.5q0 45 -28.5 72t-76.5 27q-58 0 -92.5 -34.5t-34.5 -88.5q0 -45 28.5 -71t75.5 -26z" />
    <glyph glyph-name="uni278A" unicode="&#x278a;" horiz-adv-x="2148" 
d="M1000 -185q-184 0 -344.5 61t-275.5 169t-181 262.5t-66 334.5q0 209 76.5 397t209.5 325t323 217.5t406 80.5q184 0 344.5 -61t275.5 -169t181 -262.5t66 -334.5q0 -209 -76.5 -397t-209.5 -325t-323 -217.5t-406 -80.5zM897 288h277l162 924h-256l-384 -300l134 -167
l171 134z" />
    <glyph glyph-name="uni278B" unicode="&#x278b;" horiz-adv-x="2148" 
d="M1000 -185q-184 0 -344.5 61t-275.5 169t-181 262.5t-66 334.5q0 209 76.5 397t209.5 325t323 217.5t406 80.5q184 0 344.5 -61t275.5 -169t181 -262.5t66 -334.5q0 -209 -76.5 -397t-209.5 -325t-323 -217.5t-406 -80.5zM680 288h700l41 231h-309l125 107
q110 94 159.5 167t49.5 163q0 132 -85.5 206.5t-228.5 74.5q-142 0 -240 -70t-165 -221l244 -83q50 133 137 133q59 0 59 -53q0 -36 -24 -66t-95 -91l-329 -282z" />
    <glyph glyph-name="uni278C" unicode="&#x278c;" horiz-adv-x="2148" 
d="M1000 -185q-184 0 -344.5 61t-275.5 169t-181 262.5t-66 334.5q0 209 76.5 397t209.5 325t323 217.5t406 80.5q184 0 344.5 -61t275.5 -169t181 -262.5t66 -334.5q0 -209 -76.5 -397t-209.5 -325t-323 -217.5t-406 -80.5zM1014 264q164 0 272 83t108 224q0 118 -102 174
q143 66 143 219q0 123 -90.5 198t-235.5 75q-144 0 -245.5 -66.5t-149.5 -202.5l233 -77q39 109 131 109q73 0 73 -62q0 -40 -27 -66.5t-77 -26.5h-73l-35 -202h107q35 0 52.5 -17.5t17.5 -46.5q0 -34 -25 -55.5t-73 -21.5q-46 0 -80.5 26t-48.5 82l-247 -83
q31 -119 132 -191t240 -72z" />
    <glyph glyph-name="uni278D" unicode="&#x278d;" horiz-adv-x="2148" 
d="M1000 -185q-184 0 -344.5 61t-275.5 169t-181 262.5t-66 334.5q0 209 76.5 397t209.5 325t323 217.5t406 80.5q184 0 344.5 -61t275.5 -169t181 -262.5t66 -334.5q0 -209 -76.5 -397t-209.5 -325t-323 -217.5t-406 -80.5zM944 288h278l30 176h111l41 231h-111l91 517
h-304l-452 -524l-39 -224h386zM891 695l159 194l-34 -194h-125z" />
    <glyph glyph-name="uni278E" unicode="&#x278e;" horiz-adv-x="2148" 
d="M1000 -185q-184 0 -344.5 61t-275.5 169t-181 262.5t-66 334.5q0 209 76.5 397t209.5 325t323 217.5t406 80.5q184 0 344.5 -61t275.5 -169t181 -262.5t66 -334.5q0 -209 -76.5 -397t-209.5 -325t-323 -217.5t-406 -80.5zM980 264q181 0 297 99.5t116 264.5
q0 126 -77.5 209.5t-192.5 83.5q-67 0 -138 -33l26 95h378l39 229h-607l-147 -572h244q39 62 102 62q38 0 64.5 -22t26.5 -59q0 -46 -32 -81t-87 -35q-40 0 -71 22.5t-43 65.5l-242 -114q28 -90 116 -152.5t228 -62.5z" />
    <glyph glyph-name="uni278F" unicode="&#x278f;" horiz-adv-x="2148" 
d="M1000 -185q-184 0 -344.5 61t-275.5 169t-181 262.5t-66 334.5q0 209 76.5 397t209.5 325t323 217.5t406 80.5q184 0 344.5 -61t275.5 -169t181 -262.5t66 -334.5q0 -209 -76.5 -397t-209.5 -325t-323 -217.5t-406 -80.5zM1039 264q166 0 275.5 96t109.5 253
q0 120 -84 198t-213 78q-92 0 -164 -44l3 13q21 69 67.5 105.5t104.5 36.5q87 0 136 -79l208 138q-112 178 -333 178q-187 0 -309.5 -120.5t-155.5 -314.5q-12 -74 -12 -134q0 -162 69 -261q47 -67 124 -105t174 -38zM1041 487q-41 0 -67 25.5t-26 65.5q0 46 32 77.5
t83 31.5q41 0 67.5 -25t26.5 -65q0 -46 -32.5 -78t-83.5 -32z" />
    <glyph glyph-name="uni2790" unicode="&#x2790;" horiz-adv-x="2148" 
d="M1000 -185q-184 0 -344.5 61t-275.5 169t-181 262.5t-66 334.5q0 209 76.5 397t209.5 325t323 217.5t406 80.5q184 0 344.5 -61t275.5 -169t181 -262.5t66 -334.5q0 -209 -76.5 -397t-209.5 -325t-323 -217.5t-406 -80.5zM790 288h293q7 175 114 364.5t263 334.5l40 225
h-697l-41 -231h406q-152 -120 -255 -307t-123 -386z" />
    <glyph glyph-name="uni2791" unicode="&#x2791;" horiz-adv-x="2148" 
d="M1000 -185q-184 0 -344.5 61t-275.5 169t-181 262.5t-66 334.5q0 209 76.5 397t209.5 325t323 217.5t406 80.5q184 0 344.5 -61t275.5 -169t181 -262.5t66 -334.5q0 -209 -76.5 -397t-209.5 -325t-323 -217.5t-406 -80.5zM1033 264q179 0 281.5 82.5t102.5 219.5
q0 70 -36 121t-99 75q71 28 116 86.5t45 130.5q0 102 -91.5 180t-239.5 78q-165 0 -264.5 -77t-99.5 -203q0 -116 101 -177q-189 -72 -189 -253q0 -119 105.5 -191t267.5 -72zM1086 851q-40 0 -65 21.5t-25 58.5q0 41 28.5 67t73.5 26q40 0 64.5 -22t24.5 -59
q0 -41 -28 -66.5t-73 -25.5zM1032 479q-46 0 -74.5 23t-28.5 62q0 43 33 70.5t85 27.5q46 0 73 -23t27 -61q0 -43 -31.5 -71t-83.5 -28z" />
    <glyph glyph-name="uni2792" unicode="&#x2792;" horiz-adv-x="2148" 
d="M1000 -185q-184 0 -344.5 61t-275.5 169t-181 262.5t-66 334.5q0 209 76.5 397t209.5 325t323 217.5t406 80.5q184 0 344.5 -61t275.5 -169t181 -262.5t66 -334.5q0 -209 -76.5 -397t-209.5 -325t-323 -217.5t-406 -80.5zM1023 264q171 0 290.5 115.5t152.5 319.5
q13 82 13 134q0 162 -70 261q-47 67 -124 105t-173 38q-167 0 -276.5 -92.5t-109.5 -249.5q0 -119 86.5 -196t216.5 -77q90 0 159 41q-3 -15 -8 -31q-21 -64 -62 -98t-94 -34q-81 0 -148 87l-192 -148q127 -175 339 -175zM1087 823q-43 0 -68 22.5t-25 62.5q0 46 30.5 75.5
t82.5 29.5q42 0 68 -23t26 -63q0 -46 -31 -75t-83 -29z" />
    <glyph glyph-name="uniFEFF" unicode="&#xfeff;" horiz-adv-x="0" 
 />
    <glyph glyph-name="Cacute.loclPLK" horiz-adv-x="1492" 
d="M727 1569l177 360h342l-249 -360h-270zM757 -35q-303 0 -485 182.5t-182 488.5q0 243 100.5 441.5t286 315t420.5 116.5q222 0 378.5 -102.5t231.5 -288.5l-326 -160q-52 110 -118.5 158t-173.5 48q-126 0 -221 -75.5t-141.5 -192.5t-46.5 -253q0 -155 81.5 -244
t220.5 -89q201 0 320 230l325 -172q-130 -210 -288 -306.5t-382 -96.5z" />
    <glyph glyph-name="Nacute.loclPLK" horiz-adv-x="1512" 
d="M1265 1929l-249 -360h-271l178 360h342zM1182 1475h380l-260 -1475h-416l-333 881l-155 -881h-380l261 1475h413l335 -882z" />
    <glyph glyph-name="Oacute.loclPLK" horiz-adv-x="1587" 
d="M753 1569l177 360h342l-249 -360h-270zM758 -35q-303 0 -485.5 182.5t-182.5 488.5q0 243 100.5 441.5t286.5 315t421 116.5q303 0 485 -182t182 -488q0 -145 -37.5 -278t-109 -241t-169 -188t-224 -123.5t-267.5 -43.5zM775 310q92 0 169 44t127 117.5t77.5 166.5
t27.5 193q0 154 -80.5 243.5t-213.5 89.5q-93 0 -170 -44t-127 -117t-77.5 -166t-27.5 -194q0 -154 80.5 -243.5t214.5 -89.5z" />
    <glyph glyph-name="Sacute.loclPLK" horiz-adv-x="1396" 
d="M654 1569l177 360h343l-249 -360h-271zM648 -35q-195 0 -365.5 73.5t-272.5 197.5l248 239q64 -85 174.5 -130t248.5 -45q117 0 186 36.5t69 98.5q0 57 -61 90t-194 52q-260 37 -390 154t-130 300q0 224 169 351.5t465 127.5q185 0 348 -61t270 -171l-226 -246
q-70 69 -173 106t-221 37q-107 0 -173.5 -34.5t-66.5 -93.5q0 -53 51.5 -84.5t170.5 -48.5q283 -38 418 -148t135 -307q0 -231 -182 -362.5t-498 -131.5z" />
    <glyph glyph-name="Zacute.loclPLK" horiz-adv-x="1310" 
d="M638 1569l177 360h342l-249 -360h-270zM-16 0l55 310l786 831h-634l59 334h1119l-55 -311l-790 -830h669l-58 -334h-1151z" />
    <glyph glyph-name="G.ss01" horiz-adv-x="1506" 
d="M761 -36q-305 0 -488 183t-183 489q0 182 59 342.5t164 277.5t257 185t329 68q200 0 350.5 -91t229.5 -255l-317 -175q-56 95 -119.5 136t-160.5 41q-93 0 -170 -44t-127 -117.5t-77.5 -166.5t-27.5 -194q0 -155 80.5 -244.5t219.5 -89.5q120 0 199.5 63.5t105.5 169.5
l2 9h-285l51 294h648l-50 -280q-50 -284 -223 -442.5t-467 -158.5z" />
    <glyph glyph-name="uni01F4.ss01" horiz-adv-x="1506" 
d="M717 1569l233 360h352l-305 -360h-280zM761 -36q-305 0 -488 183t-183 489q0 182 59 342.5t164 277.5t257 185t329 68q200 0 350.5 -91t229.5 -255l-317 -175q-56 95 -119.5 136t-160.5 41q-93 0 -170 -44t-127 -117.5t-77.5 -166.5t-27.5 -194q0 -155 80.5 -244.5
t219.5 -89.5q120 0 199.5 63.5t105.5 169.5l2 9h-285l51 294h648l-50 -280q-50 -284 -223 -442.5t-467 -158.5z" />
    <glyph glyph-name="Gbreve.ss01" horiz-adv-x="1506" 
d="M920 1548q-156 0 -243 98t-94 255h228q2 -70 38 -107t90 -37q57 0 100 39.5t53 104.5h243q-36 -166 -148 -259.5t-267 -93.5zM761 -36q-305 0 -488 183t-183 489q0 182 59 342.5t164 277.5t257 185t329 68q200 0 350.5 -91t229.5 -255l-317 -175q-56 95 -119.5 136
t-160.5 41q-93 0 -170 -44t-127 -117.5t-77.5 -166.5t-27.5 -194q0 -155 80.5 -244.5t219.5 -89.5q120 0 199.5 63.5t105.5 169.5l2 9h-285l51 294h648l-50 -280q-50 -284 -223 -442.5t-467 -158.5z" />
    <glyph glyph-name="Gcircumflex.ss01" horiz-adv-x="1506" 
d="M956 1715l-131 -154h-300l288 341h327l168 -341h-273zM853 845h648l-50 -280q-50 -284 -223 -442.5t-467 -158.5q-305 0 -488 183t-183 489q0 182 59 342.5t164 277.5t257 185t329 68q200 0 350.5 -91t229.5 -255l-317 -175q-56 95 -119.5 136t-160.5 41q-93 0 -170 -44
t-127 -117.5t-77.5 -166.5t-27.5 -194q0 -155 80.5 -244.5t219.5 -89.5q120 0 199.5 63.5t105.5 169.5l2 9h-285z" />
    <glyph glyph-name="uni0122.ss01" horiz-adv-x="1506" 
d="M853 845h648l-50 -280q-50 -284 -223 -442.5t-467 -158.5q-305 0 -488 183t-183 489q0 182 59 342.5t164 277.5t257 185t329 68q200 0 350.5 -91t229.5 -255l-317 -175q-56 95 -119.5 136t-160.5 41q-93 0 -170 -44t-127 -117.5t-77.5 -166.5t-27.5 -194
q0 -155 80.5 -244.5t219.5 -89.5q120 0 199.5 63.5t105.5 169.5l2 9h-285zM537 -294l40 220h296l-39 -226q-13 -75 -63.5 -123.5t-150.5 -91.5l-65 112q58 25 91.5 50t44.5 59h-154z" />
    <glyph glyph-name="Gdotaccent.ss01" horiz-adv-x="1506" 
d="M731 1579l49 276h371l-49 -276h-371zM761 -36q-305 0 -488 183t-183 489q0 182 59 342.5t164 277.5t257 185t329 68q200 0 350.5 -91t229.5 -255l-317 -175q-56 95 -119.5 136t-160.5 41q-93 0 -170 -44t-127 -117.5t-77.5 -166.5t-27.5 -194q0 -155 80.5 -244.5
t219.5 -89.5q120 0 199.5 63.5t105.5 169.5l2 9h-285l51 294h648l-50 -280q-50 -284 -223 -442.5t-467 -158.5z" />
    <glyph glyph-name="j.calt" horiz-adv-x="558" 
d="M209 1198l49 277h370l-49 -277h-370zM-65 -384q-69 0 -142 15l57 286q19 -3 44 -3q93 0 115 124l186 1052h360l-205 -1162q-55 -312 -415 -312z" />
    <glyph glyph-name="uni0237.calt" horiz-adv-x="557" 
d="M-60 -384q-70 0 -143 15l58 286q19 -3 43 -3q93 0 115 124l186 1052h360l-205 -1162q-55 -312 -414 -312z" />
    <glyph glyph-name="jcircumflex.calt" horiz-adv-x="557" 
d="M440 1340l-132 -155h-299l288 341h327l168 -341h-273zM13 38l186 1052h360l-205 -1162q-55 -312 -414 -312q-70 0 -143 15l58 286q19 -3 43 -3q93 0 115 124z" />
    <glyph glyph-name="i.latn_TRK" horiz-adv-x="559" 
d="M210 1198l49 277h369l-48 -277h-370zM3 0l193 1090h360l-192 -1090h-361z" />
    <glyph glyph-name="cacute.loclPLK" horiz-adv-x="1138" 
d="M492 1186l177 361h342l-249 -361h-270zM564 -30q-232 0 -374.5 141t-142.5 369q0 284 170.5 462t447.5 178q159 0 280 -82t177 -227l-308 -132q-26 71 -66 103t-101 32q-109 0 -171 -95.5t-62 -225.5q0 -101 44.5 -159.5t123.5 -58.5q115 0 197 153l288 -150
q-96 -160 -219 -234t-284 -74z" />
    <glyph glyph-name="nacute.loclPLK" horiz-adv-x="1204" 
d="M1039 1547l-248 -361h-271l177 361h342zM829 1118q145 0 233.5 -82.5t88.5 -220.5q0 -45 -9 -96l-126 -719h-361l117 659q4 27 4 57q0 47 -27 73.5t-76 26.5q-75 0 -130.5 -59.5t-74.5 -163.5l-104 -593h-361l193 1090h352l-21 -117q112 145 302 145z" />
    <glyph glyph-name="oacute.loclPLK" horiz-adv-x="1233" 
d="M503 1186l177 361h342l-249 -361h-270zM566 -30q-233 0 -376 141t-143 369q0 284 171.5 462t449.5 178q233 0 376 -141t143 -369q0 -284 -171.5 -462t-449.5 -178zM584 275q74 0 129 48t81 119.5t26 154.5q0 101 -44.5 159t-125.5 58q-110 0 -173 -95.5t-63 -225.5
q0 -101 44.5 -159.5t125.5 -58.5z" />
    <glyph glyph-name="sacute.loclPLK" horiz-adv-x="1126" 
d="M454 1183l177 361h342l-249 -361h-270zM538 -37q-183 0 -322 49t-224 136l198 223q54 -57 142.5 -89t195.5 -32q151 0 151 74q0 32 -37 49.5t-143 32.5q-382 55 -382 335q0 123 69 211.5t184.5 130.5t264.5 42q273 0 454 -151l-188 -222q-54 43 -128.5 65.5t-149.5 22.5
q-69 0 -113 -18.5t-44 -53.5q0 -32 43 -50.5t156 -30.5q364 -42 364 -326q0 -189 -132.5 -293.5t-358.5 -104.5z" />
    <glyph glyph-name="zacute.loclPLK" horiz-adv-x="1068" 
d="M440 1186l177 361h342l-248 -361h-271zM-5 0l47 268l519 531h-429l50 291h861l-47 -269l-514 -529h457l-51 -292h-893z" />
    <glyph glyph-name="germandbls.sc" 
d="M1210 1153l-44 -250l-251 -212q37 -11 73 -34.5t69.5 -60.5t54 -92t20.5 -120q0 -180 -121.5 -290t-318.5 -110q-118 0 -253 29l77 267q94 -23 134 -23q69 0 111 37.5t42 94.5q0 38 -21 60t-57 22q-29 0 -65 -19l-136 204l248 211h-138q-71 0 -116 -41.5t-59 -117.5
l-125 -708h-333l137 773q33 187 156 283.5t327 96.5h589z" />
    <glyph glyph-name="a.ss02" horiz-adv-x="1250" 
d="M887 1090h360l-192 -1090h-336l20 117q-106 -147 -280 -147q-186 0 -299.5 130.5t-113.5 360.5q0 190 69 341t189.5 234.5t268.5 83.5q94 0 172.5 -37.5t121.5 -101.5zM584 275q106 0 167 95t61 227q0 103 -41 160.5t-121 57.5q-108 0 -172.5 -95t-64.5 -225
q0 -102 44.5 -161t126.5 -59z" />
    <glyph glyph-name="aacute.ss02" horiz-adv-x="1250" 
d="M1092 1547l-305 -361h-280l233 361h352zM887 1090h360l-192 -1090h-336l20 117q-106 -147 -280 -147q-186 0 -299.5 130.5t-113.5 360.5q0 190 69 341t189.5 234.5t268.5 83.5q94 0 172.5 -37.5t121.5 -101.5zM584 275q106 0 167 95t61 227q0 103 -41 160.5t-121 57.5
q-108 0 -172.5 -95t-64.5 -225q0 -102 44.5 -161t126.5 -59z" />
    <glyph glyph-name="abreve.ss02" horiz-adv-x="1250" 
d="M730 1175q-155 0 -242 97.5t-94 253.5h229q1 -69 37 -106t91 -37q56 0 98.5 39t52.5 104h245q-36 -165 -148.5 -258t-268.5 -93zM887 1090h360l-192 -1090h-336l20 117q-106 -147 -280 -147q-186 0 -299.5 130.5t-113.5 360.5q0 190 69 341t189.5 234.5t268.5 83.5
q94 0 172.5 -37.5t121.5 -101.5zM584 275q106 0 167 95t61 227q0 103 -41 160.5t-121 57.5q-108 0 -172.5 -95t-64.5 -225q0 -102 44.5 -161t126.5 -59z" />
    <glyph glyph-name="acircumflex.ss02" horiz-adv-x="1250" 
d="M746 1340l-132 -155h-299l288 341h327l168 -341h-273zM887 1090h360l-192 -1090h-336l20 117q-106 -147 -280 -147q-186 0 -299.5 130.5t-113.5 360.5q0 190 69 341t189.5 234.5t268.5 83.5q94 0 172.5 -37.5t121.5 -101.5zM584 275q106 0 167 95t61 227q0 103 -41 160.5
t-121 57.5q-108 0 -172.5 -95t-64.5 -225q0 -102 44.5 -161t126.5 -59z" />
    <glyph glyph-name="adieresis.ss02" horiz-adv-x="1250" 
d="M697 1475l-48 -275h-314l49 275h313zM1122 1475l-49 -275h-313l49 275h313zM887 1090h360l-192 -1090h-336l20 117q-106 -147 -280 -147q-186 0 -299.5 130.5t-113.5 360.5q0 190 69 341t189.5 234.5t268.5 83.5q94 0 172.5 -37.5t121.5 -101.5zM584 275q106 0 167 95
t61 227q0 103 -41 160.5t-121 57.5q-108 0 -172.5 -95t-64.5 -225q0 -102 44.5 -161t126.5 -59z" />
    <glyph glyph-name="agrave.ss02" horiz-adv-x="1250" 
d="M873 1186h-273l-305 361h344zM887 1090h360l-192 -1090h-336l20 117q-106 -147 -280 -147q-186 0 -299.5 130.5t-113.5 360.5q0 190 69 341t189.5 234.5t268.5 83.5q94 0 172.5 -37.5t121.5 -101.5zM584 275q106 0 167 95t61 227q0 103 -41 160.5t-121 57.5
q-108 0 -172.5 -95t-64.5 -225q0 -102 44.5 -161t126.5 -59z" />
    <glyph glyph-name="amacron.ss02" horiz-adv-x="1250" 
d="M1058 1461l-39 -215h-615l39 215h615zM887 1090h360l-192 -1090h-336l20 117q-106 -147 -280 -147q-186 0 -299.5 130.5t-113.5 360.5q0 190 69 341t189.5 234.5t268.5 83.5q94 0 172.5 -37.5t121.5 -101.5zM584 275q106 0 167 95t61 227q0 103 -41 160.5t-121 57.5
q-108 0 -172.5 -95t-64.5 -225q0 -102 44.5 -161t126.5 -59z" />
    <glyph glyph-name="aogonek.ss02" horiz-adv-x="1250" 
d="M930 0q-125 -72 -125 -144q0 -56 77 -56q48 0 99 25l69 -205q-93 -49 -211 -49q-129 0 -206.5 59.5t-77.5 158.5q0 132 166 224l18 104q-106 -147 -280 -147q-186 0 -299.5 130.5t-113.5 360.5q0 190 69 341t189.5 234.5t268.5 83.5q94 0 172.5 -37.5t121.5 -101.5
l20 109h360l-192 -1090h-125zM584 275q106 0 167 95t61 227q0 103 -41 160.5t-121 57.5q-108 0 -172.5 -95t-64.5 -225q0 -102 44.5 -161t126.5 -59z" />
    <glyph glyph-name="aring.ss02" horiz-adv-x="1250" 
d="M708 1175q-110 0 -179 68.5t-69 174.5q0 120 85.5 200t204.5 80q110 0 178 -69.5t68 -175.5q0 -117 -84.5 -197.5t-203.5 -80.5zM739 1523q-41 0 -66.5 -30.5t-25.5 -70.5q0 -33 19.5 -52.5t49.5 -19.5q39 0 66 26.5t27 68.5q0 34 -19 56t-51 22zM887 1090h360
l-192 -1090h-336l20 117q-106 -147 -280 -147q-186 0 -299.5 130.5t-113.5 360.5q0 190 69 341t189.5 234.5t268.5 83.5q94 0 172.5 -37.5t121.5 -101.5zM584 275q106 0 167 95t61 227q0 103 -41 160.5t-121 57.5q-108 0 -172.5 -95t-64.5 -225q0 -102 44.5 -161t126.5 -59z
" />
    <glyph glyph-name="aringacute.ss02" horiz-adv-x="1250" 
d="M1160 2103l-304 -361h-281l234 361h351zM708 1175q-110 0 -179 68.5t-69 174.5q0 120 85.5 200t204.5 80q110 0 178 -69.5t68 -175.5q0 -117 -84.5 -197.5t-203.5 -80.5zM739 1523q-41 0 -66.5 -30.5t-25.5 -70.5q0 -33 19.5 -52.5t49.5 -19.5q39 0 66 26.5t27 68.5
q0 34 -19 56t-51 22zM887 1090h360l-192 -1090h-336l20 117q-106 -147 -280 -147q-186 0 -299.5 130.5t-113.5 360.5q0 190 69 341t189.5 234.5t268.5 83.5q94 0 172.5 -37.5t121.5 -101.5zM584 275q106 0 167 95t61 227q0 103 -41 160.5t-121 57.5q-108 0 -172.5 -95
t-64.5 -225q0 -102 44.5 -161t126.5 -59z" />
    <glyph glyph-name="atilde.ss02" horiz-adv-x="1250" 
d="M588 1281q-67 0 -149 -89l-163 196q101 95 171 127t138 32q92 0 177 -52q2 -1 11.5 -6t12 -6.5t10.5 -5.5t11.5 -5t10.5 -3.5t12 -3.5t12 -2t13 -1q64 0 149 89l162 -194q-101 -95 -171 -127.5t-138 -32.5q-89 0 -176 51q-59 33 -93 33zM887 1090h360l-192 -1090h-336
l20 117q-106 -147 -280 -147q-186 0 -299.5 130.5t-113.5 360.5q0 190 69 341t189.5 234.5t268.5 83.5q94 0 172.5 -37.5t121.5 -101.5zM584 275q106 0 167 95t61 227q0 103 -41 160.5t-121 57.5q-108 0 -172.5 -95t-64.5 -225q0 -102 44.5 -161t126.5 -59z" />
    <glyph glyph-name="germandbls.ss03" horiz-adv-x="1263" 
d="M882 543q121 -17 198 -119t77 -250q0 -460 -634 -562l-57 312q185 29 259 91t74 160q0 56 -26 85.5t-74 29.5q-31 0 -56 -12l-134 244l244 276h-249l-140 -798h-361l204 1159q29 164 146.5 254.5t299.5 90.5q120 0 236 -38l-85 -258q-57 18 -109 18q-63 0 -94 -25.5
t-41 -82.5l-5 -27h624l-47 -269z" />
    <glyph glyph-name="a.sc" horiz-adv-x="1268" 
d="M806 0l-30 163h-408l-80 -163h-368l614 1153h375l248 -1153h-351zM502 434h224l-60 333z" />
    <glyph glyph-name="aacute.sc" horiz-adv-x="1268" 
d="M1113 1597l-304 -361h-282l235 361h351zM806 0l-30 163h-408l-80 -163h-368l614 1153h375l248 -1153h-351zM502 434h224l-60 333z" />
    <glyph glyph-name="abreve.sc" horiz-adv-x="1268" 
d="M730 1233q-156 0 -243 97t-94 254h229q2 -69 38 -105.5t90 -36.5q57 0 99.5 38.5t52.5 103.5h244q-36 -165 -148.5 -258t-267.5 -93zM806 0l-30 163h-408l-80 -163h-368l614 1153h375l248 -1153h-351zM502 434h224l-60 333z" />
    <glyph glyph-name="acircumflex.sc" horiz-adv-x="1268" 
d="M760 1399l-132 -156h-299l287 341h327l168 -341h-272zM806 0l-30 163h-408l-80 -163h-368l614 1153h375l248 -1153h-351zM502 434h224l-60 333z" />
    <glyph glyph-name="adieresis.sc" horiz-adv-x="1268" 
d="M719 1524l-48 -275h-315l50 275h313zM1144 1524l-49 -275h-314l49 275h314zM806 0l-30 163h-408l-80 -163h-368l614 1153h375l248 -1153h-351zM502 434h224l-60 333z" />
    <glyph glyph-name="agrave.sc" horiz-adv-x="1268" 
d="M899 1236h-273l-305 361h344zM806 0l-30 163h-408l-80 -163h-368l614 1153h375l248 -1153h-351zM502 434h224l-60 333z" />
    <glyph glyph-name="amacron.sc" horiz-adv-x="1268" 
d="M1076 1493l-38 -215h-614l38 215h614zM806 0l-30 163h-408l-80 -163h-368l614 1153h375l248 -1153h-351zM502 434h224l-60 333z" />
    <glyph glyph-name="aogonek.sc" horiz-adv-x="1268" 
d="M1109 -175l69 -205q-93 -49 -211 -49q-129 0 -206.5 59.5t-77.5 158.5q0 123 143 211h-20l-30 163h-408l-80 -163h-368l614 1153h375l248 -1153h-99q-125 -72 -125 -144q0 -56 77 -56q48 0 99 25zM502 434h224l-60 333z" />
    <glyph glyph-name="aring.sc" horiz-adv-x="1268" 
d="M730 1225q-110 0 -179 68.5t-69 174.5q0 120 85.5 200t204.5 80q110 0 178.5 -69.5t68.5 -175.5q0 -117 -85 -197.5t-204 -80.5zM762 1573q-41 0 -66.5 -30t-25.5 -70q0 -33 19 -53t49 -20q39 0 66 26.5t27 68.5q0 34 -18.5 56t-50.5 22zM806 0l-30 163h-408l-80 -163
h-368l614 1153h375l248 -1153h-351zM502 434h224l-60 333z" />
    <glyph glyph-name="aringacute.sc" horiz-adv-x="1268" 
d="M1169 1870l-304 -362h-281l233 362h352zM977 1242q0 -86 -53 -155l233 -1087h-351l-30 163h-408l-80 -163h-368l589 1107q-23 49 -23 102q0 109 78.5 182.5t186.5 73.5q101 0 163.5 -63t62.5 -160zM740 1299q-34 0 -55 -25t-21 -59q0 -28 15.5 -44t41.5 -16q32 0 55 22
t23 57q0 29 -15.5 47t-43.5 18zM502 434h224l-60 333z" />
    <glyph glyph-name="atilde.sc" horiz-adv-x="1268" 
d="M610 1331q-66 0 -148 -89l-163 196q101 95 170.5 127t137.5 32q92 0 177 -52q62 -33 94 -33q62 0 148 90l163 -195q-101 -95 -171 -128t-138 -33q-92 0 -177 52q-59 33 -93 33zM534 1153h375l248 -1153h-351l-30 163h-408l-80 -163h-368zM502 434h224l-60 333z" />
    <glyph glyph-name="ae.sc" horiz-adv-x="1871" 
d="M1861 867h-536l-29 -159h484l-45 -257h-484l-28 -165h544l-50 -286h-878l32 188h-397l-143 -188h-411l926 1153h1066zM916 441l75 426l-324 -426h249z" />
    <glyph glyph-name="aeacute.sc" horiz-adv-x="1871" 
d="M1767 1597l-304 -361h-281l234 361h351zM1861 867h-536l-29 -159h484l-45 -257h-484l-28 -165h544l-50 -286h-878l32 188h-397l-143 -188h-411l926 1153h1066zM916 441l75 426l-324 -426h249z" />
    <glyph glyph-name="b.sc" horiz-adv-x="1189" 
d="M951 571q67 -31 103 -86t36 -124q0 -164 -123.5 -262.5t-320.5 -98.5h-630l204 1153h560q164 0 267 -79.5t103 -203.5q0 -103 -52 -179.5t-147 -119.5zM690 697q52 0 87.5 29t35.5 71q0 32 -23 52t-60 20h-227l-31 -172h218zM622 284q58 0 94.5 29.5t36.5 74.5
q0 35 -23 55.5t-62 20.5h-237l-32 -180h223z" />
    <glyph glyph-name="c.sc" horiz-adv-x="1241" 
d="M612 -28q-249 0 -400.5 146t-151.5 388q0 189 82.5 343t233.5 243.5t341 89.5q182 0 312.5 -82t193.5 -232l-286 -140q-42 83 -93 118t-133 35q-95 0 -167 -54.5t-106.5 -137.5t-34.5 -180q0 -108 62.5 -171.5t168.5 -63.5q154 0 240 171l289 -150
q-106 -170 -235.5 -246.5t-315.5 -76.5z" />
    <glyph glyph-name="cacute.sc" horiz-adv-x="1241" 
d="M537 1236l234 361h351l-304 -361h-281zM612 -28q-249 0 -400.5 146t-151.5 388q0 189 82.5 343t233.5 243.5t341 89.5q182 0 312.5 -82t193.5 -232l-286 -140q-42 83 -93 118t-133 35q-95 0 -167 -54.5t-106.5 -137.5t-34.5 -180q0 -108 62.5 -171.5t168.5 -63.5
q154 0 240 171l289 -150q-106 -170 -235.5 -246.5t-315.5 -76.5z" />
    <glyph glyph-name="ccaron.sc" horiz-adv-x="1241" 
d="M898 1243h-327l-168 341h274l78 -154l132 154h299zM634 274q154 0 240 171l289 -150q-106 -170 -235.5 -246.5t-315.5 -76.5q-249 0 -400.5 146t-151.5 388q0 189 82.5 343t233.5 243.5t341 89.5q182 0 312.5 -82t193.5 -232l-286 -140q-42 83 -93 118t-133 35
q-95 0 -167 -54.5t-106.5 -137.5t-34.5 -180q0 -108 62.5 -171.5t168.5 -63.5z" />
    <glyph glyph-name="ccedilla.sc" horiz-adv-x="1241" 
d="M634 274q154 0 240 171l289 -150q-86 -136 -184 -211t-226 -99l-158 -352h-295l160 356q-185 42 -292.5 179t-107.5 338q0 189 82.5 343t233.5 243.5t341 89.5q182 0 312.5 -82t193.5 -232l-286 -140q-42 83 -93 118t-133 35q-95 0 -167 -54.5t-106.5 -137.5t-34.5 -180
q0 -108 62.5 -171.5t168.5 -63.5z" />
    <glyph glyph-name="ccircumflex.sc" horiz-adv-x="1241" 
d="M768 1399l-132 -156h-299l288 341h326l168 -341h-272zM634 274q154 0 240 171l289 -150q-106 -170 -235.5 -246.5t-315.5 -76.5q-249 0 -400.5 146t-151.5 388q0 189 82.5 343t233.5 243.5t341 89.5q182 0 312.5 -82t193.5 -232l-286 -140q-42 83 -93 118t-133 35
q-95 0 -167 -54.5t-106.5 -137.5t-34.5 -180q0 -108 62.5 -171.5t168.5 -63.5z" />
    <glyph glyph-name="cdotaccent.sc" horiz-adv-x="1241" 
d="M549 1248l49 277h371l-49 -277h-371zM612 -28q-249 0 -400.5 146t-151.5 388q0 189 82.5 343t233.5 243.5t341 89.5q182 0 312.5 -82t193.5 -232l-286 -140q-42 83 -93 118t-133 35q-95 0 -167 -54.5t-106.5 -137.5t-34.5 -180q0 -108 62.5 -171.5t168.5 -63.5
q154 0 240 171l289 -150q-106 -170 -235.5 -246.5t-315.5 -76.5z" />
    <glyph glyph-name="d.sc" horiz-adv-x="1272" 
d="M671 1153q252 0 402 -137t150 -378q0 -285 -182.5 -461.5t-474.5 -176.5h-550l204 1153h451zM571 294q143 0 225.5 98.5t82.5 240.5q0 112 -59.5 169t-161.5 57h-157l-100 -565h170z" />
    <glyph glyph-name="eth.sc" horiz-adv-x="1280" 
d="M678 1153q252 0 402 -137t150 -378q0 -285 -182.5 -461.5t-474.5 -176.5h-549l78 449h-110l45 257h111l79 447h451zM579 294q143 0 225 98.5t82 240.5q0 112 -59 169t-161 57h-158l-27 -153h194l-45 -257h-195l-26 -155h170z" />
    <glyph glyph-name="dcaron.sc" horiz-adv-x="1272" 
d="M848 1243h-327l-168 341h274l78 -154l132 154h299zM671 1153q252 0 402 -137t150 -378q0 -285 -182.5 -461.5t-474.5 -176.5h-550l204 1153h451zM571 294q143 0 225.5 98.5t82.5 240.5q0 112 -59.5 169t-161.5 57h-157l-100 -565h170z" />
    <glyph glyph-name="dcroat.sc" horiz-adv-x="1280" 
d="M678 1153q252 0 402 -137t150 -378q0 -285 -182.5 -461.5t-474.5 -176.5h-549l78 449h-110l45 257h111l79 447h451zM579 294q143 0 225 98.5t82 240.5q0 112 -59 169t-161 57h-158l-27 -153h194l-45 -257h-195l-26 -155h170z" />
    <glyph glyph-name="e.sc" horiz-adv-x="1085" 
d="M1076 868h-573l-29 -159h515l-45 -258h-515l-30 -165h581l-50 -286h-914l204 1153h906z" />
    <glyph glyph-name="eacute.sc" horiz-adv-x="1085" 
d="M1079 1597l-304 -361h-281l234 361h351zM1076 868h-573l-29 -159h515l-45 -258h-515l-30 -165h581l-50 -286h-914l204 1153h906z" />
    <glyph glyph-name="ebreve.sc" horiz-adv-x="1085" 
d="M695 1233q-156 0 -243 97t-94 254h229q2 -69 38 -105.5t90 -36.5q57 0 99.5 38.5t52.5 103.5h244q-36 -165 -148.5 -258t-267.5 -93zM1076 868h-573l-29 -159h515l-45 -258h-515l-30 -165h581l-50 -286h-914l204 1153h906z" />
    <glyph glyph-name="ecaron.sc" horiz-adv-x="1085" 
d="M855 1243h-327l-168 341h274l78 -154l132 154h299zM1126 1153l-50 -285h-573l-29 -159h515l-45 -258h-515l-30 -165h581l-50 -286h-914l204 1153h906z" />
    <glyph glyph-name="ecircumflex.sc" horiz-adv-x="1085" 
d="M725 1399l-132 -156h-299l288 341h326l168 -341h-272zM1076 868h-573l-29 -159h515l-45 -258h-515l-30 -165h581l-50 -286h-914l204 1153h906z" />
    <glyph glyph-name="edieresis.sc" horiz-adv-x="1085" 
d="M684 1524l-48 -275h-314l49 275h313zM1109 1524l-49 -275h-314l50 275h313zM1076 868h-573l-29 -159h515l-45 -258h-515l-30 -165h581l-50 -286h-914l204 1153h906z" />
    <glyph glyph-name="edotaccent.sc" horiz-adv-x="1085" 
d="M926 1525l-49 -277h-371l49 277h371zM1076 868h-573l-29 -159h515l-45 -258h-515l-30 -165h581l-50 -286h-914l204 1153h906z" />
    <glyph glyph-name="egrave.sc" horiz-adv-x="1085" 
d="M865 1236h-273l-305 361h344zM1076 868h-573l-29 -159h515l-45 -258h-515l-30 -165h581l-50 -286h-914l204 1153h906z" />
    <glyph glyph-name="emacron.sc" horiz-adv-x="1085" 
d="M1041 1493l-37 -215h-615l38 215h614zM1076 868h-573l-29 -159h515l-45 -258h-515l-30 -165h581l-50 -286h-914l204 1153h906z" />
    <glyph glyph-name="eogonek.sc" horiz-adv-x="1085" 
d="M1076 868h-573l-29 -159h515l-45 -258h-515l-30 -165h581l-50 -286h-104q-125 -72 -125 -144q0 -56 77 -56q49 0 100 25l68 -205q-93 -49 -211 -49q-129 0 -206 59.5t-77 158.5q0 123 143 211h-579l204 1153h906z" />
    <glyph glyph-name="uni0259.sc" horiz-adv-x="1276" 
d="M676 1182q250 0 400.5 -146t150.5 -389q0 -142 -44.5 -265.5t-125.5 -214.5t-200.5 -143t-261.5 -52q-243 0 -390 148.5t-147 391.5q0 79 25 174h802q-11 90 -71 142t-151 52q-163 0 -259 -118l-237 202q85 108 215.5 163t293.5 55zM600 274q94 0 158.5 51t97.5 137h-459
q19 -188 203 -188z" />
    <glyph glyph-name="f.sc" horiz-adv-x="1074" 
d="M1089 868h-586l-31 -173h497l-49 -275h-497l-74 -420h-333l204 1153h919z" />
    <glyph glyph-name="g.sc" horiz-adv-x="1257" 
d="M703 666h493l-117 -666h-266l17 98q-101 -125 -275 -125q-221 0 -358 146.5t-137 386.5q0 189 82.5 343t233.5 243.5t342 89.5q165 0 288 -73t189 -203l-273 -154q-45 70 -94 99t-123 29q-92 0 -162 -54t-104.5 -137.5t-34.5 -179.5q0 -107 63.5 -173.5t166.5 -66.5
q80 0 145.5 41t88.5 108l3 10h-209z" />
    <glyph glyph-name="uni01F5.sc" horiz-adv-x="1257" 
d="M1124 1597l-304 -361h-281l234 361h351zM703 666h493l-117 -666h-266l17 98q-101 -125 -275 -125q-221 0 -358 146.5t-137 386.5q0 189 82.5 343t233.5 243.5t342 89.5q165 0 288 -73t189 -203l-273 -154q-45 70 -94 99t-123 29q-92 0 -162 -54t-104.5 -137.5
t-34.5 -179.5q0 -107 63.5 -173.5t166.5 -66.5q80 0 145.5 41t88.5 108l3 10h-209z" />
    <glyph glyph-name="gbreve.sc" horiz-adv-x="1257" 
d="M740 1233q-156 0 -243 97t-94 254h229q2 -69 38 -105.5t90 -36.5q57 0 99.5 38.5t52.5 103.5h244q-36 -165 -148.5 -258t-267.5 -93zM703 666h493l-117 -666h-266l17 98q-101 -125 -275 -125q-221 0 -358 146.5t-137 386.5q0 189 82.5 343t233.5 243.5t342 89.5
q165 0 288 -73t189 -203l-273 -154q-45 70 -94 99t-123 29q-92 0 -162 -54t-104.5 -137.5t-34.5 -179.5q0 -107 63.5 -173.5t166.5 -66.5q80 0 145.5 41t88.5 108l3 10h-209z" />
    <glyph glyph-name="gcircumflex.sc" horiz-adv-x="1257" 
d="M770 1399l-132 -156h-299l288 341h326l168 -341h-272zM703 666h493l-117 -666h-266l17 98q-101 -125 -275 -125q-221 0 -358 146.5t-137 386.5q0 189 82.5 343t233.5 243.5t342 89.5q165 0 288 -73t189 -203l-273 -154q-45 70 -94 99t-123 29q-92 0 -162 -54
t-104.5 -137.5t-34.5 -179.5q0 -107 63.5 -173.5t166.5 -66.5q80 0 145.5 41t88.5 108l3 10h-209z" />
    <glyph glyph-name="uni0123.sc" horiz-adv-x="1257" 
d="M703 666h493l-117 -666h-266l17 98q-101 -125 -275 -125q-221 0 -358 146.5t-137 386.5q0 189 82.5 343t233.5 243.5t342 89.5q165 0 288 -73t189 -203l-273 -154q-45 70 -94 99t-123 29q-92 0 -162 -54t-104.5 -137.5t-34.5 -179.5q0 -107 63.5 -173.5t166.5 -66.5
q80 0 145.5 41t88.5 108l3 10h-209zM358 -294l40 220h297l-40 -226q-13 -75 -63.5 -123.5t-150.5 -91.5l-64 112q58 25 91.5 50t44.5 59h-155z" />
    <glyph glyph-name="gdotaccent.sc" horiz-adv-x="1257" 
d="M971 1525l-49 -277h-371l49 277h371zM703 666h493l-117 -666h-266l17 98q-101 -125 -275 -125q-221 0 -358 146.5t-137 386.5q0 189 82.5 343t233.5 243.5t342 89.5q165 0 288 -73t189 -203l-273 -154q-45 70 -94 99t-123 29q-92 0 -162 -54t-104.5 -137.5t-34.5 -179.5
q0 -107 63.5 -173.5t166.5 -66.5q80 0 145.5 41t88.5 108l3 10h-209z" />
    <glyph glyph-name="h.sc" horiz-adv-x="1297" 
d="M959 1153h333l-203 -1153h-333l77 436h-407l-77 -436h-333l204 1153h333l-75 -423h407z" />
    <glyph glyph-name="hbar.sc" horiz-adv-x="1303" 
d="M1378 1049l-39 -216h-102l-146 -833h-333l77 436h-407l-77 -436h-333l147 833h-100l38 216h100l18 104h333l-19 -113h406l20 113h332l-18 -104h103zM479 730h407l19 111h-406z" />
    <glyph glyph-name="hcircumflex.sc" horiz-adv-x="1297" 
d="M801 1399l-132 -156h-299l287 341h327l168 -341h-272zM959 1153h333l-203 -1153h-333l77 436h-407l-77 -436h-333l204 1153h333l-75 -423h407z" />
    <glyph glyph-name="i.sc" horiz-adv-x="558" 
d="M16 0l204 1153h333l-204 -1153h-333z" />
    <glyph glyph-name="iacute.sc" horiz-adv-x="558" 
d="M206 1236l234 361h352l-305 -361h-281zM16 0l204 1153h333l-204 -1153h-333z" />
    <glyph glyph-name="ibreve.sc" horiz-adv-x="558" 
d="M408 1233q-156 0 -243 97t-94 254h228q2 -69 38 -105.5t90 -36.5q57 0 100 38.5t53 103.5h243q-36 -165 -148 -258t-267 -93zM16 0l204 1153h333l-204 -1153h-333z" />
    <glyph glyph-name="icircumflex.sc" horiz-adv-x="558" 
d="M437 1399l-132 -156h-299l288 341h327l167 -341h-272zM16 0l204 1153h333l-204 -1153h-333z" />
    <glyph glyph-name="idieresis.sc" horiz-adv-x="609" 
d="M60 1249l50 275h312l-48 -275h-314zM484 1249l50 275h313l-49 -275h-314zM42 0l204 1153h333l-204 -1153h-333z" />
    <glyph glyph-name="i.sc.loclTRK" horiz-adv-x="558" 
d="M218 1248l49 277h372l-50 -277h-371zM16 0l204 1153h333l-204 -1153h-333z" />
    <glyph glyph-name="igrave.sc" horiz-adv-x="558" 
d="M304 1236l-305 361h344l235 -361h-274zM16 0l204 1153h333l-204 -1153h-333z" />
    <glyph glyph-name="ij.sc" horiz-adv-x="1558" 
d="M16 0l204 1153h333l-204 -1153h-333zM955 -29q-150 0 -250 64.5t-163 197.5l276 150q43 -117 145 -117q60 0 95.5 40t49.5 124l129 723h333l-138 -780q-35 -198 -155.5 -300t-321.5 -102z" />
    <glyph glyph-name="imacron.sc" horiz-adv-x="558" 
d="M101 1278l38 215h615l-38 -215h-615zM16 0l204 1153h333l-204 -1153h-333z" />
    <glyph glyph-name="iogonek.sc" horiz-adv-x="558" 
d="M232 -200q47 0 98 24l70 -204q-91 -49 -210 -49q-132 0 -209.5 60.5t-77.5 161.5q0 119 136 207h-23l204 1153h333l-204 -1153h-83q-113 -69 -113 -141q0 -59 79 -59z" />
    </font>
</defs>
</svg>
