<?xml version="1.0" standalone="no"?>
<!DOCTYPE svg PUBLIC "-//W3C//DTD SVG 1.1//EN" "http://www.w3.org/Graphics/SVG/1.1/DTD/svg11.dtd" >
<svg xmlns="http://www.w3.org/2000/svg" xmlns:xlink="http://www.w3.org/1999/xlink" version="1.1">
<metadata>
Created by FontForge 20170731 at Sat Dec  5 06:59:52 2020
 By Aleksey,,,
Copyright (c) 2019 Monotype Imaging Inc. All rights reserved.
</metadata>
<defs>
<font id="Infra-BlackItalic" horiz-adv-x="1228" >
  <font-face 
    font-family="Infra Black"
    font-weight="900"
    font-style="italic"
    font-stretch="normal"
    units-per-em="2048"
    panose-1="2 11 9 0 0 0 0 9 0 0"
    ascent="1582"
    descent="-466"
    x-height="1096"
    cap-height="1475"
    bbox="-1325 -656 2908 2285"
    underline-thickness="327"
    underline-position="-593"
    slope="-10"
    unicode-range="U+000D-FEFF"
  />
<missing-glyph 
d="M6 0l260 1475h1024l-260 -1475h-1024zM362 280h410l162 915h-410z" />
    <glyph glyph-name="fi" unicode="fi" horiz-adv-x="1436" 
d="M873 768h-251l-137 -768h-409l135 768h-146l58 328h146l9 49q30 169 156.5 264.5t321.5 95.5q133 0 256 -40l-92 -287q-58 17 -114 17q-61 0 -89.5 -22t-36.5 -72l-1 -5h253zM1105 1475h416l-53 -297h-415zM848 0l193 1096h410l-194 -1096h-409z" />
    <glyph glyph-name="fl" unicode="fl" horiz-adv-x="1435" 
d="M873 768h-251l-137 -768h-409l135 768h-146l58 328h146l9 49q30 169 156.5 264.5t321.5 95.5q133 0 256 -40l-92 -287q-58 17 -114 17q-61 0 -89.5 -22t-36.5 -72l-1 -5h253zM1108 1475h410l-261 -1475h-409z" />
    <glyph glyph-name="f_f" unicode="ff" horiz-adv-x="1668" 
d="M1486 1101l-1 -5h253l-59 -328h-252l-136 -768h-409l135 768h-395l-137 -768h-409l135 768h-146l58 328h146l9 49q30 169 156.5 264.5t321.5 95.5q133 0 256 -40l-92 -287q-58 17 -114 17q-61 0 -89.5 -22t-36.5 -72l-1 -5h396l8 49q30 169 157 264.5t322 95.5
q133 0 256 -40l-93 -287q-58 17 -113 17q-61 0 -89.5 -22t-36.5 -72z" />
    <glyph glyph-name="f_f_i" unicode="ffi" horiz-adv-x="2268" 
d="M1679 768h-252l-136 -768h-409l135 768h-395l-137 -768h-409l135 768h-146l58 328h146l9 49q30 169 156.5 264.5t321.5 95.5q133 0 256 -40l-92 -287q-58 17 -114 17q-61 0 -89.5 -22t-36.5 -72l-1 -5h396l8 49q30 169 157 264.5t322 95.5q133 0 256 -40l-93 -287
q-58 17 -113 17q-61 0 -89.5 -22t-36.5 -72l-1 -5h253zM1936 1475h416l-52 -297h-416zM1679 0l194 1096h409l-193 -1096h-410z" />
    <glyph glyph-name="f_f_l" unicode="ffl" horiz-adv-x="2267" 
d="M1679 768h-252l-136 -768h-409l135 768h-395l-137 -768h-409l135 768h-146l58 328h146l9 49q30 169 156.5 264.5t321.5 95.5q133 0 256 -40l-92 -287q-58 17 -114 17q-61 0 -89.5 -22t-36.5 -72l-1 -5h396l8 49q30 169 157 264.5t322 95.5q133 0 256 -40l-93 -287
q-58 17 -113 17q-61 0 -89.5 -22t-36.5 -72l-1 -5h253zM1939 1475h410l-260 -1475h-410z" />
    <glyph glyph-name=".notdef" 
d="M6 0l260 1475h1024l-260 -1475h-1024zM362 280h410l162 915h-410z" />
    <glyph glyph-name=".null" horiz-adv-x="0" 
 />
    <glyph glyph-name="nonmarkingreturn" horiz-adv-x="682" 
 />
    <glyph glyph-name="NULL" horiz-adv-x="0" 
 />
    <glyph glyph-name="NULL" horiz-adv-x="0" 
 />
    <glyph glyph-name="CR" unicode="&#xd;" horiz-adv-x="430" 
 />
    <glyph glyph-name="space" unicode=" " horiz-adv-x="430" 
 />
    <glyph glyph-name="exclam" unicode="!" horiz-adv-x="634" 
d="M197 492l-25 479l89 504h440l-89 -504l-190 -479h-225zM6 0l69 389h430l-69 -389h-430z" />
    <glyph glyph-name="quotedbl" unicode="&#x22;" horiz-adv-x="1075" 
d="M106 738l130 737h378l-129 -737h-379zM658 738l129 737h379l-129 -737h-379z" />
    <glyph glyph-name="numbersign" unicode="#" horiz-adv-x="1584" 
d="M1531 860h-177l-77 -246h178l-103 -327h-177l-91 -287h-408l90 287h-162l-90 -287h-408l91 287h-182l105 327h179l77 246h-180l104 328h178l89 287h409l-90 -287h162l89 287h408l-89 -287h179zM868 614l77 246h-162l-76 -246h161z" />
    <glyph glyph-name="dollar" unicode="$" horiz-adv-x="1391" 
d="M768 902q282 -31 417.5 -140t135.5 -309q0 -202 -142 -327.5t-398 -153.5l-30 -161h-355l30 176q-128 29 -239.5 86.5t-189.5 135.5l259 285q72 -76 183 -119t237 -43q93 0 151.5 27t58.5 68q0 76 -216 101q-258 31 -390.5 148t-132.5 303q0 205 141.5 330.5t397.5 146.5
l28 157h354l-31 -182q231 -57 367 -187l-252 -283q-63 59 -163.5 95t-207.5 36q-85 0 -142 -28.5t-57 -70.5q0 -71 186 -91z" />
    <glyph glyph-name="percent" unicode="%" horiz-adv-x="2111" 
d="M551 641q-162 0 -266.5 105t-104.5 267q0 193 122 314t315 121q162 0 266.5 -105t104.5 -267q0 -193 -121.5 -314t-315.5 -121zM383 0l1071 1423h330l-1071 -1423h-330zM571 907q51 0 84.5 46.5t33.5 115.5q0 51 -25.5 82t-66.5 31q-51 0 -84.5 -46.5t-33.5 -115.5
q0 -53 24.5 -83t67.5 -30zM1551 -25q-162 0 -266 105t-104 267q0 193 122 314t315 121q162 0 266.5 -105t104.5 -266q0 -193 -122 -314.5t-316 -121.5zM1572 242q51 0 84.5 46t33.5 115q0 51 -26 82t-67 31q-51 0 -84 -46.5t-33 -115.5q0 -53 24.5 -82.5t67.5 -29.5z" />
    <glyph glyph-name="ampersand" unicode="&#x26;" horiz-adv-x="1545" 
d="M1438 587q-73 -184 -200 -327l190 -260h-439l-37 47q-177 -83 -377 -83q-204 0 -343 123t-139 311q0 137 71.5 236t196.5 175q-105 156 -105 286q0 119 68.5 214.5t183 148t249.5 52.5q196 0 329 -106.5t133 -273.5q0 -136 -82 -246t-219 -186l100 -137q50 71 87 156z
M744 1167q-40 0 -64.5 -28t-24.5 -63q0 -46 52 -105q57 29 82.5 59t25.5 67q0 34 -20 52t-51 18zM617 292q52 0 121 30l-159 204q-86 -63 -86 -130q0 -46 39 -75t85 -29z" />
    <glyph glyph-name="quotesingle" unicode="'" horiz-adv-x="523" 
d="M106 738l130 737h378l-129 -737h-379z" />
    <glyph glyph-name="parenleft" unicode="(" horiz-adv-x="868" 
d="M368 -390q-300 388 -300 837q0 674 574 1227l288 -235q-238 -246 -347 -485.5t-109 -510.5q0 -159 52 -302.5t168 -309.5z" />
    <glyph glyph-name="parenright" unicode=")" horiz-adv-x="868" 
d="M260 -390l-288 235q238 246 347 485.5t109 510.5q0 159 -52 302.5t-168 309.5l327 221q300 -388 300 -837q0 -673 -575 -1227z" />
    <glyph glyph-name="asterisk" unicode="*" horiz-adv-x="957" 
d="M654 686l-110 159l-137 -154l-225 173l159 169l-195 57l97 261l190 -68l33 192h307l-36 -202l209 60l49 -279l-210 -48l110 -147z" />
    <glyph glyph-name="plus" unicode="+" 
d="M1162 757l-57 -328h-336l-57 -326h-348l57 326h-339l57 328h340l55 309h348l-55 -309h335z" />
    <glyph glyph-name="comma" unicode="," horiz-adv-x="573" 
d="M49 420h430l-76 -430q-13 -76 -32 -131t-54 -111.5t-92.5 -107.5t-141.5 -103l-121 171q74 42 122 95.5t67 98t29 98.5h-205z" />
    <glyph glyph-name="hyphen" unicode="-" horiz-adv-x="798" 
d="M51 429l58 328h655l-57 -328h-656z" />
    <glyph glyph-name="period" unicode="." horiz-adv-x="573" 
d="M-25 0l74 420h430l-73 -420h-431z" />
    <glyph glyph-name="slash" unicode="/" horiz-adv-x="1087" 
d="M-114 -215l979 1823h404l-985 -1823h-398z" />
    <glyph glyph-name="zero" unicode="0" horiz-adv-x="1378" 
d="M654 -36q-266 0 -418.5 162.5t-152.5 448.5q0 147 28 279t85.5 243t139.5 191.5t196 125.5t249 45q267 0 419.5 -163t152.5 -448q0 -147 -28 -279t-85.5 -243t-140 -191.5t-196.5 -125.5t-249 -45zM665 335q64 0 115.5 48t82 123.5t47 161t16.5 168.5q0 121 -40 187
t-115 66q-64 0 -115.5 -48t-82 -123.5t-47 -161t-16.5 -168.5q0 -121 40 -187t115 -66z" />
    <glyph glyph-name="one" unicode="1" horiz-adv-x="1061" 
d="M1089 1423l-251 -1423h-420l162 918l-262 -205l-203 254l581 456h393z" />
    <glyph glyph-name="two" unicode="2" horiz-adv-x="1284" 
d="M911 519l-198 -171h480l-61 -348h-1073l58 326l506 438q112 97 151 148t39 99q0 41 -25.5 63.5t-70.5 22.5q-137 0 -215 -208l-368 128q101 231 251 336.5t368 105.5q219 0 349.5 -113.5t130.5 -314.5q0 -141 -77 -254.5t-245 -257.5z" />
    <glyph glyph-name="three" unicode="3" horiz-adv-x="1240" 
d="M1009 706q157 -89 157 -271q0 -143 -77.5 -251.5t-208 -164t-294.5 -55.5q-213 0 -368 110.5t-202 292.5l372 126q23 -87 77.5 -128.5t126.5 -41.5q75 0 115.5 34.5t40.5 88.5q0 46 -28.5 73t-85.5 27h-162l55 315h110q79 0 122 40.5t43 104.5q0 47 -30 71.5t-83 24.5
q-144 0 -209 -182l-353 116q74 210 230 316.5t375 106.5q221 0 359.5 -115.5t138.5 -302.5q0 -124 -56.5 -204.5t-164.5 -130.5z" />
    <glyph glyph-name="four" unicode="4" horiz-adv-x="1254" 
d="M1242 622l-61 -349h-170l-48 -273h-420l48 273h-598l59 338l701 812h460l-141 -801h170zM451 622h201l56 312z" />
    <glyph glyph-name="five" unicode="5" horiz-adv-x="1223" 
d="M1168 1075h-581l-39 -153q104 51 213 51q176 0 288 -127.5t112 -322.5q0 -255 -170.5 -407t-446.5 -152q-213 0 -350 96t-178 234l365 171q20 -67 69 -102t112 -35q84 0 129 54.5t45 129.5q0 61 -35.5 96t-94.5 35q-101 0 -162 -98h-369l227 878h928z" />
    <glyph glyph-name="six" unicode="6" horiz-adv-x="1301" 
d="M778 926q198 0 326.5 -120t128.5 -304q0 -161 -78.5 -284.5t-212.5 -188.5t-300 -65q-149 0 -265.5 58t-190.5 162q-105 148 -105 399q0 101 17 205q25 145 85 267t149 212.5t212.5 141t267.5 50.5q334 0 508 -279l-313 -210q-83 133 -203 133q-102 0 -178 -65t-104 -183
q112 71 256 71zM646 303q82 0 132 50.5t50 126.5q0 62 -40.5 100t-106.5 38q-82 0 -132 -50.5t-50 -126.5q0 -62 40.5 -100t106.5 -38z" />
    <glyph glyph-name="seven" unicode="7" horiz-adv-x="1130" 
d="M180 1423h1069l-59 -338q-156 -147 -282 -321t-210 -376.5t-92 -387.5h-443q30 307 187 596t390 479h-621z" />
    <glyph glyph-name="eight" unicode="8" horiz-adv-x="1255" 
d="M980 727q94 -37 147.5 -115t53.5 -184q0 -211 -160.5 -337.5t-435.5 -126.5q-163 0 -290 49t-200 141t-73 214q0 278 288 390q-76 45 -117.5 115t-41.5 157q0 192 157 310.5t410 118.5q114 0 211 -33t160 -88t98 -125t35 -145q0 -110 -68 -203t-174 -138zM670 864
q73 0 118.5 42t45.5 107q0 57 -38 90.5t-101 33.5q-72 0 -118 -41.5t-46 -106.5q0 -57 38 -91t101 -34zM589 291q82 0 132.5 41t50.5 108q0 62 -43.5 99.5t-116.5 37.5q-82 0 -133.5 -41.5t-51.5 -108.5q0 -62 44 -99t118 -37z" />
    <glyph glyph-name="nine" unicode="9" horiz-adv-x="1303" 
d="M1175 1239q105 -148 105 -398q0 -102 -17 -206q-55 -315 -243 -493t-463 -178q-164 0 -281.5 74.5t-208.5 219.5l292 210q92 -147 206 -147q106 0 179 69t98 194q-115 -72 -259 -72q-198 0 -326.5 118.5t-128.5 302.5q0 161 79 282t212 182.5t300 61.5q149 0 265.5 -58
t190.5 -162zM680 819q82 0 131 47.5t49 122.5q0 62 -39 96.5t-106 34.5q-82 0 -131 -47.5t-49 -122.5q0 -62 39 -96.5t106 -34.5z" />
    <glyph glyph-name="colon" unicode=":" horiz-adv-x="573" 
d="M94 676l74 420h430l-74 -420h-430zM-25 0l74 420h430l-73 -420h-431z" />
    <glyph glyph-name="semicolon" unicode=";" horiz-adv-x="573" 
d="M168 1096h430l-74 -420h-430zM-25 0l74 420h430l-76 -430q-13 -76 -32 -131t-54 -111.5t-92.5 -107.5t-141.5 -103l-121 171q74 42 122 95.5t67 98t29 98.5h-205z" />
    <glyph glyph-name="less" unicode="&#x3c;" 
d="M1242 1203l-65 -369l-713 -226l634 -225l-62 -347l-953 398l65 373z" />
    <glyph glyph-name="equal" unicode="=" 
d="M119 642l57 328h1024l-57 -328h-1024zM40 194l57 327h1024l-57 -327h-1024z" />
    <glyph glyph-name="greater" unicode="&#x3e;" 
d="M12 36l66 370l713 225l-634 225l61 347l953 -398l-65 -373z" />
    <glyph glyph-name="question" unicode="?" horiz-adv-x="1231" 
d="M400 471l19 107q24 136 89.5 225t214.5 151q120 50 120 120q0 73 -100 73q-76 0 -145.5 -41t-119.5 -119l-307 210q194 308 610 308q214 0 347.5 -107.5t133.5 -290.5q0 -280 -287 -411q-88 -40 -128.5 -85.5t-52.5 -116.5l-4 -23h-390zM297 0l65 369h430l-66 -369h-429z
" />
    <glyph glyph-name="at" unicode="@" horiz-adv-x="2066" 
d="M1539 992l-85 -481q-5 -30 -5 -48q0 -77 64 -77q54 0 91.5 56.5t52 129t14.5 147.5q0 218 -147 358t-392 140q-150 0 -283 -55t-228 -151.5t-150.5 -233.5t-55.5 -294q0 -250 161.5 -414t406.5 -164q217 0 406 122l154 -252q-237 -169 -566 -169q-254 0 -456 112.5
t-315 311.5t-113 449q0 224 79 417.5t217 329t331.5 213t416.5 77.5q192 0 353 -60t271 -165.5t171 -252.5t61 -319q0 -133 -31 -248t-90 -203t-153.5 -138.5t-213.5 -50.5q-108 0 -191 40.5t-128 117.5q-79 -134 -264 -134q-161 0 -261.5 114.5t-100.5 297.5
q0 139 52 252.5t149 180.5t222 67q167 0 228 -125l19 102h309zM985 367q46 0 81 39.5t51 95.5t16 115q0 135 -96 135q-71 0 -109.5 -71.5t-38.5 -165.5q0 -69 25 -108.5t71 -39.5z" />
    <glyph glyph-name="A" unicode="A" horiz-adv-x="1559" 
d="M1005 0l-34 206h-488l-97 -206h-474l764 1475h483l296 -1475h-450zM647 554h265l-68 415z" />
    <glyph glyph-name="B" unicode="B" horiz-adv-x="1421" 
d="M1169 740q89 -39 137 -108.5t48 -158.5q0 -212 -153 -342.5t-398 -130.5h-802l260 1475h701q206 0 335.5 -99t129.5 -253q0 -133 -68 -231t-190 -152zM846 895q59 0 99 36t40 89q0 39 -25 62.5t-67 23.5h-266l-37 -211h256zM763 369q65 0 107.5 37.5t42.5 95.5
q0 84 -95 84h-283l-38 -217h266z" />
    <glyph glyph-name="C" unicode="C" horiz-adv-x="1511" 
d="M763 -36q-310 0 -497 184.5t-187 492.5q0 181 61 341.5t168 276.5t260.5 183.5t331.5 67.5q228 0 389.5 -104.5t238.5 -295.5l-370 -181q-51 105 -110 148.5t-157 43.5q-86 0 -157.5 -40t-117 -106.5t-70.5 -151t-25 -175.5q0 -136 73.5 -215.5t198.5 -79.5
q182 0 288 217l370 -192q-134 -218 -295.5 -316t-392.5 -98z" />
    <glyph glyph-name="D" unicode="D" horiz-adv-x="1520" 
d="M1 0l260 1475h565q314 0 498.5 -168.5t184.5 -472.5q0 -242 -104 -432t-291 -296t-425 -106h-688zM498 379h200q115 0 200.5 62.5t127 162.5t41.5 222q0 132 -70 201t-190 69h-182z" />
    <glyph glyph-name="E" unicode="E" horiz-adv-x="1282" 
d="M1323 1096h-698l-31 -176h626l-63 -359h-628l-31 -182h708l-66 -379h-1139l260 1475h1129z" />
    <glyph glyph-name="F" unicode="F" horiz-adv-x="1277" 
d="M1340 1096h-715l-34 -193h603l-65 -362h-603l-95 -541h-430l260 1475h1146z" />
    <glyph glyph-name="G" unicode="G" horiz-adv-x="1516" 
d="M821 536l58 327h616l-153 -863h-348l20 111q-117 -140 -323 -140q-272 0 -442 184.5t-170 485.5q0 181 61 341.5t168 276.5t260.5 183.5t331.5 67.5q209 0 363 -92.5t232 -258.5l-356 -200q-54 89 -111 125.5t-147 36.5q-109 0 -193 -69t-125.5 -175.5t-41.5 -228.5
q0 -134 75.5 -214.5t195.5 -80.5q96 0 174.5 48t108.5 131l1 4h-255z" />
    <glyph glyph-name="H" unicode="H" horiz-adv-x="1532" 
d="M1169 1475h430l-260 -1475h-430l99 556h-479l-98 -556h-430l260 1475h430l-95 -540h478z" />
    <glyph glyph-name="I" unicode="I" horiz-adv-x="624" 
d="M1 0l260 1475h430l-260 -1475h-430z" />
    <glyph glyph-name="J" unicode="J" horiz-adv-x="1184" 
d="M494 -36q-188 0 -313.5 82t-202.5 253l357 188q29 -80 71 -112t98 -32q72 0 114 51.5t61 157.5l163 923h430l-176 -997q-44 -254 -196 -384t-406 -130z" />
    <glyph glyph-name="K" unicode="K" horiz-adv-x="1479" 
d="M1644 1475l-638 -635l361 -841h-478l-206 520l-195 -192l-57 -327h-430l260 1475h430l-90 -510l500 510h543z" />
    <glyph glyph-name="L" unicode="L" horiz-adv-x="1166" 
d="M498 379h608l-69 -379h-1036l260 1475h430z" />
    <glyph glyph-name="M" unicode="M" horiz-adv-x="1870" 
d="M1349 1475h588l-260 -1475h-430l128 729l-335 -729h-402l-76 745l-131 -745h-430l260 1475h569l100 -909z" />
    <glyph glyph-name="N" unicode="N" horiz-adv-x="1520" 
d="M1157 1475h430l-260 -1475h-466l-291 792l-139 -792h-430l260 1475h466l291 -792z" />
    <glyph glyph-name="O" unicode="O" horiz-adv-x="1594" 
d="M763 -36q-310 0 -497 184.5t-187 492.5q0 181 61 341.5t168 276.5t260.5 183.5t331.5 67.5q310 0 496.5 -184t186.5 -492q0 -181 -61 -341.5t-168 -277t-260.5 -184t-330.5 -67.5zM782 353q109 0 192.5 69t125 175.5t41.5 228.5q0 135 -71 215t-189 80q-109 0 -193 -69
t-125.5 -175.5t-41.5 -228.5q0 -135 71.5 -215t189.5 -80z" />
    <glyph glyph-name="P" unicode="P" horiz-adv-x="1404" 
d="M985 1475q207 0 339.5 -126.5t132.5 -328.5q0 -250 -163 -400.5t-433 -150.5h-347l-83 -469h-430l260 1475h724zM844 838q82 0 130.5 41t48.5 107q0 51 -32.5 80.5t-88.5 29.5h-276l-46 -258h264z" />
    <glyph glyph-name="Q" unicode="Q" horiz-adv-x="1594" 
d="M1583 834q0 -198 -71 -369.5t-200 -291.5l97 -142l-259 -169l-102 150q-135 -48 -285 -48q-310 0 -497 184.5t-187 492.5q0 181 61 341.5t168 276.5t260.5 183.5t331.5 67.5q310 0 496.5 -184t186.5 -492zM782 353q12 0 32 2l-137 201l258 168l132 -193q74 129 74 295
q0 135 -71 215t-189 80q-109 0 -193 -69t-125.5 -175.5t-41.5 -228.5q0 -135 71.5 -215t189.5 -80z" />
    <glyph glyph-name="R" unicode="R" horiz-adv-x="1414" 
d="M1448 1042q0 -184 -90.5 -316t-253.5 -190l183 -536h-446l-141 495h-182l-87 -495h-430l260 1475h702q212 0 348.5 -121t136.5 -312zM625 1096l-42 -238h253q81 0 130 36.5t49 96.5q0 49 -33.5 77t-91.5 28h-265z" />
    <glyph glyph-name="S" unicode="S" horiz-adv-x="1430" 
d="M653 -37q-191 0 -367 70.5t-287 187.5l262 286q71 -80 184.5 -122.5t248.5 -42.5q102 0 162 26.5t60 72.5q0 81 -227 110q-265 33 -402 154.5t-137 312.5q0 230 174.5 362t481.5 132q183 0 351 -56.5t286 -158.5l-237 -290q-76 62 -181 94.5t-220 32.5q-93 0 -152 -27.5
t-59 -72.5q0 -76 196 -99q290 -34 431 -149t141 -319q0 -236 -189.5 -370t-519.5 -134z" />
    <glyph glyph-name="T" unicode="T" horiz-adv-x="1315" 
d="M1458 1475l-66 -379h-422l-194 -1096h-430l194 1096h-422l66 379h1274z" />
    <glyph glyph-name="U" unicode="U" horiz-adv-x="1482" 
d="M689 -37q-274 0 -441 140t-167 369q0 72 13 144l152 859h430l-153 -865q-7 -39 -7 -75q0 -83 53 -133t141 -50q110 0 180 65.5t92 192.5l153 865h430l-162 -916q-52 -293 -233 -444.5t-481 -151.5z" />
    <glyph glyph-name="V" unicode="V" horiz-adv-x="1509" 
d="M1182 1475h483l-757 -1475h-461l-275 1475h445l135 -936z" />
    <glyph glyph-name="W" unicode="W" horiz-adv-x="2251" 
d="M1925 1475h472l-679 -1475h-447l-88 836l-361 -836h-454l-186 1475h453l63 -871l357 871h453l64 -867z" />
    <glyph glyph-name="X" unicode="X" horiz-adv-x="1485" 
d="M1612 1475l-581 -719l346 -756h-459l-184 429l-316 -429h-502l612 775l-319 700h464l158 -388l289 388h492z" />
    <glyph glyph-name="Y" unicode="Y" horiz-adv-x="1393" 
d="M1078 1475h474l-633 -898l-102 -577h-430l101 577l-319 898h431l151 -511z" />
    <glyph glyph-name="Z" unicode="Z" horiz-adv-x="1327" 
d="M-19 0l62 353l727 743h-589l67 379h1140l-63 -353l-731 -743h627l-67 -379h-1173z" />
    <glyph glyph-name="bracketleft" unicode="[" horiz-adv-x="884" 
d="M940 1208h-327l-196 -1114h326l-61 -348h-726l319 1810h726z" />
    <glyph glyph-name="backslash" unicode="\" horiz-adv-x="1728" 
d="M1574 -215h-397l-986 1823h404z" />
    <glyph glyph-name="bracketright" unicode="]" horiz-adv-x="884" 
d="M966 1556l-320 -1810h-726l62 348h326l197 1114h-327l62 348h726z" />
    <glyph glyph-name="asciicircum" unicode="^" horiz-adv-x="1031" 
d="M1060 886h-339l-76 291l-179 -291h-376l395 589h388z" />
    <glyph glyph-name="underscore" unicode="_" horiz-adv-x="1157" 
d="M-25 0l58 328h1014l-58 -328h-1014z" />
    <glyph glyph-name="grave" unicode="`" horiz-adv-x="614" 
d="M254 1178l-322 378h385l242 -378h-305z" />
    <glyph glyph-name="a" unicode="a" horiz-adv-x="1153" 
d="M603 1120q228 0 365 -100t137 -265q0 -48 -10 -105l-115 -650h-389l18 109q-83 -140 -271 -140q-148 0 -241.5 92.5t-93.5 238.5q0 169 131.5 266.5t361.5 97.5h190l1 6q4 24 4 35q0 40 -40 62.5t-104 22.5q-116 0 -214 -75l-193 254q174 151 463 151zM473 242
q58 0 106 39.5t58 97.5l9 51h-117q-62 0 -102.5 -32t-40.5 -80q0 -35 23.5 -55.5t63.5 -20.5z" />
    <glyph glyph-name="b" unicode="b" horiz-adv-x="1254" 
d="M836 1126q165 0 275 -131.5t110 -359.5q0 -144 -40.5 -269t-110.5 -211.5t-166 -136t-205 -49.5q-95 0 -173 38.5t-122 103.5l-19 -111h-399l260 1475h409l-83 -475q100 126 264 126zM604 312q64 0 111 45t68.5 110t21.5 138q0 178 -141 178q-64 0 -110 -45t-66 -110
t-20 -138q0 -178 136 -178z" />
    <glyph glyph-name="c" unicode="c" horiz-adv-x="1153" 
d="M570 -31q-238 0 -385.5 143.5t-147.5 373.5q0 288 174 464t460 176q164 0 291 -86.5t183 -237.5l-349 -148q-23 69 -57.5 99t-88.5 30q-48 0 -86.5 -24.5t-62 -65t-36 -90t-12.5 -102.5q0 -89 36 -139t102 -50q102 0 177 146l326 -167q-98 -165 -226 -243.5t-298 -78.5z
" />
    <glyph glyph-name="d" unicode="d" horiz-adv-x="1254" 
d="M927 1475h409l-260 -1475h-381l20 110q-44 -62 -113.5 -101.5t-159.5 -39.5q-183 0 -295 130.5t-112 361.5q0 144 40 268.5t109.5 211t164.5 136t202 49.5q95 0 171.5 -38t118.5 -102zM592 312q64 0 109.5 45t65.5 110t20 138q0 178 -136 178q-64 0 -111 -45t-68 -110
t-21 -138q0 -178 141 -178z" />
    <glyph glyph-name="e" unicode="e" horiz-adv-x="1179" 
d="M1122 428h-670q15 -68 57 -105.5t109 -37.5q115 0 194 102l248 -232q-183 -186 -487 -186q-240 0 -388 143t-148 374q0 288 171 464t450 176q217 0 351 -149.5t134 -393.5q0 -56 -21 -155zM463 655h287q-2 73 -33 114t-87 41q-57 0 -100.5 -42t-66.5 -113z" />
    <glyph glyph-name="f" unicode="f" horiz-adv-x="862" 
d="M680 1101l-1 -5h253l-59 -328h-251l-137 -768h-409l135 768h-146l58 328h146l9 49q30 169 156.5 264.5t321.5 95.5q133 0 256 -40l-92 -287q-58 17 -114 17q-61 0 -89.5 -22t-36.5 -72z" />
    <glyph glyph-name="g" unicode="g" horiz-adv-x="1254" 
d="M859 1096h410l-183 -1033q-37 -214 -203 -333t-425 -119q-155 0 -273.5 42.5t-196.5 109.5l196 280q125 -98 275 -98q198 0 225 159l8 46q-76 -105 -232 -105q-181 0 -300 127.5t-119 326.5q0 282 143.5 454.5t377.5 172.5q89 0 163 -34t117 -93zM591 383q85 0 140 72
t55 168q0 77 -37 121t-99 44q-84 0 -139.5 -72t-55.5 -167q0 -77 37 -121.5t99 -44.5z" />
    <glyph glyph-name="h" unicode="h" horiz-adv-x="1210" 
d="M851 1124q146 0 233.5 -83.5t87.5 -222.5q0 -48 -9 -100l-126 -718h-409l114 649q4 25 4 54q0 38 -21.5 59t-59.5 21q-60 0 -105 -52.5t-61 -144.5l-104 -586h-409l260 1475h409l-80 -462q109 111 276 111z" />
    <glyph glyph-name="i" unicode="i" horiz-adv-x="574" 
d="M190 1178l53 297h415l-52 -297h-416zM-14 0l193 1096h410l-194 -1096h-409z" />
    <glyph glyph-name="j" unicode="j" horiz-adv-x="573" 
d="M189 1178l54 297h415l-53 -297h-416zM-65 -386q-141 0 -263 47l103 307q56 -19 90 -19q112 0 132 121l181 1026h410l-203 -1152q-58 -330 -450 -330z" />
    <glyph glyph-name="k" unicode="k" horiz-adv-x="1230" 
d="M1327 1096l-479 -456l266 -640h-428l-131 360l-116 -110l-44 -250h-409l260 1475h409l-118 -675l294 296h496z" />
    <glyph glyph-name="l" unicode="l" horiz-adv-x="573" 
d="M-14 0l260 1475h409l-260 -1475h-409z" />
    <glyph glyph-name="m" unicode="m" horiz-adv-x="1809" 
d="M1474 1125q129 0 215.5 -72.5t86.5 -216.5q0 -32 -9 -90l-132 -746h-409l116 658q5 35 5 41q0 84 -73 84q-55 0 -95.5 -48t-57.5 -132l-106 -603h-410l117 659q4 20 4 41q0 83 -71 83q-57 0 -98 -50.5t-56 -136.5l-106 -596h-409l193 1096h400l-18 -99q107 128 294 128
q91 0 167.5 -39.5t110.5 -123.5q53 71 145 117t196 46z" />
    <glyph glyph-name="n" unicode="n" horiz-adv-x="1210" 
d="M851 1124q146 0 233.5 -83.5t87.5 -222.5q0 -48 -9 -100l-126 -718h-409l114 649q4 25 4 54q0 38 -21.5 59t-59.5 21q-61 0 -104.5 -48t-59.5 -139l-106 -596h-409l193 1096h400l-20 -111q110 139 292 139z" />
    <glyph glyph-name="o" unicode="o" horiz-adv-x="1247" 
d="M573 -31q-240 0 -388 143t-148 374q0 288 175 464t462 176q240 0 388 -143t148 -374q0 -288 -175 -464t-462 -176zM594 312q64 0 111 42.5t68.5 105.5t21.5 135q0 89 -37 138.5t-105 49.5q-64 0 -110.5 -42t-68 -105t-21.5 -135q0 -89 36.5 -139t104.5 -50z" />
    <glyph glyph-name="p" unicode="p" horiz-adv-x="1254" 
d="M828 1126q176 0 284.5 -130t108.5 -361q0 -192 -69 -345t-189.5 -237t-268.5 -84q-92 0 -165.5 36.5t-114.5 99.5l-82 -463h-410l257 1454h381l-20 -115q44 64 116 104.5t172 40.5zM604 312q64 0 111 45t68.5 110t21.5 138q0 178 -141 178q-64 0 -110 -45t-66 -110
t-20 -138q0 -178 136 -178z" />
    <glyph glyph-name="q" unicode="q" horiz-adv-x="1254" 
d="M869 1096h400l-257 -1454h-410l79 446q-84 -119 -241 -119q-183 0 -294.5 130.5t-111.5 361.5q0 193 69 345.5t189 236t268 83.5q93 0 170.5 -37.5t119.5 -100.5zM591 312q64 0 109.5 45t65.5 110t20 138q0 178 -136 178q-64 0 -111 -45t-68 -110t-21 -138
q0 -178 141 -178z" />
    <glyph glyph-name="r" unicode="r" horiz-adv-x="899" 
d="M835 1121q70 0 151 -21l-97 -354q-65 18 -130 18q-109 0 -183.5 -83.5t-100.5 -231.5l-80 -449h-409l193 1096h391l-24 -140q41 80 118 122.5t171 42.5z" />
    <glyph glyph-name="s" unicode="s" horiz-adv-x="1144" 
d="M548 -39q-190 0 -336 46.5t-234 127.5l215 257q53 -53 143.5 -82t199.5 -29q67 0 94.5 10.5t27.5 36.5q0 14 -9 23t-46.5 19.5t-109.5 19.5q-391 52 -391 345q0 129 73.5 221t195 135t278.5 43q276 0 469 -142l-203 -256q-111 78 -280 78q-138 0 -138 -49
q0 -13 12.5 -22.5t55 -19.5t119.5 -18q371 -39 371 -332q0 -197 -136.5 -304.5t-370.5 -107.5z" />
    <glyph glyph-name="t" unicode="t" horiz-adv-x="965" 
d="M649 768l-59 -335q-5 -27 -5 -43q0 -39 21 -58t70 -19q42 0 107 17l58 -315q-123 -46 -297 -46q-185 0 -284 81.5t-99 223.5q0 41 8 92l71 402h-175l58 328h175l55 316h410l-56 -316h259l-59 -328h-258z" />
    <glyph glyph-name="u" unicode="u" horiz-adv-x="1210" 
d="M815 1096h410l-194 -1096h-399l19 113q-112 -142 -292 -142q-146 0 -233.5 84t-87.5 223q0 48 9 100l126 718h410l-115 -650q-4 -25 -4 -54q0 -37 22 -58.5t60 -21.5q60 0 105 53t61 145z" />
    <glyph glyph-name="v" unicode="v" horiz-adv-x="1219" 
d="M872 1096h436l-585 -1096h-400l-219 1096h413l77 -599z" />
    <glyph glyph-name="w" unicode="w" horiz-adv-x="1810" 
d="M1455 1096h438l-480 -1096h-397l-86 653l-294 -653h-405l-121 1096h416l28 -556l242 556h390l58 -560z" />
    <glyph glyph-name="x" unicode="x" horiz-adv-x="1141" 
d="M1191 1096l-399 -533l249 -563h-410l-102 252l-163 -252h-450l421 579l-237 517h411l85 -230l145 230h450z" />
    <glyph glyph-name="y" unicode="y" horiz-adv-x="1242" 
d="M880 1096h450l-634 -1176q-88 -162 -201.5 -235.5t-289.5 -73.5q-135 0 -249 44l116 302q62 -18 109 -18q99 0 144 74l29 48l-250 1035h424l93 -574z" />
    <glyph glyph-name="z" unicode="z" horiz-adv-x="1069" 
d="M-16 0l53 302l475 466h-401l57 328h889l-53 -302l-469 -466h423l-57 -328h-917z" />
    <glyph glyph-name="braceleft" unicode="{" horiz-adv-x="925" 
d="M920 1556h122l-61 -348h-30q-77 0 -127.5 -38.5t-62.5 -108.5l-28 -155q-20 -113 -76 -174t-154 -88q141 -59 141 -210q0 -30 -6 -66l-24 -135q-4 -26 -4 -37q0 -102 122 -102h52l-61 -348h-100q-204 0 -314.5 91t-110.5 256q0 46 9 97l18 104q4 21 4 46q0 68 -41 105
t-117 37l59 338q189 0 221 187l24 134q36 205 174.5 310t370.5 105z" />
    <glyph glyph-name="bar" unicode="|" horiz-adv-x="593" 
d="M-44 -254l319 1810h400l-320 -1810h-399z" />
    <glyph glyph-name="braceright" unicode="}" horiz-adv-x="925" 
d="M733 963q0 -68 41.5 -105.5t117.5 -37.5l-59 -338q-190 0 -222 -186l-23 -134q-36 -205 -174.5 -310.5t-370.5 -105.5h-123l62 348h29q77 0 128 39t63 109l27 154q20 112 76.5 173.5t154.5 88.5q-142 59 -142 210q0 25 7 67l23 134q4 26 4 38q0 101 -122 101h-52l62 348
h100q204 0 314.5 -91t110.5 -256q0 -46 -9 -97l-19 -103q-4 -21 -4 -46z" />
    <glyph glyph-name="asciitilde" unicode="~" 
d="M254 386l-166 263q202 162 374 162q99 0 215 -56q80 -37 122 -37q82 0 194 97l166 -263q-202 -162 -374 -162q-103 0 -215 56q-78 37 -121 37q-83 0 -195 -97z" />
    <glyph glyph-name="uni00A0" unicode="&#xa0;" horiz-adv-x="430" 
 />
    <glyph glyph-name="exclamdown" unicode="&#xa1;" horiz-adv-x="634" 
d="M629 1096l-69 -389h-430l69 389h430zM438 604l25 -479l-89 -504h-441l90 504l190 479h225z" />
    <glyph glyph-name="cent" unicode="&#xa2;" horiz-adv-x="1182" 
d="M633 497q95 0 165 138l324 -166q-77 -130 -172 -204.5t-217 -98.5l-30 -166h-354l36 198q-136 56 -214.5 176.5t-78.5 280.5q0 243 129 404.5t351 201.5l29 162h354l-34 -191q91 -38 158 -109.5t102 -167.5l-348 -146q-22 67 -54.5 94.5t-90.5 27.5q-86 0 -133 -77.5
t-47 -183.5q0 -82 32.5 -127.5t92.5 -45.5z" />
    <glyph glyph-name="sterling" unicode="&#xa3;" 
d="M666 580q-27 -130 -110 -240l604 8l-61 -348h-1085l59 334q117 117 158 246h-144l42 235h104q-19 89 -19 148q0 153 76.5 266.5t210 171.5t305.5 58q331 0 504 -260l-315 -210q-57 109 -178 109q-87 0 -138 -49.5t-51 -129.5q0 -38 20 -104h344l-42 -235h-284z" />
    <glyph glyph-name="currency" unicode="&#xa4;" horiz-adv-x="1373" 
d="M1262 750q0 -202 -124 -356l144 -164l-175 -158l-152 173q-129 -70 -282 -70q-159 0 -289 89l-213 -192l-144 160l210 190q-70 118 -70 253q0 202 125 355l-144 163l174 159l151 -173q127 69 283 69q152 0 282 -85l209 189l151 -167l-205 -185q69 -116 69 -250zM506 694
q0 -94 54.5 -150.5t138.5 -56.5q95 0 159.5 71t64.5 171q0 90 -53.5 149t-141.5 59q-94 0 -158 -69t-64 -174z" />
    <glyph glyph-name="yen" unicode="&#xa5;" horiz-adv-x="1364" 
d="M1511 1423l-454 -602h218l-42 -235h-333l-12 -72h333l-42 -235h-332l-49 -279h-420l49 279h-333l42 235h332l12 72h-332l41 235h219l-245 602h425l153 -433l305 433h465z" />
    <glyph glyph-name="brokenbar" unicode="&#xa6;" horiz-adv-x="593" 
d="M135 764l140 792h400l-140 -792h-400zM-44 -254l139 793h400l-140 -793h-399z" />
    <glyph glyph-name="section" unicode="&#xa7;" horiz-adv-x="1222" 
d="M1181 656q0 -200 -159 -329q74 -90 74 -221q0 -94 -31 -169t-86.5 -125.5t-135 -84t-172.5 -48t-203 -14.5q-348 0 -541 226l253 238q109 -132 304 -132q78 0 132 22.5t54 59.5q0 20 -15.5 35t-46.5 24t-61.5 14t-77.5 10q-203 22 -312.5 124.5t-109.5 253.5
q0 215 176 311q-73 88 -73 212q0 108 45 193.5t123.5 139t181 81.5t221.5 28q303 0 505 -169l-220 -259q-42 40 -122 69t-147 29q-72 0 -116 -20.5t-44 -59.5q0 -21 13 -36t42.5 -25t55.5 -15.5t75 -13.5q66 -11 115.5 -23.5t110 -39t99.5 -61.5t66 -93t27 -132zM453 588
q0 -26 23.5 -43.5t58.5 -26.5t91 -16q24 -3 55 -8q92 39 92 92q0 34 -34.5 51.5t-112.5 30.5q-18 3 -82 16q-38 -13 -64.5 -39.5t-26.5 -56.5z" />
    <glyph glyph-name="dieresis" unicode="&#xa8;" horiz-adv-x="614" 
d="M-60 1178l53 297h346l-53 -297h-346zM378 1178l53 297h346l-53 -297h-346z" />
    <glyph glyph-name="copyright" unicode="&#xa9;" horiz-adv-x="2008" 
d="M974 -163q-235 0 -430.5 106.5t-308.5 293t-113 413.5q0 203 74 385t203 314.5t311.5 210t390.5 77.5q235 0 430.5 -106.5t308.5 -293t113 -413.5q0 -203 -74 -385t-203 -314.5t-311.5 -210t-390.5 -77.5zM972 82q157 0 290.5 60t223.5 163t140.5 241t50.5 293
q0 159 -77.5 286.5t-208.5 197.5t-288 70t-291 -60t-224 -163t-140.5 -241t-50.5 -293q0 -159 77.5 -286.5t209 -197.5t288.5 -70zM1029 268q-188 0 -304 116.5t-116 310.5q0 217 129 361t339 144q134 0 242 -72.5t140 -179.5l-229 -106q-27 56 -59.5 80t-80.5 24
q-51 0 -90.5 -22.5t-62 -59.5t-33.5 -79.5t-11 -88.5q0 -173 151 -173q49 0 84.5 24t79.5 93l217 -132q-57 -113 -166 -176.5t-230 -63.5z" />
    <glyph glyph-name="ordfeminine" unicode="&#xaa;" horiz-adv-x="769" 
d="M496 1490q151 0 242.5 -66t91.5 -173q0 -35 -6 -68l-74 -422h-255l12 70q-57 -91 -178 -91q-99 0 -161 60.5t-62 155.5q0 110 85 173.5t233 63.5h124q3 15 3 22q0 24 -24 38.5t-61 14.5q-72 0 -135 -46l-129 171q118 97 294 97zM418 923q34 0 63 24.5t35 59.5l5 30h-75
q-35 0 -58 -18.5t-23 -47.5q0 -22 14 -35t39 -13z" />
    <glyph glyph-name="guillemotleft" unicode="&#xab;" horiz-adv-x="1324" 
d="M382 102l-306 471l435 471l234 -210l-258 -285l166 -256zM926 102l-306 471l435 471l234 -210l-258 -285l166 -256z" />
    <glyph glyph-name="logicalnot" unicode="&#xac;" 
d="M700 103l60 336h-657l55 307h994l-114 -643h-338z" />
    <glyph glyph-name="uni00AD" unicode="&#xad;" horiz-adv-x="798" 
d="M51 429l58 328h655l-57 -328h-656z" />
    <glyph glyph-name="registered" unicode="&#xae;" horiz-adv-x="1119" 
d="M657 1516q211 0 355.5 -135t144.5 -335q0 -150 -72 -273t-193 -192t-264 -69q-139 0 -254 61.5t-181 170t-66 240.5q0 151 73 274t194 190.5t263 67.5zM622 644q164 0 278.5 118t114.5 284q0 143 -104 240t-248 97q-165 0 -279.5 -117.5t-114.5 -284.5q0 -143 104 -240
t249 -97zM733 1254q71 0 112.5 -39.5t41.5 -103.5q0 -55 -31 -95.5t-84 -59.5l50 -159h-150l-39 145h-58l-25 -145h-147l81 457h249zM595 1054h86q21 0 37.5 13t16.5 33q0 16 -11 26.5t-28 10.5h-86z" />
    <glyph glyph-name="macron" unicode="&#xaf;" horiz-adv-x="614" 
d="M-18 1239l42 236h625l-42 -236h-625z" />
    <glyph glyph-name="degree" unicode="&#xb0;" horiz-adv-x="909" 
d="M531 702q-164 0 -277 110t-113 267q0 179 126.5 302.5t305.5 123.5q164 0 277.5 -110t113.5 -267q0 -180 -127 -303t-306 -123zM539 947q65 0 110.5 51.5t45.5 123.5q0 61 -37.5 100t-92.5 39q-66 0 -111 -52.5t-45 -123.5q0 -60 37 -99t93 -39z" />
    <glyph glyph-name="plusminus" unicode="&#xb1;" 
d="M871 1023h338l-57 -328h-338l-47 -264h-348l47 264h-338l57 328h338l49 279h349zM5 0l57 328h1024l-57 -328h-1024z" />
    <glyph glyph-name="two.sups" unicode="&#xb2;" horiz-adv-x="845" 
d="M702 1099l-120 -103h304l-41 -235h-704l39 220l329 282q71 61 94 89t23 63q0 50 -57 50q-83 0 -134 -131l-248 84q67 152 165.5 222t241.5 70q144 0 229.5 -75t85.5 -207q0 -91 -49 -163.5t-158 -165.5z" />
    <glyph glyph-name="three.sups" unicode="&#xb3;" horiz-adv-x="825" 
d="M770 1218q99 -59 99 -175q0 -141 -108 -224t-273 -83q-140 0 -241 72t-132 192l251 85q27 -107 127 -107q45 0 69.5 20.5t24.5 52.5q0 28 -17 45t-51 17h-107l35 205h73q49 0 75.5 26t26.5 64q0 60 -70 60q-90 0 -128 -107l-239 78q48 136 150.5 203t248.5 67t236 -75.5
t90 -198.5q0 -153 -140 -217z" />
    <glyph glyph-name="acute" unicode="&#xb4;" horiz-adv-x="614" 
d="M1 1178l241 378h393l-321 -378h-313z" />
    <glyph glyph-name="uni00B5" unicode="&#xb5;" horiz-adv-x="1216" 
d="M821 1096h410l-194 -1096h-399l19 110q-104 -130 -267 -138l-65 -371h-410l264 1495h410l-115 -650q-4 -25 -4 -54q0 -37 22 -58.5t60 -21.5q60 0 105 53t61 145z" />
    <glyph glyph-name="paragraph" unicode="&#xb6;" horiz-adv-x="1320" 
d="M392 0l108 611h-20q-151 0 -246.5 106.5t-95.5 276.5q0 203 133.5 342t338.5 139h359l-260 -1475h-317zM811 0l260 1475h317l-261 -1475h-316z" />
    <glyph glyph-name="periodcentered" unicode="&#xb7;" horiz-adv-x="655" 
d="M93 438l74 420h430l-74 -420h-430z" />
    <glyph glyph-name="cedilla" unicode="&#xb8;" horiz-adv-x="614" 
d="M58 -379l181 399h331l-180 -399h-332z" />
    <glyph glyph-name="one.sups" unicode="&#xb9;" horiz-adv-x="700" 
d="M819 1686l-163 -925h-282l103 584l-170 -133l-137 171l388 303h261z" />
    <glyph glyph-name="ordmasculine" unicode="&#xba;" horiz-adv-x="833" 
d="M486 740q-158 0 -256 93.5t-98 244.5q0 188 114 302t302 114q158 0 256 -93.5t98 -243.5q0 -188 -114 -302.5t-302 -114.5zM501 972q53 0 87 48.5t34 124.5q0 57 -23 88t-65 31q-53 0 -87 -48.5t-34 -124.5q0 -57 23 -88t65 -31z" />
    <glyph glyph-name="guillemotright" unicode="&#xbb;" horiz-adv-x="1325" 
d="M408 1044l306 -471l-435 -471l-235 211l258 285l-166 256zM951 1044l306 -471l-435 -471l-234 211l258 285l-166 256z" />
    <glyph glyph-name="onequarter" unicode="&#xbc;" horiz-adv-x="2018" 
d="M620 550h-283l103 584l-170 -133l-137 171l388 303h261zM1467 1475h337l-1122 -1475h-337zM1975 411l-41 -236h-110l-31 -175h-283l31 175h-384l40 228l450 522h309l-90 -514h109zM1464 411h118l33 183z" />
    <glyph glyph-name="onehalf" unicode="&#xbd;" horiz-adv-x="2144" 
d="M620 550h-283l103 584l-170 -133l-137 171l388 303h261zM1467 1475h337l-1122 -1475h-337zM1867 338l-121 -102h304l-41 -236h-703l39 220l328 282q71 61 94 89t23 63q0 51 -56 51q-84 0 -135 -132l-247 84q67 152 165 222t241 70q144 0 230 -74.5t86 -206.5
q0 -91 -49.5 -164t-157.5 -166z" />
    <glyph glyph-name="threequarters" unicode="&#xbe;" horiz-adv-x="2101" 
d="M833 835q0 -141 -108.5 -224.5t-272.5 -83.5q-140 0 -241.5 72.5t-132.5 192.5l251 85q14 -56 48 -82t79 -26t69.5 20.5t24.5 52.5q0 28 -17 45t-51 17h-107l36 205h72q49 0 75.5 26t26.5 64q0 61 -70 61q-90 0 -128 -108l-239 78q48 136 150.5 203t248.5 67t236 -75.5
t90 -198.5q0 -153 -140 -217q100 -60 100 -174zM1550 1475h337l-1122 -1475h-337zM2058 411l-41 -236h-110l-31 -175h-283l31 175h-384l40 228l450 522h309l-90 -514h109zM1547 411h118l33 183z" />
    <glyph glyph-name="questiondown" unicode="&#xbf;" horiz-adv-x="1231" 
d="M935 1096l-66 -369h-429l66 369h429zM831 625l-18 -107q-24 -136 -89.5 -225.5t-214.5 -151.5q-63 -26 -91.5 -54.5t-28.5 -64.5q0 -73 99 -73q76 0 146 41.5t120 118.5l307 -210q-195 -309 -610 -309q-214 0 -347.5 108t-133.5 291q0 279 287 410q87 40 128 85.5
t53 117.5l4 23h389z" />
    <glyph glyph-name="Agrave" unicode="&#xc0;" horiz-adv-x="1559" 
d="M1115 1567h-305l-322 379h385zM1005 0l-34 206h-488l-97 -206h-474l764 1475h483l296 -1475h-450zM647 554h265l-68 415z" />
    <glyph glyph-name="Aacute" unicode="&#xc1;" horiz-adv-x="1559" 
d="M1335 1946l-320 -379h-314l241 379h393zM1005 0l-34 206h-488l-97 -206h-474l764 1475h483l296 -1475h-450zM647 554h265l-68 415z" />
    <glyph glyph-name="Acircumflex" unicode="&#xc2;" horiz-adv-x="1559" 
d="M961 1706l-123 -150h-331l292 354h367l167 -354h-302zM1005 0l-34 206h-488l-97 -206h-474l764 1475h483l296 -1475h-450zM647 554h265l-68 415z" />
    <glyph glyph-name="Atilde" unicode="&#xc3;" horiz-adv-x="1559" 
d="M804 1631q-70 0 -152 -87l-179 222q110 99 182.5 130.5t144.5 31.5q43 0 80 -8.5t56 -17.5t46 -25q58 -32 92 -32q70 0 152 87l179 -222q-110 -99 -182.5 -130.5t-144.5 -31.5q-43 0 -80 8.5t-56 17.5t-46 25q-58 32 -92 32zM1005 0l-34 206h-488l-97 -206h-474l764 1475
h483l296 -1475h-450zM647 554h265l-68 415z" />
    <glyph glyph-name="Adieresis" unicode="&#xc4;" horiz-adv-x="1559" 
d="M925 1864l-54 -297h-346l54 297h346zM1363 1864l-53 -297h-346l53 297h346zM1005 0l-34 206h-488l-97 -206h-474l764 1475h483l296 -1475h-450zM647 554h265l-68 415z" />
    <glyph glyph-name="Aring" unicode="&#xc5;" horiz-adv-x="1559" 
d="M923 1554q-115 0 -186.5 72t-71.5 183q0 124 90 206.5t213 82.5q115 0 186 -72.5t71 -183.5q0 -120 -89.5 -204t-212.5 -84zM956 1908q-38 0 -62.5 -29.5t-24.5 -66.5q0 -30 18 -48.5t46 -18.5q36 0 61.5 24.5t25.5 64.5q0 32 -17 53t-47 21zM1005 0l-34 206h-488
l-97 -206h-474l764 1475h483l296 -1475h-450zM647 554h265l-68 415z" />
    <glyph glyph-name="AE" unicode="&#xc6;" horiz-adv-x="2276" 
d="M2315 1096h-650l-31 -176h584l-64 -359h-583l-32 -182h662l-67 -379h-1093l37 206h-498l-152 -206h-524l1137 1475h1341zM1141 564l94 532l-391 -532h297z" />
    <glyph glyph-name="Ccedilla" unicode="&#xc7;" horiz-adv-x="1511" 
d="M793 353q182 0 288 217l370 -192q-111 -181 -240 -278t-298 -125l-159 -354h-332l163 362q-235 51 -370.5 225t-135.5 433q0 181 61 341.5t168 276.5t260.5 183.5t331.5 67.5q228 0 389.5 -104.5t238.5 -295.5l-370 -181q-51 105 -110 148.5t-157 43.5q-86 0 -157.5 -40
t-117 -106.5t-70.5 -151t-25 -175.5q0 -136 73.5 -215.5t198.5 -79.5z" />
    <glyph glyph-name="Egrave" unicode="&#xc8;" horiz-adv-x="1282" 
d="M1047 1567h-306l-321 379h385zM1323 1096h-698l-31 -176h626l-63 -359h-628l-31 -182h708l-66 -379h-1139l260 1475h1129z" />
    <glyph glyph-name="Eacute" unicode="&#xc9;" horiz-adv-x="1282" 
d="M1267 1946l-321 -379h-313l240 379h394zM1323 1096h-698l-31 -176h626l-63 -359h-628l-31 -182h708l-66 -379h-1139l260 1475h1129z" />
    <glyph glyph-name="Ecircumflex" unicode="&#xca;" horiz-adv-x="1282" 
d="M892 1706l-123 -150h-331l292 354h368l167 -354h-302zM1323 1096h-698l-31 -176h626l-63 -359h-628l-31 -182h708l-66 -379h-1139l260 1475h1129z" />
    <glyph glyph-name="Edieresis" unicode="&#xcb;" horiz-adv-x="1282" 
d="M856 1864l-53 -297h-346l53 297h346zM1294 1864l-53 -297h-346l53 297h346zM1323 1096h-698l-31 -176h626l-63 -359h-628l-31 -182h708l-66 -379h-1139l260 1475h1129z" />
    <glyph glyph-name="Igrave" unicode="&#xcc;" horiz-adv-x="624" 
d="M384 1567l-322 379h385l242 -379h-305zM1 0l260 1475h430l-260 -1475h-430z" />
    <glyph glyph-name="Iacute" unicode="&#xcd;" horiz-adv-x="624" 
d="M275 1567l241 379h393l-320 -379h-314zM1 0l260 1475h430l-260 -1475h-430z" />
    <glyph glyph-name="Icircumflex" unicode="&#xce;" horiz-adv-x="624" 
d="M535 1706l-123 -150h-331l292 354h367l167 -354h-302zM1 0l260 1475h430l-260 -1475h-430z" />
    <glyph glyph-name="Idieresis" unicode="&#xcf;" horiz-adv-x="624" 
d="M99 1567l54 297h346l-54 -297h-346zM538 1567l53 297h346l-53 -297h-346zM1 0l260 1475h430l-260 -1475h-430z" />
    <glyph glyph-name="Eth" unicode="&#xd0;" horiz-adv-x="1602" 
d="M908 1475q314 0 498.5 -168.5t184.5 -472.5q0 -242 -104 -432t-291 -296t-425 -106h-688l101 573h-128l58 328h128l101 574h565zM780 379q115 0 200.5 62.5t127 162.5t41.5 222q0 132 -70 201t-190 69h-182l-35 -195h251l-58 -328h-251l-34 -194h200z" />
    <glyph glyph-name="Ntilde" unicode="&#xd1;" horiz-adv-x="1520" 
d="M825 1631q-69 0 -151 -87l-179 222q110 99 182.5 130.5t143.5 31.5q96 0 183 -51q58 -32 92 -32q69 0 151 87l179 -222q-110 -99 -182.5 -130.5t-143.5 -31.5q-43 0 -80 8.5t-56 17.5t-46 25q-58 32 -93 32zM1157 1475h430l-260 -1475h-466l-291 792l-139 -792h-430
l260 1475h466l291 -792z" />
    <glyph glyph-name="Ograve" unicode="&#xd2;" horiz-adv-x="1594" 
d="M840 1567l-322 379h385l242 -379h-305zM763 -36q-310 0 -497 184.5t-187 492.5q0 181 61 341.5t168 276.5t260.5 183.5t331.5 67.5q310 0 496.5 -184t186.5 -492q0 -181 -61 -341.5t-168 -277t-260.5 -184t-330.5 -67.5zM782 353q109 0 192.5 69t125 175.5t41.5 228.5
q0 135 -71 215t-189 80q-109 0 -193 -69t-125.5 -175.5t-41.5 -228.5q0 -135 71.5 -215t189.5 -80z" />
    <glyph glyph-name="Oacute" unicode="&#xd3;" horiz-adv-x="1594" 
d="M731 1567l241 379h393l-321 -379h-313zM763 -36q-310 0 -497 184.5t-187 492.5q0 181 61 341.5t168 276.5t260.5 183.5t331.5 67.5q310 0 496.5 -184t186.5 -492q0 -181 -61 -341.5t-168 -277t-260.5 -184t-330.5 -67.5zM782 353q109 0 192.5 69t125 175.5t41.5 228.5
q0 135 -71 215t-189 80q-109 0 -193 -69t-125.5 -175.5t-41.5 -228.5q0 -135 71.5 -215t189.5 -80z" />
    <glyph glyph-name="Ocircumflex" unicode="&#xd4;" horiz-adv-x="1594" 
d="M990 1706l-123 -150h-330l291 354h368l167 -354h-302zM900 1510q310 0 496.5 -184t186.5 -492q0 -181 -61 -341.5t-168 -277t-260.5 -184t-330.5 -67.5q-310 0 -497 184.5t-187 492.5q0 181 61 341.5t168 276.5t260.5 183.5t331.5 67.5zM782 353q109 0 192.5 69
t125 175.5t41.5 228.5q0 135 -71 215t-189 80q-109 0 -193 -69t-125.5 -175.5t-41.5 -228.5q0 -135 71.5 -215t189.5 -80z" />
    <glyph glyph-name="Otilde" unicode="&#xd5;" horiz-adv-x="1594" 
d="M682 1544l-179 222q110 99 182.5 130.5t143.5 31.5q96 0 183 -51q58 -32 92 -32q69 0 151 87l180 -222q-110 -99 -182.5 -130.5t-144.5 -31.5q-43 0 -80 8.5t-56 17.5t-46 25q-58 32 -92 32q-70 0 -152 -87zM763 -36q-310 0 -497 184.5t-187 492.5q0 181 61 341.5
t168 276.5t260.5 183.5t331.5 67.5q310 0 496.5 -184t186.5 -492q0 -181 -61 -341.5t-168 -277t-260.5 -184t-330.5 -67.5zM782 353q109 0 192.5 69t125 175.5t41.5 228.5q0 135 -71 215t-189 80q-109 0 -193 -69t-125.5 -175.5t-41.5 -228.5q0 -135 71.5 -215t189.5 -80z
" />
    <glyph glyph-name="Odieresis" unicode="&#xd6;" horiz-adv-x="1594" 
d="M555 1567l53 297h346l-53 -297h-346zM993 1567l54 297h346l-54 -297h-346zM763 -36q-310 0 -497 184.5t-187 492.5q0 181 61 341.5t168 276.5t260.5 183.5t331.5 67.5q310 0 496.5 -184t186.5 -492q0 -181 -61 -341.5t-168 -277t-260.5 -184t-330.5 -67.5zM782 353
q109 0 192.5 69t125 175.5t41.5 228.5q0 135 -71 215t-189 80q-109 0 -193 -69t-125.5 -175.5t-41.5 -228.5q0 -135 71.5 -215t189.5 -80z" />
    <glyph glyph-name="multiply" unicode="&#xd7;" 
d="M1161 839l-311 -260l231 -285l-267 -219l-230 282l-315 -262l-203 252l314 262l-214 262l267 220l212 -261l312 261z" />
    <glyph glyph-name="Oslash" unicode="&#xd8;" horiz-adv-x="1594" 
d="M1640 1410l-162 -184q105 -164 105 -392q0 -181 -61 -341.5t-168 -277t-260.5 -184t-330.5 -67.5q-200 0 -352 80l-183 -204l-230 206l184 207q-103 163 -103 388q0 181 61 341.5t168 276.5t260.5 183.5t331.5 67.5q196 0 347 -77l162 182zM881 1121q-109 0 -193 -69
t-125.5 -175.5t-41.5 -228.5q0 -40 6 -74l468 523q-51 24 -114 24zM782 353q109 0 192.5 69t125 175.5t41.5 228.5q0 43 -7 78l-470 -525q57 -26 118 -26z" />
    <glyph glyph-name="Ugrave" unicode="&#xd9;" horiz-adv-x="1482" 
d="M813 1567l-321 379h385l241 -379h-305zM689 -37q-274 0 -441 140t-167 369q0 72 13 144l152 859h430l-153 -865q-7 -39 -7 -75q0 -83 53 -133t141 -50q110 0 180 65.5t92 192.5l153 865h430l-162 -916q-52 -293 -233 -444.5t-481 -151.5z" />
    <glyph glyph-name="Uacute" unicode="&#xda;" horiz-adv-x="1482" 
d="M705 1567l240 379h393l-320 -379h-313zM689 -37q-274 0 -441 140t-167 369q0 72 13 144l152 859h430l-153 -865q-7 -39 -7 -75q0 -83 53 -133t141 -50q110 0 180 65.5t92 192.5l153 865h430l-162 -916q-52 -293 -233 -444.5t-481 -151.5z" />
    <glyph glyph-name="Ucircumflex" unicode="&#xdb;" horiz-adv-x="1482" 
d="M964 1706l-123 -150h-331l292 354h367l167 -354h-302zM1135 1475h430l-162 -916q-52 -293 -233 -444.5t-481 -151.5q-274 0 -441 140t-167 369q0 72 13 144l152 859h430l-153 -865q-7 -39 -7 -75q0 -83 53 -133t141 -50q110 0 180 65.5t92 192.5z" />
    <glyph glyph-name="Udieresis" unicode="&#xdc;" horiz-adv-x="1482" 
d="M528 1567l54 297h346l-54 -297h-346zM967 1567l53 297h346l-53 -297h-346zM689 -37q-274 0 -441 140t-167 369q0 72 13 144l152 859h430l-153 -865q-7 -39 -7 -75q0 -83 53 -133t141 -50q110 0 180 65.5t92 192.5l153 865h430l-162 -916q-52 -293 -233 -444.5
t-481 -151.5z" />
    <glyph glyph-name="Yacute" unicode="&#xdd;" horiz-adv-x="1393" 
d="M1285 1946l-320 -379h-314l241 379h393zM1078 1475h474l-633 -898l-102 -577h-430l101 577l-319 898h431l151 -511z" />
    <glyph glyph-name="Thorn" unicode="&#xde;" horiz-adv-x="1371" 
d="M924 1261q206 0 333.5 -126t127.5 -329q0 -250 -162.5 -400.5t-432.5 -150.5h-314l-45 -255h-430l260 1475h430l-38 -214h271zM772 624q82 0 130.5 41t48.5 107q0 51 -32.5 80.5t-88.5 29.5h-243l-46 -258h231z" />
    <glyph glyph-name="germandbls" unicode="&#xdf;" horiz-adv-x="1273" 
d="M1017 756q192 -80 192 -325q0 -218 -140 -343t-391 -125q-97 0 -209 22l74 325q55 -11 107 -11q75 0 118 44t43 120q0 120 -102 120h-107l57 327h44q62 0 97 39.5t35 100.5q0 56 -31 84t-83 28q-127 0 -152 -145l-179 -1017h-409l189 1075q37 207 194 318.5t385 111.5
q223 0 360.5 -114t137.5 -288q0 -120 -59.5 -208t-170.5 -139z" />
    <glyph glyph-name="agrave" unicode="&#xe0;" horiz-adv-x="1153" 
d="M878 1178h-306l-321 378h385zM603 1120q228 0 365 -100t137 -265q0 -48 -10 -105l-115 -650h-389l18 109q-83 -140 -271 -140q-148 0 -241.5 92.5t-93.5 238.5q0 169 131.5 266.5t361.5 97.5h190l1 6q4 24 4 35q0 40 -40 62.5t-104 22.5q-116 0 -214 -75l-193 254
q174 151 463 151zM473 242q58 0 106 39.5t58 97.5l9 51h-117q-62 0 -102.5 -32t-40.5 -80q0 -35 23.5 -55.5t63.5 -20.5z" />
    <glyph glyph-name="aacute" unicode="&#xe1;" horiz-adv-x="1153" 
d="M1105 1556l-321 -378h-313l241 378h393zM603 1120q228 0 365 -100t137 -265q0 -48 -10 -105l-115 -650h-389l18 109q-83 -140 -271 -140q-148 0 -241.5 92.5t-93.5 238.5q0 169 131.5 266.5t361.5 97.5h190l1 6q4 24 4 35q0 40 -40 62.5t-104 22.5q-116 0 -214 -75
l-193 254q174 151 463 151zM473 242q58 0 106 39.5t58 97.5l9 51h-117q-62 0 -102.5 -32t-40.5 -80q0 -35 23.5 -55.5t63.5 -20.5z" />
    <glyph glyph-name="acircumflex" unicode="&#xe2;" horiz-adv-x="1153" 
d="M732 1327l-123 -149h-330l291 353h368l167 -353h-302zM603 1120q228 0 365 -100t137 -265q0 -48 -10 -105l-115 -650h-389l18 109q-83 -140 -271 -140q-148 0 -241.5 92.5t-93.5 238.5q0 169 131.5 266.5t361.5 97.5h190l1 6q4 24 4 35q0 40 -40 62.5t-104 22.5
q-116 0 -214 -75l-193 254q174 151 463 151zM473 242q58 0 106 39.5t58 97.5l9 51h-117q-62 0 -102.5 -32t-40.5 -80q0 -35 23.5 -55.5t63.5 -20.5z" />
    <glyph glyph-name="atilde" unicode="&#xe3;" horiz-adv-x="1153" 
d="M572 1267q-69 0 -151 -87l-179 222q110 99 182.5 130.5t143.5 31.5q43 0 80.5 -9t56.5 -18t46 -25q57 -31 92 -31q69 0 151 87l180 -222q-110 -99 -182.5 -130.5t-144.5 -31.5q-43 0 -80 8.5t-56 17.5t-46 25q-58 32 -93 32zM603 1120q228 0 365 -100t137 -265
q0 -48 -10 -105l-115 -650h-389l18 109q-83 -140 -271 -140q-148 0 -241.5 92.5t-93.5 238.5q0 169 131.5 266.5t361.5 97.5h190l1 6q4 24 4 35q0 40 -40 62.5t-104 22.5q-116 0 -214 -75l-193 254q174 151 463 151zM473 242q58 0 106 39.5t58 97.5l9 51h-117
q-62 0 -102.5 -32t-40.5 -80q0 -35 23.5 -55.5t63.5 -20.5z" />
    <glyph glyph-name="adieresis" unicode="&#xe4;" horiz-adv-x="1153" 
d="M693 1475l-53 -297h-346l53 297h346zM1132 1475l-54 -297h-346l53 297h347zM603 1120q228 0 365 -100t137 -265q0 -48 -10 -105l-115 -650h-389l18 109q-83 -140 -271 -140q-148 0 -241.5 92.5t-93.5 238.5q0 169 131.5 266.5t361.5 97.5h190l1 6q4 24 4 35
q0 40 -40 62.5t-104 22.5q-116 0 -214 -75l-193 254q174 151 463 151zM473 242q58 0 106 39.5t58 97.5l9 51h-117q-62 0 -102.5 -32t-40.5 -80q0 -35 23.5 -55.5t63.5 -20.5z" />
    <glyph glyph-name="aring" unicode="&#xe5;" horiz-adv-x="1153" 
d="M692 1172q-115 0 -186.5 72t-71.5 183q0 124 90 206.5t213 82.5q115 0 186 -72.5t71 -183.5q0 -120 -89.5 -204t-212.5 -84zM726 1526q-39 0 -63 -29t-24 -66q0 -31 17.5 -49.5t45.5 -18.5q36 0 62 24.5t26 64.5q0 32 -17 53t-47 21zM603 1120q228 0 365 -100t137 -265
q0 -48 -10 -105l-115 -650h-389l18 109q-83 -140 -271 -140q-148 0 -241.5 92.5t-93.5 238.5q0 169 131.5 266.5t361.5 97.5h190l1 6q4 24 4 35q0 40 -40 62.5t-104 22.5q-116 0 -214 -75l-193 254q174 151 463 151zM473 242q58 0 106 39.5t58 97.5l9 51h-117
q-62 0 -102.5 -32t-40.5 -80q0 -35 23.5 -55.5t63.5 -20.5z" />
    <glyph glyph-name="ae" unicode="&#xe6;" horiz-adv-x="1738" 
d="M1682 428h-638q11 -65 49.5 -104t102.5 -39q51 0 102.5 28t85.5 74l245 -232q-93 -96 -203.5 -141t-256.5 -45q-249 0 -366 181q-65 -85 -172 -133t-241 -48q-178 0 -282.5 90.5t-104.5 237.5q0 167 122.5 262.5t337.5 95.5h178l2 15q4 24 4 36q0 84 -131 84
q-118 0 -194 -71l-189 254q82 76 188 111.5t252 35.5q226 0 330 -125q70 70 150 100.5t184 30.5q208 0 336.5 -148t128.5 -389q0 -51 -20 -161zM1054 655h258q-3 83 -35 119t-76 36q-55 0 -93.5 -44t-53.5 -111zM593 379l8 49h-111q-51 0 -85.5 -32t-34.5 -79
q0 -35 20.5 -55t55.5 -20q58 0 97.5 38.5t49.5 98.5z" />
    <glyph glyph-name="ccedilla" unicode="&#xe7;" horiz-adv-x="1153" 
d="M591 312q102 0 177 146l326 -167q-147 -249 -374 -305l-165 -365h-332l168 373q-164 49 -259 179.5t-95 312.5q0 288 174 464t460 176q164 0 291 -86.5t183 -237.5l-349 -148q-23 69 -57.5 99t-88.5 30q-48 0 -86.5 -24.5t-62 -65t-36 -90t-12.5 -102.5q0 -89 36 -139
t102 -50z" />
    <glyph glyph-name="egrave" unicode="&#xe8;" horiz-adv-x="1179" 
d="M874 1178h-305l-321 378h385zM1122 428h-670q15 -68 57 -105.5t109 -37.5q115 0 194 102l248 -232q-183 -186 -487 -186q-240 0 -388 143t-148 374q0 288 171 464t450 176q217 0 351 -149.5t134 -393.5q0 -56 -21 -155zM463 655h287q-2 73 -33 114t-87 41
q-57 0 -100.5 -42t-66.5 -113z" />
    <glyph glyph-name="eacute" unicode="&#xe9;" horiz-adv-x="1179" 
d="M1102 1556l-321 -378h-313l241 378h393zM1122 428h-670q15 -68 57 -105.5t109 -37.5q115 0 194 102l248 -232q-183 -186 -487 -186q-240 0 -388 143t-148 374q0 288 171 464t450 176q217 0 351 -149.5t134 -393.5q0 -56 -21 -155zM463 655h287q-2 73 -33 114t-87 41
q-57 0 -100.5 -42t-66.5 -113z" />
    <glyph glyph-name="ecircumflex" unicode="&#xea;" horiz-adv-x="1179" 
d="M729 1327l-123 -149h-331l292 353h368l167 -353h-302zM1122 428h-670q15 -68 57 -105.5t109 -37.5q115 0 194 102l248 -232q-183 -186 -487 -186q-240 0 -388 143t-148 374q0 288 171 464t450 176q217 0 351 -149.5t134 -393.5q0 -56 -21 -155zM463 655h287
q-2 73 -33 114t-87 41q-57 0 -100.5 -42t-66.5 -113z" />
    <glyph glyph-name="edieresis" unicode="&#xeb;" horiz-adv-x="1179" 
d="M690 1475l-53 -297h-346l53 297h346zM1128 1475l-53 -297h-346l53 297h346zM1122 428h-670q15 -68 57 -105.5t109 -37.5q115 0 194 102l248 -232q-183 -186 -487 -186q-240 0 -388 143t-148 374q0 288 171 464t450 176q217 0 351 -149.5t134 -393.5q0 -56 -21 -155z
M463 655h287q-2 73 -33 114t-87 41q-57 0 -100.5 -42t-66.5 -113z" />
    <glyph glyph-name="igrave" unicode="&#xec;" horiz-adv-x="573" 
d="M284 1178l-322 378h385l242 -378h-305zM-14 0l192 1096h410l-193 -1096h-409z" />
    <glyph glyph-name="iacute" unicode="&#xed;" horiz-adv-x="573" 
d="M182 1178l241 378h393l-320 -378h-314zM-14 0l192 1096h410l-193 -1096h-409z" />
    <glyph glyph-name="icircumflex" unicode="&#xee;" horiz-adv-x="573" 
d="M443 1327l-122 -149h-331l292 353h367l167 -353h-302zM-14 0l192 1096h410l-193 -1096h-409z" />
    <glyph glyph-name="idieresis" unicode="&#xef;" horiz-adv-x="573" 
d="M54 1178l52 297h311l-52 -297h-311zM431 1178l52 297h311l-53 -297h-310zM-14 0l193 1096h410l-194 -1096h-409z" />
    <glyph glyph-name="eth" unicode="&#xf0;" horiz-adv-x="1181" 
d="M925 1270q219 -267 219 -654q0 -297 -155.5 -470.5t-446.5 -173.5q-220 0 -367.5 135.5t-147.5 339.5q0 162 75.5 289.5t198 194t267.5 66.5q80 0 138 -28q-36 75 -96 147l-213 -104l-60 146l155 76q-32 27 -100 77l194 243q128 -79 223 -164l196 95l61 -146zM571 301
q71 0 114 58.5t43 150.5q0 74 -32.5 115.5t-90.5 41.5q-71 0 -117.5 -59t-46.5 -150q0 -73 35.5 -115t94.5 -42z" />
    <glyph glyph-name="ntilde" unicode="&#xf1;" horiz-adv-x="1210" 
d="M601 1267q-69 0 -151 -87l-180 222q110 99 182.5 130.5t144.5 31.5q43 0 80 -9t55.5 -18t46.5 -25q57 -31 92 -31q70 0 152 87l179 -222q-110 -99 -182.5 -130.5t-143.5 -31.5q-96 0 -183 51q-58 32 -92 32zM851 1124q146 0 233.5 -83.5t87.5 -222.5q0 -48 -9 -100
l-126 -718h-409l114 649q4 25 4 54q0 38 -21.5 59t-59.5 21q-61 0 -104.5 -48t-59.5 -139l-106 -596h-409l193 1096h400l-20 -111q110 139 292 139z" />
    <glyph glyph-name="ograve" unicode="&#xf2;" horiz-adv-x="1247" 
d="M592 1178l-322 378h385l242 -378h-305zM573 -31q-240 0 -388 143t-148 374q0 288 175 464t462 176q240 0 388 -143t148 -374q0 -288 -175 -464t-462 -176zM594 312q64 0 111 42.5t68.5 105.5t21.5 135q0 89 -37 138.5t-105 49.5q-64 0 -110.5 -42t-68 -105t-21.5 -135
q0 -89 36.5 -139t104.5 -50z" />
    <glyph glyph-name="oacute" unicode="&#xf3;" horiz-adv-x="1247" 
d="M490 1178l241 378h393l-320 -378h-314zM573 -31q-240 0 -388 143t-148 374q0 288 175 464t462 176q240 0 388 -143t148 -374q0 -288 -175 -464t-462 -176zM594 312q64 0 111 42.5t68.5 105.5t21.5 135q0 89 -37 138.5t-105 49.5q-64 0 -110.5 -42t-68 -105t-21.5 -135
q0 -89 36.5 -139t104.5 -50z" />
    <glyph glyph-name="ocircumflex" unicode="&#xf4;" horiz-adv-x="1247" 
d="M752 1327l-123 -149h-331l292 353h367l167 -353h-302zM674 1126q240 0 388 -143t148 -374q0 -288 -175 -464t-462 -176q-240 0 -388 143t-148 374q0 288 175 464t462 176zM594 312q64 0 111 42.5t68.5 105.5t21.5 135q0 89 -37 138.5t-105 49.5q-64 0 -110.5 -42
t-68 -105t-21.5 -135q0 -89 36.5 -139t104.5 -50z" />
    <glyph glyph-name="otilde" unicode="&#xf5;" horiz-adv-x="1247" 
d="M440 1180l-179 222q110 99 182.5 130.5t144.5 31.5q43 0 80 -9t55.5 -18t46.5 -25q57 -31 92 -31q70 0 152 87l179 -222q-110 -99 -182.5 -130.5t-144.5 -31.5q-43 0 -80 8.5t-56 17.5t-46 25q-58 32 -92 32q-70 0 -152 -87zM573 -31q-240 0 -388 143t-148 374
q0 288 175 464t462 176q240 0 388 -143t148 -374q0 -288 -175 -464t-462 -176zM594 312q64 0 111 42.5t68.5 105.5t21.5 135q0 89 -37 138.5t-105 49.5q-64 0 -110.5 -42t-68 -105t-21.5 -135q0 -89 36.5 -139t104.5 -50z" />
    <glyph glyph-name="odieresis" unicode="&#xf6;" horiz-adv-x="1247" 
d="M313 1178l54 297h346l-54 -297h-346zM752 1178l53 297h346l-53 -297h-346zM573 -31q-240 0 -388 143t-148 374q0 288 175 464t462 176q240 0 388 -143t148 -374q0 -288 -175 -464t-462 -176zM594 312q64 0 111 42.5t68.5 105.5t21.5 135q0 89 -37 138.5t-105 49.5
q-64 0 -110.5 -42t-68 -105t-21.5 -135q0 -89 36.5 -139t104.5 -50z" />
    <glyph glyph-name="divide" unicode="&#xf7;" 
d="M482 828l53 297h356l-52 -297h-357zM82 429l57 328h1024l-57 -328h-1024zM346 60l52 297h357l-53 -297h-356z" />
    <glyph glyph-name="oslash" unicode="&#xf8;" horiz-adv-x="1259" 
d="M1264 1068l-137 -155q90 -131 90 -304q0 -288 -175 -464t-462 -176q-137 0 -247 49l-143 -161l-183 159l134 153q-98 132 -98 317q0 288 175 464t462 176q145 0 260 -55l138 157zM659 783q-64 0 -110.5 -42t-68 -105t-21.5 -135q0 -20 1 -29l257 300q-25 11 -58 11z
M600 312q64 0 111 42.5t68.5 105.5t21.5 135v8l-245 -285q20 -6 44 -6z" />
    <glyph glyph-name="ugrave" unicode="&#xf9;" horiz-adv-x="1210" 
d="M905 1178h-305l-321 378h385zM815 1096h410l-194 -1096h-399l19 113q-112 -142 -292 -142q-146 0 -233.5 84t-87.5 223q0 48 9 100l126 718h410l-115 -650q-4 -25 -4 -54q0 -37 22 -58.5t60 -21.5q60 0 105 53t61 145z" />
    <glyph glyph-name="uacute" unicode="&#xfa;" horiz-adv-x="1210" 
d="M1133 1556l-321 -378h-313l240 378h394zM815 1096h410l-194 -1096h-399l19 113q-112 -142 -292 -142q-146 0 -233.5 84t-87.5 223q0 48 9 100l126 718h410l-115 -650q-4 -25 -4 -54q0 -37 22 -58.5t60 -21.5q60 0 105 53t61 145z" />
    <glyph glyph-name="ucircumflex" unicode="&#xfb;" horiz-adv-x="1210" 
d="M760 1327l-123 -149h-331l292 353h368l167 -353h-303zM815 1096h410l-194 -1096h-399l19 113q-112 -142 -292 -142q-146 0 -233.5 84t-87.5 223q0 48 9 100l126 718h410l-115 -650q-4 -25 -4 -54q0 -37 22 -58.5t60 -21.5q60 0 105 53t61 145z" />
    <glyph glyph-name="udieresis" unicode="&#xfc;" horiz-adv-x="1210" 
d="M721 1475l-53 -297h-346l53 297h346zM1159 1475l-53 -297h-346l53 297h346zM815 1096h410l-194 -1096h-399l19 113q-112 -142 -292 -142q-146 0 -233.5 84t-87.5 223q0 48 9 100l126 718h410l-115 -650q-4 -25 -4 -54q0 -37 22 -58.5t60 -21.5q60 0 105 53t61 145z" />
    <glyph glyph-name="yacute" unicode="&#xfd;" horiz-adv-x="1242" 
d="M1139 1556l-321 -378h-313l240 378h394zM880 1096h450l-634 -1176q-88 -162 -201.5 -235.5t-289.5 -73.5q-135 0 -249 44l116 302q62 -18 109 -18q99 0 144 74l29 48l-250 1035h424l93 -574z" />
    <glyph glyph-name="thorn" unicode="&#xfe;" horiz-adv-x="1254" 
d="M813 1126q183 0 295.5 -130t112.5 -361q0 -192 -69 -345t-189.5 -237t-268.5 -84q-89 0 -163.5 34t-117.5 93l-81 -454h-410l324 1833h409l-77 -440q94 91 235 91zM604 312q64 0 111 45t68.5 110t21.5 138q0 178 -141 178q-64 0 -110 -45t-66 -110t-20 -138
q0 -178 136 -178z" />
    <glyph glyph-name="ydieresis" unicode="&#xff;" horiz-adv-x="1242" 
d="M727 1475l-53 -297h-346l53 297h346zM1165 1475l-53 -297h-346l53 297h346zM880 1096h450l-634 -1176q-88 -162 -201.5 -235.5t-289.5 -73.5q-135 0 -249 44l116 302q62 -18 109 -18q99 0 144 74l29 48l-250 1035h424l93 -574z" />
    <glyph glyph-name="Amacron" unicode="&#x100;" horiz-adv-x="1559" 
d="M1279 1843l-41 -235h-626l41 235h626zM1005 0l-34 206h-488l-97 -206h-474l764 1475h483l296 -1475h-450zM647 554h265l-68 415z" />
    <glyph glyph-name="amacron" unicode="&#x101;" horiz-adv-x="1153" 
d="M1052 1475l-42 -236h-626l42 236h626zM603 1120q228 0 365 -100t137 -265q0 -48 -10 -105l-115 -650h-389l18 109q-83 -140 -271 -140q-148 0 -241.5 92.5t-93.5 238.5q0 169 131.5 266.5t361.5 97.5h190l1 6q4 24 4 35q0 40 -40 62.5t-104 22.5q-116 0 -214 -75
l-193 254q174 151 463 151zM473 242q58 0 106 39.5t58 97.5l9 51h-117q-62 0 -102.5 -32t-40.5 -80q0 -35 23.5 -55.5t63.5 -20.5z" />
    <glyph glyph-name="Abreve" unicode="&#x102;" horiz-adv-x="1559" 
d="M923 1545q-164 0 -256 101.5t-100 263.5h254q1 -65 37 -98.5t88 -33.5q55 0 95.5 35.5t49.5 96.5h271q-38 -173 -156.5 -269t-282.5 -96zM1005 0l-34 206h-488l-97 -206h-474l764 1475h483l296 -1475h-450zM647 554h265l-68 415z" />
    <glyph glyph-name="abreve" unicode="&#x103;" horiz-adv-x="1153" 
d="M717 1166q-164 0 -256 101.5t-100 263.5h254q1 -65 37 -98.5t88 -33.5q55 0 95.5 35.5t49.5 96.5h271q-38 -173 -156.5 -269t-282.5 -96zM603 1120q228 0 365 -100t137 -265q0 -48 -10 -105l-115 -650h-389l18 109q-83 -140 -271 -140q-148 0 -241.5 92.5t-93.5 238.5
q0 169 131.5 266.5t361.5 97.5h190l1 6q4 24 4 35q0 40 -40 62.5t-104 22.5q-116 0 -214 -75l-193 254q174 151 463 151zM473 242q58 0 106 39.5t58 97.5l9 51h-117q-62 0 -102.5 -32t-40.5 -80q0 -35 23.5 -55.5t63.5 -20.5z" />
    <glyph glyph-name="Aogonek" unicode="&#x104;" horiz-adv-x="1559" 
d="M1279 -175q51 0 100 22l72 -228q-94 -49 -223 -49q-137 0 -218.5 62t-81.5 165q0 118 131 203h-54l-34 206h-488l-97 -206h-474l764 1475h483l296 -1475h-145q-105 -63 -105 -126q0 -49 74 -49zM647 554h265l-68 415z" />
    <glyph glyph-name="aogonek" unicode="&#x105;" horiz-adv-x="1153" 
d="M603 1120q228 0 365 -100t137 -265q0 -48 -10 -105l-115 -650h-155q-104 -62 -104 -126q0 -49 74 -49q51 0 100 22l72 -228q-95 -49 -224 -49q-137 0 -218.5 62t-81.5 165q0 127 150 214l16 98q-83 -140 -271 -140q-148 0 -241.5 92.5t-93.5 238.5q0 169 131.5 266.5
t361.5 97.5h190l1 6q4 24 4 35q0 40 -40 62.5t-104 22.5q-116 0 -214 -75l-193 254q174 151 463 151zM473 242q58 0 106 39.5t58 97.5l9 51h-117q-62 0 -102.5 -32t-40.5 -80q0 -35 23.5 -55.5t63.5 -20.5z" />
    <glyph glyph-name="Cacute" unicode="&#x106;" horiz-adv-x="1511" 
d="M699 1567l241 379h393l-320 -379h-314zM763 -36q-310 0 -497 184.5t-187 492.5q0 181 61 341.5t168 276.5t260.5 183.5t331.5 67.5q228 0 389.5 -104.5t238.5 -295.5l-370 -181q-51 105 -110 148.5t-157 43.5q-86 0 -157.5 -40t-117 -106.5t-70.5 -151t-25 -175.5
q0 -136 73.5 -215.5t198.5 -79.5q182 0 288 217l370 -192q-134 -218 -295.5 -316t-392.5 -98z" />
    <glyph glyph-name="cacute" unicode="&#x107;" horiz-adv-x="1153" 
d="M475 1178l241 378h393l-321 -378h-313zM570 -31q-238 0 -385.5 143.5t-147.5 373.5q0 288 174 464t460 176q164 0 291 -86.5t183 -237.5l-349 -148q-23 69 -57.5 99t-88.5 30q-48 0 -86.5 -24.5t-62 -65t-36 -90t-12.5 -102.5q0 -89 36 -139t102 -50q102 0 177 146
l326 -167q-98 -165 -226 -243.5t-298 -78.5z" />
    <glyph glyph-name="Ccircumflex" unicode="&#x108;" horiz-adv-x="1511" 
d="M958 1706l-122 -150h-331l292 354h367l167 -354h-302zM793 353q182 0 288 217l370 -192q-134 -218 -295.5 -316t-392.5 -98q-310 0 -497 184.5t-187 492.5q0 181 61 341.5t168 276.5t260.5 183.5t331.5 67.5q228 0 389.5 -104.5t238.5 -295.5l-370 -181
q-51 105 -110 148.5t-157 43.5q-86 0 -157.5 -40t-117 -106.5t-70.5 -151t-25 -175.5q0 -136 73.5 -215.5t198.5 -79.5z" />
    <glyph glyph-name="ccircumflex" unicode="&#x109;" horiz-adv-x="1153" 
d="M736 1327l-123 -149h-330l291 353h368l167 -353h-302zM591 312q102 0 177 146l326 -167q-98 -165 -226 -243.5t-298 -78.5q-238 0 -385.5 143.5t-147.5 373.5q0 288 174 464t460 176q164 0 291 -86.5t183 -237.5l-349 -148q-23 69 -57.5 99t-88.5 30q-48 0 -86.5 -24.5
t-62 -65t-36 -90t-12.5 -102.5q0 -89 36 -139t102 -50z" />
    <glyph glyph-name="Cdotaccent" unicode="&#x10a;" horiz-adv-x="1511" 
d="M708 1567l53 297h418l-54 -297h-417zM763 -36q-310 0 -497 184.5t-187 492.5q0 181 61 341.5t168 276.5t260.5 183.5t331.5 67.5q228 0 389.5 -104.5t238.5 -295.5l-370 -181q-51 105 -110 148.5t-157 43.5q-86 0 -157.5 -40t-117 -106.5t-70.5 -151t-25 -175.5
q0 -136 73.5 -215.5t198.5 -79.5q182 0 288 217l370 -192q-134 -218 -295.5 -316t-392.5 -98z" />
    <glyph glyph-name="cdotaccent" unicode="&#x10b;" horiz-adv-x="1153" 
d="M482 1178l54 297h415l-53 -297h-416zM570 -31q-238 0 -385.5 143.5t-147.5 373.5q0 288 174 464t460 176q164 0 291 -86.5t183 -237.5l-349 -148q-23 69 -57.5 99t-88.5 30q-48 0 -86.5 -24.5t-62 -65t-36 -90t-12.5 -102.5q0 -89 36 -139t102 -50q102 0 177 146
l326 -167q-98 -165 -226 -243.5t-298 -78.5z" />
    <glyph glyph-name="Ccaron" unicode="&#x10c;" horiz-adv-x="1511" 
d="M1103 1556h-368l-167 354h302l71 -150l123 150h331zM793 353q182 0 288 217l370 -192q-134 -218 -295.5 -316t-392.5 -98q-310 0 -497 184.5t-187 492.5q0 181 61 341.5t168 276.5t260.5 183.5t331.5 67.5q228 0 389.5 -104.5t238.5 -295.5l-370 -181q-51 105 -110 148.5
t-157 43.5q-86 0 -157.5 -40t-117 -106.5t-70.5 -151t-25 -175.5q0 -136 73.5 -215.5t198.5 -79.5z" />
    <glyph glyph-name="ccaron" unicode="&#x10d;" horiz-adv-x="1153" 
d="M879 1178h-368l-167 353h302l71 -150l123 150h330zM650 783q-48 0 -86.5 -24.5t-62 -65t-36 -90t-12.5 -102.5q0 -89 36 -139t102 -50q102 0 177 146l326 -167q-98 -165 -226 -243.5t-298 -78.5q-238 0 -385.5 143.5t-147.5 373.5q0 288 174 464t460 176q164 0 291 -86.5
t183 -237.5l-349 -148q-23 69 -57.5 99t-88.5 30z" />
    <glyph glyph-name="Dcaron" unicode="&#x10e;" horiz-adv-x="1520" 
d="M1059 1556h-368l-167 354h302l71 -150l123 150h331zM826 1475q314 0 498.5 -168.5t184.5 -472.5q0 -242 -104 -432t-291 -296t-425 -106h-688l260 1475h565zM698 379q115 0 200.5 62.5t127 162.5t41.5 222q0 132 -70 201t-190 69h-182l-127 -717h200z" />
    <glyph glyph-name="dcaron" unicode="&#x10f;" horiz-adv-x="1549" 
d="M841 986l86 489h409l-260 -1475h-381l20 110q-44 -62 -113.5 -101.5t-159.5 -39.5q-183 0 -295 130.5t-112 361.5q0 144 40 268.5t109.5 211t164.5 136t202 49.5q95 0 171.5 -38t118.5 -102zM1433 1475h352l-164 -520h-280zM592 312q64 0 109.5 45t65.5 110t20 138
q0 178 -136 178q-64 0 -111 -45t-68 -110t-21 -138q0 -178 141 -178z" />
    <glyph glyph-name="Dcroat" unicode="&#x110;" horiz-adv-x="1602" 
d="M908 1475q314 0 498.5 -168.5t184.5 -472.5q0 -242 -104 -432t-291 -296t-425 -106h-688l101 573h-128l58 328h128l101 574h565zM780 379q115 0 200.5 62.5t127 162.5t41.5 222q0 132 -70 201t-190 69h-182l-35 -195h251l-58 -328h-251l-34 -194h200z" />
    <glyph glyph-name="dcroat" unicode="&#x111;" horiz-adv-x="1264" 
d="M1426 1380l-33 -194h-108l-209 -1186h-381l20 110q-44 -62 -113.5 -101.5t-159.5 -39.5q-183 0 -295 130.5t-112 361.5q0 144 40 268.5t109.5 211t164.5 136t202 49.5q95 0 171.5 -38t118.5 -102l35 200h-190l34 194h190l17 95h409l-16 -95h106zM592 312q64 0 109.5 45
t65.5 110t20 138q0 178 -136 178q-64 0 -111 -45t-68 -110t-21 -138q0 -178 141 -178z" />
    <glyph glyph-name="Emacron" unicode="&#x112;" horiz-adv-x="1282" 
d="M1210 1843l-41 -235h-625l41 235h625zM1323 1096h-698l-31 -176h626l-63 -359h-628l-31 -182h708l-66 -379h-1139l260 1475h1129z" />
    <glyph glyph-name="emacron" unicode="&#x113;" horiz-adv-x="1179" 
d="M1049 1475l-42 -236h-626l42 236h626zM1122 428h-670q15 -68 57 -105.5t109 -37.5q115 0 194 102l248 -232q-183 -186 -487 -186q-240 0 -388 143t-148 374q0 288 171 464t450 176q217 0 351 -149.5t134 -393.5q0 -56 -21 -155zM463 655h287q-2 73 -33 114t-87 41
q-57 0 -100.5 -42t-66.5 -113z" />
    <glyph glyph-name="Ebreve" unicode="&#x114;" horiz-adv-x="1282" 
d="M854 1545q-164 0 -255.5 101.5t-99.5 263.5h254q1 -65 37 -98.5t88 -33.5q55 0 95 35.5t49 96.5h271q-38 -173 -156.5 -269t-282.5 -96zM1323 1096h-698l-31 -176h626l-63 -359h-628l-31 -182h708l-66 -379h-1139l260 1475h1129z" />
    <glyph glyph-name="ebreve" unicode="&#x115;" horiz-adv-x="1179" 
d="M714 1166q-164 0 -256 101.5t-100 263.5h254q1 -65 37 -98.5t88 -33.5q55 0 95.5 35.5t49.5 96.5h271q-38 -173 -156.5 -269t-282.5 -96zM658 1126q217 0 351 -149.5t134 -393.5q0 -56 -21 -155h-670q15 -68 57 -105.5t109 -37.5q115 0 194 102l248 -232
q-183 -186 -487 -186q-240 0 -388 143t-148 374q0 288 171 464t450 176zM463 655h287q-2 73 -33 114t-87 41q-57 0 -100.5 -42t-66.5 -113z" />
    <glyph glyph-name="Edotaccent" unicode="&#x116;" horiz-adv-x="1282" 
d="M1112 1864l-53 -297h-418l53 297h418zM1323 1096h-698l-31 -176h626l-63 -359h-628l-31 -182h708l-66 -379h-1139l260 1475h1129z" />
    <glyph glyph-name="edotaccent" unicode="&#x117;" horiz-adv-x="1179" 
d="M944 1475l-53 -297h-416l53 297h416zM1122 428h-670q15 -68 57 -105.5t109 -37.5q115 0 194 102l248 -232q-183 -186 -487 -186q-240 0 -388 143t-148 374q0 288 171 464t450 176q217 0 351 -149.5t134 -393.5q0 -56 -21 -155zM463 655h287q-2 73 -33 114t-87 41
q-57 0 -100.5 -42t-66.5 -113z" />
    <glyph glyph-name="Eogonek" unicode="&#x118;" horiz-adv-x="1282" 
d="M1323 1096h-698l-31 -176h626l-63 -359h-628l-31 -182h708l-66 -379h-153q-104 -62 -104 -126q0 -49 73 -49q52 0 101 22l71 -228q-94 -49 -223 -49q-137 0 -218.5 62t-81.5 165q0 118 131 203h-735l260 1475h1129z" />
    <glyph glyph-name="eogonek" unicode="&#x119;" horiz-adv-x="1179" 
d="M1143 583q0 -56 -21 -155h-670q15 -68 57 -105.5t109 -37.5q115 0 194 102l248 -232q-88 -90 -195 -133q-69 -28 -110.5 -67.5t-41.5 -80.5q0 -49 73 -49q52 0 101 22l71 -228q-95 -49 -223 -49q-137 0 -218.5 62.5t-81.5 162.5q0 101 91 175q-221 14 -355 155.5
t-134 360.5q0 288 171 464t450 176q217 0 351 -149.5t134 -393.5zM630 810q-57 0 -100.5 -42t-66.5 -113h287q-2 73 -33 114t-87 41z" />
    <glyph glyph-name="Ecaron" unicode="&#x11a;" horiz-adv-x="1282" 
d="M1036 1556h-367l-167 354h302l70 -150l123 150h331zM1323 1096h-698l-31 -176h626l-63 -359h-628l-31 -182h708l-66 -379h-1139l260 1475h1129z" />
    <glyph glyph-name="ecaron" unicode="&#x11b;" horiz-adv-x="1179" 
d="M871 1178h-367l-167 353h302l71 -150l123 150h330zM658 1126q217 0 351 -149.5t134 -393.5q0 -56 -21 -155h-670q15 -68 57 -105.5t109 -37.5q115 0 194 102l248 -232q-183 -186 -487 -186q-240 0 -388 143t-148 374q0 288 171 464t450 176zM463 655h287q-2 73 -33 114
t-87 41q-57 0 -100.5 -42t-66.5 -113z" />
    <glyph glyph-name="Gcircumflex" unicode="&#x11c;" horiz-adv-x="1516" 
d="M954 1706l-123 -150h-330l292 354h367l167 -354h-302zM821 536l58 327h616l-153 -863h-348l20 111q-117 -140 -323 -140q-272 0 -442 184.5t-170 485.5q0 181 61 341.5t168 276.5t260.5 183.5t331.5 67.5q209 0 363 -92.5t232 -258.5l-356 -200q-54 89 -111 125.5
t-147 36.5q-109 0 -193 -69t-125.5 -175.5t-41.5 -228.5q0 -134 75.5 -214.5t195.5 -80.5q96 0 174.5 48t108.5 131l1 4h-255z" />
    <glyph glyph-name="gcircumflex" unicode="&#x11d;" horiz-adv-x="1254" 
d="M771 1327l-123 -149h-331l292 353h368l167 -353h-302zM859 1096h410l-183 -1033q-37 -214 -203 -333t-425 -119q-155 0 -273.5 42.5t-196.5 109.5l196 280q125 -98 275 -98q198 0 225 159l8 46q-76 -105 -232 -105q-181 0 -300 127.5t-119 326.5q0 282 143.5 454.5
t377.5 172.5q89 0 163 -34t117 -93zM591 383q85 0 140 72t55 168q0 77 -37 121t-99 44q-84 0 -139.5 -72t-55.5 -167q0 -77 37 -121.5t99 -44.5z" />
    <glyph glyph-name="Gbreve" unicode="&#x11e;" horiz-adv-x="1516" 
d="M916 1545q-164 0 -255.5 101.5t-99.5 263.5h254q1 -65 37 -98.5t88 -33.5q55 0 95 35.5t49 96.5h272q-38 -173 -157 -269t-283 -96zM821 536l58 327h616l-153 -863h-348l20 111q-117 -140 -323 -140q-272 0 -442 184.5t-170 485.5q0 181 61 341.5t168 276.5t260.5 183.5
t331.5 67.5q209 0 363 -92.5t232 -258.5l-356 -200q-54 89 -111 125.5t-147 36.5q-109 0 -193 -69t-125.5 -175.5t-41.5 -228.5q0 -134 75.5 -214.5t195.5 -80.5q96 0 174.5 48t108.5 131l1 4h-255z" />
    <glyph glyph-name="gbreve" unicode="&#x11f;" horiz-adv-x="1254" 
d="M756 1166q-164 0 -256 101.5t-100 263.5h254q1 -65 37 -98.5t88 -33.5q55 0 95.5 35.5t49.5 96.5h271q-38 -173 -156.5 -269t-282.5 -96zM859 1096h410l-183 -1033q-37 -214 -203 -333t-425 -119q-155 0 -273.5 42.5t-196.5 109.5l196 280q125 -98 275 -98q198 0 225 159
l8 46q-76 -105 -232 -105q-181 0 -300 127.5t-119 326.5q0 282 143.5 454.5t377.5 172.5q89 0 163 -34t117 -93zM591 383q85 0 140 72t55 168q0 77 -37 121t-99 44q-84 0 -139.5 -72t-55.5 -167q0 -77 37 -121.5t99 -44.5z" />
    <glyph glyph-name="Gdotaccent" unicode="&#x120;" horiz-adv-x="1516" 
d="M1175 1864l-54 -297h-418l54 297h418zM821 536l58 327h616l-153 -863h-348l20 111q-117 -140 -323 -140q-272 0 -442 184.5t-170 485.5q0 181 61 341.5t168 276.5t260.5 183.5t331.5 67.5q209 0 363 -92.5t232 -258.5l-356 -200q-54 89 -111 125.5t-147 36.5
q-109 0 -193 -69t-125.5 -175.5t-41.5 -228.5q0 -134 75.5 -214.5t195.5 -80.5q96 0 174.5 48t108.5 131l1 4h-255z" />
    <glyph glyph-name="gdotaccent" unicode="&#x121;" horiz-adv-x="1254" 
d="M986 1475l-53 -297h-416l53 297h416zM859 1096h410l-183 -1033q-37 -214 -203 -333t-425 -119q-155 0 -273.5 42.5t-196.5 109.5l196 280q125 -98 275 -98q198 0 225 159l8 46q-76 -105 -232 -105q-181 0 -300 127.5t-119 326.5q0 282 143.5 454.5t377.5 172.5
q89 0 163 -34t117 -93zM591 383q85 0 140 72t55 168q0 77 -37 121t-99 44q-84 0 -139.5 -72t-55.5 -167q0 -77 37 -121.5t99 -44.5z" />
    <glyph glyph-name="uni0122" unicode="&#x122;" horiz-adv-x="1516" 
d="M821 536l58 327h616l-153 -863h-348l20 111q-117 -140 -323 -140q-272 0 -442 184.5t-170 485.5q0 181 61 341.5t168 276.5t260.5 183.5t331.5 67.5q209 0 363 -92.5t232 -258.5l-356 -200q-54 89 -111 125.5t-147 36.5q-109 0 -193 -69t-125.5 -175.5t-41.5 -228.5
q0 -134 75.5 -214.5t195.5 -80.5q96 0 174.5 48t108.5 131l1 4h-255zM481 -302l41 230h320l-42 -237q-13 -76 -67 -126.5t-161 -96.5l-68 119q60 26 95.5 51t46.5 60h-165z" />
    <glyph glyph-name="uni0123" unicode="&#x123;" horiz-adv-x="1254" 
d="M939 1428l-41 -230h-319l42 238q13 77 66.5 127.5t160.5 95.5l68 -120q-60 -26 -95.5 -51t-46.5 -60h165zM859 1096h410l-183 -1033q-37 -214 -203 -333t-425 -119q-155 0 -273.5 42.5t-196.5 109.5l196 280q125 -98 275 -98q198 0 225 159l8 46q-76 -105 -232 -105
q-181 0 -300 127.5t-119 326.5q0 282 143.5 454.5t377.5 172.5q89 0 163 -34t117 -93zM591 383q85 0 140 72t55 168q0 77 -37 121t-99 44q-84 0 -139.5 -72t-55.5 -167q0 -77 37 -121.5t99 -44.5z" />
    <glyph glyph-name="Hcircumflex" unicode="&#x124;" horiz-adv-x="1532" 
d="M974 1706l-123 -150h-331l292 354h368l167 -354h-303zM1169 1475h430l-260 -1475h-430l99 556h-479l-98 -556h-430l260 1475h430l-95 -540h478z" />
    <glyph glyph-name="hcircumflex" unicode="&#x125;" horiz-adv-x="1210" 
d="M878 1706l-123 -150h-331l292 354h367l167 -354h-302zM851 1124q146 0 233.5 -83.5t87.5 -222.5q0 -48 -9 -100l-126 -718h-409l114 649q4 25 4 54q0 38 -21.5 59t-59.5 21q-60 0 -105 -52.5t-61 -144.5l-104 -586h-409l260 1475h409l-80 -462q109 111 276 111z" />
    <glyph glyph-name="Hbar" unicode="&#x126;" horiz-adv-x="1635" 
d="M1772 1348l-53 -297h-143l-185 -1051h-430l98 556h-478l-99 -556h-430l186 1051h-144l52 297h144l22 127h430l-25 -143h478l26 143h430l-23 -127h144zM647 935h478l24 131h-478z" />
    <glyph glyph-name="hbar" unicode="&#x127;" horiz-adv-x="1225" 
d="M866 1124q146 0 234 -83.5t88 -222.5q0 -48 -9 -100l-126 -718h-410l115 649q4 25 4 54q0 37 -22 58.5t-60 21.5q-60 0 -105 -52.5t-61 -144.5l-103 -586h-410l209 1186h-108l35 194h108l16 95h410l-17 -95h191l-35 -194h-189l-30 -173q109 111 275 111z" />
    <glyph glyph-name="Itilde" unicode="&#x128;" horiz-adv-x="624" 
d="M226 1544l-179 222q110 99 182.5 130.5t144.5 31.5q43 0 80 -8.5t56 -17.5t46 -25q58 -32 92 -32q70 0 152 87l179 -222q-110 -99 -182.5 -130.5t-144.5 -31.5q-43 0 -80 8.5t-56 17.5t-46 25q-58 32 -92 32q-70 0 -152 -87zM1 0l260 1475h430l-260 -1475h-430z" />
    <glyph glyph-name="itilde" unicode="&#x129;" horiz-adv-x="573" 
d="M132 1180l-179 222q110 99 182.5 130.5t144.5 31.5q43 0 80 -9t55.5 -18t46.5 -25q57 -31 92 -31q70 0 152 87l179 -222q-110 -99 -182.5 -130.5t-144.5 -31.5q-43 0 -80 8.5t-56 17.5t-46 25q-58 32 -92 32q-70 0 -152 -87zM-14 0l192 1096h410l-193 -1096h-409z" />
    <glyph glyph-name="Imacron" unicode="&#x12a;" horiz-adv-x="624" 
d="M186 1608l41 235h626l-41 -235h-626zM1 0l260 1475h430l-260 -1475h-430z" />
    <glyph glyph-name="imacron" unicode="&#x12b;" horiz-adv-x="573" 
d="M95 1239l42 236h626l-42 -236h-626zM-14 0l192 1096h410l-193 -1096h-409z" />
    <glyph glyph-name="Ibreve" unicode="&#x12c;" horiz-adv-x="624" 
d="M497 1545q-164 0 -256 101.5t-100 263.5h254q1 -65 37 -98.5t88 -33.5q55 0 95.5 35.5t49.5 96.5h271q-38 -173 -156.5 -269t-282.5 -96zM1 0l260 1475h430l-260 -1475h-430z" />
    <glyph glyph-name="ibreve" unicode="&#x12d;" horiz-adv-x="573" 
d="M428 1166q-164 0 -255.5 101.5t-99.5 263.5h254q1 -65 37 -98.5t88 -33.5q55 0 95 35.5t49 96.5h271q-38 -173 -156.5 -269t-282.5 -96zM-14 0l192 1096h410l-193 -1096h-409z" />
    <glyph glyph-name="Iogonek" unicode="&#x12e;" horiz-adv-x="624" 
d="M274 -175q52 0 101 22l71 -228q-94 -49 -223 -49q-137 0 -218.5 62t-81.5 165q0 118 131 203h-53l260 1475h430l-260 -1475h-126q-104 -62 -104 -126q0 -49 73 -49z" />
    <glyph glyph-name="iogonek" unicode="&#x12f;" horiz-adv-x="573" 
d="M243 1475h415l-53 -297h-416zM264 0q-100 -62 -100 -126q0 -49 63 -49q57 0 106 22l71 -228q-94 -49 -218 -49q-137 0 -218.5 62t-81.5 165q0 118 127 203h-27l192 1096h410l-193 -1096h-131z" />
    <glyph glyph-name="Idotaccent" unicode="&#x130;" horiz-adv-x="624" 
d="M284 1567l53 297h418l-54 -297h-417zM1 0l260 1475h430l-260 -1475h-430z" />
    <glyph glyph-name="dotlessi" unicode="&#x131;" horiz-adv-x="573" 
d="M-14 0l192 1096h410l-193 -1096h-409z" />
    <glyph glyph-name="IJ" unicode="&#x132;" horiz-adv-x="1809" 
d="M1 0l260 1475h430l-260 -1475h-430zM1118 -36q-188 0 -313 82t-202 253l356 188q29 -80 71 -112t98 -32q72 0 114.5 51.5t61.5 157.5l162 923h430l-176 -997q-44 -254 -196 -384t-406 -130z" />
    <glyph glyph-name="ij" unicode="&#x133;" horiz-adv-x="1147" 
d="M190 1178l53 297h415l-52 -297h-416zM764 1178l53 297h416l-53 -297h-416zM-14 0l193 1096h410l-194 -1096h-409zM510 -386q-141 0 -263 47l102 307q56 -19 90 -19q112 0 132 121l182 1026h409l-203 -1152q-58 -330 -449 -330z" />
    <glyph glyph-name="Jcircumflex" unicode="&#x134;" horiz-adv-x="1184" 
d="M1115 1706l-123 -150h-330l291 354h368l167 -354h-302zM679 552l163 923h430l-176 -997q-44 -254 -196 -384t-406 -130q-188 0 -313.5 82t-202.5 253l357 188q29 -80 71 -112t98 -32q72 0 114 51.5t61 157.5z" />
    <glyph glyph-name="jcircumflex" unicode="&#x135;" horiz-adv-x="573" 
d="M443 1327l-122 -149h-331l292 353h367l167 -353h-302zM-3 70l181 1026h410l-203 -1152q-58 -330 -450 -330q-141 0 -263 47l103 307q56 -19 90 -19q112 0 132 121z" />
    <glyph glyph-name="uni0136" unicode="&#x136;" horiz-adv-x="1479" 
d="M1644 1475l-638 -635l361 -841h-478l-206 520l-195 -192l-57 -327h-430l260 1475h430l-90 -510l500 510h543zM432 -302l41 230h320l-42 -237q-13 -76 -67 -126.5t-161 -96.5l-68 119q60 26 95.5 51t46.5 60h-165z" />
    <glyph glyph-name="uni0137" unicode="&#x137;" horiz-adv-x="1230" 
d="M1327 1096l-479 -456l266 -640h-428l-131 360l-116 -110l-44 -250h-409l260 1475h409l-118 -675l294 296h496zM309 -302l41 230h320l-42 -237q-13 -76 -67 -126.5t-161 -96.5l-68 119q60 26 95.5 51t46.5 60h-165z" />
    <glyph glyph-name="kgreenlandic" unicode="&#x138;" horiz-adv-x="1230" 
d="M1327 1096l-479 -456l266 -640h-428l-131 360l-116 -110l-44 -250h-409l192 1096h410l-52 -297l295 297h496z" />
    <glyph glyph-name="Lacute" unicode="&#x139;" horiz-adv-x="1166" 
d="M909 1946l-320 -379h-314l241 379h393zM498 379h608l-69 -379h-1036l260 1475h430z" />
    <glyph glyph-name="lacute" unicode="&#x13a;" horiz-adv-x="573" 
d="M250 1567l240 379h394l-321 -379h-313zM-14 0l260 1475h409l-260 -1475h-409z" />
    <glyph glyph-name="uni013B" unicode="&#x13b;" horiz-adv-x="1166" 
d="M498 379h608l-69 -379h-1036l260 1475h430zM355 -302l41 230h320l-42 -237q-13 -76 -67 -126.5t-161 -96.5l-68 119q60 26 95.5 51t46.5 60h-165z" />
    <glyph glyph-name="uni013C" unicode="&#x13c;" horiz-adv-x="573" 
d="M246 1475h409l-260 -1475h-409zM-23 -302l41 230h320l-42 -237q-13 -77 -66.5 -127.5t-160.5 -95.5l-69 119q60 26 95.5 51t46.5 60h-165z" />
    <glyph glyph-name="Lcaron" unicode="&#x13d;" horiz-adv-x="1166" 
d="M691 1475l-193 -1096h608l-69 -379h-1036l260 1475h430zM1189 1475l-164 -520h-280l92 520h352z" />
    <glyph glyph-name="lcaron" unicode="&#x13e;" horiz-adv-x="868" 
d="M-14 0l260 1475h409l-260 -1475h-409zM660 955l92 520h352l-164 -520h-280z" />
    <glyph glyph-name="Ldot" unicode="&#x13f;" horiz-adv-x="1166" 
d="M691 1475l-193 -1096h608l-69 -379h-1036l260 1475h430zM770 1096h430l-74 -420h-430z" />
    <glyph glyph-name="ldot" unicode="&#x140;" horiz-adv-x="1105" 
d="M-14 0l260 1475h409l-260 -1475h-409zM622 527l73 420h430l-73 -420h-430z" />
    <glyph glyph-name="Lslash" unicode="&#x141;" horiz-adv-x="1220" 
d="M552 379h608l-68 -379h-1037l76 432l-153 -64l64 358l153 65l120 684h430l-89 -506l407 171l-64 -359l-406 -171z" />
    <glyph glyph-name="lslash" unicode="&#x142;" horiz-adv-x="758" 
d="M838 1171l-64 -358l-163 -92l-127 -721h-409l86 487l-157 -89l64 359l156 89l111 629h409l-69 -397z" />
    <glyph glyph-name="Nacute" unicode="&#x143;" horiz-adv-x="1520" 
d="M1357 1946l-321 -379h-313l241 379h393zM1157 1475h430l-260 -1475h-466l-291 792l-139 -792h-430l260 1475h466l291 -792z" />
    <glyph glyph-name="nacute" unicode="&#x144;" horiz-adv-x="1210" 
d="M1134 1556l-321 -378h-313l240 378h394zM851 1124q146 0 233.5 -83.5t87.5 -222.5q0 -48 -9 -100l-126 -718h-409l114 649q4 25 4 54q0 38 -21.5 59t-59.5 21q-61 0 -104.5 -48t-59.5 -139l-106 -596h-409l193 1096h400l-20 -111q110 139 292 139z" />
    <glyph glyph-name="uni0145" unicode="&#x145;" horiz-adv-x="1520" 
d="M1157 1475h430l-260 -1475h-466l-291 792l-139 -792h-430l260 1475h466l291 -792zM451 -302l41 230h319l-42 -237q-13 -77 -66.5 -127.5t-160.5 -95.5l-69 119q60 26 95.5 51t46.5 60h-164z" />
    <glyph glyph-name="uni0146" unicode="&#x146;" horiz-adv-x="1210" 
d="M851 1124q146 0 233.5 -83.5t87.5 -222.5q0 -48 -9 -100l-126 -718h-409l114 649q4 25 4 54q0 38 -21.5 59t-59.5 21q-61 0 -104.5 -48t-59.5 -139l-106 -596h-409l193 1096h400l-20 -111q110 139 292 139zM296 -302l41 230h319l-42 -237q-13 -77 -66.5 -127.5
t-160.5 -95.5l-69 119q61 26 96.5 51.5t46.5 59.5h-165z" />
    <glyph glyph-name="Ncaron" unicode="&#x147;" horiz-adv-x="1520" 
d="M1126 1556h-367l-167 354h302l71 -150l122 150h331zM1157 1475h430l-260 -1475h-466l-291 792l-139 -792h-430l260 1475h466l291 -792z" />
    <glyph glyph-name="ncaron" unicode="&#x148;" horiz-adv-x="1210" 
d="M903 1178h-367l-167 353h302l70 -150l123 150h331zM851 1124q146 0 233.5 -83.5t87.5 -222.5q0 -48 -9 -100l-126 -718h-409l114 649q4 25 4 54q0 38 -21.5 59t-59.5 21q-61 0 -104.5 -48t-59.5 -139l-106 -596h-409l193 1096h400l-20 -111q110 139 292 139z" />
    <glyph glyph-name="napostrophe" unicode="&#x149;" horiz-adv-x="1701" 
d="M666 1475l-76 -431q-25 -142 -84 -229t-211 -192l-127 167q170 101 202 265h-209l75 420h430zM1342 1124q146 0 234 -83.5t88 -222.5q0 -48 -9 -100l-126 -718h-410l115 649q4 25 4 54q0 37 -22 58.5t-60 21.5q-61 0 -104.5 -48t-59.5 -139l-105 -596h-410l194 1096h399
l-19 -111q110 139 291 139z" />
    <glyph glyph-name="Eng" unicode="&#x14a;" horiz-adv-x="1520" 
d="M1157 1475h430l-262 -1483q-31 -175 -165 -273t-344 -98q-163 0 -294 51l118 326q75 -23 130 -23q53 0 93.5 31.5t48.5 80.5l6 28l-343 705l-144 -820h-430l260 1475h465l310 -687z" />
    <glyph glyph-name="eng" unicode="&#x14b;" horiz-adv-x="1210" 
d="M851 1124q146 0 233.5 -83.5t87.5 -222.5q0 -48 -9 -100l-131 -744q-58 -329 -448 -329q-115 0 -233 36l96 308q36 -9 66 -9q112 0 132 120l97 549q4 25 4 54q0 38 -21.5 59t-59.5 21q-60 0 -105 -52.5t-61 -144.5l-104 -586h-409l193 1096h400l-20 -109q109 137 292 137
z" />
    <glyph glyph-name="Omacron" unicode="&#x14c;" horiz-adv-x="1594" 
d="M642 1608l41 235h626l-41 -235h-626zM763 -36q-310 0 -497 184.5t-187 492.5q0 181 61 341.5t168 276.5t260.5 183.5t331.5 67.5q310 0 496.5 -184t186.5 -492q0 -181 -61 -341.5t-168 -277t-260.5 -184t-330.5 -67.5zM782 353q109 0 192.5 69t125 175.5t41.5 228.5
q0 135 -71 215t-189 80q-109 0 -193 -69t-125.5 -175.5t-41.5 -228.5q0 -135 71.5 -215t189.5 -80z" />
    <glyph glyph-name="omacron" unicode="&#x14d;" horiz-adv-x="1247" 
d="M403 1239l42 236h626l-42 -236h-626zM573 -31q-240 0 -388 143t-148 374q0 288 175 464t462 176q240 0 388 -143t148 -374q0 -288 -175 -464t-462 -176zM594 312q64 0 111 42.5t68.5 105.5t21.5 135q0 89 -37 138.5t-105 49.5q-64 0 -110.5 -42t-68 -105t-21.5 -135
q0 -89 36.5 -139t104.5 -50z" />
    <glyph glyph-name="Obreve" unicode="&#x14e;" horiz-adv-x="1594" 
d="M952 1545q-164 0 -255.5 101.5t-99.5 263.5h254q1 -65 37 -98.5t88 -33.5q55 0 95 35.5t49 96.5h272q-38 -173 -157 -269t-283 -96zM763 -36q-310 0 -497 184.5t-187 492.5q0 181 61 341.5t168 276.5t260.5 183.5t331.5 67.5q310 0 496.5 -184t186.5 -492
q0 -181 -61 -341.5t-168 -277t-260.5 -184t-330.5 -67.5zM782 353q109 0 192.5 69t125 175.5t41.5 228.5q0 135 -71 215t-189 80q-109 0 -193 -69t-125.5 -175.5t-41.5 -228.5q0 -135 71.5 -215t189.5 -80z" />
    <glyph glyph-name="obreve" unicode="&#x14f;" horiz-adv-x="1247" 
d="M736 1166q-164 0 -255.5 101.5t-99.5 263.5h254q1 -65 37 -98.5t88 -33.5q55 0 95 35.5t49 96.5h272q-38 -173 -157 -269t-283 -96zM573 -31q-240 0 -388 143t-148 374q0 288 175 464t462 176q240 0 388 -143t148 -374q0 -288 -175 -464t-462 -176zM594 312
q64 0 111 42.5t68.5 105.5t21.5 135q0 89 -37 138.5t-105 49.5q-64 0 -110.5 -42t-68 -105t-21.5 -135q0 -89 36.5 -139t104.5 -50z" />
    <glyph glyph-name="Ohungarumlaut" unicode="&#x150;" horiz-adv-x="1594" 
d="M524 1567l241 379h393l-320 -379h-314zM986 1567l241 379h393l-321 -379h-313zM763 -36q-310 0 -497 184.5t-187 492.5q0 181 61 341.5t168 276.5t260.5 183.5t331.5 67.5q310 0 496.5 -184t186.5 -492q0 -181 -61 -341.5t-168 -277t-260.5 -184t-330.5 -67.5zM782 353
q109 0 192.5 69t125 175.5t41.5 228.5q0 135 -71 215t-189 80q-109 0 -193 -69t-125.5 -175.5t-41.5 -228.5q0 -135 71.5 -215t189.5 -80z" />
    <glyph glyph-name="ohungarumlaut" unicode="&#x151;" horiz-adv-x="1247" 
d="M279 1178l240 378h393l-320 -378h-313zM740 1178l241 378h393l-320 -378h-314zM573 -31q-240 0 -388 143t-148 374q0 288 175 464t462 176q240 0 388 -143t148 -374q0 -288 -175 -464t-462 -176zM594 312q64 0 111 42.5t68.5 105.5t21.5 135q0 89 -37 138.5t-105 49.5
q-64 0 -110.5 -42t-68 -105t-21.5 -135q0 -89 36.5 -139t104.5 -50z" />
    <glyph glyph-name="OE" unicode="&#x152;" horiz-adv-x="2108" 
d="M2147 1096h-650l-31 -176h584l-63 -359h-584l-33 -182h663l-67 -379h-1205q-314 0 -498.5 168.5t-184.5 472.5q0 242 104 432t291 296t425 106h1316zM520 648q0 -132 69.5 -200.5t190.5 -68.5h160l126 717h-177q-171 0 -270 -130t-99 -318z" />
    <glyph glyph-name="oe" unicode="&#x153;" horiz-adv-x="1861" 
d="M1167 428q28 -143 152 -143q53 0 106.5 28t87.5 74l244 -232q-57 -58 -119 -97t-124 -57.5t-113 -25t-110 -6.5q-248 0 -365 179q-69 -96 -158.5 -137.5t-222.5 -41.5q-230 0 -369 141.5t-139 370.5q0 289 163 467t434 178q110 0 207 -40.5t163 -114.5q74 84 158 119.5
t198 35.5q208 0 336.5 -148t128.5 -389q0 -53 -21 -161h-637zM1176 655h257q-1 72 -29 113.5t-78 41.5q-52 0 -91 -40.5t-59 -114.5zM580 312q58 0 100 43t61 106.5t19 136.5q0 87 -32 136t-93 49q-86 0 -134 -85t-48 -200q0 -87 33 -136.5t94 -49.5z" />
    <glyph glyph-name="Racute" unicode="&#x154;" horiz-adv-x="1414" 
d="M1251 1930l-320 -379h-314l241 379h393zM1448 1042q0 -184 -90.5 -316t-253.5 -190l183 -536h-446l-141 495h-182l-87 -495h-430l260 1475h702q212 0 348.5 -121t136.5 -312zM625 1096l-42 -238h253q81 0 130 36.5t49 96.5q0 49 -33.5 77t-91.5 28h-265z" />
    <glyph glyph-name="racute" unicode="&#x155;" horiz-adv-x="899" 
d="M1016 1556l-321 -378h-313l241 378h393zM546 956q41 80 118 122.5t171 42.5q70 0 151 -21l-97 -354q-65 18 -130 18q-109 0 -183.5 -83.5t-100.5 -231.5l-80 -449h-409l193 1096h391z" />
    <glyph glyph-name="uni0156" unicode="&#x156;" horiz-adv-x="1414" 
d="M1448 1042q0 -184 -90.5 -316t-253.5 -190l183 -536h-446l-141 495h-182l-87 -495h-430l260 1475h702q212 0 348.5 -121t136.5 -312zM625 1096l-42 -238h253q81 0 130 36.5t49 96.5q0 49 -33.5 77t-91.5 28h-265zM404 -302l41 230h320l-42 -237q-13 -77 -66.5 -127.5
t-160.5 -95.5l-69 119q60 26 95.5 51t46.5 60h-165z" />
    <glyph glyph-name="uni0157" unicode="&#x157;" horiz-adv-x="899" 
d="M835 1121q70 0 151 -21l-97 -354q-65 18 -130 18q-109 0 -183.5 -83.5t-100.5 -231.5l-80 -449h-409l193 1096h391l-24 -140q41 80 118 122.5t171 42.5zM-23 -302l41 230h320l-42 -237q-13 -77 -66.5 -127.5t-160.5 -95.5l-69 119q60 26 95.5 51t46.5 60h-165z" />
    <glyph glyph-name="Rcaron" unicode="&#x158;" horiz-adv-x="1414" 
d="M1021 1541h-368l-167 353h302l71 -149l123 149h331zM1448 1042q0 -184 -90.5 -316t-253.5 -190l183 -536h-446l-141 495h-182l-87 -495h-430l260 1475h702q212 0 348.5 -121t136.5 -312zM625 1096l-42 -238h253q81 0 130 36.5t49 96.5q0 49 -33.5 77t-91.5 28h-265z" />
    <glyph glyph-name="rcaron" unicode="&#x159;" horiz-adv-x="899" 
d="M785 1178h-367l-167 353h302l71 -150l122 150h331zM546 956q41 80 118 122.5t171 42.5q70 0 151 -21l-97 -354q-65 18 -130 18q-109 0 -183.5 -83.5t-100.5 -231.5l-80 -449h-409l193 1096h391z" />
    <glyph glyph-name="Sacute" unicode="&#x15a;" horiz-adv-x="1430" 
d="M645 1567l241 379h393l-321 -379h-313zM653 -37q-191 0 -367 70.5t-287 187.5l262 286q71 -80 184.5 -122.5t248.5 -42.5q102 0 162 26.5t60 72.5q0 81 -227 110q-265 33 -402 154.5t-137 312.5q0 230 174.5 362t481.5 132q183 0 351 -56.5t286 -158.5l-237 -290
q-76 62 -181 94.5t-220 32.5q-93 0 -152 -27.5t-59 -72.5q0 -76 196 -99q290 -34 431 -149t141 -319q0 -236 -189.5 -370t-519.5 -134z" />
    <glyph glyph-name="sacute" unicode="&#x15b;" horiz-adv-x="1144" 
d="M452 1178l240 378h393l-320 -378h-313zM548 -39q-190 0 -336 46.5t-234 127.5l215 257q53 -53 143.5 -82t199.5 -29q67 0 94.5 10.5t27.5 36.5q0 14 -9 23t-46.5 19.5t-109.5 19.5q-391 52 -391 345q0 129 73.5 221t195 135t278.5 43q276 0 469 -142l-203 -256
q-111 78 -280 78q-138 0 -138 -49q0 -13 12.5 -22.5t55 -19.5t119.5 -18q371 -39 371 -332q0 -197 -136.5 -304.5t-370.5 -107.5z" />
    <glyph glyph-name="Scircumflex" unicode="&#x15c;" horiz-adv-x="1430" 
d="M904 1706l-123 -150h-330l291 354h368l167 -354h-302zM790 935q290 -34 431 -149t141 -319q0 -236 -189.5 -370t-519.5 -134q-191 0 -367 70.5t-287 187.5l262 286q71 -80 184.5 -122.5t248.5 -42.5q102 0 162 26.5t60 72.5q0 81 -227 110q-265 33 -402 154.5t-137 312.5
q0 230 174.5 362t481.5 132q183 0 351 -56.5t286 -158.5l-237 -290q-76 62 -181 94.5t-220 32.5q-93 0 -152 -27.5t-59 -72.5q0 -76 196 -99z" />
    <glyph glyph-name="scircumflex" unicode="&#x15d;" horiz-adv-x="1144" 
d="M713 1327l-123 -149h-331l292 353h368l166 -353h-302zM684 705q371 -39 371 -332q0 -197 -136.5 -304.5t-370.5 -107.5q-190 0 -336 46.5t-234 127.5l215 257q53 -53 143.5 -82t199.5 -29q67 0 94.5 10.5t27.5 36.5q0 14 -9 23t-46.5 19.5t-109.5 19.5q-391 52 -391 345
q0 129 73.5 221t195 135t278.5 43q276 0 469 -142l-203 -256q-111 78 -280 78q-138 0 -138 -49q0 -13 12.5 -22.5t55 -19.5t119.5 -18z" />
    <glyph glyph-name="Scedilla" unicode="&#x15e;" horiz-adv-x="1430" 
d="M790 935q290 -34 431 -149t141 -319q0 -197 -133 -324t-372 -165l-161 -357h-331l158 351q-156 21 -294 87t-230 162l262 286q71 -80 184.5 -122.5t248.5 -42.5q102 0 162 26.5t60 72.5q0 81 -227 110q-265 33 -402 154.5t-137 312.5q0 230 174.5 362t481.5 132
q183 0 351 -56.5t286 -158.5l-237 -290q-76 62 -181 94.5t-220 32.5q-93 0 -152 -27.5t-59 -72.5q0 -76 196 -99z" />
    <glyph glyph-name="scedilla" unicode="&#x15f;" horiz-adv-x="1144" 
d="M684 705q371 -39 371 -332q0 -172 -105.5 -277t-292.5 -129l-156 -346h-332l162 359q-228 40 -353 155l215 257q53 -53 143.5 -82t199.5 -29q67 0 94.5 10.5t27.5 36.5q0 14 -9 23t-46.5 19.5t-109.5 19.5q-391 52 -391 345q0 129 73.5 221t195 135t278.5 43
q276 0 469 -142l-203 -256q-111 78 -280 78q-138 0 -138 -49q0 -13 12.5 -22.5t55 -19.5t119.5 -18z" />
    <glyph glyph-name="Scaron" unicode="&#x160;" horiz-adv-x="1430" 
d="M1049 1556h-368l-167 354h302l71 -150l123 150h330zM790 935q290 -34 431 -149t141 -319q0 -236 -189.5 -370t-519.5 -134q-191 0 -367 70.5t-287 187.5l262 286q71 -80 184.5 -122.5t248.5 -42.5q102 0 162 26.5t60 72.5q0 81 -227 110q-265 33 -402 154.5t-137 312.5
q0 230 174.5 362t481.5 132q183 0 351 -56.5t286 -158.5l-237 -290q-76 62 -181 94.5t-220 32.5q-93 0 -152 -27.5t-59 -72.5q0 -76 196 -99z" />
    <glyph glyph-name="scaron" unicode="&#x161;" horiz-adv-x="1144" 
d="M855 1178h-368l-166 353h302l70 -150l123 150h331zM635 814q-138 0 -138 -49q0 -13 12.5 -22.5t55 -19.5t119.5 -18q371 -39 371 -332q0 -197 -136.5 -304.5t-370.5 -107.5q-190 0 -336 46.5t-234 127.5l215 257q53 -53 143.5 -82t199.5 -29q67 0 94.5 10.5t27.5 36.5
q0 14 -9 23t-46.5 19.5t-109.5 19.5q-391 52 -391 345q0 129 73.5 221t195 135t278.5 43q276 0 469 -142l-203 -256q-111 78 -280 78z" />
    <glyph glyph-name="uni0162" unicode="&#x162;" horiz-adv-x="1315" 
d="M1458 1475l-66 -379h-422l-194 -1096h-50l-171 -379h-332l171 379h-48l194 1096h-422l66 379h1274z" />
    <glyph glyph-name="uni0163" unicode="&#x163;" horiz-adv-x="965" 
d="M649 768l-59 -335q-5 -27 -5 -43q0 -39 21 -58t70 -19q42 0 107 17l58 -315q-98 -37 -248 -45l-158 -349h-332l185 410q-127 79 -127 243q0 41 8 92l71 402h-175l58 328h175l55 316h410l-56 -316h259l-59 -328h-258z" />
    <glyph glyph-name="Tcaron" unicode="&#x164;" horiz-adv-x="1315" 
d="M1024 1556h-368l-167 354h303l70 -150l123 150h331zM1458 1475l-66 -379h-422l-194 -1096h-430l194 1096h-422l66 379h1274z" />
    <glyph glyph-name="tcaron" unicode="&#x165;" horiz-adv-x="953" 
d="M881 1679h352l-164 -509h-278zM763 1412l-56 -316h259l-59 -328h-258l-59 -335q-5 -27 -5 -43q0 -39 21 -58t70 -19q42 0 107 17l58 -315q-123 -46 -297 -46q-185 0 -284 81.5t-99 223.5q0 41 8 92l71 402h-175l58 328h175l55 316h410z" />
    <glyph glyph-name="Tbar" unicode="&#x166;" horiz-adv-x="1315" 
d="M1392 1096h-422l-37 -205h258l-61 -343h-258l-96 -548h-430l96 548h-258l61 343h258l37 205h-422l66 379h1274z" />
    <glyph glyph-name="tbar" unicode="&#x167;" horiz-adv-x="965" 
d="M907 768h-258l-13 -72h177l-50 -286h-177q-1 -6 -1 -20q0 -39 21 -58t70 -19q42 0 107 17l58 -315q-123 -46 -297 -46q-185 0 -284 81.5t-99 223.5q0 41 8 92l8 44h-134l50 286h134l13 72h-175l58 328h175l55 316h410l-56 -316h259z" />
    <glyph glyph-name="Utilde" unicode="&#x168;" horiz-adv-x="1482" 
d="M655 1544l-179 222q110 99 182.5 130.5t144.5 31.5q43 0 80 -8.5t56 -17.5t46 -25q58 -32 92 -32q70 0 152 87l179 -222q-110 -99 -182.5 -130.5t-144.5 -31.5q-43 0 -80 8.5t-56 17.5t-46 25q-58 32 -92 32q-70 0 -152 -87zM689 -37q-274 0 -441 140t-167 369
q0 72 13 144l152 859h430l-153 -865q-7 -39 -7 -75q0 -83 53 -133t141 -50q110 0 180 65.5t92 192.5l153 865h430l-162 -916q-52 -293 -233 -444.5t-481 -151.5z" />
    <glyph glyph-name="utilde" unicode="&#x169;" horiz-adv-x="1210" 
d="M600 1267q-69 0 -151 -87l-180 222q110 99 182.5 130.5t144.5 31.5q43 0 80 -9t55.5 -18t46.5 -25q57 -31 92 -31q70 0 152 87l179 -222q-110 -99 -182.5 -130.5t-144.5 -31.5q-43 0 -80 8.5t-56 17.5t-46 25q-58 32 -92 32zM815 1096h410l-194 -1096h-399l19 113
q-112 -142 -292 -142q-146 0 -233.5 84t-87.5 223q0 48 9 100l126 718h410l-115 -650q-4 -25 -4 -54q0 -37 22 -58.5t60 -21.5q60 0 105 53t61 145z" />
    <glyph glyph-name="Umacron" unicode="&#x16a;" horiz-adv-x="1482" 
d="M615 1608l41 235h626l-41 -235h-626zM689 -37q-274 0 -441 140t-167 369q0 72 13 144l152 859h430l-153 -865q-7 -39 -7 -75q0 -83 53 -133t141 -50q110 0 180 65.5t92 192.5l153 865h430l-162 -916q-52 -293 -233 -444.5t-481 -151.5z" />
    <glyph glyph-name="umacron" unicode="&#x16b;" horiz-adv-x="1210" 
d="M1079 1475l-42 -236h-625l42 236h625zM815 1096h410l-194 -1096h-399l19 113q-112 -142 -292 -142q-146 0 -233.5 84t-87.5 223q0 48 9 100l126 718h410l-115 -650q-4 -25 -4 -54q0 -37 22 -58.5t60 -21.5q60 0 105 53t61 145z" />
    <glyph glyph-name="Ubreve" unicode="&#x16c;" horiz-adv-x="1482" 
d="M926 1545q-164 0 -256 101.5t-100 263.5h254q1 -65 37 -98.5t88 -33.5q55 0 95.5 35.5t49.5 96.5h271q-38 -173 -156.5 -269t-282.5 -96zM689 -37q-274 0 -441 140t-167 369q0 72 13 144l152 859h430l-153 -865q-7 -39 -7 -75q0 -83 53 -133t141 -50q110 0 180 65.5
t92 192.5l153 865h430l-162 -916q-52 -293 -233 -444.5t-481 -151.5z" />
    <glyph glyph-name="ubreve" unicode="&#x16d;" horiz-adv-x="1210" 
d="M744 1166q-164 0 -255.5 101.5t-99.5 263.5h254q1 -65 37 -98.5t88 -33.5q55 0 95 35.5t49 96.5h272q-38 -173 -157 -269t-283 -96zM815 1096h410l-194 -1096h-399l19 113q-112 -142 -292 -142q-146 0 -233.5 84t-87.5 223q0 48 9 100l126 718h410l-115 -650
q-4 -25 -4 -54q0 -37 22 -58.5t60 -21.5q60 0 105 53t61 145z" />
    <glyph glyph-name="Uring" unicode="&#x16e;" horiz-adv-x="1482" 
d="M926 1554q-115 0 -186.5 72t-71.5 183q0 124 90 206.5t213 82.5q115 0 186 -72.5t71 -183.5q0 -120 -89.5 -204t-212.5 -84zM936 1745q36 0 61.5 24.5t25.5 64.5q0 32 -17 53t-47 21q-38 0 -62.5 -29.5t-24.5 -66.5q0 -30 18 -48.5t46 -18.5zM689 -37q-274 0 -441 140
t-167 369q0 72 13 144l152 859h430l-153 -865q-7 -39 -7 -75q0 -83 53 -133t141 -50q110 0 180 65.5t92 192.5l153 865h430l-162 -916q-52 -293 -233 -444.5t-481 -151.5z" />
    <glyph glyph-name="uring" unicode="&#x16f;" horiz-adv-x="1210" 
d="M720 1172q-115 0 -186.5 72t-71.5 183q0 124 90 206.5t213 82.5q115 0 186 -72.5t71 -183.5q0 -120 -89.5 -204t-212.5 -84zM754 1526q-39 0 -63 -29t-24 -66q0 -31 17.5 -49.5t45.5 -18.5q36 0 61.5 24.5t25.5 64.5q0 32 -16.5 53t-46.5 21zM815 1096h410l-194 -1096
h-399l19 113q-112 -142 -292 -142q-146 0 -233.5 84t-87.5 223q0 48 9 100l126 718h410l-115 -650q-4 -25 -4 -54q0 -37 22 -58.5t60 -21.5q60 0 105 53t61 145z" />
    <glyph glyph-name="Uhungarumlaut" unicode="&#x170;" horiz-adv-x="1482" 
d="M498 1567l240 379h394l-321 -379h-313zM959 1567l241 379h393l-320 -379h-314zM689 -37q-274 0 -441 140t-167 369q0 72 13 144l152 859h430l-153 -865q-7 -39 -7 -75q0 -83 53 -133t141 -50q110 0 180 65.5t92 192.5l153 865h430l-162 -916q-52 -293 -233 -444.5
t-481 -151.5z" />
    <glyph glyph-name="uhungarumlaut" unicode="&#x171;" horiz-adv-x="1210" 
d="M921 1556l-321 -378h-313l240 378h394zM1062 1178h-313l240 378h393zM712 510l103 586h410l-194 -1096h-399l19 113q-112 -142 -292 -142q-146 0 -233.5 84t-87.5 223q0 48 9 100l126 718h410l-115 -650q-4 -25 -4 -54q0 -37 22 -58.5t60 -21.5q60 0 105 53t61 145z" />
    <glyph glyph-name="Uogonek" unicode="&#x172;" horiz-adv-x="1482" 
d="M1135 1475h430l-162 -916q-69 -390 -362 -526q-77 -36 -122 -77t-45 -82q0 -49 74 -49q52 0 101 22l71 -228q-94 -49 -223 -49q-137 0 -218.5 62t-81.5 165q0 92 82 166q-269 3 -433.5 143t-164.5 366q0 72 13 144l152 859h430l-153 -865q-7 -39 -7 -75q0 -83 53 -133
t141 -50q110 0 180 65.5t92 192.5z" />
    <glyph glyph-name="uogonek" unicode="&#x173;" horiz-adv-x="1210" 
d="M856 0q-104 -62 -104 -126q0 -49 73 -49q52 0 101 22l71 -228q-95 -49 -223 -49q-137 0 -218.5 62t-81.5 165q0 132 161 221l16 95q-112 -142 -292 -142q-146 0 -233.5 84t-87.5 223q0 48 9 100l126 718h410l-115 -650q-4 -25 -4 -54q0 -37 22 -58.5t60 -21.5
q60 0 105 53t61 145l103 586h410l-194 -1096h-175z" />
    <glyph glyph-name="Wcircumflex" unicode="&#x174;" horiz-adv-x="2251" 
d="M1346 1706l-123 -150h-331l292 354h367l167 -354h-302zM1925 1475h472l-679 -1475h-447l-88 836l-361 -836h-454l-186 1475h453l63 -871l357 871h453l64 -867z" />
    <glyph glyph-name="wcircumflex" unicode="&#x175;" horiz-adv-x="1810" 
d="M1069 1327l-123 -149h-331l292 353h368l167 -353h-302zM1455 1096h438l-480 -1096h-397l-86 653l-294 -653h-405l-121 1096h416l28 -556l242 556h390l58 -560z" />
    <glyph glyph-name="Ycircumflex" unicode="&#x176;" horiz-adv-x="1393" 
d="M910 1706l-123 -150h-330l292 354h367l167 -354h-302zM1078 1475h474l-633 -898l-102 -577h-430l101 577l-319 898h431l151 -511z" />
    <glyph glyph-name="ycircumflex" unicode="&#x177;" horiz-adv-x="1242" 
d="M766 1327l-123 -149h-331l292 353h368l167 -353h-302zM880 1096h450l-634 -1176q-88 -162 -201.5 -235.5t-289.5 -73.5q-135 0 -249 44l116 302q62 -18 109 -18q99 0 144 74l29 48l-250 1035h424l93 -574z" />
    <glyph glyph-name="Ydieresis" unicode="&#x178;" horiz-adv-x="1393" 
d="M874 1864l-53 -297h-346l53 297h346zM1313 1864l-53 -297h-347l54 297h346zM1078 1475h474l-633 -898l-102 -577h-430l101 577l-319 898h431l151 -511z" />
    <glyph glyph-name="Zacute" unicode="&#x179;" horiz-adv-x="1327" 
d="M620 1567l240 379h393l-320 -379h-313zM-19 0l62 353l727 743h-589l67 379h1140l-63 -353l-731 -743h627l-67 -379h-1173z" />
    <glyph glyph-name="zacute" unicode="&#x17a;" horiz-adv-x="1069" 
d="M419 1178l240 378h394l-321 -378h-313zM-16 0l53 302l475 466h-401l57 328h889l-53 -302l-469 -466h423l-57 -328h-917z" />
    <glyph glyph-name="Zdotaccent" unicode="&#x17b;" horiz-adv-x="1327" 
d="M628 1567l53 297h418l-53 -297h-418zM-19 0l62 353l727 743h-589l67 379h1140l-63 -353l-731 -743h627l-67 -379h-1173z" />
    <glyph glyph-name="zdotaccent" unicode="&#x17c;" horiz-adv-x="1069" 
d="M426 1178l53 297h416l-53 -297h-416zM-16 0l53 302l475 466h-401l57 328h889l-53 -302l-469 -466h423l-57 -328h-917z" />
    <glyph glyph-name="Zcaron" unicode="&#x17d;" horiz-adv-x="1327" 
d="M1023 1556h-368l-167 354h303l70 -150l123 150h331zM1388 1475l-63 -353l-731 -743h627l-67 -379h-1173l62 353l727 743h-589l67 379h1140z" />
    <glyph glyph-name="zcaron" unicode="&#x17e;" horiz-adv-x="1069" 
d="M822 1178h-367l-167 353h302l70 -150l123 150h331zM111 768l57 328h889l-53 -302l-469 -466h423l-57 -328h-917l53 302l475 466h-401z" />
    <glyph glyph-name="longs" unicode="&#x17f;" horiz-adv-x="857" 
d="M756 1505q133 0 256 -40l-92 -287q-58 17 -114 17q-62 0 -90.5 -25.5t-39.5 -89.5l-191 -1080h-409l136 768h-147l58 328h146l10 50q30 169 156 264t321 95z" />
    <glyph glyph-name="uni018F" unicode="&#x18f;" horiz-adv-x="1542" 
d="M846 1510q310 0 496.5 -184t186.5 -492q0 -183 -56.5 -342.5t-157.5 -276t-250 -184t-326 -67.5q-300 0 -481.5 188t-181.5 497q0 105 33 229h980q-13 113 -84.5 178t-178.5 65q-182 0 -311 -160l-301 263q106 139 269 212.5t363 73.5zM748 353q113 0 190 65.5t117 176.5
h-545q21 -242 238 -242z" />
    <glyph glyph-name="florin" unicode="&#x192;" horiz-adv-x="1007" 
d="M956 1140q-59 0 -98 -33.5t-51 -94.5l-21 -99h214l-49 -278h-223l-64 -311q-37 -178 -156 -266.5t-302 -88.5q-71 0 -154.5 11.5t-138.5 29.5l95 293q53 -13 108 -13q58 0 94 31.5t47 86.5l47 227h-205l49 278h214l36 170q78 377 463 377q73 0 156.5 -11.5t135.5 -29.5
l-94 -293q-66 14 -103 14z" />
    <glyph glyph-name="uni01F4" unicode="&#x1f4;" horiz-adv-x="1516" 
d="M1329 1946l-320 -379h-314l241 379h393zM821 536l58 327h616l-153 -863h-348l20 111q-117 -140 -323 -140q-272 0 -442 184.5t-170 485.5q0 181 61 341.5t168 276.5t260.5 183.5t331.5 67.5q209 0 363 -92.5t232 -258.5l-356 -200q-54 89 -111 125.5t-147 36.5
q-109 0 -193 -69t-125.5 -175.5t-41.5 -228.5q0 -134 75.5 -214.5t195.5 -80.5q96 0 174.5 48t108.5 131l1 4h-255z" />
    <glyph glyph-name="uni01F5" unicode="&#x1f5;" horiz-adv-x="1254" 
d="M1144 1556l-321 -378h-313l241 378h393zM859 1096h410l-183 -1033q-37 -214 -203 -333t-425 -119q-155 0 -273.5 42.5t-196.5 109.5l196 280q125 -98 275 -98q198 0 225 159l8 46q-76 -105 -232 -105q-181 0 -300 127.5t-119 326.5q0 282 143.5 454.5t377.5 172.5
q89 0 163 -34t117 -93zM591 383q85 0 140 72t55 168q0 77 -37 121t-99 44q-84 0 -139.5 -72t-55.5 -167q0 -77 37 -121.5t99 -44.5z" />
    <glyph glyph-name="Aringacute" unicode="&#x1fa;" horiz-adv-x="1559" 
d="M1390 2285l-321 -379h-313l240 379h394zM1005 0l-34 206h-488l-97 -206h-474l759 1465q-19 49 -19 103q0 124 90 206.5t213 82.5q115 0 186.5 -72.5t71.5 -183.5q0 -86 -48 -156l290 -1445h-450zM944 1666q-39 0 -63 -29t-24 -66q0 -30 18 -49t46 -19q36 0 61.5 24.5
t25.5 64.5q0 32 -17 53t-47 21zM647 554h265l-68 415z" />
    <glyph glyph-name="aringacute" unicode="&#x1fb;" horiz-adv-x="1153" 
d="M1178 2139l-321 -379h-313l240 379h394zM692 1172q-115 0 -186.5 72t-71.5 183q0 124 90 206.5t213 82.5q115 0 186 -72.5t71 -183.5q0 -120 -89.5 -204t-212.5 -84zM726 1526q-39 0 -63 -29t-24 -66q0 -31 17.5 -49.5t45.5 -18.5q36 0 62 24.5t26 64.5q0 32 -17 53
t-47 21zM603 1120q228 0 365 -100t137 -265q0 -48 -10 -105l-115 -650h-389l18 109q-83 -140 -271 -140q-148 0 -241.5 92.5t-93.5 238.5q0 169 131.5 266.5t361.5 97.5h190l1 6q4 24 4 35q0 40 -40 62.5t-104 22.5q-116 0 -214 -75l-193 254q174 151 463 151zM473 242
q58 0 106 39.5t58 97.5l9 51h-117q-62 0 -102.5 -32t-40.5 -80q0 -35 23.5 -55.5t63.5 -20.5z" />
    <glyph glyph-name="AEacute" unicode="&#x1fc;" horiz-adv-x="2276" 
d="M2131 1946l-321 -379h-313l241 379h393zM2315 1096h-650l-31 -176h584l-64 -359h-583l-32 -182h662l-67 -379h-1093l37 206h-498l-152 -206h-524l1137 1475h1341zM1141 564l94 532l-391 -532h297z" />
    <glyph glyph-name="aeacute" unicode="&#x1fd;" horiz-adv-x="1738" 
d="M1390 1556l-321 -378h-313l240 378h394zM1682 428h-638q11 -65 49.5 -104t102.5 -39q51 0 102.5 28t85.5 74l245 -232q-93 -96 -203.5 -141t-256.5 -45q-249 0 -366 181q-65 -85 -172 -133t-241 -48q-178 0 -282.5 90.5t-104.5 237.5q0 167 122.5 262.5t337.5 95.5h178
l2 15q4 24 4 36q0 84 -131 84q-118 0 -194 -71l-189 254q82 76 188 111.5t252 35.5q226 0 330 -125q70 70 150 100.5t184 30.5q208 0 336.5 -148t128.5 -389q0 -51 -20 -161zM1054 655h258q-3 83 -35 119t-76 36q-55 0 -93.5 -44t-53.5 -111zM593 379l8 49h-111
q-51 0 -85.5 -32t-34.5 -79q0 -35 20.5 -55t55.5 -20q58 0 97.5 38.5t49.5 98.5z" />
    <glyph glyph-name="Oslashacute" unicode="&#x1fe;" horiz-adv-x="1594" 
d="M1365 1946l-321 -379h-313l241 379h393zM1640 1410l-162 -184q105 -164 105 -392q0 -181 -61 -341.5t-168 -277t-260.5 -184t-330.5 -67.5q-200 0 -352 80l-183 -204l-230 206l184 207q-103 163 -103 388q0 181 61 341.5t168 276.5t260.5 183.5t331.5 67.5q196 0 347 -77
l162 182zM881 1121q-109 0 -193 -69t-125.5 -175.5t-41.5 -228.5q0 -40 6 -74l468 523q-51 24 -114 24zM782 353q109 0 192.5 69t125 175.5t41.5 228.5q0 43 -7 78l-470 -525q57 -26 118 -26z" />
    <glyph glyph-name="oslashacute" unicode="&#x1ff;" horiz-adv-x="1259" 
d="M1141 1556l-321 -378h-313l241 378h393zM1264 1068l-137 -155q90 -131 90 -304q0 -288 -175 -464t-462 -176q-137 0 -247 49l-143 -161l-183 159l134 153q-98 132 -98 317q0 288 175 464t462 176q145 0 260 -55l138 157zM659 783q-64 0 -110.5 -42t-68 -105t-21.5 -135
q0 -20 1 -29l257 300q-25 11 -58 11zM600 312q64 0 111 42.5t68.5 105.5t21.5 135v8l-245 -285q20 -6 44 -6z" />
    <glyph glyph-name="uni0218" unicode="&#x218;" horiz-adv-x="1430" 
d="M790 935q290 -34 431 -149t141 -319q0 -236 -189.5 -370t-519.5 -134q-191 0 -367 70.5t-287 187.5l262 286q71 -80 184.5 -122.5t248.5 -42.5q102 0 162 26.5t60 72.5q0 81 -227 110q-265 33 -402 154.5t-137 312.5q0 230 174.5 362t481.5 132q183 0 351 -56.5
t286 -158.5l-237 -290q-76 62 -181 94.5t-220 32.5q-93 0 -152 -27.5t-59 -72.5q0 -76 196 -99zM489 -302l41 230h320l-42 -237q-13 -77 -66.5 -127.5t-160.5 -95.5l-69 119q60 26 95.5 51t46.5 60h-165z" />
    <glyph glyph-name="uni0219" unicode="&#x219;" horiz-adv-x="1144" 
d="M684 705q371 -39 371 -332q0 -197 -136.5 -304.5t-370.5 -107.5q-190 0 -336 46.5t-234 127.5l215 257q53 -53 143.5 -82t199.5 -29q67 0 94.5 10.5t27.5 36.5q0 14 -9 23t-46.5 19.5t-109.5 19.5q-391 52 -391 345q0 129 73.5 221t195 135t278.5 43q276 0 469 -142
l-203 -256q-111 78 -280 78q-138 0 -138 -49q0 -13 12.5 -22.5t55 -19.5t119.5 -18zM284 -302l41 230h319l-42 -237q-13 -77 -66.5 -127.5t-160.5 -95.5l-69 119q61 26 96.5 51.5t46.5 59.5h-165z" />
    <glyph glyph-name="uni021A" unicode="&#x21a;" horiz-adv-x="1315" 
d="M1458 1475l-66 -379h-422l-194 -1096h-430l194 1096h-422l66 379h1274zM348 -302l41 230h320l-42 -237q-13 -76 -67 -126.5t-161 -96.5l-68 119q60 26 95.5 51t46.5 60h-165z" />
    <glyph glyph-name="uni021B" unicode="&#x21b;" horiz-adv-x="965" 
d="M649 768l-59 -335q-5 -27 -5 -43q0 -39 21 -58t70 -19q42 0 107 17l58 -315q-123 -46 -297 -46q-185 0 -284 81.5t-99 223.5q0 41 8 92l71 402h-175l58 328h175l55 316h410l-56 -316h259l-59 -328h-258zM218 -302l41 230h320l-42 -237q-13 -76 -67 -126.5t-161 -96.5
l-68 119q60 26 95.5 51t46.5 60h-165z" />
    <glyph glyph-name="uni0237" unicode="&#x237;" horiz-adv-x="573" 
d="M-65 -386q-141 0 -263 47l103 307q56 -19 90 -19q112 0 132 121l181 1026h410l-203 -1152q-58 -330 -450 -330z" />
    <glyph glyph-name="uni0259" unicode="&#x259;" horiz-adv-x="1179" 
d="M606 1126q240 0 388.5 -143t148.5 -374q0 -288 -171.5 -464t-450.5 -176q-217 0 -350.5 149.5t-133.5 394.5q0 61 20 155h671q-15 68 -57.5 105.5t-109.5 37.5q-114 0 -193 -102l-248 232q182 185 486 185zM550 286q57 0 100.5 41.5t66.5 112.5h-287q2 -73 33 -113.5
t87 -40.5z" />
    <glyph glyph-name="h.sups" unicode="&#x2b0;" horiz-adv-x="808" 
d="M670 1493q95 0 152 -54.5t57 -145.5q0 -26 -7 -66l-81 -466h-277l74 420q4 24 4 34q0 22 -13.5 35t-37.5 13q-36 0 -62.5 -31.5t-37.5 -94.5l-65 -376h-277l169 958h277l-55 -304q69 78 180 78z" />
    <glyph glyph-name="j.sups" unicode="&#x2b2;" horiz-adv-x="452" 
d="M285 1522l34 197h281l-36 -197h-279zM124 510q-92 0 -176 31l68 207q41 -13 65 -13q68 0 81 78l117 662h276l-131 -748q-39 -217 -300 -217z" />
    <glyph glyph-name="r.sups" unicode="&#x2b3;" horiz-adv-x="600" 
d="M659 1491q49 0 100 -14l-65 -238q-38 11 -77 11q-76 0 -124.5 -52.5t-65.5 -147.5l-51 -289h-277l126 714h270l-16 -91q25 52 72 79.5t108 27.5z" />
    <glyph glyph-name="w.sups" unicode="&#x2b7;" horiz-adv-x="1195" 
d="M1051 1475h295l-312 -714h-267l-53 417l-187 -417h-272l-78 714h281l16 -347l149 347h263l35 -351z" />
    <glyph glyph-name="y.sups" unicode="&#x2b8;" horiz-adv-x="826" 
d="M676 1475h304l-410 -761q-58 -108 -134 -157t-194 -49q-91 0 -166 30l78 202q39 -12 71 -12q65 0 94 48l17 26l-162 673h286l56 -360z" />
    <glyph glyph-name="circumflex" unicode="&#x2c6;" horiz-adv-x="614" 
d="M691 1178h-302l-71 149l-122 -149h-331l292 353h367z" />
    <glyph glyph-name="caron" unicode="&#x2c7;" horiz-adv-x="614" 
d="M432 1531h331l-292 -353h-368l-166 353h302l70 -150z" />
    <glyph glyph-name="uni02C9" unicode="&#x2c9;" horiz-adv-x="667" 
d="M143 1239l42 236h626l-42 -236h-626z" />
    <glyph glyph-name="breve" unicode="&#x2d8;" horiz-adv-x="818" 
d="M410 1166q-164 0 -256 101.5t-100 263.5h254q1 -65 37 -98.5t88 -33.5q55 0 95.5 35.5t49.5 96.5h271q-38 -173 -156.5 -269t-282.5 -96z" />
    <glyph glyph-name="dotaccent" unicode="&#x2d9;" horiz-adv-x="614" 
d="M59 1178l54 297h415l-53 -297h-416z" />
    <glyph glyph-name="ring" unicode="&#x2da;" horiz-adv-x="614" 
d="M276 1172q-115 0 -186.5 72t-71.5 183q0 123 90 206t214 83q115 0 186 -72.5t71 -183.5q0 -120 -89.5 -204t-213.5 -84zM287 1363q36 0 61.5 24.5t25.5 64.5q0 32 -17 53t-47 21q-39 0 -63 -29t-24 -66q0 -30 18 -49t46 -19z" />
    <glyph glyph-name="ogonek" unicode="&#x2db;" horiz-adv-x="614" 
d="M295 -430q-137 0 -218.5 62t-81.5 165q0 50 24 94.5t66.5 78.5t92 59.5t108.5 45.5l153 -42q-77 -36 -122 -77t-45 -82q0 -49 74 -49q51 0 100 22l72 -228q-94 -49 -223 -49z" />
    <glyph glyph-name="tilde" unicode="&#x2dc;" horiz-adv-x="995" 
d="M198 1180l-180 222q110 99 182.5 130.5t144.5 31.5q43 0 80 -9t55.5 -18t46.5 -25q57 -31 93 -31q69 0 151 87l179 -222q-110 -99 -182.5 -130.5t-143.5 -31.5q-96 0 -183 51q-58 32 -92 32q-69 0 -151 -87z" />
    <glyph glyph-name="hungarumlaut" unicode="&#x2dd;" horiz-adv-x="1010" 
d="M-27 1178l241 378h393l-320 -378h-314zM435 1178l241 378h393l-320 -378h-314z" />
    <glyph glyph-name="l.sups" unicode="&#x2e1;" horiz-adv-x="399" 
d="M99 761l169 958h277l-169 -958h-277z" />
    <glyph glyph-name="s.sups" unicode="&#x2e2;" horiz-adv-x="720" 
d="M449 735q-250 0 -376 111l140 172q35 -34 95.5 -54t130.5 -20q75 0 75 29q0 15 -23.5 23.5t-81.5 14.5q-126 13 -190.5 71t-64.5 155q0 128 100.5 195t260.5 67q178 0 308 -89l-135 -173q-79 54 -189 54q-80 0 -80 -30q0 -29 109 -39q130 -13 191.5 -66.5t61.5 -149.5
q0 -130 -89 -200.5t-243 -70.5z" />
    <glyph glyph-name="x.sups" unicode="&#x2e3;" horiz-adv-x="787" 
d="M902 1475l-259 -348l162 -366h-274l-61 155l-99 -155h-306l273 377l-154 337h273l54 -155l93 155h298z" />
    <glyph glyph-name="gravecomb" unicode="&#x300;" horiz-adv-x="0" 
d="M-471 1178l-322 378h385l242 -378h-305z" />
    <glyph glyph-name="acutecomb" unicode="&#x301;" horiz-adv-x="0" 
d="M-797 1178l241 378h393l-320 -378h-314z" />
    <glyph glyph-name="uni0302" unicode="&#x302;" horiz-adv-x="0" 
d="M-100 1178h-302l-71 149l-123 -149h-331l292 353h368z" />
    <glyph glyph-name="tildecomb" unicode="&#x303;" horiz-adv-x="0" 
d="M-765 1180l-179 222q110 99 182.5 130.5t144.5 31.5q43 0 80 -9t55.5 -18t46.5 -25q57 -31 92 -31q70 0 152 87l179 -222q-110 -99 -182.5 -130.5t-144.5 -31.5q-43 0 -80 8.5t-56 17.5t-46 25q-58 32 -92 32q-70 0 -152 -87z" />
    <glyph glyph-name="uni0304" unicode="&#x304;" horiz-adv-x="0" 
d="M-815 1239l42 236h626l-42 -236h-626z" />
    <glyph glyph-name="uni0306" unicode="&#x306;" horiz-adv-x="0" 
d="M-493 1166q-164 0 -255.5 101.5t-99.5 263.5h254q1 -65 37 -98.5t88 -33.5q55 0 95 35.5t49 96.5h272q-38 -173 -157 -269t-283 -96z" />
    <glyph glyph-name="uni0307" unicode="&#x307;" horiz-adv-x="0" 
d="M-721 1178l53 297h416l-53 -297h-416z" />
    <glyph glyph-name="uni0308" unicode="&#x308;" horiz-adv-x="0" 
d="M-905 1178l53 297h346l-53 -297h-346zM-467 1178l53 297h346l-53 -297h-346z" />
    <glyph glyph-name="uni030A" unicode="&#x30a;" horiz-adv-x="0" 
d="M-487 1172q-115 0 -186.5 72t-71.5 183q0 124 90 206.5t213 82.5q115 0 186 -72.5t71 -183.5q0 -120 -89.5 -204t-212.5 -84zM-477 1363q36 0 61.5 24.5t25.5 64.5q0 32 -17 53t-47 21q-39 0 -63 -29t-24 -66q0 -30 18 -49t46 -19z" />
    <glyph glyph-name="uni030B" unicode="&#x30b;" horiz-adv-x="0" 
d="M-1027 1178l241 378h393l-321 -378h-313zM-565 1178l240 378h394l-321 -378h-313z" />
    <glyph glyph-name="uni030C" unicode="&#x30c;" horiz-adv-x="0" 
d="M-369 1531h331l-292 -353h-367l-167 353h302l70 -150z" />
    <glyph glyph-name="uni0312" unicode="&#x312;" horiz-adv-x="0" 
d="M-473 1428h165l-41 -230h-320l42 238q13 76 67 126.5t161 96.5l68 -120q-60 -26 -95.5 -51t-46.5 -60z" />
    <glyph glyph-name="uni0313" unicode="&#x313;" horiz-adv-x="0" 
d="M-317 1475h430l-76 -431q-25 -142 -84 -229t-211 -192l-127 167q170 101 202 265h-209z" />
    <glyph glyph-name="dotbelowcomb" unicode="&#x323;" horiz-adv-x="0" 
d="M-993 -367l53 297h416l-54 -297h-415z" />
    <glyph glyph-name="uni0324" unicode="&#x324;" horiz-adv-x="0" 
d="M-1179 -368l54 297h346l-54 -297h-346zM-740 -368l53 297h346l-53 -297h-346z" />
    <glyph glyph-name="uni0325" unicode="&#x325;" horiz-adv-x="0" 
d="M-803 -615q-115 0 -186.5 72t-71.5 183q0 123 89.5 205.5t213.5 82.5q115 0 186 -72.5t71 -183.5q0 -120 -89 -203.5t-213 -83.5zM-793 -425q36 0 61.5 24.5t25.5 64.5q0 32 -16.5 53t-46.5 21q-39 0 -63 -29t-24 -66q0 -31 17.5 -49.5t45.5 -18.5z" />
    <glyph glyph-name="uni0326" unicode="&#x326;" horiz-adv-x="0" 
d="M-501 -72h320l-42 -237q-13 -76 -67 -126.5t-161 -96.5l-68 119q60 26 95.5 51t46.5 60h-165z" />
    <glyph glyph-name="uni0327" unicode="&#x327;" horiz-adv-x="0" 
d="M-1325 -379l180 399h332l-180 -399h-332z" />
    <glyph glyph-name="uni0328" unicode="&#x328;" horiz-adv-x="0" 
d="M-732 -430q-137 0 -218.5 62t-81.5 165q0 50 24 94.5t66.5 78.5t92 59.5t108.5 45.5l153 -42q-77 -36 -122 -77t-45 -82q0 -49 74 -49q51 0 100 22l72 -228q-95 -49 -223 -49z" />
    <glyph glyph-name="uni032E" unicode="&#x32e;" horiz-adv-x="0" 
d="M-775 -435q-164 0 -255.5 101t-99.5 263h253q1 -65 37 -98.5t88 -33.5q55 0 95.5 35.5t49.5 96.5h271q-38 -173 -156.5 -268.5t-282.5 -95.5z" />
    <glyph glyph-name="uni0331" unicode="&#x331;" horiz-adv-x="0" 
d="M-1087 -306l41 235h626l-42 -235h-625z" />
    <glyph glyph-name="uni0394" unicode="&#x394;" horiz-adv-x="1482" 
d="M1156 1475l221 -1132l-60 -343h-1344l61 343l631 1132h491zM520 384h419l-102 604z" />
    <glyph glyph-name="uni03A9" unicode="&#x3a9;" horiz-adv-x="1628" 
d="M-66 0l68 384h239q-68 65 -107 158.5t-39 200.5q0 161 61.5 303.5t168 244t256.5 160.5t322 59q199 0 355.5 -79t243.5 -221.5t87 -324.5q0 -159 -60.5 -287t-172.5 -214h213l-68 -384h-693l63 358q123 69 196.5 198t73.5 279q0 127 -70 205t-185 78
q-155 0 -257.5 -122.5t-102.5 -312.5q0 -110 41.5 -195.5t112.5 -121.5l-65 -366h-681z" />
    <glyph glyph-name="uni03BC" unicode="&#x3bc;" horiz-adv-x="1216" 
d="M821 1096h410l-194 -1096h-399l19 110q-104 -130 -267 -138l-65 -371h-410l264 1495h410l-115 -650q-4 -25 -4 -54q0 -37 22 -58.5t60 -21.5q60 0 105 53t61 145z" />
    <glyph glyph-name="pi" unicode="&#x3c0;" horiz-adv-x="1449" 
d="M1241 768l-67 -388q-4 -24 -4 -28q0 -19 10 -29t38 -10q44 0 76 15l35 -318q-110 -30 -240 -30q-158 0 -250.5 64.5t-92.5 200.5q0 35 8 81l77 442h-148l-135 -768h-410l135 768h-208l57 328h1390l-57 -328h-214z" />
    <glyph glyph-name="uni0E3F" unicode="&#xe3f;" horiz-adv-x="1417" 
d="M1165 714q84 -36 128 -103t44 -153q0 -202 -145.5 -328t-377.5 -130l-34 -189h-354l34 189h-428l251 1423h427l33 190h355l-35 -197q159 -24 254 -114.5t95 -218.5q0 -129 -64 -222t-183 -147zM858 867q52 0 88 32.5t36 79.5q0 34 -22 55t-59 21h-261l-33 -188h251z
M771 368q59 0 97.5 33t38.5 85q0 74 -84 74h-270l-34 -192h252z" />
    <glyph glyph-name="a.sups" unicode="&#x1d43;" horiz-adv-x="769" 
d="M496 1490q151 0 242.5 -66t91.5 -173q0 -35 -6 -68l-74 -422h-255l12 70q-57 -91 -178 -91q-99 0 -161 60.5t-62 155.5q0 110 85 173.5t233 63.5h124q3 15 3 22q0 24 -24 38.5t-61 14.5q-72 0 -135 -46l-129 171q118 97 294 97zM418 923q34 0 63 24.5t35 59.5l5 30h-75
q-35 0 -58 -18.5t-23 -47.5q0 -22 14 -35t39 -13z" />
    <glyph glyph-name="b.sups" unicode="&#x1d47;" horiz-adv-x="839" 
d="M645 1494q119 0 191.5 -84t72.5 -235q0 -190 -97.5 -312.5t-244.5 -122.5q-60 0 -109 24t-77 65l-12 -68h-270l169 958h277l-50 -285q60 60 150 60zM506 972q59 0 91 55.5t32 126.5q0 52 -23 81t-63 29q-58 0 -89 -56t-31 -127q0 -52 22 -80.5t61 -28.5z" />
    <glyph glyph-name="d.sups" unicode="&#x1d48;" horiz-adv-x="838" 
d="M708 1719h276l-169 -958h-256l12 67q-64 -88 -176 -88q-119 0 -191.5 85t-72.5 236q0 190 97 311.5t245 121.5q57 0 104.5 -21.5t75.5 -58.5zM498 972q58 0 88.5 55t30.5 127q0 110 -82 110q-59 0 -91 -56t-32 -128q0 -108 86 -108z" />
    <glyph glyph-name="e.sups" unicode="&#x1d49;" horiz-adv-x="793" 
d="M857 1138q0 -41 -14 -101h-429q20 -89 107 -89q73 0 125 58l160 -152q-114 -114 -311 -114q-164 0 -263 93t-99 245q0 188 111 302t292 114q143 0 232 -98t89 -258zM521 1289q-37 0 -64.5 -25.5t-39.5 -74.5h176q-1 100 -72 100z" />
    <glyph glyph-name="g.sups" unicode="&#x1d4d;" horiz-adv-x="839" 
d="M666 1475h276l-119 -674q-25 -138 -134 -215.5t-279 -77.5q-190 0 -308 96l131 189q89 -67 178 -67q61 0 96 28t43 75l3 16q-58 -53 -152 -53q-118 0 -191 85.5t-73 228.5q0 169 94.5 278.5t239.5 109.5q123 0 184 -79zM506 1019q52 0 82 43.5t30 100.5q0 48 -26 76
t-64 28q-51 0 -81.5 -43.5t-30.5 -100.5q0 -49 25.5 -76.5t64.5 -27.5z" />
    <glyph glyph-name="k.sups" unicode="&#x1d4f;" horiz-adv-x="831" 
d="M985 1475l-309 -294l168 -420h-289l-80 227l-71 -66l-28 -161h-277l169 958h277l-76 -428l182 184h334z" />
    <glyph glyph-name="m.sups" unicode="&#x1d50;" horiz-adv-x="1200" 
d="M1075 1494q84 0 140.5 -47.5t56.5 -141.5q0 -34 -5 -59l-86 -485h-277l75 427q3 15 3 25q0 51 -45 51q-67 0 -91 -115l-69 -388h-276l76 427q3 16 3 26q0 50 -44 50q-34 0 -59 -31.5t-34 -85.5l-67 -386h-277l126 714h270l-13 -71q73 90 192 90q61 0 109.5 -26t70.5 -78
q35 44 94.5 74t126.5 30z" />
    <glyph glyph-name="o.sups" unicode="&#x1d52;" horiz-adv-x="833" 
d="M486 740q-158 0 -256 93.5t-98 244.5q0 188 114 302t302 114q158 0 256 -93.5t98 -243.5q0 -188 -114 -302.5t-302 -114.5zM501 972q53 0 87 48.5t34 124.5q0 57 -23 88t-65 31q-53 0 -87 -48.5t-34 -124.5q0 -57 23 -88t65 -31z" />
    <glyph glyph-name="p.sups" unicode="&#x1d56;" horiz-adv-x="839" 
d="M650 1494q116 0 187.5 -84.5t71.5 -234.5q0 -191 -97.5 -313t-244.5 -122q-57 0 -104.5 22t-75.5 60l-52 -294h-277l167 947h263l-11 -65q60 84 173 84zM506 972q59 0 91 55.5t32 126.5q0 110 -86 110q-58 0 -89 -56t-31 -127q0 -109 83 -109z" />
    <glyph glyph-name="t.sups" unicode="&#x1d57;" horiz-adv-x="680" 
d="M556 1253l-36 -202q-3 -15 -3 -29q0 -25 14 -37t46 -12t69 10l38 -215q-85 -28 -199 -28q-123 0 -188.5 54t-65.5 149q0 24 6 61l44 249h-115l39 222h114l36 206h277l-37 -206h169l-39 -222h-169z" />
    <glyph glyph-name="u.sups" unicode="&#x1d58;" horiz-adv-x="808" 
d="M635 1475h276l-126 -714h-266l13 75q-71 -94 -191 -94q-95 0 -152 54.5t-57 145.5q0 32 6 67l82 466h277l-74 -420q-4 -24 -4 -35q0 -47 48 -47q38 0 64 29.5t36 86.5z" />
    <glyph glyph-name="v.sups" unicode="&#x1d5b;" horiz-adv-x="812" 
d="M670 1475h296l-381 -714h-270l-141 714h277l46 -377z" />
    <glyph glyph-name="c.sups" unicode="&#x1d9c;" horiz-adv-x="782" 
d="M482 740q-156 0 -253 93.5t-97 244.5q0 188 114 302t302 114q107 0 190 -56.5t120 -155.5l-235 -99q-14 45 -34.5 63t-54.5 18q-58 0 -89.5 -52t-31.5 -123q0 -55 22 -86t62 -31q65 0 111 88l219 -113q-63 -107 -147 -157t-198 -50z" />
    <glyph glyph-name="f.sups" unicode="&#x1da0;" horiz-adv-x="602" 
d="M656 1541q-67 0 -81 -66h165l-39 -222h-164l-87 -492h-276l87 492h-95l39 222h95l5 28q20 111 104 174t213 63q84 0 171 -27l-62 -183q-35 11 -75 11z" />
    <glyph glyph-name="z.sups" unicode="&#x1dbb;" horiz-adv-x="668" 
d="M75 761l36 204l300 288h-255l39 222h582l-36 -204l-295 -289h269l-39 -221h-601z" />
    <glyph glyph-name="Wgrave" unicode="&#x1e80;" horiz-adv-x="2251" 
d="M1500 1567h-305l-322 379h385zM1925 1475h472l-679 -1475h-447l-88 836l-361 -836h-454l-186 1475h453l63 -871l357 871h453l64 -867z" />
    <glyph glyph-name="wgrave" unicode="&#x1e81;" horiz-adv-x="1810" 
d="M1214 1178h-305l-321 378h385zM1455 1096h438l-480 -1096h-397l-86 653l-294 -653h-405l-121 1096h416l28 -556l242 556h390l58 -560z" />
    <glyph glyph-name="Wacute" unicode="&#x1e82;" horiz-adv-x="2251" 
d="M1720 1946l-320 -379h-314l241 379h393zM1925 1475h472l-679 -1475h-447l-88 836l-361 -836h-454l-186 1475h453l63 -871l357 871h453l64 -867z" />
    <glyph glyph-name="wacute" unicode="&#x1e83;" horiz-adv-x="1810" 
d="M1442 1556l-321 -378h-313l241 378h393zM1455 1096h438l-480 -1096h-397l-86 653l-294 -653h-405l-121 1096h416l28 -556l242 556h390l58 -560z" />
    <glyph glyph-name="Wdieresis" unicode="&#x1e84;" horiz-adv-x="2251" 
d="M1310 1864l-54 -297h-346l54 297h346zM1748 1864l-53 -297h-346l53 297h346zM1925 1475h472l-679 -1475h-447l-88 836l-361 -836h-454l-186 1475h453l63 -871l357 871h453l64 -867z" />
    <glyph glyph-name="wdieresis" unicode="&#x1e85;" horiz-adv-x="1810" 
d="M1030 1475l-53 -297h-346l53 297h346zM1468 1475l-53 -297h-346l53 297h346zM1455 1096h438l-480 -1096h-397l-86 653l-294 -653h-405l-121 1096h416l28 -556l242 556h390l58 -560z" />
    <glyph glyph-name="uni1E9E" unicode="&#x1e9e;" horiz-adv-x="1459" 
d="M1498 1475l-57 -323l-308 -267q44 -14 87 -44t84 -76.5t66 -117t25 -153.5q0 -229 -161 -372.5t-408 -143.5q-147 0 -296 34l101 343q93 -21 160 -21q92 0 136 46t44 123q0 44 -20.5 70.5t-60.5 26.5q-46 0 -95 -33l-170 278l297 251h-146q-171 0 -206 -193l-159 -903
h-430l175 988q42 239 195.5 363t409.5 124h737z" />
    <glyph glyph-name="Ygrave" unicode="&#x1ef2;" horiz-adv-x="1393" 
d="M1065 1567h-305l-322 379h385zM1078 1475h474l-633 -898l-102 -577h-430l101 577l-319 898h431l151 -511z" />
    <glyph glyph-name="ygrave" unicode="&#x1ef3;" horiz-adv-x="1242" 
d="M911 1178h-305l-321 378h385zM880 1096h450l-634 -1176q-88 -162 -201.5 -235.5t-289.5 -73.5q-135 0 -249 44l116 302q62 -18 109 -18q99 0 144 74l29 48l-250 1035h424l93 -574z" />
    <glyph glyph-name="uni2007" unicode="&#x2007;" horiz-adv-x="614" 
 />
    <glyph glyph-name="thinspace" unicode="&#x2009;" horiz-adv-x="204" 
 />
    <glyph glyph-name="uni2011" unicode="&#x2011;" horiz-adv-x="798" 
d="M51 429l58 328h655l-57 -328h-656z" />
    <glyph glyph-name="endash" unicode="&#x2013;" horiz-adv-x="1157" 
d="M51 429l58 328h1013l-57 -328h-1014z" />
    <glyph glyph-name="emdash" unicode="&#x2014;" horiz-adv-x="2007" 
d="M51 429l58 328h1863l-57 -328h-1864z" />
    <glyph glyph-name="quoteleft" unicode="&#x2018;" horiz-adv-x="574" 
d="M386 1072h209l-75 -420h-430l76 430q25 142 84 229.5t211 192.5l127 -167q-170 -101 -202 -265z" />
    <glyph glyph-name="quoteright" unicode="&#x2019;" horiz-adv-x="573" 
d="M236 1475h430l-76 -431q-25 -142 -84 -229t-211 -192l-127 167q170 101 202 265h-209z" />
    <glyph glyph-name="quotesinglbase" unicode="&#x201a;" horiz-adv-x="574" 
d="M50 420h430l-76 -430q-25 -142 -84 -230t-210 -192l-127 167q95 56 140.5 122t60.5 143h-209z" />
    <glyph glyph-name="quotedblleft" unicode="&#x201c;" horiz-adv-x="1099" 
d="M388 1082h209l-75 -419h-430l76 430q25 142 84 229t211 192l127 -166q-170 -101 -202 -266zM913 1082h209l-74 -419h-431l76 430q25 142 84 229t211 192l127 -166q-170 -101 -202 -266z" />
    <glyph glyph-name="quotedblright" unicode="&#x201d;" horiz-adv-x="1098" 
d="M161 1055l75 420h430l-76 -431q-25 -142 -84 -229t-211 -192l-127 167q170 101 202 265h-209zM761 1475h430l-76 -431q-25 -142 -84 -229t-211 -192l-127 167q170 101 202 265h-209z" />
    <glyph glyph-name="quotedblbase" unicode="&#x201e;" horiz-adv-x="1099" 
d="M-25 0l75 420h430l-76 -430q-25 -142 -84 -230t-210 -192l-127 167q95 56 140.5 122t60.5 143h-209zM575 420h431l-76 -430q-25 -142 -84 -229.5t-211 -192.5l-127 167q170 101 202 265h-209z" />
    <glyph glyph-name="dagger" unicode="&#x2020;" horiz-adv-x="809" 
d="M892 1247l-43 -246h-218l-100 -565h-290l99 565h-219l43 246h220l40 228h291l-40 -228h217z" />
    <glyph glyph-name="daggerdbl" unicode="&#x2021;" horiz-adv-x="811" 
d="M853 1022h-217l-24 -133h217l-43 -246h-217l-37 -207h-290l37 207h-221l43 246h221l23 133h-220l44 246h219l37 207h291l-37 -207h218z" />
    <glyph glyph-name="bullet" unicode="&#x2022;" horiz-adv-x="820" 
d="M424 330q-121 0 -207.5 86.5t-86.5 207.5q0 122 86.5 207t207.5 85q122 0 207.5 -85t85.5 -207q0 -121 -85.5 -207.5t-207.5 -86.5z" />
    <glyph glyph-name="ellipsis" unicode="&#x2026;" horiz-adv-x="1679" 
d="M-25 0l74 420h430l-73 -420h-431zM528 0l74 420h430l-74 -420h-430zM1081 0l74 420h430l-74 -420h-430z" />
    <glyph glyph-name="perthousand" unicode="&#x2030;" horiz-adv-x="2996" 
d="M551 641q-162 0 -266.5 105t-104.5 267q0 193 122 314t315 121q162 0 266.5 -105t104.5 -267q0 -193 -121.5 -314t-315.5 -121zM383 0l1071 1423h330l-1071 -1423h-330zM571 907q51 0 84.5 46.5t33.5 115.5q0 51 -25.5 82t-66.5 31q-51 0 -84.5 -46.5t-33.5 -115.5
q0 -53 24.5 -83t67.5 -30zM1551 -25q-162 0 -266 105t-104 267q0 193 122 314t315 121q162 0 266.5 -105t104.5 -266q0 -193 -122 -314.5t-316 -121.5zM2436 -25q-162 0 -266.5 105t-104.5 267q0 193 122.5 314t315.5 121q162 0 266 -104.5t104 -266.5q0 -193 -121.5 -314.5
t-315.5 -121.5zM1572 242q51 0 84.5 46t33.5 115q0 51 -26 82t-67 31q-51 0 -84 -46.5t-33 -115.5q0 -53 24.5 -82.5t67.5 -29.5zM2457 242q51 0 84 45.5t33 115.5q0 51 -25.5 82t-66.5 31q-51 0 -84.5 -46.5t-33.5 -115.5q0 -53 25 -82.5t68 -29.5z" />
    <glyph glyph-name="minute" unicode="&#x2032;" horiz-adv-x="602" 
d="M132 891l205 584h357l-249 -584h-313z" />
    <glyph glyph-name="second" unicode="&#x2033;" horiz-adv-x="1045" 
d="M132 891l205 584h357l-249 -584h-313zM575 891l205 584h358l-249 -584h-314z" />
    <glyph glyph-name="uni2034" unicode="&#x2034;" horiz-adv-x="1488" 
d="M132 891l205 584h357l-249 -584h-313zM575 891l205 584h358l-249 -584h-314zM1019 891l205 584h357l-249 -584h-313z" />
    <glyph glyph-name="guilsinglleft" unicode="&#x2039;" horiz-adv-x="780" 
d="M382 102l-306 471l435 471l234 -210l-258 -285l166 -256z" />
    <glyph glyph-name="guilsinglright" unicode="&#x203a;" horiz-adv-x="781" 
d="M408 1044l306 -471l-435 -471l-235 211l258 285l-166 256z" />
    <glyph glyph-name="fraction" unicode="&#x2044;" horiz-adv-x="515" 
d="M-438 0l1122 1475h337l-1122 -1475h-337z" />
    <glyph glyph-name="zero.sups" unicode="&#x2070;" horiz-adv-x="905" 
d="M527 736q-174 0 -272 107t-98 297q0 95 18.5 179.5t56 156t91.5 123.5t128.5 81t163.5 29q174 0 272.5 -106.5t98.5 -296.5q0 -160 -50.5 -287t-156.5 -205t-252 -78zM542 986q40 0 71.5 30t49.5 77.5t27.5 99.5t9.5 103q0 78 -26 120.5t-73 42.5q-52 0 -90 -52.5
t-53.5 -120.5t-15.5 -138q0 -78 26.5 -120t73.5 -42z" />
    <glyph glyph-name="i.sups" unicode="&#x2071;" horiz-adv-x="399" 
d="M232 1522l34 197h281l-35 -197h-280zM99 761l126 714h277l-126 -714h-277z" />
    <glyph glyph-name="four.sups" unicode="&#x2074;" horiz-adv-x="822" 
d="M913 1171l-41 -235h-110l-31 -175h-282l30 175h-384l40 228l450 522h309l-90 -515h109zM402 1171h118l33 184z" />
    <glyph glyph-name="five.sups" unicode="&#x2075;" horiz-adv-x="822" 
d="M600 1394q115 0 192 -84t77 -210q0 -165 -116 -264.5t-298 -99.5q-141 0 -229.5 63t-115.5 152l245 116q12 -42 42.5 -64t69.5 -22q53 0 84.5 34.5t31.5 77.5q0 35 -26 56.5t-62 21.5q-62 0 -100 -61h-249l149 574h610l-41 -233h-377l-23 -89q71 32 136 32z" />
    <glyph glyph-name="six.sups" unicode="&#x2076;" horiz-adv-x="856" 
d="M613 1361q130 0 214 -78.5t84 -197.5q0 -158 -110.5 -253.5t-276.5 -95.5q-97 0 -174.5 38t-124.5 105q-70 99 -70 263q0 59 12 133q33 194 156.5 314t310.5 120q222 0 335 -178l-211 -141q-51 78 -136 78q-60 0 -106 -38t-65 -111q72 42 162 42zM526 964q50 0 81.5 30.5
t31.5 74.5q0 39 -25.5 62.5t-66.5 23.5q-50 0 -80.5 -30t-30.5 -75q0 -39 25 -62.5t65 -23.5z" />
    <glyph glyph-name="seven.sups" unicode="&#x2077;" horiz-adv-x="739" 
d="M225 1686h701l-41 -230q-153 -144 -261 -333t-114 -362h-300q20 197 124 384t254 305h-405z" />
    <glyph glyph-name="eight.sups" unicode="&#x2078;" horiz-adv-x="839" 
d="M748 1234q63 -24 99 -75t36 -121q0 -137 -103 -219.5t-282 -82.5q-163 0 -269 72t-106 191q0 182 186 253q-104 61 -104 178q0 125 102 202t268 77q148 0 240.5 -78.5t92.5 -180.5q0 -72 -44.5 -130t-115.5 -86zM551 1324q43 0 69.5 25t26.5 65q0 35 -23.5 56.5
t-62.5 21.5q-43 0 -70.5 -25t-27.5 -65q0 -36 24.5 -57t63.5 -21zM497 955q50 0 80 26.5t30 68.5q0 37 -26.5 59.5t-70.5 22.5q-51 0 -82.5 -26.5t-31.5 -68.5q0 -38 27.5 -60t73.5 -22z" />
    <glyph glyph-name="nine.sups" unicode="&#x2079;" horiz-adv-x="858" 
d="M870 1565q71 -100 71 -263q0 -59 -12 -133q-36 -205 -155.5 -319.5t-290.5 -114.5q-213 0 -342 175l195 151q68 -86 148 -86q58 0 101 40.5t60 117.5q-68 -40 -158 -40q-130 0 -216.5 77t-86.5 196q0 157 110 249.5t277 92.5q97 0 174 -37.5t125 -105.5zM548 1298
q50 0 79.5 27.5t29.5 72.5q0 38 -25 60t-66 22q-50 0 -79 -28t-29 -73q0 -38 24.5 -59.5t65.5 -21.5z" />
    <glyph glyph-name="n.sups" unicode="&#x207f;" horiz-adv-x="808" 
d="M670 1493q95 0 152 -54.5t57 -145.5q0 -26 -7 -66l-81 -466h-277l74 420q4 24 4 34q0 48 -49 48q-80 0 -102 -126l-65 -376h-277l126 714h267l-14 -75q70 93 192 93z" />
    <glyph glyph-name="zero.subs" unicode="&#x2080;" horiz-adv-x="905" 
d="M352 -258q-174 0 -272 106.5t-98 296.5q0 160 50.5 287t156 205t251.5 78q174 0 272.5 -107t98.5 -297q0 -119 -29.5 -221.5t-86 -180.5t-145 -122.5t-198.5 -44.5zM367 -8q40 0 71.5 30t49.5 77.5t27.5 99.5t9.5 103q0 78 -26 120.5t-73 42.5q-52 0 -90 -52.5
t-53.5 -120.5t-15.5 -138q0 -78 26.5 -120t73.5 -42z" />
    <glyph glyph-name="one.subs" unicode="&#x2081;" horiz-adv-x="701" 
d="M644 691l-163 -924h-282l103 583l-170 -132l-137 171l388 302h261z" />
    <glyph glyph-name="two.subs" unicode="&#x2082;" horiz-adv-x="846" 
d="M527 104l-120 -102h304l-41 -235h-704l39 220l329 281q70 60 93.5 89t23.5 64q0 50 -57 50q-83 0 -134 -131l-248 84q67 152 165.5 222t241.5 70q144 0 229.5 -75t85.5 -207q0 -91 -49.5 -164t-157.5 -166z" />
    <glyph glyph-name="three.subs" unicode="&#x2083;" horiz-adv-x="826" 
d="M595 223q99 -59 99 -174q0 -141 -108 -224t-273 -83q-140 0 -241 72t-132 192l250 85q27 -107 127 -107q45 0 70 20.5t25 51.5q0 28 -17 45.5t-51 17.5h-107l35 205h73q49 0 75 26t26 64q0 60 -69 60q-90 0 -128 -107l-239 77q48 136 151 203.5t248 67.5q146 0 236 -75.5
t90 -199.5q0 -153 -140 -217z" />
    <glyph glyph-name="four.subs" unicode="&#x2084;" horiz-adv-x="822" 
d="M738 177l-41 -235h-110l-31 -175h-283l31 175h-384l40 228l450 521h309l-90 -514h109zM227 177h118l33 183z" />
    <glyph glyph-name="five.subs" unicode="&#x2085;" horiz-adv-x="822" 
d="M425 399q115 0 192 -84t77 -210q0 -165 -116 -264t-298 -99q-141 0 -230 63t-116 152l246 116q12 -42 42.5 -64t69.5 -22q53 0 84.5 34t31.5 77q0 35 -26.5 57t-62.5 22q-61 0 -99 -61h-249l149 574h610l-41 -233h-377l-23 -89q69 31 136 31z" />
    <glyph glyph-name="six.subs" unicode="&#x2086;" horiz-adv-x="856" 
d="M438 367q130 0 214 -78.5t84 -197.5q0 -158 -110.5 -253.5t-276.5 -95.5q-97 0 -174.5 37.5t-124.5 104.5q-70 99 -70 263q0 60 12 134q33 194 156.5 314t310.5 120q222 0 335 -178l-211 -142q-52 79 -137 79q-60 0 -106 -38t-65 -111q72 42 163 42zM351 -31
q50 0 81.5 30.5t31.5 75.5q0 39 -25.5 62.5t-66.5 23.5q-50 0 -80.5 -30.5t-30.5 -75.5q0 -39 25 -62.5t65 -23.5z" />
    <glyph glyph-name="seven.subs" unicode="&#x2087;" horiz-adv-x="739" 
d="M50 691h701l-41 -229q-153 -144 -261 -333t-114 -362h-300q20 197 124 384t254 305h-405z" />
    <glyph glyph-name="eight.subs" unicode="&#x2088;" horiz-adv-x="840" 
d="M572 240q63 -24 99.5 -75t36.5 -121q0 -137 -103 -219.5t-282 -82.5q-163 0 -269 72t-106 191q0 182 186 253q-104 61 -104 177q0 125 102 202.5t268 77.5q148 0 240.5 -78.5t92.5 -180.5q0 -72 -45 -130t-116 -86zM376 330q43 0 69.5 25t26.5 65q0 35 -23.5 56.5
t-62.5 21.5q-43 0 -70.5 -25t-27.5 -65q0 -36 24.5 -57t63.5 -21zM322 -39q50 0 80 26t30 68q0 37 -26.5 59.5t-70.5 22.5q-51 0 -82.5 -26.5t-31.5 -67.5q0 -38 27.5 -60t73.5 -22z" />
    <glyph glyph-name="nine.subs" unicode="&#x2089;" horiz-adv-x="857" 
d="M694 570q71 -100 71 -263q0 -58 -12 -132q-36 -205 -155.5 -319.5t-290.5 -114.5q-213 0 -342 175l195 151q68 -86 148 -86q58 0 101 40t60 117q-68 -40 -158 -40q-130 0 -216.5 77.5t-86.5 196.5q0 157 110 249.5t277 92.5q97 0 174 -38t125 -106zM372 304q50 0 79.5 27
t29.5 72q0 38 -25 60t-66 22q-50 0 -79 -27.5t-29 -72.5q0 -38 24.5 -59.5t65.5 -21.5z" />
    <glyph glyph-name="n.subs" unicode="&#x2099;" horiz-adv-x="808" 
d="M536 732q95 0 151.5 -54.5t56.5 -145.5q0 -32 -6 -66l-82 -466h-276l74 420q4 24 4 35q0 47 -49 47q-80 0 -102 -126l-65 -376h-277l126 714h266l-13 -75q70 93 192 93z" />
    <glyph glyph-name="uni20A9" unicode="&#x20a9;" horiz-adv-x="2115" 
d="M2175 1000h-147l-31 -71h166l-42 -236h-227l-299 -693h-465l-34 703h-20l-271 -703h-476l-59 693h-226l42 236h165l-6 71h-147l41 236h85l-15 187h442l6 -197h249l68 197h423l8 -197h286l75 197h444l-81 -187h89zM833 1011h-169l2 -92h135zM1609 1011h-196l4 -92h157z
M677 555l51 148h-55zM1491 703h-66l7 -155z" />
    <glyph glyph-name="Euro" unicode="&#x20ac;" horiz-adv-x="1443" 
d="M806 324q86 0 147.5 40.5t125.5 118.5l281 -236q-132 -145 -270 -213.5t-310 -68.5q-242 0 -395 127t-196 358h-171l42 235h115q0 9 1.5 28t2.5 29h-108l41 236h118q77 220 247 350t416 130q183 0 327 -75t223 -209l-328 -212q-61 138 -219 138q-141 0 -216 -122h319
l-42 -236h-350q-2 -19 -4 -57h344l-41 -235h-281q44 -126 181 -126z" />
    <glyph glyph-name="uni20B8" unicode="&#x20b8;" horiz-adv-x="1315" 
d="M184 1475h1274l-59 -334h-1274zM1383 1051l-66 -379h-422l-119 -672h-430l119 672h-422l67 379h1273z" />
    <glyph glyph-name="uni20B9" unicode="&#x20b9;" horiz-adv-x="1166" 
d="M1248 1188h-295q40 -64 53 -137h218l-41 -236h-189q-41 -146 -159 -242t-295 -123l314 -450h-462l-308 442l52 297h228q118 0 186 76h-400l41 236h387q-42 75 -144 75h-229l52 297h1033z" />
    <glyph glyph-name="uni20BA" unicode="&#x20ba;" horiz-adv-x="1343" 
d="M966 626l334 -121q-101 -249 -286 -377t-444 -128h-451l82 463l-169 -54l40 225l168 54l12 68l-169 -55l40 226l169 54l78 442h420l-57 -319l305 98l-40 -225l-305 -98l-11 -68l305 98l-40 -225l-305 -98l-41 -234q261 0 365 274z" />
    <glyph glyph-name="uni20BC" unicode="&#x20bc;" horiz-adv-x="1773" 
d="M1180 1226q232 -54 361.5 -215.5t129.5 -396.5q0 -72 -14 -150l-82 -464h-420l78 441q12 69 12 127q0 199 -133 274l-126 -712h-344l126 716q-105 -50 -173 -161t-96 -272l-73 -413h-420l87 493q60 335 249.5 527.5t496.5 223.5l31 179h344z" />
    <glyph glyph-name="uni2113" unicode="&#x2113;" horiz-adv-x="1131" 
d="M698 324q104 0 227 57l90 -323q-92 -42 -205 -65.5t-210 -23.5q-198 0 -301.5 90t-103.5 257v6q-66 -26 -100 -39l-86 262q134 51 233 94l70 400q36 202 163.5 311t308.5 109q168 0 271.5 -98.5t103.5 -254.5q0 -98 -38 -184.5t-111.5 -160t-165.5 -134.5t-216 -122
l-12 -65q-8 -45 -8 -63q0 -28 20 -40.5t70 -12.5zM717 1012l-23 -127q124 95 124 174q0 46 -37 46q-26 0 -41 -22.5t-23 -70.5z" />
    <glyph glyph-name="uni2117" unicode="&#x2117;" horiz-adv-x="2008" 
d="M1101 1637q235 0 430.5 -106.5t308.5 -293t113 -413.5q0 -203 -74 -385t-203 -314.5t-311.5 -210t-390.5 -77.5q-235 0 -430.5 106.5t-308.5 293t-113 413.5q0 203 74 385t203 314.5t311.5 210t390.5 77.5zM972 82q157 0 290.5 60t223.5 163t140.5 241t50.5 293
q0 159 -77.5 286.5t-208.5 197.5t-288 70t-291 -60t-224 -163t-140.5 -241t-50.5 -293q0 -159 77.5 -286.5t209 -197.5t288.5 -70zM1184 1185q138 0 221 -76.5t83 -205.5q0 -156 -106.5 -245.5t-286.5 -89.5h-155l-47 -264h-277l156 881h412zM1113 810q36 0 61 21t25 52
q0 25 -16.5 39t-46.5 14h-131l-23 -126h131z" />
    <glyph glyph-name="uni2120" unicode="&#x2120;" horiz-adv-x="1689" 
d="M515 1300q-79 0 -79 -31q0 -35 99 -52q80 -14 132.5 -37.5t77 -55t33 -61t8.5 -69.5q0 -115 -88.5 -185t-244.5 -70q-99 0 -174 29.5t-142 93.5l146 152q82 -75 186 -75q34 0 58 10t24 27q0 14 -23 26t-90 25q-72 15 -121 40.5t-73 59t-33.5 65t-9.5 68.5q0 107 82.5 174
t235.5 67q97 0 165.5 -28.5t139.5 -93.5l-135 -146q-78 67 -174 67zM1782 1475l-125 -708h-225l57 324l-157 -324h-181l-41 332l-58 -332h-226l125 708h297l46 -394l184 394h304z" />
    <glyph glyph-name="trademark" unicode="&#x2122;" horiz-adv-x="1637" 
d="M798 1269h-196l-89 -502h-225l89 502h-198l36 206h619zM1730 1475l-125 -708h-226l58 324l-157 -324h-181l-41 332l-59 -332h-225l125 708h297l46 -394l183 394h305z" />
    <glyph glyph-name="uni2126" unicode="&#x2126;" horiz-adv-x="1628" 
d="M-66 0l68 384h239q-68 65 -107 158.5t-39 200.5q0 161 61.5 303.5t168 244t256.5 160.5t322 59q199 0 355.5 -79t243.5 -221.5t87 -324.5q0 -159 -60.5 -287t-172.5 -214h213l-68 -384h-693l63 358q123 69 196.5 198t73.5 279q0 127 -70 205t-185 78
q-155 0 -257.5 -122.5t-102.5 -312.5q0 -110 41.5 -195.5t112.5 -121.5l-65 -366h-681z" />
    <glyph glyph-name="estimated" unicode="&#x212e;" horiz-adv-x="1875" 
d="M977 -17q-198 0 -341 50.5t-258 159.5q-228 216 -228 544q0 333 231 546q118 109 258.5 160t337.5 51q180 0 315.5 -45t255.5 -142q117 -94 182 -246.5t73 -344.5h-1316q-11 0 -17 -2t-10.5 -10.5t-4.5 -25.5v-370q0 -31 38.5 -75t103.5 -87.5t167.5 -74t212.5 -30.5
q150 0 289.5 67t233.5 173h155q-156 -174 -309 -236q-89 -36 -165.5 -49t-203.5 -13zM488 763h971q24 0 30.5 7.5t6.5 28.5v362q0 58 -80 124t-204 111t-238 45q-104 0 -205 -32t-167 -76t-106.5 -87t-40.5 -69v-395q0 -19 33 -19z" />
    <glyph glyph-name="uni2150" unicode="&#x2150;" horiz-adv-x="2119" 
d="M620 550h-283l103 584l-170 -133l-137 171l388 303h261zM1467 1475h337l-1122 -1475h-337zM1471 925h701l-41 -230q-153 -144 -261 -333t-114 -362h-300q20 197 124 384t254 305h-404z" />
    <glyph glyph-name="uni2151" unicode="&#x2151;" horiz-adv-x="2177" 
d="M620 550h-283l103 584l-170 -133l-137 171l388 303h261zM1467 1475h337l-1122 -1475h-337zM2055 806q71 -100 71 -263q0 -58 -12 -132q-36 -205 -155.5 -320t-290.5 -115q-212 0 -342 176l195 150q68 -86 148 -86q58 0 101 40.5t60 117.5q-68 -40 -158 -40
q-130 0 -216.5 77t-86.5 196q0 157 110 249.5t277 92.5q97 0 174 -37.5t125 -105.5zM1733 540q50 0 79.5 27t29.5 72q0 38 -25 60t-66 22q-50 0 -79.5 -27.5t-29.5 -72.5q0 -38 25 -59.5t66 -21.5z" />
    <glyph glyph-name="uni2152" unicode="&#x2152;" horiz-adv-x="2883" 
d="M620 550h-283l103 584l-170 -133l-137 171l388 303h261zM1467 1475h337l-1122 -1475h-337zM2460 949q174 0 272 -106.5t98 -296.5q0 -119 -29.5 -221.5t-85.5 -181t-144.5 -123t-198.5 -44.5q-174 0 -272.5 107t-98.5 297q0 119 29.5 221.5t86 180.5t145 122.5
t198.5 44.5zM1963 925l-163 -925h-282l103 584l-170 -132l-137 171l388 302h261zM2386 226q52 0 90 52.5t53.5 120.5t15.5 138q0 78 -26.5 120t-73.5 42q-52 0 -89.5 -52.5t-53 -120.5t-15.5 -138q0 -78 26 -120t73 -42z" />
    <glyph glyph-name="uni2153" unicode="&#x2153;" horiz-adv-x="2124" 
d="M620 550h-283l103 584l-170 -133l-137 171l388 303h261zM1467 1475h337l-1122 -1475h-337zM1935 458q100 -60 100 -174q0 -141 -108.5 -224.5t-272.5 -83.5q-140 0 -241.5 72.5t-132.5 192.5l251 85q14 -56 48 -82t79 -26t69.5 20.5t24.5 52.5q0 28 -17 45t-51 17h-107
l36 205h73q49 0 75 26t26 64q0 61 -70 61q-90 0 -128 -108l-238 78q96 270 398 270q146 0 236.5 -75.5t90.5 -198.5q0 -152 -141 -217z" />
    <glyph glyph-name="uni2154" unicode="&#x2154;" horiz-adv-x="2249" 
d="M849 785l-41 -235h-704l39 220l329 282q71 61 94 89t23 63q0 50 -57 50q-83 0 -134 -131l-247 84q67 152 165 222t241 70q144 0 229.5 -74.5t85.5 -206.5q0 -91 -49 -164.5t-157 -165.5l-121 -103h304zM1592 1475h337l-1122 -1475h-337zM2060 458q100 -60 100 -174
q0 -141 -108.5 -224.5t-272.5 -83.5q-140 0 -241.5 72.5t-132.5 192.5l251 85q14 -56 48 -82t79 -26t69.5 20.5t24.5 52.5q0 28 -17 45t-51 17h-107l36 205h72q49 0 75.5 26t26.5 64q0 61 -70 61q-90 0 -128 -108l-238 78q96 270 398 270q146 0 236.5 -75.5t90.5 -198.5
q0 -152 -141 -217z" />
    <glyph glyph-name="uni2155" unicode="&#x2155;" horiz-adv-x="2121" 
d="M620 550h-283l103 584l-170 -133l-137 171l388 303h261zM1467 1475h337l-1122 -1475h-337zM1765 634q115 0 192.5 -84t77.5 -210q0 -165 -116.5 -264.5t-298.5 -99.5q-141 0 -229.5 63t-115.5 152l246 116q12 -42 42 -64t69 -22q53 0 84.5 34.5t31.5 77.5q0 35 -26 57
t-62 22q-60 0 -99 -62h-249l148 575h611l-41 -234h-377l-24 -89q71 32 136 32z" />
    <glyph glyph-name="uni2156" unicode="&#x2156;" horiz-adv-x="2246" 
d="M849 785l-41 -235h-704l39 220l329 282q71 61 94 89t23 63q0 50 -57 50q-83 0 -134 -131l-247 84q67 152 165 222t241 70q144 0 229.5 -74.5t85.5 -206.5q0 -91 -49 -164.5t-157 -165.5l-121 -103h304zM1592 1475h337l-1122 -1475h-337zM1890 634q115 0 192.5 -84
t77.5 -210q0 -165 -116.5 -264.5t-298.5 -99.5q-141 0 -229.5 63t-115.5 152l246 116q12 -42 42 -64t69 -22q53 0 84.5 34.5t31.5 77.5q0 35 -26 57t-62 22q-60 0 -99 -62h-249l148 575h610l-41 -234h-376l-24 -89q71 32 136 32z" />
    <glyph glyph-name="uni2157" unicode="&#x2157;" horiz-adv-x="2204" 
d="M833 835q0 -141 -108.5 -224.5t-272.5 -83.5q-140 0 -241.5 72.5t-132.5 192.5l251 85q14 -56 48 -82t79 -26t69.5 20.5t24.5 52.5q0 28 -17 45t-51 17h-107l36 205h72q49 0 75.5 26t26.5 64q0 61 -70 61q-90 0 -128 -108l-239 78q48 136 150.5 203t248.5 67t236 -75.5
t90 -198.5q0 -153 -140 -217q100 -60 100 -174zM1550 1475h337l-1122 -1475h-337zM1848 634q115 0 192.5 -84t77.5 -210q0 -165 -116.5 -264.5t-298.5 -99.5q-141 0 -229.5 63t-115.5 152l246 116q12 -42 42 -64t69 -22q53 0 84.5 34.5t31.5 77.5q0 35 -26 57t-62 22
q-60 0 -99 -62h-249l148 575h610l-40 -234h-377l-24 -89q71 32 136 32z" />
    <glyph glyph-name="uni2158" unicode="&#x2158;" horiz-adv-x="2192" 
d="M694 550h-282l30 175h-384l40 228l450 522h309l-90 -514h111l-42 -236h-111zM1538 1475h337l-1122 -1475h-337zM366 961h117l33 183zM1836 634q115 0 192 -84t77 -210q0 -165 -116 -264.5t-298 -99.5q-141 0 -229.5 63t-115.5 152l245 116q12 -42 42.5 -64t69.5 -22
q53 0 84.5 34.5t31.5 77.5q0 35 -26 57t-62 22q-61 0 -100 -62h-249l149 575h610l-41 -234h-377l-23 -89q71 32 136 32z" />
    <glyph glyph-name="uni2159" unicode="&#x2159;" horiz-adv-x="2154" 
d="M620 550h-283l103 584l-170 -133l-137 171l388 303h261zM1467 1475h337l-1122 -1475h-337zM1778 601q130 0 214 -78t84 -197q0 -158 -110.5 -254t-276.5 -96q-97 0 -174.5 38t-124.5 105q-71 100 -71 263q0 59 12 133q33 194 156.5 314t310.5 120q222 0 335 -178
l-211 -141q-52 79 -136 79q-59 0 -105.5 -38.5t-65.5 -111.5q72 42 163 42zM1691 204q50 0 81 30t31 75q0 39 -25.5 62.5t-66.5 23.5q-50 0 -80 -30t-30 -75q0 -39 25 -62.5t65 -23.5z" />
    <glyph glyph-name="uni215A" unicode="&#x215a;" horiz-adv-x="2193" 
d="M833 890q0 -165 -116.5 -264.5t-298.5 -99.5q-141 0 -229.5 63t-115.5 152l245 116q12 -42 42.5 -64t69.5 -22q53 0 84.5 34.5t31.5 77.5q0 35 -26 57t-62 22q-61 0 -100 -62h-248l148 575h610l-41 -234h-376l-24 -89q71 32 136 32q115 0 192.5 -84t77.5 -210zM1506 1475
h337l-1122 -1475h-337zM1817 601q130 0 214 -78t84 -197q0 -158 -111 -254t-277 -96q-97 0 -174.5 38t-124.5 105q-70 99 -70 263q0 59 12 133q33 194 156.5 314t310.5 120q222 0 335 -178l-211 -141q-52 79 -136 79q-59 0 -105.5 -38.5t-65.5 -111.5q72 42 163 42z
M1730 204q50 0 81 30t31 75q0 39 -25.5 62.5t-66.5 23.5q-50 0 -80.5 -30t-30.5 -75q0 -39 25.5 -62.5t65.5 -23.5z" />
    <glyph glyph-name="oneeighth" unicode="&#x215b;" horiz-adv-x="2139" 
d="M620 550h-283l103 584l-170 -133l-137 171l388 303h261zM1467 1475h337l-1122 -1475h-337zM1913 474q63 -24 99 -74.5t36 -120.5q0 -137 -103 -220t-282 -83q-163 0 -269 72.5t-106 191.5q0 181 187 253q-105 62 -105 177q0 125 102 202t269 77q148 0 240.5 -78.5
t92.5 -180.5q0 -72 -45 -130t-116 -86zM1716 564q43 0 69.5 25t26.5 65q0 35 -23.5 56.5t-62.5 21.5q-43 0 -70.5 -25t-27.5 -65q0 -36 24.5 -57t63.5 -21zM1662 196q50 0 80.5 26t30.5 68q0 37 -27 59.5t-71 22.5q-51 0 -82 -26t-31 -68q0 -38 27.5 -60t72.5 -22z" />
    <glyph glyph-name="threeeighths" unicode="&#x215c;" horiz-adv-x="2222" 
d="M833 835q0 -141 -108.5 -224.5t-272.5 -83.5q-140 0 -241.5 72.5t-132.5 192.5l251 85q14 -56 48 -82t79 -26t69.5 20.5t24.5 52.5q0 28 -17 45t-51 17h-107l36 205h72q49 0 75.5 26t26.5 64q0 61 -70 61q-90 0 -128 -108l-239 78q48 136 150.5 203t248.5 67t236 -75.5
t90 -198.5q0 -153 -140 -217q100 -60 100 -174zM1550 1475h337l-1122 -1475h-337zM1996 474q63 -24 99 -74.5t36 -120.5q0 -137 -103 -220t-282 -83q-163 0 -269 72.5t-106 191.5q0 181 187 253q-105 62 -105 177q0 125 102 202t269 77q148 0 240.5 -78.5t92.5 -180.5
q0 -72 -45 -130t-116 -86zM1799 564q43 0 69.5 25t26.5 65q0 35 -23.5 56.5t-62.5 21.5q-43 0 -70.5 -25t-27.5 -65q0 -36 24.5 -57t63.5 -21zM1745 196q50 0 80 26t30 68q0 37 -26.5 59.5t-70.5 22.5q-51 0 -82 -26t-31 -68q0 -38 27.5 -60t72.5 -22z" />
    <glyph glyph-name="fiveeighths" unicode="&#x215d;" horiz-adv-x="2178" 
d="M833 890q0 -165 -116.5 -264.5t-298.5 -99.5q-141 0 -229.5 63t-115.5 152l245 116q12 -42 42.5 -64t69.5 -22q53 0 84.5 34.5t31.5 77.5q0 35 -26 57t-62 22q-61 0 -100 -62h-248l148 575h610l-41 -234h-376l-24 -89q71 32 136 32q115 0 192.5 -84t77.5 -210zM1506 1475
h337l-1122 -1475h-337zM1952 474q63 -24 99 -74.5t36 -120.5q0 -137 -103 -220t-282 -83q-163 0 -269 72.5t-106 191.5q0 182 186 253q-104 61 -104 177q0 125 102 202t269 77q148 0 240.5 -78.5t92.5 -180.5q0 -72 -45 -130t-116 -86zM1755 564q43 0 69.5 25t26.5 65
q0 35 -23.5 56.5t-62.5 21.5q-43 0 -70.5 -25t-27.5 -65q0 -36 24.5 -57t63.5 -21zM1701 196q50 0 80 26t30 68q0 37 -26.5 59.5t-70.5 22.5q-51 0 -82 -26t-31 -68q0 -38 27.5 -60t72.5 -22z" />
    <glyph glyph-name="seveneighths" unicode="&#x215e;" horiz-adv-x="2013" 
d="M173 550q20 197 124 384t254 305h-405l42 236h701l-41 -230q-153 -144 -261 -333t-114 -362h-300zM1341 1475h337l-1122 -1475h-337zM1787 474q63 -24 99 -74.5t36 -120.5q0 -137 -103 -220t-282 -83q-163 0 -269 72.5t-106 191.5q0 181 187 253q-105 62 -105 177
q0 125 102 202t269 77q148 0 240.5 -78.5t92.5 -180.5q0 -72 -45 -130t-116 -86zM1590 564q43 0 70 25t27 65q0 35 -23.5 56.5t-62.5 21.5q-44 0 -71.5 -25t-27.5 -65q0 -36 24.5 -57t63.5 -21zM1536 196q50 0 80.5 26t30.5 68q0 37 -27 59.5t-71 22.5q-51 0 -82 -26
t-31 -68q0 -38 27.5 -60t72.5 -22z" />
    <glyph glyph-name="uni215F" unicode="&#x215f;" horiz-adv-x="1298" 
d="M620 550h-283l103 584l-170 -133l-137 171l388 303h261zM1467 1475h337l-1122 -1475h-337z" />
    <glyph glyph-name="uni2189" unicode="&#x2189;" horiz-adv-x="2246" 
d="M949 1095q0 -160 -50.5 -287t-156.5 -205t-252 -78q-174 0 -272 107t-98 297q0 119 29.5 221.5t86 180.5t145 122.5t198.5 44.5q174 0 272 -106.5t98 -296.5zM1589 1475h337l-1122 -1475h-337zM406 937q0 -78 26 -120t73 -42q52 0 90 52t53.5 120t15.5 138
q0 78 -26.5 120.5t-73.5 42.5q-52 0 -89.5 -52.5t-53 -120.5t-15.5 -138zM2057 458q100 -60 100 -174q0 -141 -108.5 -224.5t-272.5 -83.5q-140 0 -241.5 72.5t-132.5 192.5l251 85q14 -56 48 -82t79 -26t69.5 20.5t24.5 52.5q0 28 -17 45t-51 17h-107l36 205h72
q49 0 75.5 26t26.5 64q0 61 -70 61q-90 0 -128 -108l-238 78q96 270 398 270q146 0 236.5 -75.5t90.5 -198.5q0 -152 -141 -217z" />
    <glyph glyph-name="arrowleft" unicode="&#x2190;" horiz-adv-x="1792" 
d="M1690 820v-348h-987l317 -309l-238 -238l-721 721l721 721l239 -239l-315 -308h984z" />
    <glyph glyph-name="arrowup" unicode="&#x2191;" horiz-adv-x="1792" 
d="M1617 739l-238 -237l-309 316v-986h-348v984l-308 -315l-239 238l721 721z" />
    <glyph glyph-name="arrowright" unicode="&#x2192;" horiz-adv-x="1792" 
d="M1010 1367l721 -721l-721 -721l-238 238l317 309h-987v348h984l-315 308z" />
    <glyph glyph-name="arrowdown" unicode="&#x2193;" horiz-adv-x="1792" 
d="M1379 791l238 -238l-721 -721l-721 721l239 239l308 -316v984h348v-986z" />
    <glyph glyph-name="arrowboth" unicode="&#x2194;" horiz-adv-x="2355" 
d="M1573 1367l721 -721l-721 -721l-238 238l317 309h-949l317 -309l-238 -238l-721 721l721 721l239 -239l-315 -308h944l-316 308z" />
    <glyph glyph-name="arrowupdn" unicode="&#x2195;" horiz-adv-x="1792" 
d="M1070 174l308 315l239 -238l-721 -721l-721 721l238 237l309 -316v948l-309 -316l-238 237l721 721l721 -721l-239 -238l-308 315v-944z" />
    <glyph glyph-name="uni2196" unicode="&#x2196;" horiz-adv-x="1792" 
d="M1492 194l-246 -246l-696 695l5 -440h-337v1019h1019v-337l-440 5z" />
    <glyph glyph-name="uni2197" unicode="&#x2197;" horiz-adv-x="1792" 
d="M473 1222h1019v-1019h-337l5 440l-696 -695l-246 246l695 696l-440 -5v337z" />
    <glyph glyph-name="uni2198" unicode="&#x2198;" horiz-adv-x="1792" 
d="M1155 1090h337v-1019h-1019v337l440 -6l-695 697l246 246l696 -696z" />
    <glyph glyph-name="uni2199" unicode="&#x2199;" horiz-adv-x="1792" 
d="M1574 1099l-695 -697l440 6v-337h-1019v1019h337l-5 -441l696 696z" />
    <glyph glyph-name="uni21B0" unicode="&#x21b0;" horiz-adv-x="1792" 
d="M1651 820v-1002h-348v654h-636l315 -308l-239 -239l-720 721l720 721l238 -238l-316 -309h986z" />
    <glyph glyph-name="uni21B1" unicode="&#x21b1;" horiz-adv-x="1792" 
d="M1010 1367l721 -721l-721 -721l-239 239l315 308h-635v-654h-349v1002h987l-317 309z" />
    <glyph glyph-name="uni21B3" unicode="&#x21b3;" horiz-adv-x="1792" 
d="M1081 1367l721 -721l-721 -721l-237 238l316 309h-986v1003h348v-655h636l-315 308z" />
    <glyph glyph-name="carriagereturn" unicode="&#x21b5;" horiz-adv-x="1792" 
d="M1341 1475h349v-1003h-987l317 -309l-238 -238l-721 721l721 721l239 -239l-315 -308h635v655z" />
    <glyph glyph-name="partialdiff" unicode="&#x2202;" horiz-adv-x="1242" 
d="M415 1514q217 -39 369.5 -112t244.5 -184.5t133.5 -253t41.5 -327.5q0 -326 -153.5 -496.5t-467.5 -170.5q-243 0 -396.5 142.5t-153.5 366.5q0 243 150.5 399t390.5 156q105 0 212 -41q-66 83 -177.5 138t-285.5 92zM605 317q83 0 132 63.5t49 146.5q0 78 -45.5 124
t-116.5 46q-83 0 -133.5 -63t-50.5 -146q0 -79 46 -125t119 -46z" />
    <glyph glyph-name="emptyset" unicode="&#x2205;" horiz-adv-x="1342" 
d="M1302 1033l-159 -159q105 -146 105 -331q0 -118 -46 -225.5t-123 -185t-184 -123t-224 -45.5q-185 0 -334 106l-159 -158l-137 138l158 158q-107 148 -107 335q0 117 46 223.5t123.5 184t184.5 123t225 45.5q187 0 334 -105l158 158zM466 543q0 -36 7 -61l272 273
q-38 16 -74 16q-84 0 -144.5 -66t-60.5 -162zM874 543q0 31 -6 57l-273 -272q38 -16 76 -16q84 0 143.5 67t59.5 164z" />
    <glyph glyph-name="uni2206" unicode="&#x2206;" horiz-adv-x="1482" 
d="M1156 1475l221 -1132l-60 -343h-1344l61 343l631 1132h491zM520 384h419l-102 604z" />
    <glyph glyph-name="product" unicode="&#x220f;" horiz-adv-x="1879" 
d="M1633 1475v-1772h-430v1393h-512v-1393h-430v1772h1372z" />
    <glyph glyph-name="summation" unicode="&#x2211;" horiz-adv-x="1556" 
d="M261 -297v317l511 579l-511 558v318h1075v-379h-496l338 -364v-266l-338 -384h522v-379h-1101z" />
    <glyph glyph-name="minus" unicode="&#x2212;" 
d="M82 429l57 328h1024l-57 -328h-1024z" />
    <glyph glyph-name="uni2215" unicode="&#x2215;" horiz-adv-x="1224" 
d="M-76 0l1123 1475h336l-1122 -1475h-337z" />
    <glyph glyph-name="uni2219" unicode="&#x2219;" 
d="M626 427q-77 0 -132 55t-55 131q0 77 55.5 132t131.5 55t131 -55t55 -132t-55 -131.5t-131 -54.5z" />
    <glyph glyph-name="radical" unicode="&#x221a;" horiz-adv-x="1382" 
d="M1090 1475h448l-644 -1772h-461l-398 996l386 126l238 -629z" />
    <glyph glyph-name="infinity" unicode="&#x221e;" horiz-adv-x="1945" 
d="M1401 1059q207 0 345.5 -139t138.5 -367t-138.5 -367t-345.5 -139q-127 0 -232 61t-200 167q-95 -106 -200 -167t-232 -61q-202 0 -338.5 139t-136.5 367t136.5 367t338.5 139q127 0 231.5 -61.5t200.5 -167.5q96 106 200.5 167.5t231.5 61.5zM567 416q43 0 86.5 35
t98.5 102q-55 67 -98.5 102t-86.5 35q-51 0 -82 -32.5t-31 -104.5t31 -104.5t82 -32.5zM1370 416q124 0 124 137t-124 137q-42 0 -85.5 -34.5t-98.5 -102.5q55 -68 98.5 -102.5t85.5 -34.5z" />
    <glyph glyph-name="integral" unicode="&#x222b;" horiz-adv-x="829" 
d="M261 -333q-142 0 -281 31l58 337q62 -13 97 -13q77 0 77 79v1047q0 81 21 145t56 104t84 66t100.5 36.5t109.5 10.5q147 0 281 -30l-58 -337q-62 13 -97 13q-77 0 -77 -80v-1046q0 -81 -21 -145t-56 -104t-84 -66.5t-100.5 -37t-109.5 -10.5z" />
    <glyph glyph-name="approxequal" unicode="&#x2248;" 
d="M286 613l-166 264q200 161 374 161q99 0 215 -56q80 -37 121 -37q83 0 195 97l166 -263q-202 -162 -374 -162q-101 0 -215 57q-78 37 -122 37q-81 0 -194 -98zM219 135l-166 263q202 162 374 162q99 0 215 -56q80 -37 122 -37q82 0 194 97l166 -263q-202 -162 -373 -162
q-101 0 -215 57q-76 36 -122 36q-83 0 -195 -97z" />
    <glyph glyph-name="notequal" unicode="&#x2260;" 
d="M1143 642h-275l-66 -121h319l-57 -327h-439l-106 -194h-441l105 194h-143l57 327h263l67 121h-308l57 328h428l106 193h441l-105 -193h154z" />
    <glyph glyph-name="lessequal" unicode="&#x2264;" 
d="M1134 377l-969 314l65 375l1080 314l-62 -349l-713 -164l656 -164zM43 0l57 328h1024l-57 -328h-1024z" />
    <glyph glyph-name="greaterequal" unicode="&#x2265;" 
d="M36 377l61 349l714 164l-656 164l57 326l969 -314l-66 -375zM-31 0l58 328h1024l-58 -328h-1024z" />
    <glyph glyph-name="uni2300" unicode="&#x2300;" horiz-adv-x="1342" 
d="M1302 1033l-159 -159q105 -146 105 -331q0 -118 -46 -225.5t-123 -185t-184 -123t-224 -45.5q-185 0 -334 106l-159 -158l-137 138l158 158q-107 148 -107 335q0 117 46 223.5t123.5 184t184.5 123t225 45.5q187 0 334 -105l158 158zM466 543q0 -36 7 -61l272 273
q-38 16 -74 16q-84 0 -144.5 -66t-60.5 -162zM874 543q0 31 -6 57l-273 -272q38 -16 76 -16q84 0 143.5 67t59.5 164z" />
    <glyph glyph-name="uni2460" unicode="&#x2460;" horiz-adv-x="2194" 
d="M1171 1686q188 0 353 -62.5t283.5 -173t187 -269t68.5 -342.5q0 -172 -49.5 -331t-143 -288.5t-219.5 -226t-287.5 -149.5t-339.5 -53q-188 0 -353 62.5t-283.5 173t-187 269t-68.5 342.5q0 172 49.5 331t143 288.5t219.5 226t287.5 149.5t339.5 53zM1034 57
q157 0 296 61.5t235 165t152 242t56 288.5q0 179 -79 317.5t-218 213t-315 74.5q-157 0 -295.5 -61.5t-235 -164.5t-152 -241.5t-55.5 -288.5q0 -179 78.5 -317.5t217.5 -213.5t315 -75zM1351 1211l-163 -924h-283l104 583l-170 -132l-138 171l389 302h261z" />
    <glyph glyph-name="uni2461" unicode="&#x2461;" horiz-adv-x="2194" 
d="M1171 1686q188 0 353 -62.5t283.5 -173t187 -269t68.5 -342.5q0 -172 -49.5 -331t-143 -288.5t-219.5 -226t-287.5 -149.5t-339.5 -53q-188 0 -353 62.5t-283.5 173t-187 269t-68.5 342.5q0 172 49.5 331t143 288.5t219.5 226t287.5 149.5t339.5 53zM1034 57
q157 0 296 61.5t235 165t152 242t56 288.5q0 179 -79 317.5t-218 213t-315 74.5q-157 0 -295.5 -61.5t-235 -164.5t-152 -241.5t-55.5 -288.5q0 -179 78.5 -317.5t217.5 -213.5t315 -75zM1469 954q0 -91 -49 -163.5t-157 -165.5l-121 -103h304l-41 -235h-704l39 220l329 281
q70 60 93.5 89t23.5 64q0 50 -57 50q-83 0 -134 -131l-247 84q67 152 165 222t241 70q144 0 229.5 -75t85.5 -207z" />
    <glyph glyph-name="uni2462" unicode="&#x2462;" horiz-adv-x="2194" 
d="M1171 1686q188 0 353 -62.5t283.5 -173t187 -269t68.5 -342.5q0 -172 -49.5 -331t-143 -288.5t-219.5 -226t-287.5 -149.5t-339.5 -53q-188 0 -353 62.5t-283.5 173t-187 269t-68.5 342.5q0 172 49.5 331t143 288.5t219.5 226t287.5 149.5t339.5 53zM1034 57
q157 0 296 61.5t235 165t152 242t56 288.5q0 179 -79 317.5t-218 213t-315 74.5q-157 0 -295.5 -61.5t-235 -164.5t-152 -241.5t-55.5 -288.5q0 -179 78.5 -317.5t217.5 -213.5t315 -75zM1458 961q0 -154 -140 -218q99 -59 99 -174q0 -141 -108 -224t-273 -83
q-140 0 -241 72t-132 192l250 85q27 -107 127 -107q45 0 70 20.5t25 52.5q0 28 -17 45t-51 17h-108l36 205h73q49 0 75 26t26 64q0 60 -69 60q-90 0 -128 -107l-239 78q48 136 150.5 203t248.5 67t236 -75.5t90 -198.5z" />
    <glyph glyph-name="uni2463" unicode="&#x2463;" horiz-adv-x="2194" 
d="M1171 1686q188 0 353 -62.5t283.5 -173t187 -269t68.5 -342.5q0 -172 -49.5 -331t-143 -288.5t-219.5 -226t-287.5 -149.5t-339.5 -53q-188 0 -353 62.5t-283.5 173t-187 269t-68.5 342.5q0 172 49.5 331t143 288.5t219.5 226t287.5 149.5t339.5 53zM1034 57
q157 0 296 61.5t235 165t152 242t56 288.5q0 179 -79 317.5t-218 213t-315 74.5q-157 0 -295.5 -61.5t-235 -164.5t-152 -241.5t-55.5 -288.5q0 -179 78.5 -317.5t217.5 -213.5t315 -75zM1407 1211l-90 -514h109l-41 -235h-110l-31 -175h-282l30 175h-384l40 228l450 521
h309zM915 697h119l32 184z" />
    <glyph glyph-name="uni2464" unicode="&#x2464;" horiz-adv-x="2194" 
d="M1171 1686q188 0 353 -62.5t283.5 -173t187 -269t68.5 -342.5q0 -172 -49.5 -331t-143 -288.5t-219.5 -226t-287.5 -149.5t-339.5 -53q-188 0 -353 62.5t-283.5 173t-187 269t-68.5 342.5q0 172 49.5 331t143 288.5t219.5 226t287.5 149.5t339.5 53zM1034 57
q157 0 296 61.5t235 165t152 242t56 288.5q0 179 -79 317.5t-218 213t-315 74.5q-157 0 -295.5 -61.5t-235 -164.5t-152 -241.5t-55.5 -288.5q0 -179 78.5 -317.5t217.5 -213.5t315 -75zM1408 978h-377l-23 -89q71 32 136 32q115 0 192 -84t77 -210q0 -165 -116.5 -264.5
t-298.5 -99.5q-141 0 -229.5 63t-115.5 152l246 116q12 -42 42.5 -64t69.5 -22q53 0 84 34.5t31 77.5q0 35 -26 56.5t-62 21.5q-61 0 -99 -61h-249l149 574h610z" />
    <glyph glyph-name="uni2465" unicode="&#x2465;" horiz-adv-x="2194" 
d="M1171 1686q188 0 353 -62.5t283.5 -173t187 -269t68.5 -342.5q0 -172 -49.5 -331t-143 -288.5t-219.5 -226t-287.5 -149.5t-339.5 -53q-188 0 -353 62.5t-283.5 173t-187 269t-68.5 342.5q0 172 49.5 331t143 288.5t219.5 226t287.5 149.5t339.5 53zM1034 57
q157 0 296 61.5t235 165t152 242t56 288.5q0 179 -79 317.5t-218 213t-315 74.5q-157 0 -295.5 -61.5t-235 -164.5t-152 -241.5t-55.5 -288.5q0 -179 78.5 -317.5t217.5 -213.5t315 -75zM1155 994q-60 0 -106 -38t-65 -111q72 42 163 42q130 0 214 -78.5t84 -197.5
q0 -158 -110.5 -253.5t-276.5 -95.5q-97 0 -174.5 37.5t-124.5 104.5q-71 100 -71 264q0 59 12 133q33 194 156.5 314t310.5 120q222 0 335 -178l-211 -142q-52 79 -136 79zM1080 681q-50 0 -80 -30.5t-30 -75.5q0 -39 25 -62.5t65 -23.5q50 0 81 30.5t31 75.5
q0 39 -25.5 62.5t-66.5 23.5z" />
    <glyph glyph-name="uni2466" unicode="&#x2466;" horiz-adv-x="2194" 
d="M1171 1686q188 0 353 -62.5t283.5 -173t187 -269t68.5 -342.5q0 -172 -49.5 -331t-143 -288.5t-219.5 -226t-287.5 -149.5t-339.5 -53q-188 0 -353 62.5t-283.5 173t-187 269t-68.5 342.5q0 172 49.5 331t143 288.5t219.5 226t287.5 149.5t339.5 53zM1034 57
q157 0 296 61.5t235 165t152 242t56 288.5q0 179 -79 317.5t-218 213t-315 74.5q-157 0 -295.5 -61.5t-235 -164.5t-152 -241.5t-55.5 -288.5q0 -179 78.5 -317.5t217.5 -213.5t315 -75zM783 976l42 235h701l-41 -229q-153 -144 -261 -333t-114 -362h-300q20 197 124 384
t254 305h-405z" />
    <glyph glyph-name="uni2467" unicode="&#x2467;" horiz-adv-x="2194" 
d="M1171 1686q188 0 353 -62.5t283.5 -173t187 -269t68.5 -342.5q0 -172 -49.5 -331t-143 -288.5t-219.5 -226t-287.5 -149.5t-339.5 -53q-188 0 -353 62.5t-283.5 173t-187 269t-68.5 342.5q0 172 49.5 331t143 288.5t219.5 226t287.5 149.5t339.5 53zM1034 57
q157 0 296 61.5t235 165t152 242t56 288.5q0 179 -79 317.5t-218 213t-315 74.5q-157 0 -295.5 -61.5t-235 -164.5t-152 -241.5t-55.5 -288.5q0 -179 78.5 -317.5t217.5 -213.5t315 -75zM1464 976q0 -72 -44.5 -130t-115.5 -86q63 -24 99 -75t36 -121q0 -137 -103 -219.5
t-282 -82.5q-163 0 -269 72t-106 191q0 182 186 253q-104 61 -104 177q0 125 102.5 202.5t268.5 77.5q148 0 240 -78.5t92 -180.5zM1107 850q43 0 69.5 25t26.5 65q0 35 -23.5 56.5t-62.5 21.5q-43 0 -70.5 -25t-27.5 -65q0 -36 24.5 -57t63.5 -21zM1053 481q50 0 80 26
t30 68q0 37 -26.5 59.5t-70.5 22.5q-51 0 -82.5 -26.5t-31.5 -67.5q0 -38 27.5 -60t73.5 -22z" />
    <glyph glyph-name="uni2468" unicode="&#x2468;" horiz-adv-x="2194" 
d="M1171 1686q188 0 353 -62.5t283.5 -173t187 -269t68.5 -342.5q0 -172 -49.5 -331t-143 -288.5t-219.5 -226t-287.5 -149.5t-339.5 -53q-188 0 -353 62.5t-283.5 173t-187 269t-68.5 342.5q0 172 49.5 331t143 288.5t219.5 226t287.5 149.5t339.5 53zM1034 57
q157 0 296 61.5t235 165t152 242t56 288.5q0 179 -79 317.5t-218 213t-315 74.5q-157 0 -295.5 -61.5t-235 -164.5t-152 -241.5t-55.5 -288.5q0 -179 78.5 -317.5t217.5 -213.5t315 -75zM1130 1235q97 0 174.5 -38t125.5 -105q70 -99 70 -264q0 -58 -12 -132
q-36 -205 -155.5 -319.5t-290.5 -114.5q-213 0 -342 175l195 151q68 -86 148 -86q58 0 101 40t60 117q-66 -39 -157 -39q-130 0 -217 77.5t-87 195.5q0 157 110 249.5t277 92.5zM1107 825q50 0 80 27.5t30 72.5q0 38 -25.5 60t-66.5 22q-50 0 -79 -28t-29 -73
q0 -38 24.5 -59.5t65.5 -21.5z" />
    <glyph glyph-name="uni24EA" unicode="&#x24ea;" horiz-adv-x="2194" 
d="M1024 -209q-188 0 -353 62.5t-283.5 173t-187 269t-68.5 342.5q0 172 49.5 331t143 288.5t219.5 226t287.5 149.5t339.5 53q188 0 353 -62.5t283.5 -173t187 -269t68.5 -342.5q0 -172 -49.5 -331t-143 -288.5t-219.5 -226t-287.5 -149.5t-339.5 -53zM1034 57
q157 0 296 61.5t235 165t152 242t56 288.5q0 179 -79 317.5t-218 213t-315 74.5q-157 0 -295.5 -61.5t-235 -164.5t-152 -241.5t-55.5 -288.5q0 -179 78.5 -317.5t217.5 -213.5t315 -75zM1039 262q-174 0 -272 107t-98 297q0 95 18.5 179.5t56 156t91.5 123.5t128.5 81
t163.5 29q174 0 272.5 -107t98.5 -297q0 -119 -29.5 -221.5t-86 -180.5t-145 -122.5t-198.5 -44.5zM1054 512q40 0 71.5 30t49.5 77.5t27.5 99.5t9.5 103q0 78 -26 120.5t-73 42.5q-52 0 -90 -52.5t-53.5 -120.5t-15.5 -138q0 -78 26.5 -120t73.5 -42z" />
    <glyph glyph-name="uni24FF" unicode="&#x24ff;" horiz-adv-x="2194" 
d="M1024 -209q-188 0 -353 62.5t-283.5 173t-187 269t-68.5 342.5q0 172 49.5 331t143 288.5t219.5 226t287.5 149.5t339.5 53q188 0 353 -62.5t283.5 -173t187 -269t68.5 -342.5q0 -172 -49.5 -331t-143 -288.5t-219.5 -226t-287.5 -149.5t-339.5 -53zM1039 262
q110 0 198.5 44.5t145 122.5t86 180.5t29.5 221.5q0 190 -98.5 297t-272.5 107q-89 0 -163.5 -29t-128.5 -81t-91.5 -123.5t-56 -156t-18.5 -179.5q0 -190 98 -297t272 -107zM1054 512q-47 0 -73.5 42t-26.5 120q0 70 15.5 138t53.5 120.5t90 52.5q47 0 73 -42.5t26 -120.5
q0 -51 -9.5 -103t-27.5 -99.5t-49.5 -77.5t-71.5 -30z" />
    <glyph glyph-name="filledbox" unicode="&#x25a0;" horiz-adv-x="1843" 
d="M184 0v1475h1475v-1475h-1475z" />
    <glyph glyph-name="uni25A1" unicode="&#x25a1;" horiz-adv-x="1843" 
d="M184 0v1475h1475v-1475h-1475zM594 389h655v696h-655v-696z" />
    <glyph glyph-name="uni25AE" unicode="&#x25ae;" horiz-adv-x="1105" 
d="M184 0v1475h738v-1475h-738z" />
    <glyph glyph-name="uni25AF" unicode="&#x25af;" horiz-adv-x="1105" 
d="M184 0v1475h738v-1475h-738zM481 287h144v901h-144v-901z" />
    <glyph glyph-name="triagup" unicode="&#x25b2;" horiz-adv-x="1843" 
d="M82 0l840 1495l839 -1495h-1679z" />
    <glyph glyph-name="uni25B3" unicode="&#x25b3;" horiz-adv-x="1843" 
d="M82 0l840 1495l839 -1495h-1679zM768 389h307l-153 295z" />
    <glyph glyph-name="uni25C6" unicode="&#x25c6;" horiz-adv-x="1843" 
d="M922 -52l-790 789l790 790l789 -790z" />
    <glyph glyph-name="uni25C7" unicode="&#x25c7;" horiz-adv-x="1843" 
d="M922 -52l-790 789l790 790l789 -790zM922 469l268 268l-268 269l-269 -269z" />
    <glyph glyph-name="lozenge" unicode="&#x25ca;" 
d="M795 1475l418 -738l-418 -737h-361l-419 737l419 738h361zM614 404l170 333l-170 333l-170 -333z" />
    <glyph glyph-name="circle" unicode="&#x25cb;" horiz-adv-x="1843" 
d="M923 -41q-158 0 -302.5 61.5t-249 166t-166.5 248.5t-62 302t62 302t166.5 248.5t249 166.5t302.5 62t301.5 -62t248 -166.5t166 -248.5t61.5 -302t-61.5 -302t-166 -248.5t-248 -166t-301.5 -61.5zM923 353q152 0 254.5 110.5t102.5 273.5t-102.5 273.5t-254.5 110.5
q-153 0 -256.5 -110.5t-103.5 -273.5t103.5 -273.5t256.5 -110.5z" />
    <glyph glyph-name="uni25CF" unicode="&#x25cf;" horiz-adv-x="1843" 
d="M923 -41q-158 0 -302.5 61.5t-249 166t-166.5 248.5t-62 302t62 302t166.5 248.5t249 166.5t302.5 62t301.5 -62t248 -166.5t166 -248.5t61.5 -302t-61.5 -302t-166 -248.5t-248 -166t-301.5 -61.5z" />
    <glyph glyph-name="uni2605" unicode="&#x2605;" horiz-adv-x="1843" 
d="M367 -72l218 654l-514 376h640l211 629l211 -629h640l-515 -376l219 -654l-555 407z" />
    <glyph glyph-name="uni2606" unicode="&#x2606;" horiz-adv-x="1843" 
d="M367 -72l218 654l-514 376h640l211 629l211 -629h640l-515 -376l219 -654l-555 407zM732 424l190 139l189 -139l-74 224l158 116h-197l-76 228l-77 -228h-197l158 -116z" />
    <glyph glyph-name="uni2661" unicode="&#x2661;" horiz-adv-x="1843" 
d="M1275 1499q87 0 166 -33t138.5 -91.5t95 -144t35.5 -184.5q0 -123 -41.5 -244t-110.5 -226t-173.5 -213.5t-214 -199t-248.5 -189.5q-139 99 -248.5 189.5t-214 199t-173.5 213.5t-111 226t-42 244q0 99 35.5 184.5t95 144t138.5 91.5t166 33q130 0 222.5 -59.5
t131.5 -135.5q39 76 131 135.5t222 59.5zM922 340q232 162 351.5 332.5t119.5 339.5q0 88 -53 138t-122 50q-173 0 -295 -318h-2q-122 318 -295 318q-69 0 -122 -50t-53 -138q0 -169 119.5 -339.5t351.5 -332.5z" />
    <glyph glyph-name="uni2714" unicode="&#x2714;" horiz-adv-x="1843" 
d="M839 -61l-798 558l228 319l446 -311l734 1031l353 -247z" />
    <glyph glyph-name="uni2718" unicode="&#x2718;" horiz-adv-x="1843" 
d="M1719 1238l-499 -501l499 -501l-297 -297l-499 500l-501 -500l-297 297l500 501l-500 501l298 298l500 -501l498 501z" />
    <glyph glyph-name="uni2764" unicode="&#x2764;" horiz-adv-x="1843" 
d="M1275 1499q87 0 166 -33t138.5 -91.5t95 -144t35.5 -184.5q0 -123 -41.5 -244t-110.5 -226t-173.5 -213.5t-214 -199t-248.5 -189.5q-139 99 -248.5 189.5t-214 199t-173.5 213.5t-111 226t-42 244q0 99 35.5 184.5t95 144t138.5 91.5t166 33q130 0 222.5 -59.5
t131.5 -135.5q39 76 131 135.5t222 59.5z" />
    <glyph glyph-name="uni2776" unicode="&#x2776;" horiz-adv-x="2194" 
d="M1024 -209q-188 0 -353 62.5t-283.5 173t-187 269t-68.5 342.5q0 172 49.5 331t143 288.5t219.5 226t287.5 149.5t339.5 53q188 0 353 -62.5t283.5 -173t187 -269t68.5 -342.5q0 -172 -49.5 -331t-143 -288.5t-219.5 -226t-287.5 -149.5t-339.5 -53zM905 287h283l163 924
h-261l-389 -302l138 -171l170 132z" />
    <glyph glyph-name="uni2777" unicode="&#x2777;" horiz-adv-x="2194" 
d="M1024 -209q-188 0 -353 62.5t-283.5 173t-187 269t-68.5 342.5q0 172 49.5 331t143 288.5t219.5 226t287.5 149.5t339.5 53q188 0 353 -62.5t283.5 -173t187 -269t68.5 -342.5q0 -172 -49.5 -331t-143 -288.5t-219.5 -226t-287.5 -149.5t-339.5 -53zM701 287h704l41 235
h-304l121 103q108 93 157 165.5t49 163.5q0 132 -85.5 207t-229.5 75q-143 0 -241 -70t-165 -222l247 -84q51 131 134 131q57 0 57 -50q0 -35 -23.5 -64t-93.5 -89l-329 -281z" />
    <glyph glyph-name="uni2778" unicode="&#x2778;" horiz-adv-x="2194" 
d="M1024 -209q-188 0 -353 62.5t-283.5 173t-187 269t-68.5 342.5q0 172 49.5 331t143 288.5t219.5 226t287.5 149.5t339.5 53q188 0 353 -62.5t283.5 -173t187 -269t68.5 -342.5q0 -172 -49.5 -331t-143 -288.5t-219.5 -226t-287.5 -149.5t-339.5 -53zM1036 262
q165 0 273 83t108 224q0 115 -99 174q140 64 140 218q0 123 -90 198.5t-236 75.5t-248.5 -67t-150.5 -203l239 -78q38 107 128 107q69 0 69 -60q0 -38 -26 -64t-75 -26h-73l-36 -205h108q34 0 51 -17t17 -45q0 -32 -25 -52.5t-70 -20.5q-100 0 -127 107l-250 -85
q31 -120 132 -192t241 -72z" />
    <glyph glyph-name="uni2779" unicode="&#x2779;" horiz-adv-x="2194" 
d="M1024 -209q-188 0 -353 62.5t-283.5 173t-187 269t-68.5 342.5q0 172 49.5 331t143 288.5t219.5 226t287.5 149.5t339.5 53q188 0 353 -62.5t283.5 -173t187 -269t68.5 -342.5q0 -172 -49.5 -331t-143 -288.5t-219.5 -226t-287.5 -149.5t-339.5 -53zM962 287h282l31 175
h110l41 235h-109l90 514h-309l-450 -521l-40 -228h384zM915 697l151 184l-32 -184h-119z" />
    <glyph glyph-name="uni277A" unicode="&#x277a;" horiz-adv-x="2194" 
d="M1024 -209q-188 0 -353 62.5t-283.5 173t-187 269t-68.5 342.5q0 172 49.5 331t143 288.5t219.5 226t287.5 149.5t339.5 53q188 0 353 -62.5t283.5 -173t187 -269t68.5 -342.5q0 -172 -49.5 -331t-143 -288.5t-219.5 -226t-287.5 -149.5t-339.5 -53zM998 263
q182 0 298.5 99.5t116.5 264.5q0 126 -77 210t-192 84q-65 0 -136 -32l23 89h377l41 233h-610l-149 -574h249q38 61 99 61q36 0 62 -21.5t26 -56.5q0 -43 -31 -77.5t-84 -34.5q-39 0 -69.5 22t-42.5 64l-246 -116q27 -89 115.5 -152t229.5 -63z" />
    <glyph glyph-name="uni277B" unicode="&#x277b;" horiz-adv-x="2194" 
d="M1024 -209q-188 0 -353 62.5t-283.5 173t-187 269t-68.5 342.5q0 172 49.5 331t143 288.5t219.5 226t287.5 149.5t339.5 53q188 0 353 -62.5t283.5 -173t187 -269t68.5 -342.5q0 -172 -49.5 -331t-143 -288.5t-219.5 -226t-287.5 -149.5t-339.5 -53zM1058 262
q166 0 276.5 95.5t110.5 253.5q0 119 -84 197.5t-214 78.5q-91 0 -163 -42l3 12q22 68 66.5 102.5t101.5 34.5q84 0 136 -79l211 142q-113 178 -335 178q-187 0 -310.5 -120t-156.5 -314q-12 -74 -12 -133q0 -164 71 -264q47 -67 124.5 -104.5t174.5 -37.5zM1060 489
q-40 0 -65 23.5t-25 62.5q0 45 30 75.5t80 30.5q41 0 66.5 -23.5t25.5 -62.5q0 -45 -31 -75.5t-81 -30.5z" />
    <glyph glyph-name="uni277C" unicode="&#x277c;" horiz-adv-x="2194" 
d="M1024 -209q-188 0 -353 62.5t-283.5 173t-187 269t-68.5 342.5q0 172 49.5 331t143 288.5t219.5 226t287.5 149.5t339.5 53q188 0 353 -62.5t283.5 -173t187 -269t68.5 -342.5q0 -172 -49.5 -331t-143 -288.5t-219.5 -226t-287.5 -149.5t-339.5 -53zM810 287h300
q6 173 114 362t261 333l41 229h-701l-42 -235h405q-150 -118 -254 -305t-124 -384z" />
    <glyph glyph-name="uni277D" unicode="&#x277d;" horiz-adv-x="2194" 
d="M1024 -209q-188 0 -353 62.5t-283.5 173t-187 269t-68.5 342.5q0 172 49.5 331t143 288.5t219.5 226t287.5 149.5t339.5 53q188 0 353 -62.5t283.5 -173t187 -269t68.5 -342.5q0 -172 -49.5 -331t-143 -288.5t-219.5 -226t-287.5 -149.5t-339.5 -53zM1054 262
q179 0 282 82.5t103 219.5q0 70 -36 121t-99 75q71 28 115.5 86t44.5 130q0 102 -92 180.5t-240 78.5q-166 0 -268.5 -77.5t-102.5 -202.5q0 -115 105 -176q-187 -73 -187 -254q0 -119 106 -191t269 -72zM1107 850q-39 0 -63.5 21t-24.5 57q0 40 27.5 65t70.5 25
q39 0 62.5 -21.5t23.5 -56.5q0 -40 -26.5 -65t-69.5 -25zM1053 481q-46 0 -73.5 22t-27.5 60q0 41 31.5 67.5t82.5 26.5q44 0 70.5 -22.5t26.5 -59.5q0 -42 -30 -68t-80 -26z" />
    <glyph glyph-name="uni277E" unicode="&#x277e;" horiz-adv-x="2194" 
d="M1024 -209q-188 0 -353 62.5t-283.5 173t-187 269t-68.5 342.5q0 172 49.5 331t143 288.5t219.5 226t287.5 149.5t339.5 53q188 0 353 -62.5t283.5 -173t187 -269t68.5 -342.5q0 -172 -49.5 -331t-143 -288.5t-219.5 -226t-287.5 -149.5t-339.5 -53zM1042 262
q172 0 292 114.5t154 319.5q12 74 12 132q0 165 -70 264q-48 67 -125.5 105t-174.5 38q-167 0 -277 -92.5t-110 -249.5q0 -118 87 -195.5t217 -77.5q91 0 157 39q-18 -77 -60.5 -117t-100.5 -40q-80 0 -148 86l-195 -151q129 -175 342 -175zM1107 825q-41 0 -65.5 21.5
t-24.5 59.5q0 45 29 73t79 28q41 0 66.5 -22t25.5 -60q0 -45 -30 -72.5t-80 -27.5z" />
    <glyph glyph-name="uni2780" unicode="&#x2780;" horiz-adv-x="2194" 
d="M1171 1686q188 0 353 -62.5t283.5 -173t187 -269t68.5 -342.5q0 -172 -49.5 -331t-143 -288.5t-219.5 -226t-287.5 -149.5t-339.5 -53q-188 0 -353 62.5t-283.5 173t-187 269t-68.5 342.5q0 172 49.5 331t143 288.5t219.5 226t287.5 149.5t339.5 53zM1034 57
q157 0 296 61.5t235 165t152 242t56 288.5q0 179 -79 317.5t-218 213t-315 74.5q-157 0 -295.5 -61.5t-235 -164.5t-152 -241.5t-55.5 -288.5q0 -179 78.5 -317.5t217.5 -213.5t315 -75zM1351 1211l-163 -924h-283l104 583l-170 -132l-138 171l389 302h261z" />
    <glyph glyph-name="uni2781" unicode="&#x2781;" horiz-adv-x="2194" 
d="M1171 1686q188 0 353 -62.5t283.5 -173t187 -269t68.5 -342.5q0 -172 -49.5 -331t-143 -288.5t-219.5 -226t-287.5 -149.5t-339.5 -53q-188 0 -353 62.5t-283.5 173t-187 269t-68.5 342.5q0 172 49.5 331t143 288.5t219.5 226t287.5 149.5t339.5 53zM1034 57
q157 0 296 61.5t235 165t152 242t56 288.5q0 179 -79 317.5t-218 213t-315 74.5q-157 0 -295.5 -61.5t-235 -164.5t-152 -241.5t-55.5 -288.5q0 -179 78.5 -317.5t217.5 -213.5t315 -75zM1469 954q0 -91 -49 -163.5t-157 -165.5l-121 -103h304l-41 -235h-704l39 220l329 281
q70 60 93.5 89t23.5 64q0 50 -57 50q-83 0 -134 -131l-247 84q67 152 165 222t241 70q144 0 229.5 -75t85.5 -207z" />
    <glyph glyph-name="uni2782" unicode="&#x2782;" horiz-adv-x="2194" 
d="M1171 1686q188 0 353 -62.5t283.5 -173t187 -269t68.5 -342.5q0 -172 -49.5 -331t-143 -288.5t-219.5 -226t-287.5 -149.5t-339.5 -53q-188 0 -353 62.5t-283.5 173t-187 269t-68.5 342.5q0 172 49.5 331t143 288.5t219.5 226t287.5 149.5t339.5 53zM1034 57
q157 0 296 61.5t235 165t152 242t56 288.5q0 179 -79 317.5t-218 213t-315 74.5q-157 0 -295.5 -61.5t-235 -164.5t-152 -241.5t-55.5 -288.5q0 -179 78.5 -317.5t217.5 -213.5t315 -75zM1458 961q0 -154 -140 -218q99 -59 99 -174q0 -141 -108 -224t-273 -83
q-140 0 -241 72t-132 192l250 85q27 -107 127 -107q45 0 70 20.5t25 52.5q0 28 -17 45t-51 17h-108l36 205h73q49 0 75 26t26 64q0 60 -69 60q-90 0 -128 -107l-239 78q48 136 150.5 203t248.5 67t236 -75.5t90 -198.5z" />
    <glyph glyph-name="uni2783" unicode="&#x2783;" horiz-adv-x="2194" 
d="M1171 1686q188 0 353 -62.5t283.5 -173t187 -269t68.5 -342.5q0 -172 -49.5 -331t-143 -288.5t-219.5 -226t-287.5 -149.5t-339.5 -53q-188 0 -353 62.5t-283.5 173t-187 269t-68.5 342.5q0 172 49.5 331t143 288.5t219.5 226t287.5 149.5t339.5 53zM1034 57
q157 0 296 61.5t235 165t152 242t56 288.5q0 179 -79 317.5t-218 213t-315 74.5q-157 0 -295.5 -61.5t-235 -164.5t-152 -241.5t-55.5 -288.5q0 -179 78.5 -317.5t217.5 -213.5t315 -75zM1407 1211l-90 -514h109l-41 -235h-110l-31 -175h-282l30 175h-384l40 228l450 521
h309zM915 697h119l32 184z" />
    <glyph glyph-name="uni2784" unicode="&#x2784;" horiz-adv-x="2194" 
d="M1171 1686q188 0 353 -62.5t283.5 -173t187 -269t68.5 -342.5q0 -172 -49.5 -331t-143 -288.5t-219.5 -226t-287.5 -149.5t-339.5 -53q-188 0 -353 62.5t-283.5 173t-187 269t-68.5 342.5q0 172 49.5 331t143 288.5t219.5 226t287.5 149.5t339.5 53zM1034 57
q157 0 296 61.5t235 165t152 242t56 288.5q0 179 -79 317.5t-218 213t-315 74.5q-157 0 -295.5 -61.5t-235 -164.5t-152 -241.5t-55.5 -288.5q0 -179 78.5 -317.5t217.5 -213.5t315 -75zM1408 978h-377l-23 -89q71 32 136 32q115 0 192 -84t77 -210q0 -165 -116.5 -264.5
t-298.5 -99.5q-141 0 -229.5 63t-115.5 152l246 116q12 -42 42.5 -64t69.5 -22q53 0 84 34.5t31 77.5q0 35 -26 56.5t-62 21.5q-61 0 -99 -61h-249l149 574h610z" />
    <glyph glyph-name="uni2785" unicode="&#x2785;" horiz-adv-x="2194" 
d="M1171 1686q188 0 353 -62.5t283.5 -173t187 -269t68.5 -342.5q0 -172 -49.5 -331t-143 -288.5t-219.5 -226t-287.5 -149.5t-339.5 -53q-188 0 -353 62.5t-283.5 173t-187 269t-68.5 342.5q0 172 49.5 331t143 288.5t219.5 226t287.5 149.5t339.5 53zM1034 57
q157 0 296 61.5t235 165t152 242t56 288.5q0 179 -79 317.5t-218 213t-315 74.5q-157 0 -295.5 -61.5t-235 -164.5t-152 -241.5t-55.5 -288.5q0 -179 78.5 -317.5t217.5 -213.5t315 -75zM1155 994q-60 0 -106 -38t-65 -111q72 42 163 42q130 0 214 -78.5t84 -197.5
q0 -158 -110.5 -253.5t-276.5 -95.5q-97 0 -174.5 37.5t-124.5 104.5q-71 100 -71 264q0 59 12 133q33 194 156.5 314t310.5 120q222 0 335 -178l-211 -142q-52 79 -136 79zM1080 681q-50 0 -80 -30.5t-30 -75.5q0 -39 25 -62.5t65 -23.5q50 0 81 30.5t31 75.5
q0 39 -25.5 62.5t-66.5 23.5z" />
    <glyph glyph-name="uni2786" unicode="&#x2786;" horiz-adv-x="2194" 
d="M1171 1686q188 0 353 -62.5t283.5 -173t187 -269t68.5 -342.5q0 -172 -49.5 -331t-143 -288.5t-219.5 -226t-287.5 -149.5t-339.5 -53q-188 0 -353 62.5t-283.5 173t-187 269t-68.5 342.5q0 172 49.5 331t143 288.5t219.5 226t287.5 149.5t339.5 53zM1034 57
q157 0 296 61.5t235 165t152 242t56 288.5q0 179 -79 317.5t-218 213t-315 74.5q-157 0 -295.5 -61.5t-235 -164.5t-152 -241.5t-55.5 -288.5q0 -179 78.5 -317.5t217.5 -213.5t315 -75zM783 976l42 235h701l-41 -229q-153 -144 -261 -333t-114 -362h-300q20 197 124 384
t254 305h-405z" />
    <glyph glyph-name="uni2787" unicode="&#x2787;" horiz-adv-x="2194" 
d="M1171 1686q188 0 353 -62.5t283.5 -173t187 -269t68.5 -342.5q0 -172 -49.5 -331t-143 -288.5t-219.5 -226t-287.5 -149.5t-339.5 -53q-188 0 -353 62.5t-283.5 173t-187 269t-68.5 342.5q0 172 49.5 331t143 288.5t219.5 226t287.5 149.5t339.5 53zM1034 57
q157 0 296 61.5t235 165t152 242t56 288.5q0 179 -79 317.5t-218 213t-315 74.5q-157 0 -295.5 -61.5t-235 -164.5t-152 -241.5t-55.5 -288.5q0 -179 78.5 -317.5t217.5 -213.5t315 -75zM1464 976q0 -72 -44.5 -130t-115.5 -86q63 -24 99 -75t36 -121q0 -137 -103 -219.5
t-282 -82.5q-163 0 -269 72t-106 191q0 182 186 253q-104 61 -104 177q0 125 102.5 202.5t268.5 77.5q148 0 240 -78.5t92 -180.5zM1107 850q43 0 69.5 25t26.5 65q0 35 -23.5 56.5t-62.5 21.5q-43 0 -70.5 -25t-27.5 -65q0 -36 24.5 -57t63.5 -21zM1053 481q50 0 80 26
t30 68q0 37 -26.5 59.5t-70.5 22.5q-51 0 -82.5 -26.5t-31.5 -67.5q0 -38 27.5 -60t73.5 -22z" />
    <glyph glyph-name="uni2788" unicode="&#x2788;" horiz-adv-x="2194" 
d="M1171 1686q188 0 353 -62.5t283.5 -173t187 -269t68.5 -342.5q0 -172 -49.5 -331t-143 -288.5t-219.5 -226t-287.5 -149.5t-339.5 -53q-188 0 -353 62.5t-283.5 173t-187 269t-68.5 342.5q0 172 49.5 331t143 288.5t219.5 226t287.5 149.5t339.5 53zM1034 57
q157 0 296 61.5t235 165t152 242t56 288.5q0 179 -79 317.5t-218 213t-315 74.5q-157 0 -295.5 -61.5t-235 -164.5t-152 -241.5t-55.5 -288.5q0 -179 78.5 -317.5t217.5 -213.5t315 -75zM1130 1235q97 0 174.5 -38t125.5 -105q70 -99 70 -264q0 -58 -12 -132
q-36 -205 -155.5 -319.5t-290.5 -114.5q-213 0 -342 175l195 151q68 -86 148 -86q58 0 101 40t60 117q-66 -39 -157 -39q-130 0 -217 77.5t-87 195.5q0 157 110 249.5t277 92.5zM1107 825q50 0 80 27.5t30 72.5q0 38 -25.5 60t-66.5 22q-50 0 -79 -28t-29 -73
q0 -38 24.5 -59.5t65.5 -21.5z" />
    <glyph glyph-name="uni278A" unicode="&#x278a;" horiz-adv-x="2194" 
d="M1024 -209q-188 0 -353 62.5t-283.5 173t-187 269t-68.5 342.5q0 172 49.5 331t143 288.5t219.5 226t287.5 149.5t339.5 53q188 0 353 -62.5t283.5 -173t187 -269t68.5 -342.5q0 -172 -49.5 -331t-143 -288.5t-219.5 -226t-287.5 -149.5t-339.5 -53zM905 287h283l163 924
h-261l-389 -302l138 -171l170 132z" />
    <glyph glyph-name="uni278B" unicode="&#x278b;" horiz-adv-x="2194" 
d="M1024 -209q-188 0 -353 62.5t-283.5 173t-187 269t-68.5 342.5q0 172 49.5 331t143 288.5t219.5 226t287.5 149.5t339.5 53q188 0 353 -62.5t283.5 -173t187 -269t68.5 -342.5q0 -172 -49.5 -331t-143 -288.5t-219.5 -226t-287.5 -149.5t-339.5 -53zM701 287h704l41 235
h-304l121 103q108 93 157 165.5t49 163.5q0 132 -85.5 207t-229.5 75q-143 0 -241 -70t-165 -222l247 -84q51 131 134 131q57 0 57 -50q0 -35 -23.5 -64t-93.5 -89l-329 -281z" />
    <glyph glyph-name="uni278C" unicode="&#x278c;" horiz-adv-x="2194" 
d="M1024 -209q-188 0 -353 62.5t-283.5 173t-187 269t-68.5 342.5q0 172 49.5 331t143 288.5t219.5 226t287.5 149.5t339.5 53q188 0 353 -62.5t283.5 -173t187 -269t68.5 -342.5q0 -172 -49.5 -331t-143 -288.5t-219.5 -226t-287.5 -149.5t-339.5 -53zM1036 262
q165 0 273 83t108 224q0 115 -99 174q140 64 140 218q0 123 -90 198.5t-236 75.5t-248.5 -67t-150.5 -203l239 -78q38 107 128 107q69 0 69 -60q0 -38 -26 -64t-75 -26h-73l-36 -205h108q34 0 51 -17t17 -45q0 -32 -25 -52.5t-70 -20.5q-100 0 -127 107l-250 -85
q31 -120 132 -192t241 -72z" />
    <glyph glyph-name="uni278D" unicode="&#x278d;" horiz-adv-x="2194" 
d="M1024 -209q-188 0 -353 62.5t-283.5 173t-187 269t-68.5 342.5q0 172 49.5 331t143 288.5t219.5 226t287.5 149.5t339.5 53q188 0 353 -62.5t283.5 -173t187 -269t68.5 -342.5q0 -172 -49.5 -331t-143 -288.5t-219.5 -226t-287.5 -149.5t-339.5 -53zM962 287h282l31 175
h110l41 235h-109l90 514h-309l-450 -521l-40 -228h384zM915 697l151 184l-32 -184h-119z" />
    <glyph glyph-name="uni278E" unicode="&#x278e;" horiz-adv-x="2194" 
d="M1024 -209q-188 0 -353 62.5t-283.5 173t-187 269t-68.5 342.5q0 172 49.5 331t143 288.5t219.5 226t287.5 149.5t339.5 53q188 0 353 -62.5t283.5 -173t187 -269t68.5 -342.5q0 -172 -49.5 -331t-143 -288.5t-219.5 -226t-287.5 -149.5t-339.5 -53zM998 263
q182 0 298.5 99.5t116.5 264.5q0 126 -77 210t-192 84q-65 0 -136 -32l23 89h377l41 233h-610l-149 -574h249q38 61 99 61q36 0 62 -21.5t26 -56.5q0 -43 -31 -77.5t-84 -34.5q-39 0 -69.5 22t-42.5 64l-246 -116q27 -89 115.5 -152t229.5 -63z" />
    <glyph glyph-name="uni278F" unicode="&#x278f;" horiz-adv-x="2194" 
d="M1024 -209q-188 0 -353 62.5t-283.5 173t-187 269t-68.5 342.5q0 172 49.5 331t143 288.5t219.5 226t287.5 149.5t339.5 53q188 0 353 -62.5t283.5 -173t187 -269t68.5 -342.5q0 -172 -49.5 -331t-143 -288.5t-219.5 -226t-287.5 -149.5t-339.5 -53zM1058 262
q166 0 276.5 95.5t110.5 253.5q0 119 -84 197.5t-214 78.5q-91 0 -163 -42l3 12q22 68 66.5 102.5t101.5 34.5q84 0 136 -79l211 142q-113 178 -335 178q-187 0 -310.5 -120t-156.5 -314q-12 -74 -12 -133q0 -164 71 -264q47 -67 124.5 -104.5t174.5 -37.5zM1060 489
q-40 0 -65 23.5t-25 62.5q0 45 30 75.5t80 30.5q41 0 66.5 -23.5t25.5 -62.5q0 -45 -31 -75.5t-81 -30.5z" />
    <glyph glyph-name="uni2790" unicode="&#x2790;" horiz-adv-x="2194" 
d="M1024 -209q-188 0 -353 62.5t-283.5 173t-187 269t-68.5 342.5q0 172 49.5 331t143 288.5t219.5 226t287.5 149.5t339.5 53q188 0 353 -62.5t283.5 -173t187 -269t68.5 -342.5q0 -172 -49.5 -331t-143 -288.5t-219.5 -226t-287.5 -149.5t-339.5 -53zM810 287h300
q6 173 114 362t261 333l41 229h-701l-42 -235h405q-150 -118 -254 -305t-124 -384z" />
    <glyph glyph-name="uni2791" unicode="&#x2791;" horiz-adv-x="2194" 
d="M1024 -209q-188 0 -353 62.5t-283.5 173t-187 269t-68.5 342.5q0 172 49.5 331t143 288.5t219.5 226t287.5 149.5t339.5 53q188 0 353 -62.5t283.5 -173t187 -269t68.5 -342.5q0 -172 -49.5 -331t-143 -288.5t-219.5 -226t-287.5 -149.5t-339.5 -53zM1054 262
q179 0 282 82.5t103 219.5q0 70 -36 121t-99 75q71 28 115.5 86t44.5 130q0 102 -92 180.5t-240 78.5q-166 0 -268.5 -77.5t-102.5 -202.5q0 -115 105 -176q-187 -73 -187 -254q0 -119 106 -191t269 -72zM1107 850q-39 0 -63.5 21t-24.5 57q0 40 27.5 65t70.5 25
q39 0 62.5 -21.5t23.5 -56.5q0 -40 -26.5 -65t-69.5 -25zM1053 481q-46 0 -73.5 22t-27.5 60q0 41 31.5 67.5t82.5 26.5q44 0 70.5 -22.5t26.5 -59.5q0 -42 -30 -68t-80 -26z" />
    <glyph glyph-name="uni2792" unicode="&#x2792;" horiz-adv-x="2194" 
d="M1024 -209q-188 0 -353 62.5t-283.5 173t-187 269t-68.5 342.5q0 172 49.5 331t143 288.5t219.5 226t287.5 149.5t339.5 53q188 0 353 -62.5t283.5 -173t187 -269t68.5 -342.5q0 -172 -49.5 -331t-143 -288.5t-219.5 -226t-287.5 -149.5t-339.5 -53zM1042 262
q172 0 292 114.5t154 319.5q12 74 12 132q0 165 -70 264q-48 67 -125.5 105t-174.5 38q-167 0 -277 -92.5t-110 -249.5q0 -118 87 -195.5t217 -77.5q91 0 157 39q-18 -77 -60.5 -117t-100.5 -40q-80 0 -148 86l-195 -151q129 -175 342 -175zM1107 825q-41 0 -65.5 21.5
t-24.5 59.5q0 45 29 73t79 28q41 0 66.5 -22t25.5 -60q0 -45 -30 -72.5t-80 -27.5z" />
    <glyph glyph-name="uniFEFF" unicode="&#xfeff;" horiz-adv-x="0" 
 />
    <glyph glyph-name="Cacute.loclPLK" horiz-adv-x="1511" 
d="M716 1567l180 379h382l-261 -379h-301zM763 -36q-310 0 -497 184.5t-187 492.5q0 181 61 341.5t168 276.5t260.5 183.5t331.5 67.5q228 0 389.5 -104.5t238.5 -295.5l-370 -181q-51 105 -110 148.5t-157 43.5q-86 0 -157.5 -40t-117 -106.5t-70.5 -151t-25 -175.5
q0 -136 73.5 -215.5t198.5 -79.5q182 0 288 217l370 -192q-134 -218 -295.5 -316t-392.5 -98z" />
    <glyph glyph-name="Nacute.loclPLK" horiz-adv-x="1520" 
d="M1302 1946l-262 -379h-301l181 379h382zM1157 1475h430l-260 -1475h-466l-291 792l-139 -792h-430l260 1475h466l291 -792z" />
    <glyph glyph-name="Oacute.loclPLK" horiz-adv-x="1594" 
d="M748 1567l180 379h382l-261 -379h-301zM763 -36q-310 0 -497 184.5t-187 492.5q0 181 61 341.5t168 276.5t260.5 183.5t331.5 67.5q310 0 496.5 -184t186.5 -492q0 -181 -61 -341.5t-168 -277t-260.5 -184t-330.5 -67.5zM782 353q109 0 192.5 69t125 175.5t41.5 228.5
q0 135 -71 215t-189 80q-109 0 -193 -69t-125.5 -175.5t-41.5 -228.5q0 -135 71.5 -215t189.5 -80z" />
    <glyph glyph-name="Sacute.loclPLK" horiz-adv-x="1430" 
d="M662 1567l180 379h382l-261 -379h-301zM653 -37q-191 0 -367 70.5t-287 187.5l262 286q71 -80 184.5 -122.5t248.5 -42.5q102 0 162 26.5t60 72.5q0 81 -227 110q-265 33 -402 154.5t-137 312.5q0 230 174.5 362t481.5 132q183 0 351 -56.5t286 -158.5l-237 -290
q-76 62 -181 94.5t-220 32.5q-93 0 -152 -27.5t-59 -72.5q0 -76 196 -99q290 -34 431 -149t141 -319q0 -236 -189.5 -370t-519.5 -134z" />
    <glyph glyph-name="Zacute.loclPLK" horiz-adv-x="1327" 
d="M636 1567l180 379h382l-261 -379h-301zM-19 0l62 353l727 743h-589l67 379h1140l-63 -353l-731 -743h627l-67 -379h-1173z" />
    <glyph glyph-name="G.ss01" horiz-adv-x="1511" 
d="M767 -37q-312 0 -500 185t-188 493q0 181 61 341.5t168 276.5t260.5 183.5t331.5 67.5q209 0 363 -92.5t232 -258.5l-356 -200q-54 89 -111 125.5t-147 36.5q-109 0 -193 -69t-125.5 -175.5t-41.5 -228.5q0 -136 72 -215.5t197 -79.5q103 0 172 48t90 130l1 5h-254
l57 327h665l-56 -311q-49 -275 -223 -432t-475 -157z" />
    <glyph glyph-name="uni01F4.ss01" horiz-adv-x="1511" 
d="M698 1567l241 379h393l-320 -379h-314zM767 -37q-312 0 -500 185t-188 493q0 181 61 341.5t168 276.5t260.5 183.5t331.5 67.5q209 0 363 -92.5t232 -258.5l-356 -200q-54 89 -111 125.5t-147 36.5q-109 0 -193 -69t-125.5 -175.5t-41.5 -228.5q0 -136 72 -215.5
t197 -79.5q103 0 172 48t90 130l1 5h-254l57 327h665l-56 -311q-49 -275 -223 -432t-475 -157z" />
    <glyph glyph-name="Gbreve.ss01" horiz-adv-x="1511" 
d="M920 1545q-164 0 -256 101.5t-100 263.5h254q1 -65 37 -98.5t88 -33.5q55 0 95 35.5t49 96.5h272q-38 -173 -156.5 -269t-282.5 -96zM767 -37q-312 0 -500 185t-188 493q0 181 61 341.5t168 276.5t260.5 183.5t331.5 67.5q209 0 363 -92.5t232 -258.5l-356 -200
q-54 89 -111 125.5t-147 36.5q-109 0 -193 -69t-125.5 -175.5t-41.5 -228.5q0 -136 72 -215.5t197 -79.5q103 0 172 48t90 130l1 5h-254l57 327h665l-56 -311q-49 -275 -223 -432t-475 -157z" />
    <glyph glyph-name="Gcircumflex.ss01" horiz-adv-x="1511" 
d="M957 1706l-122 -150h-331l292 354h367l167 -354h-302zM856 863h665l-56 -311q-49 -275 -223 -432t-475 -157q-312 0 -500 185t-188 493q0 181 61 341.5t168 276.5t260.5 183.5t331.5 67.5q209 0 363 -92.5t232 -258.5l-356 -200q-54 89 -111 125.5t-147 36.5
q-109 0 -193 -69t-125.5 -175.5t-41.5 -228.5q0 -136 72 -215.5t197 -79.5q103 0 172 48t90 130l1 5h-254z" />
    <glyph glyph-name="uni0122.ss01" horiz-adv-x="1511" 
d="M856 863h665l-56 -311q-49 -275 -223 -432t-475 -157q-312 0 -500 185t-188 493q0 181 61 341.5t168 276.5t260.5 183.5t331.5 67.5q209 0 363 -92.5t232 -258.5l-356 -200q-54 89 -111 125.5t-147 36.5q-109 0 -193 -69t-125.5 -175.5t-41.5 -228.5q0 -136 72 -215.5
t197 -79.5q103 0 172 48t90 130l1 5h-254zM525 -302l41 230h320l-42 -237q-13 -76 -67 -126.5t-161 -96.5l-68 119q60 26 95.5 51t46.5 60h-165z" />
    <glyph glyph-name="Gdotaccent.ss01" horiz-adv-x="1511" 
d="M707 1567l53 297h418l-54 -297h-417zM767 -37q-312 0 -500 185t-188 493q0 181 61 341.5t168 276.5t260.5 183.5t331.5 67.5q209 0 363 -92.5t232 -258.5l-356 -200q-54 89 -111 125.5t-147 36.5q-109 0 -193 -69t-125.5 -175.5t-41.5 -228.5q0 -136 72 -215.5t197 -79.5
q103 0 172 48t90 130l1 5h-254l57 327h665l-56 -311q-49 -275 -223 -432t-475 -157z" />
    <glyph glyph-name="j.calt" horiz-adv-x="573" 
d="M189 1178l54 297h415l-53 -297h-416zM-65 -386q-68 0 -147 14l59 323q18 -2 38 -2q42 0 72 30.5t40 90.5l181 1026h410l-203 -1152q-58 -330 -450 -330z" />
    <glyph glyph-name="uni0237.calt" horiz-adv-x="573" 
d="M-61 -386q-69 0 -148 14l59 323q18 -2 38 -2q42 0 72 30.5t40 90.5l181 1026h410l-203 -1152q-58 -330 -449 -330z" />
    <glyph glyph-name="jcircumflex.calt" horiz-adv-x="573" 
d="M446 1327l-122 -149h-331l292 353h367l167 -353h-302zM0 70l181 1026h410l-203 -1152q-58 -330 -449 -330q-69 0 -148 14l59 323q18 -2 38 -2q42 0 72 30.5t40 90.5z" />
    <glyph glyph-name="i.latn_TRK" horiz-adv-x="574" 
d="M190 1178l53 297h415l-52 -297h-416zM-14 0l193 1096h410l-194 -1096h-409z" />
    <glyph glyph-name="cacute.loclPLK" horiz-adv-x="1153" 
d="M482 1178l181 378h381l-261 -378h-301zM570 -31q-238 0 -385.5 143.5t-147.5 373.5q0 288 174 464t460 176q164 0 291 -86.5t183 -237.5l-349 -148q-23 69 -57.5 99t-88.5 30q-48 0 -86.5 -24.5t-62 -65t-36 -90t-12.5 -102.5q0 -89 36 -139t102 -50q102 0 177 146
l326 -167q-98 -165 -226 -243.5t-298 -78.5z" />
    <glyph glyph-name="nacute.loclPLK" horiz-adv-x="1210" 
d="M1069 1556l-261 -378h-301l180 378h382zM851 1124q146 0 233.5 -83.5t87.5 -222.5q0 -48 -9 -100l-126 -718h-409l114 649q4 25 4 54q0 38 -21.5 59t-59.5 21q-61 0 -104.5 -48t-59.5 -139l-106 -596h-409l193 1096h400l-20 -111q110 139 292 139z" />
    <glyph glyph-name="oacute.loclPLK" horiz-adv-x="1247" 
d="M498 1178l180 378h382l-261 -378h-301zM573 -31q-240 0 -388 143t-148 374q0 288 175 464t462 176q240 0 388 -143t148 -374q0 -288 -175 -464t-462 -176zM594 312q64 0 111 42.5t68.5 105.5t21.5 135q0 89 -37 138.5t-105 49.5q-64 0 -110.5 -42t-68 -105t-21.5 -135
q0 -89 36.5 -139t104.5 -50z" />
    <glyph glyph-name="sacute.loclPLK" horiz-adv-x="1144" 
d="M459 1178l180 378h382l-261 -378h-301zM548 -39q-190 0 -336 46.5t-234 127.5l215 257q53 -53 143.5 -82t199.5 -29q67 0 94.5 10.5t27.5 36.5q0 14 -9 23t-46.5 19.5t-109.5 19.5q-391 52 -391 345q0 129 73.5 221t195 135t278.5 43q276 0 469 -142l-203 -256
q-111 78 -280 78q-138 0 -138 -49q0 -13 12.5 -22.5t55 -19.5t119.5 -18q371 -39 371 -332q0 -197 -136.5 -304.5t-370.5 -107.5z" />
    <glyph glyph-name="zacute.loclPLK" horiz-adv-x="1069" 
d="M426 1178l180 378h382l-261 -378h-301zM-16 0l53 302l475 466h-401l57 328h889l-53 -302l-469 -466h423l-57 -328h-917z" />
    <glyph glyph-name="germandbls.sc" horiz-adv-x="1240" 
d="M1233 1157l-49 -279l-230 -187q76 -29 138 -106t62 -196q0 -183 -122 -294t-320 -111q-122 0 -268 30l85 298q93 -22 131 -22q57 0 91 30t34 74q0 57 -55 57q-25 0 -66 -22l-140 225l225 184h-114q-61 0 -101 -38.5t-51 -104.5l-123 -695h-374l136 770q34 191 160.5 289
t337.5 98h613z" />
    <glyph glyph-name="a.ss02" horiz-adv-x="1254" 
d="M859 1096h410l-194 -1096h-381l20 110q-44 -62 -113.5 -101.5t-159.5 -39.5q-183 0 -295 130.5t-112 361.5q0 193 69 345.5t189 236t268 83.5q89 0 164 -34t118 -93zM591 312q94 0 144.5 84t50.5 199q0 90 -34 139t-102 49q-64 0 -110.5 -42t-68 -105t-21.5 -135
q0 -89 36.5 -139t104.5 -50z" />
    <glyph glyph-name="aacute.ss02" horiz-adv-x="1254" 
d="M1120 1556l-320 -378h-314l241 378h393zM859 1096h410l-194 -1096h-381l20 110q-44 -62 -113.5 -101.5t-159.5 -39.5q-183 0 -295 130.5t-112 361.5q0 193 69 345.5t189 236t268 83.5q89 0 164 -34t118 -93zM591 312q94 0 144.5 84t50.5 199q0 90 -34 139t-102 49
q-64 0 -110.5 -42t-68 -105t-21.5 -135q0 -89 36.5 -139t104.5 -50z" />
    <glyph glyph-name="abreve.ss02" horiz-adv-x="1254" 
d="M732 1166q-164 0 -255.5 101.5t-99.5 263.5h254q1 -65 37 -98.5t88 -33.5q55 0 95 35.5t49 96.5h271q-38 -173 -156.5 -269t-282.5 -96zM859 1096h410l-194 -1096h-381l20 110q-44 -62 -113.5 -101.5t-159.5 -39.5q-183 0 -295 130.5t-112 361.5q0 193 69 345.5t189 236
t268 83.5q89 0 164 -34t118 -93zM591 312q94 0 144.5 84t50.5 199q0 90 -34 139t-102 49q-64 0 -110.5 -42t-68 -105t-21.5 -135q0 -89 36.5 -139t104.5 -50z" />
    <glyph glyph-name="acircumflex.ss02" horiz-adv-x="1254" 
d="M748 1327l-123 -149h-331l292 353h367l167 -353h-302zM859 1096h410l-194 -1096h-381l20 110q-44 -62 -113.5 -101.5t-159.5 -39.5q-183 0 -295 130.5t-112 361.5q0 193 69 345.5t189 236t268 83.5q89 0 164 -34t118 -93zM591 312q94 0 144.5 84t50.5 199q0 90 -34 139
t-102 49q-64 0 -110.5 -42t-68 -105t-21.5 -135q0 -89 36.5 -139t104.5 -50z" />
    <glyph glyph-name="adieresis.ss02" horiz-adv-x="1254" 
d="M709 1475l-54 -297h-346l53 297h347zM1147 1475l-53 -297h-346l53 297h346zM859 1096h410l-194 -1096h-381l20 110q-44 -62 -113.5 -101.5t-159.5 -39.5q-183 0 -295 130.5t-112 361.5q0 193 69 345.5t189 236t268 83.5q89 0 164 -34t118 -93zM591 312q94 0 144.5 84
t50.5 199q0 90 -34 139t-102 49q-64 0 -110.5 -42t-68 -105t-21.5 -135q0 -89 36.5 -139t104.5 -50z" />
    <glyph glyph-name="agrave.ss02" horiz-adv-x="1254" 
d="M893 1178h-305l-322 378h385zM859 1096h410l-194 -1096h-381l20 110q-44 -62 -113.5 -101.5t-159.5 -39.5q-183 0 -295 130.5t-112 361.5q0 193 69 345.5t189 236t268 83.5q89 0 164 -34t118 -93zM591 312q94 0 144.5 84t50.5 199q0 90 -34 139t-102 49q-64 0 -110.5 -42
t-68 -105t-21.5 -135q0 -89 36.5 -139t104.5 -50z" />
    <glyph glyph-name="amacron.ss02" horiz-adv-x="1254" 
d="M1067 1475l-42 -236h-626l42 236h626zM859 1096h410l-194 -1096h-381l20 110q-44 -62 -113.5 -101.5t-159.5 -39.5q-183 0 -295 130.5t-112 361.5q0 193 69 345.5t189 236t268 83.5q89 0 164 -34t118 -93zM591 312q94 0 144.5 84t50.5 199q0 90 -34 139t-102 49
q-64 0 -110.5 -42t-68 -105t-21.5 -135q0 -89 36.5 -139t104.5 -50z" />
    <glyph glyph-name="aogonek.ss02" horiz-adv-x="1254" 
d="M931 0q-105 -63 -105 -126q0 -49 74 -49q51 0 100 22l72 -228q-94 -49 -223 -49q-137 0 -218.5 62t-81.5 165q0 125 147 213l18 100q-44 -62 -113.5 -101.5t-159.5 -39.5q-183 0 -295 130.5t-112 361.5q0 193 69 345.5t189 236t268 83.5q89 0 164 -34t118 -93l17 97h410
l-194 -1096h-144zM591 312q94 0 144.5 84t50.5 199q0 90 -34 139t-102 49q-64 0 -110.5 -42t-68 -105t-21.5 -135q0 -89 36.5 -139t104.5 -50z" />
    <glyph glyph-name="aring.ss02" horiz-adv-x="1254" 
d="M708 1172q-115 0 -186.5 72t-71.5 183q0 124 90 206.5t213 82.5q115 0 186 -72.5t71 -183.5q0 -120 -89.5 -204t-212.5 -84zM741 1526q-39 0 -63 -29t-24 -66q0 -30 18 -49t46 -19q36 0 61.5 24.5t25.5 64.5q0 32 -17 53t-47 21zM859 1096h410l-194 -1096h-381l20 110
q-44 -62 -113.5 -101.5t-159.5 -39.5q-183 0 -295 130.5t-112 361.5q0 193 69 345.5t189 236t268 83.5q89 0 164 -34t118 -93zM591 312q94 0 144.5 84t50.5 199q0 90 -34 139t-102 49q-64 0 -110.5 -42t-68 -105t-21.5 -135q0 -89 36.5 -139t104.5 -50z" />
    <glyph glyph-name="aringacute.ss02" horiz-adv-x="1254" 
d="M1193 2139l-321 -379h-313l241 379h393zM708 1172q-115 0 -186.5 72t-71.5 183q0 124 90 206.5t213 82.5q115 0 186 -72.5t71 -183.5q0 -120 -89.5 -204t-212.5 -84zM741 1526q-39 0 -63 -29t-24 -66q0 -30 18 -49t46 -19q36 0 61.5 24.5t25.5 64.5q0 32 -17 53t-47 21z
M859 1096h410l-194 -1096h-381l20 110q-44 -62 -113.5 -101.5t-159.5 -39.5q-183 0 -295 130.5t-112 361.5q0 193 69 345.5t189 236t268 83.5q89 0 164 -34t118 -93zM591 312q94 0 144.5 84t50.5 199q0 90 -34 139t-102 49q-64 0 -110.5 -42t-68 -105t-21.5 -135
q0 -89 36.5 -139t104.5 -50z" />
    <glyph glyph-name="atilde.ss02" horiz-adv-x="1254" 
d="M588 1267q-70 0 -152 -87l-179 222q110 99 182.5 130.5t144.5 31.5q43 0 80 -9t55.5 -18t46.5 -25q57 -31 92 -31q70 0 152 87l179 -222q-110 -99 -182.5 -130.5t-144.5 -31.5q-43 0 -80 8.5t-56 17.5t-46 25q-58 32 -92 32zM859 1096h410l-194 -1096h-381l20 110
q-44 -62 -113.5 -101.5t-159.5 -39.5q-183 0 -295 130.5t-112 361.5q0 193 69 345.5t189 236t268 83.5q89 0 164 -34t118 -93zM591 312q94 0 144.5 84t50.5 199q0 90 -34 139t-102 49q-64 0 -110.5 -42t-68 -105t-21.5 -135q0 -89 36.5 -139t104.5 -50z" />
    <glyph glyph-name="germandbls.ss03" horiz-adv-x="1297" 
d="M932 528q115 -22 189.5 -123.5t74.5 -244.5q0 -448 -638 -549l-63 355q170 26 231.5 73.5t61.5 123.5q0 84 -78 84q-29 0 -53 -11l-127 285l215 247h-214l-136 -768h-409l202 1146q30 169 156.5 264t321.5 95q133 0 256 -40l-93 -287q-58 17 -113 17q-61 0 -89.5 -22
t-36.5 -72l-1 -5h634l-54 -300z" />
    <glyph glyph-name="a.sc" horiz-adv-x="1292" 
d="M793 0l-23 130h-384l-61 -130h-413l608 1157h423l245 -1157h-395zM530 432h188l-50 289z" />
    <glyph glyph-name="aacute.sc" horiz-adv-x="1292" 
d="M1151 1618l-321 -379h-313l241 379h393zM793 0l-23 130h-384l-61 -130h-413l608 1157h423l245 -1157h-395zM530 432h188l-50 289z" />
    <glyph glyph-name="abreve.sc" horiz-adv-x="1292" 
d="M738 1238q-164 0 -255.5 101.5t-99.5 263.5h254q1 -65 37 -99t88 -34q54 0 94.5 36t49.5 97h272q-38 -173 -157 -269t-283 -96zM793 0l-23 130h-384l-61 -130h-413l608 1157h423l245 -1157h-395zM530 432h188l-50 289z" />
    <glyph glyph-name="acircumflex.sc" horiz-adv-x="1292" 
d="M768 1399l-123 -150h-331l292 354h368l167 -354h-302zM793 0l-23 130h-384l-61 -130h-413l608 1157h423l245 -1157h-395zM530 432h188l-50 289z" />
    <glyph glyph-name="adieresis.sc" horiz-adv-x="1292" 
d="M738 1535l-53 -297h-346l53 297h346zM1177 1535l-54 -297h-346l53 297h347zM793 0l-23 130h-384l-61 -130h-413l608 1157h423l245 -1157h-395zM530 432h188l-50 289z" />
    <glyph glyph-name="agrave.sc" horiz-adv-x="1292" 
d="M931 1239h-305l-322 379h385zM793 0l-23 130h-384l-61 -130h-413l608 1157h423l245 -1157h-395zM530 432h188l-50 289z" />
    <glyph glyph-name="amacron.sc" horiz-adv-x="1292" 
d="M1092 1505l-41 -235h-626l41 235h626zM793 0l-23 130h-384l-61 -130h-413l608 1157h423l245 -1157h-395zM530 432h188l-50 289z" />
    <glyph glyph-name="aogonek.sc" horiz-adv-x="1292" 
d="M1141 -153l71 -228q-94 -49 -223 -49q-137 0 -218.5 62t-81.5 165q0 118 131 203h-27l-23 130h-384l-61 -130h-413l608 1157h423l245 -1157h-117q-104 -62 -104 -126q0 -49 73 -49q52 0 101 22zM530 432h188l-50 289z" />
    <glyph glyph-name="aring.sc" horiz-adv-x="1292" 
d="M738 1234q-115 0 -186.5 72t-71.5 183q0 124 90 206.5t213 82.5q115 0 186 -72.5t71 -183.5q0 -120 -89.5 -204t-212.5 -84zM772 1587q-39 0 -63 -29t-24 -66q0 -30 18 -49t46 -19q36 0 61.5 24.5t25.5 64.5q0 32 -17 53t-47 21zM793 0l-23 130h-384l-61 -130h-413
l608 1157h423l245 -1157h-395zM530 432h188l-50 289z" />
    <glyph glyph-name="aringacute.sc" horiz-adv-x="1292" 
d="M1208 1897l-320 -378h-314l241 378h393zM995 1238q0 -75 -40 -137l233 -1101h-395l-23 130h-384l-61 -130h-413l584 1110q-19 48 -19 97q0 115 83 191.5t197 76.5q106 0 172 -67t66 -170zM745 1292q-32 0 -51.5 -24.5t-19.5 -55.5q0 -25 14.5 -40t37.5 -15q30 0 51 20
t21 53q0 27 -14 44.5t-39 17.5zM530 432h188l-50 289z" />
    <glyph glyph-name="atilde.sc" horiz-adv-x="1292" 
d="M618 1328q-69 0 -151 -87l-179 222q110 99 182.5 130.5t143.5 31.5q96 0 183 -51q58 -32 92 -32q69 0 151 87l180 -222q-110 -99 -182.5 -130.5t-144.5 -31.5q-43 0 -80 8.5t-56 17.5t-46 25q-58 32 -93 32zM520 1157h423l245 -1157h-395l-23 130h-384l-61 -130h-413z
M530 432h188l-50 289z" />
    <glyph glyph-name="ae.sc" horiz-adv-x="1896" 
d="M1892 838h-519l-20 -116h467l-51 -285h-466l-21 -118h528l-56 -319h-903l29 161h-386l-120 -161h-462l923 1157h1114zM929 441l69 397l-296 -397h227z" />
    <glyph glyph-name="aeacute.sc" horiz-adv-x="1896" 
d="M1816 1618l-321 -379h-313l240 379h394zM1892 838h-519l-20 -116h467l-51 -285h-466l-21 -118h528l-56 -319h-903l29 161h-386l-120 -161h-462l923 1157h1114zM929 441l69 397l-296 -397h227z" />
    <glyph glyph-name="b.sc" horiz-adv-x="1195" 
d="M963 571q70 -30 106.5 -84t36.5 -122q0 -166 -125.5 -265.5t-326.5 -99.5h-653l204 1157h580q168 0 274.5 -81t106.5 -206q0 -210 -203 -299zM694 705q38 0 65.5 24t27.5 55q0 24 -16.5 40t-43.5 16h-204l-23 -135h194zM624 317q44 0 73.5 23.5t29.5 57.5
q0 26 -16.5 42.5t-45.5 16.5h-209l-25 -140h193z" />
    <glyph glyph-name="c.sc" horiz-adv-x="1251" 
d="M617 -29q-255 0 -410.5 147.5t-155.5 392.5q0 190 85 344t238.5 243t345.5 89q188 0 322 -84t198 -238l-321 -157q-41 77 -86.5 108.5t-119.5 31.5q-127 0 -201 -99.5t-74 -234.5q0 -93 55 -148.5t149 -55.5q139 0 216 161l325 -167q-110 -178 -242.5 -255.5
t-323.5 -77.5z" />
    <glyph glyph-name="cacute.sc" horiz-adv-x="1251" 
d="M517 1239l241 379h393l-321 -379h-313zM617 -29q-255 0 -410.5 147.5t-155.5 392.5q0 190 85 344t238.5 243t345.5 89q188 0 322 -84t198 -238l-321 -157q-41 77 -86.5 108.5t-119.5 31.5q-127 0 -201 -99.5t-74 -234.5q0 -93 55 -148.5t149 -55.5q139 0 216 161
l325 -167q-110 -178 -242.5 -255.5t-323.5 -77.5z" />
    <glyph glyph-name="ccaron.sc" horiz-adv-x="1251" 
d="M921 1249h-368l-167 354h302l71 -150l123 150h330zM642 310q139 0 216 161l325 -167q-110 -178 -242.5 -255.5t-323.5 -77.5q-255 0 -410.5 147.5t-155.5 392.5q0 190 85 344t238.5 243t345.5 89q188 0 322 -84t198 -238l-321 -157q-41 77 -86.5 108.5t-119.5 31.5
q-127 0 -201 -99.5t-74 -234.5q0 -93 55 -148.5t149 -55.5z" />
    <glyph glyph-name="ccedilla.sc" horiz-adv-x="1251" 
d="M642 310q139 0 216 161l325 -167q-87 -139 -184 -215t-223 -102l-165 -366h-331l166 370q-183 45 -289 183t-106 337q0 190 85 344t238.5 243t345.5 89q188 0 322 -84t198 -238l-321 -157q-41 77 -86.5 108.5t-119.5 31.5q-127 0 -201 -99.5t-74 -234.5q0 -93 55 -148.5
t149 -55.5z" />
    <glyph glyph-name="ccircumflex.sc" horiz-adv-x="1251" 
d="M768 1399l-123 -150h-331l292 354h368l167 -354h-302zM642 310q139 0 216 161l325 -167q-110 -178 -242.5 -255.5t-323.5 -77.5q-255 0 -410.5 147.5t-155.5 392.5q0 190 85 344t238.5 243t345.5 89q188 0 322 -84t198 -238l-321 -157q-41 77 -86.5 108.5t-119.5 31.5
q-127 0 -201 -99.5t-74 -234.5q0 -93 55 -148.5t149 -55.5z" />
    <glyph glyph-name="cdotaccent.sc" horiz-adv-x="1251" 
d="M523 1239l54 297h417l-53 -297h-418zM617 -29q-255 0 -410.5 147.5t-155.5 392.5q0 190 85 344t238.5 243t345.5 89q188 0 322 -84t198 -238l-321 -157q-41 77 -86.5 108.5t-119.5 31.5q-127 0 -201 -99.5t-74 -234.5q0 -93 55 -148.5t149 -55.5q139 0 216 161l325 -167
q-110 -178 -242.5 -255.5t-323.5 -77.5z" />
    <glyph glyph-name="d.sc" horiz-adv-x="1283" 
d="M677 1157q256 0 410 -140t154 -383q0 -189 -85.5 -333.5t-237 -222.5t-345.5 -78h-572l204 1157h472zM580 330q127 0 200.5 87.5t73.5 211.5q0 98 -51.5 148t-140.5 50h-141l-87 -497h146z" />
    <glyph glyph-name="eth.sc" horiz-adv-x="1295" 
d="M689 1157q256 0 410 -140t154 -383q0 -189 -85 -333.5t-236.5 -222.5t-345.5 -78h-573l77 435h-109l50 287h109l77 435h472zM592 330q127 0 200.5 87.5t73.5 211.5q0 98 -51.5 148t-140.5 50h-140l-19 -105h166l-50 -287h-166l-19 -105h146z" />
    <glyph glyph-name="dcaron.sc" horiz-adv-x="1283" 
d="M867 1249h-367l-167 354h302l71 -150l122 150h331zM677 1157q256 0 410 -140t154 -383q0 -189 -85.5 -333.5t-237 -222.5t-345.5 -78h-572l204 1157h472zM580 330q127 0 200.5 87.5t73.5 211.5q0 98 -51.5 148t-140.5 50h-141l-87 -497h146z" />
    <glyph glyph-name="dcroat.sc" horiz-adv-x="1295" 
d="M689 1157q256 0 410 -140t154 -383q0 -189 -85 -333.5t-236.5 -222.5t-345.5 -78h-573l77 435h-109l50 287h109l77 435h472zM592 330q127 0 200.5 87.5t73.5 211.5q0 98 -51.5 148t-140.5 50h-140l-19 -105h166l-50 -287h-166l-19 -105h146z" />
    <glyph glyph-name="e.sc" horiz-adv-x="1082" 
d="M1080 838h-557l-20 -115h499l-50 -287h-499l-21 -117h564l-56 -319h-939l204 1157h932z" />
    <glyph glyph-name="eacute.sc" horiz-adv-x="1082" 
d="M1107 1618l-321 -379h-313l241 379h393zM1080 838h-557l-20 -115h499l-50 -287h-499l-21 -117h564l-56 -319h-939l204 1157h932z" />
    <glyph glyph-name="ebreve.sc" horiz-adv-x="1082" 
d="M694 1238q-164 0 -255.5 101.5t-99.5 263.5h254q1 -65 37 -99t88 -34q54 0 94.5 36t49.5 97h272q-38 -173 -157 -269t-283 -96zM1080 838h-557l-20 -115h499l-50 -287h-499l-21 -117h564l-56 -319h-939l204 1157h932z" />
    <glyph glyph-name="ecaron.sc" horiz-adv-x="1082" 
d="M877 1249h-368l-167 354h302l71 -150l123 150h330zM1137 1157l-57 -319h-557l-20 -115h499l-50 -287h-499l-21 -117h564l-56 -319h-939l204 1157h932z" />
    <glyph glyph-name="ecircumflex.sc" horiz-adv-x="1082" 
d="M724 1399l-123 -150h-331l292 354h368l167 -354h-302zM1080 838h-557l-20 -115h499l-50 -287h-499l-21 -117h564l-56 -319h-939l204 1157h932z" />
    <glyph glyph-name="edieresis.sc" horiz-adv-x="1082" 
d="M694 1535l-53 -297h-346l53 297h346zM1133 1535l-54 -297h-346l53 297h347zM1080 838h-557l-20 -115h499l-50 -287h-499l-21 -117h564l-56 -319h-939l204 1157h932z" />
    <glyph glyph-name="edotaccent.sc" horiz-adv-x="1082" 
d="M950 1536l-53 -297h-418l53 297h418zM1080 838h-557l-20 -115h499l-50 -287h-499l-21 -117h564l-56 -319h-939l204 1157h932z" />
    <glyph glyph-name="egrave.sc" horiz-adv-x="1082" 
d="M887 1239h-305l-322 379h385zM1080 838h-557l-20 -115h499l-50 -287h-499l-21 -117h564l-56 -319h-939l204 1157h932z" />
    <glyph glyph-name="emacron.sc" horiz-adv-x="1082" 
d="M1048 1505l-41 -235h-626l41 235h626zM1080 838h-557l-20 -115h499l-50 -287h-499l-21 -117h564l-56 -319h-939l204 1157h932z" />
    <glyph glyph-name="eogonek.sc" horiz-adv-x="1082" 
d="M1080 838h-557l-20 -115h499l-50 -287h-499l-21 -117h564l-56 -319h-117q-104 -62 -104 -126q0 -49 74 -49q51 0 100 22l72 -228q-95 -49 -224 -49q-137 0 -218.5 62t-81.5 165q0 118 131 203h-571l204 1157h932z" />
    <glyph glyph-name="uni0259.sc" horiz-adv-x="1282" 
d="M676 1187q255 0 409.5 -148t154.5 -393q0 -191 -78 -344t-225 -242t-338 -89q-248 0 -398.5 150.5t-150.5 396.5q0 85 28 185h773q-17 68 -68 106.5t-123 38.5q-142 0 -236 -105l-263 231q172 213 515 213zM605 310q153 0 219 152h-393q22 -152 174 -152z" />
    <glyph glyph-name="f.sc" horiz-adv-x="1079" 
d="M1097 838h-574l-22 -128h482l-54 -308h-483l-70 -402h-375l204 1157h948z" />
    <glyph glyph-name="g.sc" horiz-adv-x="1264" 
d="M711 681h500l-119 -681h-297l15 90q-92 -118 -261 -118q-223 0 -360.5 148.5t-137.5 390.5q0 190 85 344t238.5 243t345.5 89q172 0 297.5 -74.5t190.5 -206.5l-306 -174q-42 64 -85.5 90t-111.5 26q-81 0 -143.5 -49t-93 -124t-30.5 -161q0 -92 56 -151.5t147 -59.5
q64 0 121.5 30.5t81.5 79.5l3 6h-182z" />
    <glyph glyph-name="uni01F5.sc" horiz-adv-x="1264" 
d="M1154 1618l-320 -379h-314l241 379h393zM711 681h500l-119 -681h-297l15 90q-92 -118 -261 -118q-223 0 -360.5 148.5t-137.5 390.5q0 190 85 344t238.5 243t345.5 89q172 0 297.5 -74.5t190.5 -206.5l-306 -174q-42 64 -85.5 90t-111.5 26q-81 0 -143.5 -49t-93 -124
t-30.5 -161q0 -92 56 -151.5t147 -59.5q64 0 121.5 30.5t81.5 79.5l3 6h-182z" />
    <glyph glyph-name="gbreve.sc" horiz-adv-x="1264" 
d="M741 1238q-164 0 -255.5 101.5t-99.5 263.5h254q1 -65 37 -99t88 -34q54 0 94.5 36t49.5 97h272q-38 -173 -157 -269t-283 -96zM711 681h500l-119 -681h-297l15 90q-92 -118 -261 -118q-223 0 -360.5 148.5t-137.5 390.5q0 190 85 344t238.5 243t345.5 89
q172 0 297.5 -74.5t190.5 -206.5l-306 -174q-42 64 -85.5 90t-111.5 26q-81 0 -143.5 -49t-93 -124t-30.5 -161q0 -92 56 -151.5t147 -59.5q64 0 121.5 30.5t81.5 79.5l3 6h-182z" />
    <glyph glyph-name="gcircumflex.sc" horiz-adv-x="1264" 
d="M771 1399l-123 -150h-331l292 354h368l167 -354h-302zM711 681h500l-119 -681h-297l15 90q-92 -118 -261 -118q-223 0 -360.5 148.5t-137.5 390.5q0 190 85 344t238.5 243t345.5 89q172 0 297.5 -74.5t190.5 -206.5l-306 -174q-42 64 -85.5 90t-111.5 26
q-81 0 -143.5 -49t-93 -124t-30.5 -161q0 -92 56 -151.5t147 -59.5q64 0 121.5 30.5t81.5 79.5l3 6h-182z" />
    <glyph glyph-name="uni0123.sc" horiz-adv-x="1264" 
d="M711 681h500l-119 -681h-297l15 90q-92 -118 -261 -118q-223 0 -360.5 148.5t-137.5 390.5q0 190 85 344t238.5 243t345.5 89q172 0 297.5 -74.5t190.5 -206.5l-306 -174q-42 64 -85.5 90t-111.5 26q-81 0 -143.5 -49t-93 -124t-30.5 -161q0 -92 56 -151.5t147 -59.5
q64 0 121.5 30.5t81.5 79.5l3 6h-182zM343 -302l41 230h319l-41 -237q-13 -76 -67 -126.5t-161 -96.5l-68 119q60 26 95.5 51t46.5 60h-165z" />
    <glyph glyph-name="gdotaccent.sc" horiz-adv-x="1264" 
d="M997 1536l-53 -297h-418l54 297h417zM711 681h500l-119 -681h-297l15 90q-92 -118 -261 -118q-223 0 -360.5 148.5t-137.5 390.5q0 190 85 344t238.5 243t345.5 89q172 0 297.5 -74.5t190.5 -206.5l-306 -174q-42 64 -85.5 90t-111.5 26q-81 0 -143.5 -49t-93 -124
t-30.5 -161q0 -92 56 -151.5t147 -59.5q64 0 121.5 30.5t81.5 79.5l3 6h-182z" />
    <glyph glyph-name="h.sc" horiz-adv-x="1301" 
d="M937 1157h375l-204 -1157h-375l74 421h-357l-74 -421h-375l204 1157h375l-72 -406h357z" />
    <glyph glyph-name="hbar.sc" horiz-adv-x="1309" 
d="M1397 1072l-42 -235h-98l-147 -837h-375l74 421h-357l-74 -421h-375l148 837h-95l42 235h93l16 85h375l-17 -95h358l16 95h375l-16 -85h99zM510 751h357l18 96h-358z" />
    <glyph glyph-name="hcircumflex.sc" horiz-adv-x="1301" 
d="M804 1399l-123 -150h-331l292 354h368l167 -354h-303zM937 1157h375l-204 -1157h-375l74 421h-357l-74 -421h-375l204 1157h375l-72 -406h357z" />
    <glyph glyph-name="i.sc" horiz-adv-x="569" 
d="M1 0l204 1157h375l-204 -1157h-375z" />
    <glyph glyph-name="iacute.sc" horiz-adv-x="569" 
d="M193 1239l240 379h393l-320 -379h-313zM1 0l204 1157h375l-204 -1157h-375z" />
    <glyph glyph-name="ibreve.sc" horiz-adv-x="569" 
d="M414 1238q-164 0 -256 101.5t-100 263.5h254q1 -65 37 -99t88 -34q55 0 95.5 36t49.5 97h271q-38 -173 -156.5 -269t-282.5 -96zM1 0l204 1157h375l-204 -1157h-375z" />
    <glyph glyph-name="icircumflex.sc" horiz-adv-x="569" 
d="M443 1399l-122 -150h-331l292 354h367l167 -354h-302zM1 0l204 1157h375l-204 -1157h-375z" />
    <glyph glyph-name="idieresis.sc" horiz-adv-x="631" 
d="M45 1238l53 297h346l-53 -297h-346zM483 1238l54 297h346l-54 -297h-346zM32 0l204 1157h374l-203 -1157h-375z" />
    <glyph glyph-name="i.sc.loclTRK" horiz-adv-x="569" 
d="M199 1239l53 297h418l-54 -297h-417zM1 0l204 1157h375l-204 -1157h-375z" />
    <glyph glyph-name="igrave.sc" horiz-adv-x="569" 
d="M301 1239l-321 379h385l241 -379h-305zM1 0l204 1157h375l-204 -1157h-375z" />
    <glyph glyph-name="ij.sc" horiz-adv-x="1587" 
d="M1 0l204 1157h375l-204 -1157h-375zM976 -31q-155 0 -259 67t-171 206l309 169q42 -111 130 -111q53 0 83 37t44 114l126 706h375l-136 -771q-73 -417 -501 -417z" />
    <glyph glyph-name="imacron.sc" horiz-adv-x="569" 
d="M100 1270l41 235h626l-41 -235h-626zM1 0l204 1157h375l-204 -1157h-375z" />
    <glyph glyph-name="iogonek.sc" horiz-adv-x="569" 
d="M249 -175q51 0 100 22l72 -228q-94 -49 -223 -49q-137 0 -218.5 62t-81.5 165q0 118 131 203h-28l204 1157h375l-204 -1157h-96q-105 -63 -105 -126q0 -49 74 -49z" />
    </font>
</defs>
</svg>
