<?xml version="1.0" standalone="no"?>
<!DOCTYPE svg PUBLIC "-//W3C//DTD SVG 1.1//EN" "http://www.w3.org/Graphics/SVG/1.1/DTD/svg11.dtd" >
<svg xmlns="http://www.w3.org/2000/svg" xmlns:xlink="http://www.w3.org/1999/xlink" version="1.1">
<metadata>
Created by FontForge 20170731 at Sat Dec  5 06:59:55 2020
 By Aleksey,,,
Copyright (c) 2019 Monotype Imaging Inc. All rights reserved.
</metadata>
<defs>
<font id="Infra-ExtraLight" horiz-adv-x="1228" >
  <font-face 
    font-family="Infra ExtraLight"
    font-weight="300"
    font-stretch="normal"
    units-per-em="2048"
    panose-1="2 11 3 0 0 0 0 2 0 0"
    ascent="1582"
    descent="-466"
    x-height="1049"
    cap-height="1475"
    bbox="-922 -570 2585 2159"
    underline-thickness="66"
    underline-position="-332"
    unicode-range="U+000D-FEFF"
  />
<missing-glyph horiz-adv-x="1175" 
d="M216 0v1475h743v-1475h-743zM284 63h609v1348h-609v-1348z" />
    <glyph glyph-name="fi" unicode="fi" horiz-adv-x="1108" 
d="M621 1420q-184 0 -184 -248v-123h284v-67h-284v-982h-71v982h-172v67h172v147q0 141 70.5 217.5t184.5 76.5q52 0 112 -20l-20 -63q-58 13 -92 13zM842 1475h80v-168h-80v168zM846 0v1049h72v-1049h-72z" />
    <glyph glyph-name="fl" unicode="fl" horiz-adv-x="1108" 
d="M621 1420q-184 0 -184 -248v-123h284v-67h-284v-982h-71v982h-172v67h172v147q0 141 70.5 217.5t184.5 76.5q52 0 112 -20l-20 -63q-58 13 -92 13zM844 1475h71v-1475h-71v1475z" />
    <glyph glyph-name="f_f" unicode="ff" horiz-adv-x="1247" 
d="M915 1172v-123h284v-67h-284v-982h-71v982h-526v-982h-71v982h-172v67h172v147q0 141 70.5 217t185.5 76q48 0 111 -18l-20 -63q-48 12 -92 12q-184 0 -184 -248v-123h526v147q0 141 70.5 217t184.5 76q47 0 112 -18l-20 -63q-48 12 -92 12q-184 0 -184 -248z" />
    <glyph glyph-name="f_f_i" unicode="ffi" horiz-adv-x="1831" 
d="M1218 1420q-184 0 -184 -248v-123h284v-67h-284v-982h-71v982h-526v-982h-71v982h-172v67h172v147q0 141 71 217.5t185 76.5q51 0 111 -20l-20 -62q-48 12 -92 12q-184 0 -184 -248v-123h526v147q0 141 70.5 217.5t184.5 76.5q52 0 112 -20l-21 -62q-48 12 -91 12z
M1562 1475h79v-168h-79v168zM1566 0v1049h71v-1049h-71z" />
    <glyph glyph-name="f_f_l" unicode="ffl" horiz-adv-x="1828" 
d="M1218 1420q-184 0 -184 -248v-123h284v-67h-284v-982h-71v982h-526v-982h-71v982h-172v67h172v147q0 141 71 217.5t185 76.5q51 0 111 -20l-20 -62q-48 12 -92 12q-184 0 -184 -248v-123h526v147q0 141 70.5 217.5t184.5 76.5q52 0 112 -20l-21 -62q-48 12 -91 12z
M1565 1475h71v-1475h-71v1475z" />
    <glyph glyph-name=".notdef" horiz-adv-x="1175" 
d="M216 0v1475h743v-1475h-743zM284 63h609v1348h-609v-1348z" />
    <glyph glyph-name=".null" horiz-adv-x="0" 
 />
    <glyph glyph-name="nonmarkingreturn" horiz-adv-x="682" 
 />
    <glyph glyph-name="NULL" horiz-adv-x="0" 
 />
    <glyph glyph-name="NULL" horiz-adv-x="0" 
 />
    <glyph glyph-name="CR" unicode="&#xd;" horiz-adv-x="534" 
 />
    <glyph glyph-name="space" unicode=" " horiz-adv-x="534" 
 />
    <glyph glyph-name="exclam" unicode="!" horiz-adv-x="526" 
d="M238 342l-15 613v520h79v-520l-13 -613h-51zM216 0v168h93v-168h-93z" />
    <glyph glyph-name="quotedbl" unicode="&#x22;" horiz-adv-x="745" 
d="M186 1079v396h72v-396h-72zM487 1079v396h73v-396h-73z" />
    <glyph glyph-name="numbersign" unicode="#" horiz-adv-x="1557" 
d="M1406 981h-245l-102 -487h245l-14 -68h-244l-90 -426h-70l89 426h-520l-89 -426h-71l89 426h-246l14 68h245l103 487h-246l13 68h246l89 426h71l-89 -426h520l89 426h71l-89 -426h245zM988 494l103 487h-521l-102 -487h520z" />
    <glyph glyph-name="dollar" unicode="$" horiz-adv-x="1291" 
d="M1157 374q0 -173 -127 -277t-346 -111v-154h-72v155q-173 9 -301.5 88.5t-186.5 213.5l69 34q47 -116 157.5 -186t261.5 -80v645q-74 12 -133.5 28t-120 45.5t-101 68.5t-66 99t-25.5 135q0 156 122 253.5t324 105.5v154h72v-155q159 -9 283.5 -82t182.5 -192l-70 -32
q-49 100 -154.5 163t-241.5 72v-600q57 -10 100 -20t94.5 -26.5t89.5 -36.5t75.5 -49.5t61 -65.5t38 -85t14.5 -108zM244 1078q0 -71 29 -124t83.5 -87t114.5 -54.5t141 -35.5v588q-166 -6 -267 -84.5t-101 -202.5zM684 56q184 7 289.5 92t105.5 225q0 62 -22 111.5
t-56.5 82t-89 57.5t-106.5 39t-121 27v-634z" />
    <glyph glyph-name="percent" unicode="%" horiz-adv-x="1916" 
d="M478 702q-151 0 -242.5 102t-91.5 265t91.5 265t242.5 102t242.5 -102t91.5 -265t-91.5 -265t-242.5 -102zM470 0l909 1423h71l-909 -1423h-71zM478 766q121 0 194 84.5t73 218.5t-73 219t-194 85t-193.5 -85t-72.5 -219t72.5 -218.5t193.5 -84.5zM1439 -12
q-151 0 -242.5 101.5t-91.5 264.5t91.5 265t242.5 102t242.5 -102t91.5 -265t-91.5 -264.5t-242.5 -101.5zM1439 50q121 0 193.5 85t72.5 219t-72.5 218.5t-193.5 84.5t-194 -84.5t-73 -218.5t73 -219t194 -85z" />
    <glyph glyph-name="ampersand" unicode="&#x26;" horiz-adv-x="1380" 
d="M1285 0h-92l-138 160q-169 -172 -437 -172q-134 0 -238 42.5t-166 132t-62 215.5q0 67 18 124.5t46.5 99.5t75 82.5t90 68.5t105.5 61q-42 46 -57.5 64t-50.5 63.5t-50 77t-29 78.5t-14 94q0 127 92 211.5t242 84.5q148 0 238 -82.5t90 -205.5q0 -111 -84.5 -209
t-258.5 -196l448 -523q82 111 125 275l72 -17q-51 -193 -148 -315zM618 1416q-114 0 -184 -65.5t-70 -165.5q0 -44 13.5 -85.5t39 -80.5t54.5 -73.5t69 -78.5q11 -11 16 -17q160 85 236.5 168.5t76.5 176.5t-68.5 157t-182.5 64zM617 58q236 0 389 158l-468 540
q-63 -35 -104 -61.5t-83.5 -62.5t-66.5 -71.5t-39 -82.5t-15 -102q0 -105 54 -178.5t139.5 -106.5t193.5 -33z" />
    <glyph glyph-name="quotesingle" unicode="'" horiz-adv-x="444" 
d="M186 1079v396h72v-396h-72z" />
    <glyph glyph-name="parenleft" unicode="(" horiz-adv-x="634" 
d="M515 -284q-380 398 -380 933q0 272 94 501.5t286 431.5l52 -45q-182 -195 -269.5 -413t-87.5 -475q0 -258 87.5 -476t269.5 -413z" />
    <glyph glyph-name="parenright" unicode=")" horiz-adv-x="634" 
d="M120 -284l-52 44q182 195 269.5 413.5t87.5 475.5q0 256 -87.5 474.5t-269.5 413.5l52 45q192 -202 285.5 -431.5t93.5 -501.5t-93.5 -502t-285.5 -431z" />
    <glyph glyph-name="asterisk" unicode="*" horiz-adv-x="654" 
d="M196 982l-51 36l131 186l-205 56l16 59l209 -55v211h62v-211l209 55l17 -59l-206 -56l131 -186l-50 -36l-131 186z" />
    <glyph glyph-name="plus" unicode="+" 
d="M1042 605v-67h-392v-379h-71v379h-393v67h393v379h71v-379h392z" />
    <glyph glyph-name="comma" unicode="," horiz-adv-x="468" 
d="M186 169h97v-174q0 -95 -22.5 -144.5t-78.5 -91.5l-32 36q50 38 66 81t16 124h-46v169z" />
    <glyph glyph-name="hyphen" unicode="-" horiz-adv-x="828" 
d="M165 538v67h500v-67h-500z" />
    <glyph glyph-name="period" unicode="." horiz-adv-x="468" 
d="M186 0v169h97v-169h-97z" />
    <glyph glyph-name="slash" unicode="/" horiz-adv-x="874" 
d="M32 -215l754 1823h67l-752 -1823h-69z" />
    <glyph glyph-name="zero" unicode="0" horiz-adv-x="1294" 
d="M647 -14q-157 0 -271.5 92.5t-173 255.5t-58.5 378t58.5 378t173 255.5t271.5 92.5t271.5 -92.5t173 -255.5t58.5 -378t-58.5 -378t-173 -255.5t-271.5 -92.5zM647 56q133 0 230 84t146 231t49 341t-49 341t-146 230.5t-230 83.5t-230 -83.5t-146.5 -230.5t-49.5 -341
t49.5 -341t146.5 -231t230 -84z" />
    <glyph glyph-name="one" unicode="1" horiz-adv-x="898" 
d="M589 1423v-1423h-75v1320l-300 -272l-44 55l354 320h65z" />
    <glyph glyph-name="two" unicode="2" horiz-adv-x="1143" 
d="M227 70h789v-70h-899v63l506 528q64 67 104 114.5t83.5 111.5t64.5 128.5t21 131.5q0 129 -88.5 209.5t-236.5 80.5q-145 0 -241.5 -81t-125.5 -235l-72 14q33 182 151 278t290 96q180 0 290 -99.5t110 -262.5q0 -79 -23 -152.5t-70.5 -144t-88 -118t-107.5 -118.5z" />
    <glyph glyph-name="three" unicode="3" horiz-adv-x="1169" 
d="M764 738q116 -31 188.5 -126t72.5 -226q0 -185 -118 -293t-320 -108q-181 0 -303.5 83.5t-173.5 233.5l68 28q41 -130 147.5 -202t263.5 -72q164 0 261 89t97 241q0 144 -98.5 229t-255.5 85h-88v69h74q147 0 237.5 76t90.5 211q0 146 -86.5 228.5t-236.5 82.5
q-143 0 -239.5 -72t-133.5 -203l-72 23q46 153 161 238.5t281 85.5q188 0 296.5 -101.5t108.5 -278.5q0 -113 -58 -198.5t-164 -122.5z" />
    <glyph glyph-name="four" unicode="4" horiz-adv-x="1178" 
d="M1113 402v-69h-220v-333h-75v333h-736v63l725 1027h86v-1021h220zM173 402h645v922z" />
    <glyph glyph-name="five" unicode="5" horiz-adv-x="1178" 
d="M609 916q198 0 318.5 -127t120.5 -336q0 -207 -126.5 -337.5t-336.5 -130.5q-155 0 -281.5 75.5t-182.5 212.5l67 33q43 -115 152 -182.5t245 -67.5q176 0 280.5 110.5t104.5 286.5q0 177 -101.5 285t-267.5 108q-120 0 -210.5 -45.5t-144.5 -129.5h-72l86 752h714v-69
h-651l-67 -578q138 140 353 140z" />
    <glyph glyph-name="six" unicode="6" horiz-adv-x="1197" 
d="M624 908q200 0 320.5 -128t120.5 -333q0 -203 -120 -332.5t-327 -129.5q-150 0 -264.5 84.5t-164.5 227.5q-45 129 -45 367q0 384 130 579.5t376 195.5q130 0 233.5 -63t162.5 -185l-64 -34q-50 103 -136.5 156.5t-194.5 53.5q-99 0 -176 -41.5t-123.5 -106t-76.5 -153.5
t-42 -174t-13 -178q0 -35 1 -61q41 108 148 181.5t255 73.5zM620 57q166 0 267 107.5t101 280.5q0 175 -101.5 284t-268.5 109q-91 0 -165 -34t-119.5 -90.5t-69.5 -125.5t-24 -143q0 -97 45.5 -185t134.5 -145.5t200 -57.5z" />
    <glyph glyph-name="seven" unicode="7" horiz-adv-x="1068" 
d="M85 1423h910v-63q-196 -249 -303.5 -448t-157.5 -413t-54 -499h-79q5 280 51 487.5t153 412t303 454.5h-823v69z" />
    <glyph glyph-name="eight" unicode="8" horiz-adv-x="1253" 
d="M627 -14q-221 0 -352 107.5t-131 287.5q0 136 81.5 227.5t213.5 122.5q-117 36 -183.5 123.5t-66.5 204.5q0 171 120.5 275t317.5 104t317 -104t120 -275q0 -117 -66.5 -204.5t-183.5 -123.5q132 -31 213.5 -122.5t81.5 -227.5q0 -180 -130.5 -287.5t-351.5 -107.5z
M627 760q162 0 260.5 83t98.5 214q0 142 -98 228t-261 86t-261.5 -86t-98.5 -228q0 -131 99 -214t261 -83zM627 52q185 0 294.5 90t109.5 241q0 146 -111 229.5t-293 83.5t-293.5 -83.5t-111.5 -229.5q0 -150 110 -240.5t295 -90.5z" />
    <glyph glyph-name="nine" unicode="9" horiz-adv-x="1196" 
d="M1002 1143q50 -131 50 -381q0 -385 -128 -582t-357 -197q-138 0 -247.5 71t-168.5 199l63 35q51 -111 143.5 -173t209.5 -62q193 0 301 181.5t108 492.5v51q-42 -110 -147.5 -179t-254.5 -69q-199 0 -320.5 126.5t-121.5 327.5q0 199 120 326.5t325 127.5q154 0 263 -78
t162 -217zM578 601q92 0 166 32.5t119.5 87t69.5 122.5t24 142q0 99 -46 185.5t-134.5 141.5t-199.5 55q-166 0 -267 -105.5t-101 -276.5q0 -172 101 -278t268 -106z" />
    <glyph glyph-name="colon" unicode=":" horiz-adv-x="468" 
d="M186 880v169h97v-169h-97zM186 0v169h97v-169h-97z" />
    <glyph glyph-name="semicolon" unicode=";" horiz-adv-x="468" 
d="M186 1049h97v-169h-97v169zM186 0v169h97v-174q0 -95 -22.5 -144.5t-78.5 -91.5l-32 36q50 38 66 81t16 124h-46z" />
    <glyph glyph-name="less" unicode="&#x3c;" 
d="M1042 151l-856 432v73l856 427v-78l-783 -385l783 -392v-77z" />
    <glyph glyph-name="equal" unicode="=" 
d="M186 783v67h856v-67h-856zM186 355v68h856v-68h-856z" />
    <glyph glyph-name="greater" unicode="&#x3e;" 
d="M186 151v77l784 392l-784 385v78l856 -427v-73z" />
    <glyph glyph-name="question" unicode="?" horiz-adv-x="1054" 
d="M429 343v141q0 49 8 90.5t26 76t35 59.5t47.5 52t50 41.5t55.5 40.5q208 147 208 312q0 118 -86 190t-231 72q-146 0 -243 -71.5t-131 -200.5l-70 17q42 154 156.5 239t287.5 85q178 0 285.5 -93t107.5 -238q0 -204 -224 -359q-42 -29 -63.5 -45.5t-54.5 -48.5t-49 -60.5
t-29 -72t-13 -94.5v-133h-73zM418 0v169h96v-169h-96z" />
    <glyph glyph-name="at" unicode="@" horiz-adv-x="2076" 
d="M1038 1413q189 0 354 -65t280.5 -177.5t182 -268t66.5 -331.5q0 -235 -82.5 -361t-227.5 -126q-95 0 -162 55t-87 158q-42 -94 -140 -153.5t-215 -59.5q-183 0 -298 127.5t-115 329.5q0 201 114.5 328t296.5 127q110 0 205 -52.5t141 -139.5v176h71v-562
q0 -135 51.5 -200t143.5 -65q111 0 171.5 107t60.5 308q0 163 -61 307t-167.5 247.5t-258 164t-324.5 60.5q-174 0 -324.5 -61.5t-257.5 -169t-168 -259.5t-61 -327t61 -326.5t168 -259t257.5 -168.5t324.5 -61q270 0 462 147l41 -58q-207 -155 -503 -155
q-253 0 -454.5 112.5t-314.5 313.5t-113 455t113 455.5t314.5 314.5t454.5 113zM1012 154q151 0 246.5 108t95.5 279q0 170 -95.5 278t-246.5 108q-155 0 -249 -106t-94 -280q0 -175 94 -281t249 -106z" />
    <glyph glyph-name="A" unicode="A" horiz-adv-x="1400" 
d="M1240 0l-184 470h-712l-184 -470h-83l581 1475h83l583 -1475h-84zM373 542h654l-327 834z" />
    <glyph glyph-name="B" unicode="B" horiz-adv-x="1392" 
d="M969 762q118 -33 194 -131.5t76 -239.5q0 -183 -108 -287t-300 -104h-615v1475h589q187 0 292 -100.5t105 -272.5q0 -119 -66 -211.5t-167 -128.5zM293 1403v-610h512q130 0 224 86t94 220q0 138 -85.5 221t-236.5 83h-508zM828 72q156 0 244 86.5t88 237.5
q0 144 -97 234.5t-235 90.5h-535v-649h535z" />
    <glyph glyph-name="C" unicode="C" horiz-adv-x="1451" 
d="M790 -15q-298 0 -477 207t-179 549q0 339 177.5 544t475.5 205q182 0 320 -84t223 -250l-66 -32q-74 145 -196 219.5t-281 74.5q-260 0 -417.5 -185.5t-157.5 -491.5q0 -310 159.5 -497t420.5 -187q169 0 285.5 78t186.5 238l67 -29q-84 -185 -216 -272t-325 -87z" />
    <glyph glyph-name="D" unicode="D" horiz-adv-x="1460" 
d="M682 1475q290 0 467 -201t177 -538q0 -336 -177 -536t-467 -200h-466v1475h466zM672 72q262 0 418.5 180.5t156.5 483.5q0 304 -156.5 485.5t-418.5 181.5h-379v-1331h379z" />
    <glyph glyph-name="E" unicode="E" horiz-adv-x="1276" 
d="M216 0v1475h948v-72h-870v-619h803v-71h-803v-641h878v-72h-956z" />
    <glyph glyph-name="F" unicode="F" horiz-adv-x="1220" 
d="M1152 1403h-858v-626h757v-71h-757v-706h-78v1475h936v-72z" />
    <glyph glyph-name="G" unicode="G" horiz-adv-x="1510" 
d="M799 728h541v-728h-71v275q-51 -125 -178.5 -207.5t-298.5 -82.5q-301 0 -479.5 206t-178.5 549q0 223 81 393t231 263.5t349 93.5q167 0 303.5 -73.5t222.5 -210.5l-65 -39q-74 122 -192.5 186t-269.5 64q-261 0 -421.5 -185.5t-160.5 -491.5q0 -308 160.5 -495.5
t420.5 -187.5q215 0 345.5 139.5t130.5 344.5v115h-470v72z" />
    <glyph glyph-name="H" unicode="H" horiz-adv-x="1511" 
d="M1219 1475h76v-1475h-76v711h-926v-711h-77v1475h77v-693h926v693z" />
    <glyph glyph-name="I" unicode="I" horiz-adv-x="509" 
d="M216 0v1475h78v-1475h-78z" />
    <glyph glyph-name="J" unicode="J" horiz-adv-x="1081" 
d="M498 -12q-290 0 -405 264l65 31q96 -225 338 -225q146 0 227 92t81 252v1073h76v-1079q0 -187 -103 -297.5t-279 -110.5z" />
    <glyph glyph-name="K" unicode="K" horiz-adv-x="1298" 
d="M1145 1l-530 829l-321 -362v-468h-78v1475h78v-902l801 902h90l-517 -585l568 -889h-91z" />
    <glyph glyph-name="L" unicode="L" horiz-adv-x="1125" 
d="M294 72h781v-72h-859v1475h78v-1403z" />
    <glyph glyph-name="M" unicode="M" horiz-adv-x="1771" 
d="M1554 1475v-1475h-76v1333l-549 -1333h-86l-550 1332v-1332h-77v1475h97l573 -1373l572 1373h96z" />
    <glyph glyph-name="N" unicode="N" horiz-adv-x="1491" 
d="M1198 1475h78v-1475h-101l-881 1369v-1369h-78v1475h97l885 -1372v1372z" />
    <glyph glyph-name="O" unicode="O" horiz-adv-x="1583" 
d="M792 -16q-299 0 -478.5 207t-179.5 549q0 339 179.5 545t478.5 206q198 0 347.5 -93.5t229.5 -263.5t80 -394q0 -342 -178.5 -549t-478.5 -207zM792 57q261 0 420 186t159 497q0 308 -159 492.5t-420 184.5t-420 -184.5t-159 -492.5q0 -311 159 -497t420 -186z" />
    <glyph glyph-name="P" unicode="P" horiz-adv-x="1267" 
d="M765 1475q184 0 293.5 -112t109.5 -298q0 -185 -109.5 -297t-293.5 -112h-471v-656h-78v1475h549zM764 728q148 0 237 92.5t89 244.5t-88.5 245t-237.5 93h-470v-675h470z" />
    <glyph glyph-name="Q" unicode="Q" horiz-adv-x="1583" 
d="M1449 740q0 -199 -63 -356t-180 -257l151 -190l-58 -43l-149 191q-152 -101 -358 -101q-299 0 -478.5 207t-179.5 549q0 339 179.5 545t478.5 206q198 0 347.5 -93.5t229.5 -263.5t80 -394zM792 57q176 0 310 88l-164 209l55 44l165 -210q102 91 157.5 232t55.5 320
q0 308 -159 492.5t-420 184.5t-420 -184.5t-159 -492.5q0 -311 159 -497t420 -186z" />
    <glyph glyph-name="R" unicode="R" horiz-adv-x="1287" 
d="M1086 0l-360 688h-432v-688h-78v1475h541q180 0 287.5 -107t107.5 -287q0 -166 -91.5 -269.5t-249.5 -120.5l365 -691h-90zM294 1403v-643h458q147 0 234.5 87.5t87.5 233.5q0 147 -87.5 234.5t-234.5 87.5h-458z" />
    <glyph glyph-name="S" unicode="S" horiz-adv-x="1327" 
d="M682 -15q-201 0 -348.5 83.5t-209.5 231.5l70 33q52 -130 180.5 -203.5t307.5 -73.5q198 0 315 88.5t117 239.5q0 58 -17.5 105.5t-52.5 81.5t-74.5 59t-98.5 43.5t-107.5 30t-116.5 23.5q-58 10 -101 20t-95.5 26.5t-90 35.5t-75.5 48t-62 64.5t-38.5 83.5t-14.5 106
q0 169 136.5 273.5t360.5 104.5q178 0 316.5 -75.5t202.5 -207.5l-70 -31q-53 112 -173.5 177t-275.5 65q-188 0 -303.5 -84.5t-115.5 -220.5q0 -46 12.5 -84.5t33 -66.5t54 -52t66.5 -39.5t80.5 -30t86.5 -23t92 -18.5q63 -11 108.5 -21t103.5 -28t98.5 -38t82.5 -51.5
t67.5 -69.5t42 -90t16.5 -115q0 -183 -138 -291.5t-372 -108.5z" />
    <glyph glyph-name="T" unicode="T" horiz-adv-x="1211" 
d="M1154 1475v-72h-510v-1403h-77v1403h-511v72h1098z" />
    <glyph glyph-name="U" unicode="U" horiz-adv-x="1452" 
d="M726 -15q-251 0 -393.5 146t-142.5 377v967h77v-958q0 -133 51 -236t156 -163.5t252 -60.5q220 0 339.5 127.5t119.5 332.5v958h77v-967q0 -231 -142.5 -377t-393.5 -146z" />
    <glyph glyph-name="V" unicode="V" horiz-adv-x="1361" 
d="M1203 1475h82l-564 -1475h-79l-565 1475h84l521 -1376z" />
    <glyph glyph-name="W" unicode="W" horiz-adv-x="2020" 
d="M1851 1475h81l-435 -1475h-77l-409 1359l-410 -1359h-79l-435 1475h83l393 -1351l411 1351h74l410 -1351z" />
    <glyph glyph-name="X" unicode="X" horiz-adv-x="1324" 
d="M1234 0h-88l-483 706l-485 -706h-88l525 761l-493 714h88l453 -659l451 659h88l-492 -714z" />
    <glyph glyph-name="Y" unicode="Y" horiz-adv-x="1218" 
d="M1074 1475h83l-510 -850v-625h-77v625l-508 850h83l465 -781z" />
    <glyph glyph-name="Z" unicode="Z" horiz-adv-x="1306" 
d="M125 0v67l939 1336h-918v72h1015v-67l-939 -1336h960v-72h-1057z" />
    <glyph glyph-name="bracketleft" unicode="[" horiz-adv-x="726" 
d="M624 1456h-334v-1612h334v-68h-408v1749h408v-69z" />
    <glyph glyph-name="backslash" unicode="\" horiz-adv-x="874" 
d="M843 -215h-70l-751 1823h66z" />
    <glyph glyph-name="bracketright" unicode="]" horiz-adv-x="727" 
d="M510 1526v-1751h-408v69h334v1612h-334v70h408z" />
    <glyph glyph-name="asciicircum" unicode="^" horiz-adv-x="803" 
d="M735 984h-82l-251 421l-251 -421h-83l297 491h74z" />
    <glyph glyph-name="underscore" unicode="_" horiz-adv-x="1185" 
d="M165 0v67h857v-67h-857z" />
    <glyph glyph-name="grave" unicode="`" horiz-adv-x="614" 
d="M337 1238l-190 275h83l177 -275h-70z" />
    <glyph glyph-name="a" unicode="a" horiz-adv-x="1105" 
d="M541 1063q169 0 275.5 -102t106.5 -291v-670h-72v194q-35 -80 -139 -144t-240 -64q-163 0 -260.5 82t-97.5 221q0 313 476 313h261v61q0 160 -84.5 246t-226.5 86q-201 0 -311 -152l-56 42q131 178 368 178zM474 51q81 0 153 30t120 77.5t76 105.5t28 115v158h-240
q-206 0 -315 -58.5t-109 -190.5q0 -109 77 -173t210 -64z" />
    <glyph glyph-name="b" unicode="b" horiz-adv-x="1240" 
d="M671 1063q200 0 328 -149t128 -390t-128 -389.5t-328 -148.5q-145 0 -247 65.5t-159 172.5v-224h-71v1475h71v-651q58 109 160.5 174t245.5 65zM658 55q173 0 283 126t110 343t-110 343.5t-283 126.5q-176 0 -286 -129.5t-110 -340.5q0 -212 109 -340.5t287 -128.5z" />
    <glyph glyph-name="c" unicode="c" horiz-adv-x="1062" 
d="M590 -14q-218 0 -347 146t-129 391t129.5 391.5t344.5 146.5q124 0 223 -54.5t158 -161.5l-64 -36q-51 89 -131.5 135.5t-182.5 46.5q-183 0 -293 -127t-110 -341t110 -341t293 -127q214 0 312 198l67 -34q-116 -233 -380 -233z" />
    <glyph glyph-name="d" unicode="d" horiz-adv-x="1242" 
d="M977 1475h72v-1475h-72v229q-50 -106 -154.5 -174.5t-252.5 -68.5q-200 0 -328 148.5t-128 389.5t128 390t328 149q146 0 250 -68.5t157 -177.5v658zM584 55q176 0 286 129t110 340t-110 340.5t-286 129.5q-174 0 -285 -126.5t-111 -343.5t111 -343t285 -126z" />
    <glyph glyph-name="e" unicode="e" horiz-adv-x="1150" 
d="M579 1063q205 0 331.5 -147.5t126.5 -386.5v-20h-849q3 -207 111.5 -331t295.5 -124q110 0 200 47t144 146l61 -33q-55 -108 -162 -168t-239 -60q-224 0 -354.5 145.5t-130.5 391.5q0 244 129 392t336 148zM578 994q-161 0 -268 -114t-120 -306h772q-12 190 -117.5 305
t-266.5 115z" />
    <glyph glyph-name="f" unicode="f" horiz-adv-x="770" 
d="M437 1172v-123h284v-67h-284v-982h-71v982h-172v67h172v147q0 141 70.5 217.5t184.5 76.5q52 0 112 -20l-20 -63q-58 13 -92 13q-184 0 -184 -248z" />
    <glyph glyph-name="g" unicode="g" horiz-adv-x="1235" 
d="M971 1049h71v-950q0 -221 -122.5 -346.5t-342.5 -125.5q-281 0 -435 201l54 47q130 -180 384 -180q184 0 287.5 107.5t103.5 292.5v145q-47 -106 -149 -173t-242 -67q-208 0 -337 145.5t-129 386.5q0 240 129 385.5t337 145.5q141 0 242.5 -68t148.5 -174v228zM583 70
q173 0 282 122.5t109 339.5q0 216 -109 338.5t-282 122.5q-177 0 -286 -125.5t-109 -335.5q0 -211 109 -336.5t286 -125.5z" />
    <glyph glyph-name="h" unicode="h" horiz-adv-x="1180" 
d="M646 1063q161 0 256 -90.5t95 -249.5v-723h-71v709q0 135 -78.5 210.5t-213.5 75.5q-88 0 -160.5 -31t-116.5 -81t-68 -108.5t-24 -117.5v-657h-71v1475h71v-611q50 86 147 142.5t234 56.5z" />
    <glyph glyph-name="i" unicode="i" horiz-adv-x="461" 
d="M190 1307v168h81v-168h-81zM195 0v1049h71v-1049h-71z" />
    <glyph glyph-name="j" unicode="j" horiz-adv-x="459" 
d="M188 1307v168h81v-168h-81zM65 -370q-55 0 -116 22l18 63q51 -17 92 -17q134 0 134 197v1154h71v-1175q0 -117 -51.5 -180.5t-147.5 -63.5z" />
    <glyph glyph-name="k" unicode="k" horiz-adv-x="1047" 
d="M891 0l-420 550l-207 -233v-317h-71v1475h71v-1056l561 630h91l-395 -443l457 -606h-87z" />
    <glyph glyph-name="l" unicode="l" horiz-adv-x="457" 
d="M193 0v1475h71v-1475h-71z" />
    <glyph glyph-name="m" unicode="m" horiz-adv-x="1774" 
d="M1267 1063q155 0 240 -90t85 -256v-717h-71v698q0 146 -67 222t-193 76q-78 0 -143 -31.5t-105.5 -81.5t-62.5 -108.5t-22 -116.5v-658h-72v698q0 146 -66 222t-192 76q-78 0 -143.5 -31.5t-105.5 -81.5t-62 -108.5t-22 -116.5v-658h-71v1049h71v-189q16 33 41.5 65
t65.5 65t101 53t132 20q122 0 201 -57.5t107 -167.5q18 40 44 75t67 71t104 57.5t139 21.5z" />
    <glyph glyph-name="n" unicode="n" horiz-adv-x="1180" 
d="M643 1063q163 0 258.5 -90.5t95.5 -249.5v-723h-71v709q0 135 -79 210.5t-216 75.5q-87 0 -158.5 -31t-115.5 -80.5t-68 -108.5t-24 -118v-657h-71v1049h71v-185q50 86 146 142.5t232 56.5z" />
    <glyph glyph-name="o" unicode="o" horiz-adv-x="1176" 
d="M588 -14q-215 0 -344.5 146.5t-129.5 391.5t129.5 392t344.5 147t345 -147t130 -392t-129.5 -391.5t-345.5 -146.5zM588 54q181 0 290.5 128.5t109.5 341.5t-109.5 341t-290.5 128t-290.5 -128t-109.5 -341t109.5 -341.5t290.5 -128.5z" />
    <glyph glyph-name="p" unicode="p" horiz-adv-x="1239" 
d="M671 1063q200 0 327.5 -148.5t127.5 -389.5q0 -242 -127.5 -390.5t-327.5 -148.5q-146 0 -250.5 68.5t-155.5 175.5v-588h-71v1407h71v-230q49 105 154 174.5t252 69.5zM658 55q173 0 283 126.5t110 343.5q0 216 -110 342.5t-283 126.5q-177 0 -286.5 -129.5
t-109.5 -339.5q0 -212 110 -341t286 -129z" />
    <glyph glyph-name="q" unicode="q" horiz-adv-x="1242" 
d="M977 1049h72v-1407h-72v590q-57 -112 -160 -179t-246 -67q-202 0 -329.5 148.5t-127.5 390.5q0 241 127.5 389.5t329.5 148.5q144 0 247 -68t159 -177v231zM584 55q176 0 286 129t110 341q0 210 -110 339.5t-286 129.5q-174 0 -285 -126.5t-111 -342.5q0 -217 111 -343.5
t285 -126.5z" />
    <glyph glyph-name="r" unicode="r" horiz-adv-x="816" 
d="M595 1062q62 0 104 -11l-19 -68q-41 9 -80 9q-63 0 -118.5 -24.5t-94 -64t-67 -88t-42 -97t-13.5 -90.5v-628h-71v1049h71v-210q11 25 28.5 51.5t47.5 58.5t65 56t85 40.5t104 16.5z" />
    <glyph glyph-name="s" unicode="s" horiz-adv-x="996" 
d="M515 -14q-155 0 -264.5 61.5t-155.5 166.5l65 34q40 -90 135 -141.5t221 -51.5q134 0 215.5 60t81.5 161q0 99 -77.5 148t-243.5 74q-172 27 -263.5 97t-91.5 196t98.5 199t257.5 73q255 0 370 -199l-65 -35q-90 164 -305 164q-125 0 -203.5 -53.5t-78.5 -146.5
q0 -92 75.5 -146.5t228.5 -78.5q93 -15 155 -34t114.5 -51t78 -82.5t25.5 -122.5q0 -134 -101.5 -213t-271.5 -79z" />
    <glyph glyph-name="t" unicode="t" horiz-adv-x="713" 
d="M571 73l19 -63q-72 -24 -134 -24q-219 0 -219 259v738h-152v66h152v281h71v-281h257v-66h-257v-725q0 -107 36 -156.5t115 -49.5q49 0 112 21z" />
    <glyph glyph-name="u" unicode="u" horiz-adv-x="1178" 
d="M913 1049h72v-1049h-72v186q-49 -86 -145 -143t-232 -57q-162 0 -257.5 90.5t-95.5 249.5v723h72v-707q0 -137 78.5 -213t214.5 -76q86 0 158 31t115.5 80.5t67.5 108t24 117.5v659z" />
    <glyph glyph-name="v" unicode="v" horiz-adv-x="998" 
d="M881 1049h81l-424 -1049h-77l-424 1049h82l381 -961z" />
    <glyph glyph-name="w" unicode="w" horiz-adv-x="1595" 
d="M1464 1049h82l-342 -1049h-80l-326 957l-327 -957h-80l-342 1049h82l300 -958l327 958h80l326 -958z" />
    <glyph glyph-name="x" unicode="x" horiz-adv-x="980" 
d="M921 0h-88l-343 485l-342 -485h-89l385 540l-362 509h89l319 -454l320 454h88l-361 -509z" />
    <glyph glyph-name="y" unicode="y" horiz-adv-x="944" 
d="M825 1049h82l-514 -1280q-29 -75 -70.5 -108.5t-106.5 -33.5q-54 0 -111 21l19 62q51 -18 87 -18q43 0 69.5 23t47.5 78l112 281l-403 975h81l361 -888z" />
    <glyph glyph-name="z" unicode="z" horiz-adv-x="1012" 
d="M116 0v61l668 920h-645v68h739v-63l-669 -919h688v-67h-781z" />
    <glyph glyph-name="braceleft" unicode="{" horiz-adv-x="832" 
d="M438 933q0 -106 -47.5 -179.5t-129.5 -97.5q82 -24 129.5 -97t47.5 -179v-292q0 -125 57 -184.5t159 -59.5h76v-68h-78q-135 0 -211 77t-76 232v287q0 111 -58.5 181t-172.5 70v67q114 0 172.5 70t58.5 181v274q0 155 76 232.5t211 77.5h78v-69h-76q-102 0 -159 -59.5
t-57 -184.5v-279z" />
    <glyph glyph-name="bar" unicode="|" horiz-adv-x="506" 
d="M216 -224v1749h74v-1749h-74z" />
    <glyph glyph-name="braceright" unicode="}" horiz-adv-x="832" 
d="M468 941q0 -111 58 -181t172 -70v-67q-114 0 -172 -70t-58 -181v-287q0 -154 -76.5 -231.5t-211.5 -77.5h-78v68h75q102 0 159.5 59.5t57.5 184.5v292q0 106 47.5 179t129.5 97q-82 24 -129.5 97.5t-47.5 179.5v279q0 125 -57.5 184.5t-159.5 59.5h-75v69h78
q135 0 211.5 -77.5t76.5 -232.5v-274z" />
    <glyph glyph-name="asciitilde" unicode="~" 
d="M806 472q-40 0 -81 14t-65.5 29t-63.5 42q-34 24 -54.5 36.5t-51.5 24t-59 11.5q-61 0 -103.5 -34t-81.5 -117l-59 30q46 100 105.5 145t138.5 45q38 0 77.5 -14t63 -28t62.5 -41q35 -24 56.5 -37t54 -24.5t62.5 -11.5q56 0 96.5 34t79.5 117l58 -30
q-47 -100 -103.5 -145.5t-131.5 -45.5z" />
    <glyph glyph-name="uni00A0" unicode="&#xa0;" horiz-adv-x="534" 
 />
    <glyph glyph-name="exclamdown" unicode="&#xa1;" horiz-adv-x="526" 
d="M216 1049h93v-168h-93v168zM238 706h51l13 -613v-519h-79v519z" />
    <glyph glyph-name="cent" unicode="&#xa2;" horiz-adv-x="1145" 
d="M996 418q-109 -220 -356 -227v-191h-72v195q-188 20 -300.5 158.5t-112.5 358.5q0 219 113 357.5t300 157.5v195h72v-192q116 -4 207.5 -56.5t147.5 -152.5l-62 -37q-47 85 -122 130t-171 48v-902q96 3 171.5 51.5t120.5 139.5zM230 712q0 -187 92.5 -307t245.5 -141v894
q-153 -20 -245.5 -140t-92.5 -306z" />
    <glyph glyph-name="sterling" unicode="&#xa3;" horiz-adv-x="1236" 
d="M413 529q0 -141 -44.5 -244t-137.5 -215h887v-70h-989v71q74 79 116 142t66.5 143t24.5 179q0 66 -18 161h-188v68h174q-1 7 -7 35.5t-8 39t-6.5 35.5t-6.5 40t-4.5 37t-3.5 42t-1 40q0 181 128.5 293t329.5 112q143 0 251 -57.5t163 -166.5l-64 -34q-43 91 -134 139
t-215 48q-168 0 -275 -91t-107 -240q0 -18 1 -37.5t2 -33.5t4.5 -36.5t4.5 -32.5t6 -35t6 -31t7 -34.5t7 -31.5h527v-68h-514q18 -95 18 -167z" />
    <glyph glyph-name="currency" unicode="&#xa4;" horiz-adv-x="1227" 
d="M1064 712q0 -167 -108 -292l158 -157l-51 -51l-157 157q-126 -107 -292 -107q-167 0 -291 108l-159 -158l-50 51l157 158q-107 123 -107 291q0 167 107 293l-157 156l51 51l158 -157q124 108 291 108q166 0 292 -107l158 156l50 -51l-158 -156q108 -127 108 -293z
M241 712q0 -157 109 -267.5t264 -110.5t264 110.5t109 267.5t-109.5 268.5t-263.5 111.5q-155 0 -264 -111.5t-109 -268.5z" />
    <glyph glyph-name="yen" unicode="&#xa5;" horiz-adv-x="1226" 
d="M1149 1423l-472 -713h379v-67h-406v-241h406v-67h-406v-335h-73v335h-406v67h406v241h-406v67h379l-473 713h81l455 -689l455 689h81z" />
    <glyph glyph-name="brokenbar" unicode="&#xa6;" horiz-adv-x="506" 
d="M216 768v757h74v-757h-74zM216 -224v756h74v-756h-74z" />
    <glyph glyph-name="section" unicode="&#xa7;" horiz-adv-x="1283" 
d="M969 309q122 -82 122 -244q0 -151 -118.5 -238t-316.5 -87q-185 0 -319 66t-186 179l66 37q42 -95 161.5 -153t278.5 -58q163 0 260.5 67.5t97.5 186.5q0 34 -8 63t-19 51.5t-33 42.5t-40.5 33.5t-51.5 27t-55 21.5t-63 17.5t-64 14t-67 13.5q-55 11 -90.5 19t-85 22.5
t-81 30t-67 39.5t-55.5 53t-33.5 69t-13.5 88q0 92 51.5 160.5t139.5 104.5q-139 82 -139 249q0 145 117.5 225t313.5 80q141 0 256.5 -58.5t169.5 -157.5l-64 -37q-44 82 -143 132t-218 50q-164 0 -260.5 -59.5t-96.5 -172.5q0 -46 14 -83.5t43 -65t60.5 -47t80.5 -35.5
t88.5 -25.5t97.5 -20.5q178 -35 249 -65q155 -65 180 -203q5 -29 5 -61q0 -89 -45 -159.5t-119 -111.5zM264 671q0 -30 7 -55.5t17.5 -45.5t30.5 -37.5t37.5 -30t47.5 -24.5t52 -19.5t59.5 -16.5t60.5 -13.5t64 -12.5q171 -33 251 -66q166 76 166 230q0 39 -12 72t-28.5 56
t-49 43t-58.5 32t-72.5 24.5t-75.5 19t-83 16.5q-144 26 -223 56q-90 -31 -140.5 -89t-50.5 -139z" />
    <glyph glyph-name="dieresis" unicode="&#xa8;" horiz-adv-x="614" 
d="M16 1311v164h80v-164h-80zM361 1311v164h80v-164h-80z" />
    <glyph glyph-name="copyright" unicode="&#xa9;" horiz-adv-x="1819" 
d="M910 -16q-210 0 -383 98.5t-272 271.5t-99 383t99 383t272 272t383 99t383 -99t272 -272t99 -383t-99 -383t-272 -271.5t-383 -98.5zM910 50q191 0 347.5 90t245.5 247.5t89 349.5t-89 349.5t-245.5 247.5t-347.5 90t-347.5 -90t-246 -247.5t-89.5 -349.5t89.5 -349.5
t246 -247.5t347.5 -90zM924 286q-181 0 -289.5 124.5t-108.5 328.5q0 205 108.5 331.5t287.5 126.5q221 0 333 -203l-55 -31q-96 171 -277 171q-147 0 -238 -109t-91 -286t91.5 -284t240.5 -107q187 0 274 181l60 -25q-57 -113 -138 -165.5t-198 -52.5z" />
    <glyph glyph-name="ordfeminine" unicode="&#xaa;" horiz-adv-x="727" 
d="M352 1483q115 0 186 -66.5t71 -189.5v-434h-64v110q-30 -49 -94.5 -85t-140.5 -36q-110 0 -175 53.5t-65 142.5q0 103 77.5 155t223.5 52h173v40q0 96 -53.5 148t-142.5 52q-123 0 -194 -91l-46 42q83 107 244 107zM544 1035v94h-163q-122 0 -185 -35t-63 -114
q0 -67 48 -106.5t132 -39.5q96 0 163.5 62.5t67.5 138.5z" />
    <glyph glyph-name="guillemotleft" unicode="&#xab;" horiz-adv-x="925" 
d="M397 215l-283 358l283 359l47 -37l-251 -322l251 -321zM744 215l-283 358l283 359l49 -37l-253 -322l253 -321z" />
    <glyph glyph-name="logicalnot" unicode="&#xac;" 
d="M222 605h785v-404h-73v337h-712v67z" />
    <glyph glyph-name="uni00AD" unicode="&#xad;" horiz-adv-x="828" 
d="M165 538v67h500v-67h-500z" />
    <glyph glyph-name="registered" unicode="&#xae;" horiz-adv-x="924" 
d="M462 1492q161 0 275.5 -113t114.5 -273t-114.5 -273t-275.5 -113t-275 113t-114 273t114 273t275 113zM462 772q137 0 235.5 98.5t98.5 235.5q0 138 -98.5 236t-235.5 98t-235 -98t-98 -236t97.5 -236t235.5 -98zM630 1205q0 -47 -26 -82t-69 -46l101 -189h-58l-97 185
h-108v-185h-54v446h177q60 0 97 -36t37 -93zM373 1121h115q40 0 63 22t23 60t-22.5 59.5t-63.5 21.5h-115v-163z" />
    <glyph glyph-name="macron" unicode="&#xaf;" horiz-adv-x="614" 
d="M40 1296v63h528v-63h-528z" />
    <glyph glyph-name="degree" unicode="&#xb0;" horiz-adv-x="875" 
d="M437 802q-146 0 -244.5 98.5t-98.5 243.5q0 146 98.5 244.5t244.5 98.5t244.5 -98.5t98.5 -244.5t-98.5 -244t-244.5 -98zM437 868q116 0 194 79t78 197t-78 197t-194 79t-193.5 -79t-77.5 -197t77.5 -197t193.5 -79z" />
    <glyph glyph-name="plusminus" unicode="&#xb1;" 
d="M579 325v364h-377v68h377v379h71v-379h377v-68h-377v-364h-71zM186 172h856v-68h-856v68z" />
    <glyph glyph-name="two.sups" unicode="&#xb2;" horiz-adv-x="763" 
d="M177 851h499v-59h-596v54l328 342q91 95 131 160t40 138q0 80 -54.5 130t-145.5 50q-176 0 -228 -201l-63 14q29 121 104 184t189 63q120 0 193 -66t73 -174q0 -83 -45.5 -161t-141.5 -178z" />
    <glyph glyph-name="three.sups" unicode="&#xb3;" horiz-adv-x="780" 
d="M526 1268q71 -25 117 -86t46 -140q0 -120 -78.5 -190t-212.5 -70q-121 0 -203 55t-113 155l59 21q25 -80 91 -124.5t164 -44.5q104 0 164.5 54.5t60.5 148.5q0 85 -62 136.5t-157 51.5h-61v59h45q94 0 151.5 48t57.5 134q0 87 -54.5 138.5t-145.5 51.5t-150.5 -45.5
t-83.5 -129.5l-62 17q30 104 106.5 161t190.5 57q122 0 195 -67.5t73 -179.5q0 -71 -37.5 -127.5t-100.5 -83.5z" />
    <glyph glyph-name="acute" unicode="&#xb4;" horiz-adv-x="614" 
d="M166 1238l175 275h83l-188 -275h-70z" />
    <glyph glyph-name="uni00B5" unicode="&#xb5;" horiz-adv-x="1187" 
d="M924 1049h71v-1049h-71v181q-46 -83 -145.5 -139t-232.5 -56q-97 0 -170.5 34.5t-110.5 100.5v-520h-71v1448h71v-709q0 -137 78.5 -213t214.5 -76q87 0 158.5 31t115.5 80.5t68 108t24 117.5v661z" />
    <glyph glyph-name="paragraph" unicode="&#xb6;" horiz-adv-x="969" 
d="M509 0v886h-12q-149 0 -243 81t-94 214q0 132 94 213t243 81h86v-1475h-74zM680 0v1475h74v-1475h-74z" />
    <glyph glyph-name="periodcentered" unicode="&#xb7;" horiz-adv-x="468" 
d="M186 524v169h97v-169h-97z" />
    <glyph glyph-name="cedilla" unicode="&#xb8;" horiz-adv-x="614" 
d="M218 -313l100 313h66l-99 -313h-67z" />
    <glyph glyph-name="one.sups" unicode="&#xb9;" horiz-adv-x="596" 
d="M406 1717v-925h-67v839l-198 -180l-40 45l245 221h60z" />
    <glyph glyph-name="ordmasculine" unicode="&#xba;" horiz-adv-x="774" 
d="M387 783q-141 0 -227.5 95.5t-86.5 255.5t86.5 255t227.5 95t227.5 -95t86.5 -255t-86.5 -255.5t-227.5 -95.5zM387 843q112 0 180 79t68 212t-68 211.5t-180 78.5t-180 -78.5t-68 -211.5t68 -212t180 -79z" />
    <glyph glyph-name="guillemotright" unicode="&#xbb;" horiz-adv-x="925" 
d="M181 215l-47 37l252 321l-252 322l47 37l284 -359zM529 215l-48 37l253 321l-253 322l48 37l284 -359z" />
    <glyph glyph-name="onequarter" unicode="&#xbc;" horiz-adv-x="1701" 
d="M339 549v839l-198 -180l-40 45l245 222h60v-926h-67zM1277 1475h72l-942 -1475h-72zM1652 273v-59h-141v-214h-66v214h-472v55l465 657h73v-653h141zM1050 273h395v567z" />
    <glyph glyph-name="onehalf" unicode="&#xbd;" horiz-adv-x="1759" 
d="M339 549v839l-198 -180l-40 45l245 222h60v-926h-67zM1277 1475h72l-942 -1475h-72zM1172 59h499v-59h-596v54l328 342q91 95 131 160t40 138q0 80 -54.5 130t-145.5 50q-176 0 -228 -200l-63 13q29 121 104 184.5t189 63.5q119 0 192.5 -66t73.5 -175q0 -83 -45.5 -161
t-141.5 -178z" />
    <glyph glyph-name="threequarters" unicode="&#xbe;" horiz-adv-x="1815" 
d="M689 802q0 -120 -78.5 -190t-212.5 -70q-121 0 -203 55t-113 155l59 20q25 -80 91 -124.5t164 -44.5q104 0 164.5 54.5t60.5 148.5q0 85 -62 136.5t-157 51.5h-61v60h45q94 0 151.5 47.5t57.5 133.5q0 87 -54.5 138.5t-145.5 51.5t-150.5 -45.5t-83.5 -129.5l-62 18
q30 104 106.5 161t190.5 57q122 0 195 -68t73 -180q0 -71 -37.5 -127.5t-100.5 -83.5q71 -25 117 -85.5t46 -139.5zM1391 1475h71l-942 -1475h-71zM1765 273v-59h-140v-214h-66v214h-473v55l465 657h74v-653h140zM1163 273h396v567z" />
    <glyph glyph-name="questiondown" unicode="&#xbf;" horiz-adv-x="1054" 
d="M541 880v169h96v-169h-96zM513 -438q-179 0 -286 92.5t-107 239.5q0 201 224 358q31 22 45.5 32.5t41 32.5t40 37.5t32 41t27.5 49.5t15.5 57t6.5 69v136h74v-143q0 -58 -14 -108t-31.5 -82.5t-52.5 -67.5t-58 -52.5t-67 -48.5q-207 -144 -207 -313q0 -118 86 -190
t231 -72q142 0 240.5 78t131.5 198l71 -20q-42 -155 -156 -239.5t-287 -84.5z" />
    <glyph glyph-name="Agrave" unicode="&#xc0;" horiz-adv-x="1400" 
d="M788 1593h-69l-189 276h83zM1240 0l-184 470h-712l-184 -470h-83l581 1475h83l583 -1475h-84zM373 542h654l-327 834z" />
    <glyph glyph-name="Aacute" unicode="&#xc1;" horiz-adv-x="1400" 
d="M872 1869l-188 -276h-70l177 276h81zM1240 0l-184 470h-712l-184 -470h-83l581 1475h83l583 -1475h-84zM373 542h654l-327 834z" />
    <glyph glyph-name="Acircumflex" unicode="&#xc2;" horiz-adv-x="1400" 
d="M702 1802l-192 -209h-76l232 266h72l231 -266h-76zM1240 0l-184 470h-712l-184 -470h-83l581 1475h83l583 -1475h-84zM373 542h654l-327 834z" />
    <glyph glyph-name="Atilde" unicode="&#xc3;" horiz-adv-x="1400" 
d="M562 1717q-81 0 -144 -107l-50 36q82 136 194 136q64 0 153 -59q76 -51 128 -51q77 0 140 108l50 -36q-82 -136 -190 -136q-65 0 -155 59q-76 50 -126 50zM1240 0l-184 470h-712l-184 -470h-83l581 1475h83l583 -1475h-84zM373 542h654l-327 834z" />
    <glyph glyph-name="Adieresis" unicode="&#xc4;" horiz-adv-x="1400" 
d="M543 1804v-165h-80v165h80zM940 1804v-165h-80v165h80zM1240 0l-184 470h-712l-184 -470h-83l581 1475h83l583 -1475h-84zM373 542h654l-327 834z" />
    <glyph glyph-name="Aring" unicode="&#xc5;" horiz-adv-x="1400" 
d="M701 1578q-83 0 -136.5 54t-53.5 136q0 83 54 137t136 54q83 0 137 -54.5t54 -136.5t-54 -136t-137 -54zM701 1905q-59 0 -96.5 -38.5t-37.5 -98.5t37.5 -98t96.5 -38t97 38t38 98t-38 98.5t-97 38.5zM1240 0l-184 470h-712l-184 -470h-83l581 1475h83l583 -1475h-84z
M373 542h654l-327 834z" />
    <glyph glyph-name="AE" unicode="&#xc6;" horiz-adv-x="2092" 
d="M1126 72h837v-72h-913v471h-595l-301 -471h-92l947 1475h947v-72h-830v-619h764v-71h-764v-641zM501 543h549v860z" />
    <glyph glyph-name="Ccedilla" unicode="&#xc7;" horiz-adv-x="1433" 
d="M1331 344q-81 -175 -204 -262.5t-298 -95.5l-95 -299h-65l94 298q-287 10 -458 216t-171 540q0 339 177.5 544t475.5 205q181 0 319 -84t223 -250l-65 -34q-75 146 -197 221t-280 75q-260 0 -417.5 -185.5t-157.5 -491.5q0 -310 159 -497t421 -187q169 0 285 78t186 240z
" />
    <glyph glyph-name="Egrave" unicode="&#xc8;" horiz-adv-x="1299" 
d="M711 1593l-189 276h82l176 -276h-69zM216 0v1475h948v-72h-870v-619h803v-71h-803v-641h878v-72h-956z" />
    <glyph glyph-name="Eacute" unicode="&#xc9;" horiz-adv-x="1299" 
d="M606 1593l175 276h83l-189 -276h-69zM216 0v1475h948v-72h-870v-619h803v-71h-803v-641h878v-72h-956z" />
    <glyph glyph-name="Ecircumflex" unicode="&#xca;" horiz-adv-x="1299" 
d="M693 1802l-191 -209h-77l231 266h74l231 -266h-77zM294 72h878v-72h-956v1475h948v-72h-870v-619h803v-71h-803v-641z" />
    <glyph glyph-name="Edieresis" unicode="&#xcb;" horiz-adv-x="1299" 
d="M454 1639v165h80v-165h-80zM851 1639v165h80v-165h-80zM216 0v1475h948v-72h-870v-619h803v-71h-803v-641h878v-72h-956z" />
    <glyph glyph-name="Igrave" unicode="&#xcc;" horiz-adv-x="508" 
d="M272 1593l-189 276h83l176 -276h-70zM216 0v1475h78v-1475h-78z" />
    <glyph glyph-name="Iacute" unicode="&#xcd;" horiz-adv-x="508" 
d="M167 1593l176 276h83l-189 -276h-70zM216 0v1475h78v-1475h-78z" />
    <glyph glyph-name="Icircumflex" unicode="&#xce;" horiz-adv-x="508" 
d="M291 1859l231 -266h-77l-190 209l-192 -209h-76l231 266h73zM216 0v1475h78v-1475h-78z" />
    <glyph glyph-name="Idieresis" unicode="&#xcf;" horiz-adv-x="508" 
d="M15 1639v165h80v-165h-80zM413 1639v165h80v-165h-80zM216 0v1475h78v-1475h-78z" />
    <glyph glyph-name="Eth" unicode="&#xd0;" horiz-adv-x="1458" 
d="M682 1475q290 0 466.5 -201.5t176.5 -537.5t-176.5 -536t-466.5 -200h-466v703h-174v68h174v704h466zM672 72q262 0 418 180.5t156 483.5t-156 485t-418 182h-379v-632h448v-68h-448v-631h379z" />
    <glyph glyph-name="Ntilde" unicode="&#xd1;" horiz-adv-x="1489" 
d="M615 1717q-81 0 -144 -107l-50 36q82 136 194 136q65 0 153 -59q76 -51 128 -51q77 0 140 108l50 -36q-82 -136 -190 -136q-65 0 -155 59q-76 50 -126 50zM1198 1475h78v-1475h-101l-881 1369v-1369h-78v1475h97l885 -1372v1372z" />
    <glyph glyph-name="Ograve" unicode="&#xd2;" horiz-adv-x="1583" 
d="M809 1592l-188 276h81l177 -276h-70zM792 -16q-299 0 -478.5 207t-179.5 549q0 339 179.5 545t478.5 206q198 0 347.5 -93.5t229.5 -263.5t80 -394q0 -342 -178.5 -549t-478.5 -207zM792 57q261 0 420 186t159 497q0 308 -159 492.5t-420 184.5t-420 -184.5t-159 -492.5
q0 -311 159 -497t420 -186z" />
    <glyph glyph-name="Oacute" unicode="&#xd3;" horiz-adv-x="1583" 
d="M705 1592l175 276h83l-189 -276h-69zM792 -16q-299 0 -478.5 207t-179.5 549q0 339 179.5 545t478.5 206q198 0 347.5 -93.5t229.5 -263.5t80 -394q0 -342 -178.5 -549t-478.5 -207zM792 57q261 0 420 186t159 497q0 308 -159 492.5t-420 184.5t-420 -184.5t-159 -492.5
q0 -311 159 -497t420 -186z" />
    <glyph glyph-name="Ocircumflex" unicode="&#xd4;" horiz-adv-x="1583" 
d="M792 1801l-192 -209h-77l232 266h73l231 -266h-77zM792 1491q198 0 347.5 -93.5t229.5 -263.5t80 -394q0 -342 -178.5 -549t-478.5 -207q-299 0 -478.5 207t-179.5 549q0 339 179.5 545t478.5 206zM792 57q261 0 420 186t159 497q0 308 -159 492.5t-420 184.5
t-420 -184.5t-159 -492.5q0 -311 159 -497t420 -186z" />
    <glyph glyph-name="Otilde" unicode="&#xd5;" horiz-adv-x="1583" 
d="M932 1607q-65 0 -155 59q-76 50 -126 50q-81 0 -144 -107l-50 36q82 136 194 136q65 0 153 -59q76 -51 128 -51q77 0 140 108l50 -36q-82 -136 -190 -136zM792 -16q-299 0 -478.5 207t-179.5 549q0 339 179.5 545t478.5 206q198 0 347.5 -93.5t229.5 -263.5t80 -394
q0 -342 -178.5 -549t-478.5 -207zM792 57q261 0 420 186t159 497q0 308 -159 492.5t-420 184.5t-420 -184.5t-159 -492.5q0 -311 159 -497t420 -186z" />
    <glyph glyph-name="Odieresis" unicode="&#xd6;" horiz-adv-x="1583" 
d="M553 1638v165h80v-165h-80zM950 1638v165h80v-165h-80zM792 -16q-299 0 -478.5 207t-179.5 549q0 339 179.5 545t478.5 206q198 0 347.5 -93.5t229.5 -263.5t80 -394q0 -342 -178.5 -549t-478.5 -207zM792 57q261 0 420 186t159 497q0 308 -159 492.5t-420 184.5
t-420 -184.5t-159 -492.5q0 -311 159 -497t420 -186z" />
    <glyph glyph-name="multiply" unicode="&#xd7;" 
d="M944 852l-281 -282l281 -281l-48 -48l-282 281l-281 -281l-48 48l281 281l-281 282l48 48l281 -282l282 282z" />
    <glyph glyph-name="Oslash" unicode="&#xd8;" horiz-adv-x="1583" 
d="M1269 1287q180 -203 180 -547q0 -342 -178.5 -549t-478.5 -207q-252 0 -423 151l-151 -192l-58 47l155 198q-181 208 -181 552q0 339 179.5 545t478.5 206q250 0 422 -150l151 192l58 -46zM792 1417q-261 0 -420 -184.5t-159 -492.5q0 -300 152 -488l801 1028
q-153 137 -374 137zM792 57q261 0 420 186t159 497q0 300 -152 485l-802 -1028q151 -140 375 -140z" />
    <glyph glyph-name="Ugrave" unicode="&#xd9;" horiz-adv-x="1461" 
d="M749 1593l-190 276h83l176 -276h-69zM726 -15q-251 0 -393.5 146t-142.5 377v967h77v-958q0 -133 51 -236t156 -163.5t252 -60.5q220 0 339.5 127.5t119.5 332.5v958h77v-967q0 -231 -142.5 -377t-393.5 -146z" />
    <glyph glyph-name="Uacute" unicode="&#xda;" horiz-adv-x="1461" 
d="M643 1593l176 276h83l-189 -276h-70zM726 -15q-251 0 -393.5 146t-142.5 377v967h77v-958q0 -133 51 -236t156 -163.5t252 -60.5q220 0 339.5 127.5t119.5 332.5v958h77v-967q0 -231 -142.5 -377t-393.5 -146z" />
    <glyph glyph-name="Ucircumflex" unicode="&#xdb;" horiz-adv-x="1461" 
d="M731 1802l-191 -209h-77l231 266h73l231 -266h-76zM1185 1475h77v-967q0 -231 -142.5 -377t-393.5 -146t-393.5 146t-142.5 377v967h77v-958q0 -133 51 -236t156 -163.5t252 -60.5q220 0 339.5 127.5t119.5 332.5v958z" />
    <glyph glyph-name="Udieresis" unicode="&#xdc;" horiz-adv-x="1458" 
d="M487 1639v165h80v-165h-80zM885 1639v165h80v-165h-80zM726 -15q-251 0 -393.5 146t-142.5 377v967h77v-958q0 -133 51 -236t156 -163.5t252 -60.5q220 0 339.5 127.5t119.5 332.5v958h77v-967q0 -231 -142.5 -377t-393.5 -146z" />
    <glyph glyph-name="Yacute" unicode="&#xdd;" horiz-adv-x="1208" 
d="M775 1869l-188 -276h-70l176 276h82zM1074 1475h83l-510 -850v-625h-77v625l-508 850h83l465 -781z" />
    <glyph glyph-name="Thorn" unicode="&#xde;" horiz-adv-x="1264" 
d="M763 1172q184 0 293 -111t109 -295q0 -186 -109.5 -299t-292.5 -113h-469v-354h-78v1475h78v-303h469zM761 426q148 0 237 94t89 245t-89 243.5t-237 92.5h-467v-675h467z" />
    <glyph glyph-name="germandbls" unicode="&#xdf;" horiz-adv-x="1152" 
d="M765 815q118 -28 195.5 -139t77.5 -265q0 -192 -106.5 -306.5t-283.5 -114.5q-120 0 -208 30l18 65q87 -30 189 -30q144 0 231.5 97t87.5 260q0 161 -93.5 265.5t-246.5 104.5h-129v66h126q118 0 187 75.5t69 200.5q0 133 -85.5 215.5t-220.5 82.5q-144 0 -231 -89
t-87 -236v-1098h-72v1115q0 169 107.5 272.5t282.5 103.5q169 0 275 -100t106 -261q0 -112 -53 -197.5t-136 -116.5z" />
    <glyph glyph-name="agrave" unicode="&#xe0;" horiz-adv-x="1105" 
d="M648 1238h-69l-189 275h82zM541 1063q169 0 275.5 -102t106.5 -291v-670h-72v194q-35 -80 -139 -144t-240 -64q-163 0 -260.5 82t-97.5 221q0 313 476 313h261v61q0 160 -84.5 246t-226.5 86q-201 0 -311 -152l-56 42q131 178 368 178zM474 51q81 0 153 30t120 77.5
t76 105.5t28 115v158h-240q-206 0 -315 -58.5t-109 -190.5q0 -109 77 -173t210 -64z" />
    <glyph glyph-name="aacute" unicode="&#xe1;" horiz-adv-x="1105" 
d="M720 1513l-189 -275h-69l175 275h83zM541 1063q169 0 275.5 -102t106.5 -291v-670h-72v194q-35 -80 -139 -144t-240 -64q-163 0 -260.5 82t-97.5 221q0 313 476 313h261v61q0 160 -84.5 246t-226.5 86q-201 0 -311 -152l-56 42q131 178 368 178zM474 51q81 0 153 30
t120 77.5t76 105.5t28 115v158h-240q-206 0 -315 -58.5t-109 -190.5q0 -109 77 -173t210 -64z" />
    <glyph glyph-name="acircumflex" unicode="&#xe2;" horiz-adv-x="1105" 
d="M545 1444l-193 -208h-77l233 264h73l230 -264h-77zM541 1063q169 0 275.5 -102t106.5 -291v-670h-72v194q-35 -80 -139 -144t-240 -64q-163 0 -260.5 82t-97.5 221q0 313 476 313h261v61q0 160 -84.5 246t-226.5 86q-201 0 -311 -152l-56 42q131 178 368 178zM474 51
q81 0 153 30t120 77.5t76 105.5t28 115v158h-240q-206 0 -315 -58.5t-109 -190.5q0 -109 77 -173t210 -64z" />
    <glyph glyph-name="atilde" unicode="&#xe3;" horiz-adv-x="1105" 
d="M404 1383q-81 0 -144 -107l-50 36q82 136 194 136q64 0 153 -58q78 -52 128 -52q77 0 140 108l51 -36q-82 -136 -191 -136q-65 0 -155 59q-76 50 -126 50zM541 1063q169 0 275.5 -102t106.5 -291v-670h-72v194q-35 -80 -139 -144t-240 -64q-163 0 -260.5 82t-97.5 221
q0 313 476 313h261v61q0 160 -84.5 246t-226.5 86q-201 0 -311 -152l-56 42q131 178 368 178zM474 51q81 0 153 30t120 77.5t76 105.5t28 115v158h-240q-206 0 -315 -58.5t-109 -190.5q0 -109 77 -173t210 -64z" />
    <glyph glyph-name="adieresis" unicode="&#xe4;" horiz-adv-x="1105" 
d="M412 1475v-164h-80v164h80zM757 1475v-164h-80v164h80zM541 1063q169 0 275.5 -102t106.5 -291v-670h-72v194q-35 -80 -139 -144t-240 -64q-163 0 -260.5 82t-97.5 221q0 313 476 313h261v61q0 160 -84.5 246t-226.5 86q-201 0 -311 -152l-56 42q131 178 368 178zM474 51
q81 0 153 30t120 77.5t76 105.5t28 115v158h-240q-206 0 -315 -58.5t-109 -190.5q0 -109 77 -173t210 -64z" />
    <glyph glyph-name="aring" unicode="&#xe5;" horiz-adv-x="1105" 
d="M544 1217q-83 0 -137 54t-54 136t54 136t137 54q82 0 136 -53.5t54 -136.5t-54 -136.5t-136 -53.5zM544 1543q-59 0 -96.5 -38t-37.5 -98t37.5 -98t96.5 -38t96.5 38t37.5 98t-37.5 98t-96.5 38zM541 1063q169 0 275.5 -102t106.5 -291v-670h-72v194q-35 -80 -139 -144
t-240 -64q-163 0 -260.5 82t-97.5 221q0 313 476 313h261v61q0 160 -84.5 246t-226.5 86q-201 0 -311 -152l-56 42q131 178 368 178zM474 51q81 0 153 30t120 77.5t76 105.5t28 115v158h-240q-206 0 -315 -58.5t-109 -190.5q0 -109 77 -173t210 -64z" />
    <glyph glyph-name="ae" unicode="&#xe6;" horiz-adv-x="1818" 
d="M1705 529v-20h-789q5 -213 104 -334.5t273 -121.5q200 0 316 198l61 -38q-59 -107 -159 -167.5t-214 -60.5q-154 0 -262.5 81.5t-151.5 229.5q-39 -149 -153.5 -229.5t-252.5 -80.5q-164 0 -263.5 79.5t-99.5 216.5q0 105 58.5 171t159 93.5t248.5 27.5h264v77
q0 169 -82 256t-224 87q-194 0 -314 -160l-57 40q135 189 371 189q139 0 231.5 -69t126.5 -207q50 132 148 204t233 72q187 0 307.5 -148t120.5 -386zM918 574h710q-11 189 -109 305t-242 116q-154 0 -250.5 -113.5t-108.5 -307.5zM844 425v84h-253q-200 0 -302 -51
t-102 -176q0 -107 79.5 -168.5t215.5 -61.5q99 0 183 52.5t131.5 138t47.5 182.5z" />
    <glyph glyph-name="ccedilla" unicode="&#xe7;" horiz-adv-x="1069" 
d="M970 219q-108 -218 -348 -232l-97 -300h-65l95 300q-203 12 -322 156.5t-119 379.5q0 245 129.5 391.5t344.5 146.5q124 0 223 -54.5t158 -161.5l-64 -36q-51 89 -131.5 135.5t-182.5 46.5q-183 0 -293 -127t-110 -341t110 -341t293 -127q214 0 312 198z" />
    <glyph glyph-name="egrave" unicode="&#xe8;" horiz-adv-x="1147" 
d="M681 1238h-70l-189 275h83zM579 1063q205 0 331.5 -147.5t126.5 -386.5v-20h-849q3 -207 111.5 -331t295.5 -124q110 0 200 47t144 146l61 -33q-55 -108 -162 -168t-239 -60q-224 0 -354.5 145.5t-130.5 391.5q0 244 129 392t336 148zM578 994q-161 0 -268 -114
t-120 -306h772q-12 190 -117.5 305t-266.5 115z" />
    <glyph glyph-name="eacute" unicode="&#xe9;" horiz-adv-x="1147" 
d="M753 1513l-190 -275h-69l176 275h83zM579 1063q205 0 331.5 -147.5t126.5 -386.5v-20h-849q3 -207 111.5 -331t295.5 -124q110 0 200 47t144 146l61 -33q-55 -108 -162 -168t-239 -60q-224 0 -354.5 145.5t-130.5 391.5q0 244 129 392t336 148zM578 994q-161 0 -268 -114
t-120 -306h772q-12 190 -117.5 305t-266.5 115z" />
    <glyph glyph-name="ecircumflex" unicode="&#xea;" horiz-adv-x="1147" 
d="M577 1444l-192 -208h-77l232 264h73l231 -264h-77zM579 1063q205 0 331.5 -147.5t126.5 -386.5v-20h-849q3 -207 111.5 -331t295.5 -124q110 0 200 47t144 146l61 -33q-55 -108 -162 -168t-239 -60q-224 0 -354.5 145.5t-130.5 391.5q0 244 129 392t336 148zM578 994
q-161 0 -268 -114t-120 -306h772q-12 190 -117.5 305t-266.5 115z" />
    <glyph glyph-name="edieresis" unicode="&#xeb;" horiz-adv-x="1147" 
d="M443 1475v-164h-79v164h79zM788 1475v-164h-79v164h79zM579 1063q205 0 331.5 -147.5t126.5 -386.5v-20h-849q3 -207 111.5 -331t295.5 -124q110 0 200 47t144 146l61 -33q-55 -108 -162 -168t-239 -60q-224 0 -354.5 145.5t-130.5 391.5q0 244 129 392t336 148zM578 994
q-161 0 -268 -114t-120 -306h772q-12 190 -117.5 305t-266.5 115z" />
    <glyph glyph-name="igrave" unicode="&#xec;" horiz-adv-x="457" 
d="M264 1238l-189 275h83l175 -275h-69zM193 0v1049h71v-1049h-71z" />
    <glyph glyph-name="iacute" unicode="&#xed;" horiz-adv-x="457" 
d="M146 1238l177 275h81l-188 -275h-70zM193 0v1049h71v-1049h-71z" />
    <glyph glyph-name="icircumflex" unicode="&#xee;" horiz-adv-x="457" 
d="M265 1500l232 -264h-77l-191 208l-191 -208h-77l232 264h72zM193 0v1049h71v-1049h-71z" />
    <glyph glyph-name="idieresis" unicode="&#xef;" horiz-adv-x="457" 
d="M17 1311v164h80v-164h-80zM361 1311v164h80v-164h-80zM194 0v1049h71v-1049h-71z" />
    <glyph glyph-name="eth" unicode="&#xf0;" horiz-adv-x="1175" 
d="M762 1308q146 -146 223.5 -347.5t77.5 -439.5q0 -242 -129 -388.5t-346 -146.5q-216 0 -345 145.5t-129 389.5q0 245 128.5 391.5t341.5 146.5q226 0 349 -168q-68 215 -239 384l-253 -124l-30 54l234 114q-83 72 -178 118l35 55q119 -58 212 -139l221 107l30 -53z
M588 55q181 0 290 126.5t109 339.5t-109 340.5t-290 127.5t-290.5 -127.5t-109.5 -340.5t109.5 -339.5t290.5 -126.5z" />
    <glyph glyph-name="ntilde" unicode="&#xf1;" horiz-adv-x="1179" 
d="M449 1383q-82 0 -145 -107l-50 36q82 136 195 136q63 0 152 -58q78 -52 128 -52q77 0 140 108l51 -36q-82 -136 -191 -136q-65 0 -155 59q-76 50 -125 50zM643 1063q163 0 258.5 -90.5t95.5 -249.5v-723h-71v709q0 135 -79 210.5t-216 75.5q-87 0 -158.5 -31
t-115.5 -80.5t-68 -108.5t-24 -118v-657h-71v1049h71v-185q50 86 146 142.5t232 56.5z" />
    <glyph glyph-name="ograve" unicode="&#xf2;" horiz-adv-x="1176" 
d="M623 1238l-190 275h83l176 -275h-69zM588 -14q-215 0 -344.5 146.5t-129.5 391.5t129.5 392t344.5 147t345 -147t130 -392t-129.5 -391.5t-345.5 -146.5zM588 54q181 0 290.5 128.5t109.5 341.5t-109.5 341t-290.5 128t-290.5 -128t-109.5 -341t109.5 -341.5
t290.5 -128.5z" />
    <glyph glyph-name="oacute" unicode="&#xf3;" horiz-adv-x="1176" 
d="M505 1238l176 275h83l-190 -275h-69zM588 -14q-215 0 -344.5 146.5t-129.5 391.5t129.5 392t344.5 147t345 -147t130 -392t-129.5 -391.5t-345.5 -146.5zM588 54q181 0 290.5 128.5t109.5 341.5t-109.5 341t-290.5 128t-290.5 -128t-109.5 -341t109.5 -341.5
t290.5 -128.5z" />
    <glyph glyph-name="ocircumflex" unicode="&#xf4;" horiz-adv-x="1176" 
d="M588 1444l-192 -208h-77l232 264h74l230 -264h-77zM588 1063q215 0 345 -147t130 -392t-129.5 -391.5t-345.5 -146.5q-215 0 -344.5 146.5t-129.5 391.5t129.5 392t344.5 147zM588 54q181 0 290.5 128.5t109.5 341.5t-109.5 341t-290.5 128t-290.5 -128t-109.5 -341
t109.5 -341.5t290.5 -128.5z" />
    <glyph glyph-name="otilde" unicode="&#xf5;" horiz-adv-x="1176" 
d="M728 1274q-65 0 -155 59q-76 50 -126 50q-81 0 -144 -107l-50 36q82 136 194 136q64 0 153 -58q78 -52 128 -52q77 0 140 108l51 -36q-82 -136 -191 -136zM588 -14q-215 0 -344.5 146.5t-129.5 391.5t129.5 392t344.5 147t345 -147t130 -392t-129.5 -391.5t-345.5 -146.5
zM588 54q181 0 290.5 128.5t109.5 341.5t-109.5 341t-290.5 128t-290.5 -128t-109.5 -341t109.5 -341.5t290.5 -128.5z" />
    <glyph glyph-name="odieresis" unicode="&#xf6;" horiz-adv-x="1176" 
d="M376 1311v164h80v-164h-80zM721 1311v164h80v-164h-80zM588 -14q-215 0 -344.5 146.5t-129.5 391.5t129.5 392t344.5 147t345 -147t130 -392t-129.5 -391.5t-345.5 -146.5zM588 54q181 0 290.5 128.5t109.5 341.5t-109.5 341t-290.5 128t-290.5 -128t-109.5 -341
t109.5 -341.5t290.5 -128.5z" />
    <glyph glyph-name="divide" unicode="&#xf7;" 
d="M573 820v159h82v-159h-82zM186 538v67h856v-67h-856zM573 163v159h82v-159h-82z" />
    <glyph glyph-name="oslash" unicode="&#xf8;" horiz-adv-x="1176" 
d="M934 914q129 -146 129 -390q0 -245 -130 -391.5t-346 -146.5q-179 0 -298 101l-111 -141l-53 42l116 147q-128 147 -128 389q0 245 129.5 392t344.5 147q178 0 299 -101l108 140l55 -42zM587 993q-181 0 -290.5 -128t-109.5 -341q0 -199 100 -328l554 707
q-104 90 -254 90zM587 55q181 0 291 128t110 341q0 201 -100 330l-554 -709q104 -90 253 -90z" />
    <glyph glyph-name="ugrave" unicode="&#xf9;" horiz-adv-x="1177" 
d="M691 1238h-68l-190 275h83zM913 1049h72v-1049h-72v186q-49 -86 -145 -143t-232 -57q-162 0 -257.5 90.5t-95.5 249.5v723h72v-707q0 -137 78.5 -213t214.5 -76q86 0 158 31t115.5 80.5t67.5 108t24 117.5v659z" />
    <glyph glyph-name="uacute" unicode="&#xfa;" horiz-adv-x="1177" 
d="M763 1513l-189 -275h-69l176 275h82zM913 1049h72v-1049h-72v186q-49 -86 -145 -143t-232 -57q-162 0 -257.5 90.5t-95.5 249.5v723h72v-707q0 -137 78.5 -213t214.5 -76q86 0 158 31t115.5 80.5t67.5 108t24 117.5v659z" />
    <glyph glyph-name="ucircumflex" unicode="&#xfb;" horiz-adv-x="1177" 
d="M588 1444l-192 -208h-77l232 264h73l231 -264h-77zM913 1049h72v-1049h-72v186q-49 -86 -145 -143t-232 -57q-162 0 -257.5 90.5t-95.5 249.5v723h72v-707q0 -137 78.5 -213t214.5 -76q86 0 158 31t115.5 80.5t67.5 108t24 117.5v659z" />
    <glyph glyph-name="udieresis" unicode="&#xfc;" horiz-adv-x="1177" 
d="M455 1475v-164h-80v164h80zM800 1475v-164h-80v164h80zM913 1049h72v-1049h-72v186q-49 -86 -145 -143t-232 -57q-162 0 -257.5 90.5t-95.5 249.5v723h72v-707q0 -137 78.5 -213t214.5 -76q86 0 158 31t115.5 80.5t67.5 108t24 117.5v659z" />
    <glyph glyph-name="yacute" unicode="&#xfd;" horiz-adv-x="944" 
d="M650 1513l-188 -275h-70l175 275h83zM825 1049h82l-514 -1280q-29 -75 -70.5 -108.5t-106.5 -33.5q-54 0 -111 21l19 62q51 -18 87 -18q43 0 69.5 23t47.5 78l112 281l-403 975h81l361 -888z" />
    <glyph glyph-name="thorn" unicode="&#xfe;" horiz-adv-x="1239" 
d="M671 1063q200 0 327.5 -148.5t127.5 -389.5q0 -242 -127.5 -390.5t-327.5 -148.5q-146 0 -250.5 68.5t-155.5 175.5v-588h-71v1833h71v-656q49 105 154 174.5t252 69.5zM658 55q173 0 283 126.5t110 343.5q0 216 -110 342.5t-283 126.5q-177 0 -286.5 -129.5
t-109.5 -339.5q0 -212 110 -341t286 -129z" />
    <glyph glyph-name="ydieresis" unicode="&#xff;" horiz-adv-x="944" 
d="M342 1475v-164h-80v164h80zM687 1475v-164h-80v164h80zM825 1049h82l-514 -1280q-29 -75 -70.5 -108.5t-106.5 -33.5q-54 0 -111 21l19 62q51 -18 87 -18q43 0 69.5 23t47.5 78l112 281l-403 975h81l361 -888z" />
    <glyph glyph-name="Amacron" unicode="&#x100;" horiz-adv-x="1400" 
d="M966 1727v-62h-530v62h530zM1240 0l-184 470h-712l-184 -470h-83l581 1475h83l583 -1475h-84zM373 542h654l-327 834z" />
    <glyph glyph-name="amacron" unicode="&#x101;" horiz-adv-x="1105" 
d="M808 1359v-63h-529v63h529zM541 1063q169 0 275.5 -102t106.5 -291v-670h-72v194q-35 -80 -139 -144t-240 -64q-163 0 -260.5 82t-97.5 221q0 313 476 313h261v61q0 160 -84.5 246t-226.5 86q-201 0 -311 -152l-56 42q131 178 368 178zM474 51q81 0 153 30t120 77.5
t76 105.5t28 115v158h-240q-206 0 -315 -58.5t-109 -190.5q0 -109 77 -173t210 -64z" />
    <glyph glyph-name="Abreve" unicode="&#x102;" horiz-adv-x="1400" 
d="M701 1586q-110 0 -182 72t-86 201h63q15 -104 70 -161t135 -57q81 0 136 57t70 161h63q-14 -129 -86 -201t-183 -72zM1240 0l-184 470h-712l-184 -470h-83l581 1475h83l583 -1475h-84zM373 542h654l-327 834z" />
    <glyph glyph-name="abreve" unicode="&#x103;" horiz-adv-x="1105" 
d="M544 1228q-110 0 -182.5 72t-86.5 200h63q15 -103 70.5 -160t135.5 -57q81 0 136 57t70 160h62q-14 -129 -86 -200.5t-182 -71.5zM541 1063q169 0 275.5 -102t106.5 -291v-670h-72v194q-35 -80 -139 -144t-240 -64q-163 0 -260.5 82t-97.5 221q0 313 476 313h261v61
q0 160 -84.5 246t-226.5 86q-201 0 -311 -152l-56 42q131 178 368 178zM474 51q81 0 153 30t120 77.5t76 105.5t28 115v158h-240q-206 0 -315 -58.5t-109 -190.5q0 -109 77 -173t210 -64z" />
    <glyph glyph-name="Aogonek" unicode="&#x104;" horiz-adv-x="1400" 
d="M1314 -311l33 -47q-67 -56 -142 -56q-85 0 -138 47.5t-53 123.5q0 64 54 123.5t170 123.5l-182 466h-712l-184 -470h-83l581 1475h83l583 -1475h-16q-230 -123 -230 -236q0 -52 35 -85.5t91 -33.5q61 0 110 44zM373 542h654l-327 834z" />
    <glyph glyph-name="aogonek" unicode="&#x105;" horiz-adv-x="1105" 
d="M912 -311l33 -47q-67 -56 -141 -56q-85 0 -138.5 47.5t-53.5 123.5q0 66 57.5 127.5t181.5 126.5v183q-35 -80 -139 -144t-240 -64q-163 0 -260.5 82t-97.5 221q0 313 476 313h261v61q0 160 -84.5 246t-226.5 86q-201 0 -311 -152l-56 42q131 178 368 178
q169 0 275.5 -102t106.5 -291v-670h-17q-229 -123 -229 -236q0 -52 35 -85.5t91 -33.5q60 0 109 44zM474 51q81 0 153 30t120 77.5t76 105.5t28 115v158h-240q-206 0 -315 -58.5t-109 -190.5q0 -109 77 -173t210 -64z" />
    <glyph glyph-name="Cacute" unicode="&#x106;" horiz-adv-x="1458" 
d="M700 1593l177 276h82l-189 -276h-70zM790 -15q-298 0 -477 207t-179 549q0 339 177.5 544t475.5 205q182 0 320 -84t223 -250l-66 -32q-74 145 -196 219.5t-281 74.5q-260 0 -417.5 -185.5t-157.5 -491.5q0 -310 159.5 -497t420.5 -187q169 0 285.5 78t186.5 238l67 -29
q-84 -185 -216 -272t-325 -87z" />
    <glyph glyph-name="cacute" unicode="&#x107;" horiz-adv-x="1069" 
d="M504 1238l175 275h83l-189 -275h-69zM590 -14q-218 0 -347 146t-129 391t129.5 391.5t344.5 146.5q124 0 223 -54.5t158 -161.5l-64 -36q-51 89 -131.5 135.5t-182.5 46.5q-183 0 -293 -127t-110 -341t110 -341t293 -127q214 0 312 198l67 -34q-116 -233 -380 -233z" />
    <glyph glyph-name="Ccircumflex" unicode="&#x108;" horiz-adv-x="1458" 
d="M788 1802l-191 -209h-77l232 266h72l232 -266h-77zM1264 373l67 -29q-84 -185 -216 -272t-325 -87q-298 0 -477 207t-179 549q0 339 177.5 544t475.5 205q182 0 320 -84t223 -250l-66 -32q-74 145 -196 219.5t-281 74.5q-260 0 -417.5 -185.5t-157.5 -491.5
q0 -310 159.5 -497t420.5 -187q169 0 285.5 78t186.5 238z" />
    <glyph glyph-name="ccircumflex" unicode="&#x109;" horiz-adv-x="1069" 
d="M587 1445l-193 -209h-76l232 264h73l230 -264h-76zM903 253l67 -34q-116 -233 -380 -233q-218 0 -347 146t-129 391t129.5 391.5t344.5 146.5q124 0 223 -54.5t158 -161.5l-64 -36q-51 89 -131.5 135.5t-182.5 46.5q-183 0 -293 -127t-110 -341t110 -341t293 -127
q214 0 312 198z" />
    <glyph glyph-name="Cdotaccent" unicode="&#x10a;" horiz-adv-x="1458" 
d="M748 1636v168h79v-168h-79zM790 -15q-298 0 -477 207t-179 549q0 339 177.5 544t475.5 205q182 0 320 -84t223 -250l-66 -32q-74 145 -196 219.5t-281 74.5q-260 0 -417.5 -185.5t-157.5 -491.5q0 -310 159.5 -497t420.5 -187q169 0 285.5 78t186.5 238l67 -29
q-84 -185 -216 -272t-325 -87z" />
    <glyph glyph-name="cdotaccent" unicode="&#x10b;" horiz-adv-x="1069" 
d="M546 1307v168h80v-168h-80zM590 -14q-218 0 -347 146t-129 391t129.5 391.5t344.5 146.5q124 0 223 -54.5t158 -161.5l-64 -36q-51 89 -131.5 135.5t-182.5 46.5q-183 0 -293 -127t-110 -341t110 -341t293 -127q214 0 312 198l67 -34q-116 -233 -380 -233z" />
    <glyph glyph-name="Ccaron" unicode="&#x10c;" horiz-adv-x="1458" 
d="M822 1593h-72l-232 266h76l192 -209l191 209h76zM1264 373l67 -29q-84 -185 -216 -272t-325 -87q-298 0 -477 207t-179 549q0 339 177.5 544t475.5 205q182 0 320 -84t223 -250l-66 -32q-74 145 -196 219.5t-281 74.5q-260 0 -417.5 -185.5t-157.5 -491.5
q0 -310 159.5 -497t420.5 -187q169 0 285.5 78t186.5 238z" />
    <glyph glyph-name="ccaron" unicode="&#x10d;" horiz-adv-x="1069" 
d="M621 1236h-73l-233 264h77l193 -208l189 208h77zM903 253l67 -34q-116 -233 -380 -233q-218 0 -347 146t-129 391t129.5 391.5t344.5 146.5q124 0 223 -54.5t158 -161.5l-64 -36q-51 89 -131.5 135.5t-182.5 46.5q-183 0 -293 -127t-110 -341t110 -341t293 -127
q214 0 312 198z" />
    <glyph glyph-name="Dcaron" unicode="&#x10e;" horiz-adv-x="1458" 
d="M672 1593h-74l-231 266h76l192 -209l190 209h77zM682 1475q290 0 467 -201t177 -538q0 -336 -177 -536t-467 -200h-466v1475h466zM672 72q262 0 418.5 180.5t156.5 483.5q0 304 -156.5 485.5t-418.5 181.5h-379v-1331h379z" />
    <glyph glyph-name="dcaron" unicode="&#x10f;" horiz-adv-x="1234" 
d="M977 817v658h72v-1475h-72v229q-50 -106 -154.5 -174.5t-252.5 -68.5q-200 0 -328 148.5t-128 389.5t128 390t328 149q146 0 250 -68.5t157 -177.5zM1194 1475h80l-20 -426h-60v426zM584 55q176 0 286 129t110 340t-110 340.5t-286 129.5q-174 0 -285 -126.5t-111 -343.5
t111 -343t285 -126z" />
    <glyph glyph-name="Dcroat" unicode="&#x110;" horiz-adv-x="1458" 
d="M682 1475q290 0 466.5 -201.5t176.5 -537.5t-176.5 -536t-466.5 -200h-466v703h-174v68h174v704h466zM672 72q262 0 418 180.5t156 483.5t-156 485t-418 182h-379v-632h448v-68h-448v-631h379z" />
    <glyph glyph-name="dcroat" unicode="&#x111;" 
d="M1189 1279v-66h-140v-1213h-72v229q-50 -107 -154 -175t-251 -68q-202 0 -330 148.5t-128 389.5t128 390t330 149q142 0 247.5 -68t157.5 -178v396h-308v66h308v196h72v-196h140zM585 55q176 0 285.5 129t109.5 340t-110 340.5t-285 129.5t-286 -127t-111 -343
q0 -217 111 -343t286 -126z" />
    <glyph glyph-name="Emacron" unicode="&#x112;" horiz-adv-x="1299" 
d="M428 1665v62h529v-62h-529zM216 0v1475h948v-72h-870v-619h803v-71h-803v-641h878v-72h-956z" />
    <glyph glyph-name="emacron" unicode="&#x113;" horiz-adv-x="1147" 
d="M840 1359v-63h-529v63h529zM579 1063q205 0 331.5 -147.5t126.5 -386.5v-20h-849q3 -207 111.5 -331t295.5 -124q110 0 200 47t144 146l61 -33q-55 -108 -162 -168t-239 -60q-224 0 -354.5 145.5t-130.5 391.5q0 244 129 392t336 148zM578 994q-161 0 -268 -114
t-120 -306h772q-12 190 -117.5 305t-266.5 115z" />
    <glyph glyph-name="Ebreve" unicode="&#x114;" horiz-adv-x="1299" 
d="M693 1586q-110 0 -182 72t-86 201h62q15 -104 70 -161t136 -57q80 0 135.5 57.5t70.5 160.5h63q-15 -129 -87 -201t-182 -72zM216 0v1475h948v-72h-870v-619h803v-71h-803v-641h878v-72h-956z" />
    <glyph glyph-name="ebreve" unicode="&#x115;" horiz-adv-x="1147" 
d="M577 1228q-111 0 -183 71.5t-86 200.5h63q15 -103 70 -160t136 -57q80 0 135 57t70 160h62q-14 -129 -85.5 -200.5t-181.5 -71.5zM579 1063q205 0 331.5 -147.5t126.5 -386.5v-20h-849q3 -207 111.5 -331t295.5 -124q110 0 200 47t144 146l61 -33q-55 -108 -162 -168
t-239 -60q-224 0 -354.5 145.5t-130.5 391.5q0 244 129 392t336 148zM578 994q-161 0 -268 -114t-120 -306h772q-12 190 -117.5 305t-266.5 115z" />
    <glyph glyph-name="Edotaccent" unicode="&#x116;" horiz-adv-x="1299" 
d="M653 1636v168h80v-168h-80zM216 0v1475h948v-72h-870v-619h803v-71h-803v-641h878v-72h-956z" />
    <glyph glyph-name="edotaccent" unicode="&#x117;" horiz-adv-x="1147" 
d="M616 1475v-168h-79v168h79zM579 1063q205 0 331.5 -147.5t126.5 -386.5v-20h-849q3 -207 111.5 -331t295.5 -124q110 0 200 47t144 146l61 -33q-55 -108 -162 -168t-239 -60q-224 0 -354.5 145.5t-130.5 391.5q0 244 129 392t336 148zM578 994q-161 0 -268 -114
t-120 -306h772q-12 190 -117.5 305t-266.5 115z" />
    <glyph glyph-name="Eogonek" unicode="&#x118;" horiz-adv-x="1276" 
d="M1141 -311l33 -47q-65 -56 -142 -56q-85 0 -137.5 47.5t-52.5 123.5q0 63 52.5 122t164.5 121h-843v1475h948v-72h-870v-619h803v-71h-803v-641h878v-72h-37q-230 -123 -230 -236q0 -53 35.5 -86t91.5 -33q62 0 109 44z" />
    <glyph glyph-name="eogonek" unicode="&#x119;" horiz-adv-x="1150" 
d="M1037 529v-20h-849q4 -209 111.5 -332t294.5 -123q110 0 200.5 47t144.5 146l61 -33q-56 -110 -178 -176q-98 -55 -155 -123t-57 -139q0 -59 34.5 -95t90.5 -36q59 0 109 44l33 -47q-63 -56 -142 -56q-85 0 -137 51.5t-52 130.5q0 124 136 224q-40 -6 -83 -6
q-224 0 -354.5 146t-130.5 391q0 244 128.5 392t335.5 148q205 0 332 -147.5t127 -386.5zM577 994q-161 0 -267.5 -114t-119.5 -306h772q-12 191 -117.5 305.5t-267.5 114.5z" />
    <glyph glyph-name="Ecaron" unicode="&#x11a;" horiz-adv-x="1299" 
d="M727 1593h-73l-231 266h77l191 -209l191 209h76zM294 72h878v-72h-956v1475h948v-72h-870v-619h803v-71h-803v-641z" />
    <glyph glyph-name="ecaron" unicode="&#x11b;" horiz-adv-x="1147" 
d="M610 1236h-72l-232 264h76l192 -208l191 208h76zM579 1063q205 0 331.5 -147.5t126.5 -386.5v-20h-849q3 -207 111.5 -331t295.5 -124q110 0 200 47t144 146l61 -33q-55 -108 -162 -168t-239 -60q-224 0 -354.5 145.5t-130.5 391.5q0 244 129 392t336 148zM578 994
q-161 0 -268 -114t-120 -306h772q-12 190 -117.5 305t-266.5 115z" />
    <glyph glyph-name="Gcircumflex" unicode="&#x11c;" horiz-adv-x="1510" 
d="M787 1802l-191 -209h-77l232 266h73l231 -266h-77zM799 728h541v-728h-71v275q-51 -125 -178.5 -207.5t-298.5 -82.5q-301 0 -479.5 206t-178.5 549q0 223 81 393t231 263.5t349 93.5q167 0 303.5 -73.5t222.5 -210.5l-65 -39q-74 122 -192.5 186t-269.5 64
q-261 0 -421.5 -185.5t-160.5 -491.5q0 -308 160.5 -495.5t420.5 -187.5q215 0 345.5 139.5t130.5 344.5v115h-470v72z" />
    <glyph glyph-name="gcircumflex" unicode="&#x11d;" horiz-adv-x="1235" 
d="M598 1444l-191 -208h-77l231 264h74l230 -264h-77zM971 1049h71v-950q0 -221 -122.5 -346.5t-342.5 -125.5q-281 0 -435 201l54 47q130 -180 384 -180q184 0 287.5 107.5t103.5 292.5v145q-47 -106 -149 -173t-242 -67q-208 0 -337 145.5t-129 386.5q0 240 129 385.5
t337 145.5q141 0 242.5 -68t148.5 -174v228zM583 70q173 0 282 122.5t109 339.5q0 216 -109 338.5t-282 122.5q-177 0 -286 -125.5t-109 -335.5q0 -211 109 -336.5t286 -125.5z" />
    <glyph glyph-name="Gbreve" unicode="&#x11e;" horiz-adv-x="1510" 
d="M787 1586q-110 0 -182 72t-86 201h63q15 -104 69.5 -161t135.5 -57q80 0 135.5 57.5t70.5 160.5h63q-15 -129 -87 -201t-182 -72zM799 728h541v-728h-71v275q-51 -125 -178.5 -207.5t-298.5 -82.5q-301 0 -479.5 206t-178.5 549q0 223 81 393t231 263.5t349 93.5
q167 0 303.5 -73.5t222.5 -210.5l-65 -39q-74 122 -192.5 186t-269.5 64q-261 0 -421.5 -185.5t-160.5 -491.5q0 -308 160.5 -495.5t420.5 -187.5q215 0 345.5 139.5t130.5 344.5v115h-470v72z" />
    <glyph glyph-name="gbreve" unicode="&#x11f;" horiz-adv-x="1235" 
d="M598 1228q-110 0 -182 71.5t-86 200.5h62q15 -103 70 -160t136 -57q80 0 135.5 57t70.5 160h62q-15 -129 -86.5 -200.5t-181.5 -71.5zM971 1049h71v-950q0 -221 -122.5 -346.5t-342.5 -125.5q-281 0 -435 201l54 47q130 -180 384 -180q184 0 287.5 107.5t103.5 292.5v145
q-47 -106 -149 -173t-242 -67q-208 0 -337 145.5t-129 386.5q0 240 129 385.5t337 145.5q141 0 242.5 -68t148.5 -174v228zM583 70q173 0 282 122.5t109 339.5q0 216 -109 338.5t-282 122.5q-177 0 -286 -125.5t-109 -335.5q0 -211 109 -336.5t286 -125.5z" />
    <glyph glyph-name="Gdotaccent" unicode="&#x120;" horiz-adv-x="1510" 
d="M827 1804v-168h-79v168h79zM799 728h541v-728h-71v275q-51 -125 -178.5 -207.5t-298.5 -82.5q-301 0 -479.5 206t-178.5 549q0 223 81 393t231 263.5t349 93.5q167 0 303.5 -73.5t222.5 -210.5l-65 -39q-74 122 -192.5 186t-269.5 64q-261 0 -421.5 -185.5t-160.5 -491.5
q0 -308 160.5 -495.5t420.5 -187.5q215 0 345.5 139.5t130.5 344.5v115h-470v72z" />
    <glyph glyph-name="gdotaccent" unicode="&#x121;" horiz-adv-x="1235" 
d="M638 1475v-168h-80v168h80zM971 1049h71v-950q0 -221 -122.5 -346.5t-342.5 -125.5q-281 0 -435 201l54 47q130 -180 384 -180q184 0 287.5 107.5t103.5 292.5v145q-47 -106 -149 -173t-242 -67q-208 0 -337 145.5t-129 386.5q0 240 129 385.5t337 145.5q141 0 242.5 -68
t148.5 -174v228zM583 70q173 0 282 122.5t109 339.5q0 216 -109 338.5t-282 122.5q-177 0 -286 -125.5t-109 -335.5q0 -211 109 -336.5t286 -125.5z" />
    <glyph glyph-name="uni0122" unicode="&#x122;" horiz-adv-x="1510" 
d="M799 728h541v-728h-71v275q-51 -125 -178.5 -207.5t-298.5 -82.5q-301 0 -479.5 206t-178.5 549q0 223 81 393t231 263.5t349 93.5q167 0 303.5 -73.5t222.5 -210.5l-65 -39q-74 122 -192.5 186t-269.5 64q-261 0 -421.5 -185.5t-160.5 -491.5q0 -308 160.5 -495.5
t420.5 -187.5q215 0 345.5 139.5t130.5 344.5v115h-470v72zM745 -229v142h98v-146q0 -65 -23.5 -102.5t-78.5 -71.5l-26 37q45 28 61.5 56.5t17.5 84.5h-49z" />
    <glyph glyph-name="uni0123" unicode="&#x123;" horiz-adv-x="1235" 
d="M643 1367v-142h-97v146q0 66 22.5 102.5t77.5 70.5l28 -38q-46 -28 -62 -55.5t-17 -83.5h48zM971 1049h71v-950q0 -221 -122.5 -346.5t-342.5 -125.5q-281 0 -435 201l54 47q130 -180 384 -180q184 0 287.5 107.5t103.5 292.5v145q-47 -106 -149 -173t-242 -67
q-208 0 -337 145.5t-129 386.5q0 240 129 385.5t337 145.5q141 0 242.5 -68t148.5 -174v228zM583 70q173 0 282 122.5t109 339.5q0 216 -109 338.5t-282 122.5q-177 0 -286 -125.5t-109 -335.5q0 -211 109 -336.5t286 -125.5z" />
    <glyph glyph-name="Hcircumflex" unicode="&#x124;" horiz-adv-x="1509" 
d="M755 1802l-192 -209h-77l232 266h74l230 -266h-77zM1219 1475h76v-1475h-76v711h-926v-711h-77v1475h77v-693h926v693z" />
    <glyph glyph-name="hcircumflex" unicode="&#x125;" horiz-adv-x="1179" 
d="M562 1802l-192 -209h-76l231 266h73l230 -266h-75zM646 1063q161 0 256 -90.5t95 -249.5v-723h-71v709q0 135 -78.5 210.5t-213.5 75.5q-88 0 -160.5 -31t-116.5 -81t-68 -108.5t-24 -117.5v-657h-71v1475h71v-611q50 86 147 142.5t234 56.5z" />
    <glyph glyph-name="Hbar" unicode="&#x126;" horiz-adv-x="1509" 
d="M1453 1157v-72h-159v-1085h-76v711h-925v-711h-77v1085h-159v72h159v318h77v-318h925v318h76v-318h159zM293 782h925v303h-925v-303z" />
    <glyph glyph-name="hbar" unicode="&#x127;" horiz-adv-x="1167" 
d="M633 1063q161 0 256 -90.5t95 -249.5v-723h-72v709q0 136 -78.5 211t-212.5 75q-70 0 -131 -20t-104 -54t-74 -77.5t-45.5 -90.5t-14.5 -94v-659h-72v1213h-140v66h140v196h72v-196h309v-66h-309v-349q50 86 147 142.5t234 56.5z" />
    <glyph glyph-name="Itilde" unicode="&#x128;" horiz-adv-x="508" 
d="M395 1608q-64 0 -154 59q-76 50 -126 50q-82 0 -145 -107l-50 36q82 136 195 136q63 0 152 -59q77 -51 128 -51q78 0 141 108l50 -36q-82 -136 -191 -136zM216 0v1475h78v-1475h-78z" />
    <glyph glyph-name="itilde" unicode="&#x129;" horiz-adv-x="457" 
d="M370 1274q-65 0 -155 59q-76 50 -126 50q-81 0 -144 -107l-50 36q82 136 194 136q64 0 153 -58q78 -52 128 -52q77 0 140 108l50 -36q-82 -136 -190 -136zM193 0v1049h71v-1049h-71z" />
    <glyph glyph-name="Imacron" unicode="&#x12a;" horiz-adv-x="508" 
d="M-10 1665v62h528v-62h-528zM216 0v1475h78v-1475h-78z" />
    <glyph glyph-name="imacron" unicode="&#x12b;" horiz-adv-x="457" 
d="M-36 1296v63h529v-63h-529zM193 0v1049h71v-1049h-71z" />
    <glyph glyph-name="Ibreve" unicode="&#x12c;" horiz-adv-x="508" 
d="M254 1586q-110 0 -181.5 72t-85.5 201h61q16 -104 71 -161t135 -57q81 0 136 57t70 161h62q-14 -129 -86 -201t-182 -72zM216 0v1475h78v-1475h-78z" />
    <glyph glyph-name="ibreve" unicode="&#x12d;" horiz-adv-x="457" 
d="M228 1228q-110 0 -181.5 71.5t-85.5 200.5h62q16 -104 70.5 -160.5t134.5 -56.5q81 0 136 57t70 160h63q-14 -129 -86 -200.5t-183 -71.5zM193 0v1049h71v-1049h-71z" />
    <glyph glyph-name="Iogonek" unicode="&#x12e;" horiz-adv-x="509" 
d="M343 -311l33 -47q-62 -56 -142 -56q-84 0 -136 49.5t-52 124.5q0 71 42.5 126t127.5 116v1473h78v-1475h-11q-83 -56 -127.5 -111t-44.5 -121q0 -53 33.5 -88t88.5 -35q62 0 110 44z" />
    <glyph glyph-name="iogonek" unicode="&#x12f;" horiz-adv-x="457" 
d="M269 1475v-168h-81v168h81zM319 -311l33 -47q-63 -56 -142 -56q-84 0 -136 49.5t-52 124.5q0 71 42.5 126.5t128.5 115.5v1047h71v-1049h-5q-83 -56 -128 -111t-45 -121q0 -53 34.5 -88t89.5 -35q60 0 109 44z" />
    <glyph glyph-name="Idotaccent" unicode="&#x130;" horiz-adv-x="508" 
d="M214 1636v168h80v-168h-80zM216 0v1475h78v-1475h-78z" />
    <glyph glyph-name="dotlessi" unicode="&#x131;" horiz-adv-x="457" 
d="M193 0v1049h71v-1049h-71z" />
    <glyph glyph-name="IJ" unicode="&#x132;" horiz-adv-x="1590" 
d="M216 0v1475h78v-1475h-78zM1007 -12q-290 0 -406 264l66 31q95 -225 337 -225q147 0 228 92t81 252v1073h76v-1079q0 -187 -103.5 -297.5t-278.5 -110.5z" />
    <glyph glyph-name="ij" unicode="&#x133;" horiz-adv-x="915" 
d="M190 1307v168h81v-168h-81zM646 1307v168h81v-168h-81zM195 0v1049h71v-1049h-71zM522 -370q-54 0 -115 22l18 63q49 -17 92 -17q133 0 133 197v1154h72v-1175q0 -116 -52 -180t-148 -64z" />
    <glyph glyph-name="Jcircumflex" unicode="&#x134;" horiz-adv-x="1081" 
d="M879 1859l230 -266h-76l-190 209l-193 -209h-76l232 266h73zM804 402v1073h76v-1079q0 -187 -103 -297.5t-279 -110.5q-290 0 -405 264l65 31q96 -225 338 -225q146 0 227 92t81 252z" />
    <glyph glyph-name="jcircumflex" unicode="&#x135;" horiz-adv-x="457" 
d="M265 1500l232 -264h-77l-191 208l-191 -208h-77l232 264h72zM193 -105v1154h71v-1175q0 -117 -51.5 -180.5t-147.5 -63.5q-55 0 -116 22l18 63q51 -17 92 -17q134 0 134 197z" />
    <glyph glyph-name="uni0136" unicode="&#x136;" horiz-adv-x="1298" 
d="M668 890l568 -889h-91l-530 829l-321 -362v-468h-78v1475h78v-902l801 902h90zM611 -229v142h98v-146q0 -65 -23.5 -102.5t-78.5 -71.5l-26 37q45 27 61 56t17 85h-48z" />
    <glyph glyph-name="uni0137" unicode="&#x137;" horiz-adv-x="1047" 
d="M521 606l457 -606h-87l-420 550l-207 -233v-317h-71v1475h71v-1056l561 630h91zM490 -229v142h98v-146q0 -66 -23 -103t-78 -71l-27 37q46 27 62.5 56t17.5 85h-50z" />
    <glyph glyph-name="kgreenlandic" unicode="&#x138;" horiz-adv-x="1047" 
d="M891 0l-420 550l-207 -233v-317h-71v1049h71v-630l561 630h91l-395 -443l457 -606h-87z" />
    <glyph glyph-name="Lacute" unicode="&#x139;" horiz-adv-x="1125" 
d="M426 1869l-189 -276h-70l176 276h83zM294 72h781v-72h-859v1475h78v-1403z" />
    <glyph glyph-name="lacute" unicode="&#x13a;" horiz-adv-x="457" 
d="M141 1593l176 276h83l-189 -276h-70zM193 0v1475h71v-1475h-71z" />
    <glyph glyph-name="uni013B" unicode="&#x13b;" horiz-adv-x="1125" 
d="M294 72h781v-72h-859v1475h78v-1403zM600 -229v142h96v-146q0 -66 -22.5 -103t-77.5 -71l-27 37q45 28 61.5 56.5t17.5 84.5h-48z" />
    <glyph glyph-name="uni013C" unicode="&#x13c;" horiz-adv-x="457" 
d="M264 1475v-1475h-71v1475h71zM180 -87h98v-146q0 -65 -23 -102.5t-78 -71.5l-27 37q45 27 61 55.5t17 85.5h-48v142z" />
    <glyph glyph-name="Lcaron" unicode="&#x13d;" horiz-adv-x="1125" 
d="M294 72h781v-72h-859v1475h78v-1403zM643 1475l-18 -426h-61v426h79z" />
    <glyph glyph-name="lcaron" unicode="&#x13e;" horiz-adv-x="445" 
d="M193 0v1475h71v-1475h-71zM404 1049v426h80l-19 -426h-61z" />
    <glyph glyph-name="Ldot" unicode="&#x13f;" horiz-adv-x="1125" 
d="M294 72h781v-72h-859v1475h78v-1403zM841 845v-168h-98v168h98z" />
    <glyph glyph-name="ldot" unicode="&#x140;" horiz-adv-x="499" 
d="M193 0v1475h71v-1475h-71zM430 653v168h97v-168h-97z" />
    <glyph glyph-name="Lslash" unicode="&#x141;" horiz-adv-x="1145" 
d="M314 72h782v-72h-858v685l-191 -107v77l191 108v712h76v-679l486 274v-77l-486 -274v-647z" />
    <glyph glyph-name="lslash" unicode="&#x142;" horiz-adv-x="644" 
d="M572 1060v-79l-214 -145v-836h-71v796l-214 -144v80l214 144v599h71v-560z" />
    <glyph glyph-name="Nacute" unicode="&#x143;" horiz-adv-x="1489" 
d="M926 1869l-189 -276h-69l175 276h83zM1198 1475h78v-1475h-101l-881 1369v-1369h-78v1475h97l885 -1372v1372z" />
    <glyph glyph-name="nacute" unicode="&#x144;" horiz-adv-x="1179" 
d="M764 1513l-189 -275h-69l176 275h82zM643 1063q163 0 258.5 -90.5t95.5 -249.5v-723h-71v709q0 135 -79 210.5t-216 75.5q-87 0 -158.5 -31t-115.5 -80.5t-68 -108.5t-24 -118v-657h-71v1049h71v-185q50 86 146 142.5t232 56.5z" />
    <glyph glyph-name="uni0145" unicode="&#x145;" horiz-adv-x="1489" 
d="M1198 1475h78v-1475h-101l-881 1369v-1369h-78v1475h97l885 -1372v1372zM696 -229v142h98v-146q0 -66 -23 -103t-78 -71l-27 37q45 27 61 55.5t17 85.5h-48z" />
    <glyph glyph-name="uni0146" unicode="&#x146;" horiz-adv-x="1179" 
d="M643 1063q163 0 258.5 -90.5t95.5 -249.5v-723h-71v709q0 135 -79 210.5t-216 75.5q-87 0 -158.5 -31t-115.5 -80.5t-68 -108.5t-24 -118v-657h-71v1049h71v-185q50 86 146 142.5t232 56.5zM552 -229v142h97v-146q0 -66 -22.5 -103t-77.5 -71l-28 37q46 27 62.5 56
t17.5 85h-49z" />
    <glyph glyph-name="Ncaron" unicode="&#x147;" horiz-adv-x="1489" 
d="M790 1593h-74l-232 266h77l192 -209l190 209h77zM1198 1475h78v-1475h-101l-881 1369v-1369h-78v1475h97l885 -1372v1372z" />
    <glyph glyph-name="ncaron" unicode="&#x148;" horiz-adv-x="1179" 
d="M623 1236h-73l-233 264h77l193 -208l189 208h77zM643 1063q163 0 258.5 -90.5t95.5 -249.5v-723h-71v709q0 135 -79 210.5t-216 75.5q-87 0 -158.5 -31t-115.5 -80.5t-68 -108.5t-24 -118v-657h-71v1049h71v-185q50 86 146 142.5t232 56.5z" />
    <glyph glyph-name="napostrophe" unicode="&#x149;" horiz-adv-x="1411" 
d="M186 1306v169h97v-176q0 -95 -22.5 -143.5t-78.5 -90.5l-34 39q51 36 67 78t17 124h-46zM874 1063q163 0 259 -90.5t96 -249.5v-723h-72v709q0 135 -79 210.5t-216 75.5q-87 0 -158.5 -31t-115 -80.5t-67.5 -108.5t-24 -118v-657h-72v1049h72v-185q50 86 145.5 142.5
t231.5 56.5z" />
    <glyph glyph-name="Eng" unicode="&#x14a;" horiz-adv-x="1491" 
d="M1198 1475h78v-1500q0 -135 -88 -211.5t-225 -76.5q-144 0 -241 63l35 62q90 -56 202 -56q103 0 171 60.5t68 167.5v23l-904 1364v-1371h-78v1475h97l885 -1337v1337z" />
    <glyph glyph-name="eng" unicode="&#x14b;" horiz-adv-x="1180" 
d="M643 1063q163 0 258.5 -90.5t95.5 -249.5v-789q0 -117 -52 -180t-147 -63q-60 0 -117 22l18 63q51 -17 94 -17q133 0 133 188v762q0 137 -79 212.5t-216 75.5q-87 0 -158.5 -31t-115.5 -81t-68 -108.5t-24 -117.5v-659h-71v1049h71v-185q49 87 145 143t233 56z" />
    <glyph glyph-name="Omacron" unicode="&#x14c;" horiz-adv-x="1583" 
d="M526 1664v62h530v-62h-530zM792 -16q-299 0 -478.5 207t-179.5 549q0 339 179.5 545t478.5 206q198 0 347.5 -93.5t229.5 -263.5t80 -394q0 -342 -178.5 -549t-478.5 -207zM792 57q261 0 420 186t159 497q0 308 -159 492.5t-420 184.5t-420 -184.5t-159 -492.5
q0 -311 159 -497t420 -186z" />
    <glyph glyph-name="omacron" unicode="&#x14d;" horiz-adv-x="1176" 
d="M323 1296v63h529v-63h-529zM588 -14q-215 0 -344.5 146.5t-129.5 391.5t129.5 392t344.5 147t345 -147t130 -392t-129.5 -391.5t-345.5 -146.5zM588 54q181 0 290.5 128.5t109.5 341.5t-109.5 341t-290.5 128t-290.5 -128t-109.5 -341t109.5 -341.5t290.5 -128.5z" />
    <glyph glyph-name="Obreve" unicode="&#x14e;" horiz-adv-x="1583" 
d="M792 1585q-110 0 -182.5 72t-86.5 201h63q15 -104 70 -161t136 -57q80 0 135 57t70 161h63q-14 -129 -86 -201t-182 -72zM792 -16q-299 0 -478.5 207t-179.5 549q0 339 179.5 545t478.5 206q198 0 347.5 -93.5t229.5 -263.5t80 -394q0 -342 -178.5 -549t-478.5 -207z
M792 57q261 0 420 186t159 497q0 308 -159 492.5t-420 184.5t-420 -184.5t-159 -492.5q0 -311 159 -497t420 -186z" />
    <glyph glyph-name="obreve" unicode="&#x14f;" horiz-adv-x="1176" 
d="M588 1228q-111 0 -183 71.5t-86 200.5h63q15 -103 70 -160t136 -57q80 0 135.5 57t70.5 160h62q-14 -128 -86 -200t-182 -72zM588 -14q-215 0 -344.5 146.5t-129.5 391.5t129.5 392t344.5 147t345 -147t130 -392t-129.5 -391.5t-345.5 -146.5zM588 54q181 0 290.5 128.5
t109.5 341.5t-109.5 341t-290.5 128t-290.5 -128t-109.5 -341t109.5 -341.5t290.5 -128.5z" />
    <glyph glyph-name="Ohungarumlaut" unicode="&#x150;" horiz-adv-x="1583" 
d="M579 1593l176 276h82l-189 -276h-69zM897 1593l175 276h83l-188 -276h-70zM792 -16q-299 0 -478.5 207t-179.5 549q0 339 179.5 545t478.5 206q198 0 347.5 -93.5t229.5 -263.5t80 -394q0 -342 -178.5 -549t-478.5 -207zM792 57q261 0 420 186t159 497q0 308 -159 492.5
t-420 184.5t-420 -184.5t-159 -492.5q0 -311 159 -497t420 -186z" />
    <glyph glyph-name="ohungarumlaut" unicode="&#x151;" horiz-adv-x="1176" 
d="M381 1238l175 275h83l-188 -275h-70zM699 1238l175 275h83l-188 -275h-70zM588 -14q-215 0 -344.5 146.5t-129.5 391.5t129.5 392t344.5 147t345 -147t130 -392t-129.5 -391.5t-345.5 -146.5zM588 54q181 0 290.5 128.5t109.5 341.5t-109.5 341t-290.5 128t-290.5 -128
t-109.5 -341t109.5 -341.5t290.5 -128.5z" />
    <glyph glyph-name="OE" unicode="&#x152;" horiz-adv-x="2119" 
d="M1180 72h835v-72h-1238q-290 0 -466.5 200t-176.5 536q0 337 176.5 538t466.5 201h1231v-72h-828v-619h764v-71h-764v-641zM786 72h317v1331h-317q-261 0 -417 -182t-156 -485t155.5 -483.5t417.5 -180.5z" />
    <glyph glyph-name="oe" unicode="&#x153;" horiz-adv-x="1930" 
d="M1817 529v-20h-790q3 -208 101.5 -332t275.5 -124q95 0 178 48t137 149l62 -36q-56 -108 -156 -168t-217 -60q-159 0 -269.5 86.5t-150.5 236.5q-45 -152 -155 -237.5t-263 -85.5q-207 0 -331.5 146.5t-124.5 391.5q0 244 125 391.5t331 147.5q153 0 262.5 -86.5
t155.5 -239.5q43 154 148 240t253 86q187 0 307.5 -148t120.5 -386zM1029 574h711q-10 189 -108.5 305t-243.5 116q-154 0 -250.5 -113.5t-108.5 -307.5zM570 55q172 0 276.5 128t104.5 341q0 211 -105 340t-276 129q-173 0 -277.5 -128t-104.5 -341t104.5 -341t277.5 -128z
" />
    <glyph glyph-name="Racute" unicode="&#x154;" horiz-adv-x="1294" 
d="M808 1869l-190 -276h-69l176 276h83zM1086 0l-360 688h-432v-688h-78v1475h541q180 0 287.5 -107t107.5 -287q0 -166 -91.5 -269.5t-249.5 -120.5l365 -691h-90zM294 1403v-643h458q147 0 234.5 87.5t87.5 233.5q0 147 -87.5 234.5t-234.5 87.5h-458z" />
    <glyph glyph-name="racute" unicode="&#x155;" horiz-adv-x="741" 
d="M596 1513l-188 -275h-70l176 275h82zM595 1062q62 0 104 -11l-19 -68q-41 9 -80 9q-63 0 -118.5 -24.5t-94 -64t-67 -88t-42 -97t-13.5 -90.5v-628h-71v1049h71v-210q11 25 28.5 51.5t47.5 58.5t65 56t85 40.5t104 16.5z" />
    <glyph glyph-name="uni0156" unicode="&#x156;" horiz-adv-x="1294" 
d="M1176 0h-90l-360 688h-432v-688h-78v1475h541q180 0 287.5 -107t107.5 -287q0 -166 -91.5 -269.5t-249.5 -120.5zM294 1403v-643h458q147 0 234.5 87.5t87.5 233.5q0 147 -87.5 234.5t-234.5 87.5h-458zM599 -229v142h97v-146q0 -66 -23 -103t-77 -71l-28 37
q45 28 61.5 56.5t17.5 84.5h-48z" />
    <glyph glyph-name="uni0157" unicode="&#x157;" horiz-adv-x="741" 
d="M595 1062q62 0 104 -11l-19 -68q-41 9 -80 9q-63 0 -118.5 -24.5t-94 -64t-67 -88t-42 -97t-13.5 -90.5v-628h-71v1049h71v-210q11 25 28.5 51.5t47.5 58.5t65 56t85 40.5t104 16.5zM180 -229v142h98v-146q0 -65 -23 -102.5t-78 -71.5l-27 37q45 27 61 55.5t17 85.5h-48z
" />
    <glyph glyph-name="Rcaron" unicode="&#x158;" horiz-adv-x="1294" 
d="M671 1593h-73l-231 266h75l193 -209l190 209h76zM1086 0l-360 688h-432v-688h-78v1475h541q180 0 287.5 -107t107.5 -287q0 -166 -91.5 -269.5t-249.5 -120.5l365 -691h-90zM294 1403v-643h458q147 0 234.5 87.5t87.5 233.5q0 147 -87.5 234.5t-234.5 87.5h-458z" />
    <glyph glyph-name="rcaron" unicode="&#x159;" horiz-adv-x="741" 
d="M455 1236h-73l-232 264h76l193 -208l189 208h77zM595 1062q62 0 104 -11l-19 -68q-41 9 -80 9q-63 0 -118.5 -24.5t-94 -64t-67 -88t-42 -97t-13.5 -90.5v-628h-71v1049h71v-210q11 25 28.5 51.5t47.5 58.5t65 56t85 40.5t104 16.5z" />
    <glyph glyph-name="Sacute" unicode="&#x15a;" horiz-adv-x="1327" 
d="M581 1593l175 276h83l-189 -276h-69zM682 -15q-201 0 -348.5 83.5t-209.5 231.5l70 33q52 -130 180.5 -203.5t307.5 -73.5q198 0 315 88.5t117 239.5q0 58 -17.5 105.5t-52.5 81.5t-74.5 59t-98.5 43.5t-107.5 30t-116.5 23.5q-58 10 -101 20t-95.5 26.5t-90 35.5
t-75.5 48t-62 64.5t-38.5 83.5t-14.5 106q0 169 136.5 273.5t360.5 104.5q178 0 316.5 -75.5t202.5 -207.5l-70 -31q-53 112 -173.5 177t-275.5 65q-188 0 -303.5 -84.5t-115.5 -220.5q0 -46 12.5 -84.5t33 -66.5t54 -52t66.5 -39.5t80.5 -30t86.5 -23t92 -18.5
q63 -11 108.5 -21t103.5 -28t98.5 -38t82.5 -51.5t67.5 -69.5t42 -90t16.5 -115q0 -183 -138 -291.5t-372 -108.5z" />
    <glyph glyph-name="sacute" unicode="&#x15b;" horiz-adv-x="996" 
d="M424 1238l175 275h83l-188 -275h-70zM515 -14q-155 0 -264.5 61.5t-155.5 166.5l65 34q40 -90 135 -141.5t221 -51.5q134 0 215.5 60t81.5 161q0 99 -77.5 148t-243.5 74q-172 27 -263.5 97t-91.5 196t98.5 199t257.5 73q255 0 370 -199l-65 -35q-90 164 -305 164
q-125 0 -203.5 -53.5t-78.5 -146.5q0 -92 75.5 -146.5t228.5 -78.5q93 -15 155 -34t114.5 -51t78 -82.5t25.5 -122.5q0 -134 -101.5 -213t-271.5 -79z" />
    <glyph glyph-name="Scircumflex" unicode="&#x15c;" horiz-adv-x="1327" 
d="M669 1802l-193 -209h-77l233 266h73l230 -266h-77zM673 798q63 -11 108.5 -21t103.5 -28t98.5 -38t82.5 -51.5t67.5 -69.5t42 -90t16.5 -115q0 -183 -138 -291.5t-372 -108.5q-201 0 -348.5 83.5t-209.5 231.5l70 33q52 -130 180.5 -203.5t307.5 -73.5q198 0 315 88.5
t117 239.5q0 58 -17.5 105.5t-52.5 81.5t-74.5 59t-98.5 43.5t-107.5 30t-116.5 23.5q-58 10 -101 20t-95.5 26.5t-90 35.5t-75.5 48t-62 64.5t-38.5 83.5t-14.5 106q0 169 136.5 273.5t360.5 104.5q178 0 316.5 -75.5t202.5 -207.5l-70 -31q-53 112 -173.5 177t-275.5 65
q-188 0 -303.5 -84.5t-115.5 -220.5q0 -46 12.5 -84.5t33 -66.5t54 -52t66.5 -39.5t80.5 -30t86.5 -23t92 -18.5z" />
    <glyph glyph-name="scircumflex" unicode="&#x15d;" horiz-adv-x="996" 
d="M507 1445l-193 -209h-75l231 264h73l230 -264h-76zM515 568q93 -15 155 -34t114.5 -51t78 -82.5t25.5 -122.5q0 -134 -101.5 -213t-271.5 -79q-155 0 -264.5 61.5t-155.5 166.5l65 34q40 -90 135 -141.5t221 -51.5q134 0 215.5 60t81.5 161q0 99 -77.5 148t-243.5 74
q-172 27 -263.5 97t-91.5 196t98.5 199t257.5 73q255 0 370 -199l-65 -35q-90 164 -305 164q-125 0 -203.5 -53.5t-78.5 -146.5q0 -92 75.5 -146.5t228.5 -78.5z" />
    <glyph glyph-name="Scedilla" unicode="&#x15e;" horiz-adv-x="1327" 
d="M1192 385q0 -179 -132.5 -287t-358.5 -113l-94 -298h-66l96 299q-185 10 -319.5 92.5t-193.5 221.5l70 33q52 -130 180.5 -203.5t307.5 -73.5q198 0 315 88.5t117 239.5q0 58 -17.5 105.5t-52.5 81.5t-74.5 59t-98.5 43.5t-107.5 30t-116.5 23.5q-58 10 -101 20
t-95.5 26.5t-90 35.5t-75.5 48t-62 64.5t-38.5 83.5t-14.5 106q0 169 136.5 273.5t360.5 104.5q178 0 316.5 -75.5t202.5 -207.5l-70 -31q-53 112 -173.5 177t-275.5 65q-188 0 -303.5 -84.5t-115.5 -220.5q0 -46 12.5 -84.5t33 -66.5t54 -52t66.5 -39.5t80.5 -30t86.5 -23
t92 -18.5q63 -11 108.5 -21t103.5 -28t98.5 -38t82.5 -51.5t67.5 -69.5t42 -90t16.5 -115z" />
    <glyph glyph-name="scedilla" unicode="&#x15f;" horiz-adv-x="996" 
d="M888 278q0 -127 -91 -205t-246 -86l-96 -300h-66l95 300q-143 6 -244 67t-145 160l65 34q40 -90 135 -141.5t221 -51.5q134 0 215.5 60t81.5 161q0 99 -77.5 148t-243.5 74q-172 27 -263.5 97t-91.5 196t98.5 199t257.5 73q255 0 370 -199l-65 -35q-90 164 -305 164
q-125 0 -203.5 -53.5t-78.5 -146.5q0 -92 75.5 -146.5t228.5 -78.5q93 -15 155 -34t114.5 -51t78 -82.5t25.5 -122.5z" />
    <glyph glyph-name="Scaron" unicode="&#x160;" horiz-adv-x="1327" 
d="M702 1593h-73l-232 266h77l192 -209l190 209h77zM673 798q63 -11 108.5 -21t103.5 -28t98.5 -38t82.5 -51.5t67.5 -69.5t42 -90t16.5 -115q0 -183 -138 -291.5t-372 -108.5q-201 0 -348.5 83.5t-209.5 231.5l70 33q52 -130 180.5 -203.5t307.5 -73.5q198 0 315 88.5
t117 239.5q0 58 -17.5 105.5t-52.5 81.5t-74.5 59t-98.5 43.5t-107.5 30t-116.5 23.5q-58 10 -101 20t-95.5 26.5t-90 35.5t-75.5 48t-62 64.5t-38.5 83.5t-14.5 106q0 169 136.5 273.5t360.5 104.5q178 0 316.5 -75.5t202.5 -207.5l-70 -31q-53 112 -173.5 177t-275.5 65
q-188 0 -303.5 -84.5t-115.5 -220.5q0 -46 12.5 -84.5t33 -66.5t54 -52t66.5 -39.5t80.5 -30t86.5 -23t92 -18.5z" />
    <glyph glyph-name="scaron" unicode="&#x161;" horiz-adv-x="996" 
d="M541 1236h-73l-232 264h76l193 -208l189 208h77zM515 568q93 -15 155 -34t114.5 -51t78 -82.5t25.5 -122.5q0 -134 -101.5 -213t-271.5 -79q-155 0 -264.5 61.5t-155.5 166.5l65 34q40 -90 135 -141.5t221 -51.5q134 0 215.5 60t81.5 161q0 99 -77.5 148t-243.5 74
q-172 27 -263.5 97t-91.5 196t98.5 199t257.5 73q255 0 370 -199l-65 -35q-90 164 -305 164q-125 0 -203.5 -53.5t-78.5 -146.5q0 -92 75.5 -146.5t228.5 -78.5z" />
    <glyph glyph-name="uni0162" unicode="&#x162;" horiz-adv-x="1211" 
d="M1154 1475v-72h-510v-1403h-5l-99 -313h-67l100 313h-6v1403h-511v72h1098z" />
    <glyph glyph-name="uni0163" unicode="&#x163;" horiz-adv-x="713" 
d="M591 10q-72 -24 -134 -24h-13l-95 -299h-66l98 308q-143 40 -143 250v738h-152v66h152v281h71v-281h257v-66h-257v-725q0 -107 36 -156.5t115 -49.5q49 0 112 21z" />
    <glyph glyph-name="Tcaron" unicode="&#x164;" horiz-adv-x="1211" 
d="M640 1593h-73l-232 266h77l192 -209l190 209h76zM1154 1475v-72h-510v-1403h-77v1403h-511v72h1098z" />
    <glyph glyph-name="tcaron" unicode="&#x165;" horiz-adv-x="713" 
d="M489 1498l-18 -364h-60v364h78zM571 73l19 -63q-72 -24 -134 -24q-219 0 -219 259v737h-152v67h152v281h71v-281h257v-67h-257v-724q0 -107 36 -156.5t115 -49.5q49 0 112 21z" />
    <glyph glyph-name="Tbar" unicode="&#x166;" horiz-adv-x="1211" 
d="M1154 1403h-510v-540h351v-71h-351v-792h-77v792h-351v71h351v540h-511v72h1098v-72z" />
    <glyph glyph-name="tbar" unicode="&#x167;" horiz-adv-x="713" 
d="M571 73l19 -63q-72 -24 -134 -24q-219 0 -219 259v317h-140v66h140v355h-152v66h152v281h71v-281h257v-66h-257v-355h201v-66h-201v-304q0 -107 36 -156.5t115 -49.5q49 0 112 21z" />
    <glyph glyph-name="Utilde" unicode="&#x168;" horiz-adv-x="1461" 
d="M871 1608q-64 0 -154 59q-76 50 -126 50q-82 0 -145 -107l-50 36q82 136 195 136q63 0 152 -59q77 -51 128 -51q78 0 141 108l50 -36q-82 -136 -191 -136zM726 -15q-251 0 -393.5 146t-142.5 377v967h77v-958q0 -133 51 -236t156 -163.5t252 -60.5q220 0 339.5 127.5
t119.5 332.5v958h77v-967q0 -231 -142.5 -377t-393.5 -146z" />
    <glyph glyph-name="utilde" unicode="&#x169;" horiz-adv-x="1177" 
d="M447 1383q-81 0 -144 -107l-50 36q82 136 194 136q64 0 153 -58q78 -52 128 -52q77 0 140 108l51 -36q-82 -136 -191 -136q-65 0 -155 59q-76 50 -126 50zM913 1049h72v-1049h-72v186q-49 -86 -145 -143t-232 -57q-162 0 -257.5 90.5t-95.5 249.5v723h72v-707
q0 -137 78.5 -213t214.5 -76q86 0 158 31t115.5 80.5t67.5 108t24 117.5v659z" />
    <glyph glyph-name="Umacron" unicode="&#x16a;" horiz-adv-x="1461" 
d="M466 1665v62h528v-62h-528zM726 -15q-251 0 -393.5 146t-142.5 377v967h77v-958q0 -133 51 -236t156 -163.5t252 -60.5q220 0 339.5 127.5t119.5 332.5v958h77v-967q0 -231 -142.5 -377t-393.5 -146z" />
    <glyph glyph-name="umacron" unicode="&#x16b;" horiz-adv-x="1177" 
d="M851 1359v-63h-528v63h528zM913 1049h72v-1049h-72v186q-49 -86 -145 -143t-232 -57q-162 0 -257.5 90.5t-95.5 249.5v723h72v-707q0 -137 78.5 -213t214.5 -76q86 0 158 31t115.5 80.5t67.5 108t24 117.5v659z" />
    <glyph glyph-name="Ubreve" unicode="&#x16c;" horiz-adv-x="1461" 
d="M731 1586q-110 0 -182 72t-86 201h62q15 -104 70 -161t136 -57q80 0 135 57t71 161h61q-14 -129 -85.5 -201t-181.5 -72zM726 -15q-251 0 -393.5 146t-142.5 377v967h77v-958q0 -133 51 -236t156 -163.5t252 -60.5q220 0 339.5 127.5t119.5 332.5v958h77v-967
q0 -231 -142.5 -377t-393.5 -146z" />
    <glyph glyph-name="ubreve" unicode="&#x16d;" horiz-adv-x="1177" 
d="M587 1228q-110 0 -182 72t-86 200h62q16 -104 71 -160.5t135 -56.5q81 0 136 57t70 160h62q-14 -129 -85.5 -200.5t-182.5 -71.5zM913 1049h72v-1049h-72v186q-49 -86 -145 -143t-232 -57q-162 0 -257.5 90.5t-95.5 249.5v723h72v-707q0 -137 78.5 -213t214.5 -76
q86 0 158 31t115.5 80.5t67.5 108t24 117.5v659z" />
    <glyph glyph-name="Uring" unicode="&#x16e;" horiz-adv-x="1461" 
d="M731 1578q-83 0 -136.5 54t-53.5 136q0 83 54 137t136 54q83 0 137 -54.5t54 -136.5t-54 -136t-137 -54zM731 1632q59 0 96.5 38t37.5 98t-37.5 98.5t-96.5 38.5t-96.5 -38.5t-37.5 -98.5t37.5 -98t96.5 -38zM726 -15q-251 0 -393.5 146t-142.5 377v967h77v-958
q0 -133 51 -236t156 -163.5t252 -60.5q220 0 339.5 127.5t119.5 332.5v958h77v-967q0 -231 -142.5 -377t-393.5 -146z" />
    <glyph glyph-name="uring" unicode="&#x16f;" horiz-adv-x="1177" 
d="M587 1217q-83 0 -137 54t-54 136t54 136t137 54t136.5 -53.5t53.5 -136.5t-53.5 -136.5t-136.5 -53.5zM587 1543q-59 0 -96.5 -38t-37.5 -98t37.5 -98t96.5 -38t96.5 38t37.5 98t-37.5 98t-96.5 38zM913 1049h72v-1049h-72v186q-49 -86 -145 -143t-232 -57
q-162 0 -257.5 90.5t-95.5 249.5v723h72v-707q0 -137 78.5 -213t214.5 -76q86 0 158 31t115.5 80.5t67.5 108t24 117.5v659z" />
    <glyph glyph-name="Uhungarumlaut" unicode="&#x170;" horiz-adv-x="1461" 
d="M518 1594l175 276h83l-188 -276h-70zM837 1594l175 276h83l-190 -276h-68zM726 -15q-251 0 -393.5 146t-142.5 377v967h77v-958q0 -133 51 -236t156 -163.5t252 -60.5q220 0 339.5 127.5t119.5 332.5v958h77v-967q0 -231 -142.5 -377t-393.5 -146z" />
    <glyph glyph-name="uhungarumlaut" unicode="&#x171;" horiz-adv-x="1177" 
d="M639 1513l-189 -275h-69l175 275h83zM957 1513l-189 -275h-70l176 275h83zM913 1049h72v-1049h-72v186q-49 -86 -145 -143t-232 -57q-162 0 -257.5 90.5t-95.5 249.5v723h72v-707q0 -137 78.5 -213t214.5 -76q86 0 158 31t115.5 80.5t67.5 108t24 117.5v659z" />
    <glyph glyph-name="Uogonek" unicode="&#x172;" horiz-adv-x="1456" 
d="M1187 1475h76v-968q0 -152 -66 -272.5t-188 -186.5q-110 -60 -164.5 -137.5t-54.5 -146.5q0 -52 35 -85.5t91 -33.5q62 0 109 44l34 -47q-68 -57 -143 -57q-84 0 -137 48t-53 124q0 134 135 243q-65 -15 -132 -15q-251 0 -393 146t-142 376v968h75v-958q0 -205 120 -332
t340 -127q147 0 252 60.5t155.5 162.5t50.5 236v958z" />
    <glyph glyph-name="uogonek" unicode="&#x173;" horiz-adv-x="1177" 
d="M974 -311l33 -47q-65 -56 -142 -56q-85 0 -137.5 47.5t-52.5 123.5q0 66 57.5 127.5t180.5 126.5v175q-49 -86 -145 -143t-232 -57q-162 0 -257.5 90.5t-95.5 249.5v723h72v-707q0 -137 78.5 -213t214.5 -76q86 0 158 31t115.5 80.5t67.5 108t24 117.5v659h72v-1049h-17
q-230 -123 -230 -236q0 -53 35.5 -86t91.5 -33q62 0 109 44z" />
    <glyph glyph-name="Wcircumflex" unicode="&#x174;" horiz-adv-x="2020" 
d="M1011 1802l-193 -209h-76l232 266h73l230 -266h-76zM1851 1475h81l-435 -1475h-77l-409 1359l-410 -1359h-79l-435 1475h83l393 -1351l411 1351h74l410 -1351z" />
    <glyph glyph-name="wcircumflex" unicode="&#x175;" horiz-adv-x="1595" 
d="M799 1445l-193 -209h-76l232 264h73l230 -264h-76zM1464 1049h82l-342 -1049h-80l-326 957l-327 -957h-80l-342 1049h82l300 -958l327 958h80l326 -958z" />
    <glyph glyph-name="Ycircumflex" unicode="&#x176;" horiz-adv-x="1208" 
d="M605 1802l-192 -209h-76l231 266h73l230 -266h-75zM1074 1475h83l-510 -850v-625h-77v625l-508 850h83l465 -781z" />
    <glyph glyph-name="ycircumflex" unicode="&#x177;" horiz-adv-x="944" 
d="M475 1445l-192 -209h-76l231 264h73l230 -264h-75zM825 1049h82l-514 -1280q-29 -75 -70.5 -108.5t-106.5 -33.5q-54 0 -111 21l19 62q51 -18 87 -18q43 0 69.5 23t47.5 78l112 281l-403 975h81l361 -888z" />
    <glyph glyph-name="Ydieresis" unicode="&#x178;" horiz-adv-x="1208" 
d="M445 1804v-165h-79v165h79zM843 1804v-165h-80v165h80zM1074 1475h83l-510 -850v-625h-77v625l-508 850h83l465 -781z" />
    <glyph glyph-name="Zacute" unicode="&#x179;" horiz-adv-x="1306" 
d="M557 1593l176 276h83l-189 -276h-70zM125 0v67l939 1336h-918v72h1015v-67l-939 -1336h960v-72h-1057z" />
    <glyph glyph-name="zacute" unicode="&#x17a;" horiz-adv-x="1012" 
d="M425 1238l175 275h83l-189 -275h-69zM116 0v61l668 920h-645v68h739v-63l-669 -919h688v-67h-781z" />
    <glyph glyph-name="Zdotaccent" unicode="&#x17b;" horiz-adv-x="1306" 
d="M604 1636v168h80v-168h-80zM125 0v67l939 1336h-918v72h1015v-67l-939 -1336h960v-72h-1057z" />
    <glyph glyph-name="zdotaccent" unicode="&#x17c;" horiz-adv-x="1012" 
d="M467 1307v168h80v-168h-80zM116 0v61l668 920h-645v68h739v-63l-669 -919h688v-67h-781z" />
    <glyph glyph-name="Zcaron" unicode="&#x17d;" horiz-adv-x="1306" 
d="M679 1593h-73l-231 266h76l192 -209l191 209h75zM222 72h960v-72h-1057v67l939 1336h-918v72h1015v-67z" />
    <glyph glyph-name="zcaron" unicode="&#x17e;" horiz-adv-x="1012" 
d="M542 1236h-74l-231 264h76l192 -208l190 208h77zM209 67h688v-67h-781v61l668 920h-645v68h739v-63z" />
    <glyph glyph-name="longs" unicode="&#x17f;" horiz-adv-x="651" 
d="M495 1490q59 0 119 -20l-21 -62q-47 12 -95 12q-180 0 -180 -248v-1172h-71v983h-172v66h172v147q0 140 69.5 217t178.5 77z" />
    <glyph glyph-name="uni018F" unicode="&#x18f;" horiz-adv-x="1544" 
d="M749 1485q303 0 482.5 -205t179.5 -546q0 -169 -47.5 -310t-132 -237.5t-203.5 -149.5t-260 -53q-187 0 -331 91.5t-223.5 258t-79.5 382.5v27h1198q-2 303 -159 486.5t-424 183.5q-161 0 -294.5 -71.5t-203.5 -211.5l-65 32q73 153 224 238t339 85zM770 56
q236 0 389.5 167t170.5 449h-1117q12 -278 165.5 -447t391.5 -169z" />
    <glyph glyph-name="florin" unicode="&#x192;" horiz-adv-x="904" 
d="M750 1438q55 0 118 -17l-26 -64q-42 12 -92 12q-183 0 -213 -249l-37 -306h233v-68h-240l-57 -471q-15 -134 -90.5 -211.5t-189.5 -77.5q-65 0 -119 17l21 65q56 -14 98 -14q182 0 212 249l52 443h-210v68h218l40 334q15 133 91.5 211.5t190.5 78.5z" />
    <glyph glyph-name="uni01F4" unicode="&#x1f4;" horiz-adv-x="1510" 
d="M958 1869l-189 -276h-69l176 276h82zM799 728h541v-728h-71v275q-51 -125 -178.5 -207.5t-298.5 -82.5q-301 0 -479.5 206t-178.5 549q0 223 81 393t231 263.5t349 93.5q167 0 303.5 -73.5t222.5 -210.5l-65 -39q-74 122 -192.5 186t-269.5 64q-261 0 -421.5 -185.5
t-160.5 -491.5q0 -308 160.5 -495.5t420.5 -187.5q215 0 345.5 139.5t130.5 344.5v115h-470v72z" />
    <glyph glyph-name="uni01F5" unicode="&#x1f5;" horiz-adv-x="1235" 
d="M774 1513l-189 -275h-70l176 275h83zM971 1049h71v-950q0 -221 -122.5 -346.5t-342.5 -125.5q-281 0 -435 201l54 47q130 -180 384 -180q184 0 287.5 107.5t103.5 292.5v145q-47 -106 -149 -173t-242 -67q-208 0 -337 145.5t-129 386.5q0 240 129 385.5t337 145.5
q141 0 242.5 -68t148.5 -174v228zM583 70q173 0 282 122.5t109 339.5q0 216 -109 338.5t-282 122.5q-177 0 -286 -125.5t-109 -335.5q0 -211 109 -336.5t286 -125.5z" />
    <glyph glyph-name="Aringacute" unicode="&#x1fa;" horiz-adv-x="1400" 
d="M866 2159l-188 -276h-70l175 276h83zM1240 0l-184 470h-712l-184 -470h-83l569 1443q-61 17 -98.5 66.5t-37.5 116.5q0 82 54 136t136 54t136 -54t54 -136q0 -68 -37 -117t-99 -66l570 -1443h-84zM567 1626q0 -60 37.5 -98t95.5 -38t96 38.5t38 97.5t-38 97t-96 38
t-95.5 -38t-37.5 -97zM373 542h654l-327 834z" />
    <glyph glyph-name="aringacute" unicode="&#x1fb;" horiz-adv-x="1105" 
d="M726 1944l-188 -276h-70l176 276h82zM542 1214q-82 0 -136.5 54t-54.5 137q0 82 54 136t137 54q82 0 136 -53.5t54 -136.5t-54 -137t-136 -54zM542 1541q-59 0 -96.5 -38t-37.5 -98t37.5 -98t96.5 -38t96.5 38t37.5 98t-37.5 98t-96.5 38zM541 1063q169 0 275.5 -102
t106.5 -291v-670h-72v194q-35 -80 -139 -144t-240 -64q-163 0 -260.5 82t-97.5 221q0 313 476 313h261v61q0 160 -84.5 246t-226.5 86q-201 0 -311 -152l-56 42q131 178 368 178zM474 51q81 0 153 30t120 77.5t76 105.5t28 115v158h-240q-206 0 -315 -58.5t-109 -190.5
q0 -109 77 -173t210 -64z" />
    <glyph glyph-name="AEacute" unicode="&#x1fc;" horiz-adv-x="2092" 
d="M1615 1869l-189 -276h-69l176 276h82zM1126 72h837v-72h-913v471h-595l-301 -471h-92l947 1475h947v-72h-830v-619h764v-71h-764v-641zM501 543h549v860z" />
    <glyph glyph-name="aeacute" unicode="&#x1fd;" horiz-adv-x="1814" 
d="M1093 1513l-190 -275h-68l175 275h83zM1705 529v-20h-789q5 -213 104 -334.5t273 -121.5q200 0 316 198l61 -38q-59 -107 -159 -167.5t-214 -60.5q-154 0 -262.5 81.5t-151.5 229.5q-39 -149 -153.5 -229.5t-252.5 -80.5q-164 0 -263.5 79.5t-99.5 216.5q0 105 58.5 171
t159 93.5t248.5 27.5h264v77q0 169 -82 256t-224 87q-194 0 -314 -160l-57 40q135 189 371 189q139 0 231.5 -69t126.5 -207q50 132 148 204t233 72q187 0 307.5 -148t120.5 -386zM918 574h710q-11 189 -109 305t-242 116q-154 0 -250.5 -113.5t-108.5 -307.5zM844 425v84
h-253q-200 0 -302 -51t-102 -176q0 -107 79.5 -168.5t215.5 -61.5q99 0 183 52.5t131.5 138t47.5 182.5z" />
    <glyph glyph-name="Oslashacute" unicode="&#x1fe;" horiz-adv-x="1583" 
d="M964 1869l-190 -276h-69l176 276h83zM1269 1287q180 -203 180 -547q0 -342 -178.5 -549t-478.5 -207q-252 0 -423 151l-151 -192l-58 47l155 198q-181 208 -181 552q0 339 179.5 545t478.5 206q250 0 422 -150l151 192l58 -46zM792 1417q-261 0 -420 -184.5t-159 -492.5
q0 -300 152 -488l801 1028q-153 137 -374 137zM792 57q261 0 420 186t159 497q0 300 -152 485l-802 -1028q151 -140 375 -140z" />
    <glyph glyph-name="oslashacute" unicode="&#x1ff;" horiz-adv-x="1176" 
d="M765 1513l-190 -275h-69l176 275h83zM934 914q129 -146 129 -390q0 -245 -130 -391.5t-346 -146.5q-179 0 -298 101l-111 -141l-53 42l116 147q-128 147 -128 389q0 245 129.5 392t344.5 147q178 0 299 -101l108 140l55 -42zM587 993q-181 0 -290.5 -128t-109.5 -341
q0 -199 100 -328l554 707q-104 90 -254 90zM587 55q181 0 291 128t110 341q0 201 -100 330l-554 -709q104 -90 253 -90z" />
    <glyph glyph-name="uni0218" unicode="&#x218;" horiz-adv-x="1327" 
d="M673 798q63 -11 108.5 -21t103.5 -28t98.5 -38t82.5 -51.5t67.5 -69.5t42 -90t16.5 -115q0 -183 -138 -291.5t-372 -108.5q-201 0 -348.5 83.5t-209.5 231.5l70 33q52 -130 180.5 -203.5t307.5 -73.5q198 0 315 88.5t117 239.5q0 58 -17.5 105.5t-52.5 81.5t-74.5 59
t-98.5 43.5t-107.5 30t-116.5 23.5q-58 10 -101 20t-95.5 26.5t-90 35.5t-75.5 48t-62 64.5t-38.5 83.5t-14.5 106q0 169 136.5 273.5t360.5 104.5q178 0 316.5 -75.5t202.5 -207.5l-70 -31q-53 112 -173.5 177t-275.5 65q-188 0 -303.5 -84.5t-115.5 -220.5
q0 -46 12.5 -84.5t33 -66.5t54 -52t66.5 -39.5t80.5 -30t86.5 -23t92 -18.5zM625 -229v142h97v-146q0 -66 -23 -103t-77 -71l-28 37q46 27 62 56t17 85h-48z" />
    <glyph glyph-name="uni0219" unicode="&#x219;" horiz-adv-x="996" 
d="M515 568q93 -15 155 -34t114.5 -51t78 -82.5t25.5 -122.5q0 -134 -101.5 -213t-271.5 -79q-155 0 -264.5 61.5t-155.5 166.5l65 34q40 -90 135 -141.5t221 -51.5q134 0 215.5 60t81.5 161q0 99 -77.5 148t-243.5 74q-172 27 -263.5 97t-91.5 196t98.5 199t257.5 73
q255 0 370 -199l-65 -35q-90 164 -305 164q-125 0 -203.5 -53.5t-78.5 -146.5q0 -92 75.5 -146.5t228.5 -78.5zM470 -229v142h97v-146q0 -66 -22.5 -103t-77.5 -71l-28 37q46 27 62 56t17 85h-48z" />
    <glyph glyph-name="uni021A" unicode="&#x21a;" horiz-adv-x="1211" 
d="M1154 1475v-72h-510v-1403h-77v1403h-511v72h1098zM557 -229v142h97v-146q0 -66 -23 -103t-77 -71l-28 37q45 28 61.5 56.5t17.5 84.5h-48z" />
    <glyph glyph-name="uni021B" unicode="&#x21b;" horiz-adv-x="684" 
d="M590 10q-72 -24 -134 -24q-219 0 -219 259v738h-152v66h152v281h71v-281h257v-66h-257v-725q0 -107 36 -156.5t115 -49.5q49 0 112 21zM365 -229v142h97v-146q0 -65 -23 -102.5t-78 -71.5l-27 37q45 28 61.5 56.5t17.5 84.5h-48z" />
    <glyph glyph-name="uni0237" unicode="&#x237;" horiz-adv-x="457" 
d="M65 -370q-55 0 -116 22l18 63q51 -17 92 -17q134 0 134 197v1154h71v-1175q0 -117 -51.5 -180.5t-147.5 -63.5z" />
    <glyph glyph-name="uni0259" unicode="&#x259;" horiz-adv-x="1150" 
d="M551 1063q225 0 355.5 -145.5t130.5 -392.5q0 -244 -128 -391.5t-338 -147.5q-203 0 -330 147t-127 386v21h849q-3 208 -111.5 331t-295.5 123q-240 0 -345 -194l-61 35q55 107 162.5 167.5t238.5 60.5zM572 54q163 0 269.5 114t119.5 306h-772q11 -189 117 -304.5
t266 -115.5z" />
    <glyph glyph-name="h.sups" unicode="&#x2b0;" horiz-adv-x="778" 
d="M430 1484q106 0 170 -58t64 -163v-470h-66v453q0 87 -49.5 133.5t-136.5 46.5q-103 0 -162.5 -64.5t-59.5 -142.5v-426h-65v958h65v-388q30 51 92 86t148 35z" />
    <glyph glyph-name="j.sups" unicode="&#x2b2;" horiz-adv-x="304" 
d="M116 1633v117h68v-117h-68zM36 551q-44 0 -82 14l13 56q40 -11 62 -11q89 0 89 124v741h64v-751q0 -173 -146 -173z" />
    <glyph glyph-name="r.sups" unicode="&#x2b3;" horiz-adv-x="504" 
d="M399 1483q35 0 69 -7l-13 -60q-26 6 -61 6q-95 0 -152 -69t-57 -159v-401h-64v682h63v-121q28 53 84 91t131 38z" />
    <glyph glyph-name="w.sups" unicode="&#x2b7;" horiz-adv-x="1061" 
d="M955 1475h67l-216 -683h-69l-206 608l-206 -608h-69l-217 683h69l186 -606l204 606h66l205 -606z" />
    <glyph glyph-name="y.sups" unicode="&#x2b8;" horiz-adv-x="630" 
d="M532 1475h70l-328 -823q-22 -56 -53 -79.5t-77 -23.5q-37 0 -82 16l17 52q33 -12 58 -12q28 0 45.5 15t31.5 48l74 180l-259 627h67l223 -554z" />
    <glyph glyph-name="circumflex" unicode="&#x2c6;" horiz-adv-x="614" 
d="M544 1236h-77l-191 208l-191 -208h-77l232 264h73z" />
    <glyph glyph-name="caron" unicode="&#x2c7;" horiz-adv-x="614" 
d="M467 1500h77l-231 -264h-73l-232 264h77l191 -208z" />
    <glyph glyph-name="uni02C9" unicode="&#x2c9;" horiz-adv-x="614" 
d="M40 1296v63h528v-63h-528z" />
    <glyph glyph-name="breve" unicode="&#x2d8;" horiz-adv-x="614" 
d="M274 1228q-110 0 -182 71.5t-86 200.5h63q15 -104 69.5 -160.5t135.5 -56.5q80 0 135.5 57t70.5 160h62q-14 -128 -86 -200t-182 -72z" />
    <glyph glyph-name="dotaccent" unicode="&#x2d9;" horiz-adv-x="614" 
d="M194 1307v168h79v-168h-79z" />
    <glyph glyph-name="ring" unicode="&#x2da;" horiz-adv-x="614" 
d="M299 1217q-83 0 -136.5 53.5t-53.5 136.5t53.5 136.5t136.5 53.5t136.5 -53.5t53.5 -136.5t-53.5 -136.5t-136.5 -53.5zM299 1271q59 0 96.5 38t37.5 98t-37.5 98t-96.5 38t-96.5 -38t-37.5 -98t37.5 -98t96.5 -38z" />
    <glyph glyph-name="ogonek" unicode="&#x2db;" horiz-adv-x="614" 
d="M245 -414q-85 0 -138 47.5t-53 123.5q0 67 60 129.5t190 130.5l49 -14q-235 -124 -235 -239q0 -53 35.5 -86t91.5 -33q61 0 108 44l33 -47q-65 -56 -141 -56z" />
    <glyph glyph-name="tilde" unicode="&#x2dc;" horiz-adv-x="662" 
d="M473 1274q-65 0 -155 59q-76 50 -125 50q-82 0 -145 -107l-50 36q82 136 195 136q63 0 152 -58q78 -52 128 -52q77 0 140 108l51 -36q-82 -136 -191 -136z" />
    <glyph glyph-name="hungarumlaut" unicode="&#x2dd;" horiz-adv-x="552" 
d="M10 1238l176 275h82l-188 -275h-70zM329 1238l175 275h83l-189 -275h-69z" />
    <glyph glyph-name="l.sups" unicode="&#x2e1;" horiz-adv-x="315" 
d="M125 793v957h65v-957h-65z" />
    <glyph glyph-name="s.sups" unicode="&#x2e2;" horiz-adv-x="654" 
d="M339 782q-101 0 -174 40.5t-106 106.5l54 27q22 -50 82.5 -83.5t143.5 -33.5t133.5 36.5t50.5 96.5q0 64 -47.5 97t-156.5 47q-118 15 -175 62.5t-57 129.5q0 83 65.5 130t175.5 47q82 0 147 -33t100 -92l-51 -30q-26 45 -78 71t-118 26q-80 0 -128 -31t-48 -87
t45.5 -88.5t146.5 -46.5q123 -17 184 -64t61 -135q0 -89 -69.5 -141t-180.5 -52z" />
    <glyph glyph-name="x.sups" unicode="&#x2e3;" horiz-adv-x="673" 
d="M624 792h-75l-212 305l-213 -305h-75l248 353l-232 330h73l199 -286l198 286h74l-232 -330z" />
    <glyph glyph-name="gravecomb" unicode="&#x300;" horiz-adv-x="0" 
d="M-529 1238l-189 275h83l175 -275h-69z" />
    <glyph glyph-name="acutecomb" unicode="&#x301;" horiz-adv-x="0" 
d="M-718 1238l176 275h82l-188 -275h-70z" />
    <glyph glyph-name="uni0302" unicode="&#x302;" horiz-adv-x="0" 
d="M-321 1236h-76l-191 208l-191 -208h-77l231 264h73z" />
    <glyph glyph-name="tildecomb" unicode="&#x303;" horiz-adv-x="0" 
d="M-447 1274q-66 0 -155 58q-73 51 -126 51q-81 0 -144 -107l-50 36q82 136 195 136q66 0 153 -58q78 -52 128 -52q77 0 140 108l50 -36q-82 -136 -191 -136z" />
    <glyph glyph-name="uni0304" unicode="&#x304;" horiz-adv-x="0" 
d="M-853 1296v63h528v-63h-528z" />
    <glyph glyph-name="uni0306" unicode="&#x306;" horiz-adv-x="0" 
d="M-589 1228q-110 0 -181.5 71.5t-85.5 200.5h61q15 -103 70.5 -160t135.5 -57q81 0 136 57t70 160h62q-14 -129 -85.5 -200.5t-182.5 -71.5z" />
    <glyph glyph-name="uni0307" unicode="&#x307;" horiz-adv-x="0" 
d="M-629 1307v168h81v-168h-81z" />
    <glyph glyph-name="uni0308" unicode="&#x308;" horiz-adv-x="0" 
d="M-806 1311v164h85v-164h-85zM-456 1311v164h84v-164h-84z" />
    <glyph glyph-name="uni030A" unicode="&#x30a;" horiz-adv-x="0" 
d="M-589 1217q-83 0 -136.5 53.5t-53.5 136.5q0 82 53.5 135.5t136.5 53.5t137 -53.5t54 -135.5t-54 -136t-137 -54zM-589 1271q58 0 95.5 38.5t37.5 97.5t-37.5 97t-95.5 38t-95.5 -38t-37.5 -97q0 -60 37.5 -98t95.5 -38z" />
    <glyph glyph-name="uni030B" unicode="&#x30b;" horiz-adv-x="0" 
d="M-877 1238l176 275h83l-189 -275h-70zM-558 1238l175 275h83l-189 -275h-69z" />
    <glyph glyph-name="uni030C" unicode="&#x30c;" horiz-adv-x="0" 
d="M-397 1500h76l-231 -264h-73l-231 264h77l191 -208z" />
    <glyph glyph-name="uni0312" unicode="&#x312;" horiz-adv-x="0" 
d="M-513 1506q-46 -28 -62 -55.5t-17 -83.5h48v-142h-97v146q0 66 22.5 102.5t77.5 70.5z" />
    <glyph glyph-name="uni0313" unicode="&#x313;" horiz-adv-x="0" 
d="M-148 1475h97v-176q0 -94 -23 -143t-78 -91l-34 39q51 36 67 78t17 124h-46v169z" />
    <glyph glyph-name="dotbelowcomb" unicode="&#x323;" horiz-adv-x="0" 
d="M-629 -255v169h81v-169h-81z" />
    <glyph glyph-name="uni0324" unicode="&#x324;" horiz-adv-x="0" 
d="M-806 -249v164h85v-164h-85zM-456 -249v164h84v-164h-84z" />
    <glyph glyph-name="uni0325" unicode="&#x325;" horiz-adv-x="0" 
d="M-589 -467q-82 0 -136 54t-54 137q0 82 54 135.5t136 53.5q83 0 137 -53.5t54 -135.5t-54 -136.5t-137 -54.5zM-589 -413q58 0 95.5 39t37.5 98t-37.5 97t-95.5 38t-95.5 -38t-37.5 -97q0 -60 37.5 -98.5t95.5 -38.5z" />
    <glyph glyph-name="uni0326" unicode="&#x326;" horiz-adv-x="0" 
d="M-283 -87h97v-146q0 -66 -23 -103t-78 -71l-26 37q45 28 61.5 56.5t17.5 84.5h-49v142z" />
    <glyph glyph-name="uni0327" unicode="&#x327;" horiz-adv-x="0" 
d="M-672 -313l101 313h65l-99 -313h-67z" />
    <glyph glyph-name="uni0328" unicode="&#x328;" horiz-adv-x="0" 
d="M-564 -414q-85 0 -138 47.5t-53 123.5q0 68 60 130.5t190 129.5l49 -14q-235 -124 -235 -239q0 -53 35.5 -86t91.5 -33q61 0 108 44l33 -47q-67 -56 -141 -56z" />
    <glyph glyph-name="uni032E" unicode="&#x32e;" horiz-adv-x="0" 
d="M-589 -359q-110 0 -181.5 71.5t-85.5 200.5h61q15 -103 70.5 -160t135.5 -57q81 0 136 57t70 160h62q-14 -129 -85.5 -200.5t-182.5 -71.5z" />
    <glyph glyph-name="uni0331" unicode="&#x331;" horiz-adv-x="0" 
d="M-853 -148v62h528v-62h-528z" />
    <glyph glyph-name="uni0394" unicode="&#x394;" horiz-adv-x="1369" 
d="M726 1475l557 -1412v-63h-1196v63l556 1412h83zM172 72h1025l-512 1303z" />
    <glyph glyph-name="uni03A9" unicode="&#x3a9;" horiz-adv-x="1584" 
d="M93 0v72h369q-147 79 -237.5 254.5t-90.5 413.5q0 339 179.5 544.5t479.5 205.5q299 0 478 -205.5t179 -544.5q0 -238 -90.5 -413.5t-236.5 -254.5h368v-72h-532v67q188 58 300 237.5t112 435.5q0 307 -158.5 491t-419.5 184q-262 0 -421.5 -184.5t-159.5 -490.5
q0 -257 112 -436t302 -237v-67h-533z" />
    <glyph glyph-name="uni03BC" unicode="&#x3bc;" horiz-adv-x="1188" 
d="M924 1049h71v-1049h-71v181q-46 -83 -145.5 -139t-232.5 -56q-97 0 -170.5 34.5t-110.5 100.5v-520h-71v1448h71v-709q0 -137 78.5 -213t214.5 -76q87 0 158.5 31t115.5 80.5t68 108t24 117.5v661z" />
    <glyph glyph-name="pi" unicode="&#x3c0;" horiz-adv-x="1410" 
d="M1243 983h-180v-836q0 -91 69 -91q36 0 77 21l21 -61q-56 -24 -106 -24q-63 0 -98 37t-35 106v848h-572v-983h-72v983h-180v66h1076v-66z" />
    <glyph glyph-name="uni0E3F" unicode="&#xe3f;" horiz-adv-x="1378" 
d="M957 735q114 -33 188 -128.5t74 -226.5q0 -179 -103.5 -279.5t-288.5 -100.5h-124v-168h-71v168h-399v1423h399v168h71v-168h97q181 0 282.5 -95.5t101.5 -260.5q0 -115 -64 -205.5t-163 -126.5zM307 1356v-592h325v592h-325zM797 1356h-94v-592h96q127 0 217 83.5
t90 212.5q0 134 -83.5 215t-225.5 81zM307 67h325v630h-325v-630zM822 67q148 0 234 84.5t86 231.5q0 137 -93.5 225.5t-226.5 88.5h-119v-630h119z" />
    <glyph glyph-name="a.sups" unicode="&#x1d43;" horiz-adv-x="728" 
d="M352 1483q115 0 186 -66.5t71 -189.5v-434h-64v110q-30 -49 -94.5 -85t-140.5 -36q-110 0 -175 53.5t-65 142.5q0 103 77.5 155t223.5 52h173v40q0 96 -53.5 148t-142.5 52q-123 0 -194 -91l-46 42q83 107 244 107zM544 1035v94h-163q-122 0 -185 -35t-63 -114
q0 -67 48 -106.5t132 -39.5q96 0 163.5 62.5t67.5 138.5z" />
    <glyph glyph-name="b.sups" unicode="&#x1d47;" horiz-adv-x="814" 
d="M442 1484q133 0 216 -96.5t83 -253.5q0 -158 -83 -255t-216 -97q-86 0 -153 39.5t-104 104.5v-133h-65v958h65v-410q37 64 104 103.5t153 39.5zM429 841q110 0 177.5 79.5t67.5 213.5t-67.5 213t-177.5 79q-109 0 -177.5 -80t-68.5 -212q0 -133 68 -213t178 -80z" />
    <glyph glyph-name="d.sups" unicode="&#x1d48;" horiz-adv-x="813" 
d="M628 1751h64v-958h-64v133q-37 -65 -103.5 -104t-153.5 -39q-132 0 -215 97t-83 254t83 253.5t215 96.5q87 0 153.5 -39t103.5 -104v410zM384 841q110 0 178 80t68 213q0 132 -68.5 212t-177.5 80t-177 -79t-68 -213t68 -213.5t177 -79.5z" />
    <glyph glyph-name="e.sups" unicode="&#x1d49;" horiz-adv-x="754" 
d="M379 1484q135 0 219.5 -97t84.5 -253v-15h-545q4 -129 70.5 -204.5t182.5 -75.5q70 0 127.5 29t90.5 87l49 -27q-37 -69 -109.5 -107t-157.5 -38q-147 0 -232.5 95t-85.5 254q0 160 84.5 256t221.5 96zM379 1427q-99 0 -164 -68t-75 -187h475q-8 117 -72.5 186t-163.5 69
z" />
    <glyph glyph-name="g.sups" unicode="&#x1d4d;" horiz-adv-x="811" 
d="M627 1475h64v-624q0 -142 -82 -221.5t-225 -79.5q-90 0 -164 32.5t-121 90.5l44 41q39 -51 102.5 -79.5t138.5 -28.5q115 0 179 65t64 180v81q-86 -136 -252 -136q-135 0 -218.5 94t-83.5 250t83.5 250t218.5 94q171 0 252 -146v137zM384 853q109 0 176.5 77.5
t67.5 209.5t-67.5 209t-176.5 77q-110 0 -177.5 -78t-67.5 -208t67.5 -208.5t177.5 -78.5z" />
    <glyph glyph-name="k.sups" unicode="&#x1d4f;" horiz-adv-x="704" 
d="M574 793l-256 351l-133 -150v-201h-65v957h65v-671l351 396h77l-254 -285l288 -397h-73z" />
    <glyph glyph-name="m.sups" unicode="&#x1d50;" horiz-adv-x="1165" 
d="M837 1484q99 0 154.5 -58t55.5 -168v-465h-65v447q0 92 -41.5 139t-120.5 47q-95 0 -149.5 -65.5t-54.5 -146.5v-421h-64v447q0 91 -42 138.5t-121 47.5q-95 0 -149.5 -65.5t-54.5 -146.5v-421h-64v682h63v-111q12 21 28.5 39.5t43 38t66 31t85.5 11.5q155 0 197 -133
q29 53 87 93t146 40z" />
    <glyph glyph-name="o.sups" unicode="&#x1d52;" horiz-adv-x="774" 
d="M387 783q-141 0 -227.5 95.5t-86.5 255.5t86.5 255t227.5 95t227.5 -95t86.5 -255t-86.5 -255.5t-227.5 -95.5zM387 843q112 0 180 79t68 212t-68 211.5t-180 78.5t-180 -78.5t-68 -211.5t68 -212t180 -79z" />
    <glyph glyph-name="p.sups" unicode="&#x1d56;" horiz-adv-x="814" 
d="M441 1484q133 0 216.5 -96.5t83.5 -253.5q0 -158 -83 -255t-217 -97q-86 0 -152 39t-104 104v-366h-65v916h65v-134q38 65 104 104t152 39zM428 841q111 0 178.5 79t67.5 214q0 134 -67.5 212.5t-178.5 78.5q-109 0 -177 -79.5t-68 -211.5t68.5 -212.5t176.5 -80.5z" />
    <glyph glyph-name="t.sups" unicode="&#x1d57;" horiz-adv-x="509" 
d="M427 852l15 -52q-57 -18 -97 -18q-154 0 -154 179v458h-100v56h100v186h66v-186h166v-56h-166v-444q0 -70 23.5 -102.5t73.5 -32.5q32 0 73 12z" />
    <glyph glyph-name="u.sups" unicode="&#x1d58;" horiz-adv-x="777" 
d="M592 1475h64v-682h-63v112q-30 -50 -92.5 -86t-149.5 -36q-106 0 -169 58.5t-63 163.5v470h65v-455q0 -87 49.5 -133.5t136.5 -46.5q103 0 162.5 64.5t59.5 142.5v428z" />
    <glyph glyph-name="v.sups" unicode="&#x1d5b;" horiz-adv-x="674" 
d="M577 1475h69l-275 -683h-67l-275 683h70l238 -610z" />
    <glyph glyph-name="c.sups" unicode="&#x1d9c;" horiz-adv-x="708" 
d="M385 783q-141 0 -226.5 95.5t-85.5 254.5q0 160 85 255t227 95q81 0 148.5 -36.5t107.5 -109.5l-56 -30q-65 116 -198 116q-113 0 -180.5 -78.5t-67.5 -210.5q0 -133 67.5 -212.5t180.5 -79.5q137 0 198 127l56 -29q-75 -157 -256 -157z" />
    <glyph glyph-name="f.sups" unicode="&#x1da0;" horiz-adv-x="480" 
d="M268 1552v-77h187v-58h-187v-625h-64v625h-113v58h113v89q0 94 48 145t128 51q39 0 83 -13l-13 -53q-34 8 -64 8q-118 0 -118 -150z" />
    <glyph glyph-name="z.sups" unicode="&#x1dbb;" horiz-adv-x="641" 
d="M62 792v53l426 572h-411v58h492v-54l-426 -572h439v-57h-520z" />
    <glyph glyph-name="Wgrave" unicode="&#x1e80;" horiz-adv-x="2020" 
d="M1097 1593h-69l-189 276h83zM1851 1475h81l-435 -1475h-77l-409 1359l-410 -1359h-79l-435 1475h83l393 -1351l411 1351h74l410 -1351z" />
    <glyph glyph-name="wgrave" unicode="&#x1e81;" horiz-adv-x="1595" 
d="M902 1238h-69l-189 275h83zM1464 1049h82l-342 -1049h-80l-326 957l-327 -957h-80l-342 1049h82l300 -958l327 958h80l326 -958z" />
    <glyph glyph-name="Wacute" unicode="&#x1e82;" horiz-adv-x="2020" 
d="M1181 1869l-189 -276h-69l176 276h82zM1851 1475h81l-435 -1475h-77l-409 1359l-410 -1359h-79l-435 1475h83l393 -1351l411 1351h74l410 -1351z" />
    <glyph glyph-name="wacute" unicode="&#x1e83;" horiz-adv-x="1595" 
d="M974 1513l-189 -275h-69l175 275h83zM1464 1049h82l-342 -1049h-80l-326 957l-327 -957h-80l-342 1049h82l300 -958l327 958h80l326 -958z" />
    <glyph glyph-name="Wdieresis" unicode="&#x1e84;" horiz-adv-x="2019" 
d="M851 1804v-165h-80v165h80zM1248 1804v-165h-80v165h80zM1851 1475h81l-435 -1475h-77l-409 1359l-410 -1359h-79l-435 1475h83l393 -1351l411 1351h74l410 -1351z" />
    <glyph glyph-name="wdieresis" unicode="&#x1e85;" horiz-adv-x="1595" 
d="M666 1475v-164h-80v164h80zM1011 1475v-164h-80v164h80zM1464 1049h82l-342 -1049h-80l-326 957l-327 -957h-80l-342 1049h82l300 -958l327 958h80l326 -958z" />
    <glyph glyph-name="uni1E9E" unicode="&#x1e9e;" horiz-adv-x="1421" 
d="M807 878q215 -2 338 -121.5t123 -328.5q0 -200 -118 -321t-310 -121q-114 0 -216 29l19 73q103 -30 193 -30q159 0 256 101.5t97 270.5q0 175 -103 275t-289 100q-20 0 -33 -4l-53 65l396 537h-486q-170 0 -256 -100t-86 -291v-1012h-77v1019q0 216 107.5 336t302.5 120
h592v-67z" />
    <glyph glyph-name="Ygrave" unicode="&#x1ef2;" horiz-adv-x="1208" 
d="M691 1593h-68l-190 276h83zM1074 1475h83l-510 -850v-625h-77v625l-508 850h83l465 -781z" />
    <glyph glyph-name="ygrave" unicode="&#x1ef3;" horiz-adv-x="944" 
d="M579 1238h-70l-188 275h82zM825 1049h82l-514 -1280q-29 -75 -70.5 -108.5t-106.5 -33.5q-54 0 -111 21l19 62q51 -18 87 -18q43 0 69.5 23t47.5 78l112 281l-403 975h81l361 -888z" />
    <glyph glyph-name="uni2007" unicode="&#x2007;" horiz-adv-x="614" 
 />
    <glyph glyph-name="thinspace" unicode="&#x2009;" horiz-adv-x="240" 
 />
    <glyph glyph-name="uni2011" unicode="&#x2011;" horiz-adv-x="828" 
d="M165 538v67h500v-67h-500z" />
    <glyph glyph-name="endash" unicode="&#x2013;" horiz-adv-x="1185" 
d="M165 538v67h857v-67h-857z" />
    <glyph glyph-name="emdash" unicode="&#x2014;" horiz-adv-x="1955" 
d="M165 538v67h1626v-67h-1626z" />
    <glyph glyph-name="quoteleft" unicode="&#x2018;" horiz-adv-x="468" 
d="M321 1454q-51 -36 -67.5 -78.5t-16.5 -123.5h46v-169h-97v175q0 95 22.5 144t78.5 92z" />
    <glyph glyph-name="quoteright" unicode="&#x2019;" horiz-adv-x="468" 
d="M186 1475h97v-176q0 -95 -22.5 -143.5t-78.5 -90.5l-34 39q51 36 67 78t17 124h-46v169z" />
    <glyph glyph-name="quotesinglbase" unicode="&#x201a;" horiz-adv-x="468" 
d="M186 169h97v-175q0 -95 -22.5 -144t-78.5 -91l-34 39q51 36 67.5 78.5t16.5 123.5h-46v169z" />
    <glyph glyph-name="quotedblleft" unicode="&#x201c;" horiz-adv-x="768" 
d="M186 1260q0 95 22.5 143.5t78.5 91.5l34 -40q-51 -36 -67.5 -78.5t-16.5 -123.5h46v-169h-97v176zM620 1455q-51 -36 -68 -78.5t-17 -123.5h47v-169h-98v176q0 94 23 143t78 92z" />
    <glyph glyph-name="quotedblright" unicode="&#x201d;" horiz-adv-x="768" 
d="M186 1306v169h97v-176q0 -95 -22.5 -143.5t-78.5 -90.5l-34 39q51 36 67 78t17 124h-46zM484 1475h98v-176q0 -95 -22.5 -143.5t-78.5 -90.5l-34 39q51 36 67 78t17 124h-47v169z" />
    <glyph glyph-name="quotedblbase" unicode="&#x201e;" horiz-adv-x="768" 
d="M186 0v169h97v-175q0 -95 -22.5 -144t-78.5 -91l-34 39q51 36 67.5 78.5t16.5 123.5h-46zM484 169h98v-175q0 -95 -22.5 -144t-78.5 -91l-34 39q51 36 67.5 78.5t16.5 123.5h-47v169z" />
    <glyph glyph-name="dagger" unicode="&#x2020;" horiz-adv-x="680" 
d="M587 1262v-66h-209v-652h-74v652h-210v66h210v213h74v-213h209z" />
    <glyph glyph-name="daggerdbl" unicode="&#x2021;" horiz-adv-x="680" 
d="M587 1196h-209v-374h209v-65h-209v-213h-74v213h-210v65h210v374h-210v66h210v213h74v-213h209v-66z" />
    <glyph glyph-name="bullet" unicode="&#x2022;" horiz-adv-x="659" 
d="M330 459q-59 0 -101.5 42t-42.5 101q0 60 42.5 102t101.5 42t101.5 -42t42.5 -102q0 -59 -42.5 -101t-101.5 -42z" />
    <glyph glyph-name="ellipsis" unicode="&#x2026;" horiz-adv-x="1272" 
d="M186 0v169h97v-169h-97zM588 0v169h97v-169h-97zM990 0v169h97v-169h-97z" />
    <glyph glyph-name="perthousand" unicode="&#x2030;" horiz-adv-x="2728" 
d="M478 702q-151 0 -242.5 102t-91.5 265t91.5 265t242.5 102t242.5 -102t91.5 -265t-91.5 -265t-242.5 -102zM470 0l909 1423h71l-909 -1423h-71zM478 766q121 0 194 84.5t73 218.5t-73 219t-194 85t-193.5 -85t-72.5 -219t72.5 -218.5t193.5 -84.5zM1439 -12
q-151 0 -242.5 101.5t-91.5 264.5t91.5 265t242.5 102t242.5 -102t91.5 -265t-91.5 -264.5t-242.5 -101.5zM2251 -12q-151 0 -242.5 101.5t-91.5 264.5t91.5 265t242.5 102t242.5 -102t91.5 -265t-91.5 -264.5t-242.5 -101.5zM1439 50q121 0 193.5 85t72.5 219t-72.5 218.5
t-193.5 84.5t-194 -84.5t-73 -218.5t73 -219t194 -85zM2251 50q121 0 194 85t73 219t-73 218.5t-194 84.5t-193.5 -84.5t-72.5 -218.5t72.5 -219t193.5 -85z" />
    <glyph glyph-name="minute" unicode="&#x2032;" horiz-adv-x="563" 
d="M186 927l115 548h77l-133 -548h-59z" />
    <glyph glyph-name="second" unicode="&#x2033;" horiz-adv-x="862" 
d="M186 927l115 548h77l-133 -548h-59zM484 927l115 548h77l-133 -548h-59z" />
    <glyph glyph-name="uni2034" unicode="&#x2034;" horiz-adv-x="1160" 
d="M186 927l115 548h77l-133 -548h-59zM484 927l115 548h77l-133 -548h-59zM782 927l115 548h77l-132 -548h-60z" />
    <glyph glyph-name="guilsinglleft" unicode="&#x2039;" horiz-adv-x="578" 
d="M397 215l-283 358l283 359l47 -37l-251 -322l251 -321z" />
    <glyph glyph-name="guilsinglright" unicode="&#x203a;" horiz-adv-x="578" 
d="M181 215l-47 37l252 321l-252 322l47 37l284 -359z" />
    <glyph glyph-name="fraction" unicode="&#x2044;" horiz-adv-x="307" 
d="M-353 0l942 1475h71l-942 -1475h-71z" />
    <glyph glyph-name="zero.sups" unicode="&#x2070;" horiz-adv-x="856" 
d="M428 782q-156 0 -245.5 129t-89.5 344t89.5 343.5t245.5 128.5q157 0 246.5 -128.5t89.5 -343.5t-89.5 -344t-246.5 -129zM428 844q124 0 195.5 112t71.5 299t-71.5 299.5t-195.5 112.5t-195 -112.5t-71 -299.5t71 -299t195 -112z" />
    <glyph glyph-name="i.sups" unicode="&#x2071;" horiz-adv-x="319" 
d="M125 1632v118h70v-118h-70zM127 793v682h66v-682h-66z" />
    <glyph glyph-name="four.sups" unicode="&#x2074;" horiz-adv-x="787" 
d="M738 1065v-59h-140v-214h-67v214h-472v55l465 656h74v-652h140zM136 1065h395v566z" />
    <glyph glyph-name="five.sups" unicode="&#x2075;" horiz-adv-x="788" 
d="M414 1390q130 0 207.5 -84t77.5 -220q0 -135 -83.5 -219.5t-221.5 -84.5q-105 0 -188.5 50.5t-118.5 137.5l58 27q27 -70 95 -112t154 -42q108 0 172.5 67.5t64.5 176.5t-62.5 175.5t-165.5 66.5q-149 0 -221 -107h-61l58 494h476v-59h-423l-42 -355q92 88 224 88z" />
    <glyph glyph-name="six.sups" unicode="&#x2076;" horiz-adv-x="788" 
d="M417 1382q129 0 209 -83t80 -217t-81 -216.5t-214 -82.5q-99 0 -173.5 53t-110.5 142q-34 82 -34 249q0 243 86.5 371t249.5 128q184 0 265 -157l-53 -30q-63 127 -209 127q-74 0 -128.5 -34.5t-85 -95.5t-45 -134t-14.5 -159v-12q30 67 97.5 109t160.5 42zM410 843
q103 0 166 65.5t63 172.5q0 108 -63 174.5t-166 66.5q-112 0 -174 -72t-62 -169q0 -93 67 -165.5t169 -72.5z" />
    <glyph glyph-name="seven.sups" unicode="&#x2077;" horiz-adv-x="704" 
d="M57 1717h600v-56q-182 -227 -254.5 -418t-75.5 -451h-71q4 258 74.5 448.5t251.5 416.5h-525v60z" />
    <glyph glyph-name="eight.sups" unicode="&#x2078;" horiz-adv-x="814" 
d="M408 782q-145 0 -232.5 70.5t-87.5 187.5q0 88 53.5 146.5t138.5 79.5q-74 21 -117.5 80t-43.5 133q0 110 79 178.5t210 68.5q130 0 209 -68.5t79 -178.5q0 -74 -43.5 -133t-117.5 -80q86 -21 139 -79.5t53 -146.5q0 -117 -87 -187.5t-232 -70.5zM408 1291q101 0 162 51
t61 133q0 89 -61 142t-162 53q-102 0 -163.5 -53t-61.5 -142q0 -82 61.5 -133t163.5 -51zM408 839q115 0 183 56t68 149q0 90 -70 142t-181 52t-182 -52t-71 -142q0 -93 69 -149t184 -56z" />
    <glyph glyph-name="nine.sups" unicode="&#x2079;" horiz-adv-x="787" 
d="M658 1550q42 -85 42 -268q0 -240 -85.5 -372t-236.5 -132q-93 0 -164.5 44.5t-113.5 129.5l53 30q33 -69 90.5 -106t132.5 -37q122 0 190 114t68 315v20q-30 -66 -97.5 -109t-158.5 -43q-130 0 -210.5 82.5t-80.5 211.5q0 130 80.5 211.5t216.5 81.5q95 0 164.5 -45
t109.5 -128zM384 1196q112 0 174 69.5t62 165.5q0 93 -66.5 163t-169.5 70q-104 0 -167 -64t-63 -169q0 -104 63.5 -169.5t166.5 -65.5z" />
    <glyph glyph-name="n.sups" unicode="&#x207f;" horiz-adv-x="777" 
d="M424 1484q107 0 170.5 -58t63.5 -163v-470h-65v453q0 86 -49.5 133t-135.5 47q-102 0 -162.5 -64t-60.5 -142v-427h-65v682h64v-114q30 53 93.5 88t146.5 35z" />
    <glyph glyph-name="zero.subs" unicode="&#x2080;" horiz-adv-x="856" 
d="M428 -260q-156 0 -245.5 129t-89.5 344t89.5 343.5t245.5 128.5q157 0 246.5 -128.5t89.5 -343.5t-89.5 -344t-246.5 -129zM428 -199q124 0 195.5 112.5t71.5 299.5q0 186 -71.5 298.5t-195.5 112.5t-195 -112.5t-71 -298.5q0 -187 71 -299.5t195 -112.5z" />
    <glyph glyph-name="one.subs" unicode="&#x2081;" horiz-adv-x="596" 
d="M406 675v-926h-67v839l-198 -179l-40 45l245 221h60z" />
    <glyph glyph-name="two.subs" unicode="&#x2082;" horiz-adv-x="763" 
d="M177 -193h499v-59h-596v54l328 342q91 95 131 160t40 138q0 80 -54.5 130.5t-145.5 50.5q-176 0 -228 -201l-63 13q29 121 104 184.5t189 63.5q119 0 192.5 -66t73.5 -175q0 -83 -45.5 -161t-141.5 -178z" />
    <glyph glyph-name="three.subs" unicode="&#x2083;" horiz-adv-x="780" 
d="M526 225q71 -25 117 -85.5t46 -139.5q0 -120 -78.5 -190t-212.5 -70q-121 0 -203 55t-113 155l59 20q25 -80 91 -124.5t164 -44.5q104 0 164.5 54.5t60.5 148.5q0 85 -62 137t-157 52h-61v59h45q94 0 151.5 47.5t57.5 133.5q0 87 -54.5 139t-145.5 52t-150.5 -45.5
t-83.5 -129.5l-62 17q30 104 106.5 161t190.5 57q122 0 195 -68t73 -180q0 -71 -37.5 -127.5t-100.5 -83.5z" />
    <glyph glyph-name="four.subs" unicode="&#x2084;" horiz-adv-x="787" 
d="M738 23v-60h-140v-214h-67v214h-472v55l465 657h74v-652h140zM136 23h395v566z" />
    <glyph glyph-name="five.subs" unicode="&#x2085;" horiz-adv-x="788" 
d="M414 347q130 0 207.5 -83.5t77.5 -219.5q0 -135 -83.5 -219.5t-221.5 -84.5q-105 0 -188.5 50t-118.5 137l58 28q27 -70 95 -112.5t154 -42.5q108 0 172.5 68t64.5 177t-62.5 175.5t-165.5 66.5q-148 0 -221 -108h-61l58 495h476v-60h-423l-42 -355q92 88 224 88z" />
    <glyph glyph-name="six.subs" unicode="&#x2086;" horiz-adv-x="788" 
d="M417 340q129 0 209 -83t80 -217t-81 -216.5t-214 -82.5q-99 0 -173.5 52.5t-110.5 141.5q-34 82 -34 249q0 243 87 371.5t249 128.5q184 0 265 -158l-53 -29q-63 127 -209 127q-74 0 -128.5 -34.5t-85 -95.5t-45 -134t-14.5 -159v-13q30 67 97.5 109.5t160.5 42.5z
M410 -200q103 0 166 66t63 173q0 108 -63 174.5t-166 66.5q-112 0 -174 -72t-62 -169q0 -93 67 -166t169 -73z" />
    <glyph glyph-name="seven.subs" unicode="&#x2087;" horiz-adv-x="704" 
d="M57 675h600v-58q-182 -226 -254.5 -417t-75.5 -451h-71q4 257 74.5 447.5t251.5 417.5h-525v61z" />
    <glyph glyph-name="eight.subs" unicode="&#x2088;" horiz-adv-x="814" 
d="M408 -260q-145 0 -232.5 70.5t-87.5 186.5q0 88 53.5 146.5t138.5 79.5q-74 21 -117.5 80t-43.5 133q0 110 79.5 178.5t209.5 68.5t209 -68.5t79 -178.5q0 -75 -43 -133.5t-118 -79.5q86 -21 139 -79.5t53 -146.5q0 -116 -87 -186.5t-232 -70.5zM408 249q101 0 162 50
t61 133q0 89 -61 142.5t-162 53.5q-102 0 -163.5 -53.5t-61.5 -142.5q0 -83 61.5 -133t163.5 -50zM408 -204q114 0 182.5 56.5t68.5 149.5q0 90 -70 141.5t-181 51.5t-182 -51.5t-71 -141.5q0 -93 69 -149.5t184 -56.5z" />
    <glyph glyph-name="nine.subs" unicode="&#x2089;" horiz-adv-x="787" 
d="M658 509q42 -85 42 -268q0 -240 -85.5 -372t-236.5 -132q-93 0 -164.5 44.5t-113.5 129.5l53 30q33 -69 91 -106.5t132 -37.5q122 0 190 114t68 315v21q-30 -67 -97.5 -110t-158.5 -43q-130 0 -210.5 82.5t-80.5 211.5q0 130 81 212t216 82q95 0 164.5 -45t109.5 -128z
M384 155q112 0 174 69t62 165q0 93 -66.5 163.5t-169.5 70.5t-166.5 -64.5t-63.5 -169.5q0 -104 63.5 -169t166.5 -65z" />
    <glyph glyph-name="n.subs" unicode="&#x2099;" horiz-adv-x="777" 
d="M430 692q106 0 169.5 -58t63.5 -163v-471h-66v455q0 87 -49 133.5t-136 46.5q-103 0 -163 -64.5t-60 -142.5v-428h-64v683h63v-125q28 58 90.5 96t151.5 38z" />
    <glyph glyph-name="uni20A9" unicode="&#x20a9;" horiz-adv-x="1998" 
d="M1912 590v-68h-313l-146 -522h-78l-149 522h-450l-149 -522h-79l-148 522h-313v68h295l-82 288h-212v67h194l-136 478h83l132 -478h464l139 478h74l138 -478h463l133 478h81l-134 -478h192v-67h-211l-81 -288h293zM1000 1306l-103 -361h207zM806 878h-426l79 -288h264z
M796 590h410l-83 288h-245zM1621 878h-426l83 -288h264zM588 122l115 400h-226zM1413 122l111 400h-227z" />
    <glyph glyph-name="Euro" unicode="&#x20ac;" horiz-adv-x="1452" 
d="M1256 302l67 -31q-68 -138 -189.5 -212.5t-283.5 -74.5q-229 0 -381.5 137.5t-199.5 377.5h-176v67h166q-9 69 -9 144q0 76 9 145h-166v67h176q48 241 200.5 379.5t376.5 138.5q160 0 282.5 -66.5t192.5 -191.5l-64 -37q-61 110 -165.5 167t-243.5 57q-190 0 -322 -119.5
t-177 -327.5h602v-67h-613q-10 -66 -10 -144q0 -76 9 -145h614v-67h-602q46 -208 177.5 -327t324.5 -119q137 0 242.5 64.5t162.5 184.5z" />
    <glyph glyph-name="uni20B8" unicode="&#x20b8;" horiz-adv-x="1211" 
d="M57 1475h1097v-70h-1097v70zM1154 1120v-71h-510v-1049h-77v1049h-511v71h1098z" />
    <glyph glyph-name="uni20B9" unicode="&#x20b9;" horiz-adv-x="1217" 
d="M1126 1423v-67h-336q144 -95 156 -287h180v-68h-180q-11 -164 -116 -258.5t-278 -94.5h-308l733 -648h-104l-739 648v70h414q138 0 224.5 75.5t96.5 207.5h-735v68h735q-10 132 -96.5 208.5t-224.5 76.5h-414v69h992z" />
    <glyph glyph-name="uni20BA" unicode="&#x20ba;" horiz-adv-x="1193" 
d="M1015 543l65 -18q-70 -244 -258.5 -384.5t-443.5 -140.5h-74v567l-211 -69v67l211 69v224l-211 -70v68l211 70v497h74v-477l486 162v-68l-486 -161v-224l486 161v-67l-486 -161v-517q229 0 400.5 127t236.5 345z" />
    <glyph glyph-name="uni20BC" unicode="&#x20bc;" horiz-adv-x="1697" 
d="M885 1198q309 -11 483.5 -216t174.5 -558v-424h-75v416q0 322 -154.5 510.5t-428.5 200.5v-977h-72v977q-274 -12 -429.5 -201t-155.5 -510v-416h-73v424q0 353 174 558t484 216v225h72v-225z" />
    <glyph glyph-name="uni2113" unicode="&#x2113;" horiz-adv-x="799" 
d="M665 89l19 -63q-90 -40 -198 -40q-116 0 -179 71.5t-63 201.5v226q-72 -36 -168 -67l-16 56q104 35 184 79v626q0 124 57 191.5t161 67.5q102 0 159 -73.5t57 -210.5q0 -207 -94.5 -366t-268.5 -263v-258q0 -105 45.5 -160.5t132.5 -55.5q90 0 172 38zM315 1170v-572
q140 97 216 237.5t76 315.5q0 108 -37 164.5t-108 56.5t-109 -52t-38 -150z" />
    <glyph glyph-name="uni2117" unicode="&#x2117;" horiz-adv-x="1817" 
d="M908 1492q158 0 298 -58.5t240 -159t158.5 -240.5t58.5 -297t-58.5 -297t-158.5 -240t-240 -158.5t-298 -58.5t-297.5 58.5t-239.5 158.5t-158 240t-58 297q0 210 98.5 383t271.5 272.5t383 99.5zM908 50q191 0 348 90t246 247.5t89 349.5t-89 349.5t-246 247.5t-348 90
t-347.5 -90t-245.5 -247.5t-89 -349.5t89 -349.5t245.5 -247.5t347.5 -90zM1012 1185q115 0 182.5 -69t67.5 -184t-67.5 -183.5t-182.5 -68.5h-281v-382h-66v887h347zM1006 741q86 0 136.5 52.5t50.5 138.5t-50.5 138t-136.5 52h-275v-381h275z" />
    <glyph glyph-name="uni2120" unicode="&#x2120;" horiz-adv-x="1561" 
d="M360 1166q36 -6 54.5 -10t51 -13t50.5 -18t41.5 -25t35.5 -35t21 -47t9 -62q0 -92 -68.5 -144t-189.5 -52q-96 0 -174 33.5t-121 88.5l45 44q36 -47 102 -76.5t148 -29.5q88 0 138 36t50 98q0 32 -12.5 56.5t-29 39t-48.5 26t-55 17t-63 12.5q-46 9 -72 15t-63.5 20.5
t-57.5 32.5t-35 49t-15 72q0 86 68 137t182 51q82 0 150.5 -33t105.5 -84l-44 -39q-30 40 -88 68t-124 28q-82 0 -131 -34.5t-49 -90.5q0 -27 10.5 -47.5t26.5 -33.5t43 -23t50 -15.5t58 -11.5zM1448 1475v-708h-67v607l-236 -607h-68l-235 607v-607h-67v708h90l247 -623
l247 623h89z" />
    <glyph glyph-name="trademark" unicode="&#x2122;" horiz-adv-x="1519" 
d="M615 1475v-60h-239v-648h-67v648h-239v60h545zM1406 1475v-708h-67v619l-236 -619h-68l-235 616v-616h-67v708h90l247 -625l246 625h90z" />
    <glyph glyph-name="uni2126" unicode="&#x2126;" horiz-adv-x="1584" 
d="M93 0v72h369q-147 79 -237.5 254.5t-90.5 413.5q0 339 179.5 544.5t479.5 205.5q299 0 478 -205.5t179 -544.5q0 -238 -90.5 -413.5t-236.5 -254.5h368v-72h-532v67q188 58 300 237.5t112 435.5q0 307 -158.5 491t-419.5 184q-262 0 -421.5 -184.5t-159.5 -490.5
q0 -257 112 -436t302 -237v-67h-533z" />
    <glyph glyph-name="estimated" unicode="&#x212e;" horiz-adv-x="1858" 
d="M930 -17q-198 0 -341 50.5t-258 159.5q-229 217 -229 544q0 332 232 546q118 109 258.5 160t337.5 51q180 0 315.5 -45t255.5 -142q117 -94 182 -246.5t73 -344.5h-1316q-11 0 -17 -2t-10.5 -10.5t-4.5 -25.5v-370q0 -31 38.5 -75t103.5 -87.5t167.5 -74t212.5 -30.5
q150 0 289.5 67t233.5 173h155q-155 -173 -310 -236q-89 -36 -165.5 -49t-202.5 -13zM441 763h971q24 0 30.5 7.5t6.5 28.5v362q0 58 -80 124t-204 111t-238 45q-104 0 -205 -32t-167 -76t-106.5 -87t-40.5 -69v-395q0 -19 33 -19z" />
    <glyph glyph-name="uni2150" unicode="&#x2150;" horiz-adv-x="1948" 
d="M339 549v839l-198 -180l-40 45l245 222h60v-926h-67zM1278 1475h71l-942 -1475h-71zM1156 926h601v-58q-183 -226 -256 -417t-76 -451h-69q4 258 74 448t251 417h-525v61z" />
    <glyph glyph-name="uni2151" unicode="&#x2151;" horiz-adv-x="1881" 
d="M339 549v839l-198 -180l-40 45l245 222h60v-926h-67zM1278 1475h71l-942 -1475h-71zM1654 761q42 -85 42 -268q0 -240 -86 -372t-237 -132q-93 0 -164 44.5t-113 129.5l52 30q33 -69 91 -106.5t132 -37.5q122 0 190 114t68 315v21q-30 -66 -97 -109.5t-159 -43.5
q-130 0 -210.5 82.5t-80.5 211.5q0 130 81 212t216 82q95 0 165 -45t110 -128zM1379 407q112 0 174 69t62 165q0 93 -66.5 163t-169.5 70q-104 0 -167 -64t-63 -169q0 -104 63.5 -169t166.5 -65z" />
    <glyph glyph-name="uni2152" unicode="&#x2152;" horiz-adv-x="2580" 
d="M339 549v839l-198 -180l-40 45l245 222h60v-926h-67zM1278 1475h71l-942 -1475h-71zM2054 936q156 0 245.5 -129t89.5 -344t-89.5 -344t-245.5 -129q-157 0 -246.5 129t-89.5 344t89.5 344t246.5 129zM1435 926v-926h-67v839l-199 -180l-39 46l244 221h61zM2054 51
q124 0 195 112.5t71 299.5t-71 299t-195 112t-195.5 -112t-71.5 -299t71.5 -299.5t195.5 -112.5z" />
    <glyph glyph-name="uni2153" unicode="&#x2153;" horiz-adv-x="1775" 
d="M339 549v839l-198 -180l-40 45l245 222h60v-926h-67zM1277 1475h72l-942 -1475h-72zM1522 476q71 -25 116.5 -85.5t45.5 -139.5q0 -120 -78 -190t-212 -70q-121 0 -203.5 55t-113.5 155l60 20q25 -80 91 -124.5t164 -44.5q104 0 164 54.5t60 148.5q0 85 -61.5 136.5
t-156.5 51.5h-62v60h45q94 0 151.5 47.5t57.5 133.5q0 87 -54 138.5t-145 51.5t-151 -45.5t-84 -129.5l-61 18q30 104 106.5 161t190.5 57q121 0 194 -67.5t73 -180.5q0 -71 -37 -127.5t-100 -83.5z" />
    <glyph glyph-name="uni2154" unicode="&#x2154;" horiz-adv-x="1902" 
d="M676 609v-59h-596v54l327 341q91 95 131.5 160.5t40.5 138.5q0 80 -55 130t-145 50q-176 0 -228 -200l-63 13q29 121 104 184.5t189 63.5q119 0 192.5 -66t73.5 -175q0 -83 -46 -161.5t-141 -177.5l-283 -296h499zM1404 1475h72l-942 -1475h-72zM1649 476
q71 -25 116.5 -85.5t45.5 -139.5q0 -120 -78 -190t-212 -70q-121 0 -203.5 55t-113.5 155l60 20q25 -80 91 -124.5t164 -44.5q104 0 164 54.5t60 148.5q0 85 -61.5 136.5t-156.5 51.5h-62v60h45q94 0 151.5 47.5t57.5 133.5q0 87 -54 138.5t-145 51.5t-151 -45.5t-84 -129.5
l-61 18q30 104 106.5 161t190.5 57q121 0 194 -67.5t73 -180.5q0 -71 -37 -127.5t-100 -83.5z" />
    <glyph glyph-name="uni2155" unicode="&#x2155;" horiz-adv-x="1887" 
d="M339 549v839l-198 -180l-40 45l245 222h60v-926h-67zM1278 1475h71l-942 -1475h-71zM1409 598q130 0 208 -83.5t78 -219.5q0 -135 -83.5 -219.5t-221.5 -84.5q-105 0 -189 50t-119 137l59 28q27 -70 95 -112.5t154 -42.5q108 0 172 68t64 177t-62 175.5t-165 66.5
q-148 0 -221 -108h-62l59 495h476v-60h-423l-42 -355q92 88 223 88z" />
    <glyph glyph-name="uni2156" unicode="&#x2156;" horiz-adv-x="1910" 
d="M676 609v-59h-596v54l327 341q91 95 131.5 160.5t40.5 138.5q0 80 -55 130t-145 50q-176 0 -228 -200l-63 13q29 121 104 184.5t189 63.5q119 0 192.5 -66t73.5 -175q0 -83 -46 -161.5t-141 -177.5l-283 -296h499zM1405 1475h71l-942 -1475h-71zM1536 598
q130 0 208 -83.5t78 -219.5q0 -135 -83.5 -219.5t-221.5 -84.5q-105 0 -189 50t-119 137l59 28q27 -70 95 -112.5t154 -42.5q108 0 172 68t64 177t-62 175.5t-165 66.5q-148 0 -221 -108h-62l59 495h476v-60h-423l-42 -355q92 88 223 88z" />
    <glyph glyph-name="uni2157" unicode="&#x2157;" horiz-adv-x="1903" 
d="M689 802q0 -120 -78.5 -190t-212.5 -70q-121 0 -203 55t-113 155l59 20q25 -80 91 -124.5t164 -44.5q104 0 164.5 54.5t60.5 148.5q0 85 -62 136.5t-157 51.5h-61v60h45q94 0 151.5 47.5t57.5 133.5q0 87 -54.5 138.5t-145.5 51.5t-150.5 -45.5t-83.5 -129.5l-62 18
q30 104 106.5 161t190.5 57q122 0 195 -68t73 -180q0 -71 -37.5 -127.5t-100.5 -83.5q71 -25 117 -85.5t46 -139.5zM1395 1475h71l-942 -1475h-71zM1527 598q130 0 207.5 -83.5t77.5 -219.5q0 -135 -83.5 -219.5t-221.5 -84.5q-105 0 -188.5 50t-118.5 137l58 28
q27 -70 95 -112.5t154 -42.5q108 0 172.5 68t64.5 177t-62 175.5t-165 66.5q-149 0 -222 -108h-61l58 495h476v-60h-422l-42 -355q92 88 223 88z" />
    <glyph glyph-name="uni2158" unicode="&#x2158;" horiz-adv-x="1866" 
d="M531 549v214h-472v56l465 656h74v-653h140v-59h-140v-214h-67zM1399 1475h70l-942 -1475h-70zM136 822h395v567zM1531 598q130 0 208 -83.5t78 -219.5q0 -135 -84 -219.5t-222 -84.5q-105 0 -188.5 50t-118.5 137l59 28q27 -70 94.5 -112.5t153.5 -42.5q108 0 172.5 68
t64.5 177t-62 175.5t-165 66.5q-149 0 -222 -108h-61l58 495h477v-60h-423l-42 -355q92 88 223 88z" />
    <glyph glyph-name="uni2159" unicode="&#x2159;" horiz-adv-x="1892" 
d="M339 549v839l-198 -180l-40 45l245 222h60v-926h-67zM1278 1475h71l-942 -1475h-71zM1412 590q129 0 209 -83t80 -217t-81 -216.5t-214 -82.5q-99 0 -173.5 52.5t-110.5 141.5q-33 80 -33 249q0 243 86.5 371.5t248.5 128.5q185 0 266 -158l-54 -30q-64 127 -209 127
q-74 0 -128.5 -34.5t-85 -95t-45 -133.5t-14.5 -159v-13q30 67 97.5 109.5t160.5 42.5zM1405 50q103 0 166 66t63 173q0 108 -63 174t-166 66q-112 0 -174 -71.5t-62 -168.5q0 -93 67 -166t169 -73z" />
    <glyph glyph-name="uni215A" unicode="&#x215a;" horiz-adv-x="1899" 
d="M699 846q0 -136 -83.5 -220.5t-221.5 -84.5q-105 0 -188.5 50t-118.5 137l58 28q27 -70 95 -112.5t154 -42.5q108 0 172.5 68t64.5 177t-62.5 175t-165.5 66q-149 0 -221 -107h-61l58 496h476v-61h-423l-42 -356q87 89 224 89q129 0 207 -83.5t78 -218.5zM1389 1475h70
l-942 -1475h-71zM1523 590q129 0 208.5 -83t79.5 -217t-80.5 -216.5t-213.5 -82.5q-99 0 -173.5 52.5t-110.5 141.5q-34 82 -34 249q0 243 87 371.5t249 128.5q184 0 265 -158l-53 -30q-63 127 -209 127q-74 0 -128.5 -34.5t-85 -95t-45 -133.5t-14.5 -159v-13
q30 67 97.5 109.5t160.5 42.5zM1516 50q103 0 166 66t63 173q0 108 -63 174t-166 66q-112 0 -174 -71.5t-62 -168.5q0 -93 67 -166t169 -73z" />
    <glyph glyph-name="oneeighth" unicode="&#x215b;" horiz-adv-x="1809" 
d="M339 549v839l-198 -180l-40 45l245 222h60v-926h-67zM1278 1475h71l-942 -1475h-71zM1530 474q86 -21 139 -79.5t53 -145.5q0 -117 -87 -187.5t-232 -70.5t-232.5 70.5t-87.5 187.5q0 87 53.5 145.5t138.5 79.5q-74 21 -117.5 80t-43.5 133q0 110 79.5 178.5t209.5 68.5
t209.5 -68.5t79.5 -178.5q0 -75 -43.5 -133.5t-118.5 -79.5zM1179 683q0 -83 61 -133t163 -50q101 0 162 50t61 133q0 89 -61 142.5t-162 53.5q-102 0 -163 -53.5t-61 -142.5zM1403 47q115 0 183.5 56.5t68.5 149.5q0 90 -70.5 141t-181.5 51t-182 -51t-71 -141
q0 -93 69 -149.5t184 -56.5z" />
    <glyph glyph-name="threeeighths" unicode="&#x215c;" horiz-adv-x="1923" 
d="M689 802q0 -120 -78.5 -190t-212.5 -70q-121 0 -203 55t-113 155l59 20q25 -80 91 -124.5t164 -44.5q104 0 164.5 54.5t60.5 148.5q0 85 -62 136.5t-157 51.5h-61v60h45q94 0 151.5 47.5t57.5 133.5q0 87 -54.5 138.5t-145.5 51.5t-150.5 -45.5t-83.5 -129.5l-62 18
q30 104 106.5 161t190.5 57q122 0 195 -68t73 -180q0 -71 -37.5 -127.5t-100.5 -83.5q71 -25 117 -85.5t46 -139.5zM1391 1475h71l-942 -1475h-71zM1642 474q86 -21 139.5 -79.5t53.5 -145.5q0 -117 -87 -187.5t-232 -70.5t-232.5 70.5t-87.5 187.5q0 87 53.5 145.5
t138.5 79.5q-74 21 -117.5 80t-43.5 133q0 110 79.5 178.5t209.5 68.5t209 -68.5t79 -178.5q0 -75 -43.5 -133.5t-118.5 -79.5zM1291 683q0 -83 61.5 -133t163.5 -50q101 0 162 50t61 133q0 89 -61 142.5t-162 53.5q-102 0 -163.5 -53.5t-61.5 -142.5zM1516 47
q114 0 182.5 56.5t68.5 149.5q0 90 -70 141t-181 51t-182 -51t-71 -141q0 -93 69 -149.5t184 -56.5z" />
    <glyph glyph-name="fiveeighths" unicode="&#x215d;" horiz-adv-x="1918" 
d="M699 846q0 -136 -83.5 -220.5t-221.5 -84.5q-105 0 -188.5 50t-118.5 137l58 28q27 -70 95 -112.5t154 -42.5q108 0 172.5 68t64.5 177t-62.5 175t-165.5 66q-149 0 -221 -107h-61l58 496h476v-61h-423l-42 -356q87 89 224 89q129 0 207 -83.5t78 -218.5zM1386 1475h72
l-942 -1475h-72zM1638 474q86 -21 139.5 -79.5t53.5 -145.5q0 -117 -87.5 -187.5t-232.5 -70.5t-232 70.5t-87 187.5q0 87 53 145.5t138 79.5q-74 21 -117 79.5t-43 133.5q0 110 79 178.5t209 68.5t209.5 -68.5t79.5 -178.5q0 -75 -43.5 -133.5t-118.5 -79.5zM1287 683
q0 -83 61 -133t163 -50q101 0 162.5 50t61.5 133q0 89 -61.5 142.5t-162.5 53.5q-102 0 -163 -53.5t-61 -142.5zM1511 47q115 0 183.5 56.5t68.5 149.5q0 90 -70.5 141t-181.5 51t-182 -51t-71 -141q0 -93 69 -149.5t184 -56.5z" />
    <glyph glyph-name="seveneighths" unicode="&#x215e;" horiz-adv-x="1765" 
d="M327 549h-71q4 257 74.5 448t251.5 418h-526v60h601v-57q-182 -226 -254.5 -417t-75.5 -452zM1234 1475h71l-943 -1475h-70zM1486 474q86 -21 139 -79.5t53 -145.5q0 -117 -87 -187.5t-232 -70.5t-232.5 70.5t-87.5 187.5q0 87 53.5 145.5t138.5 79.5q-74 21 -117.5 80
t-43.5 133q0 110 79.5 178.5t209.5 68.5t209.5 -68.5t79.5 -178.5q0 -75 -43.5 -133.5t-118.5 -79.5zM1135 683q0 -83 61 -133t163 -50q101 0 162 50t61 133q0 89 -61 142.5t-162 53.5q-102 0 -163 -53.5t-61 -142.5zM1359 47q115 0 183.5 56.5t68.5 149.5q0 90 -70.5 141
t-181.5 51t-182 -51t-71 -141q0 -93 69 -149.5t184 -56.5z" />
    <glyph glyph-name="uni215F" unicode="&#x215f;" horiz-adv-x="1540" 
d="M339 549v839l-198 -180l-40 45l245 222h60v-926h-67zM1278 1475h71l-942 -1475h-71z" />
    <glyph glyph-name="uni2189" unicode="&#x2189;" horiz-adv-x="1946" 
d="M764 1013q0 -215 -89.5 -343.5t-246.5 -128.5q-156 0 -245.5 128.5t-89.5 343.5t89.5 344t245.5 129q157 0 246.5 -129t89.5 -344zM1446 1475h71l-943 -1475h-70zM428 601q124 0 195.5 112.5t71.5 299.5t-71.5 299t-195.5 112t-195 -112t-71 -299t71 -299.5t195 -112.5z
M1690 476q71 -25 116.5 -85.5t45.5 -139.5q0 -120 -78 -190t-212 -70q-121 0 -203.5 55t-113.5 155l60 20q25 -80 91 -124.5t164 -44.5q104 0 164 54.5t60 148.5q0 85 -61.5 136.5t-156.5 51.5h-62v60h45q94 0 151.5 47.5t57.5 133.5q0 87 -54 138.5t-145 51.5t-151 -45.5
t-84 -129.5l-61 18q30 104 106.5 161t190.5 57q121 0 194 -67.5t73 -180.5q0 -71 -37 -127.5t-100 -83.5z" />
    <glyph glyph-name="arrowleft" unicode="&#x2190;" horiz-adv-x="1792" 
d="M1690 680v-68h-1507l394 -391l-46 -45l-470 470l470 470l46 -45l-394 -391h1507z" />
    <glyph glyph-name="arrowup" unicode="&#x2191;" horiz-adv-x="1792" 
d="M1366 990l-45 -45l-391 393v-1506h-68v1506l-391 -393l-45 45l470 470z" />
    <glyph glyph-name="arrowright" unicode="&#x2192;" horiz-adv-x="1792" 
d="M1261 1116l470 -470l-470 -470l-46 45l394 391h-1507v68h1507l-394 391z" />
    <glyph glyph-name="arrowdown" unicode="&#x2193;" horiz-adv-x="1792" 
d="M1321 347l45 -45l-470 -470l-470 470l45 45l391 -393v1506h68v-1506z" />
    <glyph glyph-name="arrowboth" unicode="&#x2194;" horiz-adv-x="1938" 
d="M1407 1116l470 -470l-470 -470l-45 45l392 391h-1570l393 -391l-46 -45l-470 470l470 470l46 -45l-393 -391h1570l-392 391z" />
    <glyph glyph-name="arrowupdn" unicode="&#x2195;" horiz-adv-x="1792" 
d="M930 -139l391 393l45 -46l-470 -470l-470 470l45 46l391 -393v1571l-391 -394l-45 46l470 470l470 -470l-45 -46l-391 394v-1571z" />
    <glyph glyph-name="uni2196" unicode="&#x2196;" horiz-adv-x="1792" 
d="M1484 94l-48 -47l-1064 1064l1 -554h-65v665h665v-65l-554 2z" />
    <glyph glyph-name="uni2197" unicode="&#x2197;" horiz-adv-x="1792" 
d="M819 1222h665v-665h-65l1 554l-1064 -1064l-48 47l1065 1065l-554 -2v65z" />
    <glyph glyph-name="uni2198" unicode="&#x2198;" horiz-adv-x="1792" 
d="M1419 735h65v-664h-665v64l554 -2l-1065 1065l48 47l1064 -1064z" />
    <glyph glyph-name="uni2199" unicode="&#x2199;" horiz-adv-x="1792" 
d="M1484 1198l-1065 -1065l554 2v-64h-665v664h65l-1 -554l1064 1064z" />
    <glyph glyph-name="uni21B0" unicode="&#x21b0;" horiz-adv-x="1792" 
d="M1690 680v-862h-67v794h-1440l394 -391l-46 -45l-470 470l470 470l46 -45l-394 -391h1507z" />
    <glyph glyph-name="uni21B1" unicode="&#x21b1;" horiz-adv-x="1792" 
d="M1261 1116l470 -470l-470 -470l-46 45l394 391h-1440v-794h-67v862h1507l-394 391z" />
    <glyph glyph-name="uni21B3" unicode="&#x21b3;" horiz-adv-x="1792" 
d="M1261 1116l470 -470l-470 -470l-46 45l394 391h-1507v863h67v-795h1440l-394 391z" />
    <glyph glyph-name="carriagereturn" unicode="&#x21b5;" horiz-adv-x="1792" 
d="M1623 1475h67v-863h-1507l394 -391l-46 -45l-470 470l470 470l46 -45l-394 -391h1440v795z" />
    <glyph glyph-name="partialdiff" unicode="&#x2202;" horiz-adv-x="1175" 
d="M348 1491q349 -74 532 -327t183 -643q0 -245 -129.5 -390t-345.5 -145t-345 145.5t-129 389.5q0 246 129 392t345 146q109 0 203.5 -51.5t160.5 -141.5q-65 224 -222 369t-398 197zM588 55q181 0 290 127t109 339t-109 340t-290 128t-290.5 -128t-109.5 -340t109.5 -339
t290.5 -127z" />
    <glyph glyph-name="emptyset" unicode="&#x2205;" horiz-adv-x="1387" 
d="M1274 1055l-175 -174q135 -153 135 -357q0 -147 -72.5 -272t-196.5 -197t-271 -72q-205 0 -358 135l-175 -175l-47 48l175 175q-135 153 -135 358q0 146 72.5 270t196.5 196.5t271 72.5q204 0 357 -134l175 175zM230 524q0 -173 111 -305l657 658q-128 114 -304 114
q-94 0 -180 -37t-148 -99.5t-99 -149t-37 -181.5zM1158 524q0 173 -111 303l-659 -657q132 -116 306 -116q192 0 328 137.5t136 332.5z" />
    <glyph glyph-name="uni2206" unicode="&#x2206;" horiz-adv-x="1369" 
d="M726 1475l557 -1412v-63h-1196v63l556 1412h83zM172 72h1025l-512 1303z" />
    <glyph glyph-name="product" unicode="&#x220f;" horiz-adv-x="1318" 
d="M1103 1475v-1772h-77v1700h-733v-1700h-77v1772h887z" />
    <glyph glyph-name="summation" unicode="&#x2211;" horiz-adv-x="1334" 
d="M216 -297v64l666 837l-666 807v64h982v-72h-873l633 -769v-61l-633 -798h881v-72h-990z" />
    <glyph glyph-name="minus" unicode="&#x2212;" 
d="M186 538v67h856v-67h-856z" />
    <glyph glyph-name="uni2215" unicode="&#x2215;" horiz-adv-x="1065" 
d="M32 0l942 1475h70l-942 -1475h-70z" />
    <glyph glyph-name="uni2219" unicode="&#x2219;" 
d="M614 492q-45 0 -77.5 32.5t-32.5 77.5t32.5 78t77.5 33t78 -33t33 -78t-33 -77.5t-78 -32.5z" />
    <glyph glyph-name="radical" unicode="&#x221a;" horiz-adv-x="1333" 
d="M1175 1475h80l-696 -1772h-79l-403 961l74 24l367 -885z" />
    <glyph glyph-name="infinity" unicode="&#x221e;" horiz-adv-x="1822" 
d="M1346 930q165 0 264 -99.5t99 -277.5t-99 -277.5t-264 -99.5q-56 0 -109 18.5t-94 45.5t-85.5 72t-76 84t-72.5 96q-42 -58 -73 -96.5t-75.5 -84t-85.5 -72t-94 -45t-109 -18.5q-162 0 -260 99.5t-98 277.5t98 277.5t260 99.5q56 0 109 -18.5t94 -45t85.5 -72t75.5 -84
t73 -96.5q41 57 72.5 96t76 84t85.5 72t94 45.5t109 18.5zM475 244q34 0 67.5 9.5t61 23t58 39t53 48t52 59t48.5 62t50 68.5q-31 43 -50 68.5t-48.5 62t-52 59t-53 48t-58 39t-61 23t-67.5 9.5q-127 0 -206 -81.5t-79 -227.5t79 -227.5t206 -81.5zM1343 244q129 0 209 81.5
t80 227.5t-80 227.5t-209 81.5q-48 0 -93.5 -18t-81 -43t-77 -71.5t-69 -82t-69.5 -94.5q42 -59 69.5 -94.5t69 -82t77 -71.5t81 -43t93.5 -18z" />
    <glyph glyph-name="integral" unicode="&#x222b;" horiz-adv-x="452" 
d="M127 -312q-47 0 -103 25l18 61q44 -20 81 -20t51.5 23.5t14.5 67.5v1501q0 69 36 106t102 37q43 0 102 -25l-18 -60q-41 19 -80 19q-68 0 -68 -92v-1499q0 -70 -35.5 -107t-100.5 -37z" />
    <glyph glyph-name="approxequal" unicode="&#x2248;" 
d="M806 694q-40 0 -81 14t-65.5 29t-63.5 42q-34 24 -54.5 36.5t-51.5 24t-59 11.5q-61 0 -103.5 -34t-81.5 -117l-59 30q46 100 105.5 145.5t138.5 45.5q38 0 77.5 -14t63 -28t62.5 -41q36 -25 56.5 -37.5t53.5 -24.5t63 -12q56 0 96.5 34t79.5 117l58 -30
q-47 -100 -103.5 -145.5t-131.5 -45.5zM806 301q-40 0 -81 14t-65.5 29t-63.5 42q-34 24 -54.5 36.5t-51.5 24t-59 11.5q-61 0 -103.5 -34t-81.5 -117l-59 30q46 100 105.5 145t138.5 45q38 0 77.5 -14t63 -28t62.5 -41q35 -24 56.5 -37t54 -24.5t62.5 -11.5q56 0 96.5 34
t79.5 117l58 -30q-47 -100 -103.5 -145.5t-131.5 -45.5z" />
    <glyph glyph-name="notequal" unicode="&#x2260;" 
d="M1042 783h-317l-150 -360h467v-68h-494l-114 -273h-69l113 273h-292v68h320l149 360h-469v67h496l114 273h69l-113 -273h290v-67z" />
    <glyph glyph-name="lessequal" unicode="&#x2264;" 
d="M1042 313l-856 378v73l856 372v-77l-785 -332l785 -336v-78zM1042 94h-856v67h856v-67z" />
    <glyph glyph-name="greaterequal" unicode="&#x2265;" 
d="M186 313v78l786 336l-786 332v77l856 -372v-73zM186 94v67h856v-67h-856z" />
    <glyph glyph-name="uni2300" unicode="&#x2300;" horiz-adv-x="1387" 
d="M1274 1055l-175 -174q135 -153 135 -357q0 -147 -72.5 -272t-196.5 -197t-271 -72q-205 0 -358 135l-175 -175l-47 48l175 175q-135 153 -135 358q0 146 72.5 270t196.5 196.5t271 72.5q204 0 357 -134l175 175zM230 524q0 -173 111 -305l657 658q-128 114 -304 114
q-94 0 -180 -37t-148 -99.5t-99 -149t-37 -181.5zM1158 524q0 173 -111 303l-659 -657q132 -116 306 -116q192 0 328 137.5t136 332.5z" />
    <glyph glyph-name="uni2460" unicode="&#x2460;" horiz-adv-x="1947" 
d="M974 1540q170 0 320 -61t256.5 -167t168 -255.5t61.5 -319.5t-61.5 -319t-168 -255t-256.5 -167t-320 -61t-320 61t-256.5 167t-168 255t-61.5 319t61.5 319.5t168 255.5t256.5 167t320 61zM974 4q208 0 375.5 95t262.5 263t95 375q0 208 -95 376t-262.5 263t-375.5 95
q-156 0 -292 -56t-233 -153t-153 -233t-56 -292q0 -155 56 -291t153 -233t233 -153t292 -56zM1044 1221v-926h-66v839l-199 -180l-39 45l244 222h60z" />
    <glyph glyph-name="uni2461" unicode="&#x2461;" horiz-adv-x="1947" 
d="M974 1540q170 0 320 -61t256.5 -167t168 -255.5t61.5 -319.5t-61.5 -319t-168 -255t-256.5 -167t-320 -61t-320 61t-256.5 167t-168 255t-61.5 319t61.5 319.5t168 255.5t256.5 167t320 61zM974 4q208 0 375.5 95t262.5 263t95 375q0 208 -95 376t-262.5 263t-375.5 95
q-156 0 -292 -56t-233 -153t-153 -233t-56 -292q0 -155 56 -291t153 -233t233 -153t292 -56zM1053 651l-284 -297h499v-59h-596v54l327 342q90 93 130.5 159t40.5 139q0 80 -54.5 130t-144.5 50q-91 0 -151 -52.5t-78 -147.5l-63 13q23 120 101 184t193 64
q119 0 192.5 -66.5t73.5 -174.5q0 -83 -45.5 -161.5t-140.5 -176.5z" />
    <glyph glyph-name="uni2462" unicode="&#x2462;" horiz-adv-x="1947" 
d="M974 1540q170 0 320 -61t256.5 -167t168 -255.5t61.5 -319.5t-61.5 -319t-168 -255t-256.5 -167t-320 -61t-320 61t-256.5 167t-168 255t-61.5 319t61.5 319.5t168 255.5t256.5 167t320 61zM974 4q208 0 375.5 95t262.5 263t95 375q0 208 -95 376t-262.5 263t-375.5 95
q-156 0 -292 -56t-233 -153t-153 -233t-56 -292q0 -155 56 -291t153 -233t233 -153t292 -56zM1099 771q83 -24 131 -84.5t48 -139.5q0 -121 -78 -191t-212 -70q-121 0 -203 55.5t-113 155.5l59 24q25 -84 91 -129.5t164 -45.5q104 0 163.5 55t59.5 150q0 85 -61 136.5
t-157 51.5h-60v60h45q94 0 151.5 47t57.5 134t-54.5 138.5t-146.5 51.5q-90 0 -149.5 -45.5t-83.5 -129.5l-62 18q30 104 106 160.5t190 56.5q122 0 195 -67.5t73 -180.5q0 -72 -40 -128t-114 -83z" />
    <glyph glyph-name="uni2463" unicode="&#x2463;" horiz-adv-x="1947" 
d="M974 1540q170 0 320 -61t256.5 -167t168 -255.5t61.5 -319.5t-61.5 -319t-168 -255t-256.5 -167t-320 -61t-320 61t-256.5 167t-168 255t-61.5 319t61.5 319.5t168 255.5t256.5 167t320 61zM974 4q208 0 375.5 95t262.5 263t95 375q0 208 -95 376t-262.5 263t-375.5 95
q-156 0 -292 -56t-233 -153t-153 -233t-56 -292q0 -155 56 -291t153 -233t233 -153t292 -56zM1137 1221v-653h140v-59h-140v-214h-67v214h-472v55l465 657h74zM669 568h401v573z" />
    <glyph glyph-name="uni2464" unicode="&#x2464;" horiz-adv-x="1947" 
d="M974 1540q170 0 320 -61t256.5 -167t168 -255.5t61.5 -319.5t-61.5 -319t-168 -255t-256.5 -167t-320 -61t-320 61t-256.5 167t-168 255t-61.5 319t61.5 319.5t168 255.5t256.5 167t320 61zM974 4q208 0 375.5 95t262.5 263t95 375q0 208 -95 376t-262.5 263t-375.5 95
q-156 0 -292 -56t-233 -153t-153 -233t-56 -292q0 -155 56 -291t153 -233t233 -153t292 -56zM984 891q129 0 207.5 -83t78.5 -217q0 -136 -83 -221t-222 -85q-105 0 -189 50.5t-119 137.5l59 31q28 -72 95.5 -115t153.5 -43q107 0 171.5 68t64.5 177t-62 176t-165 67
q-147 0 -221 -110h-62l59 497h476v-60h-423l-42 -365q88 95 223 95z" />
    <glyph glyph-name="uni2465" unicode="&#x2465;" horiz-adv-x="1947" 
d="M974 1540q170 0 320 -61t256.5 -167t168 -255.5t61.5 -319.5t-61.5 -319t-168 -255t-256.5 -167t-320 -61t-320 61t-256.5 167t-168 255t-61.5 319t61.5 319.5t168 255.5t256.5 167t320 61zM974 4q208 0 375.5 95t262.5 263t95 375q0 208 -95 376t-262.5 263t-375.5 95
q-156 0 -292 -56t-233 -153t-153 -233t-56 -292q0 -155 56 -291t153 -233t233 -153t292 -56zM981 883q130 0 209.5 -82t79.5 -216t-81 -216.5t-214 -82.5q-99 0 -173 52.5t-111 141.5q-34 82 -34 250q0 242 87.5 371t249.5 129q183 0 264 -159l-53 -35q-63 134 -209 134
q-74 0 -128.5 -35t-84.5 -96t-44.5 -134.5t-14.5 -159.5v-33q31 77 98 124t159 47zM974 345q104 0 166.5 66t62.5 174t-62.5 174t-166.5 66q-111 0 -173.5 -72t-62.5 -168q0 -94 67 -167t169 -73z" />
    <glyph glyph-name="uni2466" unicode="&#x2466;" horiz-adv-x="1947" 
d="M974 1540q170 0 320 -61t256.5 -167t168 -255.5t61.5 -319.5t-61.5 -319t-168 -255t-256.5 -167t-320 -61t-320 61t-256.5 167t-168 255t-61.5 319t61.5 319.5t168 255.5t256.5 167t320 61zM974 4q208 0 375.5 95t262.5 263t95 375q0 208 -95 376t-262.5 263t-375.5 95
q-156 0 -292 -56t-233 -153t-153 -233t-56 -292q0 -155 56 -291t153 -233t233 -153t292 -56zM668 1161v60h601v-57q-182 -227 -255 -418t-77 -451h-70q4 258 74.5 448.5t251.5 417.5h-525z" />
    <glyph glyph-name="uni2467" unicode="&#x2467;" horiz-adv-x="1947" 
d="M974 -65q-170 0 -320 61t-256.5 167t-168 255t-61.5 319t61.5 319.5t168 255.5t256.5 167t320 61t320 -61t256.5 -167t168 -255.5t61.5 -319.5t-61.5 -319t-168 -255t-256.5 -167t-320 -61zM974 4q208 0 375.5 95t262.5 263t95 375q0 208 -95 376t-262.5 263t-375.5 95
q-156 0 -292 -56t-233 -153t-153 -233t-56 -292q0 -155 56 -291t153 -233t233 -153t292 -56zM974 286q-145 0 -232.5 70.5t-87.5 187.5q0 89 57 147t156 78q-89 22 -135.5 79.5t-46.5 133.5q0 110 79.5 179t209.5 69t209.5 -69t79.5 -179q0 -75 -47.5 -133t-135.5 -80
q99 -20 155.5 -77.5t56.5 -147.5q0 -117 -86.5 -187.5t-231.5 -70.5zM974 795q101 0 162 50.5t61 133.5q0 89 -61 142.5t-162 53.5t-162 -53.5t-61 -142.5q0 -83 61 -133.5t162 -50.5zM974 342q115 0 183.5 56.5t68.5 149.5q0 90 -70.5 141.5t-181.5 51.5t-181.5 -51.5
t-70.5 -141.5q0 -93 68.5 -149.5t183.5 -56.5z" />
    <glyph glyph-name="uni2468" unicode="&#x2468;" horiz-adv-x="1947" 
d="M974 1540q170 0 320 -61t256.5 -167t168 -255.5t61.5 -319.5t-61.5 -319t-168 -255t-256.5 -167t-320 -61t-320 61t-256.5 167t-168 255t-61.5 319t61.5 319.5t168 255.5t256.5 167t320 61zM974 4q208 0 375.5 95t262.5 263t95 375q0 208 -95 376t-262.5 263t-375.5 95
q-156 0 -292 -56t-233 -153t-153 -233t-56 -292q0 -155 56 -291t153 -233t233 -153t292 -56zM974 1231q188 0 275 -174q41 -81 41 -269q0 -241 -84.5 -372.5t-236.5 -131.5q-93 0 -164.5 45t-113.5 129l51 35q34 -72 92.5 -110.5t133.5 -38.5q122 0 189.5 114.5t67.5 315.5
v35q-30 -75 -96.5 -120t-158.5 -45q-131 0 -211 82t-80 211q0 130 80 212t215 82zM976 701q111 0 172.5 70.5t61.5 166.5q0 93 -66 163.5t-168 70.5q-104 0 -167.5 -64.5t-63.5 -169.5t63.5 -171t167.5 -66z" />
    <glyph glyph-name="uni24EA" unicode="&#x24ea;" horiz-adv-x="1947" 
d="M974 -65q-170 0 -320 61t-256.5 167t-168 255t-61.5 319t61.5 319.5t168 255.5t256.5 167t320 61t320 -61t256.5 -167t168 -255.5t61.5 -319.5t-61.5 -319t-168 -255t-256.5 -167t-320 -61zM974 4q208 0 375.5 95t262.5 263t95 375q0 208 -95 376t-262.5 263t-375.5 95
q-156 0 -292 -56t-233 -153t-153 -233t-56 -292q0 -155 56 -291t153 -233t233 -153t292 -56zM974 286q-157 0 -246.5 129t-89.5 344t89.5 343.5t246.5 128.5q156 0 245.5 -128.5t89.5 -343.5t-89.5 -344t-245.5 -129zM974 347q124 0 195.5 112.5t71.5 299.5t-71.5 299
t-195.5 112t-195.5 -112t-71.5 -299t71.5 -299.5t195.5 -112.5z" />
    <glyph glyph-name="uni24FF" unicode="&#x24ff;" horiz-adv-x="1947" 
d="M996 -96q-180 0 -336.5 62.5t-267.5 172t-174.5 264.5t-63.5 335q0 144 40.5 273t116 231t178.5 176.5t233 114.5t274 40q180 0 336.5 -62.5t267.5 -172t175 -265t64 -335.5q0 -240 -109 -430.5t-301.5 -297t-432.5 -106.5zM996 279q174 0 270 130.5t96 349.5t-96 349.5
t-270 130.5t-269.5 -131t-95.5 -349q0 -219 95.5 -349.5t269.5 -130.5zM996 417q-100 0 -154 94t-54 248t54 248t154 94q101 0 155 -94t54 -248t-54 -248t-155 -94z" />
    <glyph glyph-name="filledbox" unicode="&#x25a0;" horiz-adv-x="1843" 
d="M184 0v1475h1475v-1475h-1475z" />
    <glyph glyph-name="uni25A1" unicode="&#x25a1;" horiz-adv-x="1843" 
d="M184 0v1475h1475v-1475h-1475zM256 69h1331v1337h-1331v-1337z" />
    <glyph glyph-name="uni25AE" unicode="&#x25ae;" horiz-adv-x="1105" 
d="M184 0v1475h738v-1475h-738z" />
    <glyph glyph-name="uni25AF" unicode="&#x25af;" horiz-adv-x="1105" 
d="M184 0v1475h738v-1475h-738zM256 69h594v1337h-594v-1337z" />
    <glyph glyph-name="triagup" unicode="&#x25b2;" horiz-adv-x="1843" 
d="M82 0l840 1495l839 -1495h-1679z" />
    <glyph glyph-name="uni25B3" unicode="&#x25b3;" horiz-adv-x="1843" 
d="M82 0l840 1495l839 -1495h-1679zM207 73h1429l-714 1273z" />
    <glyph glyph-name="uni25C6" unicode="&#x25c6;" horiz-adv-x="1843" 
d="M922 -52l-790 789l790 790l789 -790z" />
    <glyph glyph-name="uni25C7" unicode="&#x25c7;" horiz-adv-x="1843" 
d="M922 -52l-790 789l790 790l789 -790zM922 50l687 687l-687 687l-688 -687z" />
    <glyph glyph-name="lozenge" unicode="&#x25ca;" 
d="M648 1475l435 -738l-435 -737h-67l-436 737l436 738h67zM614 72l388 665l-388 666l-388 -666z" />
    <glyph glyph-name="circle" unicode="&#x25cb;" horiz-adv-x="1843" 
d="M923 -16q-154 0 -293.5 59.5t-240.5 160.5t-161 240.5t-60 292.5t60 292.5t161 240.5t240.5 161t293.5 60q153 0 292 -60t240 -161t160.5 -240.5t59.5 -292.5t-59.5 -292.5t-160.5 -240.5t-240 -160.5t-292 -59.5zM923 56q184 0 340.5 91.5t247.5 248t91 341.5t-91 341.5
t-247.5 248t-340.5 91.5q-139 0 -265 -54t-217 -145t-145 -217t-54 -265t54 -265t145 -217t217 -145t265 -54z" />
    <glyph glyph-name="uni25CF" unicode="&#x25cf;" horiz-adv-x="1843" 
d="M923 -16q-154 0 -293.5 59.5t-240.5 160.5t-161 240.5t-60 292.5t60 292.5t161 240.5t240.5 161t293.5 60q153 0 292 -60t240 -161t160.5 -240.5t59.5 -292.5t-59.5 -292.5t-160.5 -240.5t-240 -160.5t-292 -59.5z" />
    <glyph glyph-name="uni2605" unicode="&#x2605;" horiz-adv-x="1843" 
d="M367 -72l218 654l-514 376h640l211 629l211 -629h640l-515 -376l219 -654l-555 407z" />
    <glyph glyph-name="uni2606" unicode="&#x2606;" horiz-adv-x="1843" 
d="M367 -72l218 654l-514 376h640l211 629l211 -629h640l-515 -376l219 -654l-555 407zM509 124l413 302l412 -302l-163 484l379 278h-472l-156 470l-157 -470h-472l379 -278z" />
    <glyph glyph-name="uni2661" unicode="&#x2661;" horiz-adv-x="1843" 
d="M1271 1499q119 0 219 -54.5t160 -154.5t60 -224q0 -178 -104 -374.5t-278.5 -376t-405.5 -341.5q-172 121 -314.5 254t-249.5 273t-166 285.5t-59 279.5q0 124 60 224t160 154.5t219 54.5q124 0 220.5 -61.5t129.5 -130.5q33 69 129 130.5t220 61.5zM922 61
q319 229 516 497.5t197 507.5q0 155 -105.5 257.5t-258.5 102.5q-130 0 -218.5 -77t-128.5 -194h-4q-40 117 -128.5 194t-219.5 77q-153 0 -258.5 -102.5t-105.5 -257.5q0 -239 197.5 -507.5t516.5 -497.5z" />
    <glyph glyph-name="uni2714" unicode="&#x2714;" horiz-adv-x="1843" 
d="M685 -17l-576 402l43 61l514 -359l1005 1405l63 -44z" />
    <glyph glyph-name="uni2718" unicode="&#x2718;" horiz-adv-x="1843" 
d="M1676 1440l-702 -703l702 -702l-52 -52l-702 702l-703 -702l-52 52l702 702l-702 703l52 52l703 -702l702 702z" />
    <glyph glyph-name="uni2764" unicode="&#x2764;" horiz-adv-x="1843" 
d="M1275 1499q182 0 308.5 -122.5t126.5 -310.5q0 -134 -59 -280t-165.5 -286t-249 -273t-314.5 -253q-231 162 -405.5 341.5t-279 376t-104.5 374.5q0 188 126.5 310.5t308.5 122.5q125 0 224 -65.5t130 -143.5q31 78 129.5 143.5t223.5 65.5z" />
    <glyph glyph-name="uni2776" unicode="&#x2776;" horiz-adv-x="1947" 
d="M974 -65q-170 0 -320 61t-256.5 167t-168 255t-61.5 319t61.5 319.5t168 255.5t256.5 167t320 61t320 -61t256.5 -167t168 -255.5t61.5 -319.5t-61.5 -319t-168 -255t-256.5 -167t-320 -61zM978 295h66v926h-60l-244 -222l39 -45l199 181v-840z" />
    <glyph glyph-name="uni2777" unicode="&#x2777;" horiz-adv-x="1947" 
d="M974 -65q-170 0 -320 61t-256.5 167t-168 255t-61.5 319t61.5 319.5t168 255.5t256.5 167t320 61t320 -61t256.5 -167t168 -255.5t61.5 -319.5t-61.5 -319t-168 -255t-256.5 -167t-320 -61zM672 295h596v59h-499l284 297q95 99 140.5 177t45.5 161q0 109 -73.5 175
t-192.5 66q-114 0 -189 -63.5t-104 -184.5l62 -13q52 200 229 200q90 0 144.5 -50t54.5 -130q0 -73 -40 -138t-131 -160l-327 -342v-54z" />
    <glyph glyph-name="uni2778" unicode="&#x2778;" horiz-adv-x="1947" 
d="M974 -66q-170 0 -320 61t-256.5 167.5t-168 256t-61.5 319.5t61.5 319.5t168 255.5t256.5 167t320 61t320 -61t256.5 -167t168 -255.5t61.5 -319.5t-61.5 -319.5t-168 -256t-256.5 -167.5t-320 -61zM988 287q134 0 212 70t78 190q0 79 -46 140t-118 85q64 27 101.5 83.5
t37.5 127.5q0 112 -73 179.5t-195 67.5q-114 0 -190 -56.5t-106 -160.5l62 -17q24 83 83.5 128.5t149.5 45.5q92 0 146.5 -51.5t54.5 -138.5q0 -86 -57.5 -133t-151.5 -47h-45v-61h60q96 0 157 -51.5t61 -136.5q0 -94 -60 -149t-163 -55q-98 0 -164 44.5t-92 126.5l-59 -21
q32 -100 114 -155t203 -55z" />
    <glyph glyph-name="uni2779" unicode="&#x2779;" horiz-adv-x="1947" 
d="M974 -65q-170 0 -320 61t-256.5 167t-168 255t-61.5 319t61.5 319.5t168 255.5t256.5 167t320 61t320 -61t256.5 -167t168 -255.5t61.5 -319.5t-61.5 -319t-168 -255t-256.5 -167t-320 -61zM1070 295h67v214h140v59h-140v653h-74l-465 -657v-55h472v-214zM675 568
l395 566v-566h-395z" />
    <glyph glyph-name="uni277A" unicode="&#x277a;" horiz-adv-x="1947" 
d="M974 -65q-170 0 -320 61t-256.5 167t-168 255t-61.5 319t61.5 319.5t168 255.5t256.5 167t320 61t320 -61t256.5 -167t168 -255.5t61.5 -319.5t-61.5 -319t-168 -255t-256.5 -167t-320 -61zM964 286q138 0 221.5 84.5t83.5 219.5q0 136 -78.5 219.5t-207.5 83.5
q-131 0 -223 -88l42 355h423v60h-476l-59 -495h62q73 108 221 108q103 0 165 -66.5t62 -175.5t-64 -177t-172 -68q-86 0 -154 42.5t-95 112.5l-59 -28q35 -87 119 -137t189 -50z" />
    <glyph glyph-name="uni277B" unicode="&#x277b;" horiz-adv-x="1947" 
d="M974 -65q-170 0 -320 61t-256.5 167t-168 255t-61.5 319t61.5 319.5t168 255.5t256.5 167t320 61t320 -61t256.5 -167t168 -255.5t61.5 -319.5t-61.5 -319t-168 -255t-256.5 -167t-320 -61zM974 287q133 0 214 82.5t81 216.5t-80 217t-209 83q-93 0 -160.5 -42.5
t-97.5 -109.5v12q0 86 14.5 159t45 134t85 95.5t128.5 34.5q145 0 209 -127l53 30q-81 158 -265 158q-162 0 -249 -128.5t-87 -371.5q0 -167 34 -249q36 -89 110.5 -141.5t173.5 -52.5zM973 346q-102 0 -169 73t-67 166q0 97 62 168.5t174 71.5q103 0 166 -66t63 -174
q0 -107 -63 -173t-166 -66z" />
    <glyph glyph-name="uni277C" unicode="&#x277c;" horiz-adv-x="1946" 
d="M974 -65q-170 0 -320 61t-256.5 167t-168 255t-61.5 319q0 171 61.5 320.5t168 255.5t256.5 167t320 61t320 -61t256.5 -167t168 -255.5t61.5 -320.5q0 -170 -61.5 -319t-168 -255t-256.5 -167t-320 -61zM867 295h71q3 260 75.5 451t255.5 417v58h-600v-61h524
q-181 -226 -251.5 -416.5t-74.5 -448.5z" />
    <glyph glyph-name="uni277D" unicode="&#x277d;" horiz-adv-x="1947" 
d="M974 -66q-170 0 -320 61t-256.5 167.5t-168 256t-61.5 319.5t61.5 319.5t168 255.5t256.5 167t320 61t320 -61t256.5 -167t168 -255.5t61.5 -319.5t-61.5 -319.5t-168 -256t-256.5 -167.5t-320 -61zM974 287q145 0 232 70.5t87 187.5q0 87 -53 145.5t-138 79.5
q74 21 117.5 80t43.5 133q0 110 -79.5 178.5t-209.5 68.5t-209.5 -68.5t-79.5 -178.5q0 -74 43.5 -133t117.5 -80q-85 -21 -138.5 -79.5t-53.5 -145.5q0 -117 87.5 -187.5t232.5 -70.5zM974 796q-102 0 -163 50t-61 133q0 89 61 142.5t163 53.5q101 0 162.5 -53.5
t61.5 -142.5q0 -83 -61.5 -133t-162.5 -50zM974 343q-115 0 -183.5 56.5t-68.5 149.5q0 90 70.5 141t181.5 51t181.5 -51t70.5 -141q0 -93 -68.5 -149.5t-183.5 -56.5z" />
    <glyph glyph-name="uni277E" unicode="&#x277e;" horiz-adv-x="1947" 
d="M974 -65q-170 0 -320 61t-256.5 167t-168 255t-61.5 319t61.5 319.5t168 255.5t256.5 167t320 61t320 -61t256.5 -167t168 -255.5t61.5 -319.5t-61.5 -319t-168 -255t-256.5 -167t-320 -61zM969 285q151 0 236.5 131.5t85.5 371.5q0 184 -42 269q-40 83 -109.5 128
t-164.5 45q-135 0 -216 -82t-81 -212q0 -129 80.5 -211.5t210.5 -82.5q91 0 158.5 43t97.5 109v-20q0 -201 -68 -315t-190 -114q-75 0 -133 37.5t-91 105.5l-52 -29q42 -85 113.5 -129.5t164.5 -44.5zM975 702q-103 0 -167 65.5t-64 169.5q0 105 63.5 169t167.5 64
q103 0 169 -70t66 -163q0 -96 -61.5 -165.5t-173.5 -69.5z" />
    <glyph glyph-name="uni2780" unicode="&#x2780;" horiz-adv-x="1947" 
d="M974 1540q170 0 320 -61t256.5 -167t168 -255.5t61.5 -319.5t-61.5 -319t-168 -255t-256.5 -167t-320 -61t-320 61t-256.5 167t-168 255t-61.5 319t61.5 319.5t168 255.5t256.5 167t320 61zM974 4q208 0 375.5 95t262.5 263t95 375q0 208 -95 376t-262.5 263t-375.5 95
q-156 0 -292 -56t-233 -153t-153 -233t-56 -292q0 -155 56 -291t153 -233t233 -153t292 -56zM1044 1221v-926h-66v839l-199 -180l-39 45l244 222h60z" />
    <glyph glyph-name="uni2781" unicode="&#x2781;" horiz-adv-x="1947" 
d="M974 1540q170 0 320 -61t256.5 -167t168 -255.5t61.5 -319.5t-61.5 -319t-168 -255t-256.5 -167t-320 -61t-320 61t-256.5 167t-168 255t-61.5 319t61.5 319.5t168 255.5t256.5 167t320 61zM974 4q208 0 375.5 95t262.5 263t95 375q0 208 -95 376t-262.5 263t-375.5 95
q-156 0 -292 -56t-233 -153t-153 -233t-56 -292q0 -155 56 -291t153 -233t233 -153t292 -56zM1053 651l-284 -297h499v-59h-596v54l327 342q90 93 130.5 159t40.5 139q0 80 -54.5 130t-144.5 50q-91 0 -151 -52.5t-78 -147.5l-63 13q23 120 101 184t193 64
q119 0 192.5 -66.5t73.5 -174.5q0 -83 -45.5 -161.5t-140.5 -176.5z" />
    <glyph glyph-name="uni2782" unicode="&#x2782;" horiz-adv-x="1947" 
d="M974 1540q170 0 320 -61t256.5 -167t168 -255.5t61.5 -319.5t-61.5 -319t-168 -255t-256.5 -167t-320 -61t-320 61t-256.5 167t-168 255t-61.5 319t61.5 319.5t168 255.5t256.5 167t320 61zM974 4q208 0 375.5 95t262.5 263t95 375q0 208 -95 376t-262.5 263t-375.5 95
q-156 0 -292 -56t-233 -153t-153 -233t-56 -292q0 -155 56 -291t153 -233t233 -153t292 -56zM1099 771q83 -24 131 -84.5t48 -139.5q0 -121 -78 -191t-212 -70q-121 0 -203 55.5t-113 155.5l59 24q25 -84 91 -129.5t164 -45.5q104 0 163.5 55t59.5 150q0 85 -61 136.5
t-157 51.5h-60v60h45q94 0 151.5 47t57.5 134t-54.5 138.5t-146.5 51.5q-90 0 -149.5 -45.5t-83.5 -129.5l-62 18q30 104 106 160.5t190 56.5q122 0 195 -67.5t73 -180.5q0 -72 -40 -128t-114 -83z" />
    <glyph glyph-name="uni2783" unicode="&#x2783;" horiz-adv-x="1947" 
d="M974 1540q170 0 320 -61t256.5 -167t168 -255.5t61.5 -319.5t-61.5 -319t-168 -255t-256.5 -167t-320 -61t-320 61t-256.5 167t-168 255t-61.5 319t61.5 319.5t168 255.5t256.5 167t320 61zM974 4q208 0 375.5 95t262.5 263t95 375q0 208 -95 376t-262.5 263t-375.5 95
q-156 0 -292 -56t-233 -153t-153 -233t-56 -292q0 -155 56 -291t153 -233t233 -153t292 -56zM1137 1221v-653h140v-59h-140v-214h-67v214h-472v55l465 657h74zM669 568h401v573z" />
    <glyph glyph-name="uni2784" unicode="&#x2784;" horiz-adv-x="1947" 
d="M974 1540q170 0 320 -61t256.5 -167t168 -255.5t61.5 -319.5t-61.5 -319t-168 -255t-256.5 -167t-320 -61t-320 61t-256.5 167t-168 255t-61.5 319t61.5 319.5t168 255.5t256.5 167t320 61zM974 4q208 0 375.5 95t262.5 263t95 375q0 208 -95 376t-262.5 263t-375.5 95
q-156 0 -292 -56t-233 -153t-153 -233t-56 -292q0 -155 56 -291t153 -233t233 -153t292 -56zM984 891q129 0 207.5 -83t78.5 -217q0 -136 -83 -221t-222 -85q-105 0 -189 50.5t-119 137.5l59 31q28 -72 95.5 -115t153.5 -43q107 0 171.5 68t64.5 177t-62 176t-165 67
q-147 0 -221 -110h-62l59 497h476v-60h-423l-42 -365q88 95 223 95z" />
    <glyph glyph-name="uni2785" unicode="&#x2785;" horiz-adv-x="1947" 
d="M974 1540q170 0 320 -61t256.5 -167t168 -255.5t61.5 -319.5t-61.5 -319t-168 -255t-256.5 -167t-320 -61t-320 61t-256.5 167t-168 255t-61.5 319t61.5 319.5t168 255.5t256.5 167t320 61zM974 4q208 0 375.5 95t262.5 263t95 375q0 208 -95 376t-262.5 263t-375.5 95
q-156 0 -292 -56t-233 -153t-153 -233t-56 -292q0 -155 56 -291t153 -233t233 -153t292 -56zM981 883q130 0 209.5 -82t79.5 -216t-81 -216.5t-214 -82.5q-99 0 -173 52.5t-111 141.5q-34 82 -34 250q0 242 87.5 371t249.5 129q183 0 264 -159l-53 -35q-63 134 -209 134
q-74 0 -128.5 -35t-84.5 -96t-44.5 -134.5t-14.5 -159.5v-33q31 77 98 124t159 47zM974 345q104 0 166.5 66t62.5 174t-62.5 174t-166.5 66q-111 0 -173.5 -72t-62.5 -168q0 -94 67 -167t169 -73z" />
    <glyph glyph-name="uni2786" unicode="&#x2786;" horiz-adv-x="1947" 
d="M974 1540q170 0 320 -61t256.5 -167t168 -255.5t61.5 -319.5t-61.5 -319t-168 -255t-256.5 -167t-320 -61t-320 61t-256.5 167t-168 255t-61.5 319t61.5 319.5t168 255.5t256.5 167t320 61zM974 4q208 0 375.5 95t262.5 263t95 375q0 208 -95 376t-262.5 263t-375.5 95
q-156 0 -292 -56t-233 -153t-153 -233t-56 -292q0 -155 56 -291t153 -233t233 -153t292 -56zM668 1161v60h601v-57q-182 -227 -255 -418t-77 -451h-70q4 258 74.5 448.5t251.5 417.5h-525z" />
    <glyph glyph-name="uni2787" unicode="&#x2787;" horiz-adv-x="1947" 
d="M974 -65q-170 0 -320 61t-256.5 167t-168 255t-61.5 319t61.5 319.5t168 255.5t256.5 167t320 61t320 -61t256.5 -167t168 -255.5t61.5 -319.5t-61.5 -319t-168 -255t-256.5 -167t-320 -61zM974 4q208 0 375.5 95t262.5 263t95 375q0 208 -95 376t-262.5 263t-375.5 95
q-156 0 -292 -56t-233 -153t-153 -233t-56 -292q0 -155 56 -291t153 -233t233 -153t292 -56zM974 286q-145 0 -232.5 70.5t-87.5 187.5q0 89 57 147t156 78q-89 22 -135.5 79.5t-46.5 133.5q0 110 79.5 179t209.5 69t209.5 -69t79.5 -179q0 -75 -47.5 -133t-135.5 -80
q99 -20 155.5 -77.5t56.5 -147.5q0 -117 -86.5 -187.5t-231.5 -70.5zM974 795q101 0 162 50.5t61 133.5q0 89 -61 142.5t-162 53.5t-162 -53.5t-61 -142.5q0 -83 61 -133.5t162 -50.5zM974 342q115 0 183.5 56.5t68.5 149.5q0 90 -70.5 141.5t-181.5 51.5t-181.5 -51.5
t-70.5 -141.5q0 -93 68.5 -149.5t183.5 -56.5z" />
    <glyph glyph-name="uni2788" unicode="&#x2788;" horiz-adv-x="1947" 
d="M974 1540q170 0 320 -61t256.5 -167t168 -255.5t61.5 -319.5t-61.5 -319t-168 -255t-256.5 -167t-320 -61t-320 61t-256.5 167t-168 255t-61.5 319t61.5 319.5t168 255.5t256.5 167t320 61zM974 4q208 0 375.5 95t262.5 263t95 375q0 208 -95 376t-262.5 263t-375.5 95
q-156 0 -292 -56t-233 -153t-153 -233t-56 -292q0 -155 56 -291t153 -233t233 -153t292 -56zM974 1231q188 0 275 -174q41 -81 41 -269q0 -241 -84.5 -372.5t-236.5 -131.5q-93 0 -164.5 45t-113.5 129l51 35q34 -72 92.5 -110.5t133.5 -38.5q122 0 189.5 114.5t67.5 315.5
v35q-30 -75 -96.5 -120t-158.5 -45q-131 0 -211 82t-80 211q0 130 80 212t215 82zM976 701q111 0 172.5 70.5t61.5 166.5q0 93 -66 163.5t-168 70.5q-104 0 -167.5 -64.5t-63.5 -169.5t63.5 -171t167.5 -66z" />
    <glyph glyph-name="uni278A" unicode="&#x278a;" horiz-adv-x="1947" 
d="M974 -65q-170 0 -320 61t-256.5 167t-168 255t-61.5 319t61.5 319.5t168 255.5t256.5 167t320 61t320 -61t256.5 -167t168 -255.5t61.5 -319.5t-61.5 -319t-168 -255t-256.5 -167t-320 -61zM978 295h66v926h-60l-244 -222l39 -45l199 181v-840z" />
    <glyph glyph-name="uni278B" unicode="&#x278b;" horiz-adv-x="1947" 
d="M974 -65q-170 0 -320 61t-256.5 167t-168 255t-61.5 319t61.5 319.5t168 255.5t256.5 167t320 61t320 -61t256.5 -167t168 -255.5t61.5 -319.5t-61.5 -319t-168 -255t-256.5 -167t-320 -61zM672 295h596v59h-499l284 297q95 99 140.5 177t45.5 161q0 109 -73.5 175
t-192.5 66q-114 0 -189 -63.5t-104 -184.5l62 -13q52 200 229 200q90 0 144.5 -50t54.5 -130q0 -73 -40 -138t-131 -160l-327 -342v-54z" />
    <glyph glyph-name="uni278C" unicode="&#x278c;" horiz-adv-x="1947" 
d="M974 -66q-170 0 -320 61t-256.5 167.5t-168 256t-61.5 319.5t61.5 319.5t168 255.5t256.5 167t320 61t320 -61t256.5 -167t168 -255.5t61.5 -319.5t-61.5 -319.5t-168 -256t-256.5 -167.5t-320 -61zM988 287q134 0 212 70t78 190q0 79 -46 140t-118 85q64 27 101.5 83.5
t37.5 127.5q0 112 -73 179.5t-195 67.5q-114 0 -190 -56.5t-106 -160.5l62 -17q24 83 83.5 128.5t149.5 45.5q92 0 146.5 -51.5t54.5 -138.5q0 -86 -57.5 -133t-151.5 -47h-45v-61h60q96 0 157 -51.5t61 -136.5q0 -94 -60 -149t-163 -55q-98 0 -164 44.5t-92 126.5l-59 -21
q32 -100 114 -155t203 -55z" />
    <glyph glyph-name="uni278D" unicode="&#x278d;" horiz-adv-x="1947" 
d="M974 -65q-170 0 -320 61t-256.5 167t-168 255t-61.5 319t61.5 319.5t168 255.5t256.5 167t320 61t320 -61t256.5 -167t168 -255.5t61.5 -319.5t-61.5 -319t-168 -255t-256.5 -167t-320 -61zM1070 295h67v214h140v59h-140v653h-74l-465 -657v-55h472v-214zM675 568
l395 566v-566h-395z" />
    <glyph glyph-name="uni278E" unicode="&#x278e;" horiz-adv-x="1947" 
d="M974 -65q-170 0 -320 61t-256.5 167t-168 255t-61.5 319t61.5 319.5t168 255.5t256.5 167t320 61t320 -61t256.5 -167t168 -255.5t61.5 -319.5t-61.5 -319t-168 -255t-256.5 -167t-320 -61zM964 286q138 0 221.5 84.5t83.5 219.5q0 136 -78.5 219.5t-207.5 83.5
q-131 0 -223 -88l42 355h423v60h-476l-59 -495h62q73 108 221 108q103 0 165 -66.5t62 -175.5t-64 -177t-172 -68q-86 0 -154 42.5t-95 112.5l-59 -28q35 -87 119 -137t189 -50z" />
    <glyph glyph-name="uni278F" unicode="&#x278f;" horiz-adv-x="1947" 
d="M974 -65q-170 0 -320 61t-256.5 167t-168 255t-61.5 319t61.5 319.5t168 255.5t256.5 167t320 61t320 -61t256.5 -167t168 -255.5t61.5 -319.5t-61.5 -319t-168 -255t-256.5 -167t-320 -61zM974 287q133 0 214 82.5t81 216.5t-80 217t-209 83q-93 0 -160.5 -42.5
t-97.5 -109.5v12q0 86 14.5 159t45 134t85 95.5t128.5 34.5q145 0 209 -127l53 30q-81 158 -265 158q-162 0 -249 -128.5t-87 -371.5q0 -167 34 -249q36 -89 110.5 -141.5t173.5 -52.5zM973 346q-102 0 -169 73t-67 166q0 97 62 168.5t174 71.5q103 0 166 -66t63 -174
q0 -107 -63 -173t-166 -66z" />
    <glyph glyph-name="uni2790" unicode="&#x2790;" horiz-adv-x="1947" 
d="M974 -65q-170 0 -320 61t-256.5 167t-168 255t-61.5 319q0 171 61.5 320.5t168 255.5t256.5 167t320 61t320 -61t256.5 -167t168 -255.5t61.5 -320.5q0 -170 -61.5 -319t-168 -255t-256.5 -167t-320 -61zM867 295h71q3 260 75.5 451t255.5 417v58h-600v-61h524
q-181 -226 -251.5 -416.5t-74.5 -448.5z" />
    <glyph glyph-name="uni2791" unicode="&#x2791;" horiz-adv-x="1947" 
d="M974 -66q-170 0 -320 61t-256.5 167.5t-168 256t-61.5 319.5t61.5 319.5t168 255.5t256.5 167t320 61t320 -61t256.5 -167t168 -255.5t61.5 -319.5t-61.5 -319.5t-168 -256t-256.5 -167.5t-320 -61zM974 287q145 0 232 70.5t87 187.5q0 87 -53 145.5t-138 79.5
q74 21 117.5 80t43.5 133q0 110 -79.5 178.5t-209.5 68.5t-209.5 -68.5t-79.5 -178.5q0 -74 43.5 -133t117.5 -80q-85 -21 -138.5 -79.5t-53.5 -145.5q0 -117 87.5 -187.5t232.5 -70.5zM974 796q-102 0 -163 50t-61 133q0 89 61 142.5t163 53.5q101 0 162.5 -53.5
t61.5 -142.5q0 -83 -61.5 -133t-162.5 -50zM974 343q-115 0 -183.5 56.5t-68.5 149.5q0 90 70.5 141t181.5 51t181.5 -51t70.5 -141q0 -93 -68.5 -149.5t-183.5 -56.5z" />
    <glyph glyph-name="uni2792" unicode="&#x2792;" horiz-adv-x="1947" 
d="M974 -65q-170 0 -320 61t-256.5 167t-168 255t-61.5 319t61.5 319.5t168 255.5t256.5 167t320 61t320 -61t256.5 -167t168 -255.5t61.5 -319.5t-61.5 -319t-168 -255t-256.5 -167t-320 -61zM969 285q151 0 236.5 131.5t85.5 371.5q0 184 -42 269q-40 83 -109.5 128
t-164.5 45q-135 0 -216 -82t-81 -212q0 -129 80.5 -211.5t210.5 -82.5q91 0 158.5 43t97.5 109v-20q0 -201 -68 -315t-190 -114q-75 0 -133 37.5t-91 105.5l-52 -29q42 -85 113.5 -129.5t164.5 -44.5zM975 702q-103 0 -167 65.5t-64 169.5q0 105 63.5 169t167.5 64
q103 0 169 -70t66 -163q0 -96 -61.5 -165.5t-173.5 -69.5z" />
    <glyph glyph-name="uniFEFF" unicode="&#xfeff;" horiz-adv-x="0" 
 />
    <glyph glyph-name="Cacute.loclPLK" horiz-adv-x="1458" 
d="M705 1593l129 276h80l-142 -276h-67zM790 -15q-298 0 -477 207t-179 549q0 339 177.5 544t475.5 205q182 0 320 -84t223 -250l-66 -32q-74 145 -196 219.5t-281 74.5q-260 0 -417.5 -185.5t-157.5 -491.5q0 -310 159.5 -497t420.5 -187q169 0 285.5 78t186.5 238l67 -29
q-84 -185 -216 -272t-325 -87z" />
    <glyph glyph-name="Nacute.loclPLK" horiz-adv-x="1489" 
d="M882 1869l-144 -276h-67l130 276h81zM1198 1475h78v-1475h-101l-881 1369v-1369h-78v1475h97l885 -1372v1372z" />
    <glyph glyph-name="Oacute.loclPLK" horiz-adv-x="1583" 
d="M708 1592l129 276h81l-143 -276h-67zM792 -16q-299 0 -478.5 207t-179.5 549q0 339 179.5 545t478.5 206q198 0 347.5 -93.5t229.5 -263.5t80 -394q0 -342 -178.5 -549t-478.5 -207zM792 57q261 0 420 186t159 497q0 308 -159 492.5t-420 184.5t-420 -184.5t-159 -492.5
q0 -311 159 -497t420 -186z" />
    <glyph glyph-name="Sacute.loclPLK" horiz-adv-x="1327" 
d="M584 1593l130 276h80l-143 -276h-67zM682 -15q-201 0 -348.5 83.5t-209.5 231.5l70 33q52 -130 180.5 -203.5t307.5 -73.5q198 0 315 88.5t117 239.5q0 58 -17.5 105.5t-52.5 81.5t-74.5 59t-98.5 43.5t-107.5 30t-116.5 23.5q-58 10 -101 20t-95.5 26.5t-90 35.5
t-75.5 48t-62 64.5t-38.5 83.5t-14.5 106q0 169 136.5 273.5t360.5 104.5q178 0 316.5 -75.5t202.5 -207.5l-70 -31q-53 112 -173.5 177t-275.5 65q-188 0 -303.5 -84.5t-115.5 -220.5q0 -46 12.5 -84.5t33 -66.5t54 -52t66.5 -39.5t80.5 -30t86.5 -23t92 -18.5
q63 -11 108.5 -21t103.5 -28t98.5 -38t82.5 -51.5t67.5 -69.5t42 -90t16.5 -115q0 -183 -138 -291.5t-372 -108.5z" />
    <glyph glyph-name="Zacute.loclPLK" horiz-adv-x="1306" 
d="M561 1593l129 276h81l-142 -276h-68zM125 0v67l939 1336h-918v72h1015v-67l-939 -1336h960v-72h-1057z" />
    <glyph glyph-name="G.ss01" horiz-adv-x="1502" 
d="M794 -15q-296 0 -478 207t-182 546q0 338 181.5 545t476.5 207q168 0 304.5 -73.5t222.5 -211.5l-63 -37q-74 122 -193 185.5t-272 63.5q-259 0 -419 -186.5t-160 -490.5q0 -308 160.5 -495.5t423.5 -187.5q228 0 362 146t134 404v49h-470v72h547v-98q0 -307 -153.5 -476
t-421.5 -169z" />
    <glyph glyph-name="uni01F4.ss01" horiz-adv-x="1502" 
d="M705 1593l175 276h83l-189 -276h-69zM794 -15q-296 0 -478 207t-182 546q0 338 181.5 545t476.5 207q168 0 304.5 -73.5t222.5 -211.5l-63 -37q-74 122 -193 185.5t-272 63.5q-259 0 -419 -186.5t-160 -490.5q0 -308 160.5 -495.5t423.5 -187.5q228 0 362 146t134 404v49
h-470v72h547v-98q0 -307 -153.5 -476t-421.5 -169z" />
    <glyph glyph-name="Gbreve.ss01" horiz-adv-x="1502" 
d="M792 1586q-110 0 -182.5 72t-86.5 201h63q15 -104 70 -161t136 -57q80 0 135 57t70 161h63q-14 -129 -86 -201t-182 -72zM794 -15q-296 0 -478 207t-182 546q0 338 181.5 545t476.5 207q168 0 304.5 -73.5t222.5 -211.5l-63 -37q-74 122 -193 185.5t-272 63.5
q-259 0 -419 -186.5t-160 -490.5q0 -308 160.5 -495.5t423.5 -187.5q228 0 362 146t134 404v49h-470v72h547v-98q0 -307 -153.5 -476t-421.5 -169z" />
    <glyph glyph-name="Gcircumflex.ss01" horiz-adv-x="1502" 
d="M792 1802l-192 -209h-77l232 266h73l231 -266h-77zM822 728h547v-98q0 -307 -153.5 -476t-421.5 -169q-296 0 -478 207t-182 546q0 338 181.5 545t476.5 207q168 0 304.5 -73.5t222.5 -211.5l-63 -37q-74 122 -193 185.5t-272 63.5q-259 0 -419 -186.5t-160 -490.5
q0 -308 160.5 -495.5t423.5 -187.5q228 0 362 146t134 404v49h-470v72z" />
    <glyph glyph-name="uni0122.ss01" horiz-adv-x="1502" 
d="M822 728h547v-98q0 -307 -153.5 -476t-421.5 -169q-296 0 -478 207t-182 546q0 338 181.5 545t476.5 207q168 0 304.5 -73.5t222.5 -211.5l-63 -37q-74 122 -193 185.5t-272 63.5q-259 0 -419 -186.5t-160 -490.5q0 -308 160.5 -495.5t423.5 -187.5q228 0 362 146
t134 404v49h-470v72zM745 -229v142h98v-146q0 -65 -23.5 -102.5t-78.5 -71.5l-26 37q45 28 61.5 56.5t17.5 84.5h-49z" />
    <glyph glyph-name="Gdotaccent.ss01" horiz-adv-x="1502" 
d="M752 1636v168h79v-168h-79zM794 -15q-296 0 -478 207t-182 546q0 338 181.5 545t476.5 207q168 0 304.5 -73.5t222.5 -211.5l-63 -37q-74 122 -193 185.5t-272 63.5q-259 0 -419 -186.5t-160 -490.5q0 -308 160.5 -495.5t423.5 -187.5q228 0 362 146t134 404v49h-470v72
h547v-98q0 -307 -153.5 -476t-421.5 -169z" />
    <glyph glyph-name="j.calt" horiz-adv-x="459" 
d="M188 1307v168h81v-168h-81zM65 -370q-55 0 -106 19l16 63q49 -14 84 -14q134 0 134 197v1154h71v-1175q0 -117 -51.5 -180.5t-147.5 -63.5z" />
    <glyph glyph-name="uni0237.calt" horiz-adv-x="457" 
d="M65 -370q-55 0 -106 19l16 63q49 -14 84 -14q134 0 134 197v1154h71v-1175q0 -117 -51.5 -180.5t-147.5 -63.5z" />
    <glyph glyph-name="jcircumflex.calt" horiz-adv-x="457" 
d="M265 1500l232 -264h-77l-191 208l-191 -208h-77l232 264h72zM193 -105v1154h71v-1175q0 -117 -51.5 -180.5t-147.5 -63.5q-55 0 -106 19l16 63q49 -14 84 -14q134 0 134 197z" />
    <glyph glyph-name="i.latn_TRK" horiz-adv-x="457" 
d="M190 1307v168h81v-168h-81zM195 0v1049h71v-1049h-71z" />
    <glyph glyph-name="cacute.loclPLK" horiz-adv-x="1069" 
d="M503 1238l129 275h81l-143 -275h-67zM590 -14q-218 0 -347 146t-129 391t129.5 391.5t344.5 146.5q124 0 223 -54.5t158 -161.5l-64 -36q-51 89 -131.5 135.5t-182.5 46.5q-183 0 -293 -127t-110 -341t110 -341t293 -127q214 0 312 198l67 -34q-116 -233 -380 -233z" />
    <glyph glyph-name="nacute.loclPLK" horiz-adv-x="1179" 
d="M715 1513l-143 -275h-67l129 275h81zM643 1063q163 0 258.5 -90.5t95.5 -249.5v-723h-71v709q0 135 -79 210.5t-216 75.5q-87 0 -158.5 -31t-115.5 -80.5t-68 -108.5t-24 -118v-657h-71v1049h71v-185q50 86 146 142.5t232 56.5z" />
    <glyph glyph-name="oacute.loclPLK" horiz-adv-x="1176" 
d="M504 1238l129 275h81l-143 -275h-67zM588 -14q-215 0 -344.5 146.5t-129.5 391.5t129.5 392t344.5 147t345 -147t130 -392t-129.5 -391.5t-345.5 -146.5zM588 54q181 0 290.5 128.5t109.5 341.5t-109.5 341t-290.5 128t-290.5 -128t-109.5 -341t109.5 -341.5
t290.5 -128.5z" />
    <glyph glyph-name="sacute.loclPLK" horiz-adv-x="996" 
d="M423 1238l129 275h81l-143 -275h-67zM515 -14q-155 0 -264.5 61.5t-155.5 166.5l65 34q40 -90 135 -141.5t221 -51.5q134 0 215.5 60t81.5 161q0 99 -77.5 148t-243.5 74q-172 27 -263.5 97t-91.5 196t98.5 199t257.5 73q255 0 370 -199l-65 -35q-90 164 -305 164
q-125 0 -203.5 -53.5t-78.5 -146.5q0 -92 75.5 -146.5t228.5 -78.5q93 -15 155 -34t114.5 -51t78 -82.5t25.5 -122.5q0 -134 -101.5 -213t-271.5 -79z" />
    <glyph glyph-name="zacute.loclPLK" horiz-adv-x="1012" 
d="M423 1238l130 275h80l-143 -275h-67zM116 0v61l668 920h-645v68h739v-63l-669 -919h688v-67h-781z" />
    <glyph glyph-name="germandbls.sc" horiz-adv-x="1186" 
d="M688 671q169 -2 269 -92t100 -249q0 -154 -95.5 -247.5t-253.5 -93.5q-94 0 -177 23l17 66q81 -22 154 -22q126 0 202.5 75t76.5 200q0 129 -80.5 202t-227.5 73q-14 0 -30 -4l-45 58l316 398h-388q-133 0 -201.5 -75.5t-68.5 -216.5v-766h-74v774q0 166 88 258.5
t249 92.5h486v-60z" />
    <glyph glyph-name="a.ss02" horiz-adv-x="1242" 
d="M977 1049h72v-1049h-72v229q-50 -106 -154.5 -174.5t-252.5 -68.5q-200 0 -328 148.5t-128 389.5t128 390t328 149q146 0 250 -68.5t157 -177.5v232zM584 55q176 0 286 129t110 340t-110 340t-286 129q-174 0 -285 -126t-111 -343t111 -343t285 -126z" />
    <glyph glyph-name="aacute.ss02" horiz-adv-x="1242" 
d="M774 1513l-189 -275h-70l176 275h83zM977 1049h72v-1049h-72v229q-50 -106 -154.5 -174.5t-252.5 -68.5q-200 0 -328 148.5t-128 389.5t128 390t328 149q146 0 250 -68.5t157 -177.5v232zM584 55q176 0 286 129t110 340t-110 340t-286 129q-174 0 -285 -126t-111 -343
t111 -343t285 -126z" />
    <glyph glyph-name="abreve.ss02" horiz-adv-x="1242" 
d="M598 1228q-110 0 -182 71.5t-86 200.5h62q15 -103 70 -160t136 -57q80 0 135.5 57t70.5 160h61q-14 -129 -85.5 -200.5t-181.5 -71.5zM977 1049h72v-1049h-72v229q-50 -106 -154.5 -174.5t-252.5 -68.5q-200 0 -328 148.5t-128 389.5t128 390t328 149q146 0 250 -68.5
t157 -177.5v232zM584 55q176 0 286 129t110 340t-110 340t-286 129q-174 0 -285 -126t-111 -343t111 -343t285 -126z" />
    <glyph glyph-name="acircumflex.ss02" horiz-adv-x="1242" 
d="M598 1444l-191 -208h-77l231 264h74l230 -264h-77zM977 1049h72v-1049h-72v229q-50 -106 -154.5 -174.5t-252.5 -68.5q-200 0 -328 148.5t-128 389.5t128 390t328 149q146 0 250 -68.5t157 -177.5v232zM584 55q176 0 286 129t110 340t-110 340t-286 129q-174 0 -285 -126
t-111 -343t111 -343t285 -126z" />
    <glyph glyph-name="adieresis.ss02" horiz-adv-x="1242" 
d="M465 1475v-164h-80v164h80zM810 1475v-164h-80v164h80zM977 1049h72v-1049h-72v229q-50 -106 -154.5 -174.5t-252.5 -68.5q-200 0 -328 148.5t-128 389.5t128 390t328 149q146 0 250 -68.5t157 -177.5v232zM584 55q176 0 286 129t110 340t-110 340t-286 129
q-174 0 -285 -126t-111 -343t111 -343t285 -126z" />
    <glyph glyph-name="agrave.ss02" horiz-adv-x="1242" 
d="M702 1238h-69l-190 275h83zM977 1049h72v-1049h-72v229q-50 -106 -154.5 -174.5t-252.5 -68.5q-200 0 -328 148.5t-128 389.5t128 390t328 149q146 0 250 -68.5t157 -177.5v232zM584 55q176 0 286 129t110 340t-110 340t-286 129q-174 0 -285 -126t-111 -343t111 -343
t285 -126z" />
    <glyph glyph-name="amacron.ss02" horiz-adv-x="1242" 
d="M861 1359v-63h-528v63h528zM977 1049h72v-1049h-72v229q-50 -106 -154.5 -174.5t-252.5 -68.5q-200 0 -328 148.5t-128 389.5t128 390t328 149q146 0 250 -68.5t157 -177.5v232zM584 55q176 0 286 129t110 340t-110 340t-286 129q-174 0 -285 -126t-111 -343t111 -343
t285 -126z" />
    <glyph glyph-name="aogonek.ss02" horiz-adv-x="1242" 
d="M1037 -311l33 -47q-65 -56 -141 -56q-85 0 -138 47.5t-53 123.5q0 66 57.5 127.5t181.5 126.5v218q-50 -106 -154.5 -174.5t-252.5 -68.5q-200 0 -328 148.5t-128 389.5t128 390t328 149q146 0 250 -68.5t157 -177.5v232h72v-1049h-18q-229 -123 -229 -236
q0 -53 35.5 -86t91.5 -33q61 0 108 44zM584 55q176 0 286 129t110 340t-110 340t-286 129q-174 0 -285 -126t-111 -343t111 -343t285 -126z" />
    <glyph glyph-name="aring.ss02" horiz-adv-x="1242" 
d="M598 1217q-82 0 -136 53.5t-54 136.5t54 136.5t136 53.5t136 -53.5t54 -136.5t-54 -136.5t-136 -53.5zM598 1543q-59 0 -96.5 -38t-37.5 -98t37.5 -98t96.5 -38t96.5 38t37.5 98t-37.5 98t-96.5 38zM977 1049h72v-1049h-72v229q-50 -106 -154.5 -174.5t-252.5 -68.5
q-200 0 -328 148.5t-128 389.5t128 390t328 149q146 0 250 -68.5t157 -177.5v232zM584 55q176 0 286 129t110 340t-110 340t-286 129q-174 0 -285 -126t-111 -343t111 -343t285 -126z" />
    <glyph glyph-name="aringacute.ss02" horiz-adv-x="1242" 
d="M767 1944l-188 -276h-70l175 276h83zM591 1217q-83 0 -137 54t-54 136t54 136t137 54t136.5 -53.5t53.5 -136.5t-53.5 -136.5t-136.5 -53.5zM591 1543q-59 0 -96.5 -38t-37.5 -98t37.5 -98t96.5 -38t96.5 38t37.5 98t-37.5 98t-96.5 38zM977 1049h72v-1049h-72v229
q-50 -106 -154.5 -174.5t-252.5 -68.5q-200 0 -328 148.5t-128 389.5t128 390t328 149q146 0 250 -68.5t157 -177.5v232zM584 55q176 0 286 129t110 340t-110 340t-286 129q-174 0 -285 -126t-111 -343t111 -343t285 -126z" />
    <glyph glyph-name="atilde.ss02" horiz-adv-x="1242" 
d="M458 1383q-82 0 -145 -107l-50 36q82 136 195 136q63 0 152 -58q78 -52 128 -52q78 0 141 108l50 -36q-82 -136 -191 -136q-64 0 -154 59q-76 50 -126 50zM977 1049h72v-1049h-72v229q-50 -106 -154.5 -174.5t-252.5 -68.5q-200 0 -328 148.5t-128 389.5t128 390t328 149
q146 0 250 -68.5t157 -177.5v232zM584 55q176 0 286 129t110 340t-110 340t-286 129q-174 0 -285 -126t-111 -343t111 -343t285 -126z" />
    <glyph glyph-name="germandbls.ss03" horiz-adv-x="1115" 
d="M610 586q177 0 284.5 -107t107.5 -283q0 -214 -135.5 -361.5t-385.5 -207.5l-21 63q227 54 348 185.5t121 322.5q0 148 -89 237t-237 89q-30 0 -47 -7l-56 65l315 401h-551v-983h-71v1198q0 139 70 215t184 76q50 0 113 -18l-20 -63q-48 12 -93 12q-183 0 -183 -248v-123
h640v-60l-319 -404q8 1 25 1z" />
    <glyph glyph-name="a.sc" horiz-adv-x="1152" 
d="M1007 0l-144 345h-575l-144 -345h-79l472 1125h79l471 -1125h-80zM316 413h519l-260 622z" />
    <glyph glyph-name="aacute.sc" horiz-adv-x="1152" 
d="M741 1513l-189 -275h-70l176 275h83zM1007 0l-144 345h-575l-144 -345h-79l472 1125h79l471 -1125h-80zM316 413h519l-260 622z" />
    <glyph glyph-name="abreve.sc" horiz-adv-x="1152" 
d="M578 1228q-111 0 -183 71.5t-86 200.5h63q15 -104 70 -160.5t136 -56.5q80 0 134.5 56.5t70.5 160.5h63q-15 -129 -86.5 -200.5t-181.5 -71.5zM1007 0l-144 345h-575l-144 -345h-79l472 1125h79l471 -1125h-80zM316 413h519l-260 622z" />
    <glyph glyph-name="acircumflex.sc" horiz-adv-x="1152" 
d="M578 1444l-192 -208h-77l232 264h73l231 -264h-77zM1007 0l-144 345h-575l-144 -345h-79l472 1125h79l471 -1125h-80zM316 413h519l-260 622z" />
    <glyph glyph-name="adieresis.sc" horiz-adv-x="1152" 
d="M444 1475v-164h-79v164h79zM790 1475v-164h-80v164h80zM1007 0l-144 345h-575l-144 -345h-79l472 1125h79l471 -1125h-80zM316 413h519l-260 622z" />
    <glyph glyph-name="agrave.sc" horiz-adv-x="1152" 
d="M672 1238h-70l-188 275h83zM1007 0l-144 345h-575l-144 -345h-79l472 1125h79l471 -1125h-80zM316 413h519l-260 622z" />
    <glyph glyph-name="amacron.sc" horiz-adv-x="1152" 
d="M842 1403v-63h-530v63h530zM1007 0l-144 345h-575l-144 -345h-79l472 1125h79l471 -1125h-80zM316 413h519l-260 622z" />
    <glyph glyph-name="aogonek.sc" horiz-adv-x="1152" 
d="M1078 -311l33 -47q-67 -56 -141 -56q-85 0 -138.5 47.5t-53.5 123.5q0 65 54.5 124.5t172.5 123.5l-142 340h-575l-144 -345h-79l472 1125h79l471 -1125h-16q-228 -122 -228 -236q0 -53 35 -86t91 -33q60 0 109 44zM316 413h519l-260 622z" />
    <glyph glyph-name="aring.sc" horiz-adv-x="1152" 
d="M578 1217q-83 0 -137 54t-54 136t54 136t137 54q82 0 136 -53.5t54 -136.5t-54 -136.5t-136 -53.5zM578 1543q-59 0 -97 -38t-38 -98t38 -98t97 -38t96.5 38t37.5 98t-37.5 98t-96.5 38zM1007 0l-144 345h-575l-144 -345h-79l472 1125h79l471 -1125h-80zM316 413h519
l-260 622z" />
    <glyph glyph-name="aringacute.sc" horiz-adv-x="1153" 
d="M746 1741l-188 -277h-70l176 277h82zM1008 0l-145 345h-575l-145 -345h-78l459 1095q-50 14 -79.5 53.5t-29.5 93.5q0 65 46.5 109.5t115.5 44.5t115.5 -44.5t46.5 -109.5q0 -54 -30 -93.5t-80 -53.5l458 -1095h-79zM467 1242q0 -47 31 -77t79 -30q49 0 79.5 30t30.5 77
q0 46 -31 76t-79 30q-47 0 -78.5 -30t-31.5 -76zM315 413h521l-261 622z" />
    <glyph glyph-name="atilde.sc" horiz-adv-x="1152" 
d="M442 1383q-86 0 -149 -107l-49 36q81 136 202 136q66 0 143 -56q74 -54 128 -54q78 0 141 108l49 -35q-82 -137 -193 -137q-65 0 -150 58q-25 17 -40.5 26t-38 17t-43.5 8zM1007 0l-144 345h-575l-144 -345h-79l472 1125h79l471 -1125h-80zM316 413h519l-260 622z" />
    <glyph glyph-name="ae.sc" horiz-adv-x="1737" 
d="M941 68h674v-68h-748v346h-483l-234 -346h-88l765 1125h782v-67h-668v-454h615v-67h-615v-469zM430 414h437v644z" />
    <glyph glyph-name="aeacute.sc" horiz-adv-x="1737" 
d="M1357 1513l-189 -275h-69l175 275h83zM941 68h674v-68h-748v346h-483l-234 -346h-88l765 1125h782v-67h-668v-454h615v-67h-615v-469zM430 414h437v644z" />
    <glyph glyph-name="b.sc" horiz-adv-x="1167" 
d="M820 581q92 -26 152.5 -101t60.5 -179q0 -140 -88 -220.5t-244 -80.5h-505v1126h484q153 0 239 -77t86 -210q0 -88 -53 -158.5t-132 -99.5zM269 1058v-448h408q102 0 177 64t75 162q0 102 -68 162t-187 60h-405zM695 69q123 0 192.5 63t69.5 174q0 105 -76.5 171.5
t-184.5 66.5h-427v-475h426z" />
    <glyph glyph-name="c.sc" horiz-adv-x="1226" 
d="M656 -13q-242 0 -388 159t-146 419q0 259 145 416t387 157q149 0 262.5 -65.5t181.5 -192.5l-64 -32q-123 221 -379 221q-206 0 -331.5 -138t-125.5 -366q0 -230 126 -369t333 -139q135 0 227 58.5t149 178.5l66 -30q-134 -277 -443 -277z" />
    <glyph glyph-name="cacute.sc" horiz-adv-x="1207" 
d="M558 1238l175 275h83l-189 -275h-69zM656 -13q-242 0 -388 159t-146 419q0 259 145 416t387 157q149 0 262.5 -65.5t181.5 -192.5l-64 -32q-123 221 -379 221q-206 0 -331.5 -138t-125.5 -366q0 -230 126 -369t333 -139q135 0 227 58.5t149 178.5l66 -30
q-134 -277 -443 -277z" />
    <glyph glyph-name="ccaron.sc" horiz-adv-x="1207" 
d="M687 1236h-74l-231 264h77l191 -208l191 208h77zM1033 294l66 -30q-134 -277 -443 -277q-242 0 -388 159t-146 419q0 259 145 416t387 157q149 0 262.5 -65.5t181.5 -192.5l-64 -32q-123 221 -379 221q-206 0 -331.5 -138t-125.5 -366q0 -230 126 -369t333 -139
q135 0 227 58.5t149 178.5z" />
    <glyph glyph-name="ccedilla.sc" horiz-adv-x="1207" 
d="M1099 264q-128 -264 -411 -276l-95 -280h-66l96 280q-228 11 -364.5 168.5t-136.5 408.5q0 259 145 416t387 157q149 0 262.5 -65.5t181.5 -192.5l-64 -32q-123 221 -379 221q-206 0 -331.5 -138t-125.5 -366q0 -230 126 -369t333 -139q135 0 227 58.5t149 178.5z" />
    <glyph glyph-name="ccircumflex.sc" horiz-adv-x="1207" 
d="M653 1444l-192 -208h-77l232 264h73l231 -264h-77zM1033 294l66 -30q-134 -277 -443 -277q-242 0 -388 159t-146 419q0 259 145 416t387 157q149 0 262.5 -65.5t181.5 -192.5l-64 -32q-123 221 -379 221q-206 0 -331.5 -138t-125.5 -366q0 -230 126 -369t333 -139
q135 0 227 58.5t149 178.5z" />
    <glyph glyph-name="cdotaccent.sc" horiz-adv-x="1207" 
d="M611 1307v168h82v-168h-82zM656 -13q-242 0 -388 159t-146 419q0 259 145 416t387 157q149 0 262.5 -65.5t181.5 -192.5l-64 -32q-123 221 -379 221q-206 0 -331.5 -138t-125.5 -366q0 -230 126 -369t333 -139q135 0 227 58.5t149 178.5l66 -30q-134 -277 -443 -277z" />
    <glyph glyph-name="d.sc" horiz-adv-x="1224" 
d="M577 1126q238 0 382 -153.5t144 -410.5q0 -256 -144 -409t-382 -153h-381v1126h381zM573 68q205 0 329.5 135t124.5 359q0 225 -124.5 360.5t-329.5 135.5h-304v-990h304z" />
    <glyph glyph-name="eth.sc" horiz-adv-x="1203" 
d="M556 1126q237 0 381.5 -154t144.5 -410t-144.5 -409t-381.5 -153h-382v530h-124v66h124v530h382zM551 68q206 0 330.5 134.5t124.5 359.5q0 226 -124.5 361t-330.5 135h-303v-462h373v-66h-373v-462h303z" />
    <glyph glyph-name="dcaron.sc" horiz-adv-x="1224" 
d="M594 1236h-73l-232 264h77l192 -208l190 208h76zM577 1126q238 0 382 -153.5t144 -410.5q0 -256 -144 -409t-382 -153h-381v1126h381zM573 68q205 0 329.5 135t124.5 359q0 225 -124.5 360.5t-329.5 135.5h-304v-990h304z" />
    <glyph glyph-name="dcroat.sc" horiz-adv-x="1203" 
d="M556 1126q237 0 381.5 -154t144.5 -410t-144.5 -409t-381.5 -153h-382v530h-124v66h124v530h382zM551 68q206 0 330.5 134.5t124.5 359.5q0 226 -124.5 361t-330.5 135h-303v-462h373v-66h-373v-462h303z" />
    <glyph glyph-name="e.sc" horiz-adv-x="1098" 
d="M269 68h707v-68h-780v1126h775v-68h-702v-455h646v-65h-646v-470z" />
    <glyph glyph-name="eacute.sc" horiz-adv-x="1098" 
d="M751 1513l-190 -275h-69l176 275h83zM269 68h707v-68h-780v1126h775v-68h-702v-455h646v-65h-646v-470z" />
    <glyph glyph-name="ebreve.sc" horiz-adv-x="1098" 
d="M587 1228q-111 0 -183 71.5t-86 200.5h63q16 -104 70.5 -160.5t135.5 -56.5q80 0 135 56.5t71 160.5h62q-14 -128 -86 -200t-182 -72zM269 68h707v-68h-780v1126h775v-68h-702v-455h646v-65h-646v-470z" />
    <glyph glyph-name="ecaron.sc" horiz-adv-x="1098" 
d="M622 1236h-74l-232 264h77l192 -208l190 208h77zM269 68h707v-68h-780v1126h775v-68h-702v-455h646v-65h-646v-470z" />
    <glyph glyph-name="ecircumflex.sc" horiz-adv-x="1098" 
d="M588 1444l-193 -208h-77l232 264h74l230 -264h-77zM269 68h707v-68h-780v1126h775v-68h-702v-455h646v-65h-646v-470z" />
    <glyph glyph-name="edieresis.sc" horiz-adv-x="1098" 
d="M455 1475v-164h-80v164h80zM800 1475v-164h-80v164h80zM269 68h707v-68h-780v1126h775v-68h-702v-455h646v-65h-646v-470z" />
    <glyph glyph-name="edotaccent.sc" horiz-adv-x="1098" 
d="M628 1475v-168h-82v168h82zM269 68h707v-68h-780v1126h775v-68h-702v-455h646v-65h-646v-470z" />
    <glyph glyph-name="egrave.sc" horiz-adv-x="1098" 
d="M681 1238h-69l-189 275h83zM269 68h707v-68h-780v1126h775v-68h-702v-455h646v-65h-646v-470z" />
    <glyph glyph-name="emacron.sc" horiz-adv-x="1098" 
d="M851 1403v-63h-529v63h529zM269 68h707v-68h-780v1126h775v-68h-702v-455h646v-65h-646v-470z" />
    <glyph glyph-name="eogonek.sc" horiz-adv-x="1098" 
d="M946 -311l33 -47q-65 -56 -141 -56q-85 0 -138 47.5t-53 123.5q0 63 52.5 122t164.5 121h-668v1126h775v-68h-702v-455h646v-65h-646v-470h707v-68h-36q-229 -123 -229 -236q0 -53 35.5 -86t91.5 -33q61 0 108 44z" />
    <glyph glyph-name="uni0259.sc" horiz-adv-x="1283" 
d="M622 1136q246 0 393 -157.5t147 -417.5t-145 -417t-379 -157q-230 0 -373 155t-143 405v25h964q-3 224 -127.5 359t-337.5 135q-129 0 -235 -53t-163 -158l-59 35q61 118 183 182t275 64zM639 56q188 0 310 122.5t135 331.5h-885q10 -207 131 -330.5t309 -123.5z" />
    <glyph glyph-name="f.sc" horiz-adv-x="1059" 
d="M961 1058h-692v-459h610v-68h-610v-531h-73v1126h765v-68z" />
    <glyph glyph-name="g.sc" horiz-adv-x="1253" 
d="M664 562h441v-562h-70v198q-43 -89 -145.5 -150t-235.5 -61q-242 0 -387 158.5t-145 419.5q0 259 146.5 416t390.5 157q136 0 247.5 -56t180.5 -162l-60 -41q-59 93 -153.5 141.5t-214.5 48.5q-206 0 -333 -138t-127 -366q0 -231 126.5 -369.5t332.5 -138.5
q170 0 273.5 104t103.5 256v79h-371v66z" />
    <glyph glyph-name="uni01F5.sc" horiz-adv-x="1246" 
d="M820 1513l-189 -275h-70l176 275h83zM664 562h441v-562h-70v198q-43 -89 -145.5 -150t-235.5 -61q-242 0 -387 158.5t-145 419.5q0 259 146.5 416t390.5 157q136 0 247.5 -56t180.5 -162l-60 -41q-59 93 -153.5 141.5t-214.5 48.5q-206 0 -333 -138t-127 -366
q0 -231 126.5 -369.5t332.5 -138.5q170 0 273.5 104t103.5 256v79h-371v66z" />
    <glyph glyph-name="gbreve.sc" horiz-adv-x="1246" 
d="M656 1228q-110 0 -182 71.5t-86 200.5h63q15 -104 69.5 -160.5t135.5 -56.5q80 0 135 56.5t71 160.5h63q-14 -128 -86.5 -200t-182.5 -72zM664 562h441v-562h-70v198q-43 -89 -145.5 -150t-235.5 -61q-242 0 -387 158.5t-145 419.5q0 259 146.5 416t390.5 157
q136 0 247.5 -56t180.5 -162l-60 -41q-59 93 -153.5 141.5t-214.5 48.5q-206 0 -333 -138t-127 -366q0 -231 126.5 -369.5t332.5 -138.5q170 0 273.5 104t103.5 256v79h-371v66z" />
    <glyph glyph-name="gcircumflex.sc" horiz-adv-x="1246" 
d="M656 1444l-191 -208h-77l232 264h73l231 -264h-77zM664 562h441v-562h-70v198q-43 -89 -145.5 -150t-235.5 -61q-242 0 -387 158.5t-145 419.5q0 259 146.5 416t390.5 157q136 0 247.5 -56t180.5 -162l-60 -41q-59 93 -153.5 141.5t-214.5 48.5q-206 0 -333 -138
t-127 -366q0 -231 126.5 -369.5t332.5 -138.5q170 0 273.5 104t103.5 256v79h-371v66z" />
    <glyph glyph-name="uni0123.sc" horiz-adv-x="1246" 
d="M664 562h441v-562h-70v198q-43 -89 -145.5 -150t-235.5 -61q-242 0 -387 158.5t-145 419.5q0 259 146.5 416t390.5 157q136 0 247.5 -56t180.5 -162l-60 -41q-59 93 -153.5 141.5t-214.5 48.5q-206 0 -333 -138t-127 -366q0 -231 126.5 -369.5t332.5 -138.5
q170 0 273.5 104t103.5 256v79h-371v66zM605 -229v142h97v-146q0 -66 -22.5 -103t-77.5 -71l-28 37q46 27 62 56t17 85h-48z" />
    <glyph glyph-name="gdotaccent.sc" horiz-adv-x="1246" 
d="M696 1475v-168h-81v168h81zM664 562h441v-562h-70v198q-43 -89 -145.5 -150t-235.5 -61q-242 0 -387 158.5t-145 419.5q0 259 146.5 416t390.5 157q136 0 247.5 -56t180.5 -162l-60 -41q-59 93 -153.5 141.5t-214.5 48.5q-206 0 -333 -138t-127 -366q0 -231 126.5 -369.5
t332.5 -138.5q170 0 273.5 104t103.5 256v79h-371v66z" />
    <glyph glyph-name="h.sc" horiz-adv-x="1272" 
d="M1005 1126h73v-1126h-73v536h-736v-536h-73v1126h73v-522h736v522z" />
    <glyph glyph-name="hbar.sc" horiz-adv-x="1273" 
d="M1206 891v-67h-128v-824h-73v537h-736v-537h-73v824h-128v67h128v235h73v-235h736v235h73v-235h128zM269 604h736v220h-736v-220z" />
    <glyph glyph-name="hcircumflex.sc" horiz-adv-x="1272" 
d="M637 1444l-192 -208h-76l231 264h73l231 -264h-77zM1005 1126h73v-1126h-73v536h-736v-536h-73v1126h73v-522h736v522z" />
    <glyph glyph-name="i.sc" horiz-adv-x="464" 
d="M196 0v1125h73v-1125h-73z" />
    <glyph glyph-name="iacute.sc" horiz-adv-x="464" 
d="M137 1238l176 275h83l-189 -275h-70zM196 0v1125h73v-1125h-73z" />
    <glyph glyph-name="ibreve.sc" horiz-adv-x="464" 
d="M232 1228q-110 0 -182 71.5t-86 200.5h63q15 -104 69.5 -160.5t135.5 -56.5q80 0 135 56.5t71 160.5h62q-14 -128 -86 -200t-182 -72zM196 0v1125h73v-1125h-73z" />
    <glyph glyph-name="icircumflex.sc" horiz-adv-x="464" 
d="M269 1500l231 -264h-77l-191 208l-191 -208h-77l232 264h73zM196 0v1125h73v-1125h-73z" />
    <glyph glyph-name="idieresis.sc" horiz-adv-x="464" 
d="M15 1311v164h85v-164h-85zM365 1311v164h85v-164h-85zM183 0v1125h74v-1125h-74z" />
    <glyph glyph-name="i.sc.loclTRK" horiz-adv-x="464" 
d="M191 1307v168h81v-168h-81zM196 0v1125h73v-1125h-73z" />
    <glyph glyph-name="igrave.sc" horiz-adv-x="464" 
d="M257 1238l-188 275h83l175 -275h-70zM196 0v1125h73v-1125h-73z" />
    <glyph glyph-name="ij.sc" horiz-adv-x="1392" 
d="M196 0v1125h73v-1125h-73zM899 -10q-240 0 -336 206l63 31q76 -170 268 -170q114 0 178 68.5t64 189.5v810h74v-819q0 -146 -83.5 -231t-227.5 -85z" />
    <glyph glyph-name="imacron.sc" horiz-adv-x="464" 
d="M-33 1340v63h529v-63h-529zM196 0v1125h73v-1125h-73z" />
    <glyph glyph-name="iogonek.sc" horiz-adv-x="464" 
d="M321 -311l32 -47q-64 -57 -141 -57q-83 0 -135.5 50t-52.5 124q0 72 42.5 127.5t129.5 115.5v1123h73v-1125h-7q-84 -56 -129.5 -111.5t-45.5 -120.5q0 -53 34.5 -88.5t89.5 -35.5q59 0 110 45z" />
    <glyph glyph-name="itilde.sc" horiz-adv-x="464" 
d="M369 1274q-65 0 -150 58q-25 17 -40.5 26t-38 17t-43.5 8q-86 0 -149 -107l-49 36q81 136 202 136q66 0 143 -56q74 -54 128 -54q78 0 141 108l49 -35q-82 -137 -193 -137zM196 0v1125h73v-1125h-73z" />
    <glyph glyph-name="j.sc" horiz-adv-x="933" 
d="M435 -10q-241 0 -337 206l63 31q76 -170 268 -170q114 0 178 68.5t64 189.5v810h74v-819q0 -146 -83.5 -231t-226.5 -85z" />
    <glyph glyph-name="jcircumflex.sc" horiz-adv-x="927" 
d="M744 1500l232 -264h-77l-190 208l-192 -208h-77l232 264h72zM671 315v810h74v-819q0 -146 -83.5 -231t-226.5 -85q-241 0 -337 206l63 31q76 -170 268 -170q114 0 178 68.5t64 189.5z" />
    <glyph glyph-name="k.sc" horiz-adv-x="1087" 
d="M945 0l-421 624l-255 -273v-351h-73v1126h73v-677l636 677h89l-420 -449l459 -677h-88z" />
    <glyph glyph-name="uni0137.sc" horiz-adv-x="1087" 
d="M574 677l459 -677h-88l-421 624l-255 -273v-351h-73v1126h73v-677l636 677h89zM529 -229v142h98v-146q0 -65 -23 -102.5t-78 -71.5l-27 37q46 27 62 56t17 85h-49z" />
    <glyph glyph-name="l.sc" horiz-adv-x="949" 
d="M269 68h630v-68h-703v1125h73v-1057z" />
    <glyph glyph-name="lacute.sc" horiz-adv-x="948" 
d="M396 1513l-189 -275h-70l176 275h83zM269 68h630v-68h-703v1125h73v-1057z" />
    <glyph glyph-name="i.sc.latn_TRK.sc" horiz-adv-x="464" 
d="M191 1307v168h81v-168h-81zM196 0v1125h73v-1125h-73z" />
    <glyph glyph-name="lcaron.sc" horiz-adv-x="948" 
d="M269 68h630v-68h-703v1125h73v-1057zM602 1125l-18 -426h-61v426h79z" />
    <glyph glyph-name="uni013C.sc" horiz-adv-x="948" 
d="M269 68h630v-68h-703v1125h73v-1057zM502 -229v142h97v-146q0 -66 -22.5 -103t-77.5 -71l-28 37q46 27 62 56t17 85h-48z" />
    <glyph glyph-name="ldot.sc" horiz-adv-x="948" 
d="M269 68h629v-68h-702v1125h73v-1057zM742 662v-160h-88v160h88z" />
    <glyph glyph-name="cacute.loclPLK.sc" horiz-adv-x="1207" 
d="M568 1238l130 275h80l-142 -275h-68zM656 -13q-242 0 -388 159t-146 419q0 259 145 416t387 157q149 0 262.5 -65.5t181.5 -192.5l-64 -32q-123 221 -379 221q-206 0 -331.5 -138t-125.5 -366q0 -230 126 -369t333 -139q135 0 227 58.5t149 178.5l66 -30
q-134 -277 -443 -277z" />
    <glyph glyph-name="nacute.loclPLK.sc" horiz-adv-x="1257" 
d="M756 1513l-143 -275h-67l129 275h81zM987 1126h74v-1126h-91l-701 1029v-1029h-73v1126h89l702 -1030v1030z" />
    <glyph glyph-name="oacute.loclPLK.sc" horiz-adv-x="1314" 
d="M573 1238l130 275h81l-143 -275h-68zM657 -12q-244 0 -390 157.5t-146 416.5q0 260 146 419t390 159q245 0 391.5 -158.5t146.5 -419.5q0 -259 -146.5 -416.5t-391.5 -157.5zM657 57q208 0 335 138t127 367q0 230 -126.5 369t-335.5 139q-207 0 -333 -139t-126 -369
q0 -229 126 -367t333 -138z" />
    <glyph glyph-name="sacute.loclPLK.sc" horiz-adv-x="1098" 
d="M476 1238l129 275h81l-142 -275h-68zM569 -12q-163 0 -283 62.5t-174 174.5l62 34q44 -94 148 -149t247 -55q156 0 249.5 66t93.5 173q0 30 -7.5 55.5t-18 45.5t-31 37t-38.5 28.5t-48.5 22.5t-52.5 17.5t-59 14t-60 11t-63 9.5q-62 9 -113 22t-103.5 37.5t-88.5 56.5
t-58.5 81.5t-22.5 111.5q0 131 111 212.5t292 81.5q146 0 261.5 -58t171.5 -161l-62 -34q-47 85 -146.5 135t-224.5 50q-145 0 -236 -63t-91 -162q0 -47 19 -84.5t49 -62.5t75.5 -44.5t90.5 -30.5t101 -20q82 -13 125.5 -21.5t111 -31.5t102.5 -52t62.5 -80.5t27.5 -120.5
q0 -141 -113.5 -225t-305.5 -84z" />
    <glyph glyph-name="zacute.loclPLK.sc" horiz-adv-x="1069" 
d="M445 1238l129 275h81l-142 -275h-68zM104 0v62l751 996h-733v68h827v-63l-750 -995h767v-68h-862z" />
    <glyph glyph-name="lslash.sc" horiz-adv-x="947" 
d="M267 68h630v-68h-702v548l-156 -75v75l156 75v502h72v-471l452 218v-74l-452 -218v-512z" />
    <glyph glyph-name="m.sc" horiz-adv-x="1484" 
d="M1289 1126v-1126h-74v1006l-434 -1006h-76l-436 1008v-1008h-73v1126h95l451 -1033l452 1033h95z" />
    <glyph glyph-name="n.sc" horiz-adv-x="1256" 
d="M987 1126h74v-1126h-91l-701 1029v-1029h-73v1126h89l702 -1030v1030z" />
    <glyph glyph-name="nacute.sc" horiz-adv-x="1257" 
d="M793 1513l-189 -275h-69l176 275h82zM987 1126h74v-1126h-91l-701 1029v-1029h-73v1126h89l702 -1030v1030z" />
    <glyph glyph-name="napostrophe.sc" horiz-adv-x="1451" 
d="M186 1306v169h97v-176q0 -95 -22.5 -143.5t-78.5 -90.5l-34 39q51 36 67 78t17 124h-46zM1181 1126h73v-1126h-91l-700 1029v-1029h-74v1126h89l703 -1030v1030z" />
    <glyph glyph-name="ncaron.sc" horiz-adv-x="1257" 
d="M664 1236h-73l-232 264h76l193 -208l190 208h76zM987 1126h74v-1126h-91l-701 1029v-1029h-73v1126h89l702 -1030v1030z" />
    <glyph glyph-name="uni0146.sc" horiz-adv-x="1257" 
d="M987 1126h74v-1126h-91l-701 1029v-1029h-73v1126h89l702 -1030v1030zM581 -229v142h97v-146q0 -66 -23 -103t-77 -71l-28 37q46 27 62 56t17 85h-48z" />
    <glyph glyph-name="eng.sc" horiz-adv-x="1256" 
d="M987 1126h74v-1143q0 -105 -72.5 -165.5t-185.5 -60.5q-112 0 -196 47l29 60q71 -40 162 -40q83 0 136 44t53 124v18l-718 1014v-1024h-73v1126h89l702 -997v997z" />
    <glyph glyph-name="ntilde.sc" horiz-adv-x="1257" 
d="M495 1383q-87 0 -150 -107l-49 36q81 136 203 136q65 0 142 -56q74 -54 128 -54q78 0 141 108l49 -35q-82 -137 -193 -137q-65 0 -150 58q-26 17 -40.5 26t-37 17t-43.5 8zM987 1126h74v-1126h-91l-701 1029v-1029h-73v1126h89l702 -1030v1030z" />
    <glyph glyph-name="o.sc" horiz-adv-x="1315" 
d="M657 -12q-244 0 -390 157.5t-146 416.5q0 260 146 419t390 159q245 0 391.5 -158.5t146.5 -419.5q0 -259 -146.5 -416.5t-391.5 -157.5zM657 57q208 0 335 138t127 367q0 230 -126.5 369t-335.5 139q-207 0 -333 -139t-126 -369q0 -229 126 -367t333 -138z" />
    <glyph glyph-name="oacute.sc" horiz-adv-x="1314" 
d="M563 1238l175 275h83l-189 -275h-69zM657 -12q-244 0 -390 157.5t-146 416.5q0 260 146 419t390 159q245 0 391.5 -158.5t146.5 -419.5q0 -259 -146.5 -416.5t-391.5 -157.5zM657 57q208 0 335 138t127 367q0 230 -126.5 369t-335.5 139q-207 0 -333 -139t-126 -369
q0 -229 126 -367t333 -138z" />
    <glyph glyph-name="obreve.sc" horiz-adv-x="1314" 
d="M657 1228q-110 0 -182 72t-86 200h63q16 -104 70.5 -160.5t134.5 -56.5q81 0 135.5 56.5t70.5 160.5h63q-14 -129 -86 -200.5t-183 -71.5zM657 -12q-244 0 -390 157.5t-146 416.5q0 260 146 419t390 159q245 0 391.5 -158.5t146.5 -419.5q0 -259 -146.5 -416.5
t-391.5 -157.5zM657 57q208 0 335 138t127 367q0 230 -126.5 369t-335.5 139q-207 0 -333 -139t-126 -369q0 -229 126 -367t333 -138z" />
    <glyph glyph-name="ocircumflex.sc" horiz-adv-x="1314" 
d="M658 1444l-192 -208h-77l233 264h72l231 -264h-77zM657 1140q245 0 391.5 -158.5t146.5 -419.5q0 -259 -146.5 -416.5t-391.5 -157.5q-244 0 -390 157.5t-146 416.5q0 260 146 419t390 159zM657 57q208 0 335 138t127 367q0 230 -126.5 369t-335.5 139q-207 0 -333 -139
t-126 -369q0 -229 126 -367t333 -138z" />
    <glyph glyph-name="odieresis.sc" horiz-adv-x="1314" 
d="M445 1311v164h80v-164h-80zM791 1311v164h79v-164h-79zM657 -12q-244 0 -390 157.5t-146 416.5q0 260 146 419t390 159q245 0 391.5 -158.5t146.5 -419.5q0 -259 -146.5 -416.5t-391.5 -157.5zM657 57q208 0 335 138t127 367q0 230 -126.5 369t-335.5 139
q-207 0 -333 -139t-126 -369q0 -229 126 -367t333 -138z" />
    <glyph glyph-name="ograve.sc" horiz-adv-x="1314" 
d="M683 1238l-189 275h83l176 -275h-70zM657 -12q-244 0 -390 157.5t-146 416.5q0 260 146 419t390 159q245 0 391.5 -158.5t146.5 -419.5q0 -259 -146.5 -416.5t-391.5 -157.5zM657 57q208 0 335 138t127 367q0 230 -126.5 369t-335.5 139q-207 0 -333 -139t-126 -369
q0 -229 126 -367t333 -138z" />
    <glyph glyph-name="ohungarumlaut.sc" horiz-adv-x="1314" 
d="M451 1315l176 275h82l-189 -275h-69zM769 1315l175 275h83l-188 -275h-70zM657 -12q-244 0 -390 157.5t-146 416.5q0 260 146 419t390 159q245 0 391.5 -158.5t146.5 -419.5q0 -259 -146.5 -416.5t-391.5 -157.5zM657 57q208 0 335 138t127 367q0 230 -126.5 369
t-335.5 139q-207 0 -333 -139t-126 -369q0 -229 126 -367t333 -138z" />
    <glyph glyph-name="omacron.sc" horiz-adv-x="1314" 
d="M392 1340v63h530v-63h-530zM657 -12q-244 0 -390 157.5t-146 416.5q0 260 146 419t390 159q245 0 391.5 -158.5t146.5 -419.5q0 -259 -146.5 -416.5t-391.5 -157.5zM657 57q208 0 335 138t127 367q0 230 -126.5 369t-335.5 139q-207 0 -333 -139t-126 -369
q0 -229 126 -367t333 -138z" />
    </font>
</defs>
</svg>
