<?xml version="1.0" standalone="no"?>
<!DOCTYPE svg PUBLIC "-//W3C//DTD SVG 1.1//EN" "http://www.w3.org/Graphics/SVG/1.1/DTD/svg11.dtd" >
<svg xmlns="http://www.w3.org/2000/svg" xmlns:xlink="http://www.w3.org/1999/xlink" version="1.1">
<metadata>
Created by FontForge 20170731 at Sat Dec  5 06:59:56 2020
 By Aleksey,,,
Copyright (c) 2019 Monotype Imaging Inc. All rights reserved.
</metadata>
<defs>
<font id="Infra-ExtraLightItalic" horiz-adv-x="1228" >
  <font-face 
    font-family="Infra ExtraLight"
    font-weight="300"
    font-style="italic"
    font-stretch="normal"
    units-per-em="2048"
    panose-1="2 11 3 0 0 0 0 9 0 0"
    ascent="1582"
    descent="-466"
    x-height="1049"
    cap-height="1475"
    bbox="-1007 -570 2583 2163"
    underline-thickness="66"
    underline-position="-332"
    slope="-10"
    unicode-range="U+000D-FEFF"
  />
<missing-glyph horiz-adv-x="1175" 
d="M124 0l260 1475h743l-260 -1475h-743zM202 63h610l237 1348h-610z" />
    <glyph glyph-name="fi" unicode="fi" horiz-adv-x="1062" 
d="M428 1211l-29 -162h278l-12 -67h-278l-173 -982h-72l173 982h-169l13 67h169l30 175q23 128 97.5 196.5t185.5 68.5q59 0 120 -22l-27 -60q-45 13 -92 13q-85 0 -140.5 -54t-73.5 -155zM970 1475h80l-30 -168h-80zM713 0l185 1049h72l-186 -1049h-71z" />
    <glyph glyph-name="fl" unicode="fl" horiz-adv-x="1059" 
d="M428 1211l-29 -162h278l-12 -67h-278l-173 -982h-72l173 982h-169l13 67h169l30 175q23 128 97.5 196.5t185.5 68.5q59 0 120 -22l-27 -60q-45 13 -92 13q-85 0 -140.5 -54t-73.5 -155zM972 1475h71l-260 -1475h-71z" />
    <glyph glyph-name="f_f" unicode="ff" horiz-adv-x="1216" 
d="M1239 1420q-85 0 -140.5 -54t-73.5 -155l-29 -162h278l-12 -67h-278l-173 -982h-72l173 982h-525l-173 -982h-72l173 982h-169l13 67h169l30 175q23 128 97.5 196.5t185.5 68.5q59 0 120 -22l-27 -60q-45 13 -92 13q-85 0 -140.5 -54t-73.5 -155l-29 -162h526l30 175
q22 127 97 196t186 69q57 0 120 -22l-28 -60q-43 13 -91 13z" />
    <glyph glyph-name="f_f_i" unicode="ffi" horiz-adv-x="1693" 
d="M1239 1420q-85 0 -140.5 -54t-73.5 -155l-29 -162h278l-12 -67h-278l-173 -982h-72l173 982h-524l-173 -982h-72l172 982h-169l13 67h169l30 176q22 127 97 195.5t186 68.5q54 0 120 -22l-27 -61q-48 14 -92 14q-85 0 -140.5 -54t-73.5 -155l-29 -162h526l30 176
q22 127 97 195.5t186 68.5q55 0 119 -22l-26 -61q-48 14 -92 14zM1601 1475h79l-28 -168h-81zM1345 0l184 1049h72l-185 -1049h-71z" />
    <glyph glyph-name="f_f_l" unicode="ffl" horiz-adv-x="1692" 
d="M1239 1420q-85 0 -140.5 -54t-73.5 -155l-29 -162h278l-12 -67h-278l-173 -982h-72l173 982h-524l-173 -982h-72l172 982h-169l13 67h169l30 176q23 127 97.5 195.5t185.5 68.5q54 0 120 -22l-27 -61q-48 14 -92 14q-85 0 -140.5 -54t-73.5 -155l-29 -162h526l30 176
q23 127 97.5 195.5t185.5 68.5q55 0 119 -22l-26 -61q-48 14 -92 14zM1605 1475h71l-260 -1475h-71z" />
    <glyph glyph-name=".notdef" horiz-adv-x="1175" 
d="M124 0l260 1475h743l-260 -1475h-743zM202 63h610l237 1348h-610z" />
    <glyph glyph-name=".null" horiz-adv-x="0" 
 />
    <glyph glyph-name="nonmarkingreturn" horiz-adv-x="682" 
 />
    <glyph glyph-name="NULL" horiz-adv-x="0" 
 />
    <glyph glyph-name="NULL" horiz-adv-x="0" 
 />
    <glyph glyph-name="CR" unicode="&#xd;" horiz-adv-x="534" 
 />
    <glyph glyph-name="space" unicode=" " horiz-adv-x="534" 
 />
    <glyph glyph-name="exclam" unicode="!" horiz-adv-x="499" 
d="M193 342l93 613l92 520h79l-91 -520l-123 -613h-50zM111 0l29 168h93l-29 -168h-93z" />
    <glyph glyph-name="quotedbl" unicode="&#x22;" horiz-adv-x="745" 
d="M284 1079l69 396h73l-70 -396h-72zM586 1079l69 396h72l-70 -396h-71z" />
    <glyph glyph-name="numbersign" unicode="#" horiz-adv-x="1491" 
d="M1425 981h-240l-152 -487h240l-22 -68h-239l-133 -426h-71l133 426h-509l-133 -426h-71l133 426h-240l20 68h242l152 487h-240l20 68h241l133 426h71l-133 -426h509l133 426h70l-133 -426h241zM963 494l151 487h-509l-151 -487h509z" />
    <glyph glyph-name="dollar" unicode="$" horiz-adv-x="1275" 
d="M1153 1136q-41 93 -130.5 151.5t-210.5 73.5l-106 -604q81 -18 140.5 -37t114.5 -48.5t89 -66t54 -89.5t20 -119q0 -191 -145 -301t-382 -110h-27l-27 -155h-72l29 161q-156 19 -263.5 96t-148.5 199l70 34q33 -105 125.5 -173.5t228.5 -86.5l112 639q-192 41 -291 125
t-99 233q0 174 139.5 276.5t354.5 102.5h27l27 154h71l-29 -160q139 -19 242.5 -87t152.5 -172zM637 771l105 595h-12q-186 0 -301.5 -81t-115.5 -226q0 -64 23.5 -112.5t69.5 -81.5t100.5 -54.5t130.5 -39.5zM1047 385q0 60 -19 106.5t-48.5 76.5t-79 53.5t-95 36.5
t-112.5 28l-110 -630h17q200 0 323.5 88.5t123.5 240.5z" />
    <glyph glyph-name="percent" unicode="%" horiz-adv-x="1921" 
d="M538 702q-132 0 -217 89t-85 235q0 173 101 291.5t261 118.5q132 0 217 -88.5t85 -233.5q0 -174 -100.5 -293t-261.5 -119zM423 0l1070 1423h75l-1070 -1423h-75zM542 766q129 0 210 101t81 244q0 120 -66.5 191t-171.5 71q-129 0 -210 -101t-81 -244q0 -121 66 -191.5
t172 -70.5zM1390 -12q-133 0 -218 88t-85 234q0 174 101 292.5t262 118.5q132 0 217 -88.5t85 -234.5q0 -173 -101 -291.5t-261 -118.5zM1393 50q129 0 209.5 101.5t80.5 244.5q0 120 -66 190.5t-171 70.5q-129 0 -210 -100.5t-81 -243.5q0 -121 66.5 -192t171.5 -71z" />
    <glyph glyph-name="ampersand" unicode="&#x26;" horiz-adv-x="1392" 
d="M1267 528q-71 -189 -188 -318l155 -210h-90l-117 158q-187 -170 -445 -170q-187 0 -305.5 96t-118.5 268q0 150 93.5 259t285.5 204q-41 55 -63 88t-49.5 82t-40 94.5t-12.5 92.5q0 140 99.5 227.5t249.5 87.5q140 0 223.5 -78t83.5 -197q0 -117 -86.5 -215.5
t-291.5 -205.5l384 -522q100 113 164 283zM717 1416q-117 0 -192.5 -70t-75.5 -177q0 -40 10 -77t38.5 -84.5t45 -71t63.5 -87.5q193 110 268 186t75 169q0 92 -63 152t-169 60zM584 58q225 0 399 158l-401 540q-177 -92 -261 -183.5t-84 -216.5q0 -144 99 -221t248 -77z
" />
    <glyph glyph-name="quotesingle" unicode="'" horiz-adv-x="444" 
d="M284 1079l69 396h73l-70 -396h-72z" />
    <glyph glyph-name="parenleft" unicode="(" horiz-adv-x="669" 
d="M411 -283q-265 326 -265 734q0 323 132.5 609t391.5 523l48 -45q-498 -465 -498 -1085q0 -379 246 -692z" />
    <glyph glyph-name="parenright" unicode=")" horiz-adv-x="668" 
d="M44 -283l-48 46q498 466 498 1086q0 376 -246 691l55 43q264 -325 264 -733q0 -323 -132 -609.5t-391 -523.5z" />
    <glyph glyph-name="asterisk" unicode="*" horiz-adv-x="650" 
d="M545 982l-104 186l-145 -173l-49 35l148 179l-194 55l20 55l200 -55l38 211h61l-39 -214l217 55l11 -59l-217 -55l107 -187z" />
    <glyph glyph-name="plus" unicode="+" 
d="M1057 605l-11 -67h-393l-66 -379h-73l67 379h-392l12 67h392l66 379h73l-66 -379h391z" />
    <glyph glyph-name="comma" unicode="," horiz-adv-x="470" 
d="M124 169h97l-31 -175q-28 -158 -142 -237l-30 40q97 67 121 201l-46 2z" />
    <glyph glyph-name="hyphen" unicode="-" horiz-adv-x="829" 
d="M168 538l11 67h500l-11 -67h-500z" />
    <glyph glyph-name="period" unicode="." horiz-adv-x="468" 
d="M93 0l31 169h96l-30 -169h-97z" />
    <glyph glyph-name="slash" unicode="/" horiz-adv-x="777" 
d="M-99 -215l978 1823h68l-975 -1823h-71z" />
    <glyph glyph-name="zero" unicode="0" horiz-adv-x="1252" 
d="M573 -15q-200 0 -309 155.5t-109 424.5q0 236 70 433.5t206.5 319t313.5 121.5q200 0 309 -156t109 -425q0 -176 -41 -334t-115.5 -278t-187 -190.5t-246.5 -70.5zM577 56q153 0 271 114t178 295t60 394q0 237 -89 372.5t-254 135.5q-115 0 -213 -66.5t-162.5 -178
t-100.5 -256t-36 -301.5q0 -237 90 -373t256 -136z" />
    <glyph glyph-name="one" unicode="1" horiz-adv-x="874" 
d="M737 1423l-251 -1423h-74l232 1316l-333 -263l-39 50l403 320h62z" />
    <glyph glyph-name="two" unicode="2" horiz-adv-x="1144" 
d="M670 546l-487 -476h770l-12 -70h-882l12 63l542 534q211 208 284.5 308.5t73.5 191.5q0 118 -84 194t-215 76q-136 0 -244 -82t-163 -236l-70 22q65 181 192 274.5t287 93.5q164 0 269.5 -95t105.5 -242q0 -114 -74 -222t-305 -334z" />
    <glyph glyph-name="three" unicode="3" horiz-adv-x="1153" 
d="M775 733q98 -32 158.5 -116t60.5 -204q0 -187 -130.5 -307t-340.5 -120q-176 0 -289.5 83.5t-151.5 234.5l72 24q31 -129 127.5 -200.5t244.5 -71.5q175 0 283.5 101.5t108.5 255.5q0 133 -84.5 210t-227.5 77h-85l13 69h69q161 0 266.5 97.5t105.5 240.5q0 124 -80 192
t-215 68t-234.5 -71t-157.5 -205l-71 30q70 154 187.5 235.5t276.5 81.5q168 0 269.5 -88t101.5 -239q0 -130 -74.5 -230.5t-202.5 -147.5z" />
    <glyph glyph-name="four" unicode="4" horiz-adv-x="1163" 
d="M1076 402l-12 -69h-212l-58 -333h-75l58 333h-727l11 64l895 1026h88l-180 -1021h212zM157 402h633l161 918z" />
    <glyph glyph-name="five" unicode="5" horiz-adv-x="1161" 
d="M1066 1354h-634l-146 -571q138 133 343 133q183 0 290 -110.5t107 -295.5q0 -228 -142.5 -376t-369.5 -148q-154 0 -272.5 76t-163.5 214l72 29q36 -116 135 -182.5t229 -66.5q194 0 314.5 127t120.5 321q0 157 -89 249.5t-246 92.5q-105 0 -197.5 -46.5t-158.5 -129.5
h-72l194 753h698z" />
    <glyph glyph-name="six" unicode="6" horiz-adv-x="1175" 
d="M649 908q171 0 280.5 -111t109.5 -293q0 -141 -60 -259t-172 -188.5t-253 -70.5q-261 0 -369 218q-49 100 -49 254q0 95 20 243q46 340 195.5 538.5t383.5 198.5q129 0 226.5 -66t134.5 -178l-67 -36q-32 98 -109 153.5t-184 55.5q-90 0 -166.5 -40t-130.5 -104t-96 -152
t-67 -177t-40 -186q-3 -11 -4 -28q60 100 171 164t246 64zM557 56q119 0 213 63t143.5 163.5t49.5 217.5q0 155 -89.5 246.5t-232.5 91.5q-184 0 -305 -125t-121 -300q0 -158 94.5 -257.5t247.5 -99.5z" />
    <glyph glyph-name="seven" unicode="7" horiz-adv-x="1050" 
d="M230 1423h894l-12 -63q-228 -236 -360.5 -432.5t-209 -414.5t-114.5 -513h-79q38 293 107.5 503t201 412t358.5 439h-798z" />
    <glyph glyph-name="eight" unicode="8" horiz-adv-x="1200" 
d="M807 726q110 -33 176.5 -115.5t66.5 -200.5q0 -191 -138 -307.5t-361 -116.5q-204 0 -329 98.5t-125 259.5q0 145 94.5 249t261.5 142q-102 33 -161.5 110t-59.5 190q0 179 131.5 291t335.5 112q179 0 288.5 -93.5t109.5 -247.5q0 -132 -78 -230t-212 -141zM309 1033
q0 -121 87 -196.5t227 -75.5q175 0 286 92.5t111 238.5q0 126 -89 201.5t-234 75.5q-170 0 -279 -93.5t-109 -242.5zM548 54q190 0 307.5 98.5t117.5 256.5q0 132 -98 209t-261 77q-197 0 -318.5 -95t-121.5 -251q0 -133 102.5 -214t271.5 -81z" />
    <glyph glyph-name="nine" unicode="9" horiz-adv-x="1175" 
d="M1054 1220q46 -93 46 -248q0 -118 -19 -245q-23 -169 -68.5 -303t-114 -233t-165 -152t-214.5 -53q-132 0 -235 72t-145 193l68 30q36 -103 118.5 -163.5t193.5 -60.5q89 0 164.5 40t128.5 105t94 153t64.5 178.5t35.5 187.5q0 3 2 27q-59 -97 -171 -160t-246 -63
q-172 0 -282.5 108.5t-110.5 288.5q0 217 136 367t349 150q262 0 371 -219zM595 596q185 0 305.5 121.5t120.5 296.5q0 158 -94.5 255.5t-247.5 97.5q-118 0 -212.5 -62t-144 -162t-49.5 -217q0 -150 90.5 -240t231.5 -90z" />
    <glyph glyph-name="colon" unicode=":" horiz-adv-x="470" 
d="M249 880l30 169h97l-30 -169h-97zM94 0l30 169h97l-30 -169h-97z" />
    <glyph glyph-name="semicolon" unicode=";" horiz-adv-x="470" 
d="M279 1049h97l-30 -169h-97zM93 0l31 169h97l-31 -175q-28 -158 -142 -237l-30 40q97 67 121 201z" />
    <glyph glyph-name="less" unicode="&#x3c;" 
d="M1141 1082l-15 -81l-850 -391l714 -385l-13 -74l-781 427l13 72z" />
    <glyph glyph-name="equal" unicode="=" 
d="M232 783l12 67h857l-12 -67h-857zM157 355l12 67h856l-12 -67h-856z" />
    <glyph glyph-name="greater" unicode="&#x3e;" 
d="M120 151l14 80l851 392l-714 385l14 74l780 -427l-12 -72z" />
    <glyph glyph-name="question" unicode="?" horiz-adv-x="1028" 
d="M414 343l26 154q24 130 82 210.5t177 151.5q126 75 184.5 149t58.5 166q0 109 -79 176.5t-206 67.5q-126 0 -224.5 -70.5t-156.5 -196.5l-63 30q65 148 181 227t268 79q158 0 257 -85.5t99 -222.5q0 -113 -64.5 -201t-203.5 -173q-112 -68 -165 -138t-74 -183l-25 -141
h-72zM342 0l30 169h95l-30 -169h-95z" />
    <glyph glyph-name="at" unicode="@" horiz-adv-x="2024" 
d="M1109 1435q229 0 408.5 -94.5t279 -262.5t99.5 -381q0 -108 -23 -211t-66 -190t-114.5 -140t-160.5 -53q-102 0 -160 60t-64 154q-52 -97 -147.5 -155t-210.5 -58q-162 0 -265.5 108.5t-103.5 289.5q0 138 56.5 255.5t160 189t231.5 71.5q125 0 218 -65t123 -177l41 225
h70l-100 -565q-8 -48 -8 -82q0 -91 43.5 -135.5t117.5 -44.5q73 0 131.5 48.5t92 126t51 166t17.5 177.5q0 195 -91.5 349t-255.5 240t-372 86q-189 0 -355 -72.5t-282.5 -196.5t-184 -292.5t-67.5 -354.5q0 -208 92.5 -371.5t257.5 -254t373 -90.5q263 0 472 147l36 -58
q-226 -156 -510 -156q-229 0 -410 98.5t-282 277t-101 405.5q0 202 73 383.5t199.5 314t306.5 210.5t384 78zM1331 594q12 154 -69 254t-228 100q-85 0 -157 -37t-120.5 -98.5t-75.5 -142t-27 -167.5q0 -153 83 -241t217 -88q158 0 260 119.5t117 300.5z" />
    <glyph glyph-name="A" unicode="A" horiz-adv-x="1361" 
d="M1120 0l-101 470h-695l-259 -470h-88l819 1475h82l322 -1475h-80zM364 542h640l-181 832z" />
    <glyph glyph-name="B" unicode="B" horiz-adv-x="1353" 
d="M985 758q92 -30 148.5 -112.5t56.5 -199.5q0 -194 -132.5 -320t-340.5 -126h-606l260 1475h563q156 0 250.5 -87.5t94.5 -227.5q0 -134 -87.5 -251.5t-206.5 -150.5zM434 1403l-106 -610h496q156 0 266.5 105.5t110.5 254.5q0 113 -75 181.5t-201 68.5h-491zM722 72
q171 0 280.5 106t109.5 268q0 128 -76.5 201.5t-199.5 73.5h-523l-112 -649h521z" />
    <glyph glyph-name="C" unicode="C" horiz-adv-x="1452" 
d="M727 -15q-259 0 -414.5 171t-155.5 459q0 178 51 336.5t143 278.5t231 190t305 70q190 0 319.5 -93.5t190.5 -262.5l-68 -29q-115 312 -446 312q-119 0 -223 -42t-181 -117t-132 -174.5t-83 -217.5t-28 -244q0 -259 136 -412t358 -153q167 0 288 80.5t218 237.5l66 -38
q-107 -173 -246 -262.5t-329 -89.5z" />
    <glyph glyph-name="D" unicode="D" horiz-adv-x="1425" 
d="M111 0l260 1475h395q266 0 422.5 -163.5t156.5 -448.5q0 -177 -50.5 -333.5t-143 -274.5t-232 -186.5t-307.5 -68.5h-501zM201 72h414q149 0 273.5 64t206 172.5t126.5 250.5t45 299q0 255 -136 400t-362 145h-333z" />
    <glyph glyph-name="E" unicode="E" horiz-adv-x="1231" 
d="M1287 1403h-852l-108 -619h785l-13 -71h-786l-112 -641h860l-13 -72h-937l260 1475h929z" />
    <glyph glyph-name="F" unicode="F" horiz-adv-x="1174" 
d="M1275 1403h-840l-110 -626h740l-12 -71h-741l-125 -706h-76l260 1475h916z" />
    <glyph glyph-name="G" unicode="G" horiz-adv-x="1479" 
d="M817 656l13 72h531l-128 -728h-72l42 237q-84 -119 -206.5 -185.5t-271.5 -66.5q-254 0 -411 171.5t-157 458.5q0 178 51 336.5t143 278.5t231.5 190t306.5 70q165 0 288.5 -79.5t199.5 -233.5l-67 -32q-135 272 -424 272q-149 0 -273.5 -65t-206 -175t-126 -253.5
t-44.5 -301.5q0 -259 136.5 -412t360.5 -153q105 0 197 39t156.5 105t107.5 150t59 178l23 127h-459z" />
    <glyph glyph-name="H" unicode="H" horiz-adv-x="1463" 
d="M1351 1475h77l-260 -1475h-77l124 711h-903l-125 -711h-76l260 1475h76l-121 -693h903z" />
    <glyph glyph-name="I" unicode="I" horiz-adv-x="482" 
d="M111 0l260 1475h76l-260 -1475h-76z" />
    <glyph glyph-name="J" unicode="J" horiz-adv-x="1045" 
d="M409 -12q-280 0 -371 266l67 30q78 -226 305 -226q139 0 230 89t120 254l188 1074h78l-191 -1086q-34 -192 -144.5 -296.5t-281.5 -104.5z" />
    <glyph glyph-name="K" unicode="K" horiz-adv-x="1261" 
d="M1323 1475l-611 -586l399 -888h-87l-374 829l-381 -364l-82 -466h-76l260 1475h76l-156 -891l934 891h98z" />
    <glyph glyph-name="L" unicode="L" horiz-adv-x="1087" 
d="M201 72h765l-14 -72h-841l260 1475h76z" />
    <glyph glyph-name="M" unicode="M" horiz-adv-x="1718" 
d="M1582 1475h101l-260 -1475h-77l235 1329l-773 -1329h-82l-303 1328l-236 -1328h-76l260 1475h92l319 -1374z" />
    <glyph glyph-name="N" unicode="N" horiz-adv-x="1443" 
d="M1332 1475h77l-260 -1475h-95l-625 1367l-242 -1367h-76l260 1475h91l629 -1367z" />
    <glyph glyph-name="O" unicode="O" horiz-adv-x="1544" 
d="M730 -16q-261 0 -417 171t-156 460q0 178 51 336.5t143.5 278.5t231.5 190.5t306 70.5q261 0 417.5 -170.5t156.5 -457.5q0 -177 -51 -336t-143 -280t-232 -192t-307 -71zM733 57q120 0 225 43t182 118.5t132.5 176.5t83.5 219t28 244q0 257 -136.5 408t-361.5 151
q-149 0 -273.5 -65t-205.5 -175t-126 -253.5t-45 -302.5q0 -259 136.5 -411.5t360.5 -152.5z" />
    <glyph glyph-name="P" unicode="P" 
d="M888 1475q161 0 256.5 -92.5t95.5 -256.5q0 -204 -130 -337t-337 -133h-470l-116 -656h-76l260 1475h517zM774 728q172 0 279.5 111.5t107.5 279.5q0 135 -76.5 209.5t-206.5 74.5h-443l-119 -675h458z" />
    <glyph glyph-name="Q" unicode="Q" horiz-adv-x="1544" 
d="M1463 863q0 -228 -82 -422.5t-231 -313.5l133 -212l-60 -36l-130 207q-158 -102 -363 -102q-261 0 -417 171t-156 460q0 178 51 336.5t143.5 278.5t231.5 190.5t306 70.5q261 0 417.5 -170.5t156.5 -457.5zM733 57q175 0 319 93l-143 226l61 37l139 -222
q131 109 203 286.5t72 380.5q0 257 -136.5 408t-361.5 151q-149 0 -273.5 -65t-205.5 -175t-126 -253.5t-45 -302.5q0 -259 136.5 -411.5t360.5 -152.5z" />
    <glyph glyph-name="R" unicode="R" horiz-adv-x="1241" 
d="M1228 1132q0 -180 -114 -303.5t-301 -138.5l238 -690h-84l-234 688h-424l-122 -688h-76l260 1475h512q153 0 249 -93t96 -250zM768 760q169 0 275 104.5t106 261.5q0 131 -78 204t-201 73h-435l-113 -643h446z" />
    <glyph glyph-name="S" unicode="S" horiz-adv-x="1311" 
d="M617 -15q-200 0 -340.5 82.5t-186.5 230.5l71 33q37 -129 160 -202t299 -73q207 0 335.5 93.5t128.5 251.5q0 49 -12.5 89.5t-31 69.5t-52.5 53.5t-64.5 40t-81 31t-87 24t-96.5 20.5q-205 43 -310.5 128t-105.5 241q0 120 67.5 210t181.5 136t258 46q174 0 310 -74.5
t197 -201.5l-65 -35q-53 111 -170.5 175t-268.5 64q-191 0 -311.5 -84.5t-120.5 -234.5q0 -59 20.5 -105t52 -76.5t84.5 -55t103 -39t122 -30.5q90 -19 154.5 -39t125.5 -50.5t98 -69t59.5 -94t22.5 -126.5q0 -197 -151 -313t-395 -116z" />
    <glyph glyph-name="T" unicode="T" horiz-adv-x="1180" 
d="M1296 1475l-12 -72h-500l-247 -1403h-76l248 1403h-502l12 72h1077z" />
    <glyph glyph-name="U" unicode="U" horiz-adv-x="1403" 
d="M632 -15q-211 0 -338.5 112.5t-127.5 301.5q0 60 9 111l169 965h78l-170 -960q-9 -57 -9 -106q0 -161 107 -256.5t286 -95.5q207 0 340.5 119.5t171.5 338.5l169 960h78l-171 -975q-44 -248 -197 -381.5t-395 -133.5z" />
    <glyph glyph-name="V" unicode="V" horiz-adv-x="1324" 
d="M1336 1475h86l-802 -1475h-80l-302 1475h77l278 -1376z" />
    <glyph glyph-name="W" unicode="W" horiz-adv-x="1969" 
d="M1972 1475h85l-677 -1475h-76l-170 1357l-631 -1357h-79l-176 1475h78l156 -1352l630 1352h75l172 -1350z" />
    <glyph glyph-name="X" unicode="X" horiz-adv-x="1275" 
d="M1326 1475l-605 -719l380 -756h-81l-350 702l-588 -702h-93l641 762l-357 713h83l327 -661l552 661h91z" />
    <glyph glyph-name="Y" unicode="Y" horiz-adv-x="1173" 
d="M1204 1475h88l-650 -850l-110 -625h-76l110 625l-348 850h77l318 -784z" />
    <glyph glyph-name="Z" unicode="Z" horiz-adv-x="1281" 
d="M39 0l11 67l1131 1336h-896l13 72h992l-12 -67l-1131 -1336h924l-13 -72h-1019z" />
    <glyph glyph-name="bracketleft" unicode="[" horiz-adv-x="713" 
d="M775 1456h-333l-284 -1612h334l-13 -68h-407l308 1749h407z" />
    <glyph glyph-name="backslash" unicode="\" horiz-adv-x="1420" 
d="M1258 -215h-70l-976 1823h69z" />
    <glyph glyph-name="bracketright" unicode="]" horiz-adv-x="713" 
d="M687 1525l-309 -1749h-408l13 68h333l284 1612h-334l13 69h408z" />
    <glyph glyph-name="asciicircum" unicode="^" horiz-adv-x="803" 
d="M817 984h-78l-176 421l-326 -421h-87l382 491h76z" />
    <glyph glyph-name="underscore" unicode="_" horiz-adv-x="1186" 
d="M73 0l11 67h857l-11 -67h-857z" />
    <glyph glyph-name="grave" unicode="`" horiz-adv-x="614" 
d="M360 1238l-237 275h84l223 -275h-70z" />
    <glyph glyph-name="a" unicode="a" horiz-adv-x="1064" 
d="M578 1063q160 0 252 -84.5t92 -224.5q0 -42 -8 -87l-117 -667h-72l30 166q-57 -81 -158.5 -130.5t-219.5 -49.5q-143 0 -228.5 75t-85.5 206q0 162 135 248.5t372 86.5h261l11 63q7 39 7 77q0 116 -73 184.5t-202 68.5q-188 0 -314 -152l-50 47q145 173 368 173zM793 381
l27 156h-241q-209 0 -325.5 -66.5t-116.5 -200.5q0 -103 65.5 -160.5t176.5 -57.5q156 0 273 95.5t141 233.5z" />
    <glyph glyph-name="b" unicode="b" horiz-adv-x="1206" 
d="M694 1063q186 0 299.5 -125.5t113.5 -340.5q0 -123 -37 -234t-103 -194.5t-163.5 -133t-211.5 -49.5q-148 0 -251 79.5t-129 210.5l-48 -276h-72l260 1475h72l-109 -618q68 95 166.5 150.5t212.5 55.5zM584 55q132 0 235.5 75t158 197t54.5 266q0 183 -94.5 292
t-251.5 109q-179 0 -295 -140t-137 -357q-20 -199 70.5 -320.5t259.5 -121.5z" />
    <glyph glyph-name="c" unicode="c" horiz-adv-x="1046" 
d="M513 -14q-185 0 -299.5 125t-114.5 335q0 123 37 235t102.5 196.5t164.5 135t215 50.5q129 0 220 -56.5t137 -161.5l-66 -30q-37 86 -112.5 132.5t-180.5 46.5q-100 0 -184.5 -45.5t-139.5 -121.5t-86 -174t-31 -203q0 -180 93.5 -287.5t245.5 -107.5q99 0 183.5 50.5
t143.5 150.5l61 -37q-141 -233 -389 -233z" />
    <glyph glyph-name="d" unicode="d" horiz-adv-x="1206" 
d="M1118 1475h72l-260 -1475h-72l34 191q-67 -96 -166 -150.5t-214 -54.5q-185 0 -299 124.5t-114 341.5q0 123 37 234t103 194.5t163.5 133t211.5 49.5q142 0 245 -75.5t136 -203.5zM952 552q20 200 -70 321t-259 121q-132 0 -236 -75t-158.5 -197.5t-54.5 -266.5
q0 -184 95.5 -292t250.5 -108q179 0 295 139.5t137 357.5z" />
    <glyph glyph-name="e" unicode="e" horiz-adv-x="1104" 
d="M1002 509h-825q-3 -29 -3 -58q0 -181 94.5 -289t249.5 -108q107 0 202.5 52t155.5 151l58 -40q-67 -111 -178.5 -171.5t-239.5 -60.5q-187 0 -302 125.5t-115 335.5q0 165 62.5 305t182 226t272.5 86q180 0 288.5 -121.5t108.5 -320.5q0 -41 -11 -112zM613 994
q-111 0 -202.5 -58.5t-147.5 -152t-77 -209.5h751q1 15 1 41q0 175 -87 277t-238 102z" />
    <glyph glyph-name="f" unicode="f" horiz-adv-x="620" 
d="M642 1420q-85 0 -140.5 -54t-73.5 -155l-29 -162h278l-12 -67h-278l-173 -982h-72l173 982h-169l13 67h169l30 175q23 128 97.5 196.5t185.5 68.5q59 0 120 -22l-27 -60q-45 13 -92 13z" />
    <glyph glyph-name="g" unicode="g" horiz-adv-x="1207" 
d="M1043 1049h72l-169 -956q-82 -466 -491 -466q-283 0 -406 203l59 43q100 -179 350 -179q345 0 416 399l20 109q-64 -94 -164.5 -148t-217.5 -54q-185 0 -298 122t-113 337q0 166 62 302.5t180.5 219t271.5 82.5q148 0 248.5 -74t133.5 -201zM952 550q21 202 -65.5 322.5
t-263.5 120.5q-132 0 -235.5 -73t-158 -193t-54.5 -263q0 -184 94.5 -289t250.5 -105q180 0 295 132.5t137 347.5z" />
    <glyph glyph-name="h" unicode="h" horiz-adv-x="1147" 
d="M703 1063q138 0 224.5 -75t86.5 -200q0 -32 -6 -68l-126 -720h-72l125 711q7 42 7 63q0 102 -67.5 162t-181.5 60q-163 0 -275.5 -101.5t-137.5 -242.5l-116 -652h-72l260 1475h72l-106 -594q61 84 163.5 133t221.5 49z" />
    <glyph glyph-name="i" unicode="i" horiz-adv-x="443" 
d="M319 1307l30 168h80l-30 -168h-80zM92 0l186 1049h71l-185 -1049h-72z" />
    <glyph glyph-name="j" unicode="j" horiz-adv-x="442" 
d="M317 1307l29 168h82l-30 -168h-81zM-89 -370q-58 0 -119 24l25 62q44 -18 91 -18q132 0 162 179l206 1172h72l-210 -1189q-42 -230 -227 -230z" />
    <glyph glyph-name="k" unicode="k" horiz-adv-x="1009" 
d="M988 1049l-466 -445l339 -604h-79l-311 556l-253 -241l-55 -315h-72l260 1475h72l-185 -1053l656 627h94z" />
    <glyph glyph-name="l" unicode="l" horiz-adv-x="440" 
d="M91 0l260 1475h72l-260 -1475h-72z" />
    <glyph glyph-name="m" unicode="m" horiz-adv-x="1730" 
d="M1317 1063q129 0 204.5 -69t75.5 -189q0 -44 -7 -86l-126 -719h-71l124 707q7 41 7 84q0 97 -58.5 151t-161.5 54q-138 0 -244.5 -105t-130.5 -241l-116 -650h-72l125 707q7 41 7 84q0 97 -58 151t-161 54q-95 0 -178 -53.5t-133 -131t-64 -160.5l-115 -651h-72l186 1049
h71l-32 -172q22 31 52 60.5t73 59.5t101.5 48t122.5 18q123 0 195 -59.5t84 -153.5q54 84 149.5 148.5t222.5 64.5z" />
    <glyph glyph-name="n" unicode="n" horiz-adv-x="1147" 
d="M703 1063q138 0 224.5 -75t86.5 -200q0 -31 -6 -67l-126 -721h-72l125 711q7 42 7 63q0 102 -67.5 162t-181.5 60q-163 0 -275.5 -101.5t-137.5 -242.5l-116 -652h-72l184 1049h72l-30 -168q61 84 163.5 133t221.5 49z" />
    <glyph glyph-name="o" unicode="o" horiz-adv-x="1140" 
d="M515 -15q-188 0 -302.5 125.5t-114.5 335.5q0 123 37.5 234.5t104.5 196.5t167.5 135.5t218.5 50.5q188 0 302 -125.5t114 -335.5q0 -165 -63 -304.5t-185 -226t-279 -86.5zM517 54q102 0 188 45.5t143 121.5t88.5 174t31.5 203q0 181 -94 288.5t-250 107.5
q-102 0 -188.5 -45.5t-142.5 -121.5t-87.5 -173.5t-31.5 -202.5q0 -182 93.5 -289.5t249.5 -107.5z" />
    <glyph glyph-name="p" unicode="p" horiz-adv-x="1206" 
d="M694 1063q185 0 299 -125t114 -341q0 -165 -62.5 -303.5t-181.5 -223t-271 -84.5q-147 0 -247 72.5t-136 197.5l-109 -614h-71l247 1407h72l-33 -190q63 96 162 150t217 54zM584 55q132 0 235.5 75t158 197t54.5 266q0 184 -95.5 292.5t-250.5 108.5
q-180 0 -296.5 -140.5t-135.5 -356.5q-18 -203 68 -322.5t262 -119.5z" />
    <glyph glyph-name="q" unicode="q" horiz-adv-x="1206" 
d="M1042 1049h72l-248 -1407h-71l95 537q-64 -90 -163 -141.5t-215 -51.5q-185 0 -299 124.5t-114 341.5q0 165 62.5 303.5t181.5 223t271 84.5q148 0 248 -73t135 -199zM952 552q21 203 -65.5 322.5t-263.5 119.5q-132 0 -236 -75t-158.5 -197.5t-54.5 -266.5
q0 -184 95.5 -292t250.5 -108q180 0 296.5 140t135.5 357z" />
    <glyph glyph-name="r" unicode="r" horiz-adv-x="702" 
d="M666 1062q52 0 108 -13l-28 -70q-55 10 -92 10q-134 0 -243 -100t-143 -292l-104 -597h-72l184 1049h72l-31 -177q62 91 155 140.5t194 49.5z" />
    <glyph glyph-name="s" unicode="s" horiz-adv-x="965" 
d="M436 -14q-145 0 -248 60.5t-144 168.5l68 30q33 -88 119.5 -139t207.5 -51q141 0 232 65t91 175q0 91 -66.5 134.5t-213.5 71.5q-153 30 -235 94.5t-82 180.5q0 134 102 210.5t260 76.5q131 0 224.5 -54t138.5 -146l-65 -33q-37 75 -113.5 119t-186.5 44
q-124 0 -205 -56.5t-81 -155.5q0 -85 68 -136t201 -77q82 -16 136.5 -34.5t101.5 -48.5t69.5 -76.5t22.5 -111.5q0 -142 -113.5 -226.5t-288.5 -84.5z" />
    <glyph glyph-name="t" unicode="t" horiz-adv-x="695" 
d="M378 983l-133 -755q-5 -30 -5 -52q0 -124 126 -124q38 0 107 21l17 -64q-73 -23 -129 -23q-91 0 -142.5 47.5t-51.5 132.5q0 21 6 59l133 758h-149l12 66h149l50 281h71l-50 -281h252l-11 -66h-252z" />
    <glyph glyph-name="u" unicode="u" horiz-adv-x="1145" 
d="M982 1049h72l-185 -1049h-71l29 167q-61 -84 -163 -132.5t-220 -48.5q-138 0 -224 74.5t-86 199.5q0 32 6 67l126 722h72l-125 -710q-7 -45 -7 -66q0 -102 67.5 -162t181.5 -60q163 0 275 102t137 242z" />
    <glyph glyph-name="v" unicode="v" horiz-adv-x="959" 
d="M942 1049h84l-582 -1049h-76l-249 1049h78l221 -962z" />
    <glyph glyph-name="w" unicode="w" horiz-adv-x="1544" 
d="M1516 1049h82l-514 -1049h-79l-155 955l-483 -955h-81l-155 1049h77l131 -959l482 959h80l155 -958z" />
    <glyph glyph-name="x" unicode="x" horiz-adv-x="949" 
d="M940 1049l-427 -511l282 -538h-80l-251 487l-405 -487h-90l455 544l-262 505h79l234 -456l376 456h89z" />
    <glyph glyph-name="y" unicode="y" horiz-adv-x="907" 
d="M894 1049h80l-709 -1282q-42 -76 -86 -108t-104 -32q-54 0 -111 22l22 61q44 -18 87 -18q40 0 69.5 23t61.5 80l157 283l-242 971h75l216 -890z" />
    <glyph glyph-name="z" unicode="z" horiz-adv-x="1038" 
d="M49 0l11 61l781 921h-616l13 67h709l-11 -62l-780 -920h663l-11 -67h-759z" />
    <glyph glyph-name="braceleft" unicode="{" horiz-adv-x="827" 
d="M821 1525h80l-12 -69h-73q-104 0 -171.5 -58.5t-86.5 -166.5l-56 -322q-20 -112 -76.5 -172.5t-144.5 -81.5q62 -22 97 -77.5t35 -137.5q0 -28 -7 -73l-47 -261q-8 -50 -8 -83q0 -179 176 -179h78l-12 -68h-76q-117 0 -178 60.5t-61 177.5q0 50 8 94l45 256q7 46 7 72
q0 88 -47.5 137.5t-145.5 49.5l13 67q114 0 183 62.5t88 170.5l56 315q24 138 111 212.5t225 74.5z" />
    <glyph glyph-name="bar" unicode="|" horiz-adv-x="480" 
d="M72 -224l308 1749h74l-309 -1749h-73z" />
    <glyph glyph-name="braceright" unicode="}" horiz-adv-x="827" 
d="M534 864q0 -87 47.5 -136.5t144.5 -49.5l-12 -68q-114 0 -183.5 -62t-88.5 -170l-55 -316q-25 -138 -111.5 -212t-225.5 -74h-80l13 68h72q105 0 172 59t87 167l56 321q38 209 221 254q-61 22 -96 77.5t-35 137.5q0 38 7 74l45 260q8 50 8 84q0 178 -176 178h-78l13 69
h75q117 0 179 -61t62 -178q0 -44 -9 -93l-45 -256q-7 -45 -7 -73z" />
    <glyph glyph-name="asciitilde" unicode="~" 
d="M238 476l-57 35q68 99 134 143t140 44q59 0 101.5 -21.5t91.5 -61.5q29 -24 48.5 -37.5t49 -24.5t61.5 -11q54 0 102 34.5t106 118.5l55 -35q-69 -100 -133 -144t-137 -44q-58 0 -102 21.5t-91 61.5q-43 36 -78.5 55t-81.5 19q-54 0 -103 -35t-106 -118z" />
    <glyph glyph-name="uni00A0" unicode="&#xa0;" horiz-adv-x="534" 
 />
    <glyph glyph-name="exclamdown" unicode="&#xa1;" horiz-adv-x="499" 
d="M389 1049l-30 -168h-93l30 168h93zM306 706l-93 -613l-91 -519h-80l91 519l123 613h50z" />
    <glyph glyph-name="cent" unicode="&#xa2;" horiz-adv-x="1065" 
d="M700 1160l-83 -468l-75 -432q9 -1 29 -1q179 0 299 196l60 -37q-139 -228 -375 -228q-18 0 -26 1l-33 -191h-72l35 201q-141 31 -223 147.5t-82 287.5q0 155 59 286.5t171 215t257 92.5l34 193h71l-33 -193q107 -9 185.5 -64.5t116.5 -146.5l-66 -32q-67 156 -249 173z
M472 271l74 421l83 469q-166 -11 -283.5 -158.5t-117.5 -363.5q0 -145 64 -241.5t180 -126.5z" />
    <glyph glyph-name="sterling" unicode="&#xa3;" horiz-adv-x="1222" 
d="M786 1438q151 0 259 -59t152 -167l-68 -30q-35 89 -125 137t-219 48q-183 0 -286.5 -99t-103.5 -293q0 -54 24 -211h517l-12 -68h-497q5 -48 5 -87q0 -154 -60 -280.5t-189 -258.5h870l-13 -70h-969l12 72q142 139 207 260.5t65 274.5q0 39 -5 89h-190l12 68h169
q-24 157 -24 213q0 224 127 342.5t342 118.5z" />
    <glyph glyph-name="currency" unicode="&#xa4;" horiz-adv-x="1226" 
d="M1014 994q77 -108 77 -246q0 -95 -37 -182t-102 -155l128 -148l-55 -51l-129 148q-129 -98 -285 -98q-167 0 -286 114l-171 -154l-48 53l173 155q-77 109 -77 246q0 94 36.5 182t101.5 157l-127 146l55 51l128 -148q130 99 286 99q170 0 286 -114l171 153l48 -53z
M278 678q0 -146 96.5 -245t238.5 -99q106 0 199 56.5t148 151.5t55 202q0 147 -95.5 247.5t-239.5 100.5q-161 0 -281.5 -125t-120.5 -289z" />
    <glyph glyph-name="yen" unicode="&#xa5;" horiz-adv-x="1178" 
d="M1267 1423l-583 -713h371l-13 -67h-396l-42 -241h397l-12 -67h-396l-59 -335h-75l59 335h-396l12 67h395l42 241h-395l12 67h370l-330 713h76l319 -690l558 690h86z" />
    <glyph glyph-name="brokenbar" unicode="&#xa6;" horiz-adv-x="481" 
d="M246 768l134 757h74l-133 -757h-75zM72 -224l133 756h74l-134 -756h-73z" />
    <glyph glyph-name="section" unicode="&#xa7;" horiz-adv-x="1230" 
d="M707 911q57 -11 94 -20t87.5 -24.5t82 -36t61.5 -49.5t44.5 -69.5t14.5 -90.5q0 -104 -54 -185t-145 -127q99 -74 99 -205q0 -172 -131.5 -268t-338.5 -96q-178 0 -302 67t-166 182l70 33q32 -97 140 -154t261 -57q173 0 282 77.5t109 209.5q0 33 -7.5 60.5t-24.5 49.5
t-34.5 39t-48 31t-53.5 23.5t-62.5 19.5t-63.5 15.5t-67 13.5q-67 13 -112.5 25t-100 34.5t-87.5 51t-55.5 73.5t-22.5 102q0 103 60.5 181t162.5 122q-112 74 -112 211q0 110 62 188t162.5 114.5t228.5 36.5q142 0 252 -59.5t153 -160.5l-66 -32q-37 82 -129.5 131.5
t-211.5 49.5q-166 0 -270 -69.5t-104 -196.5q0 -35 10.5 -64.5t27 -50.5t44.5 -39.5t54 -30.5t65.5 -23t68.5 -18t73 -15zM817 352q91 40 145 108.5t54 154.5q0 33 -10.5 61t-25 48t-43 37.5t-51 28t-64 22t-66.5 17t-73 15.5q-135 27 -206 56q-101 -35 -162.5 -104
t-61.5 -158q0 -32 10.5 -59t24.5 -46t43 -36t51 -27t63 -21.5t65.5 -16.5t72.5 -15q149 -28 234 -65z" />
    <glyph glyph-name="dieresis" unicode="&#xa8;" horiz-adv-x="614" 
d="M2 1311l29 164h80l-29 -164h-80zM347 1311l29 164h80l-29 -164h-80z" />
    <glyph glyph-name="copyright" unicode="&#xa9;" horiz-adv-x="1806" 
d="M881 -17q-198 0 -358.5 89.5t-251 246t-90.5 348.5q0 169 64.5 321.5t174 263t261 175.5t319.5 65q199 0 359.5 -89.5t251 -246t90.5 -348.5q0 -225 -109.5 -415t-298 -300t-412.5 -110zM884 50q154 0 292.5 60t237.5 161.5t157 241.5t58 294q0 174 -81 315t-225.5 221.5
t-324.5 80.5q-154 0 -292.5 -60t-238 -161t-157.5 -241t-58 -294q0 -174 81.5 -315.5t226 -222t324.5 -80.5zM924 285q-168 0 -268.5 110.5t-100.5 294.5q0 102 30.5 193.5t86 161t140 110.5t185.5 41q229 0 321 -203l-60 -30q-78 170 -262 170q-114 0 -200.5 -63
t-129 -161.5t-42.5 -215.5q0 -157 82.5 -250.5t220.5 -93.5q177 0 286 185l57 -32q-70 -113 -153 -165t-193 -52z" />
    <glyph glyph-name="ordfeminine" unicode="&#xaa;" horiz-adv-x="703" 
d="M485 1483q107 0 171.5 -55.5t64.5 -146.5q0 -25 -6 -58l-75 -430h-66l19 101q-42 -50 -106.5 -81t-137.5 -31q-92 0 -147.5 49.5t-55.5 136.5q0 103 86.5 160t232.5 57h178l7 41q4 23 4 48q0 70 -46 111.5t-127 41.5q-116 0 -196 -88l-42 42q94 102 242 102zM617 1035
l17 94h-163q-122 0 -191 -39t-69 -120q0 -64 40 -98.5t110 -34.5q96 0 169 57.5t87 140.5z" />
    <glyph glyph-name="guillemotleft" unicode="&#xab;" horiz-adv-x="920" 
d="M337 215l-214 364l338 353l43 -42l-303 -319l189 -322zM684 215l-214 364l338 353l43 -42l-302 -319l188 -322z" />
    <glyph glyph-name="logicalnot" unicode="&#xac;" 
d="M877 201l59 337h-711l12 67h784l-72 -404h-72z" />
    <glyph glyph-name="uni00AD" unicode="&#xad;" horiz-adv-x="829" 
d="M168 538l11 67h500l-11 -67h-500z" />
    <glyph glyph-name="registered" unicode="&#xae;" horiz-adv-x="932" 
d="M588 1492q156 0 264.5 -101t108.5 -259q0 -173 -118.5 -292.5t-292.5 -119.5q-157 0 -265 100t-108 258q0 172 118.5 293t292.5 121zM550 772q151 0 252.5 104.5t101.5 255.5q0 136 -92 222t-224 86q-151 0 -253 -105.5t-102 -256.5q0 -136 92.5 -221t224.5 -85z
M639 1334q53 0 85.5 -31.5t32.5 -83.5t-33 -92t-86 -51l68 -188h-59l-63 185h-108l-34 -185h-54l79 446h172zM600 1121q45 0 73 27t28 67q0 34 -20.5 51.5t-56.5 17.5h-111l-29 -163h116z" />
    <glyph glyph-name="macron" unicode="&#xaf;" horiz-adv-x="614" 
d="M34 1296l11 63h528l-10 -63h-529z" />
    <glyph glyph-name="degree" unicode="&#xb0;" horiz-adv-x="879" 
d="M520 802q-135 0 -225 88.5t-90 224.5q0 153 109.5 262.5t263.5 109.5q135 0 225.5 -88.5t90.5 -224.5q0 -153 -109.5 -262.5t-264.5 -109.5zM523 868q125 0 212 90t87 214q0 109 -70.5 178.5t-177.5 69.5q-125 0 -212 -90t-87 -214q0 -109 70.5 -178.5t177.5 -69.5z" />
    <glyph glyph-name="plusminus" unicode="&#xb1;" 
d="M691 757h376l-11 -68h-377l-65 -364h-72l64 364h-376l12 68h376l67 379h73zM113 104l11 68h856l-11 -68h-856z" />
    <glyph glyph-name="two.sups" unicode="&#xb2;" horiz-adv-x="782" 
d="M575 1148l-306 -297h488l-11 -59h-585l10 54l356 345q131 127 174 188.5t43 120.5q0 73 -51.5 119.5t-132.5 46.5q-86 0 -152.5 -52.5t-101.5 -149.5l-61 20q44 119 127.5 180.5t191.5 61.5q109 0 178.5 -62t69.5 -161q0 -72 -49.5 -147t-187.5 -208z" />
    <glyph glyph-name="three.sups" unicode="&#xb3;" horiz-adv-x="763" 
d="M632 1265q65 -25 101.5 -78t36.5 -127q0 -122 -87 -200t-225 -78q-115 0 -190.5 56t-101.5 156l61 21q21 -83 81 -127.5t153 -44.5q107 0 174 62t67 157q0 81 -51.5 128.5t-139.5 47.5h-58l11 56h43q102 0 167 59.5t65 149.5q0 76 -49 120t-133 44q-170 0 -244 -177
l-61 24q44 103 123.5 157.5t186.5 54.5q111 0 178.5 -59.5t67.5 -159.5q0 -85 -47.5 -148t-128.5 -94z" />
    <glyph glyph-name="acute" unicode="&#xb4;" horiz-adv-x="614" 
d="M140 1238l225 275h85l-238 -275h-72z" />
    <glyph glyph-name="uni00B5" unicode="&#xb5;" horiz-adv-x="1156" 
d="M992 1049h72l-184 -1049h-72l31 170q-70 -89 -168.5 -136.5t-215.5 -47.5q-95 0 -166.5 38.5t-102.5 105.5l-93 -529h-71l254 1448h72l-125 -710q-7 -36 -7 -66q0 -102 67.5 -162t181.5 -60q163 0 275.5 102t137.5 242z" />
    <glyph glyph-name="paragraph" unicode="&#xb6;" horiz-adv-x="963" 
d="M423 0l157 886h-12q-130 0 -210 77t-80 201q0 141 103 226t267 85h109l-260 -1475h-74zM594 0l260 1475h74l-260 -1475h-74z" />
    <glyph glyph-name="periodcentered" unicode="&#xb7;" horiz-adv-x="470" 
d="M186 524l30 169h97l-29 -169h-98z" />
    <glyph glyph-name="cedilla" unicode="&#xb8;" horiz-adv-x="614" 
d="M216 -313l129 313h67l-128 -313h-68z" />
    <glyph glyph-name="one.sups" unicode="&#xb9;" horiz-adv-x="584" 
d="M603 1717l-163 -925h-66l147 836l-222 -175l-34 43l279 221h59z" />
    <glyph glyph-name="ordmasculine" unicode="&#xba;" horiz-adv-x="756" 
d="M453 783q-126 0 -203 83.5t-77 220.5q0 171 98 284t248 113q126 0 203 -83.5t77 -220.5q0 -171 -98 -284t-248 -113zM454 843q119 0 198 96t79 239q0 113 -58 179.5t-156 66.5q-119 0 -198 -95.5t-79 -237.5q0 -114 58 -181t156 -67z" />
    <glyph glyph-name="guillemotright" unicode="&#xbb;" horiz-adv-x="920" 
d="M253 932l215 -364l-338 -353l-43 42l302 318l-188 323zM601 932l214 -364l-338 -353l-43 42l302 318l-188 323z" />
    <glyph glyph-name="onequarter" unicode="&#xbc;" horiz-adv-x="1668" 
d="M332 549l147 837l-222 -176l-34 43l279 222h59l-163 -926h-66zM1392 1475h76l-1122 -1475h-77zM1580 273l-11 -59h-135l-38 -214h-67l38 214h-465l9 56l572 656h76l-115 -653h136zM990 273h387l100 565z" />
    <glyph glyph-name="onehalf" unicode="&#xbd;" horiz-adv-x="1764" 
d="M332 549l147 837l-222 -176l-35 43l280 222h58l-163 -926h-65zM1389 1475h77l-1123 -1475h-77zM1417 356l-306 -297h488l-11 -59h-586l11 54l356 345q131 125 174 187.5t43 121.5q0 74 -51 120t-133 46q-86 0 -152.5 -52t-101.5 -149l-62 19q44 119 128 181t192 62
q109 0 178.5 -62t69.5 -161q0 -72 -49.5 -147.5t-187.5 -208.5z" />
    <glyph glyph-name="threequarters" unicode="&#xbe;" horiz-adv-x="1781" 
d="M729 819q0 -122 -87.5 -199.5t-225.5 -77.5q-116 0 -191.5 56t-100.5 156l61 19q21 -83 81 -126.5t153 -43.5q108 0 174.5 61.5t66.5 156.5q0 80 -52 128t-139 48h-58l10 56h44q101 0 166 59t65 150q0 77 -48.5 120t-132.5 43q-171 0 -245 -176l-60 24q44 103 123 158
t186 55q112 0 179 -59.5t67 -160.5q0 -85 -46.5 -148.5t-129.5 -93.5q65 -25 102.5 -78.5t37.5 -126.5zM1503 1475h77l-1122 -1475h-77zM1694 273l-12 -59h-135l-38 -214h-66l38 214h-465l9 56l571 656h76l-114 -653h136zM1104 273h387l99 565z" />
    <glyph glyph-name="questiondown" unicode="&#xbf;" horiz-adv-x="1028" 
d="M686 1049l-30 -169h-95l30 169h95zM614 706l-26 -154q-22 -129 -80.5 -211t-177.5 -152q-127 -75 -185.5 -148.5t-58.5 -165.5q0 -109 79.5 -176.5t206.5 -67.5q125 0 224 70.5t156 196.5l63 -29q-65 -149 -181 -228t-267 -79q-158 0 -257.5 85.5t-99.5 222.5
q0 113 65 201t205 173q112 68 164.5 137.5t72.5 182.5l25 142h72z" />
    <glyph glyph-name="Agrave" unicode="&#xc0;" horiz-adv-x="1361" 
d="M904 1593h-69l-237 276h83zM1120 0l-101 470h-695l-259 -470h-88l819 1475h82l322 -1475h-80zM364 542h640l-181 832z" />
    <glyph glyph-name="Aacute" unicode="&#xc1;" horiz-adv-x="1361" 
d="M1070 1869l-237 -276h-71l224 276h84zM1120 0l-101 470h-695l-259 -470h-88l819 1475h82l322 -1475h-80zM364 542h640l-181 832z" />
    <glyph glyph-name="Acircumflex" unicode="&#xc2;" horiz-adv-x="1361" 
d="M895 1802l-225 -209h-82l276 266h73l185 -266h-71zM1120 0l-101 470h-695l-259 -470h-88l819 1475h82l322 -1475h-80zM364 542h640l-181 832z" />
    <glyph glyph-name="Atilde" unicode="&#xc3;" horiz-adv-x="1361" 
d="M730 1717q-80 0 -158 -108l-48 37q101 136 209 136q63 0 147 -58q71 -52 120 -52q77 0 154 109l48 -37q-102 -136 -205 -136q-64 0 -147 59q-70 50 -120 50zM796 1475h82l322 -1475h-80l-101 470h-695l-259 -470h-88zM364 542h640l-181 832z" />
    <glyph glyph-name="Adieresis" unicode="&#xc4;" horiz-adv-x="1361" 
d="M733 1804l-30 -165h-79l29 165h80zM1129 1804l-28 -165h-80l30 165h78zM1120 0l-101 470h-695l-259 -470h-88l819 1475h82l322 -1475h-80zM364 542h640l-181 832z" />
    <glyph glyph-name="Aring" unicode="&#xc5;" horiz-adv-x="1361" 
d="M857 1578q-80 0 -129.5 49t-49.5 125q0 89 58.5 147.5t145.5 58.5q80 0 129.5 -49.5t49.5 -125.5q0 -89 -59 -147t-145 -58zM880 1904q-62 0 -104 -41.5t-42 -105.5q0 -55 34 -90.5t90 -35.5q61 0 103.5 43t42.5 106q0 54 -34 89t-90 35zM1120 0l-101 470h-695l-259 -470
h-88l819 1475h82l322 -1475h-80zM364 542h640l-181 832z" />
    <glyph glyph-name="AE" unicode="&#xc6;" horiz-adv-x="2024" 
d="M2081 1403h-811l-110 -619h748l-13 -71h-747l-113 -641h818l-12 -72h-896l83 470h-583l-376 -470h-97l1187 1475h935zM1040 542l152 861l-689 -861h537z" />
    <glyph glyph-name="Ccedilla" unicode="&#xc7;" horiz-adv-x="1452" 
d="M883 1417q-119 0 -223 -42t-181 -117t-132 -174.5t-83 -217.5t-28 -244q0 -259 136 -412t358 -153q167 0 288 80.5t218 237.5l66 -38q-103 -166 -234 -255t-309 -96l-123 -299h-68l122 299q-244 12 -388.5 182t-144.5 447q0 178 51 336.5t143 278.5t231 190t305 70
q190 0 319.5 -93.5t190.5 -262.5l-68 -29q-115 312 -446 312z" />
    <glyph glyph-name="Egrave" unicode="&#xc8;" horiz-adv-x="1231" 
d="M914 1593h-69l-237 276h83zM1287 1403h-852l-108 -619h785l-13 -71h-786l-112 -641h860l-13 -72h-937l260 1475h929z" />
    <glyph glyph-name="Eacute" unicode="&#xc9;" horiz-adv-x="1231" 
d="M1080 1869l-237 -276h-71l224 276h84zM1287 1403h-852l-108 -619h785l-13 -71h-786l-112 -641h860l-13 -72h-937l260 1475h929z" />
    <glyph glyph-name="Ecircumflex" unicode="&#xca;" horiz-adv-x="1231" 
d="M905 1802l-225 -209h-82l276 266h73l186 -266h-72zM1287 1403h-852l-108 -619h785l-13 -71h-786l-112 -641h860l-13 -72h-937l260 1475h929z" />
    <glyph glyph-name="Edieresis" unicode="&#xcb;" horiz-adv-x="1231" 
d="M744 1804l-29 -165h-80l30 165h79zM1141 1804l-29 -165h-80l30 165h79zM1287 1403h-852l-108 -619h785l-13 -71h-786l-112 -641h860l-13 -72h-937l260 1475h929z" />
    <glyph glyph-name="Igrave" unicode="&#xcc;" horiz-adv-x="482" 
d="M409 1593l-237 276h83l223 -276h-69zM111 0l260 1475h76l-260 -1475h-76z" />
    <glyph glyph-name="Iacute" unicode="&#xcd;" horiz-adv-x="482" 
d="M336 1593l224 276h84l-237 -276h-71zM111 0l260 1475h76l-260 -1475h-76z" />
    <glyph glyph-name="Icircumflex" unicode="&#xce;" horiz-adv-x="482" 
d="M696 1593h-71l-156 209l-225 -209h-82l276 266h73zM111 0l260 1475h76l-260 -1475h-76z" />
    <glyph glyph-name="Idieresis" unicode="&#xcf;" horiz-adv-x="482" 
d="M199 1639l29 165h80l-29 -165h-80zM596 1639l30 165h79l-29 -165h-80zM111 0l260 1475h76l-260 -1475h-76z" />
    <glyph glyph-name="Eth" unicode="&#xd0;" horiz-adv-x="1424" 
d="M765 1475q266 0 422 -163.5t156 -448.5q0 -177 -50.5 -333.5t-143 -274.5t-232 -186.5t-306.5 -68.5h-501l123 703h-162l12 68h163l124 704h395zM614 72q149 0 273.5 64t206 172.5t126.5 250.5t45 299q0 255 -136 400t-362 145h-333l-111 -632h459l-11 -68h-460
l-111 -631h414z" />
    <glyph glyph-name="Ntilde" unicode="&#xd1;" horiz-adv-x="1443" 
d="M784 1717q-79 0 -157 -108l-48 37q101 136 208 136q63 0 147 -58q71 -52 121 -52q76 0 153 109l48 -37q-102 -136 -204 -136q-65 0 -148 59q-70 50 -120 50zM1332 1475h77l-260 -1475h-95l-625 1367l-242 -1367h-76l260 1475h91l629 -1367z" />
    <glyph glyph-name="Ograve" unicode="&#xd2;" horiz-adv-x="1544" 
d="M895 1592l-237 276h83l224 -276h-70zM730 -16q-261 0 -417 171t-156 460q0 178 51 336.5t143.5 278.5t231.5 190.5t306 70.5q261 0 417.5 -170.5t156.5 -457.5q0 -177 -51 -336t-143 -280t-232 -192t-307 -71zM733 57q120 0 225 43t182 118.5t132.5 176.5t83.5 219
t28 244q0 257 -136.5 408t-361.5 151q-149 0 -273.5 -65t-205.5 -175t-126 -253.5t-45 -302.5q0 -259 136.5 -411.5t360.5 -152.5z" />
    <glyph glyph-name="Oacute" unicode="&#xd3;" horiz-adv-x="1544" 
d="M822 1592l225 276h83l-237 -276h-71zM730 -16q-261 0 -417 171t-156 460q0 178 51 336.5t143.5 278.5t231.5 190.5t306 70.5q261 0 417.5 -170.5t156.5 -457.5q0 -177 -51 -336t-143 -280t-232 -192t-307 -71zM733 57q120 0 225 43t182 118.5t132.5 176.5t83.5 219
t28 244q0 257 -136.5 408t-361.5 151q-149 0 -273.5 -65t-205.5 -175t-126 -253.5t-45 -302.5q0 -259 136.5 -411.5t360.5 -152.5z" />
    <glyph glyph-name="Ocircumflex" unicode="&#xd4;" horiz-adv-x="1544" 
d="M955 1801l-225 -209h-82l277 266h72l186 -266h-72zM889 1491q261 0 417.5 -170.5t156.5 -457.5q0 -177 -51 -336t-143 -280t-232 -192t-307 -71q-261 0 -417 171t-156 460q0 178 51 336.5t143.5 278.5t231.5 190.5t306 70.5zM733 57q120 0 225 43t182 118.5t132.5 176.5
t83.5 219t28 244q0 257 -136.5 408t-361.5 151q-149 0 -273.5 -65t-205.5 -175t-126 -253.5t-45 -302.5q0 -259 136.5 -411.5t360.5 -152.5z" />
    <glyph glyph-name="Otilde" unicode="&#xd5;" horiz-adv-x="1544" 
d="M633 1608l-48 37q101 136 209 136q62 0 146 -58q71 -52 121 -52q76 0 153 109l49 -37q-102 -136 -205 -136q-65 0 -148 59q-70 50 -119 50q-80 0 -158 -108zM730 -16q-261 0 -417 171t-156 460q0 178 51 336.5t143.5 278.5t231.5 190.5t306 70.5q261 0 417.5 -170.5
t156.5 -457.5q0 -177 -51 -336t-143 -280t-232 -192t-307 -71zM733 57q120 0 225 43t182 118.5t132.5 176.5t83.5 219t28 244q0 257 -136.5 408t-361.5 151q-149 0 -273.5 -65t-205.5 -175t-126 -253.5t-45 -302.5q0 -259 136.5 -411.5t360.5 -152.5z" />
    <glyph glyph-name="Odieresis" unicode="&#xd6;" horiz-adv-x="1544" 
d="M684 1638l30 165h80l-30 -165h-80zM1081 1638l30 165h79l-29 -165h-80zM730 -16q-261 0 -417 171t-156 460q0 178 51 336.5t143.5 278.5t231.5 190.5t306 70.5q261 0 417.5 -170.5t156.5 -457.5q0 -177 -51 -336t-143 -280t-232 -192t-307 -71zM733 57q120 0 225 43
t182 118.5t132.5 176.5t83.5 219t28 244q0 257 -136.5 408t-361.5 151q-149 0 -273.5 -65t-205.5 -175t-126 -253.5t-45 -302.5q0 -259 136.5 -411.5t360.5 -152.5z" />
    <glyph glyph-name="multiply" unicode="&#xd7;" 
d="M994 842l-326 -276l232 -282l-52 -43l-232 281l-327 -276l-42 53l326 275l-228 278l53 42l227 -276l326 276z" />
    <glyph glyph-name="Oslash" unicode="&#xd8;" horiz-adv-x="1544" 
d="M1525 1477l-182 -201q120 -164 120 -413q0 -178 -50.5 -337t-143 -279.5t-232 -191.5t-307.5 -71q-253 0 -407 160l-172 -191l-55 47l180 201q-119 162 -119 414q0 178 51 336.5t143.5 278.5t231.5 190.5t306 70.5q251 0 408 -160l172 192zM886 1417q-149 0 -273.5 -65
t-205.5 -175t-126 -253.5t-45 -302.5q0 -214 96 -360l910 1011q-136 145 -356 145zM733 57q120 0 225 43t182 118.5t132.5 176.5t83.5 219t28 244q0 212 -97 356l-910 -1010q138 -147 356 -147z" />
    <glyph glyph-name="Ugrave" unicode="&#xd9;" horiz-adv-x="1403" 
d="M869 1593l-236 276h83l223 -276h-70zM632 -15q-211 0 -338.5 112.5t-127.5 301.5q0 60 9 111l169 965h78l-170 -960q-9 -57 -9 -106q0 -161 107 -256.5t286 -95.5q207 0 340.5 119.5t171.5 338.5l169 960h78l-171 -975q-44 -248 -197 -381.5t-395 -133.5z" />
    <glyph glyph-name="Uacute" unicode="&#xda;" horiz-adv-x="1403" 
d="M797 1593l224 276h84l-238 -276h-70zM632 -15q-211 0 -338.5 112.5t-127.5 301.5q0 60 9 111l169 965h78l-170 -960q-9 -57 -9 -106q0 -161 107 -256.5t286 -95.5q207 0 340.5 119.5t171.5 338.5l169 960h78l-171 -975q-44 -248 -197 -381.5t-395 -133.5z" />
    <glyph glyph-name="Ucircumflex" unicode="&#xdb;" horiz-adv-x="1403" 
d="M929 1802l-226 -209h-81l276 266h73l185 -266h-72zM1317 1475h78l-171 -975q-44 -248 -197 -381.5t-395 -133.5q-211 0 -338.5 112.5t-127.5 301.5q0 60 9 111l169 965h78l-170 -960q-9 -57 -9 -106q0 -161 107 -256.5t286 -95.5q207 0 340.5 119.5t171.5 338.5z" />
    <glyph glyph-name="Udieresis" unicode="&#xdc;" horiz-adv-x="1403" 
d="M658 1639l30 165h80l-30 -165h-80zM1056 1639l29 165h79l-28 -165h-80zM632 -15q-211 0 -338.5 112.5t-127.5 301.5q0 60 9 111l169 965h78l-170 -960q-9 -57 -9 -106q0 -161 107 -256.5t286 -95.5q207 0 340.5 119.5t171.5 338.5l169 960h78l-171 -975
q-44 -248 -197 -381.5t-395 -133.5z" />
    <glyph glyph-name="Yacute" unicode="&#xdd;" horiz-adv-x="1173" 
d="M974 1869l-238 -276h-70l224 276h84zM1204 1475h88l-650 -850l-110 -625h-76l110 625l-348 850h77l318 -784z" />
    <glyph glyph-name="Thorn" unicode="&#xde;" horiz-adv-x="1227" 
d="M835 1172q161 0 256.5 -92t95.5 -256q0 -204 -130.5 -337t-337.5 -133h-469l-63 -354h-76l260 1475h76l-53 -303h441zM720 426q173 0 280.5 111t107.5 280q0 135 -77 209.5t-208 74.5h-441l-120 -675h458z" />
    <glyph glyph-name="germandbls" unicode="&#xdf;" horiz-adv-x="1124" 
d="M793 812q95 -29 152 -125t57 -232q0 -211 -123.5 -338t-329.5 -127q-119 0 -206 30l22 64q78 -29 185 -29q172 0 276.5 110.5t104.5 292.5q0 148 -72.5 235.5t-201.5 87.5h-130l12 66h121q133 0 219.5 91.5t86.5 221.5q0 117 -76 189.5t-204 72.5q-133 0 -221.5 -82
t-114.5 -230l-195 -1111h-72l199 1133q30 170 137 263.5t270 93.5q158 0 255 -90.5t97 -232.5q0 -122 -71 -222t-177 -132z" />
    <glyph glyph-name="agrave" unicode="&#xe0;" horiz-adv-x="1064" 
d="M674 1238h-70l-237 275h84zM578 1063q160 0 252 -84.5t92 -224.5q0 -42 -8 -87l-117 -667h-72l30 166q-57 -81 -158.5 -130.5t-219.5 -49.5q-143 0 -228.5 75t-85.5 206q0 162 135 248.5t372 86.5h261l11 63q7 39 7 77q0 116 -73 184.5t-202 68.5q-188 0 -314 -152
l-50 47q145 173 368 173zM793 381l27 156h-241q-209 0 -325.5 -66.5t-116.5 -200.5q0 -103 65.5 -160.5t176.5 -57.5q156 0 273 95.5t141 233.5z" />
    <glyph glyph-name="aacute" unicode="&#xe1;" horiz-adv-x="1064" 
d="M861 1513l-237 -275h-72l224 275h85zM578 1063q160 0 252 -84.5t92 -224.5q0 -42 -8 -87l-117 -667h-72l30 166q-57 -81 -158.5 -130.5t-219.5 -49.5q-143 0 -228.5 75t-85.5 206q0 162 135 248.5t372 86.5h261l11 63q7 39 7 77q0 116 -73 184.5t-202 68.5
q-188 0 -314 -152l-50 47q145 173 368 173zM793 381l27 156h-241q-209 0 -325.5 -66.5t-116.5 -200.5q0 -103 65.5 -160.5t176.5 -57.5q156 0 273 95.5t141 233.5z" />
    <glyph glyph-name="acircumflex" unicode="&#xe2;" horiz-adv-x="1064" 
d="M675 1444l-226 -208h-81l275 264h74l185 -264h-73zM578 1063q160 0 252 -84.5t92 -224.5q0 -42 -8 -87l-117 -667h-72l30 166q-57 -81 -158.5 -130.5t-219.5 -49.5q-143 0 -228.5 75t-85.5 206q0 162 135 248.5t372 86.5h261l11 63q7 39 7 77q0 116 -73 184.5t-202 68.5
q-188 0 -314 -152l-50 47q145 173 368 173zM793 381l27 156h-241q-209 0 -325.5 -66.5t-116.5 -200.5q0 -103 65.5 -160.5t176.5 -57.5q156 0 273 95.5t141 233.5z" />
    <glyph glyph-name="atilde" unicode="&#xe3;" horiz-adv-x="1064" 
d="M936 1447l48 -37q-102 -136 -205 -136q-41 0 -74 15t-73 44q-70 50 -120 50q-80 0 -158 -108l-48 37q101 136 208 136q67 0 148 -58q71 -52 120 -52q76 0 154 109zM578 1063q160 0 252 -84.5t92 -224.5q0 -42 -8 -87l-117 -667h-72l30 166q-57 -81 -158.5 -130.5
t-219.5 -49.5q-143 0 -228.5 75t-85.5 206q0 162 135 248.5t372 86.5h261l11 63q7 39 7 77q0 116 -73 184.5t-202 68.5q-188 0 -314 -152l-50 47q145 173 368 173zM793 381l27 156h-241q-209 0 -325.5 -66.5t-116.5 -200.5q0 -103 65.5 -160.5t176.5 -57.5q156 0 273 95.5
t141 233.5z" />
    <glyph glyph-name="adieresis" unicode="&#xe4;" horiz-adv-x="1064" 
d="M545 1475l-29 -164h-80l29 164h80zM890 1475l-29 -164h-80l29 164h80zM578 1063q160 0 252 -84.5t92 -224.5q0 -42 -8 -87l-117 -667h-72l30 166q-57 -81 -158.5 -130.5t-219.5 -49.5q-143 0 -228.5 75t-85.5 206q0 162 135 248.5t372 86.5h261l11 63q7 39 7 77
q0 116 -73 184.5t-202 68.5q-188 0 -314 -152l-50 47q145 173 368 173zM793 381l27 156h-241q-209 0 -325.5 -66.5t-116.5 -200.5q0 -103 65.5 -160.5t176.5 -57.5q156 0 273 95.5t141 233.5z" />
    <glyph glyph-name="aring" unicode="&#xe5;" horiz-adv-x="1064" 
d="M635 1218q-80 0 -129.5 49.5t-49.5 125.5q0 89 58 146.5t145 57.5q80 0 130 -49.5t50 -124.5q0 -89 -59 -147t-145 -58zM657 1543q-61 0 -103 -41t-42 -104q0 -56 34 -91t90 -35q61 0 103 42t42 105q0 55 -34 89.5t-90 34.5zM578 1063q160 0 252 -84.5t92 -224.5
q0 -42 -8 -87l-117 -667h-72l30 166q-57 -81 -158.5 -130.5t-219.5 -49.5q-143 0 -228.5 75t-85.5 206q0 162 135 248.5t372 86.5h261l11 63q7 39 7 77q0 116 -73 184.5t-202 68.5q-188 0 -314 -152l-50 47q145 173 368 173zM793 381l27 156h-241q-209 0 -325.5 -66.5
t-116.5 -200.5q0 -103 65.5 -160.5t176.5 -57.5q156 0 273 95.5t141 233.5z" />
    <glyph glyph-name="ae" unicode="&#xe6;" horiz-adv-x="1745" 
d="M1287 1063q166 0 266 -120t100 -318q0 -46 -8 -116h-780q-4 -25 -4 -64q0 -178 89.5 -284.5t236.5 -106.5q98 0 185.5 51.5t145.5 149.5l57 -38q-66 -111 -169.5 -171t-220.5 -60q-145 0 -245 86.5t-129 241.5l-7 -24q-46 -132 -164 -218t-278 -86q-136 0 -218 72
t-82 196q0 86 37.5 149.5t106 100t155 53.5t195.5 17h247l14 91q7 45 7 80q0 115 -69 183t-191 68q-187 0 -307 -150l-48 46q138 171 358 171q136 0 221 -71.5t96 -193.5q65 121 169.5 193t233.5 72zM874 574h703q1 17 1 46q0 173 -78.5 273.5t-214.5 100.5
q-157 0 -267 -120.5t-144 -299.5zM767 380l26 129h-231q-426 0 -426 -251q0 -96 62.5 -151t166.5 -55q157 0 266 94t136 234z" />
    <glyph glyph-name="ccedilla" unicode="&#xe7;" horiz-adv-x="1046" 
d="M616 994q-100 0 -184.5 -45.5t-139.5 -121.5t-86 -174t-31 -203q0 -180 93.5 -287.5t245.5 -107.5q99 0 183.5 50.5t143.5 150.5l61 -37q-133 -220 -363 -232l-123 -300h-68l124 301q-168 14 -270.5 137.5t-102.5 320.5q0 123 37 235t102.5 196.5t164.5 135t215 50.5
q129 0 220 -56.5t137 -161.5l-66 -30q-37 86 -112.5 132.5t-180.5 46.5z" />
    <glyph glyph-name="egrave" unicode="&#xe8;" horiz-adv-x="1104" 
d="M693 1238h-69l-238 275h84zM1002 509h-825q-3 -29 -3 -58q0 -181 94.5 -289t249.5 -108q107 0 202.5 52t155.5 151l58 -40q-67 -111 -178.5 -171.5t-239.5 -60.5q-187 0 -302 125.5t-115 335.5q0 165 62.5 305t182 226t272.5 86q180 0 288.5 -121.5t108.5 -320.5
q0 -41 -11 -112zM613 994q-111 0 -202.5 -58.5t-147.5 -152t-77 -209.5h751q1 15 1 41q0 175 -87 277t-238 102z" />
    <glyph glyph-name="eacute" unicode="&#xe9;" horiz-adv-x="1104" 
d="M882 1513l-238 -275h-72l225 275h85zM1002 509h-825q-3 -29 -3 -58q0 -181 94.5 -289t249.5 -108q107 0 202.5 52t155.5 151l58 -40q-67 -111 -178.5 -171.5t-239.5 -60.5q-187 0 -302 125.5t-115 335.5q0 165 62.5 305t182 226t272.5 86q180 0 288.5 -121.5
t108.5 -320.5q0 -41 -11 -112zM613 994q-111 0 -202.5 -58.5t-147.5 -152t-77 -209.5h751q1 15 1 41q0 175 -87 277t-238 102z" />
    <glyph glyph-name="ecircumflex" unicode="&#xea;" horiz-adv-x="1104" 
d="M695 1444l-226 -208h-81l276 264h73l186 -264h-73zM1002 509h-825q-3 -29 -3 -58q0 -181 94.5 -289t249.5 -108q107 0 202.5 52t155.5 151l58 -40q-67 -111 -178.5 -171.5t-239.5 -60.5q-187 0 -302 125.5t-115 335.5q0 165 62.5 305t182 226t272.5 86
q180 0 288.5 -121.5t108.5 -320.5q0 -41 -11 -112zM613 994q-111 0 -202.5 -58.5t-147.5 -152t-77 -209.5h751q1 15 1 41q0 175 -87 277t-238 102z" />
    <glyph glyph-name="edieresis" unicode="&#xeb;" horiz-adv-x="1104" 
d="M565 1475l-28 -164h-80l28 164h80zM910 1475l-28 -164h-80l28 164h80zM1002 509h-825q-3 -29 -3 -58q0 -181 94.5 -289t249.5 -108q107 0 202.5 52t155.5 151l58 -40q-67 -111 -178.5 -171.5t-239.5 -60.5q-187 0 -302 125.5t-115 335.5q0 165 62.5 305t182 226t272.5 86
q180 0 288.5 -121.5t108.5 -320.5q0 -41 -11 -112zM613 994q-111 0 -202.5 -58.5t-147.5 -152t-77 -209.5h751q1 15 1 41q0 175 -87 277t-238 102z" />
    <glyph glyph-name="igrave" unicode="&#xec;" horiz-adv-x="440" 
d="M314 1238l-237 275h84l223 -275h-70zM91 0l185 1049h72l-185 -1049h-72z" />
    <glyph glyph-name="iacute" unicode="&#xed;" horiz-adv-x="440" 
d="M262 1238l224 275h85l-237 -275h-72zM91 0l185 1049h72l-185 -1049h-72z" />
    <glyph glyph-name="icircumflex" unicode="&#xee;" horiz-adv-x="440" 
d="M612 1236h-72l-155 208l-226 -208h-81l275 264h74zM91 0l185 1049h72l-185 -1049h-72z" />
    <glyph glyph-name="idieresis" unicode="&#xef;" horiz-adv-x="440" 
d="M219 1311l29 164h81l-29 -164h-81zM418 1311l28 164h81l-28 -164h-81zM91 0l185 1049h72l-185 -1049h-72z" />
    <glyph glyph-name="eth" unicode="&#xf0;" horiz-adv-x="1130" 
d="M782 1314q121 -131 185.5 -311t64.5 -387q0 -277 -146 -453.5t-373 -176.5q-186 0 -300.5 125.5t-114.5 333.5q0 163 62 302t181 225.5t270 86.5q105 0 189 -46t134 -127q-23 104 -78.5 207.5t-137.5 189.5l-269 -126l-20 48l250 117q-75 69 -162 117l35 52
q104 -54 191 -138l230 107l20 -47zM515 55q134 0 237 78t155 200t52 262q0 178 -94.5 286t-248.5 108q-102 0 -187 -45.5t-140 -121.5t-85.5 -172.5t-30.5 -200.5q0 -179 94 -286.5t248 -107.5z" />
    <glyph glyph-name="ntilde" unicode="&#xf1;" horiz-adv-x="1147" 
d="M590 1383q-80 0 -158 -108l-48 37q101 136 208 136q66 0 147 -58q71 -52 121 -52q76 0 154 109l48 -37q-102 -136 -205 -136q-41 0 -74 15t-73 44q-70 50 -120 50zM703 1063q138 0 224.5 -75t86.5 -200q0 -31 -6 -67l-126 -721h-72l125 711q7 42 7 63q0 102 -67.5 162
t-181.5 60q-163 0 -275.5 -101.5t-137.5 -242.5l-116 -652h-72l184 1049h72l-30 -168q61 84 163.5 133t221.5 49z" />
    <glyph glyph-name="ograve" unicode="&#xf2;" horiz-adv-x="1140" 
d="M626 1238l-238 275h84l223 -275h-69zM515 -15q-188 0 -302.5 125.5t-114.5 335.5q0 123 37.5 234.5t104.5 196.5t167.5 135.5t218.5 50.5q188 0 302 -125.5t114 -335.5q0 -165 -63 -304.5t-185 -226t-279 -86.5zM517 54q102 0 188 45.5t143 121.5t88.5 174t31.5 203
q0 181 -94 288.5t-250 107.5q-102 0 -188.5 -45.5t-142.5 -121.5t-87.5 -173.5t-31.5 -202.5q0 -182 93.5 -289.5t249.5 -107.5z" />
    <glyph glyph-name="oacute" unicode="&#xf3;" horiz-adv-x="1140" 
d="M573 1238l225 275h85l-238 -275h-72zM515 -15q-188 0 -302.5 125.5t-114.5 335.5q0 123 37.5 234.5t104.5 196.5t167.5 135.5t218.5 50.5q188 0 302 -125.5t114 -335.5q0 -165 -63 -304.5t-185 -226t-279 -86.5zM517 54q102 0 188 45.5t143 121.5t88.5 174t31.5 203
q0 181 -94 288.5t-250 107.5q-102 0 -188.5 -45.5t-142.5 -121.5t-87.5 -173.5t-31.5 -202.5q0 -182 93.5 -289.5t249.5 -107.5z" />
    <glyph glyph-name="ocircumflex" unicode="&#xf4;" horiz-adv-x="1140" 
d="M696 1444l-226 -208h-81l276 264h73l186 -264h-73zM626 1063q188 0 302 -125.5t114 -335.5q0 -165 -63 -304.5t-185 -226t-279 -86.5q-188 0 -302.5 125.5t-114.5 335.5q0 123 37.5 234.5t104.5 196.5t167.5 135.5t218.5 50.5zM517 54q102 0 188 45.5t143 121.5t88.5 174
t31.5 203q0 181 -94 288.5t-250 107.5q-102 0 -188.5 -45.5t-142.5 -121.5t-87.5 -173.5t-31.5 -202.5q0 -182 93.5 -289.5t249.5 -107.5z" />
    <glyph glyph-name="otilde" unicode="&#xf5;" horiz-adv-x="1140" 
d="M376 1275l-48 37q101 136 208 136q66 0 147 -58q71 -52 121 -52q75 0 153 109l49 -37q-102 -136 -205 -136q-65 0 -148 59q-70 50 -119 50q-80 0 -158 -108zM515 -15q-188 0 -302.5 125.5t-114.5 335.5q0 123 37.5 234.5t104.5 196.5t167.5 135.5t218.5 50.5
q188 0 302 -125.5t114 -335.5q0 -165 -63 -304.5t-185 -226t-279 -86.5zM517 54q102 0 188 45.5t143 121.5t88.5 174t31.5 203q0 181 -94 288.5t-250 107.5q-102 0 -188.5 -45.5t-142.5 -121.5t-87.5 -173.5t-31.5 -202.5q0 -182 93.5 -289.5t249.5 -107.5z" />
    <glyph glyph-name="odieresis" unicode="&#xf6;" horiz-adv-x="1140" 
d="M458 1311l28 164h80l-28 -164h-80zM803 1311l28 164h80l-28 -164h-80zM515 -15q-188 0 -302.5 125.5t-114.5 335.5q0 123 37.5 234.5t104.5 196.5t167.5 135.5t218.5 50.5q188 0 302 -125.5t114 -335.5q0 -165 -63 -304.5t-185 -226t-279 -86.5zM517 54q102 0 188 45.5
t143 121.5t88.5 174t31.5 203q0 181 -94 288.5t-250 107.5q-102 0 -188.5 -45.5t-142.5 -121.5t-87.5 -173.5t-31.5 -202.5q0 -182 93.5 -289.5t249.5 -107.5z" />
    <glyph glyph-name="divide" unicode="&#xf7;" 
d="M627 820l27 159h81l-27 -159h-81zM189 538l12 67h856l-11 -67h-857zM510 163l28 159h80l-26 -159h-82z" />
    <glyph glyph-name="oslash" unicode="&#xf8;" horiz-adv-x="1164" 
d="M1110 1060l-142 -158q86 -121 86 -300q0 -123 -37.5 -234.5t-104 -196t-167 -135t-219.5 -50.5q-169 0 -278 101l-125 -141l-50 42l132 147q-94 122 -94 311q0 123 37 234.5t104 196.5t167 135.5t218 50.5q178 0 290 -112l134 151zM636 993q-102 0 -188.5 -45.5
t-143 -121t-88 -173t-31.5 -202.5q0 -154 72 -258l620 702q-92 98 -241 98zM528 55q102 0 188.5 45.5t143 121.5t88 173.5t31.5 202.5q0 143 -64 246l-617 -701q90 -88 230 -88z" />
    <glyph glyph-name="ugrave" unicode="&#xf9;" horiz-adv-x="1145" 
d="M730 1238h-70l-237 275h84zM982 1049h72l-185 -1049h-71l29 167q-61 -84 -163 -132.5t-220 -48.5q-138 0 -224 74.5t-86 199.5q0 32 6 67l126 722h72l-125 -710q-7 -45 -7 -66q0 -102 67.5 -162t181.5 -60q163 0 275 102t137 242z" />
    <glyph glyph-name="uacute" unicode="&#xfa;" horiz-adv-x="1145" 
d="M919 1513l-238 -275h-72l225 275h85zM982 1049h72l-185 -1049h-71l29 167q-61 -84 -163 -132.5t-220 -48.5q-138 0 -224 74.5t-86 199.5q0 32 6 67l126 722h72l-125 -710q-7 -45 -7 -66q0 -102 67.5 -162t181.5 -60q163 0 275 102t137 242z" />
    <glyph glyph-name="ucircumflex" unicode="&#xfb;" horiz-adv-x="1145" 
d="M732 1444l-226 -208h-81l275 264h74l185 -264h-72zM982 1049h72l-185 -1049h-71l29 167q-61 -84 -163 -132.5t-220 -48.5q-138 0 -224 74.5t-86 199.5q0 32 6 67l126 722h72l-125 -710q-7 -45 -7 -66q0 -102 67.5 -162t181.5 -60q163 0 275 102t137 242z" />
    <glyph glyph-name="udieresis" unicode="&#xfc;" horiz-adv-x="1145" 
d="M601 1475l-29 -164h-79l28 164h80zM946 1475l-28 -164h-80l28 164h80zM982 1049h72l-185 -1049h-71l29 167q-61 -84 -163 -132.5t-220 -48.5q-138 0 -224 74.5t-86 199.5q0 32 6 67l126 722h72l-125 -710q-7 -45 -7 -66q0 -102 67.5 -162t181.5 -60q163 0 275 102
t137 242z" />
    <glyph glyph-name="yacute" unicode="&#xfd;" horiz-adv-x="907" 
d="M812 1513l-238 -275h-71l224 275h85zM894 1049h80l-709 -1282q-42 -76 -86 -108t-104 -32q-54 0 -111 22l22 61q44 -18 87 -18q40 0 69.5 23t61.5 80l157 283l-242 971h75l216 -890z" />
    <glyph glyph-name="thorn" unicode="&#xfe;" horiz-adv-x="1206" 
d="M694 1063q185 0 299 -125t114 -341q0 -165 -62.5 -303.5t-181.5 -223t-271 -84.5q-147 0 -247 72.5t-136 197.5l-109 -614h-71l323 1833h72l-108 -608q64 91 163 143.5t215 52.5zM584 55q132 0 235.5 75t158 197t54.5 266q0 184 -95.5 292.5t-250.5 108.5
q-180 0 -297 -140.5t-136 -356.5q-21 -202 66.5 -322t264.5 -120z" />
    <glyph glyph-name="ydieresis" unicode="&#xff;" horiz-adv-x="907" 
d="M496 1475l-29 -164h-80l29 164h80zM841 1475l-29 -164h-80l29 164h80zM894 1049h80l-709 -1282q-42 -76 -86 -108t-104 -32q-54 0 -111 22l22 61q44 -18 87 -18q40 0 69.5 23t61.5 80l157 283l-242 971h75l216 -890z" />
    <glyph glyph-name="Amacron" unicode="&#x100;" horiz-adv-x="1361" 
d="M1133 1727l-12 -62h-529l11 62h530zM1120 0l-101 470h-695l-259 -470h-88l819 1475h82l322 -1475h-80zM364 542h640l-181 832z" />
    <glyph glyph-name="amacron" unicode="&#x101;" horiz-adv-x="1064" 
d="M921 1359l-11 -63h-529l11 63h529zM578 1063q160 0 252 -84.5t92 -224.5q0 -42 -8 -87l-117 -667h-72l30 166q-57 -81 -158.5 -130.5t-219.5 -49.5q-143 0 -228.5 75t-85.5 206q0 162 135 248.5t372 86.5h261l11 63q7 39 7 77q0 116 -73 184.5t-202 68.5
q-188 0 -314 -152l-50 47q145 173 368 173zM793 381l27 156h-241q-209 0 -325.5 -66.5t-116.5 -200.5q0 -103 65.5 -160.5t176.5 -57.5q156 0 273 95.5t141 233.5z" />
    <glyph glyph-name="Abreve" unicode="&#x102;" horiz-adv-x="1361" 
d="M859 1584q-108 0 -171.5 72t-69.5 201h59q6 -105 55 -162t129 -57q81 0 142 57.5t88 161.5h63q-30 -129 -108.5 -201t-186.5 -72zM1120 0l-101 470h-695l-259 -470h-88l819 1475h82l322 -1475h-80zM364 542h640l-181 832z" />
    <glyph glyph-name="abreve" unicode="&#x103;" horiz-adv-x="1064" 
d="M655 1228q-108 0 -171 72t-69 200h58q6 -105 55 -161t129 -56q82 0 142.5 57t87.5 160h63q-30 -128 -108.5 -200t-186.5 -72zM578 1063q160 0 252 -84.5t92 -224.5q0 -42 -8 -87l-117 -667h-72l30 166q-57 -81 -158.5 -130.5t-219.5 -49.5q-143 0 -228.5 75t-85.5 206
q0 162 135 248.5t372 86.5h261l11 63q7 39 7 77q0 116 -73 184.5t-202 68.5q-188 0 -314 -152l-50 47q145 173 368 173zM793 381l27 156h-241q-209 0 -325.5 -66.5t-116.5 -200.5q0 -103 65.5 -160.5t176.5 -57.5q156 0 273 95.5t141 233.5z" />
    <glyph glyph-name="Aogonek" unicode="&#x104;" horiz-adv-x="1361" 
d="M1048 -355q59 0 112 45l30 -49q-73 -55 -146 -55q-76 0 -123 42.5t-47 110.5q0 148 245 265l-100 466h-695l-259 -470h-88l819 1475h82l322 -1475h-6q-126 -57 -190 -122t-64 -130q0 -46 29.5 -74.5t78.5 -28.5zM364 542h640l-181 832z" />
    <glyph glyph-name="aogonek" unicode="&#x105;" horiz-adv-x="1064" 
d="M578 1063q160 0 252 -84.5t92 -224.5q0 -42 -8 -87l-117 -667h-23q-126 -57 -190 -122t-64 -130q0 -46 29.5 -74.5t78.5 -28.5q59 0 112 45l30 -49q-73 -55 -145 -55q-76 0 -123 42.5t-47 110.5q0 81 68 149t205 129l27 149q-57 -81 -158.5 -130.5t-219.5 -49.5
q-143 0 -228.5 75t-85.5 206q0 162 135 248.5t372 86.5h261l11 63q7 39 7 77q0 116 -73 184.5t-202 68.5q-188 0 -314 -152l-50 47q145 173 368 173zM793 381l27 156h-241q-209 0 -325.5 -66.5t-116.5 -200.5q0 -103 65.5 -160.5t176.5 -57.5q156 0 273 95.5t141 233.5z" />
    <glyph glyph-name="Cacute" unicode="&#x106;" horiz-adv-x="1452" 
d="M817 1593l224 276h84l-237 -276h-71zM727 -15q-259 0 -414.5 171t-155.5 459q0 178 51 336.5t143 278.5t231 190t305 70q190 0 319.5 -93.5t190.5 -262.5l-68 -29q-115 312 -446 312q-119 0 -223 -42t-181 -117t-132 -174.5t-83 -217.5t-28 -244q0 -259 136 -412
t358 -153q167 0 288 80.5t218 237.5l66 -38q-107 -173 -246 -262.5t-329 -89.5z" />
    <glyph glyph-name="cacute" unicode="&#x107;" horiz-adv-x="1046" 
d="M577 1238l224 275h85l-238 -275h-71zM513 -14q-185 0 -299.5 125t-114.5 335q0 123 37 235t102.5 196.5t164.5 135t215 50.5q129 0 220 -56.5t137 -161.5l-66 -30q-37 86 -112.5 132.5t-180.5 46.5q-100 0 -184.5 -45.5t-139.5 -121.5t-86 -174t-31 -203
q0 -180 93.5 -287.5t245.5 -107.5q99 0 183.5 50.5t143.5 150.5l61 -37q-141 -233 -389 -233z" />
    <glyph glyph-name="Ccircumflex" unicode="&#x108;" horiz-adv-x="1452" 
d="M950 1802l-225 -209h-82l277 266h72l186 -266h-72zM883 1417q-119 0 -223 -42t-181 -117t-132 -174.5t-83 -217.5t-28 -244q0 -259 136 -412t358 -153q167 0 288 80.5t218 237.5l66 -38q-107 -173 -246 -262.5t-329 -89.5q-259 0 -414.5 171t-155.5 459q0 178 51 336.5
t143 278.5t231 190t305 70q190 0 319.5 -93.5t190.5 -262.5l-68 -29q-115 312 -446 312z" />
    <glyph glyph-name="ccircumflex" unicode="&#x109;" horiz-adv-x="1046" 
d="M699 1444l-226 -208h-81l276 264h73l186 -264h-73zM616 994q-100 0 -184.5 -45.5t-139.5 -121.5t-86 -174t-31 -203q0 -180 93.5 -287.5t245.5 -107.5q99 0 183.5 50.5t143.5 150.5l61 -37q-141 -233 -389 -233q-185 0 -299.5 125t-114.5 335q0 123 37 235t102.5 196.5
t164.5 135t215 50.5q129 0 220 -56.5t137 -161.5l-66 -30q-37 86 -112.5 132.5t-180.5 46.5z" />
    <glyph glyph-name="Cdotaccent" unicode="&#x10a;" horiz-adv-x="1452" 
d="M877 1636l29 168h80l-30 -168h-79zM727 -15q-259 0 -414.5 171t-155.5 459q0 178 51 336.5t143 278.5t231 190t305 70q190 0 319.5 -93.5t190.5 -262.5l-68 -29q-115 312 -446 312q-119 0 -223 -42t-181 -117t-132 -174.5t-83 -217.5t-28 -244q0 -259 136 -412t358 -153
q167 0 288 80.5t218 237.5l66 -38q-107 -173 -246 -262.5t-329 -89.5z" />
    <glyph glyph-name="cdotaccent" unicode="&#x10b;" horiz-adv-x="1046" 
d="M632 1307l30 168h80l-29 -168h-81zM513 -14q-185 0 -299.5 125t-114.5 335q0 123 37 235t102.5 196.5t164.5 135t215 50.5q129 0 220 -56.5t137 -161.5l-66 -30q-37 86 -112.5 132.5t-180.5 46.5q-100 0 -184.5 -45.5t-139.5 -121.5t-86 -174t-31 -203
q0 -180 93.5 -287.5t245.5 -107.5q99 0 183.5 50.5t143.5 150.5l61 -37q-141 -233 -389 -233z" />
    <glyph glyph-name="Ccaron" unicode="&#x10c;" horiz-adv-x="1452" 
d="M934 1593h-74l-185 266h71l156 -209l226 209h81zM883 1417q-119 0 -223 -42t-181 -117t-132 -174.5t-83 -217.5t-28 -244q0 -259 136 -412t358 -153q167 0 288 80.5t218 237.5l66 -38q-107 -173 -246 -262.5t-329 -89.5q-259 0 -414.5 171t-155.5 459q0 178 51 336.5
t143 278.5t231 190t305 70q190 0 319.5 -93.5t190.5 -262.5l-68 -29q-115 312 -446 312z" />
    <glyph glyph-name="ccaron" unicode="&#x10d;" horiz-adv-x="1046" 
d="M695 1236h-73l-186 264h72l156 -208l226 208h81zM616 994q-100 0 -184.5 -45.5t-139.5 -121.5t-86 -174t-31 -203q0 -180 93.5 -287.5t245.5 -107.5q99 0 183.5 50.5t143.5 150.5l61 -37q-141 -233 -389 -233q-185 0 -299.5 125t-114.5 335q0 123 37 235t102.5 196.5
t164.5 135t215 50.5q129 0 220 -56.5t137 -161.5l-66 -30q-37 86 -112.5 132.5t-180.5 46.5z" />
    <glyph glyph-name="Dcaron" unicode="&#x10e;" horiz-adv-x="1425" 
d="M843 1593h-74l-185 266h71l156 -209l226 209h81zM766 1475q266 0 422.5 -163.5t156.5 -448.5q0 -177 -50.5 -333.5t-143 -274.5t-232 -186.5t-307.5 -68.5h-501l260 1475h395zM615 72q149 0 273.5 64t206 172.5t126.5 250.5t45 299q0 255 -136 400t-362 145h-333
l-234 -1331h414z" />
    <glyph glyph-name="dcaron" unicode="&#x10f;" horiz-adv-x="1220" 
d="M995 784l123 691h72l-260 -1475h-72l34 191q-67 -96 -166 -150.5t-214 -54.5q-185 0 -299 124.5t-114 341.5q0 123 37 234t103 194.5t163.5 133t211.5 49.5q142 0 245 -75.5t136 -203.5zM1335 1475h80l-95 -426h-60zM952 552q20 200 -70 321t-259 121q-132 0 -236 -75
t-158.5 -197.5t-54.5 -266.5q0 -184 95.5 -292t250.5 -108q179 0 295 139.5t137 357.5z" />
    <glyph glyph-name="Dcroat" unicode="&#x110;" horiz-adv-x="1424" 
d="M765 1475q266 0 422 -163.5t156 -448.5q0 -177 -50.5 -333.5t-143 -274.5t-232 -186.5t-306.5 -68.5h-501l123 703h-162l12 68h163l124 704h395zM614 72q149 0 273.5 64t206 172.5t126.5 250.5t45 299q0 255 -136 400t-362 145h-333l-111 -632h459l-11 -68h-460
l-111 -631h414z" />
    <glyph glyph-name="dcroat" unicode="&#x111;" horiz-adv-x="1218" 
d="M1295 1279l-12 -66h-139l-214 -1213h-72l34 191q-67 -96 -166 -150.5t-214 -54.5q-185 0 -299 124.5t-114 341.5q0 123 37 234t103 194.5t163.5 133t211.5 49.5q142 0 245 -75.5t136 -203.5l77 429h-310l12 66h309l35 196h72l-35 -196h140zM952 552q20 200 -70 321
t-259 121q-132 0 -236 -75t-158.5 -197.5t-54.5 -266.5q0 -184 95.5 -292t250.5 -108q179 0 295 139.5t137 357.5z" />
    <glyph glyph-name="Emacron" unicode="&#x112;" horiz-adv-x="1231" 
d="M1143 1727l-11 -62h-530l11 62h530zM1287 1403h-852l-108 -619h785l-13 -71h-786l-112 -641h860l-13 -72h-937l260 1475h929z" />
    <glyph glyph-name="emacron" unicode="&#x113;" horiz-adv-x="1104" 
d="M940 1359l-10 -63h-530l12 63h528zM1002 509h-825q-3 -29 -3 -58q0 -181 94.5 -289t249.5 -108q107 0 202.5 52t155.5 151l58 -40q-67 -111 -178.5 -171.5t-239.5 -60.5q-187 0 -302 125.5t-115 335.5q0 165 62.5 305t182 226t272.5 86q180 0 288.5 -121.5t108.5 -320.5
q0 -41 -11 -112zM613 994q-111 0 -202.5 -58.5t-147.5 -152t-77 -209.5h751q1 15 1 41q0 175 -87 277t-238 102z" />
    <glyph glyph-name="Ebreve" unicode="&#x114;" horiz-adv-x="1231" 
d="M870 1584q-108 0 -171 72t-69 201h58q6 -105 55 -162t129 -57q81 0 142 57.5t88 161.5h63q-30 -129 -108.5 -201t-186.5 -72zM1287 1403h-852l-108 -619h785l-13 -71h-786l-112 -641h860l-13 -72h-937l260 1475h929z" />
    <glyph glyph-name="ebreve" unicode="&#x115;" horiz-adv-x="1104" 
d="M675 1228q-108 0 -171.5 72t-69.5 200h59q6 -105 55 -161t129 -56q81 0 141.5 56.5t87.5 160.5h64q-30 -128 -108.5 -200t-186.5 -72zM1002 509h-825q-3 -29 -3 -58q0 -181 94.5 -289t249.5 -108q107 0 202.5 52t155.5 151l58 -40q-67 -111 -178.5 -171.5t-239.5 -60.5
q-187 0 -302 125.5t-115 335.5q0 165 62.5 305t182 226t272.5 86q180 0 288.5 -121.5t108.5 -320.5q0 -41 -11 -112zM613 994q-111 0 -202.5 -58.5t-147.5 -152t-77 -209.5h751q1 15 1 41q0 175 -87 277t-238 102z" />
    <glyph glyph-name="Edotaccent" unicode="&#x116;" horiz-adv-x="1231" 
d="M942 1804l-30 -168h-79l29 168h80zM1287 1403h-852l-108 -619h785l-13 -71h-786l-112 -641h860l-13 -72h-937l260 1475h929z" />
    <glyph glyph-name="edotaccent" unicode="&#x117;" horiz-adv-x="1104" 
d="M737 1475l-29 -168h-81l29 168h81zM1002 509h-825q-3 -29 -3 -58q0 -181 94.5 -289t249.5 -108q107 0 202.5 52t155.5 151l58 -40q-67 -111 -178.5 -171.5t-239.5 -60.5q-187 0 -302 125.5t-115 335.5q0 165 62.5 305t182 226t272.5 86q180 0 288.5 -121.5t108.5 -320.5
q0 -41 -11 -112zM613 994q-111 0 -202.5 -58.5t-147.5 -152t-77 -209.5h751q1 15 1 41q0 175 -87 277t-238 102z" />
    <glyph glyph-name="Eogonek" unicode="&#x118;" horiz-adv-x="1231" 
d="M1287 1403h-852l-108 -619h785l-13 -71h-786l-112 -641h860l-13 -72h-43q-126 -57 -190 -122t-64 -130q0 -46 29 -74.5t78 -28.5q60 0 113 45l29 -49q-73 -55 -145 -55q-76 0 -123 42.5t-47 110.5q0 145 236 261h-810l260 1475h929z" />
    <glyph glyph-name="eogonek" unicode="&#x119;" horiz-adv-x="1105" 
d="M1002 509h-825q-3 -30 -3 -58q0 -181 94.5 -289t249.5 -108q107 0 202.5 52t155.5 151l58 -40q-64 -105 -186 -175q-123 -71 -189 -149t-66 -145q0 -49 29 -76t79 -27q70 0 124 45l29 -49q-73 -56 -156 -56q-76 0 -123.5 42t-47.5 112q0 130 168 253q-36 -7 -79 -7
q-187 0 -302 125.5t-115 335.5q0 165 62.5 305t182 226t272.5 86q180 0 288.5 -121.5t108.5 -320.5q0 -41 -11 -112zM613 994q-111 0 -203 -58.5t-148 -152t-77 -209.5h752q1 13 1 40q0 176 -87 278t-238 102z" />
    <glyph glyph-name="Ecaron" unicode="&#x11a;" horiz-adv-x="1231" 
d="M890 1593h-74l-185 266h71l156 -209l226 209h81zM1287 1403h-852l-108 -619h785l-13 -71h-786l-112 -641h860l-13 -72h-937l260 1475h929z" />
    <glyph glyph-name="ecaron" unicode="&#x11b;" horiz-adv-x="1104" 
d="M690 1236h-74l-185 264h72l155 -208l227 208h81zM1002 509h-825q-3 -29 -3 -58q0 -181 94.5 -289t249.5 -108q107 0 202.5 52t155.5 151l58 -40q-67 -111 -178.5 -171.5t-239.5 -60.5q-187 0 -302 125.5t-115 335.5q0 165 62.5 305t182 226t272.5 86q180 0 288.5 -121.5
t108.5 -320.5q0 -41 -11 -112zM613 994q-111 0 -202.5 -58.5t-147.5 -152t-77 -209.5h751q1 15 1 41q0 175 -87 277t-238 102z" />
    <glyph glyph-name="Gcircumflex" unicode="&#x11c;" horiz-adv-x="1479" 
d="M959 1802l-225 -209h-82l277 266h72l186 -266h-72zM817 656l13 72h531l-128 -728h-72l42 237q-84 -119 -206.5 -185.5t-271.5 -66.5q-254 0 -411 171.5t-157 458.5q0 178 51 336.5t143 278.5t231.5 190t306.5 70q165 0 288.5 -79.5t199.5 -233.5l-67 -32
q-135 272 -424 272q-149 0 -273.5 -65t-206 -175t-126 -253.5t-44.5 -301.5q0 -259 136.5 -412t360.5 -153q105 0 197 39t156.5 105t107.5 150t59 178l23 127h-459z" />
    <glyph glyph-name="gcircumflex" unicode="&#x11d;" horiz-adv-x="1207" 
d="M752 1444l-227 -208h-81l276 264h74l185 -264h-73zM1043 1049h72l-169 -956q-82 -466 -491 -466q-283 0 -406 203l59 43q100 -179 350 -179q345 0 416 399l20 109q-64 -94 -164.5 -148t-217.5 -54q-185 0 -298 122t-113 337q0 166 62 302.5t180.5 219t271.5 82.5
q148 0 248.5 -74t133.5 -201zM952 550q21 202 -65.5 322.5t-263.5 120.5q-132 0 -235.5 -73t-158 -193t-54.5 -263q0 -184 94.5 -289t250.5 -105q180 0 295 132.5t137 347.5z" />
    <glyph glyph-name="Gbreve" unicode="&#x11e;" horiz-adv-x="1479" 
d="M924 1584q-108 0 -171.5 72t-69.5 201h58q6 -105 55.5 -162t129.5 -57q81 0 141.5 57.5t87.5 161.5h64q-30 -129 -108.5 -201t-186.5 -72zM817 656l13 72h531l-128 -728h-72l42 237q-84 -119 -206.5 -185.5t-271.5 -66.5q-254 0 -411 171.5t-157 458.5q0 178 51 336.5
t143 278.5t231.5 190t306.5 70q165 0 288.5 -79.5t199.5 -233.5l-67 -32q-135 272 -424 272q-149 0 -273.5 -65t-206 -175t-126 -253.5t-44.5 -301.5q0 -259 136.5 -412t360.5 -153q105 0 197 39t156.5 105t107.5 150t59 178l23 127h-459z" />
    <glyph glyph-name="gbreve" unicode="&#x11f;" horiz-adv-x="1207" 
d="M732 1228q-108 0 -171 72t-69 200h58q6 -105 55 -161t129 -56q82 0 142.5 57t87.5 160h63q-30 -128 -108.5 -200t-186.5 -72zM1043 1049h72l-169 -956q-82 -466 -491 -466q-283 0 -406 203l59 43q100 -179 350 -179q345 0 416 399l20 109q-64 -94 -164.5 -148t-217.5 -54
q-185 0 -298 122t-113 337q0 166 62 302.5t180.5 219t271.5 82.5q148 0 248.5 -74t133.5 -201zM952 550q21 202 -65.5 322.5t-263.5 120.5q-132 0 -235.5 -73t-158 -193t-54.5 -263q0 -184 94.5 -289t250.5 -105q180 0 295 132.5t137 347.5z" />
    <glyph glyph-name="Gdotaccent" unicode="&#x120;" horiz-adv-x="1479" 
d="M995 1804l-29 -168h-80l29 168h80zM817 656l13 72h531l-128 -728h-72l42 237q-84 -119 -206.5 -185.5t-271.5 -66.5q-254 0 -411 171.5t-157 458.5q0 178 51 336.5t143 278.5t231.5 190t306.5 70q165 0 288.5 -79.5t199.5 -233.5l-67 -32q-135 272 -424 272
q-149 0 -273.5 -65t-206 -175t-126 -253.5t-44.5 -301.5q0 -259 136.5 -412t360.5 -153q105 0 197 39t156.5 105t107.5 150t59 178l23 127h-459z" />
    <glyph glyph-name="gdotaccent" unicode="&#x121;" horiz-adv-x="1207" 
d="M795 1475l-30 -168h-81l30 168h81zM1043 1049h72l-169 -956q-82 -466 -491 -466q-283 0 -406 203l59 43q100 -179 350 -179q345 0 416 399l20 109q-64 -94 -164.5 -148t-217.5 -54q-185 0 -298 122t-113 337q0 166 62 302.5t180.5 219t271.5 82.5q148 0 248.5 -74
t133.5 -201zM952 550q21 202 -65.5 322.5t-263.5 120.5q-132 0 -235.5 -73t-158 -193t-54.5 -263q0 -184 94.5 -289t250.5 -105q180 0 295 132.5t137 347.5z" />
    <glyph glyph-name="uni0122" unicode="&#x122;" horiz-adv-x="1479" 
d="M817 656l13 72h531l-128 -728h-72l42 237q-84 -119 -206.5 -185.5t-271.5 -66.5q-254 0 -411 171.5t-157 458.5q0 178 51 336.5t143 278.5t231.5 190t306.5 70q165 0 288.5 -79.5t199.5 -233.5l-67 -32q-135 272 -424 272q-149 0 -273.5 -65t-206 -175t-126 -253.5
t-44.5 -301.5q0 -259 136.5 -412t360.5 -153q105 0 197 39t156.5 105t107.5 150t59 178l23 127h-459zM628 -229l25 142h98l-27 -146q-12 -69 -40 -105t-88 -70l-26 39q53 30 74 56t32 82z" />
    <glyph glyph-name="uni0123" unicode="&#x123;" horiz-adv-x="1207" 
d="M746 1367l-24 -142h-97l25 146q12 69 40 104.5t89 69.5l25 -39q-53 -30 -74 -55.5t-31 -81.5zM1043 1049h72l-169 -956q-82 -466 -491 -466q-283 0 -406 203l59 43q100 -179 350 -179q345 0 416 399l20 109q-64 -94 -164.5 -148t-217.5 -54q-185 0 -298 122t-113 337
q0 166 62 302.5t180.5 219t271.5 82.5q148 0 248.5 -74t133.5 -201zM952 550q21 202 -65.5 322.5t-263.5 120.5q-132 0 -235.5 -73t-158 -193t-54.5 -263q0 -184 94.5 -289t250.5 -105q180 0 295 132.5t137 347.5z" />
    <glyph glyph-name="Hcircumflex" unicode="&#x124;" horiz-adv-x="1463" 
d="M944 1802l-225 -209h-82l276 266h73l185 -266h-71zM1351 1475h77l-260 -1475h-77l124 711h-903l-125 -711h-76l260 1475h76l-121 -693h903z" />
    <glyph glyph-name="hcircumflex" unicode="&#x125;" horiz-adv-x="1147" 
d="M774 1802l-225 -209h-82l276 266h73l185 -266h-71zM703 1063q138 0 224.5 -75t86.5 -200q0 -32 -6 -68l-126 -720h-72l125 711q7 42 7 63q0 102 -67.5 162t-181.5 60q-163 0 -275.5 -101.5t-137.5 -242.5l-116 -652h-72l260 1475h72l-106 -594q61 84 163.5 133t221.5 49z
" />
    <glyph glyph-name="Hbar" unicode="&#x126;" horiz-adv-x="1462" 
d="M1540 1157l-13 -72h-167l-192 -1085h-77l124 711h-903l-125 -711h-76l191 1085h-168l12 72h168l57 318h76l-56 -318h903l57 318h77l-56 -318h168zM326 782h903l53 303h-903z" />
    <glyph glyph-name="hbar" unicode="&#x127;" horiz-adv-x="1164" 
d="M720 1063q138 0 224 -75t86 -200q0 -32 -6 -68l-126 -720h-72l125 711q7 42 7 63q0 102 -67 161.5t-181 59.5q-163 0 -276 -101.5t-138 -241.5l-116 -652h-71l214 1213h-140l12 66h139l35 196h71l-34 -196h309l-12 -66h-309l-59 -331q61 84 163.5 132.5t221.5 48.5z" />
    <glyph glyph-name="Itilde" unicode="&#x128;" horiz-adv-x="482" 
d="M146 1609l-48 37q101 136 209 136q63 0 147 -58q71 -52 120 -52q77 0 154 109l48 -37q-102 -136 -205 -136q-64 0 -147 59q-70 50 -120 50q-80 0 -158 -108zM111 0l260 1475h76l-260 -1475h-76z" />
    <glyph glyph-name="itilde" unicode="&#x129;" horiz-adv-x="440" 
d="M65 1275l-49 37q101 136 208 136q67 0 148 -58q71 -52 121 -52q75 0 153 109l48 -37q-102 -136 -205 -136q-41 0 -74 15t-73 44q-70 50 -120 50q-79 0 -157 -108zM91 0l185 1049h72l-185 -1049h-72z" />
    <glyph glyph-name="Imacron" unicode="&#x12a;" horiz-adv-x="482" 
d="M166 1665l11 62h530l-12 -62h-529zM111 0l260 1475h76l-260 -1475h-76z" />
    <glyph glyph-name="imacron" unicode="&#x12b;" horiz-adv-x="440" 
d="M91 1296l11 63h529l-10 -63h-530zM91 0l185 1049h72l-185 -1049h-72z" />
    <glyph glyph-name="Ibreve" unicode="&#x12c;" horiz-adv-x="482" 
d="M433 1584q-108 0 -171 72t-69 201h58q6 -105 55 -162t129 -57q81 0 142 57.5t88 161.5h63q-30 -129 -108.5 -201t-186.5 -72zM111 0l260 1475h76l-260 -1475h-76z" />
    <glyph glyph-name="ibreve" unicode="&#x12d;" horiz-adv-x="440" 
d="M366 1228q-108 0 -171.5 72t-69.5 200h58q6 -104 55.5 -160.5t129.5 -56.5q81 0 141.5 56.5t87.5 160.5h63q-30 -128 -108 -200t-186 -72zM91 0l185 1049h72l-185 -1049h-72z" />
    <glyph glyph-name="Iogonek" unicode="&#x12e;" horiz-adv-x="482" 
d="M84 -355q57 0 107 44l33 -47q-70 -56 -140 -56q-83 0 -134.5 42.5t-51.5 113.5t49.5 134.5t165.5 134.5l258 1464h76l-260 -1475h-20q-206 -129 -206 -250q0 -49 34 -77t89 -28z" />
    <glyph glyph-name="iogonek" unicode="&#x12f;" horiz-adv-x="440" 
d="M347 1475h81l-30 -168h-81zM163 0q-111 -59 -171.5 -124t-60.5 -128q0 -46 29.5 -74.5t79.5 -28.5q67 0 120 45l28 -49q-73 -56 -152 -56q-75 0 -122.5 43t-47.5 111q0 143 226 267l186 1043h71z" />
    <glyph glyph-name="Idotaccent" unicode="&#x130;" horiz-adv-x="483" 
d="M396 1634l30 168h81l-29 -168h-82zM111 0l260 1475h76l-260 -1475h-76z" />
    <glyph glyph-name="dotlessi" unicode="&#x131;" horiz-adv-x="440" 
d="M91 0l185 1049h72l-185 -1049h-72z" />
    <glyph glyph-name="IJ" unicode="&#x132;" horiz-adv-x="1529" 
d="M111 0l260 1475h76l-260 -1475h-76zM892 -12q-280 0 -371 266l68 30q78 -226 304 -226q139 0 230 89t120 254l189 1074h77l-191 -1086q-34 -192 -144.5 -296.5t-281.5 -104.5z" />
    <glyph glyph-name="ij" unicode="&#x133;" horiz-adv-x="884" 
d="M319 1307l30 168h80l-30 -168h-80zM761 1307l29 168h81l-29 -168h-81zM92 0l186 1049h71l-185 -1049h-72zM354 -370q-55 0 -118 24l24 62q44 -18 91 -18q132 0 162 179l207 1172h72l-210 -1189q-42 -230 -228 -230z" />
    <glyph glyph-name="Jcircumflex" unicode="&#x134;" horiz-adv-x="1045" 
d="M1276 1593h-72l-155 209l-226 -209h-82l277 266h73zM760 401l188 1074h78l-191 -1086q-34 -192 -144.5 -296.5t-281.5 -104.5q-280 0 -371 266l67 30q78 -226 305 -226q139 0 230 89t120 254z" />
    <glyph glyph-name="jcircumflex" unicode="&#x135;" horiz-adv-x="440" 
d="M612 1236h-72l-155 208l-226 -208h-81l275 264h74zM71 -123l205 1172h72l-210 -1189q-41 -230 -227 -230q-62 0 -119 25l26 61q43 -18 90 -18q130 0 163 179z" />
    <glyph glyph-name="uni0136" unicode="&#x136;" horiz-adv-x="1261" 
d="M1323 1475l-611 -586l399 -888h-87l-374 829l-381 -364l-82 -466h-76l260 1475h76l-156 -891l934 891h98zM474 -229l26 142h97l-27 -146q-12 -69 -40 -105t-88 -70l-25 39q52 29 73 55t32 83z" />
    <glyph glyph-name="uni0137" unicode="&#x137;" horiz-adv-x="1009" 
d="M988 1049l-466 -445l339 -604h-79l-311 556l-253 -241l-55 -315h-72l260 1475h72l-185 -1053l656 627h94zM343 -229l26 142h97l-27 -146q-12 -69 -40 -105t-88 -70l-25 39q52 29 73 55t32 83z" />
    <glyph glyph-name="kgreenlandic" unicode="&#x138;" horiz-adv-x="1009" 
d="M988 1049l-466 -445l339 -604h-79l-311 556l-253 -241l-55 -315h-72l185 1049h72l-110 -626l656 626h94z" />
    <glyph glyph-name="Lacute" unicode="&#x139;" horiz-adv-x="1087" 
d="M644 1869l-237 -276h-71l224 276h84zM201 72h765l-14 -72h-841l260 1475h76z" />
    <glyph glyph-name="lacute" unicode="&#x13a;" horiz-adv-x="440" 
d="M315 1593l225 276h84l-238 -276h-71zM91 0l260 1475h72l-260 -1475h-72z" />
    <glyph glyph-name="uni013B" unicode="&#x13b;" horiz-adv-x="1087" 
d="M201 72h765l-14 -72h-841l260 1475h76zM444 -229l26 142h97l-26 -146q-12 -69 -40 -105t-88 -70l-26 39q53 30 74 56t32 82z" />
    <glyph glyph-name="uni013C" unicode="&#x13c;" horiz-adv-x="440" 
d="M351 1475h72l-260 -1475h-72zM39 -229l26 142h97l-27 -146q-12 -69 -40 -105t-88 -70l-25 39q52 29 73 55t32 83z" />
    <glyph glyph-name="Lcaron" unicode="&#x13d;" horiz-adv-x="1087" 
d="M201 72h765l-14 -72h-841l260 1475h76zM799 1475l-94 -426h-61l75 426h80z" />
    <glyph glyph-name="lcaron" unicode="&#x13e;" horiz-adv-x="448" 
d="M91 0l260 1475h72l-260 -1475h-72zM487 1049l76 426h79l-94 -426h-61z" />
    <glyph glyph-name="Ldot" unicode="&#x13f;" horiz-adv-x="1087" 
d="M201 72h765l-14 -72h-841l260 1475h76zM886 845l-31 -168h-97l30 168h98z" />
    <glyph glyph-name="ldot" unicode="&#x140;" horiz-adv-x="500" 
d="M91 0l260 1475h72l-260 -1475h-72zM444 653l30 168h97l-29 -168h-98z" />
    <glyph glyph-name="Lslash" unicode="&#x141;" horiz-adv-x="1112" 
d="M225 72h765l-13 -72h-842l121 683l-155 -79l14 77l154 80l126 714h77l-119 -675l423 218l-12 -78l-424 -217z" />
    <glyph glyph-name="lslash" unicode="&#x142;" horiz-adv-x="629" 
d="M658 1060l-12 -79l-240 -145l-148 -836h-72l141 796l-239 -144l13 80l240 145l105 598h72l-98 -560z" />
    <glyph glyph-name="Nacute" unicode="&#x143;" horiz-adv-x="1443" 
d="M1124 1869l-237 -276h-71l224 276h84zM1332 1475h77l-260 -1475h-95l-625 1367l-242 -1367h-76l260 1475h91l629 -1367z" />
    <glyph glyph-name="nacute" unicode="&#x144;" horiz-adv-x="1147" 
d="M939 1513l-238 -275h-71l224 275h85zM703 1063q138 0 224.5 -75t86.5 -200q0 -31 -6 -67l-126 -721h-72l125 711q7 42 7 63q0 102 -67.5 162t-181.5 60q-163 0 -275.5 -101.5t-137.5 -242.5l-116 -652h-72l184 1049h72l-30 -168q61 84 163.5 133t221.5 49z" />
    <glyph glyph-name="uni0145" unicode="&#x145;" horiz-adv-x="1443" 
d="M1332 1475h77l-260 -1475h-95l-625 1367l-242 -1367h-76l260 1475h91l629 -1367zM540 -229l25 142h98l-27 -146q-12 -69 -40 -105t-88 -70l-26 39q53 30 74 56t32 82z" />
    <glyph glyph-name="uni0146" unicode="&#x146;" horiz-adv-x="1147" 
d="M703 1063q138 0 224.5 -75t86.5 -200q0 -31 -6 -67l-126 -721h-72l125 711q7 42 7 63q0 102 -67.5 162t-181.5 60q-163 0 -275.5 -101.5t-137.5 -242.5l-116 -652h-72l184 1049h72l-30 -168q61 84 163.5 133t221.5 49zM498 -229l25 142h98l-27 -146q-12 -69 -40 -105
t-88 -70l-26 39q53 30 74 56t32 82z" />
    <glyph glyph-name="Ncaron" unicode="&#x147;" horiz-adv-x="1443" 
d="M934 1593h-74l-185 266h71l156 -209l226 209h81zM1332 1475h77l-260 -1475h-95l-625 1367l-242 -1367h-76l260 1475h91l629 -1367z" />
    <glyph glyph-name="ncaron" unicode="&#x148;" horiz-adv-x="1147" 
d="M749 1236h-74l-186 264h72l156 -208l226 208h81zM703 1063q138 0 224.5 -75t86.5 -200q0 -31 -6 -67l-126 -721h-72l125 711q7 42 7 63q0 102 -67.5 162t-181.5 60q-163 0 -275.5 -101.5t-137.5 -242.5l-116 -652h-72l184 1049h72l-30 -168q61 84 163.5 133t221.5 49z
" />
    <glyph glyph-name="napostrophe" unicode="&#x149;" horiz-adv-x="1387" 
d="M451 1475l-31 -176q-28 -157 -142 -236l-30 40q97 67 122 202l-46 1l29 169h98zM943 1063q138 0 224.5 -75t86.5 -200q0 -31 -6 -67l-127 -721h-71l125 711q7 42 7 63q0 102 -67.5 162t-181.5 60q-163 0 -276 -102t-138 -242l-116 -652h-71l185 1049h72l-31 -168
q62 85 164.5 133.5t220.5 48.5z" />
    <glyph glyph-name="Eng" unicode="&#x14a;" horiz-adv-x="1443" 
d="M1332 1475h77l-264 -1502q-25 -139 -107.5 -212.5t-212.5 -73.5q-65 0 -140 19t-117 48l34 65q40 -28 104 -45.5t121 -17.5q98 0 160.5 59t81.5 171l5 27l-645 1356l-242 -1369h-76l260 1475h91l635 -1336z" />
    <glyph glyph-name="eng" unicode="&#x14b;" horiz-adv-x="1147" 
d="M703 1063q138 0 224.5 -75t86.5 -200q0 -31 -6 -67l-142 -800q-41 -230 -227 -230q-61 0 -119 23l26 63q43 -18 90 -18q130 0 163 179l136 773q7 42 7 63q0 102 -67.5 162t-181.5 60q-163 0 -275.5 -101.5t-137.5 -242.5l-116 -652h-72l184 1049h72l-30 -168
q61 84 163.5 133t221.5 49z" />
    <glyph glyph-name="Omacron" unicode="&#x14c;" horiz-adv-x="1544" 
d="M652 1664l12 62h529l-11 -62h-530zM730 -16q-261 0 -417 171t-156 460q0 178 51 336.5t143.5 278.5t231.5 190.5t306 70.5q261 0 417.5 -170.5t156.5 -457.5q0 -177 -51 -336t-143 -280t-232 -192t-307 -71zM733 57q120 0 225 43t182 118.5t132.5 176.5t83.5 219t28 244
q0 257 -136.5 408t-361.5 151q-149 0 -273.5 -65t-205.5 -175t-126 -253.5t-45 -302.5q0 -259 136.5 -411.5t360.5 -152.5z" />
    <glyph glyph-name="omacron" unicode="&#x14d;" horiz-adv-x="1140" 
d="M402 1296l12 63h528l-10 -63h-530zM515 -15q-188 0 -302.5 125.5t-114.5 335.5q0 123 37.5 234.5t104.5 196.5t167.5 135.5t218.5 50.5q188 0 302 -125.5t114 -335.5q0 -165 -63 -304.5t-185 -226t-279 -86.5zM517 54q102 0 188 45.5t143 121.5t88.5 174t31.5 203
q0 181 -94 288.5t-250 107.5q-102 0 -188.5 -45.5t-142.5 -121.5t-87.5 -173.5t-31.5 -202.5q0 -182 93.5 -289.5t249.5 -107.5z" />
    <glyph glyph-name="Obreve" unicode="&#x14e;" horiz-adv-x="1544" 
d="M920 1583q-108 0 -171.5 71.5t-69.5 200.5h58q6 -105 55.5 -161.5t129.5 -56.5q81 0 141.5 57t87.5 161h63q-30 -129 -108 -200.5t-186 -71.5zM730 -16q-261 0 -417 171t-156 460q0 178 51 336.5t143.5 278.5t231.5 190.5t306 70.5q261 0 417.5 -170.5t156.5 -457.5
q0 -177 -51 -336t-143 -280t-232 -192t-307 -71zM733 57q120 0 225 43t182 118.5t132.5 176.5t83.5 219t28 244q0 257 -136.5 408t-361.5 151q-149 0 -273.5 -65t-205.5 -175t-126 -253.5t-45 -302.5q0 -259 136.5 -411.5t360.5 -152.5z" />
    <glyph glyph-name="obreve" unicode="&#x14f;" horiz-adv-x="1140" 
d="M677 1228q-108 0 -171.5 72t-69.5 200h59q6 -105 55 -161t129 -56q81 0 141.5 56.5t87.5 160.5h64q-30 -128 -108.5 -200t-186.5 -72zM515 -15q-188 0 -302.5 125.5t-114.5 335.5q0 123 37.5 234.5t104.5 196.5t167.5 135.5t218.5 50.5q188 0 302 -125.5t114 -335.5
q0 -165 -63 -304.5t-185 -226t-279 -86.5zM517 54q102 0 188 45.5t143 121.5t88.5 174t31.5 203q0 181 -94 288.5t-250 107.5q-102 0 -188.5 -45.5t-142.5 -121.5t-87.5 -173.5t-31.5 -202.5q0 -182 93.5 -289.5t249.5 -107.5z" />
    <glyph glyph-name="Ohungarumlaut" unicode="&#x150;" horiz-adv-x="1544" 
d="M672 1592l224 276h84l-238 -276h-70zM990 1592l223 276h85l-237 -276h-71zM730 -16q-261 0 -417 171t-156 460q0 178 51 336.5t143.5 278.5t231.5 190.5t306 70.5q261 0 417.5 -170.5t156.5 -457.5q0 -177 -51 -336t-143 -280t-232 -192t-307 -71zM733 57q120 0 225 43
t182 118.5t132.5 176.5t83.5 219t28 244q0 257 -136.5 408t-361.5 151q-149 0 -273.5 -65t-205.5 -175t-126 -253.5t-45 -302.5q0 -259 136.5 -411.5t360.5 -152.5z" />
    <glyph glyph-name="ohungarumlaut" unicode="&#x151;" horiz-adv-x="1140" 
d="M434 1238l224 275h85l-237 -275h-72zM741 1238l225 275h85l-238 -275h-72zM515 -15q-188 0 -302.5 125.5t-114.5 335.5q0 123 37.5 234.5t104.5 196.5t167.5 135.5t218.5 50.5q188 0 302 -125.5t114 -335.5q0 -165 -63 -304.5t-185 -226t-279 -86.5zM517 54
q102 0 188 45.5t143 121.5t88.5 174t31.5 203q0 181 -94 288.5t-250 107.5q-102 0 -188.5 -45.5t-142.5 -121.5t-87.5 -173.5t-31.5 -202.5q0 -182 93.5 -289.5t249.5 -107.5z" />
    <glyph glyph-name="OE" unicode="&#x152;" horiz-adv-x="2084" 
d="M2111 1403h-812l-108 -619h747l-13 -71h-747l-113 -641h819l-12 -72h-1138q-266 0 -422 163t-156 448q0 177 50.5 333.5t143 274.5t232 187t306.5 69h1237zM988 72l236 1331h-338q-150 0 -274.5 -64t-206 -173t-126.5 -251t-45 -299q0 -255 136 -399.5t362 -144.5h256z
" />
    <glyph glyph-name="oe" unicode="&#x153;" horiz-adv-x="1885" 
d="M1419 1063q169 0 271 -120t102 -317q0 -57 -8 -117h-789q-3 -30 -3 -64q0 -179 90 -285.5t237 -106.5q101 0 190 52t147 151l58 -39q-65 -111 -170.5 -171t-226.5 -60q-144 0 -245 86t-133 240q-62 -152 -175.5 -239t-267.5 -87q-180 0 -289 123.5t-109 331.5
q0 124 36 237t100 198.5t160.5 136t210.5 50.5q147 0 248 -90t128 -247q61 159 178.5 248t259.5 89zM1004 574h713q1 15 1 46q0 173 -81 274t-221 101q-156 0 -267 -120t-145 -301zM498 55q129 0 229.5 78.5t151.5 202t51 267.5q0 178 -90.5 284.5t-237.5 106.5
q-130 0 -229.5 -79t-149.5 -203t-50 -267q0 -179 88.5 -284.5t236.5 -105.5z" />
    <glyph glyph-name="Racute" unicode="&#x154;" horiz-adv-x="1241" 
d="M995 1869l-237 -276h-71l224 276h84zM1228 1132q0 -180 -114 -303.5t-301 -138.5l238 -690h-84l-234 688h-424l-122 -688h-76l260 1475h512q153 0 249 -93t96 -250zM768 760q169 0 275 104.5t106 261.5q0 131 -78 204t-201 73h-435l-113 -643h446z" />
    <glyph glyph-name="racute" unicode="&#x155;" horiz-adv-x="702" 
d="M759 1513l-238 -275h-71l224 275h85zM666 1062q52 0 108 -13l-28 -70q-55 10 -92 10q-134 0 -243 -100t-143 -292l-104 -597h-72l184 1049h72l-31 -177q62 91 155 140.5t194 49.5z" />
    <glyph glyph-name="uni0156" unicode="&#x156;" horiz-adv-x="1241" 
d="M1228 1132q0 -180 -114 -303.5t-301 -138.5l238 -690h-84l-234 688h-424l-122 -688h-76l260 1475h512q153 0 249 -93t96 -250zM768 760q169 0 275 104.5t106 261.5q0 131 -78 204t-201 73h-435l-113 -643h446zM446 -229l26 142h97l-26 -146q-12 -69 -40 -105t-88 -70
l-26 39q53 30 74 56t32 82z" />
    <glyph glyph-name="uni0157" unicode="&#x157;" horiz-adv-x="702" 
d="M666 1062q52 0 108 -13l-28 -70q-55 10 -92 10q-134 0 -243 -100t-143 -292l-104 -597h-72l184 1049h72l-31 -177q62 91 155 140.5t194 49.5zM39 -229l26 142h97l-27 -146q-12 -69 -40 -105t-88 -70l-25 39q52 29 73 55t32 83z" />
    <glyph glyph-name="Rcaron" unicode="&#x158;" horiz-adv-x="1241" 
d="M804 1593h-74l-185 266h71l156 -209l226 209h81zM1228 1132q0 -180 -114 -303.5t-301 -138.5l238 -690h-84l-234 688h-424l-122 -688h-76l260 1475h512q153 0 249 -93t96 -250zM768 760q169 0 275 104.5t106 261.5q0 131 -78 204t-201 73h-435l-113 -643h446z" />
    <glyph glyph-name="rcaron" unicode="&#x159;" horiz-adv-x="702" 
d="M568 1236h-73l-186 264h72l156 -208l226 208h81zM317 872q62 91 155 140.5t194 49.5q52 0 108 -13l-28 -70q-55 10 -92 10q-134 0 -243 -100t-143 -292l-104 -597h-72l184 1049h72z" />
    <glyph glyph-name="Sacute" unicode="&#x15a;" horiz-adv-x="1311" 
d="M708 1593l224 276h84l-238 -276h-70zM617 -15q-200 0 -340.5 82.5t-186.5 230.5l71 33q37 -129 160 -202t299 -73q207 0 335.5 93.5t128.5 251.5q0 49 -12.5 89.5t-31 69.5t-52.5 53.5t-64.5 40t-81 31t-87 24t-96.5 20.5q-205 43 -310.5 128t-105.5 241q0 120 67.5 210
t181.5 136t258 46q174 0 310 -74.5t197 -201.5l-65 -35q-53 111 -170.5 175t-268.5 64q-191 0 -311.5 -84.5t-120.5 -234.5q0 -59 20.5 -105t52 -76.5t84.5 -55t103 -39t122 -30.5q90 -19 154.5 -39t125.5 -50.5t98 -69t59.5 -94t22.5 -126.5q0 -197 -151 -313t-395 -116z
" />
    <glyph glyph-name="sacute" unicode="&#x15b;" horiz-adv-x="965" 
d="M496 1232l224 275h85l-238 -275h-71zM436 -14q-145 0 -248 60.5t-144 168.5l68 30q33 -88 119.5 -139t207.5 -51q141 0 232 65t91 175q0 91 -66.5 134.5t-213.5 71.5q-153 30 -235 94.5t-82 180.5q0 134 102 210.5t260 76.5q131 0 224.5 -54t138.5 -146l-65 -33
q-37 75 -113.5 119t-186.5 44q-124 0 -205 -56.5t-81 -155.5q0 -85 68 -136t201 -77q82 -16 136.5 -34.5t101.5 -48.5t69.5 -76.5t22.5 -111.5q0 -142 -113.5 -226.5t-288.5 -84.5z" />
    <glyph glyph-name="Scircumflex" unicode="&#x15c;" horiz-adv-x="1311" 
d="M840 1802l-226 -209h-82l277 266h73l185 -266h-72zM753 1418q-191 0 -311.5 -84.5t-120.5 -234.5q0 -59 20.5 -105t52 -76.5t84.5 -55t103 -39t122 -30.5q90 -19 154.5 -39t125.5 -50.5t98 -69t59.5 -94t22.5 -126.5q0 -197 -151 -313t-395 -116q-200 0 -340.5 82.5
t-186.5 230.5l71 33q37 -129 160 -202t299 -73q207 0 335.5 93.5t128.5 251.5q0 49 -12.5 89.5t-31 69.5t-52.5 53.5t-64.5 40t-81 31t-87 24t-96.5 20.5q-205 43 -310.5 128t-105.5 241q0 120 67.5 210t181.5 136t258 46q174 0 310 -74.5t197 -201.5l-65 -35
q-53 111 -170.5 175t-268.5 64z" />
    <glyph glyph-name="scircumflex" unicode="&#x15d;" horiz-adv-x="965" 
d="M618 1438l-226 -208h-81l276 264h73l186 -264h-73zM508 568q82 -16 136.5 -34.5t101.5 -48.5t69.5 -76.5t22.5 -111.5q0 -142 -113.5 -226.5t-288.5 -84.5q-145 0 -248 60.5t-144 168.5l68 30q33 -88 119.5 -139t207.5 -51q141 0 232 65t91 175q0 91 -66.5 134.5
t-213.5 71.5q-153 30 -235 94.5t-82 180.5q0 134 102 210.5t260 76.5q131 0 224.5 -54t138.5 -146l-65 -33q-37 75 -113.5 119t-186.5 44q-124 0 -205 -56.5t-81 -155.5q0 -85 68 -136t201 -77z" />
    <glyph glyph-name="Scedilla" unicode="&#x15e;" horiz-adv-x="1311" 
d="M753 1418q-191 0 -311.5 -84.5t-120.5 -234.5q0 -59 20.5 -105t52 -76.5t84.5 -55t103 -39t122 -30.5q90 -19 154.5 -39t125.5 -50.5t98 -69t59.5 -94t22.5 -126.5q0 -190 -140.5 -305t-370.5 -123l-122 -299h-67l123 299q-188 6 -319.5 88.5t-176.5 223.5l71 33
q37 -129 160 -202t299 -73q207 0 335.5 93.5t128.5 251.5q0 49 -12.5 89.5t-31 69.5t-52.5 53.5t-64.5 40t-81 31t-87 24t-96.5 20.5q-205 43 -310.5 128t-105.5 241q0 120 67.5 210t181.5 136t258 46q174 0 310 -74.5t197 -201.5l-65 -35q-53 111 -170.5 175t-268.5 64z
" />
    <glyph glyph-name="scedilla" unicode="&#x15f;" horiz-adv-x="965" 
d="M508 568q82 -16 136.5 -34.5t101.5 -48.5t69.5 -76.5t22.5 -111.5q0 -139 -110 -223.5t-282 -87.5l-121 -299h-68l124 301q-124 11 -212 70.5t-125 156.5l68 30q33 -88 119.5 -139t207.5 -51q141 0 232 65t91 175q0 91 -66.5 134.5t-213.5 71.5q-153 30 -235 94.5
t-82 180.5q0 134 102 210.5t260 76.5q131 0 224.5 -54t138.5 -146l-65 -33q-37 75 -113.5 119t-186.5 44q-124 0 -205 -56.5t-81 -155.5q0 -85 68 -136t201 -77z" />
    <glyph glyph-name="Scaron" unicode="&#x160;" horiz-adv-x="1311" 
d="M824 1593h-73l-186 266h72l156 -209l226 209h81zM753 1418q-191 0 -311.5 -84.5t-120.5 -234.5q0 -59 20.5 -105t52 -76.5t84.5 -55t103 -39t122 -30.5q90 -19 154.5 -39t125.5 -50.5t98 -69t59.5 -94t22.5 -126.5q0 -197 -151 -313t-395 -116q-200 0 -340.5 82.5
t-186.5 230.5l71 33q37 -129 160 -202t299 -73q207 0 335.5 93.5t128.5 251.5q0 49 -12.5 89.5t-31 69.5t-52.5 53.5t-64.5 40t-81 31t-87 24t-96.5 20.5q-205 43 -310.5 128t-105.5 241q0 120 67.5 210t181.5 136t258 46q174 0 310 -74.5t197 -201.5l-65 -35
q-53 111 -170.5 175t-268.5 64z" />
    <glyph glyph-name="scaron" unicode="&#x161;" horiz-adv-x="965" 
d="M613 1230h-73l-186 264h72l156 -208l226 208h81zM508 568q82 -16 136.5 -34.5t101.5 -48.5t69.5 -76.5t22.5 -111.5q0 -142 -113.5 -226.5t-288.5 -84.5q-145 0 -248 60.5t-144 168.5l68 30q33 -88 119.5 -139t207.5 -51q141 0 232 65t91 175q0 91 -66.5 134.5
t-213.5 71.5q-153 30 -235 94.5t-82 180.5q0 134 102 210.5t260 76.5q131 0 224.5 -54t138.5 -146l-65 -33q-37 75 -113.5 119t-186.5 44q-124 0 -205 -56.5t-81 -155.5q0 -85 68 -136t201 -77z" />
    <glyph glyph-name="uni0162" unicode="&#x162;" horiz-adv-x="1180" 
d="M1296 1475l-12 -72h-500l-247 -1403h-5l-128 -313h-67l129 313h-5l248 1403h-502l12 72h1077z" />
    <glyph glyph-name="uni0163" unicode="&#x163;" horiz-adv-x="695" 
d="M378 983l-133 -755q-5 -30 -5 -52q0 -124 126 -124q38 0 107 21l17 -64q-73 -23 -129 -23q-17 0 -25 1l-123 -300h-68l129 313q-107 41 -107 166q0 21 6 59l133 758h-149l12 66h149l50 281h71l-50 -281h252l-11 -66h-252z" />
    <glyph glyph-name="Tcaron" unicode="&#x164;" horiz-adv-x="1180" 
d="M804 1593h-74l-185 266h71l156 -209l226 209h81zM1296 1475l-12 -72h-500l-247 -1403h-76l248 1403h-502l12 72h1077z" />
    <glyph glyph-name="tcaron" unicode="&#x165;" horiz-adv-x="658" 
d="M651 1498l-83 -364h-60l64 364h79zM440 1330l-50 -281h252l-11 -67h-252l-133 -754q-5 -30 -5 -52q0 -124 126 -124q38 0 107 21l18 -64q-73 -23 -130 -23q-91 0 -142.5 47.5t-51.5 132.5q0 30 6 59l133 757h-149l12 67h149l50 281h71z" />
    <glyph glyph-name="Tbar" unicode="&#x166;" horiz-adv-x="1180" 
d="M1284 1403h-500l-95 -540h351l-12 -71h-352l-139 -792h-76l139 792h-352l13 71h352l96 540h-502l12 72h1077z" />
    <glyph glyph-name="tbar" unicode="&#x167;" horiz-adv-x="659" 
d="M628 982h-252l-63 -354h195l-11 -66h-195l-59 -334q-4 -24 -4 -51q0 -125 123 -125q43 0 110 21l16 -63q-72 -24 -129 -24q-91 0 -142.5 47.5t-51.5 132.5q0 30 6 59l59 337h-135l11 66h136l62 354h-148l10 67h149l51 282h71l-50 -282h252z" />
    <glyph glyph-name="Utilde" unicode="&#x168;" horiz-adv-x="1403" 
d="M607 1609l-48 37q101 136 209 136q62 0 146 -58q71 -52 121 -52q77 0 154 109l48 -37q-102 -136 -205 -136q-64 0 -147 59q-70 50 -120 50q-80 0 -158 -108zM632 -15q-211 0 -338.5 112.5t-127.5 301.5q0 60 9 111l169 965h78l-170 -960q-9 -57 -9 -106
q0 -161 107 -256.5t286 -95.5q207 0 340.5 119.5t171.5 338.5l169 960h78l-171 -975q-44 -248 -197 -381.5t-395 -133.5z" />
    <glyph glyph-name="utilde" unicode="&#x169;" horiz-adv-x="1145" 
d="M569 1383q-79 0 -157 -108l-48 37q101 136 207 136q67 0 148 -58q71 -52 121 -52q75 0 153 109l48 -37q-102 -136 -204 -136q-65 0 -148 59q-70 50 -120 50zM982 1049h72l-185 -1049h-71l29 167q-61 -84 -163 -132.5t-220 -48.5q-138 0 -224 74.5t-86 199.5q0 32 6 67
l126 722h72l-125 -710q-7 -45 -7 -66q0 -102 67.5 -162t181.5 -60q163 0 275 102t137 242z" />
    <glyph glyph-name="Umacron" unicode="&#x16a;" horiz-adv-x="1403" 
d="M627 1665l11 62h529l-11 -62h-529zM632 -15q-211 0 -338.5 112.5t-127.5 301.5q0 60 9 111l169 965h78l-170 -960q-9 -57 -9 -106q0 -161 107 -256.5t286 -95.5q207 0 340.5 119.5t171.5 338.5l169 960h78l-171 -975q-44 -248 -197 -381.5t-395 -133.5z" />
    <glyph glyph-name="umacron" unicode="&#x16b;" horiz-adv-x="1145" 
d="M977 1359l-10 -63h-530l12 63h528zM982 1049h72l-185 -1049h-71l29 167q-61 -84 -163 -132.5t-220 -48.5q-138 0 -224 74.5t-86 199.5q0 32 6 67l126 722h72l-125 -710q-7 -45 -7 -66q0 -102 67.5 -162t181.5 -60q163 0 275 102t137 242z" />
    <glyph glyph-name="Ubreve" unicode="&#x16c;" horiz-adv-x="1403" 
d="M894 1584q-108 0 -171.5 72t-69.5 201h59q6 -105 55 -162t129 -57q81 0 141.5 57.5t87.5 161.5h64q-30 -129 -108.5 -201t-186.5 -72zM632 -15q-211 0 -338.5 112.5t-127.5 301.5q0 60 9 111l169 965h78l-170 -960q-9 -57 -9 -106q0 -161 107 -256.5t286 -95.5
q207 0 340.5 119.5t171.5 338.5l169 960h78l-171 -975q-44 -248 -197 -381.5t-395 -133.5z" />
    <glyph glyph-name="ubreve" unicode="&#x16d;" horiz-adv-x="1145" 
d="M712 1228q-108 0 -171.5 72t-69.5 200h58q6 -104 55.5 -160.5t129.5 -56.5q81 0 141.5 56.5t87.5 160.5h64q-30 -128 -108.5 -200t-186.5 -72zM982 1049h72l-185 -1049h-71l29 167q-61 -84 -163 -132.5t-220 -48.5q-138 0 -224 74.5t-86 199.5q0 32 6 67l126 722h72
l-125 -710q-7 -45 -7 -66q0 -102 67.5 -162t181.5 -60q163 0 275 102t137 242z" />
    <glyph glyph-name="Uring" unicode="&#x16e;" horiz-adv-x="1403" 
d="M892 1578q-80 0 -129.5 49t-49.5 125q0 89 58 147.5t145 58.5q80 0 130 -49.5t50 -125.5q0 -89 -59 -147t-145 -58zM893 1631q60 0 102.5 43t42.5 106q0 54 -34 89t-90 35q-61 0 -103 -41.5t-42 -105.5q0 -55 34 -90.5t90 -35.5zM632 -15q-211 0 -338.5 112.5
t-127.5 301.5q0 60 9 111l169 965h78l-170 -960q-9 -57 -9 -106q0 -161 107 -256.5t286 -95.5q207 0 340.5 119.5t171.5 338.5l169 960h78l-171 -975q-44 -248 -197 -381.5t-395 -133.5z" />
    <glyph glyph-name="uring" unicode="&#x16f;" horiz-adv-x="1145" 
d="M691 1218q-80 0 -129.5 49.5t-49.5 125.5q0 89 58.5 146.5t145.5 57.5q80 0 129.5 -49.5t49.5 -124.5q0 -89 -59 -147t-145 -58zM714 1543q-62 0 -104 -41t-42 -104q0 -56 34 -91t90 -35q61 0 103.5 42t42.5 105q0 55 -34 89.5t-90 34.5zM982 1049h72l-185 -1049h-71
l29 167q-61 -84 -163 -132.5t-220 -48.5q-138 0 -224 74.5t-86 199.5q0 32 6 67l126 722h72l-125 -710q-7 -45 -7 -66q0 -102 67.5 -162t181.5 -60q163 0 275 102t137 242z" />
    <glyph glyph-name="Uhungarumlaut" unicode="&#x170;" horiz-adv-x="1403" 
d="M645 1593l224 276h84l-237 -276h-71zM964 1593l223 276h85l-238 -276h-70zM632 -15q-211 0 -338.5 112.5t-127.5 301.5q0 60 9 111l169 965h78l-170 -960q-9 -57 -9 -106q0 -161 107 -256.5t286 -95.5q207 0 340.5 119.5t171.5 338.5l169 960h78l-171 -975
q-44 -248 -197 -381.5t-395 -133.5z" />
    <glyph glyph-name="uhungarumlaut" unicode="&#x171;" horiz-adv-x="1145" 
d="M779 1513l-237 -275h-72l224 275h85zM849 1238h-72l224 275h85zM867 395l115 654h72l-185 -1049h-71l29 167q-61 -84 -163 -132.5t-220 -48.5q-138 0 -224 74.5t-86 199.5q0 32 6 67l126 722h72l-125 -710q-7 -45 -7 -66q0 -102 67.5 -162t181.5 -60q163 0 275 102
t137 242z" />
    <glyph glyph-name="Uogonek" unicode="&#x172;" horiz-adv-x="1408" 
d="M1319 1475h77l-171 -974q-58 -326 -302 -453q-137 -71 -211.5 -153t-74.5 -147q0 -46 29 -74.5t78 -28.5q60 0 113 45l30 -49q-75 -56 -146 -56q-75 0 -122.5 43t-47.5 111q0 127 188 258q-59 -12 -125 -12q-211 0 -339 113t-128 301q0 55 10 111l170 965h77l-170 -960
q-9 -49 -9 -106q0 -161 106.5 -256t286.5 -95q206 0 340 119t172 338z" />
    <glyph glyph-name="uogonek" unicode="&#x173;" horiz-adv-x="1145" 
d="M855 0q-126 -57 -190 -122t-64 -130q0 -46 29.5 -74.5t78.5 -28.5q59 0 112 45l30 -49q-73 -55 -145 -55q-76 0 -123 42.5t-47 110.5q0 80 66 147t198 127l27 154q-61 -84 -163 -132.5t-220 -48.5q-138 0 -224 74.5t-86 199.5q0 32 6 67l126 722h72l-125 -710
q-7 -45 -7 -66q0 -102 67.5 -162t181.5 -60q163 0 275 102t137 242l115 654h72l-185 -1049h-14z" />
    <glyph glyph-name="Wcircumflex" unicode="&#x174;" horiz-adv-x="1969" 
d="M1213 1802l-225 -209h-82l277 266h72l186 -266h-72zM1972 1475h85l-677 -1475h-76l-170 1357l-631 -1357h-79l-176 1475h78l156 -1352l630 1352h75l172 -1350z" />
    <glyph glyph-name="wcircumflex" unicode="&#x175;" horiz-adv-x="1544" 
d="M943 1444l-226 -208h-81l275 264h74l185 -264h-72zM1516 1049h82l-514 -1049h-79l-155 955l-483 -955h-81l-155 1049h77l131 -959l482 959h80l155 -958z" />
    <glyph glyph-name="Ycircumflex" unicode="&#x176;" horiz-adv-x="1173" 
d="M799 1802l-226 -209h-81l276 266h73l185 -266h-72zM1204 1475h88l-650 -850l-110 -625h-76l110 625l-348 850h77l318 -784z" />
    <glyph glyph-name="ycircumflex" unicode="&#x177;" horiz-adv-x="907" 
d="M626 1444l-227 -208h-81l276 264h74l185 -264h-73zM894 1049h80l-709 -1282q-42 -76 -86 -108t-104 -32q-54 0 -111 22l22 61q44 -18 87 -18q40 0 69.5 23t61.5 80l157 283l-242 971h75l216 -890z" />
    <glyph glyph-name="Ydieresis" unicode="&#x178;" horiz-adv-x="1173" 
d="M637 1804l-30 -165h-80l30 165h80zM1033 1804l-28 -165h-80l29 165h79zM1204 1475h88l-650 -850l-110 -625h-76l110 625l-348 850h77l318 -784z" />
    <glyph glyph-name="Zacute" unicode="&#x179;" horiz-adv-x="1281" 
d="M707 1593l224 276h84l-238 -276h-70zM39 0l11 67l1131 1336h-896l13 72h992l-12 -67l-1131 -1336h924l-13 -72h-1019z" />
    <glyph glyph-name="zacute" unicode="&#x17a;" horiz-adv-x="1038" 
d="M549 1238l224 275h85l-237 -275h-72zM49 0l11 61l781 921h-616l13 67h709l-11 -62l-780 -920h663l-11 -67h-759z" />
    <glyph glyph-name="Zdotaccent" unicode="&#x17b;" horiz-adv-x="1281" 
d="M766 1636l30 168h80l-30 -168h-80zM39 0l11 67l1131 1336h-896l13 72h992l-12 -67l-1131 -1336h924l-13 -72h-1019z" />
    <glyph glyph-name="zdotaccent" unicode="&#x17c;" horiz-adv-x="1038" 
d="M604 1307l30 168h81l-30 -168h-81zM49 0l11 61l781 921h-616l13 67h709l-11 -62l-780 -920h663l-11 -67h-759z" />
    <glyph glyph-name="Zcaron" unicode="&#x17d;" horiz-adv-x="1281" 
d="M823 1593h-73l-186 266h72l156 -209l226 209h81zM1290 1475l-12 -67l-1131 -1336h924l-13 -72h-1019l11 67l1131 1336h-896l13 72h992z" />
    <glyph glyph-name="zcaron" unicode="&#x17e;" horiz-adv-x="1038" 
d="M668 1236h-74l-185 264h71l156 -208l226 208h81zM947 1049l-11 -62l-780 -920h663l-11 -67h-759l11 61l781 921h-616l13 67h709z" />
    <glyph glyph-name="longs" unicode="&#x17f;" horiz-adv-x="600" 
d="M641 1489q59 0 120 -22l-27 -60q-50 13 -92 13q-85 0 -140.5 -54t-73.5 -155l-214 -1211h-72l173 982h-169l13 67h169l30 175q23 128 97.5 196.5t185.5 68.5z" />
    <glyph glyph-name="uni018F" unicode="&#x18f;" horiz-adv-x="1508" 
d="M859 1490q258 0 413 -170t155 -457q0 -177 -49 -336t-139 -279.5t-227 -191.5t-302 -71q-252 0 -404 171t-152 459q0 69 7 128h1182q6 76 6 115q0 256 -136 407.5t-357 151.5q-168 0 -301 -79.5t-210 -212.5l-64 39q91 151 240 238.5t338 87.5zM714 57q166 0 298.5 84
t211.5 220.5t109 310.5h-1099q-2 -15 -2 -50q0 -262 128.5 -413.5t353.5 -151.5z" />
    <glyph glyph-name="florin" unicode="&#x192;" horiz-adv-x="744" 
d="M763 1438q53 0 113 -20l-25 -61q-48 12 -87 12q-185 0 -238 -245l-64 -310h225l-11 -68h-227l-99 -472q-29 -138 -107 -213t-193 -75q-60 0 -116 19l26 64q48 -15 92 -15q88 0 147 62t84 183l93 447h-216l12 68h217l70 335q28 137 108 213t196 76z" />
    <glyph glyph-name="uni01F4" unicode="&#x1f4;" horiz-adv-x="1479" 
d="M1135 1869l-238 -276h-71l225 276h84zM817 656l13 72h531l-128 -728h-72l42 237q-84 -119 -206.5 -185.5t-271.5 -66.5q-254 0 -411 171.5t-157 458.5q0 178 51 336.5t143 278.5t231.5 190t306.5 70q165 0 288.5 -79.5t199.5 -233.5l-67 -32q-135 272 -424 272
q-149 0 -273.5 -65t-206 -175t-126 -253.5t-44.5 -301.5q0 -259 136.5 -412t360.5 -153q105 0 197 39t156.5 105t107.5 150t59 178l23 127h-459z" />
    <glyph glyph-name="uni01F5" unicode="&#x1f5;" horiz-adv-x="1207" 
d="M938 1513l-238 -275h-71l224 275h85zM1043 1049h72l-169 -956q-82 -466 -491 -466q-283 0 -406 203l59 43q100 -179 350 -179q345 0 416 399l20 109q-64 -94 -164.5 -148t-217.5 -54q-185 0 -298 122t-113 337q0 166 62 302.5t180.5 219t271.5 82.5q148 0 248.5 -74
t133.5 -201zM952 550q21 202 -65.5 322.5t-263.5 120.5q-132 0 -235.5 -73t-158 -193t-54.5 -263q0 -184 94.5 -289t250.5 -105q180 0 295 132.5t137 347.5z" />
    <glyph glyph-name="Aringacute" unicode="&#x1fa;" horiz-adv-x="1361" 
d="M1083 2163l-237 -276h-72l224 276h85zM1120 0l-101 470h-695l-259 -470h-88l802 1445q-54 18 -84.5 62t-30.5 103q0 88 59.5 147t145.5 59q80 0 129 -49.5t49 -125.5t-46 -131t-116 -70l315 -1440h-80zM721 1616q0 -56 33 -91t89 -35q61 0 104 42t43 105q0 55 -33.5 89.5
t-89.5 34.5q-62 0 -104 -41t-42 -104zM364 542h640l-181 832z" />
    <glyph glyph-name="aringacute" unicode="&#x1fb;" horiz-adv-x="1064" 
d="M913 1945l-237 -276h-72l224 276h85zM635 1218q-80 0 -129.5 49.5t-49.5 125.5q0 89 58 146.5t145 57.5q80 0 130 -49.5t50 -124.5q0 -89 -59 -147t-145 -58zM657 1543q-61 0 -103 -41t-42 -104q0 -56 34 -91t90 -35q61 0 103 42t42 105q0 55 -34 89.5t-90 34.5z
M578 1063q160 0 252 -84.5t92 -224.5q0 -42 -8 -87l-117 -667h-72l30 166q-57 -81 -158.5 -130.5t-219.5 -49.5q-143 0 -228.5 75t-85.5 206q0 162 135 248.5t372 86.5h261l11 63q7 39 7 77q0 116 -73 184.5t-202 68.5q-188 0 -314 -152l-50 47q145 173 368 173zM793 381
l27 156h-241q-209 0 -325.5 -66.5t-116.5 -200.5q0 -103 65.5 -160.5t176.5 -57.5q156 0 273 95.5t141 233.5z" />
    <glyph glyph-name="AEacute" unicode="&#x1fc;" horiz-adv-x="2024" 
d="M1828 1869l-238 -276h-70l224 276h84zM2081 1403h-811l-110 -619h748l-13 -71h-747l-113 -641h818l-12 -72h-896l83 470h-583l-376 -470h-97l1187 1475h935zM1040 542l152 861l-689 -861h537z" />
    <glyph glyph-name="aeacute" unicode="&#x1fd;" horiz-adv-x="1745" 
d="M1211 1513l-237 -275h-72l224 275h85zM1287 1063q166 0 266 -120t100 -318q0 -46 -8 -116h-780q-4 -25 -4 -64q0 -178 89.5 -284.5t236.5 -106.5q98 0 185.5 51.5t145.5 149.5l57 -38q-66 -111 -169.5 -171t-220.5 -60q-145 0 -245 86.5t-129 241.5l-7 -24
q-46 -132 -164 -218t-278 -86q-136 0 -218 72t-82 196q0 86 37.5 149.5t106 100t155 53.5t195.5 17h247l14 91q7 45 7 80q0 115 -69 183t-191 68q-187 0 -307 -150l-48 46q138 171 358 171q136 0 221 -71.5t96 -193.5q65 121 169.5 193t233.5 72zM874 574h703q1 17 1 46
q0 173 -78.5 273.5t-214.5 100.5q-157 0 -267 -120.5t-144 -299.5zM767 380l26 129h-231q-426 0 -426 -251q0 -96 62.5 -151t166.5 -55q157 0 266 94t136 234z" />
    <glyph glyph-name="Oslashacute" unicode="&#x1fe;" horiz-adv-x="1544" 
d="M1130 1868l-237 -276h-71l225 276h83zM1525 1477l-182 -201q120 -164 120 -413q0 -178 -50.5 -337t-143 -279.5t-232 -191.5t-307.5 -71q-253 0 -407 160l-172 -191l-55 47l180 201q-119 162 -119 414q0 178 51 336.5t143.5 278.5t231.5 190.5t306 70.5q251 0 408 -160
l172 192zM886 1417q-149 0 -273.5 -65t-205.5 -175t-126 -253.5t-45 -302.5q0 -214 96 -360l910 1011q-136 145 -356 145zM733 57q120 0 225 43t182 118.5t132.5 176.5t83.5 219t28 244q0 212 -97 356l-910 -1010q138 -147 356 -147z" />
    <glyph glyph-name="oslashacute" unicode="&#x1ff;" horiz-adv-x="1164" 
d="M891 1508l-238 -275h-71l224 275h85zM1110 1060l-142 -158q86 -121 86 -300q0 -123 -37.5 -234.5t-104 -196t-167 -135t-219.5 -50.5q-169 0 -278 101l-125 -141l-50 42l132 147q-94 122 -94 311q0 123 37 234.5t104 196.5t167 135.5t218 50.5q178 0 290 -112l134 151z
M636 993q-102 0 -188.5 -45.5t-143 -121t-88 -173t-31.5 -202.5q0 -154 72 -258l620 702q-92 98 -241 98zM528 55q102 0 188.5 45.5t143 121.5t88 173.5t31.5 202.5q0 143 -64 246l-617 -701q90 -88 230 -88z" />
    <glyph glyph-name="uni0218" unicode="&#x218;" horiz-adv-x="1311" 
d="M753 1418q-191 0 -311.5 -84.5t-120.5 -234.5q0 -59 20.5 -105t52 -76.5t84.5 -55t103 -39t122 -30.5q90 -19 154.5 -39t125.5 -50.5t98 -69t59.5 -94t22.5 -126.5q0 -197 -151 -313t-395 -116q-200 0 -340.5 82.5t-186.5 230.5l71 33q37 -129 160 -202t299 -73
q207 0 335.5 93.5t128.5 251.5q0 49 -12.5 89.5t-31 69.5t-52.5 53.5t-64.5 40t-81 31t-87 24t-96.5 20.5q-205 43 -310.5 128t-105.5 241q0 120 67.5 210t181.5 136t258 46q174 0 310 -74.5t197 -201.5l-65 -35q-53 111 -170.5 175t-268.5 64zM537 -229l25 142h97l-26 -146
q-12 -69 -40 -105t-88 -70l-26 39q53 30 74 56t32 82z" />
    <glyph glyph-name="uni0219" unicode="&#x219;" horiz-adv-x="965" 
d="M508 568q82 -16 136.5 -34.5t101.5 -48.5t69.5 -76.5t22.5 -111.5q0 -142 -113.5 -226.5t-288.5 -84.5q-145 0 -248 60.5t-144 168.5l68 30q33 -88 119.5 -139t207.5 -51q141 0 232 65t91 175q0 91 -66.5 134.5t-213.5 71.5q-153 30 -235 94.5t-82 180.5q0 134 102 210.5
t260 76.5q131 0 224.5 -54t138.5 -146l-65 -33q-37 75 -113.5 119t-186.5 44q-124 0 -205 -56.5t-81 -155.5q0 -85 68 -136t201 -77zM328 -229l25 142h98l-27 -146q-12 -69 -40 -105t-88 -70l-26 39q53 30 74 56t32 82z" />
    <glyph glyph-name="uni021A" unicode="&#x21a;" horiz-adv-x="1180" 
d="M1296 1475l-12 -72h-500l-247 -1403h-76l248 1403h-502l12 72h1077zM410 -229l25 142h97l-26 -146q-12 -69 -40 -105t-88 -70l-26 39q53 30 74 56t32 82z" />
    <glyph glyph-name="uni021B" unicode="&#x21b;" horiz-adv-x="695" 
d="M378 983l-133 -755q-5 -30 -5 -52q0 -124 126 -124q38 0 107 21l17 -64q-73 -23 -129 -23q-91 0 -142.5 47.5t-51.5 132.5q0 21 6 59l133 758h-149l12 66h149l50 281h71l-50 -281h252l-11 -66h-252zM216 -229l26 142h97l-27 -146q-12 -69 -40 -105t-88 -70l-25 39
q52 29 73 55t32 83z" />
    <glyph glyph-name="uni0237" unicode="&#x237;" horiz-adv-x="440" 
d="M-89 -370q-62 0 -119 25l26 61q43 -18 90 -18q130 0 163 179l205 1172h72l-210 -1189q-41 -230 -227 -230z" />
    <glyph glyph-name="uni0259" unicode="&#x259;" horiz-adv-x="1104" 
d="M588 1063q188 0 303 -125.5t115 -335.5q0 -165 -63 -305t-183 -226t-272 -86q-180 0 -288 121.5t-108 321.5q0 44 9 112h827q2 19 2 58q0 181 -94 288.5t-249 107.5q-107 0 -202.5 -51.5t-155.5 -150.5l-58 39q67 111 178.5 171.5t238.5 60.5zM492 54q111 0 202.5 58
t147.5 152t77 210h-751q-1 -14 -1 -40q0 -176 87 -278t238 -102z" />
    <glyph glyph-name="h.sups" unicode="&#x2b0;" horiz-adv-x="758" 
d="M574 1484q92 0 149 -51t57 -133q0 -21 -4 -42l-82 -465h-65l81 456q3 14 3 41q0 63 -42.5 99.5t-115.5 36.5q-99 0 -167 -63.5t-83 -147.5l-75 -422h-65l170 958h64l-66 -376q42 50 106.5 79.5t134.5 29.5z" />
    <glyph glyph-name="j.sups" unicode="&#x2b2;" horiz-adv-x="295" 
d="M309 1632l21 118h69l-20 -118h-70zM51 552q-49 0 -86 16l20 53q32 -13 59 -13q88 0 108 117l132 750h65l-135 -767q-27 -156 -163 -156z" />
    <glyph glyph-name="r.sups" unicode="&#x2b3;" horiz-adv-x="468" 
d="M553 1483q38 0 73 -8l-21 -61q-35 8 -61 8q-91 0 -157.5 -65t-86.5 -173l-70 -391h-65l121 682h63l-17 -101q38 52 97.5 80.5t123.5 28.5z" />
    <glyph glyph-name="w.sups" unicode="&#x2b7;" horiz-adv-x="1039" 
d="M1101 1475h71l-331 -683h-68l-98 609l-306 -609h-68l-98 683h66l80 -604l302 604h68l94 -604z" />
    <glyph glyph-name="y.sups" unicode="&#x2b8;" horiz-adv-x="620" 
d="M692 1475h71l-456 -825q-30 -54 -62.5 -77t-78.5 -23q-42 0 -80 16l20 51q26 -12 57 -12q27 0 47 15t40 50l100 178l-157 627h66l133 -556z" />
    <glyph glyph-name="circumflex" unicode="&#x2c6;" horiz-adv-x="614" 
d="M520 1236h-73l-154 208l-226 -208h-81l275 264h74z" />
    <glyph glyph-name="caron" unicode="&#x2c7;" horiz-adv-x="614" 
d="M485 1500h81l-275 -264h-74l-185 264h71l156 -208z" />
    <glyph glyph-name="uni02C9" unicode="&#x2c9;" horiz-adv-x="571" 
d="M157 1296l11 63h529l-11 -63h-529z" />
    <glyph glyph-name="breve" unicode="&#x2d8;" horiz-adv-x="614" 
d="M271 1228q-108 0 -171 72t-69 200h58q6 -105 55 -161t129 -56q82 0 142.5 57t87.5 160h63q-30 -128 -108.5 -200t-186.5 -72z" />
    <glyph glyph-name="dotaccent" unicode="&#x2d9;" horiz-adv-x="614" 
d="M178 1307l30 168h81l-30 -168h-81z" />
    <glyph glyph-name="ring" unicode="&#x2da;" horiz-adv-x="614" 
d="M288 1218q-80 0 -129.5 49.5t-49.5 125.5q0 89 58 146.5t145 57.5q80 0 130 -49.5t50 -124.5q0 -89 -59 -147t-145 -58zM289 1272q61 0 103 42t42 105q0 55 -34 89.5t-90 34.5q-61 0 -103 -41t-42 -104q0 -56 34 -91t90 -35z" />
    <glyph glyph-name="ogonek" unicode="&#x2db;" horiz-adv-x="614" 
d="M225 -414q-76 0 -123 42.5t-47 110.5q0 156 274 278l50 -15q-128 -57 -193 -122.5t-65 -131.5q0 -46 29 -74.5t78 -28.5q60 0 113 45l30 -49q-73 -55 -146 -55z" />
    <glyph glyph-name="tilde" unicode="&#x2dc;" horiz-adv-x="640" 
d="M41 1275l-48 37q101 136 208 136q66 0 147 -58q71 -52 121 -52q76 0 154 109l48 -37q-102 -136 -205 -136q-65 0 -148 59q-70 50 -119 50q-80 0 -158 -108z" />
    <glyph glyph-name="hungarumlaut" unicode="&#x2dd;" horiz-adv-x="552" 
d="M-9 1238l224 275h85l-238 -275h-71zM298 1238l224 275h85l-237 -275h-72z" />
    <glyph glyph-name="l.sups" unicode="&#x2e1;" horiz-adv-x="300" 
d="M165 792l169 958h65l-169 -958h-65z" />
    <glyph glyph-name="s.sups" unicode="&#x2e2;" horiz-adv-x="654" 
d="M415 782q-199 0 -275 143l50 31q62 -117 225 -117q82 0 136.5 39.5t54.5 106.5q0 55 -41.5 83t-136.5 44q-210 38 -210 183q0 88 71 139t178 51q82 0 149 -35t97 -94l-50 -31q-25 46 -79 74t-120 28q-77 0 -129 -34.5t-52 -93.5q0 -102 173 -131q110 -20 163 -60.5
t53 -119.5q0 -95 -73 -150.5t-184 -55.5z" />
    <glyph glyph-name="x.sups" unicode="&#x2e3;" horiz-adv-x="663" 
d="M750 1475l-276 -333l180 -350h-67l-156 306l-251 -306h-77l293 354l-168 329h69l143 -286l234 286h76z" />
    <glyph glyph-name="gravecomb" unicode="&#x300;" horiz-adv-x="0" 
d="M-337 1238l-236 275h83l224 -275h-71z" />
    <glyph glyph-name="acutecomb" unicode="&#x301;" horiz-adv-x="0" 
d="M-574 1238l224 275h85l-238 -275h-71z" />
    <glyph glyph-name="uni0302" unicode="&#x302;" horiz-adv-x="0" 
d="M-178 1236h-72l-154 208l-227 -208h-82l277 264h72z" />
    <glyph glyph-name="tildecomb" unicode="&#x303;" horiz-adv-x="0" 
d="M-714 1275l-48 37q101 136 208 136q67 0 146 -58q72 -52 122 -52q76 0 154 109l47 -37q-102 -136 -204 -136q-65 0 -148 59q-69 50 -119 50q-80 0 -158 -108z" />
    <glyph glyph-name="uni0304" unicode="&#x304;" horiz-adv-x="0" 
d="M-698 1296l11 63h528l-11 -63h-528z" />
    <glyph glyph-name="uni0306" unicode="&#x306;" horiz-adv-x="0" 
d="M-424 1228q-108 0 -171.5 72t-70.5 200h60q6 -105 55 -161t128 -56q82 0 142.5 57t86.5 160h65q-30 -128 -108.5 -200t-186.5 -72z" />
    <glyph glyph-name="uni0307" unicode="&#x307;" horiz-adv-x="0" 
d="M-473 1307l30 168h81l-29 -168h-82z" />
    <glyph glyph-name="uni0308" unicode="&#x308;" horiz-adv-x="0" 
d="M-648 1311l28 164h84l-28 -164h-84zM-298 1311l28 164h85l-29 -164h-84z" />
    <glyph glyph-name="uni030A" unicode="&#x30a;" horiz-adv-x="0" 
d="M-426 1218q-80 0 -130 49.5t-50 125.5q0 88 59 146t146 58q80 0 129 -49.5t49 -124.5q0 -89 -58.5 -147t-144.5 -58zM-426 1272q61 0 103 42t42 105q0 55 -33 89.5t-90 34.5q-61 0 -103 -41t-42 -104q0 -56 33.5 -91t89.5 -35z" />
    <glyph glyph-name="uni030B" unicode="&#x30b;" horiz-adv-x="0" 
d="M-728 1238l224 275h85l-237 -275h-72zM-421 1238l224 275h85l-237 -275h-72z" />
    <glyph glyph-name="uni030C" unicode="&#x30c;" horiz-adv-x="0" 
d="M-212 1500h81l-276 -264h-72l-186 264h72l155 -208z" />
    <glyph glyph-name="uni0312" unicode="&#x312;" horiz-adv-x="0" 
d="M-336 1506q-53 -30 -73.5 -55.5t-30.5 -81.5l47 -2l-25 -142h-97l26 146q12 69 40 104.5t89 69.5z" />
    <glyph glyph-name="uni0313" unicode="&#x313;" horiz-adv-x="0" 
d="M18 1475h98l-31 -176q-26 -156 -142 -236l-30 40q98 68 122 202l-46 1z" />
    <glyph glyph-name="dotbelowcomb" unicode="&#x323;" horiz-adv-x="0" 
d="M-749 -255l30 169h81l-29 -169h-82z" />
    <glyph glyph-name="uni0324" unicode="&#x324;" horiz-adv-x="0" 
d="M-924 -249l29 164h85l-29 -164h-85zM-573 -249l28 164h84l-28 -164h-84z" />
    <glyph glyph-name="uni0325" unicode="&#x325;" horiz-adv-x="0" 
d="M-723 -466q-80 0 -130 49.5t-50 124.5q0 89 59 147.5t146 58.5q80 0 129 -49.5t49 -124.5q0 -89 -58.5 -147.5t-144.5 -58.5zM-723 -412q61 0 103.5 42.5t42.5 105.5q0 55 -33.5 89.5t-89.5 34.5q-61 0 -103.5 -41.5t-42.5 -104.5q0 -56 33.5 -91t89.5 -35z" />
    <glyph glyph-name="uni0326" unicode="&#x326;" horiz-adv-x="0" 
d="M-391 -87h97l-27 -146q-12 -69 -40 -105t-88 -70l-25 39q52 29 73 55t32 83l-48 2z" />
    <glyph glyph-name="uni0327" unicode="&#x327;" horiz-adv-x="0" 
d="M-788 -313l128 313h67l-128 -313h-67z" />
    <glyph glyph-name="uni0328" unicode="&#x328;" horiz-adv-x="0" 
d="M-837 -414q-76 0 -123 42.5t-47 110.5q0 156 274 278l50 -15q-128 -57 -193 -122.5t-65 -131.5q0 -46 29 -74.5t78 -28.5q60 0 113 45l30 -49q-73 -55 -146 -55z" />
    <glyph glyph-name="uni032E" unicode="&#x32e;" horiz-adv-x="0" 
d="M-705 -359q-108 0 -171 72t-70 200h59q6 -105 55 -161t129 -56q82 0 142.5 57t86.5 160h64q-30 -128 -108.5 -200t-186.5 -72z" />
    <glyph glyph-name="uni0331" unicode="&#x331;" horiz-adv-x="0" 
d="M-953 -148l11 62h529l-11 -62h-529z" />
    <glyph glyph-name="uni0394" unicode="&#x394;" horiz-adv-x="1354" 
d="M887 1475l307 -1412l-11 -63h-1196l11 63l805 1412h84zM89 72h1025l-284 1303z" />
    <glyph glyph-name="uni03A9" unicode="&#x3a9;" horiz-adv-x="1533" 
d="M-10 0l13 72h376q-123 77 -192 220.5t-69 333.5q0 247 93.5 444.5t261 308.5t377.5 111q265 0 420 -171t155 -464q0 -262 -116 -478.5t-300 -304.5h363l-12 -72h-524l12 66q145 43 259 157.5t177.5 278.5t63.5 348q0 260 -136 412.5t-365 152.5q-186 0 -334.5 -101.5
t-231.5 -281.5t-83 -406q0 -212 84 -356t240 -203l-12 -67h-520z" />
    <glyph glyph-name="uni03BC" unicode="&#x3bc;" horiz-adv-x="1156" 
d="M992 1049h72l-184 -1049h-72l31 170q-70 -89 -168.5 -136.5t-215.5 -47.5q-95 0 -166.5 38.5t-102.5 105.5l-93 -529h-71l254 1448h72l-125 -710q-7 -36 -7 -66q0 -102 67.5 -162t181.5 -60q163 0 275.5 102t137.5 242z" />
    <glyph glyph-name="pi" unicode="&#x3c0;" horiz-adv-x="1209" 
d="M1034 983l-147 -838q-5 -25 -5 -39q0 -50 52 -50q36 0 79 21l16 -61q-59 -24 -104 -24q-117 0 -117 98q0 21 5 48l150 845h-561l-174 -983h-71l174 983h-173l12 66h1055l-12 -66h-179z" />
    <glyph glyph-name="uni0E3F" unicode="&#xe3f;" horiz-adv-x="1312" 
d="M974 730q89 -29 143 -107.5t54 -191.5q0 -188 -128 -309.5t-329 -121.5h-119l-30 -168h-71l29 168h-392l251 1423h393l30 168h72l-30 -168h77q151 0 242 -84t91 -219q0 -130 -84 -244t-199 -146zM444 1356l-104 -592h318l105 592h-319zM916 1356h-81l-105 -592h89
q149 0 255.5 102.5t106.5 245.5q0 109 -72 176.5t-193 67.5zM217 67h319l111 630h-318zM717 67q165 0 271.5 104t106.5 260q0 123 -74 194.5t-192 71.5h-110l-112 -630h110z" />
    <glyph glyph-name="a.sups" unicode="&#x1d43;" horiz-adv-x="703" 
d="M485 1483q107 0 171.5 -55.5t64.5 -146.5q0 -25 -6 -58l-75 -430h-66l19 101q-42 -50 -106.5 -81t-137.5 -31q-92 0 -147.5 49.5t-55.5 136.5q0 103 86.5 160t232.5 57h178l7 41q4 23 4 48q0 70 -46 111.5t-127 41.5q-116 0 -196 -88l-42 42q94 102 242 102zM617 1035
l17 94h-163q-122 0 -191 -39t-69 -120q0 -64 40 -98.5t110 -34.5q96 0 169 57.5t87 140.5z" />
    <glyph glyph-name="b.sups" unicode="&#x1d47;" horiz-adv-x="795" 
d="M572 1484q119 0 192.5 -81.5t73.5 -219.5q0 -167 -92 -283.5t-241 -116.5q-92 0 -158.5 46t-89.5 124l-28 -160h-64l170 958h64l-66 -383q89 116 239 116zM495 842q124 0 200 99.5t76 236.5q0 114 -58 180.5t-155 66.5q-114 0 -186 -88.5t-84 -220.5q-11 -126 44 -200
t163 -74z" />
    <glyph glyph-name="d.sups" unicode="&#x1d48;" horiz-adv-x="795" 
d="M830 1751h65l-169 -958h-63l19 113q-39 -57 -103 -90t-141 -33q-118 0 -191.5 81.5t-73.5 220.5q0 167 92.5 283t241.5 116q90 0 156.5 -44t91.5 -119zM723 1150q12 126 -43 200.5t-163 74.5q-124 0 -200.5 -99t-76.5 -236q0 -114 59 -181t155 -67q112 0 184.5 88.5
t84.5 219.5z" />
    <glyph glyph-name="e.sups" unicode="&#x1d49;" horiz-adv-x="731" 
d="M768 1119h-528q-1 -11 -1 -30q0 -114 59 -182t156 -68q66 0 126 32t97 91l48 -33q-45 -71 -119.5 -108.5t-156.5 -37.5q-123 0 -199.5 82.5t-76.5 219.5q0 167 93.5 283t245.5 116q119 0 191 -80.5t72 -212.5q0 -31 -7 -72zM508 1427q-100 0 -170 -72.5t-91 -182.5h463
q1 8 1 22q0 108 -54.5 170.5t-148.5 62.5z" />
    <glyph glyph-name="g.sups" unicode="&#x1d4d;" horiz-adv-x="797" 
d="M782 1475h66l-111 -625q-53 -300 -329 -300q-189 0 -267 126l48 35q61 -105 221 -105q218 0 263 248l10 60q-41 -54 -104.5 -86t-138.5 -32q-120 0 -193 80t-73 216q0 171 94.5 281.5t242.5 110.5q90 0 154.5 -43t91.5 -117zM724 1152q12 126 -42 200t-164 74
q-120 0 -198.5 -94.5t-78.5 -235.5q0 -111 59 -177t155 -66q111 0 184 84.5t85 214.5z" />
    <glyph glyph-name="k.sups" unicode="&#x1d4f;" horiz-adv-x="688" 
d="M772 1475l-302 -288l214 -395h-70l-188 354l-160 -154l-36 -200h-65l169 958h65l-117 -666l412 391h78z" />
    <glyph glyph-name="m.sups" unicode="&#x1d50;" horiz-adv-x="1140" 
d="M977 1484q84 0 135 -46.5t51 -128.5q0 -22 -5 -52l-82 -464h-65l81 453q4 23 4 48q0 62 -36 96.5t-99 34.5q-81 0 -143 -54.5t-84 -128.5l-80 -449h-65l81 453q4 24 4 50q0 61 -36.5 95t-99.5 34q-88 0 -153 -65.5t-79 -145.5l-76 -421h-65l121 682h64l-18 -104
q90 113 227 113q70 0 118.5 -33.5t58.5 -93.5q96 127 241 127z" />
    <glyph glyph-name="o.sups" unicode="&#x1d52;" horiz-adv-x="756" 
d="M453 783q-126 0 -203 83.5t-77 220.5q0 171 98 284t248 113q126 0 203 -83.5t77 -220.5q0 -171 -98 -284t-248 -113zM454 843q119 0 198 96t79 239q0 113 -58 179.5t-156 66.5q-119 0 -198 -95.5t-79 -237.5q0 -114 58 -181t156 -67z" />
    <glyph glyph-name="p.sups" unicode="&#x1d56;" horiz-adv-x="796" 
d="M574 1484q118 0 191.5 -81.5t73.5 -220.5q0 -167 -93 -283t-241 -116q-89 0 -156 43.5t-92 117.5l-69 -384h-64l162 915h62l-20 -119q43 60 106.5 94t139.5 34zM495 842q124 0 200.5 99t76.5 237q0 114 -59 180.5t-155 66.5q-111 0 -183.5 -88.5t-85.5 -220.5
q-12 -126 43.5 -200t162.5 -74z" />
    <glyph glyph-name="t.sups" unicode="&#x1d57;" horiz-adv-x="497" 
d="M404 1419l-80 -463q-5 -25 -5 -35q0 -81 81 -81q24 0 70 12l12 -53q-57 -17 -92 -17q-63 0 -100 34.5t-37 93.5q0 19 4 42l82 467h-98l9 56h99l33 186h65l-32 -186h162l-11 -56h-162z" />
    <glyph glyph-name="u.sups" unicode="&#x1d58;" horiz-adv-x="758" 
d="M743 1475h66l-121 -682h-64l17 98q-87 -108 -243 -108q-92 0 -147.5 50t-55.5 132q0 23 4 44l82 466h64l-80 -457q-4 -20 -4 -41q0 -63 42.5 -99.5t115.5 -36.5q99 0 167.5 63t82.5 147z" />
    <glyph glyph-name="v.sups" unicode="&#x1d5b;" horiz-adv-x="657" 
d="M726 1475h74l-379 -683h-67l-161 683h66l137 -608z" />
    <glyph glyph-name="c.sups" unicode="&#x1d9c;" horiz-adv-x="695" 
d="M446 783q-122 0 -198 82.5t-76 219.5q0 166 94.5 282.5t247.5 116.5q86 0 148 -39t91 -110l-58 -26q-51 115 -184 115q-123 0 -197 -99.5t-74 -235.5q0 -113 58 -179.5t151 -66.5q131 0 205 128l54 -31q-95 -157 -262 -157z" />
    <glyph glyph-name="f.sups" unicode="&#x1da0;" horiz-adv-x="462" 
d="M580 1703q-56 0 -92 -34t-46 -97l-17 -97h182l-10 -58h-182l-110 -625h-65l109 625h-108l9 58h109l19 107q15 85 67 131.5t129 46.5q43 0 86 -15l-20 -52q-33 10 -60 10z" />
    <glyph glyph-name="z.sups" unicode="&#x1dbb;" horiz-adv-x="622" 
d="M109 792l9 53l490 572h-390l9 58h472l-8 -54l-490 -572h420l-11 -57h-501z" />
    <glyph glyph-name="Wgrave" unicode="&#x1e80;" horiz-adv-x="1969" 
d="M1223 1593h-70l-237 276h83zM1972 1475h85l-677 -1475h-76l-170 1357l-631 -1357h-79l-176 1475h78l156 -1352l630 1352h75l172 -1350z" />
    <glyph glyph-name="wgrave" unicode="&#x1e81;" horiz-adv-x="1544" 
d="M941 1238h-70l-237 275h84zM1516 1049h82l-514 -1049h-79l-155 955l-483 -955h-81l-155 1049h77l131 -959l482 959h80l155 -958z" />
    <glyph glyph-name="Wacute" unicode="&#x1e82;" horiz-adv-x="1969" 
d="M1389 1869l-238 -276h-71l225 276h84zM1972 1475h85l-677 -1475h-76l-170 1357l-631 -1357h-79l-176 1475h78l156 -1352l630 1352h75l172 -1350z" />
    <glyph glyph-name="wacute" unicode="&#x1e83;" horiz-adv-x="1544" 
d="M1129 1513l-237 -275h-72l224 275h85zM1516 1049h82l-514 -1049h-79l-155 955l-483 -955h-81l-155 1049h77l131 -959l482 959h80l155 -958z" />
    <glyph glyph-name="Wdieresis" unicode="&#x1e84;" horiz-adv-x="1969" 
d="M1052 1804l-30 -165h-80l30 165h80zM1448 1804l-29 -165h-80l30 165h79zM1972 1475h85l-677 -1475h-76l-170 1357l-631 -1357h-79l-176 1475h78l156 -1352l630 1352h75l172 -1350z" />
    <glyph glyph-name="wdieresis" unicode="&#x1e85;" horiz-adv-x="1544" 
d="M812 1475l-29 -164h-80l29 164h80zM1157 1475l-29 -164h-79l28 164h80zM1516 1049h82l-514 -1049h-79l-155 955l-483 -955h-81l-155 1049h77l131 -959l482 959h80l155 -958z" />
    <glyph glyph-name="uni1E9E" unicode="&#x1e9e;" horiz-adv-x="1382" 
d="M1339 1475l-12 -66l-482 -536q173 -8 276.5 -117t103.5 -288q0 -215 -139 -348.5t-366 -133.5q-103 0 -201 30l22 69q101 -29 182 -29q191 0 307.5 115t116.5 300q0 151 -87.5 242.5t-235.5 91.5q-20 0 -33 -4l-52 62l489 541h-472q-166 0 -269 -97t-136 -284l-180 -1023
h-76l183 1035q38 217 159.5 328.5t318.5 111.5h583z" />
    <glyph glyph-name="Ygrave" unicode="&#x1ef2;" horiz-adv-x="1173" 
d="M808 1593h-70l-236 276h83zM1204 1475h88l-650 -850l-110 -625h-76l110 625l-348 850h77l318 -784z" />
    <glyph glyph-name="ygrave" unicode="&#x1ef3;" horiz-adv-x="907" 
d="M624 1238h-70l-238 275h84zM894 1049h80l-709 -1282q-42 -76 -86 -108t-104 -32q-54 0 -111 22l22 61q44 -18 87 -18q40 0 69.5 23t61.5 80l157 283l-242 971h75l216 -890z" />
    <glyph glyph-name="uni2007" unicode="&#x2007;" horiz-adv-x="614" 
 />
    <glyph glyph-name="thinspace" unicode="&#x2009;" horiz-adv-x="240" 
 />
    <glyph glyph-name="uni2011" unicode="&#x2011;" horiz-adv-x="828" 
d="M168 538l11 67h500l-11 -67h-500z" />
    <glyph glyph-name="endash" unicode="&#x2013;" horiz-adv-x="1186" 
d="M168 538l11 67h857l-11 -67h-857z" />
    <glyph glyph-name="emdash" unicode="&#x2014;" horiz-adv-x="1955" 
d="M168 538l11 67h1626l-11 -67h-1626z" />
    <glyph glyph-name="quoteleft" unicode="&#x2018;" horiz-adv-x="468" 
d="M487 1456q-96 -68 -121 -202l47 -2l-31 -169h-97l30 175q28 159 143 237z" />
    <glyph glyph-name="quoteright" unicode="&#x2019;" horiz-adv-x="468" 
d="M353 1475h98l-31 -176q-28 -157 -142 -236l-30 40q97 67 122 202l-46 1z" />
    <glyph glyph-name="quotesinglbase" unicode="&#x201a;" horiz-adv-x="470" 
d="M124 169h97l-31 -175q-28 -158 -142 -237l-30 40q97 67 121 201l-46 2z" />
    <glyph glyph-name="quotedblleft" unicode="&#x201c;" horiz-adv-x="768" 
d="M315 1260q28 158 143 236l29 -39q-96 -68 -121 -202l47 -2l-31 -169h-97zM786 1457q-97 -69 -121 -202l46 -2l-30 -169h-97l30 176q28 158 143 236z" />
    <glyph glyph-name="quotedblright" unicode="&#x201d;" horiz-adv-x="768" 
d="M324 1306l29 169h98l-31 -176q-28 -157 -142 -236l-30 40q97 67 122 202zM652 1475h98l-31 -176q-28 -157 -142 -236l-30 40q97 68 121 202l-46 1z" />
    <glyph glyph-name="quotedblbase" unicode="&#x201e;" horiz-adv-x="768" 
d="M93 0l31 169h97l-31 -175q-28 -158 -142 -237l-30 40q97 67 121 201zM422 169h97l-31 -175q-28 -160 -142 -237l-30 40q98 68 122 201l-46 2z" />
    <glyph glyph-name="dagger" unicode="&#x2020;" horiz-adv-x="680" 
d="M716 1262l-11 -66h-208l-116 -652h-74l115 652h-209l11 66h209l38 213h75l-38 -213h208z" />
    <glyph glyph-name="daggerdbl" unicode="&#x2021;" horiz-adv-x="681" 
d="M706 1196h-209l-66 -374h208l-11 -65h-208l-38 -213h-74l38 213h-210l11 65h210l66 374h-210l12 66h209l38 213h74l-38 -213h209z" />
    <glyph glyph-name="bullet" unicode="&#x2022;" horiz-adv-x="664" 
d="M346 459q-59 0 -101.5 42t-42.5 101q0 60 42.5 102t101.5 42t101.5 -42t42.5 -102q0 -59 -42.5 -101t-101.5 -42z" />
    <glyph glyph-name="ellipsis" unicode="&#x2026;" horiz-adv-x="1273" 
d="M93 0l31 169h96l-30 -169h-97zM496 0l29 169h98l-30 -169h-97zM897 0l31 169h97l-31 -169h-97z" />
    <glyph glyph-name="perthousand" unicode="&#x2030;" horiz-adv-x="2735" 
d="M538 702q-132 0 -217 89t-85 235q0 173 101 291.5t261 118.5q132 0 217 -88.5t85 -233.5q0 -174 -100.5 -293t-261.5 -119zM423 0l1070 1423h75l-1070 -1423h-75zM542 766q129 0 210 101t81 244q0 120 -66.5 191t-171.5 71q-129 0 -210 -101t-81 -244q0 -121 66 -191.5
t172 -70.5zM1390 -12q-133 0 -218 88t-85 234q0 174 101 292.5t262 118.5q132 0 217 -88.5t85 -234.5q0 -173 -101 -291.5t-261 -118.5zM2204 -12q-132 0 -217 88t-85 234q0 174 100.5 292.5t261.5 118.5q132 0 217 -88.5t85 -234.5q0 -173 -101 -291.5t-261 -118.5z
M1393 50q129 0 209.5 101.5t80.5 244.5q0 120 -66 190.5t-171 70.5q-129 0 -210 -100.5t-81 -243.5q0 -121 66.5 -192t171.5 -71zM2207 50q129 0 210 101.5t81 244.5q0 120 -66.5 190.5t-171.5 70.5q-129 0 -210 -100.5t-81 -243.5q0 -121 66.5 -192t171.5 -71z" />
    <glyph glyph-name="minute" unicode="&#x2032;" horiz-adv-x="564" 
d="M257 927l212 548h77l-230 -548h-59z" />
    <glyph glyph-name="second" unicode="&#x2033;" horiz-adv-x="863" 
d="M257 927l212 548h77l-230 -548h-59zM555 927l213 548h77l-231 -548h-59z" />
    <glyph glyph-name="uni2034" unicode="&#x2034;" horiz-adv-x="1161" 
d="M257 927l212 548h77l-230 -548h-59zM555 927l213 548h77l-231 -548h-59zM854 927l212 548h77l-231 -548h-58z" />
    <glyph glyph-name="guilsinglleft" unicode="&#x2039;" horiz-adv-x="573" 
d="M337 215l-214 364l338 353l43 -42l-303 -319l189 -322z" />
    <glyph glyph-name="guilsinglright" unicode="&#x203a;" horiz-adv-x="573" 
d="M253 932l215 -364l-338 -353l-43 42l302 318l-188 323z" />
    <glyph glyph-name="fraction" unicode="&#x2044;" horiz-adv-x="307" 
d="M-409 0l1123 1475h77l-1123 -1475h-77z" />
    <glyph glyph-name="zero.sups" unicode="&#x2070;" horiz-adv-x="841" 
d="M495 782q-133 0 -207 101t-74 278q0 156 47 284t137 204.5t207 76.5q133 0 207 -100t74 -276q0 -157 -47 -285.5t-137 -205.5t-207 -77zM497 844q95 0 169 70.5t112.5 185t38.5 249.5q0 149 -56 233t-158 84q-94 0 -168 -70.5t-113 -185t-39 -248.5q0 -150 56 -234
t158 -84z" />
    <glyph glyph-name="i.sups" unicode="&#x2071;" horiz-adv-x="290" 
d="M306 1632l21 118h69l-20 -118h-70zM160 793l121 682h65l-121 -682h-65z" />
    <glyph glyph-name="four.sups" unicode="&#x2074;" horiz-adv-x="766" 
d="M818 1065l-11 -59h-135l-38 -214h-67l38 214h-465l10 56l571 655h76l-115 -652h136zM228 1065h387l100 564z" />
    <glyph glyph-name="five.sups" unicode="&#x2075;" horiz-adv-x="770" 
d="M814 1657h-412l-88 -346q85 77 214 77q117 0 188 -72.5t71 -190.5q0 -150 -95 -246.5t-246 -96.5q-103 0 -179.5 51t-104.5 139l59 24q23 -70 85.5 -111.5t143.5 -41.5q120 0 194.5 79t74.5 199q0 95 -54.5 151.5t-151.5 56.5q-138 0 -222 -107h-62l127 495h469z" />
    <glyph glyph-name="six.sups" unicode="&#x2076;" horiz-adv-x="780" 
d="M544 1380q112 0 185 -72t73 -190q0 -141 -89.5 -238t-228.5 -97q-173 0 -246 142q-35 64 -35 170q0 75 13 156q37 223 135.5 349t252.5 126q173 0 241 -159l-55 -26q-53 126 -186 126q-88 0 -156.5 -59t-107 -148.5t-56.5 -204.5q41 57 108.5 91t151.5 34zM485 842
q110 0 180 80.5t70 192.5q0 95 -55.5 151.5t-144.5 56.5q-114 0 -189 -76.5t-75 -184.5q0 -99 59 -159.5t155 -60.5z" />
    <glyph glyph-name="seven.sups" unicode="&#x2077;" horiz-adv-x="677" 
d="M257 1717h590l-11 -57q-210 -219 -307.5 -409.5t-129.5 -458.5h-70q33 272 127.5 462t304.5 403h-514z" />
    <glyph glyph-name="eight.sups" unicode="&#x2078;" horiz-adv-x="797" 
d="M648 1263q72 -21 117 -75t45 -131q0 -123 -89 -199t-237 -76q-135 0 -220 65.5t-85 170.5q0 95 59.5 161t163.5 91q-63 26 -99 75t-36 119q0 116 87.5 188.5t224.5 72.5q118 0 189 -62t71 -162q0 -84 -52.5 -148t-138.5 -90zM333 1459q0 -76 52.5 -121t139.5 -45
q110 0 179 56t69 145q0 78 -54.5 125t-144.5 47q-107 0 -174 -57.5t-67 -149.5zM485 842q117 0 187.5 60t70.5 157q0 82 -62 129t-162 47q-123 0 -198 -58.5t-75 -154.5q0 -82 67 -131t172 -49z" />
    <glyph glyph-name="nine.sups" unicode="&#x2079;" horiz-adv-x="781" 
d="M803 1582q33 -60 33 -168q0 -72 -12 -158q-31 -222 -129 -349t-251 -127q-175 0 -251 174l58 28q57 -140 195 -140q66 0 120 32.5t91 91t61.5 130.5t38.5 159q-40 -56 -106 -88.5t-150 -32.5q-115 0 -189 71.5t-74 189.5q0 139 89.5 233.5t228.5 94.5q172 0 247 -141z
M508 1193q113 0 186 74t73 181q0 98 -58 156t-154 58q-110 0 -180.5 -77t-70.5 -188q0 -94 56.5 -149t147.5 -55z" />
    <glyph glyph-name="n.sups" unicode="&#x207f;" horiz-adv-x="761" 
d="M575 1484q92 0 148.5 -51t56.5 -134q0 -21 -3 -41l-82 -465h-65l81 456q3 15 3 41q0 63 -43 99t-116 36q-99 0 -166.5 -63t-82.5 -147l-76 -422h-65l121 682h64l-17 -100q41 52 106 80.5t136 28.5z" />
    <glyph glyph-name="zero.subs" unicode="&#x2080;" horiz-adv-x="842" 
d="M311 -260q-133 0 -206.5 101t-73.5 277q0 157 47 285t137 204.5t207 76.5q133 0 206.5 -100t73.5 -277q0 -157 -47 -285.5t-137.5 -205t-206.5 -76.5zM313 -199q95 0 169 70.5t113 185t39 249.5q0 149 -56 233t-158 84q-95 0 -169.5 -70.5t-113.5 -184.5t-39 -249
q0 -149 56.5 -233.5t158.5 -84.5z" />
    <glyph glyph-name="one.subs" unicode="&#x2081;" horiz-adv-x="584" 
d="M420 675l-163 -926h-67l148 837l-222 -175l-34 43l278 221h60z" />
    <glyph glyph-name="two.subs" unicode="&#x2082;" horiz-adv-x="782" 
d="M392 105l-307 -298h488l-11 -59h-585l10 54l356 345q131 127 174 189t43 121q0 73 -51.5 119.5t-132.5 46.5q-86 0 -152.5 -52.5t-101.5 -149.5l-62 19q45 120 128.5 181.5t191.5 61.5q109 0 178.5 -62t69.5 -161q0 -72 -49.5 -147.5t-186.5 -207.5z" />
    <glyph glyph-name="three.subs" unicode="&#x2083;" horiz-adv-x="763" 
d="M447 221q65 -24 102 -77t37 -127q0 -123 -87 -200t-226 -77q-115 0 -190 56t-101 156l62 19q20 -83 79.5 -127t152.5 -44q108 0 175.5 62t67.5 157q0 81 -51.5 128.5t-139.5 47.5h-60l12 57h43q102 0 167 58.5t65 149.5q0 77 -49 120.5t-132 43.5q-171 0 -245 -177
l-61 24q44 103 123.5 157.5t186.5 54.5q113 0 179.5 -59t66.5 -159q0 -86 -47 -149.5t-130 -94.5z" />
    <glyph glyph-name="four.subs" unicode="&#x2084;" horiz-adv-x="766" 
d="M634 23l-11 -60h-136l-37 -214h-67l38 214h-465l9 56l572 656h75l-114 -652h136zM44 23h387l99 564z" />
    <glyph glyph-name="five.subs" unicode="&#x2085;" horiz-adv-x="770" 
d="M631 614h-413l-89 -346q90 77 215 77q118 0 189 -72t71 -190q0 -151 -94.5 -247t-246.5 -96q-103 0 -180.5 50.5t-105.5 137.5l61 26q22 -71 84.5 -112.5t143.5 -41.5q120 0 194.5 79t74.5 199q0 96 -54.5 152.5t-150.5 56.5q-138 0 -224 -108h-60l127 495h468z" />
    <glyph glyph-name="six.subs" unicode="&#x2086;" horiz-adv-x="780" 
d="M360 338q112 0 185 -72t73 -190q0 -141 -89 -238t-228 -97q-175 0 -247 140q-35 65 -35 171q0 79 14 157q37 222 135.5 348.5t252.5 126.5q172 0 241 -160l-56 -26q-55 127 -185 127q-67 0 -122.5 -33.5t-94.5 -91.5t-65 -130.5t-39 -157.5q41 58 108.5 92t151.5 34z
M302 -201q109 0 179.5 81t70.5 193q0 95 -56 151.5t-145 56.5q-114 0 -188.5 -77t-74.5 -185q0 -99 59 -159.5t155 -60.5z" />
    <glyph glyph-name="seven.subs" unicode="&#x2087;" horiz-adv-x="676" 
d="M73 675h590l-11 -58q-210 -219 -307 -409.5t-130 -458.5h-71q33 271 127.5 460.5t305.5 404.5h-515z" />
    <glyph glyph-name="eight.subs" unicode="&#x2088;" horiz-adv-x="797" 
d="M465 220q72 -21 117 -75t45 -131q0 -123 -89 -198.5t-237 -75.5q-135 0 -220 65t-85 170q0 95 59.5 161t163.5 91q-63 26 -99 75.5t-36 119.5q0 116 87 188.5t224 72.5q118 0 189 -62t71 -162q0 -84 -52 -148.5t-138 -90.5zM150 417q0 -76 52.5 -121t139.5 -45
q110 0 179 56t69 145q0 78 -54.5 125t-144.5 47q-107 0 -174 -57.5t-67 -149.5zM302 -201q117 0 187.5 60t70.5 157q0 82 -62 129.5t-162 47.5q-123 0 -198.5 -58.5t-75.5 -154.5q0 -82 67.5 -131.5t172.5 -49.5z" />
    <glyph glyph-name="nine.subs" unicode="&#x2089;" horiz-adv-x="781" 
d="M620 541q32 -58 32 -168q0 -80 -11 -158q-31 -222 -129 -349t-251 -127q-176 0 -252 174l59 28q57 -141 195 -141q66 0 120 32.5t91 91.5t61 131t38 159q-41 -56 -107 -89t-149 -33q-115 0 -189 71.5t-74 189.5q0 139 90 234t229 95q172 0 247 -141zM325 152
q113 0 186 74t73 181q0 98 -58 156t-154 58q-110 0 -180.5 -77.5t-70.5 -188.5q0 -94 56.5 -148.5t147.5 -54.5z" />
    <glyph glyph-name="n.subs" unicode="&#x2099;" horiz-adv-x="759" 
d="M431 692q92 0 150.5 -49.5t58.5 -131.5q0 -13 -4 -45l-82 -466h-66l81 458q3 22 3 40q0 64 -42 100.5t-115 36.5q-99 0 -167 -63.5t-83 -147.5l-75 -424h-64l119 683h65l-21 -116q39 58 103 91.5t139 33.5z" />
    <glyph glyph-name="uni20A9" unicode="&#x20a9;" horiz-adv-x="1944" 
d="M1968 1423l-217 -478h187l-12 -67h-206l-131 -288h287l-12 -68h-305l-238 -522h-79l-52 522h-438l-241 -522h-79l-50 522h-302l12 68h283l-28 288h-205l12 67h187l-46 478h80l43 -478h452l222 478h75l50 -478h454l215 478h82zM1111 1303l-165 -358h201zM840 878h-416
l26 -288h257zM782 590h401l-29 288h-239zM1640 878h-417l29 -288h259zM492 124l183 398h-219zM1300 121l181 401h-221z" />
    <glyph glyph-name="Euro" unicode="&#x20ac;" horiz-adv-x="1434" 
d="M927 1369q-198 0 -336.5 -122.5t-202.5 -324.5h607l-12 -67h-614q-31 -130 -31 -264v-25h595l-12 -67h-578q21 -207 135.5 -326.5t299.5 -119.5q135 0 248 66t183 187l64 -36q-85 -138 -213 -212t-287 -74q-220 0 -353.5 138t-155.5 377h-185l11 67h170v23q0 129 29 266
h-149l13 67h154q69 234 229.5 376t391.5 142q157 0 277.5 -68t173.5 -191l-66 -32q-44 106 -147.5 163t-238.5 57z" />
    <glyph glyph-name="uni20B8" unicode="&#x20b8;" horiz-adv-x="1180" 
d="M219 1475h1077l-12 -70h-1077zM1234 1120l-13 -71h-499l-185 -1049h-76l184 1049h-501l13 71h1077z" />
    <glyph glyph-name="uni20B9" unicode="&#x20b9;" horiz-adv-x="1207" 
d="M1267 1423l-13 -66h-345q61 -46 92 -118t31 -155v-15h172l-12 -67h-167q-27 -158 -147 -256t-292 -98h-325l604 -648h-102l-607 648l13 71h419q139 0 236.5 79t122.5 204h-729l12 67h724v9q0 127 -75 200.5t-192 73.5h-407l13 71h974z" />
    <glyph glyph-name="uni20BA" unicode="&#x20ba;" horiz-adv-x="1165" 
d="M987 545l64 -22q-229 -523 -782 -523h-76l100 565l-216 -67l12 67l215 68l40 224l-216 -69l12 68l216 69l88 498h74l-85 -478l508 163l-12 -68l-508 -162l-40 -224l509 162l-12 -67l-508 -162l-92 -516q501 0 709 474z" />
    <glyph glyph-name="uni20BC" unicode="&#x20bc;" horiz-adv-x="1671" 
d="M990 1196q250 -22 388 -177.5t138 -414.5q0 -76 -18 -182l-75 -422h-73l73 418q17 102 17 175q0 241 -118.5 378.5t-343.5 154.5l-173 -978h-72l173 980q-282 -3 -458.5 -182.5t-238.5 -532.5l-73 -413h-75l76 427q68 384 266.5 578t510.5 194h5l39 224h72z" />
    <glyph glyph-name="uni2113" unicode="&#x2113;" horiz-adv-x="783" 
d="M400 51q77 0 170 38l17 -64q-92 -39 -193 -39q-98 0 -152.5 52t-54.5 147q0 29 7 75l39 226q-80 -40 -167 -70l-19 58q113 40 200 88l109 620q22 125 85 190.5t160 65.5q89 0 140.5 -55.5t51.5 -159.5q0 -206 -130.5 -387t-350.5 -308l-46 -263q-7 -39 -7 -71
q0 -143 141 -143zM425 1168l-98 -558q182 119 288 278.5t106 333.5q0 76 -32.5 113t-90.5 37q-136 0 -173 -204z" />
    <glyph glyph-name="uni2117" unicode="&#x2117;" horiz-adv-x="1806" 
d="M1000 1492q199 0 359.5 -89.5t251 -246t90.5 -348.5q0 -225 -109.5 -415t-298 -300t-412.5 -110q-198 0 -358.5 89.5t-251 246t-90.5 348.5q0 169 64.5 321.5t174 263t261 175.5t319.5 65zM884 50q154 0 292.5 60t237.5 161.5t157 241.5t58 294q0 174 -81 315
t-225.5 221.5t-324.5 80.5q-154 0 -292.5 -60t-238 -161t-157.5 -241t-58 -294q0 -174 81.5 -315.5t226 -222t324.5 -80.5zM1078 1185q102 0 168.5 -59.5t66.5 -159.5q0 -119 -83 -202.5t-211 -83.5h-286l-67 -382h-67l157 887h322zM1023 741q96 0 158 66t62 155
q0 75 -48.5 117.5t-124.5 42.5h-259l-67 -381h279z" />
    <glyph glyph-name="uni2120" unicode="&#x2120;" horiz-adv-x="1602" 
d="M520 1422q-80 0 -133.5 -35.5t-53.5 -97.5q0 -55 42.5 -82.5t118.5 -40.5q117 -21 180 -63.5t63 -131.5q0 -99 -75.5 -155t-197.5 -56q-96 0 -169 34.5t-111 92.5l47 38q71 -106 234 -106q91 0 148 39.5t57 107.5q0 35 -15.5 60.5t-46 41t-60 23.5t-72.5 16
q-212 37 -212 179q0 92 71.5 144t185.5 52q85 0 152 -32t99 -89l-49 -36q-58 97 -203 97zM1657 1475l-125 -708h-67l110 618l-343 -618h-68l-129 619l-109 -619h-68l125 708h90l136 -631l356 631h92z" />
    <glyph glyph-name="trademark" unicode="&#x2122;" horiz-adv-x="1519" 
d="M783 1475l-10 -60h-239l-115 -648h-68l115 648h-240l11 60h546zM1574 1475l-125 -708h-67l110 618l-343 -618h-68l-129 619l-109 -619h-68l125 708h90l136 -632l356 632h92z" />
    <glyph glyph-name="uni2126" unicode="&#x2126;" horiz-adv-x="1533" 
d="M-10 0l13 72h376q-123 77 -192 220.5t-69 333.5q0 247 93.5 444.5t261 308.5t377.5 111q265 0 420 -171t155 -464q0 -262 -116 -478.5t-300 -304.5h363l-12 -72h-524l12 66q145 43 259 157.5t177.5 278.5t63.5 348q0 260 -136 412.5t-365 152.5q-186 0 -334.5 -101.5
t-231.5 -281.5t-83 -406q0 -212 84 -356t240 -203l-12 -67h-520z" />
    <glyph glyph-name="estimated" unicode="&#x212e;" horiz-adv-x="1875" 
d="M981 -17q-198 0 -341 50.5t-258 159.5q-228 216 -228 544q0 333 231 546q118 109 258.5 160t337.5 51q180 0 315.5 -45t255.5 -142q117 -94 182 -246.5t73 -344.5h-1315q-11 0 -17 -1.5t-11 -10.5t-5 -26v-370q0 -31 38.5 -75t103.5 -87.5t167.5 -74t212.5 -30.5
q150 0 289.5 67t233.5 173h155q-156 -174 -309 -236q-89 -36 -165.5 -49t-203.5 -13zM493 763h970q24 0 30.5 7.5t6.5 28.5v362q0 58 -80 124t-204 111t-238 45q-104 0 -205 -32t-167 -76t-106.5 -87t-40.5 -69v-395q0 -19 34 -19z" />
    <glyph glyph-name="uni2150" unicode="&#x2150;" horiz-adv-x="1764" 
d="M331 549l147 837l-222 -176l-34 43l279 222h59l-163 -926h-66zM1389 1475h76l-1122 -1475h-77zM1204 926h589l-10 -58q-209 -219 -306.5 -410t-129.5 -458h-72q34 271 128 461t305 404h-514z" />
    <glyph glyph-name="uni2151" unicode="&#x2151;" horiz-adv-x="1765" 
d="M331 549l147 837l-222 -176l-34 43l279 222h59l-163 -926h-66zM1389 1475h76l-1122 -1475h-77zM1646 793q32 -58 32 -168q0 -80 -11 -158q-31 -222 -129 -349t-251 -127q-176 0 -252 174l59 28q57 -141 195 -141q66 0 120 32.5t91 91.5t61 131t38 159q-41 -56 -107 -89
t-149 -33q-115 0 -189 71.5t-74 189.5q0 139 90 234t229 95q172 0 247 -141zM1351 403q113 0 186 74t73 181q0 98 -58 156t-154 58q-110 0 -180.5 -77t-70.5 -188q0 -94 56.5 -149t147.5 -55z" />
    <glyph glyph-name="uni2152" unicode="&#x2152;" horiz-adv-x="2442" 
d="M331 549l147 837l-222 -176l-34 43l279 222h59l-163 -926h-66zM1389 1475h76l-1122 -1475h-77zM2065 935q133 0 207 -101t74 -277q0 -157 -47 -285t-137 -205t-207 -77q-133 0 -207 101t-74 278q0 156 47 284t137 205t207 77zM1479 926l-163 -926h-67l148 837l-222 -175
l-34 43l278 221h60zM1957 51q95 0 169 70.5t112.5 185t38.5 249.5q0 149 -56 233t-158 84q-95 0 -169 -70.5t-112.5 -184.5t-38.5 -248q0 -150 56 -234.5t158 -84.5z" />
    <glyph glyph-name="uni2153" unicode="&#x2153;" horiz-adv-x="1748" 
d="M332 549l147 837l-222 -176l-35 43l280 222h58l-163 -926h-65zM1390 1475h76l-1122 -1475h-77zM1475 473q65 -25 102 -78t37 -127q0 -122 -87.5 -199.5t-226.5 -77.5q-115 0 -190 56t-101 156l62 20q20 -83 80 -127.5t153 -44.5q108 0 175 61.5t67 157.5q0 81 -51.5 128
t-139.5 47h-60l12 58h43q102 0 167 58.5t65 149.5q0 77 -48.5 120t-132.5 43q-171 0 -245 -176l-61 24q44 103 123.5 157.5t186.5 54.5q113 0 179.5 -59t66.5 -159q0 -86 -47 -149.5t-129 -93.5z" />
    <glyph glyph-name="uni2154" unicode="&#x2154;" horiz-adv-x="1908" 
d="M715 609l-10 -59h-586l10 54l356 345q131 127 174 188.5t43 119.5q0 73 -51.5 119.5t-132.5 46.5q-86 0 -153 -51.5t-102 -149.5l-61 20q45 120 128.5 181.5t191.5 61.5t177.5 -62t69.5 -161q0 -72 -49 -148t-186 -208l-306 -297h487zM1549 1475h77l-1123 -1475h-77z
M1634 473q65 -25 102 -78t37 -127q0 -122 -87.5 -199.5t-225.5 -77.5q-116 0 -191.5 56t-100.5 156l62 20q21 -84 80 -128t152 -44q108 0 175.5 62t67.5 157q0 81 -52 128t-140 47h-58l10 58h43q102 0 167.5 59t65.5 149q0 77 -48.5 120t-132.5 43q-171 0 -245 -176l-61 24
q44 103 123.5 157.5t186.5 54.5q113 0 179.5 -59t66.5 -159q0 -85 -47.5 -148.5t-128.5 -94.5z" />
    <glyph glyph-name="uni2155" unicode="&#x2155;" horiz-adv-x="1753" 
d="M331 549l147 837l-222 -176l-34 43l279 222h59l-163 -926h-66zM1389 1475h76l-1122 -1475h-77zM1657 865h-412l-88 -346q85 77 214 77q117 0 188 -72t71 -190q0 -151 -94.5 -247t-246.5 -96q-103 0 -179.5 50.5t-104.5 137.5l59 26q23 -71 85 -112.5t143 -41.5
q120 0 195 79t75 199q0 96 -54.5 152.5t-151.5 56.5q-137 0 -222 -108h-62l127 495h469z" />
    <glyph glyph-name="uni2156" unicode="&#x2156;" horiz-adv-x="1912" 
d="M715 609l-10 -59h-586l10 54l356 345q131 127 174 188.5t43 119.5q0 73 -51.5 119.5t-132.5 46.5q-86 0 -153 -51.5t-102 -149.5l-61 20q45 120 128.5 181.5t191.5 61.5t177.5 -62t69.5 -161q0 -72 -49 -148t-186 -208l-306 -297h487zM1548 1475h77l-1122 -1475h-77z
M1817 865h-412l-88 -346q85 77 214 77q117 0 188 -72t71 -190q0 -151 -94.5 -247t-246.5 -96q-103 0 -180 50.5t-105 137.5l60 26q23 -71 85 -112.5t143 -41.5q120 0 194.5 79t74.5 199q0 96 -54 152.5t-151 56.5q-138 0 -223 -108h-61l127 495h469z" />
    <glyph glyph-name="uni2157" unicode="&#x2157;" horiz-adv-x="1868" 
d="M729 819q0 -122 -87.5 -199.5t-225.5 -77.5q-116 0 -191.5 56t-100.5 156l61 19q21 -83 81 -126.5t153 -43.5q108 0 174.5 61.5t66.5 156.5q0 80 -52 128t-139 48h-58l10 56h44q101 0 166 59t65 150q0 77 -48.5 120t-132.5 43q-171 0 -245 -176l-60 24q44 103 123 158
t186 55q112 0 179 -59.5t67 -160.5q0 -85 -46.5 -148.5t-129.5 -93.5q65 -25 102.5 -78.5t37.5 -126.5zM1504 1475h77l-1122 -1475h-77zM1773 865h-412l-88 -346q85 77 214 77q117 0 188 -72t71 -190q0 -151 -94.5 -247t-246.5 -96q-103 0 -180 50.5t-105 137.5l60 26
q23 -71 85 -112.5t143 -41.5q120 0 194.5 79t74.5 199q0 96 -54.5 152.5t-151.5 56.5q-137 0 -222 -108h-61l127 495h469z" />
    <glyph glyph-name="uni2158" unicode="&#x2158;" horiz-adv-x="1887" 
d="M525 549l38 214h-465l10 56l571 656h76l-115 -653h135l-10 -59h-135l-38 -214h-67zM1523 1475h76l-1122 -1475h-77zM186 822h387l100 564zM1791 865h-412l-88 -346q85 77 214 77q117 0 188 -72t71 -190q0 -151 -94.5 -247t-246.5 -96q-103 0 -179.5 50.5t-104.5 137.5
l59 26q23 -71 85 -112.5t143 -41.5q120 0 195 79t75 199q0 96 -54.5 152.5t-151.5 56.5q-137 0 -222 -108h-62l127 495h469z" />
    <glyph glyph-name="uni2159" unicode="&#x2159;" horiz-adv-x="1764" 
d="M331 549l147 837l-222 -176l-34 43l279 222h59l-163 -926h-66zM1389 1475h76l-1122 -1475h-77zM1385 588q113 0 186 -72t73 -190q0 -141 -89.5 -238t-228.5 -97q-173 0 -247 141q-33 60 -33 170q0 82 12 157q37 223 136 349t252 126q172 0 241 -160l-56 -25
q-53 125 -185 125q-88 0 -156.5 -59t-107.5 -149t-57 -204q41 58 108.5 92t151.5 34zM1327 49q110 0 180.5 81t70.5 193q0 95 -56 151t-145 56q-115 0 -189 -76.5t-74 -184.5q0 -98 58.5 -159t154.5 -61z" />
    <glyph glyph-name="uni215A" unicode="&#x215a;" horiz-adv-x="1870" 
d="M744 884q0 -151 -94.5 -247t-246.5 -96q-103 0 -180 50.5t-105 137.5l60 26q22 -71 84.5 -112.5t144.5 -41.5q120 0 194 79t74 199q0 96 -54.5 152t-150.5 56q-137 0 -222 -107h-62l127 495h468l-10 -60h-412l-90 -347q89 80 215 80q118 0 189 -73t71 -191zM1495 1475h77
l-1122 -1475h-77zM1492 588q113 0 185.5 -72t72.5 -190q0 -141 -89 -238t-228 -97q-173 0 -247 141q-34 62 -34 170q0 82 12 157q37 223 136 349t252 126q172 0 241 -160l-55 -25q-53 125 -186 125q-66 0 -122 -33.5t-94.5 -91.5t-64.5 -130t-39 -157q41 58 108.5 92
t151.5 34zM1434 49q109 0 179.5 81t70.5 193q0 95 -55.5 151t-144.5 56q-115 0 -189 -76.5t-74 -184.5q0 -98 58.5 -159t154.5 -61z" />
    <glyph glyph-name="oneeighth" unicode="&#x215b;" horiz-adv-x="1788" 
d="M332 549l147 837l-222 -176l-34 43l279 222h59l-163 -926h-66zM1391 1475h76l-1122 -1475h-77zM1489 471q72 -21 117 -75t45 -131q0 -123 -89 -198.5t-237 -75.5q-135 0 -220 65t-85 170q0 95 59.5 161t163.5 91q-63 26 -99 75.5t-36 119.5q0 116 87 188.5t224 72.5
q118 0 189 -62t71 -162q0 -84 -52 -148.5t-138 -90.5zM1174 668q0 -76 52.5 -121t139.5 -45q110 0 179 55.5t69 144.5q0 78 -54.5 125t-144.5 47q-107 0 -174 -57t-67 -149zM1326 50q117 0 187.5 60t70.5 157q0 82 -62 129t-162 47q-123 0 -198.5 -58.5t-75.5 -154.5
q0 -82 67.5 -131t172.5 -49z" />
    <glyph glyph-name="threeeighths" unicode="&#x215c;" horiz-adv-x="1901" 
d="M729 819q0 -122 -87.5 -199.5t-225.5 -77.5q-116 0 -191.5 56t-100.5 156l61 19q21 -83 81 -126.5t153 -43.5q108 0 174.5 61.5t66.5 156.5q0 80 -52 128t-139 48h-58l10 56h44q101 0 166 59t65 150q0 77 -48.5 120t-132.5 43q-171 0 -245 -176l-60 24q44 103 123 158
t186 55q112 0 179 -59.5t67 -160.5q0 -85 -46.5 -148.5t-129.5 -93.5q65 -25 102.5 -78.5t37.5 -126.5zM1504 1475h77l-1122 -1475h-77zM1602 471q72 -21 116.5 -75t44.5 -131q0 -123 -88.5 -198.5t-236.5 -75.5q-135 0 -220 65t-85 170q0 95 59.5 161t163.5 91
q-63 26 -99 75.5t-36 119.5q0 116 87 188.5t224 72.5q118 0 189 -62t71 -162q0 -84 -52 -148.5t-138 -90.5zM1286 668q0 -76 53 -121t140 -45q110 0 178.5 55.5t68.5 144.5q0 78 -54 125t-144 47q-107 0 -174.5 -57t-67.5 -149zM1439 50q117 0 187.5 60t70.5 157
q0 82 -62 129t-162 47q-123 0 -198.5 -58.5t-75.5 -154.5q0 -82 67.5 -131t172.5 -49z" />
    <glyph glyph-name="fiveeighths" unicode="&#x215d;" horiz-adv-x="1889" 
d="M744 884q0 -151 -94.5 -247t-246.5 -96q-103 0 -180 50.5t-105 137.5l60 26q22 -71 84.5 -112.5t144.5 -41.5q120 0 194 79t74 199q0 96 -54.5 152t-150.5 56q-137 0 -222 -107h-62l127 495h468l-10 -60h-412l-90 -347q89 80 215 80q118 0 189 -73t71 -191zM1494 1475h77
l-1122 -1475h-77zM1591 471q72 -21 117 -75t45 -131q0 -123 -89 -198.5t-237 -75.5q-135 0 -220 65t-85 170q0 95 60 161t164 91q-63 26 -99.5 75.5t-36.5 119.5q0 116 87.5 188.5t224.5 72.5q118 0 189 -62t71 -162q0 -84 -52.5 -148.5t-138.5 -90.5zM1276 668
q0 -76 52.5 -121t139.5 -45q110 0 179 55.5t69 144.5q0 78 -54 125t-144 47q-107 0 -174.5 -57t-67.5 -149zM1428 50q117 0 188 60t71 157q0 82 -62.5 129t-162.5 47q-123 0 -198 -58.5t-75 -154.5q0 -82 67 -131t172 -49z" />
    <glyph glyph-name="seveneighths" unicode="&#x215e;" horiz-adv-x="1728" 
d="M285 549q34 272 128.5 462t304.5 403h-514l10 61h589l-10 -58q-210 -219 -307.5 -409.5t-129.5 -458.5h-71zM1332 1475h77l-1122 -1475h-77zM1428 471q72 -21 117 -75t45 -131q0 -123 -88.5 -198.5t-236.5 -75.5q-135 0 -220.5 65t-85.5 170q0 95 60 161t164 91
q-63 26 -99 75.5t-36 119.5q0 116 87 188.5t224 72.5q118 0 189 -62t71 -162q0 -84 -52.5 -148.5t-138.5 -90.5zM1113 668q0 -76 53 -121t140 -45q110 0 178.5 55.5t68.5 144.5q0 78 -54 125t-144 47q-107 0 -174.5 -57t-67.5 -149zM1266 50q117 0 187.5 60t70.5 157
q0 82 -62.5 129t-162.5 47q-123 0 -198 -58.5t-75 -154.5q0 -82 67.5 -131t172.5 -49z" />
    <glyph glyph-name="uni215F" unicode="&#x215f;" horiz-adv-x="982" 
d="M331 549l147 837l-222 -176l-34 43l279 222h59l-163 -926h-66zM1389 1475h76l-1122 -1475h-77z" />
    <glyph glyph-name="uni2189" unicode="&#x2189;" horiz-adv-x="1913" 
d="M843 1107q0 -157 -47 -285t-137 -204.5t-207 -76.5q-133 0 -207 100.5t-74 277.5q0 156 47 284t137.5 205t207.5 77q133 0 206.5 -100.5t73.5 -277.5zM1555 1475h77l-1122 -1475h-77zM240 920q0 -149 56.5 -234t157.5 -85q95 0 169 70.5t112.5 185t38.5 249.5
q0 149 -56 233t-157 84q-95 0 -169 -70.5t-113 -184.5t-39 -248zM1641 473q65 -25 102 -78t37 -127q0 -122 -87.5 -199.5t-225.5 -77.5q-115 0 -190 56t-101 156l61 20q21 -84 80.5 -128t152.5 -44q108 0 175 62t67 157q0 81 -51.5 128t-139.5 47h-59l12 58h43q102 0 167 59
t65 149q0 77 -49 120t-133 43q-170 0 -244 -176l-61 24q44 103 123 157.5t187 54.5q111 0 178.5 -59.5t67.5 -158.5q0 -85 -48 -148.5t-129 -94.5z" />
    <glyph glyph-name="arrowleft" unicode="&#x2190;" horiz-adv-x="1792" 
d="M1690 680v-68h-1507l394 -391l-46 -45l-470 470l470 470l46 -45l-394 -391h1507z" />
    <glyph glyph-name="arrowup" unicode="&#x2191;" horiz-adv-x="1792" 
d="M1366 990l-45 -45l-391 393v-1506h-68v1506l-391 -393l-45 45l470 470z" />
    <glyph glyph-name="arrowright" unicode="&#x2192;" horiz-adv-x="1792" 
d="M1261 1116l470 -470l-470 -470l-46 45l394 391h-1507v68h1507l-394 391z" />
    <glyph glyph-name="arrowdown" unicode="&#x2193;" horiz-adv-x="1792" 
d="M1321 347l45 -45l-470 -470l-470 470l45 45l391 -393v1506h68v-1506z" />
    <glyph glyph-name="arrowboth" unicode="&#x2194;" horiz-adv-x="1938" 
d="M1407 1116l470 -470l-470 -470l-45 45l393 391h-1572l394 -391l-46 -45l-470 470l470 470l46 -45l-394 -391h1572l-393 391z" />
    <glyph glyph-name="arrowupdn" unicode="&#x2195;" horiz-adv-x="1792" 
d="M930 -139l391 393l45 -46l-470 -470l-470 470l45 46l391 -393v1571l-391 -394l-45 46l470 470l470 -470l-45 -46l-391 394v-1571z" />
    <glyph glyph-name="uni2196" unicode="&#x2196;" horiz-adv-x="1792" 
d="M1484 94l-48 -47l-1064 1064l1 -554h-65v665h665v-65l-554 2z" />
    <glyph glyph-name="uni2197" unicode="&#x2197;" horiz-adv-x="1792" 
d="M819 1222h665v-665h-65l1 554l-1064 -1064l-48 47l1065 1065l-554 -2v65z" />
    <glyph glyph-name="uni2198" unicode="&#x2198;" horiz-adv-x="1792" 
d="M1419 735h65v-664h-665v64l554 -2l-1065 1065l48 47l1064 -1064z" />
    <glyph glyph-name="uni2199" unicode="&#x2199;" horiz-adv-x="1792" 
d="M1484 1198l-1065 -1065l554 2v-64h-665v664h65l-1 -554l1064 1064z" />
    <glyph glyph-name="uni21B0" unicode="&#x21b0;" horiz-adv-x="1792" 
d="M1655 680v-862h-67v794h-1438l393 -391l-46 -45l-470 470l470 470l46 -45l-393 -391h1505z" />
    <glyph glyph-name="uni21B1" unicode="&#x21b1;" horiz-adv-x="1792" 
d="M1261 1116l470 -470l-470 -470l-46 45l394 391h-1440v-794h-67v862h1507l-394 391z" />
    <glyph glyph-name="uni21B3" unicode="&#x21b3;" horiz-adv-x="1792" 
d="M1336 1116l470 -470l-470 -470l-45 45l393 391h-1506v863h67v-795h1439l-393 391z" />
    <glyph glyph-name="carriagereturn" unicode="&#x21b5;" horiz-adv-x="1792" 
d="M1647 1475h67v-863h-1506l393 -391l-45 -45l-470 470l470 470l45 -45l-393 -391h1439v795z" />
    <glyph glyph-name="partialdiff" unicode="&#x2202;" horiz-adv-x="1143" 
d="M458 1491q590 -131 590 -855q0 -100 -18.5 -192.5t-59.5 -176.5t-100 -146t-145 -98.5t-190 -36.5q-195 0 -314.5 128.5t-119.5 342.5q0 166 59 301.5t175 217.5t269 82q123 0 217 -56.5t144 -155.5q-81 483 -527 587zM536 54q135 0 236 79t150 204t49 275
q0 172 -99.5 274.5t-262.5 102.5q-100 0 -183 -43.5t-137 -116.5t-84 -168.5t-30 -201.5q0 -183 100 -294t261 -111z" />
    <glyph glyph-name="emptyset" unicode="&#x2205;" horiz-adv-x="1387" 
d="M1274 1055l-175 -174q135 -153 135 -357q0 -147 -72.5 -272t-196.5 -197t-271 -72q-205 0 -358 135l-175 -175l-47 48l175 175q-135 153 -135 358q0 146 72.5 270t196.5 196.5t271 72.5q204 0 357 -134l175 175zM230 524q0 -173 111 -305l657 658q-128 114 -304 114
q-94 0 -180 -37t-148 -99.5t-99 -149t-37 -181.5zM1158 524q0 173 -111 303l-659 -657q132 -116 306 -116q192 0 328 137.5t136 332.5z" />
    <glyph glyph-name="uni2206" unicode="&#x2206;" horiz-adv-x="1354" 
d="M887 1475l307 -1412l-11 -63h-1196l11 63l805 1412h84zM89 72h1025l-284 1303z" />
    <glyph glyph-name="product" unicode="&#x220f;" horiz-adv-x="1604" 
d="M1256 1475v-1772h-75v1700h-734v-1700h-76v1772h885z" />
    <glyph glyph-name="summation" unicode="&#x2211;" horiz-adv-x="1626" 
d="M371 -297v64l665 837l-665 807v64h982v-72h-874l634 -769v-61l-634 -798h881v-72h-989z" />
    <glyph glyph-name="minus" unicode="&#x2212;" 
d="M189 538l12 67h856l-11 -67h-857z" />
    <glyph glyph-name="uni2215" unicode="&#x2215;" horiz-adv-x="992" 
d="M-61 0l1123 1475h77l-1123 -1475h-77z" />
    <glyph glyph-name="uni2219" unicode="&#x2219;" 
d="M628 492q-45 0 -78 32.5t-33 77.5t33 78t78 33t77.5 -33t32.5 -78t-32 -77.5t-78 -32.5z" />
    <glyph glyph-name="radical" unicode="&#x221a;" horiz-adv-x="1174" 
d="M1192 1475h81l-696 -1772h-79l-404 961l74 24l368 -886z" />
    <glyph glyph-name="infinity" unicode="&#x221e;" horiz-adv-x="1839" 
d="M1359 930q165 0 264 -99.5t99 -277.5t-99 -277.5t-264 -99.5q-56 0 -109 18.5t-94 45.5t-85.5 72t-75.5 84t-72 96q-53 -73 -93 -120t-96 -97t-118 -74.5t-131 -24.5q-162 0 -260 99.5t-98 277.5t98 277.5t260 99.5q69 0 131 -24.5t118 -74.5t96 -97t93 -120q41 57 72 96
t75.5 84t85.5 72t94 45.5t109 18.5zM488 244q47 0 93 18t81 43t77.5 71.5t69.5 81.5t70 95q-43 60 -70 95t-69.5 81.5t-77.5 71.5t-81 43t-93 18q-127 0 -205.5 -81.5t-78.5 -227.5t78.5 -227.5t205.5 -81.5zM1357 244q129 0 209 81.5t80 227.5t-80 227.5t-209 81.5
q-48 0 -93.5 -18t-81 -43t-77 -71.5t-69 -82t-69.5 -94.5q42 -59 69.5 -94.5t69 -82t77 -71.5t81 -43t93.5 -18z" />
    <glyph glyph-name="integral" unicode="&#x222b;" horiz-adv-x="754" 
d="M289 -312q-47 0 -104 25l20 61q42 -20 80 -20q37 0 51.5 23.5t14.5 67.5v1501q0 69 36 106t102 37q43 0 102 -25l-19 -60q-40 19 -78 19t-53 -23.5t-15 -68.5v-1499q0 -70 -36 -107t-101 -37z" />
    <glyph glyph-name="approxequal" unicode="&#x2248;" 
d="M263 698l-56 35q68 100 133.5 144t139.5 44q59 0 102 -21.5t92 -61.5q29 -24 48 -37.5t49.5 -25t61.5 -11.5q54 0 101 34.5t106 119.5l56 -35q-69 -100 -133.5 -144.5t-137.5 -44.5q-58 0 -101.5 21.5t-90.5 61.5q-43 36 -78.5 55t-81.5 19q-54 0 -103.5 -35t-106.5 -118
zM219 305l-56 35q68 99 133.5 143t139.5 44q59 0 102 -21.5t92 -61.5q29 -24 48 -37t48.5 -24.5t61.5 -11.5q54 0 102 34.5t106 118.5l56 -35q-69 -100 -133.5 -144t-137.5 -44q-58 0 -101.5 21.5t-90.5 61.5q-43 36 -78.5 55t-81.5 19q-54 0 -103.5 -35t-106.5 -118z" />
    <glyph glyph-name="notequal" unicode="&#x2260;" 
d="M1089 783h-340l-194 -360h470l-12 -68h-495l-146 -273h-73l146 273h-288l12 68h313l194 360h-444l12 67h468l146 273h73l-147 -273h317z" />
    <glyph glyph-name="lessequal" unicode="&#x2264;" 
d="M1005 313l-791 372l13 74l923 377l-14 -81l-844 -337l726 -332zM110 94l12 67h856l-11 -67h-857z" />
    <glyph glyph-name="greaterequal" unicode="&#x2265;" 
d="M150 313l13 81l844 337l-725 331l12 74l791 -372l-14 -74zM111 94l12 67h856l-12 -67h-856z" />
    <glyph glyph-name="uni2300" unicode="&#x2300;" horiz-adv-x="1387" 
d="M1274 1055l-175 -174q135 -153 135 -357q0 -147 -72.5 -272t-196.5 -197t-271 -72q-205 0 -358 135l-175 -175l-47 48l175 175q-135 153 -135 358q0 146 72.5 270t196.5 196.5t271 72.5q204 0 357 -134l175 175zM230 524q0 -173 111 -305l657 658q-128 114 -304 114
q-94 0 -180 -37t-148 -99.5t-99 -149t-37 -181.5zM1158 524q0 173 -111 303l-659 -657q132 -116 306 -116q192 0 328 137.5t136 332.5z" />
    <glyph glyph-name="uni2460" unicode="&#x2460;" horiz-adv-x="1938" 
d="M1038 1540q212 0 382 -93.5t265.5 -260t95.5 -374.5q0 -179 -68.5 -341.5t-185.5 -280t-281 -186.5t-347 -69q-159 0 -297 55t-235.5 151t-153.5 231.5t-56 291.5q0 179 68.5 341t185 279.5t280.5 186.5t347 69zM901 4q168 0 318.5 64t257.5 172t169.5 257t62.5 313
q0 189 -86.5 340t-240.5 236t-346 85q-168 0 -318.5 -63.5t-257.5 -172t-169.5 -257t-62.5 -312.5q0 -189 86.5 -340t240.5 -236.5t346 -85.5zM1101 1221l-163 -926h-67l148 837l-222 -176l-34 43l278 222h60z" />
    <glyph glyph-name="uni2461" unicode="&#x2461;" horiz-adv-x="1938" 
d="M1038 1540q212 0 382 -93.5t265.5 -260t95.5 -374.5q0 -179 -68.5 -341.5t-185.5 -280t-281 -186.5t-347 -69q-159 0 -297 55t-235.5 151t-153.5 231.5t-56 291.5q0 179 68.5 341t185 279.5t280.5 186.5t347 69zM901 4q168 0 318.5 64t257.5 172t169.5 257t62.5 313
q0 189 -86.5 340t-240.5 236t-346 85q-168 0 -318.5 -63.5t-257.5 -172t-169.5 -257t-62.5 -312.5q0 -189 86.5 -340t240.5 -236.5t346 -85.5zM1269 1007q0 -72 -49.5 -147.5t-187.5 -208.5l-306 -297h487l-10 -59h-586l11 54l356 345q131 126 174 187.5t43 120.5
q0 74 -51.5 120.5t-132.5 46.5q-86 0 -153 -52t-102 -149l-62 19q45 120 129 181.5t192 61.5q109 0 178.5 -62t69.5 -161z" />
    <glyph glyph-name="uni2462" unicode="&#x2462;" horiz-adv-x="1938" 
d="M1038 1540q212 0 382 -93.5t265.5 -260t95.5 -374.5q0 -179 -68.5 -341.5t-185.5 -280t-281 -186.5t-347 -69q-159 0 -297 55t-235.5 151t-153.5 231.5t-56 291.5q0 179 68.5 341t185 279.5t280.5 186.5t347 69zM901 4q168 0 318.5 64t257.5 172t169.5 257t62.5 313
q0 189 -86.5 340t-240.5 236t-346 85q-168 0 -318.5 -63.5t-257.5 -172t-169.5 -257t-62.5 -312.5q0 -189 86.5 -340t240.5 -236.5t346 -85.5zM1253 1011q0 -87 -48.5 -150t-135.5 -93q69 -23 108.5 -75.5t39.5 -128.5q0 -123 -87.5 -200.5t-225.5 -77.5q-116 0 -191.5 56
t-101.5 157l63 21q20 -84 79.5 -129t152.5 -45q108 0 175.5 62t67.5 157q0 81 -52 128.5t-140 47.5h-58l10 57h43q102 0 167.5 59.5t65.5 149.5q0 76 -49.5 119.5t-133.5 43.5q-169 0 -243 -177l-60 24q45 103 124 158t185 55q112 0 178.5 -59t66.5 -160z" />
    <glyph glyph-name="uni2463" unicode="&#x2463;" horiz-adv-x="1938" 
d="M1038 1540q212 0 382 -93.5t265.5 -260t95.5 -374.5q0 -179 -68.5 -341.5t-185.5 -280t-281 -186.5t-347 -69q-159 0 -297 55t-235.5 151t-153.5 231.5t-56 291.5q0 179 68.5 341t185 279.5t280.5 186.5t347 69zM901 4q168 0 318.5 64t257.5 172t169.5 257t62.5 313
q0 189 -86.5 340t-240.5 236t-346 85q-168 0 -318.5 -63.5t-257.5 -172t-169.5 -257t-62.5 -312.5q0 -189 86.5 -340t240.5 -236.5t346 -85.5zM1195 1221l-115 -653h135l-10 -59h-135l-38 -214h-66l38 214h-466l10 56l571 656h76zM620 568h394l100 571z" />
    <glyph glyph-name="uni2464" unicode="&#x2464;" horiz-adv-x="1938" 
d="M1038 1540q212 0 382 -93.5t265.5 -260t95.5 -374.5q0 -179 -68.5 -341.5t-185.5 -280t-281 -186.5t-347 -69q-159 0 -297 55t-235.5 151t-153.5 231.5t-56 291.5q0 179 68.5 341t185 279.5t280.5 186.5t347 69zM901 4q168 0 318.5 64t257.5 172t169.5 257t62.5 313
q0 189 -86.5 340t-240.5 236t-346 85q-168 0 -318.5 -63.5t-257.5 -172t-169.5 -257t-62.5 -312.5q0 -189 86.5 -340t240.5 -236.5t346 -85.5zM1264 1221l-11 -60h-412l-92 -360q95 90 218 90q118 0 188.5 -72t70.5 -191q0 -150 -94.5 -246.5t-245.5 -96.5q-103 0 -180.5 51
t-105.5 138l60 28q22 -72 84.5 -114t144.5 -42q120 0 194 79.5t74 199.5q0 95 -55 152t-151 57q-134 0 -222 -110h-61l127 497h469z" />
    <glyph glyph-name="uni2465" unicode="&#x2465;" horiz-adv-x="1938" 
d="M1038 1540q212 0 382 -93.5t265.5 -260t95.5 -374.5q0 -179 -68.5 -341.5t-185.5 -280t-281 -186.5t-347 -69q-159 0 -297 55t-235.5 151t-153.5 231.5t-56 291.5q0 179 68.5 341t185 279.5t280.5 186.5t347 69zM901 4q168 0 318.5 64t257.5 172t169.5 257t62.5 313
q0 189 -86.5 340t-240.5 236t-346 85q-168 0 -318.5 -63.5t-257.5 -172t-169.5 -257t-62.5 -312.5q0 -189 86.5 -340t240.5 -236.5t346 -85.5zM1032 1170q-67 0 -122.5 -33t-94 -92t-63.5 -132t-39 -161q0 -3 -2 -15q40 66 107.5 106t153.5 40q112 0 185 -72t73 -189
q0 -141 -89.5 -238.5t-228.5 -97.5q-173 0 -246 141q-35 63 -35 171q0 76 13 157q36 222 135 348.5t253 126.5q172 0 241 -160l-55 -31q-53 131 -186 131zM963 825q-114 0 -189 -76.5t-75 -184.5q0 -98 59 -158.5t155 -60.5q109 0 179.5 80.5t70.5 191.5q0 95 -55.5 151.5
t-144.5 56.5z" />
    <glyph glyph-name="uni2466" unicode="&#x2466;" horiz-adv-x="1938" 
d="M1038 1540q212 0 382 -93.5t265.5 -260t95.5 -374.5q0 -179 -68.5 -341.5t-185.5 -280t-281 -186.5t-347 -69q-159 0 -297 55t-235.5 151t-153.5 231.5t-56 291.5q0 179 68.5 341t185 279.5t280.5 186.5t347 69zM901 4q168 0 318.5 64t257.5 172t169.5 257t62.5 313
q0 189 -86.5 340t-240.5 236t-346 85q-168 0 -318.5 -63.5t-257.5 -172t-169.5 -257t-62.5 -312.5q0 -189 86.5 -340t240.5 -236.5t346 -85.5zM716 1161l10 60h590l-10 -58q-209 -219 -307.5 -410t-130.5 -458h-70q35 271 129 461t303 405h-514z" />
    <glyph glyph-name="uni2467" unicode="&#x2467;" horiz-adv-x="1938" 
d="M1038 1540q212 0 382 -93.5t265.5 -260t95.5 -374.5q0 -179 -68.5 -341.5t-185.5 -280t-281 -186.5t-347 -69q-159 0 -297 55t-235.5 151t-153.5 231.5t-56 291.5q0 179 68.5 341t185 279.5t280.5 186.5t347 69zM901 4q168 0 318.5 64t257.5 172t169.5 257t62.5 313
q0 189 -86.5 340t-240.5 236t-346 85q-168 0 -318.5 -63.5t-257.5 -172t-169.5 -257t-62.5 -312.5q0 -189 86.5 -340t240.5 -236.5t346 -85.5zM1279 1006q0 -85 -53.5 -149t-145.5 -90q78 -21 124 -74.5t46 -132.5q0 -123 -88 -198.5t-236 -75.5q-135 0 -220 65.5t-85 170.5
q0 95 60 161t168 91q-66 25 -103 74.5t-37 119.5q0 116 87 189t222 73q118 0 189.5 -62.5t71.5 -161.5zM966 794q109 0 178.5 57.5t69.5 146.5q0 79 -55 128t-143 49q-107 0 -175.5 -59.5t-68.5 -152.5q0 -76 53.5 -122.5t140.5 -46.5zM1184 562q0 83 -62.5 131.5
t-163.5 48.5q-122 0 -196.5 -60t-74.5 -156q0 -83 67 -133.5t172 -50.5q117 0 187.5 61.5t70.5 158.5z" />
    <glyph glyph-name="uni2468" unicode="&#x2468;" horiz-adv-x="1938" 
d="M1038 1540q212 0 382 -93.5t265.5 -260t95.5 -374.5q0 -179 -68.5 -341.5t-185.5 -280t-281 -186.5t-347 -69q-159 0 -297 55t-235.5 151t-153.5 231.5t-56 291.5q0 179 68.5 341t185 279.5t280.5 186.5t347 69zM901 4q168 0 318.5 64t257.5 172t169.5 257t62.5 313
q0 189 -86.5 340t-240.5 236t-346 85q-168 0 -318.5 -63.5t-257.5 -172t-169.5 -257t-62.5 -312.5q0 -189 86.5 -340t240.5 -236.5t346 -85.5zM1011 1231q171 0 246 -142q33 -60 33 -168q0 -83 -12 -158q-37 -225 -132.5 -350.5t-246.5 -125.5q-176 0 -252 174l56 31
q61 -146 197 -146q66 0 120 33.5t90 93.5t60 133t38 161q0 1 2 13q-39 -63 -105.5 -100.5t-150.5 -37.5q-113 0 -187.5 71t-74.5 187q0 141 90 236t229 95zM962 699q113 0 186.5 73.5t73.5 181.5q0 98 -58.5 158t-154.5 60q-110 0 -180 -79t-70 -189q0 -95 56.5 -150
t146.5 -55z" />
    <glyph glyph-name="uni24EA" unicode="&#x24ea;" horiz-adv-x="1938" 
d="M899 -65q-159 0 -297 55t-235.5 151t-153.5 231.5t-56 291.5q0 179 68.5 341t185 279.5t280.5 186.5t347 69q212 0 382 -93.5t265.5 -260t95.5 -374.5q0 -179 -68.5 -341.5t-185.5 -280t-281 -186.5t-347 -69zM901 4q168 0 318.5 64t257.5 172t169.5 257t62.5 313
q0 189 -86.5 340t-240.5 236t-346 85q-168 0 -318.5 -63.5t-257.5 -172t-169.5 -257t-62.5 -312.5q0 -189 86.5 -340t240.5 -236.5t346 -85.5zM909 286q-133 0 -206.5 101t-73.5 278q0 156 47 284t137 204.5t207 76.5q133 0 206.5 -100t73.5 -277q0 -157 -47 -285t-137 -205
t-207 -77zM911 347q95 0 169.5 70.5t113 185t38.5 249.5q0 149 -56 233t-158 84q-94 0 -168.5 -70.5t-113.5 -184.5t-39 -248q0 -150 56 -234.5t158 -84.5z" />
    <glyph glyph-name="uni24FF" unicode="&#x24ff;" horiz-adv-x="1936" 
d="M899 -65q-159 0 -297 55t-236 151t-153.5 231.5t-55.5 291.5q0 179 68.5 341.5t185 280t280 186.5t346.5 69q159 0 297 -55t236 -151t154 -231t56 -291q0 -179 -68.5 -341.5t-185.5 -280t-280.5 -187t-346.5 -69.5zM908 286q117 0 207 77t137 205t47 285q0 177 -73.5 277
t-206.5 100q-116 0 -206.5 -76.5t-137.5 -205t-47 -284.5q0 -176 73.5 -277t206.5 -101zM910 348q-102 0 -158 84t-56 234q0 134 39 248t113.5 184t169.5 70q102 0 157.5 -83.5t55.5 -232.5q0 -135 -38.5 -249.5t-113 -184.5t-169.5 -70z" />
    <glyph glyph-name="filledbox" unicode="&#x25a0;" horiz-adv-x="1843" 
d="M184 0v1475h1475v-1475h-1475z" />
    <glyph glyph-name="uni25A1" unicode="&#x25a1;" horiz-adv-x="1843" 
d="M184 0v1475h1475v-1475h-1475zM256 69h1331v1337h-1331v-1337z" />
    <glyph glyph-name="uni25AE" unicode="&#x25ae;" horiz-adv-x="1105" 
d="M184 0v1475h738v-1475h-738z" />
    <glyph glyph-name="uni25AF" unicode="&#x25af;" horiz-adv-x="1105" 
d="M184 0v1475h738v-1475h-738zM256 69h594v1337h-594v-1337z" />
    <glyph glyph-name="triagup" unicode="&#x25b2;" horiz-adv-x="1843" 
d="M82 0l840 1495l839 -1495h-1679z" />
    <glyph glyph-name="uni25B3" unicode="&#x25b3;" horiz-adv-x="1843" 
d="M82 0l840 1495l839 -1495h-1679zM207 73h1429l-714 1273z" />
    <glyph glyph-name="uni25C6" unicode="&#x25c6;" horiz-adv-x="1843" 
d="M922 -52l-790 789l790 790l789 -790z" />
    <glyph glyph-name="uni25C7" unicode="&#x25c7;" horiz-adv-x="1843" 
d="M922 -52l-790 789l790 790l789 -790zM922 50l687 687l-687 687l-688 -687z" />
    <glyph glyph-name="lozenge" unicode="&#x25ca;" 
d="M648 1475l435 -738l-435 -737h-67l-436 737l436 738h67zM614 72l388 665l-388 666l-388 -666z" />
    <glyph glyph-name="circle" unicode="&#x25cb;" horiz-adv-x="1843" 
d="M923 -16q-154 0 -293.5 59.5t-240.5 160.5t-161 240.5t-60 292.5t60 292.5t161 240.5t240.5 161t293.5 60q153 0 292 -60t240 -161t160.5 -240.5t59.5 -292.5t-59.5 -292.5t-160.5 -240.5t-240 -160.5t-292 -59.5zM923 56q184 0 340.5 91.5t247.5 248t91 341.5t-91 341.5
t-247.5 248t-340.5 91.5q-139 0 -265 -54t-217 -145t-145 -217t-54 -265t54 -265t145 -217t217 -145t265 -54z" />
    <glyph glyph-name="uni25CF" unicode="&#x25cf;" horiz-adv-x="1843" 
d="M923 -16q-154 0 -293.5 59.5t-240.5 160.5t-161 240.5t-60 292.5t60 292.5t161 240.5t240.5 161t293.5 60q153 0 292 -60t240 -161t160.5 -240.5t59.5 -292.5t-59.5 -292.5t-160.5 -240.5t-240 -160.5t-292 -59.5z" />
    <glyph glyph-name="uni2605" unicode="&#x2605;" horiz-adv-x="1843" 
d="M367 -72l218 654l-514 376h640l211 629l211 -629h640l-515 -376l219 -654l-555 407z" />
    <glyph glyph-name="uni2606" unicode="&#x2606;" horiz-adv-x="1843" 
d="M367 -72l218 654l-514 376h640l211 629l211 -629h640l-515 -376l219 -654l-555 407zM509 124l413 302l412 -302l-163 484l379 278h-472l-156 470l-157 -470h-472l379 -278z" />
    <glyph glyph-name="uni2661" unicode="&#x2661;" horiz-adv-x="1843" 
d="M1271 1499q119 0 219 -54.5t160 -154.5t60 -224q0 -178 -104 -374.5t-278.5 -376t-405.5 -341.5q-172 121 -314.5 254t-249.5 273t-166 285.5t-59 279.5q0 124 60 224t160 154.5t219 54.5q124 0 220.5 -61.5t129.5 -130.5q33 69 129 130.5t220 61.5zM922 61
q319 229 516 497.5t197 507.5q0 155 -105.5 257.5t-258.5 102.5q-130 0 -218.5 -77t-128.5 -194h-4q-40 117 -128.5 194t-219.5 77q-153 0 -258.5 -102.5t-105.5 -257.5q0 -239 197.5 -507.5t516.5 -497.5z" />
    <glyph glyph-name="uni2714" unicode="&#x2714;" horiz-adv-x="1843" 
d="M685 -17l-576 402l43 61l514 -359l1005 1405l63 -44z" />
    <glyph glyph-name="uni2718" unicode="&#x2718;" horiz-adv-x="1843" 
d="M1676 1440l-702 -703l702 -702l-52 -52l-702 702l-703 -702l-52 52l702 702l-702 703l52 52l703 -702l702 702z" />
    <glyph glyph-name="uni2764" unicode="&#x2764;" horiz-adv-x="1843" 
d="M1275 1499q182 0 308.5 -122.5t126.5 -310.5q0 -134 -59 -280t-165.5 -286t-249 -273t-314.5 -253q-231 162 -405.5 341.5t-279 376t-104.5 374.5q0 188 126.5 310.5t308.5 122.5q125 0 224 -65.5t130 -143.5q31 78 129.5 143.5t223.5 65.5z" />
    <glyph glyph-name="uni2776" unicode="&#x2776;" horiz-adv-x="1936" 
d="M899 -65q-159 0 -297 55t-236 151t-153.5 231.5t-55.5 291.5q0 179 68.5 341.5t185 280t280 186.5t346.5 69q159 0 297 -55t236 -151t154 -231t56 -291q0 -179 -68.5 -341.5t-185.5 -280t-280.5 -187t-346.5 -69.5zM871 295h66l163 926h-59l-279 -222l35 -43l222 176z
" />
    <glyph glyph-name="uni2777" unicode="&#x2777;" horiz-adv-x="1938" 
d="M900 -65q-159 0 -297 55t-235.5 151t-153.5 231.5t-56 291.5q0 179 68.5 341t185 279.5t280 186.5t346.5 69q159 0 297.5 -55t236.5 -150.5t154 -231t56 -291.5q0 -179 -68.5 -341.5t-186 -280t-281 -186.5t-346.5 -69zM618 295h586l10 59h-487l306 297q138 135 188 210
t50 146q0 99 -70 161t-179 62q-108 0 -192 -62t-128 -181l62 -19q34 97 101 149t153 52q81 0 132.5 -46.5t51.5 -120.5q0 -58 -43 -119.5t-174 -188.5l-356 -345z" />
    <glyph glyph-name="uni2778" unicode="&#x2778;" horiz-adv-x="1938" 
d="M900 -65q-159 0 -297 55t-235.5 151t-153.5 231.5t-56 291.5q0 179 68.5 341t185 279.5t280 186.5t346.5 69q159 0 297.5 -55t236.5 -150.5t154 -231t56 -291.5q0 -179 -68.5 -341.5t-186 -280t-281 -186.5t-346.5 -69zM906 287q138 0 226 77.5t88 199.5q0 73 -38 126.5
t-103 78.5q83 30 129.5 93.5t46.5 148.5q0 101 -66.5 160.5t-178.5 59.5q-107 0 -186.5 -55t-123.5 -158l61 -24q74 176 245 176q84 0 132.5 -43t48.5 -120q0 -90 -65 -149.5t-167 -59.5h-44l-10 -56h58q88 0 140 -48t52 -128q0 -95 -67 -156.5t-175 -61.5
q-93 0 -152.5 43.5t-80.5 126.5l-62 -19q25 -100 100.5 -156t191.5 -56z" />
    <glyph glyph-name="uni2779" unicode="&#x2779;" horiz-adv-x="1938" 
d="M900 -65q-159 0 -297 55t-235.5 151t-153.5 231.5t-56 291.5q0 179 68.5 341t185 279.5t280 186.5t346.5 69q159 0 297.5 -55t236.5 -150.5t154 -231t56 -291.5q0 -179 -68.5 -341.5t-186 -280t-281 -186.5t-346.5 -69zM967 295h66l38 214h135l12 59h-137l115 653h-76
l-571 -656l-9 -56h465zM628 568l486 564l-99 -564h-387z" />
    <glyph glyph-name="uni277A" unicode="&#x277a;" horiz-adv-x="1938" 
d="M900 -65q-159 0 -297 55t-235.5 151t-153.5 231.5t-56 291.5q0 179 68.5 341t185 279.5t280 186.5t346.5 69q159 0 297.5 -55t236.5 -150.5t154 -231t56 -291.5q0 -179 -68.5 -341.5t-186 -280t-281 -186.5t-346.5 -69zM888 286q152 0 246.5 96t94.5 247q0 118 -71 191
t-189 73q-126 0 -215 -80l90 347h411l11 60h-468l-127 -495h61q86 108 222 108q96 0 150.5 -56.5t54.5 -152.5q0 -120 -74 -199t-194 -79q-81 0 -143.5 41.5t-84.5 112.5l-61 -26q28 -87 105.5 -137.5t180.5 -50.5z" />
    <glyph glyph-name="uni277B" unicode="&#x277b;" horiz-adv-x="1938" 
d="M900 -65q-159 0 -297 55t-235.5 151t-153.5 231.5t-56 291.5q0 179 68.5 341t185 279.5t280 186.5t346.5 69q159 0 297.5 -55t236.5 -150.5t154 -231t56 -291.5q0 -179 -68.5 -341.5t-186 -280t-281 -186.5t-346.5 -69zM913 287q139 0 229 97t90 238q0 118 -73.5 191
t-185.5 73q-83 0 -150.5 -34.5t-109.5 -93.5l3 17q31 175 111 284.5t206 109.5q132 0 187 -127l54 28q-69 160 -241 160q-154 0 -253 -126.5t-135 -348.5q-12 -75 -12 -157q0 -108 34 -170q76 -141 246 -141zM914 346q-96 0 -155 60.5t-59 158.5q0 108 75 184.5t190 76.5
q88 0 143.5 -56.5t55.5 -151.5q0 -112 -70 -192t-180 -80z" />
    <glyph glyph-name="uni277C" unicode="&#x277c;" horiz-adv-x="1938" 
d="M900 -65q-159 0 -297 55t-235.5 151t-153.5 231.5t-56 291.5q0 179 68.5 341t185 279.5t280 186.5t346.5 69q159 0 297.5 -55t236.5 -150.5t154 -231t56 -291.5q0 -179 -68.5 -341.5t-186 -280t-281 -186.5t-346.5 -69zM800 295h69q32 267 130.5 458t307.5 410l11 58
h-590l-11 -60h515q-210 -215 -304 -405t-128 -461z" />
    <glyph glyph-name="uni277D" unicode="&#x277d;" horiz-adv-x="1938" 
d="M900 -65q-159 0 -297 55t-235.5 151t-153.5 231.5t-56 291.5q0 179 68.5 341t185 279.5t280 186.5t346.5 69q159 0 297.5 -55t236.5 -150.5t154 -231t56 -291.5q0 -179 -68.5 -341.5t-186 -280t-281 -186.5t-346.5 -69zM927 287q148 0 236.5 75.5t88.5 198.5
q0 77 -44.5 131t-116.5 75q86 26 138 90.5t52 148.5q0 100 -71 162t-189 62q-137 0 -224 -72.5t-87 -188.5q0 -70 36 -119.5t99 -75.5q-104 -25 -163.5 -91t-59.5 -161q0 -105 85 -170t220 -65zM968 798q-87 0 -140 45t-53 121q0 92 67.5 149t174.5 57q90 0 144 -47t54 -125
q0 -89 -68.5 -144.5t-178.5 -55.5zM928 346q-105 0 -172.5 49t-67.5 131q0 96 75.5 154.5t198.5 58.5q100 0 162 -47t62 -129q0 -97 -70.5 -157t-187.5 -60z" />
    <glyph glyph-name="uni277E" unicode="&#x277e;" horiz-adv-x="1938" 
d="M900 -65q-159 0 -297 55t-235.5 151t-153.5 231.5t-56 291.5q0 179 68.5 341t185 279.5t280 186.5t346.5 69q159 0 297.5 -55t236.5 -150.5t154 -231t56 -291.5q0 -179 -68.5 -341.5t-186 -280t-281 -186.5t-346.5 -69zM900 287q153 0 251 127t129 349q11 78 11 158
q0 108 -33 168q-75 141 -246 141q-139 0 -229 -95t-90 -234q0 -118 74 -189.5t189 -71.5q83 0 149 33t107 89q-1 -13 -5 -29q-30 -172 -106.5 -278.5t-198.5 -106.5q-138 0 -195 140l-59 -27q76 -174 252 -174zM964 699q-91 0 -147.5 55t-56.5 149q0 111 70.5 188t180.5 77
q96 0 154 -58t58 -156q0 -107 -73 -181t-186 -74z" />
    <glyph glyph-name="uni2780" unicode="&#x2780;" horiz-adv-x="1938" 
d="M1038 1540q212 0 382 -93.5t265.5 -260t95.5 -374.5q0 -179 -68.5 -341.5t-185.5 -280t-281 -186.5t-347 -69q-159 0 -297 55t-235.5 151t-153.5 231.5t-56 291.5q0 179 68.5 341t185 279.5t280.5 186.5t347 69zM901 4q168 0 318.5 64t257.5 172t169.5 257t62.5 313
q0 189 -86.5 340t-240.5 236t-346 85q-168 0 -318.5 -63.5t-257.5 -172t-169.5 -257t-62.5 -312.5q0 -189 86.5 -340t240.5 -236.5t346 -85.5zM1101 1221l-163 -926h-67l148 837l-222 -176l-34 43l278 222h60z" />
    <glyph glyph-name="uni2781" unicode="&#x2781;" horiz-adv-x="1938" 
d="M1038 1540q212 0 382 -93.5t265.5 -260t95.5 -374.5q0 -179 -68.5 -341.5t-185.5 -280t-281 -186.5t-347 -69q-159 0 -297 55t-235.5 151t-153.5 231.5t-56 291.5q0 179 68.5 341t185 279.5t280.5 186.5t347 69zM901 4q168 0 318.5 64t257.5 172t169.5 257t62.5 313
q0 189 -86.5 340t-240.5 236t-346 85q-168 0 -318.5 -63.5t-257.5 -172t-169.5 -257t-62.5 -312.5q0 -189 86.5 -340t240.5 -236.5t346 -85.5zM1269 1007q0 -72 -49.5 -147.5t-187.5 -208.5l-306 -297h487l-10 -59h-586l11 54l356 345q131 126 174 187.5t43 120.5
q0 74 -51.5 120.5t-132.5 46.5q-86 0 -153 -52t-102 -149l-62 19q45 120 129 181.5t192 61.5q109 0 178.5 -62t69.5 -161z" />
    <glyph glyph-name="uni2782" unicode="&#x2782;" horiz-adv-x="1938" 
d="M1038 1540q212 0 382 -93.5t265.5 -260t95.5 -374.5q0 -179 -68.5 -341.5t-185.5 -280t-281 -186.5t-347 -69q-159 0 -297 55t-235.5 151t-153.5 231.5t-56 291.5q0 179 68.5 341t185 279.5t280.5 186.5t347 69zM901 4q168 0 318.5 64t257.5 172t169.5 257t62.5 313
q0 189 -86.5 340t-240.5 236t-346 85q-168 0 -318.5 -63.5t-257.5 -172t-169.5 -257t-62.5 -312.5q0 -189 86.5 -340t240.5 -236.5t346 -85.5zM1253 1011q0 -87 -48.5 -150t-135.5 -93q69 -23 108.5 -75.5t39.5 -128.5q0 -123 -87.5 -200.5t-225.5 -77.5q-116 0 -191.5 56
t-101.5 157l63 21q20 -84 79.5 -129t152.5 -45q108 0 175.5 62t67.5 157q0 81 -52 128.5t-140 47.5h-58l10 57h43q102 0 167.5 59.5t65.5 149.5q0 76 -49.5 119.5t-133.5 43.5q-169 0 -243 -177l-60 24q45 103 124 158t185 55q112 0 178.5 -59t66.5 -160z" />
    <glyph glyph-name="uni2783" unicode="&#x2783;" horiz-adv-x="1938" 
d="M1038 1540q212 0 382 -93.5t265.5 -260t95.5 -374.5q0 -179 -68.5 -341.5t-185.5 -280t-281 -186.5t-347 -69q-159 0 -297 55t-235.5 151t-153.5 231.5t-56 291.5q0 179 68.5 341t185 279.5t280.5 186.5t347 69zM901 4q168 0 318.5 64t257.5 172t169.5 257t62.5 313
q0 189 -86.5 340t-240.5 236t-346 85q-168 0 -318.5 -63.5t-257.5 -172t-169.5 -257t-62.5 -312.5q0 -189 86.5 -340t240.5 -236.5t346 -85.5zM1195 1221l-115 -653h135l-10 -59h-135l-38 -214h-66l38 214h-466l10 56l571 656h76zM620 568h394l100 571z" />
    <glyph glyph-name="uni2784" unicode="&#x2784;" horiz-adv-x="1938" 
d="M1038 1540q212 0 382 -93.5t265.5 -260t95.5 -374.5q0 -179 -68.5 -341.5t-185.5 -280t-281 -186.5t-347 -69q-159 0 -297 55t-235.5 151t-153.5 231.5t-56 291.5q0 179 68.5 341t185 279.5t280.5 186.5t347 69zM901 4q168 0 318.5 64t257.5 172t169.5 257t62.5 313
q0 189 -86.5 340t-240.5 236t-346 85q-168 0 -318.5 -63.5t-257.5 -172t-169.5 -257t-62.5 -312.5q0 -189 86.5 -340t240.5 -236.5t346 -85.5zM1264 1221l-11 -60h-412l-92 -360q95 90 218 90q118 0 188.5 -72t70.5 -191q0 -150 -94.5 -246.5t-245.5 -96.5q-103 0 -180.5 51
t-105.5 138l60 28q22 -72 84.5 -114t144.5 -42q120 0 194 79.5t74 199.5q0 95 -55 152t-151 57q-134 0 -222 -110h-61l127 497h469z" />
    <glyph glyph-name="uni2785" unicode="&#x2785;" horiz-adv-x="1938" 
d="M1038 1540q212 0 382 -93.5t265.5 -260t95.5 -374.5q0 -179 -68.5 -341.5t-185.5 -280t-281 -186.5t-347 -69q-159 0 -297 55t-235.5 151t-153.5 231.5t-56 291.5q0 179 68.5 341t185 279.5t280.5 186.5t347 69zM901 4q168 0 318.5 64t257.5 172t169.5 257t62.5 313
q0 189 -86.5 340t-240.5 236t-346 85q-168 0 -318.5 -63.5t-257.5 -172t-169.5 -257t-62.5 -312.5q0 -189 86.5 -340t240.5 -236.5t346 -85.5zM1032 1170q-67 0 -122.5 -33t-94 -92t-63.5 -132t-39 -161q0 -3 -2 -15q40 66 107.5 106t153.5 40q112 0 185 -72t73 -189
q0 -141 -89.5 -238.5t-228.5 -97.5q-173 0 -246 141q-35 63 -35 171q0 76 13 157q36 222 135 348.5t253 126.5q172 0 241 -160l-55 -31q-53 131 -186 131zM963 825q-114 0 -189 -76.5t-75 -184.5q0 -98 59 -158.5t155 -60.5q109 0 179.5 80.5t70.5 191.5q0 95 -55.5 151.5
t-144.5 56.5z" />
    <glyph glyph-name="uni2786" unicode="&#x2786;" horiz-adv-x="1938" 
d="M1038 1540q212 0 382 -93.5t265.5 -260t95.5 -374.5q0 -179 -68.5 -341.5t-185.5 -280t-281 -186.5t-347 -69q-159 0 -297 55t-235.5 151t-153.5 231.5t-56 291.5q0 179 68.5 341t185 279.5t280.5 186.5t347 69zM901 4q168 0 318.5 64t257.5 172t169.5 257t62.5 313
q0 189 -86.5 340t-240.5 236t-346 85q-168 0 -318.5 -63.5t-257.5 -172t-169.5 -257t-62.5 -312.5q0 -189 86.5 -340t240.5 -236.5t346 -85.5zM716 1161l10 60h590l-10 -58q-209 -219 -307.5 -410t-130.5 -458h-70q35 271 129 461t303 405h-514z" />
    <glyph glyph-name="uni2787" unicode="&#x2787;" horiz-adv-x="1938" 
d="M1038 1540q212 0 382 -93.5t265.5 -260t95.5 -374.5q0 -179 -68.5 -341.5t-185.5 -280t-281 -186.5t-347 -69q-159 0 -297 55t-235.5 151t-153.5 231.5t-56 291.5q0 179 68.5 341t185 279.5t280.5 186.5t347 69zM901 4q168 0 318.5 64t257.5 172t169.5 257t62.5 313
q0 189 -86.5 340t-240.5 236t-346 85q-168 0 -318.5 -63.5t-257.5 -172t-169.5 -257t-62.5 -312.5q0 -189 86.5 -340t240.5 -236.5t346 -85.5zM1279 1006q0 -85 -53.5 -149t-145.5 -90q78 -21 124 -74.5t46 -132.5q0 -123 -88 -198.5t-236 -75.5q-135 0 -220 65.5t-85 170.5
q0 95 60 161t168 91q-66 25 -103 74.5t-37 119.5q0 116 87 189t222 73q118 0 189.5 -62.5t71.5 -161.5zM966 794q109 0 178.5 57.5t69.5 146.5q0 79 -55 128t-143 49q-107 0 -175.5 -59.5t-68.5 -152.5q0 -76 53.5 -122.5t140.5 -46.5zM1184 562q0 83 -62.5 131.5
t-163.5 48.5q-122 0 -196.5 -60t-74.5 -156q0 -83 67 -133.5t172 -50.5q117 0 187.5 61.5t70.5 158.5z" />
    <glyph glyph-name="uni2788" unicode="&#x2788;" horiz-adv-x="1938" 
d="M1038 1540q212 0 382 -93.5t265.5 -260t95.5 -374.5q0 -179 -68.5 -341.5t-185.5 -280t-281 -186.5t-347 -69q-159 0 -297 55t-235.5 151t-153.5 231.5t-56 291.5q0 179 68.5 341t185 279.5t280.5 186.5t347 69zM901 4q168 0 318.5 64t257.5 172t169.5 257t62.5 313
q0 189 -86.5 340t-240.5 236t-346 85q-168 0 -318.5 -63.5t-257.5 -172t-169.5 -257t-62.5 -312.5q0 -189 86.5 -340t240.5 -236.5t346 -85.5zM1011 1231q171 0 246 -142q33 -60 33 -168q0 -83 -12 -158q-37 -225 -132.5 -350.5t-246.5 -125.5q-176 0 -252 174l56 31
q61 -146 197 -146q66 0 120 33.5t90 93.5t60 133t38 161q0 1 2 13q-39 -63 -105.5 -100.5t-150.5 -37.5q-113 0 -187.5 71t-74.5 187q0 141 90 236t229 95zM962 699q113 0 186.5 73.5t73.5 181.5q0 98 -58.5 158t-154.5 60q-110 0 -180 -79t-70 -189q0 -95 56.5 -150
t146.5 -55z" />
    <glyph glyph-name="uni278A" unicode="&#x278a;" horiz-adv-x="1936" 
d="M899 -65q-159 0 -297 55t-236 151t-153.5 231.5t-55.5 291.5q0 179 68.5 341.5t185 280t280 186.5t346.5 69q159 0 297 -55t236 -151t154 -231t56 -291q0 -179 -68.5 -341.5t-185.5 -280t-280.5 -187t-346.5 -69.5zM871 295h66l163 926h-59l-279 -222l35 -43l222 176z
" />
    <glyph glyph-name="uni278B" unicode="&#x278b;" horiz-adv-x="1938" 
d="M900 -65q-159 0 -297 55t-235.5 151t-153.5 231.5t-56 291.5q0 179 68.5 341t185 279.5t280 186.5t346.5 69q159 0 297.5 -55t236.5 -150.5t154 -231t56 -291.5q0 -179 -68.5 -341.5t-186 -280t-281 -186.5t-346.5 -69zM618 295h586l10 59h-487l306 297q138 135 188 210
t50 146q0 99 -70 161t-179 62q-108 0 -192 -62t-128 -181l62 -19q34 97 101 149t153 52q81 0 132.5 -46.5t51.5 -120.5q0 -58 -43 -119.5t-174 -188.5l-356 -345z" />
    <glyph glyph-name="uni278C" unicode="&#x278c;" horiz-adv-x="1938" 
d="M900 -65q-159 0 -297 55t-235.5 151t-153.5 231.5t-56 291.5q0 179 68.5 341t185 279.5t280 186.5t346.5 69q159 0 297.5 -55t236.5 -150.5t154 -231t56 -291.5q0 -179 -68.5 -341.5t-186 -280t-281 -186.5t-346.5 -69zM906 287q138 0 226 77.5t88 199.5q0 73 -38 126.5
t-103 78.5q83 30 129.5 93.5t46.5 148.5q0 101 -66.5 160.5t-178.5 59.5q-107 0 -186.5 -55t-123.5 -158l61 -24q74 176 245 176q84 0 132.5 -43t48.5 -120q0 -90 -65 -149.5t-167 -59.5h-44l-10 -56h58q88 0 140 -48t52 -128q0 -95 -67 -156.5t-175 -61.5
q-93 0 -152.5 43.5t-80.5 126.5l-62 -19q25 -100 100.5 -156t191.5 -56z" />
    <glyph glyph-name="uni278D" unicode="&#x278d;" horiz-adv-x="1938" 
d="M900 -65q-159 0 -297 55t-235.5 151t-153.5 231.5t-56 291.5q0 179 68.5 341t185 279.5t280 186.5t346.5 69q159 0 297.5 -55t236.5 -150.5t154 -231t56 -291.5q0 -179 -68.5 -341.5t-186 -280t-281 -186.5t-346.5 -69zM967 295h66l38 214h135l12 59h-137l115 653h-76
l-571 -656l-9 -56h465zM628 568l486 564l-99 -564h-387z" />
    <glyph glyph-name="uni278E" unicode="&#x278e;" horiz-adv-x="1938" 
d="M900 -65q-159 0 -297 55t-235.5 151t-153.5 231.5t-56 291.5q0 179 68.5 341t185 279.5t280 186.5t346.5 69q159 0 297.5 -55t236.5 -150.5t154 -231t56 -291.5q0 -179 -68.5 -341.5t-186 -280t-281 -186.5t-346.5 -69zM888 286q152 0 246.5 96t94.5 247q0 118 -71 191
t-189 73q-126 0 -215 -80l90 347h411l11 60h-468l-127 -495h61q86 108 222 108q96 0 150.5 -56.5t54.5 -152.5q0 -120 -74 -199t-194 -79q-81 0 -143.5 41.5t-84.5 112.5l-61 -26q28 -87 105.5 -137.5t180.5 -50.5z" />
    <glyph glyph-name="uni278F" unicode="&#x278f;" horiz-adv-x="1938" 
d="M900 -65q-159 0 -297 55t-235.5 151t-153.5 231.5t-56 291.5q0 179 68.5 341t185 279.5t280 186.5t346.5 69q159 0 297.5 -55t236.5 -150.5t154 -231t56 -291.5q0 -179 -68.5 -341.5t-186 -280t-281 -186.5t-346.5 -69zM913 287q139 0 229 97t90 238q0 118 -73.5 191
t-185.5 73q-83 0 -150.5 -34.5t-109.5 -93.5l3 17q31 175 111 284.5t206 109.5q132 0 187 -127l54 28q-69 160 -241 160q-154 0 -253 -126.5t-135 -348.5q-12 -75 -12 -157q0 -108 34 -170q76 -141 246 -141zM914 346q-96 0 -155 60.5t-59 158.5q0 108 75 184.5t190 76.5
q88 0 143.5 -56.5t55.5 -151.5q0 -112 -70 -192t-180 -80z" />
    <glyph glyph-name="uni2790" unicode="&#x2790;" horiz-adv-x="1938" 
d="M900 -65q-159 0 -297 55t-235.5 151t-153.5 231.5t-56 291.5q0 179 68.5 341t185 279.5t280 186.5t346.5 69q159 0 297.5 -55t236.5 -150.5t154 -231t56 -291.5q0 -179 -68.5 -341.5t-186 -280t-281 -186.5t-346.5 -69zM800 295h69q32 267 130.5 458t307.5 410l11 58
h-590l-11 -60h515q-210 -215 -304 -405t-128 -461z" />
    <glyph glyph-name="uni2791" unicode="&#x2791;" horiz-adv-x="1938" 
d="M900 -65q-159 0 -297 55t-235.5 151t-153.5 231.5t-56 291.5q0 179 68.5 341t185 279.5t280 186.5t346.5 69q159 0 297.5 -55t236.5 -150.5t154 -231t56 -291.5q0 -179 -68.5 -341.5t-186 -280t-281 -186.5t-346.5 -69zM927 287q148 0 236.5 75.5t88.5 198.5
q0 77 -44.5 131t-116.5 75q86 26 138 90.5t52 148.5q0 100 -71 162t-189 62q-137 0 -224 -72.5t-87 -188.5q0 -70 36 -119.5t99 -75.5q-104 -25 -163.5 -91t-59.5 -161q0 -105 85 -170t220 -65zM968 798q-87 0 -140 45t-53 121q0 92 67.5 149t174.5 57q90 0 144 -47t54 -125
q0 -89 -68.5 -144.5t-178.5 -55.5zM928 346q-105 0 -172.5 49t-67.5 131q0 96 75.5 154.5t198.5 58.5q100 0 162 -47t62 -129q0 -97 -70.5 -157t-187.5 -60z" />
    <glyph glyph-name="uni2792" unicode="&#x2792;" horiz-adv-x="1938" 
d="M900 -65q-159 0 -297 55t-235.5 151t-153.5 231.5t-56 291.5q0 179 68.5 341t185 279.5t280 186.5t346.5 69q159 0 297.5 -55t236.5 -150.5t154 -231t56 -291.5q0 -179 -68.5 -341.5t-186 -280t-281 -186.5t-346.5 -69zM900 287q153 0 251 127t129 349q11 78 11 158
q0 108 -33 168q-75 141 -246 141q-139 0 -229 -95t-90 -234q0 -118 74 -189.5t189 -71.5q83 0 149 33t107 89q-1 -13 -5 -29q-30 -172 -106.5 -278.5t-198.5 -106.5q-138 0 -195 140l-59 -27q76 -174 252 -174zM964 699q-91 0 -147.5 55t-56.5 149q0 111 70.5 188t180.5 77
q96 0 154 -58t58 -156q0 -107 -73 -181t-186 -74z" />
    <glyph glyph-name="uniFEFF" unicode="&#xfeff;" horiz-adv-x="0" 
 />
    <glyph glyph-name="Cacute.loclPLK" horiz-adv-x="1452" 
d="M821 1593l178 276h82l-190 -276h-70zM727 -15q-259 0 -414.5 171t-155.5 459q0 178 51 336.5t143 278.5t231 190t305 70q190 0 319.5 -93.5t190.5 -262.5l-68 -29q-115 312 -446 312q-119 0 -223 -42t-181 -117t-132 -174.5t-83 -217.5t-28 -244q0 -259 136 -412
t358 -153q167 0 288 80.5t218 237.5l66 -38q-107 -173 -246 -262.5t-329 -89.5z" />
    <glyph glyph-name="Nacute.loclPLK" horiz-adv-x="1443" 
d="M1080 1869l-190 -276h-70l178 276h82zM1332 1475h77l-260 -1475h-95l-625 1367l-242 -1367h-76l260 1475h91l629 -1367z" />
    <glyph glyph-name="Oacute.loclPLK" horiz-adv-x="1544" 
d="M826 1592l179 276h81l-190 -276h-70zM730 -16q-261 0 -417 171t-156 460q0 178 51 336.5t143.5 278.5t231.5 190.5t306 70.5q261 0 417.5 -170.5t156.5 -457.5q0 -177 -51 -336t-143 -280t-232 -192t-307 -71zM733 57q120 0 225 43t182 118.5t132.5 176.5t83.5 219
t28 244q0 257 -136.5 408t-361.5 151q-149 0 -273.5 -65t-205.5 -175t-126 -253.5t-45 -302.5q0 -259 136.5 -411.5t360.5 -152.5z" />
    <glyph glyph-name="Sacute.loclPLK" horiz-adv-x="1311" 
d="M711 1593l178 276h82l-191 -276h-69zM617 -15q-200 0 -340.5 82.5t-186.5 230.5l71 33q37 -129 160 -202t299 -73q207 0 335.5 93.5t128.5 251.5q0 49 -12.5 89.5t-31 69.5t-52.5 53.5t-64.5 40t-81 31t-87 24t-96.5 20.5q-205 43 -310.5 128t-105.5 241q0 120 67.5 210
t181.5 136t258 46q174 0 310 -74.5t197 -201.5l-65 -35q-53 111 -170.5 175t-268.5 64q-191 0 -311.5 -84.5t-120.5 -234.5q0 -59 20.5 -105t52 -76.5t84.5 -55t103 -39t122 -30.5q90 -19 154.5 -39t125.5 -50.5t98 -69t59.5 -94t22.5 -126.5q0 -197 -151 -313t-395 -116z
" />
    <glyph glyph-name="Zacute.loclPLK" horiz-adv-x="1281" 
d="M710 1593l178 276h82l-191 -276h-69zM39 0l11 67l1131 1336h-896l13 72h992l-12 -67l-1131 -1336h924l-13 -72h-1019z" />
    <glyph glyph-name="G.ss01" horiz-adv-x="1465" 
d="M730 -15q-261 0 -417 171t-156 460q0 178 51 336.5t143.5 278t231.5 189.5t306 70q336 0 488 -313l-68 -33q-136 274 -423 274q-120 0 -224.5 -42t-181.5 -117t-132.5 -175t-83.5 -218t-28 -244q0 -259 136.5 -412t361.5 -153q218 0 357.5 136.5t184.5 372.5l16 90h-464
l13 72h538l-25 -145q-51 -291 -210 -444.5t-414 -153.5z" />
    <glyph glyph-name="uni01F4.ss01" horiz-adv-x="1465" 
d="M825 1593l225 276h84l-238 -276h-71zM730 -15q-261 0 -417 171t-156 460q0 178 51 336.5t143.5 278t231.5 189.5t306 70q336 0 488 -313l-68 -33q-136 274 -423 274q-120 0 -224.5 -42t-181.5 -117t-132.5 -175t-83.5 -218t-28 -244q0 -259 136.5 -412t361.5 -153
q218 0 357.5 136.5t184.5 372.5l16 90h-464l13 72h538l-25 -145q-51 -291 -210 -444.5t-414 -153.5z" />
    <glyph glyph-name="Gbreve.ss01" horiz-adv-x="1465" 
d="M923 1584q-108 0 -171.5 72t-69.5 201h58q6 -105 55.5 -162t129.5 -57q81 0 141.5 57.5t87.5 161.5h64q-30 -129 -108.5 -201t-186.5 -72zM730 -15q-261 0 -417 171t-156 460q0 178 51 336.5t143.5 278t231.5 189.5t306 70q336 0 488 -313l-68 -33q-136 274 -423 274
q-120 0 -224.5 -42t-181.5 -117t-132.5 -175t-83.5 -218t-28 -244q0 -259 136.5 -412t361.5 -153q218 0 357.5 136.5t184.5 372.5l16 90h-464l13 72h538l-25 -145q-51 -291 -210 -444.5t-414 -153.5z" />
    <glyph glyph-name="Gcircumflex.ss01" horiz-adv-x="1465" 
d="M957 1802l-225 -209h-82l277 266h72l186 -266h-72zM841 728h538l-25 -145q-51 -291 -210 -444.5t-414 -153.5q-261 0 -417 171t-156 460q0 178 51 336.5t143.5 278t231.5 189.5t306 70q336 0 488 -313l-68 -33q-136 274 -423 274q-120 0 -224.5 -42t-181.5 -117
t-132.5 -175t-83.5 -218t-28 -244q0 -259 136.5 -412t361.5 -153q218 0 357.5 136.5t184.5 372.5l16 90h-464z" />
    <glyph glyph-name="uni0122.ss01" horiz-adv-x="1465" 
d="M841 728h538l-25 -145q-51 -291 -210 -444.5t-414 -153.5q-261 0 -417 171t-156 460q0 178 51 336.5t143.5 278t231.5 189.5t306 70q336 0 488 -313l-68 -33q-136 274 -423 274q-120 0 -224.5 -42t-181.5 -117t-132.5 -175t-83.5 -218t-28 -244q0 -259 136.5 -412
t361.5 -153q218 0 357.5 136.5t184.5 372.5l16 90h-464zM640 -229l26 142h97l-27 -146q-12 -69 -40 -105t-88 -70l-25 39q52 29 73 55t32 83z" />
    <glyph glyph-name="Gdotaccent.ss01" horiz-adv-x="1465" 
d="M885 1636l29 168h80l-29 -168h-80zM730 -15q-261 0 -417 171t-156 460q0 178 51 336.5t143.5 278t231.5 189.5t306 70q336 0 488 -313l-68 -33q-136 274 -423 274q-120 0 -224.5 -42t-181.5 -117t-132.5 -175t-83.5 -218t-28 -244q0 -259 136.5 -412t361.5 -153
q218 0 357.5 136.5t184.5 372.5l16 90h-464l13 72h538l-25 -145q-51 -291 -210 -444.5t-414 -153.5z" />
    <glyph glyph-name="j.calt" horiz-adv-x="440" 
d="M317 1307l29 168h82l-30 -168h-81zM-89 -370q-52 0 -106 19l25 63q36 -14 78 -14q130 0 163 179l205 1172h72l-210 -1189q-41 -230 -227 -230z" />
    <glyph glyph-name="uni0237.calt" horiz-adv-x="440" 
d="M-85 -370q-51 0 -105 19l24 63q36 -14 78 -14q130 0 163 179l206 1172h71l-210 -1189q-41 -230 -227 -230z" />
    <glyph glyph-name="jcircumflex.calt" horiz-adv-x="440" 
d="M616 1236h-72l-155 208l-226 -208h-81l275 264h74zM75 -123l206 1172h71l-210 -1189q-41 -230 -227 -230q-51 0 -105 19l24 63q36 -14 78 -14q130 0 163 179z" />
    <glyph glyph-name="i.latn_TRK" horiz-adv-x="443" 
d="M319 1307l30 168h80l-30 -168h-80zM92 0l186 1049h71l-185 -1049h-72z" />
    <glyph glyph-name="cacute.loclPLK" horiz-adv-x="1046" 
d="M571 1238l179 275h81l-190 -275h-70zM513 -14q-185 0 -299.5 125t-114.5 335q0 123 37 235t102.5 196.5t164.5 135t215 50.5q129 0 220 -56.5t137 -161.5l-66 -30q-37 86 -112.5 132.5t-180.5 46.5q-100 0 -184.5 -45.5t-139.5 -121.5t-86 -174t-31 -203
q0 -180 93.5 -287.5t245.5 -107.5q99 0 183.5 50.5t143.5 150.5l61 -37q-141 -233 -389 -233z" />
    <glyph glyph-name="nacute.loclPLK" horiz-adv-x="1147" 
d="M885 1513l-191 -275h-69l178 275h82zM703 1063q138 0 224.5 -75t86.5 -200q0 -31 -6 -67l-126 -721h-72l125 711q7 42 7 63q0 102 -67.5 162t-181.5 60q-163 0 -275.5 -101.5t-137.5 -242.5l-116 -652h-72l184 1049h72l-30 -168q61 84 163.5 133t221.5 49z" />
    <glyph glyph-name="oacute.loclPLK" horiz-adv-x="1140" 
d="M568 1238l178 275h82l-190 -275h-70zM515 -15q-188 0 -302.5 125.5t-114.5 335.5q0 123 37.5 234.5t104.5 196.5t167.5 135.5t218.5 50.5q188 0 302 -125.5t114 -335.5q0 -165 -63 -304.5t-185 -226t-279 -86.5zM517 54q102 0 188 45.5t143 121.5t88.5 174t31.5 203
q0 181 -94 288.5t-250 107.5q-102 0 -188.5 -45.5t-142.5 -121.5t-87.5 -173.5t-31.5 -202.5q0 -182 93.5 -289.5t249.5 -107.5z" />
    <glyph glyph-name="sacute.loclPLK" horiz-adv-x="965" 
d="M489 1232l179 275h82l-191 -275h-70zM436 -14q-145 0 -248 60.5t-144 168.5l68 30q33 -88 119.5 -139t207.5 -51q141 0 232 65t91 175q0 91 -66.5 134.5t-213.5 71.5q-153 30 -235 94.5t-82 180.5q0 134 102 210.5t260 76.5q131 0 224.5 -54t138.5 -146l-65 -33
q-37 75 -113.5 119t-186.5 44q-124 0 -205 -56.5t-81 -155.5q0 -85 68 -136t201 -77q82 -16 136.5 -34.5t101.5 -48.5t69.5 -76.5t22.5 -111.5q0 -142 -113.5 -226.5t-288.5 -84.5z" />
    <glyph glyph-name="zacute.loclPLK" horiz-adv-x="1038" 
d="M543 1238l178 275h82l-191 -275h-69zM49 0l11 61l781 921h-616l13 67h709l-11 -62l-780 -920h663l-11 -67h-759z" />
    <glyph glyph-name="germandbls.sc" horiz-adv-x="1160" 
d="M1091 1125l-11 -60l-380 -397q137 -7 222.5 -92t85.5 -221q0 -164 -110 -264.5t-293 -100.5q-84 0 -171 20l20 69q80 -22 151 -22q150 0 239.5 83t89.5 218q0 112 -70.5 180t-187.5 68q-19 0 -29 -5l-45 56l383 401h-373q-131 0 -211.5 -71.5t-105.5 -210.5l-137 -776
h-74l139 788q29 166 127.5 251.5t260.5 85.5h480z" />
    <glyph glyph-name="a.ss02" horiz-adv-x="1206" 
d="M1042 1049h72l-184 -1049h-72l34 191q-64 -96 -163.5 -150.5t-216.5 -54.5q-185 0 -299 124.5t-114 341.5q0 165 62.5 303.5t181.5 223t271 84.5q150 0 250.5 -75.5t131.5 -203.5zM953 552q21 202 -66 322t-264 120q-132 0 -236 -75t-158.5 -197.5t-54.5 -266.5
q0 -184 95.5 -292t250.5 -108q179 0 295 139.5t138 357.5z" />
    <glyph glyph-name="aacute.ss02" horiz-adv-x="1206" 
d="M888 1513l-238 -275h-71l224 275h85zM1042 1049h72l-184 -1049h-72l34 191q-64 -96 -163.5 -150.5t-216.5 -54.5q-185 0 -299 124.5t-114 341.5q0 165 62.5 303.5t181.5 223t271 84.5q150 0 250.5 -75.5t131.5 -203.5zM953 552q21 202 -66 322t-264 120q-132 0 -236 -75
t-158.5 -197.5t-54.5 -266.5q0 -184 95.5 -292t250.5 -108q179 0 295 139.5t138 357.5z" />
    <glyph glyph-name="abreve.ss02" horiz-adv-x="1206" 
d="M681 1228q-108 0 -171.5 72t-69.5 200h59q6 -105 55 -161t129 -56q81 0 141.5 56.5t87.5 160.5h64q-30 -128 -108.5 -200t-186.5 -72zM1042 1049h72l-184 -1049h-72l34 191q-64 -96 -163.5 -150.5t-216.5 -54.5q-185 0 -299 124.5t-114 341.5q0 165 62.5 303.5t181.5 223
t271 84.5q150 0 250.5 -75.5t131.5 -203.5zM953 552q21 202 -66 322t-264 120q-132 0 -236 -75t-158.5 -197.5t-54.5 -266.5q0 -184 95.5 -292t250.5 -108q179 0 295 139.5t138 357.5z" />
    <glyph glyph-name="acircumflex.ss02" horiz-adv-x="1206" 
d="M701 1444l-226 -208h-81l276 264h73l186 -264h-73zM1042 1049h72l-184 -1049h-72l34 191q-64 -96 -163.5 -150.5t-216.5 -54.5q-185 0 -299 124.5t-114 341.5q0 165 62.5 303.5t181.5 223t271 84.5q150 0 250.5 -75.5t131.5 -203.5zM953 552q21 202 -66 322t-264 120
q-132 0 -236 -75t-158.5 -197.5t-54.5 -266.5q0 -184 95.5 -292t250.5 -108q179 0 295 139.5t138 357.5z" />
    <glyph glyph-name="adieresis.ss02" horiz-adv-x="1206" 
d="M570 1475l-28 -164h-80l28 164h80zM915 1475l-28 -164h-80l29 164h79zM1042 1049h72l-184 -1049h-72l34 191q-64 -96 -163.5 -150.5t-216.5 -54.5q-185 0 -299 124.5t-114 341.5q0 165 62.5 303.5t181.5 223t271 84.5q150 0 250.5 -75.5t131.5 -203.5zM953 552
q21 202 -66 322t-264 120q-132 0 -236 -75t-158.5 -197.5t-54.5 -266.5q0 -184 95.5 -292t250.5 -108q179 0 295 139.5t138 357.5z" />
    <glyph glyph-name="agrave.ss02" horiz-adv-x="1206" 
d="M699 1238h-69l-238 275h84zM1042 1049h72l-184 -1049h-72l34 191q-64 -96 -163.5 -150.5t-216.5 -54.5q-185 0 -299 124.5t-114 341.5q0 165 62.5 303.5t181.5 223t271 84.5q150 0 250.5 -75.5t131.5 -203.5zM953 552q21 202 -66 322t-264 120q-132 0 -236 -75
t-158.5 -197.5t-54.5 -266.5q0 -184 95.5 -292t250.5 -108q179 0 295 139.5t138 357.5z" />
    <glyph glyph-name="amacron.ss02" horiz-adv-x="1206" 
d="M946 1359l-10 -63h-529l11 63h528zM1042 1049h72l-184 -1049h-72l34 191q-64 -96 -163.5 -150.5t-216.5 -54.5q-185 0 -299 124.5t-114 341.5q0 165 62.5 303.5t181.5 223t271 84.5q150 0 250.5 -75.5t131.5 -203.5zM953 552q21 202 -66 322t-264 120q-132 0 -236 -75
t-158.5 -197.5t-54.5 -266.5q0 -184 95.5 -292t250.5 -108q179 0 295 139.5t138 357.5z" />
    <glyph glyph-name="aogonek.ss02" horiz-adv-x="1206" 
d="M915 0q-126 -57 -189.5 -122t-63.5 -130q0 -46 29 -74.5t78 -28.5q60 0 113 45l29 -49q-73 -55 -145 -55q-76 0 -123 42.5t-47 110.5q0 80 66 147t198 127l32 178q-64 -96 -163.5 -150.5t-216.5 -54.5q-185 0 -299 124.5t-114 341.5q0 165 62.5 303.5t181.5 223t271 84.5
q150 0 250.5 -75.5t131.5 -203.5l46 265h72l-184 -1049h-15zM520 55q179 0 295 139.5t138 357.5q21 202 -66 322t-264 120q-132 0 -236 -75t-158.5 -197.5t-54.5 -266.5q0 -184 95.5 -292t250.5 -108z" />
    <glyph glyph-name="aring.ss02" horiz-adv-x="1206" 
d="M660 1218q-80 0 -129.5 49.5t-49.5 125.5q0 89 58.5 146.5t145.5 57.5q80 0 129.5 -49.5t49.5 -124.5q0 -89 -59 -147t-145 -58zM683 1543q-61 0 -103 -41t-42 -104q0 -56 34 -91t90 -35q61 0 103 42t42 105q0 55 -34 89.5t-90 34.5zM1042 1049h72l-184 -1049h-72l34 191
q-64 -96 -163.5 -150.5t-216.5 -54.5q-185 0 -299 124.5t-114 341.5q0 165 62.5 303.5t181.5 223t271 84.5q150 0 250.5 -75.5t131.5 -203.5zM953 552q21 202 -66 322t-264 120q-132 0 -236 -75t-158.5 -197.5t-54.5 -266.5q0 -184 95.5 -292t250.5 -108q179 0 295 139.5
t138 357.5z" />
    <glyph glyph-name="aringacute.ss02" horiz-adv-x="1206" 
d="M939 1945l-238 -276h-71l224 276h85zM660 1218q-80 0 -129.5 49.5t-49.5 125.5q0 89 58.5 146.5t145.5 57.5q80 0 129.5 -49.5t49.5 -124.5q0 -89 -59 -147t-145 -58zM683 1543q-61 0 -103 -41t-42 -104q0 -56 34 -91t90 -35q61 0 103 42t42 105q0 55 -34 89.5t-90 34.5z
M1042 1049h72l-184 -1049h-72l34 191q-64 -96 -163.5 -150.5t-216.5 -54.5q-185 0 -299 124.5t-114 341.5q0 165 62.5 303.5t181.5 223t271 84.5q150 0 250.5 -75.5t131.5 -203.5zM953 552q21 202 -66 322t-264 120q-132 0 -236 -75t-158.5 -197.5t-54.5 -266.5
q0 -184 95.5 -292t250.5 -108q179 0 295 139.5t138 357.5z" />
    <glyph glyph-name="atilde.ss02" horiz-adv-x="1206" 
d="M539 1383q-80 0 -158 -108l-48 37q101 136 208 136q66 0 147 -58q71 -52 121 -52q76 0 154 109l48 -37q-102 -136 -205 -136q-65 0 -148 59q-70 50 -119 50zM1042 1049h72l-184 -1049h-72l34 191q-64 -96 -163.5 -150.5t-216.5 -54.5q-185 0 -299 124.5t-114 341.5
q0 165 62.5 303.5t181.5 223t271 84.5q150 0 250.5 -75.5t131.5 -203.5zM953 552q21 202 -66 322t-264 120q-132 0 -236 -75t-158.5 -197.5t-54.5 -266.5q0 -184 95.5 -292t250.5 -108q179 0 295 139.5t138 357.5z" />
    <glyph glyph-name="germandbls.ss03" horiz-adv-x="1082" 
d="M600 586q152 0 245 -94.5t93 -258.5q0 -234 -147 -395t-432 -212l-14 65q255 44 387.5 189t132.5 351q0 138 -74 215.5t-198 77.5q-26 0 -50 -8l-47 67l344 398h-503l-173 -981h-72l216 1225q22 127 97 195.5t186 68.5q59 0 120 -22l-27 -60q-45 13 -92 13
q-85 0 -140.5 -54t-73.5 -155l-29 -162h591l-10 -62l-347 -402q5 1 17 1z" />
    <glyph glyph-name="a.sc" horiz-adv-x="1117" 
d="M889 0l-82 345h-560l-198 -345h-84l648 1125h82l272 -1125h-78zM286 413h505l-149 622z" />
    <glyph glyph-name="aacute.sc" horiz-adv-x="1117" 
d="M882 1513l-238 -275h-71l225 275h84zM889 0l-82 345h-560l-198 -345h-84l648 1125h82l272 -1125h-78zM286 413h505l-149 622z" />
    <glyph glyph-name="abreve.sc" horiz-adv-x="1117" 
d="M672 1228q-109 0 -172 72t-70 200h59q6 -105 55 -161t129 -56q82 0 142.5 57t86.5 160h65q-30 -128 -108.5 -200t-186.5 -72zM613 1125h82l272 -1125h-78l-82 345h-560l-198 -345h-84zM286 413h505l-149 622z" />
    <glyph glyph-name="acircumflex.sc" horiz-adv-x="1117" 
d="M712 1444l-227 -208h-81l276 264h74l185 -264h-73zM889 0l-82 345h-560l-198 -345h-84l648 1125h82l272 -1125h-78zM286 413h505l-149 622z" />
    <glyph glyph-name="adieresis.sc" horiz-adv-x="1117" 
d="M582 1475l-29 -164h-80l29 164h80zM927 1475l-29 -164h-80l29 164h80zM889 0l-82 345h-560l-198 -345h-84l648 1125h82l272 -1125h-78zM286 413h505l-149 622z" />
    <glyph glyph-name="agrave.sc" horiz-adv-x="1117" 
d="M728 1238h-70l-236 275h83zM889 0l-82 345h-560l-198 -345h-84l648 1125h82l272 -1125h-78zM286 413h505l-149 622z" />
    <glyph glyph-name="amacron.sc" horiz-adv-x="1117" 
d="M965 1403l-12 -63h-529l11 63h530zM889 0l-82 345h-560l-198 -345h-84l648 1125h82l272 -1125h-78zM286 413h505l-149 622z" />
    <glyph glyph-name="aogonek.sc" horiz-adv-x="1117" 
d="M814 -355q60 0 113 45l29 -49q-73 -55 -145 -55q-76 0 -123 42.5t-47 110.5q0 149 247 266l-81 340h-560l-198 -345h-84l648 1125h82l272 -1125h-6q-126 -57 -190 -122t-64 -130q0 -46 29 -74.5t78 -28.5zM286 413h505l-149 622z" />
    <glyph glyph-name="aring.sc" horiz-adv-x="1117" 
d="M675 1218q-80 0 -129.5 49.5t-49.5 125.5q0 89 58 146.5t145 57.5q80 0 130 -49.5t50 -124.5q0 -89 -59 -147t-145 -58zM697 1543q-61 0 -103 -41t-42 -104q0 -56 34 -91t90 -35q61 0 103 42t42 105q0 55 -34 89.5t-90 34.5zM889 0l-82 345h-560l-198 -345h-84l648 1125
h82l272 -1125h-78zM286 413h505l-149 622z" />
    <glyph glyph-name="aringacute.sc" horiz-adv-x="1117" 
d="M921 1741l-238 -277h-71l225 277h84zM889 0l-82 345h-560l-198 -345h-84l633 1100q-36 17 -56.5 50.5t-20.5 77.5q0 72 48.5 120.5t119.5 48.5q65 0 105.5 -40t40.5 -104q0 -62 -36.5 -106.5t-93.5 -56.5l262 -1090h-78zM570 1232q0 -44 26.5 -71.5t71.5 -27.5
q50 0 83.5 33t33.5 84q0 46 -26.5 73t-70.5 27q-50 0 -84 -33t-34 -85zM286 413h505l-149 622z" />
    <glyph glyph-name="atilde.sc" horiz-adv-x="1117" 
d="M975 1447l48 -37q-102 -136 -205 -136q-41 0 -74 15t-73 44q-70 50 -120 50q-80 0 -158 -108l-48 37q101 136 208 136q66 0 147 -58q71 -52 121 -52q76 0 154 109zM613 1125h82l272 -1125h-78l-82 345h-560l-198 -345h-84zM286 413h505l-149 622z" />
    <glyph glyph-name="ae.sc" horiz-adv-x="1705" 
d="M1673 1058h-655l-79 -454h602l-12 -67h-602l-83 -469h659l-11 -68h-733l61 346h-472l-291 -346h-92l948 1125h771zM831 414l114 644l-541 -644h427z" />
    <glyph glyph-name="aeacute.sc" horiz-adv-x="1705" 
d="M1502 1513l-237 -275h-71l224 275h84zM1673 1058h-655l-79 -454h602l-12 -67h-602l-83 -469h659l-11 -68h-733l61 346h-472l-291 -346h-92l948 1125h771zM831 414l114 644l-541 -644h427z" />
    <glyph glyph-name="b.sc" horiz-adv-x="1132" 
d="M815 577q71 -23 117 -88t46 -154q0 -147 -108 -241t-276 -94h-498l198 1125h464q128 0 206 -69t78 -179q0 -102 -67 -188t-160 -112zM357 1059l-79 -449h397q122 0 207 74t85 183q0 87 -59.5 139.5t-159.5 52.5h-391zM595 69q136 0 221 75.5t85 194.5q0 94 -61.5 149.5
t-157.5 55.5h-416l-84 -475h413z" />
    <glyph glyph-name="c.sc" horiz-adv-x="1178" 
d="M587 -12q-212 0 -341.5 133.5t-129.5 357.5q0 134 41 253.5t115 210t185.5 143.5t245.5 53q153 0 260.5 -72t160.5 -204l-65 -32q-95 238 -358 238q-155 0 -273 -82.5t-177.5 -215t-59.5 -289.5q0 -195 110.5 -310t289.5 -115q132 0 227.5 61t171.5 180l64 -39
q-86 -134 -198.5 -202.5t-268.5 -68.5z" />
    <glyph glyph-name="cacute.sc" horiz-adv-x="1178" 
d="M631 1238l224 275h84l-238 -275h-70zM587 -12q-212 0 -341.5 133.5t-129.5 357.5q0 134 41 253.5t115 210t185.5 143.5t245.5 53q153 0 260.5 -72t160.5 -204l-65 -32q-95 238 -358 238q-155 0 -273 -82.5t-177.5 -215t-59.5 -289.5q0 -195 110.5 -310t289.5 -115
q132 0 227.5 61t171.5 180l64 -39q-86 -134 -198.5 -202.5t-268.5 -68.5z" />
    <glyph glyph-name="ccaron.sc" horiz-adv-x="1178" 
d="M757 1236h-74l-185 264h71l156 -208l226 208h81zM701 1069q-155 0 -273 -82.5t-177.5 -215t-59.5 -289.5q0 -195 110.5 -310t289.5 -115q132 0 227.5 61t171.5 180l64 -39q-86 -134 -198.5 -202.5t-268.5 -68.5q-212 0 -341.5 133.5t-129.5 357.5q0 134 41 253.5t115 210
t185.5 143.5t245.5 53q153 0 260.5 -72t160.5 -204l-65 -32q-95 238 -358 238z" />
    <glyph glyph-name="ccedilla.sc" horiz-adv-x="1178" 
d="M701 1069q-155 0 -273 -82.5t-177.5 -215t-59.5 -289.5q0 -195 110.5 -310t289.5 -115q132 0 227.5 61t171.5 180l64 -39q-82 -127 -187 -195t-249 -75l-120 -281h-67l120 281q-197 11 -316 143.5t-119 346.5q0 134 41 253.5t115 210t185.5 143.5t245.5 53
q153 0 260.5 -72t160.5 -204l-65 -32q-95 238 -358 238z" />
    <glyph glyph-name="ccircumflex.sc" horiz-adv-x="1178" 
d="M768 1444l-226 -208h-81l275 264h74l185 -264h-72zM701 1069q-155 0 -273 -82.5t-177.5 -215t-59.5 -289.5q0 -195 110.5 -310t289.5 -115q132 0 227.5 61t171.5 180l64 -39q-86 -134 -198.5 -202.5t-268.5 -68.5q-212 0 -341.5 133.5t-129.5 357.5q0 134 41 253.5
t115 210t185.5 143.5t245.5 53q153 0 260.5 -72t160.5 -204l-65 -32q-95 238 -358 238z" />
    <glyph glyph-name="cdotaccent.sc" horiz-adv-x="1178" 
d="M700 1307l30 168h81l-30 -168h-81zM587 -12q-212 0 -341.5 133.5t-129.5 357.5q0 134 41 253.5t115 210t185.5 143.5t245.5 53q153 0 260.5 -72t160.5 -204l-65 -32q-95 238 -358 238q-155 0 -273 -82.5t-177.5 -215t-59.5 -289.5q0 -195 110.5 -310t289.5 -115
q132 0 227.5 61t171.5 180l64 -39q-86 -134 -198.5 -202.5t-268.5 -68.5z" />
    <glyph glyph-name="d.sc" horiz-adv-x="1199" 
d="M621 1125q219 0 348 -126.5t129 -348.5q0 -179 -69.5 -325.5t-205 -235.5t-314.5 -89h-413l199 1125h326zM511 68q118 0 215.5 47t161.5 127t99 184.5t35 220.5q0 192 -109.5 301.5t-290.5 109.5h-266l-174 -990h329z" />
    <glyph glyph-name="eth.sc" horiz-adv-x="1178" 
d="M600 1125q219 0 348 -126.5t129 -348.5q0 -179 -69.5 -325.5t-205.5 -235.5t-315 -89h-412l93 530h-123l11 65h124l93 530h327zM489 68q118 0 216 47t161.5 127t98.5 184.5t35 220.5q0 192 -109 301.5t-290 109.5h-265l-81 -463h371l-12 -65h-371l-81 -462h327z" />
    <glyph glyph-name="dcaron.sc" horiz-adv-x="1199" 
d="M695 1236h-73l-186 264h72l156 -208l226 208h81zM621 1125q219 0 348 -126.5t129 -348.5q0 -179 -69.5 -325.5t-205 -235.5t-314.5 -89h-413l199 1125h326zM511 68q118 0 215.5 47t161.5 127t99 184.5t35 220.5q0 192 -109.5 301.5t-290.5 109.5h-266l-174 -990h329z" />
    <glyph glyph-name="dcroat.sc" horiz-adv-x="1178" 
d="M600 1125q219 0 348 -126.5t129 -348.5q0 -179 -69.5 -325.5t-205.5 -235.5t-315 -89h-412l93 530h-123l11 65h124l93 530h327zM489 68q118 0 216 47t161.5 127t98.5 184.5t35 220.5q0 192 -109 301.5t-290 109.5h-265l-81 -463h371l-12 -65h-371l-81 -462h327z" />
    <glyph glyph-name="e.sc" horiz-adv-x="1076" 
d="M1043 1058h-687l-80 -454h633l-12 -67h-633l-82 -469h692l-12 -68h-766l199 1125h761z" />
    <glyph glyph-name="eacute.sc" horiz-adv-x="1076" 
d="M906 1513l-237 -275h-71l224 275h84zM1043 1058h-687l-80 -454h633l-12 -67h-633l-82 -469h692l-12 -68h-766l199 1125h761z" />
    </font>
</defs>
</svg>
