<?xml version="1.0" standalone="no"?>
<!DOCTYPE svg PUBLIC "-//W3C//DTD SVG 1.1//EN" "http://www.w3.org/Graphics/SVG/1.1/DTD/svg11.dtd" >
<svg xmlns="http://www.w3.org/2000/svg" xmlns:xlink="http://www.w3.org/1999/xlink" version="1.1">
<metadata>
Created by FontForge 20170731 at Sat Dec  5 06:59:58 2020
 By Aleksey,,,
Copyright (c) 2019 Monotype Imaging Inc. All rights reserved.
</metadata>
<defs>
<font id="Infra-Medium" horiz-adv-x="1228" >
  <font-face 
    font-family="Infra Medium"
    font-weight="500"
    font-stretch="normal"
    units-per-em="2048"
    panose-1="2 11 6 0 0 0 0 2 0 0"
    ascent="1582"
    descent="-466"
    x-height="1075"
    cap-height="1475"
    bbox="-999 -614 2739 2196"
    underline-thickness="200"
    underline-position="-466"
    unicode-range="U+000D-FEFF"
  />
<missing-glyph horiz-adv-x="1208" 
d="M166 0v1475h876v-1475h-876zM359 179h490v1116h-490v-1116z" />
    <glyph glyph-name="fi" unicode="fi" horiz-adv-x="1280" 
d="M580 1305q-75 0 -105 -41t-30 -131v-58h258v-201h-258v-874h-235v874h-157v201h157v96q0 160 95 245.5t249 85.5q86 0 171 -27l-48 -184q-52 14 -97 14zM889 1475h252v-225h-252v225zM897 0v1075h236v-1075h-236z" />
    <glyph glyph-name="fl" unicode="fl" horiz-adv-x="1280" 
d="M580 1305q-75 0 -105 -41t-30 -131v-58h258v-201h-258v-874h-235v874h-157v201h157v96q0 160 95 245.5t249 85.5q86 0 171 -27l-48 -184q-52 14 -97 14zM897 1475h236v-1475h-236v1475z" />
    <glyph glyph-name="f_f" unicode="ff" horiz-adv-x="1437" 
d="M1136 1133v-58h258v-201h-258v-874h-236v874h-455v-874h-235v874h-157v201h157v96q0 160 95 245t249 85q83 0 170 -26l-48 -184q-58 14 -96 14q-76 0 -105.5 -40.5t-29.5 -131.5v-58h455v96q0 160 95 245t250 85q83 0 169 -26l-48 -184q-58 14 -96 14q-75 0 -104.5 -40.5
t-29.5 -131.5z" />
    <glyph glyph-name="f_f_i" unicode="ffi" horiz-adv-x="1970" 
d="M1270 1305q-75 0 -104.5 -40.5t-29.5 -131.5v-58h258v-201h-258v-874h-236v874h-455v-874h-235v874h-157v201h157v96q0 160 95 245t249 85q83 0 170 -26l-48 -184q-58 14 -96 14q-76 0 -105.5 -40.5t-29.5 -131.5v-58h455v96q0 160 95 245t250 85q83 0 169 -26l-48 -184
q-58 14 -96 14zM1579 1475h252v-225h-252v225zM1587 0v1075h236v-1075h-236z" />
    <glyph glyph-name="f_f_l" unicode="ffl" horiz-adv-x="1970" 
d="M1270 1305q-75 0 -104.5 -41t-29.5 -132v-57h258v-201h-258v-874h-236v874h-455v-874h-235v874h-157v201h157v96q0 160 95 245t249 85q83 0 170 -26l-48 -184q-58 14 -96 14q-76 0 -105.5 -41t-29.5 -132v-57h455v96q0 160 95 245t250 85q83 0 169 -26l-48 -184
q-58 14 -96 14zM1587 1475h236v-1475h-236v1475z" />
    <glyph glyph-name=".notdef" horiz-adv-x="1208" 
d="M166 0v1475h876v-1475h-876zM359 179h490v1116h-490v-1116z" />
    <glyph glyph-name=".null" horiz-adv-x="0" 
 />
    <glyph glyph-name="nonmarkingreturn" horiz-adv-x="682" 
 />
    <glyph glyph-name="NULL" horiz-adv-x="0" 
 />
    <glyph glyph-name="NULL" horiz-adv-x="0" 
 />
    <glyph glyph-name="CR" unicode="&#xd;" horiz-adv-x="483" 
 />
    <glyph glyph-name="space" unicode=" " horiz-adv-x="483" 
 />
    <glyph glyph-name="exclam" unicode="!" horiz-adv-x="609" 
d="M233 403l-57 588v484h257v-484l-57 -588h-143zM168 0v274h273v-274h-273z" />
    <glyph glyph-name="quotedbl" unicode="&#x22;" horiz-adv-x="866" 
d="M132 906v569h225v-569h-225zM509 906v569h225v-569h-225z" />
    <glyph glyph-name="numbersign" unicode="#" horiz-adv-x="1581" 
d="M1447 907h-224l-72 -340h225l-42 -200h-224l-77 -367h-231l77 367h-331l-77 -367h-231l76 367h-225l42 200h224l72 340h-224l42 201h223l77 367h231l-77 -367h331l77 367h231l-76 -367h225zM920 567l71 340h-331l-71 -340h331z" />
    <glyph glyph-name="dollar" unicode="$" horiz-adv-x="1343" 
d="M1248 403q0 -179 -123 -292.5t-338 -135.5v-153h-212v154q-333 40 -490 291l189 137q102 -167 301 -204v423q-51 10 -94 21t-90 29t-84 40t-71.5 54t-57 70.5t-36 90t-13.5 112.5q0 168 120 277.5t326 131.5v153h212v-157q149 -20 267 -88.5t189 -177.5l-183 -135
q-87 138 -273 176v-397q77 -13 135 -28.5t122.5 -47.5t106.5 -75t69.5 -112t27.5 -157zM381 1048q0 -131 194 -184v360q-90 -17 -142 -63.5t-52 -112.5zM787 199q98 18 153.5 70t55.5 127q0 79 -54 122t-155 67v-386z" />
    <glyph glyph-name="percent" unicode="%" horiz-adv-x="2002" 
d="M489 673q-164 0 -267 106.5t-103 279.5t103 279.5t267 106.5t267.5 -106.5t103.5 -279.5t-103.5 -279.5t-267.5 -106.5zM450 0l909 1423h206l-910 -1423h-205zM489 847q81 0 130.5 58.5t49.5 153.5q0 96 -49.5 154.5t-130.5 58.5t-130 -58.5t-49 -154.5q0 -95 49 -153.5
t130 -58.5zM1513 -22q-164 0 -266.5 107t-102.5 280t102.5 279.5t266.5 106.5t267.5 -106.5t103.5 -279.5t-103.5 -280t-267.5 -107zM1513 152q82 0 131.5 58.5t49.5 154.5q0 95 -49.5 154t-131.5 59q-81 0 -130 -58.5t-49 -154.5t49 -154.5t130 -58.5z" />
    <glyph glyph-name="ampersand" unicode="&#x26;" horiz-adv-x="1447" 
d="M1401 0h-278l-83 89q-172 -115 -406 -115q-148 0 -263 47.5t-183.5 143.5t-68.5 227q0 241 267 406q-73 83 -115 165.5t-42 176.5q0 158 112.5 259t298.5 101q184 0 294 -100.5t110 -254.5q0 -127 -78.5 -224t-225.5 -178l297 -333q60 94 87 212l218 -56
q-47 -198 -149 -332zM638 1288q-77 0 -120.5 -44.5t-43.5 -116.5q0 -63 30.5 -115t85.5 -107q111 56 160 109.5t49 123.5q0 64 -41.5 107t-119.5 43zM648 185q130 0 239 70l-349 377q-89 -56 -131 -110.5t-42 -126.5q0 -103 80 -156.5t203 -53.5z" />
    <glyph glyph-name="quotesingle" unicode="'" horiz-adv-x="489" 
d="M132 906v569h225v-569h-225z" />
    <glyph glyph-name="parenleft" unicode="(" horiz-adv-x="721" 
d="M499 -341q-411 425 -411 987q0 561 411 986l174 -136q-178 -198 -262 -405t-84 -445t84 -445.5t262 -404.5z" />
    <glyph glyph-name="parenright" unicode=")" horiz-adv-x="721" 
d="M223 -341l-174 137q178 197 262 404.5t84 445.5t-84 445t-262 405l174 136q411 -425 411 -986q0 -562 -411 -987z" />
    <glyph glyph-name="asterisk" unicode="*" horiz-adv-x="748" 
d="M257 844l-151 106l123 169l-179 47l47 175l185 -53v187h186v-187l184 53l46 -175l-179 -47l124 -169l-150 -106l-118 170z" />
    <glyph glyph-name="plus" unicode="+" 
d="M1083 680v-200h-361v-354h-215v354h-361v200h361v348h215v-348h361z" />
    <glyph glyph-name="comma" unicode="," horiz-adv-x="542" 
d="M132 286h279v-296q0 -119 -37.5 -196.5t-126.5 -145.5l-89 97q67 52 89 111.5t22 143.5h-137v286z" />
    <glyph glyph-name="hyphen" unicode="-" horiz-adv-x="819" 
d="M125 480v200h569v-200h-569z" />
    <glyph glyph-name="period" unicode="." horiz-adv-x="542" 
d="M132 0v286h279v-286h-279z" />
    <glyph glyph-name="slash" unicode="/" horiz-adv-x="1007" 
d="M20 -215l755 1823h224l-752 -1823h-227z" />
    <glyph glyph-name="zero" unicode="0" horiz-adv-x="1345" 
d="M673 -29q-181 0 -309 95.5t-190.5 260.5t-62.5 385t62.5 385t190.5 260t309 95q180 0 308.5 -95t191 -260t62.5 -385t-62.5 -385.5t-191 -260.5t-308.5 -95zM673 191q103 0 174.5 69.5t104.5 184.5t33 267q0 113 -19 206.5t-56.5 164t-98 110t-138.5 39.5
q-154 0 -234 -143.5t-80 -376.5q0 -152 33 -267t105 -184.5t176 -69.5z" />
    <glyph glyph-name="one" unicode="1" horiz-adv-x="972" 
d="M743 1423v-1423h-242v1118l-246 -220l-140 161l409 364h219z" />
    <glyph glyph-name="two" unicode="2" horiz-adv-x="1182" 
d="M441 212h637v-212h-984v198l485 461q38 37 52.5 51t47 47.5t46 52t35.5 50.5t31.5 56.5t17 57t7.5 64.5q0 88 -59 142.5t-166 54.5t-177.5 -67.5t-92.5 -193.5l-228 51q39 207 175.5 317t331.5 110q209 0 337 -113t128 -300q0 -66 -17.5 -129.5t-43 -111.5t-68.5 -102
t-78 -89.5t-89 -86.5z" />
    <glyph glyph-name="three" unicode="3" horiz-adv-x="1211" 
d="M883 737q235 -92 235 -340q0 -192 -139 -309t-367 -117q-199 0 -338.5 91.5t-201.5 256.5l213 94q42 -110 123.5 -168t196.5 -58q118 0 189.5 64.5t71.5 166.5q0 100 -65 155.5t-180 55.5h-132v200h114q109 0 168.5 52t59.5 147q0 96 -60 152t-164 56
q-109 0 -181.5 -59.5t-101.5 -167.5l-220 64q49 180 182 279.5t326 99.5q216 0 343.5 -111.5t127.5 -293.5q0 -217 -200 -310z" />
    <glyph glyph-name="four" unicode="4" horiz-adv-x="1238" 
d="M1183 510v-211h-200v-299h-242v299h-671v201l648 923h265v-913h200zM312 510h429v628z" />
    <glyph glyph-name="five" unicode="5" horiz-adv-x="1223" 
d="M659 954q210 0 337 -132t127 -349q0 -225 -143 -363.5t-377 -138.5q-177 0 -314 82t-199 228l209 112q37 -98 115 -151t184 -53q124 0 199.5 79t75.5 206q0 124 -71.5 199.5t-188.5 75.5q-89 0 -157 -37.5t-104 -105.5h-217l96 817h817v-212h-621l-43 -355q121 98 275 98
z" />
    <glyph glyph-name="six" unicode="6" horiz-adv-x="1253" 
d="M682 939q215 0 344 -132t129 -344q0 -139 -57 -249.5t-171.5 -176.5t-269.5 -66q-183 0 -306 89.5t-183 245.5q-57 149 -57 376q0 375 152 572.5t418 197.5q147 0 264.5 -65t193.5 -190l-187 -126q-43 79 -111 122.5t-154 43.5q-80 0 -141.5 -33t-97 -81.5t-58 -114.5
t-30.5 -121t-10 -113q120 165 332 165zM654 181q119 0 189 77.5t70 201.5q0 125 -70 202.5t-189 77.5q-126 0 -199.5 -80.5t-73.5 -199.5q0 -118 73.5 -198.5t199.5 -80.5z" />
    <glyph glyph-name="seven" unicode="7" horiz-adv-x="1112" 
d="M62 1423h998v-200q-172 -199 -276.5 -381.5t-158 -386.5t-61.5 -455h-259q17 366 127 640.5t361 571.5h-731v211z" />
    <glyph glyph-name="eight" unicode="8" horiz-adv-x="1254" 
d="M628 -29q-246 0 -390.5 114t-144.5 305q0 252 256 345q-94 44 -153.5 126.5t-59.5 190.5q0 174 135.5 287t356.5 113q220 0 355 -113t135 -287q0 -108 -59.5 -190.5t-153.5 -126.5q256 -93 256 -345q0 -191 -144 -305t-389 -114zM628 819q114 0 184.5 60.5t70.5 154.5
q0 98 -70 158.5t-185 60.5t-185.5 -60.5t-70.5 -158.5q0 -94 71 -154.5t185 -60.5zM628 171q133 0 211.5 64.5t78.5 170.5q0 107 -78 168.5t-212 61.5q-135 0 -213 -61t-78 -169q0 -106 79 -170.5t212 -64.5z" />
    <glyph glyph-name="nine" unicode="9" horiz-adv-x="1252" 
d="M1084 1127q59 -151 59 -387q0 -192 -41 -340t-114.5 -241t-172.5 -140.5t-220 -47.5q-318 0 -479 270l182 127q45 -86 119.5 -134t171.5 -48q136 0 222.5 119.5t91.5 348.5q-57 -75 -141.5 -117t-186.5 -42q-217 0 -347 130.5t-130 339.5q0 214 133.5 350.5t363.5 136.5
q361 0 489 -325zM600 693q127 0 199.5 78t72.5 197q0 120 -72.5 197.5t-199.5 77.5q-119 0 -189.5 -75.5t-70.5 -199.5t70.5 -199.5t189.5 -75.5z" />
    <glyph glyph-name="colon" unicode=":" horiz-adv-x="542" 
d="M132 790v285h279v-285h-279zM132 0v286h279v-286h-279z" />
    <glyph glyph-name="semicolon" unicode=";" horiz-adv-x="542" 
d="M132 1075h279v-285h-279v285zM132 0v286h279v-296q0 -119 -37.5 -196.5t-126.5 -145.5l-89 97q67 52 89 111.5t22 143.5h-137z" />
    <glyph glyph-name="less" unicode="&#x3c;" 
d="M1083 91l-937 415v227l937 415v-226l-722 -302l722 -303v-226z" />
    <glyph glyph-name="equal" unicode="=" 
d="M146 711v199h937v-199h-937zM146 286v199h937v-199h-937z" />
    <glyph glyph-name="greater" unicode="&#x3e;" 
d="M146 91v226l721 303l-721 302v226l937 -415v-227z" />
    <glyph glyph-name="question" unicode="?" horiz-adv-x="1107" 
d="M378 396v126q0 64 16 115t49 92.5t70 72.5t92 67q85 56 130 111t45 126q0 83 -58.5 130.5t-158.5 47.5q-105 0 -181.5 -56t-114.5 -161l-211 89q62 164 195.5 253t318.5 89q206 0 331.5 -107.5t125.5 -282.5q0 -126 -63 -215t-176 -162q-96 -62 -137.5 -111.5
t-41.5 -127.5v-96h-231zM355 0v268h277v-268h-277z" />
    <glyph glyph-name="at" unicode="@" horiz-adv-x="2097" 
d="M1249 1008h202v-565q0 -167 138 -167q175 0 175 331q0 187 -91.5 342.5t-256 246.5t-368.5 91q-152 0 -285 -55t-227 -151t-148 -232t-54 -293q0 -208 92 -375t255.5 -261t367.5 -94q250 0 434 125l111 -158q-225 -158 -545 -158q-198 0 -369.5 69t-292.5 190.5
t-190.5 292.5t-69.5 369t69.5 370t190.5 293t292 190t368 69q198 0 371 -67.5t293.5 -184t189.5 -276t69 -339.5q0 -261 -104 -396t-287 -135q-103 0 -185 48t-116 127q-33 -70 -107 -114.5t-182 -44.5q-177 0 -295.5 131t-118.5 336q0 204 118 336t293 132q179 0 263 -135
v112zM1016 279q103 0 165.5 76.5t62.5 207.5q0 132 -63 209t-165 77q-101 0 -164.5 -77.5t-63.5 -208.5t63.5 -207.5t164.5 -76.5z" />
    <glyph glyph-name="A" unicode="A" horiz-adv-x="1498" 
d="M1178 0l-130 355h-603l-130 -355h-265l560 1475h277l561 -1475h-270zM523 569h447l-224 610z" />
    <glyph glyph-name="B" unicode="B" horiz-adv-x="1428" 
d="M1066 760q118 -43 180 -132.5t62 -217.5q0 -189 -119 -299.5t-331 -110.5h-692v1475h656q212 0 331.5 -103t119.5 -279q0 -115 -54 -200t-153 -133zM416 1253v-397h374q105 0 167 52.5t62 147.5q0 92 -58.5 144.5t-163.5 52.5h-381zM833 221q103 0 162 57t59 154
q0 99 -62.5 154.5t-164.5 55.5h-411v-421h417z" />
    <glyph glyph-name="C" unicode="C" horiz-adv-x="1477" 
d="M795 -31q-208 0 -366 95.5t-243.5 269.5t-85.5 403t84.5 403t241.5 269.5t365 95.5q194 0 349 -92t245 -264l-206 -111q-72 122 -166 179.5t-218 57.5q-199 0 -319 -146.5t-120 -391.5t121.5 -391t321.5 -146q130 0 220.5 62.5t158.5 197.5l211 -109q-196 -382 -594 -382
z" />
    <glyph glyph-name="D" unicode="D" horiz-adv-x="1509" 
d="M711 1475q321 0 509.5 -199t188.5 -540t-188.5 -538.5t-509.5 -197.5h-545v1475h545zM685 225q218 0 342.5 136t124.5 375t-124.5 376t-342.5 137h-269v-1024h269z" />
    <glyph glyph-name="E" unicode="E" horiz-adv-x="1305" 
d="M166 0v1475h1035v-226h-785v-392h711v-217h-711v-415h795v-225h-1045z" />
    <glyph glyph-name="F" unicode="F" horiz-adv-x="1264" 
d="M1201 1250h-786v-410h681v-219h-681v-621h-249v1475h1035v-225z" />
    <glyph glyph-name="G" unicode="G" horiz-adv-x="1524" 
d="M805 798h590v-798h-217v154q-59 -90 -161 -137.5t-235 -47.5q-306 0 -494 211.5t-188 556.5q0 349 193.5 558.5t513.5 209.5q174 0 320.5 -74t246.5 -220l-195 -132q-68 102 -157 149t-212 47q-202 0 -328 -145t-126 -393q0 -249 124 -393.5t329 -144.5q165 0 267.5 92
t103.5 266v34h-375v207z" />
    <glyph glyph-name="H" unicode="H" horiz-adv-x="1541" 
d="M1125 1475h250v-1475h-250v631h-709v-631h-250v1475h250v-619h709v619z" />
    <glyph glyph-name="I" unicode="I" horiz-adv-x="581" 
d="M166 0v1475h250v-1475h-250z" />
    <glyph glyph-name="J" unicode="J" horiz-adv-x="1141" 
d="M537 -26q-174 0 -289.5 69t-187.5 215l202 120q43 -91 106 -135.5t152 -44.5q107 0 164 71t57 198v1008h250v-1035q0 -215 -121 -340.5t-333 -125.5z" />
    <glyph glyph-name="K" unicode="K" horiz-adv-x="1393" 
d="M1070 0l-416 685l-238 -276v-409h-250v1475h250v-724l614 724h303l-516 -599l549 -876h-296z" />
    <glyph glyph-name="L" unicode="L" horiz-adv-x="1139" 
d="M416 224h690v-224h-940v1475h250v-1251z" />
    <glyph glyph-name="M" unicode="M" horiz-adv-x="1842" 
d="M1676 1475v-1475h-250v1070l-376 -1070h-258l-376 1069v-1069h-250v1475h330l425 -1158l425 1158h330z" />
    <glyph glyph-name="N" unicode="N" horiz-adv-x="1523" 
d="M1108 1475h250v-1475h-299l-643 1099v-1099h-250v1475h293l649 -1105v1105z" />
    <glyph glyph-name="O" unicode="O" horiz-adv-x="1609" 
d="M805 -31q-213 0 -373.5 95.5t-246 269t-85.5 403.5t85.5 403.5t246 269t373.5 95.5q322 0 513 -210t191 -558t-191 -558t-513 -210zM805 200q204 0 326 144.5t122 392.5t-122 393t-326 145t-326.5 -145.5t-122.5 -392.5t122.5 -392t326.5 -145z" />
    <glyph glyph-name="P" unicode="P" horiz-adv-x="1311" 
d="M799 1475q219 0 343 -123t124 -335q0 -210 -124 -333t-343 -123h-383v-561h-250v1475h633zM776 782q111 0 173.5 64.5t62.5 170.5t-62.5 170t-173.5 64h-360v-469h360z" />
    <glyph glyph-name="Q" unicode="Q" horiz-adv-x="1609" 
d="M1509 737q0 -184 -56.5 -333.5t-161.5 -251.5l125 -149l-155 -125l-134 160q-143 -69 -322 -69q-213 0 -373.5 95.5t-246 269t-85.5 403.5t85.5 403.5t246 269t373.5 95.5q322 0 513 -210t191 -558zM805 200q86 0 164 28l-148 176l154 126l155 -186q123 145 123 393
t-122 393t-326 145t-326.5 -145.5t-122.5 -392.5t122.5 -392t326.5 -145z" />
    <glyph glyph-name="R" unicode="R" horiz-adv-x="1332" 
d="M996 0l-297 597h-283v-597h-250v1475h632q211 0 334 -117.5t123 -324.5q0 -164 -79 -271.5t-220 -145.5l321 -616h-281zM416 1251v-434h353q110 0 171 57t61 159q0 101 -61 159.5t-171 58.5h-353z" />
    <glyph glyph-name="S" unicode="S" horiz-adv-x="1381" 
d="M710 -31q-211 0 -371 79t-254 231l188 137q133 -222 439 -222q144 0 231.5 58.5t87.5 153.5q0 33 -11 61t-26.5 48t-45.5 37.5t-55 28.5t-69 22.5t-73 17.5t-80 16q-70 13 -108.5 21t-104 26t-103.5 37.5t-85.5 52.5t-73 72.5t-43.5 97t-18 126.5q0 197 153 316t409 119
q194 0 347 -73.5t238 -208.5l-190 -134q-52 89 -158 140t-239 51q-137 0 -221 -56.5t-84 -146.5q0 -35 12 -63t37.5 -48.5t52.5 -35t71.5 -27t79.5 -19.5t89 -17q72 -13 111 -20.5t107 -26.5t107 -38.5t88.5 -54.5t76.5 -76.5t46 -102.5t19 -135q0 -204 -156 -324t-421 -120
z" />
    <glyph glyph-name="T" unicode="T" horiz-adv-x="1269" 
d="M1228 1475v-226h-468v-1249h-250v1249h-468v226h1186z" />
    <glyph glyph-name="U" unicode="U" horiz-adv-x="1462" 
d="M731 -30q-149 0 -264.5 44.5t-187 123.5t-108 181t-36.5 222v934h250v-914q0 -75 18.5 -137.5t58 -113.5t108 -80t161.5 -29t162 29t108 80t57.5 113.5t18.5 137.5v914h250v-934q0 -120 -36.5 -222t-107.5 -181t-187 -123.5t-265 -44.5z" />
    <glyph glyph-name="V" unicode="V" horiz-adv-x="1434" 
d="M1118 1475h266l-535 -1475h-263l-536 1475h273l397 -1162z" />
    <glyph glyph-name="W" unicode="W" horiz-adv-x="2145" 
d="M1820 1475h265l-446 -1475h-260l-304 1098l-304 -1098h-262l-449 1475h271l313 -1111l303 1111h255l304 -1111z" />
    <glyph glyph-name="X" unicode="X" horiz-adv-x="1433" 
d="M1377 0h-281l-379 579l-379 -579h-283l510 770l-471 705h283l340 -521l340 521h282l-471 -705z" />
    <glyph glyph-name="Y" unicode="Y" horiz-adv-x="1308" 
d="M1009 1475h267l-496 -878v-597h-250v597l-497 878h269l353 -653z" />
    <glyph glyph-name="Z" unicode="Z" horiz-adv-x="1302" 
d="M85 0v209l795 1040h-776v226h1093v-210l-795 -1040h816v-225h-1133z" />
    <glyph glyph-name="bracketleft" unicode="[" horiz-adv-x="790" 
d="M701 1332h-300v-1363h300v-211h-535v1785h535v-211z" />
    <glyph glyph-name="backslash" unicode="\" horiz-adv-x="1007" 
d="M987 -215h-226l-753 1823h224z" />
    <glyph glyph-name="bracketright" unicode="]" horiz-adv-x="790" 
d="M624 1543v-1785h-536v211h301v1363h-301v211h536z" />
    <glyph glyph-name="asciicircum" unicode="^" horiz-adv-x="918" 
d="M874 936h-231l-182 349l-186 -349h-231l300 539h233z" />
    <glyph glyph-name="underscore" unicode="_" horiz-adv-x="1177" 
d="M125 0v201h927v-201h-927z" />
    <glyph glyph-name="grave" unicode="`" horiz-adv-x="614" 
d="M284 1207l-207 316h240l161 -316h-194z" />
    <glyph glyph-name="a" unicode="a" horiz-adv-x="1139" 
d="M553 1101q209 0 328.5 -109t119.5 -323v-669h-232v126q-40 -67 -120.5 -110t-198.5 -43q-160 0 -263.5 90.5t-103.5 245.5q0 341 518 341h164v13q0 119 -59 177.5t-165 58.5q-158 0 -260 -133l-152 138q70 94 180 145.5t244 51.5zM766 403v75h-128q-76 0 -132 -7.5
t-101.5 -25.5t-68.5 -51t-23 -80q0 -76 49 -116t137 -40q117 0 192 78.5t75 166.5z" />
    <glyph glyph-name="b" unicode="b" horiz-adv-x="1262" 
d="M724 1103q200 0 329 -156.5t129 -408.5q0 -249 -131 -407.5t-329 -158.5q-227 0 -343 167v-139h-232v1475h236v-533q117 161 341 161zM660 181q121 0 200 94t79 263t-79 262.5t-200 93.5q-125 0 -205 -97.5t-80 -258.5t80 -259t205 -98z" />
    <glyph glyph-name="c" unicode="c" horiz-adv-x="1123" 
d="M612 -28q-239 0 -385 154.5t-146 409.5q0 256 145 410t383 154q308 0 450 -260l-199 -103q-86 154 -244 154q-136 0 -214.5 -96t-78.5 -258q0 -164 80 -260.5t213 -96.5q159 0 244 167l202 -96q-56 -107 -131.5 -171t-150.5 -86t-168 -22z" />
    <glyph glyph-name="d" unicode="d" horiz-adv-x="1265" 
d="M882 1475h235v-1475h-231v140q-46 -71 -134 -119.5t-207 -48.5q-199 0 -331.5 158t-132.5 408q0 249 132.5 407t331.5 158q117 0 203 -47t134 -118v537zM604 181q125 0 205 97.5t80 259.5q0 161 -80.5 258.5t-204.5 97.5q-122 0 -201.5 -94.5t-79.5 -261.5
q0 -168 79.5 -262.5t201.5 -94.5z" />
    <glyph glyph-name="e" unicode="e" horiz-adv-x="1185" 
d="M326 464q14 -137 89.5 -215t212.5 -78q84 0 150 31t122 109l170 -120q-157 -219 -452 -219q-235 0 -386 154t-151 404q0 258 144.5 415.5t371.5 157.5q232 0 372.5 -159t140.5 -418v-62h-784zM596 904q-99 0 -170 -66t-94 -190h530q-23 122 -94 189t-172 67z" />
    <glyph glyph-name="f" unicode="f" horiz-adv-x="748" 
d="M445 1133v-58h258v-201h-258v-874h-235v874h-157v201h157v96q0 160 95 245.5t249 85.5q86 0 171 -27l-48 -184q-52 14 -97 14q-75 0 -105 -41t-30 -131z" />
    <glyph glyph-name="g" unicode="g" horiz-adv-x="1257" 
d="M879 1075h231v-972q0 -225 -144.5 -357t-395.5 -132q-287 0 -461 177l137 161q129 -135 326 -135q145 0 223.5 80.5t78.5 202.5v80q-109 -160 -313 -160q-214 0 -347 149t-133 392q0 244 133 393t346 149q113 0 193.5 -46.5t125.5 -115.5v134zM603 227q122 0 200.5 86.5
t78.5 247.5t-78.5 248t-200.5 87q-125 0 -202.5 -90.5t-77.5 -244.5q0 -153 77.5 -243.5t202.5 -90.5z" />
    <glyph glyph-name="h" unicode="h" horiz-adv-x="1214" 
d="M713 1103q160 0 261.5 -98t101.5 -275v-730h-235v673q0 108 -53 164.5t-146 56.5q-119 0 -189 -80.5t-70 -188.5v-625h-236v1475h236v-527q37 61 121 108t209 47z" />
    <glyph glyph-name="i" unicode="i" horiz-adv-x="530" 
d="M139 1250v225h252v-225h-252zM147 0v1075h236v-1075h-236z" />
    <glyph glyph-name="j" unicode="j" horiz-adv-x="530" 
d="M139 1250v225h252v-225h-252zM70 -380q-83 0 -167 28l49 190q55 -14 91 -14q58 0 81 31t23 108v1112h236v-1153q0 -156 -75.5 -229t-237.5 -73z" />
    <glyph glyph-name="k" unicode="k" horiz-adv-x="1152" 
d="M840 0l-312 462l-145 -163v-299h-236v1475h236v-869l411 469h282l-396 -443l432 -632h-272z" />
    <glyph glyph-name="l" unicode="l" horiz-adv-x="530" 
d="M147 0v1475h236v-1475h-236z" />
    <glyph glyph-name="m" unicode="m" horiz-adv-x="1804" 
d="M1324 1103q152 0 247 -92.5t95 -264.5v-746h-235v683q0 105 -46 160t-129 55q-102 0 -167 -80t-65 -190v-628h-236v683q0 104 -45.5 159.5t-127.5 55.5q-102 0 -167 -80t-65 -190v-628h-236v1075h232v-130q17 27 40.5 51t59.5 50t89 41.5t115 15.5q106 0 186.5 -46
t120.5 -136q122 182 334 182z" />
    <glyph glyph-name="n" unicode="n" horiz-adv-x="1214" 
d="M717 1102q158 0 258.5 -97.5t100.5 -273.5v-731h-235v677q0 108 -53 164.5t-145 56.5q-116 0 -188 -81.5t-72 -188.5v-628h-236v1075h232v-133q35 61 120.5 110.5t217.5 49.5z" />
    <glyph glyph-name="o" unicode="o" horiz-adv-x="1226" 
d="M613 -28q-235 0 -383.5 155t-148.5 411q0 257 148.5 411t383.5 154q234 0 383.5 -154t149.5 -411q0 -256 -149.5 -411t-383.5 -155zM613 182q132 0 211 96.5t79 259.5q0 164 -79 260t-211 96t-210.5 -96t-78.5 -260q0 -163 78.5 -259.5t210.5 -96.5z" />
    <glyph glyph-name="p" unicode="p" horiz-adv-x="1262" 
d="M725 1103q198 0 327.5 -155.5t129.5 -408.5q0 -250 -131 -408t-328 -158q-218 0 -340 163v-494h-236v1433h232v-139q52 74 139.5 120.5t206.5 46.5zM659 182q122 0 201 94.5t79 262.5t-79 261.5t-201 93.5q-125 0 -204.5 -97t-79.5 -258q0 -162 80 -259.5t204 -97.5z" />
    <glyph glyph-name="q" unicode="q" horiz-adv-x="1265" 
d="M886 1075h232v-1433h-235v496q-48 -71 -134.5 -118t-202.5 -47q-200 0 -332.5 158t-132.5 408q0 249 132.5 406.5t332.5 157.5q119 0 206.5 -48t133.5 -118v138zM605 182q125 0 205 97.5t80 259.5q0 161 -80 258t-205 97q-122 0 -201.5 -93.5t-79.5 -261.5t79.5 -262.5
t201.5 -94.5z" />
    <glyph glyph-name="r" unicode="r" horiz-adv-x="833" 
d="M687 1101q58 0 125 -17l-47 -214q-55 11 -98 11q-123 0 -203.5 -100t-80.5 -255v-526h-236v1075h232v-167q21 46 56.5 86.5t103 73.5t148.5 33z" />
    <glyph glyph-name="s" unicode="s" horiz-adv-x="1073" 
d="M553 -31q-334 0 -501 215l162 137q118 -150 343 -150q97 0 153 34.5t56 95.5q0 27 -12.5 48t-32 34.5t-55.5 24.5t-69.5 17.5t-88.5 15.5q-88 14 -154 36.5t-123.5 60.5t-87.5 98.5t-30 141.5q0 153 118.5 240t314.5 87q278 0 435 -184l-155 -138q-107 121 -281 121
q-89 0 -144 -30t-55 -88q0 -33 17 -56t54 -39t78 -25.5t107 -20.5q68 -11 118.5 -23.5t106 -37.5t91 -58.5t58.5 -88t23 -124.5q0 -164 -122.5 -254t-323.5 -90z" />
    <glyph glyph-name="t" unicode="t" horiz-adv-x="807" 
d="M691 198l50 -189q-105 -37 -210 -37q-315 0 -315 294v608h-163v201h163v296h236v-296h265v-201h-265v-550q0 -85 26.5 -116t96.5 -31q49 0 116 21z" />
    <glyph glyph-name="u" unicode="u" horiz-adv-x="1212" 
d="M829 1075h236v-1075h-232v132q-35 -61 -120 -110t-217 -49q-156 0 -256.5 98t-100.5 274v730h236v-677q0 -108 52 -165t142 -57q116 0 188 82t72 189v628z" />
    <glyph glyph-name="v" unicode="v" horiz-adv-x="1104" 
d="M833 1075h251l-412 -1075h-240l-412 1075h259l274 -801z" />
    <glyph glyph-name="w" unicode="w" horiz-adv-x="1722" 
d="M1438 1075h252l-328 -1075h-242l-258 804l-258 -804h-243l-329 1075h256l211 -780l244 780h239l244 -780z" />
    <glyph glyph-name="x" unicode="x" horiz-adv-x="1094" 
d="M1063 0h-269l-247 377l-247 -377h-268l375 557l-352 518h269l224 -346l223 346h268l-351 -518z" />
    <glyph glyph-name="y" unicode="y" horiz-adv-x="1115" 
d="M835 1075h260l-484 -1234q-50 -127 -122 -177t-179 -50q-94 0 -190 28l56 188q72 -18 104 -18q45 0 70 18t43 67l54 144l-427 1034h259l286 -764z" />
    <glyph glyph-name="z" unicode="z" horiz-adv-x="1011" 
d="M74 0v182l554 695h-527v198h818v-184l-555 -692h574v-199h-864z" />
    <glyph glyph-name="braceleft" unicode="{" horiz-adv-x="893" 
d="M571 949q0 -220 -185 -299q185 -78 185 -298v-188q0 -195 181 -195h54v-211h-82q-193 0 -290.5 96.5t-97.5 286.5v164q0 121 -54 182t-173 61v206q120 0 173.5 60t53.5 182v163q0 190 97.5 287t290.5 97h82v-211h-54q-181 0 -181 -194v-189z" />
    <glyph glyph-name="bar" unicode="|" horiz-adv-x="567" 
d="M166 -242v1785h235v-1785h-235z" />
    <glyph glyph-name="braceright" unicode="}" horiz-adv-x="893" 
d="M558 996q0 -122 53.5 -182t173.5 -60v-206q-119 0 -173 -61t-54 -182v-164q0 -190 -97.5 -286.5t-290.5 -96.5h-82v211h54q181 0 181 195v188q0 220 185 298q-185 79 -185 299v189q0 194 -181 194h-54v211h82q193 0 290.5 -97t97.5 -287v-163z" />
    <glyph glyph-name="asciitilde" unicode="~" 
d="M798 433q-43 0 -86.5 11t-70 23t-64.5 32q-96 48 -147 48q-50 0 -89.5 -27t-83.5 -90l-140 125q142 196 314 196q99 0 221 -66q92 -48 147 -48q101 0 173 116l140 -124q-141 -196 -314 -196z" />
    <glyph glyph-name="uni00A0" unicode="&#xa0;" horiz-adv-x="483" 
 />
    <glyph glyph-name="exclamdown" unicode="&#xa1;" horiz-adv-x="609" 
d="M168 1075h273v-273h-273v273zM233 672h143l57 -587v-484h-257v484z" />
    <glyph glyph-name="cent" unicode="&#xa2;" horiz-adv-x="1199" 
d="M1091 426q-123 -230 -362 -255v-171h-187v177q-192 35 -307.5 178t-115.5 356q0 215 116 358t307 177v177h187v-173q245 -29 360 -238l-194 -115q-69 115 -166 141v-654q98 28 166 151zM366 712q0 -116 47 -198t129 -116v627q-83 -35 -129.5 -117.5t-46.5 -195.5z" />
    <glyph glyph-name="sterling" unicode="&#xa3;" horiz-adv-x="1270" 
d="M535 583q0 -108 -28.5 -191t-98.5 -180h750v-212h-1050v204q104 111 140 191t36 201q0 16 -2 44h-180v168h145q-25 113 -25 190q0 202 142.5 328t371.5 126q161 0 274.5 -59t191.5 -183l-186 -126q-43 79 -108 115t-164 36q-123 0 -198.5 -69t-75.5 -180q0 -66 27 -178
h451v-168h-417q4 -36 4 -57z" />
    <glyph glyph-name="currency" unicode="&#xa4;" horiz-adv-x="1337" 
d="M1170 712q0 -157 -93 -287l179 -179l-122 -123l-181 181q-130 -88 -284 -88t-284 88l-181 -181l-123 123l179 179q-93 130 -93 287q0 156 93 286l-179 180l123 122l180 -180q130 88 285 88q154 0 284 -88l181 180l122 -122l-179 -180q93 -130 93 -286zM386 712
q0 -123 83 -208.5t200 -85.5t199.5 86t82.5 208t-82.5 208.5t-199.5 86.5t-200 -86t-83 -209z" />
    <glyph glyph-name="yen" unicode="&#xa5;" horiz-adv-x="1291" 
d="M1241 1423l-399 -646h293v-169h-368v-136h368v-169h-368v-303h-243v303h-367v169h367v136h-367v169h293l-400 646h260l336 -555l334 555h261z" />
    <glyph glyph-name="brokenbar" unicode="&#xa6;" horiz-adv-x="567" 
d="M166 770v773h235v-773h-235zM166 -242v773h235v-773h-235z" />
    <glyph glyph-name="section" unicode="&#xa7;" horiz-adv-x="1275" 
d="M1043 311q99 -89 99 -246q0 -176 -133 -274t-368 -98q-187 0 -329.5 64.5t-229.5 183.5l175 137q60 -85 159.5 -131.5t227.5 -46.5q116 0 183.5 40.5t67.5 113.5q0 31 -10.5 55.5t-34.5 42.5t-47 30t-65.5 23t-71.5 16.5t-82 14.5q-104 18 -181 43.5t-145 68.5t-104 112
t-36 161q0 87 41.5 157t115.5 113q-96 88 -96 242q0 167 133 268t350 101q151 0 279.5 -57.5t208.5 -158.5l-168 -134q-54 67 -137 105t-174 38q-113 0 -179 -39t-66 -112q0 -27 9.5 -49t22 -37.5t39 -29t46 -21.5t59 -17.5t61 -14t68.5 -12.5q45 -8 72 -13t70.5 -15.5
t70.5 -20.5t63.5 -26t60 -34.5t48.5 -45t39 -56.5t23.5 -70t9.5 -86q0 -176 -145 -285zM357 629q0 -31 10.5 -56t35 -43t48 -30t66 -22.5t71.5 -16t81 -14.5q96 -15 157 -30q56 25 89 68.5t33 96.5q0 29 -9.5 51.5t-31.5 39.5t-44 28.5t-60.5 21.5t-67 16t-76.5 14
q-107 18 -169 33q-61 -21 -97 -62t-36 -95z" />
    <glyph glyph-name="dieresis" unicode="&#xa8;" horiz-adv-x="614" 
d="M-11 1256v219h231v-219h-231zM378 1256v219h231v-219h-231z" />
    <glyph glyph-name="copyright" unicode="&#xa9;" horiz-adv-x="1889" 
d="M945 -77q-170 0 -322 63t-260.5 171t-172 259t-63.5 321t63.5 321t172 259t260.5 171t322 63t321.5 -63t260 -171t172 -259t63.5 -321t-63.5 -321t-172 -259t-260 -171t-321.5 -63zM945 95q131 0 247 48.5t199.5 133t132 204.5t48.5 256t-48.5 256t-132 204.5t-199.5 133
t-247 48.5t-247.5 -48.5t-200 -133t-132 -204.5t-48.5 -256t48.5 -256t132 -204.5t200 -133t247.5 -48.5zM951 270q-193 0 -309 127.5t-116 335.5q0 212 116 341t306 129q117 0 212.5 -56t151.5 -161l-151 -87q-81 133 -208 133q-106 0 -171.5 -80.5t-65.5 -218.5
q0 -135 65.5 -213.5t174.5 -78.5q69 0 118 35t87 111l155 -83q-124 -234 -365 -234z" />
    <glyph glyph-name="ordfeminine" unicode="&#xaa;" horiz-adv-x="745" 
d="M358 1489q152 0 234 -70.5t82 -211.5v-435h-185v70q-67 -86 -197 -86q-106 0 -174 59t-68 159q0 222 320 222h113v15q0 125 -139 125q-96 0 -160 -71l-102 111q97 113 276 113zM484 1026v45h-94q-84 0 -126 -19.5t-42 -71.5q0 -43 29 -67t81 -24q64 0 108 42t44 95z" />
    <glyph glyph-name="guillemotleft" unicode="&#xab;" horiz-adv-x="1098" 
d="M421 161l-329 412l329 413l146 -123l-229 -290l229 -289zM844 161l-330 412l330 413l146 -123l-229 -290l229 -289z" />
    <glyph glyph-name="logicalnot" unicode="&#xac;" 
d="M173 677h886v-531h-212v337h-674v194z" />
    <glyph glyph-name="uni00AD" unicode="&#xad;" horiz-adv-x="819" 
d="M125 480v200h569v-200h-569z" />
    <glyph glyph-name="registered" unicode="&#xae;" horiz-adv-x="1048" 
d="M524 1508q128 0 236 -61t171 -167t63 -231t-63 -231t-171.5 -167.5t-235.5 -61.5q-196 0 -333 134.5t-137 325.5t137.5 325t332.5 134zM524 701q141 0 243 103t102 245t-102 244.5t-243 102.5q-142 0 -243.5 -102t-101.5 -245t101.5 -245.5t243.5 -102.5zM728 1137
q0 -45 -23 -81t-62 -55l87 -170h-126l-75 156h-60v-156h-120v451h216q74 0 118.5 -39t44.5 -106zM469 1085h81q56 0 56 50q0 45 -56 45h-81v-95z" />
    <glyph glyph-name="macron" unicode="&#xaf;" horiz-adv-x="614" 
d="M15 1266v161h586v-161h-586z" />
    <glyph glyph-name="degree" unicode="&#xb0;" horiz-adv-x="876" 
d="M438 737q-162 0 -273 110t-111 271t111 271t273 110t273 -110t111 -271t-111 -271t-273 -110zM438 909q84 0 140.5 59.5t56.5 149.5t-56.5 149.5t-140.5 59.5t-140 -60t-56 -149q0 -90 56 -149.5t140 -59.5z" />
    <glyph glyph-name="plusminus" unicode="&#xb1;" 
d="M507 353v313h-354v200h354v338h215v-338h354v-200h-354v-313h-215zM146 200h937v-200h-937v200z" />
    <glyph glyph-name="two.sups" unicode="&#xb2;" horiz-adv-x="786" 
d="M337 938h387v-165h-663v155l317 297q81 75 109.5 117t28.5 94q0 50 -33.5 80.5t-91.5 30.5q-63 0 -102 -42t-53 -114l-181 43q28 136 119 209.5t224 73.5q140 0 227.5 -76.5t87.5 -202.5q0 -83 -42.5 -154t-144.5 -167z" />
    <glyph glyph-name="three.sups" unicode="&#xb3;" horiz-adv-x="841" 
d="M609 1244q150 -65 150 -214q0 -125 -93 -201t-247 -76q-134 0 -230 61.5t-134 170.5l168 71q25 -65 73.5 -100t115.5 -35q68 0 108 35t40 93q0 53 -37.5 83t-99.5 30h-89v153h68q65 0 102 31t37 87q0 52 -35 84t-93 32q-129 0 -167 -137l-171 47q30 122 120.5 189.5
t224.5 67.5q142 0 230 -75t88 -195q0 -138 -129 -202z" />
    <glyph glyph-name="acute" unicode="&#xb4;" horiz-adv-x="614" 
d="M95 1207l161 316h242l-208 -316h-195z" />
    <glyph glyph-name="uni00B5" unicode="&#xb5;" horiz-adv-x="1220" 
d="M838 1075h235v-1075h-235v125q-35 -60 -118 -106t-200 -46q-77 0 -137 30v-402h-236v1474h236v-674q0 -108 52.5 -164.5t142.5 -56.5q116 0 188 82t72 190v623z" />
    <glyph glyph-name="paragraph" unicode="&#xb6;" horiz-adv-x="1200" 
d="M519 0v719h-20q-166 0 -276.5 105.5t-110.5 272.5q0 168 110.5 273t276.5 105h226v-1475h-206zM827 0v1475h207v-1475h-207z" />
    <glyph glyph-name="periodcentered" unicode="&#xb7;" horiz-adv-x="571" 
d="M146 485v286h279v-286h-279z" />
    <glyph glyph-name="cedilla" unicode="&#xb8;" horiz-adv-x="614" 
d="M150 -341l110 348h199l-111 -348h-198z" />
    <glyph glyph-name="one.sups" unicode="&#xb9;" horiz-adv-x="654" 
d="M529 1698v-925h-193v689l-165 -146l-112 121l293 261h177z" />
    <glyph glyph-name="ordmasculine" unicode="&#xba;" horiz-adv-x="811" 
d="M407 755q-159 0 -258.5 101.5t-99.5 266.5q0 166 100 267.5t258 101.5t257.5 -101.5t99.5 -267.5t-99.5 -267t-257.5 -101zM407 916q75 0 119.5 55.5t44.5 151.5t-44.5 151.5t-119.5 55.5t-120 -55.5t-45 -151.5t45 -151.5t120 -55.5z" />
    <glyph glyph-name="guillemotright" unicode="&#xbb;" horiz-adv-x="1098" 
d="M255 161l-146 123l229 289l-229 290l146 123l329 -413zM678 161l-147 123l230 289l-230 290l147 123l329 -413z" />
    <glyph glyph-name="onequarter" unicode="&#xbc;" horiz-adv-x="1891" 
d="M530 550h-193v689l-165 -147l-113 121l293 262h178v-925zM1327 1475h206l-942 -1475h-206zM1861 354v-166h-126v-188h-194v188h-422v160l407 577h209v-571h126zM1304 354h237v349z" />
    <glyph glyph-name="onehalf" unicode="&#xbd;" horiz-adv-x="1953" 
d="M530 550h-193v689l-165 -147l-113 121l293 262h178v-925zM1327 1475h206l-942 -1475h-206zM1504 165h387v-165h-662v155l316 297q81 75 109.5 117t28.5 94q0 50 -33 80.5t-91 30.5q-63 0 -102.5 -42.5t-53.5 -114.5l-180 43q28 136 119 210t224 74q140 0 227 -76t87 -203
q0 -83 -42.5 -154t-143.5 -167z" />
    <glyph glyph-name="threequarters" unicode="&#xbe;" horiz-adv-x="2010" 
d="M759 808q0 -125 -93 -201.5t-247 -76.5q-134 0 -230 62t-134 171l168 71q25 -65 73.5 -100.5t115.5 -35.5q68 0 108 35t40 93q0 53 -37.5 83.5t-99.5 30.5h-89v153h68q65 0 102 30.5t37 86.5q0 53 -35 85t-93 32q-129 0 -167 -137l-171 47q30 122 120.5 189.5t224.5 67.5
q142 0 230 -75t88 -195q0 -138 -129 -202q150 -65 150 -214zM1446 1475h206l-942 -1475h-206zM1979 354v-166h-126v-188h-193v188h-422v160l407 577h208v-571h126zM1423 354h237v347z" />
    <glyph glyph-name="questiondown" unicode="&#xbf;" horiz-adv-x="1107" 
d="M476 807v268h277v-268h-277zM538 -423q-207 0 -332 107.5t-125 283.5q0 86 33.5 158.5t83.5 121.5t123 96q94 60 136 111t42 129v95h231v-125q0 -84 -31 -150t-75.5 -107t-119.5 -90q-86 -56 -131 -111.5t-45 -126.5q0 -83 58.5 -130.5t159.5 -47.5q104 0 180.5 56.5
t114.5 160.5l211 -89q-62 -164 -195.5 -253t-318.5 -89z" />
    <glyph glyph-name="Agrave" unicode="&#xc0;" horiz-adv-x="1498" 
d="M885 1574h-195l-207 314h241zM1178 0l-130 355h-603l-130 -355h-265l560 1475h277l561 -1475h-270zM523 569h447l-224 610z" />
    <glyph glyph-name="Aacute" unicode="&#xc1;" horiz-adv-x="1498" 
d="M1016 1888l-208 -314h-195l161 314h242zM1178 0l-130 355h-603l-130 -355h-265l560 1475h277l561 -1475h-270zM523 569h447l-224 610z" />
    <glyph glyph-name="Acircumflex" unicode="&#xc2;" horiz-adv-x="1498" 
d="M750 1737l-128 -167h-208l224 310h223l223 -310h-208zM1178 0l-130 355h-603l-130 -355h-265l560 1475h277l561 -1475h-270zM523 569h447l-224 610z" />
    <glyph glyph-name="Atilde" unicode="&#xc3;" horiz-adv-x="1498" 
d="M617 1662q-30 0 -57 -19.5t-67 -69.5l-132 117q69 85 128 121.5t126 36.5q77 0 160 -51q60 -38 101 -38q34 0 61 21t67 68l130 -117q-69 -85 -128.5 -121.5t-126.5 -36.5q-74 0 -160 51q-65 38 -102 38zM1178 0l-130 355h-603l-130 -355h-265l560 1475h277l561 -1475
h-270zM523 569h447l-224 610z" />
    <glyph glyph-name="Adieresis" unicode="&#xc4;" horiz-adv-x="1498" 
d="M657 1828v-221h-233v221h233zM1075 1828v-221h-233v221h233zM1178 0l-130 355h-603l-130 -355h-265l560 1475h277l561 -1475h-270zM523 569h447l-224 610z" />
    <glyph glyph-name="Aring" unicode="&#xc5;" horiz-adv-x="1498" 
d="M750 1550q-103 0 -171 67.5t-68 168.5t68 167.5t171 66.5q102 0 169.5 -66.5t67.5 -167.5t-67.5 -168.5t-169.5 -67.5zM750 1885q-42 0 -68 -27t-26 -72t26 -72.5t68 -27.5q41 0 66.5 27.5t25.5 72.5t-25.5 72t-66.5 27zM1178 0l-130 355h-603l-130 -355h-265l560 1475
h277l561 -1475h-270zM523 569h447l-224 610z" />
    <glyph glyph-name="AE" unicode="&#xc6;" horiz-adv-x="2194" 
d="M1343 225h757v-225h-1006v355h-548l-217 -355h-292l919 1475h1134v-226h-747v-392h676v-217h-676v-415zM679 573h415v678z" />
    <glyph glyph-name="Ccedilla" unicode="&#xc7;" horiz-adv-x="1477" 
d="M1389 351q-174 -339 -509 -377l-101 -315h-198l102 317q-268 38 -425.5 242.5t-157.5 518.5q0 229 84.5 403t241.5 269.5t365 95.5q194 0 349 -92t245 -264l-206 -111q-72 122 -166 179.5t-218 57.5q-199 0 -319 -146.5t-120 -391.5t121.5 -391t321.5 -146
q130 0 220.5 62.5t158.5 197.5z" />
    <glyph glyph-name="Egrave" unicode="&#xc8;" horiz-adv-x="1305" 
d="M639 1574l-208 314h242l161 -314h-195zM166 0v1475h1035v-226h-785v-392h711v-217h-711v-415h795v-225h-1045z" />
    <glyph glyph-name="Eacute" unicode="&#xc9;" horiz-adv-x="1305" 
d="M562 1574l160 314h242l-207 -314h-195zM166 0v1475h1035v-226h-785v-392h711v-217h-711v-415h795v-225h-1045z" />
    <glyph glyph-name="Ecircumflex" unicode="&#xca;" horiz-adv-x="1305" 
d="M698 1737l-128 -167h-209l225 310h223l223 -310h-208zM416 225h795v-225h-1045v1475h1035v-226h-785v-392h711v-217h-711v-415z" />
    <glyph glyph-name="Edieresis" unicode="&#xcb;" horiz-adv-x="1305" 
d="M372 1607v221h233v-221h-233zM790 1607v221h233v-221h-233zM166 0v1475h1035v-226h-785v-392h711v-217h-711v-415h795v-225h-1045z" />
    <glyph glyph-name="Igrave" unicode="&#xcc;" horiz-adv-x="581" 
d="M231 1574l-206 314h241l160 -314h-195zM166 0v1475h250v-1475h-250z" />
    <glyph glyph-name="Iacute" unicode="&#xcd;" horiz-adv-x="581" 
d="M155 1574l160 314h242l-208 -314h-194zM166 0v1475h250v-1475h-250z" />
    <glyph glyph-name="Icircumflex" unicode="&#xce;" horiz-adv-x="581" 
d="M402 1880l224 -310h-209l-126 167l-128 -167h-208l224 310h223zM166 0v1475h250v-1475h-250z" />
    <glyph glyph-name="Idieresis" unicode="&#xcf;" horiz-adv-x="581" 
d="M-35 1607v221h234v-221h-234zM383 1607v221h233v-221h-233zM166 0v1475h250v-1475h-250z" />
    <glyph glyph-name="Eth" unicode="&#xd0;" horiz-adv-x="1537" 
d="M739 1475q320 0 509.5 -199.5t189.5 -539.5q0 -341 -189 -538.5t-510 -197.5h-544v637h-153v201h153v637h544zM714 225q218 0 342.5 136t124.5 375t-124.5 376t-342.5 137h-271v-411h349v-201h-349v-412h271z" />
    <glyph glyph-name="Ntilde" unicode="&#xd1;" horiz-adv-x="1522" 
d="M643 1662q-30 0 -57.5 -19.5t-67.5 -69.5l-130 117q68 85 127 121.5t126 36.5q79 0 160 -51q60 -38 100 -38q34 0 61 21t67 68l130 -117q-68 -85 -127.5 -121.5t-127.5 -36.5q-75 0 -159 51q-66 38 -102 38zM1108 1475h250v-1475h-299l-643 1099v-1099h-250v1475h293
l649 -1105v1105z" />
    <glyph glyph-name="Ograve" unicode="&#xd2;" horiz-adv-x="1608" 
d="M745 1572l-206 315h240l161 -315h-195zM805 -31q-213 0 -373.5 95.5t-246 269t-85.5 403.5t85.5 403.5t246 269t373.5 95.5q322 0 513 -210t191 -558t-191 -558t-513 -210zM805 200q204 0 326 144.5t122 392.5t-122 393t-326 145t-326.5 -145.5t-122.5 -392.5t122.5 -392
t326.5 -145z" />
    <glyph glyph-name="Oacute" unicode="&#xd3;" horiz-adv-x="1608" 
d="M669 1572l160 315h241l-207 -315h-194zM805 -31q-213 0 -373.5 95.5t-246 269t-85.5 403.5t85.5 403.5t246 269t373.5 95.5q322 0 513 -210t191 -558t-191 -558t-513 -210zM805 200q204 0 326 144.5t122 392.5t-122 393t-326 145t-326.5 -145.5t-122.5 -392.5t122.5 -392
t326.5 -145z" />
    <glyph glyph-name="Ocircumflex" unicode="&#xd4;" horiz-adv-x="1608" 
d="M805 1736l-128 -167h-209l225 309h223l224 -309h-209zM805 1505q322 0 513 -210t191 -558t-191 -558t-513 -210q-213 0 -373.5 95.5t-246 269t-85.5 403.5t85.5 403.5t246 269t373.5 95.5zM805 200q204 0 326 144.5t122 392.5t-122 393t-326 145t-326.5 -145.5
t-122.5 -392.5t122.5 -392t326.5 -145z" />
    <glyph glyph-name="Otilde" unicode="&#xd5;" horiz-adv-x="1608" 
d="M934 1571q-72 0 -160 52q-65 38 -101 38q-30 0 -58 -19.5t-68 -70.5l-130 118q69 85 128 121.5t126 36.5q75 0 158 -52q62 -38 102 -38q33 0 61 22t66 68l131 -117q-69 -85 -128.5 -122t-126.5 -37zM805 -31q-213 0 -373.5 95.5t-246 269t-85.5 403.5t85.5 403.5t246 269
t373.5 95.5q322 0 513 -210t191 -558t-191 -558t-513 -210zM805 200q204 0 326 144.5t122 392.5t-122 393t-326 145t-326.5 -145.5t-122.5 -392.5t122.5 -392t326.5 -145z" />
    <glyph glyph-name="Odieresis" unicode="&#xd6;" horiz-adv-x="1608" 
d="M478 1606v220h234v-220h-234zM897 1606v220h233v-220h-233zM805 -31q-213 0 -373.5 95.5t-246 269t-85.5 403.5t85.5 403.5t246 269t373.5 95.5q322 0 513 -210t191 -558t-191 -558t-513 -210zM805 200q204 0 326 144.5t122 392.5t-122 393t-326 145t-326.5 -145.5
t-122.5 -392.5t122.5 -392t326.5 -145z" />
    <glyph glyph-name="multiply" unicode="&#xd7;" 
d="M1038 858l-281 -281l281 -283l-142 -142l-282 281l-281 -281l-143 142l282 283l-282 281l143 142l281 -281l282 281z" />
    <glyph glyph-name="Oslash" unicode="&#xd8;" horiz-adv-x="1609" 
d="M1349 1260q160 -205 160 -523q0 -348 -191 -558t-513 -210q-221 0 -383 102l-148 -189l-162 133l152 196q-164 206 -164 526q0 230 85.5 403.5t246 269t373.5 95.5q223 0 388 -104l144 186l163 -132zM805 1275q-204 0 -326.5 -145.5t-122.5 -392.5q0 -195 79 -330
l620 794q-108 74 -250 74zM805 200q204 0 326 144.5t122 392.5q0 194 -75 326l-619 -792q104 -71 246 -71z" />
    <glyph glyph-name="Ugrave" unicode="&#xd9;" horiz-adv-x="1486" 
d="M685 1574l-207 314h241l161 -314h-195zM731 -30q-149 0 -264.5 44.5t-187 123.5t-108 181t-36.5 222v934h250v-914q0 -75 18.5 -137.5t58 -113.5t108 -80t161.5 -29t162 29t108 80t57.5 113.5t18.5 137.5v914h250v-934q0 -120 -36.5 -222t-107.5 -181t-187 -123.5
t-265 -44.5z" />
    <glyph glyph-name="Uacute" unicode="&#xda;" horiz-adv-x="1486" 
d="M608 1574l161 314h241l-207 -314h-195zM731 -30q-149 0 -264.5 44.5t-187 123.5t-108 181t-36.5 222v934h250v-914q0 -75 18.5 -137.5t58 -113.5t108 -80t161.5 -29t162 29t108 80t57.5 113.5t18.5 137.5v914h250v-934q0 -120 -36.5 -222t-107.5 -181t-187 -123.5
t-265 -44.5z" />
    <glyph glyph-name="Ucircumflex" unicode="&#xdb;" horiz-adv-x="1486" 
d="M744 1737l-128 -167h-208l225 310h223l223 -310h-209zM1077 1475h250v-934q0 -120 -36.5 -222t-107.5 -181t-187 -123.5t-265 -44.5t-264.5 44.5t-187 123.5t-108 181t-36.5 222v934h250v-914q0 -75 18.5 -137.5t58 -113.5t108 -80t161.5 -29t162 29t108 80t57.5 113.5
t18.5 137.5v914z" />
    <glyph glyph-name="Udieresis" unicode="&#xdc;" horiz-adv-x="1486" 
d="M418 1607v221h233v-221h-233zM837 1607v221h233v-221h-233zM731 -30q-149 0 -264.5 44.5t-187 123.5t-108 181t-36.5 222v934h250v-914q0 -75 18.5 -137.5t58 -113.5t108 -80t161.5 -29t162 29t108 80t57.5 113.5t18.5 137.5v914h250v-934q0 -120 -36.5 -222t-107.5 -181
t-187 -123.5t-265 -44.5z" />
    <glyph glyph-name="Yacute" unicode="&#xdd;" horiz-adv-x="1307" 
d="M920 1888l-207 -314h-195l161 314h241zM1009 1475h267l-496 -878v-597h-250v597l-497 878h269l353 -653z" />
    <glyph glyph-name="Thorn" unicode="&#xde;" horiz-adv-x="1311" 
d="M799 1214q219 0 343 -122t124 -332q0 -209 -124.5 -334t-342.5 -125h-383v-301h-250v1475h250v-261h383zM776 522q110 0 173 66.5t63 170.5q0 105 -62.5 168t-173.5 63h-360v-468h360z" />
    <glyph glyph-name="germandbls" unicode="&#xdf;" horiz-adv-x="1229" 
d="M888 799q120 -38 190 -141t70 -243q0 -205 -115 -322t-319 -117q-107 0 -217 26l33 197q90 -22 167 -22q100 0 157 66.5t57 185.5q0 120 -63 191.5t-171 71.5h-130v198h109q77 0 124 54t47 142q0 95 -59.5 152.5t-158.5 57.5q-107 0 -170.5 -68t-63.5 -182v-1047h-236
v1078q0 192 131.5 308.5t337.5 116.5q202 0 330 -108.5t128 -281.5q0 -101 -48 -185t-130 -128z" />
    <glyph glyph-name="agrave" unicode="&#xe0;" horiz-adv-x="1139" 
d="M709 1207h-195l-208 316h242zM553 1101q209 0 328.5 -109t119.5 -323v-669h-232v126q-40 -67 -120.5 -110t-198.5 -43q-160 0 -263.5 90.5t-103.5 245.5q0 341 518 341h164v13q0 119 -59 177.5t-165 58.5q-158 0 -260 -133l-152 138q70 94 180 145.5t244 51.5zM766 403
v75h-128q-76 0 -132 -7.5t-101.5 -25.5t-68.5 -51t-23 -80q0 -76 49 -116t137 -40q117 0 192 78.5t75 166.5z" />
    <glyph glyph-name="aacute" unicode="&#xe1;" horiz-adv-x="1139" 
d="M824 1523l-207 -316h-194l161 316h240zM553 1101q209 0 328.5 -109t119.5 -323v-669h-232v126q-40 -67 -120.5 -110t-198.5 -43q-160 0 -263.5 90.5t-103.5 245.5q0 341 518 341h164v13q0 119 -59 177.5t-165 58.5q-158 0 -260 -133l-152 138q70 94 180 145.5t244 51.5z
M766 403v75h-128q-76 0 -132 -7.5t-101.5 -25.5t-68.5 -51t-23 -80q0 -76 49 -116t137 -40q117 0 192 78.5t75 166.5z" />
    <glyph glyph-name="acircumflex" unicode="&#xe2;" horiz-adv-x="1139" 
d="M566 1371l-128 -167h-209l226 310h222l223 -310h-208zM553 1101q209 0 328.5 -109t119.5 -323v-669h-232v126q-40 -67 -120.5 -110t-198.5 -43q-160 0 -263.5 90.5t-103.5 245.5q0 341 518 341h164v13q0 119 -59 177.5t-165 58.5q-158 0 -260 -133l-152 138
q70 94 180 145.5t244 51.5zM766 403v75h-128q-76 0 -132 -7.5t-101.5 -25.5t-68.5 -51t-23 -80q0 -76 49 -116t137 -40q117 0 192 78.5t75 166.5z" />
    <glyph glyph-name="atilde" unicode="&#xe3;" horiz-adv-x="1139" 
d="M433 1319q-30 0 -58 -19.5t-68 -69.5l-130 117q68 85 127.5 121.5t126.5 36.5q75 0 159 -51q60 -38 101 -38q33 0 61 21.5t66 67.5l130 -117q-68 -85 -128 -122t-127 -37q-70 0 -158 52q-66 38 -102 38zM553 1101q209 0 328.5 -109t119.5 -323v-669h-232v126
q-40 -67 -120.5 -110t-198.5 -43q-160 0 -263.5 90.5t-103.5 245.5q0 341 518 341h164v13q0 119 -59 177.5t-165 58.5q-158 0 -260 -133l-152 138q70 94 180 145.5t244 51.5zM766 403v75h-128q-76 0 -132 -7.5t-101.5 -25.5t-68.5 -51t-23 -80q0 -76 49 -116t137 -40
q117 0 192 78.5t75 166.5z" />
    <glyph glyph-name="adieresis" unicode="&#xe4;" horiz-adv-x="1139" 
d="M486 1475v-219h-231v219h231zM877 1475v-219h-233v219h233zM553 1101q209 0 328.5 -109t119.5 -323v-669h-232v126q-40 -67 -120.5 -110t-198.5 -43q-160 0 -263.5 90.5t-103.5 245.5q0 341 518 341h164v13q0 119 -59 177.5t-165 58.5q-158 0 -260 -133l-152 138
q70 94 180 145.5t244 51.5zM766 403v75h-128q-76 0 -132 -7.5t-101.5 -25.5t-68.5 -51t-23 -80q0 -76 49 -116t137 -40q117 0 192 78.5t75 166.5z" />
    <glyph glyph-name="aring" unicode="&#xe5;" horiz-adv-x="1139" 
d="M565 1180q-102 0 -170 67t-68 168t68 168t170 67t170 -67t68 -168t-68 -168t-170 -67zM565 1514q-41 0 -67 -27.5t-26 -71.5q0 -46 26 -73.5t67 -27.5t67 28t26 73q0 44 -26 71.5t-67 27.5zM553 1101q209 0 328.5 -109t119.5 -323v-669h-232v126q-40 -67 -120.5 -110
t-198.5 -43q-160 0 -263.5 90.5t-103.5 245.5q0 341 518 341h164v13q0 119 -59 177.5t-165 58.5q-158 0 -260 -133l-152 138q70 94 180 145.5t244 51.5zM766 403v75h-128q-76 0 -132 -7.5t-101.5 -25.5t-68.5 -51t-23 -80q0 -76 49 -116t137 -40q117 0 192 78.5t75 166.5z
" />
    <glyph glyph-name="ae" unicode="&#xe6;" horiz-adv-x="1798" 
d="M1722 510v-47h-726q13 -138 82.5 -215t195.5 -77q70 0 130.5 31t116.5 110l168 -122q-71 -105 -178.5 -161.5t-234.5 -56.5q-270 0 -402 198q-136 -198 -404 -198q-103 0 -189 35.5t-142 113t-56 184.5q0 324 496 324h173v27q0 243 -220 243q-75 0 -140.5 -33t-109.5 -95
l-150 137q70 94 176.5 143.5t235.5 49.5q243 0 351 -173q127 175 350 175q214 0 345.5 -161t131.5 -432zM996 629h482q-16 128 -81.5 200t-155.5 72q-96 0 -161.5 -70t-83.5 -202zM753 393v70h-155q-148 0 -217 -38t-69 -118q0 -74 52 -113.5t139 -39.5q76 0 135 39.5t87 93
t28 106.5z" />
    <glyph glyph-name="ccedilla" unicode="&#xe7;" horiz-adv-x="1124" 
d="M1062 251q-122 -234 -348 -271l-103 -321h-197l101 321q-199 31 -316.5 180t-117.5 376q0 256 145 410t383 154q308 0 450 -260l-199 -103q-86 154 -244 154q-136 0 -214.5 -96t-78.5 -258q0 -164 80 -260.5t213 -96.5q159 0 244 167z" />
    <glyph glyph-name="egrave" unicode="&#xe8;" horiz-adv-x="1187" 
d="M740 1207h-194l-207 316h241zM326 464q14 -137 89.5 -215t212.5 -78q84 0 150 31t122 109l170 -120q-157 -219 -452 -219q-235 0 -386 154t-151 404q0 258 144.5 415.5t371.5 157.5q232 0 372.5 -159t140.5 -418v-62h-784zM596 904q-99 0 -170 -66t-94 -190h530
q-23 122 -94 189t-172 67z" />
    <glyph glyph-name="eacute" unicode="&#xe9;" horiz-adv-x="1187" 
d="M857 1523l-208 -316h-194l160 316h242zM326 464q14 -137 89.5 -215t212.5 -78q84 0 150 31t122 109l170 -120q-157 -219 -452 -219q-235 0 -386 154t-151 404q0 258 144.5 415.5t371.5 157.5q232 0 372.5 -159t140.5 -418v-62h-784zM596 904q-99 0 -170 -66t-94 -190h530
q-23 122 -94 189t-172 67z" />
    <glyph glyph-name="ecircumflex" unicode="&#xea;" horiz-adv-x="1187" 
d="M598 1371l-128 -167h-208l224 310h224l223 -310h-209zM326 464q14 -137 89.5 -215t212.5 -78q84 0 150 31t122 109l170 -120q-157 -219 -452 -219q-235 0 -386 154t-151 404q0 258 144.5 415.5t371.5 157.5q232 0 372.5 -159t140.5 -418v-62h-784zM596 904
q-99 0 -170 -66t-94 -190h530q-23 122 -94 189t-172 67z" />
    <glyph glyph-name="edieresis" unicode="&#xeb;" horiz-adv-x="1187" 
d="M519 1475v-219h-232v219h232zM908 1475v-219h-231v219h231zM326 464q14 -137 89.5 -215t212.5 -78q84 0 150 31t122 109l170 -120q-157 -219 -452 -219q-235 0 -386 154t-151 404q0 258 144.5 415.5t371.5 157.5q232 0 372.5 -159t140.5 -418v-62h-784zM596 904
q-99 0 -170 -66t-94 -190h530q-23 122 -94 189t-172 67z" />
    <glyph glyph-name="igrave" unicode="&#xec;" horiz-adv-x="530" 
d="M213 1207l-207 316h241l161 -316h-195zM147 0v1075h236v-1075h-236z" />
    <glyph glyph-name="iacute" unicode="&#xed;" horiz-adv-x="530" 
d="M123 1207l160 316h241l-207 -316h-194zM147 0v1075h236v-1075h-236z" />
    <glyph glyph-name="icircumflex" unicode="&#xee;" horiz-adv-x="530" 
d="M377 1514l223 -310h-209l-126 167l-128 -167h-208l225 310h223zM147 0v1075h236v-1075h-236z" />
    <glyph glyph-name="idieresis" unicode="&#xef;" horiz-adv-x="530" 
d="M-31 1256v219h220v-219h-220zM340 1256v219h220v-219h-220zM147 0v1075h236v-1075h-236z" />
    <glyph glyph-name="eth" unicode="&#xf0;" horiz-adv-x="1214" 
d="M834 1287q300 -305 300 -755q0 -256 -141.5 -408t-384.5 -152q-237 0 -382 148t-145 392q0 123 39 225.5t107 170.5t158.5 105.5t193.5 37.5q136 0 231 -74q-66 117 -169 215l-229 -114l-60 112l180 89q-50 36 -131 81l110 164q116 -62 222 -146l216 107l60 -112z
M608 177q128 0 206 91t78 244t-78 243.5t-206 90.5q-129 0 -206.5 -90.5t-77.5 -243.5t77.5 -244t206.5 -91z" />
    <glyph glyph-name="ntilde" unicode="&#xf1;" horiz-adv-x="1214" 
d="M478 1319q-30 0 -58 -19.5t-68 -69.5l-130 117q69 85 128 121.5t126 36.5q75 0 159 -51q62 -38 101 -38q34 0 61 21t67 68l130 -117q-69 -85 -128.5 -122t-126.5 -37q-71 0 -159 52q-65 38 -102 38zM717 1102q158 0 258.5 -97.5t100.5 -273.5v-731h-235v677
q0 108 -53 164.5t-145 56.5q-116 0 -188 -81.5t-72 -188.5v-628h-236v1075h232v-133q35 61 120.5 110.5t217.5 49.5z" />
    <glyph glyph-name="ograve" unicode="&#xf2;" horiz-adv-x="1226" 
d="M561 1207l-207 316h241l161 -316h-195zM613 -28q-235 0 -383.5 155t-148.5 411q0 257 148.5 411t383.5 154q234 0 383.5 -154t149.5 -411q0 -256 -149.5 -411t-383.5 -155zM613 182q132 0 211 96.5t79 259.5q0 164 -79 260t-211 96t-210.5 -96t-78.5 -260
q0 -163 78.5 -259.5t210.5 -96.5z" />
    <glyph glyph-name="oacute" unicode="&#xf3;" horiz-adv-x="1226" 
d="M471 1207l161 316h240l-206 -316h-195zM613 -28q-235 0 -383.5 155t-148.5 411q0 257 148.5 411t383.5 154q234 0 383.5 -154t149.5 -411q0 -256 -149.5 -411t-383.5 -155zM613 182q132 0 211 96.5t79 259.5q0 164 -79 260t-211 96t-210.5 -96t-78.5 -260
q0 -163 78.5 -259.5t210.5 -96.5z" />
    <glyph glyph-name="ocircumflex" unicode="&#xf4;" horiz-adv-x="1226" 
d="M613 1371l-127 -167h-208l224 310h223l223 -310h-209zM613 1103q234 0 383.5 -154t149.5 -411q0 -256 -149.5 -411t-383.5 -155q-235 0 -383.5 155t-148.5 411q0 257 148.5 411t383.5 154zM613 182q132 0 211 96.5t79 259.5q0 164 -79 260t-211 96t-210.5 -96t-78.5 -260
q0 -163 78.5 -259.5t210.5 -96.5z" />
    <glyph glyph-name="otilde" unicode="&#xf5;" horiz-adv-x="1226" 
d="M741 1229q-72 0 -158 52q-67 38 -103 38q-30 0 -57.5 -19.5t-67.5 -69.5l-130 117q68 85 127 121.5t126 36.5q74 0 160 -51q60 -38 100 -38q34 0 61 21t67 68l130 -117q-68 -85 -128 -122t-127 -37zM613 -28q-235 0 -383.5 155t-148.5 411q0 257 148.5 411t383.5 154
q234 0 383.5 -154t149.5 -411q0 -256 -149.5 -411t-383.5 -155zM613 182q132 0 211 96.5t79 259.5q0 164 -79 260t-211 96t-210.5 -96t-78.5 -260q0 -163 78.5 -259.5t210.5 -96.5z" />
    <glyph glyph-name="odieresis" unicode="&#xf6;" horiz-adv-x="1226" 
d="M303 1256v219h232v-219h-232zM692 1256v219h232v-219h-232zM613 -28q-235 0 -383.5 155t-148.5 411q0 257 148.5 411t383.5 154q234 0 383.5 -154t149.5 -411q0 -256 -149.5 -411t-383.5 -155zM613 182q132 0 211 96.5t79 259.5q0 164 -79 260t-211 96t-210.5 -96
t-78.5 -260q0 -163 78.5 -259.5t210.5 -96.5z" />
    <glyph glyph-name="divide" unicode="&#xf7;" 
d="M498 839v212h230v-212h-230zM146 480v200h937v-200h-937zM498 110v212h230v-212h-230z" />
    <glyph glyph-name="oslash" unicode="&#xf8;" horiz-adv-x="1226" 
d="M1025 919q122 -151 122 -380q0 -257 -149.5 -412t-383.5 -155q-152 0 -273 69l-113 -144l-138 109l117 150q-123 151 -123 383q0 256 148 410t382 154q156 0 278 -71l110 143l139 -110zM614 894q-132 0 -210 -96t-78 -259q0 -117 40 -200l401 512q-66 43 -153 43z
M614 181q133 0 212 97t79 261q0 114 -39 195l-400 -512q64 -41 148 -41z" />
    <glyph glyph-name="ugrave" unicode="&#xf9;" horiz-adv-x="1212" 
d="M741 1207h-194l-208 316h242zM829 1075h236v-1075h-232v132q-35 -61 -120 -110t-217 -49q-156 0 -256.5 98t-100.5 274v730h236v-677q0 -108 52 -165t142 -57q116 0 188 82t72 189v628z" />
    <glyph glyph-name="uacute" unicode="&#xfa;" horiz-adv-x="1212" 
d="M857 1523l-207 -316h-194l160 316h241zM829 1075h236v-1075h-232v132q-35 -61 -120 -110t-217 -49q-156 0 -256.5 98t-100.5 274v730h236v-677q0 -108 52 -165t142 -57q116 0 188 82t72 189v628z" />
    <glyph glyph-name="ucircumflex" unicode="&#xfb;" horiz-adv-x="1212" 
d="M599 1371l-128 -167h-209l225 310h224l223 -310h-209zM829 1075h236v-1075h-232v132q-35 -61 -120 -110t-217 -49q-156 0 -256.5 98t-100.5 274v730h236v-677q0 -108 52 -165t142 -57q116 0 188 82t72 189v628z" />
    <glyph glyph-name="udieresis" unicode="&#xfc;" horiz-adv-x="1212" 
d="M519 1475v-219h-231v219h231zM909 1475v-219h-231v219h231zM829 1075h236v-1075h-232v132q-35 -61 -120 -110t-217 -49q-156 0 -256.5 98t-100.5 274v730h236v-677q0 -108 52 -165t142 -57q116 0 188 82t72 189v628z" />
    <glyph glyph-name="yacute" unicode="&#xfd;" horiz-adv-x="1115" 
d="M822 1523l-207 -316h-194l161 316h240zM835 1075h260l-484 -1234q-50 -127 -122 -177t-179 -50q-94 0 -190 28l56 188q72 -18 104 -18q45 0 70 18t43 67l54 144l-427 1034h259l286 -764z" />
    <glyph glyph-name="thorn" unicode="&#xfe;" horiz-adv-x="1262" 
d="M720 1103q198 0 329.5 -157.5t131.5 -406.5q0 -250 -131.5 -408t-329.5 -158q-117 0 -203 47t-134 118v-496h-236v1833h236v-534q46 68 133 115t204 47zM659 185q122 0 201 93.5t79 260.5q0 166 -78.5 258.5t-200.5 92.5q-125 0 -204.5 -96.5t-79.5 -254.5
q0 -160 79.5 -257t203.5 -97z" />
    <glyph glyph-name="ydieresis" unicode="&#xff;" horiz-adv-x="1115" 
d="M484 1475v-219h-231v219h231zM874 1475v-219h-232v219h232zM835 1075h260l-484 -1234q-50 -127 -122 -177t-179 -50q-94 0 -190 28l56 188q72 -18 104 -18q45 0 70 18t43 67l54 144l-427 1034h259l286 -764z" />
    <glyph glyph-name="Amacron" unicode="&#x100;" horiz-adv-x="1498" 
d="M1041 1796v-162h-585v162h585zM1178 0l-130 355h-603l-130 -355h-265l560 1475h277l561 -1475h-270zM523 569h447l-224 610z" />
    <glyph glyph-name="amacron" unicode="&#x101;" horiz-adv-x="1139" 
d="M858 1427v-161h-586v161h586zM553 1101q209 0 328.5 -109t119.5 -323v-669h-232v126q-40 -67 -120.5 -110t-198.5 -43q-160 0 -263.5 90.5t-103.5 245.5q0 341 518 341h164v13q0 119 -59 177.5t-165 58.5q-158 0 -260 -133l-152 138q70 94 180 145.5t244 51.5zM766 403
v75h-128q-76 0 -132 -7.5t-101.5 -25.5t-68.5 -51t-23 -80q0 -76 49 -116t137 -40q117 0 192 78.5t75 166.5z" />
    <glyph glyph-name="Abreve" unicode="&#x102;" horiz-adv-x="1498" 
d="M750 1560q-138 0 -227.5 87t-98.5 233h173q9 -77 51.5 -124t101.5 -47t101 47t50 124h173q-8 -146 -97.5 -233t-226.5 -87zM1178 0l-130 355h-603l-130 -355h-265l560 1475h277l561 -1475h-270zM523 569h447l-224 610z" />
    <glyph glyph-name="abreve" unicode="&#x103;" horiz-adv-x="1139" 
d="M565 1194q-137 0 -226 87t-98 233h173q8 -77 50 -124t101 -47t101.5 47t51.5 124h173q-9 -146 -98.5 -233t-227.5 -87zM553 1101q209 0 328.5 -109t119.5 -323v-669h-232v126q-40 -67 -120.5 -110t-198.5 -43q-160 0 -263.5 90.5t-103.5 245.5q0 341 518 341h164v13
q0 119 -59 177.5t-165 58.5q-158 0 -260 -133l-152 138q70 94 180 145.5t244 51.5zM766 403v75h-128q-76 0 -132 -7.5t-101.5 -25.5t-68.5 -51t-23 -80q0 -76 49 -116t137 -40q117 0 192 78.5t75 166.5z" />
    <glyph glyph-name="Aogonek" unicode="&#x104;" horiz-adv-x="1498" 
d="M1394 -232l68 -141q-84 -54 -176 -54q-118 0 -189.5 58t-71.5 153q0 123 153 216l-130 355h-603l-130 -355h-265l560 1475h277l561 -1475h-93q-71 -38 -112 -85.5t-41 -90.5q0 -40 27.5 -63.5t72.5 -23.5q44 0 92 31zM523 569h447l-224 610z" />
    <glyph glyph-name="aogonek" unicode="&#x105;" horiz-adv-x="1139" 
d="M954 -232l68 -141q-83 -54 -176 -54q-117 0 -188.5 58t-71.5 153q0 135 183 233v109q-40 -67 -120.5 -110t-198.5 -43q-160 0 -263.5 90.5t-103.5 245.5q0 341 518 341h164v13q0 119 -59 177.5t-165 58.5q-158 0 -260 -133l-152 138q70 94 180 145.5t244 51.5
q209 0 328.5 -109t119.5 -323v-669h-86q-71 -38 -111.5 -85.5t-40.5 -90.5q0 -40 27 -63.5t71 -23.5q45 0 93 31zM766 403v75h-128q-76 0 -132 -7.5t-101.5 -25.5t-68.5 -51t-23 -80q0 -76 49 -116t137 -40q117 0 192 78.5t75 166.5z" />
    <glyph glyph-name="Cacute" unicode="&#x106;" horiz-adv-x="1477" 
d="M653 1574l161 314h242l-208 -314h-195zM795 -31q-208 0 -366 95.5t-243.5 269.5t-85.5 403t84.5 403t241.5 269.5t365 95.5q194 0 349 -92t245 -264l-206 -111q-72 122 -166 179.5t-218 57.5q-199 0 -319 -146.5t-120 -391.5t121.5 -391t321.5 -146q130 0 220.5 62.5
t158.5 197.5l211 -109q-196 -382 -594 -382z" />
    <glyph glyph-name="cacute" unicode="&#x107;" horiz-adv-x="1124" 
d="M467 1207l161 316h240l-206 -316h-195zM612 -28q-239 0 -385 154.5t-146 409.5q0 256 145 410t383 154q308 0 450 -260l-199 -103q-86 154 -244 154q-136 0 -214.5 -96t-78.5 -258q0 -164 80 -260.5t213 -96.5q159 0 244 167l202 -96q-56 -107 -131.5 -171t-150.5 -86
t-168 -22z" />
    <glyph glyph-name="Ccircumflex" unicode="&#x108;" horiz-adv-x="1477" 
d="M790 1737l-128 -167h-208l224 310h223l223 -310h-209zM1178 460l211 -109q-196 -382 -594 -382q-208 0 -366 95.5t-243.5 269.5t-85.5 403t84.5 403t241.5 269.5t365 95.5q194 0 349 -92t245 -264l-206 -111q-72 122 -166 179.5t-218 57.5q-199 0 -319 -146.5
t-120 -391.5t121.5 -391t321.5 -146q130 0 220.5 62.5t158.5 197.5z" />
    <glyph glyph-name="ccircumflex" unicode="&#x109;" horiz-adv-x="1124" 
d="M610 1371l-128 -167h-209l226 310h222l223 -310h-208zM860 347l202 -96q-56 -107 -131.5 -171t-150.5 -86t-168 -22q-239 0 -385 154.5t-146 409.5q0 256 145 410t383 154q308 0 450 -260l-199 -103q-86 154 -244 154q-136 0 -214.5 -96t-78.5 -258q0 -164 80 -260.5
t213 -96.5q159 0 244 167z" />
    <glyph glyph-name="Cdotaccent" unicode="&#x10a;" horiz-adv-x="1477" 
d="M664 1603v225h251v-225h-251zM795 -31q-208 0 -366 95.5t-243.5 269.5t-85.5 403t84.5 403t241.5 269.5t365 95.5q194 0 349 -92t245 -264l-206 -111q-72 122 -166 179.5t-218 57.5q-199 0 -319 -146.5t-120 -391.5t121.5 -391t321.5 -146q130 0 220.5 62.5t158.5 197.5
l211 -109q-196 -382 -594 -382z" />
    <glyph glyph-name="cdotaccent" unicode="&#x10b;" horiz-adv-x="1124" 
d="M483 1250v225h252v-225h-252zM612 -28q-239 0 -385 154.5t-146 409.5q0 256 145 410t383 154q308 0 450 -260l-199 -103q-86 154 -244 154q-136 0 -214.5 -96t-78.5 -258q0 -164 80 -260.5t213 -96.5q159 0 244 167l202 -96q-56 -107 -131.5 -171t-150.5 -86t-168 -22z
" />
    <glyph glyph-name="Ccaron" unicode="&#x10c;" horiz-adv-x="1477" 
d="M898 1570h-223l-225 310h208l128 -167l126 167h209zM1178 460l211 -109q-196 -382 -594 -382q-208 0 -366 95.5t-243.5 269.5t-85.5 403t84.5 403t241.5 269.5t365 95.5q194 0 349 -92t245 -264l-206 -111q-72 122 -166 179.5t-218 57.5q-199 0 -319 -146.5t-120 -391.5
t121.5 -391t321.5 -146q130 0 220.5 62.5t158.5 197.5z" />
    <glyph glyph-name="ccaron" unicode="&#x10d;" horiz-adv-x="1124" 
d="M718 1204h-223l-225 310h209l127 -166l126 166h209zM860 347l202 -96q-56 -107 -131.5 -171t-150.5 -86t-168 -22q-239 0 -385 154.5t-146 409.5q0 256 145 410t383 154q308 0 450 -260l-199 -103q-86 154 -244 154q-136 0 -214.5 -96t-78.5 -258q0 -164 80 -260.5
t213 -96.5q159 0 244 167z" />
    <glyph glyph-name="Dcaron" unicode="&#x10e;" horiz-adv-x="1509" 
d="M777 1570h-222l-225 310h209l128 -167l126 167h208zM711 1475q321 0 509.5 -199t188.5 -540t-188.5 -538.5t-509.5 -197.5h-545v1475h545zM685 225q218 0 342.5 136t124.5 375t-124.5 376t-342.5 137h-269v-1024h269z" />
    <glyph glyph-name="dcaron" unicode="&#x10f;" horiz-adv-x="1372" 
d="M882 938v537h235v-1475h-231v140q-46 -71 -134 -119.5t-207 -48.5q-199 0 -331.5 158t-132.5 408q0 249 132.5 407t331.5 158q117 0 203 -47t134 -118zM1226 1475h225l-51 -448h-174v448zM604 181q125 0 205 97.5t80 259.5q0 161 -80.5 258.5t-204.5 97.5
q-122 0 -201.5 -94.5t-79.5 -261.5q0 -168 79.5 -262.5t201.5 -94.5z" />
    <glyph glyph-name="Dcroat" unicode="&#x110;" horiz-adv-x="1537" 
d="M739 1475q320 0 509.5 -199.5t189.5 -539.5q0 -341 -189 -538.5t-510 -197.5h-544v637h-153v201h153v637h544zM714 225q218 0 342.5 136t124.5 375t-124.5 376t-342.5 137h-271v-411h349v-201h-349v-412h271z" />
    <glyph glyph-name="dcroat" unicode="&#x111;" horiz-adv-x="1270" 
d="M1236 1340v-152h-118v-1188h-232v138q-46 -70 -133.5 -118t-206.5 -48q-199 0 -332 158t-133 408q0 249 133 407t332 158q117 0 203 -47.5t134 -118.5v251h-255v152h255v135h235v-135h118zM605 181q125 0 205 97.5t80 259.5q0 161 -80.5 258.5t-204.5 97.5
q-122 0 -201.5 -94t-79.5 -262t79.5 -262.5t201.5 -94.5z" />
    <glyph glyph-name="Emacron" unicode="&#x112;" horiz-adv-x="1305" 
d="M404 1634v162h586v-162h-586zM166 0v1475h1035v-226h-785v-392h711v-217h-711v-415h795v-225h-1045z" />
    <glyph glyph-name="emacron" unicode="&#x113;" horiz-adv-x="1187" 
d="M890 1427v-161h-586v161h586zM326 464q14 -137 89.5 -215t212.5 -78q84 0 150 31t122 109l170 -120q-157 -219 -452 -219q-235 0 -386 154t-151 404q0 258 144.5 415.5t371.5 157.5q232 0 372.5 -159t140.5 -418v-62h-784zM596 904q-99 0 -170 -66t-94 -190h530
q-23 122 -94 189t-172 67z" />
    <glyph glyph-name="Ebreve" unicode="&#x114;" horiz-adv-x="1305" 
d="M697 1560q-137 0 -226.5 87t-97.5 233h173q8 -77 50 -124t101 -47t101.5 47t51.5 124h173q-9 -146 -98.5 -233t-227.5 -87zM166 0v1475h1035v-226h-785v-392h711v-217h-711v-415h795v-225h-1045z" />
    <glyph glyph-name="ebreve" unicode="&#x115;" horiz-adv-x="1187" 
d="M598 1194q-138 0 -227.5 87t-98.5 233h173q9 -77 51.5 -124t101.5 -47q60 0 102 47t50 124h173q-9 -145 -98.5 -232.5t-226.5 -87.5zM326 464q14 -137 89.5 -215t212.5 -78q84 0 150 31t122 109l170 -120q-157 -219 -452 -219q-235 0 -386 154t-151 404
q0 258 144.5 415.5t371.5 157.5q232 0 372.5 -159t140.5 -418v-62h-784zM596 904q-99 0 -170 -66t-94 -190h530q-23 122 -94 189t-172 67z" />
    <glyph glyph-name="Edotaccent" unicode="&#x116;" horiz-adv-x="1305" 
d="M571 1603v225h252v-225h-252zM166 0v1475h1035v-226h-785v-392h711v-217h-711v-415h795v-225h-1045z" />
    <glyph glyph-name="edotaccent" unicode="&#x117;" horiz-adv-x="1187" 
d="M724 1475v-225h-252v225h252zM326 464q14 -137 89.5 -215t212.5 -78q84 0 150 31t122 109l170 -120q-157 -219 -452 -219q-235 0 -386 154t-151 404q0 258 144.5 415.5t371.5 157.5q232 0 372.5 -159t140.5 -418v-62h-784zM596 904q-99 0 -170 -66t-94 -190h530
q-23 122 -94 189t-172 67z" />
    <glyph glyph-name="Eogonek" unicode="&#x118;" horiz-adv-x="1305" 
d="M1161 -232l69 -141q-84 -54 -177 -54q-117 0 -188.5 58t-71.5 153q0 123 152 216h-779v1475h1035v-226h-785v-392h711v-217h-711v-415h795v-225h-89q-71 -38 -111.5 -85.5t-40.5 -90.5q0 -40 27 -63.5t71 -23.5q45 0 93 31z" />
    <glyph glyph-name="eogonek" unicode="&#x119;" horiz-adv-x="1190" 
d="M1110 526v-62h-784q14 -137 89.5 -215t212.5 -78q84 0 150 31t122 109l170 -120q-67 -92 -157 -146q-87 -59 -133.5 -109.5t-46.5 -106.5q0 -41 25.5 -66.5t67.5 -25.5t86 29l68 -141q-77 -52 -180 -52q-110 0 -176.5 62t-66.5 155q0 100 88 182h-27q-235 0 -386 154
t-151 404q0 258 144.5 415.5t371.5 157.5q232 0 372.5 -159t140.5 -418zM596 904q-99 0 -170 -66t-94 -190h530q-23 122 -94 189t-172 67z" />
    <glyph glyph-name="Ecaron" unicode="&#x11a;" horiz-adv-x="1305" 
d="M806 1570h-223l-225 310h208l128 -167l126 167h209zM416 225h795v-225h-1045v1475h1035v-226h-785v-392h711v-217h-711v-415z" />
    <glyph glyph-name="ecaron" unicode="&#x11b;" horiz-adv-x="1187" 
d="M706 1204h-223l-225 310h209l128 -166l126 166h209zM326 464q14 -137 89.5 -215t212.5 -78q84 0 150 31t122 109l170 -120q-157 -219 -452 -219q-235 0 -386 154t-151 404q0 258 144.5 415.5t371.5 157.5q232 0 372.5 -159t140.5 -418v-62h-784zM596 904q-99 0 -170 -66
t-94 -190h530q-23 122 -94 189t-172 67z" />
    <glyph glyph-name="Gcircumflex" unicode="&#x11c;" horiz-adv-x="1525" 
d="M795 1737l-128 -167h-209l224 310h223l223 -310h-207zM805 798h590v-798h-217v154q-59 -90 -161 -137.5t-235 -47.5q-306 0 -494 211.5t-188 556.5q0 349 193.5 558.5t513.5 209.5q174 0 320.5 -74t246.5 -220l-195 -132q-68 102 -157 149t-212 47q-202 0 -328 -145
t-126 -393q0 -249 124 -393.5t329 -144.5q165 0 267.5 92t103.5 266v34h-375v207z" />
    <glyph glyph-name="gcircumflex" unicode="&#x11d;" horiz-adv-x="1258" 
d="M612 1371l-127 -167h-209l225 310h223l223 -310h-208zM879 1075h231v-972q0 -225 -144.5 -357t-395.5 -132q-287 0 -461 177l137 161q129 -135 326 -135q145 0 223.5 80.5t78.5 202.5v80q-109 -160 -313 -160q-214 0 -347 149t-133 392q0 244 133 393t346 149
q113 0 193.5 -46.5t125.5 -115.5v134zM603 227q122 0 200.5 86.5t78.5 247.5t-78.5 248t-200.5 87q-125 0 -202.5 -90.5t-77.5 -244.5q0 -153 77.5 -243.5t202.5 -90.5z" />
    <glyph glyph-name="Gbreve" unicode="&#x11e;" horiz-adv-x="1525" 
d="M794 1560q-138 0 -227.5 87t-97.5 233h173q8 -77 50 -124t102 -47q59 0 101 47t51 124h173q-9 -146 -98 -233t-227 -87zM805 798h590v-798h-217v154q-59 -90 -161 -137.5t-235 -47.5q-306 0 -494 211.5t-188 556.5q0 349 193.5 558.5t513.5 209.5q174 0 320.5 -74
t246.5 -220l-195 -132q-68 102 -157 149t-212 47q-202 0 -328 -145t-126 -393q0 -249 124 -393.5t329 -144.5q165 0 267.5 92t103.5 266v34h-375v207z" />
    <glyph glyph-name="gbreve" unicode="&#x11f;" horiz-adv-x="1258" 
d="M612 1194q-137 0 -226.5 87.5t-97.5 232.5h172q9 -77 51 -124t101 -47t101.5 47t51.5 124h173q-9 -146 -98.5 -233t-227.5 -87zM879 1075h231v-972q0 -225 -144.5 -357t-395.5 -132q-287 0 -461 177l137 161q129 -135 326 -135q145 0 223.5 80.5t78.5 202.5v80
q-109 -160 -313 -160q-214 0 -347 149t-133 392q0 244 133 393t346 149q113 0 193.5 -46.5t125.5 -115.5v134zM603 227q122 0 200.5 86.5t78.5 247.5t-78.5 248t-200.5 87q-125 0 -202.5 -90.5t-77.5 -244.5q0 -153 77.5 -243.5t202.5 -90.5z" />
    <glyph glyph-name="Gdotaccent" unicode="&#x120;" horiz-adv-x="1525" 
d="M920 1828v-225h-252v225h252zM805 798h590v-798h-217v154q-59 -90 -161 -137.5t-235 -47.5q-306 0 -494 211.5t-188 556.5q0 349 193.5 558.5t513.5 209.5q174 0 320.5 -74t246.5 -220l-195 -132q-68 102 -157 149t-212 47q-202 0 -328 -145t-126 -393q0 -249 124 -393.5
t329 -144.5q165 0 267.5 92t103.5 266v34h-375v207z" />
    <glyph glyph-name="gdotaccent" unicode="&#x121;" horiz-adv-x="1258" 
d="M738 1475v-225h-252v225h252zM879 1075h231v-972q0 -225 -144.5 -357t-395.5 -132q-287 0 -461 177l137 161q129 -135 326 -135q145 0 223.5 80.5t78.5 202.5v80q-109 -160 -313 -160q-214 0 -347 149t-133 392q0 244 133 393t346 149q113 0 193.5 -46.5t125.5 -115.5
v134zM603 227q122 0 200.5 86.5t78.5 247.5t-78.5 248t-200.5 87q-125 0 -202.5 -90.5t-77.5 -244.5q0 -153 77.5 -243.5t202.5 -90.5z" />
    <glyph glyph-name="uni0122" unicode="&#x122;" horiz-adv-x="1525" 
d="M805 798h590v-798h-217v154q-59 -90 -161 -137.5t-235 -47.5q-306 0 -494 211.5t-188 556.5q0 349 193.5 558.5t513.5 209.5q174 0 320.5 -74t246.5 -220l-195 -132q-68 102 -157 149t-212 47q-202 0 -328 -145t-126 -393q0 -249 124 -393.5t329 -144.5q165 0 267.5 92
t103.5 266v34h-375v207zM669 -272v193h240v-199q0 -62 -38.5 -107.5t-114.5 -82.5l-58 86q53 27 75 51t22 59h-126z" />
    <glyph glyph-name="uni0123" unicode="&#x123;" horiz-adv-x="1258" 
d="M716 1399v-194h-241v199q0 115 154 190l58 -86q-54 -27 -75.5 -50.5t-21.5 -58.5h126zM879 1075h231v-972q0 -225 -144.5 -357t-395.5 -132q-287 0 -461 177l137 161q129 -135 326 -135q145 0 223.5 80.5t78.5 202.5v80q-109 -160 -313 -160q-214 0 -347 149t-133 392
q0 244 133 393t346 149q113 0 193.5 -46.5t125.5 -115.5v134zM603 227q122 0 200.5 86.5t78.5 247.5t-78.5 248t-200.5 87q-125 0 -202.5 -90.5t-77.5 -244.5q0 -153 77.5 -243.5t202.5 -90.5z" />
    <glyph glyph-name="Hcircumflex" unicode="&#x124;" horiz-adv-x="1541" 
d="M771 1737l-128 -167h-208l224 310h224l223 -310h-209zM1125 1475h250v-1475h-250v631h-709v-631h-250v1475h250v-619h709v619z" />
    <glyph glyph-name="hcircumflex" unicode="&#x125;" horiz-adv-x="1214" 
d="M614 1737l-128 -167h-208l225 310h222l224 -310h-209zM713 1103q160 0 261.5 -98t101.5 -275v-730h-235v673q0 108 -53 164.5t-146 56.5q-119 0 -189 -80.5t-70 -188.5v-625h-236v1475h236v-527q37 61 121 108t209 47z" />
    <glyph glyph-name="Hbar" unicode="&#x126;" horiz-adv-x="1566" 
d="M1534 1256v-196h-146v-1060h-250v631h-709v-631h-250v1060h-147v196h147v219h250v-224h709v224h250v-219h146zM429 856h709v209h-709v-209z" />
    <glyph glyph-name="hbar" unicode="&#x127;" horiz-adv-x="1220" 
d="M718 1103q161 0 262 -98t101 -275v-730h-235v673q0 108 -52.5 164.5t-145.5 56.5q-120 0 -190 -80.5t-70 -188.5v-625h-235v1188h-118v152h118v135h235v-135h255v-152h-255v-240q37 61 121 108t209 47z" />
    <glyph glyph-name="Itilde" unicode="&#x128;" horiz-adv-x="581" 
d="M420 1573q-74 0 -160 51q-65 38 -101 38q-30 0 -58 -19.5t-67 -69.5l-131 117q69 85 128 121.5t126 36.5q76 0 159 -51q60 -38 101 -38q34 0 61 21t67 68l130 -117q-69 -85 -128.5 -121.5t-126.5 -36.5zM166 0v1475h250v-1475h-250z" />
    <glyph glyph-name="itilde" unicode="&#x129;" horiz-adv-x="530" 
d="M393 1229q-72 0 -160 52q-65 38 -101 38q-30 0 -58 -19.5t-67 -69.5l-131 117q69 85 128 121.5t126 36.5q74 0 160 -51q60 -38 100 -38q34 0 61 21t67 68l130 -117q-69 -86 -128.5 -122.5t-126.5 -36.5zM147 0v1075h236v-1075h-236z" />
    <glyph glyph-name="Imacron" unicode="&#x12a;" horiz-adv-x="581" 
d="M-3 1634v162h586v-162h-586zM166 0v1475h250v-1475h-250z" />
    <glyph glyph-name="imacron" unicode="&#x12b;" horiz-adv-x="530" 
d="M-29 1266v161h586v-161h-586zM147 0v1075h236v-1075h-236z" />
    <glyph glyph-name="Ibreve" unicode="&#x12c;" horiz-adv-x="581" 
d="M291 1560q-138 0 -227.5 87t-98.5 233h173q9 -77 51.5 -124t101.5 -47t101 47t50 124h173q-8 -146 -97.5 -233t-226.5 -87zM166 0v1475h250v-1475h-250z" />
    <glyph glyph-name="ibreve" unicode="&#x12d;" horiz-adv-x="530" 
d="M265 1194q-138 0 -227 87t-98 233h173q9 -77 51 -124t101 -47q60 0 102 47t50 124h173q-8 -145 -98 -232.5t-227 -87.5zM147 0v1075h236v-1075h-236z" />
    <glyph glyph-name="Iogonek" unicode="&#x12e;" horiz-adv-x="581" 
d="M403 -234l68 -141q-77 -52 -179 -52q-110 0 -176.5 61.5t-66.5 151.5q0 124 134 214h-17v1475h250v-1475h-63q-56 -34 -92 -79.5t-36 -94.5q0 -39 25 -64t67 -25q43 0 86 29z" />
    <glyph glyph-name="iogonek" unicode="&#x12f;" horiz-adv-x="530" 
d="M391 1475v-225h-252v225h252zM383 -234l68 -141q-77 -52 -180 -52q-110 0 -176.5 61.5t-66.5 151.5q0 122 134 214h-15v1075h236v-1075h-50q-56 -34 -92 -79.5t-36 -94.5q0 -39 25 -64t67 -25t86 29z" />
    <glyph glyph-name="Idotaccent" unicode="&#x130;" horiz-adv-x="581" 
d="M165 1603v225h252v-225h-252zM166 0v1475h250v-1475h-250z" />
    <glyph glyph-name="dotlessi" unicode="&#x131;" horiz-adv-x="530" 
d="M147 0v1075h236v-1075h-236z" />
    <glyph glyph-name="IJ" unicode="&#x132;" horiz-adv-x="1722" 
d="M166 0v1475h250v-1475h-250zM1118 -26q-174 0 -289 68.5t-187 215.5l202 120q85 -180 258 -180q107 0 164 71t57 198v1008h250v-1035q0 -214 -121.5 -340t-333.5 -126z" />
    <glyph glyph-name="ij" unicode="&#x133;" horiz-adv-x="1059" 
d="M139 1250v225h252v-225h-252zM670 1250v225h251v-225h-251zM147 0v1075h236v-1075h-236zM599 -380q-84 0 -166 28l49 190q53 -14 91 -14q57 0 81 31t24 108v1112h235v-1153q0 -156 -75.5 -229t-238.5 -73z" />
    <glyph glyph-name="Jcircumflex" unicode="&#x134;" horiz-adv-x="1140" 
d="M979 1880l223 -310h-209l-126 167l-128 -167h-208l225 310h223zM741 467v1008h250v-1035q0 -215 -121 -340.5t-333 -125.5q-174 0 -289.5 69t-187.5 215l202 120q43 -91 106 -135.5t152 -44.5q107 0 164 71t57 198z" />
    <glyph glyph-name="jcircumflex" unicode="&#x135;" horiz-adv-x="530" 
d="M377 1514l223 -310h-209l-126 167l-128 -167h-208l225 310h223zM147 -37v1112h236v-1153q0 -156 -75.5 -229t-237.5 -73q-83 0 -167 28l49 190q55 -14 91 -14q58 0 81 31t23 108z" />
    <glyph glyph-name="uni0136" unicode="&#x136;" horiz-adv-x="1393" 
d="M817 876l549 -876h-296l-416 685l-238 -276v-409h-250v1475h250v-724l614 724h303zM584 -272v193h240v-199q0 -62 -38.5 -107.5t-114.5 -82.5l-58 86q53 27 75 51t22 59h-126z" />
    <glyph glyph-name="uni0137" unicode="&#x137;" horiz-adv-x="1152" 
d="M680 632l432 -632h-272l-312 462l-145 -163v-299h-236v1475h236v-869l411 469h282zM465 -272v193h241v-199q0 -61 -38.5 -106.5t-114.5 -83.5l-58 86q53 27 74.5 50.5t21.5 59.5h-126z" />
    <glyph glyph-name="kgreenlandic" unicode="&#x138;" horiz-adv-x="1152" 
d="M838 0l-311 461l-144 -162v-299h-236v1075h236v-469l411 469h282l-394 -441l430 -634h-274z" />
    <glyph glyph-name="Lacute" unicode="&#x139;" horiz-adv-x="1152" 
d="M557 1888l-208 -314h-194l160 314h242zM416 224h690v-224h-940v1475h250v-1251z" />
    <glyph glyph-name="lacute" unicode="&#x13a;" horiz-adv-x="530" 
d="M129 1574l161 314h241l-207 -314h-195zM147 0v1475h236v-1475h-236z" />
    <glyph glyph-name="uni013B" unicode="&#x13b;" horiz-adv-x="1152" 
d="M416 224h690v-224h-940v1475h250v-1251zM543 -272v193h240v-199q0 -62 -38.5 -107.5t-114.5 -82.5l-58 86q53 27 75 51t22 59h-126z" />
    <glyph glyph-name="uni013C" unicode="&#x13c;" horiz-adv-x="530" 
d="M383 1475v-1475h-236v1475h236zM144 -79h241v-199q0 -61 -38.5 -106.5t-114.5 -83.5l-58 86q53 27 74.5 50.5t21.5 59.5h-126v193z" />
    <glyph glyph-name="Lcaron" unicode="&#x13d;" horiz-adv-x="1152" 
d="M416 224h690v-224h-940v1475h250v-1251zM828 1475l-51 -448h-174v448h225z" />
    <glyph glyph-name="lcaron" unicode="&#x13e;" horiz-adv-x="636" 
d="M147 0v1475h236v-1475h-236zM490 1027v448h226l-51 -448h-175z" />
    <glyph glyph-name="Ldot" unicode="&#x13f;" horiz-adv-x="1152" 
d="M416 224h690v-224h-940v1475h250v-1251zM993 966v-287h-278v287h278z" />
    <glyph glyph-name="ldot" unicode="&#x140;" horiz-adv-x="793" 
d="M147 0v1475h236v-1475h-236zM522 594v287h280v-287h-280z" />
    <glyph glyph-name="Lslash" unicode="&#x141;" horiz-adv-x="1168" 
d="M444 224h691v-224h-940v551l-165 -86v225l165 85v700h249v-589l423 222v-224l-423 -222v-438z" />
    <glyph glyph-name="lslash" unicode="&#x142;" horiz-adv-x="685" 
d="M634 1107v-227l-173 -113v-767h-236v634l-174 -114v228l174 113v614h236v-481z" />
    <glyph glyph-name="Nacute" unicode="&#x143;" horiz-adv-x="1522" 
d="M1041 1888l-206 -314h-196l161 314h241zM1108 1475h250v-1475h-299l-643 1099v-1099h-250v1475h293l649 -1105v1105z" />
    <glyph glyph-name="nacute" unicode="&#x144;" horiz-adv-x="1214" 
d="M870 1523l-207 -316h-195l161 316h241zM717 1102q158 0 258.5 -97.5t100.5 -273.5v-731h-235v677q0 108 -53 164.5t-145 56.5q-116 0 -188 -81.5t-72 -188.5v-628h-236v1075h232v-133q35 61 120.5 110.5t217.5 49.5z" />
    <glyph glyph-name="uni0145" unicode="&#x145;" horiz-adv-x="1522" 
d="M1108 1475h250v-1475h-299l-643 1099v-1099h-250v1475h293l649 -1105v1105zM642 -272v193h240v-199q0 -61 -38.5 -106.5t-114.5 -83.5l-58 86q53 27 74.5 50.5t21.5 59.5h-125z" />
    <glyph glyph-name="uni0146" unicode="&#x146;" horiz-adv-x="1214" 
d="M717 1102q158 0 258.5 -97.5t100.5 -273.5v-731h-235v677q0 108 -53 164.5t-145 56.5q-116 0 -188 -81.5t-72 -188.5v-628h-236v1075h232v-133q35 61 120.5 110.5t217.5 49.5zM487 -272v193h241v-199q0 -115 -154 -190l-58 86q54 27 75.5 50.5t21.5 59.5h-126z" />
    <glyph glyph-name="Ncaron" unicode="&#x147;" horiz-adv-x="1522" 
d="M884 1570h-224l-224 310h208l128 -167l126 167h209zM1108 1475h250v-1475h-299l-643 1099v-1099h-250v1475h293l649 -1105v1105z" />
    <glyph glyph-name="ncaron" unicode="&#x148;" horiz-adv-x="1214" 
d="M719 1204h-222l-226 310h209l128 -166l126 166h209zM717 1102q158 0 258.5 -97.5t100.5 -273.5v-731h-235v677q0 108 -53 164.5t-145 56.5q-116 0 -188 -81.5t-72 -188.5v-628h-236v1075h232v-133q35 61 120.5 110.5t217.5 49.5z" />
    <glyph glyph-name="napostrophe" unicode="&#x149;" horiz-adv-x="1590" 
d="M132 1189v286h279v-296q0 -118 -37 -190.5t-127 -141.5l-94 104q71 46 94 100.5t23 137.5h-138zM1092 1102q158 0 258.5 -97.5t100.5 -273.5v-731h-236v677q0 108 -52 164.5t-145 56.5q-116 0 -188 -81.5t-72 -188.5v-628h-236v1075h233v-132q35 61 120 110t217 49z" />
    <glyph glyph-name="Eng" unicode="&#x14a;" horiz-adv-x="1523" 
d="M1108 1475h250v-1484q0 -155 -113 -245.5t-299 -90.5q-146 0 -267 62l81 198q82 -45 165 -45q84 0 133.5 41t49.5 114v13l-692 1067v-1105h-250v1475h293l649 -1017v1017z" />
    <glyph glyph-name="eng" unicode="&#x14b;" horiz-adv-x="1214" 
d="M717 1102q158 0 258.5 -97.5t100.5 -273.5v-753q0 -156 -75 -232.5t-229 -76.5q-77 0 -164 29l44 189q51 -13 88 -13q54 0 77.5 28t23.5 91v681q0 108 -53 165t-145 57q-116 0 -188 -82t-72 -189v-625h-236v1075h236v-126q38 60 122 106.5t212 46.5z" />
    <glyph glyph-name="Omacron" unicode="&#x14c;" horiz-adv-x="1608" 
d="M511 1633v162h586v-162h-586zM805 -31q-213 0 -373.5 95.5t-246 269t-85.5 403.5t85.5 403.5t246 269t373.5 95.5q322 0 513 -210t191 -558t-191 -558t-513 -210zM805 200q204 0 326 144.5t122 392.5t-122 393t-326 145t-326.5 -145.5t-122.5 -392.5t122.5 -392
t326.5 -145z" />
    <glyph glyph-name="omacron" unicode="&#x14d;" horiz-adv-x="1226" 
d="M321 1266v161h584v-161h-584zM613 -28q-235 0 -383.5 155t-148.5 411q0 257 148.5 411t383.5 154q234 0 383.5 -154t149.5 -411q0 -256 -149.5 -411t-383.5 -155zM613 182q132 0 211 96.5t79 259.5q0 164 -79 260t-211 96t-210.5 -96t-78.5 -260q0 -163 78.5 -259.5
t210.5 -96.5z" />
    <glyph glyph-name="Obreve" unicode="&#x14e;" horiz-adv-x="1608" 
d="M804 1558q-137 0 -226.5 87.5t-98.5 232.5h173q9 -76 51 -123t101 -47q60 0 101.5 46.5t50.5 123.5h173q-9 -146 -98 -233t-227 -87zM805 -31q-213 0 -373.5 95.5t-246 269t-85.5 403.5t85.5 403.5t246 269t373.5 95.5q322 0 513 -210t191 -558t-191 -558t-513 -210z
M805 200q204 0 326 144.5t122 392.5t-122 393t-326 145t-326.5 -145.5t-122.5 -392.5t122.5 -392t326.5 -145z" />
    <glyph glyph-name="obreve" unicode="&#x14f;" horiz-adv-x="1226" 
d="M613 1194q-137 0 -226.5 87.5t-97.5 232.5h172q9 -77 51 -124t101 -47t101.5 47t51.5 124h172q-8 -145 -97.5 -232.5t-227.5 -87.5zM613 -28q-235 0 -383.5 155t-148.5 411q0 257 148.5 411t383.5 154q234 0 383.5 -154t149.5 -411q0 -256 -149.5 -411t-383.5 -155z
M613 182q132 0 211 96.5t79 259.5q0 164 -79 260t-211 96t-210.5 -96t-78.5 -260q0 -163 78.5 -259.5t210.5 -96.5z" />
    <glyph glyph-name="Ohungarumlaut" unicode="&#x150;" horiz-adv-x="1608" 
d="M514 1573l161 315h240l-206 -315h-195zM870 1573l161 315h241l-207 -315h-195zM805 -31q-213 0 -373.5 95.5t-246 269t-85.5 403.5t85.5 403.5t246 269t373.5 95.5q322 0 513 -210t191 -558t-191 -558t-513 -210zM805 200q204 0 326 144.5t122 392.5t-122 393t-326 145
t-326.5 -145.5t-122.5 -392.5t122.5 -392t326.5 -145z" />
    <glyph glyph-name="ohungarumlaut" unicode="&#x151;" horiz-adv-x="1226" 
d="M317 1207l161 316h242l-207 -316h-196zM674 1207l161 316h241l-208 -316h-194zM613 -28q-235 0 -383.5 155t-148.5 411q0 257 148.5 411t383.5 154q234 0 383.5 -154t149.5 -411q0 -256 -149.5 -411t-383.5 -155zM613 182q132 0 211 96.5t79 259.5q0 164 -79 260t-211 96
t-210.5 -96t-78.5 -260q0 -163 78.5 -259.5t210.5 -96.5z" />
    <glyph glyph-name="OE" unicode="&#x152;" horiz-adv-x="2141" 
d="M1289 224h757v-224h-1248q-322 0 -510 197.5t-188 538.5t188 540t510 199h1238v-225h-747v-393h676v-217h-676v-416zM823 226h216v1022h-216q-217 0 -342 -137t-125 -375t124.5 -374t342.5 -136z" />
    <glyph glyph-name="oe" unicode="&#x153;" horiz-adv-x="1927" 
d="M1851 510v-47h-735q14 -139 83 -215.5t195 -76.5q77 0 138 31t118 110l168 -122q-71 -106 -179.5 -162t-242.5 -56q-278 0 -413 206q-60 -99 -162 -152.5t-230 -53.5q-228 0 -369 154t-141 412q0 257 141 411t369 154q130 0 235.5 -57.5t163.5 -161.5q119 219 375 219
q221 0 353.5 -160.5t132.5 -432.5zM1115 629h492q-16 129 -83 200.5t-163 71.5t-162 -70.5t-84 -201.5zM595 181q121 0 196 97t75 260q0 162 -75 259t-196 97q-122 0 -197 -96.5t-75 -259.5t75 -260t197 -97z" />
    <glyph glyph-name="Racute" unicode="&#x154;" horiz-adv-x="1351" 
d="M939 1888l-207 -314h-194l160 314h241zM996 0l-297 597h-283v-597h-250v1475h632q211 0 334 -117.5t123 -324.5q0 -164 -79 -271.5t-220 -145.5l321 -616h-281zM416 1251v-434h353q110 0 171 57t61 159q0 101 -61 159.5t-171 58.5h-353z" />
    <glyph glyph-name="racute" unicode="&#x155;" horiz-adv-x="833" 
d="M720 1523l-207 -316h-195l161 316h241zM687 1101q58 0 125 -17l-47 -214q-55 11 -98 11q-123 0 -203.5 -100t-80.5 -255v-526h-236v1075h232v-167q21 46 56.5 86.5t103 73.5t148.5 33z" />
    <glyph glyph-name="uni0156" unicode="&#x156;" horiz-adv-x="1351" 
d="M956 616l321 -616h-281l-297 597h-283v-597h-250v1475h632q211 0 334 -117.5t123 -324.5q0 -164 -79 -271.5t-220 -145.5zM416 1251v-434h353q110 0 171 57t61 159q0 101 -61 159.5t-171 58.5h-353zM556 -272v193h241v-199q0 -115 -154 -190l-57 86q53 27 74.5 50.5
t21.5 59.5h-126z" />
    <glyph glyph-name="uni0157" unicode="&#x157;" horiz-adv-x="833" 
d="M687 1101q58 0 125 -17l-47 -214q-55 11 -98 11q-123 0 -203.5 -100t-80.5 -255v-526h-236v1075h232v-167q21 46 56.5 86.5t103 73.5t148.5 33zM144 -272v193h241v-199q0 -61 -38.5 -106.5t-114.5 -83.5l-58 86q53 27 74.5 50.5t21.5 59.5h-126z" />
    <glyph glyph-name="Rcaron" unicode="&#x158;" horiz-adv-x="1351" 
d="M781 1570h-223l-224 310h208l128 -167l126 167h209zM996 0l-297 597h-283v-597h-250v1475h632q211 0 334 -117.5t123 -324.5q0 -164 -79 -271.5t-220 -145.5l321 -616h-281zM416 1251v-434h353q110 0 171 57t61 159q0 101 -61 159.5t-171 58.5h-353z" />
    <glyph glyph-name="rcaron" unicode="&#x159;" horiz-adv-x="833" 
d="M569 1204h-223l-224 310h209l127 -166l126 166h209zM687 1101q58 0 125 -17l-47 -214q-55 11 -98 11q-123 0 -203.5 -100t-80.5 -255v-526h-236v1075h232v-167q21 46 56.5 86.5t103 73.5t148.5 33z" />
    <glyph glyph-name="Sacute" unicode="&#x15a;" horiz-adv-x="1381" 
d="M572 1574l161 314h241l-207 -314h-195zM710 -31q-211 0 -371 79t-254 231l188 137q133 -222 439 -222q144 0 231.5 58.5t87.5 153.5q0 33 -11 61t-26.5 48t-45.5 37.5t-55 28.5t-69 22.5t-73 17.5t-80 16q-70 13 -108.5 21t-104 26t-103.5 37.5t-85.5 52.5t-73 72.5
t-43.5 97t-18 126.5q0 197 153 316t409 119q194 0 347 -73.5t238 -208.5l-190 -134q-52 89 -158 140t-239 51q-137 0 -221 -56.5t-84 -146.5q0 -35 12 -63t37.5 -48.5t52.5 -35t71.5 -27t79.5 -19.5t89 -17q72 -13 111 -20.5t107 -26.5t107 -38.5t88.5 -54.5t76.5 -76.5
t46 -102.5t19 -135q0 -204 -156 -324t-421 -120z" />
    <glyph glyph-name="sacute" unicode="&#x15b;" horiz-adv-x="1073" 
d="M410 1207l160 316h241l-207 -316h-194zM553 -31q-334 0 -501 215l162 137q118 -150 343 -150q97 0 153 34.5t56 95.5q0 27 -12.5 48t-32 34.5t-55.5 24.5t-69.5 17.5t-88.5 15.5q-88 14 -154 36.5t-123.5 60.5t-87.5 98.5t-30 141.5q0 153 118.5 240t314.5 87
q278 0 435 -184l-155 -138q-107 121 -281 121q-89 0 -144 -30t-55 -88q0 -33 17 -56t54 -39t78 -25.5t107 -20.5q68 -11 118.5 -23.5t106 -37.5t91 -58.5t58.5 -88t23 -124.5q0 -164 -122.5 -254t-323.5 -90z" />
    <glyph glyph-name="Scircumflex" unicode="&#x15c;" horiz-adv-x="1381" 
d="M709 1737l-128 -167h-209l225 310h223l223 -310h-208zM732 867q72 -13 111 -20.5t107 -26.5t107 -38.5t88.5 -54.5t76.5 -76.5t46 -102.5t19 -135q0 -204 -156 -324t-421 -120q-211 0 -371 79t-254 231l188 137q133 -222 439 -222q144 0 231.5 58.5t87.5 153.5
q0 33 -11 61t-26.5 48t-45.5 37.5t-55 28.5t-69 22.5t-73 17.5t-80 16q-70 13 -108.5 21t-104 26t-103.5 37.5t-85.5 52.5t-73 72.5t-43.5 97t-18 126.5q0 197 153 316t409 119q194 0 347 -73.5t238 -208.5l-190 -134q-52 89 -158 140t-239 51q-137 0 -221 -56.5t-84 -146.5
q0 -35 12 -63t37.5 -48.5t52.5 -35t71.5 -27t79.5 -19.5t89 -17z" />
    <glyph glyph-name="scircumflex" unicode="&#x15d;" horiz-adv-x="1073" 
d="M553 1371l-128 -167h-209l224 310h224l223 -310h-208zM602 645q68 -11 118.5 -23.5t106 -37.5t91 -58.5t58.5 -88t23 -124.5q0 -164 -122.5 -254t-323.5 -90q-334 0 -501 215l162 137q118 -150 343 -150q97 0 153 34.5t56 95.5q0 27 -12.5 48t-32 34.5t-55.5 24.5
t-69.5 17.5t-88.5 15.5q-88 14 -154 36.5t-123.5 60.5t-87.5 98.5t-30 141.5q0 153 118.5 240t314.5 87q278 0 435 -184l-155 -138q-107 121 -281 121q-89 0 -144 -30t-55 -88q0 -33 17 -56t54 -39t78 -25.5t107 -20.5z" />
    <glyph glyph-name="Scedilla" unicode="&#x15e;" horiz-adv-x="1381" 
d="M1287 413q0 -183 -127 -299.5t-349 -139.5l-101 -315h-199l101 314q-175 17 -309.5 95t-217.5 211l188 137q133 -222 439 -222q144 0 231.5 58.5t87.5 153.5q0 33 -11 61t-26.5 48t-45.5 37.5t-55 28.5t-69 22.5t-73 17.5t-80 16q-70 13 -108.5 21t-104 26t-103.5 37.5
t-85.5 52.5t-73 72.5t-43.5 97t-18 126.5q0 197 153 316t409 119q194 0 347 -73.5t238 -208.5l-190 -134q-52 89 -158 140t-239 51q-137 0 -221 -56.5t-84 -146.5q0 -35 12 -63t37.5 -48.5t52.5 -35t71.5 -27t79.5 -19.5t89 -17q72 -13 111 -20.5t107 -26.5t107 -38.5
t88.5 -54.5t76.5 -76.5t46 -102.5t19 -135z" />
    <glyph glyph-name="scedilla" unicode="&#x15f;" horiz-adv-x="1073" 
d="M999 313q0 -142 -92.5 -228.5t-251.5 -108.5l-100 -317h-199l101 315q-263 28 -405 210l162 137q118 -150 343 -150q97 0 153 34.5t56 95.5q0 27 -12.5 48t-32 34.5t-55.5 24.5t-69.5 17.5t-88.5 15.5q-88 14 -154 36.5t-123.5 60.5t-87.5 98.5t-30 141.5
q0 153 118.5 240t314.5 87q278 0 435 -184l-155 -138q-107 121 -281 121q-89 0 -144 -30t-55 -88q0 -33 17 -56t54 -39t78 -25.5t107 -20.5q68 -11 118.5 -23.5t106 -37.5t91 -58.5t58.5 -88t23 -124.5z" />
    <glyph glyph-name="Scaron" unicode="&#x160;" horiz-adv-x="1381" 
d="M816 1570h-222l-225 310h209l128 -167l125 167h208zM732 867q72 -13 111 -20.5t107 -26.5t107 -38.5t88.5 -54.5t76.5 -76.5t46 -102.5t19 -135q0 -204 -156 -324t-421 -120q-211 0 -371 79t-254 231l188 137q133 -222 439 -222q144 0 231.5 58.5t87.5 153.5q0 33 -11 61
t-26.5 48t-45.5 37.5t-55 28.5t-69 22.5t-73 17.5t-80 16q-70 13 -108.5 21t-104 26t-103.5 37.5t-85.5 52.5t-73 72.5t-43.5 97t-18 126.5q0 197 153 316t409 119q194 0 347 -73.5t238 -208.5l-190 -134q-52 89 -158 140t-239 51q-137 0 -221 -56.5t-84 -146.5
q0 -35 12 -63t37.5 -48.5t52.5 -35t71.5 -27t79.5 -19.5t89 -17z" />
    <glyph glyph-name="scaron" unicode="&#x161;" horiz-adv-x="1073" 
d="M660 1204h-223l-224 310h208l128 -166l126 166h209zM602 645q68 -11 118.5 -23.5t106 -37.5t91 -58.5t58.5 -88t23 -124.5q0 -164 -122.5 -254t-323.5 -90q-334 0 -501 215l162 137q118 -150 343 -150q97 0 153 34.5t56 95.5q0 27 -12.5 48t-32 34.5t-55.5 24.5
t-69.5 17.5t-88.5 15.5q-88 14 -154 36.5t-123.5 60.5t-87.5 98.5t-30 141.5q0 153 118.5 240t314.5 87q278 0 435 -184l-155 -138q-107 121 -281 121q-89 0 -144 -30t-55 -88q0 -33 17 -56t54 -39t78 -25.5t107 -20.5z" />
    <glyph glyph-name="uni0162" unicode="&#x162;" horiz-adv-x="1270" 
d="M1228 1475v-226h-468v-1249h-25l-109 -341h-198l109 341h-27v1249h-468v226h1186z" />
    <glyph glyph-name="uni0163" unicode="&#x163;" horiz-adv-x="807" 
d="M742 10q-78 -29 -165 -35l-102 -316h-199l108 336q-167 57 -167 271v611h-163v198h163v295h236v-295h265v-198h-265v-552q0 -85 27 -116t97 -31q45 0 115 20z" />
    <glyph glyph-name="Tcaron" unicode="&#x164;" horiz-adv-x="1270" 
d="M743 1570h-223l-224 310h209l128 -167l126 167h208zM1228 1475v-226h-468v-1249h-250v1249h-468v226h1186z" />
    <glyph glyph-name="tcaron" unicode="&#x165;" horiz-adv-x="807" 
d="M772 1579l-51 -424h-175v424h226zM575 177q49 0 116 21l50 -189q-105 -37 -210 -37q-315 0 -315 294v608h-163v201h163v296h236v-296h265v-201h-265v-550q0 -85 26.5 -116t96.5 -31z" />
    <glyph glyph-name="Tbar" unicode="&#x166;" horiz-adv-x="1269" 
d="M1228 1249h-468v-365h308v-212h-308v-672h-250v672h-307v212h307v365h-468v226h1186v-226z" />
    <glyph glyph-name="tbar" unicode="&#x167;" horiz-adv-x="807" 
d="M691 198l50 -189q-102 -36 -210 -36q-315 0 -315 294v218h-117v185h117v204h-163v201h163v295h236v-295h265v-201h-265v-204h210v-185h-210v-159q0 -86 26.5 -117t96.5 -31q52 0 116 20z" />
    <glyph glyph-name="Utilde" unicode="&#x168;" horiz-adv-x="1486" 
d="M873 1573q-73 0 -159 51q-65 38 -102 38q-30 0 -58 -19.5t-68 -69.5l-130 117q69 85 128 121.5t126 36.5q78 0 159 -51q62 -38 101 -38q34 0 61 21t67 68l130 -117q-69 -85 -128.5 -121.5t-126.5 -36.5zM731 -30q-149 0 -264.5 44.5t-187 123.5t-108 181t-36.5 222v934
h250v-914q0 -75 18.5 -137.5t58 -113.5t108 -80t161.5 -29t162 29t108 80t57.5 113.5t18.5 137.5v914h250v-934q0 -120 -36.5 -222t-107.5 -181t-187 -123.5t-265 -44.5z" />
    <glyph glyph-name="utilde" unicode="&#x169;" horiz-adv-x="1212" 
d="M466 1319q-30 0 -58 -19.5t-68 -69.5l-130 117q69 86 128 122t126 36q75 0 159 -51q60 -38 101 -38q33 0 61 21.5t66 67.5l131 -117q-69 -85 -128.5 -122t-126.5 -37q-72 0 -160 52q-67 38 -101 38zM829 1075h236v-1075h-232v132q-35 -61 -120 -110t-217 -49
q-156 0 -256.5 98t-100.5 274v730h236v-677q0 -108 52 -165t142 -57q116 0 188 82t72 189v628z" />
    <glyph glyph-name="Umacron" unicode="&#x16a;" horiz-adv-x="1486" 
d="M451 1634v162h585v-162h-585zM731 -30q-149 0 -264.5 44.5t-187 123.5t-108 181t-36.5 222v934h250v-914q0 -75 18.5 -137.5t58 -113.5t108 -80t161.5 -29t162 29t108 80t57.5 113.5t18.5 137.5v914h250v-934q0 -120 -36.5 -222t-107.5 -181t-187 -123.5t-265 -44.5z" />
    <glyph glyph-name="umacron" unicode="&#x16b;" horiz-adv-x="1212" 
d="M891 1427v-161h-586v161h586zM829 1075h236v-1075h-232v132q-35 -61 -120 -110t-217 -49q-156 0 -256.5 98t-100.5 274v730h236v-677q0 -108 52 -165t142 -57q116 0 188 82t72 189v628z" />
    <glyph glyph-name="Ubreve" unicode="&#x16c;" horiz-adv-x="1486" 
d="M744 1560q-138 0 -227 87t-98 233h173q9 -77 50.5 -124t101.5 -47t102 47t50 124h173q-9 -146 -98.5 -233t-226.5 -87zM731 -30q-149 0 -264.5 44.5t-187 123.5t-108 181t-36.5 222v934h250v-914q0 -75 18.5 -137.5t58 -113.5t108 -80t161.5 -29t162 29t108 80
t57.5 113.5t18.5 137.5v914h250v-934q0 -120 -36.5 -222t-107.5 -181t-187 -123.5t-265 -44.5z" />
    <glyph glyph-name="ubreve" unicode="&#x16d;" horiz-adv-x="1212" 
d="M598 1194q-137 0 -226.5 87.5t-98.5 232.5h173q9 -77 51 -124t101 -47q60 0 102 47t51 124h173q-9 -146 -98.5 -233t-227.5 -87zM829 1075h236v-1075h-232v132q-35 -61 -120 -110t-217 -49q-156 0 -256.5 98t-100.5 274v730h236v-677q0 -108 52 -165t142 -57
q116 0 188 82t72 189v628z" />
    <glyph glyph-name="Uring" unicode="&#x16e;" horiz-adv-x="1486" 
d="M744 1550q-103 0 -171 67.5t-68 168.5t68 167.5t171 66.5q101 0 169.5 -67t68.5 -167q0 -101 -68.5 -168.5t-169.5 -67.5zM744 1686q40 0 66.5 28t26.5 72q0 45 -26 72t-67 27q-42 0 -68 -27t-26 -72t26 -72.5t68 -27.5zM731 -30q-149 0 -264.5 44.5t-187 123.5t-108 181
t-36.5 222v934h250v-914q0 -75 18.5 -137.5t58 -113.5t108 -80t161.5 -29t162 29t108 80t57.5 113.5t18.5 137.5v914h250v-934q0 -120 -36.5 -222t-107.5 -181t-187 -123.5t-265 -44.5z" />
    <glyph glyph-name="uring" unicode="&#x16f;" horiz-adv-x="1212" 
d="M598 1180q-102 0 -170.5 67t-68.5 168q0 100 68.5 167.5t170.5 67.5t170.5 -67.5t68.5 -167.5q0 -101 -68.5 -168t-170.5 -67zM598 1514q-41 0 -67 -27.5t-26 -71.5q0 -46 26 -73.5t67 -27.5t67 28t26 73q0 44 -26 71.5t-67 27.5zM829 1075h236v-1075h-232v132
q-35 -61 -120 -110t-217 -49q-156 0 -256.5 98t-100.5 274v730h236v-677q0 -108 52 -165t142 -57q116 0 188 82t72 189v628z" />
    <glyph glyph-name="Uhungarumlaut" unicode="&#x170;" horiz-adv-x="1486" 
d="M454 1574l160 315h241l-207 -315h-194zM810 1574l161 315h240l-206 -315h-195zM731 -30q-149 0 -264.5 44.5t-187 123.5t-108 181t-36.5 222v934h250v-914q0 -75 18.5 -137.5t58 -113.5t108 -80t161.5 -29t162 29t108 80t57.5 113.5t18.5 137.5v914h250v-934
q0 -120 -36.5 -222t-107.5 -181t-187 -123.5t-265 -44.5z" />
    <glyph glyph-name="uhungarumlaut" unicode="&#x171;" horiz-adv-x="1212" 
d="M705 1523l-207 -316h-195l161 316h241zM854 1207h-195l161 316h241zM829 1075h236v-1075h-232v132q-35 -61 -120 -110t-217 -49q-156 0 -256.5 98t-100.5 274v730h236v-677q0 -108 52 -165t142 -57q116 0 188 82t72 189v628z" />
    <glyph glyph-name="Uogonek" unicode="&#x172;" horiz-adv-x="1462" 
d="M1077 1475h250v-934q0 -146 -53.5 -266.5t-158.5 -195.5q-52 -38 -79.5 -59.5t-65 -57t-54.5 -69.5t-17 -69q0 -40 27 -63.5t71 -23.5t95 31l67 -141q-80 -53 -176 -53q-118 0 -189.5 57.5t-71.5 152.5q0 100 89 189q-39 -3 -80 -3q-149 0 -264.5 44.5t-187 123.5
t-108 181t-36.5 222v934h250v-914q0 -75 18.5 -137.5t58 -113.5t108 -80t161.5 -29t162 29t108 80t57.5 113.5t18.5 137.5v914z" />
    <glyph glyph-name="uogonek" unicode="&#x173;" horiz-adv-x="1212" 
d="M1015 -232l67 -141q-83 -54 -176 -54q-117 0 -188.5 58t-71.5 153q0 135 187 235v113q-35 -61 -120 -110t-217 -49q-156 0 -256.5 98t-100.5 274v730h236v-677q0 -108 52 -165t142 -57q116 0 188 82t72 189v628h236v-1075h-90q-71 -38 -111.5 -85.5t-40.5 -90.5
q0 -40 27.5 -63.5t71.5 -23.5q45 0 93 31z" />
    <glyph glyph-name="Wcircumflex" unicode="&#x174;" horiz-adv-x="2145" 
d="M1073 1737l-128 -167h-208l225 310h223l223 -310h-209zM1820 1475h265l-446 -1475h-260l-304 1098l-304 -1098h-262l-449 1475h271l313 -1111l303 1111h255l304 -1111z" />
    <glyph glyph-name="wcircumflex" unicode="&#x175;" horiz-adv-x="1722" 
d="M862 1371l-128 -167h-209l225 310h223l223 -310h-208zM1438 1075h252l-328 -1075h-242l-258 804l-258 -804h-243l-329 1075h256l211 -780l244 780h239l244 -780z" />
    <glyph glyph-name="Ycircumflex" unicode="&#x176;" horiz-adv-x="1307" 
d="M654 1737l-128 -167h-209l226 310h223l223 -310h-209zM1009 1475h267l-496 -878v-597h-250v597l-497 878h269l353 -653z" />
    <glyph glyph-name="ycircumflex" unicode="&#x177;" horiz-adv-x="1115" 
d="M564 1371l-128 -167h-209l226 310h222l223 -310h-208zM835 1075h260l-484 -1234q-50 -127 -122 -177t-179 -50q-94 0 -190 28l56 188q72 -18 104 -18q45 0 70 18t43 67l54 144l-427 1034h259l286 -764z" />
    <glyph glyph-name="Ydieresis" unicode="&#x178;" horiz-adv-x="1307" 
d="M561 1828v-221h-233v221h233zM980 1828v-221h-234v221h234zM1009 1475h267l-496 -878v-597h-250v597l-497 878h269l353 -653z" />
    <glyph glyph-name="Zacute" unicode="&#x179;" horiz-adv-x="1316" 
d="M510 1574l161 314h241l-207 -314h-195zM85 0v209l795 1040h-776v226h1093v-210l-795 -1040h816v-225h-1133z" />
    <glyph glyph-name="zacute" unicode="&#x17a;" horiz-adv-x="1040" 
d="M378 1207l161 316h240l-207 -316h-194zM74 0v182l554 695h-527v198h818v-184l-555 -692h574v-199h-864z" />
    <glyph glyph-name="Zdotaccent" unicode="&#x17b;" horiz-adv-x="1316" 
d="M520 1603v225h252v-225h-252zM85 0v209l795 1040h-776v226h1093v-210l-795 -1040h816v-225h-1133z" />
    <glyph glyph-name="zdotaccent" unicode="&#x17c;" horiz-adv-x="1040" 
d="M394 1250v225h252v-225h-252zM74 0v182l554 695h-527v198h818v-184l-555 -692h574v-199h-864z" />
    <glyph glyph-name="Zcaron" unicode="&#x17d;" horiz-adv-x="1316" 
d="M755 1570h-224l-224 310h208l128 -167l126 167h209zM402 225h816v-225h-1133v209l795 1040h-776v226h1093v-210z" />
    <glyph glyph-name="zcaron" unicode="&#x17e;" horiz-adv-x="1040" 
d="M629 1204h-223l-225 310h209l127 -166l126 166h209zM364 199h574v-199h-864v182l554 695h-527v198h818v-184z" />
    <glyph glyph-name="longs" unicode="&#x17f;" horiz-adv-x="734" 
d="M549 1501q87 0 174 -26l-48 -184q-58 14 -96 14q-76 0 -105.5 -40.5t-29.5 -131.5v-1133h-235v874h-156v201h156v96q0 160 94.5 245t245.5 85z" />
    <glyph glyph-name="uni018F" unicode="&#x18f;" horiz-adv-x="1560" 
d="M744 1498q324 0 520 -208t196 -554q0 -347 -190.5 -557.5t-498.5 -210.5q-199 0 -351.5 96t-236 269t-83.5 397v81h1100q-18 216 -135.5 338t-324.5 122q-259 0 -398 -221l-192 141q97 151 247.5 229t346.5 78zM776 197q161 0 273.5 104t143.5 298h-828
q29 -191 139.5 -296.5t271.5 -105.5z" />
    <glyph glyph-name="florin" unicode="&#x192;" horiz-adv-x="997" 
d="M825 1252q-76 0 -115.5 -43.5t-50.5 -141.5l-23 -202h213v-183h-235l-45 -385q-18 -150 -114.5 -237.5t-245.5 -87.5q-99 0 -189 30l57 186q58 -15 95 -15q76 0 115.5 42.5t49.5 139.5l39 327h-188v183h209l30 255q19 158 114 245.5t247 87.5q98 0 189 -29l-62 -185
q-43 13 -90 13z" />
    <glyph glyph-name="uni01F4" unicode="&#x1f4;" horiz-adv-x="1525" 
d="M1060 1888l-207 -314h-195l161 314h241zM805 798h590v-798h-217v154q-59 -90 -161 -137.5t-235 -47.5q-306 0 -494 211.5t-188 556.5q0 349 193.5 558.5t513.5 209.5q174 0 320.5 -74t246.5 -220l-195 -132q-68 102 -157 149t-212 47q-202 0 -328 -145t-126 -393
q0 -249 124 -393.5t329 -144.5q165 0 267.5 92t103.5 266v34h-375v207z" />
    <glyph glyph-name="uni01F5" unicode="&#x1f5;" horiz-adv-x="1258" 
d="M871 1523l-206 -316h-195l161 316h240zM879 1075h231v-972q0 -225 -144.5 -357t-395.5 -132q-287 0 -461 177l137 161q129 -135 326 -135q145 0 223.5 80.5t78.5 202.5v80q-109 -160 -313 -160q-214 0 -347 149t-133 392q0 244 133 393t346 149q113 0 193.5 -46.5
t125.5 -115.5v134zM603 227q122 0 200.5 86.5t78.5 247.5t-78.5 248t-200.5 87q-125 0 -202.5 -90.5t-77.5 -244.5q0 -153 77.5 -243.5t202.5 -90.5z" />
    <glyph glyph-name="Aringacute" unicode="&#x1fa;" horiz-adv-x="1498" 
d="M1013 2196l-207 -315h-195l161 315h241zM1178 0l-130 355h-603l-130 -355h-265l541 1423q-80 67 -80 180q0 101 68 167.5t171 66.5q102 0 169.5 -66.5t67.5 -167.5q0 -113 -81 -181l542 -1422h-270zM750 1702q-42 0 -68 -27t-26 -72t26 -73t68 -28q40 0 66 28.5t26 72.5
q0 45 -25.5 72t-66.5 27zM523 569h447l-224 610z" />
    <glyph glyph-name="aringacute" unicode="&#x1fb;" horiz-adv-x="1139" 
d="M838 2013l-207 -315h-195l161 315h241zM565 1180q-102 0 -170 67t-68 168t68 168t170 67t170 -67t68 -168t-68 -168t-170 -67zM565 1514q-41 0 -67 -27.5t-26 -71.5q0 -46 26 -73.5t67 -27.5t67 28t26 73q0 44 -26 71.5t-67 27.5zM553 1101q209 0 328.5 -109t119.5 -323
v-669h-232v126q-40 -67 -120.5 -110t-198.5 -43q-160 0 -263.5 90.5t-103.5 245.5q0 341 518 341h164v13q0 119 -59 177.5t-165 58.5q-158 0 -260 -133l-152 138q70 94 180 145.5t244 51.5zM766 403v75h-128q-76 0 -132 -7.5t-101.5 -25.5t-68.5 -51t-23 -80q0 -76 49 -116
t137 -40q117 0 192 78.5t75 166.5z" />
    <glyph glyph-name="AEacute" unicode="&#x1fc;" horiz-adv-x="2194" 
d="M1758 1888l-207 -314h-194l161 314h240zM1343 225h757v-225h-1006v355h-548l-217 -355h-292l919 1475h1134v-226h-747v-392h676v-217h-676v-415zM679 573h415v678z" />
    <glyph glyph-name="aeacute" unicode="&#x1fd;" horiz-adv-x="1800" 
d="M1167 1523l-208 -316h-194l161 316h241zM1722 510v-47h-726q13 -138 82.5 -215t195.5 -77q70 0 130.5 31t116.5 110l168 -122q-71 -105 -178.5 -161.5t-234.5 -56.5q-270 0 -402 198q-136 -198 -404 -198q-103 0 -189 35.5t-142 113t-56 184.5q0 324 496 324h173v27
q0 243 -220 243q-75 0 -140.5 -33t-109.5 -95l-150 137q70 94 176.5 143.5t235.5 49.5q243 0 351 -173q127 175 350 175q214 0 345.5 -161t131.5 -432zM996 629h482q-16 128 -81.5 200t-155.5 72q-96 0 -161.5 -70t-83.5 -202zM753 393v70h-155q-148 0 -217 -38t-69 -118
q0 -74 52 -113.5t139 -39.5q76 0 135 39.5t87 93t28 106.5z" />
    <glyph glyph-name="Oslashacute" unicode="&#x1fe;" horiz-adv-x="1608" 
d="M1070 1888l-207 -314h-194l160 314h241zM1349 1260q160 -205 160 -523q0 -348 -191 -558t-513 -210q-221 0 -383 102l-148 -189l-162 133l152 196q-164 206 -164 526q0 230 85.5 403.5t246 269t373.5 95.5q223 0 388 -104l144 186l163 -132zM805 1275
q-204 0 -326.5 -145.5t-122.5 -392.5q0 -195 79 -330l620 794q-108 74 -250 74zM805 200q204 0 326 144.5t122 392.5q0 194 -75 326l-619 -792q104 -71 246 -71z" />
    <glyph glyph-name="oslashacute" unicode="&#x1ff;" horiz-adv-x="1226" 
d="M873 1523l-206 -316h-195l161 316h240zM1025 919q122 -151 122 -380q0 -257 -149.5 -412t-383.5 -155q-152 0 -273 69l-113 -144l-138 109l117 150q-123 151 -123 383q0 256 148 410t382 154q156 0 278 -71l110 143l139 -110zM614 894q-132 0 -210 -96t-78 -259
q0 -117 40 -200l401 512q-66 43 -153 43zM614 181q133 0 212 97t79 261q0 114 -39 195l-400 -512q64 -41 148 -41z" />
    <glyph glyph-name="uni0218" unicode="&#x218;" horiz-adv-x="1381" 
d="M732 867q72 -13 111 -20.5t107 -26.5t107 -38.5t88.5 -54.5t76.5 -76.5t46 -102.5t19 -135q0 -204 -156 -324t-421 -120q-211 0 -371 79t-254 231l188 137q133 -222 439 -222q144 0 231.5 58.5t87.5 153.5q0 33 -11 61t-26.5 48t-45.5 37.5t-55 28.5t-69 22.5t-73 17.5
t-80 16q-70 13 -108.5 21t-104 26t-103.5 37.5t-85.5 52.5t-73 72.5t-43.5 97t-18 126.5q0 197 153 316t409 119q194 0 347 -73.5t238 -208.5l-190 -134q-52 89 -158 140t-239 51q-137 0 -221 -56.5t-84 -146.5q0 -35 12 -63t37.5 -48.5t52.5 -35t71.5 -27t79.5 -19.5
t89 -17zM599 -272v193h241v-199q0 -115 -154 -190l-57 86q53 27 74.5 50.5t21.5 59.5h-126z" />
    <glyph glyph-name="uni0219" unicode="&#x219;" horiz-adv-x="1073" 
d="M602 645q68 -11 118.5 -23.5t106 -37.5t91 -58.5t58.5 -88t23 -124.5q0 -164 -122.5 -254t-323.5 -90q-334 0 -501 215l162 137q118 -150 343 -150q97 0 153 34.5t56 95.5q0 27 -12.5 48t-32 34.5t-55.5 24.5t-69.5 17.5t-88.5 15.5q-88 14 -154 36.5t-123.5 60.5
t-87.5 98.5t-30 141.5q0 153 118.5 240t314.5 87q278 0 435 -184l-155 -138q-107 121 -281 121q-89 0 -144 -30t-55 -88q0 -33 17 -56t54 -39t78 -25.5t107 -20.5zM437 -272v193h240v-199q0 -61 -38.5 -106.5t-114.5 -83.5l-58 86q53 27 74.5 50.5t21.5 59.5h-125z" />
    <glyph glyph-name="uni021A" unicode="&#x21a;" horiz-adv-x="1270" 
d="M1228 1475v-226h-468v-1249h-250v1249h-468v226h1186zM515 -272v193h241v-199q0 -115 -154 -190l-57 86q53 27 74.5 50.5t21.5 59.5h-126z" />
    <glyph glyph-name="uni021B" unicode="&#x21b;" horiz-adv-x="807" 
d="M741 9q-105 -37 -210 -37q-315 0 -315 294v608h-163v201h163v296h236v-296h265v-201h-265v-550q0 -85 26.5 -116t96.5 -31q49 0 116 21zM357 -272v193h241v-199q0 -115 -154 -190l-57 86q53 27 74.5 50.5t21.5 59.5h-126z" />
    <glyph glyph-name="uni0237" unicode="&#x237;" horiz-adv-x="530" 
d="M70 -380q-83 0 -167 28l49 190q55 -14 91 -14q58 0 81 31t23 108v1112h236v-1153q0 -156 -75.5 -229t-237.5 -73z" />
    <glyph glyph-name="uni0259" unicode="&#x259;" horiz-adv-x="1185" 
d="M563 1103q243 0 392.5 -156t149.5 -401q0 -258 -143.5 -416t-372.5 -158q-230 0 -371.5 158t-141.5 412v69h784q-14 137 -90 215t-212 78q-83 0 -149.5 -31t-122.5 -109l-170 120q154 219 447 219zM590 171q101 0 171 67t93 189h-530q24 -122 94.5 -189t171.5 -67z" />
    <glyph glyph-name="h.sups" unicode="&#x2b0;" horiz-adv-x="795" 
d="M480 1492q103 0 171 -62.5t68 -181.5v-476h-190v430q0 129 -113 129q-64 0 -102.5 -44t-38.5 -108v-407h-189v959h189v-332q29 40 81.5 66.5t123.5 26.5z" />
    <glyph glyph-name="j.sups" unicode="&#x2b2;" horiz-adv-x="339" 
d="M72 1573v158h196v-158h-196zM29 524q-61 0 -121 20l36 147q33 -8 61 -8q38 0 54.5 20t16.5 67v705h189v-727q0 -119 -55 -171.5t-181 -52.5z" />
    <glyph glyph-name="r.sups" unicode="&#x2b3;" horiz-adv-x="575" 
d="M467 1490q35 0 83 -11l-30 -166q-27 7 -74 7q-77 0 -124 -56.5t-47 -145.5v-346h-189v703h182v-103q25 51 77.5 84.5t121.5 33.5z" />
    <glyph glyph-name="w.sups" unicode="&#x2b7;" horiz-adv-x="1148" 
d="M931 1475h194l-205 -703h-187l-156 495l-157 -495h-188l-208 703h197l122 -469l145 469h177l145 -468z" />
    <glyph glyph-name="y.sups" unicode="&#x2b8;" horiz-adv-x="751" 
d="M532 1475h203l-304 -785q-36 -96 -90.5 -132t-133.5 -36q-75 0 -144 21l47 146q54 -13 69 -13q56 0 75 50l36 87l-274 662h195l167 -452z" />
    <glyph glyph-name="circumflex" unicode="&#x2c6;" horiz-adv-x="614" 
d="M623 1204h-209l-126 167l-128 -167h-208l224 310h223z" />
    <glyph glyph-name="caron" unicode="&#x2c7;" horiz-adv-x="614" 
d="M414 1514h209l-224 -310h-223l-224 310h208l128 -166z" />
    <glyph glyph-name="uni02C9" unicode="&#x2c9;" horiz-adv-x="628" 
d="M20 1266v161h585v-161h-585z" />
    <glyph glyph-name="breve" unicode="&#x2d8;" horiz-adv-x="685" 
d="M319 1194q-138 0 -227 87t-98 233h173q9 -77 51 -124t101 -47q60 0 102 47t50 124h173q-9 -145 -98.5 -232.5t-226.5 -87.5z" />
    <glyph glyph-name="dotaccent" unicode="&#x2d9;" horiz-adv-x="614" 
d="M146 1250v225h252v-225h-252z" />
    <glyph glyph-name="ring" unicode="&#x2da;" horiz-adv-x="614" 
d="M299 1180q-103 0 -171 67t-68 168q0 100 68.5 167.5t170.5 67.5t170 -67t68 -168t-68 -168t-170 -67zM299 1314q41 0 66.5 28t25.5 73q0 44 -25.5 71.5t-66.5 27.5t-67 -27.5t-26 -71.5q0 -46 26 -73.5t67 -27.5z" />
    <glyph glyph-name="ogonek" unicode="&#x2db;" horiz-adv-x="614" 
d="M263 -427q-117 0 -188.5 58t-71.5 153q0 155 237 260l124 -28q-85 -40 -135 -91.5t-50 -100.5q0 -39 27.5 -63t72.5 -24t93 31l67 -141q-84 -54 -176 -54z" />
    <glyph glyph-name="tilde" unicode="&#x2dc;" horiz-adv-x="746" 
d="M514 1229q-71 0 -159 52q-66 38 -101 38q-30 0 -58 -19.5t-68 -69.5l-130 117q68 85 127.5 121.5t126.5 36.5q75 0 159 -51q60 -38 101 -38q33 0 61 21.5t66 67.5l130 -117q-68 -85 -128 -122t-127 -37z" />
    <glyph glyph-name="hungarumlaut" unicode="&#x2dd;" horiz-adv-x="768" 
d="M10 1207l161 316h241l-207 -316h-195zM367 1207l160 316h241l-207 -316h-194z" />
    <glyph glyph-name="l.sups" unicode="&#x2e1;" horiz-adv-x="361" 
d="M86 772v959h189v-959h-189z" />
    <glyph glyph-name="s.sups" unicode="&#x2e2;" horiz-adv-x="715" 
d="M369 752q-206 0 -334 135l109 110q94 -94 228 -94q55 0 85.5 18t30.5 51q0 35 -33.5 51t-123.5 29q-261 37 -261 222q0 102 80.5 161.5t217.5 59.5q188 0 294 -113l-107 -108q-76 71 -188 71q-51 0 -81 -16t-30 -46q0 -34 35 -50.5t121 -28.5q262 -35 262 -218
q0 -113 -84.5 -173.5t-220.5 -60.5z" />
    <glyph glyph-name="x.sups" unicode="&#x2e3;" horiz-adv-x="753" 
d="M726 772h-207l-141 227l-141 -227h-209l239 365l-225 338h209l127 -209l127 209h206l-225 -337z" />
    <glyph glyph-name="gravecomb" unicode="&#x300;" horiz-adv-x="0" 
d="M-607 1207l-207 316h241l160 -316h-194z" />
    <glyph glyph-name="acutecomb" unicode="&#x301;" horiz-adv-x="0" 
d="M-814 1207l160 316h241l-207 -316h-194z" />
    <glyph glyph-name="uni0302" unicode="&#x302;" horiz-adv-x="0" 
d="M-279 1204h-208l-126 167l-127 -167h-209l224 310h223z" />
    <glyph glyph-name="tildecomb" unicode="&#x303;" horiz-adv-x="0" 
d="M-483 1229q-71 0 -159 52q-67 38 -101 38q-30 0 -58 -19.5t-68 -69.5l-130 117q68 85 127.5 121.5t126.5 36.5q74 0 158 -51q60 -38 102 -38q33 0 61 21.5t66 67.5l131 -117q-69 -85 -129 -122t-127 -37z" />
    <glyph glyph-name="uni0304" unicode="&#x304;" horiz-adv-x="0" 
d="M-906 1266v161h584v-161h-584z" />
    <glyph glyph-name="uni0306" unicode="&#x306;" horiz-adv-x="0" 
d="M-613 1194q-137 0 -227 87.5t-98 232.5h172q9 -77 51.5 -124t101.5 -47t101 47t51 124h172q-8 -146 -97 -233t-227 -87z" />
    <glyph glyph-name="uni0307" unicode="&#x307;" horiz-adv-x="0" 
d="M-739 1250v225h252v-225h-252z" />
    <glyph glyph-name="uni0308" unicode="&#x308;" horiz-adv-x="0" 
d="M-924 1256v219h232v-219h-232zM-535 1256v219h232v-219h-232z" />
    <glyph glyph-name="uni030A" unicode="&#x30a;" horiz-adv-x="0" 
d="M-613 1180q-103 0 -171 67t-68 168q0 100 68.5 167.5t170.5 67.5t169.5 -67t67.5 -168t-67.5 -168t-169.5 -67zM-613 1314q41 0 66.5 28t25.5 73q0 44 -25.5 71.5t-66.5 27.5t-67.5 -27.5t-26.5 -71.5q0 -45 26 -73t68 -28z" />
    <glyph glyph-name="uni030B" unicode="&#x30b;" horiz-adv-x="0" 
d="M-992 1207l161 316h240l-207 -316h-194zM-636 1207l160 316h242l-207 -316h-195z" />
    <glyph glyph-name="uni030C" unicode="&#x30c;" horiz-adv-x="0" 
d="M-487 1514h208l-223 -310h-223l-224 310h209l127 -166z" />
    <glyph glyph-name="uni0312" unicode="&#x312;" horiz-adv-x="0" 
d="M-636 1399h126v-194h-241v199q0 115 154 190l57 -86q-53 -27 -74.5 -50.5t-21.5 -58.5z" />
    <glyph glyph-name="uni0313" unicode="&#x313;" horiz-adv-x="0" 
d="M-326 1475h279v-296q0 -118 -37 -190.5t-127 -141.5l-94 104q71 46 94.5 101t23.5 137h-139v286z" />
    <glyph glyph-name="dotbelowcomb" unicode="&#x323;" horiz-adv-x="0" 
d="M-739 -302v224h252v-224h-252z" />
    <glyph glyph-name="uni0324" unicode="&#x324;" horiz-adv-x="0" 
d="M-924 -296v218h232v-218h-232zM-535 -296v218h232v-218h-232z" />
    <glyph glyph-name="uni0325" unicode="&#x325;" horiz-adv-x="0" 
d="M-613 -549q-103 0 -171 67.5t-68 168.5q0 100 68.5 167t170.5 67t169.5 -66.5t67.5 -167.5t-67.5 -168.5t-169.5 -67.5zM-613 -415q41 0 66.5 28.5t25.5 73.5t-25.5 72t-66.5 27q-42 0 -68 -27t-26 -72q0 -46 26.5 -74t67.5 -28z" />
    <glyph glyph-name="uni0326" unicode="&#x326;" horiz-adv-x="0" 
d="M-373 -79h241v-199q0 -115 -154 -190l-57 86q53 27 74.5 50.5t21.5 59.5h-126v193z" />
    <glyph glyph-name="uni0327" unicode="&#x327;" horiz-adv-x="0" 
d="M-768 -341l111 348h198l-110 -348h-199z" />
    <glyph glyph-name="uni0328" unicode="&#x328;" horiz-adv-x="0" 
d="M-571 -427q-118 0 -190 58t-72 153q0 155 238 260l124 -28q-85 -40 -134.5 -91.5t-49.5 -100.5q0 -40 27 -63.5t72 -23.5q44 0 92 31l69 -141q-84 -54 -176 -54z" />
    <glyph glyph-name="uni032E" unicode="&#x32e;" horiz-adv-x="0" 
d="M-613 -399q-137 0 -227 87.5t-98 232.5h172q9 -76 51.5 -123t101.5 -47t101 47t51 123h172q-8 -146 -97 -233t-227 -87z" />
    <glyph glyph-name="uni0331" unicode="&#x331;" horiz-adv-x="0" 
d="M-906 -240v162h584v-162h-584z" />
    <glyph glyph-name="uni0394" unicode="&#x394;" horiz-adv-x="1425" 
d="M854 1475l486 -1273v-202h-1255v202l489 1273h280zM358 226h711l-355 952z" />
    <glyph glyph-name="uni03A9" unicode="&#x3a9;" horiz-adv-x="1627" 
d="M68 0v226h268q-227 179 -227 540q0 218 85 385t245.5 260.5t373.5 93.5t374 -93.5t246.5 -260.5t85.5 -385q0 -360 -228 -540h269v-226h-603v213q147 65 226 202.5t79 328.5q0 241 -123 384t-326 143q-202 0 -324.5 -143t-122.5 -384q0 -191 78.5 -328.5t225.5 -202.5
v-213h-602z" />
    <glyph glyph-name="uni03BC" unicode="&#x3bc;" horiz-adv-x="1220" 
d="M838 1075h235v-1075h-235v125q-35 -60 -118 -106t-200 -46q-77 0 -137 30v-402h-236v1474h236v-674q0 -108 52.5 -164.5t142.5 -56.5q116 0 188 82t72 190v623z" />
    <glyph glyph-name="pi" unicode="&#x3c0;" horiz-adv-x="1330" 
d="M1276 878h-189v-624q0 -39 12.5 -55t45.5 -16q37 0 80 18l43 -187q-90 -30 -163 -30q-116 0 -184.5 55t-68.5 173v666h-374v-878h-235v878h-189v197h1222v-197z" />
    <glyph glyph-name="uni0E3F" unicode="&#xe3f;" horiz-adv-x="1395" 
d="M1054 732q115 -41 173 -127t58 -207q0 -186 -114 -292t-319 -106h-52v-179h-213v179h-401v1423h401v180h213v-180h18q204 0 319.5 -99.5t115.5 -271.5q0 -109 -51 -191.5t-148 -128.5zM429 1208v-390h158v390h-158zM1005 1013q0 89 -55 141t-150 54v-390q95 3 150 55.5
t55 139.5zM429 214h158v413h-158v-413zM829 214q95 0 152 57t57 151q0 93 -58 149t-156 56h-24v-413h29z" />
    <glyph glyph-name="a.sups" unicode="&#x1d43;" horiz-adv-x="750" 
d="M358 1489q152 0 234 -70.5t82 -211.5v-435h-185v70q-67 -86 -197 -86q-106 0 -174 59t-68 159q0 222 320 222h113v15q0 125 -139 125q-96 0 -160 -71l-102 111q97 113 276 113zM484 1026v45h-94q-84 0 -126 -19.5t-42 -71.5q0 -43 29 -67t81 -24q64 0 108 42t44 95z" />
    <glyph glyph-name="b.sups" unicode="&#x1d47;" horiz-adv-x="829" 
d="M482 1491q131 0 215 -102t84 -266t-84 -266t-215 -102q-72 0 -128.5 30t-87.5 73v-86h-184v959h189v-337q32 41 87 69t124 28zM428 915q72 0 116 56t44 152t-44 152t-116 56t-117 -56t-45 -152t45 -152t117 -56z" />
    <glyph glyph-name="d.sups" unicode="&#x1d48;" horiz-adv-x="834" 
d="M559 1731h190v-959h-185v86q-31 -43 -87.5 -73t-127.5 -30q-132 0 -216 102t-84 266t84.5 266t215.5 102q69 0 123.5 -28t86.5 -70v338zM401 915q72 0 117.5 56t45.5 152t-45.5 152t-117.5 56t-115.5 -56t-43.5 -152t43.5 -152t115.5 -56z" />
    <glyph glyph-name="e.sups" unicode="&#x1d49;" horiz-adv-x="782" 
d="M243 1071q20 -167 174 -167q108 0 170 84l123 -96q-55 -70 -134 -103.5t-164 -33.5q-165 0 -264 99t-99 262q0 169 95 272.5t250 103.5q153 0 248 -108.5t95 -286.5v-26h-494zM393 1343q-55 0 -94 -37t-53 -109h296q-13 71 -52.5 108.5t-96.5 37.5z" />
    <glyph glyph-name="g.sups" unicode="&#x1d4d;" horiz-adv-x="835" 
d="M566 1475h184v-639q0 -146 -99 -230t-270 -84q-193 0 -311 110l97 127q88 -82 212 -82q89 0 135 46.5t46 115.5v51q-71 -98 -198 -98q-138 0 -225.5 97t-87.5 252q0 157 87 254t226 97q70 0 122.5 -30t81.5 -73v86zM403 951q72 0 117.5 50.5t45.5 139.5q0 91 -45 141
t-118 50t-117 -51.5t-44 -139.5q0 -87 44 -138.5t117 -51.5z" />
    <glyph glyph-name="k.sups" unicode="&#x1d4f;" horiz-adv-x="769" 
d="M537 772l-175 285l-87 -99v-186h-189v959h189v-534l240 278h217l-251 -284l263 -419h-207z" />
    <glyph glyph-name="m.sups" unicode="&#x1d50;" horiz-adv-x="1185" 
d="M889 1492q96 0 158 -59.5t62 -174.5v-486h-189v434q0 125 -101 125q-58 0 -92.5 -43.5t-34.5 -110.5v-405h-189v434q0 125 -101 125q-58 0 -92.5 -43.5t-34.5 -110.5v-405h-189v703h183v-87q65 104 204 104q66 0 117.5 -29t78.5 -86q32 47 88.5 81t131.5 34z" />
    <glyph glyph-name="o.sups" unicode="&#x1d52;" horiz-adv-x="813" 
d="M407 755q-159 0 -258.5 101.5t-99.5 266.5q0 166 100 267.5t258 101.5t257.5 -101.5t99.5 -267.5t-99.5 -267t-257.5 -101zM407 916q75 0 119.5 55.5t44.5 151.5t-44.5 151.5t-119.5 55.5t-120 -55.5t-45 -151.5t45 -151.5t120 -55.5z" />
    <glyph glyph-name="p.sups" unicode="&#x1d56;" horiz-adv-x="834" 
d="M487 1492q131 0 214.5 -102t83.5 -267q0 -164 -83.5 -265.5t-214.5 -101.5q-70 0 -124.5 28t-87.5 70v-315h-189v936h184v-87q31 44 88 74t129 30zM433 916q72 0 116 55.5t44 151.5t-44 151.5t-116 55.5t-117.5 -55.5t-45.5 -151.5q0 -95 45.5 -151t117.5 -56z" />
    <glyph glyph-name="t.sups" unicode="&#x1d57;" horiz-adv-x="592" 
d="M499 927l38 -147q-73 -25 -157 -25q-105 0 -165.5 50.5t-60.5 158.5v355h-109v156h109v196h189v-196h171v-156h-171v-305q0 -55 18.5 -76.5t63.5 -21.5q27 0 74 11z" />
    <glyph glyph-name="u.sups" unicode="&#x1d58;" horiz-adv-x="795" 
d="M520 1475h190v-703h-184v86q-28 -43 -82.5 -72.5t-129.5 -29.5q-102 0 -169 61.5t-67 180.5v477h188v-431q0 -64 29.5 -96.5t84.5 -32.5q64 0 102 44.5t38 108.5v407z" />
    <glyph glyph-name="v.sups" unicode="&#x1d5b;" horiz-adv-x="756" 
d="M542 1475h198l-268 -703h-188l-268 703h200l162 -488z" />
    <glyph glyph-name="c.sups" unicode="&#x1d9c;" horiz-adv-x="753" 
d="M403 755q-159 0 -256.5 100.5t-97.5 265.5q0 167 96.5 268.5t256.5 101.5q213 0 308 -182l-158 -76q-51 95 -145 95q-77 0 -120.5 -56.5t-43.5 -149.5q0 -95 44.5 -150.5t119.5 -55.5q96 0 145 103l159 -73q-55 -108 -131.5 -149.5t-176.5 -41.5z" />
    <glyph glyph-name="f.sups" unicode="&#x1da0;" horiz-adv-x="534" 
d="M336 1508v-33h170v-156h-170v-547h-190v547h-101v156h101v50q0 106 67 164.5t177 58.5q69 0 129 -19l-30 -136q-44 10 -68 10q-44 0 -64.5 -22.5t-20.5 -72.5z" />
    <glyph glyph-name="z.sups" unicode="&#x1dbb;" horiz-adv-x="668" 
d="M43 772v143l343 404h-328v156h555v-144l-343 -403h356v-156h-583z" />
    <glyph glyph-name="Wgrave" unicode="&#x1e80;" horiz-adv-x="2145" 
d="M1208 1574h-194l-207 314h241zM1820 1475h265l-446 -1475h-260l-304 1098l-304 -1098h-262l-449 1475h271l313 -1111l303 1111h255l304 -1111z" />
    <glyph glyph-name="wgrave" unicode="&#x1e81;" horiz-adv-x="1722" 
d="M1004 1207h-195l-207 316h242zM1438 1075h252l-328 -1075h-242l-258 804l-258 -804h-243l-329 1075h256l211 -780l244 780h239l244 -780z" />
    <glyph glyph-name="Wacute" unicode="&#x1e82;" horiz-adv-x="2145" 
d="M1339 1888l-207 -314h-195l161 314h241zM1820 1475h265l-446 -1475h-260l-304 1098l-304 -1098h-262l-449 1475h271l313 -1111l303 1111h255l304 -1111z" />
    <glyph glyph-name="wacute" unicode="&#x1e83;" horiz-adv-x="1722" 
d="M1120 1523l-207 -316h-194l161 316h240zM1438 1075h252l-328 -1075h-242l-258 804l-258 -804h-243l-329 1075h256l211 -780l244 780h239l244 -780z" />
    <glyph glyph-name="Wdieresis" unicode="&#x1e84;" horiz-adv-x="2145" 
d="M981 1828v-221h-235v221h235zM1399 1828v-221h-234v221h234zM1820 1475h265l-446 -1475h-260l-304 1098l-304 -1098h-262l-449 1475h271l313 -1111l303 1111h255l304 -1111z" />
    <glyph glyph-name="wdieresis" unicode="&#x1e85;" horiz-adv-x="1722" 
d="M782 1475v-219h-231v219h231zM1171 1475v-219h-231v219h231zM1438 1075h252l-328 -1075h-242l-258 804l-258 -804h-243l-329 1075h256l211 -780l244 780h239l244 -780z" />
    <glyph glyph-name="uni1E9E" unicode="&#x1e9e;" horiz-adv-x="1456" 
d="M936 896q78 -5 149 -37t127 -88.5t89.5 -142.5t33.5 -189q0 -208 -130 -335.5t-344 -127.5q-129 0 -257 31l44 216q114 -28 187 -28q114 0 179.5 66.5t65.5 180.5q0 115 -63.5 185t-167.5 70q-36 0 -76 -14l-136 183l327 385h-304q-136 0 -198 -75t-62 -233v-943h-249
v974q0 236 122.5 368.5t356.5 132.5h636v-198z" />
    <glyph glyph-name="Ygrave" unicode="&#x1ef2;" horiz-adv-x="1307" 
d="M790 1574h-195l-207 314h241zM1009 1475h267l-496 -878v-597h-250v597l-497 878h269l353 -653z" />
    <glyph glyph-name="ygrave" unicode="&#x1ef3;" horiz-adv-x="1115" 
d="M707 1207h-195l-208 316h242zM835 1075h260l-484 -1234q-50 -127 -122 -177t-179 -50q-94 0 -190 28l56 188q72 -18 104 -18q45 0 70 18t43 67l54 144l-427 1034h259l286 -764z" />
    <glyph glyph-name="uni2007" unicode="&#x2007;" horiz-adv-x="614" 
 />
    <glyph glyph-name="thinspace" unicode="&#x2009;" horiz-adv-x="225" 
 />
    <glyph glyph-name="uni2011" unicode="&#x2011;" horiz-adv-x="819" 
d="M125 480v200h569v-200h-569z" />
    <glyph glyph-name="endash" unicode="&#x2013;" horiz-adv-x="1177" 
d="M125 480v200h927v-200h-927z" />
    <glyph glyph-name="emdash" unicode="&#x2014;" horiz-adv-x="2003" 
d="M125 480v200h1753v-200h-1753z" />
    <glyph glyph-name="quoteleft" unicode="&#x2018;" horiz-adv-x="542" 
d="M272 1160h139v-287h-279v297q0 118 37 190.5t127 141.5l94 -105q-71 -46 -94.5 -100.5t-23.5 -136.5z" />
    <glyph glyph-name="quoteright" unicode="&#x2019;" horiz-adv-x="542" 
d="M132 1475h279v-296q0 -118 -37 -190.5t-127 -141.5l-94 104q71 46 94 100.5t23 137.5h-138v286z" />
    <glyph glyph-name="quotesinglbase" unicode="&#x201a;" horiz-adv-x="542" 
d="M132 286h279v-296q0 -118 -37 -190.5t-127 -141.5l-94 104q71 46 94 100.5t23 137.5h-138v286z" />
    <glyph glyph-name="quotedblleft" unicode="&#x201c;" horiz-adv-x="951" 
d="M390 1402q-71 -47 -94.5 -101.5t-23.5 -136.5h139v-285h-279v296q0 118 37 190t127 141zM681 1164h138v-285h-278v296q0 118 37 190t127 141l94 -104q-71 -47 -94.5 -101.5t-23.5 -136.5z" />
    <glyph glyph-name="quotedblright" unicode="&#x201d;" horiz-adv-x="951" 
d="M132 1189v286h279v-296q0 -118 -37 -190.5t-127 -141.5l-94 104q71 46 94 100.5t23 137.5h-138zM541 1475h278v-296q0 -118 -37 -190.5t-127 -141.5l-93 104q70 46 93.5 101t23.5 137h-138v286z" />
    <glyph glyph-name="quotedblbase" unicode="&#x201e;" horiz-adv-x="951" 
d="M132 0v286h279v-296q0 -118 -37 -190.5t-127 -141.5l-94 104q71 46 94 100.5t23 137.5h-138zM541 286h278v-296q0 -118 -37 -190.5t-127 -141.5l-93 104q70 46 93.5 101t23.5 137h-138v286z" />
    <glyph glyph-name="dagger" unicode="&#x2020;" horiz-adv-x="730" 
d="M676 1252v-171h-211v-585h-198v585h-213v171h213v223h198v-223h211z" />
    <glyph glyph-name="daggerdbl" unicode="&#x2021;" horiz-adv-x="730" 
d="M676 1089h-211v-207h211v-170h-211v-216h-198v216h-213v170h213v207h-213v171h213v215h198v-215h211v-171z" />
    <glyph glyph-name="bullet" unicode="&#x2022;" horiz-adv-x="739" 
d="M370 393q-92 0 -158 65.5t-66 157.5q0 93 66 158.5t158 65.5t157.5 -65.5t65.5 -158.5q0 -92 -65.5 -157.5t-157.5 -65.5z" />
    <glyph glyph-name="ellipsis" unicode="&#x2026;" horiz-adv-x="1532" 
d="M132 0v286h279v-286h-279zM628 0v286h278v-286h-278zM1122 0v286h280v-286h-280z" />
    <glyph glyph-name="perthousand" unicode="&#x2030;" horiz-adv-x="2857" 
d="M489 673q-164 0 -267 106.5t-103 279.5t103 279.5t267 106.5t267.5 -106.5t103.5 -279.5t-103.5 -279.5t-267.5 -106.5zM447 0l910 1423h207l-910 -1423h-207zM489 847q81 0 130.5 58.5t49.5 153.5q0 96 -49.5 154.5t-130.5 58.5t-130 -58.5t-49 -154.5q0 -95 49 -153.5
t130 -58.5zM1513 -22q-164 0 -266.5 107t-102.5 280t102.5 279.5t266.5 106.5t267.5 -106.5t103.5 -279.5t-103.5 -280t-267.5 -107zM2370 -22q-164 0 -267.5 107t-103.5 280t103.5 279.5t267.5 106.5t266.5 -106.5t102.5 -279.5t-102.5 -280t-266.5 -107zM1513 152
q82 0 131.5 58.5t49.5 154.5q0 95 -49.5 154t-131.5 59q-81 0 -130 -58.5t-49 -154.5t49 -154.5t130 -58.5zM2370 152q81 0 130 58.5t49 154.5t-49 154.5t-130 58.5q-82 0 -131.5 -59t-49.5 -154q0 -96 49.5 -154.5t131.5 -58.5z" />
    <glyph glyph-name="minute" unicode="&#x2032;" horiz-adv-x="592" 
d="M132 918l105 557h224l-145 -557h-184z" />
    <glyph glyph-name="second" unicode="&#x2033;" horiz-adv-x="939" 
d="M132 918l105 557h224l-145 -557h-184zM477 918l105 557h225l-145 -557h-185z" />
    <glyph glyph-name="uni2034" unicode="&#x2034;" horiz-adv-x="1284" 
d="M132 918l105 557h224l-145 -557h-184zM477 918l105 557h225l-145 -557h-185zM823 918l105 557h224l-144 -557h-185z" />
    <glyph glyph-name="guilsinglleft" unicode="&#x2039;" horiz-adv-x="675" 
d="M421 161l-329 412l329 413l146 -123l-229 -290l229 -289z" />
    <glyph glyph-name="guilsinglright" unicode="&#x203a;" horiz-adv-x="675" 
d="M255 161l-146 123l229 289l-229 290l146 123l329 -413z" />
    <glyph glyph-name="fraction" unicode="&#x2044;" horiz-adv-x="417" 
d="M-366 0l943 1475h205l-942 -1475h-206z" />
    <glyph glyph-name="zero.sups" unicode="&#x2070;" horiz-adv-x="891" 
d="M447 754q-181 0 -281 130t-100 352q0 221 100 351t281 130t281.5 -130t100.5 -351q0 -222 -100.5 -352t-281.5 -130zM447 927q88 0 136 84t48 225q0 140 -48 224t-136 84q-89 0 -136.5 -84t-47.5 -224q0 -141 47.5 -225t136.5 -84z" />
    <glyph glyph-name="i.sups" unicode="&#x2071;" horiz-adv-x="339" 
d="M73 1573v158h195v-158h-195zM76 772v703h188v-703h-188z" />
    <glyph glyph-name="four.sups" unicode="&#x2074;" horiz-adv-x="813" 
d="M782 1127v-165h-126v-189h-193v189h-422v159l405 577h210v-571h126zM225 1127h238v350z" />
    <glyph glyph-name="five.sups" unicode="&#x2075;" horiz-adv-x="820" 
d="M450 1386q139 0 222.5 -82.5t83.5 -220.5q0 -149 -96 -239t-254 -90q-124 0 -215.5 55.5t-130.5 145.5l163 89q23 -57 69 -88t109 -31q70 0 113 44t43 115q0 69 -41 111.5t-107 42.5q-101 0 -149 -83h-172l67 543h556v-166h-405l-24 -200q73 54 168 54z" />
    <glyph glyph-name="six.sups" unicode="&#x2076;" horiz-adv-x="827" 
d="M460 1377q140 0 226 -83t86 -221q0 -142 -92.5 -229.5t-242.5 -87.5q-247 0 -336 233q-35 87 -35 238q0 232 103.5 362t281.5 130q202 0 312 -166l-143 -101q-56 98 -162 98q-99 0 -147.5 -74.5t-54.5 -188.5q82 90 204 90zM434 916q68 0 108.5 43.5t40.5 112.5
q0 70 -40.5 113.5t-109.5 43.5q-71 0 -113 -45.5t-42 -111.5q0 -65 43 -110.5t113 -45.5z" />
    <glyph glyph-name="seven.sups" unicode="&#x2077;" horiz-adv-x="736" 
d="M41 1698h667v-159q-156 -171 -233 -359t-83 -407h-206q16 427 309 760h-454v165z" />
    <glyph glyph-name="eight.sups" unicode="&#x2078;" horiz-adv-x="839" 
d="M419 754q-162 0 -260.5 75.5t-98.5 199.5q0 159 176 219q-64 24 -105 81.5t-41 124.5q0 111 90.5 187t238.5 76t238.5 -76t90.5 -187q0 -67 -41 -124.5t-105 -81.5q175 -60 175 -219q0 -124 -98 -199.5t-260 -75.5zM419 1314q65 0 105.5 34.5t40.5 88.5q0 57 -40 93
t-106 36t-107 -36t-41 -93q0 -54 41 -88.5t107 -34.5zM419 908q74 0 120 37.5t46 98.5t-45.5 96t-120.5 35t-120.5 -35t-45.5 -96t45.5 -98.5t120.5 -37.5z" />
    <glyph glyph-name="nine.sups" unicode="&#x2079;" horiz-adv-x="826" 
d="M725 1490q37 -95 37 -243q0 -233 -102 -364t-270 -131q-212 0 -323 169l139 104q59 -105 178 -105q81 0 131.5 69.5t55.5 199.5q-80 -86 -201 -86q-143 0 -229 82.5t-86 215.5q0 140 91 227.5t244 87.5q246 0 335 -226zM394 1251q71 0 113.5 43.5t42.5 108.5t-43 108
t-113 43q-68 0 -109 -41.5t-41 -109.5t41 -110t109 -42z" />
    <glyph glyph-name="n.sups" unicode="&#x207f;" horiz-adv-x="795" 
d="M481 1492q103 0 170.5 -62.5t67.5 -181.5v-476h-190v430q0 129 -113 129q-64 0 -102.5 -44t-38.5 -108v-407h-189v703h183v-83q27 42 81.5 71t130.5 29z" />
    <glyph glyph-name="zero.subs" unicode="&#x2080;" horiz-adv-x="891" 
d="M447 -255q-181 0 -281 129.5t-100 351.5t100 352.5t281 130.5t281.5 -130.5t100.5 -352.5q0 -221 -100.5 -351t-281.5 -130zM447 -82q88 0 136 84t48 224t-48 224.5t-136 84.5q-89 0 -136.5 -84.5t-47.5 -224.5t47.5 -224t136.5 -84z" />
    <glyph glyph-name="one.subs" unicode="&#x2081;" horiz-adv-x="654" 
d="M529 689v-925h-193v690l-165 -147l-112 121l293 261h177z" />
    <glyph glyph-name="two.subs" unicode="&#x2082;" horiz-adv-x="786" 
d="M337 -71h387v-165h-663v155l317 297q81 75 109.5 117t28.5 94q0 50 -33.5 81t-91.5 31q-63 0 -102 -42.5t-53 -114.5l-181 43q28 136 119 210t224 74q140 0 227.5 -76.5t87.5 -203.5q0 -83 -42.5 -153t-144.5 -167z" />
    <glyph glyph-name="three.subs" unicode="&#x2083;" horiz-adv-x="841" 
d="M609 236q150 -65 150 -214q0 -125 -93 -201.5t-247 -76.5q-134 0 -230 61.5t-134 170.5l168 71q25 -65 73.5 -100t115.5 -35q68 0 108 35t40 93q0 53 -37.5 83.5t-99.5 30.5h-89v152h68q65 0 102 31t37 87q0 53 -35 85t-93 32q-129 0 -167 -138l-171 48
q30 122 120.5 189.5t224.5 67.5q142 0 230 -75.5t88 -195.5q0 -137 -129 -201z" />
    <glyph glyph-name="four.subs" unicode="&#x2084;" horiz-adv-x="813" 
d="M782 119v-166h-126v-189h-193v189h-422v160l405 576h210v-570h126zM225 119h238v349z" />
    <glyph glyph-name="five.subs" unicode="&#x2085;" horiz-adv-x="820" 
d="M450 378q139 0 222.5 -82.5t83.5 -221.5q0 -148 -96 -238.5t-254 -90.5q-124 0 -215.5 55.5t-130.5 146.5l163 89q23 -57 69 -88.5t109 -31.5q70 0 113 44.5t43 115.5q0 68 -40.5 110t-107.5 42q-102 0 -149 -82h-172l67 543h556v-166h-405l-24 -200q72 55 168 55z" />
    <glyph glyph-name="six.subs" unicode="&#x2086;" horiz-adv-x="827" 
d="M460 369q140 0 226 -83.5t86 -220.5q0 -143 -92.5 -231t-242.5 -88q-247 0 -336 235q-35 88 -35 237q0 232 103.5 362t281.5 130q202 0 312 -165l-143 -103q-57 100 -162 100q-51 0 -90 -21.5t-62 -59.5t-35 -83.5t-15 -98.5q82 90 204 90zM434 -92q68 0 108.5 43
t40.5 112t-40.5 112.5t-109.5 43.5q-71 0 -113 -45t-42 -111q0 -65 43 -110t113 -45z" />
    <glyph glyph-name="seven.subs" unicode="&#x2087;" horiz-adv-x="736" 
d="M41 689h667v-160q-156 -171 -233 -358.5t-83 -406.5h-206q16 427 309 759h-454v166z" />
    <glyph glyph-name="eight.subs" unicode="&#x2088;" horiz-adv-x="839" 
d="M419 -255q-162 0 -260.5 75.5t-98.5 199.5q0 160 176 220q-64 24 -105 80.5t-41 124.5q0 111 90.5 187.5t238.5 76.5t238.5 -76.5t90.5 -187.5q0 -68 -41 -124.5t-105 -80.5q175 -60 175 -220q0 -124 -98 -199.5t-260 -75.5zM419 305q65 0 105.5 34.5t40.5 88.5
q0 57 -40 93t-106 36t-107 -36t-41 -93q0 -54 41 -88.5t107 -34.5zM419 -100q74 0 120 37.5t46 98.5q0 60 -45.5 94.5t-120.5 34.5t-120.5 -34.5t-45.5 -94.5q0 -61 45.5 -98.5t120.5 -37.5z" />
    <glyph glyph-name="nine.subs" unicode="&#x2089;" horiz-adv-x="826" 
d="M725 480q37 -94 37 -241q0 -233 -102 -365t-270 -132q-213 0 -323 170l139 104q59 -105 178 -105q81 0 131.5 69.5t55.5 199.5q-79 -87 -201 -87q-142 0 -228.5 82.5t-86.5 216.5q0 140 91 227.5t244 87.5q246 0 335 -227zM394 243q72 0 114 43t42 108t-43 108.5
t-113 43.5q-68 0 -109 -42t-41 -110t41 -109.5t109 -41.5z" />
    <glyph glyph-name="n.subs" unicode="&#x2099;" horiz-adv-x="794" 
d="M477 718q103 0 170 -62.5t67 -179.5v-476h-180v432q0 66 -31 99.5t-87 33.5q-67 0 -107.5 -46t-40.5 -111v-408h-180v701h175v-85q28 43 82.5 72.5t131.5 29.5z" />
    <glyph glyph-name="uni20A9" unicode="&#x20a9;" horiz-adv-x="2066" 
d="M2006 890h-197l-42 -152h239v-169h-286l-157 -569h-265l-144 569h-236l-144 -569h-266l-160 569h-288v169h241l-43 152h-198v169h151l-102 364h270l91 -364h352l90 364h247l90 -364h353l91 364h265l-101 -364h149v-169zM780 890h-268l39 -152h191zM961 738h151l-39 152
h-75zM1560 890h-269l38 -152h192zM647 352l53 217h-107zM1479 569h-108l53 -217z" />
    <glyph glyph-name="Euro" unicode="&#x20ac;" horiz-adv-x="1477" 
d="M1196 385l192 -120q-181 -297 -528 -297q-243 0 -403 133t-215 367h-166v168h141q-2 50 -2 74q0 23 2 73h-141v169h166q56 235 215.5 369t396.5 134q356 0 529 -270l-190 -128q-106 181 -331 181q-134 0 -226.5 -75t-135.5 -211h465v-169h-495q-3 -36 -3 -72q0 -37 3 -75
h495v-168h-465q43 -136 136 -210t231 -74q222 0 329 201z" />
    <glyph glyph-name="uni20B8" unicode="&#x20b8;" horiz-adv-x="1270" 
d="M44 1475h1184v-207h-1184v207zM1228 1106v-225h-468v-881h-249v881h-469v225h1186z" />
    <glyph glyph-name="uni20B9" unicode="&#x20b9;" horiz-adv-x="1171" 
d="M1137 1255h-273q66 -81 83 -183h190v-169h-188q-25 -166 -143.5 -258.5t-308.5 -92.5h-80l559 -552h-298l-562 552v193h344q90 0 151 42t85 116h-580v169h579q-23 74 -84.5 116t-150.5 42h-344v193h1021v-168z" />
    <glyph glyph-name="uni20BA" unicode="&#x20ba;" horiz-adv-x="1275" 
d="M996 589l208 -55q-57 -247 -239 -390.5t-440 -143.5h-250v514l-192 -63v164l192 65v130l-192 -64v165l192 64v448h243v-379l400 133v-166l-400 -132v-130l400 132v-165l-400 -132v-370q180 0 309 101t169 274z" />
    <glyph glyph-name="uni20BC" unicode="&#x20bc;" horiz-adv-x="1736" 
d="M975 1225q301 -32 467 -235.5t166 -543.5v-446h-243v416q0 246 -102 397.5t-288 186.5v-861h-213v861q-186 -35 -288 -186.5t-102 -397.5v-416h-243v446q0 340 166 543.5t467 235.5v198h213v-198z" />
    <glyph glyph-name="uni2113" unicode="&#x2113;" horiz-adv-x="922" 
d="M800 227l56 -192q-135 -62 -291 -62q-163 0 -252 89t-89 252v119q-94 -33 -135 -45l-57 159q126 40 192 68v520q0 144 87.5 230.5t232.5 86.5q136 0 217.5 -89.5t81.5 -240.5q0 -196 -94 -337.5t-289 -247.5v-195q0 -84 32 -122.5t102 -38.5q100 0 206 46zM460 1122v-372
q181 143 181 353q0 68 -23 104.5t-66 36.5t-67.5 -32.5t-24.5 -89.5z" />
    <glyph glyph-name="uni2117" unicode="&#x2117;" horiz-adv-x="1889" 
d="M945 1551q170 0 321.5 -63t260 -171t172 -259t63.5 -321t-63.5 -321t-172 -259t-260 -171t-321.5 -63t-322 63t-260.5 171t-172 259t-63.5 321t63.5 321t172 259t260.5 171t322 63zM945 95q131 0 247 48.5t199.5 133t132 204.5t48.5 256t-48.5 256t-132 204.5t-199.5 133
t-247 48.5t-247.5 -48.5t-200 -133t-132 -204.5t-48.5 -256t48.5 -256t132 -204.5t200 -133t247.5 -48.5zM1053 1184q138 0 216 -76.5t78 -209.5q0 -132 -78 -207.5t-216 -75.5h-217v-318h-183v887h400zM1034 777q57 0 90.5 33.5t33.5 87.5t-33.5 87t-90.5 33h-198v-241h198
z" />
    <glyph glyph-name="uni2120" unicode="&#x2120;" horiz-adv-x="1666" 
d="M421 1201q35 -5 54.5 -9t53 -12.5t54 -18.5t45.5 -28t39 -39.5t24 -53.5t10 -71q0 -103 -79 -161.5t-218 -58.5q-200 0 -319 122l100 111q86 -86 223 -86q56 0 89 19t33 52q0 21 -11 36t-35 24.5t-45.5 15t-59.5 11.5t-62 11.5t-59 16.5t-57.5 26t-45 37.5t-33 55
t-10.5 73.5q0 101 77 160t207 59q185 0 296 -111l-97 -106q-85 71 -195 71q-54 0 -85.5 -18t-31.5 -49q0 -35 35 -51.5t103 -27.5zM1575 1475v-708h-166v447l-141 -447h-159l-141 447v-447h-165v708h222l164 -493l163 493h223z" />
    <glyph glyph-name="trademark" unicode="&#x2122;" horiz-adv-x="1600" 
d="M655 1475v-149h-214v-559h-166v559h-214v149h594zM1509 1475v-708h-164v452l-143 -452h-159l-141 447v-447h-165v708h222l164 -493l163 493h223z" />
    <glyph glyph-name="uni2126" unicode="&#x2126;" horiz-adv-x="1627" 
d="M68 0v226h268q-227 179 -227 540q0 218 85 385t245.5 260.5t373.5 93.5t374 -93.5t246.5 -260.5t85.5 -385q0 -360 -228 -540h269v-226h-603v213q147 65 226 202.5t79 328.5q0 241 -123 384t-326 143q-202 0 -324.5 -143t-122.5 -384q0 -191 78.5 -328.5t225.5 -202.5
v-213h-602z" />
    <glyph glyph-name="estimated" unicode="&#x212e;" horiz-adv-x="1858" 
d="M930 -17q-198 0 -341 50.5t-258 159.5q-229 217 -229 544q0 332 232 546q118 109 258.5 160t337.5 51q180 0 315.5 -45t255.5 -142q117 -94 182 -246.5t73 -344.5h-1316q-11 0 -17 -2t-10.5 -10.5t-4.5 -25.5v-370q0 -31 38.5 -75t103.5 -87.5t167.5 -74t212.5 -30.5
q150 0 289.5 67t233.5 173h155q-155 -173 -310 -236q-89 -36 -165.5 -49t-202.5 -13zM441 763h971q24 0 30.5 7.5t6.5 28.5v362q0 58 -80 124t-204 111t-238 45q-104 0 -205 -32t-167 -76t-106.5 -87t-40.5 -69v-395q0 -19 33 -19z" />
    <glyph glyph-name="uni2150" unicode="&#x2150;" horiz-adv-x="2088" 
d="M530 550h-193v689l-165 -147l-113 121l293 262h178v-925zM1327 1475h206l-942 -1475h-206zM1290 925h667v-160q-156 -171 -233 -358.5t-83 -406.5h-205q8 216 83 402.5t225 356.5h-454v166z" />
    <glyph glyph-name="uni2151" unicode="&#x2151;" horiz-adv-x="2068" 
d="M530 550h-193v689l-165 -147l-113 121l293 262h178v-925zM1327 1475h206l-942 -1475h-206zM1900 718q36 -91 36 -242q0 -233 -102 -364.5t-269 -131.5q-214 0 -324 170l139 104q59 -106 179 -106q81 0 131.5 70t55.5 200q-79 -87 -202 -87q-142 0 -228 82.5t-86 216.5
q0 140 91 227t244 87q246 0 335 -226zM1569 480q71 0 113 43.5t42 108.5t-42.5 108t-112.5 43q-68 0 -109.5 -41.5t-41.5 -109.5t41.5 -110t109.5 -42z" />
    <glyph glyph-name="uni2152" unicode="&#x2152;" horiz-adv-x="2775" 
d="M530 550h-193v689l-165 -147l-113 121l293 262h178v-925zM1327 1475h206l-942 -1475h-206zM2262 944q181 0 281.5 -130t100.5 -352q0 -221 -100.5 -351t-281.5 -130t-281.5 130t-100.5 351q0 222 100.5 352t281.5 130zM1690 925v-925h-194v689l-165 -146l-111 121
l292 261h178zM2262 154q88 0 135.5 84t47.5 224q0 141 -47.5 225t-135.5 84t-135.5 -84t-47.5 -225q0 -140 47.5 -224t135.5 -84z" />
    <glyph glyph-name="uni2153" unicode="&#x2153;" horiz-adv-x="2009" 
d="M530 550h-193v689l-165 -147l-113 121l293 262h178v-925zM1327 1475h206l-942 -1475h-206zM1777 471q149 -64 149 -214q0 -125 -93 -201t-247 -76q-134 0 -229.5 61.5t-133.5 170.5l168 71q52 -136 188 -136q68 0 108 35t40 93q0 53 -37.5 83.5t-99.5 30.5h-89v153h69
q65 0 101.5 30.5t36.5 86.5q0 53 -35 85t-93 32q-129 0 -167 -137l-171 47q30 122 120.5 189.5t224.5 67.5q142 0 230.5 -75t88.5 -195q0 -138 -129 -202z" />
    <glyph glyph-name="uni2154" unicode="&#x2154;" horiz-adv-x="2094" 
d="M378 1001q81 76 109.5 117.5t28.5 93.5q0 50 -33.5 81t-91.5 31q-64 0 -102.5 -42.5t-52.5 -114.5l-181 43q28 136 118.5 210t224.5 74q139 0 227 -77t88 -203q0 -82 -43 -152.5t-144 -167.5l-189 -179h387v-165h-663v155zM1411 1475h206l-942 -1475h-206zM1862 471
q149 -64 149 -214q0 -125 -93 -201t-247 -76q-134 0 -229.5 61.5t-133.5 170.5l168 71q52 -136 188 -136q68 0 108 35t40 93q0 53 -37.5 83.5t-99.5 30.5h-89v153h69q65 0 101.5 30.5t36.5 86.5q0 53 -35 85t-93 32q-129 0 -167 -137l-171 47q30 122 120.5 189.5t224.5 67.5
q142 0 230.5 -75t88.5 -195q0 -138 -129 -202z" />
    <glyph glyph-name="uni2155" unicode="&#x2155;" horiz-adv-x="2056" 
d="M530 550h-193v689l-165 -147l-113 121l293 262h178v-925zM1327 1475h206l-942 -1475h-206zM1617 613q139 0 222.5 -82.5t83.5 -220.5q0 -149 -96 -239t-254 -90q-124 0 -215.5 55t-129.5 146l163 89q23 -57 69 -88t109 -31q70 0 112.5 44t42.5 115q0 69 -41 111.5
t-107 42.5q-101 0 -149 -83h-172l67 543h556v-166h-404l-25 -200q73 54 168 54z" />
    <glyph glyph-name="uni2156" unicode="&#x2156;" horiz-adv-x="2070" 
d="M378 1001q81 76 109.5 117.5t28.5 93.5q0 50 -33.5 81t-91.5 31q-64 0 -102.5 -42.5t-52.5 -114.5l-181 43q28 136 118.5 210t224.5 74q139 0 227 -77t88 -203q0 -82 -43 -152.5t-144 -167.5l-189 -179h387v-165h-663v155zM1411 1475h206l-942 -1475h-206zM1701 613
q139 0 222.5 -82.5t83.5 -220.5q0 -149 -96 -239t-254 -90q-124 0 -215 55t-130 146l164 89q23 -57 68.5 -88t108.5 -31q70 0 112.5 44t42.5 115q0 69 -40.5 111.5t-106.5 42.5q-101 0 -150 -83h-172l67 543h557v-166h-405l-25 -201q72 55 168 55z" />
    <glyph glyph-name="uni2157" unicode="&#x2157;" horiz-adv-x="2127" 
d="M759 808q0 -125 -93 -201.5t-247 -76.5q-134 0 -230 62t-134 171l168 71q25 -65 73.5 -100.5t115.5 -35.5q68 0 108 35t40 93q0 53 -37.5 83.5t-99.5 30.5h-89v153h68q65 0 102 30.5t37 86.5q0 53 -35 85t-93 32q-129 0 -167 -137l-171 47q30 122 120.5 189.5t224.5 67.5
q142 0 230 -75t88 -195q0 -138 -129 -202q150 -65 150 -214zM1446 1475h206l-942 -1475h-206zM1736 613q139 0 222.5 -82.5t83.5 -220.5q0 -149 -96 -239t-254 -90q-124 0 -215.5 55t-129.5 146l163 89q23 -57 69 -88t109 -31q70 0 112.5 44t42.5 115q0 69 -40.5 111.5
t-106.5 42.5q-102 0 -150 -83h-172l67 543h557v-166h-406l-24 -201q72 55 168 55z" />
    <glyph glyph-name="uni2158" unicode="&#x2158;" horiz-adv-x="2028" 
d="M463 550v188h-422v160l406 577h209v-571h125v-166h-125v-188h-193zM1400 1475h207l-942 -1475h-207zM225 904h238v348zM1691 613q138 0 221.5 -82.5t83.5 -220.5q0 -149 -96 -239t-254 -90q-124 0 -215.5 55t-130.5 146l164 89q23 -57 68.5 -88t108.5 -31q70 0 113 44
t43 115q0 69 -40.5 111.5t-106.5 42.5q-101 0 -150 -83h-171l66 543h557v-166h-406l-24 -201q72 55 169 55z" />
    <glyph glyph-name="uni2159" unicode="&#x2159;" horiz-adv-x="2070" 
d="M530 550h-193v689l-165 -147l-113 121l293 262h178v-925zM1327 1475h206l-942 -1475h-206zM1627 603q140 0 226 -83.5t86 -220.5q0 -143 -92 -230.5t-242 -87.5q-247 0 -336 234q-36 90 -36 238q0 231 103.5 361t281.5 130q202 0 312 -165l-143 -102q-56 99 -162 99
q-51 0 -90 -21.5t-62 -59.5t-35 -83.5t-15 -98.5q82 90 204 90zM1602 142q68 0 108 43.5t40 112.5t-40 112.5t-109 43.5q-71 0 -113.5 -45t-42.5 -111q0 -65 43.5 -110.5t113.5 -45.5z" />
    <glyph glyph-name="uni215A" unicode="&#x215a;" horiz-adv-x="2071" 
d="M756 860q0 -149 -96.5 -239.5t-255.5 -90.5q-124 0 -214.5 55.5t-129.5 146.5l163 89q23 -57 69 -88.5t109 -31.5q70 0 113 44.5t43 115.5q0 68 -40.5 110.5t-106.5 42.5q-102 0 -150 -82h-172l67 543h557v-165h-405l-25 -202q71 55 168 55q139 0 222.5 -82.5
t83.5 -220.5zM1397 1475h206l-943 -1475h-205zM1697 603q140 0 226 -83.5t86 -220.5q0 -143 -92.5 -230.5t-242.5 -87.5q-245 0 -336 234q-35 87 -35 238q0 231 103.5 361t282.5 130q201 0 311 -165l-143 -102q-56 99 -162 99q-51 0 -90 -21.5t-62 -59.5t-35 -83.5
t-15 -98.5q82 90 204 90zM1671 142q68 0 108.5 43.5t40.5 112.5t-40.5 112.5t-109.5 43.5q-71 0 -113.5 -45.5t-42.5 -110.5t43.5 -110.5t113.5 -45.5z" />
    <glyph glyph-name="oneeighth" unicode="&#x215b;" horiz-adv-x="2007" 
d="M530 550h-193v689l-165 -147l-113 121l293 262h178v-925zM1327 1475h206l-942 -1475h-206zM1769 475q176 -60 176 -219q0 -124 -98.5 -199.5t-260.5 -75.5t-260 75.5t-98 199.5q0 159 175 219q-64 24 -105 81.5t-41 124.5q0 111 90.5 187t238.5 76t238.5 -76t90.5 -187
q0 -67 -41 -124.5t-105 -81.5zM1586 793q-66 0 -106.5 -36t-40.5 -93q0 -54 41 -88.5t106 -34.5t106 34.5t41 88.5q0 57 -40.5 93t-106.5 36zM1586 135q74 0 120 37.5t46 98.5t-45.5 95.5t-120.5 34.5t-120.5 -34.5t-45.5 -95.5t45.5 -98.5t120.5 -37.5z" />
    <glyph glyph-name="threeeighths" unicode="&#x215c;" horiz-adv-x="2126" 
d="M759 808q0 -125 -93 -201.5t-247 -76.5q-134 0 -230 62t-134 171l168 71q25 -65 73.5 -100.5t115.5 -35.5q68 0 108 35t40 93q0 53 -37.5 83.5t-99.5 30.5h-89v153h68q65 0 102 30.5t37 86.5q0 53 -35 85t-93 32q-129 0 -167 -137l-171 47q30 122 120.5 189.5t224.5 67.5
q142 0 230 -75t88 -195q0 -138 -129 -202q150 -65 150 -214zM1446 1475h206l-942 -1475h-206zM1889 475q174 -60 174 -219q0 -124 -98 -199.5t-260 -75.5t-260 75.5t-98 199.5q0 159 175 219q-63 24 -104.5 81.5t-41.5 124.5q0 111 90.5 187t238.5 76t238.5 -76t90.5 -187
q0 -67 -41 -124.5t-104 -81.5zM1705 793q-66 0 -106 -36t-40 -93q0 -54 40.5 -88.5t105.5 -34.5q66 0 106.5 34.5t40.5 88.5q0 57 -40.5 93t-106.5 36zM1705 135q75 0 121 37.5t46 98.5q0 60 -46 95t-121 35t-120.5 -34.5t-45.5 -95.5t46 -98.5t120 -37.5z" />
    <glyph glyph-name="fiveeighths" unicode="&#x215d;" horiz-adv-x="2077" 
d="M756 860q0 -149 -96.5 -239.5t-255.5 -90.5q-124 0 -214.5 55.5t-129.5 146.5l163 89q23 -57 69 -88.5t109 -31.5q70 0 113 44.5t43 115.5q0 68 -40.5 110.5t-106.5 42.5q-102 0 -150 -82h-172l67 543h557v-165h-405l-25 -202q71 55 168 55q139 0 222.5 -82.5
t83.5 -220.5zM1397 1475h206l-943 -1475h-205zM1839 475q175 -60 175 -219q0 -124 -98 -199.5t-260 -75.5t-260.5 75.5t-98.5 199.5q0 159 176 219q-64 24 -105 81.5t-41 124.5q0 111 90.5 187t238.5 76t238.5 -76t90.5 -187q0 -67 -41 -124.5t-105 -81.5zM1656 793
q-66 0 -106.5 -36t-40.5 -93q0 -54 41 -88.5t106 -34.5t106 34.5t41 88.5q0 57 -40.5 93t-106.5 36zM1656 135q75 0 120.5 37.5t45.5 98.5t-45.5 95.5t-120.5 34.5t-120.5 -34.5t-45.5 -95.5t46 -98.5t120 -37.5z" />
    <glyph glyph-name="seveneighths" unicode="&#x215e;" horiz-adv-x="1911" 
d="M391 550h-206q16 428 311 760h-455v165h667v-160q-156 -170 -233 -357.5t-84 -407.5zM1231 1475h207l-942 -1475h-207zM1674 475q175 -60 175 -219q0 -124 -98 -199.5t-260 -75.5t-260 75.5t-98 199.5q0 159 174 219q-63 24 -104 81.5t-41 124.5q0 111 90.5 187t238.5 76
t238.5 -76t90.5 -187q0 -67 -41.5 -124.5t-104.5 -81.5zM1491 793q-66 0 -107 -36t-41 -93q0 -54 41 -88.5t107 -34.5q65 0 105.5 34.5t40.5 88.5q0 57 -40 93t-106 36zM1491 135q74 0 120 37.5t46 98.5t-45.5 95.5t-120.5 34.5t-121 -35t-46 -95q0 -61 46 -98.5t121 -37.5z
" />
    <glyph glyph-name="uni215F" unicode="&#x215f;" horiz-adv-x="1668" 
d="M530 550h-193v689l-165 -147l-113 121l293 262h178v-925zM1327 1475h206l-942 -1475h-206z" />
    <glyph glyph-name="uni2189" unicode="&#x2189;" horiz-adv-x="2131" 
d="M829 1012q0 -222 -100.5 -352.5t-281.5 -130.5t-281 130.5t-100 352.5t100 352t281 130t281.5 -130t100.5 -352zM1468 1475h207l-942 -1475h-207zM447 703q88 0 136 84.5t48 224.5t-48 224t-136 84t-135.5 -84t-47.5 -224t47.5 -224.5t135.5 -84.5zM1919 471
q149 -64 149 -214q0 -125 -92.5 -201t-246.5 -76q-134 0 -230 61.5t-134 170.5l168 71q52 -136 188 -136q68 0 108.5 35t40.5 93q0 53 -37.5 83.5t-99.5 30.5h-89v153h68q65 0 101.5 30.5t36.5 86.5q0 53 -35 85t-93 32q-129 0 -167 -137l-171 47q30 122 121 189.5t225 67.5
q142 0 230 -75t88 -195q0 -138 -129 -202z" />
    <glyph glyph-name="arrowleft" unicode="&#x2190;" horiz-adv-x="1792" 
d="M1690 750v-207h-1249l352 -346l-141 -141l-591 590l591 591l141 -141l-352 -346h1249z" />
    <glyph glyph-name="arrowup" unicode="&#x2191;" horiz-adv-x="1792" 
d="M1487 870l-141 -141l-347 351v-1248h-206v1248l-347 -351l-140 141l590 590z" />
    <glyph glyph-name="arrowright" unicode="&#x2192;" horiz-adv-x="1792" 
d="M1141 1237l590 -591l-590 -590l-142 141l352 346h-1249v207h1249l-352 346z" />
    <glyph glyph-name="arrowdown" unicode="&#x2193;" horiz-adv-x="1792" 
d="M1346 563l141 -140l-591 -591l-590 591l140 140l347 -351v1248h206v-1248z" />
    <glyph glyph-name="arrowboth" unicode="&#x2194;" horiz-adv-x="2194" 
d="M1543 1237l590 -591l-590 -590l-141 141l350 346h-1310l351 -346l-141 -141l-591 590l591 591l141 -141l-351 -346h1310l-350 346z" />
    <glyph glyph-name="arrowupdn" unicode="&#x2195;" horiz-adv-x="1792" 
d="M999 -8l347 350l141 -141l-591 -591l-590 591l140 141l347 -350v1308l-347 -350l-140 142l590 590l591 -590l-141 -142l-347 350v-1308z" />
    <glyph glyph-name="uni2196" unicode="&#x2196;" horiz-adv-x="1792" 
d="M1494 144l-146 -147l-882 882l3 -492h-200v835h836v-200l-493 4z" />
    <glyph glyph-name="uni2197" unicode="&#x2197;" horiz-adv-x="1792" 
d="M659 1222h835v-835h-200l4 492l-881 -882l-148 147l882 882l-492 -4v200z" />
    <glyph glyph-name="uni2198" unicode="&#x2198;" horiz-adv-x="1792" 
d="M1294 905h200v-834h-835v199l492 -4l-882 882l148 147l881 -881z" />
    <glyph glyph-name="uni2199" unicode="&#x2199;" horiz-adv-x="1792" 
d="M1494 1148l-882 -882l493 4v-199h-836v834h200l-3 -491l882 881z" />
    <glyph glyph-name="uni21B0" unicode="&#x21b0;" horiz-adv-x="1792" 
d="M1690 750v-932h-208v725h-1041l352 -346l-141 -141l-591 590l591 591l141 -141l-352 -346h1249z" />
    <glyph glyph-name="uni21B1" unicode="&#x21b1;" horiz-adv-x="1792" 
d="M1141 1237l590 -591l-590 -590l-142 141l352 346h-1041v-725h-208v932h1249l-352 346z" />
    <glyph glyph-name="uni21B3" unicode="&#x21b3;" horiz-adv-x="1792" 
d="M1141 1237l590 -591l-590 -590l-142 141l352 346h-1249v932h208v-725h1041l-352 346z" />
    <glyph glyph-name="carriagereturn" unicode="&#x21b5;" horiz-adv-x="1792" 
d="M1482 1475h208v-932h-1249l352 -346l-141 -141l-591 590l591 591l141 -141l-352 -346h1041v725z" />
    <glyph glyph-name="partialdiff" unicode="&#x2202;" horiz-adv-x="1224" 
d="M326 1508q406 -66 612 -313.5t206 -665.5q0 -255 -144.5 -405.5t-387.5 -150.5q-239 0 -385 149.5t-146 397.5t138.5 396.5t366.5 148.5q125 0 257 -80q-167 278 -561 345zM612 183q131 0 211 91.5t80 245.5t-80 245.5t-211 91.5t-210.5 -91.5t-79.5 -245.5
q0 -155 79 -246t211 -91z" />
    <glyph glyph-name="emptyset" unicode="&#x2205;" horiz-adv-x="1376" 
d="M1295 1030l-154 -154q114 -149 114 -341q0 -154 -76 -285t-206.5 -207t-283.5 -76q-192 0 -343 116l-156 -156l-109 111l155 155q-114 150 -114 342q0 153 76 283.5t206.5 206.5t284.5 76q189 0 341 -115l155 155zM364 535q0 -92 44 -171l455 455q-78 53 -174 53
q-134 0 -229.5 -98.5t-95.5 -238.5zM1013 535q0 91 -44 170l-456 -456q78 -53 176 -53q134 0 229 99t95 240z" />
    <glyph glyph-name="uni2206" unicode="&#x2206;" horiz-adv-x="1425" 
d="M854 1475l486 -1273v-202h-1255v202l489 1273h280zM358 226h711l-355 952z" />
    <glyph glyph-name="product" unicode="&#x220f;" horiz-adv-x="1476" 
d="M1311 1475v-1772h-250v1546h-645v-1546h-250v1772h1145z" />
    <glyph glyph-name="summation" unicode="&#x2211;" horiz-adv-x="1303" 
d="M166 -297v194l597 709l-597 675v194h1028v-226h-687l494 -557v-173l-494 -591h702v-225h-1043z" />
    <glyph glyph-name="minus" unicode="&#x2212;" 
d="M146 480v200h937v-200h-937z" />
    <glyph glyph-name="uni2215" unicode="&#x2215;" horiz-adv-x="1177" 
d="M20 0l943 1475h205l-942 -1475h-206z" />
    <glyph glyph-name="uni2219" unicode="&#x2219;" 
d="M614 454q-66 0 -112.5 46.5t-46.5 112.5t46.5 113.5t112.5 47.5t113.5 -47.5t47.5 -113.5t-47.5 -112.5t-113.5 -46.5z" />
    <glyph glyph-name="radical" unicode="&#x221a;" horiz-adv-x="1411" 
d="M1101 1475h260l-659 -1772h-263l-389 982l231 76l287 -756z" />
    <glyph glyph-name="infinity" unicode="&#x221e;" horiz-adv-x="1858" 
d="M1351 985q187 0 305 -116t118 -316t-118 -316t-305 -116q-128 0 -229 68t-198 188q-46 -57 -88 -98.5t-95 -79.5t-114.5 -58t-128.5 -20q-182 0 -297.5 116t-115.5 316t115.5 316t297.5 116q67 0 128.5 -20t114.5 -58t95 -79.5t88 -98.5q97 120 198 188t229 68zM511 336
q74 0 138 55t143 162q-79 107 -143 162t-138 55q-82 0 -135.5 -56t-53.5 -161t53.5 -161t135.5 -56zM1336 336q88 0 144 56t56 161t-56 161t-144 56q-74 0 -137 -54.5t-143 -162.5q80 -108 143 -162.5t137 -54.5z" />
    <glyph glyph-name="integral" unicode="&#x222b;" horiz-adv-x="646" 
d="M191 -327q-85 0 -179 28l43 196q57 -16 86 -16q61 0 61 76v1308q0 64 20.5 111t56.5 74t80 40t97 13q89 0 179 -27l-43 -196q-55 15 -87 15q-61 0 -61 -74v-1308q0 -124 -71 -182t-182 -58z" />
    <glyph glyph-name="approxequal" unicode="&#x2248;" 
d="M798 660q-43 0 -86.5 11t-70 23t-64.5 32q-96 48 -147 48q-50 0 -89.5 -27t-83.5 -90l-140 125q142 196 314 196q99 0 221 -66q92 -48 147 -48q101 0 173 116l140 -124q-141 -196 -314 -196zM798 237q-43 0 -87 11t-69.5 22.5t-64.5 31.5q-94 49 -147 49q-50 0 -89.5 -27
t-83.5 -90l-140 125q142 196 314 196q99 0 221 -66q92 -48 147 -48q101 0 173 116l140 -124q-141 -196 -314 -196z" />
    <glyph glyph-name="notequal" unicode="&#x2260;" 
d="M1083 711h-301l-94 -225h395v-200h-479l-97 -233h-240l98 233h-219v200h303l93 225h-396v200h480l96 232h241l-98 -232h218v-200z" />
    <glyph glyph-name="lessequal" unicode="&#x2264;" 
d="M1083 308l-937 355v227l937 354v-217l-728 -251l728 -251v-217zM1083 0h-937v201h937v-201z" />
    <glyph glyph-name="greaterequal" unicode="&#x2265;" 
d="M146 308v217l727 251l-727 251v217l937 -354v-227zM146 0v201h937v-201h-937z" />
    <glyph glyph-name="uni2300" unicode="&#x2300;" horiz-adv-x="1376" 
d="M1295 1030l-154 -154q114 -149 114 -341q0 -154 -76 -285t-206.5 -207t-283.5 -76q-192 0 -343 116l-156 -156l-109 111l155 155q-114 150 -114 342q0 153 76 283.5t206.5 206.5t284.5 76q189 0 341 -115l155 155zM364 535q0 -92 44 -171l455 455q-78 53 -174 53
q-134 0 -229.5 -98.5t-95.5 -238.5zM1013 535q0 91 -44 170l-456 -456q78 -53 176 -53q134 0 229 99t95 240z" />
    <glyph glyph-name="uni2460" unicode="&#x2460;" horiz-adv-x="2045" 
d="M1023 1603q249 0 448.5 -111t311.5 -308.5t112 -445.5q0 -186 -65.5 -346.5t-180.5 -274t-277 -178.5t-349 -65q-186 0 -348 65t-277 178.5t-181 274t-66 346.5t66 346.5t181 274.5t277 179t348 65zM1023 51q146 0 273 51.5t217 142t141.5 218.5t51.5 275t-51.5 275
t-141.5 218.5t-217 142t-273 51.5q-195 0 -351 -88t-243.5 -245t-87.5 -354t87.5 -354t243.5 -245t351 -88zM1162 1217v-925h-186v698l-166 -148l-107 117l288 258h171z" />
    <glyph glyph-name="uni2461" unicode="&#x2461;" horiz-adv-x="2046" 
d="M1023 1603q249 0 448.5 -111t312 -308.5t112.5 -445.5t-112.5 -445.5t-312 -308t-448.5 -110.5q-186 0 -348 65t-277 178.5t-181 274t-66 346.5t66 346.5t181 274.5t277 179t348 65zM1023 51q146 0 273 51.5t217 142t141.5 218.5t51.5 275t-51.5 275t-141.5 218.5
t-217 142t-273 51.5q-195 0 -351 -88t-243.5 -245t-87.5 -354t87.5 -354t243.5 -245t351 -88zM1148 636l-195 -184h394v-160h-660v149l317 299q83 79 112 121.5t29 95.5q0 51 -34.5 82.5t-94.5 31.5q-65 0 -105.5 -42.5t-54.5 -116.5l-174 41q28 135 118 209t222 74
q139 0 225.5 -76t86.5 -201q0 -84 -41.5 -155t-144.5 -168z" />
    <glyph glyph-name="uni2462" unicode="&#x2462;" horiz-adv-x="2046" 
d="M1024 1603q186 0 348 -65t277 -179t181 -274.5t66 -346.5t-66 -346.5t-181 -274t-277 -178.5t-348 -65q-249 0 -448.5 110.5t-312 308t-112.5 445.5t112.5 445.5t312 308.5t448.5 111zM1024 51q195 0 351 88t243.5 245t87.5 354t-87.5 354t-243.5 245t-351 88
q-147 0 -274 -51.5t-217 -142t-141 -218.5t-51 -275t51 -275t141 -218.5t217 -142t274 -51.5zM1201 765q161 -62 161 -215q0 -125 -92 -201.5t-245 -76.5q-133 0 -227.5 61.5t-133.5 170.5l161 68q53 -137 194 -137q70 0 110.5 36.5t40.5 95.5q0 54 -38.5 86t-102.5 32h-88
v149h69q67 0 104 31t37 89q0 54 -36.5 87t-95.5 33q-132 0 -170 -139l-166 46q31 122 120 188.5t222 66.5q141 0 228.5 -75t87.5 -195q0 -138 -140 -201z" />
    <glyph glyph-name="uni2463" unicode="&#x2463;" horiz-adv-x="2046" 
d="M1023 1603q249 0 448.5 -111t312 -308.5t112.5 -445.5t-112.5 -445.5t-312 -308t-448.5 -110.5q-186 0 -348 65t-277 178.5t-181 274t-66 346.5t66 346.5t181 274.5t277 179t348 65zM1023 51q146 0 273 51.5t217 142t141.5 218.5t51.5 275t-51.5 275t-141.5 218.5
t-217 142t-273 51.5q-195 0 -351 -88t-243.5 -245t-87.5 -354t87.5 -354t243.5 -245t351 -88zM1232 1217v-575h126v-160h-126v-190h-186v190h-425v154l409 581h202zM800 642h246v360z" />
    <glyph glyph-name="uni2464" unicode="&#x2464;" horiz-adv-x="2046" 
d="M1023 1603q249 0 448.5 -111t312 -308.5t112.5 -445.5t-112.5 -445.5t-312 -308t-448.5 -110.5q-186 0 -348 65t-277 178.5t-181 274t-66 346.5t66 346.5t181 274.5t277 179t348 65zM1023 51q146 0 273 51.5t217 142t141.5 218.5t51.5 275t-51.5 275t-141.5 218.5
t-217 142t-273 51.5q-195 0 -351 -88t-243.5 -245t-87.5 -354t87.5 -354t243.5 -245t351 -88zM1052 905q139 0 222.5 -82.5t83.5 -221.5q0 -147 -95.5 -237.5t-251.5 -90.5q-122 0 -214 55t-130 146l157 86q23 -58 71 -90t113 -32q72 0 115 47t43 117q0 71 -42 115t-109 44
q-104 0 -154 -85h-166l65 541h554v-160h-407l-24 -208q73 56 169 56z" />
    <glyph glyph-name="uni2465" unicode="&#x2465;" horiz-adv-x="2046" 
d="M1024 1603q186 0 348 -65t277 -179t181 -274.5t66 -346.5t-66 -346.5t-181 -274t-277 -178.5t-348 -65q-249 0 -448.5 110.5t-312 308t-112.5 445.5t112.5 445.5t312 308.5t448.5 111zM1024 51q195 0 351 88t243.5 245t87.5 354t-87.5 354t-243.5 245t-351 88
q-147 0 -274 -51.5t-217 -142t-141 -218.5t-51 -275t51 -275t141 -218.5t217 -142t274 -51.5zM1052 895q140 0 225.5 -83t85.5 -221q0 -143 -91.5 -231t-241.5 -88q-242 0 -333 233q-34 87 -34 238q0 232 102 362.5t279 130.5q200 0 310 -165l-139 -98q-59 101 -164 101
q-55 0 -95.5 -24t-63.5 -66t-34 -89.5t-13 -102.5q80 103 207 103zM1028 429q70 0 111.5 45t41.5 116t-42 116t-112 45q-73 0 -116.5 -47t-43.5 -114t44.5 -114t116.5 -47z" />
    <glyph glyph-name="uni2466" unicode="&#x2466;" horiz-adv-x="2046" 
d="M1023 1603q249 0 448.5 -111t312 -308.5t112.5 -445.5t-112.5 -445.5t-312 -308t-448.5 -110.5q-186 0 -348 65t-277 178.5t-181 274t-66 346.5t66 346.5t181 274.5t277 179t348 65zM1023 51q146 0 273 51.5t217 142t141.5 218.5t51.5 275t-51.5 275t-141.5 218.5
t-217 142t-273 51.5q-195 0 -351 -88t-243.5 -245t-87.5 -354t87.5 -354t243.5 -245t351 -88zM696 1057v160h663v-154q-158 -177 -234.5 -362.5t-82.5 -408.5h-198q8 219 82 404t227 361h-457z" />
    <glyph glyph-name="uni2467" unicode="&#x2467;" horiz-adv-x="2046" 
d="M1024 -126q-249 0 -448.5 110.5t-312 308t-112.5 445.5t112.5 445.5t312 308.5t448.5 111q186 0 348 -65t277 -179t181 -274.5t66 -346.5t-66 -346.5t-181 -274t-277 -178.5t-348 -65zM1024 51q195 0 351 88t243.5 245t87.5 354t-87.5 354t-243.5 245t-351 88
q-147 0 -274 -51.5t-217 -142t-141 -218.5t-51 -275t51 -275t141 -218.5t217 -142t274 -51.5zM1026 272q-162 0 -259 75.5t-97 199.5q0 160 175 220q-64 24 -105.5 81t-41.5 126q0 111 90.5 186.5t237.5 75.5t237 -75.5t90 -186.5q0 -69 -41 -126t-105 -81q175 -60 175 -220
q0 -124 -97 -199.5t-259 -75.5zM1026 831q67 0 109.5 35.5t42.5 90.5q0 58 -42.5 95t-109.5 37q-68 0 -110 -37t-42 -95q0 -55 42 -90.5t110 -35.5zM1026 422q76 0 123 38.5t47 100.5q0 63 -46.5 98.5t-123.5 35.5t-124 -35.5t-47 -98.5q0 -62 47 -100.5t124 -38.5z" />
    <glyph glyph-name="uni2468" unicode="&#x2468;" horiz-adv-x="2046" 
d="M1024 1603q186 0 348 -65t277 -179t181 -274.5t66 -346.5t-66 -346.5t-181 -274t-277 -178.5t-348 -65q-249 0 -448.5 110.5t-312 308t-112.5 445.5t112.5 445.5t312 308.5t448.5 111zM1024 51q195 0 351 88t243.5 245t87.5 354t-87.5 354t-243.5 245t-351 88
q-147 0 -274 -51.5t-217 -142t-141 -218.5t-51 -275t51 -275t141 -218.5t217 -142t274 -51.5zM1017 1236q245 0 332 -223q36 -89 36 -245q0 -234 -100.5 -365t-267.5 -131q-211 0 -322 169l135 102q62 -109 181 -109q85 0 136.5 74.5t55.5 213.5q-78 -99 -206 -99
q-141 0 -227 83t-86 216q0 140 90.5 227t242.5 87zM1022 767q73 0 116 45t43 112q0 66 -43.5 111t-115.5 45q-70 0 -112.5 -42.5t-42.5 -113.5q0 -70 42.5 -113.5t112.5 -43.5z" />
    <glyph glyph-name="uni24EA" unicode="&#x24ea;" horiz-adv-x="2046" 
d="M1024 -126q-249 0 -448.5 110.5t-312 308t-112.5 445.5t112.5 445.5t312 308.5t448.5 111q186 0 348 -65t277 -179t181 -274.5t66 -346.5t-66 -346.5t-181 -274t-277 -178.5t-348 -65zM1024 51q195 0 351 88t243.5 245t87.5 354t-87.5 354t-243.5 245t-351 88
q-147 0 -274 -51.5t-217 -142t-141 -218.5t-51 -275t51 -275t141 -218.5t217 -142t274 -51.5zM1024 274q-180 0 -280 130.5t-100 351.5q0 222 100 352t280 130t280 -130.5t100 -351.5t-100 -351.5t-280 -130.5zM1024 441q90 0 138.5 86t48.5 229t-48.5 229t-138.5 86
q-91 0 -139.5 -86t-48.5 -229t48.5 -229t139.5 -86z" />
    <glyph glyph-name="uni24FF" unicode="&#x24ff;" horiz-adv-x="2045" 
d="M1041 -144q-190 0 -355.5 66t-283 182t-185 280t-67.5 354t67.5 354t185 280t283 182.5t355.5 66.5t355.5 -66.5t283.5 -182.5t185.5 -280t67.5 -354q0 -189 -67.5 -353.5t-185.5 -280.5t-283.5 -182t-355.5 -66zM1041 271q186 0 289.5 130t103.5 354q0 223 -103.5 353
t-289.5 130t-289 -129.5t-103 -353.5t103 -354t289 -130zM1041 467q-80 0 -124 78t-44 210t44 209.5t124 77.5t124 -77.5t44 -209.5t-44 -210t-124 -78z" />
    <glyph glyph-name="filledbox" unicode="&#x25a0;" horiz-adv-x="1843" 
d="M184 0v1475h1475v-1475h-1475z" />
    <glyph glyph-name="uni25A1" unicode="&#x25a1;" horiz-adv-x="1843" 
d="M184 0v1475h1475v-1475h-1475zM420 224h1003v1026h-1003v-1026z" />
    <glyph glyph-name="uni25AE" unicode="&#x25ae;" horiz-adv-x="1105" 
d="M184 0v1475h738v-1475h-738z" />
    <glyph glyph-name="uni25AF" unicode="&#x25af;" horiz-adv-x="1105" 
d="M184 0v1475h738v-1475h-738zM381 189h344v1096h-344v-1096z" />
    <glyph glyph-name="triagup" unicode="&#x25b2;" horiz-adv-x="1843" 
d="M82 0l840 1495l839 -1495h-1679z" />
    <glyph glyph-name="uni25B3" unicode="&#x25b3;" horiz-adv-x="1843" 
d="M82 0l840 1495l839 -1495h-1679zM482 229h879l-439 789z" />
    <glyph glyph-name="uni25C6" unicode="&#x25c6;" horiz-adv-x="1843" 
d="M922 -52l-790 789l790 790l789 -790z" />
    <glyph glyph-name="uni25C7" unicode="&#x25c7;" horiz-adv-x="1843" 
d="M922 -52l-790 789l790 790l789 -790zM922 263l474 474l-474 474l-475 -474z" />
    <glyph glyph-name="lozenge" unicode="&#x25ca;" 
d="M720 1475l423 -738l-423 -737h-211l-423 737l423 738h211zM614 232l274 505l-274 505l-273 -505z" />
    <glyph glyph-name="circle" unicode="&#x25cb;" horiz-adv-x="1843" 
d="M923 -34q-209 0 -387 103.5t-281.5 281t-103.5 386.5t103.5 386.5t281.5 281t387 103.5t386 -103.5t280.5 -281t103.5 -386.5t-103.5 -386.5t-280.5 -281t-386 -103.5zM923 198q144 0 265.5 72t192 196t70.5 271t-70.5 271.5t-192 196.5t-265.5 72q-145 0 -267 -72
t-193 -196t-71 -272t71 -272t193 -195.5t267 -71.5z" />
    <glyph glyph-name="uni25CF" unicode="&#x25cf;" horiz-adv-x="1843" 
d="M923 -34q-209 0 -387 103.5t-281.5 281t-103.5 386.5t103.5 386.5t281.5 281t387 103.5t386 -103.5t280.5 -281t103.5 -386.5t-103.5 -386.5t-280.5 -281t-386 -103.5z" />
    <glyph glyph-name="uni2605" unicode="&#x2605;" horiz-adv-x="1843" 
d="M367 -72l218 654l-514 376h640l211 629l211 -629h640l-515 -376l219 -654l-555 407z" />
    <glyph glyph-name="uni2606" unicode="&#x2606;" horiz-adv-x="1843" 
d="M367 -72l218 654l-514 376h640l211 629l211 -629h640l-515 -376l219 -654l-555 407zM680 355l242 177l241 -177l-95 285l213 156h-265l-94 282l-95 -282h-265l213 -156z" />
    <glyph glyph-name="uni2661" unicode="&#x2661;" horiz-adv-x="1843" 
d="M1268 1499q184 0 313 -125.5t129 -314.5q0 -137 -57.5 -280t-164.5 -280.5t-248 -268t-318 -256.5q-177 126 -318.5 256.5t-248.5 268t-164.5 280.5t-57.5 280q0 189 129 314.5t313 125.5q114 0 211 -57.5t136 -132.5q39 75 135.5 132.5t210.5 57.5zM922 214
q271 200 425.5 420.5t154.5 413.5q0 112 -74.5 182t-179.5 70q-190 0 -324 -299h-4q-134 299 -325 299q-105 0 -179.5 -70t-74.5 -182q0 -193 155 -413.5t426 -420.5z" />
    <glyph glyph-name="uni2714" unicode="&#x2714;" horiz-adv-x="1843" 
d="M758 -41l-683 475l135 191l478 -334l875 1225l204 -143z" />
    <glyph glyph-name="uni2718" unicode="&#x2718;" horiz-adv-x="1843" 
d="M1700 1345l-607 -608l607 -607l-171 -171l-607 607l-608 -607l-171 171l608 607l-608 608l172 171l607 -608l607 608z" />
    <glyph glyph-name="uni2764" unicode="&#x2764;" horiz-adv-x="1843" 
d="M1275 1499q182 0 308.5 -125t126.5 -315q0 -137 -57.5 -280t-164.5 -280.5t-248 -268t-318 -256.5q-177 126 -318.5 256.5t-248.5 268t-164.5 280.5t-57.5 280q0 190 126.5 315t308.5 125q114 0 214.5 -58t139.5 -133q39 75 139 133t214 58z" />
    <glyph glyph-name="uni2776" unicode="&#x2776;" horiz-adv-x="2045" 
d="M1023 -126q-249 0 -448 110.5t-311.5 308t-112.5 445.5q0 186 66 347t181 274.5t277 178.5t348 65t348 -65t277 -178.5t181 -274.5t66 -347q0 -248 -112.5 -445.5t-311.5 -308t-448 -110.5zM976 292h193v925h-178l-293 -262l113 -121l165 147v-689z" />
    <glyph glyph-name="uni2777" unicode="&#x2777;" horiz-adv-x="2046" 
d="M1024 -126q-249 0 -448.5 110.5t-312 308t-112.5 445.5q0 186 66 347t181 274.5t277.5 178.5t348.5 65t348 -65t277 -178.5t181 -274.5t66 -347q0 -248 -112.5 -445.5t-311.5 -308t-448 -110.5zM686 292h663v165h-387l189 179q102 96 144 166.5t42 153.5q0 127 -87 203.5
t-226 76.5q-134 0 -225 -74t-119 -210l180 -43q14 72 53.5 114.5t102.5 42.5q58 0 91.5 -31t33.5 -81q0 -51 -29 -93.5t-110 -117.5l-316 -297v-154z" />
    <glyph glyph-name="uni2778" unicode="&#x2778;" horiz-adv-x="2046" 
d="M1024 -126q-249 0 -448.5 110.5t-312 308t-112.5 445.5q0 186 66 347t181 274.5t277.5 178.5t348.5 65t348 -65t277 -178.5t181 -274.5t66 -347q0 -248 -112.5 -445.5t-311.5 -308t-448 -110.5zM1026 272q154 0 247 76.5t93 201.5q0 150 -149 214q129 64 129 202
q0 120 -88.5 195t-230.5 75q-134 0 -224.5 -67.5t-120.5 -189.5l171 -47q38 137 167 137q58 0 93 -32t35 -85q0 -56 -36.5 -86.5t-101.5 -30.5h-69v-153h89q62 0 99.5 -30.5t37.5 -83.5q0 -58 -40 -93t-108 -35q-67 0 -115.5 35t-73.5 100l-167 -70q38 -109 133.5 -171
t229.5 -62z" />
    <glyph glyph-name="uni2779" unicode="&#x2779;" horiz-adv-x="2045" 
d="M1023 -126q-249 0 -448 110.5t-311.5 308t-112.5 445.5q0 186 66 347t181 274.5t277 178.5t348 65t348 -65t277 -178.5t181 -274.5t66 -347q0 -248 -112.5 -445.5t-311.5 -308t-448 -110.5zM1041 292h194v188h125v166h-125v571h-209l-406 -577v-160h421v-188zM804 646
l237 349v-349h-237z" />
    <glyph glyph-name="uni277A" unicode="&#x277a;" horiz-adv-x="2046" 
d="M1024 -126q-249 0 -448.5 110.5t-312 308t-112.5 445.5q0 186 66 347t181 274.5t277.5 178.5t348.5 65t348 -65t277 -178.5t181 -274.5t66 -347q0 -248 -112.5 -445.5t-311.5 -308t-448 -110.5zM1011 272q158 0 254 90.5t96 239.5q0 138 -83.5 220.5t-222.5 82.5
q-96 0 -168 -55l25 202h405v165h-557l-67 -543h172q47 82 149 82q67 0 107.5 -42.5t40.5 -110.5q0 -71 -43 -115.5t-112 -44.5q-63 0 -109.5 31.5t-69.5 88.5l-162 -89q39 -91 130 -146.5t215 -55.5z" />
    <glyph glyph-name="uni277B" unicode="&#x277b;" horiz-adv-x="2045" 
d="M1023 -126q-186 0 -348 64.5t-277 178t-181 274.5t-66 347q0 248 112.5 446t311.5 308.5t448 110.5t448 -110.5t311.5 -308t112.5 -446.5q0 -248 -112.5 -446t-311.5 -308t-448 -110zM1032 272q150 0 242.5 88t92.5 231q0 138 -86 221t-227 83q-121 0 -203 -90q0 12 1 19
q9 106 58 175t143 69q105 0 161 -99l144 102q-110 165 -312 165q-178 0 -282 -130.5t-104 -361.5q0 -146 35 -237q89 -235 337 -235zM1029 434q-70 0 -113.5 45.5t-43.5 110.5t42.5 110t113.5 45q69 0 109.5 -43t40.5 -112t-40.5 -112.5t-108.5 -43.5z" />
    <glyph glyph-name="uni277C" unicode="&#x277c;" horiz-adv-x="2045" 
d="M1023 -126q-186 0 -348 64.5t-277 178t-181 274.5t-66 347q0 248 112.5 446t311.5 308.5t448 110.5t448 -110.5t311.5 -308t112.5 -446.5q0 -248 -112.5 -446t-311.5 -308t-448 -110zM839 292h205q13 433 317 766v159h-667v-165h454q-293 -335 -309 -760z" />
    <glyph glyph-name="uni277D" unicode="&#x277d;" horiz-adv-x="2045" 
d="M1023 -126q-186 0 -348 64.5t-277 178t-181 274.5t-66 347q0 248 112.5 446t311.5 308.5t448 110.5t448 -110.5t311.5 -308t112.5 -446.5q0 -248 -112.5 -446t-311.5 -308t-448 -110zM1027 272q162 0 260 76t98 200q0 159 -175 219q64 24 105 81.5t41 125.5
q0 110 -90.5 186t-238.5 76t-239 -75.5t-91 -186.5q0 -69 41.5 -126t105.5 -81q-175 -60 -175 -219q0 -124 98 -200t260 -76zM1027 834q-66 0 -106.5 34t-40.5 88q0 57 40.5 92.5t106.5 35.5t106.5 -35.5t40.5 -92.5q0 -54 -40.5 -88t-106.5 -34zM1027 427
q-75 0 -120.5 37.5t-45.5 98.5t45.5 95.5t120.5 34.5q74 0 120 -35t46 -95q0 -61 -46 -98.5t-120 -37.5z" />
    <glyph glyph-name="uni277E" unicode="&#x277e;" horiz-adv-x="2045" 
d="M1023 -126q-186 0 -348 64.5t-277 178t-181 274.5t-66 347q0 248 112.5 446t311.5 308.5t448 110.5t448 -110.5t311.5 -308t112.5 -446.5q0 -248 -112.5 -446t-311.5 -308t-448 -110zM1017 272q168 0 270 131.5t102 363.5q0 149 -37 243q-89 226 -335 226
q-153 0 -244 -87t-91 -227q0 -133 86 -216t228 -83q123 0 202 87q0 -10 -1 -23q-9 -122 -59 -184.5t-127 -62.5q-119 0 -178 106l-140 -105q110 -169 324 -169zM1022 772q-69 0 -110.5 42t-41.5 110t41.5 109.5t110.5 41.5q70 0 112.5 -43t42.5 -108t-42 -108.5t-113 -43.5z
" />
    <glyph glyph-name="uni2780" unicode="&#x2780;" horiz-adv-x="2045" 
d="M1023 1603q249 0 448.5 -111t311.5 -308.5t112 -445.5q0 -186 -65.5 -346.5t-180.5 -274t-277 -178.5t-349 -65q-186 0 -348 65t-277 178.5t-181 274t-66 346.5t66 346.5t181 274.5t277 179t348 65zM1023 51q146 0 273 51.5t217 142t141.5 218.5t51.5 275t-51.5 275
t-141.5 218.5t-217 142t-273 51.5q-195 0 -351 -88t-243.5 -245t-87.5 -354t87.5 -354t243.5 -245t351 -88zM1162 1217v-925h-186v698l-166 -148l-107 117l288 258h171z" />
    <glyph glyph-name="uni2781" unicode="&#x2781;" horiz-adv-x="2045" 
d="M1023 1603q249 0 448.5 -111t312 -308.5t112.5 -445.5t-112.5 -445.5t-312 -308t-448.5 -110.5q-186 0 -348 65t-277 178.5t-181 274t-66 346.5t66 346.5t181 274.5t277 179t348 65zM1023 51q146 0 273 51.5t217 142t141.5 218.5t51.5 275t-51.5 275t-141.5 218.5
t-217 142t-273 51.5q-195 0 -351 -88t-243.5 -245t-87.5 -354t87.5 -354t243.5 -245t351 -88zM1148 636l-195 -184h394v-160h-660v149l317 299q83 79 112 121.5t29 95.5q0 51 -34.5 82.5t-94.5 31.5q-65 0 -105.5 -42.5t-54.5 -116.5l-174 41q28 135 118 209t222 74
q139 0 225.5 -76t86.5 -201q0 -84 -41.5 -155t-144.5 -168z" />
    <glyph glyph-name="uni2782" unicode="&#x2782;" horiz-adv-x="2045" 
d="M1024 1603q186 0 348 -65t277 -179t181 -274.5t66 -346.5t-66 -346.5t-181 -274t-277 -178.5t-348 -65q-249 0 -448.5 110.5t-312 308t-112.5 445.5t112.5 445.5t312 308.5t448.5 111zM1024 51q195 0 351 88t243.5 245t87.5 354t-87.5 354t-243.5 245t-351 88
q-147 0 -274 -51.5t-217 -142t-141 -218.5t-51 -275t51 -275t141 -218.5t217 -142t274 -51.5zM1201 765q161 -62 161 -215q0 -125 -92 -201.5t-245 -76.5q-133 0 -227.5 61.5t-133.5 170.5l161 68q53 -137 194 -137q70 0 110.5 36.5t40.5 95.5q0 54 -38.5 86t-102.5 32h-88
v149h69q67 0 104 31t37 89q0 54 -36.5 87t-95.5 33q-132 0 -170 -139l-166 46q31 122 120 188.5t222 66.5q141 0 228.5 -75t87.5 -195q0 -138 -140 -201z" />
    <glyph glyph-name="uni2783" unicode="&#x2783;" horiz-adv-x="2045" 
d="M1023 1603q249 0 448.5 -111t312 -308.5t112.5 -445.5t-112.5 -445.5t-312 -308t-448.5 -110.5q-186 0 -348 65t-277 178.5t-181 274t-66 346.5t66 346.5t181 274.5t277 179t348 65zM1023 51q146 0 273 51.5t217 142t141.5 218.5t51.5 275t-51.5 275t-141.5 218.5
t-217 142t-273 51.5q-195 0 -351 -88t-243.5 -245t-87.5 -354t87.5 -354t243.5 -245t351 -88zM1232 1217v-575h126v-160h-126v-190h-186v190h-425v154l409 581h202zM800 642h246v360z" />
    <glyph glyph-name="uni2784" unicode="&#x2784;" horiz-adv-x="2045" 
d="M1023 1603q249 0 448.5 -111t312 -308.5t112.5 -445.5t-112.5 -445.5t-312 -308t-448.5 -110.5q-186 0 -348 65t-277 178.5t-181 274t-66 346.5t66 346.5t181 274.5t277 179t348 65zM1023 51q146 0 273 51.5t217 142t141.5 218.5t51.5 275t-51.5 275t-141.5 218.5
t-217 142t-273 51.5q-195 0 -351 -88t-243.5 -245t-87.5 -354t87.5 -354t243.5 -245t351 -88zM1052 905q139 0 222.5 -82.5t83.5 -221.5q0 -147 -95.5 -237.5t-251.5 -90.5q-122 0 -214 55t-130 146l157 86q23 -58 71 -90t113 -32q72 0 115 47t43 117q0 71 -42 115t-109 44
q-104 0 -154 -85h-166l65 541h554v-160h-407l-24 -208q73 56 169 56z" />
    <glyph glyph-name="uni2785" unicode="&#x2785;" horiz-adv-x="2045" 
d="M1024 1603q186 0 348 -65t277 -179t181 -274.5t66 -346.5t-66 -346.5t-181 -274t-277 -178.5t-348 -65q-249 0 -448.5 110.5t-312 308t-112.5 445.5t112.5 445.5t312 308.5t448.5 111zM1024 51q195 0 351 88t243.5 245t87.5 354t-87.5 354t-243.5 245t-351 88
q-147 0 -274 -51.5t-217 -142t-141 -218.5t-51 -275t51 -275t141 -218.5t217 -142t274 -51.5zM1052 895q140 0 225.5 -83t85.5 -221q0 -143 -91.5 -231t-241.5 -88q-242 0 -333 233q-34 87 -34 238q0 232 102 362.5t279 130.5q200 0 310 -165l-139 -98q-59 101 -164 101
q-55 0 -95.5 -24t-63.5 -66t-34 -89.5t-13 -102.5q80 103 207 103zM1028 429q70 0 111.5 45t41.5 116t-42 116t-112 45q-73 0 -116.5 -47t-43.5 -114t44.5 -114t116.5 -47z" />
    <glyph glyph-name="uni2786" unicode="&#x2786;" horiz-adv-x="2045" 
d="M1023 1603q249 0 448.5 -111t312 -308.5t112.5 -445.5t-112.5 -445.5t-312 -308t-448.5 -110.5q-186 0 -348 65t-277 178.5t-181 274t-66 346.5t66 346.5t181 274.5t277 179t348 65zM1023 51q146 0 273 51.5t217 142t141.5 218.5t51.5 275t-51.5 275t-141.5 218.5
t-217 142t-273 51.5q-195 0 -351 -88t-243.5 -245t-87.5 -354t87.5 -354t243.5 -245t351 -88zM696 1057v160h663v-154q-158 -177 -234.5 -362.5t-82.5 -408.5h-198q8 219 82 404t227 361h-457z" />
    <glyph glyph-name="uni2787" unicode="&#x2787;" horiz-adv-x="2045" 
d="M1024 -126q-249 0 -448.5 110.5t-312 308t-112.5 445.5t112.5 445.5t312 308.5t448.5 111q186 0 348 -65t277 -179t181 -274.5t66 -346.5t-66 -346.5t-181 -274t-277 -178.5t-348 -65zM1024 51q195 0 351 88t243.5 245t87.5 354t-87.5 354t-243.5 245t-351 88
q-147 0 -274 -51.5t-217 -142t-141 -218.5t-51 -275t51 -275t141 -218.5t217 -142t274 -51.5zM1026 272q-162 0 -259 75.5t-97 199.5q0 160 175 220q-64 24 -105.5 81t-41.5 126q0 111 90.5 186.5t237.5 75.5t237 -75.5t90 -186.5q0 -69 -41 -126t-105 -81q175 -60 175 -220
q0 -124 -97 -199.5t-259 -75.5zM1026 831q67 0 109.5 35.5t42.5 90.5q0 58 -42.5 95t-109.5 37q-68 0 -110 -37t-42 -95q0 -55 42 -90.5t110 -35.5zM1026 422q76 0 123 38.5t47 100.5q0 63 -46.5 98.5t-123.5 35.5t-124 -35.5t-47 -98.5q0 -62 47 -100.5t124 -38.5z" />
    <glyph glyph-name="uni2788" unicode="&#x2788;" horiz-adv-x="2045" 
d="M1024 1603q186 0 348 -65t277 -179t181 -274.5t66 -346.5t-66 -346.5t-181 -274t-277 -178.5t-348 -65q-249 0 -448.5 110.5t-312 308t-112.5 445.5t112.5 445.5t312 308.5t448.5 111zM1024 51q195 0 351 88t243.5 245t87.5 354t-87.5 354t-243.5 245t-351 88
q-147 0 -274 -51.5t-217 -142t-141 -218.5t-51 -275t51 -275t141 -218.5t217 -142t274 -51.5zM1017 1236q245 0 332 -223q36 -89 36 -245q0 -234 -100.5 -365t-267.5 -131q-211 0 -322 169l135 102q62 -109 181 -109q85 0 136.5 74.5t55.5 213.5q-78 -99 -206 -99
q-141 0 -227 83t-86 216q0 140 90.5 227t242.5 87zM1022 767q73 0 116 45t43 112q0 66 -43.5 111t-115.5 45q-70 0 -112.5 -42.5t-42.5 -113.5q0 -70 42.5 -113.5t112.5 -43.5z" />
    <glyph glyph-name="uni278A" unicode="&#x278a;" horiz-adv-x="2045" 
d="M1023 -126q-249 0 -448 110.5t-311.5 308t-112.5 445.5q0 186 66 347t181 274.5t277 178.5t348 65t348 -65t277 -178.5t181 -274.5t66 -347q0 -248 -112.5 -445.5t-311.5 -308t-448 -110.5zM976 292h193v925h-178l-293 -262l113 -121l165 147v-689z" />
    <glyph glyph-name="uni278B" unicode="&#x278b;" horiz-adv-x="2045" 
d="M1024 -126q-249 0 -448.5 110.5t-312 308t-112.5 445.5q0 186 66 347t181 274.5t277.5 178.5t348.5 65t348 -65t277 -178.5t181 -274.5t66 -347q0 -248 -112.5 -445.5t-311.5 -308t-448 -110.5zM686 292h663v165h-387l189 179q102 96 144 166.5t42 153.5q0 127 -87 203.5
t-226 76.5q-134 0 -225 -74t-119 -210l180 -43q14 72 53.5 114.5t102.5 42.5q58 0 91.5 -31t33.5 -81q0 -51 -29 -93.5t-110 -117.5l-316 -297v-154z" />
    <glyph glyph-name="uni278C" unicode="&#x278c;" horiz-adv-x="2045" 
d="M1024 -126q-249 0 -448.5 110.5t-312 308t-112.5 445.5q0 186 66 347t181 274.5t277.5 178.5t348.5 65t348 -65t277 -178.5t181 -274.5t66 -347q0 -248 -112.5 -445.5t-311.5 -308t-448 -110.5zM1026 272q154 0 247 76.5t93 201.5q0 150 -149 214q129 64 129 202
q0 120 -88.5 195t-230.5 75q-134 0 -224.5 -67.5t-120.5 -189.5l171 -47q38 137 167 137q58 0 93 -32t35 -85q0 -56 -36.5 -86.5t-101.5 -30.5h-69v-153h89q62 0 99.5 -30.5t37.5 -83.5q0 -58 -40 -93t-108 -35q-67 0 -115.5 35t-73.5 100l-167 -70q38 -109 133.5 -171
t229.5 -62z" />
    <glyph glyph-name="uni278D" unicode="&#x278d;" horiz-adv-x="2045" 
d="M1023 -126q-249 0 -448 110.5t-311.5 308t-112.5 445.5q0 186 66 347t181 274.5t277 178.5t348 65t348 -65t277 -178.5t181 -274.5t66 -347q0 -248 -112.5 -445.5t-311.5 -308t-448 -110.5zM1041 292h194v188h125v166h-125v571h-209l-406 -577v-160h421v-188zM804 646
l237 349v-349h-237z" />
    <glyph glyph-name="uni278E" unicode="&#x278e;" horiz-adv-x="2045" 
d="M1024 -126q-249 0 -448.5 110.5t-312 308t-112.5 445.5q0 186 66 347t181 274.5t277.5 178.5t348.5 65t348 -65t277 -178.5t181 -274.5t66 -347q0 -248 -112.5 -445.5t-311.5 -308t-448 -110.5zM1011 272q158 0 254 90.5t96 239.5q0 138 -83.5 220.5t-222.5 82.5
q-96 0 -168 -55l25 202h405v165h-557l-67 -543h172q47 82 149 82q67 0 107.5 -42.5t40.5 -110.5q0 -71 -43 -115.5t-112 -44.5q-63 0 -109.5 31.5t-69.5 88.5l-162 -89q39 -91 130 -146.5t215 -55.5z" />
    <glyph glyph-name="uni278F" unicode="&#x278f;" horiz-adv-x="2045" 
d="M1023 -126q-186 0 -348 64.5t-277 178t-181 274.5t-66 347q0 248 112.5 446t311.5 308.5t448 110.5t448 -110.5t311.5 -308t112.5 -446.5q0 -248 -112.5 -446t-311.5 -308t-448 -110zM1032 272q150 0 242.5 88t92.5 231q0 138 -86 221t-227 83q-121 0 -203 -90q0 12 1 19
q9 106 58 175t143 69q105 0 161 -99l144 102q-110 165 -312 165q-178 0 -282 -130.5t-104 -361.5q0 -146 35 -237q89 -235 337 -235zM1029 434q-70 0 -113.5 45.5t-43.5 110.5t42.5 110t113.5 45q69 0 109.5 -43t40.5 -112t-40.5 -112.5t-108.5 -43.5z" />
    <glyph glyph-name="uni2790" unicode="&#x2790;" horiz-adv-x="2045" 
d="M1023 -126q-186 0 -348 64.5t-277 178t-181 274.5t-66 347q0 248 112.5 446t311.5 308.5t448 110.5t448 -110.5t311.5 -308t112.5 -446.5q0 -248 -112.5 -446t-311.5 -308t-448 -110zM839 292h205q13 433 317 766v159h-667v-165h454q-293 -335 -309 -760z" />
    <glyph glyph-name="uni2791" unicode="&#x2791;" horiz-adv-x="2045" 
d="M1023 -126q-186 0 -348 64.5t-277 178t-181 274.5t-66 347q0 248 112.5 446t311.5 308.5t448 110.5t448 -110.5t311.5 -308t112.5 -446.5q0 -248 -112.5 -446t-311.5 -308t-448 -110zM1027 272q162 0 260 76t98 200q0 159 -175 219q64 24 105 81.5t41 125.5
q0 110 -90.5 186t-238.5 76t-239 -75.5t-91 -186.5q0 -69 41.5 -126t105.5 -81q-175 -60 -175 -219q0 -124 98 -200t260 -76zM1027 834q-66 0 -106.5 34t-40.5 88q0 57 40.5 92.5t106.5 35.5t106.5 -35.5t40.5 -92.5q0 -54 -40.5 -88t-106.5 -34zM1027 427
q-75 0 -120.5 37.5t-45.5 98.5t45.5 95.5t120.5 34.5q74 0 120 -35t46 -95q0 -61 -46 -98.5t-120 -37.5z" />
    <glyph glyph-name="uni2792" unicode="&#x2792;" horiz-adv-x="2045" 
d="M1023 -126q-186 0 -348 64.5t-277 178t-181 274.5t-66 347q0 248 112.5 446t311.5 308.5t448 110.5t448 -110.5t311.5 -308t112.5 -446.5q0 -248 -112.5 -446t-311.5 -308t-448 -110zM1017 272q168 0 270 131.5t102 363.5q0 149 -37 243q-89 226 -335 226
q-153 0 -244 -87t-91 -227q0 -133 86 -216t228 -83q123 0 202 87q0 -10 -1 -23q-9 -122 -59 -184.5t-127 -62.5q-119 0 -178 106l-140 -105q110 -169 324 -169zM1022 772q-69 0 -110.5 42t-41.5 110t41.5 109.5t110.5 41.5q70 0 112.5 -43t42.5 -108t-42 -108.5t-113 -43.5z
" />
    <glyph glyph-name="uniFEFF" unicode="&#xfeff;" horiz-adv-x="0" 
 />
    <glyph glyph-name="Cacute.loclPLK" horiz-adv-x="1477" 
d="M631 1574l109 314h235l-156 -314h-188zM795 -31q-208 0 -366 95.5t-243.5 269.5t-85.5 403t84.5 403t241.5 269.5t365 95.5q194 0 349 -92t245 -264l-206 -111q-72 122 -166 179.5t-218 57.5q-199 0 -319 -146.5t-120 -391.5t121.5 -391t321.5 -146q130 0 220.5 62.5
t158.5 197.5l211 -109q-196 -382 -594 -382z" />
    <glyph glyph-name="Nacute.loclPLK" horiz-adv-x="1522" 
d="M962 1888l-157 -314h-189l110 314h236zM1108 1475h250v-1475h-299l-643 1099v-1099h-250v1475h293l649 -1105v1105z" />
    <glyph glyph-name="Oacute.loclPLK" horiz-adv-x="1608" 
d="M646 1572l110 315h234l-155 -315h-189zM805 -31q-213 0 -373.5 95.5t-246 269t-85.5 403.5t85.5 403.5t246 269t373.5 95.5q322 0 513 -210t191 -558t-191 -558t-513 -210zM805 200q204 0 326 144.5t122 392.5t-122 393t-326 145t-326.5 -145.5t-122.5 -392.5t122.5 -392
t326.5 -145z" />
    <glyph glyph-name="Sacute.loclPLK" horiz-adv-x="1381" 
d="M550 1574l109 314h235l-156 -314h-188zM710 -31q-211 0 -371 79t-254 231l188 137q133 -222 439 -222q144 0 231.5 58.5t87.5 153.5q0 33 -11 61t-26.5 48t-45.5 37.5t-55 28.5t-69 22.5t-73 17.5t-80 16q-70 13 -108.5 21t-104 26t-103.5 37.5t-85.5 52.5t-73 72.5
t-43.5 97t-18 126.5q0 197 153 316t409 119q194 0 347 -73.5t238 -208.5l-190 -134q-52 89 -158 140t-239 51q-137 0 -221 -56.5t-84 -146.5q0 -35 12 -63t37.5 -48.5t52.5 -35t71.5 -27t79.5 -19.5t89 -17q72 -13 111 -20.5t107 -26.5t107 -38.5t88.5 -54.5t76.5 -76.5
t46 -102.5t19 -135q0 -204 -156 -324t-421 -120z" />
    <glyph glyph-name="Zacute.loclPLK" horiz-adv-x="1316" 
d="M487 1574l110 314h236l-157 -314h-189zM85 0v209l795 1040h-776v226h1093v-210l-795 -1040h816v-225h-1133z" />
    <glyph glyph-name="G.ss01" horiz-adv-x="1532" 
d="M810 -31q-211 0 -372.5 96t-249.5 269t-88 397q0 351 195.5 563t510.5 212q172 0 320 -75t248 -220l-194 -135q-69 103 -159.5 151t-215.5 48q-200 0 -324.5 -145.5t-124.5 -392.5q0 -246 125 -391.5t330 -145.5q172 0 276 103.5t104 274.5v13h-372v207h614v-186
q0 -291 -171.5 -467t-451.5 -176z" />
    <glyph glyph-name="uni01F4.ss01" horiz-adv-x="1531" 
d="M670 1574l160 314h241l-207 -314h-194zM810 -31q-211 0 -372.5 96t-249.5 269t-88 397q0 351 195.5 563t510.5 212q172 0 320 -75t248 -220l-194 -135q-69 103 -159.5 151t-215.5 48q-200 0 -324.5 -145.5t-124.5 -392.5q0 -246 125 -391.5t330 -145.5q172 0 276 103.5
t104 274.5v13h-372v207h614v-186q0 -291 -171.5 -467t-451.5 -176z" />
    <glyph glyph-name="Gbreve.ss01" horiz-adv-x="1531" 
d="M806 1560q-138 0 -227.5 87t-98.5 233h173q9 -77 51 -124t102 -47q59 0 100.5 47t50.5 124h173q-9 -146 -98 -233t-226 -87zM810 -31q-211 0 -372.5 96t-249.5 269t-88 397q0 351 195.5 563t510.5 212q172 0 320 -75t248 -220l-194 -135q-69 103 -159.5 151t-215.5 48
q-200 0 -324.5 -145.5t-124.5 -392.5q0 -246 125 -391.5t330 -145.5q172 0 276 103.5t104 274.5v13h-372v207h614v-186q0 -291 -171.5 -467t-451.5 -176z" />
    <glyph glyph-name="Gcircumflex.ss01" horiz-adv-x="1531" 
d="M806 1737l-128 -167h-209l225 310h224l223 -310h-209zM819 798h614v-186q0 -291 -171.5 -467t-451.5 -176q-211 0 -372.5 96t-249.5 269t-88 397q0 351 195.5 563t510.5 212q172 0 320 -75t248 -220l-194 -135q-69 103 -159.5 151t-215.5 48q-200 0 -324.5 -145.5
t-124.5 -392.5q0 -246 125 -391.5t330 -145.5q172 0 276 103.5t104 274.5v13h-372v207z" />
    <glyph glyph-name="uni0122.ss01" horiz-adv-x="1531" 
d="M819 798h614v-186q0 -291 -171.5 -467t-451.5 -176q-211 0 -372.5 96t-249.5 269t-88 397q0 351 195.5 563t510.5 212q172 0 320 -75t248 -220l-194 -135q-69 103 -159.5 151t-215.5 48q-200 0 -324.5 -145.5t-124.5 -392.5q0 -246 125 -391.5t330 -145.5
q172 0 276 103.5t104 274.5v13h-372v207zM685 -272v193h240v-199q0 -61 -38.5 -106.5t-114.5 -83.5l-58 86q53 27 74.5 50.5t21.5 59.5h-125z" />
    <glyph glyph-name="Gdotaccent.ss01" horiz-adv-x="1531" 
d="M680 1603v225h251v-225h-251zM810 -31q-211 0 -372.5 96t-249.5 269t-88 397q0 351 195.5 563t510.5 212q172 0 320 -75t248 -220l-194 -135q-69 103 -159.5 151t-215.5 48q-200 0 -324.5 -145.5t-124.5 -392.5q0 -246 125 -391.5t330 -145.5q172 0 276 103.5t104 274.5
v13h-372v207h614v-186q0 -291 -171.5 -467t-451.5 -176z" />
    <glyph glyph-name="j.calt" horiz-adv-x="530" 
d="M139 1250v225h252v-225h-252zM70 -380q-56 0 -106 13l30 198q34 -7 56 -7q53 0 75 31t22 105v1115h236v-1153q0 -156 -75.5 -229t-237.5 -73z" />
    <glyph glyph-name="uni0237.calt" horiz-adv-x="530" 
d="M70 -380q-56 0 -106 13l30 198q34 -7 56 -7q53 0 75 31t22 105v1115h236v-1153q0 -156 -75.5 -229t-237.5 -73z" />
    <glyph glyph-name="jcircumflex.calt" horiz-adv-x="530" 
d="M377 1514l223 -310h-209l-126 167l-128 -167h-208l225 310h223zM147 -40v1115h236v-1153q0 -156 -75.5 -229t-237.5 -73q-56 0 -106 13l30 198q34 -7 56 -7q53 0 75 31t22 105z" />
    <glyph glyph-name="i.latn_TRK" horiz-adv-x="530" 
d="M139 1250v225h252v-225h-252zM147 0v1075h236v-1075h-236z" />
    <glyph glyph-name="cacute.loclPLK" horiz-adv-x="1124" 
d="M449 1207l109 316h235l-156 -316h-188zM612 -28q-239 0 -385 154.5t-146 409.5q0 256 145 410t383 154q308 0 450 -260l-199 -103q-86 154 -244 154q-136 0 -214.5 -96t-78.5 -258q0 -164 80 -260.5t213 -96.5q159 0 244 167l202 -96q-56 -107 -131.5 -171t-150.5 -86
t-168 -22z" />
    <glyph glyph-name="nacute.loclPLK" horiz-adv-x="1214" 
d="M795 1523l-157 -316h-188l109 316h236zM717 1102q158 0 258.5 -97.5t100.5 -273.5v-731h-235v677q0 108 -53 164.5t-145 56.5q-116 0 -188 -81.5t-72 -188.5v-628h-236v1075h232v-133q35 61 120.5 110.5t217.5 49.5z" />
    <glyph glyph-name="oacute.loclPLK" horiz-adv-x="1226" 
d="M453 1207l109 316h235l-156 -316h-188zM613 -28q-235 0 -383.5 155t-148.5 411q0 257 148.5 411t383.5 154q234 0 383.5 -154t149.5 -411q0 -256 -149.5 -411t-383.5 -155zM613 182q132 0 211 96.5t79 259.5q0 164 -79 260t-211 96t-210.5 -96t-78.5 -260
q0 -163 78.5 -259.5t210.5 -96.5z" />
    <glyph glyph-name="sacute.loclPLK" horiz-adv-x="1073" 
d="M391 1207l110 316h234l-155 -316h-189zM553 -31q-334 0 -501 215l162 137q118 -150 343 -150q97 0 153 34.5t56 95.5q0 27 -12.5 48t-32 34.5t-55.5 24.5t-69.5 17.5t-88.5 15.5q-88 14 -154 36.5t-123.5 60.5t-87.5 98.5t-30 141.5q0 153 118.5 240t314.5 87
q278 0 435 -184l-155 -138q-107 121 -281 121q-89 0 -144 -30t-55 -88q0 -33 17 -56t54 -39t78 -25.5t107 -20.5q68 -11 118.5 -23.5t106 -37.5t91 -58.5t58.5 -88t23 -124.5q0 -164 -122.5 -254t-323.5 -90z" />
    <glyph glyph-name="zacute.loclPLK" horiz-adv-x="1040" 
d="M359 1207l110 316h234l-155 -316h-189zM74 0v182l554 695h-527v198h818v-184l-555 -692h574v-199h-864z" />
    <glyph glyph-name="germandbls.sc" horiz-adv-x="1223" 
d="M813 696q124 -12 216.5 -103.5t92.5 -245.5q0 -164 -106 -264t-282 -100q-109 0 -212 24l41 188q91 -20 148 -20q85 0 135.5 47.5t50.5 126.5q0 78 -48.5 126t-126.5 48q-32 0 -59 -13l-134 145l269 286h-237q-101 0 -147 -54.5t-46 -165.5v-721h-228v751q0 185 100 289
t294 104h533v-179z" />
    <glyph glyph-name="a.ss02" horiz-adv-x="1265" 
d="M886 1075h232v-1075h-232v138q-46 -70 -133.5 -118t-206.5 -48q-199 0 -332 158t-133 408q0 249 133 407t332 158q118 0 205 -48.5t135 -121.5v142zM605 181q125 0 205 97.5t80 259.5q0 161 -80.5 258.5t-204.5 97.5q-122 0 -201.5 -94t-79.5 -262t79.5 -262.5
t201.5 -94.5z" />
    <glyph glyph-name="aacute.ss02" horiz-adv-x="1265" 
d="M880 1523l-207 -316h-195l161 316h241zM886 1075h232v-1075h-232v138q-46 -70 -133.5 -118t-206.5 -48q-199 0 -332 158t-133 408q0 249 133 407t332 158q118 0 205 -48.5t135 -121.5v142zM605 181q125 0 205 97.5t80 259.5q0 161 -80.5 258.5t-204.5 97.5
q-122 0 -201.5 -94t-79.5 -262t79.5 -262.5t201.5 -94.5z" />
    <glyph glyph-name="abreve.ss02" horiz-adv-x="1265" 
d="M621 1194q-137 0 -227 87.5t-98 232.5h172q9 -77 51.5 -124t101.5 -47t101 47t51 124h173q-9 -146 -98 -233t-227 -87zM886 1075h232v-1075h-232v138q-46 -70 -133.5 -118t-206.5 -48q-199 0 -332 158t-133 408q0 249 133 407t332 158q118 0 205 -48.5t135 -121.5v142z
M605 181q125 0 205 97.5t80 259.5q0 161 -80.5 258.5t-204.5 97.5q-122 0 -201.5 -94t-79.5 -262t79.5 -262.5t201.5 -94.5z" />
    <glyph glyph-name="acircumflex.ss02" horiz-adv-x="1265" 
d="M621 1371l-127 -167h-209l224 310h223l223 -310h-207zM886 1075h232v-1075h-232v138q-46 -70 -133.5 -118t-206.5 -48q-199 0 -332 158t-133 408q0 249 133 407t332 158q118 0 205 -48.5t135 -121.5v142zM605 181q125 0 205 97.5t80 259.5q0 161 -80.5 258.5t-204.5 97.5
q-122 0 -201.5 -94t-79.5 -262t79.5 -262.5t201.5 -94.5z" />
    <glyph glyph-name="adieresis.ss02" horiz-adv-x="1265" 
d="M542 1475v-219h-232v219h232zM931 1475v-219h-232v219h232zM886 1075h232v-1075h-232v138q-46 -70 -133.5 -118t-206.5 -48q-199 0 -332 158t-133 408q0 249 133 407t332 158q118 0 205 -48.5t135 -121.5v142zM605 181q125 0 205 97.5t80 259.5q0 161 -80.5 258.5
t-204.5 97.5q-122 0 -201.5 -94t-79.5 -262t79.5 -262.5t201.5 -94.5z" />
    <glyph glyph-name="agrave.ss02" horiz-adv-x="1265" 
d="M763 1207h-195l-207 316h242zM886 1075h232v-1075h-232v138q-46 -70 -133.5 -118t-206.5 -48q-199 0 -332 158t-133 408q0 249 133 407t332 158q118 0 205 -48.5t135 -121.5v142zM605 181q125 0 205 97.5t80 259.5q0 161 -80.5 258.5t-204.5 97.5q-122 0 -201.5 -94
t-79.5 -262t79.5 -262.5t201.5 -94.5z" />
    <glyph glyph-name="amacron.ss02" horiz-adv-x="1265" 
d="M912 1427v-161h-584v161h584zM886 1075h232v-1075h-232v138q-46 -70 -133.5 -118t-206.5 -48q-199 0 -332 158t-133 408q0 249 133 407t332 158q118 0 205 -48.5t135 -121.5v142zM605 181q125 0 205 97.5t80 259.5q0 161 -80.5 258.5t-204.5 97.5q-122 0 -201.5 -94
t-79.5 -262t79.5 -262.5t201.5 -94.5z" />
    <glyph glyph-name="aogonek.ss02" horiz-adv-x="1265" 
d="M1068 -232l68 -141q-83 -54 -177 -54q-117 0 -188.5 58t-71.5 153q0 135 187 235v119q-46 -70 -133.5 -118t-206.5 -48q-199 0 -332 158t-133 408q0 249 133 407t332 158q118 0 205 -48.5t135 -121.5v142h232v-1075h-90q-71 -38 -111.5 -85.5t-40.5 -90.5
q0 -40 27.5 -63.5t71.5 -23.5q45 0 93 31zM605 181q125 0 205 97.5t80 259.5q0 161 -80.5 258.5t-204.5 97.5q-122 0 -201.5 -94t-79.5 -262t79.5 -262.5t201.5 -94.5z" />
    <glyph glyph-name="aring.ss02" horiz-adv-x="1265" 
d="M621 1180q-103 0 -171 67t-68 168q0 100 68.5 167.5t170.5 67.5t169.5 -67t67.5 -168t-67.5 -168t-169.5 -67zM621 1514q-41 0 -67.5 -27.5t-26.5 -71.5q0 -45 26 -73t68 -28q41 0 66.5 28t25.5 73q0 44 -25.5 71.5t-66.5 27.5zM886 1075h232v-1075h-232v138
q-46 -70 -133.5 -118t-206.5 -48q-199 0 -332 158t-133 408q0 249 133 407t332 158q118 0 205 -48.5t135 -121.5v142zM605 181q125 0 205 97.5t80 259.5q0 161 -80.5 258.5t-204.5 97.5q-122 0 -201.5 -94t-79.5 -262t79.5 -262.5t201.5 -94.5z" />
    <glyph glyph-name="aringacute.ss02" horiz-adv-x="1265" 
d="M893 2013l-207 -315h-194l160 315h241zM621 1180q-103 0 -171 67t-68 168q0 100 68.5 167.5t170.5 67.5t169.5 -67t67.5 -168t-67.5 -168t-169.5 -67zM621 1514q-41 0 -67.5 -27.5t-26.5 -71.5q0 -45 26 -73t68 -28q41 0 66.5 28t25.5 73q0 44 -25.5 71.5t-66.5 27.5z
M886 1075h232v-1075h-232v138q-46 -70 -133.5 -118t-206.5 -48q-199 0 -332 158t-133 408q0 249 133 407t332 158q118 0 205 -48.5t135 -121.5v142zM605 181q125 0 205 97.5t80 259.5q0 161 -80.5 258.5t-204.5 97.5q-122 0 -201.5 -94t-79.5 -262t79.5 -262.5t201.5 -94.5z
" />
    <glyph glyph-name="atilde.ss02" horiz-adv-x="1265" 
d="M487 1319q-30 0 -57.5 -19.5t-67.5 -69.5l-130 117q68 85 127 121.5t126 36.5q76 0 160 -51q60 -38 100 -38q34 0 61 21t67 68l131 -117q-68 -85 -128 -122t-127 -37q-73 0 -159 52q-66 38 -103 38zM886 1075h232v-1075h-232v138q-46 -70 -133.5 -118t-206.5 -48
q-199 0 -332 158t-133 408q0 249 133 407t332 158q118 0 205 -48.5t135 -121.5v142zM605 181q125 0 205 97.5t80 259.5q0 161 -80.5 258.5t-204.5 97.5q-122 0 -201.5 -94t-79.5 -262t79.5 -262.5t201.5 -94.5z" />
    <glyph glyph-name="germandbls.ss03" horiz-adv-x="1193" 
d="M768 575q160 0 260 -110.5t100 -283.5q0 -215 -150.5 -361.5t-426.5 -204.5l-63 203q396 90 396 365q0 96 -52 155.5t-136 59.5q-43 0 -68 -13l-133 172l263 321h-375v-878h-236v1171q0 160 95 245t250 85q86 0 170 -27l-48 -186q-57 14 -96 14q-72 0 -103.5 -40.5
t-31.5 -133.5v-52h648v-183l-271 -318h8z" />
    <glyph glyph-name="a.sc" horiz-adv-x="1239" 
d="M953 0l-93 245h-486l-93 -245h-241l454 1144h251l454 -1144h-246zM447 438h339l-169 444z" />
    <glyph glyph-name="aacute.sc" horiz-adv-x="1239" 
d="M886 1544l-207 -315h-195l161 315h241zM953 0l-93 245h-486l-93 -245h-241l454 1144h251l454 -1144h-246zM447 438h339l-169 444z" />
    <glyph glyph-name="abreve.sc" horiz-adv-x="1239" 
d="M621 1219q-137 0 -227 87t-99 229h173q9 -74 51.5 -120t101.5 -46t101 46t50 120h173q-9 -142 -98 -229t-226 -87zM953 0l-93 245h-486l-93 -245h-241l454 1144h251l454 -1144h-246zM447 438h339l-169 444z" />
    <glyph glyph-name="acircumflex.sc" horiz-adv-x="1239" 
d="M621 1393l-128 -167h-208l224 309h223l223 -309h-209zM953 0l-93 245h-486l-93 -245h-241l454 1144h251l454 -1144h-246zM447 438h339l-169 444z" />
    <glyph glyph-name="adieresis.sc" horiz-adv-x="1239" 
d="M542 1496v-219h-233v219h233zM931 1496v-219h-232v219h232zM953 0l-93 245h-486l-93 -245h-241l454 1144h251l454 -1144h-246zM447 438h339l-169 444z" />
    <glyph glyph-name="agrave.sc" horiz-adv-x="1239" 
d="M756 1229h-195l-207 315h242zM953 0l-93 245h-486l-93 -245h-241l454 1144h251l454 -1144h-246zM447 438h339l-169 444z" />
    <glyph glyph-name="amacron.sc" horiz-adv-x="1239" 
d="M912 1462v-163h-585v163h585zM953 0l-93 245h-486l-93 -245h-241l454 1144h251l454 -1144h-246zM447 438h339l-169 444z" />
    <glyph glyph-name="aogonek.sc" horiz-adv-x="1239" 
d="M1169 -232l68 -141q-83 -54 -176 -54q-117 0 -188.5 58t-71.5 153q0 123 152 216l-93 245h-486l-93 -245h-241l454 1144h251l454 -1144h-70q-70 -38 -110.5 -85t-40.5 -91q0 -40 27 -63.5t71 -23.5q45 0 93 31zM447 438h339l-169 444z" />
    <glyph glyph-name="aring.sc" horiz-adv-x="1239" 
d="M621 1200q-103 0 -171 67.5t-68 168.5t68 167.5t171 66.5q101 0 169 -67t68 -167q0 -101 -68 -168.5t-169 -67.5zM621 1536q-42 0 -68.5 -27.5t-26.5 -72.5t26.5 -73t68.5 -28q40 0 66 28t26 73t-26 72.5t-66 27.5zM953 0l-93 245h-486l-93 -245h-241l454 1144h251
l454 -1144h-246zM447 438h339l-169 444z" />
    <glyph glyph-name="aringacute.sc" horiz-adv-x="1239" 
d="M885 1799l-207 -315h-195l161 315h241zM953 0l-93 245h-486l-93 -245h-241l430 1083q-66 60 -66 151q0 89 62.5 148t155.5 59t155 -59t62 -148q0 -94 -69 -153l429 -1081h-246zM622 1318q-36 0 -58.5 -23.5t-22.5 -60.5t22.5 -60.5t58.5 -23.5q35 0 57 23.5t22 60.5
t-22 60.5t-57 23.5zM447 438h339l-169 444z" />
    <glyph glyph-name="atilde.sc" horiz-adv-x="1239" 
d="M493 1340q-34 0 -63 -19.5t-69 -70.5l-130 118q69 86 130.5 122.5t132.5 36.5q68 0 142 -49q59 -41 106 -41q36 0 64 21.5t67 68.5l131 -118q-69 -86 -130.5 -122.5t-132.5 -36.5q-67 0 -142 50q-24 14 -34.5 20t-31 13t-40.5 7zM953 0l-93 245h-486l-93 -245h-241
l454 1144h251l454 -1144h-246zM447 438h339l-169 444z" />
    <glyph glyph-name="ae.sc" horiz-adv-x="1829" 
d="M1133 199h603v-199h-831v257h-439l-165 -257h-264l746 1144h946v-199h-596v-273h538v-186h-538v-287zM584 441h321v502z" />
    <glyph glyph-name="aeacute.sc" horiz-adv-x="1833" 
d="M1484 1544l-207 -315h-195l161 315h241zM1133 199h603v-199h-831v257h-439l-165 -257h-264l746 1144h946v-199h-596v-273h538v-186h-538v-287zM584 441h321v502z" />
    <glyph glyph-name="b.sc" horiz-adv-x="1201" 
d="M912 588q188 -67 188 -267q0 -147 -97 -234t-270 -87h-576v1144h549q173 0 270.5 -82t97.5 -220q0 -88 -42.5 -152.5t-119.5 -101.5zM383 945v-271h291q77 0 123.5 35.5t46.5 100.5q0 64 -44 99.5t-122 35.5h-295zM706 199q77 0 120.5 38.5t43.5 104.5q0 68 -46 106
t-124 38h-317v-287h323z" />
    <glyph glyph-name="c.sc" horiz-adv-x="1210" 
d="M657 -25q-256 0 -411.5 164t-155.5 432q0 269 154 433t410 164q160 0 290 -74.5t199 -208.5l-187 -102q-57 94 -129 137t-169 43q-153 0 -244 -106t-91 -286q0 -179 92 -284.5t245 -105.5q101 0 171.5 47t124.5 148l189 -100q-78 -148 -202.5 -224.5t-285.5 -76.5z" />
    <glyph glyph-name="cacute.sc" horiz-adv-x="1211" 
d="M518 1229l161 315h242l-208 -315h-195zM657 -25q-256 0 -411.5 164t-155.5 432q0 269 154 433t410 164q160 0 290 -74.5t199 -208.5l-187 -102q-57 94 -129 137t-169 43q-153 0 -244 -106t-91 -286q0 -179 92 -284.5t245 -105.5q101 0 171.5 47t124.5 148l189 -100
q-78 -148 -202.5 -224.5t-285.5 -76.5z" />
    <glyph glyph-name="ccaron.sc" horiz-adv-x="1211" 
d="M763 1226h-223l-225 309h208l128 -166l126 166h209zM956 376l189 -100q-78 -148 -202.5 -224.5t-285.5 -76.5q-256 0 -411.5 164t-155.5 432q0 269 154 433t410 164q160 0 290 -74.5t199 -208.5l-187 -102q-57 94 -129 137t-169 43q-153 0 -244 -106t-91 -286
q0 -179 92 -284.5t245 -105.5q101 0 171.5 47t124.5 148z" />
    <glyph glyph-name="ccedilla.sc" horiz-adv-x="1211" 
d="M1145 276q-136 -256 -401 -294l-102 -317h-199l104 320q-210 35 -333.5 192.5t-123.5 393.5q0 269 154 433t410 164q160 0 290 -74.5t199 -208.5l-187 -102q-57 94 -129 137t-169 43q-153 0 -244 -106t-91 -286q0 -179 92 -284.5t245 -105.5q101 0 171.5 47t124.5 148z
" />
    <glyph glyph-name="ccircumflex.sc" horiz-adv-x="1211" 
d="M654 1393l-127 -167h-209l225 309h223l223 -309h-208zM956 376l189 -100q-78 -148 -202.5 -224.5t-285.5 -76.5q-256 0 -411.5 164t-155.5 432q0 269 154 433t410 164q160 0 290 -74.5t199 -208.5l-187 -102q-57 94 -129 137t-169 43q-153 0 -244 -106t-91 -286
q0 -179 92 -284.5t245 -105.5q101 0 171.5 47t124.5 148z" />
    <glyph glyph-name="cdotaccent.sc" horiz-adv-x="1211" 
d="M528 1271v225h252v-225h-252zM657 -25q-256 0 -411.5 164t-155.5 432q0 269 154 433t410 164q160 0 290 -74.5t199 -208.5l-187 -102q-57 94 -129 137t-169 43q-153 0 -244 -106t-91 -286q0 -179 92 -284.5t245 -105.5q101 0 171.5 47t124.5 148l189 -100
q-78 -148 -202.5 -224.5t-285.5 -76.5z" />
    <glyph glyph-name="d.sc" horiz-adv-x="1273" 
d="M609 1144q265 0 420.5 -154.5t155.5 -418.5t-155.5 -417.5t-420.5 -153.5h-452v1144h452zM598 202q163 0 257.5 99t94.5 270q0 172 -94.5 271.5t-257.5 99.5h-215v-740h215z" />
    <glyph glyph-name="eth.sc" horiz-adv-x="1263" 
d="M598 1144q266 0 421.5 -154t155.5 -418t-155.5 -418t-421.5 -154h-452v480h-113v184h113v480h452zM587 203q163 0 258.5 99t95.5 270t-95 270t-258 99h-214v-277h268v-184h-268v-277h213z" />
    <glyph glyph-name="dcaron.sc" horiz-adv-x="1274" 
d="M698 1226h-222l-225 309h209l128 -167l126 167h208zM609 1144q265 0 420.5 -154.5t155.5 -418.5t-155.5 -417.5t-420.5 -153.5h-452v1144h452zM598 202q163 0 257.5 99t94.5 270q0 172 -94.5 271.5t-257.5 99.5h-215v-740h215z" />
    <glyph glyph-name="dcroat.sc" horiz-adv-x="1264" 
d="M598 1144q266 0 421.5 -154t155.5 -418t-155.5 -418t-421.5 -154h-452v480h-113v184h113v480h452zM587 203q163 0 258.5 99t95.5 270t-95 270t-258 99h-214v-277h268v-184h-268v-277h213z" />
    <glyph glyph-name="e.sc" horiz-adv-x="1113" 
d="M383 200h636v-200h-863v1144h855v-200h-628v-272h568v-187h-568v-285z" />
    <glyph glyph-name="eacute.sc" horiz-adv-x="1117" 
d="M858 1544l-207 -315h-194l160 315h241zM383 200h636v-200h-863v1144h855v-200h-628v-272h568v-187h-568v-285z" />
    <glyph glyph-name="ebreve.sc" horiz-adv-x="1117" 
d="M593 1219q-137 0 -227 87t-99 229h173q9 -74 51.5 -120t101.5 -46t101 46t50 120h174q-9 -142 -98.5 -229t-226.5 -87zM383 200h636v-200h-863v1144h855v-200h-628v-272h568v-187h-568v-285z" />
    <glyph glyph-name="ecaron.sc" horiz-adv-x="1117" 
d="M700 1226h-222l-225 309h209l128 -166l126 166h209zM383 200h636v-200h-863v1144h855v-200h-628v-272h568v-187h-568v-285z" />
    <glyph glyph-name="ecircumflex.sc" horiz-adv-x="1117" 
d="M593 1393l-128 -167h-208l224 309h224l223 -309h-209zM383 200h636v-200h-863v1144h855v-200h-628v-272h568v-187h-568v-285z" />
    <glyph glyph-name="edieresis.sc" horiz-adv-x="1117" 
d="M514 1496v-219h-232v219h232zM903 1496v-219h-231v219h231zM383 200h636v-200h-863v1144h855v-200h-628v-272h568v-187h-568v-285z" />
    <glyph glyph-name="edotaccent.sc" horiz-adv-x="1117" 
d="M719 1496v-225h-252v225h252zM383 200h636v-200h-863v1144h855v-200h-628v-272h568v-187h-568v-285z" />
    <glyph glyph-name="egrave.sc" horiz-adv-x="1117" 
d="M728 1229h-194l-207 315h241zM383 200h636v-200h-863v1144h855v-200h-628v-272h568v-187h-568v-285z" />
    <glyph glyph-name="emacron.sc" horiz-adv-x="1117" 
d="M885 1462v-163h-586v163h586zM383 200h636v-200h-863v1144h855v-200h-628v-272h568v-187h-568v-285z" />
    <glyph glyph-name="eogonek.sc" horiz-adv-x="1117" 
d="M978 -232l68 -141q-84 -54 -177 -54q-117 0 -188.5 58t-71.5 153q0 123 152 216h-605v1144h855v-200h-628v-272h568v-187h-568v-285h636v-200h-81q-71 -38 -112 -85.5t-41 -90.5q0 -39 27.5 -63t72.5 -24t93 31z" />
    <glyph glyph-name="uni0259.sc" horiz-adv-x="1291" 
d="M615 1164q266 0 426.5 -161.5t160.5 -429.5q0 -270 -155.5 -434t-409.5 -164q-247 0 -397.5 164.5t-150.5 428.5v73h877q-17 150 -107 234t-248 84q-202 0 -311 -159l-172 130q165 234 487 234zM642 180q121 0 206.5 71.5t110.5 207.5h-628q24 -134 107 -206.5t204 -72.5
z" />
    <glyph glyph-name="f.sc" horiz-adv-x="1077" 
d="M1013 944h-630v-286h544v-192h-544v-466h-226v1144h856v-200z" />
    <glyph glyph-name="g.sc" horiz-adv-x="1257" 
d="M667 628h481v-628h-198v110q-47 -64 -127.5 -99.5t-183.5 -35.5q-246 0 -398 164t-152 432q0 273 157.5 435t417.5 162q143 0 265.5 -58.5t203.5 -173.5l-179 -121q-54 76 -121.5 111.5t-163.5 35.5q-155 0 -250.5 -104t-95.5 -287t93.5 -286t251.5 -103
q126 0 202.5 64.5t79.5 186.5v3h-283v192z" />
    <glyph glyph-name="uni01F5.sc" horiz-adv-x="1263" 
d="M932 1544l-207 -315h-195l160 315h242zM667 628h481v-628h-198v110q-47 -64 -127.5 -99.5t-183.5 -35.5q-246 0 -398 164t-152 432q0 273 157.5 435t417.5 162q143 0 265.5 -58.5t203.5 -173.5l-179 -121q-54 76 -121.5 111.5t-163.5 35.5q-155 0 -250.5 -104t-95.5 -287
t93.5 -286t251.5 -103q126 0 202.5 64.5t79.5 186.5v3h-283v192z" />
    <glyph glyph-name="gbreve.sc" horiz-adv-x="1263" 
d="M666 1219q-137 0 -226.5 87t-98.5 229h173q8 -74 50.5 -120t101.5 -46t101 46t51 120h173q-9 -142 -98.5 -229t-226.5 -87zM667 628h481v-628h-198v110q-47 -64 -127.5 -99.5t-183.5 -35.5q-246 0 -398 164t-152 432q0 273 157.5 435t417.5 162q143 0 265.5 -58.5
t203.5 -173.5l-179 -121q-54 76 -121.5 111.5t-163.5 35.5q-155 0 -250.5 -104t-95.5 -287t93.5 -286t251.5 -103q126 0 202.5 64.5t79.5 186.5v3h-283v192z" />
    <glyph glyph-name="gcircumflex.sc" horiz-adv-x="1263" 
d="M667 1393l-128 -167h-209l225 309h222l224 -309h-208zM667 628h481v-628h-198v110q-47 -64 -127.5 -99.5t-183.5 -35.5q-246 0 -398 164t-152 432q0 273 157.5 435t417.5 162q143 0 265.5 -58.5t203.5 -173.5l-179 -121q-54 76 -121.5 111.5t-163.5 35.5
q-155 0 -250.5 -104t-95.5 -287t93.5 -286t251.5 -103q126 0 202.5 64.5t79.5 186.5v3h-283v192z" />
    <glyph glyph-name="uni0123.sc" horiz-adv-x="1263" 
d="M667 628h481v-628h-198v110q-47 -64 -127.5 -99.5t-183.5 -35.5q-246 0 -398 164t-152 432q0 273 157.5 435t417.5 162q143 0 265.5 -58.5t203.5 -173.5l-179 -121q-54 76 -121.5 111.5t-163.5 35.5q-155 0 -250.5 -104t-95.5 -287t93.5 -286t251.5 -103
q126 0 202.5 64.5t79.5 186.5v3h-283v192zM532 -272v193h241v-199q0 -62 -38.5 -107.5t-114.5 -82.5l-58 86q53 27 74.5 50.5t21.5 59.5h-126z" />
    <glyph glyph-name="gdotaccent.sc" horiz-adv-x="1263" 
d="M792 1496v-225h-252v225h252zM667 628h481v-628h-198v110q-47 -64 -127.5 -99.5t-183.5 -35.5q-246 0 -398 164t-152 432q0 273 157.5 435t417.5 162q143 0 265.5 -58.5t203.5 -173.5l-179 -121q-54 76 -121.5 111.5t-163.5 35.5q-155 0 -250.5 -104t-95.5 -287
t93.5 -286t251.5 -103q126 0 202.5 64.5t79.5 186.5v3h-283v192z" />
    <glyph glyph-name="h.sc" horiz-adv-x="1312" 
d="M930 1144h227v-1144h-227v476h-547v-476h-227v1144h227v-465h547v465z" />
    <glyph glyph-name="hbar.sc" horiz-adv-x="1311" 
d="M1269 988v-167h-113v-821h-227v476h-547v-476h-227v821h-112v167h112v156h227v-159h547v159h227v-156h113zM382 679h547v145h-547v-145z" />
    <glyph glyph-name="hcircumflex.sc" horiz-adv-x="1312" 
d="M657 1393l-128 -167h-208l224 309h223l223 -309h-208zM930 1144h227v-1144h-227v476h-547v-476h-227v1144h227v-465h547v465z" />
    <glyph glyph-name="i.sc" horiz-adv-x="539" 
d="M157 0v1144h226v-1144h-226z" />
    <glyph glyph-name="iacute.sc" horiz-adv-x="538" 
d="M133 1229l161 315h241l-207 -315h-195zM157 0v1144h226v-1144h-226z" />
    <glyph glyph-name="ibreve.sc" horiz-adv-x="538" 
d="M269 1219q-137 0 -226.5 87t-98.5 229h173q9 -74 51 -120t101 -46t101.5 46t50.5 120h173q-9 -142 -98.5 -229t-226.5 -87zM157 0v1144h226v-1144h-226z" />
    <glyph glyph-name="icircumflex.sc" horiz-adv-x="538" 
d="M381 1535l223 -309h-209l-126 167l-128 -167h-208l225 309h223zM157 0v1144h226v-1144h-226z" />
    <glyph glyph-name="idieresis.sc" horiz-adv-x="539" 
d="M-31 1277v218h221v-218h-221zM348 1277v218h221v-218h-221zM157 0v1144h227v-1144h-227z" />
    <glyph glyph-name="i.sc.loclTRK" horiz-adv-x="538" 
d="M143 1271v225h252v-225h-252zM156 0v1144h227v-1144h-227z" />
    <glyph glyph-name="igrave.sc" horiz-adv-x="538" 
d="M210 1229l-207 315h242l161 -315h-196zM157 0v1144h226v-1144h-226z" />
    <glyph glyph-name="ij.sc" horiz-adv-x="1525" 
d="M157 0v1144h226v-1144h-226zM1005 -23q-149 0 -245 55.5t-157 174.5l183 107q66 -135 200 -135q82 0 127 52.5t45 145.5v767h226v-793q0 -174 -100 -274t-279 -100z" />
    <glyph glyph-name="imacron.sc" horiz-adv-x="538" 
d="M-25 1299v163h586v-163h-586zM157 0v1144h226v-1144h-226z" />
    <glyph glyph-name="iogonek.sc" horiz-adv-x="538" 
d="M381 -234l68 -141q-75 -52 -180 -52q-110 0 -176.5 61t-66.5 152q0 122 131 215v1143h226v-1144h-56q-54 -34 -89 -79.5t-35 -94.5q0 -40 25 -65t67 -25t86 30z" />
    <glyph glyph-name="itilde.sc" horiz-adv-x="538" 
d="M390 1250q-67 0 -142 50q-66 40 -107 40q-34 0 -62 -19.5t-69 -70.5l-130 118q69 86 130 122.5t132 36.5q69 0 143 -49q59 -41 106 -41q36 0 63.5 21.5t67.5 68.5l130 -118q-69 -86 -130 -122.5t-132 -36.5zM157 0v1144h226v-1144h-226z" />
    <glyph glyph-name="j.sc" horiz-adv-x="986" 
d="M466 -23q-149 0 -244.5 55.5t-156.5 174.5l183 107q66 -135 199 -135q82 0 127.5 52.5t45.5 145.5v767h226v-793q0 -174 -100.5 -274t-279.5 -100z" />
    <glyph glyph-name="jcircumflex.sc" horiz-adv-x="987" 
d="M845 1535l223 -309h-209l-126 167l-128 -167h-209l226 309h223zM620 377v767h226v-793q0 -174 -100.5 -274t-279.5 -100q-149 0 -244.5 55.5t-156.5 174.5l183 107q66 -135 199 -135q82 0 127.5 52.5t45.5 145.5z" />
    <glyph glyph-name="k.sc" horiz-adv-x="1177" 
d="M891 0l-326 509l-182 -204v-305h-226v1144h226v-541l477 541h275l-422 -470l444 -674h-266z" />
    <glyph glyph-name="uni0137.sc" horiz-adv-x="1177" 
d="M713 674l444 -674h-266l-326 509l-182 -204v-305h-226v1144h226v-541l477 541h275zM500 -272v193h240v-199q0 -62 -38.5 -107.5t-114.5 -82.5l-58 86q53 27 75 51t22 59h-126z" />
    <glyph glyph-name="l.sc" horiz-adv-x="979" 
d="M383 203h552v-203h-779v1144h227v-941z" />
    <glyph glyph-name="lacute.sc" horiz-adv-x="979" 
d="M535 1544l-207 -315h-195l161 315h241zM383 203h552v-203h-779v1144h227v-941z" />
    <glyph glyph-name="i.sc.latn_TRK.sc" horiz-adv-x="538" 
d="M143 1271v225h252v-225h-252zM157 0v1144h226v-1144h-226z" />
    <glyph glyph-name="lcaron.sc" horiz-adv-x="979" 
d="M383 203h552v-203h-779v1144h227v-941zM773 1144l-51 -448h-174v448h225z" />
    <glyph glyph-name="uni013C.sc" horiz-adv-x="979" 
d="M383 203h552v-203h-779v1144h227v-941zM449 -272v193h240v-199q0 -62 -38.5 -107.5t-114.5 -82.5l-59 86q54 27 75.5 50.5t21.5 59.5h-125z" />
    <glyph glyph-name="ldot.sc" horiz-adv-x="979" 
d="M382 202h554v-202h-779v1144h225v-942zM870 776v-242h-236v242h236z" />
    <glyph glyph-name="cacute.loclPLK.sc" horiz-adv-x="1211" 
d="M492 1229l109 315h235l-156 -315h-188zM657 -25q-256 0 -411.5 164t-155.5 432q0 269 154 433t410 164q160 0 290 -74.5t199 -208.5l-187 -102q-57 94 -129 137t-169 43q-153 0 -244 -106t-91 -286q0 -179 92 -284.5t245 -105.5q101 0 171.5 47t124.5 148l189 -100
q-78 -148 -202.5 -224.5t-285.5 -76.5z" />
    <glyph glyph-name="nacute.loclPLK.sc" horiz-adv-x="1298" 
d="M830 1544l-155 -315h-189l110 315h234zM914 1144h228v-1144h-266l-493 811v-811h-227v1144h262l496 -816v816z" />
    <glyph glyph-name="oacute.loclPLK.sc" horiz-adv-x="1335" 
d="M504 1230l109 314h236l-157 -314h-188zM668 -25q-263 0 -421 163.5t-158 433.5q0 269 158.5 433.5t420.5 164.5t420 -164.5t158 -433.5q0 -270 -157.5 -433.5t-420.5 -163.5zM668 182q156 0 250.5 106t94.5 284q0 179 -94.5 285.5t-250.5 106.5t-250 -106.5t-94 -285.5
q0 -178 94 -284t250 -106z" />
    <glyph glyph-name="sacute.loclPLK.sc" horiz-adv-x="1161" 
d="M433 1229l110 315h235l-156 -315h-189zM597 -25q-172 0 -304 58.5t-215 169.5l159 137q125 -165 361 -165q109 0 176.5 40t67.5 101q0 28 -10 50t-32 38t-44 27t-60.5 19.5t-66 13.5t-74.5 12q-50 8 -87.5 15t-85.5 21t-83 31t-71 44t-58.5 60t-37 79t-14.5 102
q0 156 125.5 248.5t336.5 92.5q158 0 284 -56t210 -161l-161 -133q-124 151 -336 151q-100 0 -163 -38t-63 -97q0 -36 20 -62.5t59 -43.5t81 -27t101 -18q54 -7 90.5 -13.5t89.5 -20t88.5 -29.5t75.5 -43.5t63.5 -61.5t39.5 -83t16 -108q0 -160 -128.5 -255t-349.5 -95z" />
    <glyph glyph-name="zacute.loclPLK.sc" horiz-adv-x="1085" 
d="M372 1229l108 315h236l-156 -315h-188zM79 0v187l620 755h-604v202h895v-188l-621 -755h638v-201h-928z" />
    <glyph glyph-name="lslash.sc" horiz-adv-x="979" 
d="M383 203h552v-203h-779v429l-123 -58v204l123 59v510h227v-411l388 186v-205l-388 -186v-325z" />
    <glyph glyph-name="m.sc" horiz-adv-x="1561" 
d="M1406 1144v-1144h-227v808l-291 -808h-213l-292 809v-809h-226v1144h305l318 -860l320 860h306z" />
    <glyph glyph-name="n.sc" horiz-adv-x="1297" 
d="M914 1144h228v-1144h-266l-493 811v-811h-227v1144h262l496 -816v816z" />
    <glyph glyph-name="nacute.sc" horiz-adv-x="1298" 
d="M915 1544l-206 -315h-196l161 315h241zM914 1144h228v-1144h-266l-493 811v-811h-227v1144h262l496 -816v816z" />
    <glyph glyph-name="napostrophe.sc" horiz-adv-x="1650" 
d="M132 1189v286h279v-296q0 -118 -37 -190.5t-127 -141.5l-94 104q71 46 94 100.5t23 137.5h-138zM1267 1144h227v-1144h-266l-493 811v-811h-227v1144h262l497 -816v816z" />
    <glyph glyph-name="ncaron.sc" horiz-adv-x="1298" 
d="M758 1226h-223l-225 309h209l127 -166l126 166h209zM914 1144h228v-1144h-266l-493 811v-811h-227v1144h262l496 -816v816z" />
    <glyph glyph-name="uni0146.sc" horiz-adv-x="1298" 
d="M914 1144h228v-1144h-266l-493 811v-811h-227v1144h262l496 -816v816zM529 -272v193h241v-199q0 -115 -154 -190l-58 86q54 27 75.5 50.5t21.5 59.5h-126z" />
    <glyph glyph-name="eng.sc" horiz-adv-x="1298" 
d="M915 1144h228v-1149q0 -123 -94 -195.5t-250 -72.5q-119 0 -217 45l67 178q66 -32 132 -32q62 0 98 29.5t36 80.5v14l-532 774v-816h-227v1144h263l496 -742v742z" />
    <glyph glyph-name="ntilde.sc" horiz-adv-x="1298" 
d="M521 1340q-33 0 -61.5 -19.5t-68.5 -70.5l-130 118q68 86 129 122.5t132 36.5q70 0 143 -49q61 -41 107 -41q35 0 63.5 21.5t66.5 68.5l130 -118q-68 -86 -129 -122.5t-132 -36.5q-69 0 -142 50q-68 40 -108 40zM914 1144h228v-1144h-266l-493 811v-811h-227v1144h262
l496 -816v816z" />
    <glyph glyph-name="o.sc" horiz-adv-x="1335" 
d="M668 -25q-263 0 -421 163.5t-158 433.5q0 269 158.5 433.5t420.5 164.5t420 -164.5t158 -433.5q0 -270 -157.5 -433.5t-420.5 -163.5zM668 182q156 0 250.5 106t94.5 284q0 179 -94.5 285.5t-250.5 106.5t-250 -106.5t-94 -285.5q0 -178 94 -284t250 -106z" />
    <glyph glyph-name="oacute.sc" horiz-adv-x="1335" 
d="M531 1230l161 314h241l-207 -314h-195zM668 -25q-263 0 -421 163.5t-158 433.5q0 269 158.5 433.5t420.5 164.5t420 -164.5t158 -433.5q0 -270 -157.5 -433.5t-420.5 -163.5zM668 182q156 0 250.5 106t94.5 284q0 179 -94.5 285.5t-250.5 106.5t-250 -106.5t-94 -285.5
q0 -178 94 -284t250 -106z" />
    <glyph glyph-name="obreve.sc" horiz-adv-x="1335" 
d="M668 1219q-138 0 -227.5 87t-98.5 230h173q9 -74 51.5 -120.5t101.5 -46.5t101 46.5t50 120.5h173q-8 -143 -97.5 -230t-226.5 -87zM668 -25q-263 0 -421 163.5t-158 433.5q0 269 158.5 433.5t420.5 164.5t420 -164.5t158 -433.5q0 -270 -157.5 -433.5t-420.5 -163.5z
M668 182q156 0 250.5 106t94.5 284q0 179 -94.5 285.5t-250.5 106.5t-250 -106.5t-94 -285.5q0 -178 94 -284t250 -106z" />
    <glyph glyph-name="ocircumflex.sc" horiz-adv-x="1335" 
d="M668 1393l-128 -167h-208l224 310h223l223 -310h-208zM668 1170q262 0 420 -164.5t158 -433.5q0 -270 -157.5 -433.5t-420.5 -163.5t-421 163.5t-158 433.5q0 269 158.5 433.5t420.5 164.5zM668 182q156 0 250.5 106t94.5 284q0 179 -94.5 285.5t-250.5 106.5
t-250 -106.5t-94 -285.5q0 -178 94 -284t250 -106z" />
    <glyph glyph-name="odieresis.sc" horiz-adv-x="1335" 
d="M357 1278v218h232v-218h-232zM746 1278v218h232v-218h-232zM668 -25q-263 0 -421 163.5t-158 433.5q0 269 158.5 433.5t420.5 164.5t420 -164.5t158 -433.5q0 -270 -157.5 -433.5t-420.5 -163.5zM668 182q156 0 250.5 106t94.5 284q0 179 -94.5 285.5t-250.5 106.5
t-250 -106.5t-94 -285.5q0 -178 94 -284t250 -106z" />
    <glyph glyph-name="ograve.sc" horiz-adv-x="1335" 
d="M609 1230l-208 314h242l161 -314h-195zM668 -25q-263 0 -421 163.5t-158 433.5q0 269 158.5 433.5t420.5 164.5t420 -164.5t158 -433.5q0 -270 -157.5 -433.5t-420.5 -163.5zM668 182q156 0 250.5 106t94.5 284q0 179 -94.5 285.5t-250.5 106.5t-250 -106.5t-94 -285.5
q0 -178 94 -284t250 -106z" />
    <glyph glyph-name="ohungarumlaut.sc" horiz-adv-x="1335" 
d="M372 1276l160 315h242l-208 -315h-194zM728 1276l161 315h240l-206 -315h-195zM668 -25q-263 0 -421 163.5t-158 433.5q0 269 158.5 433.5t420.5 164.5t420 -164.5t158 -433.5q0 -270 -157.5 -433.5t-420.5 -163.5zM668 182q156 0 250.5 106t94.5 284q0 179 -94.5 285.5
t-250.5 106.5t-250 -106.5t-94 -285.5q0 -178 94 -284t250 -106z" />
    <glyph glyph-name="omacron.sc" horiz-adv-x="1335" 
d="M374 1300v162h585v-162h-585zM668 -25q-263 0 -421 163.5t-158 433.5q0 269 158.5 433.5t420.5 164.5t420 -164.5t158 -433.5q0 -270 -157.5 -433.5t-420.5 -163.5zM668 182q156 0 250.5 106t94.5 284q0 179 -94.5 285.5t-250.5 106.5t-250 -106.5t-94 -285.5
q0 -178 94 -284t250 -106z" />
    <glyph glyph-name="oslash.sc" horiz-adv-x="1348" 
d="M1118 979q134 -159 134 -407q0 -269 -157.5 -433t-419.5 -164q-173 0 -304 74l-120 -148l-142 115l120 150q-133 161 -133 406q0 269 158 433t421 164q172 0 303 -73l119 148l143 -115zM675 963q-157 0 -250.5 -106t-93.5 -285q0 -129 51 -222l462 572q-73 41 -169 41z
M675 182q156 0 249.5 105.5t93.5 284.5q0 132 -51 225l-463 -573q74 -42 171 -42z" />
    </font>
</defs>
</svg>
