<?xml version="1.0" standalone="no"?>
<!DOCTYPE svg PUBLIC "-//W3C//DTD SVG 1.1//EN" "http://www.w3.org/Graphics/SVG/1.1/DTD/svg11.dtd" >
<svg xmlns="http://www.w3.org/2000/svg" xmlns:xlink="http://www.w3.org/1999/xlink" version="1.1">
<metadata>
Created by FontForge 20170731 at Sat Dec  5 07:00:00 2020
 By Aleksey,,,
Copyright (c) 2019 Monotype Imaging Inc. All rights reserved.
</metadata>
<defs>
<font id="Infra-Regular" horiz-adv-x="1228" >
  <font-face 
    font-family="Infra"
    font-weight="400"
    font-stretch="normal"
    units-per-em="2048"
    panose-1="2 11 5 0 0 0 0 2 0 0"
    ascent="1582"
    descent="-466"
    x-height="1068"
    cap-height="1475"
    bbox="-966 -600 2685 2169"
    underline-thickness="155"
    underline-position="-421"
    unicode-range="U+000D-FEFF"
  />
<missing-glyph horiz-adv-x="1201" 
d="M188 0v1475h825v-1475h-825zM342 143h518v1188h-518v-1188z" />
    <glyph glyph-name="fi" unicode="fi" horiz-adv-x="1212" 
d="M539 1343q-82 0 -113 -47t-31 -154v-74h258v-154h-258v-914h-174v914h-159v154h159v117q0 155 86.5 235.5t223.5 80.5q70 0 142 -25l-45 -145q-45 12 -89 12zM860 1475h194v-199h-194v199zM869 0v1068h174v-1068h-174z" />
    <glyph glyph-name="fl" unicode="fl" horiz-adv-x="1212" 
d="M539 1343q-82 0 -113 -47t-31 -154v-74h258v-154h-258v-914h-174v914h-159v154h159v117q0 155 86.5 235.5t223.5 80.5q70 0 142 -25l-45 -145q-45 12 -89 12zM869 1475h174v-1475h-174v1475z" />
    <glyph glyph-name="f_f" unicode="ff" horiz-adv-x="1350" 
d="M1044 1142v-74h259v-154h-259v-914h-174v914h-475v-914h-174v914h-159v154h159v117q0 154 86.5 234.5t223.5 80.5q69 0 141 -24l-44 -145q-47 12 -89 12q-83 0 -113.5 -46.5t-30.5 -154.5v-74h475v117q0 154 87 234.5t225 80.5q68 0 140 -24l-45 -145q-45 12 -88 12
q-83 0 -114 -47t-31 -154z" />
    <glyph glyph-name="f_f_i" unicode="ffi" horiz-adv-x="1862" 
d="M1189 1343q-83 0 -114 -47t-31 -154v-74h259v-154h-259v-914h-174v914h-475v-914h-174v914h-159v154h159v117q0 154 86.5 234.5t223.5 80.5q69 0 141 -24l-44 -145q-47 12 -89 12q-83 0 -113.5 -46.5t-30.5 -154.5v-74h475v117q0 154 87 234.5t225 80.5q68 0 140 -24
l-45 -145q-45 12 -88 12zM1510 1475h193v-199h-193v199zM1520 0v1068h174v-1068h-174z" />
    <glyph glyph-name="f_f_l" unicode="ffl" horiz-adv-x="1862" 
d="M1189 1343q-83 0 -114 -47t-31 -154v-74h259v-154h-259v-914h-174v914h-475v-914h-174v914h-159v154h159v117q0 154 86.5 234.5t223.5 80.5q69 0 141 -24l-44 -145q-47 12 -89 12q-83 0 -113.5 -47t-30.5 -154v-74h475v117q0 154 87 234.5t225 80.5q68 0 140 -24
l-45 -145q-45 12 -88 12zM1520 1475h174v-1475h-174v1475z" />
    <glyph glyph-name=".notdef" horiz-adv-x="1201" 
d="M188 0v1475h825v-1475h-825zM342 143h518v1188h-518v-1188z" />
    <glyph glyph-name=".null" horiz-adv-x="0" 
 />
    <glyph glyph-name="nonmarkingreturn" horiz-adv-x="682" 
 />
    <glyph glyph-name="NULL" horiz-adv-x="0" 
 />
    <glyph glyph-name="NULL" horiz-adv-x="0" 
 />
    <glyph glyph-name="CR" unicode="&#xd;" horiz-adv-x="502" 
 />
    <glyph glyph-name="space" unicode=" " horiz-adv-x="502" 
 />
    <glyph glyph-name="exclam" unicode="!" horiz-adv-x="595" 
d="M242 373l-40 625v477h192v-477l-39 -625h-113zM189 0v233h219v-233h-219z" />
    <glyph glyph-name="quotedbl" unicode="&#x22;" horiz-adv-x="793" 
d="M154 966v509h171v-509h-171zM469 966v509h171v-509h-171z" />
    <glyph glyph-name="numbersign" unicode="#" horiz-adv-x="1552" 
d="M1417 924h-238l-78 -373h238l-32 -156h-239l-82 -395h-170l82 395h-387l-82 -395h-170l82 395h-239l32 156h240l78 373h-239l33 155h238l82 396h170l-82 -396h387l82 396h170l-82 -396h239zM931 551l78 373h-387l-78 -373h387z" />
    <glyph glyph-name="dollar" unicode="$" horiz-adv-x="1311" 
d="M1205 392q0 -175 -124.5 -287.5t-337.5 -129.5v-150h-166v152q-165 18 -288.5 96.5t-192.5 211.5l153 92q98 -195 328 -230v502q-73 14 -131.5 32t-119 50t-101 74.5t-66 107t-25.5 145.5q0 163 120.5 267.5t322.5 121.5v151h166v-154q153 -18 272 -92t182 -194l-149 -87
q-42 82 -121.5 133.5t-183.5 69.5v-473q78 -14 135.5 -29t123 -46.5t107 -72.5t69 -108t27.5 -153zM323 1061q0 -92 67 -145.5t187 -82.5v445q-116 -14 -185 -72.5t-69 -144.5zM743 144q126 14 200 79.5t74 164.5q0 54 -20.5 94.5t-60.5 67t-85 42.5t-108 29v-477z" />
    <glyph glyph-name="percent" unicode="%" horiz-adv-x="1969" 
d="M486 684q-159 0 -258.5 105t-99.5 275t99 275t259 105q159 0 258.5 -105t99.5 -275t-99.5 -275t-258.5 -105zM454 0l909 1423h162l-910 -1423h-161zM486 825q92 0 148 66t56 173q0 108 -56 174t-148 66t-148 -66t-56 -174q0 -107 56 -173t148 -66zM1483 -20
q-159 0 -258.5 104.5t-99.5 274.5t99.5 275t258.5 105t258 -105t99 -275t-99 -274.5t-258 -104.5zM1483 120q92 0 148.5 65.5t56.5 173.5q0 107 -56.5 173.5t-148.5 66.5t-148.5 -66.5t-56.5 -173.5q0 -108 56.5 -173.5t148.5 -65.5z" />
    <glyph glyph-name="ampersand" unicode="&#x26;" horiz-adv-x="1435" 
d="M1379 0h-217l-102 110q-170 -133 -415 -133q-226 0 -368 109t-142 303q0 73 21.5 136t62.5 112.5t87.5 87.5t108.5 75q-75 84 -119 167.5t-44 184.5q0 152 102 248.5t279 96.5q176 0 277 -95.5t101 -239.5q0 -127 -81.5 -223.5t-236.5 -180.5l361 -399q66 102 95 236
l170 -40q-47 -198 -145 -329zM632 1332q-93 0 -143.5 -52t-50.5 -138q0 -74 35 -134t98 -125q137 70 194.5 129.5t57.5 140.5q0 76 -48.5 127.5t-142.5 51.5zM648 142q167 0 292 96l-404 431q-111 -68 -162 -130.5t-51 -149.5q0 -122 93 -184.5t232 -62.5z" />
    <glyph glyph-name="quotesingle" unicode="'" horiz-adv-x="478" 
d="M154 966v509h171v-509h-171z" />
    <glyph glyph-name="parenleft" unicode="(" horiz-adv-x="679" 
d="M503 -321q-406 409 -406 971t406 971l127 -104q-354 -381 -354 -867q0 -485 354 -866z" />
    <glyph glyph-name="parenright" unicode=")" horiz-adv-x="679" 
d="M177 -321l-127 105q354 381 354 866q0 486 -354 867l127 104q406 -408 406 -971t-406 -971z" />
    <glyph glyph-name="asterisk" unicode="*" horiz-adv-x="685" 
d="M224 903l-116 83l120 171l-177 47l37 137l182 -50v184h145v-184l183 50l36 -137l-177 -47l122 -171l-118 -83l-118 170z" />
    <glyph glyph-name="plus" unicode="+" 
d="M1068 653v-155h-370v-364h-168v364h-368v155h368v362h168v-362h370z" />
    <glyph glyph-name="comma" unicode="," horiz-adv-x="531" 
d="M154 239h225v-249q0 -114 -33 -182t-106 -124l-73 77q62 49 80.5 102.5t18.5 136.5h-112v239z" />
    <glyph glyph-name="hyphen" unicode="-" horiz-adv-x="826" 
d="M144 498v155h539v-155h-539z" />
    <glyph glyph-name="period" unicode="." horiz-adv-x="531" 
d="M154 0v239h225v-239h-225z" />
    <glyph glyph-name="slash" unicode="/" horiz-adv-x="947" 
d="M20 -215l755 1823h163l-750 -1823h-168z" />
    <glyph glyph-name="zero" unicode="0" horiz-adv-x="1325" 
d="M663 -27q-174 0 -297 97t-181.5 261.5t-58.5 380.5q0 161 34 295t99.5 233t169 154.5t234.5 55.5t234 -55.5t168.5 -154.5t99.5 -233t34 -295t-34 -295t-99.5 -233.5t-168.5 -155t-234 -55.5zM663 141q117 0 197.5 77.5t116.5 203t36 290.5t-36 290t-116.5 202.5
t-197.5 77.5q-88 0 -156.5 -44t-110.5 -122t-63 -180t-21 -224q0 -164 36.5 -290t117 -203.5t197.5 -77.5z" />
    <glyph glyph-name="one" unicode="1" horiz-adv-x="936" 
d="M673 1423v-1423h-180v1185l-247 -221l-106 128l373 331h160z" />
    <glyph glyph-name="two" unicode="2" horiz-adv-x="1158" 
d="M356 164h686v-164h-947v152l484 473q51 49 77.5 76t67.5 75.5t62 86.5t37.5 90t16.5 104q0 100 -70 163t-196 63q-119 0 -199 -69t-104 -210l-172 37q24 134 95.5 228t170 137.5t216.5 43.5q202 0 323.5 -107.5t121.5 -285.5q0 -70 -19 -138t-45.5 -119t-71.5 -108
t-79 -92t-86 -85z" />
    <glyph glyph-name="three" unicode="3" horiz-adv-x="1188" 
d="M851 744q110 -43 170.5 -130.5t60.5 -215.5q0 -192 -132.5 -308.5t-352.5 -116.5q-191 0 -323.5 88t-194.5 246l162 74q43 -116 134.5 -179t220.5 -63q133 0 215 75t82 195q0 119 -75.5 184t-210.5 65h-122v160h116q121 0 187.5 59t66.5 167q0 110 -69 175t-190 65
q-118 0 -200.5 -64.5t-114.5 -179.5l-167 54q49 168 175.5 262t305.5 94q209 0 329 -107.5t120 -286.5q0 -215 -193 -312z" />
    <glyph glyph-name="four" unicode="4" horiz-adv-x="1230" 
d="M1164 470v-162h-207v-308h-179v308h-697v152l676 963h200v-953h207zM276 470h502v729z" />
    <glyph glyph-name="five" unicode="5" horiz-adv-x="1206" 
d="M638 948q206 0 331.5 -131.5t125.5 -348.5q0 -222 -137 -358.5t-362 -136.5q-166 0 -299 78.5t-196 228.5l161 84q39 -107 126 -165.5t206 -58.5q141 0 227 91t86 238q0 143 -81.5 229.5t-215.5 86.5q-102 0 -179.5 -41t-116.5 -116h-163l90 795h772v-163h-624l-48 -422
q118 110 297 110z" />
    <glyph glyph-name="six" unicode="6" horiz-adv-x="1234" 
d="M660 944q213 0 338 -134t125 -347q0 -102 -31 -190t-89.5 -155t-150.5 -105.5t-207 -38.5q-166 0 -285 83.5t-175 226.5q-59 151 -59 386q0 388 144 584t402 196q140 0 253 -65t180 -187l-146 -91q-44 84 -118 130.5t-166 46.5q-69 0 -125.5 -22t-93.5 -57t-65.5 -84
t-44 -96t-25 -101.5t-12 -91.5t-3.5 -74q56 85 147 135.5t207 50.5zM645 138q135 0 214.5 89.5t79.5 232.5q0 144 -79.5 233.5t-214.5 89.5q-146 0 -228.5 -93t-82.5 -230q0 -135 83 -228.5t228 -93.5z" />
    <glyph glyph-name="seven" unicode="7" horiz-adv-x="1099" 
d="M72 1423h966v-152q-185 -223 -288 -402.5t-156 -386.5t-62 -482h-192q17 398 122 665.5t373 595.5h-763v162z" />
    <glyph glyph-name="eight" unicode="8" horiz-adv-x="1243" 
d="M622 -27q-239 0 -377.5 112t-138.5 301q0 260 253 351q-96 48 -154 127.5t-58 192.5q0 175 130.5 284t344.5 109q213 0 343 -109t130 -284q0 -215 -211 -320q253 -91 253 -351q0 -189 -138 -301t-377 -112zM622 803q130 0 210 69t80 176q0 111 -79.5 179t-210.5 68
t-211.5 -68t-80.5 -179q0 -107 81 -176t211 -69zM622 129q154 0 241.5 71.5t87.5 193.5q0 124 -87 193.5t-242 69.5t-243 -69.5t-88 -193.5q0 -122 88.5 -193.5t242.5 -71.5z" />
    <glyph glyph-name="nine" unicode="9" horiz-adv-x="1233" 
d="M1049 1151q60 -153 60 -401q0 -201 -39 -352.5t-110 -243t-164.5 -136.5t-208.5 -45q-150 0 -269 71t-189 201l144 90q46 -92 127.5 -144t183.5 -52q97 0 172 55.5t122 175t50 290.5q-54 -82 -144.5 -127t-203.5 -45q-214 0 -341 132.5t-127 343.5t126.5 348.5
t350.5 137.5q338 0 460 -299zM591 649q146 0 228.5 90.5t82.5 227.5q0 138 -82.5 228.5t-228.5 90.5q-134 0 -214.5 -87.5t-80.5 -231.5q0 -143 80.5 -230.5t214.5 -87.5z" />
    <glyph glyph-name="colon" unicode=":" horiz-adv-x="531" 
d="M154 829v239h225v-239h-225zM154 0v239h225v-239h-225z" />
    <glyph glyph-name="semicolon" unicode=";" horiz-adv-x="531" 
d="M154 1068h225v-239h-225v239zM154 0v239h225v-249q0 -114 -33 -182t-106 -124l-73 77q62 49 80.5 102.5t18.5 136.5h-112z" />
    <glyph glyph-name="less" unicode="&#x3c;" 
d="M1068 111l-906 420v177l906 420v-179l-738 -329l738 -330v-179z" />
    <glyph glyph-name="equal" unicode="=" 
d="M162 734v156h906v-156h-906zM162 317v156h906v-156h-906z" />
    <glyph glyph-name="greater" unicode="&#x3e;" 
d="M162 111v179l737 330l-737 329v179l906 -420v-177z" />
    <glyph glyph-name="question" unicode="?" horiz-adv-x="1058" 
d="M381 371v136q0 65 16 116.5t49.5 92t65 67t82.5 61.5q90 63 140.5 127t50.5 150q0 99 -65.5 155t-181.5 56t-198.5 -61t-119.5 -174l-164 59q57 162 183 251t302 89q195 0 312.5 -103.5t117.5 -271.5q0 -70 -19.5 -130t-56 -107t-74.5 -81.5t-88 -68.5q-46 -31 -71 -51
t-53 -50.5t-40.5 -66t-12.5 -80.5v-115h-175zM357 0v232h223v-232h-223z" />
    <glyph glyph-name="at" unicode="@" horiz-adv-x="2095" 
d="M1046 1464q197 0 368 -67t289.5 -182.5t186 -273t67.5 -333.5q0 -260 -100 -394t-275 -134q-101 0 -180.5 50.5t-105.5 126.5q-33 -67 -109.5 -115.5t-188.5 -48.5q-179 0 -298 133.5t-119 337.5q0 205 119 338.5t297 133.5q98 0 169.5 -40.5t112.5 -103.5v121h163v-597
q0 -178 152 -178q199 0 199 364q0 146 -56 276.5t-153 226.5t-237 152t-300 56t-298.5 -56.5t-236.5 -156t-154 -241t-56 -304.5t56 -304t154 -240.5t236.5 -156t299.5 -56.5q253 0 441 128l90 -129q-223 -151 -531 -151q-197 0 -366.5 67.5t-288.5 187t-187 288.5t-68 366
t68 366.5t187 288.5t288 186.5t365 67.5zM1017 247q118 0 190.5 87t72.5 230q0 144 -72.5 231.5t-190.5 87.5q-119 0 -192.5 -87.5t-73.5 -231.5t73.5 -230.5t192.5 -86.5z" />
    <glyph glyph-name="A" unicode="A" horiz-adv-x="1466" 
d="M1201 0l-153 408h-632l-154 -408h-197l566 1475h204l567 -1475h-201zM478 574h506l-253 671z" />
    <glyph glyph-name="B" unicode="B" horiz-adv-x="1417" 
d="M1041 762q115 -44 178 -133.5t63 -219.5q0 -190 -115.5 -299.5t-321.5 -109.5h-657v1475h619q205 0 321 -101.5t116 -279.5q0 -114 -53.5 -199t-149.5 -133zM374 1306v-470h411q122 0 195.5 62t73.5 173q0 108 -69 171.5t-190 63.5h-421zM833 169q121 0 190 68t69 182
q0 118 -73.5 184t-194.5 66h-450v-500h459z" />
    <glyph glyph-name="C" unicode="C" horiz-adv-x="1476" 
d="M796 -30q-206 0 -360.5 95.5t-237 269t-82.5 402.5q0 348 182.5 557.5t492.5 209.5q186 0 334 -86.5t243 -257.5l-157 -84q-151 253 -417 253q-222 0 -355 -161t-133 -431t135.5 -431t358.5 -161q142 0 240.5 68t168.5 211l162 -80q-97 -190 -239 -282t-336 -92z" />
    <glyph glyph-name="D" unicode="D" horiz-adv-x="1492" 
d="M708 1475q305 0 487 -199t182 -541q0 -340 -182 -537.5t-487 -197.5h-520v1475h520zM686 171q233 0 366.5 150.5t133.5 413.5q0 264 -134 416.5t-366 152.5h-312v-1133h312z" />
    <glyph glyph-name="E" unicode="E" horiz-adv-x="1304" 
d="M188 0v1475h997v-171h-811v-468h736v-168h-736v-497h820v-171h-1006z" />
    <glyph glyph-name="F" unicode="F" horiz-adv-x="1257" 
d="M1178 1305h-804v-488h702v-169h-702v-648h-186v1475h990v-170z" />
    <glyph glyph-name="G" unicode="G" horiz-adv-x="1523" 
d="M798 774h580v-774h-168v162q-65 -96 -172.5 -144t-242.5 -48q-204 0 -358.5 95.5t-237.5 269t-83 402.5t84 402.5t241.5 269t366.5 95.5q169 0 308 -72t237 -215l-149 -100q-72 110 -168.5 161t-228.5 51q-222 0 -361.5 -161t-139.5 -431q0 -271 138 -432t362 -161
q179 0 291.5 104t113.5 294v68h-413v164z" />
    <glyph glyph-name="H" unicode="H" horiz-adv-x="1533" 
d="M1159 1475h187v-1475h-187v658h-784v-658h-187v1475h187v-647h784v647z" />
    <glyph glyph-name="I" unicode="I" horiz-adv-x="563" 
d="M188 0v1475h187v-1475h-187z" />
    <glyph glyph-name="J" unicode="J" horiz-adv-x="1113" 
d="M519 -23q-159 0 -266 66t-178 205l151 91q48 -98 116.5 -145.5t167.5 -47.5q119 0 182 79t63 216v1034h185v-1053q0 -200 -114 -322.5t-307 -122.5z" />
    <glyph glyph-name="K" unicode="K" horiz-adv-x="1355" 
d="M1097 1l-456 741l-266 -308v-434h-187v1475h187v-785l679 785h221l-510 -589l554 -885h-222z" />
    <glyph glyph-name="L" unicode="L" horiz-adv-x="1140" 
d="M375 170h717v-170h-904v1475h187v-1305z" />
    <glyph glyph-name="M" unicode="M" horiz-adv-x="1819" 
d="M1631 1475v-1475h-185v1149l-437 -1149h-199l-436 1148v-1148h-186v1475h239l482 -1233l483 1233h239z" />
    <glyph glyph-name="N" unicode="N" horiz-adv-x="1513" 
d="M1140 1475h185v-1475h-233l-718 1202v-1202h-186v1475h227l725 -1209v1209z" />
    <glyph glyph-name="O" unicode="O" horiz-adv-x="1604" 
d="M802 -30q-316 0 -501 209.5t-185 557.5t185 557.5t501 209.5t501.5 -209.5t185.5 -557.5t-185.5 -557.5t-501.5 -209.5zM802 145q225 0 360 159.5t135 432.5t-135 432.5t-360 159.5q-224 0 -360 -160t-136 -432t136 -432t360 -160z" />
    <glyph glyph-name="P" unicode="P" horiz-adv-x="1293" 
d="M775 1475q206 0 325.5 -120t119.5 -321t-119.5 -320.5t-325.5 -119.5h-400v-594h-187v1475h587zM765 763q123 0 193.5 74t70.5 197q0 122 -70.5 196.5t-193.5 74.5h-390v-542h390z" />
    <glyph glyph-name="Q" unicode="Q" horiz-adv-x="1604" 
d="M1489 737q0 -192 -59 -346t-169 -255l130 -160l-127 -98l-136 166q-143 -74 -326 -74q-316 0 -501 209.5t-185 557.5t185 557.5t501 209.5t501.5 -209.5t185.5 -557.5zM802 145q115 0 209 44l-147 180l125 99l152 -186q156 161 156 455q0 273 -135 432.5t-360 159.5
q-224 0 -360 -160t-136 -432t136 -432t360 -160z" />
    <glyph glyph-name="R" unicode="R" horiz-adv-x="1310" 
d="M1017 0l-320 633h-323v-633h-186v1475h586q200 0 317.5 -112.5t117.5 -309.5q0 -164 -82.5 -270t-230.5 -138l335 -645h-214zM374 1305v-503h386q121 0 190 67t69 184t-69 184.5t-190 67.5h-386z" />
    <glyph glyph-name="S" unicode="S" horiz-adv-x="1347" 
d="M691 -29q-205 0 -359 84t-236 242l154 91q122 -247 442 -247q162 0 260.5 70t98.5 185q0 39 -12 72t-30 57t-50.5 44.5t-61 34t-75 26.5t-80 20.5t-87.5 18.5q-51 10 -82.5 16.5t-80 19t-79.5 24t-71.5 30.5t-66.5 39.5t-53.5 50t-43.5 63t-26 77t-10 94.5
q0 189 146.5 304t390.5 115q190 0 336 -78.5t219 -221.5l-154 -86q-49 102 -156 159t-246 57q-156 0 -251 -68.5t-95 -176.5q0 -36 11.5 -65.5t27.5 -51t48 -40.5t57.5 -30.5t72 -23.5t76.5 -18.5t84 -17.5q52 -10 84.5 -17t82.5 -19.5t82 -25t74.5 -32.5t69.5 -42t56 -53
t45.5 -67t27 -83t10.5 -101q0 -194 -150.5 -311.5t-399.5 -117.5z" />
    <glyph glyph-name="T" unicode="T" horiz-adv-x="1244" 
d="M1196 1475v-171h-481v-1304h-186v1304h-481v171h1148z" />
    <glyph glyph-name="U" unicode="U" horiz-adv-x="1476" 
d="M738 -28q-144 0 -255.5 45t-179 122t-101.5 173.5t-34 206.5v956h186v-936q0 -79 19.5 -146t62 -124t120 -90t182.5 -33t182.5 33t120 90t62 124t19.5 146v936h187v-956q0 -110 -34 -206.5t-101.5 -173.5t-179.5 -122t-256 -45z" />
    <glyph glyph-name="V" unicode="V" horiz-adv-x="1398" 
d="M1137 1475h197l-537 -1475h-194l-538 1475h201l435 -1236z" />
    <glyph glyph-name="W" unicode="W" horiz-adv-x="2094" 
d="M1823 1475h196l-448 -1475h-191l-331 1191l-332 -1191h-193l-449 1475h200l348 -1189l334 1189h183l336 -1189z" />
    <glyph glyph-name="X" unicode="X" horiz-adv-x="1403" 
d="M1334 0h-211l-421 630l-420 -630h-212l519 769l-477 706h211l379 -568l379 568h212l-477 -706z" />
    <glyph glyph-name="Y" unicode="Y" horiz-adv-x="1266" 
d="M1026 1475h199l-499 -871v-604h-185v604l-499 871h201l392 -702z" />
    <glyph glyph-name="Z" unicode="Z" horiz-adv-x="1298" 
d="M96 0v159l849 1146h-829v170h1066v-160l-850 -1145h870v-170h-1106z" />
    <glyph glyph-name="bracketleft" unicode="[" horiz-adv-x="754" 
d="M657 1376h-291v-1451h291v-163h-469v1776h469v-162z" />
    <glyph glyph-name="backslash" unicode="\" horiz-adv-x="947" 
d="M927 -215h-167l-751 1823h163z" />
    <glyph glyph-name="bracketright" unicode="]" horiz-adv-x="754" 
d="M566 1538v-1776h-469v163h292v1451h-292v162h469z" />
    <glyph glyph-name="asciicircum" unicode="^" horiz-adv-x="878" 
d="M830 953h-187l-202 365l-205 -365h-187l302 522h178z" />
    <glyph glyph-name="underscore" unicode="_" horiz-adv-x="1184" 
d="M144 0v156h896v-156h-896z" />
    <glyph glyph-name="grave" unicode="`" horiz-adv-x="614" 
d="M306 1219l-190 292h190l156 -292h-156z" />
    <glyph glyph-name="a" unicode="a" horiz-adv-x="1130" 
d="M550 1094q191 0 306.5 -107t115.5 -317v-670h-173v133q-38 -66 -123 -112.5t-211 -46.5q-163 0 -266 89.5t-103 242.5q0 179 137 260t395 81h170v10q0 141 -65.5 211t-186.5 70q-175 0 -279 -151l-125 102q144 205 408 205zM798 401v102h-126q-75 0 -131.5 -4.5
t-109.5 -17.5t-86.5 -34.5t-53.5 -56.5t-20 -83q0 -87 57.5 -135t157.5 -48q72 0 133.5 27.5t99 69.5t58.5 89.5t21 90.5z" />
    <glyph glyph-name="b" unicode="b" horiz-adv-x="1255" 
d="M699 1095q96 0 181 -41t146.5 -113.5t97.5 -178t36 -228.5q0 -246 -133 -403.5t-329 -157.5q-244 0 -357 177v-150h-172v1475h174v-553q112 173 356 173zM662 135q135 0 226 105t91 294t-91 294t-226 105q-141 0 -233 -110.5t-92 -288.5t92 -288.5t233 -110.5z" />
    <glyph glyph-name="c" unicode="c" horiz-adv-x="1107" 
d="M609 -27q-233 0 -373.5 152.5t-140.5 406.5t140 406.5t370 152.5q288 0 424 -241l-148 -84q-98 164 -269 164q-154 0 -245.5 -108t-91.5 -290q0 -183 92 -290.5t245 -107.5q173 0 269 177l152 -78q-77 -143 -183 -201.5t-241 -58.5z" />
    <glyph glyph-name="d" unicode="d" horiz-adv-x="1258" 
d="M915 1475h175v-1475h-174v151q-47 -74 -137 -126t-221 -52q-196 0 -329.5 157.5t-133.5 403.5t133.5 403.5t329.5 157.5q128 0 218.5 -50.5t138.5 -126.5v557zM597 135q141 0 232.5 110.5t91.5 288.5t-92 288.5t-232 110.5q-137 0 -229.5 -105t-92.5 -294t92.5 -294
t229.5 -105z" />
    <glyph glyph-name="e" unicode="e" horiz-adv-x="1180" 
d="M278 477q12 -161 98 -253.5t242 -92.5q91 0 163 34.5t132 122.5l139 -89q-70 -108 -181 -167t-248 -59q-241 0 -384.5 152t-143.5 405q0 254 139 409.5t360 155.5q222 0 359.5 -157t137.5 -415v-46h-813zM593 938q-122 0 -205.5 -82t-104.5 -231h620q-22 147 -105.5 230
t-204.5 83z" />
    <glyph glyph-name="f" unicode="f" horiz-adv-x="700" 
d="M395 1142v-74h258v-154h-258v-914h-174v914h-159v154h159v117q0 155 86.5 235.5t223.5 80.5q70 0 142 -25l-45 -145q-45 12 -89 12q-82 0 -113 -47t-31 -154z" />
    <glyph glyph-name="g" unicode="g" horiz-adv-x="1248" 
d="M906 1068h173v-970q0 -222 -135.5 -352.5t-374.5 -130.5q-269 0 -446 200l117 115q128 -158 334 -158q157 0 244 89.5t87 229.5v80q-113 -160 -326 -160q-215 0 -349.5 148.5t-134.5 393.5t134.5 393.5t348.5 148.5q219 0 328 -162v135zM595 172q137 0 226.5 97.5
t89.5 283.5t-89.5 283.5t-226.5 97.5q-142 0 -230.5 -103t-88.5 -278t88.5 -278t230.5 -103z" />
    <glyph glyph-name="h" unicode="h" horiz-adv-x="1207" 
d="M689 1095q162 0 261 -98t99 -267v-730h-175v690q0 118 -60 182.5t-165 64.5q-135 0 -220.5 -93t-85.5 -211v-633h-174v1475h174v-541q15 25 40.5 49.5t66.5 51.5t103.5 43.5t135.5 16.5z" />
    <glyph glyph-name="i" unicode="i" horiz-adv-x="510" 
d="M159 1276v199h193v-199h-193zM169 0v1068h174v-1068h-174z" />
    <glyph glyph-name="j" unicode="j" horiz-adv-x="510" 
d="M159 1276v199h193v-199h-193zM80 -378q-68 0 -146 26l40 147q53 -15 89 -15q58 0 82 33t24 118v1137h174v-1181q0 -265 -263 -265z" />
    <glyph glyph-name="k" unicode="k" horiz-adv-x="1120" 
d="M862 0l-359 490l-160 -179v-311h-174v1475h174v-926l461 519h216l-400 -447l449 -621h-207z" />
    <glyph glyph-name="l" unicode="l" horiz-adv-x="510" 
d="M169 0v1475h174v-1475h-174z" />
    <glyph glyph-name="m" unicode="m" horiz-adv-x="1790" 
d="M1289 1095q155 0 249 -93.5t94 -260.5v-741h-174v696q0 117 -52.5 179.5t-145.5 62.5q-119 0 -196 -92.5t-77 -211.5v-634h-174v696q0 117 -52.5 179.5t-146.5 62.5q-119 0 -195 -92.5t-76 -211.5v-634h-174v1068h172v-135q16 26 39 50.5t59 51.5t90 43.5t116 16.5
q111 0 192.5 -49.5t119.5 -141.5q23 35 43.5 59.5t60.5 59t98.5 53.5t129.5 19z" />
    <glyph glyph-name="n" unicode="n" horiz-adv-x="1207" 
d="M691 1095q160 0 259 -98t99 -267v-730h-175v691q0 118 -60 182.5t-165 64.5q-134 0 -220 -93t-86 -211v-634h-174v1068h172v-137q14 24 39.5 49t67 52.5t105 45t138.5 17.5z" />
    <glyph glyph-name="o" unicode="o" horiz-adv-x="1214" 
d="M607 -27q-229 0 -370.5 154t-141.5 408t141.5 407t370.5 153t370.5 -153t141.5 -407t-141.5 -408t-370.5 -154zM607 136q150 0 240.5 108.5t90.5 290.5t-90.5 290t-240.5 108q-151 0 -241 -108t-90 -290t90.5 -290.5t240.5 -108.5z" />
    <glyph glyph-name="p" unicode="p" horiz-adv-x="1255" 
d="M701 1095q195 0 327 -156t132 -403t-132.5 -404.5t-327.5 -157.5q-126 0 -215.5 48.5t-141.5 125.5v-506h-174v1426h172v-149q50 75 139.5 125.5t220.5 50.5zM660 136q136 0 227.5 105.5t91.5 294.5t-91.5 293t-227.5 104q-141 0 -232 -110t-91 -287q0 -179 91 -289.5
t232 -110.5z" />
    <glyph glyph-name="q" unicode="q" horiz-adv-x="1258" 
d="M918 1068h173v-1426h-175v509q-48 -76 -138.5 -126.5t-218.5 -50.5t-234 70t-168 199.5t-62 292.5q0 245 133.5 402t330.5 157q131 0 221.5 -51.5t137.5 -125.5v150zM598 136q141 0 232.5 110.5t91.5 289.5q0 177 -91.5 287t-232.5 110q-137 0 -229.5 -104t-92.5 -293
q0 -190 92.5 -295t229.5 -105z" />
    <glyph glyph-name="r" unicode="r" horiz-adv-x="800" 
d="M657 1094q60 0 119 -17l-43 -165q-46 10 -86 10q-130 0 -217 -110.5t-87 -277.5v-534h-174v1068h172v-175q15 31 37 60t59.5 64t94.5 56t125 21z" />
    <glyph glyph-name="s" unicode="s" horiz-adv-x="1052" 
d="M544 -28q-167 0 -284 63.5t-184 172.5l137 95q107 -170 333 -170q109 0 174 43.5t65 117.5q0 28 -9 50.5t-29.5 38.5t-41 27t-58 20.5t-63.5 15t-74 13.5q-82 14 -143 33.5t-119.5 55.5t-90 96t-31.5 141q0 147 111 229t293 82q268 0 410 -201l-135 -96q-98 137 -275 137
q-100 0 -163.5 -37.5t-63.5 -106.5q0 -33 14.5 -59t37 -43t60 -31t72.5 -22t85 -17q49 -9 81.5 -15.5t77.5 -20t74.5 -28.5t62.5 -39.5t52 -54t31.5 -71.5t12.5 -93q0 -152 -114 -239t-306 -87z" />
    <glyph glyph-name="t" unicode="t" horiz-adv-x="753" 
d="M637 154l40 -146q-94 -34 -178 -34q-136 0 -208 62.5t-72 206.5v671h-157v154h157v288h174v-288h267v-154h-267v-632q0 -87 26.5 -119.5t97.5 -32.5q51 0 120 24z" />
    <glyph glyph-name="u" unicode="u" horiz-adv-x="1204" 
d="M861 1068h174v-1068h-173v135q-15 -24 -40.5 -48.5t-66.5 -51.5t-104.5 -44t-137.5 -17q-157 0 -255.5 98t-98.5 266v730h174v-692q0 -118 60 -183t162 -65q90 0 161.5 46t108 115.5t36.5 144.5v634z" />
    <glyph glyph-name="v" unicode="v" horiz-adv-x="1056" 
d="M842 1068h190l-412 -1068h-183l-413 1068h196l309 -858z" />
    <glyph glyph-name="w" unicode="w" horiz-adv-x="1679" 
d="M1448 1068h193l-336 -1068h-186l-278 855l-280 -855h-186l-337 1068h194l242 -847l274 847h185l272 -846z" />
    <glyph glyph-name="x" unicode="x" horiz-adv-x="1059" 
d="M1019 0h-208l-281 417l-281 -417h-208l380 552l-356 516h207l258 -384l257 384h208l-356 -516z" />
    <glyph glyph-name="y" unicode="y" horiz-adv-x="1062" 
d="M842 1068h196l-495 -1258q-41 -106 -100.5 -150.5t-151.5 -44.5q-75 0 -160 24l42 145q64 -16 99 -16q45 0 68.5 19t43.5 73l65 174l-425 1034h194l322 -829z" />
    <glyph glyph-name="z" unicode="z" horiz-adv-x="1021" 
d="M96 0v141l590 773h-561v154h781v-143l-591 -771h611v-154h-830z" />
    <glyph glyph-name="braceleft" unicode="{" horiz-adv-x="882" 
d="M536 959q0 -219 -179 -309q179 -89 179 -309v-207q0 -107 46.5 -158t143.5 -51h58v-163h-71q-174 0 -264.5 91.5t-90.5 268.5v192q0 257 -240 257v159q240 0 240 257v192q0 177 90.5 268t264.5 91h71v-162h-58q-97 0 -143.5 -51t-46.5 -158v-208z" />
    <glyph glyph-name="bar" unicode="|" horiz-adv-x="553" 
d="M188 -238v1776h178v-1776h-178z" />
    <glyph glyph-name="braceright" unicode="}" horiz-adv-x="882" 
d="M524 987q0 -257 240 -257v-159q-240 0 -240 -257v-192q0 -177 -90.5 -268.5t-264.5 -91.5h-72v163h60q97 0 143 51t46 158v207q0 221 179 309q-179 90 -179 309v208q0 107 -46 158t-143 51h-60v162h72q174 0 264.5 -91t90.5 -268v-192z" />
    <glyph glyph-name="asciitilde" unicode="~" 
d="M801 449q-44 0 -88 11.5t-70.5 23.5t-64.5 33q-94 51 -151 51q-53 0 -90 -28.5t-75 -97.5l-125 82q114 205 291 205q102 0 223 -70q94 -51 151 -51q53 0 91.5 29t73.5 97l125 -82q-113 -203 -291 -203z" />
    <glyph glyph-name="uni00A0" unicode="&#xa0;" horiz-adv-x="502" 
 />
    <glyph glyph-name="exclamdown" unicode="&#xa1;" horiz-adv-x="595" 
d="M189 1068h219v-232h-219v232zM242 695h113l39 -624v-478h-192v478z" />
    <glyph glyph-name="cent" unicode="&#xa2;" horiz-adv-x="1184" 
d="M1060 419q-121 -223 -350 -244v-175h-159v180q-190 31 -303 173t-113 359t114 359t302 172v180h159v-176q231 -26 347 -226l-148 -88q-80 131 -199 152v-748q122 25 199 165zM319 712q0 -140 63 -236.5t169 -129.5v730q-107 -33 -169.5 -129t-62.5 -235z" />
    <glyph glyph-name="sterling" unicode="&#xa3;" horiz-adv-x="1260" 
d="M488 568q0 -123 -30 -210t-109 -194h794v-164h-1032v161q114 120 152 205t38 214q0 36 -8 82h-183v144h153q-25 109 -25 195q0 199 137 324t356 125q161 0 269.5 -58.5t179.5 -182.5l-148 -88q-44 85 -115 123.5t-182 38.5q-138 0 -224.5 -78.5t-86.5 -203.5
q0 -64 27 -195h493v-144h-464q8 -50 8 -94z" />
    <glyph glyph-name="currency" unicode="&#xa4;" horiz-adv-x="1329" 
d="M1148 712q0 -158 -92 -283l178 -179l-109 -109l-179 180q-130 -91 -281 -91q-152 0 -282 91l-179 -180l-109 109l178 179q-92 125 -92 283q0 154 92 283l-178 179l109 108l179 -179q126 91 282 91q155 0 281 -91l179 179l109 -108l-178 -179q92 -129 92 -283zM356 712
q0 -132 90.5 -225.5t218.5 -93.5q127 0 217.5 93.5t90.5 225.5t-90.5 225.5t-217.5 93.5q-128 0 -218.5 -93.5t-90.5 -225.5z" />
    <glyph glyph-name="yen" unicode="&#xa5;" horiz-adv-x="1255" 
d="M1191 1423l-414 -661h318v-146h-377v-159h377v-145h-377v-312h-180v312h-377v145h377v159h-377v146h317l-413 661h194l369 -597l368 597h195z" />
    <glyph glyph-name="brokenbar" unicode="&#xa6;" horiz-adv-x="553" 
d="M188 772v766h178v-766h-178zM188 -238v766h178v-766h-178z" />
    <glyph glyph-name="section" unicode="&#xa7;" horiz-adv-x="1272" 
d="M1016 303q108 -87 108 -249q0 -166 -126.5 -259t-345.5 -93q-190 0 -333 68t-221 190l144 100q58 -91 166 -142.5t245 -51.5q132 0 210 48.5t78 135.5q0 32 -10.5 58t-25 44.5t-44.5 35t-52 26t-66.5 20.5t-69.5 15.5t-78 14.5q-56 10 -99 20t-93.5 26t-87.5 35t-73.5 47
t-59.5 62t-37 80.5t-14 101.5q0 89 44.5 159.5t121.5 111.5q-104 86 -104 243q0 161 126.5 256t336.5 95q150 0 278 -63t199 -172l-140 -97q-52 76 -143 122t-191 46q-130 0 -205.5 -46.5t-75.5 -133.5q0 -32 10.5 -58t24.5 -44.5t43.5 -34.5t50.5 -25t65 -19.5t67 -15
t75 -13.5q58 -10 93.5 -17.5t89.5 -22.5t87 -31.5t72 -43.5t60.5 -60t36.5 -79.5t15 -103.5q0 -92 -40.5 -166t-111.5 -120zM313 640q0 -32 10.5 -58.5t25.5 -45.5t44.5 -35.5t52.5 -26t66.5 -19.5t69.5 -15t77 -14q116 -19 183 -39q66 28 105.5 79.5t39.5 117.5
q0 34 -11 61t-36.5 47t-49 33t-69 25t-74.5 18t-85 16q-127 22 -191 40q-72 -24 -115 -72.5t-43 -111.5z" />
    <glyph glyph-name="dieresis" unicode="&#xa8;" horiz-adv-x="614" 
d="M-4 1284v191h191v-191h-191zM369 1284v191h190v-191h-190z" />
    <glyph glyph-name="copyright" unicode="&#xa9;" horiz-adv-x="1845" 
d="M923 -46q-163 0 -309 60.5t-250 164.5t-165 249.5t-61 308.5t61 308.5t165 249.5t250 165t309 61t308.5 -61t250 -165t165 -249.5t60.5 -308.5q0 -218 -103 -397.5t-283 -282.5t-398 -103zM923 100q131 0 247 48.5t199 132.5t131 202.5t48 253.5t-48 253.5t-131 202.5
t-199 132.5t-247 48.5q-175 0 -318.5 -82.5t-225.5 -228.5t-82 -326t82 -326t225.5 -228.5t318.5 -82.5zM932 271q-191 0 -304 126t-113 336q0 213 113 342t300 129q233 0 354 -209l-125 -74q-86 142 -226 142q-117 0 -189.5 -89.5t-72.5 -240.5q0 -148 73 -234.5t194 -86.5
q75 0 128.5 37.5t92.5 116.5l129 -67q-122 -228 -354 -228z" />
    <glyph glyph-name="ordfeminine" unicode="&#xaa;" horiz-adv-x="739" 
d="M359 1489q135 0 212.5 -70t77.5 -207v-435h-142v74q-30 -40 -83.5 -64.5t-120.5 -24.5q-110 0 -178 58t-68 156q0 111 83 167t242 56h121v12q0 76 -40.5 114.5t-112.5 38.5q-102 0 -170 -82l-90 88q95 119 269 119zM504 1031v55h-102q-102 0 -151.5 -22t-49.5 -84
q0 -51 33 -78.5t93 -27.5q76 0 126.5 49t50.5 108z" />
    <glyph glyph-name="guillemotleft" unicode="&#xab;" horiz-adv-x="1017" 
d="M408 181l-309 392l309 393l112 -92l-234 -301l234 -301zM787 181l-309 392l309 393l113 -92l-234 -301l234 -301z" />
    <glyph glyph-name="logicalnot" unicode="&#xac;" 
d="M190 652h849v-490h-168v337h-681v153z" />
    <glyph glyph-name="uni00AD" unicode="&#xad;" horiz-adv-x="826" 
d="M144 498v155h539v-155h-539z" />
    <glyph glyph-name="registered" unicode="&#xae;" horiz-adv-x="1027" 
d="M513 1506q124 0 228.5 -59t165.5 -161.5t61 -224.5t-61 -224.5t-165.5 -162t-228.5 -59.5q-189 0 -321.5 130t-132.5 316q0 185 132.5 315t321.5 130zM513 719q139 0 239.5 101t100.5 241t-100.5 241t-239.5 101t-239 -101t-100 -241t100 -241t239 -101zM705 1150
q0 -45 -22.5 -80t-62.5 -53l91 -173h-118l-79 158h-60v-158h-111v448h204q72 0 115 -38.5t43 -103.5zM454 1097h78q61 0 61 51q0 47 -61 47h-78v-98z" />
    <glyph glyph-name="macron" unicode="&#xaf;" horiz-adv-x="614" 
d="M20 1275v136h572v-136h-572z" />
    <glyph glyph-name="degree" unicode="&#xb0;" horiz-adv-x="867" 
d="M433 750q-158 0 -266 107.5t-108 265.5t108 265.5t266 107.5q159 0 267 -107.5t108 -265.5t-108 -265.5t-267 -107.5zM433 896q93 0 155 64.5t62 162.5t-62 163t-155 65q-92 0 -154 -65.5t-62 -162.5q0 -98 61.5 -162.5t154.5 -64.5z" />
    <glyph glyph-name="plusminus" unicode="&#xb1;" 
d="M530 326v329h-360v156h360v358h168v-358h361v-156h-361v-329h-168zM162 156h906v-156h-906v156z" />
    <glyph glyph-name="two.sups" unicode="&#xb2;" horiz-adv-x="779" 
d="M287 910h421v-132h-639v124l316 307q91 87 122 135t31 108q0 59 -40 95.5t-110 36.5t-116.5 -45t-61.5 -126l-143 33q26 132 113 203t213 71q135 0 218 -73t83 -194q0 -82 -43 -157t-146 -175z" />
    <glyph glyph-name="three.sups" unicode="&#xb3;" horiz-adv-x="823" 
d="M588 1252q72 -30 112.5 -86.5t40.5 -130.5q0 -125 -88.5 -200t-236.5 -75q-130 0 -220.5 59t-128.5 166l133 57q26 -71 80.5 -109t130.5 -38q79 0 126 42t47 111q0 64 -44.5 100t-119.5 36h-82v128h68q73 0 114.5 35t41.5 101q0 62 -41.5 99.5t-108.5 37.5
q-73 0 -121 -39.5t-68 -109.5l-137 39q31 116 117 180t212 64q136 0 220 -73t84 -190q0 -67 -34.5 -120t-96.5 -84z" />
    <glyph glyph-name="acute" unicode="&#xb4;" horiz-adv-x="614" 
d="M116 1219l155 292h191l-191 -292h-155z" />
    <glyph glyph-name="uni00B5" unicode="&#xb5;" horiz-adv-x="1213" 
d="M871 1068h175v-1068h-175v134q-34 -58 -121.5 -109t-221.5 -51q-117 0 -185 56v-429h-174v1467h174v-691q0 -118 59.5 -182.5t161.5 -64.5q135 0 221 93.5t86 212.5v632z" />
    <glyph glyph-name="paragraph" unicode="&#xb6;" horiz-adv-x="1157" 
d="M530 0v757h-16q-163 0 -272 99.5t-109 259.5q0 159 109 259t272 100h184v-1475h-168zM801 0v1475h168v-1475h-168z" />
    <glyph glyph-name="periodcentered" unicode="&#xb7;" horiz-adv-x="541" 
d="M158 502v238h225v-238h-225z" />
    <glyph glyph-name="cedilla" unicode="&#xb8;" horiz-adv-x="614" 
d="M175 -328l105 330h153l-104 -330h-154z" />
    <glyph glyph-name="one.sups" unicode="&#xb9;" horiz-adv-x="634" 
d="M484 1703v-925h-152v734l-169 -150l-88 98l270 243h139z" />
    <glyph glyph-name="ordmasculine" unicode="&#xba;" horiz-adv-x="801" 
d="M402 762q-153 0 -249 99.5t-96 264.5t96 265t249 100t249.5 -100t96.5 -265t-96.5 -264.5t-249.5 -99.5zM402 893q86 0 139 62.5t53 170.5t-53 171t-139 63t-138.5 -63t-52.5 -171t52.5 -170.5t138.5 -62.5z" />
    <glyph glyph-name="guillemotright" unicode="&#xbb;" horiz-adv-x="1017" 
d="M230 181l-112 91l234 301l-234 301l112 92l310 -393zM610 181l-112 91l234 301l-234 301l112 92l310 -393z" />
    <glyph glyph-name="onequarter" unicode="&#xbc;" horiz-adv-x="1841" 
d="M1317 1475h162l-942 -1475h-162zM484 549h-152v734l-169 -150l-88 99l270 242h139v-925zM1803 329v-133h-131v-196h-152v196h-439v127l425 602h166v-596h131zM1234 329h286v415z" />
    <glyph glyph-name="onehalf" unicode="&#xbd;" horiz-adv-x="1897" 
d="M1317 1475h162l-942 -1475h-162zM484 549h-152v734l-169 -150l-88 99l270 242h139v-925zM1405 133h421v-133h-639v124l316 307q91 88 122 135.5t31 107.5t-40 96t-110 36q-71 0 -117 -44.5t-61 -126.5l-143 33q26 132 113 203t213 71q135 0 218 -72.5t83 -193.5
q0 -83 -42.5 -157.5t-146.5 -175.5z" />
    <glyph glyph-name="threequarters" unicode="&#xbe;" horiz-adv-x="1951" 
d="M741 808q0 -125 -88.5 -200.5t-236.5 -75.5q-129 0 -220 59.5t-129 166.5l133 58q55 -148 211 -148q78 0 125.5 42t47.5 110q0 64 -44.5 100t-119.5 36h-82v129h68q73 0 114.5 35.5t41.5 101.5q0 61 -41.5 98.5t-108.5 37.5q-73 0 -121 -39.5t-68 -110.5l-137 39
q31 117 117 181t212 64q136 0 220 -72.5t84 -190.5q0 -66 -34.5 -118.5t-96.5 -84.5q72 -30 112.5 -86.5t40.5 -131.5zM1427 1475h162l-942 -1475h-162zM1914 329v-133h-131v-196h-153v196h-438v127l425 602h166v-596h131zM1345 329h285v414z" />
    <glyph glyph-name="questiondown" unicode="&#xbf;" horiz-adv-x="1058" 
d="M479 836v232h222v-232h-222zM518 -428q-195 0 -312.5 103.5t-117.5 272.5q0 70 19.5 130t56 107t74 81t88.5 68q45 31 70.5 51t53.5 51t40.5 66.5t12.5 80.5v115h175v-137q0 -65 -16 -116.5t-49.5 -92t-64.5 -66.5t-82 -62q-91 -64 -142 -127t-51 -149q0 -99 66 -155.5
t182 -56.5t198 61t120 175l163 -60q-57 -162 -182.5 -251t-301.5 -89z" />
    <glyph glyph-name="Agrave" unicode="&#xc0;" horiz-adv-x="1466" 
d="M842 1576h-156l-190 293h190zM1201 0l-153 408h-632l-154 -408h-197l566 1475h204l567 -1475h-201zM478 574h506l-253 671z" />
    <glyph glyph-name="Aacute" unicode="&#xc1;" horiz-adv-x="1466" 
d="M975 1869l-191 -293h-155l155 293h191zM1201 0l-153 408h-632l-154 -408h-197l566 1475h204l567 -1475h-201zM478 574h506l-253 671z" />
    <glyph glyph-name="Acircumflex" unicode="&#xc2;" horiz-adv-x="1466" 
d="M736 1745l-139 -170h-170l222 294h172l221 -294h-170zM1201 0l-153 408h-632l-154 -408h-197l566 1475h204l567 -1475h-201zM478 574h506l-253 671z" />
    <glyph glyph-name="Atilde" unicode="&#xc3;" horiz-adv-x="1466" 
d="M602 1673q-29 0 -55 -20t-65 -73l-107 86q58 80 112 117.5t115 37.5q70 0 157 -54q62 -38 102 -38q34 0 60 22.5t63 70.5l108 -86q-59 -80 -114 -117.5t-117 -37.5q-67 0 -155 52q-65 40 -104 40zM1201 0l-153 408h-632l-154 -408h-197l566 1475h204l567 -1475h-201z
M478 574h506l-253 671z" />
    <glyph glyph-name="Adieresis" unicode="&#xc4;" horiz-adv-x="1466" 
d="M627 1815v-194h-194v194h194zM1037 1815v-194h-193v194h193zM1201 0l-153 408h-632l-154 -408h-197l566 1475h204l567 -1475h-201zM478 574h506l-253 671z" />
    <glyph glyph-name="Aring" unicode="&#xc5;" horiz-adv-x="1466" 
d="M735 1549q-97 0 -160 63.5t-63 159.5q0 95 63 158t160 63q96 0 159 -63t63 -158q0 -96 -63 -159.5t-159 -63.5zM735 1878q-45 0 -72.5 -29t-27.5 -77q0 -49 27.5 -78.5t72.5 -29.5q44 0 72 30.5t28 77.5q0 48 -28 77t-72 29zM1201 0l-153 408h-632l-154 -408h-197
l566 1475h204l567 -1475h-201zM478 574h506l-253 671z" />
    <glyph glyph-name="AE" unicode="&#xc6;" horiz-adv-x="2154" 
d="M1261 171h783v-171h-969v408h-558l-253 -408h-218l928 1475h1061v-171h-774v-468h702v-168h-702v-497zM623 577h452v728z" />
    <glyph glyph-name="Ccedilla" unicode="&#xc7;" horiz-adv-x="1476" 
d="M1371 344q-177 -343 -508 -371l-95 -301h-154l97 302q-275 30 -435 236t-160 527q0 348 182.5 557.5t492.5 209.5q186 0 334 -86.5t243 -257.5l-157 -84q-151 253 -417 253q-222 0 -355 -161t-133 -431t135.5 -431t358.5 -161q142 0 240.5 68t168.5 211z" />
    <glyph glyph-name="Egrave" unicode="&#xc8;" horiz-adv-x="1304" 
d="M652 1576l-190 293h190l156 -293h-156zM188 0v1475h997v-171h-811v-468h736v-168h-736v-497h820v-171h-1006z" />
    <glyph glyph-name="Eacute" unicode="&#xc9;" horiz-adv-x="1304" 
d="M595 1576l156 293h190l-190 -293h-156zM188 0v1475h997v-171h-811v-468h736v-168h-736v-497h820v-171h-1006z" />
    <glyph glyph-name="Ecircumflex" unicode="&#xca;" horiz-adv-x="1304" 
d="M702 1746l-139 -171h-170l222 294h172l222 -294h-170zM374 171h820v-171h-1006v1475h997v-171h-811v-468h736v-168h-736v-497z" />
    <glyph glyph-name="Edieresis" unicode="&#xcb;" horiz-adv-x="1304" 
d="M399 1621v194h194v-194h-194zM810 1621v194h194v-194h-194zM188 0v1475h997v-171h-811v-468h736v-168h-736v-497h820v-171h-1006z" />
    <glyph glyph-name="Igrave" unicode="&#xcc;" horiz-adv-x="562" 
d="M232 1576l-190 293h189l157 -293h-156zM188 0v1475h187v-1475h-187z" />
    <glyph glyph-name="Iacute" unicode="&#xcd;" horiz-adv-x="562" 
d="M174 1576l157 293h190l-191 -293h-156zM188 0v1475h187v-1475h-187z" />
    <glyph glyph-name="Icircumflex" unicode="&#xce;" horiz-adv-x="562" 
d="M368 1869l221 -294h-171l-135 170l-140 -170h-171l224 294h172zM188 0v1475h187v-1475h-187z" />
    <glyph glyph-name="Idieresis" unicode="&#xcf;" horiz-adv-x="562" 
d="M-22 1621v194h195v-194h-195zM390 1621v194h194v-194h-194zM188 0v1475h187v-1475h-187z" />
    <glyph glyph-name="Eth" unicode="&#xd0;" horiz-adv-x="1502" 
d="M718 1475q304 0 487 -199.5t183 -540.5q0 -340 -182.5 -537.5t-487.5 -197.5h-520v659h-159v156h159v660h520zM695 171q233 0 367 150.5t134 413.5q0 264 -134.5 416.5t-366.5 152.5h-312v-489h384v-156h-384v-488h312z" />
    <glyph glyph-name="Ntilde" unicode="&#xd1;" horiz-adv-x="1513" 
d="M642 1673q-29 0 -55 -20t-65 -73l-107 86q58 80 112 117.5t115 37.5q72 0 157 -54q62 -38 102 -38q34 0 60 22.5t63 70.5l108 -86q-58 -80 -113 -117.5t-118 -37.5q-68 0 -156 52q-65 40 -103 40zM1140 1475h185v-1475h-233l-718 1202v-1202h-186v1475h227l725 -1209
v1209z" />
    <glyph glyph-name="Ograve" unicode="&#xd2;" horiz-adv-x="1603" 
d="M753 1574l-191 293h191l155 -293h-155zM802 -30q-316 0 -501 209.5t-185 557.5t185 557.5t501 209.5t501.5 -209.5t185.5 -557.5t-185.5 -557.5t-501.5 -209.5zM802 145q225 0 360 159.5t135 432.5t-135 432.5t-360 159.5q-224 0 -360 -160t-136 -432t136 -432t360 -160z
" />
    <glyph glyph-name="Oacute" unicode="&#xd3;" horiz-adv-x="1603" 
d="M695 1574l156 293h190l-190 -293h-156zM802 -30q-316 0 -501 209.5t-185 557.5t185 557.5t501 209.5t501.5 -209.5t185.5 -557.5t-185.5 -557.5t-501.5 -209.5zM802 145q225 0 360 159.5t135 432.5t-135 432.5t-360 159.5q-224 0 -360 -160t-136 -432t136 -432t360 -160z
" />
    <glyph glyph-name="Ocircumflex" unicode="&#xd4;" horiz-adv-x="1603" 
d="M803 1744l-139 -171h-170l223 294h172l221 -294h-171zM802 1504q316 0 501.5 -209.5t185.5 -557.5t-185.5 -557.5t-501.5 -209.5t-501 209.5t-185 557.5t185 557.5t501 209.5zM802 145q225 0 360 159.5t135 432.5t-135 432.5t-360 159.5q-224 0 -360 -160t-136 -432
t136 -432t360 -160z" />
    <glyph glyph-name="Otilde" unicode="&#xd5;" horiz-adv-x="1603" 
d="M929 1579q-69 0 -157 53q-68 39 -103 39q-29 0 -55 -20t-65 -73l-108 86q58 79 113 117t116 38q70 0 155 -54q66 -39 103 -39q24 0 46.5 14.5t37 30.5t39.5 49l107 -86q-58 -80 -112.5 -117.5t-116.5 -37.5zM802 -30q-316 0 -501 209.5t-185 557.5t185 557.5t501 209.5
t501.5 -209.5t185.5 -557.5t-185.5 -557.5t-501.5 -209.5zM802 145q225 0 360 159.5t135 432.5t-135 432.5t-360 159.5q-224 0 -360 -160t-136 -432t136 -432t360 -160z" />
    <glyph glyph-name="Odieresis" unicode="&#xd6;" horiz-adv-x="1603" 
d="M500 1619v193h193v-193h-193zM910 1619v193h195v-193h-195zM802 -30q-316 0 -501 209.5t-185 557.5t185 557.5t501 209.5t501.5 -209.5t185.5 -557.5t-185.5 -557.5t-501.5 -209.5zM802 145q225 0 360 159.5t135 432.5t-135 432.5t-360 159.5q-224 0 -360 -160t-136 -432
t136 -432t360 -160z" />
    <glyph glyph-name="multiply" unicode="&#xd7;" 
d="M1007 855l-282 -282l282 -281l-111 -111l-282 282l-281 -282l-111 111l282 281l-282 282l111 112l281 -282l282 282z" />
    <glyph glyph-name="Oslash" unicode="&#xd8;" horiz-adv-x="1604" 
d="M1325 1269q164 -206 164 -532q0 -348 -185.5 -557.5t-501.5 -209.5q-231 0 -399 118l-146 -188l-132 106l155 199q-164 208 -164 532q0 348 185 557.5t501 209.5q231 0 399 -118l148 189l132 -107zM802 1329q-224 0 -360 -160t-136 -432q0 -228 97 -380l688 880
q-121 92 -289 92zM802 145q225 0 360 159.5t135 432.5q0 227 -97 380l-686 -880q122 -92 288 -92z" />
    <glyph glyph-name="Ugrave" unicode="&#xd9;" horiz-adv-x="1477" 
d="M690 1576l-190 293h190l156 -293h-156zM738 -28q-144 0 -255.5 45t-179 122t-101.5 173.5t-34 206.5v956h186v-936q0 -79 19.5 -146t62 -124t120 -90t182.5 -33t182.5 33t120 90t62 124t19.5 146v936h187v-956q0 -110 -34 -206.5t-101.5 -173.5t-179.5 -122t-256 -45z
" />
    <glyph glyph-name="Uacute" unicode="&#xda;" horiz-adv-x="1477" 
d="M633 1576l155 293h191l-191 -293h-155zM738 -28q-144 0 -255.5 45t-179 122t-101.5 173.5t-34 206.5v956h186v-936q0 -79 19.5 -146t62 -124t120 -90t182.5 -33t182.5 33t120 90t62 124t19.5 146v936h187v-956q0 -110 -34 -206.5t-101.5 -173.5t-179.5 -122t-256 -45z
" />
    <glyph glyph-name="Ucircumflex" unicode="&#xdb;" horiz-adv-x="1477" 
d="M740 1746l-139 -171h-170l223 294h172l222 -294h-171zM1122 1475h187v-956q0 -110 -34 -206.5t-101.5 -173.5t-179.5 -122t-256 -45t-255.5 45t-179 122t-101.5 173.5t-34 206.5v956h186v-936q0 -79 19.5 -146t62 -124t120 -90t182.5 -33t182.5 33t120 90t62 124
t19.5 146v936z" />
    <glyph glyph-name="Udieresis" unicode="&#xdc;" horiz-adv-x="1477" 
d="M437 1621v194h194v-194h-194zM848 1621v194h194v-194h-194zM738 -28q-144 0 -255.5 45t-179 122t-101.5 173.5t-34 206.5v956h186v-936q0 -79 19.5 -146t62 -124t120 -90t182.5 -33t182.5 33t120 90t62 124t19.5 146v936h187v-956q0 -110 -34 -206.5t-101.5 -173.5
t-179.5 -122t-256 -45z" />
    <glyph glyph-name="Yacute" unicode="&#xdd;" horiz-adv-x="1265" 
d="M872 1869l-190 -293h-156l156 293h190zM1026 1475h199l-499 -871v-604h-185v604l-499 871h201l392 -702z" />
    <glyph glyph-name="Thorn" unicode="&#xde;" horiz-adv-x="1293" 
d="M775 1198q206 0 325.5 -118.5t119.5 -317.5q0 -200 -120 -322.5t-325 -122.5h-400v-317h-187v1475h187v-277h400zM765 486q122 0 193 77.5t71 197.5t-70.5 193.5t-193.5 73.5h-390v-542h390z" />
    <glyph glyph-name="germandbls" unicode="&#xdf;" horiz-adv-x="1204" 
d="M853 811q116 -35 186 -141t70 -250q0 -205 -110.5 -321.5t-304.5 -116.5q-119 0 -222 27l33 150q87 -25 182 -25q116 0 181 77.5t65 214.5q0 140 -72.5 222t-196.5 82h-139v153h128q86 0 141 63t55 161q0 107 -68.5 171.5t-180.5 64.5q-121 0 -194 -78.5t-73 -209.5
v-1056h-174v1084q0 187 122 302.5t317 115.5q191 0 310 -105t119 -273q0 -99 -48 -184t-126 -128z" />
    <glyph glyph-name="agrave" unicode="&#xe0;" horiz-adv-x="1130" 
d="M678 1219h-156l-190 292h190zM550 1094q191 0 306.5 -107t115.5 -317v-670h-173v133q-38 -66 -123 -112.5t-211 -46.5q-163 0 -266 89.5t-103 242.5q0 179 137 260t395 81h170v10q0 141 -65.5 211t-186.5 70q-175 0 -279 -151l-125 102q144 205 408 205zM798 401v102
h-126q-75 0 -131.5 -4.5t-109.5 -17.5t-86.5 -34.5t-53.5 -56.5t-20 -83q0 -87 57.5 -135t157.5 -48q72 0 133.5 27.5t99 69.5t58.5 89.5t21 90.5z" />
    <glyph glyph-name="aacute" unicode="&#xe1;" horiz-adv-x="1130" 
d="M788 1511l-190 -292h-156l156 292h190zM550 1094q191 0 306.5 -107t115.5 -317v-670h-173v133q-38 -66 -123 -112.5t-211 -46.5q-163 0 -266 89.5t-103 242.5q0 179 137 260t395 81h170v10q0 141 -65.5 211t-186.5 70q-175 0 -279 -151l-125 102q144 205 408 205z
M798 401v102h-126q-75 0 -131.5 -4.5t-109.5 -17.5t-86.5 -34.5t-53.5 -56.5t-20 -83q0 -87 57.5 -135t157.5 -48q72 0 133.5 27.5t99 69.5t58.5 89.5t21 90.5z" />
    <glyph glyph-name="acircumflex" unicode="&#xe2;" horiz-adv-x="1130" 
d="M561 1384l-139 -171h-171l223 295h172l221 -295h-170zM550 1094q191 0 306.5 -107t115.5 -317v-670h-173v133q-38 -66 -123 -112.5t-211 -46.5q-163 0 -266 89.5t-103 242.5q0 179 137 260t395 81h170v10q0 141 -65.5 211t-186.5 70q-175 0 -279 -151l-125 102
q144 205 408 205zM798 401v102h-126q-75 0 -131.5 -4.5t-109.5 -17.5t-86.5 -34.5t-53.5 -56.5t-20 -83q0 -87 57.5 -135t157.5 -48q72 0 133.5 27.5t99 69.5t58.5 89.5t21 90.5z" />
    <glyph glyph-name="atilde" unicode="&#xe3;" horiz-adv-x="1130" 
d="M426 1337q-29 0 -55 -20t-65 -73l-107 86q58 80 112.5 117.5t115.5 37.5q71 0 156 -52q64 -40 103 -40q34 0 60 22.5t62 70.5l107 -86q-58 -80 -112.5 -117.5t-116.5 -37.5q-69 0 -157 53q-68 39 -103 39zM550 1094q191 0 306.5 -107t115.5 -317v-670h-173v133
q-38 -66 -123 -112.5t-211 -46.5q-163 0 -266 89.5t-103 242.5q0 179 137 260t395 81h170v10q0 141 -65.5 211t-186.5 70q-175 0 -279 -151l-125 102q144 205 408 205zM798 401v102h-126q-75 0 -131.5 -4.5t-109.5 -17.5t-86.5 -34.5t-53.5 -56.5t-20 -83q0 -87 57.5 -135
t157.5 -48q72 0 133.5 27.5t99 69.5t58.5 89.5t21 90.5z" />
    <glyph glyph-name="adieresis" unicode="&#xe4;" horiz-adv-x="1130" 
d="M469 1475v-191h-190v191h190zM842 1475v-191h-192v191h192zM550 1094q191 0 306.5 -107t115.5 -317v-670h-173v133q-38 -66 -123 -112.5t-211 -46.5q-163 0 -266 89.5t-103 242.5q0 179 137 260t395 81h170v10q0 141 -65.5 211t-186.5 70q-175 0 -279 -151l-125 102
q144 205 408 205zM798 401v102h-126q-75 0 -131.5 -4.5t-109.5 -17.5t-86.5 -34.5t-53.5 -56.5t-20 -83q0 -87 57.5 -135t157.5 -48q72 0 133.5 27.5t99 69.5t58.5 89.5t21 90.5z" />
    <glyph glyph-name="aring" unicode="&#xe5;" horiz-adv-x="1130" 
d="M560 1182q-97 0 -160.5 63t-63.5 159t63.5 159t160.5 63q96 0 159 -63t63 -159t-63 -159t-159 -63zM560 1510q-45 0 -73 -29t-28 -77q0 -49 28 -78.5t73 -29.5q43 0 71 30.5t28 77.5q0 48 -27.5 77t-71.5 29zM550 1094q191 0 306.5 -107t115.5 -317v-670h-173v133
q-38 -66 -123 -112.5t-211 -46.5q-163 0 -266 89.5t-103 242.5q0 179 137 260t395 81h170v10q0 141 -65.5 211t-186.5 70q-175 0 -279 -151l-125 102q144 205 408 205zM798 401v102h-126q-75 0 -131.5 -4.5t-109.5 -17.5t-86.5 -34.5t-53.5 -56.5t-20 -83q0 -87 57.5 -135
t157.5 -48q72 0 133.5 27.5t99 69.5t58.5 89.5t21 90.5z" />
    <glyph glyph-name="ae" unicode="&#xe6;" horiz-adv-x="1802" 
d="M1712 517v-41h-749q12 -163 90 -254t224 -91q158 0 263 158l137 -92q-61 -104 -168.5 -164t-224.5 -60q-282 0 -410 212q-128 -212 -400 -212q-104 0 -188.5 36t-137 111t-52.5 177q0 321 506 321h182v40q0 142 -63.5 211t-180.5 69q-81 0 -153.5 -37.5t-120.5 -107.5
l-125 100q65 98 169.5 149.5t232.5 51.5q256 0 352 -186q122 187 357 187q202 0 331 -158.5t129 -419.5zM965 618h562q-18 148 -95.5 233.5t-181.5 85.5q-114 0 -189.5 -83.5t-95.5 -235.5zM784 398v78h-161q-186 0 -269.5 -42.5t-83.5 -137.5q0 -85 61.5 -129t160.5 -44
q68 0 125.5 27t92.5 69.5t54.5 89t19.5 89.5z" />
    <glyph glyph-name="ccedilla" unicode="&#xe7;" horiz-adv-x="1108" 
d="M1033 233q-120 -226 -345 -255l-96 -306h-154l97 305q-202 25 -321 174t-119 381q0 254 140 406.5t370 152.5q288 0 424 -241l-148 -84q-98 164 -269 164q-154 0 -245.5 -108t-91.5 -290q0 -183 92 -290.5t245 -107.5q173 0 269 177z" />
    <glyph glyph-name="egrave" unicode="&#xe8;" horiz-adv-x="1180" 
d="M710 1219h-156l-190 292h190zM278 477q12 -161 98 -253.5t242 -92.5q91 0 163 34.5t132 122.5l139 -89q-70 -108 -181 -167t-248 -59q-241 0 -384.5 152t-143.5 405q0 254 139 409.5t360 155.5q222 0 359.5 -157t137.5 -415v-46h-813zM593 938q-122 0 -205.5 -82
t-104.5 -231h620q-22 147 -105.5 230t-204.5 83z" />
    <glyph glyph-name="eacute" unicode="&#xe9;" horiz-adv-x="1180" 
d="M820 1511l-190 -292h-156l156 292h190zM278 477q12 -161 98 -253.5t242 -92.5q91 0 163 34.5t132 122.5l139 -89q-70 -108 -181 -167t-248 -59q-241 0 -384.5 152t-143.5 405q0 254 139 409.5t360 155.5q222 0 359.5 -157t137.5 -415v-46h-813zM593 938
q-122 0 -205.5 -82t-104.5 -231h620q-22 147 -105.5 230t-204.5 83z" />
    <glyph glyph-name="ecircumflex" unicode="&#xea;" horiz-adv-x="1180" 
d="M593 1384l-139 -171h-170l222 295h172l221 -295h-170zM278 477q12 -161 98 -253.5t242 -92.5q91 0 163 34.5t132 122.5l139 -89q-70 -108 -181 -167t-248 -59q-241 0 -384.5 152t-143.5 405q0 254 139 409.5t360 155.5q222 0 359.5 -157t137.5 -415v-46h-813zM593 938
q-122 0 -205.5 -82t-104.5 -231h620q-22 147 -105.5 230t-204.5 83z" />
    <glyph glyph-name="edieresis" unicode="&#xeb;" horiz-adv-x="1180" 
d="M502 1475v-191h-192v191h192zM873 1475v-191h-191v191h191zM278 477q12 -161 98 -253.5t242 -92.5q91 0 163 34.5t132 122.5l139 -89q-70 -108 -181 -167t-248 -59q-241 0 -384.5 152t-143.5 405q0 254 139 409.5t360 155.5q222 0 359.5 -157t137.5 -415v-46h-813z
M593 938q-122 0 -205.5 -82t-104.5 -231h620q-22 147 -105.5 230t-204.5 83z" />
    <glyph glyph-name="igrave" unicode="&#xec;" horiz-adv-x="510" 
d="M218 1219l-190 292h189l157 -292h-156zM169 0v1068h174v-1068h-174z" />
    <glyph glyph-name="iacute" unicode="&#xed;" horiz-adv-x="510" 
d="M138 1219l156 292h190l-190 -292h-156zM169 0v1068h174v-1068h-174z" />
    <glyph glyph-name="icircumflex" unicode="&#xee;" horiz-adv-x="510" 
d="M342 1508l221 -295h-171l-135 171l-139 -171h-171l223 295h172zM169 0v1068h174v-1068h-174z" />
    <glyph glyph-name="idieresis" unicode="&#xef;" horiz-adv-x="510" 
d="M-22 1284v191h188v-191h-188zM345 1284v191h187v-191h-187zM169 0v1068h174v-1068h-174z" />
    <glyph glyph-name="eth" unicode="&#xf0;" horiz-adv-x="1210" 
d="M807 1290q308 -299 308 -761q0 -250 -138 -403t-372 -153q-230 0 -370 150t-140 399q0 250 138 399t357 149q147 0 254 -86q-73 127 -190 231l-241 -117l-53 99l197 96q-53 38 -144 89l84 129q117 -61 219 -141l225 111l52 -100zM605 134q149 0 239 105t90 283t-90 283
t-239 105t-239 -105t-90 -283t90 -283t239 -105z" />
    <glyph glyph-name="ntilde" unicode="&#xf1;" horiz-adv-x="1207" 
d="M477 1337q-29 0 -55 -20t-65 -73l-107 86q59 80 113 117.5t115 37.5q71 0 156 -52q64 -40 103 -40q34 0 60 22.5t62 70.5l108 -86q-58 -80 -113 -117.5t-117 -37.5q-68 0 -156 53q-68 39 -104 39zM691 1095q160 0 259 -98t99 -267v-730h-175v691q0 118 -60 182.5
t-165 64.5q-134 0 -220 -93t-86 -211v-634h-174v1068h172v-137q14 24 39.5 49t67 52.5t105 45t138.5 17.5z" />
    <glyph glyph-name="ograve" unicode="&#xf2;" horiz-adv-x="1214" 
d="M569 1219l-190 292h190l156 -292h-156zM607 -27q-229 0 -370.5 154t-141.5 408t141.5 407t370.5 153t370.5 -153t141.5 -407t-141.5 -408t-370.5 -154zM607 136q150 0 240.5 108.5t90.5 290.5t-90.5 290t-240.5 108q-151 0 -241 -108t-90 -290t90.5 -290.5t240.5 -108.5z
" />
    <glyph glyph-name="oacute" unicode="&#xf3;" horiz-adv-x="1214" 
d="M489 1219l156 292h191l-191 -292h-156zM607 -27q-229 0 -370.5 154t-141.5 408t141.5 407t370.5 153t370.5 -153t141.5 -407t-141.5 -408t-370.5 -154zM607 136q150 0 240.5 108.5t90.5 290.5t-90.5 290t-240.5 108q-151 0 -241 -108t-90 -290t90.5 -290.5t240.5 -108.5z
" />
    <glyph glyph-name="ocircumflex" unicode="&#xf4;" horiz-adv-x="1214" 
d="M608 1384l-139 -171h-170l222 295h172l221 -295h-170zM607 1095q229 0 370.5 -153t141.5 -407t-141.5 -408t-370.5 -154t-370.5 154t-141.5 408t141.5 407t370.5 153zM607 136q150 0 240.5 108.5t90.5 290.5t-90.5 290t-240.5 108q-151 0 -241 -108t-90 -290t90.5 -290.5
t240.5 -108.5z" />
    <glyph glyph-name="otilde" unicode="&#xf5;" horiz-adv-x="1214" 
d="M733 1245q-69 0 -155 53q-70 39 -105 39q-29 0 -54.5 -20t-64.5 -73l-107 86q58 80 112 117.5t115 37.5q70 0 157 -52q63 -40 102 -40q34 0 60 22.5t62 70.5l108 -86q-58 -80 -113 -117.5t-117 -37.5zM607 -27q-229 0 -370.5 154t-141.5 408t141.5 407t370.5 153
t370.5 -153t141.5 -407t-141.5 -408t-370.5 -154zM607 136q150 0 240.5 108.5t90.5 290.5t-90.5 290t-240.5 108q-151 0 -241 -108t-90 -290t90.5 -290.5t240.5 -108.5z" />
    <glyph glyph-name="odieresis" unicode="&#xf6;" horiz-adv-x="1214" 
d="M326 1284v191h191v-191h-191zM697 1284v191h192v-191h-192zM607 -27q-229 0 -370.5 154t-141.5 408t141.5 407t370.5 153t370.5 -153t141.5 -407t-141.5 -408t-370.5 -154zM607 136q150 0 240.5 108.5t90.5 290.5t-90.5 290t-240.5 108q-151 0 -241 -108t-90 -290
t90.5 -290.5t240.5 -108.5z" />
    <glyph glyph-name="divide" unicode="&#xf7;" 
d="M521 843v181h186v-181h-186zM162 498v155h906v-155h-906zM521 127v181h186v-181h-186z" />
    <glyph glyph-name="oslash" unicode="&#xf8;" horiz-adv-x="1214" 
d="M1001 915q119 -149 119 -380q0 -254 -141.5 -408t-369.5 -154q-158 0 -281 78l-111 -141l-117 92l117 151q-119 149 -119 382q0 254 141 407.5t370 153.5q161 0 283 -80l108 139l118 -91zM609 934q-150 0 -240 -108t-90 -291q0 -141 55 -240l457 585q-77 54 -182 54z
M609 135q150 0 240.5 109t90.5 291q0 140 -54 237l-457 -584q76 -53 180 -53z" />
    <glyph glyph-name="ugrave" unicode="&#xf9;" horiz-adv-x="1204" 
d="M714 1219h-156l-190 292h190zM861 1068h174v-1068h-173v135q-15 -24 -40.5 -48.5t-66.5 -51.5t-104.5 -44t-137.5 -17q-157 0 -255.5 98t-98.5 266v730h174v-692q0 -118 60 -183t162 -65q90 0 161.5 46t108 115.5t36.5 144.5v634z" />
    <glyph glyph-name="uacute" unicode="&#xfa;" horiz-adv-x="1204" 
d="M824 1511l-190 -292h-156l156 292h190zM861 1068h174v-1068h-173v135q-15 -24 -40.5 -48.5t-66.5 -51.5t-104.5 -44t-137.5 -17q-157 0 -255.5 98t-98.5 266v730h174v-692q0 -118 60 -183t162 -65q90 0 161.5 46t108 115.5t36.5 144.5v634z" />
    <glyph glyph-name="ucircumflex" unicode="&#xfb;" horiz-adv-x="1204" 
d="M597 1385l-139 -172h-170l223 295h172l221 -295h-171zM861 1068h174v-1068h-173v135q-15 -24 -40.5 -48.5t-66.5 -51.5t-104.5 -44t-137.5 -17q-157 0 -255.5 98t-98.5 266v730h174v-692q0 -118 60 -183t162 -65q90 0 161.5 46t108 115.5t36.5 144.5v634z" />
    <glyph glyph-name="udieresis" unicode="&#xfc;" horiz-adv-x="1204" 
d="M506 1475v-191h-192v191h192zM878 1475v-191h-191v191h191zM861 1068h174v-1068h-173v135q-15 -24 -40.5 -48.5t-66.5 -51.5t-104.5 -44t-137.5 -17q-157 0 -255.5 98t-98.5 266v730h174v-692q0 -118 60 -183t162 -65q90 0 161.5 46t108 115.5t36.5 144.5v634z" />
    <glyph glyph-name="yacute" unicode="&#xfd;" horiz-adv-x="1062" 
d="M768 1511l-190 -292h-156l156 292h190zM842 1068h196l-495 -1258q-41 -106 -100.5 -150.5t-151.5 -44.5q-75 0 -160 24l42 145q64 -16 99 -16q45 0 68.5 19t43.5 73l65 174l-425 1034h194l322 -829z" />
    <glyph glyph-name="thorn" unicode="&#xfe;" horiz-adv-x="1255" 
d="M699 1095q195 0 327.5 -157t132.5 -402q0 -247 -132.5 -404.5t-327.5 -157.5q-127 0 -216.5 50t-139.5 126v-508h-174v1833h174v-554q47 73 137 123.5t219 50.5zM660 137q136 0 227.5 104.5t91.5 294.5q0 188 -90.5 292t-226.5 104q-142 0 -233.5 -109.5t-91.5 -286.5
q0 -178 91.5 -288.5t231.5 -110.5z" />
    <glyph glyph-name="ydieresis" unicode="&#xff;" horiz-adv-x="1062" 
d="M449 1475v-191h-191v191h191zM821 1475v-191h-191v191h191zM842 1068h196l-495 -1258q-41 -106 -100.5 -150.5t-151.5 -44.5q-75 0 -160 24l42 145q64 -16 99 -16q45 0 68.5 19t43.5 73l65 174l-425 1034h194l322 -829z" />
    <glyph glyph-name="Amacron" unicode="&#x100;" horiz-adv-x="1466" 
d="M1020 1780v-136h-571v136h571zM1201 0l-153 408h-632l-154 -408h-197l566 1475h204l567 -1475h-201zM478 574h506l-253 671z" />
    <glyph glyph-name="amacron" unicode="&#x101;" horiz-adv-x="1130" 
d="M845 1411v-136h-572v136h572zM550 1094q191 0 306.5 -107t115.5 -317v-670h-173v133q-38 -66 -123 -112.5t-211 -46.5q-163 0 -266 89.5t-103 242.5q0 179 137 260t395 81h170v10q0 141 -65.5 211t-186.5 70q-175 0 -279 -151l-125 102q144 205 408 205zM798 401v102
h-126q-75 0 -131.5 -4.5t-109.5 -17.5t-86.5 -34.5t-53.5 -56.5t-20 -83q0 -87 57.5 -135t157.5 -48q72 0 133.5 27.5t99 69.5t58.5 89.5t21 90.5z" />
    <glyph glyph-name="Abreve" unicode="&#x102;" horiz-adv-x="1466" 
d="M735 1565q-127 0 -209 83t-90 221h139q9 -83 53 -133t107 -50t107 50t52 133h140q-8 -138 -90.5 -221t-208.5 -83zM1201 0l-153 408h-632l-154 -408h-197l566 1475h204l567 -1475h-201zM478 574h506l-253 671z" />
    <glyph glyph-name="abreve" unicode="&#x103;" horiz-adv-x="1130" 
d="M560 1203q-127 0 -209 83t-90 222h139q9 -84 53 -134t107 -50t106.5 50t52.5 134h140q-9 -139 -91 -222t-208 -83zM550 1094q191 0 306.5 -107t115.5 -317v-670h-173v133q-38 -66 -123 -112.5t-211 -46.5q-163 0 -266 89.5t-103 242.5q0 179 137 260t395 81h170v10
q0 141 -65.5 211t-186.5 70q-175 0 -279 -151l-125 102q144 205 408 205zM798 401v102h-126q-75 0 -131.5 -4.5t-109.5 -17.5t-86.5 -34.5t-53.5 -56.5t-20 -83q0 -87 57.5 -135t157.5 -48q72 0 133.5 27.5t99 69.5t58.5 89.5t21 90.5z" />
    <glyph glyph-name="Aogonek" unicode="&#x104;" horiz-adv-x="1466" 
d="M1361 -262l64 -111q-82 -53 -156 -53q-110 0 -177 56t-67 147q0 125 175 226l-152 405h-632l-154 -408h-197l566 1475h204l567 -1475h-53q-82 -42 -131.5 -96.5t-49.5 -103.5q0 -42 29.5 -68.5t75.5 -26.5q43 0 88 33zM478 574h506l-253 671z" />
    <glyph glyph-name="aogonek" unicode="&#x105;" horiz-adv-x="1130" 
d="M931 -262l64 -111q-80 -53 -156 -53q-109 0 -176.5 56t-67.5 147q0 135 204 241v115q-38 -66 -123 -112.5t-211 -46.5q-163 0 -266 89.5t-103 242.5q0 179 137 260t395 81h170v10q0 141 -65.5 211t-186.5 70q-175 0 -279 -151l-125 102q144 205 408 205q191 0 306.5 -107
t115.5 -317v-670h-52q-83 -42 -132 -96.5t-49 -103.5q0 -42 29 -68.5t75 -26.5q45 0 88 33zM798 401v102h-126q-75 0 -131.5 -4.5t-109.5 -17.5t-86.5 -34.5t-53.5 -56.5t-20 -83q0 -87 57.5 -135t157.5 -48q72 0 133.5 27.5t99 69.5t58.5 89.5t21 90.5z" />
    <glyph glyph-name="Cacute" unicode="&#x106;" horiz-adv-x="1476" 
d="M681 1576l157 293h190l-191 -293h-156zM796 -30q-206 0 -360.5 95.5t-237 269t-82.5 402.5q0 348 182.5 557.5t492.5 209.5q186 0 334 -86.5t243 -257.5l-157 -84q-151 253 -417 253q-222 0 -355 -161t-133 -431t135.5 -431t358.5 -161q142 0 240.5 68t168.5 211l162 -80
q-97 -190 -239 -282t-336 -92z" />
    <glyph glyph-name="cacute" unicode="&#x107;" horiz-adv-x="1108" 
d="M487 1219l156 292h191l-191 -292h-156zM609 -27q-233 0 -373.5 152.5t-140.5 406.5t140 406.5t370 152.5q288 0 424 -241l-148 -84q-98 164 -269 164q-154 0 -245.5 -108t-91.5 -290q0 -183 92 -290.5t245 -107.5q173 0 269 177l152 -78q-77 -143 -183 -201.5t-241 -58.5
z" />
    <glyph glyph-name="Ccircumflex" unicode="&#x108;" horiz-adv-x="1476" 
d="M790 1745l-140 -170h-171l223 294h172l222 -294h-171zM1209 424l162 -80q-97 -190 -239 -282t-336 -92q-206 0 -360.5 95.5t-237 269t-82.5 402.5q0 348 182.5 557.5t492.5 209.5q186 0 334 -86.5t243 -257.5l-157 -84q-151 253 -417 253q-222 0 -355 -161t-133 -431
t135.5 -431t358.5 -161q142 0 240.5 68t168.5 211z" />
    <glyph glyph-name="ccircumflex" unicode="&#x109;" horiz-adv-x="1108" 
d="M606 1385l-139 -172h-170l223 295h171l221 -295h-170zM881 311l152 -78q-77 -143 -183 -201.5t-241 -58.5q-233 0 -373.5 152.5t-140.5 406.5t140 406.5t370 152.5q288 0 424 -241l-148 -84q-98 164 -269 164q-154 0 -245.5 -108t-91.5 -290q0 -183 92 -290.5t245 -107.5
q173 0 269 177z" />
    <glyph glyph-name="Cdotaccent" unicode="&#x10a;" horiz-adv-x="1476" 
d="M691 1616v199h194v-199h-194zM796 -30q-206 0 -360.5 95.5t-237 269t-82.5 402.5q0 348 182.5 557.5t492.5 209.5q186 0 334 -86.5t243 -257.5l-157 -84q-151 253 -417 253q-222 0 -355 -161t-133 -431t135.5 -431t358.5 -161q142 0 240.5 68t168.5 211l162 -80
q-97 -190 -239 -282t-336 -92z" />
    <glyph glyph-name="cdotaccent" unicode="&#x10b;" horiz-adv-x="1108" 
d="M509 1276v199h192v-199h-192zM609 -27q-233 0 -373.5 152.5t-140.5 406.5t140 406.5t370 152.5q288 0 424 -241l-148 -84q-98 164 -269 164q-154 0 -245.5 -108t-91.5 -290q0 -183 92 -290.5t245 -107.5q173 0 269 177l152 -78q-77 -143 -183 -201.5t-241 -58.5z" />
    <glyph glyph-name="Ccaron" unicode="&#x10c;" horiz-adv-x="1476" 
d="M870 1575h-172l-223 294h170l139 -171l137 171h171zM1209 424l162 -80q-97 -190 -239 -282t-336 -92q-206 0 -360.5 95.5t-237 269t-82.5 402.5q0 348 182.5 557.5t492.5 209.5q186 0 334 -86.5t243 -257.5l-157 -84q-151 253 -417 253q-222 0 -355 -161t-133 -431
t135.5 -431t358.5 -161q142 0 240.5 68t168.5 211z" />
    <glyph glyph-name="ccaron" unicode="&#x10d;" horiz-adv-x="1108" 
d="M687 1213h-172l-223 295h171l139 -170l135 170h171zM881 311l152 -78q-77 -143 -183 -201.5t-241 -58.5q-233 0 -373.5 152.5t-140.5 406.5t140 406.5t370 152.5q288 0 424 -241l-148 -84q-98 164 -269 164q-154 0 -245.5 -108t-91.5 -290q0 -183 92 -290.5t245 -107.5
q173 0 269 177z" />
    <glyph glyph-name="Dcaron" unicode="&#x10e;" horiz-adv-x="1492" 
d="M738 1575h-172l-223 294h171l139 -170l137 170h169zM708 1475q305 0 487 -199t182 -541q0 -340 -182 -537.5t-487 -197.5h-520v1475h520zM686 171q233 0 366.5 150.5t133.5 413.5q0 264 -134 416.5t-366 152.5h-312v-1133h312z" />
    <glyph glyph-name="dcaron" unicode="&#x10f;" horiz-adv-x="1301" 
d="M915 918v557h175v-1475h-174v151q-47 -74 -137 -126t-221 -52q-196 0 -329.5 157.5t-133.5 403.5t133.5 403.5t329.5 157.5q128 0 218.5 -50.5t138.5 -126.5zM1201 1475h181l-43 -422h-138v422zM597 135q141 0 232.5 110.5t91.5 288.5t-92 288.5t-232 110.5
q-137 0 -229.5 -105t-92.5 -294t92.5 -294t229.5 -105z" />
    <glyph glyph-name="Dcroat" unicode="&#x110;" horiz-adv-x="1502" 
d="M718 1475q304 0 487 -199.5t183 -540.5q0 -340 -182.5 -537.5t-487.5 -197.5h-520v659h-159v156h159v660h520zM695 171q233 0 367 150.5t134 413.5q0 264 -134.5 416.5t-366.5 152.5h-312v-489h384v-156h-384v-488h312z" />
    <glyph glyph-name="dcroat" unicode="&#x111;" horiz-adv-x="1260" 
d="M1211 1326v-137h-120v-1189h-173v151q-47 -74 -137.5 -126t-221.5 -52q-196 0 -330 157.5t-134 403.5t134 403.5t330 157.5q128 0 218.5 -50.5t138.5 -126.5v271h-277v137h277v149h175v-149h120zM598 135q141 0 232.5 110.5t91.5 288.5t-92 288.5t-232 110.5
q-137 0 -229.5 -105t-92.5 -294t92.5 -294t229.5 -105z" />
    <glyph glyph-name="Emacron" unicode="&#x112;" horiz-adv-x="1304" 
d="M416 1644v136h571v-136h-571zM188 0v1475h997v-171h-811v-468h736v-168h-736v-497h820v-171h-1006z" />
    <glyph glyph-name="emacron" unicode="&#x113;" horiz-adv-x="1180" 
d="M877 1411v-136h-572v136h572zM278 477q12 -161 98 -253.5t242 -92.5q91 0 163 34.5t132 122.5l139 -89q-70 -108 -181 -167t-248 -59q-241 0 -384.5 152t-143.5 405q0 254 139 409.5t360 155.5q222 0 359.5 -157t137.5 -415v-46h-813zM593 938q-122 0 -205.5 -82
t-104.5 -231h620q-22 147 -105.5 230t-204.5 83z" />
    <glyph glyph-name="Ebreve" unicode="&#x114;" horiz-adv-x="1304" 
d="M701 1565q-126 0 -208.5 83t-90.5 221h141q8 -83 51.5 -133t106.5 -50t107 50t53 133h139q-8 -138 -90 -221t-209 -83zM188 0v1475h997v-171h-811v-468h736v-168h-736v-497h820v-171h-1006z" />
    <glyph glyph-name="ebreve" unicode="&#x115;" horiz-adv-x="1180" 
d="M592 1203q-127 0 -209 83t-90 222h139q9 -84 53 -134t107 -50t107 50t52 134h140q-9 -139 -91 -222t-208 -83zM278 477q12 -161 98 -253.5t242 -92.5q91 0 163 34.5t132 122.5l139 -89q-70 -108 -181 -167t-248 -59q-241 0 -384.5 152t-143.5 405q0 254 139 409.5
t360 155.5q222 0 359.5 -157t137.5 -415v-46h-813zM593 938q-122 0 -205.5 -82t-104.5 -231h620q-22 147 -105.5 230t-204.5 83z" />
    <glyph glyph-name="Edotaccent" unicode="&#x116;" horiz-adv-x="1304" 
d="M605 1616v199h193v-199h-193zM188 0v1475h997v-171h-811v-468h736v-168h-736v-497h820v-171h-1006z" />
    <glyph glyph-name="edotaccent" unicode="&#x117;" horiz-adv-x="1180" 
d="M688 1475v-199h-192v199h192zM278 477q12 -161 98 -253.5t242 -92.5q91 0 163 34.5t132 122.5l139 -89q-70 -108 -181 -167t-248 -59q-241 0 -384.5 152t-143.5 405q0 254 139 409.5t360 155.5q222 0 359.5 -157t137.5 -415v-46h-813zM593 938q-122 0 -205.5 -82
t-104.5 -231h620q-22 147 -105.5 230t-204.5 83z" />
    <glyph glyph-name="Eogonek" unicode="&#x118;" horiz-adv-x="1304" 
d="M1150 -262l64 -111q-82 -53 -157 -53q-109 0 -176 56t-67 147q0 124 170 223h-796v1475h997v-171h-811v-468h736v-168h-736v-497h820v-171h-56q-83 -42 -132 -96.5t-49 -103.5q0 -42 29 -68.5t75 -26.5q44 0 89 33z" />
    <glyph glyph-name="eogonek" unicode="&#x119;" horiz-adv-x="1185" 
d="M1091 523v-46h-813q12 -161 98.5 -253.5t241.5 -92.5q91 0 163 34.5t132 122.5l139 -89q-59 -89 -144 -145q-96 -66 -148 -124.5t-52 -122.5q0 -45 26 -73.5t69 -28.5q41 0 86 32l63 -111q-73 -52 -157 -52q-103 0 -167 59.5t-64 150.5q0 101 95 190q-13 -1 -36 -1
q-241 0 -384.5 152t-143.5 405q0 254 139 409.5t360 155.5q222 0 359.5 -157t137.5 -415zM593 938q-121 0 -205 -82.5t-105 -230.5h620q-22 147 -105 230t-205 83z" />
    <glyph glyph-name="Ecaron" unicode="&#x11a;" horiz-adv-x="1304" 
d="M783 1575h-172l-223 294h171l139 -170l136 170h171zM374 171h820v-171h-1006v1475h997v-171h-811v-468h736v-168h-736v-497z" />
    <glyph glyph-name="ecaron" unicode="&#x11b;" horiz-adv-x="1180" 
d="M674 1213h-172l-223 295h171l139 -170l135 170h171zM278 477q12 -161 98 -253.5t242 -92.5q91 0 163 34.5t132 122.5l139 -89q-70 -108 -181 -167t-248 -59q-241 0 -384.5 152t-143.5 405q0 254 139 409.5t360 155.5q222 0 359.5 -157t137.5 -415v-46h-813zM593 938
q-122 0 -205.5 -82t-104.5 -231h620q-22 147 -105.5 230t-204.5 83z" />
    <glyph glyph-name="Gcircumflex" unicode="&#x11c;" horiz-adv-x="1524" 
d="M798 1745l-140 -170h-171l224 294h172l221 -294h-170zM798 774h580v-774h-168v162q-65 -96 -172.5 -144t-242.5 -48q-204 0 -358.5 95.5t-237.5 269t-83 402.5t84 402.5t241.5 269t366.5 95.5q169 0 308 -72t237 -215l-149 -100q-72 110 -168.5 161t-228.5 51
q-222 0 -361.5 -161t-139.5 -431q0 -271 138 -432t362 -161q179 0 291.5 104t113.5 294v68h-413v164z" />
    <glyph glyph-name="gcircumflex" unicode="&#x11d;" horiz-adv-x="1248" 
d="M606 1384l-139 -171h-171l223 295h172l221 -295h-170zM906 1068h173v-970q0 -222 -135.5 -352.5t-374.5 -130.5q-269 0 -446 200l117 115q128 -158 334 -158q157 0 244 89.5t87 229.5v80q-113 -160 -326 -160q-215 0 -349.5 148.5t-134.5 393.5t134.5 393.5t348.5 148.5
q219 0 328 -162v135zM595 172q137 0 226.5 97.5t89.5 283.5t-89.5 283.5t-226.5 97.5q-142 0 -230.5 -103t-88.5 -278t88.5 -278t230.5 -103z" />
    <glyph glyph-name="Gbreve" unicode="&#x11e;" horiz-adv-x="1524" 
d="M797 1565q-127 0 -209 83t-90 221h139q9 -83 53 -133t107 -50t106 49.5t52 133.5h141q-9 -138 -91 -221t-208 -83zM798 774h580v-774h-168v162q-65 -96 -172.5 -144t-242.5 -48q-204 0 -358.5 95.5t-237.5 269t-83 402.5t84 402.5t241.5 269t366.5 95.5q169 0 308 -72
t237 -215l-149 -100q-72 110 -168.5 161t-228.5 51q-222 0 -361.5 -161t-139.5 -431q0 -271 138 -432t362 -161q179 0 291.5 104t113.5 294v68h-413v164z" />
    <glyph glyph-name="gbreve" unicode="&#x11f;" horiz-adv-x="1248" 
d="M605 1203q-127 0 -209 83t-90 222h139q9 -84 53 -134t107 -50t106.5 50t52.5 134h140q-9 -139 -91 -222t-208 -83zM906 1068h173v-970q0 -222 -135.5 -352.5t-374.5 -130.5q-269 0 -446 200l117 115q128 -158 334 -158q157 0 244 89.5t87 229.5v80q-113 -160 -326 -160
q-215 0 -349.5 148.5t-134.5 393.5t134.5 393.5t348.5 148.5q219 0 328 -162v135zM595 172q137 0 226.5 97.5t89.5 283.5t-89.5 283.5t-226.5 97.5q-142 0 -230.5 -103t-88.5 -278t88.5 -278t230.5 -103z" />
    <glyph glyph-name="Gdotaccent" unicode="&#x120;" horiz-adv-x="1524" 
d="M893 1815v-199h-194v199h194zM798 774h580v-774h-168v162q-65 -96 -172.5 -144t-242.5 -48q-204 0 -358.5 95.5t-237.5 269t-83 402.5t84 402.5t241.5 269t366.5 95.5q169 0 308 -72t237 -215l-149 -100q-72 110 -168.5 161t-228.5 51q-222 0 -361.5 -161t-139.5 -431
q0 -271 138 -432t362 -161q179 0 291.5 104t113.5 294v68h-413v164z" />
    <glyph glyph-name="gdotaccent" unicode="&#x121;" horiz-adv-x="1248" 
d="M701 1475v-199h-193v199h193zM906 1068h173v-970q0 -222 -135.5 -352.5t-374.5 -130.5q-269 0 -446 200l117 115q128 -158 334 -158q157 0 244 89.5t87 229.5v80q-113 -160 -326 -160q-215 0 -349.5 148.5t-134.5 393.5t134.5 393.5t348.5 148.5q219 0 328 -162v135z
M595 172q137 0 226.5 97.5t89.5 283.5t-89.5 283.5t-226.5 97.5q-142 0 -230.5 -103t-88.5 -278t88.5 -278t230.5 -103z" />
    <glyph glyph-name="uni0122" unicode="&#x122;" horiz-adv-x="1524" 
d="M798 774h580v-774h-168v162q-65 -96 -172.5 -144t-242.5 -48q-204 0 -358.5 95.5t-237.5 269t-83 402.5t84 402.5t241.5 269t366.5 95.5q169 0 308 -72t237 -215l-149 -100q-72 110 -168.5 161t-228.5 51q-222 0 -361.5 -161t-139.5 -431q0 -271 138 -432t362 -161
q179 0 291.5 104t113.5 294v68h-413v164zM694 -261v179h212v-184q0 -60 -33.5 -103t-101.5 -78l-54 75q51 27 70 51t19 60h-112z" />
    <glyph glyph-name="uni0123" unicode="&#x123;" horiz-adv-x="1248" 
d="M699 1388v-180h-213v185q0 60 34 103t103 78l54 -76q-51 -27 -70 -50t-19 -60h111zM906 1068h173v-970q0 -222 -135.5 -352.5t-374.5 -130.5q-269 0 -446 200l117 115q128 -158 334 -158q157 0 244 89.5t87 229.5v80q-113 -160 -326 -160q-215 0 -349.5 148.5
t-134.5 393.5t134.5 393.5t348.5 148.5q219 0 328 -162v135zM595 172q137 0 226.5 97.5t89.5 283.5t-89.5 283.5t-226.5 97.5q-142 0 -230.5 -103t-88.5 -278t88.5 -278t230.5 -103z" />
    <glyph glyph-name="Hcircumflex" unicode="&#x124;" horiz-adv-x="1533" 
d="M768 1745l-139 -170h-170l222 294h172l221 -294h-170zM1159 1475h187v-1475h-187v658h-784v-658h-187v1475h187v-647h784v647z" />
    <glyph glyph-name="hcircumflex" unicode="&#x125;" horiz-adv-x="1207" 
d="M596 1746l-139 -171h-170l223 294h171l222 -294h-171zM689 1095q162 0 261 -98t99 -267v-730h-175v690q0 118 -60 182.5t-165 64.5q-135 0 -220.5 -93t-85.5 -211v-633h-174v1475h174v-541q15 25 40.5 49.5t66.5 51.5t103.5 43.5t135.5 16.5z" />
    <glyph glyph-name="Hbar" unicode="&#x126;" horiz-adv-x="1542" 
d="M1500 1225v-162h-150v-1063h-187v658h-784v-658h-186v1063h-152v162h152v250h186v-252h784v252h187v-250h150zM379 828h784v237h-784v-237z" />
    <glyph glyph-name="hbar" unicode="&#x127;" horiz-adv-x="1209" 
d="M691 1095q162 0 261 -98t99 -267v-730h-174v690q0 118 -60.5 182.5t-165.5 64.5q-136 0 -221.5 -93t-85.5 -211v-633h-174v1189h-121v137h121v149h174v-149h278v-137h-278v-256q15 25 41 50t67 52t103.5 43.5t135.5 16.5z" />
    <glyph glyph-name="Itilde" unicode="&#x128;" horiz-adv-x="562" 
d="M408 1581q-68 0 -156 52q-65 40 -105 40q-29 0 -54.5 -20t-63.5 -73l-109 86q59 80 113 117.5t115 37.5q70 0 157 -54q62 -38 103 -38q34 0 59.5 22.5t61.5 70.5l108 -86q-58 -80 -112.5 -117.5t-116.5 -37.5zM188 0v1475h187v-1475h-187z" />
    <glyph glyph-name="itilde" unicode="&#x129;" horiz-adv-x="510" 
d="M382 1245q-69 0 -157 53q-68 39 -103 39q-29 0 -55 -20t-65 -73l-107 86q58 80 112.5 117.5t115.5 37.5q71 0 156 -52q64 -40 102 -40q24 0 47 14t37 30t39 49l107 -86q-58 -80 -112.5 -117.5t-116.5 -37.5zM169 0v1068h174v-1068h-174z" />
    <glyph glyph-name="Imacron" unicode="&#x12a;" horiz-adv-x="562" 
d="M-5 1644v136h571v-136h-571zM188 0v1475h187v-1475h-187z" />
    <glyph glyph-name="imacron" unicode="&#x12b;" horiz-adv-x="510" 
d="M-31 1275v136h572v-136h-572zM169 0v1068h174v-1068h-174z" />
    <glyph glyph-name="Ibreve" unicode="&#x12c;" horiz-adv-x="562" 
d="M282 1565q-127 0 -209 83t-90 221h139q9 -83 53 -133t107 -50t106 49.5t52 133.5h140q-8 -138 -90 -221t-208 -83zM188 0v1475h187v-1475h-187z" />
    <glyph glyph-name="ibreve" unicode="&#x12d;" horiz-adv-x="510" 
d="M256 1203q-127 0 -209 83t-90 222h139q9 -84 53 -134t107 -50t106.5 50t52.5 134h139q-8 -139 -90 -222t-208 -83zM169 0v1068h174v-1068h-174z" />
    <glyph glyph-name="Iogonek" unicode="&#x12e;" horiz-adv-x="562" 
d="M374 -263l64 -111q-73 -52 -157 -52q-103 0 -167 59t-64 146q0 124 145 221h-7v1475h187v-1475h-36q-60 -35 -102.5 -87.5t-42.5 -109.5q0 -43 26 -70.5t68 -27.5t86 32z" />
    <glyph glyph-name="iogonek" unicode="&#x12f;" horiz-adv-x="510" 
d="M352 1475v-199h-193v199h193zM353 -263l65 -111q-73 -52 -158 -52q-103 0 -167 59t-64 146q0 125 145 221h-5v1068h174v-1068h-25q-60 -35 -102.5 -87.5t-42.5 -109.5q0 -43 26 -70.5t68 -27.5q41 0 86 32z" />
    <glyph glyph-name="Idotaccent" unicode="&#x130;" horiz-adv-x="562" 
d="M184 1616v199h194v-199h-194zM188 0v1475h187v-1475h-187z" />
    <glyph glyph-name="dotlessi" unicode="&#x131;" horiz-adv-x="510" 
d="M169 0v1068h174v-1068h-174z" />
    <glyph glyph-name="IJ" unicode="&#x132;" horiz-adv-x="1675" 
d="M188 0v1475h187v-1475h-187zM1082 -23q-160 0 -267 66t-178 205l151 91q48 -98 116.5 -145.5t167.5 -47.5q120 0 182.5 79t62.5 216v1034h185v-1053q0 -200 -113.5 -322.5t-306.5 -122.5z" />
    <glyph glyph-name="ij" unicode="&#x133;" horiz-adv-x="1021" 
d="M159 1276v199h193v-199h-193zM671 1276v199h192v-199h-192zM169 0v1068h174v-1068h-174zM591 -378q-68 0 -146 26l40 147q53 -15 89 -15q58 0 82 33t24 118v1137h174v-1181q0 -265 -263 -265z" />
    <glyph glyph-name="Jcircumflex" unicode="&#x134;" horiz-adv-x="1113" 
d="M934 1869l221 -294h-171l-135 170l-139 -170h-171l223 294h172zM755 441v1034h185v-1053q0 -200 -114 -322.5t-307 -122.5q-159 0 -266 66t-178 205l151 91q48 -98 116.5 -145.5t167.5 -47.5q119 0 182 79t63 216z" />
    <glyph glyph-name="jcircumflex" unicode="&#x135;" horiz-adv-x="510" 
d="M342 1508l221 -295h-171l-135 171l-139 -171h-171l223 295h172zM169 -69v1137h174v-1181q0 -265 -263 -265q-68 0 -146 26l40 147q53 -15 89 -15q58 0 82 33t24 118z" />
    <glyph glyph-name="uni0136" unicode="&#x136;" horiz-adv-x="1355" 
d="M765 886l554 -885h-222l-456 741l-266 -308v-434h-187v1475h187v-785l679 785h221zM581 -261v179h213v-184q0 -60 -34 -103t-103 -78l-53 75q50 27 69 50.5t19 60.5h-111z" />
    <glyph glyph-name="uni0137" unicode="&#x137;" horiz-adv-x="1120" 
d="M620 621l449 -621h-207l-359 490l-160 -179v-311h-174v1475h174v-926l461 519h216zM464 -261v179h212v-184q0 -60 -33.5 -103t-101.5 -78l-55 75q51 27 70 50.5t19 60.5h-111z" />
    <glyph glyph-name="kgreenlandic" unicode="&#x138;" horiz-adv-x="1120" 
d="M861 0l-358 490l-160 -179v-311h-174v1068h174v-519l461 519h216l-399 -446l448 -622h-208z" />
    <glyph glyph-name="Lacute" unicode="&#x139;" horiz-adv-x="1140" 
d="M521 1869l-191 -293h-156l157 293h190zM375 170h717v-170h-904v1475h187v-1305z" />
    <glyph glyph-name="lacute" unicode="&#x13a;" horiz-adv-x="510" 
d="M148 1576l157 293h191l-192 -293h-156zM169 0v1475h174v-1475h-174z" />
    <glyph glyph-name="uni013B" unicode="&#x13b;" horiz-adv-x="1140" 
d="M375 170h717v-170h-904v1475h187v-1305zM552 -261v179h212v-184q0 -60 -33.5 -103t-101.5 -78l-55 75q51 27 70.5 51t19.5 60h-112z" />
    <glyph glyph-name="uni013C" unicode="&#x13c;" horiz-adv-x="510" 
d="M343 1475v-1475h-174v1475h174zM150 -82h211v-184q0 -60 -33.5 -103t-101.5 -78l-54 75q51 27 70 50.5t19 60.5h-111v179z" />
    <glyph glyph-name="Lcaron" unicode="&#x13d;" horiz-adv-x="1140" 
d="M375 170h717v-170h-904v1475h187v-1305zM758 1475l-43 -422h-138v422h181z" />
    <glyph glyph-name="lcaron" unicode="&#x13e;" horiz-adv-x="553" 
d="M169 0v1475h174v-1475h-174zM454 1053v422h181l-43 -422h-138z" />
    <glyph glyph-name="Ldot" unicode="&#x13f;" horiz-adv-x="1140" 
d="M375 170h717v-170h-904v1475h187v-1305zM955 920v-240h-225v240h225z" />
    <glyph glyph-name="ldot" unicode="&#x140;" horiz-adv-x="684" 
d="M169 0v1475h174v-1475h-174zM484 617v240h227v-240h-227z" />
    <glyph glyph-name="Lslash" unicode="&#x141;" horiz-adv-x="1161" 
d="M395 170h717v-170h-903v594l-172 -94v177l172 94v704h186v-621l441 243v-177l-441 -243v-507z" />
    <glyph glyph-name="lslash" unicode="&#x142;" horiz-adv-x="659" 
d="M601 1084v-181l-184 -122v-781h-174v684l-185 -121v181l185 121v610h174v-512z" />
    <glyph glyph-name="Nacute" unicode="&#x143;" horiz-adv-x="1513" 
d="M1015 1869l-191 -293h-155l155 293h191zM1140 1475h185v-1475h-233l-718 1202v-1202h-186v1475h227l725 -1209v1209z" />
    <glyph glyph-name="nacute" unicode="&#x144;" horiz-adv-x="1207" 
d="M840 1511l-191 -292h-155l155 292h191zM691 1095q160 0 259 -98t99 -267v-730h-175v691q0 118 -60 182.5t-165 64.5q-134 0 -220 -93t-86 -211v-634h-174v1068h172v-137q14 24 39.5 49t67 52.5t105 45t138.5 17.5z" />
    <glyph glyph-name="uni0145" unicode="&#x145;" horiz-adv-x="1513" 
d="M1140 1475h185v-1475h-233l-718 1202v-1202h-186v1475h227l725 -1209v1209zM651 -261v179h212v-184q0 -60 -33.5 -103t-101.5 -78l-54 75q50 27 69 50.5t19 60.5h-111z" />
    <glyph glyph-name="uni0146" unicode="&#x146;" horiz-adv-x="1207" 
d="M691 1095q160 0 259 -98t99 -267v-730h-175v691q0 118 -60 182.5t-165 64.5q-134 0 -220 -93t-86 -211v-634h-174v1068h172v-137q14 24 39.5 49t67 52.5t105 45t138.5 17.5zM498 -261v179h213v-184q0 -60 -34 -103t-103 -78l-54 75q51 27 70 50.5t19 60.5h-111z" />
    <glyph glyph-name="Ncaron" unicode="&#x147;" horiz-adv-x="1513" 
d="M857 1575h-172l-223 294h171l139 -170l135 170h171zM1140 1475h185v-1475h-233l-718 1202v-1202h-186v1475h227l725 -1209v1209z" />
    <glyph glyph-name="ncaron" unicode="&#x148;" horiz-adv-x="1207" 
d="M693 1213h-172l-223 295h171l139 -170l135 170h171zM691 1095q160 0 259 -98t99 -267v-730h-175v691q0 118 -60 182.5t-165 64.5q-134 0 -220 -93t-86 -211v-634h-174v1068h172v-137q14 24 39.5 49t67 52.5t105 45t138.5 17.5z" />
    <glyph glyph-name="napostrophe" unicode="&#x149;" horiz-adv-x="1544" 
d="M154 1236v239h225v-249q0 -114 -32.5 -180.5t-106.5 -122.5l-76 85q64 43 83.5 94t19.5 134h-113zM1027 1095q160 0 258.5 -98t98.5 -267v-730h-174v691q0 118 -60 182.5t-165 64.5q-134 0 -220 -93t-86 -211v-634h-174v1068h173v-135q15 24 40.5 49t66.5 52t104.5 44
t137.5 17z" />
    <glyph glyph-name="Eng" unicode="&#x14a;" horiz-adv-x="1513" 
d="M1140 1475h185v-1489q0 -148 -104 -234t-275 -86q-147 0 -262 69l74 149q84 -52 177 -52q94 0 149.5 46t55.5 129v13l-766 1190v-1210h-186v1475h227l725 -1136v1136z" />
    <glyph glyph-name="eng" unicode="&#x14b;" horiz-adv-x="1207" 
d="M691 1095q160 0 259 -98t99 -267v-784q0 -132 -65.5 -200t-193.5 -68q-65 0 -146 26l39 148q53 -16 88 -16q56 0 79.5 30.5t23.5 100.5v724q0 119 -60 183.5t-165 64.5q-90 0 -161.5 -46t-108 -115.5t-36.5 -144.5v-633h-174v1068h174v-134q15 25 40.5 49.5t67 51.5
t104.5 43.5t136 16.5z" />
    <glyph glyph-name="Omacron" unicode="&#x14c;" horiz-adv-x="1603" 
d="M516 1642v136h571v-136h-571zM802 -30q-316 0 -501 209.5t-185 557.5t185 557.5t501 209.5t501.5 -209.5t185.5 -557.5t-185.5 -557.5t-501.5 -209.5zM802 145q225 0 360 159.5t135 432.5t-135 432.5t-360 159.5q-224 0 -360 -160t-136 -432t136 -432t360 -160z" />
    <glyph glyph-name="omacron" unicode="&#x14d;" horiz-adv-x="1214" 
d="M322 1275v136h570v-136h-570zM607 -27q-229 0 -370.5 154t-141.5 408t141.5 407t370.5 153t370.5 -153t141.5 -407t-141.5 -408t-370.5 -154zM607 136q150 0 240.5 108.5t90.5 290.5t-90.5 290t-240.5 108q-151 0 -241 -108t-90 -290t90.5 -290.5t240.5 -108.5z" />
    <glyph glyph-name="Obreve" unicode="&#x14e;" horiz-adv-x="1603" 
d="M802 1563q-126 0 -208 83t-91 221h140q9 -84 52.5 -134t106.5 -50t107 50.5t53 133.5h139q-8 -138 -90 -221t-209 -83zM802 -30q-316 0 -501 209.5t-185 557.5t185 557.5t501 209.5t501.5 -209.5t185.5 -557.5t-185.5 -557.5t-501.5 -209.5zM802 145q225 0 360 159.5
t135 432.5t-135 432.5t-360 159.5q-224 0 -360 -160t-136 -432t136 -432t360 -160z" />
    <glyph glyph-name="obreve" unicode="&#x14f;" horiz-adv-x="1214" 
d="M607 1203q-126 0 -208.5 83t-90.5 222h139q9 -84 53 -134t107 -50t107 50t53 134h139q-8 -139 -90 -222t-209 -83zM607 -27q-229 0 -370.5 154t-141.5 408t141.5 407t370.5 153t370.5 -153t141.5 -407t-141.5 -408t-370.5 -154zM607 136q150 0 240.5 108.5t90.5 290.5
t-90.5 290t-240.5 108q-151 0 -241 -108t-90 -290t90.5 -290.5t240.5 -108.5z" />
    <glyph glyph-name="Ohungarumlaut" unicode="&#x150;" horiz-adv-x="1603" 
d="M551 1575l156 293h190l-190 -293h-156zM869 1575l157 293h189l-190 -293h-156zM802 -30q-316 0 -501 209.5t-185 557.5t185 557.5t501 209.5t501.5 -209.5t185.5 -557.5t-185.5 -557.5t-501.5 -209.5zM802 145q225 0 360 159.5t135 432.5t-135 432.5t-360 159.5
q-224 0 -360 -160t-136 -432t136 -432t360 -160z" />
    <glyph glyph-name="ohungarumlaut" unicode="&#x151;" horiz-adv-x="1214" 
d="M346 1219l156 292h190l-190 -292h-156zM665 1219l156 292h191l-192 -292h-155zM607 -27q-229 0 -370.5 154t-141.5 408t141.5 407t370.5 153t370.5 -153t141.5 -407t-141.5 -408t-370.5 -154zM607 136q150 0 240.5 108.5t90.5 290.5t-90.5 290t-240.5 108
q-151 0 -241 -108t-90 -290t90.5 -290.5t240.5 -108.5z" />
    <glyph glyph-name="OE" unicode="&#x152;" horiz-adv-x="2132" 
d="M1239 170h783v-170h-1238q-305 0 -486.5 197t-181.5 538q0 342 181.5 541t486.5 199h1228v-170h-773v-469h703v-168h-703v-498zM807 170h246v1135h-246q-232 0 -366.5 -153t-134.5 -417q0 -262 134 -413.5t367 -151.5z" />
    <glyph glyph-name="oe" unicode="&#x153;" horiz-adv-x="1928" 
d="M1838 517v-41h-752q10 -162 89 -253.5t226 -91.5q76 0 141.5 34.5t123.5 122.5l136 -90q-65 -105 -170 -165t-225 -60q-141 0 -250 60.5t-168 166.5q-61 -108 -165 -167.5t-236 -59.5q-221 0 -357 153.5t-136 407.5t136 407.5t357 153.5q133 0 238 -62t165 -173
q61 115 159.5 175t225.5 60q204 0 333 -158t129 -420zM1087 618h566q-19 148 -96 233.5t-183 85.5q-115 0 -191 -84t-96 -235zM589 135q140 0 226 108.5t86 290.5t-86 290.5t-226 108.5q-141 0 -227.5 -108.5t-86.5 -290.5t86.5 -290.5t227.5 -108.5z" />
    <glyph glyph-name="Racute" unicode="&#x154;" horiz-adv-x="1316" 
d="M897 1869l-190 -293h-156l157 293h189zM1017 0l-320 633h-323v-633h-186v1475h586q200 0 317.5 -112.5t117.5 -309.5q0 -164 -82.5 -270t-230.5 -138l335 -645h-214zM374 1305v-503h386q121 0 190 67t69 184t-69 184.5t-190 67.5h-386z" />
    <glyph glyph-name="racute" unicode="&#x155;" horiz-adv-x="800" 
d="M678 1511l-191 -292h-155l155 292h191zM657 1094q60 0 119 -17l-43 -165q-46 10 -86 10q-130 0 -217 -110.5t-87 -277.5v-534h-174v1068h172v-175q15 31 37 60t59.5 64t94.5 56t125 21z" />
    <glyph glyph-name="uni0156" unicode="&#x156;" horiz-adv-x="1316" 
d="M896 645l335 -645h-214l-320 633h-323v-633h-186v1475h586q200 0 317.5 -112.5t117.5 -309.5q0 -164 -82.5 -270t-230.5 -138zM374 1305v-503h386q121 0 190 67t69 184t-69 184.5t-190 67.5h-386zM553 -261v179h212v-184q0 -60 -33.5 -103t-101.5 -78l-55 75
q51 27 70.5 51t19.5 60h-112z" />
    <glyph glyph-name="uni0157" unicode="&#x157;" horiz-adv-x="800" 
d="M657 1094q60 0 119 -17l-43 -165q-46 10 -86 10q-130 0 -217 -110.5t-87 -277.5v-534h-174v1068h172v-175q15 31 37 60t59.5 64t94.5 56t125 21zM150 -261v179h211v-184q0 -60 -33.5 -103t-101.5 -78l-54 75q51 27 70 50.5t19 60.5h-111z" />
    <glyph glyph-name="Rcaron" unicode="&#x158;" horiz-adv-x="1316" 
d="M739 1575h-172l-222 294h170l139 -170l137 170h170zM1017 0l-320 633h-323v-633h-186v1475h586q200 0 317.5 -112.5t117.5 -309.5q0 -164 -82.5 -270t-230.5 -138l335 -645h-214zM374 1305v-503h386q121 0 190 67t69 184t-69 184.5t-190 67.5h-386z" />
    <glyph glyph-name="rcaron" unicode="&#x159;" horiz-adv-x="800" 
d="M531 1213h-172l-223 295h171l138 -171l137 171h171zM657 1094q60 0 119 -17l-43 -165q-46 10 -86 10q-130 0 -217 -110.5t-87 -277.5v-534h-174v1068h172v-175q15 31 37 60t59.5 64t94.5 56t125 21z" />
    <glyph glyph-name="Sacute" unicode="&#x15a;" horiz-adv-x="1347" 
d="M580 1576l155 293h191l-191 -293h-155zM691 -29q-205 0 -359 84t-236 242l154 91q122 -247 442 -247q162 0 260.5 70t98.5 185q0 39 -12 72t-30 57t-50.5 44.5t-61 34t-75 26.5t-80 20.5t-87.5 18.5q-51 10 -82.5 16.5t-80 19t-79.5 24t-71.5 30.5t-66.5 39.5t-53.5 50
t-43.5 63t-26 77t-10 94.5q0 189 146.5 304t390.5 115q190 0 336 -78.5t219 -221.5l-154 -86q-49 102 -156 159t-246 57q-156 0 -251 -68.5t-95 -176.5q0 -36 11.5 -65.5t27.5 -51t48 -40.5t57.5 -30.5t72 -23.5t76.5 -18.5t84 -17.5q52 -10 84.5 -17t82.5 -19.5t82 -25
t74.5 -32.5t69.5 -42t56 -53t45.5 -67t27 -83t10.5 -101q0 -194 -150.5 -311.5t-399.5 -117.5z" />
    <glyph glyph-name="sacute" unicode="&#x15b;" horiz-adv-x="1052" 
d="M420 1219l155 292h191l-191 -292h-155zM544 -28q-167 0 -284 63.5t-184 172.5l137 95q107 -170 333 -170q109 0 174 43.5t65 117.5q0 28 -9 50.5t-29.5 38.5t-41 27t-58 20.5t-63.5 15t-74 13.5q-82 14 -143 33.5t-119.5 55.5t-90 96t-31.5 141q0 147 111 229t293 82
q268 0 410 -201l-135 -96q-98 137 -275 137q-100 0 -163.5 -37.5t-63.5 -106.5q0 -33 14.5 -59t37 -43t60 -31t72.5 -22t85 -17q49 -9 81.5 -15.5t77.5 -20t74.5 -28.5t62.5 -39.5t52 -54t31.5 -71.5t12.5 -93q0 -152 -114 -239t-306 -87z" />
    <glyph glyph-name="Scircumflex" unicode="&#x15c;" horiz-adv-x="1347" 
d="M687 1745l-139 -170h-171l223 294h172l221 -294h-170zM709 840q52 -10 84.5 -17t82.5 -19.5t82 -25t74.5 -32.5t69.5 -42t56 -53t45.5 -67t27 -83t10.5 -101q0 -194 -150.5 -311.5t-399.5 -117.5q-205 0 -359 84t-236 242l154 91q122 -247 442 -247q162 0 260.5 70
t98.5 185q0 39 -12 72t-30 57t-50.5 44.5t-61 34t-75 26.5t-80 20.5t-87.5 18.5q-51 10 -82.5 16.5t-80 19t-79.5 24t-71.5 30.5t-66.5 39.5t-53.5 50t-43.5 63t-26 77t-10 94.5q0 189 146.5 304t390.5 115q190 0 336 -78.5t219 -221.5l-154 -86q-49 102 -156 159t-246 57
q-156 0 -251 -68.5t-95 -176.5q0 -36 11.5 -65.5t27.5 -51t48 -40.5t57.5 -30.5t72 -23.5t76.5 -18.5t84 -17.5z" />
    <glyph glyph-name="scircumflex" unicode="&#x15d;" horiz-adv-x="1052" 
d="M539 1385l-140 -172h-170l223 295h172l221 -295h-170zM572 620q49 -9 81.5 -15.5t77.5 -20t74.5 -28.5t62.5 -39.5t52 -54t31.5 -71.5t12.5 -93q0 -152 -114 -239t-306 -87q-167 0 -284 63.5t-184 172.5l137 95q107 -170 333 -170q109 0 174 43.5t65 117.5q0 28 -9 50.5
t-29.5 38.5t-41 27t-58 20.5t-63.5 15t-74 13.5q-82 14 -143 33.5t-119.5 55.5t-90 96t-31.5 141q0 147 111 229t293 82q268 0 410 -201l-135 -96q-98 137 -275 137q-100 0 -163.5 -37.5t-63.5 -106.5q0 -33 14.5 -59t37 -43t60 -31t72.5 -22t85 -17z" />
    <glyph glyph-name="Scedilla" unicode="&#x15e;" horiz-adv-x="1347" 
d="M1241 400q0 -180 -130 -295t-352 -132l-95 -301h-154l96 303q-175 17 -306 99t-204 223l154 91q122 -247 442 -247q162 0 260.5 70t98.5 185q0 39 -12 72t-30 57t-50.5 44.5t-61 34t-75 26.5t-80 20.5t-87.5 18.5q-51 10 -82.5 16.5t-80 19t-79.5 24t-71.5 30.5
t-66.5 39.5t-53.5 50t-43.5 63t-26 77t-10 94.5q0 189 146.5 304t390.5 115q190 0 336 -78.5t219 -221.5l-154 -86q-49 102 -156 159t-246 57q-156 0 -251 -68.5t-95 -176.5q0 -36 11.5 -65.5t27.5 -51t48 -40.5t57.5 -30.5t72 -23.5t76.5 -18.5t84 -17.5q52 -10 84.5 -17
t82.5 -19.5t82 -25t74.5 -32.5t69.5 -42t56 -53t45.5 -67t27 -83t10.5 -101z" />
    <glyph glyph-name="scedilla" unicode="&#x15f;" horiz-adv-x="1052" 
d="M964 298q0 -135 -91.5 -220t-250.5 -102l-97 -304h-153l96 304q-265 25 -392 232l137 95q107 -170 333 -170q109 0 174 43.5t65 117.5q0 28 -9 50.5t-29.5 38.5t-41 27t-58 20.5t-63.5 15t-74 13.5q-82 14 -143 33.5t-119.5 55.5t-90 96t-31.5 141q0 147 111 229t293 82
q268 0 410 -201l-135 -96q-98 137 -275 137q-100 0 -163.5 -37.5t-63.5 -106.5q0 -33 14.5 -59t37 -43t60 -31t72.5 -22t85 -17q49 -9 81.5 -15.5t77.5 -20t74.5 -28.5t62.5 -39.5t52 -54t31.5 -71.5t12.5 -93z" />
    <glyph glyph-name="Scaron" unicode="&#x160;" horiz-adv-x="1347" 
d="M768 1575h-172l-223 294h171l139 -170l135 170h171zM709 840q52 -10 84.5 -17t82.5 -19.5t82 -25t74.5 -32.5t69.5 -42t56 -53t45.5 -67t27 -83t10.5 -101q0 -194 -150.5 -311.5t-399.5 -117.5q-205 0 -359 84t-236 242l154 91q122 -247 442 -247q162 0 260.5 70
t98.5 185q0 39 -12 72t-30 57t-50.5 44.5t-61 34t-75 26.5t-80 20.5t-87.5 18.5q-51 10 -82.5 16.5t-80 19t-79.5 24t-71.5 30.5t-66.5 39.5t-53.5 50t-43.5 63t-26 77t-10 94.5q0 189 146.5 304t390.5 115q190 0 336 -78.5t219 -221.5l-154 -86q-49 102 -156 159t-246 57
q-156 0 -251 -68.5t-95 -176.5q0 -36 11.5 -65.5t27.5 -51t48 -40.5t57.5 -30.5t72 -23.5t76.5 -18.5t84 -17.5z" />
    <glyph glyph-name="scaron" unicode="&#x161;" horiz-adv-x="1052" 
d="M620 1213h-173l-223 295h171l140 -170l135 170h171zM572 620q49 -9 81.5 -15.5t77.5 -20t74.5 -28.5t62.5 -39.5t52 -54t31.5 -71.5t12.5 -93q0 -152 -114 -239t-306 -87q-167 0 -284 63.5t-184 172.5l137 95q107 -170 333 -170q109 0 174 43.5t65 117.5q0 28 -9 50.5
t-29.5 38.5t-41 27t-58 20.5t-63.5 15t-74 13.5q-82 14 -143 33.5t-119.5 55.5t-90 96t-31.5 141q0 147 111 229t293 82q268 0 410 -201l-135 -96q-98 137 -275 137q-100 0 -163.5 -37.5t-63.5 -106.5q0 -33 14.5 -59t37 -43t60 -31t72.5 -22t85 -17z" />
    <glyph glyph-name="uni0162" unicode="&#x162;" horiz-adv-x="1244" 
d="M1196 1475v-171h-481v-1304h-16l-103 -328h-153l103 328h-17v1304h-481v171h1148z" />
    <glyph glyph-name="uni0163" unicode="&#x163;" horiz-adv-x="753" 
d="M677 9q-74 -28 -145 -34l-96 -303h-153l100 317q-163 45 -163 254v671h-158v154h158v288h174v-288h266v-154h-266v-631q0 -88 26.5 -120.5t97.5 -32.5q46 0 119 24z" />
    <glyph glyph-name="Tcaron" unicode="&#x164;" horiz-adv-x="1244" 
d="M703 1575h-172l-222 294h170l139 -171l137 171h170zM1196 1475v-171h-481v-1304h-186v1304h-481v171h1148z" />
    <glyph glyph-name="tcaron" unicode="&#x165;" horiz-adv-x="753" 
d="M678 1543l-44 -393h-138v393h182zM517 130q51 0 120 24l40 -146q-94 -34 -178 -34q-136 0 -208 62.5t-72 206.5v671h-157v154h157v288h174v-288h267v-154h-267v-632q0 -87 26.5 -119.5t97.5 -32.5z" />
    <glyph glyph-name="Tbar" unicode="&#x166;" horiz-adv-x="1244" 
d="M1196 1304h-481v-422h325v-166h-325v-716h-186v716h-325v166h325v422h-481v171h1148v-171z" />
    <glyph glyph-name="tbar" unicode="&#x167;" horiz-adv-x="753" 
d="M637 154l40 -145q-93 -35 -177 -35q-136 0 -208 62.5t-72 207.5v268h-120v148h120v253h-158v155h158v288h174v-288h266v-155h-266v-253h209v-148h-209v-229q0 -88 26.5 -120.5t97.5 -32.5q48 0 119 24z" />
    <glyph glyph-name="Utilde" unicode="&#x168;" horiz-adv-x="1477" 
d="M866 1581q-66 0 -156 52q-64 40 -104 40q-29 0 -55 -20t-65 -73l-107 86q58 80 112.5 117.5t115.5 37.5q71 0 156 -54q64 -38 102 -38q24 0 47 14t37 30t39 49l108 -86q-58 -79 -113 -117t-117 -38zM738 -28q-144 0 -255.5 45t-179 122t-101.5 173.5t-34 206.5v956h186
v-936q0 -79 19.5 -146t62 -124t120 -90t182.5 -33t182.5 33t120 90t62 124t19.5 146v936h187v-956q0 -110 -34 -206.5t-101.5 -173.5t-179.5 -122t-256 -45z" />
    <glyph glyph-name="utilde" unicode="&#x169;" horiz-adv-x="1204" 
d="M463 1337q-29 0 -55 -20t-65 -73l-107 86q58 80 112 117.5t115 37.5q70 0 157 -52q63 -40 102 -40q34 0 60 22.5t62 70.5l108 -86q-59 -80 -113.5 -117.5t-116.5 -37.5q-70 0 -156 53q-70 39 -103 39zM861 1068h174v-1068h-173v135q-15 -24 -40.5 -48.5t-66.5 -51.5
t-104.5 -44t-137.5 -17q-157 0 -255.5 98t-98.5 266v730h174v-692q0 -118 60 -183t162 -65q90 0 161.5 46t108 115.5t36.5 144.5v634z" />
    <glyph glyph-name="Umacron" unicode="&#x16a;" horiz-adv-x="1477" 
d="M454 1644v136h571v-136h-571zM738 -28q-144 0 -255.5 45t-179 122t-101.5 173.5t-34 206.5v956h186v-936q0 -79 19.5 -146t62 -124t120 -90t182.5 -33t182.5 33t120 90t62 124t19.5 146v936h187v-956q0 -110 -34 -206.5t-101.5 -173.5t-179.5 -122t-256 -45z" />
    <glyph glyph-name="umacron" unicode="&#x16b;" horiz-adv-x="1204" 
d="M882 1411v-136h-572v136h572zM861 1068h174v-1068h-173v135q-15 -24 -40.5 -48.5t-66.5 -51.5t-104.5 -44t-137.5 -17q-157 0 -255.5 98t-98.5 266v730h174v-692q0 -118 60 -183t162 -65q90 0 161.5 46t108 115.5t36.5 144.5v634z" />
    <glyph glyph-name="Ubreve" unicode="&#x16c;" horiz-adv-x="1477" 
d="M739 1565q-126 0 -208 83t-91 221h141q9 -84 52 -133.5t106 -49.5t107 50t53 133h139q-8 -138 -90 -221t-209 -83zM738 -28q-144 0 -255.5 45t-179 122t-101.5 173.5t-34 206.5v956h186v-936q0 -79 19.5 -146t62 -124t120 -90t182.5 -33t182.5 33t120 90t62 124t19.5 146
v936h187v-956q0 -110 -34 -206.5t-101.5 -173.5t-179.5 -122t-256 -45z" />
    <glyph glyph-name="ubreve" unicode="&#x16d;" horiz-adv-x="1204" 
d="M596 1203q-126 0 -208 83t-91 222h140q9 -84 52.5 -134t106.5 -50t107 50t53 134h139q-8 -139 -90 -222t-209 -83zM861 1068h174v-1068h-173v135q-15 -24 -40.5 -48.5t-66.5 -51.5t-104.5 -44t-137.5 -17q-157 0 -255.5 98t-98.5 266v730h174v-692q0 -118 60 -183
t162 -65q90 0 161.5 46t108 115.5t36.5 144.5v634z" />
    <glyph glyph-name="Uring" unicode="&#x16e;" horiz-adv-x="1477" 
d="M739 1549q-97 0 -160 63.5t-63 159.5q0 95 63 158t160 63q96 0 160 -63t64 -158q0 -96 -64 -159.5t-160 -63.5zM739 1664q44 0 72.5 30.5t28.5 77.5q0 48 -28.5 77t-72.5 29q-45 0 -72.5 -29t-27.5 -77q0 -49 27.5 -78.5t72.5 -29.5zM738 -28q-144 0 -255.5 45t-179 122
t-101.5 173.5t-34 206.5v956h186v-936q0 -79 19.5 -146t62 -124t120 -90t182.5 -33t182.5 33t120 90t62 124t19.5 146v936h187v-956q0 -110 -34 -206.5t-101.5 -173.5t-179.5 -122t-256 -45z" />
    <glyph glyph-name="uring" unicode="&#x16f;" horiz-adv-x="1204" 
d="M596 1182q-97 0 -160 63t-63 159t63 159t160 63q96 0 159.5 -63t63.5 -159t-63.5 -159t-159.5 -63zM596 1510q-45 0 -72.5 -29t-27.5 -77q0 -49 27.5 -78.5t72.5 -29.5q44 0 72 30.5t28 77.5q0 48 -28 77t-72 29zM861 1068h174v-1068h-173v135q-15 -24 -40.5 -48.5
t-66.5 -51.5t-104.5 -44t-137.5 -17q-157 0 -255.5 98t-98.5 266v730h174v-692q0 -118 60 -183t162 -65q90 0 161.5 46t108 115.5t36.5 144.5v634z" />
    <glyph glyph-name="Uhungarumlaut" unicode="&#x170;" horiz-adv-x="1477" 
d="M488 1577l156 293h191l-191 -293h-156zM807 1577l157 293h189l-190 -293h-156zM738 -28q-144 0 -255.5 45t-179 122t-101.5 173.5t-34 206.5v956h186v-936q0 -79 19.5 -146t62 -124t120 -90t182.5 -33t182.5 33t120 90t62 124t19.5 146v936h187v-956q0 -110 -34 -206.5
t-101.5 -173.5t-179.5 -122t-256 -45z" />
    <glyph glyph-name="uhungarumlaut" unicode="&#x171;" horiz-adv-x="1204" 
d="M681 1511l-191 -292h-155l157 292h189zM810 1219h-156l156 292h190zM861 1068h174v-1068h-173v135q-15 -24 -40.5 -48.5t-66.5 -51.5t-104.5 -44t-137.5 -17q-157 0 -255.5 98t-98.5 266v730h174v-692q0 -118 60 -183t162 -65q90 0 161.5 46t108 115.5t36.5 144.5v634z
" />
    <glyph glyph-name="Uogonek" unicode="&#x172;" horiz-adv-x="1476" 
d="M1122 1475h187v-956q0 -149 -60 -272t-179 -194q-99 -67 -146 -133t-47 -120q0 -42 28.5 -68.5t74.5 -26.5q44 0 89 33l64 -111q-78 -53 -157 -53q-109 0 -176 56t-67 147q0 104 97 200q-50 -5 -92 -5q-144 0 -255.5 45t-179 122t-101.5 173.5t-34 206.5v956h186v-936
q0 -79 19.5 -146t62 -124t120 -90t182.5 -33t182.5 33t120 90t62 124t19.5 146v936z" />
    <glyph glyph-name="uogonek" unicode="&#x173;" horiz-adv-x="1204" 
d="M993 -262l65 -111q-80 -53 -157 -53q-109 0 -176.5 56t-67.5 147q0 135 205 241v117q-15 -24 -40.5 -48.5t-66.5 -51.5t-104.5 -44t-137.5 -17q-157 0 -255.5 98t-98.5 266v730h174v-692q0 -118 60 -183t162 -65q90 0 161.5 46t108 115.5t36.5 144.5v634h174v-1068h-53
q-82 -42 -131 -96t-49 -104q0 -42 28.5 -68.5t74.5 -26.5q45 0 88 33z" />
    <glyph glyph-name="Wcircumflex" unicode="&#x174;" horiz-adv-x="2094" 
d="M1049 1745l-140 -170h-171l224 294h172l221 -294h-171zM1823 1475h196l-448 -1475h-191l-331 1191l-332 -1191h-193l-449 1475h200l348 -1189l334 1189h183l336 -1189z" />
    <glyph glyph-name="wcircumflex" unicode="&#x175;" horiz-adv-x="1679" 
d="M841 1385l-139 -172h-171l224 295h172l221 -295h-171zM1448 1068h193l-336 -1068h-186l-278 855l-280 -855h-186l-337 1068h194l242 -847l274 847h185l272 -846z" />
    <glyph glyph-name="Ycircumflex" unicode="&#x176;" horiz-adv-x="1265" 
d="M634 1746l-139 -171h-170l223 294h172l221 -294h-171zM1026 1475h199l-499 -871v-604h-185v604l-499 871h201l392 -702z" />
    <glyph glyph-name="ycircumflex" unicode="&#x177;" horiz-adv-x="1062" 
d="M541 1384l-140 -171h-171l224 295h172l221 -295h-170zM842 1068h196l-495 -1258q-41 -106 -100.5 -150.5t-151.5 -44.5q-75 0 -160 24l42 145q64 -16 99 -16q45 0 68.5 19t43.5 73l65 174l-425 1034h194l322 -829z" />
    <glyph glyph-name="Ydieresis" unicode="&#x178;" horiz-adv-x="1265" 
d="M524 1815v-194h-193v194h193zM936 1815v-194h-195v194h195zM1026 1475h199l-499 -871v-604h-185v604l-499 871h201l392 -702z" />
    <glyph glyph-name="Zacute" unicode="&#x179;" horiz-adv-x="1303" 
d="M528 1576l156 293h190l-190 -293h-156zM96 0v159l849 1146h-829v170h1066v-160l-850 -1145h870v-170h-1106z" />
    <glyph glyph-name="zacute" unicode="&#x17a;" horiz-adv-x="1031" 
d="M398 1219l156 292h190l-190 -292h-156zM96 0v141l590 773h-561v154h781v-143l-591 -771h611v-154h-830z" />
    <glyph glyph-name="Zdotaccent" unicode="&#x17b;" horiz-adv-x="1303" 
d="M539 1616v199h193v-199h-193zM96 0v159l849 1146h-829v170h1066v-160l-850 -1145h870v-170h-1106z" />
    <glyph glyph-name="zdotaccent" unicode="&#x17c;" horiz-adv-x="1031" 
d="M420 1276v199h192v-199h-192zM96 0v141l590 773h-561v154h781v-143l-591 -771h611v-154h-830z" />
    <glyph glyph-name="Zcaron" unicode="&#x17d;" horiz-adv-x="1303" 
d="M717 1575h-172l-222 294h170l139 -170l136 170h170zM332 170h870v-170h-1106v159l849 1146h-829v170h1066v-160z" />
    <glyph glyph-name="zcaron" unicode="&#x17e;" horiz-adv-x="1031" 
d="M598 1213h-172l-223 295h171l139 -170l135 170h171zM315 154h611v-154h-830v141l590 773h-561v154h781v-143z" />
    <glyph glyph-name="longs" unicode="&#x17f;" horiz-adv-x="681" 
d="M525 1500q73 0 147 -24l-45 -145q-45 12 -88 12q-83 0 -114 -47t-31 -154v-1142h-174v914h-158v154h158v117q0 154 85.5 234.5t219.5 80.5z" />
    <glyph glyph-name="uni018F" unicode="&#x18f;" horiz-adv-x="1557" 
d="M749 1494q209 0 366.5 -94t242.5 -266t85 -400q0 -346 -186 -555.5t-483 -209.5q-293 0 -475.5 209t-182.5 549v60h1134q-13 247 -144 390.5t-360 143.5q-284 0 -431 -245l-148 105q88 150 239.5 231.5t342.5 81.5zM777 143q186 0 313 126.5t154 351.5h-932
q25 -222 151.5 -350t313.5 -128z" />
    <glyph glyph-name="florin" unicode="&#x192;" horiz-adv-x="941" 
d="M778 1292q-83 0 -123.5 -48t-53.5 -160l-28 -236h213v-150h-229l-48 -412q-17 -145 -106.5 -229t-226.5 -84q-78 0 -152 27l48 147q52 -15 92 -15q83 0 123 47t53 160l42 359h-185v150h201l34 288q17 147 106 230.5t227 83.5q75 0 153 -25l-57 -145q-39 12 -83 12z" />
    <glyph glyph-name="uni01F4" unicode="&#x1f4;" horiz-adv-x="1524" 
d="M1036 1869l-190 -293h-156l156 293h190zM798 774h580v-774h-168v162q-65 -96 -172.5 -144t-242.5 -48q-204 0 -358.5 95.5t-237.5 269t-83 402.5t84 402.5t241.5 269t366.5 95.5q169 0 308 -72t237 -215l-149 -100q-72 110 -168.5 161t-228.5 51q-222 0 -361.5 -161
t-139.5 -431q0 -271 138 -432t362 -161q179 0 291.5 104t113.5 294v68h-413v164z" />
    <glyph glyph-name="uni01F5" unicode="&#x1f5;" horiz-adv-x="1248" 
d="M834 1511l-191 -292h-156l156 292h191zM906 1068h173v-970q0 -222 -135.5 -352.5t-374.5 -130.5q-269 0 -446 200l117 115q128 -158 334 -158q157 0 244 89.5t87 229.5v80q-113 -160 -326 -160q-215 0 -349.5 148.5t-134.5 393.5t134.5 393.5t348.5 148.5q219 0 328 -162
v135zM595 172q137 0 226.5 97.5t89.5 283.5t-89.5 283.5t-226.5 97.5q-142 0 -230.5 -103t-88.5 -278t88.5 -278t230.5 -103z" />
    <glyph glyph-name="Aringacute" unicode="&#x1fa;" horiz-adv-x="1466" 
d="M956 2169l-190 -293h-156l157 293h189zM1201 0l-153 408h-632l-154 -408h-197l545 1420q-47 30 -73.5 79.5t-26.5 109.5q0 95 63.5 158t160.5 63q96 0 159 -63t63 -158q0 -61 -27 -110.5t-73 -79.5l546 -1419h-201zM734 1715q-45 0 -73 -29t-28 -77q0 -49 28 -78.5
t73 -29.5q44 0 72 30.5t28 77.5q0 48 -28 77t-72 29zM478 574h506l-253 671z" />
    <glyph glyph-name="aringacute" unicode="&#x1fb;" horiz-adv-x="1130" 
d="M806 1968l-191 -293h-155l156 293h190zM560 1182q-97 0 -160.5 63t-63.5 159t63.5 159t160.5 63q96 0 159 -63t63 -159t-63 -159t-159 -63zM560 1510q-45 0 -73 -29t-28 -77q0 -49 28 -78.5t73 -29.5q43 0 71 30.5t28 77.5q0 48 -27.5 77t-71.5 29zM550 1094
q191 0 306.5 -107t115.5 -317v-670h-173v133q-38 -66 -123 -112.5t-211 -46.5q-163 0 -266 89.5t-103 242.5q0 179 137 260t395 81h170v10q0 141 -65.5 211t-186.5 70q-175 0 -279 -151l-125 102q144 205 408 205zM798 401v102h-126q-75 0 -131.5 -4.5t-109.5 -17.5
t-86.5 -34.5t-53.5 -56.5t-20 -83q0 -87 57.5 -135t157.5 -48q72 0 133.5 27.5t99 69.5t58.5 89.5t21 90.5z" />
    <glyph glyph-name="AEacute" unicode="&#x1fc;" horiz-adv-x="2154" 
d="M1694 1869l-191 -293h-155l155 293h191zM1261 171h783v-171h-969v408h-558l-253 -408h-218l928 1475h1061v-171h-774v-468h702v-168h-702v-497zM623 577h452v728z" />
    <glyph glyph-name="aeacute" unicode="&#x1fd;" horiz-adv-x="1803" 
d="M1138 1511l-191 -292h-155l155 292h191zM1712 517v-41h-749q12 -163 90 -254t224 -91q158 0 263 158l137 -92q-61 -104 -168.5 -164t-224.5 -60q-282 0 -410 212q-128 -212 -400 -212q-104 0 -188.5 36t-137 111t-52.5 177q0 321 506 321h182v40q0 142 -63.5 211
t-180.5 69q-81 0 -153.5 -37.5t-120.5 -107.5l-125 100q65 98 169.5 149.5t232.5 51.5q256 0 352 -186q122 187 357 187q202 0 331 -158.5t129 -419.5zM965 618h562q-18 148 -95.5 233.5t-181.5 85.5q-114 0 -189.5 -83.5t-95.5 -235.5zM784 398v78h-161
q-186 0 -269.5 -42.5t-83.5 -137.5q0 -85 61.5 -129t160.5 -44q68 0 125.5 27t92.5 69.5t54.5 89t19.5 89.5z" />
    <glyph glyph-name="Oslashacute" unicode="&#x1fe;" horiz-adv-x="1603" 
d="M1041 1869l-190 -293h-156l156 293h190zM1325 1269q164 -206 164 -532q0 -348 -185.5 -557.5t-501.5 -209.5q-231 0 -399 118l-146 -188l-132 106l155 199q-164 208 -164 532q0 348 185 557.5t501 209.5q231 0 399 -118l148 189l132 -107zM802 1329q-224 0 -360 -160
t-136 -432q0 -228 97 -380l688 880q-121 92 -289 92zM802 145q225 0 360 159.5t135 432.5q0 227 -97 380l-686 -880q122 -92 288 -92z" />
    <glyph glyph-name="oslashacute" unicode="&#x1ff;" horiz-adv-x="1214" 
d="M838 1511l-191 -292h-155l155 292h191zM1001 915q119 -149 119 -380q0 -254 -141.5 -408t-369.5 -154q-158 0 -281 78l-111 -141l-117 92l117 151q-119 149 -119 382q0 254 141 407.5t370 153.5q161 0 283 -80l108 139l118 -91zM609 934q-150 0 -240 -108t-90 -291
q0 -141 55 -240l457 585q-77 54 -182 54zM609 135q150 0 240.5 109t90.5 291q0 140 -54 237l-457 -584q76 -53 180 -53z" />
    <glyph glyph-name="uni0218" unicode="&#x218;" horiz-adv-x="1347" 
d="M709 840q52 -10 84.5 -17t82.5 -19.5t82 -25t74.5 -32.5t69.5 -42t56 -53t45.5 -67t27 -83t10.5 -101q0 -194 -150.5 -311.5t-399.5 -117.5q-205 0 -359 84t-236 242l154 91q122 -247 442 -247q162 0 260.5 70t98.5 185q0 39 -12 72t-30 57t-50.5 44.5t-61 34t-75 26.5
t-80 20.5t-87.5 18.5q-51 10 -82.5 16.5t-80 19t-79.5 24t-71.5 30.5t-66.5 39.5t-53.5 50t-43.5 63t-26 77t-10 94.5q0 189 146.5 304t390.5 115q190 0 336 -78.5t219 -221.5l-154 -86q-49 102 -156 159t-246 57q-156 0 -251 -68.5t-95 -176.5q0 -36 11.5 -65.5t27.5 -51
t48 -40.5t57.5 -30.5t72 -23.5t76.5 -18.5t84 -17.5zM584 -261v179h212v-184q0 -60 -34 -102.5t-102 -78.5l-54 75q51 27 70 51t19 60h-111z" />
    <glyph glyph-name="uni0219" unicode="&#x219;" horiz-adv-x="1052" 
d="M572 620q49 -9 81.5 -15.5t77.5 -20t74.5 -28.5t62.5 -39.5t52 -54t31.5 -71.5t12.5 -93q0 -152 -114 -239t-306 -87q-167 0 -284 63.5t-184 172.5l137 95q107 -170 333 -170q109 0 174 43.5t65 117.5q0 28 -9 50.5t-29.5 38.5t-41 27t-58 20.5t-63.5 15t-74 13.5
q-82 14 -143 33.5t-119.5 55.5t-90 96t-31.5 141q0 147 111 229t293 82q268 0 410 -201l-135 -96q-98 137 -275 137q-100 0 -163.5 -37.5t-63.5 -106.5q0 -33 14.5 -59t37 -43t60 -31t72.5 -22t85 -17zM439 -261v179h212v-184q0 -60 -33.5 -103t-101.5 -78l-54 75
q51 27 70 50.5t19 60.5h-112z" />
    <glyph glyph-name="uni021A" unicode="&#x21a;" horiz-adv-x="1244" 
d="M1196 1475v-171h-481v-1304h-186v1304h-481v171h1148zM516 -261v179h212v-184q0 -60 -33.5 -103t-101.5 -78l-54 75q51 27 70 51t19 60h-112z" />
    <glyph glyph-name="uni021B" unicode="&#x21b;" horiz-adv-x="753" 
d="M677 8q-94 -34 -178 -34q-136 0 -208 62.5t-72 206.5v671h-157v154h157v288h174v-288h267v-154h-267v-632q0 -87 26.5 -119.5t97.5 -32.5q51 0 120 24zM350 -261v179h212v-184q0 -60 -33.5 -103t-101.5 -78l-54 75q51 27 70 51t19 60h-112z" />
    <glyph glyph-name="uni0237" unicode="&#x237;" horiz-adv-x="510" 
d="M80 -378q-68 0 -146 26l40 147q53 -15 89 -15q58 0 82 33t24 118v1137h174v-1181q0 -265 -263 -265z" />
    <glyph glyph-name="uni0259" unicode="&#x259;" horiz-adv-x="1180" 
d="M556 1095q243 0 386 -152.5t143 -403.5q0 -255 -138.5 -410.5t-359.5 -155.5q-222 0 -359.5 156.5t-137.5 413.5v48h812q-12 162 -98 254t-243 92q-91 0 -162.5 -34.5t-131.5 -122.5l-138 89q68 105 178.5 165.5t248.5 60.5zM588 130q122 0 205 82.5t105 230.5h-622
q23 -147 106.5 -230t205.5 -83z" />
    <glyph glyph-name="h.sups" unicode="&#x2b0;" horiz-adv-x="786" 
d="M464 1491q102 0 167.5 -61.5t65.5 -176.5v-476h-148v440q0 72 -35.5 109t-98.5 37q-76 0 -122.5 -52.5t-46.5 -121.5v-412h-149v959h149v-343q74 98 218 98z" />
    <glyph glyph-name="j.sups" unicode="&#x2b2;" horiz-adv-x="329" 
d="M86 1591v145h158v-145h-158zM36 531q-51 0 -109 18l30 119q37 -9 61 -9q39 0 56 22t17 74v720h149v-743q0 -104 -49 -152.5t-155 -48.5z" />
    <glyph glyph-name="r.sups" unicode="&#x2b3;" horiz-adv-x="540" 
d="M445 1489q39 0 79 -10l-27 -133q-29 6 -66 6q-82 0 -133.5 -63t-51.5 -157v-355h-149v698h146v-102q29 49 80.5 82.5t121.5 33.5z" />
    <glyph glyph-name="w.sups" unicode="&#x2b7;" horiz-adv-x="1119" 
d="M937 1475h154l-209 -698h-150l-171 530l-171 -530h-150l-211 698h155l142 -513l161 513h147l163 -513z" />
    <glyph glyph-name="y.sups" unicode="&#x2b8;" horiz-adv-x="711" 
d="M534 1475h158l-310 -800q-32 -82 -78.5 -114.5t-114.5 -32.5q-62 0 -122 19l35 118q50 -13 67 -13q28 0 45 12.5t29 42.5l46 111l-270 657h153l186 -493z" />
    <glyph glyph-name="circumflex" unicode="&#x2c6;" horiz-adv-x="614" 
d="M586 1213h-171l-135 171l-140 -171h-171l224 295h172z" />
    <glyph glyph-name="caron" unicode="&#x2c7;" horiz-adv-x="614" 
d="M415 1508h171l-221 -295h-172l-224 295h171l140 -170z" />
    <glyph glyph-name="uni02C9" unicode="&#x2c9;" horiz-adv-x="619" 
d="M22 1275v136h571v-136h-571z" />
    <glyph glyph-name="breve" unicode="&#x2d8;" horiz-adv-x="637" 
d="M288 1203q-127 0 -209 83t-90 222h139q9 -84 53 -134t107 -50t106 50t52 134h140q-8 -139 -90 -222t-208 -83z" />
    <glyph glyph-name="dotaccent" unicode="&#x2d9;" horiz-adv-x="614" 
d="M168 1276v199h193v-199h-193z" />
    <glyph glyph-name="ring" unicode="&#x2da;" horiz-adv-x="614" 
d="M299 1182q-97 0 -160 63t-63 159t63 159t160 63q96 0 159 -63t63 -159t-63 -159t-159 -63zM299 1296q43 0 71 30.5t28 77.5q0 48 -27.5 77t-71.5 29q-45 0 -72.5 -29t-27.5 -77q0 -49 27.5 -78.5t72.5 -29.5z" />
    <glyph glyph-name="ogonek" unicode="&#x2db;" horiz-adv-x="614" 
d="M248 -426q-109 0 -176 56t-67 147q0 147 236 257l106 -25q-90 -42 -144.5 -99t-54.5 -110q0 -42 29.5 -68.5t75.5 -26.5q43 0 88 33l65 -111q-82 -53 -158 -53z" />
    <glyph glyph-name="tilde" unicode="&#x2dc;" horiz-adv-x="658" 
d="M476 1245q-67 0 -155 53q-70 39 -104 39q-29 0 -55 -20t-65 -73l-107 86q58 80 112 117.5t116 37.5q71 0 156 -52q63 -40 102 -40q34 0 60 22.5t63 70.5l108 -86q-58 -80 -113 -117.5t-118 -37.5z" />
    <glyph glyph-name="hungarumlaut" unicode="&#x2dd;" horiz-adv-x="681" 
d="M10 1219l156 292h190l-190 -292h-156zM329 1219l156 292h190l-191 -292h-155z" />
    <glyph glyph-name="l.sups" unicode="&#x2e1;" horiz-adv-x="343" 
d="M97 777v959h149v-959h-149z" />
    <glyph glyph-name="s.sups" unicode="&#x2e2;" horiz-adv-x="698" 
d="M359 759q-205 0 -313 148l100 81q76 -104 215 -104q64 0 101.5 24.5t37.5 66.5q0 44 -39.5 63.5t-131.5 30.5q-252 33 -252 216q0 97 75.5 152.5t203.5 55.5q184 0 279 -125l-98 -78q-66 79 -182 79q-59 0 -95 -20.5t-36 -58.5q0 -42 39 -62.5t127 -32.5
q257 -34 257 -212q0 -106 -80 -165t-208 -59z" />
    <glyph glyph-name="x.sups" unicode="&#x2e3;" horiz-adv-x="728" 
d="M695 777h-167l-163 254l-164 -254h-168l242 363l-227 335h167l150 -235l148 235h167l-227 -335z" />
    <glyph glyph-name="gravecomb" unicode="&#x300;" horiz-adv-x="0" 
d="M-590 1219l-190 292h189l157 -292h-156z" />
    <glyph glyph-name="acutecomb" unicode="&#x301;" horiz-adv-x="0" 
d="M-780 1219l155 292h191l-191 -292h-155z" />
    <glyph glyph-name="uni0302" unicode="&#x302;" horiz-adv-x="0" 
d="M-300 1213h-170l-136 171l-139 -171h-170l222 295h172z" />
    <glyph glyph-name="tildecomb" unicode="&#x303;" horiz-adv-x="0" 
d="M-479 1245q-70 0 -156 53q-70 39 -103 39q-29 0 -55 -20t-65 -73l-108 86q58 80 112.5 117.5t115.5 37.5q69 0 156 -52q63 -40 103 -40q34 0 60 22.5t62 70.5l107 -86q-58 -80 -112.5 -117.5t-116.5 -37.5z" />
    <glyph glyph-name="uni0304" unicode="&#x304;" horiz-adv-x="0" 
d="M-893 1275v136h570v-136h-570z" />
    <glyph glyph-name="uni0306" unicode="&#x306;" horiz-adv-x="0" 
d="M-607 1203q-126 0 -208.5 83t-90.5 222h139q9 -84 53 -134t107 -50t107 50t53 134h139q-8 -139 -90 -222t-209 -83z" />
    <glyph glyph-name="uni0307" unicode="&#x307;" horiz-adv-x="0" 
d="M-703 1276v199h192v-199h-192z" />
    <glyph glyph-name="uni0308" unicode="&#x308;" horiz-adv-x="0" 
d="M-889 1284v191h192v-191h-192zM-517 1284v191h191v-191h-191z" />
    <glyph glyph-name="uni030A" unicode="&#x30a;" horiz-adv-x="0" 
d="M-607 1182q-97 0 -160 63t-63 159t63 159t160 63q96 0 159 -63t63 -159t-63 -159t-159 -63zM-607 1296q43 0 71 30.5t28 77.5q0 48 -27.5 77t-71.5 29q-45 0 -73 -29t-28 -77q0 -49 28 -78.5t73 -29.5z" />
    <glyph glyph-name="uni030B" unicode="&#x30b;" horiz-adv-x="0" 
d="M-940 1219l157 292h189l-190 -292h-156zM-621 1219l156 292h191l-191 -292h-156z" />
    <glyph glyph-name="uni030C" unicode="&#x30c;" horiz-adv-x="0" 
d="M-470 1508h170l-221 -295h-172l-222 295h170l139 -170z" />
    <glyph glyph-name="uni0312" unicode="&#x312;" horiz-adv-x="0" 
d="M-625 1388h112v-180h-212v185q0 60 33.5 103t101.5 78l54 -76q-51 -27 -70 -50.5t-19 -59.5z" />
    <glyph glyph-name="uni0313" unicode="&#x313;" horiz-adv-x="0" 
d="M-275 1475h225v-249q0 -114 -32.5 -180.5t-106.5 -122.5l-76 85q64 43 83.5 94t19.5 134h-113v239z" />
    <glyph glyph-name="dotbelowcomb" unicode="&#x323;" horiz-adv-x="0" 
d="M-703 -280v199h192v-199h-192z" />
    <glyph glyph-name="uni0324" unicode="&#x324;" horiz-adv-x="0" 
d="M-889 -270v190h192v-190h-192zM-517 -270v190h191v-190h-191z" />
    <glyph glyph-name="uni0325" unicode="&#x325;" horiz-adv-x="0" 
d="M-607 -525q-97 0 -160 63t-63 159q0 95 63 158t160 63q96 0 159 -63t63 -158q0 -96 -63 -159t-159 -63zM-607 -411q43 0 71 30.5t28 77.5q0 48 -27.5 77t-71.5 29q-45 0 -73 -29t-28 -77q0 -49 28 -78.5t73 -29.5z" />
    <glyph glyph-name="uni0326" unicode="&#x326;" horiz-adv-x="0" 
d="M-366 -82h212v-184q0 -60 -33.5 -103t-101.5 -78l-54 75q51 27 70 51t19 60h-112v179z" />
    <glyph glyph-name="uni0327" unicode="&#x327;" horiz-adv-x="0" 
d="M-736 -328l104 330h154l-105 -330h-153z" />
    <glyph glyph-name="uni0328" unicode="&#x328;" horiz-adv-x="0" 
d="M-564 -426q-110 0 -177 56t-67 147q0 147 236 257l106 -25q-90 -42 -144.5 -99.5t-54.5 -109.5q0 -42 29.5 -68.5t75.5 -26.5q43 0 88 33l64 -111q-82 -53 -156 -53z" />
    <glyph glyph-name="uni032E" unicode="&#x32e;" horiz-adv-x="0" 
d="M-607 -386q-126 0 -208.5 83t-90.5 221h139q9 -83 53 -133t107 -50t107 50t53 133h139q-8 -138 -90 -221t-209 -83z" />
    <glyph glyph-name="uni0331" unicode="&#x331;" horiz-adv-x="0" 
d="M-893 -216v135h570v-135h-570z" />
    <glyph glyph-name="uni0394" unicode="&#x394;" horiz-adv-x="1403" 
d="M805 1475l509 -1323v-152h-1224v152l510 1323h205zM295 171h814l-407 1073z" />
    <glyph glyph-name="uni03A9" unicode="&#x3a9;" horiz-adv-x="1609" 
d="M77 0v171h282q-241 187 -241 575q0 343 185.5 550.5t501.5 207.5t501.5 -207.5t185.5 -550.5q0 -387 -242 -575h283v-171h-569v160q163 70 249.5 220t86.5 359q0 268 -135.5 427t-359.5 159t-360 -159t-136 -427q0 -209 86.5 -359t250.5 -220v-160h-569z" />
    <glyph glyph-name="uni03BC" unicode="&#x3bc;" horiz-adv-x="1213" 
d="M871 1068h175v-1068h-175v134q-34 -58 -121.5 -109t-221.5 -51q-117 0 -185 56v-429h-174v1467h174v-691q0 -118 59.5 -182.5t161.5 -64.5q135 0 221 93.5t86 212.5v632z" />
    <glyph glyph-name="pi" unicode="&#x3c0;" horiz-adv-x="1280" 
d="M1218 915h-179v-706q0 -37 12 -54.5t43 -17.5q35 0 82 20l37 -142q-79 -30 -142 -30q-93 0 -149.5 47.5t-56.5 144.5v738h-449v-915h-174v915h-180v153h1156v-153z" />
    <glyph glyph-name="uni0E3F" unicode="&#xe3f;" horiz-adv-x="1382" 
d="M1027 734q113 -42 171 -129t58 -210q0 -185 -110.5 -290t-308.5 -105h-77v-175h-166v175h-388v1423h388v175h166v-175h41q198 0 309.5 -98.5t111.5 -270.5q0 -108 -50 -190.5t-145 -129.5zM385 1263v-462h209v462h-209zM788 1263h-28v-462h19q117 0 186 62.5t69 167.5
t-67 168.5t-179 63.5zM385 160h209v490h-209v-490zM824 160q112 0 179.5 68t67.5 179q0 110 -69.5 176.5t-184.5 66.5h-57v-490h64z" />
    <glyph glyph-name="a.sups" unicode="&#x1d43;" horiz-adv-x="738" 
d="M359 1489q135 0 212.5 -70t77.5 -207v-435h-142v74q-30 -40 -83.5 -64.5t-120.5 -24.5q-110 0 -178 58t-68 156q0 111 83 167t242 56h121v12q0 76 -40.5 114.5t-112.5 38.5q-102 0 -170 -82l-90 88q95 119 269 119zM504 1031v55h-102q-102 0 -151.5 -22t-49.5 -84
q0 -51 33 -78.5t93 -27.5q76 0 126.5 49t50.5 108z" />
    <glyph glyph-name="b.sups" unicode="&#x1d47;" horiz-adv-x="825" 
d="M469 1490q130 0 214.5 -101t84.5 -263q0 -163 -84.5 -263.5t-214.5 -100.5q-77 0 -136 31t-90 75v-91h-148v959h150v-351q32 44 90 74.5t134 30.5zM429 891q83 0 134.5 62.5t51.5 172.5q0 109 -51.5 172t-134.5 63t-135.5 -64t-52.5 -171t52.5 -171t135.5 -64z" />
    <glyph glyph-name="d.sups" unicode="&#x1d48;" horiz-adv-x="827" 
d="M582 1736h148v-959h-147v89q-32 -43 -91 -73.5t-135 -30.5q-131 0 -215.5 100.5t-84.5 263.5q0 162 84.5 263.5t215.5 101.5q76 0 134.5 -30.5t90.5 -74.5v350zM396 893q84 0 136.5 63t52.5 170t-52.5 170.5t-136.5 63.5q-83 0 -134 -62.5t-51 -171.5q0 -110 51 -171.5
t134 -61.5z" />
    <glyph glyph-name="e.sups" unicode="&#x1d49;" horiz-adv-x="774" 
d="M207 1081q9 -92 60 -144.5t142 -52.5q119 0 184 98l102 -78q-49 -70 -125 -106t-162 -36q-160 0 -255.5 98t-95.5 261q0 167 92 268t241 101q148 0 239.5 -104.5t91.5 -276.5v-28h-514zM389 1369q-70 0 -118.5 -47t-61.5 -135h360q-13 87 -60.5 134.5t-119.5 47.5z" />
    <glyph glyph-name="g.sups" unicode="&#x1d4d;" horiz-adv-x="824" 
d="M583 1475h144v-634q0 -146 -92.5 -229.5t-256.5 -83.5q-185 0 -304 117l85 98q89 -89 219 -89q97 0 149 52.5t52 133.5v52q-77 -101 -208 -101q-138 0 -226 97t-88 253q0 157 88 253.5t226 96.5q136 0 212 -105v89zM396 922q84 0 136.5 57.5t52.5 161.5t-53 161.5
t-136 57.5q-84 0 -134.5 -59t-50.5 -160t50.5 -160t134.5 -59z" />
    <glyph glyph-name="k.sups" unicode="&#x1d4f;" horiz-adv-x="744" 
d="M548 777l-203 306l-99 -112v-194h-149v959h149v-575l273 314h175l-254 -285l275 -413h-167z" />
    <glyph glyph-name="m.sups" unicode="&#x1d50;" horiz-adv-x="1173" 
d="M864 1491q98 0 159.5 -59.5t61.5 -171.5v-483h-149v443q0 70 -30.5 106.5t-87.5 36.5q-69 0 -110.5 -52.5t-41.5 -128.5v-405h-150v443q0 70 -30.5 106.5t-87.5 36.5q-69 0 -110.5 -52.5t-41.5 -128.5v-405h-149v698h146v-89q67 105 204 105q68 0 119.5 -30t77.5 -88
q31 48 86.5 83t133.5 35z" />
    <glyph glyph-name="o.sups" unicode="&#x1d52;" horiz-adv-x="804" 
d="M402 762q-153 0 -249 99.5t-96 264.5t96 265t249 100t249.5 -100t96.5 -265t-96.5 -264.5t-249.5 -99.5zM402 893q86 0 139 62.5t53 170.5t-53 171t-139 63t-138.5 -63t-52.5 -171t52.5 -170.5t138.5 -62.5z" />
    <glyph glyph-name="p.sups" unicode="&#x1d56;" horiz-adv-x="827" 
d="M470 1491q131 0 215.5 -101.5t84.5 -263.5t-84.5 -263t-215.5 -101q-76 0 -134 30.5t-90 74.5v-323h-149v931h148v-90q32 44 90.5 75t134.5 31zM431 893q83 0 134 61.5t51 171.5q0 109 -51 171.5t-134 62.5q-84 0 -136 -63.5t-52 -170.5t52 -170t136 -63z" />
    <glyph glyph-name="t.sups" unicode="&#x1d57;" horiz-adv-x="578" 
d="M479 901l31 -116q-62 -23 -135 -23q-202 0 -202 194v394h-106v125h106v192h149v-192h171v-125h-171v-356q0 -58 18 -81t63 -23q33 0 76 11z" />
    <glyph glyph-name="u.sups" unicode="&#x1d58;" horiz-adv-x="786" 
d="M541 1475h148v-698h-145v86q-31 -42 -86.5 -71.5t-133.5 -29.5q-103 0 -169 61t-66 175v477h149v-440q0 -71 35.5 -108t98.5 -37q76 0 122.5 52t46.5 121v412z" />
    <glyph glyph-name="v.sups" unicode="&#x1d5b;" horiz-adv-x="726" 
d="M549 1475h158l-270 -698h-150l-268 698h159l184 -527z" />
    <glyph glyph-name="c.sups" unicode="&#x1d9c;" horiz-adv-x="742" 
d="M400 762q-155 0 -249 99t-94 264t93.5 265t247.5 100q200 0 291 -169l-125 -64q-57 102 -162 102q-89 0 -140 -63.5t-51 -169.5q0 -108 52 -170.5t139 -62.5q108 0 162 108l126 -59q-51 -100 -124 -140t-166 -40z" />
    <glyph glyph-name="f.sups" unicode="&#x1da0;" horiz-adv-x="519" 
d="M319 1518v-43h173v-124h-173v-574h-149v574h-103v124h103v63q0 103 61 158.5t161 55.5q60 0 112 -17l-27 -112q-35 8 -64 8q-49 0 -71.5 -26.5t-22.5 -86.5z" />
    <glyph glyph-name="z.sups" unicode="&#x1dbb;" horiz-adv-x="657" 
d="M48 777v116l367 457h-350v125h532v-116l-367 -457h379v-125h-561z" />
    <glyph glyph-name="Wgrave" unicode="&#x1e80;" horiz-adv-x="2094" 
d="M1154 1576h-156l-190 293h189zM1823 1475h196l-448 -1475h-191l-331 1191l-332 -1191h-193l-449 1475h200l348 -1189l334 1189h183l336 -1189z" />
    <glyph glyph-name="wgrave" unicode="&#x1e81;" horiz-adv-x="1679" 
d="M958 1219h-156l-191 292h191zM1448 1068h193l-336 -1068h-186l-278 855l-280 -855h-186l-337 1068h194l242 -847l274 847h185l272 -846z" />
    <glyph glyph-name="Wacute" unicode="&#x1e82;" horiz-adv-x="2094" 
d="M1287 1869l-191 -293h-156l157 293h190zM1823 1475h196l-448 -1475h-191l-331 1191l-332 -1191h-193l-449 1475h200l348 -1189l334 1189h183l336 -1189z" />
    <glyph glyph-name="wacute" unicode="&#x1e83;" horiz-adv-x="1679" 
d="M1068 1511l-190 -292h-156l157 292h189zM1448 1068h193l-336 -1068h-186l-278 855l-280 -855h-186l-337 1068h194l242 -847l274 847h185l272 -846z" />
    <glyph glyph-name="Wdieresis" unicode="&#x1e84;" horiz-adv-x="2094" 
d="M939 1815v-194h-195v194h195zM1350 1815v-194h-194v194h194zM1823 1475h196l-448 -1475h-191l-331 1191l-332 -1191h-193l-449 1475h200l348 -1189l334 1189h183l336 -1189z" />
    <glyph glyph-name="wdieresis" unicode="&#x1e85;" horiz-adv-x="1679" 
d="M750 1475v-191h-192v191h192zM1121 1475v-191h-190v191h190zM1448 1068h193l-336 -1068h-186l-278 855l-280 -855h-186l-337 1068h194l242 -847l274 847h185l272 -846z" />
    <glyph glyph-name="uni1E9E" unicode="&#x1e9e;" horiz-adv-x="1433" 
d="M874 894q186 -5 305 -130.5t119 -333.5q0 -204 -126.5 -329.5t-333.5 -125.5q-131 0 -245 31l39 165q122 -30 191 -30q129 0 207 81t78 213q0 133 -76.5 214.5t-200.5 81.5q-29 0 -66 -10l-117 149l352 435h-350q-154 0 -222.5 -83.5t-68.5 -257.5v-964h-186v985
q0 233 117.5 361.5t338.5 128.5h602v-155z" />
    <glyph glyph-name="Ygrave" unicode="&#x1ef2;" horiz-adv-x="1265" 
d="M739 1576h-155l-191 293h191zM1026 1475h199l-499 -871v-604h-185v604l-499 871h201l392 -702z" />
    <glyph glyph-name="ygrave" unicode="&#x1ef3;" horiz-adv-x="1062" 
d="M657 1219h-155l-191 292h191zM842 1068h196l-495 -1258q-41 -106 -100.5 -150.5t-151.5 -44.5q-75 0 -160 24l42 145q64 -16 99 -16q45 0 68.5 19t43.5 73l65 174l-425 1034h194l322 -829z" />
    <glyph glyph-name="uni2007" unicode="&#x2007;" horiz-adv-x="614" 
 />
    <glyph glyph-name="thinspace" unicode="&#x2009;" horiz-adv-x="232" 
 />
    <glyph glyph-name="uni2011" unicode="&#x2011;" horiz-adv-x="826" 
d="M144 498v155h539v-155h-539z" />
    <glyph glyph-name="endash" unicode="&#x2013;" horiz-adv-x="1184" 
d="M144 498v155h896v-155h-896z" />
    <glyph glyph-name="emdash" unicode="&#x2014;" horiz-adv-x="2002" 
d="M144 498v155h1715v-155h-1715z" />
    <glyph glyph-name="quoteleft" unicode="&#x2018;" horiz-adv-x="531" 
d="M265 1191h114v-239h-225v249q0 113 32.5 179.5t106.5 123.5l76 -85q-64 -43 -84 -94.5t-20 -133.5z" />
    <glyph glyph-name="quoteright" unicode="&#x2019;" horiz-adv-x="531" 
d="M154 1475h225v-249q0 -114 -32.5 -180.5t-106.5 -122.5l-76 85q64 43 83.5 94t19.5 134h-113v239z" />
    <glyph glyph-name="quotesinglbase" unicode="&#x201a;" horiz-adv-x="531" 
d="M154 239h225v-249q0 -114 -32.5 -180.5t-106.5 -122.5l-76 85q64 43 83.5 94t19.5 134h-113v239z" />
    <glyph glyph-name="quotedblleft" unicode="&#x201c;" horiz-adv-x="899" 
d="M369 1421q-64 -43 -84 -94.5t-20 -133.5h114v-239h-225v249q0 114 32.5 180.5t106.5 122.5zM633 1193h113v-239h-225v249q0 114 32.5 180.5t106.5 122.5l76 -85q-64 -43 -83.5 -94t-19.5 -134z" />
    <glyph glyph-name="quotedblright" unicode="&#x201d;" horiz-adv-x="899" 
d="M154 1236v239h225v-249q0 -114 -32.5 -180.5t-106.5 -122.5l-76 85q64 43 83.5 94t19.5 134h-113zM521 1475h225v-249q0 -114 -32.5 -180.5t-106.5 -122.5l-76 85q64 43 84 94.5t20 133.5h-114v239z" />
    <glyph glyph-name="quotedblbase" unicode="&#x201e;" horiz-adv-x="899" 
d="M154 0v239h225v-249q0 -114 -32.5 -180.5t-106.5 -122.5l-76 85q64 43 83.5 94t19.5 134h-113zM521 239h225v-249q0 -114 -32.5 -180.5t-106.5 -122.5l-76 85q64 43 84 94.5t20 133.5h-114v239z" />
    <glyph glyph-name="dagger" unicode="&#x2020;" horiz-adv-x="702" 
d="M643 1253v-143h-209v-593h-165v593h-210v143h210v222h165v-222h209z" />
    <glyph glyph-name="daggerdbl" unicode="&#x2021;" horiz-adv-x="702" 
d="M643 1112h-209v-233h209v-144h-209v-218h-165v218h-210v144h210v233h-210v144h210v219h165v-219h209v-144z" />
    <glyph glyph-name="bullet" unicode="&#x2022;" horiz-adv-x="713" 
d="M356 416q-82 0 -140 58t-58 140t58 140.5t140 58.5t140.5 -58.5t58.5 -140.5t-58.5 -140t-140.5 -58z" />
    <glyph glyph-name="ellipsis" unicode="&#x2026;" horiz-adv-x="1481" 
d="M154 0v239h225v-239h-225zM629 0v239h225v-239h-225zM1103 0v239h226v-239h-226z" />
    <glyph glyph-name="perthousand" unicode="&#x2030;" horiz-adv-x="2813" 
d="M486 684q-159 0 -258.5 105t-99.5 275t99 275t259 105q159 0 258.5 -105t99.5 -275t-99.5 -275t-258.5 -105zM453 0l909 1423h163l-910 -1423h-162zM486 825q92 0 148 66t56 173q0 108 -56 174t-148 66t-148 -66t-56 -174q0 -107 56 -173t148 -66zM1483 -20
q-159 0 -258.5 104.5t-99.5 274.5t99.5 275t258.5 105t258 -105t99 -275t-99 -274.5t-258 -104.5zM2328 -20q-159 0 -258.5 104.5t-99.5 274.5t99.5 275t258.5 105t258 -105t99 -275t-99 -274.5t-258 -104.5zM1483 120q92 0 148.5 65.5t56.5 173.5q0 107 -56.5 173.5
t-148.5 66.5t-148.5 -66.5t-56.5 -173.5q0 -108 56.5 -173.5t148.5 -65.5zM2328 120q92 0 148 65.5t56 173.5t-56 174t-148 66t-148.5 -66.5t-56.5 -173.5q0 -108 56.5 -173.5t148.5 -65.5z" />
    <glyph glyph-name="minute" unicode="&#x2032;" horiz-adv-x="589" 
d="M154 927l104 548h178l-144 -548h-138z" />
    <glyph glyph-name="second" unicode="&#x2033;" horiz-adv-x="901" 
d="M154 927l104 548h178l-144 -548h-138zM464 927l105 548h179l-145 -548h-139z" />
    <glyph glyph-name="uni2034" unicode="&#x2034;" horiz-adv-x="1211" 
d="M154 927l104 548h178l-144 -548h-138zM464 927l105 548h179l-145 -548h-139zM775 927l106 548h178l-145 -548h-139z" />
    <glyph glyph-name="guilsinglleft" unicode="&#x2039;" horiz-adv-x="637" 
d="M408 181l-309 392l309 393l112 -92l-234 -301l234 -301z" />
    <glyph glyph-name="guilsinglright" unicode="&#x203a;" horiz-adv-x="637" 
d="M230 181l-112 91l234 301l-234 301l112 92l310 -393z" />
    <glyph glyph-name="fraction" unicode="&#x2044;" horiz-adv-x="382" 
d="M-360 0l942 1475h161l-942 -1475h-161z" />
    <glyph glyph-name="zero.sups" unicode="&#x2070;" horiz-adv-x="882" 
d="M442 761q-174 0 -269.5 130.5t-95.5 349.5t95.5 349t269.5 130t270 -130.5t96 -348.5q0 -219 -96 -349.5t-270 -130.5zM442 899q100 0 154 93.5t54 248.5q0 154 -54 247.5t-154 93.5q-101 0 -155 -93.5t-54 -247.5q0 -155 54 -248.5t155 -93.5z" />
    <glyph glyph-name="i.sups" unicode="&#x2071;" horiz-adv-x="329" 
d="M86 1591v145h158v-145h-158zM90 777v698h149v-698h-149z" />
    <glyph glyph-name="four.sups" unicode="&#x2074;" horiz-adv-x="806" 
d="M769 1106v-133h-130v-195h-153v195h-438v127l424 603h167v-597h130zM200 1106h286v417z" />
    <glyph glyph-name="five.sups" unicode="&#x2075;" horiz-adv-x="813" 
d="M438 1392q136 0 219 -85t83 -223q0 -146 -92 -234.5t-244 -88.5q-117 0 -205.5 53t-126.5 145l130 71q24 -63 76.5 -98t123.5 -35q81 0 131 52t50 136q0 82 -47.5 132t-125.5 50q-118 0 -172 -92h-137l63 528h529v-133h-407l-30 -245q78 67 182 67z" />
    <glyph glyph-name="six.sups" unicode="&#x2076;" horiz-adv-x="819" 
d="M446 1385q138 0 222.5 -84.5t84.5 -222.5q0 -142 -89 -228.5t-234 -86.5q-119 0 -198 58.5t-119 160.5q-36 90 -36 243q0 239 97.5 368t270.5 129q196 0 297 -164l-115 -80q-61 109 -176 109q-62 0 -107 -28.5t-69 -76.5t-35 -98.5t-13 -106.5q80 108 219 108zM429 893
q79 0 125.5 50.5t46.5 132.5q0 83 -46.5 134t-126.5 51q-84 0 -132 -54t-48 -131q0 -76 49.5 -129.5t131.5 -53.5z" />
    <glyph glyph-name="seven.sups" unicode="&#x2077;" horiz-adv-x="731" 
d="M48 1703h646v-127q-166 -191 -240.5 -375.5t-81.5 -422.5h-162q8 234 80 417.5t233 374.5h-475v133z" />
    <glyph glyph-name="eight.sups" unicode="&#x2078;" horiz-adv-x="835" 
d="M418 761q-158 0 -252 73.5t-94 196.5q0 164 176 223q-66 25 -107 81t-41 126q0 112 87.5 185.5t230.5 73.5t230 -73.5t87 -185.5q0 -70 -40.5 -126t-106.5 -81q176 -59 176 -223q0 -123 -94 -196.5t-252 -73.5zM418 1309q76 0 123.5 39.5t47.5 101.5q0 66 -47.5 107
t-123.5 41t-123.5 -41t-47.5 -107q0 -62 47.5 -101.5t123.5 -39.5zM418 886q88 0 140 42.5t52 113.5t-52 111t-140 40t-140.5 -40.5t-52.5 -110.5q0 -71 52.5 -113.5t140.5 -42.5z" />
    <glyph glyph-name="nine.sups" unicode="&#x2079;" horiz-adv-x="818" 
d="M703 1509q39 -95 39 -252q0 -241 -96.5 -370t-258.5 -129q-205 0 -309 173l112 81q63 -119 193 -119q93 0 149 81t60 233q-78 -103 -217 -103q-140 0 -224 84t-84 218q0 139 86 225.5t235 86.5q229 0 315 -209zM391 1228q84 0 132 52t48 128t-49 128t-131 52
q-79 0 -126.5 -49.5t-47.5 -130.5q0 -80 48 -130t126 -50z" />
    <glyph glyph-name="n.sups" unicode="&#x207f;" horiz-adv-x="786" 
d="M464 1491q102 0 167.5 -61.5t65.5 -176.5v-476h-148v440q0 72 -35.5 109t-98.5 37q-76 0 -122.5 -52.5t-46.5 -121.5v-412h-149v698h146v-86q73 102 221 102z" />
    <glyph glyph-name="zero.subs" unicode="&#x2080;" horiz-adv-x="882" 
d="M442 -254q-174 0 -269.5 130.5t-95.5 349.5t95.5 350t269.5 131t270 -131t96 -350t-96 -349.5t-270 -130.5zM442 -116q100 0 154 94t54 248t-54 248t-154 94q-101 0 -155 -94t-54 -248t54 -248t155 -94z" />
    <glyph glyph-name="one.subs" unicode="&#x2081;" horiz-adv-x="634" 
d="M484 688v-925h-152v735l-169 -151l-88 99l270 242h139z" />
    <glyph glyph-name="two.subs" unicode="&#x2082;" horiz-adv-x="779" 
d="M287 -103h421v-134h-639v124l316 308q91 88 122 135.5t31 107.5q0 59 -40 95.5t-110 36.5t-116.5 -45t-61.5 -126l-143 33q27 132 114 203t212 71q135 0 218 -73t83 -194q0 -82 -42.5 -156t-146.5 -175z" />
    <glyph glyph-name="three.subs" unicode="&#x2083;" horiz-adv-x="823" 
d="M588 239q71 -30 112 -87t41 -132q0 -125 -88.5 -200t-236.5 -75q-129 0 -220 59.5t-129 166.5l133 58q26 -72 80.5 -110.5t130.5 -38.5q78 0 125.5 42t47.5 111q0 64 -44.5 100t-119.5 36h-82v129h68q73 0 114.5 35t41.5 101q0 61 -41.5 98.5t-108.5 37.5q-73 0 -121 -39
t-68 -110l-137 39q31 117 117 181t212 64q136 0 220 -73t84 -190q0 -67 -34.5 -119.5t-96.5 -83.5z" />
    <glyph glyph-name="four.subs" unicode="&#x2084;" horiz-adv-x="806" 
d="M769 92v-133h-130v-196h-153v196h-438v127l424 602h167v-596h130zM200 92h286v416z" />
    <glyph glyph-name="five.subs" unicode="&#x2085;" horiz-adv-x="813" 
d="M438 377q136 0 219 -84t83 -222q0 -146 -92 -235.5t-244 -89.5q-117 0 -205.5 53.5t-126.5 146.5l130 70q24 -63 76.5 -98t123.5 -35q81 0 131 52t50 136q0 82 -47.5 131.5t-125.5 49.5q-118 0 -172 -92h-137l63 528h529v-133h-407l-30 -245q78 67 182 67z" />
    <glyph glyph-name="six.subs" unicode="&#x2086;" horiz-adv-x="819" 
d="M446 372q138 0 222.5 -85t84.5 -224q0 -142 -89 -228.5t-234 -86.5q-119 0 -198 58.5t-119 160.5q-36 90 -36 244q0 239 98 368t270 129q195 0 297 -164l-115 -80q-61 109 -176 109q-62 0 -107 -28.5t-69 -76.5t-35 -98.5t-13 -106.5q81 109 219 109zM429 -121
q79 0 125.5 50.5t46.5 132.5q0 83 -46.5 134t-126.5 51q-84 0 -132 -54t-48 -131q0 -76 49.5 -129.5t131.5 -53.5z" />
    <glyph glyph-name="seven.subs" unicode="&#x2087;" horiz-adv-x="731" 
d="M48 688h646v-127q-166 -191 -240.5 -375.5t-81.5 -422.5h-162q8 234 80 417.5t233 374.5h-475v133z" />
    <glyph glyph-name="eight.subs" unicode="&#x2088;" horiz-adv-x="835" 
d="M418 -254q-158 0 -252 73.5t-94 196.5q0 165 176 224q-66 25 -107 80.5t-41 125.5q0 112 87.5 186t230.5 74t230 -74t87 -186q0 -70 -40.5 -125.5t-106.5 -80.5q176 -59 176 -224q0 -123 -94 -196.5t-252 -73.5zM418 294q76 0 123.5 39.5t47.5 101.5q0 66 -47.5 107.5
t-123.5 41.5t-123.5 -41.5t-47.5 -107.5q0 -62 47.5 -101.5t123.5 -39.5zM418 -129q88 0 140 43t52 114q0 70 -52 110t-140 40t-140.5 -40t-52.5 -110q0 -71 52.5 -114t140.5 -43z" />
    <glyph glyph-name="nine.subs" unicode="&#x2089;" horiz-adv-x="818" 
d="M703 495q39 -94 39 -251q0 -241 -96.5 -371t-258.5 -130q-205 0 -309 174l112 80q64 -118 193 -118q92 0 148.5 81t60.5 233q-81 -104 -217 -104q-140 0 -224 84.5t-84 218.5q0 138 86 224.5t235 86.5q230 0 315 -208zM391 214q84 0 132 52t48 128t-49 127.5t-131 51.5
q-79 0 -126.5 -49t-47.5 -130t47.5 -130.5t126.5 -49.5z" />
    <glyph glyph-name="n.subs" unicode="&#x2099;" horiz-adv-x="786" 
d="M462 713q103 0 168.5 -61.5t65.5 -175.5v-476h-145v439q0 72 -36 110t-100 38q-78 0 -124.5 -52.5t-46.5 -122.5v-412h-147v696h144v-85q74 102 221 102z" />
    <glyph glyph-name="uni20A9" unicode="&#x20a9;" horiz-adv-x="2034" 
d="M1959 851h-210l-51 -180h261v-146h-303l-150 -525h-192l-136 525h-316l-136 -525h-195l-150 525h-306v146h264l-51 180h-213v145h171l-122 427h201l114 -427h378l112 427h181l112 -427h377l115 427h198l-122 -427h169v-145zM1020 1134l-36 -138h71zM779 851h-301l48 -180
h206zM900 671h240l-47 180h-147zM1561 851h-301l47 -180h205zM631 282l63 243h-129zM1474 525h-129l63 -243z" />
    <glyph glyph-name="Euro" unicode="&#x20ac;" horiz-adv-x="1486" 
d="M1228 353l153 -84q-163 -300 -510 -300q-241 0 -400 134t-213 371h-171v144h150q-4 60 -4 91t4 89h-150v145h171q55 239 213.5 375t392.5 136q351 0 512 -268l-147 -93q-113 194 -360 194q-154 0 -263 -90.5t-155 -253.5h519v-145h-545q-4 -39 -4 -88q0 -52 4 -92h545
v-144h-518q46 -160 155.5 -249.5t269.5 -89.5q244 0 351 218z" />
    <glyph glyph-name="uni20B8" unicode="&#x20b8;" horiz-adv-x="1244" 
d="M50 1475h1146v-162h-1146v162zM1196 1125v-171h-481v-954h-186v954h-481v171h1148z" />
    <glyph glyph-name="uni20B9" unicode="&#x20b9;" horiz-adv-x="1186" 
d="M1127 1279h-269q72 -83 90 -200h179v-144h-178q-22 -163 -134.5 -253.5t-294.5 -90.5h-160l617 -591h-237l-619 591v158h381q102 0 170 49t88 137h-639v144h638q-20 88 -87.5 137.5t-169.5 49.5h-381v157h1006v-144z" />
    <glyph glyph-name="uni20BA" unicode="&#x20ba;" horiz-adv-x="1242" 
d="M999 571l157 -42q-56 -242 -241 -385.5t-442 -143.5h-182v531l-202 -65v143l202 67v152l-202 -66v144l202 66v451h179v-400l436 144v-144l-436 -144v-153l436 144v-143l-436 -144v-417q195 0 339.5 110.5t189.5 294.5z" />
    <glyph glyph-name="uni20BC" unicode="&#x20bc;" horiz-adv-x="1715" 
d="M941 1220q301 -26 468 -232t167 -553v-435h-179v412q0 277 -119.5 443.5t-336.5 194.5v-908h-167v908q-217 -28 -336.5 -194t-119.5 -444v-412h-180v435q0 347 167.5 553t468.5 232v203h167v-203z" />
    <glyph glyph-name="uni2113" unicode="&#x2113;" horiz-adv-x="851" 
d="M733 170l42 -146q-118 -50 -248 -50q-141 0 -220.5 81t-79.5 224v188q-82 -27 -147 -43l-39 125q105 26 186 61v564q0 127 75.5 201.5t202.5 74.5q122 0 192 -82.5t70 -228.5q0 -207 -91.5 -353.5t-274.5 -243.5v-240q0 -171 145 -171q93 0 187 39zM401 1156v-448
q212 156 212 418q0 80 -27 123.5t-77 43.5q-51 0 -79.5 -36t-28.5 -101z" />
    <glyph glyph-name="uni2117" unicode="&#x2117;" horiz-adv-x="1845" 
d="M923 1521q163 0 308.5 -61t250 -165t165 -249.5t60.5 -308.5q0 -218 -103 -397.5t-283 -282.5t-398 -103q-163 0 -309 60.5t-250 164.5t-165 249.5t-61 308.5t61 308.5t165 249.5t250 165t309 61zM923 100q131 0 247 48.5t199 132.5t131 202.5t48 253.5t-48 253.5
t-131 202.5t-199 132.5t-247 48.5q-175 0 -318.5 -82.5t-225.5 -228.5t-82 -326t82 -326t225.5 -228.5t318.5 -82.5zM1031 1184q131 0 206 -75t75 -203q0 -126 -75 -200t-206 -74h-236v-338h-149v890h385zM1017 766q65 0 103 39t38 101q0 63 -38 102t-103 39h-222v-281h222z
" />
    <glyph glyph-name="uni2120" unicode="&#x2120;" horiz-adv-x="1655" 
d="M415 1194q28 -4 42 -6.5t41.5 -8.5t43 -11.5t39 -15.5t37 -21t30 -27.5t25 -35.5t14.5 -44.5t6 -55.5q0 -101 -76 -158.5t-211 -57.5q-204 0 -316 122l89 95q84 -89 228 -89q64 0 101 23t37 62q0 20 -9.5 35.5t-22 25t-38 17.5t-43 11.5t-50.5 9.5t-52.5 9.5t-51 12
t-51 18t-42.5 26t-36 36t-22 48t-9 63.5q0 98 75 155.5t202 57.5q91 0 167 -29.5t125 -83.5l-89 -90q-36 34 -89.5 54.5t-112.5 20.5t-94.5 -21.5t-35.5 -57.5q0 -40 38.5 -59t110.5 -30zM1558 1475v-708h-145v494l-161 -494h-142l-160 490v-490h-144v708h194l182 -525
l180 525h196z" />
    <glyph glyph-name="trademark" unicode="&#x2122;" horiz-adv-x="1588" 
d="M650 1475v-128h-220v-580h-144v580h-221v128h585zM1490 1475v-708h-144v494l-161 -494h-143l-159 490v-490h-145v708h196l180 -525l180 525h196z" />
    <glyph glyph-name="uni2126" unicode="&#x2126;" horiz-adv-x="1609" 
d="M77 0v171h282q-241 187 -241 575q0 343 185.5 550.5t501.5 207.5t501.5 -207.5t185.5 -550.5q0 -387 -242 -575h283v-171h-569v160q163 70 249.5 220t86.5 359q0 268 -135.5 427t-359.5 159t-360 -159t-136 -427q0 -209 86.5 -359t250.5 -220v-160h-569z" />
    <glyph glyph-name="estimated" unicode="&#x212e;" horiz-adv-x="1858" 
d="M930 -17q-198 0 -341 50.5t-258 159.5q-229 217 -229 544q0 332 232 546q118 109 258.5 160t337.5 51q180 0 315.5 -45t255.5 -142q117 -94 182 -246.5t73 -344.5h-1316q-11 0 -17 -2t-10.5 -10.5t-4.5 -25.5v-370q0 -31 38.5 -75t103.5 -87.5t167.5 -74t212.5 -30.5
q150 0 289.5 67t233.5 173h155q-155 -173 -310 -236q-89 -36 -165.5 -49t-202.5 -13zM441 763h971q24 0 30.5 7.5t6.5 28.5v362q0 58 -80 124t-204 111t-238 45q-104 0 -205 -32t-167 -76t-106.5 -87t-40.5 -69v-395q0 -19 33 -19z" />
    <glyph glyph-name="uni2150" unicode="&#x2150;" horiz-adv-x="2046" 
d="M1317 1475h162l-942 -1475h-162zM484 549h-152v734l-169 -150l-88 99l270 242h139v-925zM1248 925h646v-127q-166 -191 -240.5 -375.5t-81.5 -422.5h-162q8 234 80 417.5t233 374.5h-475v133z" />
    <glyph glyph-name="uni2151" unicode="&#x2151;" horiz-adv-x="2016" 
d="M1317 1475h162l-942 -1475h-162zM484 549h-152v734l-169 -150l-88 99l270 242h139v-925zM1825 733q38 -92 38 -252q0 -241 -97 -370t-258 -129q-206 0 -310 173l114 81q63 -119 191 -119q92 0 148.5 80.5t60.5 232.5q-79 -102 -217 -102q-140 0 -224 84.5t-84 218.5
q0 138 86.5 224.5t234.5 86.5q232 0 317 -209zM1512 453q84 0 132.5 51.5t48.5 128.5q0 75 -49.5 127t-131.5 52q-79 0 -127 -49t-48 -130t48 -130.5t127 -49.5z" />
    <glyph glyph-name="uni2152" unicode="&#x2152;" horiz-adv-x="2711" 
d="M1317 1475h162l-942 -1475h-162zM484 549h-152v734l-169 -150l-88 99l270 242h139v-925zM2193 943q174 0 270 -130.5t96 -349.5t-96 -349.5t-270 -130.5t-269.5 130.5t-95.5 349.5t95.5 349.5t269.5 130.5zM1601 925v-925h-153v735l-169 -151l-89 99l271 242h140z
M2193 121q100 0 154 94t54 248t-54 248t-154 94q-101 0 -154.5 -94t-53.5 -248t53.5 -248t154.5 -94z" />
    <glyph glyph-name="uni2153" unicode="&#x2153;" horiz-adv-x="1941" 
d="M1317 1475h162l-942 -1475h-162zM484 549h-152v734l-169 -150l-88 99l270 242h139v-925zM1706 475q72 -30 113 -86.5t41 -131.5q0 -125 -89 -200t-237 -75q-130 0 -220.5 59t-128.5 166l133 58q55 -148 211 -148q78 0 125.5 42t47.5 110q0 64 -45 100.5t-119 36.5h-82
v129h68q73 0 114.5 35t41.5 101q0 61 -41.5 98.5t-108.5 37.5q-73 0 -121 -39.5t-68 -110.5l-137 39q31 117 117 181t212 64q136 0 220 -72.5t84 -190.5q0 -66 -34.5 -118.5t-96.5 -84.5z" />
    <glyph glyph-name="uni2154" unicode="&#x2154;" horiz-adv-x="2029" 
d="M385 981q91 88 122 135.5t31 107.5q0 59 -40 95.5t-110 36.5q-71 0 -117 -44.5t-61 -126.5l-143 33q27 133 113.5 203.5t212.5 70.5q135 0 218 -72.5t83 -193.5q0 -83 -42.5 -157.5t-146.5 -175.5l-218 -210h421v-133h-639v124zM1404 1475h163l-942 -1475h-163zM1794 475
q72 -30 112.5 -86.5t40.5 -131.5q0 -125 -89 -200t-237 -75q-129 0 -219.5 59t-129.5 166l134 58q26 -71 80 -109.5t130 -38.5q79 0 126 41.5t47 110.5q0 64 -44.5 100.5t-118.5 36.5h-82v129h67q73 0 114.5 35t41.5 101q0 61 -41 98.5t-109 37.5q-73 0 -120.5 -39.5
t-66.5 -110.5l-138 39q31 117 117 181t212 64q136 0 219.5 -72.5t83.5 -190.5q0 -66 -34 -118.5t-96 -84.5z" />
    <glyph glyph-name="uni2155" unicode="&#x2155;" horiz-adv-x="2012" 
d="M1317 1475h162l-942 -1475h-162zM484 549h-152v734l-169 -150l-88 99l270 242h139v-925zM1556 613q137 0 220 -84t83 -222q0 -146 -92 -235t-244 -89q-117 0 -206 53t-127 145l130 71q24 -62 77 -97t124 -35q81 0 130.5 51.5t49.5 135.5q0 82 -47.5 131.5t-125.5 49.5
q-118 0 -172 -92h-136l62 529h529v-133h-407l-30 -245q77 66 182 66z" />
    <glyph glyph-name="uni2156" unicode="&#x2156;" horiz-adv-x="2018" 
d="M385 981q91 88 122 135.5t31 107.5q0 59 -40 95.5t-110 36.5q-71 0 -117 -44.5t-61 -126.5l-143 33q27 133 113.5 203.5t212.5 70.5q135 0 218 -72.5t83 -193.5q0 -83 -42.5 -157.5t-146.5 -175.5l-218 -210h421v-133h-639v124zM1404 1475h163l-942 -1475h-163zM1644 613
q136 0 219 -84t83 -222q0 -146 -92 -235t-244 -89q-116 0 -205 53t-128 145l131 71q24 -62 77 -97t124 -35q81 0 130.5 51.5t49.5 135.5q0 82 -47.5 131.5t-125.5 49.5q-117 0 -173 -92h-136l63 529h528v-133h-407l-30 -245q77 66 183 66z" />
    <glyph glyph-name="uni2157" unicode="&#x2157;" horiz-adv-x="2052" 
d="M741 808q0 -125 -88.5 -200.5t-236.5 -75.5q-129 0 -220 59.5t-129 166.5l133 58q55 -148 211 -148q78 0 125.5 42t47.5 110q0 64 -44.5 100t-119.5 36h-82v129h68q73 0 114.5 35.5t41.5 101.5q0 61 -41.5 98.5t-108.5 37.5q-73 0 -121 -39.5t-68 -110.5l-137 39
q31 117 117 181t212 64q136 0 220 -72.5t84 -190.5q0 -66 -34.5 -118.5t-96.5 -84.5q72 -30 112.5 -86.5t40.5 -131.5zM1427 1475h162l-942 -1475h-162zM1667 613q136 0 219 -84t83 -222q0 -146 -92 -235t-244 -89q-117 0 -206 53t-127 145l132 71q24 -62 76.5 -97
t122.5 -35q81 0 130.5 51.5t49.5 135.5q0 82 -47.5 131.5t-124.5 49.5q-119 0 -173 -92h-136l63 529h529v-133h-408l-29 -245q77 66 182 66z" />
    <glyph glyph-name="uni2158" unicode="&#x2158;" horiz-adv-x="1971" 
d="M486 550v195h-438v127l424 603h167v-596h130v-134h-130v-195h-153zM1392 1475h162l-942 -1475h-162zM200 879h286v415zM1631 613q136 0 219 -84t83 -222q0 -146 -92 -235t-244 -89q-117 0 -205.5 53t-126.5 145l131 71q24 -62 76.5 -97t122.5 -35q81 0 131 51.5t50 135.5
q0 82 -47.5 131.5t-124.5 49.5q-119 0 -173 -92h-137l63 529h529v-133h-407l-30 -245q77 66 182 66z" />
    <glyph glyph-name="uni2159" unicode="&#x2159;" horiz-adv-x="2024" 
d="M1317 1475h162l-942 -1475h-162zM484 549h-152v734l-169 -150l-88 99l270 242h139v-925zM1565 606q138 0 222 -84.5t84 -223.5q0 -142 -89 -228.5t-234 -86.5q-119 0 -198 58.5t-119 160.5q-36 90 -36 243q0 239 98.5 368t270.5 129q195 0 297 -164l-116 -80
q-61 110 -176 110q-50 0 -89 -19.5t-63 -50.5t-40 -73t-23 -82.5t-8 -84.5q80 108 219 108zM1547 114q79 0 125.5 50.5t46.5 132.5q0 83 -46.5 133.5t-126.5 50.5q-84 0 -132 -53.5t-48 -130.5q0 -76 49.5 -129.5t131.5 -53.5z" />
    <glyph glyph-name="uni215A" unicode="&#x215a;" horiz-adv-x="2020" 
d="M740 857q0 -146 -92.5 -235.5t-244.5 -89.5q-116 0 -204.5 53.5t-126.5 145.5l130 71q24 -62 76.5 -97t123.5 -35q81 0 131 51.5t50 135.5q0 82 -47.5 131.5t-124.5 49.5q-118 0 -173 -92h-137l63 529h529v-134h-407l-31 -245q78 67 183 67q136 0 219 -84t83 -222z
M1394 1475h162l-942 -1475h-162zM1642 606q138 0 222.5 -85t84.5 -223q0 -142 -89 -228.5t-234 -86.5q-119 0 -198 58.5t-119 160.5q-37 92 -37 243q0 239 98.5 368t270.5 129q196 0 296 -164l-115 -80q-60 110 -175 110q-62 0 -107 -28.5t-69 -77t-35.5 -99t-13.5 -106.5
q80 109 220 109zM1624 114q79 0 125.5 50.5t46.5 132.5q0 83 -46.5 133.5t-126.5 50.5q-83 0 -131.5 -53.5t-48.5 -130.5q0 -76 49.5 -129.5t131.5 -53.5z" />
    <glyph glyph-name="oneeighth" unicode="&#x215b;" horiz-adv-x="1953" 
d="M1317 1475h162l-942 -1475h-162zM484 549h-152v734l-169 -150l-88 99l270 242h139v-925zM1706 476q176 -59 176 -223q0 -123 -94 -196.5t-252 -73.5t-252 73.5t-94 196.5q0 164 176 223q-66 25 -106.5 81t-40.5 126q0 112 87 185.5t230 73.5t230 -73.5t87 -185.5
q0 -70 -40.5 -126t-106.5 -81zM1365 672q0 -62 47.5 -102t123.5 -40t123.5 40t47.5 102q0 66 -47.5 107t-123.5 41t-123.5 -41t-47.5 -107zM1536 108q88 0 140.5 42.5t52.5 113.5q0 70 -52.5 110.5t-140.5 40.5t-140.5 -40.5t-52.5 -110.5q0 -71 52.5 -113.5t140.5 -42.5z
" />
    <glyph glyph-name="threeeighths" unicode="&#x215c;" horiz-adv-x="2064" 
d="M741 808q0 -125 -88.5 -200.5t-236.5 -75.5q-129 0 -220 59.5t-129 166.5l133 58q55 -148 211 -148q78 0 125.5 42t47.5 110q0 64 -44.5 100t-119.5 36h-82v129h68q73 0 114.5 35.5t41.5 101.5q0 61 -41.5 98.5t-108.5 37.5q-73 0 -121 -39.5t-68 -110.5l-137 39
q31 117 117 181t212 64q136 0 220 -72.5t84 -190.5q0 -66 -34.5 -118.5t-96.5 -84.5q72 -30 112.5 -86.5t40.5 -131.5zM1427 1475h162l-942 -1475h-162zM1817 476q176 -59 176 -223q0 -123 -94 -196.5t-252 -73.5t-252.5 74t-94.5 196q0 163 177 223q-66 25 -107 81t-41 126
q0 112 87.5 185.5t230.5 73.5t230 -73.5t87 -185.5q0 -70 -40.5 -126t-106.5 -81zM1476 672q0 -62 47.5 -102t123.5 -40t123.5 40t47.5 102q0 66 -47.5 107t-123.5 41t-123.5 -41t-47.5 -107zM1647 108q88 0 140 42.5t52 113.5t-52 111t-140 40t-140.5 -40.5t-52.5 -110.5
q0 -71 52.5 -113.5t140.5 -42.5z" />
    <glyph glyph-name="fiveeighths" unicode="&#x215d;" horiz-adv-x="2030" 
d="M740 857q0 -146 -92.5 -235.5t-244.5 -89.5q-116 0 -204.5 53.5t-126.5 145.5l130 71q24 -62 76.5 -97t123.5 -35q81 0 131 51.5t50 135.5q0 82 -47.5 131.5t-124.5 49.5q-118 0 -173 -92h-137l63 529h529v-134h-407l-31 -245q78 67 183 67q136 0 219 -84t83 -222z
M1394 1475h162l-942 -1475h-162zM1783 476q176 -59 176 -223q0 -123 -94 -196.5t-252 -73.5t-252 73.5t-94 196.5q0 164 176 223q-66 25 -107 81t-41 126q0 112 87.5 185.5t230.5 73.5t230 -73.5t87 -185.5q0 -70 -40.5 -126t-106.5 -81zM1442 672q0 -62 47.5 -102
t123.5 -40t123.5 40t47.5 102q0 66 -47.5 107t-123.5 41t-123.5 -41t-47.5 -107zM1613 108q88 0 140 42.5t52 113.5t-52 111t-140 40t-140.5 -40.5t-52.5 -110.5q0 -71 52.5 -113.5t140.5 -42.5z" />
    <glyph glyph-name="seveneighths" unicode="&#x215e;" horiz-adv-x="1867" 
d="M372 550h-162q8 234 80 417t233 374h-475v134h646v-127q-166 -191 -240.5 -375.5t-81.5 -422.5zM1230 1475h163l-942 -1475h-163zM1620 476q176 -59 176 -223q0 -123 -94 -196.5t-252 -73.5t-252 73.5t-94 196.5q0 164 176 223q-66 25 -106.5 81t-40.5 126
q0 112 87 185.5t230 73.5t230 -73.5t87 -185.5q0 -70 -40.5 -126t-106.5 -81zM1279 672q0 -62 47.5 -102t123.5 -40t123.5 40t47.5 102q0 66 -47.5 107t-123.5 41t-123.5 -41t-47.5 -107zM1450 108q88 0 140 42.5t52 113.5t-52 111t-140 40t-140.5 -40.5t-52.5 -110.5
q0 -71 52.5 -113.5t140.5 -42.5z" />
    <glyph glyph-name="uni215F" unicode="&#x215f;" horiz-adv-x="1633" 
d="M1317 1475h162l-942 -1475h-162zM484 549h-152v734l-169 -150l-88 99l270 242h139v-925z" />
    <glyph glyph-name="uni2189" unicode="&#x2189;" horiz-adv-x="2082" 
d="M808 1012q0 -219 -96 -350t-270 -131t-269.5 131t-95.5 350t95.5 349.5t269.5 130.5t270 -130.5t96 -349.5zM1464 1475h163l-942 -1475h-163zM442 670q100 0 154 94t54 248t-54 248t-154 94q-101 0 -155 -94t-54 -248t54 -248t155 -94zM1854 475q72 -30 112.5 -86.5
t40.5 -131.5q0 -125 -89 -200t-237 -75q-130 0 -220.5 59t-128.5 166l134 58q55 -148 210 -148q78 0 125.5 42t47.5 110q0 64 -44 100.5t-118 36.5h-83v129h67q73 0 115 35t42 101q0 61 -42 98.5t-109 37.5q-73 0 -120.5 -39.5t-67.5 -110.5l-136 39q30 117 115.5 181
t212.5 64q136 0 220 -72.5t84 -190.5q0 -66 -34.5 -118.5t-96.5 -84.5z" />
    <glyph glyph-name="arrowleft" unicode="&#x2190;" horiz-adv-x="1792" 
d="M1690 725v-158h-1340l363 -358l-107 -107l-545 544l545 545l107 -108l-363 -358h1340z" />
    <glyph glyph-name="arrowup" unicode="&#x2191;" horiz-adv-x="1792" 
d="M1440 915l-107 -106l-358 362v-1339h-158v1339l-358 -362l-107 106l544 545z" />
    <glyph glyph-name="arrowright" unicode="&#x2192;" horiz-adv-x="1792" 
d="M1187 1191l544 -545l-544 -544l-108 107l363 358h-1340v158h1340l-363 358z" />
    <glyph glyph-name="arrowdown" unicode="&#x2193;" horiz-adv-x="1792" 
d="M1333 483l107 -106l-544 -545l-544 545l107 106l358 -362v1339h158v-1339z" />
    <glyph glyph-name="arrowboth" unicode="&#x2194;" horiz-adv-x="2138" 
d="M1532 1191l545 -545l-545 -544l-107 107l363 358h-1438l363 -358l-107 -107l-545 544l545 545l107 -108l-363 -358h1438l-363 358z" />
    <glyph glyph-name="arrowupdn" unicode="&#x2195;" horiz-adv-x="1792" 
d="M975 -73l358 363l107 -107l-544 -544l-544 544l107 107l358 -363v1438l-358 -363l-107 107l544 545l544 -545l-107 -107l-358 363v-1438z" />
    <glyph glyph-name="uni2196" unicode="&#x2196;" horiz-adv-x="1792" 
d="M1495 127l-112 -113l-947 948l3 -510h-151v770h770v-152l-509 3z" />
    <glyph glyph-name="uni2197" unicode="&#x2197;" horiz-adv-x="1792" 
d="M725 1222h770v-770h-152l4 510l-948 -948l-111 113l946 946l-509 -3v152z" />
    <glyph glyph-name="uni2198" unicode="&#x2198;" horiz-adv-x="1792" 
d="M1343 841h152v-770h-770v151l509 -3l-946 946l111 113l948 -947z" />
    <glyph glyph-name="uni2199" unicode="&#x2199;" horiz-adv-x="1792" 
d="M1495 1165l-946 -946l509 3v-151h-770v770h151l-3 -510l947 947z" />
    <glyph glyph-name="uni21B0" unicode="&#x21b0;" horiz-adv-x="1792" 
d="M1690 725v-907h-158v749h-1182l363 -358l-107 -107l-545 544l545 545l107 -108l-363 -358h1340z" />
    <glyph glyph-name="uni21B1" unicode="&#x21b1;" horiz-adv-x="1792" 
d="M1187 1191l544 -545l-544 -544l-108 107l363 358h-1182v-749h-158v907h1340l-363 358z" />
    <glyph glyph-name="uni21B3" unicode="&#x21b3;" horiz-adv-x="1792" 
d="M1187 1191l544 -545l-544 -544l-108 107l363 358h-1340v908h158v-750h1182l-363 358z" />
    <glyph glyph-name="carriagereturn" unicode="&#x21b5;" horiz-adv-x="1792" 
d="M1532 1475h158v-908h-1340l363 -358l-107 -107l-545 544l545 545l107 -108l-363 -358h1182v750z" />
    <glyph glyph-name="partialdiff" unicode="&#x2202;" horiz-adv-x="1213" 
d="M333 1506q389 -68 587 -316t198 -664q0 -252 -140 -402t-371 -150t-371.5 150t-140.5 400q0 251 138 401t365 150q146 0 284 -107q-159 325 -584 400zM607 136q150 0 240.5 104.5t90.5 283.5t-90.5 284t-240.5 105t-241 -105t-91 -284t90.5 -283.5t241.5 -104.5z" />
    <glyph glyph-name="emptyset" unicode="&#x2205;" horiz-adv-x="1388" 
d="M1293 1029l-153 -153q117 -150 117 -345q0 -153 -75.5 -282.5t-204.5 -205t-282 -75.5q-195 0 -346 118l-153 -154l-101 101l154 153q-117 152 -117 345q0 153 75.5 282.5t205 205t282.5 75.5q193 0 343 -118l154 153zM315 531q0 -120 63 -216l535 536q-98 72 -218 72
q-157 0 -268.5 -115t-111.5 -277zM1074 531q0 118 -62 217l-537 -536q99 -72 220 -72q157 0 268 114t111 277z" />
    <glyph glyph-name="uni2206" unicode="&#x2206;" horiz-adv-x="1403" 
d="M805 1475l509 -1323v-152h-1224v152l510 1323h205zM295 171h814l-407 1073z" />
    <glyph glyph-name="product" unicode="&#x220f;" horiz-adv-x="1440" 
d="M1252 1475v-1772h-185v1601h-693v-1601h-186v1772h1064z" />
    <glyph glyph-name="summation" unicode="&#x2211;" horiz-adv-x="1320" 
d="M188 -297v150l627 755l-627 717v150h1012v-171h-755l550 -626v-139l-550 -665h766v-171h-1023z" />
    <glyph glyph-name="minus" unicode="&#x2212;" 
d="M162 498v155h906v-155h-906z" />
    <glyph glyph-name="uni2215" unicode="&#x2215;" horiz-adv-x="1134" 
d="M20 0l943 1475h161l-942 -1475h-162z" />
    <glyph glyph-name="uni2219" unicode="&#x2219;" 
d="M614 463q-62 0 -106 44t-44 106t44 107t106 45t107 -45t45 -107t-45 -106t-107 -44z" />
    <glyph glyph-name="radical" unicode="&#x221a;" horiz-adv-x="1371" 
d="M1113 1475h194l-663 -1772h-193l-386 977l175 57l305 -797z" />
    <glyph glyph-name="infinity" unicode="&#x221e;" horiz-adv-x="1835" 
d="M1337 959q179 0 290 -107.5t111 -298.5t-111.5 -299t-289.5 -108q-68 0 -129.5 21t-114.5 61.5t-94 83t-87 102.5q-47 -60 -88 -102.5t-94 -83t-114 -61.5t-129 -21q-174 0 -282.5 108t-108.5 299t108.5 298.5t282.5 107.5q68 0 129 -21t114 -61t94.5 -83t87.5 -102
q46 59 87 102t94 83t114.5 61t129.5 21zM496 307q37 0 72.5 13.5t64.5 34t62 55.5t57 65.5t58 77.5q-34 47 -58 77.5t-57 65.5t-62 55.5t-64.5 34t-72.5 13.5q-93 0 -154.5 -64.5t-61.5 -181.5t61.5 -181.5t154.5 -64.5zM1329 307q98 0 162 64.5t64 181.5t-64 181.5
t-162 64.5q-37 0 -72.5 -13.5t-64.5 -34t-62 -55.5t-57 -65.5t-58 -77.5q34 -47 58 -77.5t57 -65.5t62 -55.5t64.5 -34t72.5 -13.5z" />
    <glyph glyph-name="integral" unicode="&#x222b;" horiz-adv-x="559" 
d="M158 -325q-63 0 -144 27l38 146q48 -16 82 -16q31 0 43 18.5t12 55.5v1400q0 99 58.5 147t153.5 48q66 0 144 -26l-38 -147q-51 17 -83 17q-31 0 -42.5 -18t-11.5 -56v-1400q0 -100 -59 -148t-153 -48z" />
    <glyph glyph-name="approxequal" unicode="&#x2248;" 
d="M801 676q-44 0 -88 11.5t-70.5 23.5t-64.5 33q-96 52 -151 52q-53 0 -90 -28.5t-75 -97.5l-125 82q58 105 129.5 154.5t161.5 49.5q103 0 223 -69q94 -51 151 -51q53 0 91.5 29t73.5 97l125 -82q-58 -105 -129.5 -154.5t-161.5 -49.5zM801 271q-44 0 -88 11.5t-70 23.5
t-65 34q-93 52 -151 52q-53 0 -90 -28.5t-75 -97.5l-125 82q114 204 291 204q44 0 88 -11.5t70.5 -24t64.5 -33.5q94 -51 151 -51q53 0 91.5 29t73.5 97l125 -82q-114 -205 -291 -205z" />
    <glyph glyph-name="notequal" unicode="&#x2260;" 
d="M1068 735h-312l-109 -261h421v-156h-486l-103 -245h-172l103 245h-248v156h313l109 261h-422v156h486l103 245h172l-103 -245h248v-156z" />
    <glyph glyph-name="lessequal" unicode="&#x2264;" 
d="M1068 284l-906 368v175l906 369v-174l-742 -282l742 -281v-175zM1068 0h-906v156h906v-156z" />
    <glyph glyph-name="greaterequal" unicode="&#x2265;" 
d="M162 284v175l741 281l-741 282v174l906 -369v-175zM162 0v156h906v-156h-906z" />
    <glyph glyph-name="uni2300" unicode="&#x2300;" horiz-adv-x="1388" 
d="M1293 1029l-153 -153q117 -150 117 -345q0 -153 -75.5 -282.5t-204.5 -205t-282 -75.5q-195 0 -346 118l-153 -154l-101 101l154 153q-117 152 -117 345q0 153 75.5 282.5t205 205t282.5 75.5q193 0 343 -118l154 153zM315 531q0 -120 63 -216l535 536q-98 72 -218 72
q-157 0 -268.5 -115t-111.5 -277zM1074 531q0 118 -62 217l-537 -536q99 -72 220 -72q157 0 268 114t111 277z" />
    <glyph glyph-name="uni2460" unicode="&#x2460;" horiz-adv-x="1991" 
d="M995 1573q180 0 336.5 -62.5t268 -172t175 -265t63.5 -335.5t-63.5 -335t-175 -264.5t-268 -172t-336.5 -62.5q-240 0 -432 106.5t-300.5 297t-108.5 430.5q0 180 63.5 335.5t174.5 265t267 172t336 62.5zM995 54q196 0 352 87.5t243.5 244t87.5 352.5t-87.5 352.5
t-243.5 244t-352 87.5q-195 0 -351 -87.5t-243.5 -244t-87.5 -352.5t87.5 -352.5t243.5 -244t351 -87.5zM1117 1219v-925h-152v734l-169 -150l-87 99l269 242h139z" />
    <glyph glyph-name="uni2461" unicode="&#x2461;" horiz-adv-x="1992" 
d="M995 1573q180 0 337 -62.5t268 -172t175 -265t64 -335.5q0 -240 -109 -430.5t-301.5 -297t-433.5 -106.5q-240 0 -432 106.5t-300.5 297t-108.5 430.5q0 180 63.5 335.5t174.5 265t267 172t336 62.5zM995 54q147 0 274 51.5t217 141.5t141.5 217t51.5 274t-51.5 274
t-141.5 217t-217 141.5t-274 51.5q-195 0 -351 -87.5t-243.5 -244t-87.5 -352.5t87.5 -352.5t243.5 -244t351 -87.5zM1105 638l-217 -211h420v-133h-640v124l317 307q91 89 122 136.5t31 107.5q0 58 -40 94.5t-109 36.5q-72 0 -118.5 -44.5t-60.5 -126.5l-143 33
q27 132 113.5 203t211.5 71q136 0 219 -72.5t83 -192.5q0 -83 -42 -157t-147 -176z" />
    <glyph glyph-name="uni2462" unicode="&#x2462;" horiz-adv-x="1992" 
d="M996 1573q180 0 336.5 -62.5t268 -172t175 -265t63.5 -335.5t-63.5 -335t-175 -264.5t-268 -172t-336.5 -62.5q-241 0 -433 106.5t-300.5 297t-108.5 430.5q0 180 63.5 335.5t174.5 265t267.5 172t336.5 62.5zM996 54q196 0 352 87.5t243.5 244t87.5 352.5t-87.5 352.5
t-243.5 244t-352 87.5t-352 -87.5t-243.5 -244t-87.5 -352.5t87.5 -352.5t243.5 -244t352 -87.5zM1169 770q72 -31 113 -87t41 -131q0 -125 -89 -200.5t-237 -75.5q-129 0 -220 59.5t-129 166.5l133 58q56 -148 211 -148q78 0 125.5 42t47.5 110q0 64 -44.5 100t-119.5 36
h-81v129h67q73 0 115 35.5t42 101.5q0 61 -42 98.5t-109 37.5q-73 0 -120.5 -39.5t-67.5 -110.5l-137 39q31 117 116.5 181t211.5 64q136 0 220 -72.5t84 -190.5q0 -135 -131 -203z" />
    <glyph glyph-name="uni2463" unicode="&#x2463;" horiz-adv-x="1992" 
d="M995 1573q180 0 337 -62.5t268 -172t175 -265t64 -335.5q0 -240 -109 -430.5t-301.5 -297t-433.5 -106.5q-240 0 -432 106.5t-300.5 297t-108.5 430.5q0 180 63.5 335.5t174.5 265t267 172t336 62.5zM995 54q147 0 274 51.5t217 141.5t141.5 217t51.5 274t-51.5 274
t-141.5 217t-217 141.5t-274 51.5q-195 0 -351 -87.5t-243.5 -244t-87.5 -352.5t87.5 -352.5t243.5 -244t351 -87.5zM1195 1219v-596h130v-134h-130v-195h-153v195h-438v127l424 603h167zM756 623h286v415z" />
    <glyph glyph-name="uni2464" unicode="&#x2464;" horiz-adv-x="1992" 
d="M995 1573q180 0 337 -62.5t268 -172t175 -265t64 -335.5q0 -240 -109 -430.5t-301.5 -297t-433.5 -106.5q-240 0 -432 106.5t-300.5 297t-108.5 430.5q0 180 63.5 335.5t174.5 265t267 172t336 62.5zM995 54q147 0 274 51.5t217 141.5t141.5 217t51.5 274t-51.5 274
t-141.5 217t-217 141.5t-274 51.5q-195 0 -351 -87.5t-243.5 -244t-87.5 -352.5t87.5 -352.5t243.5 -244t351 -87.5zM1017 907q137 0 219.5 -84t82.5 -223q0 -145 -92 -234.5t-243 -89.5q-116 0 -206 53.5t-128 145.5l131 71q24 -63 77 -97.5t125 -34.5q83 0 131 53.5
t48 133.5q0 81 -47.5 131t-124.5 50q-118 0 -173 -92h-137l62 529h531v-134h-409l-28 -244q78 66 181 66z" />
    <glyph glyph-name="uni2465" unicode="&#x2465;" horiz-adv-x="1992" 
d="M996 1573q180 0 336.5 -62.5t268 -172t175 -265t63.5 -335.5t-63.5 -335t-175 -264.5t-268 -172t-336.5 -62.5q-241 0 -433 106.5t-300.5 297t-108.5 430.5q0 180 63.5 335.5t174.5 265t267.5 172t336.5 62.5zM996 54q196 0 352 87.5t243.5 244t87.5 352.5t-87.5 352.5
t-243.5 244t-352 87.5t-352 -87.5t-243.5 -244t-87.5 -352.5t87.5 -352.5t243.5 -244t352 -87.5zM1017 900q138 0 222 -84.5t84 -223.5q0 -142 -89 -229t-234 -87q-118 0 -197.5 59t-119.5 161q-36 90 -36 243q0 239 98.5 368t270.5 129q195 0 297 -164l-116 -80
q-61 110 -176 110q-50 0 -89 -19.5t-63 -50.5t-40 -73t-23 -82.5t-8 -84.5q80 108 219 108zM999 408q79 0 125.5 50.5t46.5 132.5q0 83 -46.5 133.5t-126.5 50.5q-84 0 -132 -53.5t-48 -130.5q0 -76 49.5 -129.5t131.5 -53.5z" />
    <glyph glyph-name="uni2466" unicode="&#x2466;" horiz-adv-x="1992" 
d="M995 1573q180 0 337 -62.5t268 -172t175 -265t64 -335.5q0 -240 -109 -430.5t-301.5 -297t-433.5 -106.5q-240 0 -432 106.5t-300.5 297t-108.5 430.5q0 180 63.5 335.5t174.5 265t267 172t336 62.5zM995 54q147 0 274 51.5t217 141.5t141.5 217t51.5 274t-51.5 274
t-141.5 217t-217 141.5t-274 51.5q-195 0 -351 -87.5t-243.5 -244t-87.5 -352.5t87.5 -352.5t243.5 -244t351 -87.5zM675 1085v134h646v-127q-167 -193 -241.5 -376.5t-81.5 -421.5h-161q8 234 79.5 416t232.5 375h-474z" />
    <glyph glyph-name="uni2467" unicode="&#x2467;" horiz-adv-x="1992" 
d="M996 -96q-241 0 -433 106.5t-300.5 297t-108.5 430.5q0 180 63.5 335.5t174.5 265t267.5 172t336.5 62.5t336.5 -62.5t268 -172t175 -265t63.5 -335.5t-63.5 -335t-175 -264.5t-268 -172t-336.5 -62.5zM996 54q196 0 352 87.5t243.5 244t87.5 352.5t-87.5 352.5
t-243.5 244t-352 87.5t-352 -87.5t-243.5 -244t-87.5 -352.5t87.5 -352.5t243.5 -244t352 -87.5zM999 276q-158 0 -252 74t-94 197q0 164 176 223q-66 25 -106.5 81t-40.5 126q0 112 87 185.5t230 73.5t230.5 -73.5t87.5 -185.5q0 -70 -41 -126t-107 -81q177 -60 177 -223
q0 -123 -94.5 -197t-252.5 -74zM999 824q76 0 123.5 40t47.5 102q0 66 -47.5 107t-123.5 41t-123.5 -41t-47.5 -107q0 -62 47.5 -102t123.5 -40zM999 401q88 0 140.5 43t52.5 114q0 70 -52.5 110.5t-140.5 40.5t-140 -40t-52 -111t52 -114t140 -43z" />
    <glyph glyph-name="uni2468" unicode="&#x2468;" horiz-adv-x="1992" 
d="M996 1573q180 0 336.5 -62.5t268 -172t175 -265t63.5 -335.5t-63.5 -335t-175 -264.5t-268 -172t-336.5 -62.5q-241 0 -433 106.5t-300.5 297t-108.5 430.5q0 180 63.5 335.5t174.5 265t267.5 172t336.5 62.5zM996 54q196 0 352 87.5t243.5 244t87.5 352.5t-87.5 352.5
t-243.5 244t-352 87.5t-352 -87.5t-243.5 -244t-87.5 -352.5t87.5 -352.5t243.5 -244t352 -87.5zM992 1236q231 0 316 -209q38 -92 38 -252q0 -241 -96.5 -370.5t-258.5 -129.5q-204 0 -310 174l114 80q63 -118 191 -118q92 0 148.5 80.5t60.5 231.5q-81 -101 -217 -101
q-139 0 -223.5 84.5t-84.5 218.5q0 138 86.5 224.5t235.5 86.5zM995 746q84 0 132.5 52t48.5 129q0 75 -49.5 127t-131.5 52q-79 0 -126.5 -49t-47.5 -130t47.5 -131t126.5 -50z" />
    <glyph glyph-name="uni24EA" unicode="&#x24ea;" horiz-adv-x="1992" 
d="M996 -96q-241 0 -433 106.5t-300.5 297t-108.5 430.5q0 180 63.5 335.5t174.5 265t267.5 172t336.5 62.5t336.5 -62.5t268 -172t175 -265t63.5 -335.5t-63.5 -335t-175 -264.5t-268 -172t-336.5 -62.5zM996 54q196 0 352 87.5t243.5 244t87.5 352.5t-87.5 352.5
t-243.5 244t-352 87.5t-352 -87.5t-243.5 -244t-87.5 -352.5t87.5 -352.5t243.5 -244t352 -87.5zM996 279q-174 0 -270 130.5t-96 349.5t96 349.5t270 130.5t270.5 -130.5t96.5 -349.5t-96.5 -349.5t-270.5 -130.5zM996 417q101 0 155 94t54 248t-54 248t-155 94t-155 -94
t-54 -248t54 -248t155 -94z" />
    <glyph glyph-name="uni24FF" unicode="&#x24ff;" horiz-adv-x="1991" 
d="M1023 -126q-249 0 -448 110.5t-311.5 308t-112.5 445.5q0 186 66 347t181 274.5t277 178.5t348 65t348 -65t277 -178.5t181 -274.5t66 -347q0 -248 -112.5 -445.5t-311.5 -308t-448 -110.5zM1025 273q181 0 281.5 130.5t100.5 352.5t-100.5 352t-281.5 130t-281.5 -130
t-100.5 -352t100.5 -352.5t281.5 -130.5zM1025 447q-88 0 -135.5 84.5t-47.5 224.5t47.5 224t135.5 84t135.5 -84t47.5 -224t-47.5 -224.5t-135.5 -84.5z" />
    <glyph glyph-name="filledbox" unicode="&#x25a0;" horiz-adv-x="1843" 
d="M184 0v1475h1475v-1475h-1475z" />
    <glyph glyph-name="uni25A1" unicode="&#x25a1;" horiz-adv-x="1843" 
d="M184 0v1475h1475v-1475h-1475zM358 166h1127v1143h-1127v-1143z" />
    <glyph glyph-name="uni25AE" unicode="&#x25ae;" horiz-adv-x="1105" 
d="M184 0v1475h738v-1475h-738z" />
    <glyph glyph-name="uni25AF" unicode="&#x25af;" horiz-adv-x="1105" 
d="M184 0v1475h738v-1475h-738zM345 155h416v1165h-416v-1165z" />
    <glyph glyph-name="triagup" unicode="&#x25b2;" horiz-adv-x="1843" 
d="M82 0l840 1495l839 -1495h-1679z" />
    <glyph glyph-name="uni25B3" unicode="&#x25b3;" horiz-adv-x="1843" 
d="M82 0l840 1495l839 -1495h-1679zM382 173h1079l-539 963z" />
    <glyph glyph-name="uni25C6" unicode="&#x25c6;" horiz-adv-x="1843" 
d="M922 -52l-790 789l790 790l789 -790z" />
    <glyph glyph-name="uni25C7" unicode="&#x25c7;" horiz-adv-x="1843" 
d="M922 -52l-790 789l790 790l789 -790zM922 190l546 547l-546 547l-547 -547z" />
    <glyph glyph-name="lozenge" unicode="&#x25ca;" 
d="M694 1475l424 -738l-424 -737h-159l-424 737l424 738h159zM614 172l311 565l-311 566l-310 -566z" />
    <glyph glyph-name="circle" unicode="&#x25cb;" horiz-adv-x="1843" 
d="M923 -31q-209 0 -386 103t-280 279.5t-103 385.5t103 385.5t280 279.5t386 103q208 0 384.5 -103t279.5 -279.5t103 -385.5t-103 -385.5t-279.5 -279.5t-384.5 -103zM923 143q120 0 229 47t187.5 126.5t125 189.5t46.5 231t-46.5 231t-125 189.5t-187.5 126.5t-229 47
q-160 0 -296.5 -79.5t-215.5 -216t-79 -298.5t79 -298.5t215.5 -216t296.5 -79.5z" />
    <glyph glyph-name="uni25CF" unicode="&#x25cf;" horiz-adv-x="1843" 
d="M923 -31q-209 0 -386 103t-280 279.5t-103 385.5t103 385.5t280 279.5t386 103q208 0 384.5 -103t279.5 -279.5t103 -385.5t-103 -385.5t-279.5 -279.5t-384.5 -103z" />
    <glyph glyph-name="uni2605" unicode="&#x2605;" horiz-adv-x="1843" 
d="M367 -72l218 654l-514 376h640l211 629l211 -629h640l-515 -376l219 -654l-555 407z" />
    <glyph glyph-name="uni2606" unicode="&#x2606;" horiz-adv-x="1843" 
d="M367 -72l218 654l-514 376h640l211 629l211 -629h640l-515 -376l219 -654l-555 407zM662 332l260 189l260 -189l-103 305l233 170h-290l-100 301l-101 -301h-290l233 -170z" />
    <glyph glyph-name="uni2661" unicode="&#x2661;" horiz-adv-x="1843" 
d="M1266 1499q185 0 314.5 -124.5t129.5 -310.5q0 -260 -211.5 -545t-576.5 -545q-365 260 -577 545t-212 545q0 123 60.5 223t162 156t222.5 56q107 0 206 -56.5t138 -131.5q39 75 138 131.5t206 56.5zM922 170q285 213 452 451t167 439q0 120 -82 198t-199 78
q-199 0 -336 -293h-4q-137 293 -336 293q-117 0 -199.5 -78t-82.5 -198q0 -201 167.5 -439t452.5 -451z" />
    <glyph glyph-name="uni2714" unicode="&#x2714;" horiz-adv-x="1843" 
d="M729 -34l-642 447l101 144l491 -341l924 1292l152 -105z" />
    <glyph glyph-name="uni2718" unicode="&#x2718;" horiz-adv-x="1843" 
d="M1693 1382l-645 -645l645 -645l-126 -126l-645 645l-646 -645l-125 126l645 645l-645 645l127 126l644 -645l645 645z" />
    <glyph glyph-name="uni2764" unicode="&#x2764;" horiz-adv-x="1843" 
d="M1275 1499q184 0 309.5 -124t125.5 -311q0 -260 -211.5 -545t-576.5 -545q-365 260 -577 545t-212 545q0 187 125.5 311t309.5 124q108 0 211 -57t143 -133q40 76 142.5 133t210.5 57z" />
    <glyph glyph-name="uni2776" unicode="&#x2776;" horiz-adv-x="1992" 
d="M996 -96q-180 0 -336.5 62.5t-267.5 172t-174.5 264.5t-63.5 335q0 144 40.5 273t116 231t178.5 176.5t233 114.5t274 40q180 0 336.5 -62.5t267.5 -172t175 -265t64 -335.5q0 -240 -109 -430.5t-301.5 -297t-432.5 -106.5zM965 294h152v925h-139l-270 -242l88 -99
l169 150v-734z" />
    <glyph glyph-name="uni2777" unicode="&#x2777;" horiz-adv-x="1992" 
d="M996 -96q-180 0 -336.5 62.5t-267.5 172t-174.5 264.5t-63.5 335q0 144 40.5 273t116 231t178.5 176.5t233 114.5t274 40q180 0 336.5 -62.5t267.5 -172t175 -265t64 -335.5q0 -240 -109 -430.5t-301.5 -297t-432.5 -106.5zM668 294h640v133h-421l217 210
q104 100 147 175t43 158q0 121 -83 193.5t-218 72.5q-126 0 -213 -71t-113 -203l143 -33q14 81 60.5 126t117.5 45q70 0 110 -36.5t40 -95.5t-31 -106.5t-122 -136.5l-317 -307v-124z" />
    <glyph glyph-name="uni2778" unicode="&#x2778;" horiz-adv-x="1992" 
d="M996 -96q-180 0 -336.5 62.5t-267.5 172t-174.5 264.5t-63.5 335q0 144 40.5 273t116 231t178.5 176.5t233 114.5t274 40q180 0 336.5 -62.5t267.5 -172t175 -265t64 -335.5q0 -240 -109 -430.5t-301.5 -297t-432.5 -106.5zM997 276q148 0 237 75.5t89 200.5
q0 75 -41 131t-113 87q131 68 131 203q0 118 -84 190.5t-220 72.5q-126 0 -211.5 -64t-116.5 -181l137 -39q20 71 67.5 110.5t120.5 39.5q67 0 109 -37.5t42 -98.5q0 -66 -42 -101.5t-115 -35.5h-67v-129h81q75 0 119.5 -36t44.5 -100q0 -68 -47.5 -110t-125.5 -42
q-155 0 -211 148l-133 -58q38 -107 129 -166.5t220 -59.5z" />
    <glyph glyph-name="uni2779" unicode="&#x2779;" horiz-adv-x="1992" 
d="M996 -96q-180 0 -336.5 62.5t-267.5 172t-174.5 264.5t-63.5 335q0 144 40.5 273t116 231t178.5 176.5t233 114.5t274 40q180 0 336.5 -62.5t267.5 -172t175 -265t64 -335.5q0 -240 -109 -430.5t-301.5 -297t-432.5 -106.5zM1042 294h153v195h130v134h-130v596h-167
l-424 -603v-127h438v-195zM756 623l286 415v-415h-286z" />
    <glyph glyph-name="uni277A" unicode="&#x277a;" horiz-adv-x="1992" 
d="M996 -96q-180 0 -336.5 62.5t-267.5 172t-174.5 264.5t-63.5 335q0 144 40.5 273t116 231t178.5 176.5t233 114.5t274 40q180 0 336.5 -62.5t267.5 -172t175 -265t64 -335.5q0 -240 -109 -430.5t-301.5 -297t-432.5 -106.5zM983 276q152 0 244 89.5t92 235.5
q0 138 -82.5 222t-219.5 84q-104 0 -181 -66l28 244h409v134h-530l-63 -529h137q54 92 172 92q78 0 125.5 -49.5t47.5 -131.5q0 -84 -49.5 -135.5t-130.5 -51.5q-71 0 -124 35t-77 97l-131 -71q39 -92 128 -145.5t205 -53.5z" />
    <glyph glyph-name="uni277B" unicode="&#x277b;" horiz-adv-x="1992" 
d="M996 -96q-180 0 -336.5 62.5t-267.5 172t-174.5 264.5t-63.5 335q0 144 40.5 273t116 231t178.5 176.5t233 114.5t274 40q180 0 336.5 -62.5t267.5 -172t175 -265t64 -335.5q0 -240 -109 -430.5t-301.5 -297t-432.5 -106.5zM1000 276q145 0 234 87t89 229
q0 139 -84 223.5t-222 84.5q-139 0 -219 -108q0 10 2 30q4 53 16.5 99.5t37 89t67.5 67t100 24.5q115 0 176 -110l116 80q-102 164 -297 164q-172 0 -270.5 -129t-98.5 -368q0 -153 36 -243q40 -102 119.5 -161t197.5 -59zM999 408q-82 0 -131.5 53.5t-49.5 129.5
q0 77 48 130.5t132 53.5q80 0 126.5 -50.5t46.5 -133.5q0 -82 -46.5 -132.5t-125.5 -50.5z" />
    <glyph glyph-name="uni277C" unicode="&#x277c;" horiz-adv-x="1992" 
d="M996 -96q-180 0 -336.5 62.5t-267.5 172t-174.5 264.5t-63.5 335q0 144 40.5 273t116 231t178.5 176.5t233 114.5t274 40q180 0 336.5 -62.5t267.5 -172t175 -265t64 -335.5q0 -240 -109 -430.5t-301.5 -297t-432.5 -106.5zM837 294h161q7 237 82 422t241 376v127h-646
v-134h475q-161 -192 -233 -374.5t-80 -416.5z" />
    <glyph glyph-name="uni277D" unicode="&#x277d;" horiz-adv-x="1992" 
d="M996 -96q-180 0 -336.5 62.5t-267.5 172t-174.5 264.5t-63.5 335q0 144 40.5 273t116 231t178.5 176.5t233 114.5t274 40q180 0 336.5 -62.5t267.5 -172t175 -265t64 -335.5q0 -240 -109 -430.5t-301.5 -297t-432.5 -106.5zM999 276q158 0 252.5 74t94.5 197
q0 163 -177 223q66 25 107 81t41 126q0 112 -87.5 185.5t-230.5 73.5t-230 -73.5t-87 -185.5q0 -70 40.5 -126t106.5 -81q-176 -59 -176 -223q0 -123 94 -197t252 -74zM999 824q-76 0 -123.5 40t-47.5 102q0 66 47.5 107t123.5 41t123.5 -41t47.5 -107q0 -62 -47.5 -102
t-123.5 -40zM999 401q-88 0 -140 43t-52 114t52 111t140 40t140.5 -40.5t52.5 -110.5q0 -71 -52.5 -114t-140.5 -43z" />
    <glyph glyph-name="uni277E" unicode="&#x277e;" horiz-adv-x="1992" 
d="M996 -96q-180 0 -336.5 62.5t-267.5 172t-174.5 264.5t-63.5 335q0 144 40.5 273t116 231t178.5 176.5t233 114.5t274 40q180 0 336.5 -62.5t267.5 -172t175 -265t64 -335.5q0 -240 -109 -430.5t-301.5 -297t-432.5 -106.5zM991 275q162 0 258.5 129.5t96.5 370.5
q0 160 -38 252q-85 209 -316 209q-149 0 -235.5 -86.5t-86.5 -224.5q0 -134 84.5 -218.5t223.5 -84.5q137 0 217 101q0 -8 -1 -20q-8 -143 -63 -217.5t-145 -74.5q-128 0 -191 118l-114 -80q106 -174 310 -174zM995 746q-79 0 -126.5 50t-47.5 131t47.5 130t126.5 49
q82 0 131.5 -52t49.5 -127q0 -77 -48.5 -129t-132.5 -52z" />
    <glyph glyph-name="uni2780" unicode="&#x2780;" horiz-adv-x="1991" 
d="M995 1573q180 0 336.5 -62.5t268 -172t175 -265t63.5 -335.5t-63.5 -335t-175 -264.5t-268 -172t-336.5 -62.5q-240 0 -432 106.5t-300.5 297t-108.5 430.5q0 180 63.5 335.5t174.5 265t267 172t336 62.5zM995 54q196 0 352 87.5t243.5 244t87.5 352.5t-87.5 352.5
t-243.5 244t-352 87.5q-195 0 -351 -87.5t-243.5 -244t-87.5 -352.5t87.5 -352.5t243.5 -244t351 -87.5zM1117 1219v-925h-152v734l-169 -150l-87 99l269 242h139z" />
    <glyph glyph-name="uni2781" unicode="&#x2781;" horiz-adv-x="1991" 
d="M995 1573q180 0 337 -62.5t268 -172t175 -265t64 -335.5q0 -240 -109 -430.5t-301.5 -297t-433.5 -106.5q-240 0 -432 106.5t-300.5 297t-108.5 430.5q0 180 63.5 335.5t174.5 265t267 172t336 62.5zM995 54q147 0 274 51.5t217 141.5t141.5 217t51.5 274t-51.5 274
t-141.5 217t-217 141.5t-274 51.5q-195 0 -351 -87.5t-243.5 -244t-87.5 -352.5t87.5 -352.5t243.5 -244t351 -87.5zM1105 638l-217 -211h420v-133h-640v124l317 307q91 89 122 136.5t31 107.5q0 58 -40 94.5t-109 36.5q-72 0 -118.5 -44.5t-60.5 -126.5l-143 33
q27 132 113.5 203t211.5 71q136 0 219 -72.5t83 -192.5q0 -83 -42 -157t-147 -176z" />
    <glyph glyph-name="uni2782" unicode="&#x2782;" horiz-adv-x="1991" 
d="M996 1573q180 0 336.5 -62.5t268 -172t175 -265t63.5 -335.5t-63.5 -335t-175 -264.5t-268 -172t-336.5 -62.5q-241 0 -433 106.5t-300.5 297t-108.5 430.5q0 180 63.5 335.5t174.5 265t267.5 172t336.5 62.5zM996 54q196 0 352 87.5t243.5 244t87.5 352.5t-87.5 352.5
t-243.5 244t-352 87.5t-352 -87.5t-243.5 -244t-87.5 -352.5t87.5 -352.5t243.5 -244t352 -87.5zM1169 770q72 -31 113 -87t41 -131q0 -125 -89 -200.5t-237 -75.5q-129 0 -220 59.5t-129 166.5l133 58q56 -148 211 -148q78 0 125.5 42t47.5 110q0 64 -44.5 100t-119.5 36
h-81v129h67q73 0 115 35.5t42 101.5q0 61 -42 98.5t-109 37.5q-73 0 -120.5 -39.5t-67.5 -110.5l-137 39q31 117 116.5 181t211.5 64q136 0 220 -72.5t84 -190.5q0 -135 -131 -203z" />
    <glyph glyph-name="uni2783" unicode="&#x2783;" horiz-adv-x="1991" 
d="M995 1573q180 0 337 -62.5t268 -172t175 -265t64 -335.5q0 -240 -109 -430.5t-301.5 -297t-433.5 -106.5q-240 0 -432 106.5t-300.5 297t-108.5 430.5q0 180 63.5 335.5t174.5 265t267 172t336 62.5zM995 54q147 0 274 51.5t217 141.5t141.5 217t51.5 274t-51.5 274
t-141.5 217t-217 141.5t-274 51.5q-195 0 -351 -87.5t-243.5 -244t-87.5 -352.5t87.5 -352.5t243.5 -244t351 -87.5zM1195 1219v-596h130v-134h-130v-195h-153v195h-438v127l424 603h167zM756 623h286v415z" />
    <glyph glyph-name="uni2784" unicode="&#x2784;" horiz-adv-x="1991" 
d="M995 1573q180 0 337 -62.5t268 -172t175 -265t64 -335.5q0 -240 -109 -430.5t-301.5 -297t-433.5 -106.5q-240 0 -432 106.5t-300.5 297t-108.5 430.5q0 180 63.5 335.5t174.5 265t267 172t336 62.5zM995 54q147 0 274 51.5t217 141.5t141.5 217t51.5 274t-51.5 274
t-141.5 217t-217 141.5t-274 51.5q-195 0 -351 -87.5t-243.5 -244t-87.5 -352.5t87.5 -352.5t243.5 -244t351 -87.5zM1017 907q137 0 219.5 -84t82.5 -223q0 -145 -92 -234.5t-243 -89.5q-116 0 -206 53.5t-128 145.5l131 71q24 -63 77 -97.5t125 -34.5q83 0 131 53.5
t48 133.5q0 81 -47.5 131t-124.5 50q-118 0 -173 -92h-137l62 529h531v-134h-409l-28 -244q78 66 181 66z" />
    <glyph glyph-name="uni2785" unicode="&#x2785;" horiz-adv-x="1991" 
d="M996 1573q180 0 336.5 -62.5t268 -172t175 -265t63.5 -335.5t-63.5 -335t-175 -264.5t-268 -172t-336.5 -62.5q-241 0 -433 106.5t-300.5 297t-108.5 430.5q0 180 63.5 335.5t174.5 265t267.5 172t336.5 62.5zM996 54q196 0 352 87.5t243.5 244t87.5 352.5t-87.5 352.5
t-243.5 244t-352 87.5t-352 -87.5t-243.5 -244t-87.5 -352.5t87.5 -352.5t243.5 -244t352 -87.5zM1017 900q138 0 222 -84.5t84 -223.5q0 -142 -89 -229t-234 -87q-118 0 -197.5 59t-119.5 161q-36 90 -36 243q0 239 98.5 368t270.5 129q195 0 297 -164l-116 -80
q-61 110 -176 110q-50 0 -89 -19.5t-63 -50.5t-40 -73t-23 -82.5t-8 -84.5q80 108 219 108zM999 408q79 0 125.5 50.5t46.5 132.5q0 83 -46.5 133.5t-126.5 50.5q-84 0 -132 -53.5t-48 -130.5q0 -76 49.5 -129.5t131.5 -53.5z" />
    <glyph glyph-name="uni2786" unicode="&#x2786;" horiz-adv-x="1991" 
d="M995 1573q180 0 337 -62.5t268 -172t175 -265t64 -335.5q0 -240 -109 -430.5t-301.5 -297t-433.5 -106.5q-240 0 -432 106.5t-300.5 297t-108.5 430.5q0 180 63.5 335.5t174.5 265t267 172t336 62.5zM995 54q147 0 274 51.5t217 141.5t141.5 217t51.5 274t-51.5 274
t-141.5 217t-217 141.5t-274 51.5q-195 0 -351 -87.5t-243.5 -244t-87.5 -352.5t87.5 -352.5t243.5 -244t351 -87.5zM675 1085v134h646v-127q-167 -193 -241.5 -376.5t-81.5 -421.5h-161q8 234 79.5 416t232.5 375h-474z" />
    <glyph glyph-name="uni2787" unicode="&#x2787;" horiz-adv-x="1991" 
d="M996 -96q-241 0 -433 106.5t-300.5 297t-108.5 430.5q0 180 63.5 335.5t174.5 265t267.5 172t336.5 62.5t336.5 -62.5t268 -172t175 -265t63.5 -335.5t-63.5 -335t-175 -264.5t-268 -172t-336.5 -62.5zM996 54q196 0 352 87.5t243.5 244t87.5 352.5t-87.5 352.5
t-243.5 244t-352 87.5t-352 -87.5t-243.5 -244t-87.5 -352.5t87.5 -352.5t243.5 -244t352 -87.5zM999 276q-158 0 -252 74t-94 197q0 164 176 223q-66 25 -106.5 81t-40.5 126q0 112 87 185.5t230 73.5t230.5 -73.5t87.5 -185.5q0 -70 -41 -126t-107 -81q177 -60 177 -223
q0 -123 -94.5 -197t-252.5 -74zM999 824q76 0 123.5 40t47.5 102q0 66 -47.5 107t-123.5 41t-123.5 -41t-47.5 -107q0 -62 47.5 -102t123.5 -40zM999 401q88 0 140.5 43t52.5 114q0 70 -52.5 110.5t-140.5 40.5t-140 -40t-52 -111t52 -114t140 -43z" />
    <glyph glyph-name="uni2788" unicode="&#x2788;" horiz-adv-x="1991" 
d="M996 1573q180 0 336.5 -62.5t268 -172t175 -265t63.5 -335.5t-63.5 -335t-175 -264.5t-268 -172t-336.5 -62.5q-241 0 -433 106.5t-300.5 297t-108.5 430.5q0 180 63.5 335.5t174.5 265t267.5 172t336.5 62.5zM996 54q196 0 352 87.5t243.5 244t87.5 352.5t-87.5 352.5
t-243.5 244t-352 87.5t-352 -87.5t-243.5 -244t-87.5 -352.5t87.5 -352.5t243.5 -244t352 -87.5zM992 1236q231 0 316 -209q38 -92 38 -252q0 -241 -96.5 -370.5t-258.5 -129.5q-204 0 -310 174l114 80q63 -118 191 -118q92 0 148.5 80.5t60.5 231.5q-81 -101 -217 -101
q-139 0 -223.5 84.5t-84.5 218.5q0 138 86.5 224.5t235.5 86.5zM995 746q84 0 132.5 52t48.5 129q0 75 -49.5 127t-131.5 52q-79 0 -126.5 -49t-47.5 -130t47.5 -131t126.5 -50z" />
    <glyph glyph-name="uni278A" unicode="&#x278a;" horiz-adv-x="1991" 
d="M996 -96q-180 0 -336.5 62.5t-267.5 172t-174.5 264.5t-63.5 335q0 144 40.5 273t116 231t178.5 176.5t233 114.5t274 40q180 0 336.5 -62.5t267.5 -172t175 -265t64 -335.5q0 -240 -109 -430.5t-301.5 -297t-432.5 -106.5zM965 294h152v925h-139l-270 -242l88 -99
l169 150v-734z" />
    <glyph glyph-name="uni278B" unicode="&#x278b;" horiz-adv-x="1991" 
d="M996 -96q-180 0 -336.5 62.5t-267.5 172t-174.5 264.5t-63.5 335q0 144 40.5 273t116 231t178.5 176.5t233 114.5t274 40q180 0 336.5 -62.5t267.5 -172t175 -265t64 -335.5q0 -240 -109 -430.5t-301.5 -297t-432.5 -106.5zM668 294h640v133h-421l217 210
q104 100 147 175t43 158q0 121 -83 193.5t-218 72.5q-126 0 -213 -71t-113 -203l143 -33q14 81 60.5 126t117.5 45q70 0 110 -36.5t40 -95.5t-31 -106.5t-122 -136.5l-317 -307v-124z" />
    <glyph glyph-name="uni278C" unicode="&#x278c;" horiz-adv-x="1991" 
d="M996 -96q-180 0 -336.5 62.5t-267.5 172t-174.5 264.5t-63.5 335q0 144 40.5 273t116 231t178.5 176.5t233 114.5t274 40q180 0 336.5 -62.5t267.5 -172t175 -265t64 -335.5q0 -240 -109 -430.5t-301.5 -297t-432.5 -106.5zM997 276q148 0 237 75.5t89 200.5
q0 75 -41 131t-113 87q131 68 131 203q0 118 -84 190.5t-220 72.5q-126 0 -211.5 -64t-116.5 -181l137 -39q20 71 67.5 110.5t120.5 39.5q67 0 109 -37.5t42 -98.5q0 -66 -42 -101.5t-115 -35.5h-67v-129h81q75 0 119.5 -36t44.5 -100q0 -68 -47.5 -110t-125.5 -42
q-155 0 -211 148l-133 -58q38 -107 129 -166.5t220 -59.5z" />
    <glyph glyph-name="uni278D" unicode="&#x278d;" horiz-adv-x="1991" 
d="M996 -96q-180 0 -336.5 62.5t-267.5 172t-174.5 264.5t-63.5 335q0 144 40.5 273t116 231t178.5 176.5t233 114.5t274 40q180 0 336.5 -62.5t267.5 -172t175 -265t64 -335.5q0 -240 -109 -430.5t-301.5 -297t-432.5 -106.5zM1042 294h153v195h130v134h-130v596h-167
l-424 -603v-127h438v-195zM756 623l286 415v-415h-286z" />
    <glyph glyph-name="uni278E" unicode="&#x278e;" horiz-adv-x="1991" 
d="M996 -96q-180 0 -336.5 62.5t-267.5 172t-174.5 264.5t-63.5 335q0 144 40.5 273t116 231t178.5 176.5t233 114.5t274 40q180 0 336.5 -62.5t267.5 -172t175 -265t64 -335.5q0 -240 -109 -430.5t-301.5 -297t-432.5 -106.5zM983 276q152 0 244 89.5t92 235.5
q0 138 -82.5 222t-219.5 84q-104 0 -181 -66l28 244h409v134h-530l-63 -529h137q54 92 172 92q78 0 125.5 -49.5t47.5 -131.5q0 -84 -49.5 -135.5t-130.5 -51.5q-71 0 -124 35t-77 97l-131 -71q39 -92 128 -145.5t205 -53.5z" />
    <glyph glyph-name="uni278F" unicode="&#x278f;" horiz-adv-x="1991" 
d="M996 -96q-180 0 -336.5 62.5t-267.5 172t-174.5 264.5t-63.5 335q0 144 40.5 273t116 231t178.5 176.5t233 114.5t274 40q180 0 336.5 -62.5t267.5 -172t175 -265t64 -335.5q0 -240 -109 -430.5t-301.5 -297t-432.5 -106.5zM1000 276q145 0 234 87t89 229
q0 139 -84 223.5t-222 84.5q-139 0 -219 -108q0 10 2 30q4 53 16.5 99.5t37 89t67.5 67t100 24.5q115 0 176 -110l116 80q-102 164 -297 164q-172 0 -270.5 -129t-98.5 -368q0 -153 36 -243q40 -102 119.5 -161t197.5 -59zM999 408q-82 0 -131.5 53.5t-49.5 129.5
q0 77 48 130.5t132 53.5q80 0 126.5 -50.5t46.5 -133.5q0 -82 -46.5 -132.5t-125.5 -50.5z" />
    <glyph glyph-name="uni2790" unicode="&#x2790;" horiz-adv-x="1991" 
d="M996 -96q-180 0 -336.5 62.5t-267.5 172t-174.5 264.5t-63.5 335q0 144 40.5 273t116 231t178.5 176.5t233 114.5t274 40q180 0 336.5 -62.5t267.5 -172t175 -265t64 -335.5q0 -240 -109 -430.5t-301.5 -297t-432.5 -106.5zM837 294h161q7 237 82 422t241 376v127h-646
v-134h475q-161 -192 -233 -374.5t-80 -416.5z" />
    <glyph glyph-name="uni2791" unicode="&#x2791;" horiz-adv-x="1991" 
d="M996 -96q-180 0 -336.5 62.5t-267.5 172t-174.5 264.5t-63.5 335q0 144 40.5 273t116 231t178.5 176.5t233 114.5t274 40q180 0 336.5 -62.5t267.5 -172t175 -265t64 -335.5q0 -240 -109 -430.5t-301.5 -297t-432.5 -106.5zM999 276q158 0 252.5 74t94.5 197
q0 163 -177 223q66 25 107 81t41 126q0 112 -87.5 185.5t-230.5 73.5t-230 -73.5t-87 -185.5q0 -70 40.5 -126t106.5 -81q-176 -59 -176 -223q0 -123 94 -197t252 -74zM999 824q-76 0 -123.5 40t-47.5 102q0 66 47.5 107t123.5 41t123.5 -41t47.5 -107q0 -62 -47.5 -102
t-123.5 -40zM999 401q-88 0 -140 43t-52 114t52 111t140 40t140.5 -40.5t52.5 -110.5q0 -71 -52.5 -114t-140.5 -43z" />
    <glyph glyph-name="uni2792" unicode="&#x2792;" horiz-adv-x="1991" 
d="M996 -96q-180 0 -336.5 62.5t-267.5 172t-174.5 264.5t-63.5 335q0 144 40.5 273t116 231t178.5 176.5t233 114.5t274 40q180 0 336.5 -62.5t267.5 -172t175 -265t64 -335.5q0 -240 -109 -430.5t-301.5 -297t-432.5 -106.5zM991 275q162 0 258.5 129.5t96.5 370.5
q0 160 -38 252q-85 209 -316 209q-149 0 -235.5 -86.5t-86.5 -224.5q0 -134 84.5 -218.5t223.5 -84.5q137 0 217 101q0 -8 -1 -20q-8 -143 -63 -217.5t-145 -74.5q-128 0 -191 118l-114 -80q106 -174 310 -174zM995 746q-79 0 -126.5 50t-47.5 131t47.5 130t126.5 49
q82 0 131.5 -52t49.5 -127q0 -77 -48.5 -129t-132.5 -52z" />
    <glyph glyph-name="uniFEFF" unicode="&#xfeff;" horiz-adv-x="0" 
 />
    <glyph glyph-name="Cacute.loclPLK" horiz-adv-x="1476" 
d="M647 1576l112 293h185l-146 -293h-151zM796 -30q-206 0 -360.5 95.5t-237 269t-82.5 402.5q0 348 182.5 557.5t492.5 209.5q186 0 334 -86.5t243 -257.5l-157 -84q-151 253 -417 253q-222 0 -355 -161t-133 -431t135.5 -431t358.5 -161q142 0 240.5 68t168.5 211l162 -80
q-97 -190 -239 -282t-336 -92z" />
    <glyph glyph-name="Nacute.loclPLK" horiz-adv-x="1513" 
d="M932 1869l-147 -293h-151l111 293h187zM1140 1475h185v-1475h-233l-718 1202v-1202h-186v1475h227l725 -1209v1209z" />
    <glyph glyph-name="Oacute.loclPLK" horiz-adv-x="1603" 
d="M662 1574l111 293h185l-146 -293h-150zM802 -30q-316 0 -501 209.5t-185 557.5t185 557.5t501 209.5t501.5 -209.5t185.5 -557.5t-185.5 -557.5t-501.5 -209.5zM802 145q225 0 360 159.5t135 432.5t-135 432.5t-360 159.5q-224 0 -360 -160t-136 -432t136 -432t360 -160z
" />
    <glyph glyph-name="Sacute.loclPLK" horiz-adv-x="1347" 
d="M545 1576l111 293h186l-146 -293h-151zM691 -29q-205 0 -359 84t-236 242l154 91q122 -247 442 -247q162 0 260.5 70t98.5 185q0 39 -12 72t-30 57t-50.5 44.5t-61 34t-75 26.5t-80 20.5t-87.5 18.5q-51 10 -82.5 16.5t-80 19t-79.5 24t-71.5 30.5t-66.5 39.5t-53.5 50
t-43.5 63t-26 77t-10 94.5q0 189 146.5 304t390.5 115q190 0 336 -78.5t219 -221.5l-154 -86q-49 102 -156 159t-246 57q-156 0 -251 -68.5t-95 -176.5q0 -36 11.5 -65.5t27.5 -51t48 -40.5t57.5 -30.5t72 -23.5t76.5 -18.5t84 -17.5q52 -10 84.5 -17t82.5 -19.5t82 -25
t74.5 -32.5t69.5 -42t56 -53t45.5 -67t27 -83t10.5 -101q0 -194 -150.5 -311.5t-399.5 -117.5z" />
    <glyph glyph-name="Zacute.loclPLK" horiz-adv-x="1303" 
d="M495 1576l111 293h186l-147 -293h-150zM96 0v159l849 1146h-829v170h1066v-160l-850 -1145h870v-170h-1106z" />
    <glyph glyph-name="G.ss01" horiz-adv-x="1530" 
d="M807 -30q-204 0 -361.5 95t-243.5 268t-86 399q0 348 189.5 560t497.5 212q355 0 550 -287l-148 -103q-73 112 -171 164t-233 52q-221 0 -358 -162.5t-137 -430.5q0 -267 138.5 -430t365.5 -163q191 0 308.5 123t117.5 322v21h-415v164h594v-151q0 -294 -167 -473.5
t-441 -179.5z" />
    <glyph glyph-name="uni01F4.ss01" horiz-adv-x="1530" 
d="M695 1576l157 293h189l-190 -293h-156zM807 -30q-204 0 -361.5 95t-243.5 268t-86 399q0 348 189.5 560t497.5 212q355 0 550 -287l-148 -103q-73 112 -171 164t-233 52q-221 0 -358 -162.5t-137 -430.5q0 -267 138.5 -430t365.5 -163q191 0 308.5 123t117.5 322v21h-415
v164h594v-151q0 -294 -167 -473.5t-441 -179.5z" />
    <glyph glyph-name="Gbreve.ss01" horiz-adv-x="1530" 
d="M803 1565q-127 0 -209 83t-90 221h139q9 -84 53 -133.5t107 -49.5t106.5 50t52.5 133h139q-8 -138 -90 -221t-208 -83zM807 -30q-204 0 -361.5 95t-243.5 268t-86 399q0 348 189.5 560t497.5 212q355 0 550 -287l-148 -103q-73 112 -171 164t-233 52q-221 0 -358 -162.5
t-137 -430.5q0 -267 138.5 -430t365.5 -163q191 0 308.5 123t117.5 322v21h-415v164h594v-151q0 -294 -167 -473.5t-441 -179.5z" />
    <glyph glyph-name="Gcircumflex.ss01" horiz-adv-x="1530" 
d="M804 1745l-139 -170h-171l223 294h172l221 -294h-171zM821 774h594v-151q0 -294 -167 -473.5t-441 -179.5q-204 0 -361.5 95t-243.5 268t-86 399q0 348 189.5 560t497.5 212q355 0 550 -287l-148 -103q-73 112 -171 164t-233 52q-221 0 -358 -162.5t-137 -430.5
q0 -267 138.5 -430t365.5 -163q191 0 308.5 123t117.5 322v21h-415v164z" />
    <glyph glyph-name="uni0122.ss01" horiz-adv-x="1530" 
d="M821 774h594v-151q0 -294 -167 -473.5t-441 -179.5q-204 0 -361.5 95t-243.5 268t-86 399q0 348 189.5 560t497.5 212q355 0 550 -287l-148 -103q-73 112 -171 164t-233 52q-221 0 -358 -162.5t-137 -430.5q0 -267 138.5 -430t365.5 -163q191 0 308.5 123t117.5 322v21
h-415v164zM699 -261v179h212v-184q0 -60 -33.5 -103t-101.5 -78l-54 75q51 27 70 50.5t19 60.5h-112z" />
    <glyph glyph-name="Gdotaccent.ss01" horiz-adv-x="1530" 
d="M706 1616v199h193v-199h-193zM807 -30q-204 0 -361.5 95t-243.5 268t-86 399q0 348 189.5 560t497.5 212q355 0 550 -287l-148 -103q-73 112 -171 164t-233 52q-221 0 -358 -162.5t-137 -430.5q0 -267 138.5 -430t365.5 -163q191 0 308.5 123t117.5 322v21h-415v164h594
v-151q0 -294 -167 -473.5t-441 -179.5z" />
    <glyph glyph-name="j.calt" horiz-adv-x="510" 
d="M159 1276v199h193v-199h-193zM80 -378q-56 0 -111 17l31 150q36 -9 66 -9q57 0 80 33.5t23 116.5v1138h174v-1181q0 -265 -263 -265z" />
    <glyph glyph-name="uni0237.calt" horiz-adv-x="510" 
d="M80 -378q-56 0 -111 17l31 150q36 -9 66 -9q57 0 80 33.5t23 116.5v1138h174v-1181q0 -265 -263 -265z" />
    <glyph glyph-name="jcircumflex.calt" horiz-adv-x="510" 
d="M342 1508l221 -295h-171l-135 171l-139 -171h-171l223 295h172zM169 -70v1138h174v-1181q0 -265 -263 -265q-56 0 -111 17l31 150q36 -9 66 -9q57 0 80 33.5t23 116.5z" />
    <glyph glyph-name="i.latn_TRK" horiz-adv-x="510" 
d="M159 1276v199h193v-199h-193zM169 0v1068h174v-1068h-174z" />
    <glyph glyph-name="cacute.loclPLK" horiz-adv-x="1108" 
d="M464 1219l111 292h186l-147 -292h-150zM609 -27q-233 0 -373.5 152.5t-140.5 406.5t140 406.5t370 152.5q288 0 424 -241l-148 -84q-98 164 -269 164q-154 0 -245.5 -108t-91.5 -290q0 -183 92 -290.5t245 -107.5q173 0 269 177l152 -78q-77 -143 -183 -201.5t-241 -58.5
z" />
    <glyph glyph-name="nacute.loclPLK" horiz-adv-x="1207" 
d="M767 1511l-146 -292h-152l112 292h186zM691 1095q160 0 259 -98t99 -267v-730h-175v691q0 118 -60 182.5t-165 64.5q-134 0 -220 -93t-86 -211v-634h-174v1068h172v-137q14 24 39.5 49t67 52.5t105 45t138.5 17.5z" />
    <glyph glyph-name="oacute.loclPLK" horiz-adv-x="1214" 
d="M466 1219l112 292h185l-147 -292h-150zM607 -27q-229 0 -370.5 154t-141.5 408t141.5 407t370.5 153t370.5 -153t141.5 -407t-141.5 -408t-370.5 -154zM607 136q150 0 240.5 108.5t90.5 290.5t-90.5 290t-240.5 108q-151 0 -241 -108t-90 -290t90.5 -290.5t240.5 -108.5z
" />
    <glyph glyph-name="sacute.loclPLK" horiz-adv-x="1052" 
d="M396 1219l112 292h185l-146 -292h-151zM544 -28q-167 0 -284 63.5t-184 172.5l137 95q107 -170 333 -170q109 0 174 43.5t65 117.5q0 28 -9 50.5t-29.5 38.5t-41 27t-58 20.5t-63.5 15t-74 13.5q-82 14 -143 33.5t-119.5 55.5t-90 96t-31.5 141q0 147 111 229t293 82
q268 0 410 -201l-135 -96q-98 137 -275 137q-100 0 -163.5 -37.5t-63.5 -106.5q0 -33 14.5 -59t37 -43t60 -31t72.5 -22t85 -17q49 -9 81.5 -15.5t77.5 -20t74.5 -28.5t62.5 -39.5t52 -54t31.5 -71.5t12.5 -93q0 -152 -114 -239t-306 -87z" />
    <glyph glyph-name="zacute.loclPLK" horiz-adv-x="1031" 
d="M375 1219l111 292h186l-147 -292h-150zM96 0v141l590 773h-561v154h781v-143l-591 -771h611v-154h-830z" />
    <glyph glyph-name="germandbls.sc" horiz-adv-x="1210" 
d="M765 692q139 -6 234.5 -101.5t95.5 -252.5q0 -160 -104 -258t-274 -98q-108 0 -202 24l34 152q94 -21 152 -21q99 0 158.5 55.5t59.5 148.5q0 94 -57.5 151t-151.5 57q-32 0 -57 -11l-105 127l280 318h-272q-116 0 -169 -62t-53 -187v-734h-174v756q0 182 96 282.5
t280 100.5h504v-139z" />
    <glyph glyph-name="a.ss02" horiz-adv-x="1258" 
d="M918 1068h173v-1068h-173v151q-47 -74 -137.5 -126t-221.5 -52q-196 0 -330 157.5t-134 403.5t134 403.5t330 157.5q128 0 219.5 -51.5t139.5 -127.5v152zM598 135q141 0 232.5 110.5t91.5 288.5t-92 288.5t-232 110.5q-137 0 -229.5 -105t-92.5 -294t92.5 -294
t229.5 -105z" />
    <glyph glyph-name="aacute.ss02" horiz-adv-x="1258" 
d="M842 1511l-191 -292h-155l155 292h191zM918 1068h173v-1068h-173v151q-47 -74 -137.5 -126t-221.5 -52q-196 0 -330 157.5t-134 403.5t134 403.5t330 157.5q128 0 219.5 -51.5t139.5 -127.5v152zM598 135q141 0 232.5 110.5t91.5 288.5t-92 288.5t-232 110.5
q-137 0 -229.5 -105t-92.5 -294t92.5 -294t229.5 -105z" />
    <glyph glyph-name="abreve.ss02" horiz-adv-x="1258" 
d="M613 1203q-127 0 -209 83t-90 222h140q9 -84 52.5 -134t106.5 -50t106.5 50t52.5 134h140q-9 -139 -91 -222t-208 -83zM918 1068h173v-1068h-173v151q-47 -74 -137.5 -126t-221.5 -52q-196 0 -330 157.5t-134 403.5t134 403.5t330 157.5q128 0 219.5 -51.5t139.5 -127.5
v152zM598 135q141 0 232.5 110.5t91.5 288.5t-92 288.5t-232 110.5q-137 0 -229.5 -105t-92.5 -294t92.5 -294t229.5 -105z" />
    <glyph glyph-name="acircumflex.ss02" horiz-adv-x="1258" 
d="M614 1384l-139 -171h-171l223 295h172l222 -295h-170zM918 1068h173v-1068h-173v151q-47 -74 -137.5 -126t-221.5 -52q-196 0 -330 157.5t-134 403.5t134 403.5t330 157.5q128 0 219.5 -51.5t139.5 -127.5v152zM598 135q141 0 232.5 110.5t91.5 288.5t-92 288.5
t-232 110.5q-137 0 -229.5 -105t-92.5 -294t92.5 -294t229.5 -105z" />
    <glyph glyph-name="adieresis.ss02" horiz-adv-x="1258" 
d="M522 1475v-191h-190v191h190zM895 1475v-191h-192v191h192zM918 1068h173v-1068h-173v151q-47 -74 -137.5 -126t-221.5 -52q-196 0 -330 157.5t-134 403.5t134 403.5t330 157.5q128 0 219.5 -51.5t139.5 -127.5v152zM598 135q141 0 232.5 110.5t91.5 288.5t-92 288.5
t-232 110.5q-137 0 -229.5 -105t-92.5 -294t92.5 -294t229.5 -105z" />
    <glyph glyph-name="agrave.ss02" horiz-adv-x="1258" 
d="M731 1219h-156l-190 292h190zM918 1068h173v-1068h-173v151q-47 -74 -137.5 -126t-221.5 -52q-196 0 -330 157.5t-134 403.5t134 403.5t330 157.5q128 0 219.5 -51.5t139.5 -127.5v152zM598 135q141 0 232.5 110.5t91.5 288.5t-92 288.5t-232 110.5q-137 0 -229.5 -105
t-92.5 -294t92.5 -294t229.5 -105z" />
    <glyph glyph-name="amacron.ss02" horiz-adv-x="1258" 
d="M898 1411v-136h-571v136h571zM918 1068h173v-1068h-173v151q-47 -74 -137.5 -126t-221.5 -52q-196 0 -330 157.5t-134 403.5t134 403.5t330 157.5q128 0 219.5 -51.5t139.5 -127.5v152zM598 135q141 0 232.5 110.5t91.5 288.5t-92 288.5t-232 110.5q-137 0 -229.5 -105
t-92.5 -294t92.5 -294t229.5 -105z" />
    <glyph glyph-name="aogonek.ss02" horiz-adv-x="1258" 
d="M1049 -262l63 -111q-80 -53 -157 -53q-109 0 -175.5 56t-66.5 147q0 135 205 241v133q-47 -74 -137.5 -126t-221.5 -52q-196 0 -330 157.5t-134 403.5t134 403.5t330 157.5q128 0 219.5 -51.5t139.5 -127.5v152h173v-1068h-55q-82 -42 -131 -96t-49 -104
q0 -42 28.5 -68.5t74.5 -26.5q45 0 90 33zM598 135q141 0 232.5 110.5t91.5 288.5t-92 288.5t-232 110.5q-137 0 -229.5 -105t-92.5 -294t92.5 -294t229.5 -105z" />
    <glyph glyph-name="aring.ss02" horiz-adv-x="1258" 
d="M613 1182q-97 0 -160.5 63t-63.5 159t63.5 159t160.5 63q96 0 159.5 -63t63.5 -159t-63.5 -159t-159.5 -63zM613 1510q-45 0 -73 -29t-28 -77q0 -49 28 -78.5t73 -29.5q44 0 72 30.5t28 77.5q0 48 -28 77t-72 29zM918 1068h173v-1068h-173v151q-47 -74 -137.5 -126
t-221.5 -52q-196 0 -330 157.5t-134 403.5t134 403.5t330 157.5q128 0 219.5 -51.5t139.5 -127.5v152zM598 135q141 0 232.5 110.5t91.5 288.5t-92 288.5t-232 110.5q-137 0 -229.5 -105t-92.5 -294t92.5 -294t229.5 -105z" />
    <glyph glyph-name="aringacute.ss02" horiz-adv-x="1258" 
d="M859 1968l-190 -293h-156l157 293h189zM613 1182q-97 0 -160.5 63t-63.5 159t63.5 159t160.5 63q96 0 159.5 -63t63.5 -159t-63.5 -159t-159.5 -63zM613 1510q-45 0 -73 -29t-28 -77q0 -49 28 -78.5t73 -29.5q44 0 72 30.5t28 77.5q0 48 -28 77t-72 29zM918 1068h173
v-1068h-173v151q-47 -74 -137.5 -126t-221.5 -52q-196 0 -330 157.5t-134 403.5t134 403.5t330 157.5q128 0 219.5 -51.5t139.5 -127.5v152zM598 135q141 0 232.5 110.5t91.5 288.5t-92 288.5t-232 110.5q-137 0 -229.5 -105t-92.5 -294t92.5 -294t229.5 -105z" />
    <glyph glyph-name="atilde.ss02" horiz-adv-x="1258" 
d="M479 1337q-29 0 -55 -20t-65 -73l-107 86q58 80 112.5 117.5t115.5 37.5q71 0 156 -52q64 -40 102 -40q24 0 47 14t37 30t39 49l108 -86q-58 -80 -113 -117.5t-117 -37.5q-68 0 -156 53q-68 39 -104 39zM918 1068h173v-1068h-173v151q-47 -74 -137.5 -126t-221.5 -52
q-196 0 -330 157.5t-134 403.5t134 403.5t330 157.5q128 0 219.5 -51.5t139.5 -127.5v152zM598 135q141 0 232.5 110.5t91.5 288.5t-92 288.5t-232 110.5q-137 0 -229.5 -105t-92.5 -294t92.5 -294t229.5 -105z" />
    <glyph glyph-name="germandbls.ss03" horiz-adv-x="1164" 
d="M717 592q165 0 266 -110t101 -287q0 -218 -146.5 -366.5t-421.5 -212.5l-49 151q217 51 327.5 160.5t110.5 269.5q0 115 -61 185t-161 70q-48 0 -74 -14l-119 143l278 334h-425v-915h-174v1185q0 155 85.5 235t223.5 80q70 0 142 -24l-45 -146q-49 12 -89 12
q-81 0 -112 -46.5t-31 -154.5v-72h637v-141l-287 -337q8 1 24 1z" />
    <glyph glyph-name="a.sc" horiz-adv-x="1212" 
d="M973 0l-113 286h-511l-112 -286h-186l460 1139h190l460 -1139h-188zM411 440h388l-194 492z" />
    <glyph glyph-name="aacute.sc" horiz-adv-x="1212" 
d="M846 1519l-191 -293h-155l155 293h191zM973 0l-113 286h-511l-112 -286h-186l460 1139h190l460 -1139h-188zM411 440h388l-194 492z" />
    <glyph glyph-name="abreve.sc" horiz-adv-x="1212" 
d="M608 1211q-126 0 -208.5 83.5t-90.5 221.5h140q9 -83 52.5 -133t106.5 -50t107 50t52 133h140q-9 -138 -91.5 -221.5t-207.5 -83.5zM973 0l-113 286h-511l-112 -286h-186l460 1139h190l460 -1139h-188zM411 440h388l-194 492z" />
    <glyph glyph-name="acircumflex.sc" horiz-adv-x="1212" 
d="M609 1392l-139 -171h-170l222 295h172l221 -295h-170zM973 0l-113 286h-511l-112 -286h-186l460 1139h190l460 -1139h-188zM411 440h388l-194 492z" />
    <glyph glyph-name="adieresis.sc" horiz-adv-x="1212" 
d="M518 1482v-192h-191v192h191zM890 1482v-192h-192v192h192zM973 0l-113 286h-511l-112 -286h-186l460 1139h190l460 -1139h-188zM411 440h388l-194 492z" />
    <glyph glyph-name="agrave.sc" horiz-adv-x="1212" 
d="M717 1226h-156l-190 293h190zM973 0l-113 286h-511l-112 -286h-186l460 1139h190l460 -1139h-188zM411 440h388l-194 492z" />
    <glyph glyph-name="amacron.sc" horiz-adv-x="1212" 
d="M893 1446v-135h-571v135h571zM973 0l-113 286h-511l-112 -286h-186l460 1139h190l460 -1139h-188zM411 440h388l-194 492z" />
    <glyph glyph-name="aogonek.sc" horiz-adv-x="1212" 
d="M1129 -262l64 -111q-80 -53 -157 -53q-109 0 -175.5 56t-66.5 147q0 126 177 227l-111 282h-511l-112 -286h-186l460 1139h190l460 -1139h-44q-82 -42 -131 -96t-49 -104q0 -42 28.5 -68.5t74.5 -26.5q44 0 89 33zM411 440h388l-194 492z" />
    <glyph glyph-name="aring.sc" horiz-adv-x="1212" 
d="M608 1189q-97 0 -160 63t-63 159t63 158.5t160 62.5q96 0 159 -63t63 -158q0 -96 -63 -159t-159 -63zM608 1518q-45 0 -73 -29.5t-28 -77.5q0 -49 28 -78t73 -29q44 0 72 30t28 77q0 48 -28 77.5t-72 29.5zM973 0l-113 286h-511l-112 -286h-186l460 1139h190l460 -1139
h-188zM411 440h388l-194 492z" />
    <glyph glyph-name="aringacute.sc" horiz-adv-x="1212" 
d="M830 1764l-190 -293h-156l157 293h189zM973 0l-113 286h-511l-112 -286h-186l436 1081q-79 55 -79 156q0 83 57 138t143 55t143.5 -55t57.5 -138q0 -102 -84 -158l436 -1079h-188zM608 1327q-39 0 -63 -25t-24 -65q0 -39 24 -64.5t63 -25.5q38 0 62 25.5t24 64.5
q0 40 -24 65t-62 25zM411 440h388l-194 492z" />
    <glyph glyph-name="atilde.sc" horiz-adv-x="1212" 
d="M478 1345q-31 0 -58 -20.5t-66 -73.5l-107 86q59 80 115.5 117.5t123.5 37.5q63 0 141 -50q62 -42 106 -42q35 0 61 22.5t62 70.5l108 -86q-58 -80 -114.5 -117.5t-124.5 -37.5q-60 0 -140 52q-63 41 -107 41zM973 0l-113 286h-511l-112 -286h-186l460 1139h190
l460 -1139h-188zM411 440h388l-194 492z" />
    <glyph glyph-name="ae.sc" horiz-adv-x="1804" 
d="M1066 156h626v-156h-800v291h-453l-189 -291h-204l751 1139h887v-156h-618v-329h560v-150h-560v-348zM538 441h354v542z" />
    <glyph glyph-name="aeacute.sc" horiz-adv-x="1806" 
d="M1442 1519l-191 -293h-155l155 293h191zM1066 156h626v-156h-800v291h-453l-189 -291h-204l751 1139h887v-156h-618v-329h560v-150h-560v-348zM538 441h354v542z" />
    <glyph glyph-name="b.sc" horiz-adv-x="1195" 
d="M889 586q92 -33 141 -102t49 -169q0 -145 -94.5 -230t-262.5 -85h-547v1139h517q168 0 263.5 -81.5t95.5 -218.5q0 -176 -162 -253zM349 983v-328h322q91 0 146 43.5t55 120.5q0 76 -51.5 120t-143.5 44h-328zM706 157q92 0 144 46.5t52 126.5q0 82 -56 128t-147 46h-350
v-347h357z" />
    <glyph glyph-name="c.sc" horiz-adv-x="1205" 
d="M657 -24q-253 0 -404.5 163t-151.5 430q0 268 150 430.5t402 162.5q154 0 277 -70t197 -202l-145 -80q-118 192 -326 192q-171 0 -273 -117.5t-102 -315.5q0 -197 104 -315t275 -118q111 0 188.5 51t133.5 158l147 -76q-154 -293 -472 -293z" />
    <glyph glyph-name="cacute.sc" horiz-adv-x="1207" 
d="M544 1226l156 293h191l-192 -293h-155zM657 -24q-253 0 -404.5 163t-151.5 430q0 268 150 430.5t402 162.5q154 0 277 -70t197 -202l-145 -80q-118 192 -326 192q-171 0 -273 -117.5t-102 -315.5q0 -197 104 -315t275 -118q111 0 188.5 51t133.5 158l147 -76
q-154 -293 -472 -293z" />
    <glyph glyph-name="ccaron.sc" horiz-adv-x="1207" 
d="M735 1221h-172l-223 295h170l139 -171l136 171h171zM982 345l147 -76q-154 -293 -472 -293q-253 0 -404.5 163t-151.5 430q0 268 150 430.5t402 162.5q154 0 277 -70t197 -202l-145 -80q-118 192 -326 192q-171 0 -273 -117.5t-102 -315.5q0 -197 104 -315t275 -118
q111 0 188.5 51t133.5 158z" />
    <glyph glyph-name="ccedilla.sc" horiz-adv-x="1207" 
d="M1129 269q-138 -260 -404 -289l-96 -299h-154l97 301q-217 28 -344 186t-127 401q0 268 150 430.5t402 162.5q154 0 277 -70t197 -202l-145 -80q-118 192 -326 192q-171 0 -273 -117.5t-102 -315.5q0 -197 104 -315t275 -118q111 0 188.5 51t133.5 158z" />
    <glyph glyph-name="ccircumflex.sc" horiz-adv-x="1207" 
d="M654 1392l-139 -171h-171l223 295h172l222 -295h-170zM982 345l147 -76q-154 -293 -472 -293q-253 0 -404.5 163t-151.5 430q0 268 150 430.5t402 162.5q154 0 277 -70t197 -202l-145 -80q-118 192 -326 192q-171 0 -273 -117.5t-102 -315.5q0 -197 104 -315t275 -118
q111 0 188.5 51t133.5 158z" />
    <glyph glyph-name="cdotaccent.sc" horiz-adv-x="1207" 
d="M556 1282v200h194v-200h-194zM657 -24q-253 0 -404.5 163t-151.5 430q0 268 150 430.5t402 162.5q154 0 277 -70t197 -202l-145 -80q-118 192 -326 192q-171 0 -273 -117.5t-102 -315.5q0 -197 104 -315t275 -118q111 0 188.5 51t133.5 158l147 -76q-154 -293 -472 -293z
" />
    <glyph glyph-name="d.sc" horiz-adv-x="1260" 
d="M606 1139q252 0 402.5 -153.5t150.5 -416.5t-150 -416t-403 -153h-431v1139h431zM597 156q175 0 278.5 111.5t103.5 301.5q0 191 -103.5 302.5t-278.5 111.5h-248v-827h248z" />
    <glyph glyph-name="eth.sc" horiz-adv-x="1243" 
d="M588 1139q253 0 403.5 -153.5t150.5 -416.5t-150.5 -416t-403.5 -153h-430v497h-118v146h118v496h430zM579 156q176 0 279.5 111.5t103.5 301.5q0 191 -103.5 302.5t-279.5 111.5h-247v-340h302v-146h-302v-341h247z" />
    <glyph glyph-name="dcaron.sc" horiz-adv-x="1261" 
d="M663 1221h-171l-224 295h170l140 -171l136 171h170zM606 1139q252 0 402.5 -153.5t150.5 -416.5t-150 -416t-403 -153h-431v1139h431zM597 156q175 0 278.5 111.5t103.5 301.5q0 191 -103.5 302.5t-278.5 111.5h-248v-827h248z" />
    <glyph glyph-name="dcroat.sc" horiz-adv-x="1247" 
d="M588 1139q253 0 403.5 -153.5t150.5 -416.5t-150.5 -416t-403.5 -153h-430v497h-118v146h118v496h430zM579 156q176 0 279.5 111.5t103.5 301.5q0 191 -103.5 302.5t-279.5 111.5h-247v-340h302v-146h-302v-341h247z" />
    <glyph glyph-name="e.sc" horiz-adv-x="1118" 
d="M349 157h657v-157h-831v1139h822v-157h-648v-328h589v-151h-589v-346z" />
    <glyph glyph-name="eacute.sc" horiz-adv-x="1120" 
d="M837 1519l-191 -293h-156l156 293h191zM349 157h657v-157h-831v1139h822v-157h-648v-328h589v-151h-589v-346z" />
    <glyph glyph-name="ebreve.sc" horiz-adv-x="1120" 
d="M599 1211q-126 0 -208.5 83.5t-90.5 221.5h139q9 -83 53 -133t107 -50t107 50t52 133h140q-9 -138 -91.5 -221.5t-207.5 -83.5zM349 157h657v-157h-831v1139h822v-157h-648v-328h589v-151h-589v-346z" />
    <glyph glyph-name="ecaron.sc" horiz-adv-x="1120" 
d="M681 1221h-172l-223 295h171l139 -170l135 170h171zM349 157h657v-157h-831v1139h822v-157h-648v-328h589v-151h-589v-346z" />
    <glyph glyph-name="ecircumflex.sc" horiz-adv-x="1120" 
d="M600 1392l-139 -171h-170l222 295h172l221 -295h-170zM349 157h657v-157h-831v1139h822v-157h-648v-328h589v-151h-589v-346z" />
    <glyph glyph-name="edieresis.sc" horiz-adv-x="1120" 
d="M509 1482v-192h-192v192h192zM881 1482v-192h-192v192h192zM349 157h657v-157h-831v1139h822v-157h-648v-328h589v-151h-589v-346z" />
    <glyph glyph-name="edotaccent.sc" horiz-adv-x="1120" 
d="M695 1482v-200h-192v200h192zM349 157h657v-157h-831v1139h822v-157h-648v-328h589v-151h-589v-346z" />
    <glyph glyph-name="egrave.sc" horiz-adv-x="1120" 
d="M708 1226h-156l-191 293h191zM349 157h657v-157h-831v1139h822v-157h-648v-328h589v-151h-589v-346z" />
    <glyph glyph-name="emacron.sc" horiz-adv-x="1120" 
d="M884 1446v-135h-572v135h572zM349 157h657v-157h-831v1139h822v-157h-648v-328h589v-151h-589v-346z" />
    <glyph glyph-name="eogonek.sc" horiz-adv-x="1120" 
d="M963 -262l63 -111q-80 -53 -157 -53q-109 0 -175.5 56t-66.5 147q0 124 170 223h-622v1139h822v-157h-648v-328h589v-151h-589v-346h657v-157h-56q-82 -42 -131 -96t-49 -104q0 -42 28.5 -68.5t74.5 -26.5q45 0 90 33z" />
    <glyph glyph-name="uni0259.sc" horiz-adv-x="1290" 
d="M618 1156q259 0 415 -160.5t156 -426.5q0 -268 -152 -430.5t-398 -162.5q-241 0 -389.5 162.5t-148.5 424.5v57h907q-13 175 -114.5 275.5t-277.5 100.5q-223 0 -337 -178l-137 100q74 116 196.5 177t279.5 61zM643 136q142 0 240 89t121 251h-718q21 -160 117.5 -250
t239.5 -90z" />
    <glyph glyph-name="f.sc" horiz-adv-x="1077" 
d="M994 982h-645v-341h562v-154h-562v-487h-174v1139h819v-157z" />
    <glyph glyph-name="g.sc" horiz-adv-x="1257" 
d="M662 609h474v-609h-158v115q-52 -67 -137.5 -103t-190.5 -36q-249 0 -399 162.5t-150 429.5q0 269 154 431t411 162q139 0 254.5 -56.5t195.5 -168.5l-140 -94q-113 158 -308 158q-172 0 -278.5 -116t-106.5 -316q0 -199 105 -314.5t279 -115.5q138 0 224.5 75t86.5 213
v31h-316v152z" />
    <glyph glyph-name="uni01F5.sc" horiz-adv-x="1258" 
d="M903 1519l-190 -293h-156l156 293h190zM662 609h474v-609h-158v115q-52 -67 -137.5 -103t-190.5 -36q-249 0 -399 162.5t-150 429.5q0 269 154 431t411 162q139 0 254.5 -56.5t195.5 -168.5l-140 -94q-113 158 -308 158q-172 0 -278.5 -116t-106.5 -316
q0 -199 105 -314.5t279 -115.5q138 0 224.5 75t86.5 213v31h-316v152z" />
    <glyph glyph-name="gbreve.sc" horiz-adv-x="1258" 
d="M666 1211q-125 0 -207.5 83.5t-91.5 221.5h140q8 -83 52 -133t107 -50t106.5 50t52.5 133h140q-8 -138 -90.5 -221.5t-208.5 -83.5zM662 609h474v-609h-158v115q-52 -67 -137.5 -103t-190.5 -36q-249 0 -399 162.5t-150 429.5q0 269 154 431t411 162q139 0 254.5 -56.5
t195.5 -168.5l-140 -94q-113 158 -308 158q-172 0 -278.5 -116t-106.5 -316q0 -199 105 -314.5t279 -115.5q138 0 224.5 75t86.5 213v31h-316v152z" />
    <glyph glyph-name="gcircumflex.sc" horiz-adv-x="1258" 
d="M667 1393l-140 -172h-170l224 295h171l222 -295h-171zM662 609h474v-609h-158v115q-52 -67 -137.5 -103t-190.5 -36q-249 0 -399 162.5t-150 429.5q0 269 154 431t411 162q139 0 254.5 -56.5t195.5 -168.5l-140 -94q-113 158 -308 158q-172 0 -278.5 -116t-106.5 -316
q0 -199 105 -314.5t279 -115.5q138 0 224.5 75t86.5 213v31h-316v152z" />
    <glyph glyph-name="uni0123.sc" horiz-adv-x="1258" 
d="M662 609h474v-609h-158v115q-52 -67 -137.5 -103t-190.5 -36q-249 0 -399 162.5t-150 429.5q0 269 154 431t411 162q139 0 254.5 -56.5t195.5 -168.5l-140 -94q-113 158 -308 158q-172 0 -278.5 -116t-106.5 -316q0 -199 105 -314.5t279 -115.5q138 0 224.5 75t86.5 213
v31h-316v152zM549 -261v179h213v-184q0 -60 -34 -103t-102 -78l-55 75q51 27 70 50.5t19 60.5h-111z" />
    <glyph glyph-name="gdotaccent.sc" horiz-adv-x="1258" 
d="M762 1482v-200h-193v200h193zM662 609h474v-609h-158v115q-52 -67 -137.5 -103t-190.5 -36q-249 0 -399 162.5t-150 429.5q0 269 154 431t411 162q139 0 254.5 -56.5t195.5 -168.5l-140 -94q-113 158 -308 158q-172 0 -278.5 -116t-106.5 -316q0 -199 105 -314.5
t279 -115.5q138 0 224.5 75t86.5 213v31h-316v152z" />
    <glyph glyph-name="h.sc" horiz-adv-x="1307" 
d="M958 1139h175v-1139h-175v497h-609v-497h-174v1139h174v-487h609v487z" />
    <glyph glyph-name="hbar.sc" horiz-adv-x="1306" 
d="M1251 958v-142h-118v-816h-175v497h-609v-497h-174v816h-120v142h120v181h174v-182h609v182h175v-181h118zM349 652h609v165h-609v-165z" />
    <glyph glyph-name="hcircumflex.sc" horiz-adv-x="1307" 
d="M654 1393l-138 -172h-171l223 295h172l222 -295h-171zM958 1139h175v-1139h-175v497h-609v-497h-174v1139h174v-487h609v487z" />
    <glyph glyph-name="i.sc" horiz-adv-x="524" 
d="M175 0v1139h174v-1139h-174z" />
    <glyph glyph-name="iacute.sc" horiz-adv-x="524" 
d="M153 1226l156 293h190l-191 -293h-155zM175 0v1139h174v-1139h-174z" />
    <glyph glyph-name="ibreve.sc" horiz-adv-x="524" 
d="M262 1211q-126 0 -208.5 83.5t-90.5 221.5h139q9 -83 53 -133t107 -50t106.5 50t52.5 133h139q-8 -138 -90 -221.5t-208 -83.5zM175 0v1139h174v-1139h-174z" />
    <glyph glyph-name="icircumflex.sc" horiz-adv-x="524" 
d="M348 1516l221 -295h-171l-135 171l-139 -171h-171l223 295h172zM175 0v1139h174v-1139h-174z" />
    <glyph glyph-name="idieresis.sc" horiz-adv-x="524" 
d="M-15 1290v192h187v-192h-187zM352 1290v192h188v-192h-188zM175 0v1139h175v-1139h-175z" />
    <glyph glyph-name="i.sc.loclTRK" horiz-adv-x="524" 
d="M165 1282v200h193v-200h-193zM175 0v1139h174v-1139h-174z" />
    <glyph glyph-name="igrave.sc" horiz-adv-x="524" 
d="M215 1226l-190 293h190l156 -293h-156zM175 0v1139h174v-1139h-174z" />
    <glyph glyph-name="ij.sc" horiz-adv-x="1487" 
d="M175 0v1139h174v-1139h-174zM977 -19q-136 0 -226 52.5t-151 164.5l142 84q73 -145 221 -145q92 0 141 58t49 160v784h174v-804q0 -162 -93.5 -258t-256.5 -96z" />
    <glyph glyph-name="imacron.sc" horiz-adv-x="524" 
d="M-25 1311v135h572v-135h-572zM175 0v1139h174v-1139h-174z" />
    <glyph glyph-name="iogonek.sc" horiz-adv-x="524" 
d="M355 -264l65 -110q-71 -52 -158 -52q-103 0 -167 58.5t-64 146.5q0 122 144 222v1138h174v-1139h-30q-59 -35 -101.5 -88t-42.5 -110q0 -43 26 -70.5t68 -27.5q41 0 86 32z" />
    <glyph glyph-name="itilde.sc" horiz-adv-x="524" 
d="M379 1252q-62 0 -140 52q-65 41 -107 41q-32 0 -58.5 -20t-65.5 -74l-107 86q58 80 114.5 117.5t123.5 37.5q65 0 141 -50q64 -42 106 -42q25 0 47.5 14t37 30t39.5 49l107 -86q-58 -80 -114.5 -117.5t-123.5 -37.5zM175 0v1139h174v-1139h-174z" />
    <glyph glyph-name="j.sc" horiz-adv-x="962" 
d="M453 -19q-136 0 -226 52.5t-151 164.5l142 84q73 -145 220 -145q92 0 141.5 58t49.5 160v784h174v-804q0 -162 -93.5 -258t-256.5 -96z" />
    <glyph glyph-name="jcircumflex.sc" horiz-adv-x="963" 
d="M803 1516l221 -295h-171l-136 172l-139 -172h-170l223 295h172zM629 355v784h174v-804q0 -162 -93.5 -258t-256.5 -96q-136 0 -226 52.5t-151 164.5l142 84q73 -145 220 -145q92 0 141.5 58t49.5 160z" />
    <glyph glyph-name="k.sc" horiz-adv-x="1145" 
d="M910 0l-355 552l-206 -227v-325h-174v1139h174v-586l529 586h208l-415 -459l447 -680h-208z" />
    <glyph glyph-name="uni0137.sc" horiz-adv-x="1145" 
d="M671 680l447 -680h-208l-355 552l-206 -227v-325h-174v1139h174v-586l529 586h208zM506 -261v179h213v-184q0 -60 -34 -103t-102 -78l-55 75q51 27 70 50.5t19 60.5h-111z" />
    <glyph glyph-name="l.sc" horiz-adv-x="969" 
d="M349 156h573v-156h-747v1139h174v-983z" />
    <glyph glyph-name="lacute.sc" horiz-adv-x="969" 
d="M499 1519l-191 -293h-155l156 293h190zM349 156h573v-156h-747v1139h174v-983z" />
    <glyph glyph-name="i.sc.latn_TRK.sc" horiz-adv-x="524" 
d="M165 1282v200h193v-200h-193zM175 0v1139h174v-1139h-174z" />
    <glyph glyph-name="lcaron.sc" horiz-adv-x="969" 
d="M349 156h573v-156h-747v1139h174v-983zM713 1139l-44 -422h-139v422h183z" />
    <glyph glyph-name="uni013C.sc" horiz-adv-x="969" 
d="M349 156h573v-156h-747v1139h174v-983zM460 -261v179h212v-184q0 -60 -33.5 -103t-101.5 -78l-55 75q51 27 70 51t19 60h-111z" />
    <glyph glyph-name="ldot.sc" horiz-adv-x="970" 
d="M349 156h574v-156h-748v1139h174v-983zM848 730v-211h-199v211h199z" />
    <glyph glyph-name="cacute.loclPLK.sc" horiz-adv-x="1207" 
d="M511 1226l112 293h185l-146 -293h-151zM657 -24q-253 0 -404.5 163t-151.5 430q0 268 150 430.5t402 162.5q154 0 277 -70t197 -202l-145 -80q-118 192 -326 192q-171 0 -273 -117.5t-102 -315.5q0 -197 104 -315t275 -118q111 0 188.5 51t133.5 158l147 -76
q-154 -293 -472 -293z" />
    <glyph glyph-name="nacute.loclPLK.sc" horiz-adv-x="1291" 
d="M801 1519l-147 -293h-150l111 293h186zM942 1139h174v-1139h-212l-555 891v-891h-174v1139h207l560 -895v895z" />
    <glyph glyph-name="oacute.loclPLK.sc" horiz-adv-x="1330" 
d="M522 1226l112 293h185l-146 -293h-151zM665 -24q-258 0 -411 162.5t-153 430.5t153 430.5t411 162.5t410.5 -162t152.5 -431t-152.5 -431t-410.5 -162zM665 138q173 0 278.5 117t105.5 314q0 198 -105 315t-279 117q-173 0 -278 -117t-105 -315q0 -197 105 -314t278 -117
z" />
    <glyph glyph-name="sacute.loclPLK.sc" horiz-adv-x="1134" 
d="M439 1226l112 293h185l-146 -293h-151zM586 -23q-169 0 -296.5 62t-198.5 179l134 92q51 -84 144 -130.5t217 -46.5q123 0 199.5 51t76.5 127q0 32 -11 57.5t-36.5 44t-49.5 31t-68 23t-73 16t-82 13.5q-69 10 -120 22.5t-110 37.5t-97 59t-63.5 89.5t-25.5 126.5
q0 148 120 239.5t318 91.5q157 0 280.5 -60.5t193.5 -174.5l-134 -88q-51 81 -140 124t-201 43q-114 0 -186 -49t-72 -121q0 -35 16 -63t41 -46t65.5 -32.5t77.5 -22.5t90 -17q56 -9 90 -15t86.5 -20t85.5 -29t71.5 -41t60.5 -57t37 -76.5t15 -100.5q0 -153 -123.5 -246
t-331.5 -93z" />
    <glyph glyph-name="zacute.loclPLK.sc" horiz-adv-x="1068" 
d="M381 1226l111 293h186l-147 -293h-150zM81 0v145l667 838h-651v156h874v-145l-668 -838h684v-156h-906z" />
    <glyph glyph-name="lslash.sc" horiz-adv-x="963" 
d="M342 156h573v-156h-747v467l-130 -63v166l130 63v506h174v-430l420 201v-167l-420 -201v-386z" />
    <glyph glyph-name="m.sc" horiz-adv-x="1544" 
d="M1369 1139v-1139h-174v864l-336 -864h-173l-337 865v-865h-174v1139h231l366 -922l367 922h230z" />
    <glyph glyph-name="n.sc" horiz-adv-x="1291" 
d="M942 1139h174v-1139h-212l-555 891v-891h-174v1139h207l560 -895v895z" />
    <glyph glyph-name="nacute.sc" horiz-adv-x="1291" 
d="M884 1519l-191 -293h-156l156 293h191zM942 1139h174v-1139h-212l-555 891v-891h-174v1139h207l560 -895v895z" />
    <glyph glyph-name="napostrophe.sc" horiz-adv-x="1590" 
d="M154 1236v239h225v-249q0 -114 -32.5 -180.5t-106.5 -122.5l-76 85q64 43 83.5 94t19.5 134h-113zM1241 1139h174v-1139h-212l-555 891v-891h-174v1139h207l560 -895v895z" />
    <glyph glyph-name="ncaron.sc" horiz-adv-x="1291" 
d="M728 1221h-172l-223 295h171l138 -171l136 171h171zM942 1139h174v-1139h-212l-555 891v-891h-174v1139h207l560 -895v895z" />
    <glyph glyph-name="uni0146.sc" horiz-adv-x="1291" 
d="M942 1139h174v-1139h-212l-555 891v-891h-174v1139h207l560 -895v895zM540 -261v179h213v-184q0 -60 -34 -103t-103 -78l-54 75q51 27 70 50.5t19 60.5h-111z" />
    <glyph glyph-name="eng.sc" horiz-adv-x="1291" 
d="M942 1139h174v-1148q0 -117 -86.5 -185.5t-230.5 -68.5q-118 0 -213 49l60 138q66 -36 140 -36q72 0 114 33t42 93v13l-593 865v-892h-174v1139h208l559 -830v830z" />
    <glyph glyph-name="ntilde.sc" horiz-adv-x="1291" 
d="M516 1345q-32 0 -58.5 -20t-65.5 -74l-107 86q58 80 114.5 117.5t123.5 37.5q65 0 141 -50q64 -42 107 -42q35 0 61 22.5t62 70.5l107 -86q-58 -80 -114.5 -117.5t-123.5 -37.5q-62 0 -140 52q-65 41 -107 41zM942 1139h174v-1139h-212l-555 891v-891h-174v1139h207
l560 -895v895z" />
    <glyph glyph-name="o.sc" horiz-adv-x="1329" 
d="M665 -24q-258 0 -411 162.5t-153 430.5t153 430.5t411 162.5t410.5 -162t152.5 -431t-152.5 -431t-410.5 -162zM665 138q173 0 278.5 117t105.5 314q0 198 -105 315t-279 117q-173 0 -278 -117t-105 -315q0 -197 105 -314t278 -117z" />
    </font>
</defs>
</svg>
